<?xml version="1.0" encoding="UTF-8" standalone="no"?>
<svg width="2976.38px" height="4209.45px" viewBox="0 0 2976.38 4209.45"
 xmlns="http://www.w3.org/2000/svg" xmlns:xlink="http://www.w3.org/1999/xlink" version="1.2" baseProfile="tiny">
<title>_O_batrana_intr-o_gara_Unde_e_Targovistea</title>
<desc>Generated by MuseScore 3.0.2</desc>
<polyline class="StaffLines" fill="none" stroke="#000000" stroke-width="1.81" stroke-linejoin="bevel" points="212.599,598.11 2763.78,598.11"/>
<polyline class="StaffLines" fill="none" stroke="#000000" stroke-width="1.81" stroke-linejoin="bevel" points="212.599,620.787 2763.78,620.787"/>
<polyline class="StaffLines" fill="none" stroke="#000000" stroke-width="1.81" stroke-linejoin="bevel" points="212.599,643.465 2763.78,643.465"/>
<polyline class="StaffLines" fill="none" stroke="#000000" stroke-width="1.81" stroke-linejoin="bevel" points="212.599,666.142 2763.78,666.142"/>
<polyline class="StaffLines" fill="none" stroke="#000000" stroke-width="1.81" stroke-linejoin="bevel" points="212.599,688.819 2763.78,688.819"/>
<polyline class="StaffLines" fill="none" stroke="#000000" stroke-width="1.81" stroke-linejoin="bevel" points="212.599,1028.98 2763.78,1028.98"/>
<polyline class="StaffLines" fill="none" stroke="#000000" stroke-width="1.81" stroke-linejoin="bevel" points="212.599,1051.65 2763.78,1051.65"/>
<polyline class="StaffLines" fill="none" stroke="#000000" stroke-width="1.81" stroke-linejoin="bevel" points="212.599,1074.33 2763.78,1074.33"/>
<polyline class="StaffLines" fill="none" stroke="#000000" stroke-width="1.81" stroke-linejoin="bevel" points="212.599,1097.01 2763.78,1097.01"/>
<polyline class="StaffLines" fill="none" stroke="#000000" stroke-width="1.81" stroke-linejoin="bevel" points="212.599,1119.69 2763.78,1119.69"/>
<polyline class="StaffLines" fill="none" stroke="#000000" stroke-width="1.81" stroke-linejoin="bevel" points="212.599,1459.84 2763.78,1459.84"/>
<polyline class="StaffLines" fill="none" stroke="#000000" stroke-width="1.81" stroke-linejoin="bevel" points="212.599,1482.52 2763.78,1482.52"/>
<polyline class="StaffLines" fill="none" stroke="#000000" stroke-width="1.81" stroke-linejoin="bevel" points="212.599,1505.2 2763.78,1505.2"/>
<polyline class="StaffLines" fill="none" stroke="#000000" stroke-width="1.81" stroke-linejoin="bevel" points="212.599,1527.87 2763.78,1527.87"/>
<polyline class="StaffLines" fill="none" stroke="#000000" stroke-width="1.81" stroke-linejoin="bevel" points="212.599,1550.55 2763.78,1550.55"/>
<path class="Text" d="M916.567,363.078 C903.078,363.078 891.682,358.292 882.38,348.719 C873.078,339.146 868.427,326.635 868.427,311.187 C868.427,296.042 873.026,283.604 882.224,273.875 C891.421,264.146 903.171,259.281 917.474,259.281 C931.869,259.281 943.643,264.12 952.794,273.797 C961.945,283.474 966.52,296.135 966.52,311.781 C966.52,326.927 961.895,339.263 952.645,348.789 C943.395,358.315 931.369,363.078 916.567,363.078 M949.427,311.641 C949.427,304.463 948.726,298.083 947.325,292.5 C945.924,286.917 944.148,282.43 941.997,279.039 C939.846,275.648 937.32,272.857 934.419,270.664 C931.518,268.471 928.692,266.977 925.942,266.18 C923.192,265.383 920.369,264.984 917.474,264.984 C912.578,264.984 908.179,266.031 904.278,268.125 C900.377,270.219 897.302,272.836 895.052,275.977 C892.802,279.117 890.927,282.831 889.427,287.117 C887.927,291.404 886.901,295.516 886.349,299.453 C885.796,303.391 885.52,307.401 885.52,311.484 C885.52,316.568 886.02,321.552 887.02,326.437 C888.02,331.323 889.622,336.206 891.825,341.086 C894.028,345.966 897.304,349.904 901.653,352.898 C906.002,355.893 911.177,357.391 917.177,357.391 C923.27,357.391 928.544,355.893 932.997,352.898 C937.45,349.904 940.802,345.966 943.052,341.086 C945.302,336.206 946.927,331.323 947.927,326.437 C948.927,321.552 949.427,316.62 949.427,311.641 M1034.18,258.844 L1034.18,304.75 C1035.68,301.052 1038.38,298 1042.28,295.594 C1046.18,293.187 1050.43,291.984 1055.02,291.984 C1062.52,291.984 1068.8,295.122 1073.85,301.398 C1078.9,307.674 1081.43,315.427 1081.43,324.656 C1081.43,335.323 1078.05,344.294 1071.3,351.57 C1064.55,358.846 1056.23,362.484 1046.33,362.484 C1040.33,362.484 1034.71,361.49 1029.46,359.5 C1024.21,357.51 1021.58,355.396 1021.58,353.156 L1021.58,275.031 C1021.58,271.937 1021.11,269.891 1020.15,268.891 C1019.2,267.891 1017.22,267.391 1014.22,267.391 C1013.13,267.391 1012.28,267.437 1011.68,267.531 L1011.68,265.141 C1019.37,263.234 1026.62,261.031 1033.43,258.531 L1034.18,258.844 M1034.18,312.75 L1034.18,350.75 C1034.18,352.656 1035.63,354.338 1038.53,355.797 C1041.43,357.255 1044.83,357.984 1048.72,357.984 C1054.92,357.984 1059.72,355.672 1063.12,351.047 C1066.52,346.422 1068.22,339.937 1068.22,331.594 C1068.22,322.448 1066.5,315.135 1063.05,309.656 C1059.6,304.177 1054.93,301.437 1049.02,301.437 C1045.12,301.437 1041.68,302.594 1038.68,304.906 C1035.68,307.219 1034.18,309.833 1034.18,312.75 M1132.57,261.391 L1136.93,261.391 C1135.12,277.088 1128.03,284.937 1115.63,284.937 C1110.03,284.937 1105.2,283.187 1101.15,279.687 C1097.11,276.187 1094.98,270.088 1094.77,261.391 L1099.13,261.391 C1100.22,266.391 1102.1,270.065 1104.75,272.414 C1107.4,274.763 1111.12,275.937 1115.93,275.937 C1120.32,275.937 1123.67,274.937 1125.97,272.937 C1128.28,270.937 1130.47,267.088 1132.57,261.391 M1088.93,346.172 C1088.93,344.38 1089.13,342.713 1089.53,341.172 C1089.93,339.63 1090.63,338.187 1091.63,336.844 C1092.63,335.5 1093.58,334.281 1094.48,333.187 C1095.38,332.094 1096.73,330.974 1098.53,329.828 C1100.33,328.682 1101.83,327.737 1103.03,326.992 C1104.23,326.247 1106.06,325.354 1108.5,324.312 C1110.95,323.271 1112.83,322.477 1114.13,321.93 C1115.43,321.383 1117.48,320.562 1120.28,319.469 C1123.08,318.375 1125.12,317.578 1126.43,317.078 L1126.43,307.969 C1126.43,299.719 1122.62,295.594 1115.02,295.594 C1112.02,295.594 1109.47,296.318 1107.37,297.766 C1105.27,299.213 1104.22,300.937 1104.22,302.937 C1104.22,303.74 1104.35,304.841 1104.6,306.242 C1104.85,307.643 1104.97,308.542 1104.97,308.937 C1104.97,310.635 1104.3,312.109 1102.95,313.359 C1101.6,314.609 1100.03,315.234 1098.22,315.234 C1096.53,315.234 1095.03,314.586 1093.72,313.289 C1092.42,311.992 1091.77,310.49 1091.77,308.781 C1091.77,304.083 1094.2,300.109 1099.05,296.859 C1103.91,293.609 1109.88,291.984 1116.97,291.984 C1125.17,291.984 1130.82,293.95 1133.92,297.883 C1137.02,301.815 1138.57,307.812 1138.57,315.875 L1138.57,344.984 C1138.57,348.266 1138.89,350.529 1139.54,351.773 C1140.19,353.018 1141.37,353.641 1143.07,353.641 C1145.17,353.641 1147.37,352.693 1149.68,350.797 L1149.68,354.734 C1147.07,357.734 1144.8,359.776 1142.85,360.859 C1140.9,361.943 1138.68,362.484 1136.18,362.484 C1133.07,362.484 1130.8,361.612 1129.35,359.867 C1127.9,358.122 1126.97,355.25 1126.57,351.25 C1117.97,358.74 1110.68,362.484 1104.68,362.484 C1100.07,362.484 1096.3,360.961 1093.35,357.914 C1090.4,354.867 1088.93,350.953 1088.93,346.172 M1126.43,342.297 L1126.43,320.656 C1117.43,323.937 1111.13,327.12 1107.53,330.203 C1103.93,333.286 1102.13,337.021 1102.13,341.406 C1102.13,345.479 1103.13,348.51 1105.13,350.5 C1107.13,352.49 1109.28,353.484 1111.58,353.484 C1114.98,353.484 1118.62,352.338 1122.52,350.047 C1124.12,349.151 1125.18,348.206 1125.68,347.211 C1126.18,346.216 1126.43,344.578 1126.43,342.297 M1189.02,293.484 L1189.02,297.984 L1173.88,297.984 L1173.88,340.891 C1173.88,345.588 1174.48,349.013 1175.68,351.164 C1176.87,353.315 1178.87,354.391 1181.68,354.391 C1184.78,354.391 1187.78,352.641 1190.68,349.141 L1192.63,350.781 C1187.83,358.583 1181.83,362.484 1174.63,362.484 C1165.72,362.484 1161.27,356.104 1161.27,343.344 L1161.27,297.984 L1153.33,297.984 C1152.93,297.703 1152.72,297.375 1152.72,297 C1152.72,296.531 1152.87,296.156 1153.18,295.875 C1153.48,295.594 1154.05,295.195 1154.9,294.68 C1155.75,294.164 1156.78,293.424 1157.97,292.461 C1159.17,291.497 1160.82,289.75 1162.93,287.219 C1165.03,284.687 1167.33,281.646 1169.83,278.094 C1171.43,275.76 1172.43,274.344 1172.83,273.844 C1173.53,273.844 1173.88,274.5 1173.88,275.812 L1173.88,293.484 L1189.02,293.484 M1237.32,306.687 C1235.82,306.687 1233.97,305.812 1231.77,304.062 C1229.57,302.312 1228.12,301.437 1227.43,301.437 C1225.43,301.437 1223.18,302.888 1220.68,305.789 C1218.18,308.69 1216.93,311.338 1216.93,313.734 L1216.93,347.484 C1216.93,351.786 1217.78,354.687 1219.47,356.187 C1221.17,357.687 1224.57,358.536 1229.68,358.734 L1229.68,360.984 L1193.68,360.984 L1193.68,358.734 C1198.48,357.838 1201.46,356.838 1202.61,355.734 C1203.76,354.63 1204.33,352.182 1204.33,348.391 L1204.33,310.891 C1204.33,307.588 1203.96,305.263 1203.21,303.914 C1202.46,302.565 1201.13,301.891 1199.22,301.891 C1197.63,301.891 1195.88,302.088 1193.97,302.484 L1193.97,300.094 C1201.97,297.49 1209.37,294.786 1216.18,291.984 L1216.93,292.281 L1216.93,306.094 C1220.62,300.792 1223.77,297.115 1226.37,295.062 C1228.97,293.01 1231.82,291.984 1234.93,291.984 C1237.52,291.984 1239.54,292.685 1241,294.086 C1242.45,295.487 1243.18,297.437 1243.18,299.937 C1243.18,302.042 1242.65,303.693 1241.6,304.891 C1240.55,306.088 1239.12,306.687 1237.32,306.687 M1297.88,284.937 L1292.77,284.937 L1274.47,269.484 L1256.33,284.937 L1251.22,284.937 L1269.83,259.891 L1279.13,259.891 L1297.88,284.937 M1247.93,346.172 C1247.93,344.38 1248.13,342.713 1248.53,341.172 C1248.93,339.63 1249.63,338.187 1250.63,336.844 C1251.63,335.5 1252.58,334.281 1253.48,333.187 C1254.38,332.094 1255.73,330.974 1257.53,329.828 C1259.33,328.682 1260.83,327.737 1262.03,326.992 C1263.23,326.247 1265.06,325.354 1267.5,324.312 C1269.95,323.271 1271.83,322.477 1273.13,321.93 C1274.43,321.383 1276.48,320.562 1279.28,319.469 C1282.08,318.375 1284.12,317.578 1285.43,317.078 L1285.43,307.969 C1285.43,299.719 1281.62,295.594 1274.02,295.594 C1271.02,295.594 1268.47,296.318 1266.37,297.766 C1264.27,299.213 1263.22,300.937 1263.22,302.937 C1263.22,303.74 1263.35,304.841 1263.6,306.242 C1263.85,307.643 1263.97,308.542 1263.97,308.937 C1263.97,310.635 1263.3,312.109 1261.95,313.359 C1260.6,314.609 1259.03,315.234 1257.22,315.234 C1255.53,315.234 1254.03,314.586 1252.72,313.289 C1251.42,311.992 1250.77,310.49 1250.77,308.781 C1250.77,304.083 1253.2,300.109 1258.05,296.859 C1262.91,293.609 1268.88,291.984 1275.97,291.984 C1284.17,291.984 1289.82,293.95 1292.92,297.883 C1296.02,301.815 1297.57,307.812 1297.57,315.875 L1297.57,344.984 C1297.57,348.266 1297.89,350.529 1298.54,351.773 C1299.19,353.018 1300.37,353.641 1302.07,353.641 C1304.17,353.641 1306.37,352.693 1308.68,350.797 L1308.68,354.734 C1306.07,357.734 1303.8,359.776 1301.85,360.859 C1299.9,361.943 1297.68,362.484 1295.18,362.484 C1292.07,362.484 1289.8,361.612 1288.35,359.867 C1286.9,358.122 1285.97,355.25 1285.57,351.25 C1276.97,358.74 1269.68,362.484 1263.68,362.484 C1259.07,362.484 1255.3,360.961 1252.35,357.914 C1249.4,354.867 1247.93,350.953 1247.93,346.172 M1285.43,342.297 L1285.43,320.656 C1276.43,323.937 1270.13,327.12 1266.53,330.203 C1262.93,333.286 1261.13,337.021 1261.13,341.406 C1261.13,345.479 1262.13,348.51 1264.13,350.5 C1266.13,352.49 1268.28,353.484 1270.58,353.484 C1273.98,353.484 1277.62,352.338 1281.52,350.047 C1283.12,349.151 1284.18,348.206 1284.68,347.211 C1285.18,346.216 1285.43,344.578 1285.43,342.297 M1310.68,301.141 L1310.68,298.594 C1318.07,296.437 1324.97,294.234 1331.38,291.984 L1332.43,292.281 L1332.43,304 C1337.53,299.25 1341.56,296.06 1344.5,294.43 C1347.45,292.799 1350.68,291.984 1354.18,291.984 C1359.68,291.984 1364,293.95 1367.15,297.883 C1370.3,301.815 1371.88,307.312 1371.88,314.375 L1371.88,348.812 C1371.88,352.521 1372.48,355 1373.68,356.25 C1374.87,357.5 1377.32,358.328 1381.02,358.734 L1381.02,360.984 L1349.82,360.984 L1349.82,358.734 C1353.62,358.432 1356.15,357.43 1357.4,355.727 C1358.65,354.023 1359.27,350.818 1359.27,346.109 L1359.27,314.672 C1359.27,304.953 1355.62,300.094 1348.32,300.094 C1345.83,300.094 1343.53,300.669 1341.43,301.82 C1339.32,302.971 1336.47,305.25 1332.88,308.656 L1332.88,350.906 C1332.88,353.615 1333.58,355.521 1334.98,356.625 C1336.38,357.729 1338.98,358.432 1342.77,358.734 L1342.77,360.984 L1310.97,360.984 L1310.97,358.734 C1314.78,358.432 1317.28,357.555 1318.47,356.102 C1319.67,354.648 1320.27,351.766 1320.27,347.453 L1320.27,310.156 C1320.27,306.448 1319.87,303.917 1319.08,302.562 C1318.28,301.208 1316.83,300.531 1314.72,300.531 C1312.83,300.531 1311.48,300.734 1310.68,301.141 M1429.57,261.391 L1433.93,261.391 C1432.12,277.088 1425.03,284.937 1412.63,284.937 C1407.03,284.937 1402.2,283.187 1398.15,279.687 C1394.11,276.187 1391.98,270.088 1391.77,261.391 L1396.13,261.391 C1397.22,266.391 1399.1,270.065 1401.75,272.414 C1404.4,274.763 1408.12,275.937 1412.93,275.937 C1417.32,275.937 1420.67,274.937 1422.97,272.937 C1425.28,270.937 1427.47,267.088 1429.57,261.391 M1385.93,346.172 C1385.93,344.38 1386.13,342.713 1386.53,341.172 C1386.93,339.63 1387.63,338.187 1388.63,336.844 C1389.63,335.5 1390.58,334.281 1391.48,333.187 C1392.38,332.094 1393.73,330.974 1395.53,329.828 C1397.33,328.682 1398.83,327.737 1400.03,326.992 C1401.23,326.247 1403.06,325.354 1405.5,324.312 C1407.95,323.271 1409.83,322.477 1411.13,321.93 C1412.43,321.383 1414.48,320.562 1417.28,319.469 C1420.08,318.375 1422.12,317.578 1423.43,317.078 L1423.43,307.969 C1423.43,299.719 1419.62,295.594 1412.02,295.594 C1409.02,295.594 1406.47,296.318 1404.37,297.766 C1402.27,299.213 1401.22,300.937 1401.22,302.937 C1401.22,303.74 1401.35,304.841 1401.6,306.242 C1401.85,307.643 1401.97,308.542 1401.97,308.937 C1401.97,310.635 1401.3,312.109 1399.95,313.359 C1398.6,314.609 1397.03,315.234 1395.22,315.234 C1393.53,315.234 1392.03,314.586 1390.72,313.289 C1389.42,311.992 1388.77,310.49 1388.77,308.781 C1388.77,304.083 1391.2,300.109 1396.05,296.859 C1400.91,293.609 1406.88,291.984 1413.97,291.984 C1422.17,291.984 1427.82,293.95 1430.92,297.883 C1434.02,301.815 1435.57,307.812 1435.57,315.875 L1435.57,344.984 C1435.57,348.266 1435.89,350.529 1436.54,351.773 C1437.19,353.018 1438.37,353.641 1440.07,353.641 C1442.17,353.641 1444.37,352.693 1446.68,350.797 L1446.68,354.734 C1444.07,357.734 1441.8,359.776 1439.85,360.859 C1437.9,361.943 1435.68,362.484 1433.18,362.484 C1430.07,362.484 1427.8,361.612 1426.35,359.867 C1424.9,358.122 1423.97,355.25 1423.57,351.25 C1414.97,358.74 1407.68,362.484 1401.68,362.484 C1397.07,362.484 1393.3,360.961 1390.35,357.914 C1387.4,354.867 1385.93,350.953 1385.93,346.172 M1423.43,342.297 L1423.43,320.656 C1414.43,323.937 1408.13,327.12 1404.53,330.203 C1400.93,333.286 1399.13,337.021 1399.13,341.406 C1399.13,345.479 1400.13,348.51 1402.13,350.5 C1404.13,352.49 1406.28,353.484 1408.58,353.484 C1411.98,353.484 1415.62,352.338 1419.52,350.047 C1421.12,349.151 1422.18,348.206 1422.68,347.211 C1423.18,346.216 1423.43,344.578 1423.43,342.297 M1529.43,284.937 L1524.32,284.937 L1506.02,269.484 L1487.88,284.937 L1482.77,284.937 L1501.38,259.891 L1510.68,259.891 L1529.43,284.937 M1494.47,301.891 C1493.28,301.891 1491.18,302.088 1488.18,302.484 L1488.18,300.234 L1511.43,291.984 L1512.02,292.437 L1512.02,345.687 C1512.02,351.083 1512.65,354.508 1513.9,355.961 C1515.15,357.414 1518.22,358.338 1523.13,358.734 L1523.13,360.984 L1487.58,360.984 L1487.58,358.734 C1492.78,358.432 1496.05,357.531 1497.4,356.031 C1498.75,354.531 1499.43,351.083 1499.43,345.687 L1499.43,310.891 C1499.43,307.588 1499.05,305.263 1498.3,303.914 C1497.55,302.565 1496.28,301.891 1494.47,301.891 M1528.68,301.141 L1528.68,298.594 C1536.07,296.437 1542.97,294.234 1549.38,291.984 L1550.43,292.281 L1550.43,304 C1555.53,299.25 1559.56,296.06 1562.5,294.43 C1565.45,292.799 1568.68,291.984 1572.18,291.984 C1577.68,291.984 1582,293.95 1585.15,297.883 C1588.3,301.815 1589.88,307.312 1589.88,314.375 L1589.88,348.812 C1589.88,352.521 1590.48,355 1591.68,356.25 C1592.87,357.5 1595.32,358.328 1599.02,358.734 L1599.02,360.984 L1567.82,360.984 L1567.82,358.734 C1571.62,358.432 1574.15,357.43 1575.4,355.727 C1576.65,354.023 1577.27,350.818 1577.27,346.109 L1577.27,314.672 C1577.27,304.953 1573.62,300.094 1566.32,300.094 C1563.83,300.094 1561.53,300.669 1559.43,301.82 C1557.32,302.971 1554.47,305.25 1550.88,308.656 L1550.88,350.906 C1550.88,353.615 1551.58,355.521 1552.98,356.625 C1554.38,357.729 1556.98,358.432 1560.77,358.734 L1560.77,360.984 L1528.97,360.984 L1528.97,358.734 C1532.78,358.432 1535.28,357.555 1536.47,356.102 C1537.67,354.648 1538.27,351.766 1538.27,347.453 L1538.27,310.156 C1538.27,306.448 1537.87,303.917 1537.08,302.562 C1536.28,301.208 1534.83,300.531 1532.72,300.531 C1530.83,300.531 1529.48,300.734 1528.68,301.141 M1639.02,293.484 L1639.02,297.984 L1623.88,297.984 L1623.88,340.891 C1623.88,345.588 1624.48,349.013 1625.68,351.164 C1626.87,353.315 1628.87,354.391 1631.68,354.391 C1634.78,354.391 1637.78,352.641 1640.68,349.141 L1642.63,350.781 C1637.83,358.583 1631.83,362.484 1624.63,362.484 C1615.72,362.484 1611.27,356.104 1611.27,343.344 L1611.27,297.984 L1603.33,297.984 C1602.93,297.703 1602.72,297.375 1602.72,297 C1602.72,296.531 1602.87,296.156 1603.18,295.875 C1603.48,295.594 1604.05,295.195 1604.9,294.68 C1605.75,294.164 1606.78,293.424 1607.97,292.461 C1609.17,291.497 1610.82,289.75 1612.93,287.219 C1615.03,284.687 1617.33,281.646 1619.83,278.094 C1621.43,275.76 1622.43,274.344 1622.83,273.844 C1623.53,273.844 1623.88,274.5 1623.88,275.812 L1623.88,293.484 L1639.02,293.484 M1687.32,306.687 C1685.82,306.687 1683.97,305.812 1681.77,304.062 C1679.57,302.312 1678.12,301.437 1677.43,301.437 C1675.43,301.437 1673.18,302.888 1670.68,305.789 C1668.18,308.69 1666.93,311.338 1666.93,313.734 L1666.93,347.484 C1666.93,351.786 1667.78,354.687 1669.47,356.187 C1671.17,357.687 1674.57,358.536 1679.68,358.734 L1679.68,360.984 L1643.68,360.984 L1643.68,358.734 C1648.48,357.838 1651.46,356.838 1652.61,355.734 C1653.76,354.63 1654.33,352.182 1654.33,348.391 L1654.33,310.891 C1654.33,307.588 1653.96,305.263 1653.21,303.914 C1652.46,302.565 1651.13,301.891 1649.22,301.891 C1647.63,301.891 1645.88,302.088 1643.97,302.484 L1643.97,300.094 C1651.97,297.49 1659.37,294.786 1666.18,291.984 L1666.93,292.281 L1666.93,306.094 C1670.62,300.792 1673.77,297.115 1676.37,295.062 C1678.97,293.01 1681.82,291.984 1684.93,291.984 C1687.52,291.984 1689.54,292.685 1691,294.086 C1692.45,295.487 1693.18,297.437 1693.18,299.937 C1693.18,302.042 1692.65,303.693 1691.6,304.891 C1690.55,306.088 1689.12,306.687 1687.32,306.687 M1700.02,322.437 L1736.93,322.437 L1736.93,331.891 L1700.02,331.891 L1700.02,322.437 M1781.08,291.984 C1790.68,291.984 1798.57,295.185 1804.77,301.586 C1810.97,307.987 1814.07,316.094 1814.07,325.906 C1814.07,336.302 1810.87,344.997 1804.47,351.992 C1798.08,358.987 1790.18,362.484 1780.78,362.484 C1771.38,362.484 1763.55,359.109 1757.3,352.359 C1751.05,345.609 1747.93,337.187 1747.93,327.094 C1747.93,316.792 1751,308.365 1757.15,301.812 C1763.3,295.26 1771.28,291.984 1781.08,291.984 M1761.43,319.812 C1761.43,330.406 1763.38,339.417 1767.28,346.844 C1771.18,354.271 1776.28,357.984 1782.58,357.984 C1788.18,357.984 1792.57,355.607 1795.77,350.852 C1798.97,346.096 1800.57,339.51 1800.57,331.094 C1800.57,320.896 1798.57,312.578 1794.57,306.141 C1790.57,299.703 1785.42,296.484 1779.13,296.484 C1773.83,296.484 1769.55,298.615 1766.3,302.875 C1763.05,307.135 1761.43,312.781 1761.43,319.812 M1865.18,352.891 C1865.18,350.984 1865.85,349.232 1867.2,347.633 C1868.55,346.034 1872.32,342.333 1878.52,336.531 C1873.52,334.021 1869.95,331.208 1867.8,328.094 C1865.66,324.979 1864.58,321.062 1864.58,316.344 C1864.58,309.573 1867.01,303.82 1871.86,299.086 C1876.71,294.352 1882.63,291.984 1889.63,291.984 C1893.53,291.984 1897.7,292.81 1902.15,294.461 C1906.59,296.112 1910.27,296.937 1913.18,296.937 L1924.72,296.937 L1924.72,302.641 L1912.27,302.641 C1914.18,306.953 1915.13,311.172 1915.13,315.297 C1915.13,322.224 1912.8,327.846 1908.15,332.164 C1903.5,336.482 1898.03,338.641 1891.72,338.641 C1890.53,338.641 1887.68,338.391 1883.18,337.891 C1881.18,338.484 1879.18,339.831 1877.18,341.93 C1875.18,344.029 1874.18,345.828 1874.18,347.328 C1874.18,349.734 1878.08,351.088 1885.88,351.391 L1905.22,352.281 C1910.72,352.479 1915.12,354.029 1918.43,356.93 C1921.73,359.831 1923.38,363.63 1923.38,368.328 C1923.38,375.536 1919.25,381.565 1911,386.414 C1902.75,391.263 1893.88,393.687 1884.38,393.687 C1877.28,393.687 1871.17,392.263 1866.08,389.414 C1860.98,386.565 1858.43,383.141 1858.43,379.141 C1858.43,376.338 1859.55,373.562 1861.8,370.812 C1864.05,368.062 1867.83,364.734 1873.13,360.828 C1870.03,359.328 1867.92,358.029 1866.83,356.93 C1865.73,355.831 1865.18,354.484 1865.18,352.891 M1876.27,361.281 C1873.18,364.979 1871.18,367.63 1870.28,369.234 C1869.38,370.838 1868.93,372.49 1868.93,374.187 C1868.93,377.49 1870.93,380.141 1874.93,382.141 C1878.93,384.141 1884.23,385.141 1890.83,385.141 C1899.32,385.141 1906.17,383.789 1911.37,381.086 C1916.58,378.383 1919.18,374.88 1919.18,370.578 C1919.18,367.88 1917.78,365.982 1914.97,364.883 C1912.17,363.784 1907.37,363.234 1900.57,363.234 C1890.47,363.234 1882.37,362.583 1876.27,361.281 M1903.57,321.172 C1903.57,319.495 1903.37,317.474 1902.97,315.109 C1902.58,312.745 1901.88,310.06 1900.88,307.055 C1899.88,304.049 1898.28,301.536 1896.08,299.516 C1893.87,297.495 1891.22,296.484 1888.13,296.484 C1884.63,296.484 1881.9,297.698 1879.95,300.125 C1878,302.552 1877.02,305.901 1877.02,310.172 C1877.02,318.807 1878.62,325.086 1881.83,329.008 C1885.03,332.93 1888.53,334.891 1892.33,334.891 C1895.82,334.891 1898.57,333.659 1900.57,331.195 C1902.57,328.732 1903.57,325.391 1903.57,321.172 M1929.93,346.172 C1929.93,344.38 1930.13,342.713 1930.53,341.172 C1930.93,339.63 1931.63,338.187 1932.63,336.844 C1933.63,335.5 1934.58,334.281 1935.48,333.187 C1936.38,332.094 1937.73,330.974 1939.53,329.828 C1941.33,328.682 1942.83,327.737 1944.03,326.992 C1945.23,326.247 1947.06,325.354 1949.5,324.312 C1951.95,323.271 1953.83,322.477 1955.13,321.93 C1956.43,321.383 1958.48,320.562 1961.28,319.469 C1964.08,318.375 1966.12,317.578 1967.43,317.078 L1967.43,307.969 C1967.43,299.719 1963.62,295.594 1956.02,295.594 C1953.02,295.594 1950.47,296.318 1948.37,297.766 C1946.27,299.213 1945.22,300.937 1945.22,302.937 C1945.22,303.74 1945.35,304.841 1945.6,306.242 C1945.85,307.643 1945.97,308.542 1945.97,308.937 C1945.97,310.635 1945.3,312.109 1943.95,313.359 C1942.6,314.609 1941.03,315.234 1939.22,315.234 C1937.53,315.234 1936.03,314.586 1934.72,313.289 C1933.42,311.992 1932.77,310.49 1932.77,308.781 C1932.77,304.083 1935.2,300.109 1940.05,296.859 C1944.91,293.609 1950.88,291.984 1957.97,291.984 C1966.17,291.984 1971.82,293.95 1974.92,297.883 C1978.02,301.815 1979.57,307.812 1979.57,315.875 L1979.57,344.984 C1979.57,348.266 1979.89,350.529 1980.54,351.773 C1981.19,353.018 1982.37,353.641 1984.07,353.641 C1986.17,353.641 1988.37,352.693 1990.68,350.797 L1990.68,354.734 C1988.07,357.734 1985.8,359.776 1983.85,360.859 C1981.9,361.943 1979.68,362.484 1977.18,362.484 C1974.07,362.484 1971.8,361.612 1970.35,359.867 C1968.9,358.122 1967.97,355.25 1967.57,351.25 C1958.97,358.74 1951.68,362.484 1945.68,362.484 C1941.07,362.484 1937.3,360.961 1934.35,357.914 C1931.4,354.867 1929.93,350.953 1929.93,346.172 M1967.43,342.297 L1967.43,320.656 C1958.43,323.937 1952.13,327.12 1948.53,330.203 C1944.93,333.286 1943.13,337.021 1943.13,341.406 C1943.13,345.479 1944.13,348.51 1946.13,350.5 C1948.13,352.49 1950.28,353.484 1952.58,353.484 C1955.98,353.484 1959.62,352.338 1963.52,350.047 C1965.12,349.151 1966.18,348.206 1966.68,347.211 C1967.18,346.216 1967.43,344.578 1967.43,342.297 M2036.32,306.687 C2034.82,306.687 2032.97,305.812 2030.77,304.062 C2028.57,302.312 2027.12,301.437 2026.43,301.437 C2024.43,301.437 2022.18,302.888 2019.68,305.789 C2017.18,308.69 2015.93,311.338 2015.93,313.734 L2015.93,347.484 C2015.93,351.786 2016.78,354.687 2018.47,356.187 C2020.17,357.687 2023.57,358.536 2028.68,358.734 L2028.68,360.984 L1992.68,360.984 L1992.68,358.734 C1997.48,357.838 2000.46,356.838 2001.61,355.734 C2002.76,354.63 2003.33,352.182 2003.33,348.391 L2003.33,310.891 C2003.33,307.588 2002.96,305.263 2002.21,303.914 C2001.46,302.565 2000.13,301.891 1998.22,301.891 C1996.63,301.891 1994.88,302.088 1992.97,302.484 L1992.97,300.094 C2000.97,297.49 2008.37,294.786 2015.18,291.984 L2015.93,292.281 L2015.93,306.094 C2019.62,300.792 2022.77,297.115 2025.37,295.062 C2027.97,293.01 2030.82,291.984 2033.93,291.984 C2036.52,291.984 2038.54,292.685 2040,294.086 C2041.45,295.487 2042.18,297.437 2042.18,299.937 C2042.18,302.042 2041.65,303.693 2040.6,304.891 C2039.55,306.088 2038.12,306.687 2036.32,306.687 M2090.57,261.391 L2094.93,261.391 C2093.12,277.088 2086.03,284.937 2073.63,284.937 C2068.03,284.937 2063.2,283.187 2059.15,279.687 C2055.11,276.187 2052.98,270.088 2052.77,261.391 L2057.13,261.391 C2058.22,266.391 2060.1,270.065 2062.75,272.414 C2065.4,274.763 2069.12,275.937 2073.93,275.937 C2078.32,275.937 2081.67,274.937 2083.97,272.937 C2086.28,270.937 2088.47,267.088 2090.57,261.391 M2046.93,346.172 C2046.93,344.38 2047.13,342.713 2047.53,341.172 C2047.93,339.63 2048.63,338.187 2049.63,336.844 C2050.63,335.5 2051.58,334.281 2052.48,333.187 C2053.38,332.094 2054.73,330.974 2056.53,329.828 C2058.33,328.682 2059.83,327.737 2061.03,326.992 C2062.23,326.247 2064.06,325.354 2066.5,324.312 C2068.95,323.271 2070.83,322.477 2072.13,321.93 C2073.43,321.383 2075.48,320.562 2078.28,319.469 C2081.08,318.375 2083.12,317.578 2084.43,317.078 L2084.43,307.969 C2084.43,299.719 2080.62,295.594 2073.02,295.594 C2070.02,295.594 2067.47,296.318 2065.37,297.766 C2063.27,299.213 2062.22,300.937 2062.22,302.937 C2062.22,303.74 2062.35,304.841 2062.6,306.242 C2062.85,307.643 2062.97,308.542 2062.97,308.937 C2062.97,310.635 2062.3,312.109 2060.95,313.359 C2059.6,314.609 2058.03,315.234 2056.22,315.234 C2054.53,315.234 2053.03,314.586 2051.72,313.289 C2050.42,311.992 2049.77,310.49 2049.77,308.781 C2049.77,304.083 2052.2,300.109 2057.05,296.859 C2061.91,293.609 2067.88,291.984 2074.97,291.984 C2083.17,291.984 2088.82,293.95 2091.92,297.883 C2095.02,301.815 2096.57,307.812 2096.57,315.875 L2096.57,344.984 C2096.57,348.266 2096.89,350.529 2097.54,351.773 C2098.19,353.018 2099.37,353.641 2101.07,353.641 C2103.17,353.641 2105.37,352.693 2107.68,350.797 L2107.68,354.734 C2105.07,357.734 2102.8,359.776 2100.85,360.859 C2098.9,361.943 2096.68,362.484 2094.18,362.484 C2091.07,362.484 2088.8,361.612 2087.35,359.867 C2085.9,358.122 2084.97,355.25 2084.57,351.25 C2075.97,358.74 2068.68,362.484 2062.68,362.484 C2058.07,362.484 2054.3,360.961 2051.35,357.914 C2048.4,354.867 2046.93,350.953 2046.93,346.172 M2084.43,342.297 L2084.43,320.656 C2075.43,323.937 2069.13,327.12 2065.53,330.203 C2061.93,333.286 2060.13,337.021 2060.13,341.406 C2060.13,345.479 2061.13,348.51 2063.13,350.5 C2065.13,352.49 2067.28,353.484 2069.58,353.484 C2072.98,353.484 2076.62,352.338 2080.52,350.047 C2082.12,349.151 2083.18,348.206 2083.68,347.211 C2084.18,346.216 2084.43,344.578 2084.43,342.297"/>
<path class="MeasureNumber" d="M205.724,1415.29 L205.614,1414.57 C208.354,1414.08 210.677,1412.9 212.583,1411.05 C214.489,1409.2 215.812,1406.8 216.552,1403.86 C214.781,1405.26 212.984,1405.96 211.161,1405.96 C209.213,1405.96 207.645,1405.28 206.458,1403.93 C205.27,1402.58 204.677,1400.82 204.677,1398.63 C204.677,1396.19 205.39,1394.16 206.817,1392.53 C208.244,1390.9 210.026,1390.08 212.161,1390.08 C214.494,1390.08 216.403,1391.04 217.888,1392.94 C219.372,1394.85 220.114,1397.3 220.114,1400.29 C220.114,1401.24 220.031,1402.23 219.864,1403.24 C219.697,1404.25 219.309,1405.44 218.7,1406.82 C218.091,1408.2 217.294,1409.44 216.309,1410.54 C215.325,1411.63 213.921,1412.62 212.099,1413.51 C210.276,1414.4 208.151,1414.99 205.724,1415.29 M212.458,1404.38 C212.906,1404.38 213.419,1404.31 213.997,1404.18 C214.575,1404.04 215.158,1403.75 215.747,1403.31 C216.335,1402.87 216.63,1402.32 216.63,1401.68 L216.63,1400.29 C216.63,1394.2 215.046,1391.16 211.88,1391.16 C211.13,1391.16 210.492,1391.36 209.966,1391.75 C209.44,1392.15 209.039,1392.67 208.763,1393.32 C208.487,1393.96 208.289,1394.62 208.169,1395.29 C208.049,1395.96 207.989,1396.67 207.989,1397.41 C207.989,1399.54 208.39,1401.23 209.192,1402.49 C209.994,1403.75 211.083,1404.38 212.458,1404.38"/>
<path class="MeasureNumber" d="M216.942,976.606 C216.942,975.346 216.661,974.224 216.099,973.239 C215.536,972.255 214.854,971.495 214.052,970.958 C213.25,970.422 212.351,969.979 211.356,969.63 C210.362,969.281 209.497,969.052 208.763,968.942 C208.028,968.833 207.385,968.778 206.833,968.778 C206.541,968.778 206.395,968.685 206.395,968.497 C206.395,968.424 206.411,968.362 206.442,968.31 L210.364,959.794 L217.88,959.794 C218.265,959.794 218.572,959.734 218.802,959.614 C219.031,959.495 219.276,959.242 219.536,958.856 L219.864,959.106 L218.489,962.31 C218.395,962.528 218.119,962.638 217.661,962.638 L210.614,962.638 L209.099,965.685 C212.609,966.31 215.216,967.323 216.919,968.724 C218.622,970.125 219.474,972.179 219.474,974.888 C219.474,976.304 219.25,977.567 218.802,978.677 C218.354,979.786 217.789,980.677 217.106,981.349 C216.424,982.021 215.632,982.573 214.731,983.005 C213.83,983.437 212.966,983.731 212.138,983.888 C211.309,984.044 210.479,984.122 209.645,984.122 C208.302,984.122 207.234,983.924 206.442,983.528 C205.651,983.133 205.255,982.586 205.255,981.888 C205.255,981.002 205.77,980.56 206.802,980.56 C207.468,980.56 208.335,980.927 209.403,981.661 C210.471,982.396 211.317,982.763 211.942,982.763 C213.359,982.763 214.546,982.169 215.505,980.981 C216.463,979.794 216.942,978.336 216.942,976.606"/>
<path class="TieSegment" stroke="#000000" stroke-width="1.59" stroke-linecap="round" stroke-linejoin="round" fill-rule="evenodd" d="M2139.77,1533.54 C2203.19,1561.21 2393.45,1561.21 2456.87,1533.54 C2393.45,1564.84 2203.19,1564.84 2139.77,1533.54"/>
<path class="TieSegment" stroke="#000000" stroke-width="1.59" stroke-linecap="round" stroke-linejoin="round" fill-rule="evenodd" d="M1127.13,1454.17 C1190.39,1422.88 1380.16,1422.88 1443.42,1454.17 C1380.16,1426.51 1190.39,1426.51 1127.13,1454.17"/>
<path class="TieSegment" stroke="#000000" stroke-width="1.59" stroke-linecap="round" stroke-linejoin="round" fill-rule="evenodd" d="M2139.77,1533.54 C2203.19,1561.21 2393.45,1561.21 2456.87,1533.54 C2393.45,1564.84 2203.19,1564.84 2139.77,1533.54"/>
<path class="TieSegment" stroke="#000000" stroke-width="1.59" stroke-linecap="round" stroke-linejoin="round" fill-rule="evenodd" d="M1127.13,1454.17 C1190.39,1422.88 1380.16,1422.88 1443.42,1454.17 C1380.16,1426.51 1190.39,1426.51 1127.13,1454.17"/>
<path class="TieSegment" stroke="#000000" stroke-width="1.59" stroke-linecap="round" stroke-linejoin="round" fill-rule="evenodd" d="M1816.8,626.457 C1895.21,595.162 2130.43,595.162 2208.84,626.457 C2130.43,598.791 1895.21,598.791 1816.8,626.457"/>
<path class="TieSegment" stroke="#000000" stroke-width="1.59" stroke-linecap="round" stroke-linejoin="round" fill-rule="evenodd" d="M1816.8,626.457 C1895.21,595.162 2130.43,595.162 2208.84,626.457 C2130.43,598.791 1895.21,598.791 1816.8,626.457"/>
<polyline class="BarLine" stroke="#000000" stroke-width="3.63" stroke-linejoin="bevel" points="2743.37,1458.94 2743.37,1551.46"/>
<polyline class="BarLine" stroke="#000000" stroke-width="11.34" stroke-linejoin="bevel" points="2758.11,1458.94 2758.11,1551.46"/>
<polyline class="BarLine" stroke="#000000" stroke-width="3.63" stroke-linejoin="bevel" points="2406.06,1458.94 2406.06,1551.46"/>
<polyline class="BarLine" stroke="#000000" stroke-width="3.63" stroke-linejoin="bevel" points="2090.28,1458.94 2090.28,1551.46"/>
<path class="BarLine" transform="matrix(0.907087,0,0,0.907087,1728.1,1505.2)" d="M1.66406,-8.5 C0.554688,-9.60417 0,-10.9375 0,-12.5 C0,-14.0625 0.554688,-15.3984 1.66406,-16.5078 C2.77344,-17.6172 4.10938,-18.1719 5.67188,-18.1719 C7.23438,-18.1719 8.56771,-17.6172 9.67188,-16.5078 C10.776,-15.3984 11.3281,-14.0625 11.3281,-12.5 C11.3281,-10.9375 10.776,-9.60417 9.67188,-8.5 C8.56771,-7.39583 7.23438,-6.84375 5.67188,-6.84375 C4.10938,-6.84375 2.77344,-7.39583 1.66406,-8.5"/>
<path class="BarLine" transform="matrix(0.907087,0,0,0.907087,1728.1,1527.87)" d="M1.66406,-8.5 C0.554688,-9.60417 0,-10.9375 0,-12.5 C0,-14.0625 0.554688,-15.3984 1.66406,-16.5078 C2.77344,-17.6172 4.10938,-18.1719 5.67188,-18.1719 C7.23438,-18.1719 8.56771,-17.6172 9.67188,-16.5078 C10.776,-15.3984 11.3281,-14.0625 11.3281,-12.5 C11.3281,-10.9375 10.776,-9.60417 9.67188,-8.5 C8.56771,-7.39583 7.23438,-6.84375 5.67188,-6.84375 C4.10938,-6.84375 2.77344,-7.39583 1.66406,-8.5"/>
<polyline class="BarLine" stroke="#000000" stroke-width="3.63" stroke-linejoin="bevel" points="1747.52,1458.94 1747.52,1551.46"/>
<polyline class="BarLine" stroke="#000000" stroke-width="11.34" stroke-linejoin="bevel" points="1762.26,1458.94 1762.26,1551.46"/>
<polyline class="BarLine" stroke="#000000" stroke-width="3.63" stroke-linejoin="bevel" points="1392.6,1458.94 1392.6,1551.46"/>
<polyline class="BarLine" stroke="#000000" stroke-width="3.63" stroke-linejoin="bevel" points="1076.82,1458.94 1076.82,1551.46"/>
<polyline class="BarLine" stroke="#000000" stroke-width="3.63" stroke-linejoin="bevel" points="753.187,1458.94 753.187,1551.46"/>
<polyline class="BarLine" stroke="#000000" stroke-width="3.63" stroke-linejoin="bevel" points="2761.96,1028.07 2761.96,1120.59"/>
<polyline class="BarLine" stroke="#000000" stroke-width="3.63" stroke-linejoin="bevel" points="2169.7,1028.07 2169.7,1120.59"/>
<polyline class="BarLine" stroke="#000000" stroke-width="3.63" stroke-linejoin="bevel" points="1576.98,1028.07 1576.98,1120.59"/>
<polyline class="BarLine" stroke="#000000" stroke-width="3.63" stroke-linejoin="bevel" points="984.72,1028.07 984.72,1120.59"/>
<polyline class="BarLine" stroke="#000000" stroke-width="11.34" stroke-linejoin="bevel" points="301.21,1028.07 301.21,1120.59"/>
<polyline class="BarLine" stroke="#000000" stroke-width="3.63" stroke-linejoin="bevel" points="315.95,1028.07 315.95,1120.59"/>
<path class="BarLine" transform="matrix(0.907087,0,0,0.907087,325.091,1074.33)" d="M1.66406,-8.5 C0.554688,-9.60417 0,-10.9375 0,-12.5 C0,-14.0625 0.554688,-15.3984 1.66406,-16.5078 C2.77344,-17.6172 4.10938,-18.1719 5.67188,-18.1719 C7.23438,-18.1719 8.56771,-17.6172 9.67188,-16.5078 C10.776,-15.3984 11.3281,-14.0625 11.3281,-12.5 C11.3281,-10.9375 10.776,-9.60417 9.67188,-8.5 C8.56771,-7.39583 7.23438,-6.84375 5.67188,-6.84375 C4.10938,-6.84375 2.77344,-7.39583 1.66406,-8.5"/>
<path class="BarLine" transform="matrix(0.907087,0,0,0.907087,325.091,1097.01)" d="M1.66406,-8.5 C0.554688,-9.60417 0,-10.9375 0,-12.5 C0,-14.0625 0.554688,-15.3984 1.66406,-16.5078 C2.77344,-17.6172 4.10938,-18.1719 5.67188,-18.1719 C7.23438,-18.1719 8.56771,-17.6172 9.67188,-16.5078 C10.776,-15.3984 11.3281,-14.0625 11.3281,-12.5 C11.3281,-10.9375 10.776,-9.60417 9.67188,-8.5 C8.56771,-7.39583 7.23438,-6.84375 5.67188,-6.84375 C4.10938,-6.84375 2.77344,-7.39583 1.66406,-8.5"/>
<path class="BarLine" transform="matrix(0.907087,0,0,0.907087,2723.42,643.465)" d="M1.66406,-8.5 C0.554688,-9.60417 0,-10.9375 0,-12.5 C0,-14.0625 0.554688,-15.3984 1.66406,-16.5078 C2.77344,-17.6172 4.10938,-18.1719 5.67188,-18.1719 C7.23438,-18.1719 8.56771,-17.6172 9.67188,-16.5078 C10.776,-15.3984 11.3281,-14.0625 11.3281,-12.5 C11.3281,-10.9375 10.776,-9.60417 9.67188,-8.5 C8.56771,-7.39583 7.23438,-6.84375 5.67188,-6.84375 C4.10938,-6.84375 2.77344,-7.39583 1.66406,-8.5"/>
<path class="BarLine" transform="matrix(0.907087,0,0,0.907087,2723.42,666.142)" d="M1.66406,-8.5 C0.554688,-9.60417 0,-10.9375 0,-12.5 C0,-14.0625 0.554688,-15.3984 1.66406,-16.5078 C2.77344,-17.6172 4.10938,-18.1719 5.67188,-18.1719 C7.23438,-18.1719 8.56771,-17.6172 9.67188,-16.5078 C10.776,-15.3984 11.3281,-14.0625 11.3281,-12.5 C11.3281,-10.9375 10.776,-9.60417 9.67188,-8.5 C8.56771,-7.39583 7.23438,-6.84375 5.67188,-6.84375 C4.10938,-6.84375 2.77344,-7.39583 1.66406,-8.5"/>
<polyline class="BarLine" stroke="#000000" stroke-width="3.63" stroke-linejoin="bevel" points="2742.84,597.203 2742.84,689.726"/>
<polyline class="BarLine" stroke="#000000" stroke-width="11.34" stroke-linejoin="bevel" points="2757.58,597.203 2757.58,689.726"/>
<polyline class="BarLine" stroke="#000000" stroke-width="3.63" stroke-linejoin="bevel" points="2158.02,597.203 2158.02,689.726"/>
<polyline class="BarLine" stroke="#000000" stroke-width="3.63" stroke-linejoin="bevel" points="1584.45,597.203 1584.45,689.726"/>
<polyline class="BarLine" stroke="#000000" stroke-width="3.63" stroke-linejoin="bevel" points="1030.92,597.203 1030.92,689.726"/>
<polyline class="LedgerLine" stroke="#000000" stroke-width="3.63" stroke-linecap="square" stroke-linejoin="bevel" points="698.522,1006.3 741.984,1006.3"/>
<polyline class="LedgerLine" stroke="#000000" stroke-width="3.63" stroke-linecap="square" stroke-linejoin="bevel" points="611.778,1006.3 655.24,1006.3"/>
<polyline class="Stem" stroke="#000000" stroke-width="2.95" stroke-linecap="round" stroke-linejoin="bevel" points="2474.8,1512.28 2474.8,1442.83"/>
<polyline class="Stem" stroke="#000000" stroke-width="2.95" stroke-linecap="round" stroke-linejoin="bevel" points="2149.32,1513.05 2149.32,1442.83"/>
<polyline class="Stem" stroke="#000000" stroke-width="2.95" stroke-linecap="round" stroke-linejoin="bevel" points="1943.54,1509.46 1943.54,1576.06"/>
<polyline class="Stem" stroke="#000000" stroke-width="2.95" stroke-linecap="round" stroke-linejoin="bevel" points="1797.14,1498.12 1797.14,1567.56"/>
<polyline class="Stem" stroke="#000000" stroke-width="2.95" stroke-linecap="round" stroke-linejoin="bevel" points="1434.44,1475.44 1434.44,1550.55"/>
<polyline class="Stem" stroke="#000000" stroke-width="2.95" stroke-linecap="round" stroke-linejoin="bevel" points="1108.14,1474.74 1108.14,1550.55"/>
<polyline class="Stem" stroke="#000000" stroke-width="2.95" stroke-linecap="round" stroke-linejoin="bevel" points="930.083,1486.78 930.083,1559.06"/>
<polyline class="Stem" stroke="#000000" stroke-width="2.95" stroke-linecap="round" stroke-linejoin="bevel" points="783.688,1498.12 783.688,1567.56"/>
<polyline class="Stem" stroke="#000000" stroke-width="2.95" stroke-linecap="round" stroke-linejoin="bevel" points="656.37,1486.78 656.37,1550.55"/>
<polyline class="Stem" stroke="#000000" stroke-width="2.95" stroke-linecap="round" stroke-linejoin="bevel" points="559.894,1475.44 559.894,1544.88"/>
<polyline class="Stem" stroke="#000000" stroke-width="2.95" stroke-linecap="round" stroke-linejoin="bevel" points="499.596,1464.1 499.596,1573.23"/>
<polyline class="Stem" stroke="#000000" stroke-width="2.95" stroke-linecap="round" stroke-linejoin="bevel" points="439.299,1520.79 439.299,1590.24"/>
<polyline class="Stem" stroke="#000000" stroke-width="2.95" stroke-linecap="round" stroke-linejoin="bevel" points="2629.52,1089.93 2629.52,1159.37"/>
<polyline class="Stem" stroke="#000000" stroke-width="2.95" stroke-linecap="round" stroke-linejoin="bevel" points="2546.96,1078.59 2546.96,1150.87"/>
<polyline class="Stem" stroke="#000000" stroke-width="2.95" stroke-linecap="round" stroke-linejoin="bevel" points="2464.4,1067.25 2464.4,1142.36"/>
<polyline class="Stem" stroke="#000000" stroke-width="2.95" stroke-linecap="round" stroke-linejoin="bevel" points="2332.3,1055.91 2332.3,1119.69"/>
<polyline class="Stem" stroke="#000000" stroke-width="2.95" stroke-linecap="round" stroke-linejoin="bevel" points="2200.2,1044.57 2200.2,1114.02"/>
<polyline class="Stem" stroke="#000000" stroke-width="2.95" stroke-linecap="round" stroke-linejoin="bevel" points="2037.26,1033.24 2037.26,1097.01"/>
<polyline class="Stem" stroke="#000000" stroke-width="2.95" stroke-linecap="round" stroke-linejoin="bevel" points="1905.16,1021.9 1905.16,1091.34"/>
<polyline class="Stem" stroke="#000000" stroke-width="2.95" stroke-linecap="round" stroke-linejoin="bevel" points="1822.6,1033.24 1822.6,1114.02"/>
<polyline class="Stem" stroke="#000000" stroke-width="2.95" stroke-linecap="round" stroke-linejoin="bevel" points="1740.04,1044.57 1740.04,1119.69"/>
<polyline class="Stem" stroke="#000000" stroke-width="2.95" stroke-linecap="round" stroke-linejoin="bevel" points="1444.54,1055.91 1444.54,1119.69"/>
<polyline class="Stem" stroke="#000000" stroke-width="2.95" stroke-linecap="round" stroke-linejoin="bevel" points="1361.98,1044.57 1361.98,1108.35"/>
<polyline class="Stem" stroke="#000000" stroke-width="2.95" stroke-linecap="round" stroke-linejoin="bevel" points="1279.42,1033.24 1279.42,1097.01"/>
<polyline class="Stem" stroke="#000000" stroke-width="2.95" stroke-linecap="round" stroke-linejoin="bevel" points="1147.32,1033.24 1147.32,1097.01"/>
<polyline class="Stem" stroke="#000000" stroke-width="2.95" stroke-linecap="round" stroke-linejoin="bevel" points="1015.22,1021.9 1015.22,1091.34"/>
<polyline class="Stem" stroke="#000000" stroke-width="2.95" stroke-linecap="round" stroke-linejoin="bevel" points="845.59,1021.9 845.59,1080"/>
<polyline class="Stem" stroke="#000000" stroke-width="2.95" stroke-linecap="round" stroke-linejoin="bevel" points="706.799,1010.56 706.799,1074.33"/>
<polyline class="Stem" stroke="#000000" stroke-width="2.95" stroke-linecap="round" stroke-linejoin="bevel" points="620.055,1010.56 620.055,1097.01"/>
<polyline class="Stem" stroke="#000000" stroke-width="2.95" stroke-linecap="round" stroke-linejoin="bevel" points="533.311,1044.57 533.311,1114.02"/>
<polyline class="Stem" stroke="#000000" stroke-width="2.95" stroke-linecap="round" stroke-linejoin="bevel" points="2199.86,647.724 2199.86,714.331"/>
<polyline class="Stem" stroke="#000000" stroke-width="2.95" stroke-linecap="round" stroke-linejoin="bevel" points="1798.87,647.724 1798.87,714.331"/>
<polyline class="Stem" stroke="#000000" stroke-width="2.95" stroke-linecap="round" stroke-linejoin="bevel" points="1614.96,647.724 1614.96,722.835"/>
<polyline class="Stem" stroke="#000000" stroke-width="2.95" stroke-linecap="round" stroke-linejoin="bevel" points="1322.77,636.385 1322.77,705.827"/>
<polyline class="Stem" stroke="#000000" stroke-width="2.95" stroke-linecap="round" stroke-linejoin="bevel" points="1061.42,625.047 1061.42,697.323"/>
<polyline class="Stem" stroke="#000000" stroke-width="2.95" stroke-linecap="round" stroke-linejoin="bevel" points="906.919,639.206 906.919,575.433"/>
<polyline class="Stem" stroke="#000000" stroke-width="2.95" stroke-linecap="round" stroke-linejoin="bevel" points="756.348,650.544 756.348,581.102"/>
<polyline class="Stem" stroke="#000000" stroke-width="2.95" stroke-linecap="round" stroke-linejoin="bevel" points="662.242,684.56 662.242,598.11"/>
<polyline class="Stem" stroke="#000000" stroke-width="2.95" stroke-linecap="round" stroke-linejoin="bevel" points="568.135,650.544 568.135,581.102"/>
<path class="Note" transform="matrix(0.907087,0,0,0.907087,2446.42,1516.54)" d="M21.9688,-13.7656 C25.0938,-13.7656 27.7344,-12.9531 29.8906,-11.3281 C31.901,-9.56771 32.9063,-7.35417 32.9063,-4.6875 C32.9063,-0.197917 30.599,4 25.9844,7.90625 C21.2969,11.8125 16.2813,13.7656 10.9375,13.7656 C7.8125,13.7656 5.17708,12.9531 3.03125,11.3281 C1.01042,9.56771 0,7.35417 0,4.6875 C0,0.197917 2.34375,-4 7.03125,-7.90625 C11.5938,-11.8125 16.5729,-13.7656 21.9688,-13.7656"/>
<path class="Note" transform="matrix(0.907087,0,0,0.907087,2119.3,1516.54)" d="M31.5469,-6.54688 C31.5469,-7.65104 31.125,-8.59375 30.2813,-9.375 C29.4271,-10.2188 28.4479,-10.6406 27.3438,-10.6406 C25.3958,-10.6406 21.4583,-8.6875 15.5313,-4.78125 C9.40625,-0.8125 5.66146,2.02083 4.29688,3.71875 C3.57813,4.625 3.21875,5.56771 3.21875,6.54688 C3.21875,7.65104 3.64583,8.59375 4.5,9.375 C5.28125,10.2188 6.25521,10.6406 7.42188,10.6406 C9.30729,10.6406 13.2813,8.6875 19.3438,4.78125 C25.3333,0.875 29.0417,-1.95833 30.4688,-3.71875 C31.1875,-4.5625 31.5469,-5.50521 31.5469,-6.54688 M26.375,-13.7656 C31.9688,-13.7656 34.7656,-11.3594 34.7656,-6.54688 C34.7656,-4.20313 34.0833,-1.46875 32.7188,1.65625 C31.3542,4.71875 29.5313,7.0625 27.25,8.6875 C22.2396,12.0729 15.9583,13.7656 8.40625,13.7656 C2.80208,13.7656 0,11.3594 0,6.54688 C0,4.40104 0.682292,1.69792 2.04688,-1.5625 C3.34896,-4.6875 5.17188,-7.0625 7.51563,-8.6875 C12.5365,-12.0729 18.8229,-13.7656 26.375,-13.7656"/>
<path class="Note" transform="matrix(0.907087,0,0,0.907087,1942.07,1505.2)" d="M21.9688,-13.7656 C25.0938,-13.7656 27.7344,-12.9531 29.8906,-11.3281 C31.901,-9.56771 32.9063,-7.35417 32.9063,-4.6875 C32.9063,-0.197917 30.599,4 25.9844,7.90625 C21.2969,11.8125 16.2813,13.7656 10.9375,13.7656 C7.8125,13.7656 5.17708,12.9531 3.03125,11.3281 C1.01042,9.56771 0,7.35417 0,4.6875 C0,0.197917 2.34375,-4 7.03125,-7.90625 C11.5938,-11.8125 16.5729,-13.7656 21.9688,-13.7656"/>
<path class="Note" transform="matrix(0.907087,0,0,0.907087,1795.67,1493.86)" d="M21.9688,-13.7656 C25.0938,-13.7656 27.7344,-12.9531 29.8906,-11.3281 C31.901,-9.56771 32.9063,-7.35417 32.9063,-4.6875 C32.9063,-0.197917 30.599,4 25.9844,7.90625 C21.2969,11.8125 16.2813,13.7656 10.9375,13.7656 C7.8125,13.7656 5.17708,12.9531 3.03125,11.3281 C1.01042,9.56771 0,7.35417 0,4.6875 C0,0.197917 2.34375,-4 7.03125,-7.90625 C11.5938,-11.8125 16.5729,-13.7656 21.9688,-13.7656"/>
<path class="Note" transform="matrix(0.907087,0,0,0.907087,1432.97,1471.18)" d="M21.9688,-13.7656 C25.0938,-13.7656 27.7344,-12.9531 29.8906,-11.3281 C31.901,-9.56771 32.9063,-7.35417 32.9063,-4.6875 C32.9063,-0.197917 30.599,4 25.9844,7.90625 C21.2969,11.8125 16.2813,13.7656 10.9375,13.7656 C7.8125,13.7656 5.17708,12.9531 3.03125,11.3281 C1.01042,9.56771 0,7.35417 0,4.6875 C0,0.197917 2.34375,-4 7.03125,-7.90625 C11.5938,-11.8125 16.5729,-13.7656 21.9688,-13.7656"/>
<path class="Note" transform="matrix(0.907087,0,0,0.907087,1106.66,1471.18)" d="M31.5469,-6.54688 C31.5469,-7.65104 31.125,-8.59375 30.2813,-9.375 C29.4271,-10.2188 28.4479,-10.6406 27.3438,-10.6406 C25.3958,-10.6406 21.4583,-8.6875 15.5313,-4.78125 C9.40625,-0.8125 5.66146,2.02083 4.29688,3.71875 C3.57813,4.625 3.21875,5.56771 3.21875,6.54688 C3.21875,7.65104 3.64583,8.59375 4.5,9.375 C5.28125,10.2188 6.25521,10.6406 7.42188,10.6406 C9.30729,10.6406 13.2813,8.6875 19.3438,4.78125 C25.3333,0.875 29.0417,-1.95833 30.4688,-3.71875 C31.1875,-4.5625 31.5469,-5.50521 31.5469,-6.54688 M26.375,-13.7656 C31.9688,-13.7656 34.7656,-11.3594 34.7656,-6.54688 C34.7656,-4.20313 34.0833,-1.46875 32.7188,1.65625 C31.3542,4.71875 29.5313,7.0625 27.25,8.6875 C22.2396,12.0729 15.9583,13.7656 8.40625,13.7656 C2.80208,13.7656 0,11.3594 0,6.54688 C0,4.40104 0.682292,1.69792 2.04688,-1.5625 C3.34896,-4.6875 5.17188,-7.0625 7.51563,-8.6875 C12.5365,-12.0729 18.8229,-13.7656 26.375,-13.7656"/>
<path class="Note" transform="matrix(0.907087,0,0,0.907087,928.609,1482.52)" d="M21.9688,-13.7656 C25.0938,-13.7656 27.7344,-12.9531 29.8906,-11.3281 C31.901,-9.56771 32.9063,-7.35417 32.9063,-4.6875 C32.9063,-0.197917 30.599,4 25.9844,7.90625 C21.2969,11.8125 16.2813,13.7656 10.9375,13.7656 C7.8125,13.7656 5.17708,12.9531 3.03125,11.3281 C1.01042,9.56771 0,7.35417 0,4.6875 C0,0.197917 2.34375,-4 7.03125,-7.90625 C11.5938,-11.8125 16.5729,-13.7656 21.9688,-13.7656"/>
<path class="Note" transform="matrix(0.907087,0,0,0.907087,782.214,1493.86)" d="M21.9688,-13.7656 C25.0938,-13.7656 27.7344,-12.9531 29.8906,-11.3281 C31.901,-9.56771 32.9063,-7.35417 32.9063,-4.6875 C32.9063,-0.197917 30.599,4 25.9844,7.90625 C21.2969,11.8125 16.2813,13.7656 10.9375,13.7656 C7.8125,13.7656 5.17708,12.9531 3.03125,11.3281 C1.01042,9.56771 0,7.35417 0,4.6875 C0,0.197917 2.34375,-4 7.03125,-7.90625 C11.5938,-11.8125 16.5729,-13.7656 21.9688,-13.7656"/>
<path class="Note" transform="matrix(0.907087,0,0,0.907087,654.896,1482.52)" d="M21.9688,-13.7656 C25.0938,-13.7656 27.7344,-12.9531 29.8906,-11.3281 C31.901,-9.56771 32.9063,-7.35417 32.9063,-4.6875 C32.9063,-0.197917 30.599,4 25.9844,7.90625 C21.2969,11.8125 16.2813,13.7656 10.9375,13.7656 C7.8125,13.7656 5.17708,12.9531 3.03125,11.3281 C1.01042,9.56771 0,7.35417 0,4.6875 C0,0.197917 2.34375,-4 7.03125,-7.90625 C11.5938,-11.8125 16.5729,-13.7656 21.9688,-13.7656"/>
<path class="Note" transform="matrix(0.907087,0,0,0.907087,558.42,1471.18)" d="M21.9688,-13.7656 C25.0938,-13.7656 27.7344,-12.9531 29.8906,-11.3281 C31.901,-9.56771 32.9063,-7.35417 32.9063,-4.6875 C32.9063,-0.197917 30.599,4 25.9844,7.90625 C21.2969,11.8125 16.2813,13.7656 10.9375,13.7656 C7.8125,13.7656 5.17708,12.9531 3.03125,11.3281 C1.01042,9.56771 0,7.35417 0,4.6875 C0,0.197917 2.34375,-4 7.03125,-7.90625 C11.5938,-11.8125 16.5729,-13.7656 21.9688,-13.7656"/>
<path class="Note" transform="matrix(0.907087,0,0,0.907087,498.122,1459.84)" d="M21.9688,-13.7656 C25.0938,-13.7656 27.7344,-12.9531 29.8906,-11.3281 C31.901,-9.56771 32.9063,-7.35417 32.9063,-4.6875 C32.9063,-0.197917 30.599,4 25.9844,7.90625 C21.2969,11.8125 16.2813,13.7656 10.9375,13.7656 C7.8125,13.7656 5.17708,12.9531 3.03125,11.3281 C1.01042,9.56771 0,7.35417 0,4.6875 C0,0.197917 2.34375,-4 7.03125,-7.90625 C11.5938,-11.8125 16.5729,-13.7656 21.9688,-13.7656"/>
<path class="Note" transform="matrix(0.907087,0,0,0.907087,437.824,1516.54)" d="M21.9688,-13.7656 C25.0938,-13.7656 27.7344,-12.9531 29.8906,-11.3281 C31.901,-9.56771 32.9063,-7.35417 32.9063,-4.6875 C32.9063,-0.197917 30.599,4 25.9844,7.90625 C21.2969,11.8125 16.2813,13.7656 10.9375,13.7656 C7.8125,13.7656 5.17708,12.9531 3.03125,11.3281 C1.01042,9.56771 0,7.35417 0,4.6875 C0,0.197917 2.34375,-4 7.03125,-7.90625 C11.5938,-11.8125 16.5729,-13.7656 21.9688,-13.7656"/>
<path class="Note" transform="matrix(0.907087,0,0,0.907087,2628.05,1085.67)" d="M21.9688,-13.7656 C25.0938,-13.7656 27.7344,-12.9531 29.8906,-11.3281 C31.901,-9.56771 32.9063,-7.35417 32.9063,-4.6875 C32.9063,-0.197917 30.599,4 25.9844,7.90625 C21.2969,11.8125 16.2813,13.7656 10.9375,13.7656 C7.8125,13.7656 5.17708,12.9531 3.03125,11.3281 C1.01042,9.56771 0,7.35417 0,4.6875 C0,0.197917 2.34375,-4 7.03125,-7.90625 C11.5938,-11.8125 16.5729,-13.7656 21.9688,-13.7656"/>
<path class="Note" transform="matrix(0.907087,0,0,0.907087,2545.49,1074.33)" d="M21.9688,-13.7656 C25.0938,-13.7656 27.7344,-12.9531 29.8906,-11.3281 C31.901,-9.56771 32.9063,-7.35417 32.9063,-4.6875 C32.9063,-0.197917 30.599,4 25.9844,7.90625 C21.2969,11.8125 16.2813,13.7656 10.9375,13.7656 C7.8125,13.7656 5.17708,12.9531 3.03125,11.3281 C1.01042,9.56771 0,7.35417 0,4.6875 C0,0.197917 2.34375,-4 7.03125,-7.90625 C11.5938,-11.8125 16.5729,-13.7656 21.9688,-13.7656"/>
<path class="Note" transform="matrix(0.907087,0,0,0.907087,2462.92,1062.99)" d="M21.9688,-13.7656 C25.0938,-13.7656 27.7344,-12.9531 29.8906,-11.3281 C31.901,-9.56771 32.9063,-7.35417 32.9063,-4.6875 C32.9063,-0.197917 30.599,4 25.9844,7.90625 C21.2969,11.8125 16.2813,13.7656 10.9375,13.7656 C7.8125,13.7656 5.17708,12.9531 3.03125,11.3281 C1.01042,9.56771 0,7.35417 0,4.6875 C0,0.197917 2.34375,-4 7.03125,-7.90625 C11.5938,-11.8125 16.5729,-13.7656 21.9688,-13.7656"/>
<path class="Note" transform="matrix(0.907087,0,0,0.907087,2330.83,1051.65)" d="M21.9688,-13.7656 C25.0938,-13.7656 27.7344,-12.9531 29.8906,-11.3281 C31.901,-9.56771 32.9063,-7.35417 32.9063,-4.6875 C32.9063,-0.197917 30.599,4 25.9844,7.90625 C21.2969,11.8125 16.2813,13.7656 10.9375,13.7656 C7.8125,13.7656 5.17708,12.9531 3.03125,11.3281 C1.01042,9.56771 0,7.35417 0,4.6875 C0,0.197917 2.34375,-4 7.03125,-7.90625 C11.5938,-11.8125 16.5729,-13.7656 21.9688,-13.7656"/>
<path class="Note" transform="matrix(0.907087,0,0,0.907087,2198.73,1040.32)" d="M21.9688,-13.7656 C25.0938,-13.7656 27.7344,-12.9531 29.8906,-11.3281 C31.901,-9.56771 32.9063,-7.35417 32.9063,-4.6875 C32.9063,-0.197917 30.599,4 25.9844,7.90625 C21.2969,11.8125 16.2813,13.7656 10.9375,13.7656 C7.8125,13.7656 5.17708,12.9531 3.03125,11.3281 C1.01042,9.56771 0,7.35417 0,4.6875 C0,0.197917 2.34375,-4 7.03125,-7.90625 C11.5938,-11.8125 16.5729,-13.7656 21.9688,-13.7656"/>
<path class="Note" transform="matrix(0.907087,0,0,0.907087,2035.79,1028.98)" d="M21.9688,-13.7656 C25.0938,-13.7656 27.7344,-12.9531 29.8906,-11.3281 C31.901,-9.56771 32.9063,-7.35417 32.9063,-4.6875 C32.9063,-0.197917 30.599,4 25.9844,7.90625 C21.2969,11.8125 16.2813,13.7656 10.9375,13.7656 C7.8125,13.7656 5.17708,12.9531 3.03125,11.3281 C1.01042,9.56771 0,7.35417 0,4.6875 C0,0.197917 2.34375,-4 7.03125,-7.90625 C11.5938,-11.8125 16.5729,-13.7656 21.9688,-13.7656"/>
<path class="Note" transform="matrix(0.907087,0,0,0.907087,1903.69,1017.64)" d="M21.9688,-13.7656 C25.0938,-13.7656 27.7344,-12.9531 29.8906,-11.3281 C31.901,-9.56771 32.9063,-7.35417 32.9063,-4.6875 C32.9063,-0.197917 30.599,4 25.9844,7.90625 C21.2969,11.8125 16.2813,13.7656 10.9375,13.7656 C7.8125,13.7656 5.17708,12.9531 3.03125,11.3281 C1.01042,9.56771 0,7.35417 0,4.6875 C0,0.197917 2.34375,-4 7.03125,-7.90625 C11.5938,-11.8125 16.5729,-13.7656 21.9688,-13.7656"/>
<path class="Note" transform="matrix(0.907087,0,0,0.907087,1821.12,1028.98)" d="M21.9688,-13.7656 C25.0938,-13.7656 27.7344,-12.9531 29.8906,-11.3281 C31.901,-9.56771 32.9063,-7.35417 32.9063,-4.6875 C32.9063,-0.197917 30.599,4 25.9844,7.90625 C21.2969,11.8125 16.2813,13.7656 10.9375,13.7656 C7.8125,13.7656 5.17708,12.9531 3.03125,11.3281 C1.01042,9.56771 0,7.35417 0,4.6875 C0,0.197917 2.34375,-4 7.03125,-7.90625 C11.5938,-11.8125 16.5729,-13.7656 21.9688,-13.7656"/>
<path class="Note" transform="matrix(0.907087,0,0,0.907087,1738.56,1040.32)" d="M21.9688,-13.7656 C25.0938,-13.7656 27.7344,-12.9531 29.8906,-11.3281 C31.901,-9.56771 32.9063,-7.35417 32.9063,-4.6875 C32.9063,-0.197917 30.599,4 25.9844,7.90625 C21.2969,11.8125 16.2813,13.7656 10.9375,13.7656 C7.8125,13.7656 5.17708,12.9531 3.03125,11.3281 C1.01042,9.56771 0,7.35417 0,4.6875 C0,0.197917 2.34375,-4 7.03125,-7.90625 C11.5938,-11.8125 16.5729,-13.7656 21.9688,-13.7656"/>
<path class="Note" transform="matrix(0.907087,0,0,0.907087,1443.07,1051.65)" d="M21.9688,-13.7656 C25.0938,-13.7656 27.7344,-12.9531 29.8906,-11.3281 C31.901,-9.56771 32.9063,-7.35417 32.9063,-4.6875 C32.9063,-0.197917 30.599,4 25.9844,7.90625 C21.2969,11.8125 16.2813,13.7656 10.9375,13.7656 C7.8125,13.7656 5.17708,12.9531 3.03125,11.3281 C1.01042,9.56771 0,7.35417 0,4.6875 C0,0.197917 2.34375,-4 7.03125,-7.90625 C11.5938,-11.8125 16.5729,-13.7656 21.9688,-13.7656"/>
<path class="Note" transform="matrix(0.907087,0,0,0.907087,1360.51,1040.32)" d="M21.9688,-13.7656 C25.0938,-13.7656 27.7344,-12.9531 29.8906,-11.3281 C31.901,-9.56771 32.9063,-7.35417 32.9063,-4.6875 C32.9063,-0.197917 30.599,4 25.9844,7.90625 C21.2969,11.8125 16.2813,13.7656 10.9375,13.7656 C7.8125,13.7656 5.17708,12.9531 3.03125,11.3281 C1.01042,9.56771 0,7.35417 0,4.6875 C0,0.197917 2.34375,-4 7.03125,-7.90625 C11.5938,-11.8125 16.5729,-13.7656 21.9688,-13.7656"/>
<path class="Note" transform="matrix(0.907087,0,0,0.907087,1277.95,1028.98)" d="M21.9688,-13.7656 C25.0938,-13.7656 27.7344,-12.9531 29.8906,-11.3281 C31.901,-9.56771 32.9063,-7.35417 32.9063,-4.6875 C32.9063,-0.197917 30.599,4 25.9844,7.90625 C21.2969,11.8125 16.2813,13.7656 10.9375,13.7656 C7.8125,13.7656 5.17708,12.9531 3.03125,11.3281 C1.01042,9.56771 0,7.35417 0,4.6875 C0,0.197917 2.34375,-4 7.03125,-7.90625 C11.5938,-11.8125 16.5729,-13.7656 21.9688,-13.7656"/>
<path class="Note" transform="matrix(0.907087,0,0,0.907087,1145.85,1028.98)" d="M21.9688,-13.7656 C25.0938,-13.7656 27.7344,-12.9531 29.8906,-11.3281 C31.901,-9.56771 32.9063,-7.35417 32.9063,-4.6875 C32.9063,-0.197917 30.599,4 25.9844,7.90625 C21.2969,11.8125 16.2813,13.7656 10.9375,13.7656 C7.8125,13.7656 5.17708,12.9531 3.03125,11.3281 C1.01042,9.56771 0,7.35417 0,4.6875 C0,0.197917 2.34375,-4 7.03125,-7.90625 C11.5938,-11.8125 16.5729,-13.7656 21.9688,-13.7656"/>
<path class="Note" transform="matrix(0.907087,0,0,0.907087,1013.75,1017.64)" d="M21.9688,-13.7656 C25.0938,-13.7656 27.7344,-12.9531 29.8906,-11.3281 C31.901,-9.56771 32.9063,-7.35417 32.9063,-4.6875 C32.9063,-0.197917 30.599,4 25.9844,7.90625 C21.2969,11.8125 16.2813,13.7656 10.9375,13.7656 C7.8125,13.7656 5.17708,12.9531 3.03125,11.3281 C1.01042,9.56771 0,7.35417 0,4.6875 C0,0.197917 2.34375,-4 7.03125,-7.90625 C11.5938,-11.8125 16.5729,-13.7656 21.9688,-13.7656"/>
<path class="Note" transform="matrix(0.907087,0,0,0.907087,844.116,1017.64)" d="M21.9688,-13.7656 C25.0938,-13.7656 27.7344,-12.9531 29.8906,-11.3281 C31.901,-9.56771 32.9063,-7.35417 32.9063,-4.6875 C32.9063,-0.197917 30.599,4 25.9844,7.90625 C21.2969,11.8125 16.2813,13.7656 10.9375,13.7656 C7.8125,13.7656 5.17708,12.9531 3.03125,11.3281 C1.01042,9.56771 0,7.35417 0,4.6875 C0,0.197917 2.34375,-4 7.03125,-7.90625 C11.5938,-11.8125 16.5729,-13.7656 21.9688,-13.7656"/>
<path class="Note" transform="matrix(0.907087,0,0,0.907087,705.325,1006.3)" d="M21.9688,-13.7656 C25.0938,-13.7656 27.7344,-12.9531 29.8906,-11.3281 C31.901,-9.56771 32.9063,-7.35417 32.9063,-4.6875 C32.9063,-0.197917 30.599,4 25.9844,7.90625 C21.2969,11.8125 16.2813,13.7656 10.9375,13.7656 C7.8125,13.7656 5.17708,12.9531 3.03125,11.3281 C1.01042,9.56771 0,7.35417 0,4.6875 C0,0.197917 2.34375,-4 7.03125,-7.90625 C11.5938,-11.8125 16.5729,-13.7656 21.9688,-13.7656"/>
<path class="Note" transform="matrix(0.907087,0,0,0.907087,618.581,1006.3)" d="M21.9688,-13.7656 C25.0938,-13.7656 27.7344,-12.9531 29.8906,-11.3281 C31.901,-9.56771 32.9063,-7.35417 32.9063,-4.6875 C32.9063,-0.197917 30.599,4 25.9844,7.90625 C21.2969,11.8125 16.2813,13.7656 10.9375,13.7656 C7.8125,13.7656 5.17708,12.9531 3.03125,11.3281 C1.01042,9.56771 0,7.35417 0,4.6875 C0,0.197917 2.34375,-4 7.03125,-7.90625 C11.5938,-11.8125 16.5729,-13.7656 21.9688,-13.7656"/>
<path class="Note" transform="matrix(0.907087,0,0,0.907087,531.837,1040.32)" d="M21.9688,-13.7656 C25.0938,-13.7656 27.7344,-12.9531 29.8906,-11.3281 C31.901,-9.56771 32.9063,-7.35417 32.9063,-4.6875 C32.9063,-0.197917 30.599,4 25.9844,7.90625 C21.2969,11.8125 16.2813,13.7656 10.9375,13.7656 C7.8125,13.7656 5.17708,12.9531 3.03125,11.3281 C1.01042,9.56771 0,7.35417 0,4.6875 C0,0.197917 2.34375,-4 7.03125,-7.90625 C11.5938,-11.8125 16.5729,-13.7656 21.9688,-13.7656"/>
<path class="Note" transform="matrix(0.907087,0,0,0.907087,2198.39,643.465)" d="M21.9688,-13.7656 C25.0938,-13.7656 27.7344,-12.9531 29.8906,-11.3281 C31.901,-9.56771 32.9063,-7.35417 32.9063,-4.6875 C32.9063,-0.197917 30.599,4 25.9844,7.90625 C21.2969,11.8125 16.2813,13.7656 10.9375,13.7656 C7.8125,13.7656 5.17708,12.9531 3.03125,11.3281 C1.01042,9.56771 0,7.35417 0,4.6875 C0,0.197917 2.34375,-4 7.03125,-7.90625 C11.5938,-11.8125 16.5729,-13.7656 21.9688,-13.7656"/>
<path class="Note" transform="matrix(0.907087,0,0,0.907087,1797.39,643.465)" d="M21.9688,-13.7656 C25.0938,-13.7656 27.7344,-12.9531 29.8906,-11.3281 C31.901,-9.56771 32.9063,-7.35417 32.9063,-4.6875 C32.9063,-0.197917 30.599,4 25.9844,7.90625 C21.2969,11.8125 16.2813,13.7656 10.9375,13.7656 C7.8125,13.7656 5.17708,12.9531 3.03125,11.3281 C1.01042,9.56771 0,7.35417 0,4.6875 C0,0.197917 2.34375,-4 7.03125,-7.90625 C11.5938,-11.8125 16.5729,-13.7656 21.9688,-13.7656"/>
<path class="Note" transform="matrix(0.907087,0,0,0.907087,1613.48,643.465)" d="M21.9688,-13.7656 C25.0938,-13.7656 27.7344,-12.9531 29.8906,-11.3281 C31.901,-9.56771 32.9063,-7.35417 32.9063,-4.6875 C32.9063,-0.197917 30.599,4 25.9844,7.90625 C21.2969,11.8125 16.2813,13.7656 10.9375,13.7656 C7.8125,13.7656 5.17708,12.9531 3.03125,11.3281 C1.01042,9.56771 0,7.35417 0,4.6875 C0,0.197917 2.34375,-4 7.03125,-7.90625 C11.5938,-11.8125 16.5729,-13.7656 21.9688,-13.7656"/>
<path class="Note" transform="matrix(0.907087,0,0,0.907087,1321.29,632.126)" d="M21.9688,-13.7656 C25.0938,-13.7656 27.7344,-12.9531 29.8906,-11.3281 C31.901,-9.56771 32.9063,-7.35417 32.9063,-4.6875 C32.9063,-0.197917 30.599,4 25.9844,7.90625 C21.2969,11.8125 16.2813,13.7656 10.9375,13.7656 C7.8125,13.7656 5.17708,12.9531 3.03125,11.3281 C1.01042,9.56771 0,7.35417 0,4.6875 C0,0.197917 2.34375,-4 7.03125,-7.90625 C11.5938,-11.8125 16.5729,-13.7656 21.9688,-13.7656"/>
<path class="Note" transform="matrix(0.907087,0,0,0.907087,1059.95,620.787)" d="M21.9688,-13.7656 C25.0938,-13.7656 27.7344,-12.9531 29.8906,-11.3281 C31.901,-9.56771 32.9063,-7.35417 32.9063,-4.6875 C32.9063,-0.197917 30.599,4 25.9844,7.90625 C21.2969,11.8125 16.2813,13.7656 10.9375,13.7656 C7.8125,13.7656 5.17708,12.9531 3.03125,11.3281 C1.01042,9.56771 0,7.35417 0,4.6875 C0,0.197917 2.34375,-4 7.03125,-7.90625 C11.5938,-11.8125 16.5729,-13.7656 21.9688,-13.7656"/>
<path class="Note" transform="matrix(0.907087,0,0,0.907087,878.537,643.465)" d="M21.9688,-13.7656 C25.0938,-13.7656 27.7344,-12.9531 29.8906,-11.3281 C31.901,-9.56771 32.9063,-7.35417 32.9063,-4.6875 C32.9063,-0.197917 30.599,4 25.9844,7.90625 C21.2969,11.8125 16.2813,13.7656 10.9375,13.7656 C7.8125,13.7656 5.17708,12.9531 3.03125,11.3281 C1.01042,9.56771 0,7.35417 0,4.6875 C0,0.197917 2.34375,-4 7.03125,-7.90625 C11.5938,-11.8125 16.5729,-13.7656 21.9688,-13.7656"/>
<path class="Note" transform="matrix(0.907087,0,0,0.907087,727.966,654.803)" d="M21.9688,-13.7656 C25.0938,-13.7656 27.7344,-12.9531 29.8906,-11.3281 C31.901,-9.56771 32.9063,-7.35417 32.9063,-4.6875 C32.9063,-0.197917 30.599,4 25.9844,7.90625 C21.2969,11.8125 16.2813,13.7656 10.9375,13.7656 C7.8125,13.7656 5.17708,12.9531 3.03125,11.3281 C1.01042,9.56771 0,7.35417 0,4.6875 C0,0.197917 2.34375,-4 7.03125,-7.90625 C11.5938,-11.8125 16.5729,-13.7656 21.9688,-13.7656"/>
<path class="Note" transform="matrix(0.907087,0,0,0.907087,633.86,688.819)" d="M21.9688,-13.7656 C25.0938,-13.7656 27.7344,-12.9531 29.8906,-11.3281 C31.901,-9.56771 32.9063,-7.35417 32.9063,-4.6875 C32.9063,-0.197917 30.599,4 25.9844,7.90625 C21.2969,11.8125 16.2813,13.7656 10.9375,13.7656 C7.8125,13.7656 5.17708,12.9531 3.03125,11.3281 C1.01042,9.56771 0,7.35417 0,4.6875 C0,0.197917 2.34375,-4 7.03125,-7.90625 C11.5938,-11.8125 16.5729,-13.7656 21.9688,-13.7656"/>
<path class="Note" transform="matrix(0.907087,0,0,0.907087,539.753,654.803)" d="M21.9688,-13.7656 C25.0938,-13.7656 27.7344,-12.9531 29.8906,-11.3281 C31.901,-9.56771 32.9063,-7.35417 32.9063,-4.6875 C32.9063,-0.197917 30.599,4 25.9844,7.90625 C21.2969,11.8125 16.2813,13.7656 10.9375,13.7656 C7.8125,13.7656 5.17708,12.9531 3.03125,11.3281 C1.01042,9.56771 0,7.35417 0,4.6875 C0,0.197917 2.34375,-4 7.03125,-7.90625 C11.5938,-11.8125 16.5729,-13.7656 21.9688,-13.7656"/>
<path class="Clef" transform="matrix(0.907087,0,0,0.907087,227.112,1527.87)" d="M36.7188,-25.5938 C36.7188,-25.5938 36.9167,-25.5938 37.3125,-25.5938 C37.5729,-25.6563 37.7969,-25.6875 37.9844,-25.6875 C45.276,-25.6875 51.2656,-23.1146 55.9531,-17.9688 C60.6406,-12.8958 62.9844,-6.97396 62.9844,-0.203125 C62.9844,8.20313 59.5052,15.0417 52.5469,20.3125 C50.724,21.75 48.3438,22.9219 45.4063,23.8281 C45.7396,28.0573 45.9063,31.474 45.9063,34.0781 C45.9063,34.599 45.8385,36.4896 45.7031,39.75 C45.4427,45.8021 43.3594,51.0417 39.4531,55.4688 C35.6823,59.8333 30.9948,62.0156 25.3906,62.0156 C20.1198,62.0156 15.6302,60.1615 11.9219,56.4531 C8.20313,52.6719 6.34375,48.1146 6.34375,42.7813 C6.34375,39.9792 7.42188,37.599 9.57813,35.6406 C11.7865,33.6927 14.3542,32.7188 17.2813,32.7188 C19.8854,32.7188 22.0677,33.7292 23.8281,35.75 C25.651,37.6354 26.5625,39.9792 26.5625,42.7813 C26.5625,45.3125 25.651,47.4896 23.8281,49.3125 C22.0052,51.1354 19.8229,52.0469 17.2813,52.0469 C16.2396,52.0469 15.2344,51.8542 14.2656,51.4688 C17.1302,55.6979 20.9375,57.8125 25.6875,57.8125 C30.1771,57.8125 33.8542,55.9896 36.7188,52.3438 C39.7188,48.5729 41.349,44.1771 41.6094,39.1563 C41.7344,36.0313 41.7969,34.2448 41.7969,33.7969 C41.7969,30.151 41.6667,27.1563 41.4063,24.8125 C38.1563,25.3333 35.2604,25.5938 32.7188,25.5938 C23.6667,25.5938 15.9531,22.0104 9.57813,14.8438 C3.32813,7.61458 0.203125,-0.979167 0.203125,-10.9375 C0.203125,-13.0208 0.395833,-15.1354 0.78125,-17.2813 C1.17708,-19.0417 1.66667,-20.9635 2.25,-23.0469 C2.57292,-24.224 3.45313,-26.1146 4.89063,-28.7188 C5.41146,-29.5 5.9974,-30.4766 6.64844,-31.6484 C7.29948,-32.8203 7.75521,-33.599 8.01563,-33.9844 C8.66146,-35.2865 9.92708,-37.0469 11.8125,-39.2656 C12.3333,-39.849 12.8724,-40.4974 13.4297,-41.2109 C13.987,-41.9245 14.4609,-42.5104 14.8516,-42.9688 C15.2422,-43.4271 15.5339,-43.7865 15.7266,-44.0469 C15.9193,-44.3073 17.3854,-46.0313 20.125,-49.2188 C20.7708,-49.875 21.4036,-50.5755 22.0234,-51.3203 C22.6432,-52.0651 23.1484,-52.651 23.5391,-53.0781 C23.9297,-53.5052 24.224,-53.8125 24.4219,-54 C22.0781,-61.75 20.6094,-67.9375 20.0156,-72.5625 C19.5677,-76.2708 19.3438,-81.349 19.3438,-87.7969 C19.3438,-93.4635 20.6458,-98.7708 23.25,-103.719 C25.7813,-108.854 29.3281,-113.052 33.8906,-116.313 C34.151,-116.51 34.474,-116.609 34.8594,-116.609 C35.3177,-116.609 35.6458,-116.51 35.8438,-116.313 C39.3542,-112.083 42.3802,-106.583 44.9219,-99.8125 C47.526,-93.0417 48.8281,-86.8854 48.8281,-81.3438 C48.8281,-75.0938 47.3333,-69.2344 44.3438,-63.7656 C40.9583,-57.974 36.5938,-51.9844 31.25,-45.7969 C32.6146,-41.5052 34.4375,-34.7708 36.7188,-25.5938 M45.0156,19.8281 C48.401,18.5885 51.0417,16.474 52.9375,13.4844 C55.0208,10.6198 56.0625,7.39583 56.0625,3.8125 C56.0625,-0.8125 54.5,-4.91667 51.375,-8.5 C48.1771,-12.2083 44.1042,-14.2917 39.1563,-14.75 C41.9583,-1.01042 43.9115,10.5156 45.0156,19.8281 M7.23438,-2.73438 C7.23438,3.71354 9.83854,9.38021 15.0469,14.2656 C20.3802,19.0156 26.3698,21.3906 33.0156,21.3906 C35.7448,21.3906 38.4115,21.1927 41.0156,20.7969 C39.974,10.901 37.9219,-0.947917 34.8594,-14.75 C31.151,-14.3542 28.1927,-13.0521 25.9844,-10.8438 C23.8281,-8.5625 22.75,-5.98958 22.75,-3.125 C22.75,1.82292 25.3906,5.82813 30.6719,8.89063 C31.1198,9.34896 31.3438,9.83854 31.3438,10.3594 C31.3438,10.8802 31.1198,11.3646 30.6719,11.8125 C30.276,12.2708 29.7865,12.5 29.2031,12.5 C29.1406,12.5 28.849,12.4375 28.3281,12.3125 C24.6094,10.2917 21.7448,7.6875 19.7344,4.5 C17.8385,1.10417 16.8906,-2.31771 16.8906,-5.76563 C16.8906,-10.2552 18.2917,-14.3229 21.0938,-17.9688 C24.0208,-21.6146 27.8281,-23.9583 32.5156,-25 C30.6927,-32.2917 29.1979,-37.9896 28.0313,-42.0938 C26.9896,-40.9167 25.737,-39.5 24.2734,-37.8438 C22.8099,-36.1875 21.9479,-35.1927 21.6875,-34.8594 C19.3438,-31.8073 17.5521,-29.4323 16.3125,-27.7344 C14.0938,-24.6719 12.4635,-22.0365 11.4219,-19.8281 C10.3177,-17.349 9.34375,-14.6458 8.5,-11.7188 C7.65625,-8.91667 7.23438,-5.92188 7.23438,-2.73438 M39.8438,-102.047 C34.9583,-99.6406 31.1198,-96.1927 28.3281,-91.7031 C25.4635,-87.0781 24.0313,-82.099 24.0313,-76.7656 C24.0313,-72.0781 25.2031,-65.7604 27.5469,-57.8125 C32.2344,-63.4792 35.75,-68.7188 38.0938,-73.5313 C40.5625,-78.6146 41.7969,-83.9219 41.7969,-89.4531 C41.7969,-93.6198 41.1458,-97.8177 39.8438,-102.047"/>
<path class="Clef" transform="matrix(0.907087,0,0,0.907087,227.112,1097.01)" d="M36.7188,-25.5938 C36.7188,-25.5938 36.9167,-25.5938 37.3125,-25.5938 C37.5729,-25.6563 37.7969,-25.6875 37.9844,-25.6875 C45.276,-25.6875 51.2656,-23.1146 55.9531,-17.9688 C60.6406,-12.8958 62.9844,-6.97396 62.9844,-0.203125 C62.9844,8.20313 59.5052,15.0417 52.5469,20.3125 C50.724,21.75 48.3438,22.9219 45.4063,23.8281 C45.7396,28.0573 45.9063,31.474 45.9063,34.0781 C45.9063,34.599 45.8385,36.4896 45.7031,39.75 C45.4427,45.8021 43.3594,51.0417 39.4531,55.4688 C35.6823,59.8333 30.9948,62.0156 25.3906,62.0156 C20.1198,62.0156 15.6302,60.1615 11.9219,56.4531 C8.20313,52.6719 6.34375,48.1146 6.34375,42.7813 C6.34375,39.9792 7.42188,37.599 9.57813,35.6406 C11.7865,33.6927 14.3542,32.7188 17.2813,32.7188 C19.8854,32.7188 22.0677,33.7292 23.8281,35.75 C25.651,37.6354 26.5625,39.9792 26.5625,42.7813 C26.5625,45.3125 25.651,47.4896 23.8281,49.3125 C22.0052,51.1354 19.8229,52.0469 17.2813,52.0469 C16.2396,52.0469 15.2344,51.8542 14.2656,51.4688 C17.1302,55.6979 20.9375,57.8125 25.6875,57.8125 C30.1771,57.8125 33.8542,55.9896 36.7188,52.3438 C39.7188,48.5729 41.349,44.1771 41.6094,39.1563 C41.7344,36.0313 41.7969,34.2448 41.7969,33.7969 C41.7969,30.151 41.6667,27.1563 41.4063,24.8125 C38.1563,25.3333 35.2604,25.5938 32.7188,25.5938 C23.6667,25.5938 15.9531,22.0104 9.57813,14.8438 C3.32813,7.61458 0.203125,-0.979167 0.203125,-10.9375 C0.203125,-13.0208 0.395833,-15.1354 0.78125,-17.2813 C1.17708,-19.0417 1.66667,-20.9635 2.25,-23.0469 C2.57292,-24.224 3.45313,-26.1146 4.89063,-28.7188 C5.41146,-29.5 5.9974,-30.4766 6.64844,-31.6484 C7.29948,-32.8203 7.75521,-33.599 8.01563,-33.9844 C8.66146,-35.2865 9.92708,-37.0469 11.8125,-39.2656 C12.3333,-39.849 12.8724,-40.4974 13.4297,-41.2109 C13.987,-41.9245 14.4609,-42.5104 14.8516,-42.9688 C15.2422,-43.4271 15.5339,-43.7865 15.7266,-44.0469 C15.9193,-44.3073 17.3854,-46.0313 20.125,-49.2188 C20.7708,-49.875 21.4036,-50.5755 22.0234,-51.3203 C22.6432,-52.0651 23.1484,-52.651 23.5391,-53.0781 C23.9297,-53.5052 24.224,-53.8125 24.4219,-54 C22.0781,-61.75 20.6094,-67.9375 20.0156,-72.5625 C19.5677,-76.2708 19.3438,-81.349 19.3438,-87.7969 C19.3438,-93.4635 20.6458,-98.7708 23.25,-103.719 C25.7813,-108.854 29.3281,-113.052 33.8906,-116.313 C34.151,-116.51 34.474,-116.609 34.8594,-116.609 C35.3177,-116.609 35.6458,-116.51 35.8438,-116.313 C39.3542,-112.083 42.3802,-106.583 44.9219,-99.8125 C47.526,-93.0417 48.8281,-86.8854 48.8281,-81.3438 C48.8281,-75.0938 47.3333,-69.2344 44.3438,-63.7656 C40.9583,-57.974 36.5938,-51.9844 31.25,-45.7969 C32.6146,-41.5052 34.4375,-34.7708 36.7188,-25.5938 M45.0156,19.8281 C48.401,18.5885 51.0417,16.474 52.9375,13.4844 C55.0208,10.6198 56.0625,7.39583 56.0625,3.8125 C56.0625,-0.8125 54.5,-4.91667 51.375,-8.5 C48.1771,-12.2083 44.1042,-14.2917 39.1563,-14.75 C41.9583,-1.01042 43.9115,10.5156 45.0156,19.8281 M7.23438,-2.73438 C7.23438,3.71354 9.83854,9.38021 15.0469,14.2656 C20.3802,19.0156 26.3698,21.3906 33.0156,21.3906 C35.7448,21.3906 38.4115,21.1927 41.0156,20.7969 C39.974,10.901 37.9219,-0.947917 34.8594,-14.75 C31.151,-14.3542 28.1927,-13.0521 25.9844,-10.8438 C23.8281,-8.5625 22.75,-5.98958 22.75,-3.125 C22.75,1.82292 25.3906,5.82813 30.6719,8.89063 C31.1198,9.34896 31.3438,9.83854 31.3438,10.3594 C31.3438,10.8802 31.1198,11.3646 30.6719,11.8125 C30.276,12.2708 29.7865,12.5 29.2031,12.5 C29.1406,12.5 28.849,12.4375 28.3281,12.3125 C24.6094,10.2917 21.7448,7.6875 19.7344,4.5 C17.8385,1.10417 16.8906,-2.31771 16.8906,-5.76563 C16.8906,-10.2552 18.2917,-14.3229 21.0938,-17.9688 C24.0208,-21.6146 27.8281,-23.9583 32.5156,-25 C30.6927,-32.2917 29.1979,-37.9896 28.0313,-42.0938 C26.9896,-40.9167 25.737,-39.5 24.2734,-37.8438 C22.8099,-36.1875 21.9479,-35.1927 21.6875,-34.8594 C19.3438,-31.8073 17.5521,-29.4323 16.3125,-27.7344 C14.0938,-24.6719 12.4635,-22.0365 11.4219,-19.8281 C10.3177,-17.349 9.34375,-14.6458 8.5,-11.7188 C7.65625,-8.91667 7.23438,-5.92188 7.23438,-2.73438 M39.8438,-102.047 C34.9583,-99.6406 31.1198,-96.1927 28.3281,-91.7031 C25.4635,-87.0781 24.0313,-82.099 24.0313,-76.7656 C24.0313,-72.0781 25.2031,-65.7604 27.5469,-57.8125 C32.2344,-63.4792 35.75,-68.7188 38.0938,-73.5313 C40.5625,-78.6146 41.7969,-83.9219 41.7969,-89.4531 C41.7969,-93.6198 41.1458,-97.8177 39.8438,-102.047"/>
<path class="Clef" transform="matrix(0.907087,0,0,0.907087,227.112,666.142)" d="M36.7188,-25.5938 C36.7188,-25.5938 36.9167,-25.5938 37.3125,-25.5938 C37.5729,-25.6563 37.7969,-25.6875 37.9844,-25.6875 C45.276,-25.6875 51.2656,-23.1146 55.9531,-17.9688 C60.6406,-12.8958 62.9844,-6.97396 62.9844,-0.203125 C62.9844,8.20313 59.5052,15.0417 52.5469,20.3125 C50.724,21.75 48.3438,22.9219 45.4063,23.8281 C45.7396,28.0573 45.9063,31.474 45.9063,34.0781 C45.9063,34.599 45.8385,36.4896 45.7031,39.75 C45.4427,45.8021 43.3594,51.0417 39.4531,55.4688 C35.6823,59.8333 30.9948,62.0156 25.3906,62.0156 C20.1198,62.0156 15.6302,60.1615 11.9219,56.4531 C8.20313,52.6719 6.34375,48.1146 6.34375,42.7813 C6.34375,39.9792 7.42188,37.599 9.57813,35.6406 C11.7865,33.6927 14.3542,32.7188 17.2813,32.7188 C19.8854,32.7188 22.0677,33.7292 23.8281,35.75 C25.651,37.6354 26.5625,39.9792 26.5625,42.7813 C26.5625,45.3125 25.651,47.4896 23.8281,49.3125 C22.0052,51.1354 19.8229,52.0469 17.2813,52.0469 C16.2396,52.0469 15.2344,51.8542 14.2656,51.4688 C17.1302,55.6979 20.9375,57.8125 25.6875,57.8125 C30.1771,57.8125 33.8542,55.9896 36.7188,52.3438 C39.7188,48.5729 41.349,44.1771 41.6094,39.1563 C41.7344,36.0313 41.7969,34.2448 41.7969,33.7969 C41.7969,30.151 41.6667,27.1563 41.4063,24.8125 C38.1563,25.3333 35.2604,25.5938 32.7188,25.5938 C23.6667,25.5938 15.9531,22.0104 9.57813,14.8438 C3.32813,7.61458 0.203125,-0.979167 0.203125,-10.9375 C0.203125,-13.0208 0.395833,-15.1354 0.78125,-17.2813 C1.17708,-19.0417 1.66667,-20.9635 2.25,-23.0469 C2.57292,-24.224 3.45313,-26.1146 4.89063,-28.7188 C5.41146,-29.5 5.9974,-30.4766 6.64844,-31.6484 C7.29948,-32.8203 7.75521,-33.599 8.01563,-33.9844 C8.66146,-35.2865 9.92708,-37.0469 11.8125,-39.2656 C12.3333,-39.849 12.8724,-40.4974 13.4297,-41.2109 C13.987,-41.9245 14.4609,-42.5104 14.8516,-42.9688 C15.2422,-43.4271 15.5339,-43.7865 15.7266,-44.0469 C15.9193,-44.3073 17.3854,-46.0313 20.125,-49.2188 C20.7708,-49.875 21.4036,-50.5755 22.0234,-51.3203 C22.6432,-52.0651 23.1484,-52.651 23.5391,-53.0781 C23.9297,-53.5052 24.224,-53.8125 24.4219,-54 C22.0781,-61.75 20.6094,-67.9375 20.0156,-72.5625 C19.5677,-76.2708 19.3438,-81.349 19.3438,-87.7969 C19.3438,-93.4635 20.6458,-98.7708 23.25,-103.719 C25.7813,-108.854 29.3281,-113.052 33.8906,-116.313 C34.151,-116.51 34.474,-116.609 34.8594,-116.609 C35.3177,-116.609 35.6458,-116.51 35.8438,-116.313 C39.3542,-112.083 42.3802,-106.583 44.9219,-99.8125 C47.526,-93.0417 48.8281,-86.8854 48.8281,-81.3438 C48.8281,-75.0938 47.3333,-69.2344 44.3438,-63.7656 C40.9583,-57.974 36.5938,-51.9844 31.25,-45.7969 C32.6146,-41.5052 34.4375,-34.7708 36.7188,-25.5938 M45.0156,19.8281 C48.401,18.5885 51.0417,16.474 52.9375,13.4844 C55.0208,10.6198 56.0625,7.39583 56.0625,3.8125 C56.0625,-0.8125 54.5,-4.91667 51.375,-8.5 C48.1771,-12.2083 44.1042,-14.2917 39.1563,-14.75 C41.9583,-1.01042 43.9115,10.5156 45.0156,19.8281 M7.23438,-2.73438 C7.23438,3.71354 9.83854,9.38021 15.0469,14.2656 C20.3802,19.0156 26.3698,21.3906 33.0156,21.3906 C35.7448,21.3906 38.4115,21.1927 41.0156,20.7969 C39.974,10.901 37.9219,-0.947917 34.8594,-14.75 C31.151,-14.3542 28.1927,-13.0521 25.9844,-10.8438 C23.8281,-8.5625 22.75,-5.98958 22.75,-3.125 C22.75,1.82292 25.3906,5.82813 30.6719,8.89063 C31.1198,9.34896 31.3438,9.83854 31.3438,10.3594 C31.3438,10.8802 31.1198,11.3646 30.6719,11.8125 C30.276,12.2708 29.7865,12.5 29.2031,12.5 C29.1406,12.5 28.849,12.4375 28.3281,12.3125 C24.6094,10.2917 21.7448,7.6875 19.7344,4.5 C17.8385,1.10417 16.8906,-2.31771 16.8906,-5.76563 C16.8906,-10.2552 18.2917,-14.3229 21.0938,-17.9688 C24.0208,-21.6146 27.8281,-23.9583 32.5156,-25 C30.6927,-32.2917 29.1979,-37.9896 28.0313,-42.0938 C26.9896,-40.9167 25.737,-39.5 24.2734,-37.8438 C22.8099,-36.1875 21.9479,-35.1927 21.6875,-34.8594 C19.3438,-31.8073 17.5521,-29.4323 16.3125,-27.7344 C14.0938,-24.6719 12.4635,-22.0365 11.4219,-19.8281 C10.3177,-17.349 9.34375,-14.6458 8.5,-11.7188 C7.65625,-8.91667 7.23438,-5.92188 7.23438,-2.73438 M39.8438,-102.047 C34.9583,-99.6406 31.1198,-96.1927 28.3281,-91.7031 C25.4635,-87.0781 24.0313,-82.099 24.0313,-76.7656 C24.0313,-72.0781 25.2031,-65.7604 27.5469,-57.8125 C32.2344,-63.4792 35.75,-68.7188 38.0938,-73.5313 C40.5625,-78.6146 41.7969,-83.9219 41.7969,-89.4531 C41.7969,-93.6198 41.1458,-97.8177 39.8438,-102.047"/>
<path class="TimeSig" transform="matrix(0.907087,0,0,0.907087,308.806,620.787)" d="M22.8594,25 C20.901,25 19.1406,24.6432 17.5781,23.9297 C16.0156,23.2161 14.9115,22.4688 14.2656,21.6875 C13.4115,20.7083 12.5625,19.9583 11.7188,19.4375 C10.6771,18.7188 9.60417,18.3594 8.5,18.3594 C6.80208,18.3594 5.40104,18.8802 4.29688,19.9219 C3.13021,20.901 2.47917,22.2344 2.34375,23.9219 C2.21875,24.6406 1.82813,25 1.17188,25 C0.390625,25 0,24.6406 0,23.9219 C0,21.3906 0.588542,19.1146 1.76563,17.0938 C2.93229,15.0104 4.36458,13.2865 6.0625,11.9219 C7.48958,10.6823 9.375,9.18229 11.7188,7.42188 C12.1146,7.09896 12.9453,6.41667 14.2109,5.375 C15.4766,4.33333 16.5365,3.45313 17.3906,2.73438 C19.0781,1.30729 20.5417,-0.583333 21.7813,-2.9375 C22.9479,-5.28125 23.5313,-7.81771 23.5313,-10.5469 C23.5313,-13.8698 22.9792,-16.7344 21.875,-19.1406 C20.7083,-21.4844 18.9167,-22.6563 16.5,-22.6563 C15.0104,-22.6563 13.8073,-22.3333 12.8906,-21.6875 C11.9115,-21.0313 11.4219,-20.151 11.4219,-19.0469 C11.4219,-18.1302 12.0078,-16.9896 13.1797,-15.625 C14.3516,-14.2604 14.9375,-13.1198 14.9375,-12.2031 C14.9375,-10.2552 14.2552,-8.59896 12.8906,-7.23438 C11.5885,-5.93229 9.99479,-5.28125 8.10938,-5.28125 C6.15104,-5.28125 4.48958,-5.96354 3.125,-7.32813 C1.82292,-8.75521 1.17188,-10.3802 1.17188,-12.2031 C1.17188,-15.9219 2.66927,-18.9844 5.66406,-21.3906 C8.65885,-23.7969 12.2708,-25 16.5,-25 C21.5208,-25 25.8854,-23.6354 29.5938,-20.9063 C33.3021,-18.3021 35.1563,-14.849 35.1563,-10.5469 C35.1563,-7.61979 34.6354,-5.11458 33.5938,-3.03125 C32.6146,-0.8125 31.151,0.916667 29.2031,2.15625 C26.9844,3.58333 25.0625,4.6875 23.4375,5.46875 C21.1563,6.51042 18.8802,7.48958 16.6094,8.40625 C13.8698,9.51042 11.75,10.5521 10.25,11.5313 C11.1042,11.3333 11.9844,11.2344 12.8906,11.2344 C15.8906,11.2344 19.0156,12.2083 22.2656,14.1563 C25.5885,16.1146 28.1615,17.0938 29.9844,17.0938 C31.0885,17.0938 31.9688,16.8958 32.625,16.5 C33.2708,16.1146 33.6927,15.6927 33.8906,15.2344 C34.151,14.5885 34.3802,14.1354 34.5781,13.875 C34.8385,13.4792 35.1615,13.2813 35.5469,13.2813 C36.3281,13.2813 36.7188,13.6719 36.7188,14.4531 C36.7188,16.276 35.4167,18.4896 32.8125,21.0938 C30.2708,23.6979 26.9531,25 22.8594,25"/>
<path class="TimeSig" transform="matrix(0.907087,0,0,0.907087,307.176,666.22)" d="M22.4688,-23.7344 C24.4167,-23.7344 26.0755,-23.9609 27.4453,-24.4141 C28.8151,-24.8672 29.6927,-25.0938 30.0781,-25.0938 C30.5365,-25.0938 30.8958,-24.9635 31.1563,-24.7031 C31.3542,-24.5156 31.4844,-24.2917 31.5469,-24.0313 C31.5469,-23.8958 31.4792,-23.6979 31.3438,-23.4375 L2.9375,9.57813 L19.625,9.57813 L19.625,-3.51563 C19.625,-4.35938 19.8542,-5.07813 20.3125,-5.67188 C21.0938,-6.31771 21.7448,-6.70833 22.2656,-6.84375 C23.1094,-7.22917 24.151,-8.14063 25.3906,-9.57813 C26.4323,-10.7448 27.6719,-12.7917 29.1094,-15.7188 C29.2969,-16.1146 29.5885,-16.3125 29.9844,-16.3125 C30.7656,-16.3125 31.2188,-15.8542 31.3438,-14.9375 L31.3438,9.57813 L38.4844,9.57813 C39.3906,9.57813 39.9115,10.0625 40.0469,11.0313 C40.0469,12.0104 39.526,12.5 38.4844,12.5 L31.3438,12.5 L31.3438,13.2813 C31.3438,15.8854 31.9948,18.099 33.2969,19.9219 C34.7969,21.7448 36.5573,22.6563 38.5781,22.6563 C39.3594,22.6563 39.75,23.0469 39.75,23.8281 C39.75,24.6094 39.3594,25 38.5781,25 C37.2135,25 35,24.8073 31.9375,24.4219 C29.1354,23.9635 26.9531,23.7344 25.3906,23.7344 C23.7656,23.7344 21.5833,23.9635 18.8438,24.4219 C15.9167,24.8073 13.7396,25 12.3125,25 C11.5313,25 11.1406,24.6094 11.1406,23.8281 C11.1406,23.0469 11.5313,22.6563 12.3125,22.6563 C14.3229,22.6563 16.0781,21.7448 17.5781,19.9219 C18.9427,18.0365 19.625,15.8229 19.625,13.2813 L19.625,12.5 L2.9375,12.5 C1.82292,12.5 1.04167,12.2396 0.59375,11.7188 C0.0625,11.3333 -0.203125,10.8125 -0.203125,10.1563 C-0.203125,9.95833 0.286458,9.27604 1.26563,8.10938 C2.38021,6.80729 3.55208,5.21354 4.78125,3.32813 C6.21875,1.10938 7.58854,-1.17188 8.89063,-3.51563 C10.3177,-6.18229 11.4583,-9.24479 12.3125,-12.7031 C13.2813,-16.2135 13.7656,-19.7917 13.7656,-23.4375 C13.7656,-24.4792 14.224,-25 15.1406,-25 C15.3385,-25 15.7604,-24.901 16.4063,-24.7031 C16.6042,-24.6406 17.013,-24.5443 17.6328,-24.4141 C18.2526,-24.2839 18.7552,-24.1563 19.1406,-24.0313 C20.3177,-23.8333 21.4271,-23.7344 22.4688,-23.7344"/>
<path class="Rest" transform="matrix(0.907087,0,0,0.907087,2593.99,1505.2)" d="M-0.59375,-7.8125 C-0.59375,-8.98958 0.0625,-10.2917 1.375,-11.7188 C2.34375,-12.7604 3.77604,-14 5.67188,-15.4375 C7.09896,-16.4063 8.49479,-17.8698 9.85938,-19.8281 C11.1615,-21.7135 11.8125,-23.7656 11.8125,-25.9844 C11.8125,-28.5885 10.9688,-30.8958 9.28125,-32.9063 L5.76563,-37.1094 C5.50521,-37.3698 5.375,-37.6953 5.375,-38.0859 C5.375,-38.4766 5.56771,-38.8333 5.95313,-39.1563 C6.41146,-39.4896 6.80208,-39.6563 7.125,-39.6563 C7.58333,-39.6563 7.94271,-39.4583 8.20313,-39.0625 L23.3438,-21.0938 C23.9896,-20.25 24.3125,-19.4063 24.3125,-18.5625 C24.3125,-17.3854 23.6615,-16.0833 22.3594,-14.6563 C21.5156,-13.7396 20.1198,-12.5 18.1719,-10.9375 C16.6719,-10.0313 15.2396,-8.56771 13.875,-6.54688 C12.5729,-4.66146 11.9219,-2.60938 11.9219,-0.390625 C11.9219,2.34896 12.7031,4.66146 14.2656,6.54688 L22.6563,16.4063 C22.8542,16.6042 23.0156,16.9323 23.1406,17.3906 C23.1406,17.8385 22.9792,18.2292 22.6563,18.5625 C22.1979,18.8854 21.8073,19.0469 21.4844,19.0469 C21.3594,19.0469 20.8385,18.6875 19.9219,17.9688 C18.9427,17.1875 17.6406,16.4375 16.0156,15.7188 C14.1927,15.0104 12.401,14.6563 10.6406,14.6563 C9.01563,14.6563 7.68229,15.1094 6.64063,16.0156 C5.73438,16.9323 5.28125,18.6927 5.28125,21.2969 C5.28125,25.2656 6.22396,28.3906 8.10938,30.6719 C8.30729,30.9323 8.33854,31.2552 8.20313,31.6406 C8.07813,31.901 7.84896,32.0313 7.51563,32.0313 C7.06771,32.0313 6.0625,30.8594 4.5,28.5156 C2.86458,26.0469 1.33333,23.2135 -0.09375,20.0156 C-1.59375,16.6302 -2.34375,13.8333 -2.34375,11.625 C-2.34375,8.82292 -1.01042,7.42188 1.65625,7.42188 C4.71875,7.42188 8.69271,8.46354 13.5781,10.5469 L0.390625,-5.28125 C-0.265625,-6.125 -0.59375,-6.96875 -0.59375,-7.8125"/>
<path class="Rest" transform="matrix(0.907087,0,0,0.907087,1580.53,1505.2)" d="M-0.59375,-7.8125 C-0.59375,-8.98958 0.0625,-10.2917 1.375,-11.7188 C2.34375,-12.7604 3.77604,-14 5.67188,-15.4375 C7.09896,-16.4063 8.49479,-17.8698 9.85938,-19.8281 C11.1615,-21.7135 11.8125,-23.7656 11.8125,-25.9844 C11.8125,-28.5885 10.9688,-30.8958 9.28125,-32.9063 L5.76563,-37.1094 C5.50521,-37.3698 5.375,-37.6953 5.375,-38.0859 C5.375,-38.4766 5.56771,-38.8333 5.95313,-39.1563 C6.41146,-39.4896 6.80208,-39.6563 7.125,-39.6563 C7.58333,-39.6563 7.94271,-39.4583 8.20313,-39.0625 L23.3438,-21.0938 C23.9896,-20.25 24.3125,-19.4063 24.3125,-18.5625 C24.3125,-17.3854 23.6615,-16.0833 22.3594,-14.6563 C21.5156,-13.7396 20.1198,-12.5 18.1719,-10.9375 C16.6719,-10.0313 15.2396,-8.56771 13.875,-6.54688 C12.5729,-4.66146 11.9219,-2.60938 11.9219,-0.390625 C11.9219,2.34896 12.7031,4.66146 14.2656,6.54688 L22.6563,16.4063 C22.8542,16.6042 23.0156,16.9323 23.1406,17.3906 C23.1406,17.8385 22.9792,18.2292 22.6563,18.5625 C22.1979,18.8854 21.8073,19.0469 21.4844,19.0469 C21.3594,19.0469 20.8385,18.6875 19.9219,17.9688 C18.9427,17.1875 17.6406,16.4375 16.0156,15.7188 C14.1927,15.0104 12.401,14.6563 10.6406,14.6563 C9.01563,14.6563 7.68229,15.1094 6.64063,16.0156 C5.73438,16.9323 5.28125,18.6927 5.28125,21.2969 C5.28125,25.2656 6.22396,28.3906 8.10938,30.6719 C8.30729,30.9323 8.33854,31.2552 8.20313,31.6406 C8.07813,31.901 7.84896,32.0313 7.51563,32.0313 C7.06771,32.0313 6.0625,30.8594 4.5,28.5156 C2.86458,26.0469 1.33333,23.2135 -0.09375,20.0156 C-1.59375,16.6302 -2.34375,13.8333 -2.34375,11.625 C-2.34375,8.82292 -1.01042,7.42188 1.65625,7.42188 C4.71875,7.42188 8.69271,8.46354 13.5781,10.5469 L0.390625,-5.28125 C-0.265625,-6.125 -0.59375,-6.96875 -0.59375,-7.8125"/>
<path class="Rest" transform="matrix(0.907087,0,0,0.907087,341.348,1505.2)" d="M7.03125,-20.5156 C8.91667,-20.5156 10.349,-19.9948 11.3281,-18.9531 C12.3073,-17.776 12.8281,-16.6667 12.8906,-15.625 C13.026,-14.6458 13.3542,-13.5417 13.875,-12.3125 C14.4583,-11.2708 15.2031,-10.75 16.1094,-10.75 C16.8281,-10.75 17.9063,-11.5625 19.3438,-13.1875 C20.6458,-14.6146 21.5885,-15.8854 22.1719,-17 C22.4948,-17.6458 22.9479,-17.9688 23.5313,-17.9688 L23.6406,-17.9688 C24.2865,-17.9063 24.7396,-17.5833 25,-17 L12.7031,25 C12.0469,25.6563 11.1328,25.9844 9.96094,25.9844 C8.78906,25.9844 7.88021,25.6563 7.23438,25 L18.9531,-7.625 C14.7865,-6.125 11.2708,-5.375 8.40625,-5.375 C6.0625,-5.375 4.04167,-6.125 2.34375,-7.625 C0.583333,-9.05208 -0.296875,-10.9375 -0.296875,-13.2813 C-0.296875,-15.3021 0.421875,-16.9948 1.85938,-18.3594 C3.28646,-19.7969 5.01042,-20.5156 7.03125,-20.5156"/>
<path class="Rest" transform="matrix(0.907087,0,0,0.907087,1606.46,1074.33)" d="M7.03125,-20.5156 C8.91667,-20.5156 10.349,-19.9948 11.3281,-18.9531 C12.3073,-17.776 12.8281,-16.6667 12.8906,-15.625 C13.026,-14.6458 13.3542,-13.5417 13.875,-12.3125 C14.4583,-11.2708 15.2031,-10.75 16.1094,-10.75 C16.8281,-10.75 17.9063,-11.5625 19.3438,-13.1875 C20.6458,-14.6146 21.5885,-15.8854 22.1719,-17 C22.4948,-17.6458 22.9479,-17.9688 23.5313,-17.9688 L23.6406,-17.9688 C24.2865,-17.9063 24.7396,-17.5833 25,-17 L12.7031,25 C12.0469,25.6563 11.1328,25.9844 9.96094,25.9844 C8.78906,25.9844 7.88021,25.6563 7.23438,25 L18.9531,-7.625 C14.7865,-6.125 11.2708,-5.375 8.40625,-5.375 C6.0625,-5.375 4.04167,-6.125 2.34375,-7.625 C0.583333,-9.05208 -0.296875,-10.9375 -0.296875,-13.2813 C-0.296875,-15.3021 0.421875,-16.9948 1.85938,-18.3594 C3.28646,-19.7969 5.01042,-20.5156 7.03125,-20.5156"/>
<path class="Rest" transform="matrix(0.907087,0,0,0.907087,393.047,1074.33)" d="M7.03125,-20.5156 C8.91667,-20.5156 10.349,-19.9948 11.3281,-18.9531 C12.3073,-17.776 12.8281,-16.6667 12.8906,-15.625 C13.026,-14.6458 13.3542,-13.5417 13.875,-12.3125 C14.4583,-11.2708 15.2031,-10.75 16.1094,-10.75 C16.8281,-10.75 17.9063,-11.5625 19.3438,-13.1875 C20.6458,-14.6146 21.5885,-15.8854 22.1719,-17 C22.4948,-17.6458 22.9479,-17.9688 23.5313,-17.9688 L23.6406,-17.9688 C24.2865,-17.9063 24.7396,-17.5833 25,-17 L12.7031,25 C12.0469,25.6563 11.1328,25.9844 9.96094,25.9844 C8.78906,25.9844 7.88021,25.6563 7.23438,25 L18.9531,-7.625 C14.7865,-6.125 11.2708,-5.375 8.40625,-5.375 C6.0625,-5.375 4.04167,-6.125 2.34375,-7.625 C0.583333,-9.05208 -0.296875,-10.9375 -0.296875,-13.2813 C-0.296875,-15.3021 0.421875,-16.9948 1.85938,-18.3594 C3.28646,-19.7969 5.01042,-20.5156 7.03125,-20.5156"/>
<path class="Rest" transform="matrix(0.907087,0,0,0.907087,2460.9,643.465)" d="M-0.59375,-7.8125 C-0.59375,-8.98958 0.0625,-10.2917 1.375,-11.7188 C2.34375,-12.7604 3.77604,-14 5.67188,-15.4375 C7.09896,-16.4063 8.49479,-17.8698 9.85938,-19.8281 C11.1615,-21.7135 11.8125,-23.7656 11.8125,-25.9844 C11.8125,-28.5885 10.9688,-30.8958 9.28125,-32.9063 L5.76563,-37.1094 C5.50521,-37.3698 5.375,-37.6953 5.375,-38.0859 C5.375,-38.4766 5.56771,-38.8333 5.95313,-39.1563 C6.41146,-39.4896 6.80208,-39.6563 7.125,-39.6563 C7.58333,-39.6563 7.94271,-39.4583 8.20313,-39.0625 L23.3438,-21.0938 C23.9896,-20.25 24.3125,-19.4063 24.3125,-18.5625 C24.3125,-17.3854 23.6615,-16.0833 22.3594,-14.6563 C21.5156,-13.7396 20.1198,-12.5 18.1719,-10.9375 C16.6719,-10.0313 15.2396,-8.56771 13.875,-6.54688 C12.5729,-4.66146 11.9219,-2.60938 11.9219,-0.390625 C11.9219,2.34896 12.7031,4.66146 14.2656,6.54688 L22.6563,16.4063 C22.8542,16.6042 23.0156,16.9323 23.1406,17.3906 C23.1406,17.8385 22.9792,18.2292 22.6563,18.5625 C22.1979,18.8854 21.8073,19.0469 21.4844,19.0469 C21.3594,19.0469 20.8385,18.6875 19.9219,17.9688 C18.9427,17.1875 17.6406,16.4375 16.0156,15.7188 C14.1927,15.0104 12.401,14.6563 10.6406,14.6563 C9.01563,14.6563 7.68229,15.1094 6.64063,16.0156 C5.73438,16.9323 5.28125,18.6927 5.28125,21.2969 C5.28125,25.2656 6.22396,28.3906 8.10938,30.6719 C8.30729,30.9323 8.33854,31.2552 8.20313,31.6406 C8.07813,31.901 7.84896,32.0313 7.51563,32.0313 C7.06771,32.0313 6.0625,30.8594 4.5,28.5156 C2.86458,26.0469 1.33333,23.2135 -0.09375,20.0156 C-1.59375,16.6302 -2.34375,13.8333 -2.34375,11.625 C-2.34375,8.82292 -1.01042,7.42188 1.65625,7.42188 C4.71875,7.42188 8.69271,8.46354 13.5781,10.5469 L0.390625,-5.28125 C-0.265625,-6.125 -0.59375,-6.96875 -0.59375,-7.8125"/>
<path class="Rest" transform="matrix(0.907087,0,0,0.907087,389.183,643.465)" d="M7.03125,-20.5156 C8.91667,-20.5156 10.349,-19.9948 11.3281,-18.9531 C12.3073,-17.776 12.8281,-16.6667 12.8906,-15.625 C13.026,-14.6458 13.3542,-13.5417 13.875,-12.3125 C14.4583,-11.2708 15.2031,-10.75 16.1094,-10.75 C16.8281,-10.75 17.9063,-11.5625 19.3438,-13.1875 C20.6458,-14.6146 21.5885,-15.8854 22.1719,-17 C22.4948,-17.6458 22.9479,-17.9688 23.5313,-17.9688 L23.6406,-17.9688 C24.2865,-17.9063 24.7396,-17.5833 25,-17 L12.7031,25 C12.0469,25.6563 11.1328,25.9844 9.96094,25.9844 C8.78906,25.9844 7.88021,25.6563 7.23438,25 L18.9531,-7.625 C14.7865,-6.125 11.2708,-5.375 8.40625,-5.375 C6.0625,-5.375 4.04167,-6.125 2.34375,-7.625 C0.583333,-9.05208 -0.296875,-10.9375 -0.296875,-13.2813 C-0.296875,-15.3021 0.421875,-16.9948 1.85938,-18.3594 C3.28646,-19.7969 5.01042,-20.5156 7.03125,-20.5156"/>
<path class="Beam" fill-rule="evenodd" d="M558.42,1539.2 L657.844,1545.05 L657.844,1556.4 L558.42,1550.56 L558.42,1539.2 "/>
<path class="Beam" fill-rule="evenodd" d="M437.824,1584.35 L501.07,1566.51 L501.07,1578.29 L437.824,1596.13 L437.824,1584.35 "/>
<path class="Beam" fill-rule="evenodd" d="M437.824,1567.34 L501.07,1549.5 L501.07,1561.28 L437.824,1579.12 L437.824,1567.34 "/>
<path class="Beam" fill-rule="evenodd" d="M2462.92,1136.66 L2631,1153.97 L2631,1165.37 L2462.92,1148.06 L2462.92,1136.66 "/>
<path class="Beam" fill-rule="evenodd" d="M2462.92,1119.66 L2548.43,1128.46 L2548.43,1139.86 L2462.92,1131.05 L2462.92,1119.66 "/>
<path class="Beam" fill-rule="evenodd" d="M2198.73,1108.34 L2333.77,1114.14 L2333.77,1125.49 L2198.73,1119.69 L2198.73,1108.34 "/>
<path class="Beam" fill-rule="evenodd" d="M1903.69,1085.66 L2038.73,1091.46 L2038.73,1102.81 L1903.69,1097.01 L1903.69,1085.66 "/>
<path class="Beam" fill-rule="evenodd" d="M1738.56,1114 L1824.07,1108.13 L1824.07,1119.5 L1738.56,1125.37 L1738.56,1114 "/>
<path class="Beam" fill-rule="evenodd" d="M1738.56,1096.99 L1824.07,1091.12 L1824.07,1102.49 L1738.56,1108.36 L1738.56,1096.99 "/>
<path class="Beam" fill-rule="evenodd" d="M1277.95,1091.29 L1446.02,1114.37 L1446.02,1125.81 L1277.95,1102.73 L1277.95,1091.29 "/>
<path class="Beam" fill-rule="evenodd" d="M1277.95,1074.28 L1363.46,1086.02 L1363.46,1097.47 L1277.95,1085.72 L1277.95,1074.28 "/>
<path class="Beam" fill-rule="evenodd" d="M1013.75,1085.66 L1148.79,1091.46 L1148.79,1102.81 L1013.75,1097.01 L1013.75,1085.66 "/>
<path class="Beam" fill-rule="evenodd" d="M705.325,1068.66 L847.064,1074.45 L847.064,1085.79 L705.325,1080 L705.325,1068.66 "/>
<path class="Beam" fill-rule="evenodd" d="M531.837,1108.24 L621.529,1090.65 L621.529,1102.21 L531.837,1119.79 L531.837,1108.24 "/>
<path class="Beam" fill-rule="evenodd" d="M531.837,1091.23 L621.529,1073.64 L621.529,1085.2 L531.837,1102.79 L531.837,1091.23 "/>
<path class="Beam" fill-rule="evenodd" d="M754.874,575.54 L908.393,569.76 L908.393,581.106 L754.874,586.887 L754.874,575.54 "/>
<path class="Beam" fill-rule="evenodd" d="M566.661,574.809 L663.716,592.349 L663.716,603.871 L566.661,586.331 L566.661,574.809 "/>
<path class="Beam" fill-rule="evenodd" d="M566.661,591.816 L663.716,609.357 L663.716,620.879 L566.661,603.339 L566.661,591.816 "/>
<path class="Hook" transform="matrix(0.907087,0,0,0.907087,1613.48,722.835)" d="M22.75,-72.3594 C24.25,-72.3594 25.849,-69.9219 27.5469,-65.0469 C29.1719,-60.224 29.9844,-55.6302 29.9844,-51.2656 C29.9844,-47.5573 29.0729,-43.8802 27.25,-40.2344 C25.3646,-36.3281 23.1198,-32.9427 20.5156,-30.0781 L12.5,-21.0938 C10.0313,-18.2292 7.81771,-14.9115 5.85938,-11.1406 C4.03646,-7.49479 3.125,-3.78125 3.125,0 L0,0 L0,-25 L3.125,-25 C4.88542,-26.1042 7.48958,-27.8646 10.9375,-30.2813 C12.5,-31.4479 14.8438,-33.401 17.9688,-36.1406 C20.5104,-38.4844 22.4323,-40.8906 23.7344,-43.3594 C25.099,-45.9635 25.7813,-48.599 25.7813,-51.2656 C25.7813,-57.4531 23.9896,-63.6094 20.4063,-69.7344 C20.4063,-69.7344 20.4063,-69.8646 20.4063,-70.125 C20.4063,-70.7083 20.6042,-71.1927 21,-71.5781 C21.5208,-72.099 22.1042,-72.3594 22.75,-72.3594"/>
<path class="VoltaSegment" d="M1781.34,1410.69 C1783.87,1403.89 1787.54,1400.49 1792.34,1400.49 C1795.04,1400.49 1797.26,1401.35 1798.99,1403.07 C1800.73,1404.79 1801.59,1406.98 1801.59,1409.65 C1801.59,1413.31 1799.69,1416.95 1795.89,1420.55 L1787.8,1428.24 L1795.34,1428.24 C1797.92,1428.24 1799.57,1428.04 1800.3,1427.65 C1801.02,1427.25 1801.76,1426.15 1802.5,1424.35 L1803.7,1424.35 L1801.45,1434.9 L1780.64,1434.9 L1780.64,1433.74 C1786.35,1427.68 1790.13,1423.21 1792,1420.32 C1793.86,1417.43 1794.8,1414.85 1794.8,1412.55 C1794.8,1410.85 1794.25,1409.36 1793.15,1408.09 C1792.05,1406.83 1790.61,1406.19 1788.84,1406.19 C1786.28,1406.19 1784.25,1407.69 1782.75,1410.69 L1781.34,1410.69 M1811.05,1427.1 C1812.21,1427.1 1813.21,1427.53 1814.05,1428.37 C1814.88,1429.22 1815.3,1430.23 1815.3,1431.4 C1815.3,1432.56 1814.88,1433.55 1814.05,1434.35 C1813.21,1435.15 1812.2,1435.55 1811,1435.55 C1809.83,1435.55 1808.85,1435.15 1808.05,1434.33 C1807.24,1433.51 1806.84,1432.5 1806.84,1431.3 C1806.84,1430.17 1807.26,1429.18 1808.09,1428.35 C1808.93,1427.52 1809.91,1427.1 1811.05,1427.1"/>
<polyline class="VoltaSegment" fill="none" stroke="#000000" stroke-width="2.27" stroke-linecap="square" stroke-linejoin="bevel" points="1768.46,1434.9 1768.46,1391.81"/>
<polyline class="VoltaSegment" fill="none" stroke="#000000" stroke-width="2.27" stroke-linecap="square" stroke-linejoin="bevel" points="1768.46,1391.81 2743.37,1391.81"/>
<path class="VoltaSegment" d="M770.84,1405.99 C770.444,1405.99 769.97,1406.07 769.418,1406.24 C768.866,1406.41 768.282,1406.61 767.668,1406.84 C767.053,1407.08 766.694,1407.21 766.59,1407.24 L766.59,1405.94 L779.183,1400.49 L780.043,1400.49 L780.043,1428.99 C780.043,1430.93 780.376,1432.19 781.043,1432.77 C781.709,1433.36 783.173,1433.66 785.433,1433.69 L785.433,1434.9 L766.683,1434.9 L766.683,1433.69 C769.152,1433.66 770.762,1433.34 771.512,1432.73 C772.262,1432.11 772.637,1430.77 772.637,1428.69 L772.637,1409.44 C772.637,1407.14 772.038,1405.99 770.84,1405.99 M794.59,1427.1 C795.756,1427.1 796.756,1427.53 797.59,1428.37 C798.423,1429.22 798.84,1430.23 798.84,1431.4 C798.84,1432.56 798.423,1433.55 797.59,1434.35 C796.756,1435.15 795.741,1435.55 794.543,1435.55 C793.376,1435.55 792.392,1435.15 791.59,1434.33 C790.788,1433.51 790.387,1432.5 790.387,1431.3 C790.387,1430.17 790.803,1429.18 791.637,1428.35 C792.47,1427.52 793.454,1427.1 794.59,1427.1"/>
<polyline class="VoltaSegment" fill="none" stroke="#000000" stroke-width="2.27" stroke-linecap="square" stroke-linejoin="bevel" points="755.001,1434.9 755.001,1391.81"/>
<polyline class="VoltaSegment" fill="none" stroke="#000000" stroke-width="2.27" stroke-linecap="square" stroke-linejoin="bevel" points="755.001,1391.81 1754.93,1391.81"/>
<polyline class="VoltaSegment" fill="none" stroke="#000000" stroke-width="2.27" stroke-linecap="square" stroke-linejoin="bevel" points="1754.93,1391.81 1754.93,1434.9"/>
<path class="NoteDot" transform="matrix(0.907087,0,0,0.907087,1835.19,632.126)" d="M1.66406,4.00781 C0.554688,2.89844 0,1.5625 0,0 C0,-1.5625 0.554688,-2.89844 1.66406,-4.00781 C2.77344,-5.11719 4.10938,-5.67188 5.67188,-5.67188 C7.23438,-5.67188 8.56771,-5.11719 9.67188,-4.00781 C10.776,-2.89844 11.3281,-1.5625 11.3281,0 C11.3281,1.5625 10.776,2.89844 9.67188,4.00781 C8.56771,5.11719 7.23438,5.67188 5.67188,5.67188 C4.10938,5.67188 2.77344,5.11719 1.66406,4.00781"/>
</svg>
