<?xml version="1.0" encoding="UTF-8" standalone="no"?>
<svg width="2977.23px" height="4208.45px" viewBox="0 0 2977.23 4208.45"
 xmlns="http://www.w3.org/2000/svg" xmlns:xlink="http://www.w3.org/1999/xlink" version="1.2" baseProfile="tiny">
<title>Bun_ii_vinul_ghiurgiuliu</title>
<desc>Generated by MuseScore 3.0.2</desc>
<polyline class="StaffLines" fill="none" stroke="#000000" stroke-width="1.77" stroke-linejoin="bevel" points="141.732,518.57 2835.49,518.57"/>
<polyline class="StaffLines" fill="none" stroke="#000000" stroke-width="1.77" stroke-linejoin="bevel" points="141.732,540.737 2835.49,540.737"/>
<polyline class="StaffLines" fill="none" stroke="#000000" stroke-width="1.77" stroke-linejoin="bevel" points="141.732,562.904 2835.49,562.904"/>
<polyline class="StaffLines" fill="none" stroke="#000000" stroke-width="1.77" stroke-linejoin="bevel" points="141.732,585.071 2835.49,585.071"/>
<polyline class="StaffLines" fill="none" stroke="#000000" stroke-width="1.77" stroke-linejoin="bevel" points="141.732,607.238 2835.49,607.238"/>
<polyline class="StaffLines" fill="none" stroke="#000000" stroke-width="1.77" stroke-linejoin="bevel" points="141.732,939.742 2835.49,939.742"/>
<polyline class="StaffLines" fill="none" stroke="#000000" stroke-width="1.77" stroke-linejoin="bevel" points="141.732,961.909 2835.49,961.909"/>
<polyline class="StaffLines" fill="none" stroke="#000000" stroke-width="1.77" stroke-linejoin="bevel" points="141.732,984.076 2835.49,984.076"/>
<polyline class="StaffLines" fill="none" stroke="#000000" stroke-width="1.77" stroke-linejoin="bevel" points="141.732,1006.24 2835.49,1006.24"/>
<polyline class="StaffLines" fill="none" stroke="#000000" stroke-width="1.77" stroke-linejoin="bevel" points="141.732,1028.41 2835.49,1028.41"/>
<path class="Text" d="M1005.53,258.411 C1005.53,260.817 1005.09,263.184 1004.21,265.512 C1003.33,267.84 1001.87,270.145 999.826,272.426 C997.784,274.708 994.764,276.551 990.764,277.958 C986.764,279.364 982.003,280.067 976.482,280.067 L936.404,280.067 L936.404,277.786 C941.362,277.629 944.521,276.911 945.881,275.629 C947.24,274.348 947.92,271.468 947.92,266.989 L947.92,213.739 C947.92,209.333 947.261,206.51 945.943,205.27 C944.625,204.03 941.446,203.244 936.404,202.911 L936.404,200.629 L970.014,200.629 C990.972,200.629 1001.45,207.489 1001.45,221.208 C1001.45,223.843 1000.97,226.181 1000.01,228.223 C999.042,230.265 998.06,231.825 997.06,232.903 C996.06,233.981 994.521,234.999 992.443,235.958 C990.365,236.916 989.045,237.455 988.482,237.575 C987.92,237.694 986.758,237.984 984.998,238.442 C986.842,238.911 988.224,239.265 989.146,239.504 C990.068,239.744 991.748,240.418 994.185,241.528 C996.623,242.637 998.521,243.827 999.881,245.098 C1001.24,246.369 1002.52,248.171 1003.72,250.504 C1004.93,252.838 1005.53,255.473 1005.53,258.411 M967.732,275.504 C971.326,275.504 974.443,275.265 977.084,274.786 C979.724,274.306 982.204,273.489 984.521,272.333 C986.839,271.176 988.62,269.444 989.865,267.137 C991.11,264.83 991.732,261.958 991.732,258.52 C991.732,255.26 991.11,252.491 989.865,250.215 C988.62,247.939 987.12,246.205 985.365,245.012 C983.61,243.819 981.172,242.903 978.053,242.262 C974.933,241.622 972.172,241.241 969.771,241.122 C967.37,241.002 964.17,240.942 960.17,240.942 L960.17,270.598 C960.17,272.515 960.688,273.812 961.724,274.489 C962.761,275.166 964.764,275.504 967.732,275.504 M960.17,236.395 L971.56,236.395 C977.165,236.395 981.506,235.129 984.584,232.598 C987.662,230.067 989.201,226.431 989.201,221.692 C989.201,216.306 987.402,212.21 983.803,209.403 C980.204,206.596 974.967,205.192 968.092,205.192 L962.81,205.192 C961.05,205.192 960.17,206.395 960.17,208.801 L960.17,236.395 M1068.2,273.833 L1068.2,275.504 C1061.96,277.265 1056.48,279.145 1051.76,281.145 L1051.28,280.895 L1051.28,270.723 C1051.04,270.963 1050.34,271.679 1049.19,272.872 C1048.03,274.064 1047.21,274.89 1046.73,275.348 C1046.25,275.806 1045.43,276.512 1044.27,277.465 C1043.11,278.418 1042.09,279.103 1041.21,279.52 C1040.33,279.937 1039.21,280.333 1037.85,280.708 C1036.49,281.083 1035.13,281.27 1033.76,281.27 C1029.37,281.27 1025.85,279.833 1023.21,276.958 C1020.57,274.083 1019.25,270.254 1019.25,265.473 L1019.25,235.395 C1019.25,232.603 1018.73,230.671 1017.69,229.598 C1016.64,228.525 1014.69,227.911 1011.81,227.754 L1011.81,226.067 L1029.33,226.067 L1029.33,264.989 C1029.33,267.458 1030.17,269.588 1031.85,271.379 C1033.53,273.171 1035.53,274.067 1037.84,274.067 C1038.73,274.067 1039.77,273.947 1040.97,273.708 C1042.16,273.468 1043.54,273.01 1045.11,272.333 C1046.67,271.655 1047.99,270.583 1049.07,269.114 C1050.15,267.645 1050.69,265.833 1050.69,263.676 L1050.69,235.629 C1050.69,232.681 1050.15,230.731 1049.07,229.778 C1047.99,228.825 1045.57,228.27 1041.81,228.114 L1041.81,226.067 L1060.76,226.067 L1060.76,267.02 C1060.76,269.812 1061.2,271.645 1062.08,272.52 C1062.96,273.395 1064.81,273.833 1067.61,273.833 L1068.2,273.833 M1070.81,232.192 L1070.81,230.145 C1076.73,228.426 1082.25,226.666 1087.37,224.864 L1088.2,225.098 L1088.2,234.473 C1092.28,230.681 1095.51,228.132 1097.87,226.825 C1100.22,225.517 1102.81,224.864 1105.61,224.864 C1110,224.864 1113.46,226.437 1115.98,229.583 C1118.5,232.728 1119.76,237.124 1119.76,242.77 L1119.76,270.333 C1119.76,273.291 1120.24,275.273 1121.2,276.278 C1122.16,277.283 1124.12,277.947 1127.09,278.27 L1127.09,280.067 L1102.12,280.067 L1102.12,278.27 C1105.16,278.03 1107.19,277.228 1108.19,275.864 C1109.19,274.499 1109.69,271.931 1109.69,268.161 L1109.69,243.02 C1109.69,235.239 1106.76,231.348 1100.92,231.348 C1098.92,231.348 1097.08,231.809 1095.4,232.731 C1093.73,233.653 1091.45,235.478 1088.56,238.208 L1088.56,272.004 C1088.56,274.171 1089.12,275.697 1090.24,276.583 C1091.36,277.468 1093.44,278.03 1096.48,278.27 L1096.48,280.067 L1071.04,280.067 L1071.04,278.27 C1074.09,278.03 1076.09,277.327 1077.04,276.161 C1078,274.994 1078.48,272.687 1078.48,269.239 L1078.48,239.411 C1078.48,236.442 1078.16,234.416 1077.52,233.333 C1076.88,232.249 1075.72,231.708 1074.04,231.708 C1072.52,231.708 1071.45,231.869 1070.81,232.192 M1166.04,232.911 C1164.28,232.911 1162.61,233.03 1161.01,233.27 L1161.01,231.473 C1166.61,229.869 1172.81,227.666 1179.61,224.864 L1180.09,225.223 L1180.09,267.833 C1180.09,272.145 1180.59,274.882 1181.59,276.043 C1182.59,277.205 1185.05,277.947 1188.97,278.27 L1188.97,280.067 L1160.53,280.067 L1160.53,278.27 C1164.69,278.03 1167.31,277.309 1168.39,276.106 C1169.47,274.903 1170.01,272.145 1170.01,267.833 L1170.01,239.989 C1170.01,237.353 1169.71,235.515 1169.11,234.473 C1168.5,233.431 1167.48,232.911 1166.04,232.911 M1173.97,198.114 C1175.73,198.114 1177.21,198.713 1178.4,199.911 C1179.6,201.109 1180.2,202.546 1180.2,204.223 C1180.2,205.984 1179.6,207.444 1178.4,208.606 C1177.21,209.767 1175.73,210.348 1173.97,210.348 C1172.29,210.348 1170.87,209.749 1169.71,208.551 C1168.55,207.353 1167.97,205.913 1167.97,204.231 C1167.97,202.549 1168.57,201.109 1169.76,199.911 C1170.96,198.713 1172.36,198.114 1173.97,198.114 M1199.04,232.911 C1197.28,232.911 1195.61,233.03 1194.01,233.27 L1194.01,231.473 C1199.61,229.869 1205.81,227.666 1212.61,224.864 L1213.09,225.223 L1213.09,267.833 C1213.09,272.145 1213.59,274.882 1214.59,276.043 C1215.59,277.205 1218.05,277.947 1221.97,278.27 L1221.97,280.067 L1193.53,280.067 L1193.53,278.27 C1197.69,278.03 1200.31,277.309 1201.39,276.106 C1202.47,274.903 1203.01,272.145 1203.01,267.833 L1203.01,239.989 C1203.01,237.353 1202.71,235.515 1202.11,234.473 C1201.5,233.431 1200.48,232.911 1199.04,232.911 M1206.97,198.114 C1208.73,198.114 1210.21,198.713 1211.4,199.911 C1212.6,201.109 1213.2,202.546 1213.2,204.223 C1213.2,205.984 1212.6,207.444 1211.4,208.606 C1210.21,209.767 1208.73,210.348 1206.97,210.348 C1205.29,210.348 1203.87,209.749 1202.71,208.551 C1201.55,207.353 1200.97,205.913 1200.97,204.231 C1200.97,202.549 1201.57,201.109 1202.76,199.911 C1203.96,198.713 1205.36,198.114 1206.97,198.114 M1310.17,226.067 L1310.17,227.864 C1308.33,228.03 1306.96,228.632 1306.08,229.668 C1305.2,230.705 1303.97,233.223 1302.37,237.223 L1287.01,275.754 C1285.41,279.754 1284.28,281.754 1283.64,281.754 C1282.76,281.754 1281.73,279.874 1280.53,276.114 L1266.12,241.661 C1263.57,235.504 1261.69,231.708 1260.49,230.27 C1259.29,228.833 1257.52,228.03 1255.2,227.864 L1255.2,226.067 L1278.73,226.067 L1278.73,227.864 C1276.65,228.03 1275.21,228.353 1274.4,228.833 C1273.6,229.312 1273.2,230.109 1273.2,231.223 C1273.2,232.504 1273.56,233.989 1274.28,235.676 L1286.53,266.395 L1298.4,235.301 C1298.88,234.103 1299.12,232.905 1299.12,231.708 C1299.12,229.468 1297.24,228.187 1293.48,227.864 L1293.48,226.067 L1310.17,226.067 M1318.04,232.911 C1316.28,232.911 1314.61,233.03 1313.01,233.27 L1313.01,231.473 C1318.61,229.869 1324.81,227.666 1331.61,224.864 L1332.09,225.223 L1332.09,267.833 C1332.09,272.145 1332.59,274.882 1333.59,276.043 C1334.59,277.205 1337.05,277.947 1340.97,278.27 L1340.97,280.067 L1312.53,280.067 L1312.53,278.27 C1316.69,278.03 1319.31,277.309 1320.39,276.106 C1321.47,274.903 1322.01,272.145 1322.01,267.833 L1322.01,239.989 C1322.01,237.353 1321.71,235.515 1321.11,234.473 C1320.5,233.431 1319.48,232.911 1318.04,232.911 M1325.97,198.114 C1327.73,198.114 1329.21,198.713 1330.4,199.911 C1331.6,201.109 1332.2,202.546 1332.2,204.223 C1332.2,205.984 1331.6,207.444 1330.4,208.606 C1329.21,209.767 1327.73,210.348 1325.97,210.348 C1324.29,210.348 1322.87,209.749 1321.71,208.551 C1320.55,207.353 1319.97,205.913 1319.97,204.231 C1319.97,202.549 1320.57,201.109 1321.76,199.911 C1322.96,198.713 1324.36,198.114 1325.97,198.114 M1344.81,232.192 L1344.81,230.145 C1350.73,228.426 1356.25,226.666 1361.37,224.864 L1362.2,225.098 L1362.2,234.473 C1366.28,230.681 1369.51,228.132 1371.87,226.825 C1374.22,225.517 1376.81,224.864 1379.61,224.864 C1384,224.864 1387.46,226.437 1389.98,229.583 C1392.5,232.728 1393.76,237.124 1393.76,242.77 L1393.76,270.333 C1393.76,273.291 1394.24,275.273 1395.2,276.278 C1396.16,277.283 1398.12,277.947 1401.09,278.27 L1401.09,280.067 L1376.12,280.067 L1376.12,278.27 C1379.16,278.03 1381.19,277.228 1382.19,275.864 C1383.19,274.499 1383.69,271.931 1383.69,268.161 L1383.69,243.02 C1383.69,235.239 1380.76,231.348 1374.92,231.348 C1372.92,231.348 1371.08,231.809 1369.4,232.731 C1367.73,233.653 1365.45,235.478 1362.56,238.208 L1362.56,272.004 C1362.56,274.171 1363.12,275.697 1364.24,276.583 C1365.36,277.468 1367.44,278.03 1370.48,278.27 L1370.48,280.067 L1345.04,280.067 L1345.04,278.27 C1348.09,278.03 1350.09,277.327 1351.04,276.161 C1352,274.994 1352.48,272.687 1352.48,269.239 L1352.48,239.411 C1352.48,236.442 1352.16,234.416 1351.52,233.333 C1350.88,232.249 1349.72,231.708 1348.04,231.708 C1346.52,231.708 1345.45,231.869 1344.81,232.192 M1460.2,273.833 L1460.2,275.504 C1453.96,277.265 1448.48,279.145 1443.76,281.145 L1443.28,280.895 L1443.28,270.723 C1443.04,270.963 1442.34,271.679 1441.19,272.872 C1440.03,274.064 1439.21,274.89 1438.73,275.348 C1438.25,275.806 1437.43,276.512 1436.27,277.465 C1435.11,278.418 1434.09,279.103 1433.21,279.52 C1432.33,279.937 1431.21,280.333 1429.85,280.708 C1428.49,281.083 1427.13,281.27 1425.76,281.27 C1421.37,281.27 1417.85,279.833 1415.21,276.958 C1412.57,274.083 1411.25,270.254 1411.25,265.473 L1411.25,235.395 C1411.25,232.603 1410.73,230.671 1409.69,229.598 C1408.64,228.525 1406.69,227.911 1403.81,227.754 L1403.81,226.067 L1421.33,226.067 L1421.33,264.989 C1421.33,267.458 1422.17,269.588 1423.85,271.379 C1425.53,273.171 1427.53,274.067 1429.84,274.067 C1430.73,274.067 1431.77,273.947 1432.97,273.708 C1434.16,273.468 1435.54,273.01 1437.11,272.333 C1438.67,271.655 1439.99,270.583 1441.07,269.114 C1442.15,267.645 1442.69,265.833 1442.69,263.676 L1442.69,235.629 C1442.69,232.681 1442.15,230.731 1441.07,229.778 C1439.99,228.825 1437.57,228.27 1433.81,228.114 L1433.81,226.067 L1452.76,226.067 L1452.76,267.02 C1452.76,269.812 1453.2,271.645 1454.08,272.52 C1454.96,273.395 1456.81,273.833 1459.61,273.833 L1460.2,273.833 M1462.81,205.317 L1462.81,203.395 C1470.73,201.468 1477.09,199.708 1481.89,198.114 L1482.37,198.348 L1482.37,269.989 C1482.37,273.27 1482.91,275.411 1483.99,276.411 C1485.07,277.411 1487.53,278.03 1491.37,278.27 L1491.37,280.067 L1463.04,280.067 L1463.04,278.27 C1466.81,277.947 1469.28,277.226 1470.48,276.106 C1471.68,274.986 1472.28,272.827 1472.28,269.629 L1472.28,212.395 C1472.28,209.593 1471.92,207.671 1471.2,206.629 C1470.48,205.588 1469.16,205.067 1467.25,205.067 C1465.64,205.067 1464.16,205.15 1462.81,205.317 M1529.81,273.583 C1529.81,272.062 1530.35,270.663 1531.43,269.387 C1532.51,268.111 1535.52,265.15 1540.48,260.504 C1536.48,258.494 1533.62,256.244 1531.9,253.754 C1530.19,251.265 1529.33,248.135 1529.33,244.364 C1529.33,238.937 1531.27,234.33 1535.15,230.543 C1539.03,226.757 1543.77,224.864 1549.37,224.864 C1552.49,224.864 1555.83,225.525 1559.39,226.848 C1562.95,228.171 1565.89,228.833 1568.2,228.833 L1577.45,228.833 L1577.45,233.395 L1567.48,233.395 C1569,236.843 1569.76,240.218 1569.76,243.52 C1569.76,249.062 1567.9,253.559 1564.19,257.012 C1560.47,260.465 1556.09,262.192 1551.04,262.192 C1550.09,262.192 1547.81,261.989 1544.2,261.583 C1542.61,262.062 1541.01,263.142 1539.41,264.825 C1537.81,266.507 1537.01,267.947 1537.01,269.145 C1537.01,271.062 1540.13,272.14 1546.37,272.379 L1561.84,273.114 C1566.25,273.27 1569.77,274.507 1572.41,276.825 C1575.05,279.142 1576.37,282.181 1576.37,285.942 C1576.37,291.702 1573.07,296.523 1566.47,300.403 C1559.86,304.283 1552.76,306.223 1545.17,306.223 C1539.49,306.223 1534.61,305.083 1530.53,302.801 C1526.45,300.52 1524.4,297.78 1524.4,294.583 C1524.4,292.343 1525.31,290.124 1527.11,287.926 C1528.91,285.728 1531.93,283.067 1536.17,279.942 C1533.69,278.744 1532.01,277.705 1531.13,276.825 C1530.25,275.944 1529.81,274.864 1529.81,273.583 M1538.69,280.301 C1536.21,283.27 1534.61,285.392 1533.89,286.668 C1533.17,287.944 1532.81,289.265 1532.81,290.629 C1532.81,293.265 1534.41,295.382 1537.61,296.981 C1540.81,298.58 1545.04,299.379 1550.33,299.379 C1557.13,299.379 1562.61,298.301 1566.76,296.145 C1570.92,293.989 1573,291.192 1573,287.754 C1573,285.588 1571.88,284.064 1569.64,283.184 C1567.4,282.304 1563.56,281.864 1558.12,281.864 C1550.05,281.864 1543.57,281.343 1538.69,280.301 M1560.53,248.223 C1560.53,246.879 1560.37,245.262 1560.04,243.372 C1559.72,241.481 1559.16,239.333 1558.37,236.926 C1557.57,234.52 1556.29,232.51 1554.53,230.895 C1552.77,229.28 1550.65,228.473 1548.17,228.473 C1545.37,228.473 1543.19,229.442 1541.62,231.379 C1540.06,233.317 1539.28,235.994 1539.28,239.411 C1539.28,246.327 1540.56,251.353 1543.12,254.489 C1545.69,257.624 1548.49,259.192 1551.53,259.192 C1554.33,259.192 1556.53,258.208 1558.13,256.239 C1559.73,254.27 1560.53,251.598 1560.53,248.223 M1597.56,238.911 L1597.56,267.833 C1597.56,271.989 1598.04,274.666 1599.01,275.864 C1599.97,277.062 1602.21,277.864 1605.73,278.27 L1605.73,280.067 L1579.81,280.067 L1579.81,278.27 C1583.25,277.791 1585.39,276.991 1586.22,275.872 C1587.06,274.752 1587.48,272.072 1587.48,267.833 L1587.48,211.317 C1587.48,208.754 1587.14,207.072 1586.47,206.27 C1585.79,205.468 1584.29,205.067 1581.97,205.067 C1581.4,205.067 1580.72,205.15 1579.92,205.317 L1579.92,203.395 C1585.61,201.874 1591.29,200.114 1596.97,198.114 L1597.56,198.473 L1597.56,234.942 C1600.29,231.348 1603.03,228.77 1605.79,227.208 C1608.54,225.645 1611.68,224.864 1615.2,224.864 C1625.04,224.864 1629.97,231.223 1629.97,243.942 L1629.97,267.833 C1629.97,271.989 1630.35,274.606 1631.11,275.684 C1631.87,276.762 1633.89,277.624 1637.17,278.27 L1637.17,280.067 L1611.73,280.067 L1611.73,278.27 C1615.17,277.947 1617.39,277.145 1618.39,275.864 C1619.39,274.583 1619.89,271.905 1619.89,267.833 L1619.89,244.067 C1619.89,235.588 1616.89,231.348 1610.89,231.348 C1608.57,231.348 1606.38,231.929 1604.34,233.09 C1602.3,234.252 1600.04,236.192 1597.56,238.911 M1646.04,232.911 C1644.28,232.911 1642.61,233.03 1641.01,233.27 L1641.01,231.473 C1646.61,229.869 1652.81,227.666 1659.61,224.864 L1660.09,225.223 L1660.09,267.833 C1660.09,272.145 1660.59,274.882 1661.59,276.043 C1662.59,277.205 1665.05,277.947 1668.97,278.27 L1668.97,280.067 L1640.53,280.067 L1640.53,278.27 C1644.69,278.03 1647.31,277.309 1648.39,276.106 C1649.47,274.903 1650.01,272.145 1650.01,267.833 L1650.01,239.989 C1650.01,237.353 1649.71,235.515 1649.11,234.473 C1648.5,233.431 1647.48,232.911 1646.04,232.911 M1653.97,198.114 C1655.73,198.114 1657.21,198.713 1658.4,199.911 C1659.6,201.109 1660.2,202.546 1660.2,204.223 C1660.2,205.984 1659.6,207.444 1658.4,208.606 C1657.21,209.767 1655.73,210.348 1653.97,210.348 C1652.29,210.348 1650.87,209.749 1649.71,208.551 C1648.55,207.353 1647.97,205.913 1647.97,204.231 C1647.97,202.549 1648.57,201.109 1649.76,199.911 C1650.96,198.713 1652.36,198.114 1653.97,198.114 M1729.2,273.833 L1729.2,275.504 C1722.96,277.265 1717.48,279.145 1712.76,281.145 L1712.28,280.895 L1712.28,270.723 C1712.04,270.963 1711.34,271.679 1710.19,272.872 C1709.03,274.064 1708.21,274.89 1707.73,275.348 C1707.25,275.806 1706.43,276.512 1705.27,277.465 C1704.11,278.418 1703.09,279.103 1702.21,279.52 C1701.33,279.937 1700.21,280.333 1698.85,280.708 C1697.49,281.083 1696.13,281.27 1694.76,281.27 C1690.37,281.27 1686.85,279.833 1684.21,276.958 C1681.57,274.083 1680.25,270.254 1680.25,265.473 L1680.25,235.395 C1680.25,232.603 1679.73,230.671 1678.69,229.598 C1677.64,228.525 1675.69,227.911 1672.81,227.754 L1672.81,226.067 L1690.33,226.067 L1690.33,264.989 C1690.33,267.458 1691.17,269.588 1692.85,271.379 C1694.53,273.171 1696.53,274.067 1698.84,274.067 C1699.73,274.067 1700.77,273.947 1701.97,273.708 C1703.16,273.468 1704.54,273.01 1706.11,272.333 C1707.67,271.655 1708.99,270.583 1710.07,269.114 C1711.15,267.645 1711.69,265.833 1711.69,263.676 L1711.69,235.629 C1711.69,232.681 1711.15,230.731 1710.07,229.778 C1708.99,228.825 1706.57,228.27 1702.81,228.114 L1702.81,226.067 L1721.76,226.067 L1721.76,267.02 C1721.76,269.812 1722.2,271.645 1723.08,272.52 C1723.96,273.395 1725.81,273.833 1728.61,273.833 L1729.2,273.833 M1766.73,236.629 C1765.52,236.629 1764.04,235.929 1762.28,234.528 C1760.52,233.127 1759.36,232.426 1758.81,232.426 C1757.21,232.426 1755.4,233.588 1753.4,235.911 C1751.4,238.234 1750.4,240.353 1750.4,242.27 L1750.4,269.27 C1750.4,272.708 1751.08,275.025 1752.44,276.223 C1753.8,277.421 1756.52,278.103 1760.61,278.27 L1760.61,280.067 L1731.81,280.067 L1731.81,278.27 C1735.64,277.551 1738.02,276.752 1738.94,275.872 C1739.87,274.991 1740.33,273.03 1740.33,269.989 L1740.33,239.989 C1740.33,237.353 1740.03,235.494 1739.43,234.411 C1738.83,233.327 1737.77,232.786 1736.25,232.786 C1734.97,232.786 1733.57,232.947 1732.04,233.27 L1732.04,231.348 C1738.45,229.265 1744.37,227.103 1749.81,224.864 L1750.4,225.114 L1750.4,236.145 C1753.36,231.905 1755.88,228.965 1757.97,227.325 C1760.05,225.684 1762.33,224.864 1764.81,224.864 C1766.88,224.864 1768.5,225.424 1769.66,226.543 C1770.82,227.663 1771.4,229.223 1771.4,231.223 C1771.4,232.911 1770.98,234.234 1770.15,235.192 C1769.31,236.15 1768.17,236.629 1766.73,236.629 M1778.81,273.583 C1778.81,272.062 1779.35,270.663 1780.43,269.387 C1781.51,268.111 1784.52,265.15 1789.48,260.504 C1785.48,258.494 1782.62,256.244 1780.9,253.754 C1779.19,251.265 1778.33,248.135 1778.33,244.364 C1778.33,238.937 1780.27,234.33 1784.15,230.543 C1788.03,226.757 1792.77,224.864 1798.37,224.864 C1801.49,224.864 1804.83,225.525 1808.39,226.848 C1811.95,228.171 1814.89,228.833 1817.2,228.833 L1826.45,228.833 L1826.45,233.395 L1816.48,233.395 C1818,236.843 1818.76,240.218 1818.76,243.52 C1818.76,249.062 1816.9,253.559 1813.19,257.012 C1809.47,260.465 1805.09,262.192 1800.04,262.192 C1799.09,262.192 1796.81,261.989 1793.2,261.583 C1791.61,262.062 1790.01,263.142 1788.41,264.825 C1786.81,266.507 1786.01,267.947 1786.01,269.145 C1786.01,271.062 1789.13,272.14 1795.37,272.379 L1810.84,273.114 C1815.25,273.27 1818.77,274.507 1821.41,276.825 C1824.05,279.142 1825.37,282.181 1825.37,285.942 C1825.37,291.702 1822.07,296.523 1815.47,300.403 C1808.86,304.283 1801.76,306.223 1794.17,306.223 C1788.49,306.223 1783.61,305.083 1779.53,302.801 C1775.45,300.52 1773.4,297.78 1773.4,294.583 C1773.4,292.343 1774.31,290.124 1776.11,287.926 C1777.91,285.728 1780.93,283.067 1785.17,279.942 C1782.69,278.744 1781.01,277.705 1780.13,276.825 C1779.25,275.944 1778.81,274.864 1778.81,273.583 M1787.69,280.301 C1785.21,283.27 1783.61,285.392 1782.89,286.668 C1782.17,287.944 1781.81,289.265 1781.81,290.629 C1781.81,293.265 1783.41,295.382 1786.61,296.981 C1789.81,298.58 1794.04,299.379 1799.33,299.379 C1806.13,299.379 1811.61,298.301 1815.76,296.145 C1819.92,293.989 1822,291.192 1822,287.754 C1822,285.588 1820.88,284.064 1818.64,283.184 C1816.4,282.304 1812.56,281.864 1807.12,281.864 C1799.05,281.864 1792.57,281.343 1787.69,280.301 M1809.53,248.223 C1809.53,246.879 1809.37,245.262 1809.04,243.372 C1808.72,241.481 1808.16,239.333 1807.37,236.926 C1806.57,234.52 1805.29,232.51 1803.53,230.895 C1801.77,229.28 1799.65,228.473 1797.17,228.473 C1794.37,228.473 1792.19,229.442 1790.62,231.379 C1789.06,233.317 1788.28,235.994 1788.28,239.411 C1788.28,246.327 1789.56,251.353 1792.12,254.489 C1794.69,257.624 1797.49,259.192 1800.53,259.192 C1803.33,259.192 1805.53,258.208 1807.13,256.239 C1808.73,254.27 1809.53,251.598 1809.53,248.223 M1835.04,232.911 C1833.28,232.911 1831.61,233.03 1830.01,233.27 L1830.01,231.473 C1835.61,229.869 1841.81,227.666 1848.61,224.864 L1849.09,225.223 L1849.09,267.833 C1849.09,272.145 1849.59,274.882 1850.59,276.043 C1851.59,277.205 1854.05,277.947 1857.97,278.27 L1857.97,280.067 L1829.53,280.067 L1829.53,278.27 C1833.69,278.03 1836.31,277.309 1837.39,276.106 C1838.47,274.903 1839.01,272.145 1839.01,267.833 L1839.01,239.989 C1839.01,237.353 1838.71,235.515 1838.11,234.473 C1837.5,233.431 1836.48,232.911 1835.04,232.911 M1842.97,198.114 C1844.73,198.114 1846.21,198.713 1847.4,199.911 C1848.6,201.109 1849.2,202.546 1849.2,204.223 C1849.2,205.984 1848.6,207.444 1847.4,208.606 C1846.21,209.767 1844.73,210.348 1842.97,210.348 C1841.29,210.348 1839.87,209.749 1838.71,208.551 C1837.55,207.353 1836.97,205.913 1836.97,204.231 C1836.97,202.549 1837.57,201.109 1838.76,199.911 C1839.96,198.713 1841.36,198.114 1842.97,198.114 M1918.2,273.833 L1918.2,275.504 C1911.96,277.265 1906.48,279.145 1901.76,281.145 L1901.28,280.895 L1901.28,270.723 C1901.04,270.963 1900.34,271.679 1899.19,272.872 C1898.03,274.064 1897.21,274.89 1896.73,275.348 C1896.25,275.806 1895.43,276.512 1894.27,277.465 C1893.11,278.418 1892.09,279.103 1891.21,279.52 C1890.33,279.937 1889.21,280.333 1887.85,280.708 C1886.49,281.083 1885.13,281.27 1883.76,281.27 C1879.37,281.27 1875.85,279.833 1873.21,276.958 C1870.57,274.083 1869.25,270.254 1869.25,265.473 L1869.25,235.395 C1869.25,232.603 1868.73,230.671 1867.69,229.598 C1866.64,228.525 1864.69,227.911 1861.81,227.754 L1861.81,226.067 L1879.33,226.067 L1879.33,264.989 C1879.33,267.458 1880.17,269.588 1881.85,271.379 C1883.53,273.171 1885.53,274.067 1887.84,274.067 C1888.73,274.067 1889.77,273.947 1890.97,273.708 C1892.16,273.468 1893.54,273.01 1895.11,272.333 C1896.67,271.655 1897.99,270.583 1899.07,269.114 C1900.15,267.645 1900.69,265.833 1900.69,263.676 L1900.69,235.629 C1900.69,232.681 1900.15,230.731 1899.07,229.778 C1897.99,228.825 1895.57,228.27 1891.81,228.114 L1891.81,226.067 L1910.76,226.067 L1910.76,267.02 C1910.76,269.812 1911.2,271.645 1912.08,272.52 C1912.96,273.395 1914.81,273.833 1917.61,273.833 L1918.2,273.833 M1920.81,205.317 L1920.81,203.395 C1928.73,201.468 1935.09,199.708 1939.89,198.114 L1940.37,198.348 L1940.37,269.989 C1940.37,273.27 1940.91,275.411 1941.99,276.411 C1943.07,277.411 1945.53,278.03 1949.37,278.27 L1949.37,280.067 L1921.04,280.067 L1921.04,278.27 C1924.81,277.947 1927.28,277.226 1928.48,276.106 C1929.68,274.986 1930.28,272.827 1930.28,269.629 L1930.28,212.395 C1930.28,209.593 1929.92,207.671 1929.2,206.629 C1928.48,205.588 1927.16,205.067 1925.25,205.067 C1923.64,205.067 1922.16,205.15 1920.81,205.317 M1958.04,232.911 C1956.28,232.911 1954.61,233.03 1953.01,233.27 L1953.01,231.473 C1958.61,229.869 1964.81,227.666 1971.61,224.864 L1972.09,225.223 L1972.09,267.833 C1972.09,272.145 1972.59,274.882 1973.59,276.043 C1974.59,277.205 1977.05,277.947 1980.97,278.27 L1980.97,280.067 L1952.53,280.067 L1952.53,278.27 C1956.69,278.03 1959.31,277.309 1960.39,276.106 C1961.47,274.903 1962.01,272.145 1962.01,267.833 L1962.01,239.989 C1962.01,237.353 1961.71,235.515 1961.11,234.473 C1960.5,233.431 1959.48,232.911 1958.04,232.911 M1965.97,198.114 C1967.73,198.114 1969.21,198.713 1970.4,199.911 C1971.6,201.109 1972.2,202.546 1972.2,204.223 C1972.2,205.984 1971.6,207.444 1970.4,208.606 C1969.21,209.767 1967.73,210.348 1965.97,210.348 C1964.29,210.348 1962.87,209.749 1961.71,208.551 C1960.55,207.353 1959.97,205.913 1959.97,204.231 C1959.97,202.549 1960.57,201.109 1961.76,199.911 C1962.96,198.713 1964.36,198.114 1965.97,198.114 M2041.2,273.833 L2041.2,275.504 C2034.96,277.265 2029.48,279.145 2024.76,281.145 L2024.28,280.895 L2024.28,270.723 C2024.04,270.963 2023.34,271.679 2022.19,272.872 C2021.03,274.064 2020.21,274.89 2019.73,275.348 C2019.25,275.806 2018.43,276.512 2017.27,277.465 C2016.11,278.418 2015.09,279.103 2014.21,279.52 C2013.33,279.937 2012.21,280.333 2010.85,280.708 C2009.49,281.083 2008.13,281.27 2006.76,281.27 C2002.37,281.27 1998.85,279.833 1996.21,276.958 C1993.57,274.083 1992.25,270.254 1992.25,265.473 L1992.25,235.395 C1992.25,232.603 1991.73,230.671 1990.69,229.598 C1989.64,228.525 1987.69,227.911 1984.81,227.754 L1984.81,226.067 L2002.33,226.067 L2002.33,264.989 C2002.33,267.458 2003.17,269.588 2004.85,271.379 C2006.53,273.171 2008.53,274.067 2010.84,274.067 C2011.73,274.067 2012.77,273.947 2013.97,273.708 C2015.16,273.468 2016.54,273.01 2018.11,272.333 C2019.67,271.655 2020.99,270.583 2022.07,269.114 C2023.15,267.645 2023.69,265.833 2023.69,263.676 L2023.69,235.629 C2023.69,232.681 2023.15,230.731 2022.07,229.778 C2020.99,228.825 2018.57,228.27 2014.81,228.114 L2014.81,226.067 L2033.76,226.067 L2033.76,267.02 C2033.76,269.812 2034.2,271.645 2035.08,272.52 C2035.96,273.395 2037.81,273.833 2040.61,273.833 L2041.2,273.833 "/>
<path class="MeasureNumber" d="M141.763,895.892 C139.409,895.892 137.513,894.952 136.076,893.072 C134.638,891.192 133.92,888.71 133.92,885.627 C133.92,884.668 134.013,883.681 134.201,882.666 C134.388,881.65 134.797,880.496 135.428,879.205 C136.058,877.913 136.875,876.754 137.881,875.728 C138.886,874.702 140.292,873.788 142.099,872.986 C143.907,872.184 145.987,871.679 148.342,871.47 L148.42,872.033 C145.659,872.47 143.357,873.582 141.513,875.369 C139.67,877.155 138.519,879.366 138.06,882.002 C139.154,881.377 139.98,880.97 140.537,880.783 C141.094,880.595 141.758,880.502 142.529,880.502 C144.54,880.502 146.138,881.15 147.326,882.447 C148.513,883.744 149.107,885.496 149.107,887.705 C149.107,890.121 148.425,892.09 147.06,893.611 C145.696,895.132 143.93,895.892 141.763,895.892 M141.201,882.033 C139.618,882.033 138.553,882.382 138.006,883.08 C137.459,883.778 137.185,884.809 137.185,886.173 C137.185,888.871 137.628,890.991 138.513,892.533 C139.399,894.075 140.612,894.845 142.154,894.845 C143.383,894.845 144.326,894.33 144.982,893.298 C145.638,892.267 145.967,890.798 145.967,888.892 C145.967,886.715 145.553,885.028 144.724,883.83 C143.896,882.632 142.722,882.033 141.201,882.033"/>
<path class="SlurSegment" stroke="#000000" stroke-width="1.55" stroke-linecap="round" stroke-linejoin="round" fill-rule="evenodd" d="M1079.74,593.938 C1106.06,624.48 1164,630.022 1195.63,605.021 C1163.67,633.553 1105.72,628.011 1079.74,593.938"/>
<path class="BarLine" transform="matrix(0.886677,0,0,0.886677,2795.91,984.076)" d="M1.66406,-8.5 C0.554688,-9.60417 0,-10.9375 0,-12.5 C0,-14.0625 0.554688,-15.3984 1.66406,-16.5078 C2.77344,-17.6172 4.10938,-18.1719 5.67188,-18.1719 C7.23438,-18.1719 8.56771,-17.6172 9.67188,-16.5078 C10.776,-15.3984 11.3281,-14.0625 11.3281,-12.5 C11.3281,-10.9375 10.776,-9.60417 9.67188,-8.5 C8.56771,-7.39583 7.23438,-6.84375 5.67188,-6.84375 C4.10938,-6.84375 2.77344,-7.39583 1.66406,-8.5"/>
<path class="BarLine" transform="matrix(0.886677,0,0,0.886677,2795.91,1006.24)" d="M1.66406,-8.5 C0.554688,-9.60417 0,-10.9375 0,-12.5 C0,-14.0625 0.554688,-15.3984 1.66406,-16.5078 C2.77344,-17.6172 4.10938,-18.1719 5.67188,-18.1719 C7.23438,-18.1719 8.56771,-17.6172 9.67188,-16.5078 C10.776,-15.3984 11.3281,-14.0625 11.3281,-12.5 C11.3281,-10.9375 10.776,-9.60417 9.67188,-8.5 C8.56771,-7.39583 7.23438,-6.84375 5.67188,-6.84375 C4.10938,-6.84375 2.77344,-7.39583 1.66406,-8.5"/>
<polyline class="BarLine" stroke="#000000" stroke-width="3.55" stroke-linejoin="bevel" points="2814.9,938.855 2814.9,1029.3"/>
<polyline class="BarLine" stroke="#000000" stroke-width="11.08" stroke-linejoin="bevel" points="2829.31,938.855 2829.31,1029.3"/>
<polyline class="BarLine" stroke="#000000" stroke-width="3.55" stroke-linejoin="bevel" points="2160.38,938.855 2160.38,1029.3"/>
<polyline class="BarLine" stroke="#000000" stroke-width="3.55" stroke-linejoin="bevel" points="1509.65,938.855 1509.65,1029.3"/>
<polyline class="BarLine" stroke="#000000" stroke-width="3.55" stroke-linejoin="bevel" points="928.377,938.855 928.377,1029.3"/>
<polyline class="BarLine" stroke="#000000" stroke-width="11.08" stroke-linejoin="bevel" points="286.018,938.855 286.018,1029.3"/>
<polyline class="BarLine" stroke="#000000" stroke-width="3.55" stroke-linejoin="bevel" points="300.427,938.855 300.427,1029.3"/>
<path class="BarLine" transform="matrix(0.886677,0,0,0.886677,309.363,984.076)" d="M1.66406,-8.5 C0.554688,-9.60417 0,-10.9375 0,-12.5 C0,-14.0625 0.554688,-15.3984 1.66406,-16.5078 C2.77344,-17.6172 4.10938,-18.1719 5.67188,-18.1719 C7.23438,-18.1719 8.56771,-17.6172 9.67188,-16.5078 C10.776,-15.3984 11.3281,-14.0625 11.3281,-12.5 C11.3281,-10.9375 10.776,-9.60417 9.67188,-8.5 C8.56771,-7.39583 7.23438,-6.84375 5.67188,-6.84375 C4.10938,-6.84375 2.77344,-7.39583 1.66406,-8.5"/>
<path class="BarLine" transform="matrix(0.886677,0,0,0.886677,309.363,1006.24)" d="M1.66406,-8.5 C0.554688,-9.60417 0,-10.9375 0,-12.5 C0,-14.0625 0.554688,-15.3984 1.66406,-16.5078 C2.77344,-17.6172 4.10938,-18.1719 5.67188,-18.1719 C7.23438,-18.1719 8.56771,-17.6172 9.67188,-16.5078 C10.776,-15.3984 11.3281,-14.0625 11.3281,-12.5 C11.3281,-10.9375 10.776,-9.60417 9.67188,-8.5 C8.56771,-7.39583 7.23438,-6.84375 5.67188,-6.84375 C4.10938,-6.84375 2.77344,-7.39583 1.66406,-8.5"/>
<polyline class="BarLine" stroke="#000000" stroke-width="3.55" stroke-linejoin="bevel" points="2823.52,517.683 2823.52,608.124"/>
<polyline class="BarLine" stroke="#000000" stroke-width="3.55" stroke-linejoin="bevel" points="2833.72,517.683 2833.72,608.124"/>
<path class="BarLine" transform="matrix(0.886677,0,0,0.886677,2279.44,562.904)" d="M1.66406,-8.5 C0.554688,-9.60417 0,-10.9375 0,-12.5 C0,-14.0625 0.554688,-15.3984 1.66406,-16.5078 C2.77344,-17.6172 4.10938,-18.1719 5.67188,-18.1719 C7.23438,-18.1719 8.56771,-17.6172 9.67188,-16.5078 C10.776,-15.3984 11.3281,-14.0625 11.3281,-12.5 C11.3281,-10.9375 10.776,-9.60417 9.67188,-8.5 C8.56771,-7.39583 7.23438,-6.84375 5.67188,-6.84375 C4.10938,-6.84375 2.77344,-7.39583 1.66406,-8.5"/>
<path class="BarLine" transform="matrix(0.886677,0,0,0.886677,2279.44,585.071)" d="M1.66406,-8.5 C0.554688,-9.60417 0,-10.9375 0,-12.5 C0,-14.0625 0.554688,-15.3984 1.66406,-16.5078 C2.77344,-17.6172 4.10938,-18.1719 5.67188,-18.1719 C7.23438,-18.1719 8.56771,-17.6172 9.67188,-16.5078 C10.776,-15.3984 11.3281,-14.0625 11.3281,-12.5 C11.3281,-10.9375 10.776,-9.60417 9.67188,-8.5 C8.56771,-7.39583 7.23438,-6.84375 5.67188,-6.84375 C4.10938,-6.84375 2.77344,-7.39583 1.66406,-8.5"/>
<polyline class="BarLine" stroke="#000000" stroke-width="3.55" stroke-linejoin="bevel" points="2298.43,517.683 2298.43,608.124"/>
<polyline class="BarLine" stroke="#000000" stroke-width="11.08" stroke-linejoin="bevel" points="2312.84,517.683 2312.84,608.124"/>
<polyline class="BarLine" stroke="#000000" stroke-width="3.55" stroke-linejoin="bevel" points="1774.94,517.683 1774.94,608.124"/>
<polyline class="BarLine" stroke="#000000" stroke-width="3.55" stroke-linejoin="bevel" points="1255.25,517.683 1255.25,608.124"/>
<polyline class="BarLine" stroke="#000000" stroke-width="3.55" stroke-linejoin="bevel" points="804.999,517.683 804.999,608.124"/>
<polyline class="Stem" stroke="#000000" stroke-width="2.88" stroke-linecap="round" stroke-linejoin="bevel" points="2624.61,1024.25 2624.61,939.742"/>
<polyline class="Stem" stroke="#000000" stroke-width="2.88" stroke-linecap="round" stroke-linejoin="bevel" points="2522.58,1002.08 2522.58,923.117"/>
<polyline class="Stem" stroke="#000000" stroke-width="2.88" stroke-linecap="round" stroke-linejoin="bevel" points="2420.55,1013.16 2420.55,923.117"/>
<polyline class="Stem" stroke="#000000" stroke-width="2.88" stroke-linecap="round" stroke-linejoin="bevel" points="2318.53,990.996 2318.53,923.117"/>
<polyline class="Stem" stroke="#000000" stroke-width="2.88" stroke-linecap="round" stroke-linejoin="bevel" points="2216.5,1002.08 2216.5,923.117"/>
<polyline class="Stem" stroke="#000000" stroke-width="2.88" stroke-linecap="round" stroke-linejoin="bevel" points="2092.33,1013.16 2092.33,945.283"/>
<polyline class="Stem" stroke="#000000" stroke-width="2.88" stroke-linecap="round" stroke-linejoin="bevel" points="1941.88,1002.08 1941.88,939.742"/>
<polyline class="Stem" stroke="#000000" stroke-width="2.88" stroke-linecap="round" stroke-linejoin="bevel" points="1821.55,999.322 1821.55,1067.2"/>
<polyline class="Stem" stroke="#000000" stroke-width="2.88" stroke-linecap="round" stroke-linejoin="bevel" points="1727.52,988.239 1727.52,1067.2"/>
<polyline class="Stem" stroke="#000000" stroke-width="2.88" stroke-linecap="round" stroke-linejoin="bevel" points="1633.5,977.155 1633.5,1067.2"/>
<polyline class="Stem" stroke="#000000" stroke-width="2.88" stroke-linecap="round" stroke-linejoin="bevel" points="1539.47,999.322 1539.47,1067.2"/>
<polyline class="Stem" stroke="#000000" stroke-width="2.88" stroke-linecap="round" stroke-linejoin="bevel" points="1440.6,1035.33 1440.6,967.45"/>
<polyline class="Stem" stroke="#000000" stroke-width="2.88" stroke-linecap="round" stroke-linejoin="bevel" points="1288.57,1035.33 1288.57,967.45"/>
<polyline class="Stem" stroke="#000000" stroke-width="2.88" stroke-linecap="round" stroke-linejoin="bevel" points="1136.53,990.996 1136.53,934.2"/>
<polyline class="Stem" stroke="#000000" stroke-width="2.88" stroke-linecap="round" stroke-linejoin="bevel" points="984.494,990.996 984.494,934.2"/>
<polyline class="Stem" stroke="#000000" stroke-width="2.88" stroke-linecap="round" stroke-linejoin="bevel" points="859.324,1013.16 859.324,945.283"/>
<polyline class="Stem" stroke="#000000" stroke-width="2.88" stroke-linecap="round" stroke-linejoin="bevel" points="707.288,1002.08 707.288,939.742"/>
<polyline class="Stem" stroke="#000000" stroke-width="2.88" stroke-linecap="round" stroke-linejoin="bevel" points="555.252,990.996 555.252,934.2"/>
<polyline class="Stem" stroke="#000000" stroke-width="2.88" stroke-linecap="round" stroke-linejoin="bevel" points="403.217,990.996 403.217,934.2"/>
<polyline class="Stem" stroke="#000000" stroke-width="2.88" stroke-linecap="round" stroke-linejoin="bevel" points="2693.4,603.075 2693.4,518.57"/>
<polyline class="Stem" stroke="#000000" stroke-width="2.88" stroke-linecap="round" stroke-linejoin="bevel" points="2613.39,580.908 2613.39,501.945"/>
<polyline class="Stem" stroke="#000000" stroke-width="2.88" stroke-linecap="round" stroke-linejoin="bevel" points="2533.38,591.991 2533.38,501.945"/>
<polyline class="Stem" stroke="#000000" stroke-width="2.88" stroke-linecap="round" stroke-linejoin="bevel" points="2453.37,569.824 2453.37,501.945"/>
<polyline class="Stem" stroke="#000000" stroke-width="2.88" stroke-linecap="round" stroke-linejoin="bevel" points="2373.37,580.908 2373.37,501.945"/>
<polyline class="Stem" stroke="#000000" stroke-width="2.88" stroke-linecap="round" stroke-linejoin="bevel" points="2151.09,603.075 2151.09,518.57"/>
<polyline class="Stem" stroke="#000000" stroke-width="2.88" stroke-linecap="round" stroke-linejoin="bevel" points="2071.08,580.908 2071.08,501.945"/>
<polyline class="Stem" stroke="#000000" stroke-width="2.88" stroke-linecap="round" stroke-linejoin="bevel" points="1991.08,591.991 1991.08,501.945"/>
<polyline class="Stem" stroke="#000000" stroke-width="2.88" stroke-linecap="round" stroke-linejoin="bevel" points="1911.07,569.824 1911.07,501.945"/>
<polyline class="Stem" stroke="#000000" stroke-width="2.88" stroke-linecap="round" stroke-linejoin="bevel" points="1831.06,580.908 1831.06,501.945"/>
<polyline class="Stem" stroke="#000000" stroke-width="2.88" stroke-linecap="round" stroke-linejoin="bevel" points="1726.74,591.991 1726.74,524.112"/>
<polyline class="Stem" stroke="#000000" stroke-width="2.88" stroke-linecap="round" stroke-linejoin="bevel" points="1608.06,580.908 1608.06,518.57"/>
<polyline class="Stem" stroke="#000000" stroke-width="2.88" stroke-linecap="round" stroke-linejoin="bevel" points="1507.58,578.151 1507.58,646.03"/>
<polyline class="Stem" stroke="#000000" stroke-width="2.88" stroke-linecap="round" stroke-linejoin="bevel" points="1433.41,567.067 1433.41,646.03"/>
<polyline class="Stem" stroke="#000000" stroke-width="2.88" stroke-linecap="round" stroke-linejoin="bevel" points="1359.23,555.984 1359.23,646.03"/>
<polyline class="Stem" stroke="#000000" stroke-width="2.88" stroke-linecap="round" stroke-linejoin="bevel" points="1285.06,578.151 1285.06,646.03"/>
<polyline class="Stem" stroke="#000000" stroke-width="2.88" stroke-linecap="round" stroke-linejoin="bevel" points="1208.78,580.908 1208.78,501.945"/>
<polyline class="Stem" stroke="#000000" stroke-width="2.88" stroke-linecap="round" stroke-linejoin="bevel" points="1092.9,569.824 1092.9,496.403"/>
<polyline class="Stem" stroke="#000000" stroke-width="2.88" stroke-linecap="round" stroke-linejoin="bevel" points="977.006,569.824 977.006,501.945"/>
<polyline class="Stem" stroke="#000000" stroke-width="2.88" stroke-linecap="round" stroke-linejoin="bevel" points="861.116,558.741 861.116,496.403"/>
<polyline class="Stem" stroke="#000000" stroke-width="2.88" stroke-linecap="round" stroke-linejoin="bevel" points="758.538,569.824 758.538,501.945"/>
<polyline class="Stem" stroke="#000000" stroke-width="2.88" stroke-linecap="round" stroke-linejoin="bevel" points="642.649,558.741 642.649,496.403"/>
<polyline class="Stem" stroke="#000000" stroke-width="2.88" stroke-linecap="round" stroke-linejoin="bevel" points="526.759,558.741 526.759,496.403"/>
<polyline class="Stem" stroke="#000000" stroke-width="2.88" stroke-linecap="round" stroke-linejoin="bevel" points="410.87,603.075 410.87,518.57"/>
<path class="Note" transform="matrix(0.886677,0,0,0.886677,2596.86,1028.41)" d="M21.9688,-13.7656 C25.0938,-13.7656 27.7344,-12.9531 29.8906,-11.3281 C31.901,-9.56771 32.9063,-7.35417 32.9063,-4.6875 C32.9063,-0.197917 30.599,4 25.9844,7.90625 C21.2969,11.8125 16.2813,13.7656 10.9375,13.7656 C7.8125,13.7656 5.17708,12.9531 3.03125,11.3281 C1.01042,9.56771 0,7.35417 0,4.6875 C0,0.197917 2.34375,-4 7.03125,-7.90625 C11.5938,-11.8125 16.5729,-13.7656 21.9688,-13.7656"/>
<path class="Note" transform="matrix(0.886677,0,0,0.886677,2494.84,1006.24)" d="M21.9688,-13.7656 C25.0938,-13.7656 27.7344,-12.9531 29.8906,-11.3281 C31.901,-9.56771 32.9063,-7.35417 32.9063,-4.6875 C32.9063,-0.197917 30.599,4 25.9844,7.90625 C21.2969,11.8125 16.2813,13.7656 10.9375,13.7656 C7.8125,13.7656 5.17708,12.9531 3.03125,11.3281 C1.01042,9.56771 0,7.35417 0,4.6875 C0,0.197917 2.34375,-4 7.03125,-7.90625 C11.5938,-11.8125 16.5729,-13.7656 21.9688,-13.7656"/>
<path class="Note" transform="matrix(0.886677,0,0,0.886677,2392.81,1017.33)" d="M21.9688,-13.7656 C25.0938,-13.7656 27.7344,-12.9531 29.8906,-11.3281 C31.901,-9.56771 32.9063,-7.35417 32.9063,-4.6875 C32.9063,-0.197917 30.599,4 25.9844,7.90625 C21.2969,11.8125 16.2813,13.7656 10.9375,13.7656 C7.8125,13.7656 5.17708,12.9531 3.03125,11.3281 C1.01042,9.56771 0,7.35417 0,4.6875 C0,0.197917 2.34375,-4 7.03125,-7.90625 C11.5938,-11.8125 16.5729,-13.7656 21.9688,-13.7656"/>
<path class="Note" transform="matrix(0.886677,0,0,0.886677,2290.78,995.159)" d="M21.9688,-13.7656 C25.0938,-13.7656 27.7344,-12.9531 29.8906,-11.3281 C31.901,-9.56771 32.9063,-7.35417 32.9063,-4.6875 C32.9063,-0.197917 30.599,4 25.9844,7.90625 C21.2969,11.8125 16.2813,13.7656 10.9375,13.7656 C7.8125,13.7656 5.17708,12.9531 3.03125,11.3281 C1.01042,9.56771 0,7.35417 0,4.6875 C0,0.197917 2.34375,-4 7.03125,-7.90625 C11.5938,-11.8125 16.5729,-13.7656 21.9688,-13.7656"/>
<path class="Note" transform="matrix(0.886677,0,0,0.886677,2188.76,1006.24)" d="M21.9688,-13.7656 C25.0938,-13.7656 27.7344,-12.9531 29.8906,-11.3281 C31.901,-9.56771 32.9063,-7.35417 32.9063,-4.6875 C32.9063,-0.197917 30.599,4 25.9844,7.90625 C21.2969,11.8125 16.2813,13.7656 10.9375,13.7656 C7.8125,13.7656 5.17708,12.9531 3.03125,11.3281 C1.01042,9.56771 0,7.35417 0,4.6875 C0,0.197917 2.34375,-4 7.03125,-7.90625 C11.5938,-11.8125 16.5729,-13.7656 21.9688,-13.7656"/>
<path class="Note" transform="matrix(0.886677,0,0,0.886677,2064.58,1017.33)" d="M21.9688,-13.7656 C25.0938,-13.7656 27.7344,-12.9531 29.8906,-11.3281 C31.901,-9.56771 32.9063,-7.35417 32.9063,-4.6875 C32.9063,-0.197917 30.599,4 25.9844,7.90625 C21.2969,11.8125 16.2813,13.7656 10.9375,13.7656 C7.8125,13.7656 5.17708,12.9531 3.03125,11.3281 C1.01042,9.56771 0,7.35417 0,4.6875 C0,0.197917 2.34375,-4 7.03125,-7.90625 C11.5938,-11.8125 16.5729,-13.7656 21.9688,-13.7656"/>
<path class="Note" transform="matrix(0.886677,0,0,0.886677,1914.14,1006.24)" d="M21.9688,-13.7656 C25.0938,-13.7656 27.7344,-12.9531 29.8906,-11.3281 C31.901,-9.56771 32.9063,-7.35417 32.9063,-4.6875 C32.9063,-0.197917 30.599,4 25.9844,7.90625 C21.2969,11.8125 16.2813,13.7656 10.9375,13.7656 C7.8125,13.7656 5.17708,12.9531 3.03125,11.3281 C1.01042,9.56771 0,7.35417 0,4.6875 C0,0.197917 2.34375,-4 7.03125,-7.90625 C11.5938,-11.8125 16.5729,-13.7656 21.9688,-13.7656"/>
<path class="Note" transform="matrix(0.886677,0,0,0.886677,1820.11,995.159)" d="M21.9688,-13.7656 C25.0938,-13.7656 27.7344,-12.9531 29.8906,-11.3281 C31.901,-9.56771 32.9063,-7.35417 32.9063,-4.6875 C32.9063,-0.197917 30.599,4 25.9844,7.90625 C21.2969,11.8125 16.2813,13.7656 10.9375,13.7656 C7.8125,13.7656 5.17708,12.9531 3.03125,11.3281 C1.01042,9.56771 0,7.35417 0,4.6875 C0,0.197917 2.34375,-4 7.03125,-7.90625 C11.5938,-11.8125 16.5729,-13.7656 21.9688,-13.7656"/>
<path class="Note" transform="matrix(0.886677,0,0,0.886677,1726.08,984.076)" d="M21.9688,-13.7656 C25.0938,-13.7656 27.7344,-12.9531 29.8906,-11.3281 C31.901,-9.56771 32.9063,-7.35417 32.9063,-4.6875 C32.9063,-0.197917 30.599,4 25.9844,7.90625 C21.2969,11.8125 16.2813,13.7656 10.9375,13.7656 C7.8125,13.7656 5.17708,12.9531 3.03125,11.3281 C1.01042,9.56771 0,7.35417 0,4.6875 C0,0.197917 2.34375,-4 7.03125,-7.90625 C11.5938,-11.8125 16.5729,-13.7656 21.9688,-13.7656"/>
<path class="Note" transform="matrix(0.886677,0,0,0.886677,1632.05,972.992)" d="M21.9688,-13.7656 C25.0938,-13.7656 27.7344,-12.9531 29.8906,-11.3281 C31.901,-9.56771 32.9063,-7.35417 32.9063,-4.6875 C32.9063,-0.197917 30.599,4 25.9844,7.90625 C21.2969,11.8125 16.2813,13.7656 10.9375,13.7656 C7.8125,13.7656 5.17708,12.9531 3.03125,11.3281 C1.01042,9.56771 0,7.35417 0,4.6875 C0,0.197917 2.34375,-4 7.03125,-7.90625 C11.5938,-11.8125 16.5729,-13.7656 21.9688,-13.7656"/>
<path class="Note" transform="matrix(0.886677,0,0,0.886677,1538.03,995.159)" d="M21.9688,-13.7656 C25.0938,-13.7656 27.7344,-12.9531 29.8906,-11.3281 C31.901,-9.56771 32.9063,-7.35417 32.9063,-4.6875 C32.9063,-0.197917 30.599,4 25.9844,7.90625 C21.2969,11.8125 16.2813,13.7656 10.9375,13.7656 C7.8125,13.7656 5.17708,12.9531 3.03125,11.3281 C1.01042,9.56771 0,7.35417 0,4.6875 C0,0.197917 2.34375,-4 7.03125,-7.90625 C11.5938,-11.8125 16.5729,-13.7656 21.9688,-13.7656"/>
<path class="Note" transform="matrix(0.886677,0,0,0.886677,1412.86,1039.49)" d="M21.9688,-13.7656 C25.0938,-13.7656 27.7344,-12.9531 29.8906,-11.3281 C31.901,-9.56771 32.9063,-7.35417 32.9063,-4.6875 C32.9063,-0.197917 30.599,4 25.9844,7.90625 C21.2969,11.8125 16.2813,13.7656 10.9375,13.7656 C7.8125,13.7656 5.17708,12.9531 3.03125,11.3281 C1.01042,9.56771 0,7.35417 0,4.6875 C0,0.197917 2.34375,-4 7.03125,-7.90625 C11.5938,-11.8125 16.5729,-13.7656 21.9688,-13.7656"/>
<path class="Note" transform="matrix(0.886677,0,0,0.886677,1260.82,1039.49)" d="M21.9688,-13.7656 C25.0938,-13.7656 27.7344,-12.9531 29.8906,-11.3281 C31.901,-9.56771 32.9063,-7.35417 32.9063,-4.6875 C32.9063,-0.197917 30.599,4 25.9844,7.90625 C21.2969,11.8125 16.2813,13.7656 10.9375,13.7656 C7.8125,13.7656 5.17708,12.9531 3.03125,11.3281 C1.01042,9.56771 0,7.35417 0,4.6875 C0,0.197917 2.34375,-4 7.03125,-7.90625 C11.5938,-11.8125 16.5729,-13.7656 21.9688,-13.7656"/>
<path class="Note" transform="matrix(0.886677,0,0,0.886677,1108.79,995.159)" d="M21.9688,-13.7656 C25.0938,-13.7656 27.7344,-12.9531 29.8906,-11.3281 C31.901,-9.56771 32.9063,-7.35417 32.9063,-4.6875 C32.9063,-0.197917 30.599,4 25.9844,7.90625 C21.2969,11.8125 16.2813,13.7656 10.9375,13.7656 C7.8125,13.7656 5.17708,12.9531 3.03125,11.3281 C1.01042,9.56771 0,7.35417 0,4.6875 C0,0.197917 2.34375,-4 7.03125,-7.90625 C11.5938,-11.8125 16.5729,-13.7656 21.9688,-13.7656"/>
<path class="Note" transform="matrix(0.886677,0,0,0.886677,956.75,995.159)" d="M21.9688,-13.7656 C25.0938,-13.7656 27.7344,-12.9531 29.8906,-11.3281 C31.901,-9.56771 32.9063,-7.35417 32.9063,-4.6875 C32.9063,-0.197917 30.599,4 25.9844,7.90625 C21.2969,11.8125 16.2813,13.7656 10.9375,13.7656 C7.8125,13.7656 5.17708,12.9531 3.03125,11.3281 C1.01042,9.56771 0,7.35417 0,4.6875 C0,0.197917 2.34375,-4 7.03125,-7.90625 C11.5938,-11.8125 16.5729,-13.7656 21.9688,-13.7656"/>
<path class="Note" transform="matrix(0.886677,0,0,0.886677,831.581,1017.33)" d="M21.9688,-13.7656 C25.0938,-13.7656 27.7344,-12.9531 29.8906,-11.3281 C31.901,-9.56771 32.9063,-7.35417 32.9063,-4.6875 C32.9063,-0.197917 30.599,4 25.9844,7.90625 C21.2969,11.8125 16.2813,13.7656 10.9375,13.7656 C7.8125,13.7656 5.17708,12.9531 3.03125,11.3281 C1.01042,9.56771 0,7.35417 0,4.6875 C0,0.197917 2.34375,-4 7.03125,-7.90625 C11.5938,-11.8125 16.5729,-13.7656 21.9688,-13.7656"/>
<path class="Note" transform="matrix(0.886677,0,0,0.886677,679.545,1006.24)" d="M21.9688,-13.7656 C25.0938,-13.7656 27.7344,-12.9531 29.8906,-11.3281 C31.901,-9.56771 32.9063,-7.35417 32.9063,-4.6875 C32.9063,-0.197917 30.599,4 25.9844,7.90625 C21.2969,11.8125 16.2813,13.7656 10.9375,13.7656 C7.8125,13.7656 5.17708,12.9531 3.03125,11.3281 C1.01042,9.56771 0,7.35417 0,4.6875 C0,0.197917 2.34375,-4 7.03125,-7.90625 C11.5938,-11.8125 16.5729,-13.7656 21.9688,-13.7656"/>
<path class="Note" transform="matrix(0.886677,0,0,0.886677,527.509,995.159)" d="M21.9688,-13.7656 C25.0938,-13.7656 27.7344,-12.9531 29.8906,-11.3281 C31.901,-9.56771 32.9063,-7.35417 32.9063,-4.6875 C32.9063,-0.197917 30.599,4 25.9844,7.90625 C21.2969,11.8125 16.2813,13.7656 10.9375,13.7656 C7.8125,13.7656 5.17708,12.9531 3.03125,11.3281 C1.01042,9.56771 0,7.35417 0,4.6875 C0,0.197917 2.34375,-4 7.03125,-7.90625 C11.5938,-11.8125 16.5729,-13.7656 21.9688,-13.7656"/>
<path class="Note" transform="matrix(0.886677,0,0,0.886677,375.473,995.159)" d="M21.9688,-13.7656 C25.0938,-13.7656 27.7344,-12.9531 29.8906,-11.3281 C31.901,-9.56771 32.9063,-7.35417 32.9063,-4.6875 C32.9063,-0.197917 30.599,4 25.9844,7.90625 C21.2969,11.8125 16.2813,13.7656 10.9375,13.7656 C7.8125,13.7656 5.17708,12.9531 3.03125,11.3281 C1.01042,9.56771 0,7.35417 0,4.6875 C0,0.197917 2.34375,-4 7.03125,-7.90625 C11.5938,-11.8125 16.5729,-13.7656 21.9688,-13.7656"/>
<path class="Note" transform="matrix(0.886677,0,0,0.886677,2665.66,607.238)" d="M21.9688,-13.7656 C25.0938,-13.7656 27.7344,-12.9531 29.8906,-11.3281 C31.901,-9.56771 32.9063,-7.35417 32.9063,-4.6875 C32.9063,-0.197917 30.599,4 25.9844,7.90625 C21.2969,11.8125 16.2813,13.7656 10.9375,13.7656 C7.8125,13.7656 5.17708,12.9531 3.03125,11.3281 C1.01042,9.56771 0,7.35417 0,4.6875 C0,0.197917 2.34375,-4 7.03125,-7.90625 C11.5938,-11.8125 16.5729,-13.7656 21.9688,-13.7656"/>
<path class="Note" transform="matrix(0.886677,0,0,0.886677,2585.65,585.071)" d="M21.9688,-13.7656 C25.0938,-13.7656 27.7344,-12.9531 29.8906,-11.3281 C31.901,-9.56771 32.9063,-7.35417 32.9063,-4.6875 C32.9063,-0.197917 30.599,4 25.9844,7.90625 C21.2969,11.8125 16.2813,13.7656 10.9375,13.7656 C7.8125,13.7656 5.17708,12.9531 3.03125,11.3281 C1.01042,9.56771 0,7.35417 0,4.6875 C0,0.197917 2.34375,-4 7.03125,-7.90625 C11.5938,-11.8125 16.5729,-13.7656 21.9688,-13.7656"/>
<path class="Note" transform="matrix(0.886677,0,0,0.886677,2505.64,596.154)" d="M21.9688,-13.7656 C25.0938,-13.7656 27.7344,-12.9531 29.8906,-11.3281 C31.901,-9.56771 32.9063,-7.35417 32.9063,-4.6875 C32.9063,-0.197917 30.599,4 25.9844,7.90625 C21.2969,11.8125 16.2813,13.7656 10.9375,13.7656 C7.8125,13.7656 5.17708,12.9531 3.03125,11.3281 C1.01042,9.56771 0,7.35417 0,4.6875 C0,0.197917 2.34375,-4 7.03125,-7.90625 C11.5938,-11.8125 16.5729,-13.7656 21.9688,-13.7656"/>
<path class="Note" transform="matrix(0.886677,0,0,0.886677,2425.63,573.987)" d="M21.9688,-13.7656 C25.0938,-13.7656 27.7344,-12.9531 29.8906,-11.3281 C31.901,-9.56771 32.9063,-7.35417 32.9063,-4.6875 C32.9063,-0.197917 30.599,4 25.9844,7.90625 C21.2969,11.8125 16.2813,13.7656 10.9375,13.7656 C7.8125,13.7656 5.17708,12.9531 3.03125,11.3281 C1.01042,9.56771 0,7.35417 0,4.6875 C0,0.197917 2.34375,-4 7.03125,-7.90625 C11.5938,-11.8125 16.5729,-13.7656 21.9688,-13.7656"/>
<path class="Note" transform="matrix(0.886677,0,0,0.886677,2345.62,585.071)" d="M21.9688,-13.7656 C25.0938,-13.7656 27.7344,-12.9531 29.8906,-11.3281 C31.901,-9.56771 32.9063,-7.35417 32.9063,-4.6875 C32.9063,-0.197917 30.599,4 25.9844,7.90625 C21.2969,11.8125 16.2813,13.7656 10.9375,13.7656 C7.8125,13.7656 5.17708,12.9531 3.03125,11.3281 C1.01042,9.56771 0,7.35417 0,4.6875 C0,0.197917 2.34375,-4 7.03125,-7.90625 C11.5938,-11.8125 16.5729,-13.7656 21.9688,-13.7656"/>
<path class="Note" transform="matrix(0.886677,0,0,0.886677,2123.35,607.238)" d="M21.9688,-13.7656 C25.0938,-13.7656 27.7344,-12.9531 29.8906,-11.3281 C31.901,-9.56771 32.9063,-7.35417 32.9063,-4.6875 C32.9063,-0.197917 30.599,4 25.9844,7.90625 C21.2969,11.8125 16.2813,13.7656 10.9375,13.7656 C7.8125,13.7656 5.17708,12.9531 3.03125,11.3281 C1.01042,9.56771 0,7.35417 0,4.6875 C0,0.197917 2.34375,-4 7.03125,-7.90625 C11.5938,-11.8125 16.5729,-13.7656 21.9688,-13.7656"/>
<path class="Note" transform="matrix(0.886677,0,0,0.886677,2043.34,585.071)" d="M21.9688,-13.7656 C25.0938,-13.7656 27.7344,-12.9531 29.8906,-11.3281 C31.901,-9.56771 32.9063,-7.35417 32.9063,-4.6875 C32.9063,-0.197917 30.599,4 25.9844,7.90625 C21.2969,11.8125 16.2813,13.7656 10.9375,13.7656 C7.8125,13.7656 5.17708,12.9531 3.03125,11.3281 C1.01042,9.56771 0,7.35417 0,4.6875 C0,0.197917 2.34375,-4 7.03125,-7.90625 C11.5938,-11.8125 16.5729,-13.7656 21.9688,-13.7656"/>
<path class="Note" transform="matrix(0.886677,0,0,0.886677,1963.33,596.154)" d="M21.9688,-13.7656 C25.0938,-13.7656 27.7344,-12.9531 29.8906,-11.3281 C31.901,-9.56771 32.9063,-7.35417 32.9063,-4.6875 C32.9063,-0.197917 30.599,4 25.9844,7.90625 C21.2969,11.8125 16.2813,13.7656 10.9375,13.7656 C7.8125,13.7656 5.17708,12.9531 3.03125,11.3281 C1.01042,9.56771 0,7.35417 0,4.6875 C0,0.197917 2.34375,-4 7.03125,-7.90625 C11.5938,-11.8125 16.5729,-13.7656 21.9688,-13.7656"/>
<path class="Note" transform="matrix(0.886677,0,0,0.886677,1883.33,573.987)" d="M21.9688,-13.7656 C25.0938,-13.7656 27.7344,-12.9531 29.8906,-11.3281 C31.901,-9.56771 32.9063,-7.35417 32.9063,-4.6875 C32.9063,-0.197917 30.599,4 25.9844,7.90625 C21.2969,11.8125 16.2813,13.7656 10.9375,13.7656 C7.8125,13.7656 5.17708,12.9531 3.03125,11.3281 C1.01042,9.56771 0,7.35417 0,4.6875 C0,0.197917 2.34375,-4 7.03125,-7.90625 C11.5938,-11.8125 16.5729,-13.7656 21.9688,-13.7656"/>
<path class="Note" transform="matrix(0.886677,0,0,0.886677,1803.32,585.071)" d="M21.9688,-13.7656 C25.0938,-13.7656 27.7344,-12.9531 29.8906,-11.3281 C31.901,-9.56771 32.9063,-7.35417 32.9063,-4.6875 C32.9063,-0.197917 30.599,4 25.9844,7.90625 C21.2969,11.8125 16.2813,13.7656 10.9375,13.7656 C7.8125,13.7656 5.17708,12.9531 3.03125,11.3281 C1.01042,9.56771 0,7.35417 0,4.6875 C0,0.197917 2.34375,-4 7.03125,-7.90625 C11.5938,-11.8125 16.5729,-13.7656 21.9688,-13.7656"/>
<path class="Note" transform="matrix(0.886677,0,0,0.886677,1699,596.154)" d="M21.9688,-13.7656 C25.0938,-13.7656 27.7344,-12.9531 29.8906,-11.3281 C31.901,-9.56771 32.9063,-7.35417 32.9063,-4.6875 C32.9063,-0.197917 30.599,4 25.9844,7.90625 C21.2969,11.8125 16.2813,13.7656 10.9375,13.7656 C7.8125,13.7656 5.17708,12.9531 3.03125,11.3281 C1.01042,9.56771 0,7.35417 0,4.6875 C0,0.197917 2.34375,-4 7.03125,-7.90625 C11.5938,-11.8125 16.5729,-13.7656 21.9688,-13.7656"/>
<path class="Note" transform="matrix(0.886677,0,0,0.886677,1580.32,585.071)" d="M21.9688,-13.7656 C25.0938,-13.7656 27.7344,-12.9531 29.8906,-11.3281 C31.901,-9.56771 32.9063,-7.35417 32.9063,-4.6875 C32.9063,-0.197917 30.599,4 25.9844,7.90625 C21.2969,11.8125 16.2813,13.7656 10.9375,13.7656 C7.8125,13.7656 5.17708,12.9531 3.03125,11.3281 C1.01042,9.56771 0,7.35417 0,4.6875 C0,0.197917 2.34375,-4 7.03125,-7.90625 C11.5938,-11.8125 16.5729,-13.7656 21.9688,-13.7656"/>
<path class="Note" transform="matrix(0.886677,0,0,0.886677,1506.14,573.987)" d="M21.9688,-13.7656 C25.0938,-13.7656 27.7344,-12.9531 29.8906,-11.3281 C31.901,-9.56771 32.9063,-7.35417 32.9063,-4.6875 C32.9063,-0.197917 30.599,4 25.9844,7.90625 C21.2969,11.8125 16.2813,13.7656 10.9375,13.7656 C7.8125,13.7656 5.17708,12.9531 3.03125,11.3281 C1.01042,9.56771 0,7.35417 0,4.6875 C0,0.197917 2.34375,-4 7.03125,-7.90625 C11.5938,-11.8125 16.5729,-13.7656 21.9688,-13.7656"/>
<path class="Note" transform="matrix(0.886677,0,0,0.886677,1431.97,562.904)" d="M21.9688,-13.7656 C25.0938,-13.7656 27.7344,-12.9531 29.8906,-11.3281 C31.901,-9.56771 32.9063,-7.35417 32.9063,-4.6875 C32.9063,-0.197917 30.599,4 25.9844,7.90625 C21.2969,11.8125 16.2813,13.7656 10.9375,13.7656 C7.8125,13.7656 5.17708,12.9531 3.03125,11.3281 C1.01042,9.56771 0,7.35417 0,4.6875 C0,0.197917 2.34375,-4 7.03125,-7.90625 C11.5938,-11.8125 16.5729,-13.7656 21.9688,-13.7656"/>
<path class="Note" transform="matrix(0.886677,0,0,0.886677,1357.79,551.82)" d="M21.9688,-13.7656 C25.0938,-13.7656 27.7344,-12.9531 29.8906,-11.3281 C31.901,-9.56771 32.9063,-7.35417 32.9063,-4.6875 C32.9063,-0.197917 30.599,4 25.9844,7.90625 C21.2969,11.8125 16.2813,13.7656 10.9375,13.7656 C7.8125,13.7656 5.17708,12.9531 3.03125,11.3281 C1.01042,9.56771 0,7.35417 0,4.6875 C0,0.197917 2.34375,-4 7.03125,-7.90625 C11.5938,-11.8125 16.5729,-13.7656 21.9688,-13.7656"/>
<path class="Note" transform="matrix(0.886677,0,0,0.886677,1283.62,573.987)" d="M21.9688,-13.7656 C25.0938,-13.7656 27.7344,-12.9531 29.8906,-11.3281 C31.901,-9.56771 32.9063,-7.35417 32.9063,-4.6875 C32.9063,-0.197917 30.599,4 25.9844,7.90625 C21.2969,11.8125 16.2813,13.7656 10.9375,13.7656 C7.8125,13.7656 5.17708,12.9531 3.03125,11.3281 C1.01042,9.56771 0,7.35417 0,4.6875 C0,0.197917 2.34375,-4 7.03125,-7.90625 C11.5938,-11.8125 16.5729,-13.7656 21.9688,-13.7656"/>
<path class="Note" transform="matrix(0.886677,0,0,0.886677,1181.04,585.071)" d="M21.9688,-13.7656 C25.0938,-13.7656 27.7344,-12.9531 29.8906,-11.3281 C31.901,-9.56771 32.9063,-7.35417 32.9063,-4.6875 C32.9063,-0.197917 30.599,4 25.9844,7.90625 C21.2969,11.8125 16.2813,13.7656 10.9375,13.7656 C7.8125,13.7656 5.17708,12.9531 3.03125,11.3281 C1.01042,9.56771 0,7.35417 0,4.6875 C0,0.197917 2.34375,-4 7.03125,-7.90625 C11.5938,-11.8125 16.5729,-13.7656 21.9688,-13.7656"/>
<path class="Note" transform="matrix(0.886677,0,0,0.886677,1065.15,573.987)" d="M21.9688,-13.7656 C25.0938,-13.7656 27.7344,-12.9531 29.8906,-11.3281 C31.901,-9.56771 32.9063,-7.35417 32.9063,-4.6875 C32.9063,-0.197917 30.599,4 25.9844,7.90625 C21.2969,11.8125 16.2813,13.7656 10.9375,13.7656 C7.8125,13.7656 5.17708,12.9531 3.03125,11.3281 C1.01042,9.56771 0,7.35417 0,4.6875 C0,0.197917 2.34375,-4 7.03125,-7.90625 C11.5938,-11.8125 16.5729,-13.7656 21.9688,-13.7656"/>
<path class="Note" transform="matrix(0.886677,0,0,0.886677,949.262,573.987)" d="M21.9688,-13.7656 C25.0938,-13.7656 27.7344,-12.9531 29.8906,-11.3281 C31.901,-9.56771 32.9063,-7.35417 32.9063,-4.6875 C32.9063,-0.197917 30.599,4 25.9844,7.90625 C21.2969,11.8125 16.2813,13.7656 10.9375,13.7656 C7.8125,13.7656 5.17708,12.9531 3.03125,11.3281 C1.01042,9.56771 0,7.35417 0,4.6875 C0,0.197917 2.34375,-4 7.03125,-7.90625 C11.5938,-11.8125 16.5729,-13.7656 21.9688,-13.7656"/>
<path class="Note" transform="matrix(0.886677,0,0,0.886677,833.373,562.904)" d="M21.9688,-13.7656 C25.0938,-13.7656 27.7344,-12.9531 29.8906,-11.3281 C31.901,-9.56771 32.9063,-7.35417 32.9063,-4.6875 C32.9063,-0.197917 30.599,4 25.9844,7.90625 C21.2969,11.8125 16.2813,13.7656 10.9375,13.7656 C7.8125,13.7656 5.17708,12.9531 3.03125,11.3281 C1.01042,9.56771 0,7.35417 0,4.6875 C0,0.197917 2.34375,-4 7.03125,-7.90625 C11.5938,-11.8125 16.5729,-13.7656 21.9688,-13.7656"/>
<path class="Note" transform="matrix(0.886677,0,0,0.886677,730.795,573.987)" d="M21.9688,-13.7656 C25.0938,-13.7656 27.7344,-12.9531 29.8906,-11.3281 C31.901,-9.56771 32.9063,-7.35417 32.9063,-4.6875 C32.9063,-0.197917 30.599,4 25.9844,7.90625 C21.2969,11.8125 16.2813,13.7656 10.9375,13.7656 C7.8125,13.7656 5.17708,12.9531 3.03125,11.3281 C1.01042,9.56771 0,7.35417 0,4.6875 C0,0.197917 2.34375,-4 7.03125,-7.90625 C11.5938,-11.8125 16.5729,-13.7656 21.9688,-13.7656"/>
<path class="Note" transform="matrix(0.886677,0,0,0.886677,614.906,562.904)" d="M21.9688,-13.7656 C25.0938,-13.7656 27.7344,-12.9531 29.8906,-11.3281 C31.901,-9.56771 32.9063,-7.35417 32.9063,-4.6875 C32.9063,-0.197917 30.599,4 25.9844,7.90625 C21.2969,11.8125 16.2813,13.7656 10.9375,13.7656 C7.8125,13.7656 5.17708,12.9531 3.03125,11.3281 C1.01042,9.56771 0,7.35417 0,4.6875 C0,0.197917 2.34375,-4 7.03125,-7.90625 C11.5938,-11.8125 16.5729,-13.7656 21.9688,-13.7656"/>
<path class="Note" transform="matrix(0.886677,0,0,0.886677,499.016,562.904)" d="M21.9688,-13.7656 C25.0938,-13.7656 27.7344,-12.9531 29.8906,-11.3281 C31.901,-9.56771 32.9063,-7.35417 32.9063,-4.6875 C32.9063,-0.197917 30.599,4 25.9844,7.90625 C21.2969,11.8125 16.2813,13.7656 10.9375,13.7656 C7.8125,13.7656 5.17708,12.9531 3.03125,11.3281 C1.01042,9.56771 0,7.35417 0,4.6875 C0,0.197917 2.34375,-4 7.03125,-7.90625 C11.5938,-11.8125 16.5729,-13.7656 21.9688,-13.7656"/>
<path class="Note" transform="matrix(0.886677,0,0,0.886677,383.127,607.238)" d="M21.9688,-13.7656 C25.0938,-13.7656 27.7344,-12.9531 29.8906,-11.3281 C31.901,-9.56771 32.9063,-7.35417 32.9063,-4.6875 C32.9063,-0.197917 30.599,4 25.9844,7.90625 C21.2969,11.8125 16.2813,13.7656 10.9375,13.7656 C7.8125,13.7656 5.17708,12.9531 3.03125,11.3281 C1.01042,9.56771 0,7.35417 0,4.6875 C0,0.197917 2.34375,-4 7.03125,-7.90625 C11.5938,-11.8125 16.5729,-13.7656 21.9688,-13.7656"/>
<path class="Clef" transform="matrix(0.886677,0,0,0.886677,155.919,1006.24)" d="M36.7188,-25.5938 C36.7188,-25.5938 36.9167,-25.5938 37.3125,-25.5938 C37.5729,-25.6563 37.7969,-25.6875 37.9844,-25.6875 C45.276,-25.6875 51.2656,-23.1146 55.9531,-17.9688 C60.6406,-12.8958 62.9844,-6.97396 62.9844,-0.203125 C62.9844,8.20313 59.5052,15.0417 52.5469,20.3125 C50.724,21.75 48.3438,22.9219 45.4063,23.8281 C45.7396,28.0573 45.9063,31.474 45.9063,34.0781 C45.9063,34.599 45.8385,36.4896 45.7031,39.75 C45.4427,45.8021 43.3594,51.0417 39.4531,55.4688 C35.6823,59.8333 30.9948,62.0156 25.3906,62.0156 C20.1198,62.0156 15.6302,60.1615 11.9219,56.4531 C8.20313,52.6719 6.34375,48.1146 6.34375,42.7813 C6.34375,39.9792 7.42188,37.599 9.57813,35.6406 C11.7865,33.6927 14.3542,32.7188 17.2813,32.7188 C19.8854,32.7188 22.0677,33.7292 23.8281,35.75 C25.651,37.6354 26.5625,39.9792 26.5625,42.7813 C26.5625,45.3125 25.651,47.4896 23.8281,49.3125 C22.0052,51.1354 19.8229,52.0469 17.2813,52.0469 C16.2396,52.0469 15.2344,51.8542 14.2656,51.4688 C17.1302,55.6979 20.9375,57.8125 25.6875,57.8125 C30.1771,57.8125 33.8542,55.9896 36.7188,52.3438 C39.7188,48.5729 41.349,44.1771 41.6094,39.1563 C41.7344,36.0313 41.7969,34.2448 41.7969,33.7969 C41.7969,30.151 41.6667,27.1563 41.4063,24.8125 C38.1563,25.3333 35.2604,25.5938 32.7188,25.5938 C23.6667,25.5938 15.9531,22.0104 9.57813,14.8438 C3.32813,7.61458 0.203125,-0.979167 0.203125,-10.9375 C0.203125,-13.0208 0.395833,-15.1354 0.78125,-17.2813 C1.17708,-19.0417 1.66667,-20.9635 2.25,-23.0469 C2.57292,-24.224 3.45313,-26.1146 4.89063,-28.7188 C5.41146,-29.5 5.9974,-30.4766 6.64844,-31.6484 C7.29948,-32.8203 7.75521,-33.599 8.01563,-33.9844 C8.66146,-35.2865 9.92708,-37.0469 11.8125,-39.2656 C12.3333,-39.849 12.8724,-40.4974 13.4297,-41.2109 C13.987,-41.9245 14.4609,-42.5104 14.8516,-42.9688 C15.2422,-43.4271 15.5339,-43.7865 15.7266,-44.0469 C15.9193,-44.3073 17.3854,-46.0313 20.125,-49.2188 C20.7708,-49.875 21.4036,-50.5755 22.0234,-51.3203 C22.6432,-52.0651 23.1484,-52.651 23.5391,-53.0781 C23.9297,-53.5052 24.224,-53.8125 24.4219,-54 C22.0781,-61.75 20.6094,-67.9375 20.0156,-72.5625 C19.5677,-76.2708 19.3438,-81.349 19.3438,-87.7969 C19.3438,-93.4635 20.6458,-98.7708 23.25,-103.719 C25.7813,-108.854 29.3281,-113.052 33.8906,-116.313 C34.151,-116.51 34.474,-116.609 34.8594,-116.609 C35.3177,-116.609 35.6458,-116.51 35.8438,-116.313 C39.3542,-112.083 42.3802,-106.583 44.9219,-99.8125 C47.526,-93.0417 48.8281,-86.8854 48.8281,-81.3438 C48.8281,-75.0938 47.3333,-69.2344 44.3438,-63.7656 C40.9583,-57.974 36.5938,-51.9844 31.25,-45.7969 C32.6146,-41.5052 34.4375,-34.7708 36.7188,-25.5938 M45.0156,19.8281 C48.401,18.5885 51.0417,16.474 52.9375,13.4844 C55.0208,10.6198 56.0625,7.39583 56.0625,3.8125 C56.0625,-0.8125 54.5,-4.91667 51.375,-8.5 C48.1771,-12.2083 44.1042,-14.2917 39.1563,-14.75 C41.9583,-1.01042 43.9115,10.5156 45.0156,19.8281 M7.23438,-2.73438 C7.23438,3.71354 9.83854,9.38021 15.0469,14.2656 C20.3802,19.0156 26.3698,21.3906 33.0156,21.3906 C35.7448,21.3906 38.4115,21.1927 41.0156,20.7969 C39.974,10.901 37.9219,-0.947917 34.8594,-14.75 C31.151,-14.3542 28.1927,-13.0521 25.9844,-10.8438 C23.8281,-8.5625 22.75,-5.98958 22.75,-3.125 C22.75,1.82292 25.3906,5.82813 30.6719,8.89063 C31.1198,9.34896 31.3438,9.83854 31.3438,10.3594 C31.3438,10.8802 31.1198,11.3646 30.6719,11.8125 C30.276,12.2708 29.7865,12.5 29.2031,12.5 C29.1406,12.5 28.849,12.4375 28.3281,12.3125 C24.6094,10.2917 21.7448,7.6875 19.7344,4.5 C17.8385,1.10417 16.8906,-2.31771 16.8906,-5.76563 C16.8906,-10.2552 18.2917,-14.3229 21.0938,-17.9688 C24.0208,-21.6146 27.8281,-23.9583 32.5156,-25 C30.6927,-32.2917 29.1979,-37.9896 28.0313,-42.0938 C26.9896,-40.9167 25.737,-39.5 24.2734,-37.8438 C22.8099,-36.1875 21.9479,-35.1927 21.6875,-34.8594 C19.3438,-31.8073 17.5521,-29.4323 16.3125,-27.7344 C14.0938,-24.6719 12.4635,-22.0365 11.4219,-19.8281 C10.3177,-17.349 9.34375,-14.6458 8.5,-11.7188 C7.65625,-8.91667 7.23438,-5.92188 7.23438,-2.73438 M39.8438,-102.047 C34.9583,-99.6406 31.1198,-96.1927 28.3281,-91.7031 C25.4635,-87.0781 24.0313,-82.099 24.0313,-76.7656 C24.0313,-72.0781 25.2031,-65.7604 27.5469,-57.8125 C32.2344,-63.4792 35.75,-68.7188 38.0938,-73.5313 C40.5625,-78.6146 41.7969,-83.9219 41.7969,-89.4531 C41.7969,-93.6198 41.1458,-97.8177 39.8438,-102.047"/>
<path class="Clef" transform="matrix(0.886677,0,0,0.886677,155.919,585.071)" d="M36.7188,-25.5938 C36.7188,-25.5938 36.9167,-25.5938 37.3125,-25.5938 C37.5729,-25.6563 37.7969,-25.6875 37.9844,-25.6875 C45.276,-25.6875 51.2656,-23.1146 55.9531,-17.9688 C60.6406,-12.8958 62.9844,-6.97396 62.9844,-0.203125 C62.9844,8.20313 59.5052,15.0417 52.5469,20.3125 C50.724,21.75 48.3438,22.9219 45.4063,23.8281 C45.7396,28.0573 45.9063,31.474 45.9063,34.0781 C45.9063,34.599 45.8385,36.4896 45.7031,39.75 C45.4427,45.8021 43.3594,51.0417 39.4531,55.4688 C35.6823,59.8333 30.9948,62.0156 25.3906,62.0156 C20.1198,62.0156 15.6302,60.1615 11.9219,56.4531 C8.20313,52.6719 6.34375,48.1146 6.34375,42.7813 C6.34375,39.9792 7.42188,37.599 9.57813,35.6406 C11.7865,33.6927 14.3542,32.7188 17.2813,32.7188 C19.8854,32.7188 22.0677,33.7292 23.8281,35.75 C25.651,37.6354 26.5625,39.9792 26.5625,42.7813 C26.5625,45.3125 25.651,47.4896 23.8281,49.3125 C22.0052,51.1354 19.8229,52.0469 17.2813,52.0469 C16.2396,52.0469 15.2344,51.8542 14.2656,51.4688 C17.1302,55.6979 20.9375,57.8125 25.6875,57.8125 C30.1771,57.8125 33.8542,55.9896 36.7188,52.3438 C39.7188,48.5729 41.349,44.1771 41.6094,39.1563 C41.7344,36.0313 41.7969,34.2448 41.7969,33.7969 C41.7969,30.151 41.6667,27.1563 41.4063,24.8125 C38.1563,25.3333 35.2604,25.5938 32.7188,25.5938 C23.6667,25.5938 15.9531,22.0104 9.57813,14.8438 C3.32813,7.61458 0.203125,-0.979167 0.203125,-10.9375 C0.203125,-13.0208 0.395833,-15.1354 0.78125,-17.2813 C1.17708,-19.0417 1.66667,-20.9635 2.25,-23.0469 C2.57292,-24.224 3.45313,-26.1146 4.89063,-28.7188 C5.41146,-29.5 5.9974,-30.4766 6.64844,-31.6484 C7.29948,-32.8203 7.75521,-33.599 8.01563,-33.9844 C8.66146,-35.2865 9.92708,-37.0469 11.8125,-39.2656 C12.3333,-39.849 12.8724,-40.4974 13.4297,-41.2109 C13.987,-41.9245 14.4609,-42.5104 14.8516,-42.9688 C15.2422,-43.4271 15.5339,-43.7865 15.7266,-44.0469 C15.9193,-44.3073 17.3854,-46.0313 20.125,-49.2188 C20.7708,-49.875 21.4036,-50.5755 22.0234,-51.3203 C22.6432,-52.0651 23.1484,-52.651 23.5391,-53.0781 C23.9297,-53.5052 24.224,-53.8125 24.4219,-54 C22.0781,-61.75 20.6094,-67.9375 20.0156,-72.5625 C19.5677,-76.2708 19.3438,-81.349 19.3438,-87.7969 C19.3438,-93.4635 20.6458,-98.7708 23.25,-103.719 C25.7813,-108.854 29.3281,-113.052 33.8906,-116.313 C34.151,-116.51 34.474,-116.609 34.8594,-116.609 C35.3177,-116.609 35.6458,-116.51 35.8438,-116.313 C39.3542,-112.083 42.3802,-106.583 44.9219,-99.8125 C47.526,-93.0417 48.8281,-86.8854 48.8281,-81.3438 C48.8281,-75.0938 47.3333,-69.2344 44.3438,-63.7656 C40.9583,-57.974 36.5938,-51.9844 31.25,-45.7969 C32.6146,-41.5052 34.4375,-34.7708 36.7188,-25.5938 M45.0156,19.8281 C48.401,18.5885 51.0417,16.474 52.9375,13.4844 C55.0208,10.6198 56.0625,7.39583 56.0625,3.8125 C56.0625,-0.8125 54.5,-4.91667 51.375,-8.5 C48.1771,-12.2083 44.1042,-14.2917 39.1563,-14.75 C41.9583,-1.01042 43.9115,10.5156 45.0156,19.8281 M7.23438,-2.73438 C7.23438,3.71354 9.83854,9.38021 15.0469,14.2656 C20.3802,19.0156 26.3698,21.3906 33.0156,21.3906 C35.7448,21.3906 38.4115,21.1927 41.0156,20.7969 C39.974,10.901 37.9219,-0.947917 34.8594,-14.75 C31.151,-14.3542 28.1927,-13.0521 25.9844,-10.8438 C23.8281,-8.5625 22.75,-5.98958 22.75,-3.125 C22.75,1.82292 25.3906,5.82813 30.6719,8.89063 C31.1198,9.34896 31.3438,9.83854 31.3438,10.3594 C31.3438,10.8802 31.1198,11.3646 30.6719,11.8125 C30.276,12.2708 29.7865,12.5 29.2031,12.5 C29.1406,12.5 28.849,12.4375 28.3281,12.3125 C24.6094,10.2917 21.7448,7.6875 19.7344,4.5 C17.8385,1.10417 16.8906,-2.31771 16.8906,-5.76563 C16.8906,-10.2552 18.2917,-14.3229 21.0938,-17.9688 C24.0208,-21.6146 27.8281,-23.9583 32.5156,-25 C30.6927,-32.2917 29.1979,-37.9896 28.0313,-42.0938 C26.9896,-40.9167 25.737,-39.5 24.2734,-37.8438 C22.8099,-36.1875 21.9479,-35.1927 21.6875,-34.8594 C19.3438,-31.8073 17.5521,-29.4323 16.3125,-27.7344 C14.0938,-24.6719 12.4635,-22.0365 11.4219,-19.8281 C10.3177,-17.349 9.34375,-14.6458 8.5,-11.7188 C7.65625,-8.91667 7.23438,-5.92188 7.23438,-2.73438 M39.8438,-102.047 C34.9583,-99.6406 31.1198,-96.1927 28.3281,-91.7031 C25.4635,-87.0781 24.0313,-82.099 24.0313,-76.7656 C24.0313,-72.0781 25.2031,-65.7604 27.5469,-57.8125 C32.2344,-63.4792 35.75,-68.7188 38.0938,-73.5313 C40.5625,-78.6146 41.7969,-83.9219 41.7969,-89.4531 C41.7969,-93.6198 41.1458,-97.8177 39.8438,-102.047"/>
<path class="KeySig" transform="matrix(0.886677,0,0,0.886677,233.891,939.742)" d="M21.5781,31.1563 C21.5781,32.3958 20.9609,33.0156 19.7266,33.0156 C18.4922,33.0156 17.875,32.3958 17.875,31.1563 L17.875,16.7031 L9.57813,19.8281 L9.57813,35.6406 C9.57813,36.8802 8.95833,37.5 7.71875,37.5 C6.47917,37.5 5.85938,36.8802 5.85938,35.6406 L5.85938,21.0938 L2.73438,22.2656 C2.67188,22.3281 2.41146,22.3594 1.95313,22.3594 C1.43229,22.3594 0.976563,22.1641 0.585938,21.7734 C0.195313,21.3828 0,20.9271 0,20.4063 L0,14.3594 C0,13.3802 0.421875,12.7604 1.26563,12.5 L5.85938,10.9375 L5.85938,-5.07813 L2.73438,-4 C2.67188,-3.9375 2.41146,-3.90625 1.95313,-3.90625 C1.43229,-3.90625 0.976563,-4.10156 0.585938,-4.49219 C0.195313,-4.88281 0,-5.33854 0,-5.85938 L0,-11.9219 C0,-12.8281 0.421875,-13.4115 1.26563,-13.6719 L5.85938,-15.4375 L5.85938,-31.1563 C5.85938,-32.3958 6.47917,-33.0156 7.71875,-33.0156 C8.95833,-33.0156 9.57813,-32.3958 9.57813,-31.1563 L9.57813,-16.7031 L17.875,-19.8281 L17.875,-35.6406 C17.875,-36.8802 18.4922,-37.5 19.7266,-37.5 C20.9609,-37.5 21.5781,-36.8802 21.5781,-35.6406 L21.5781,-21.0938 L24.8125,-22.2656 C24.875,-22.3281 25.099,-22.3594 25.4844,-22.3594 C25.9427,-22.3594 26.4323,-22.1667 26.9531,-21.7813 C27.349,-21.3854 27.5469,-20.9271 27.5469,-20.4063 L27.5469,-14.3594 C27.5469,-13.4427 27.0885,-12.8229 26.1719,-12.5 L21.5781,-10.9375 L21.5781,5.07813 L24.8125,4 C24.875,3.9375 25.099,3.90625 25.4844,3.90625 C25.9427,3.90625 26.4323,4.10417 26.9531,4.5 C27.349,4.88542 27.5469,5.33854 27.5469,5.85938 L27.5469,11.9219 C27.5469,12.7656 27.0885,13.349 26.1719,13.6719 L21.5781,15.4375 L21.5781,31.1563 M17.875,-9.46875 L9.57813,-6.54688 L9.57813,9.46875 L17.875,6.54688 L17.875,-9.46875 "/>
<path class="KeySig" transform="matrix(0.886677,0,0,0.886677,233.891,518.57)" d="M21.5781,31.1563 C21.5781,32.3958 20.9609,33.0156 19.7266,33.0156 C18.4922,33.0156 17.875,32.3958 17.875,31.1563 L17.875,16.7031 L9.57813,19.8281 L9.57813,35.6406 C9.57813,36.8802 8.95833,37.5 7.71875,37.5 C6.47917,37.5 5.85938,36.8802 5.85938,35.6406 L5.85938,21.0938 L2.73438,22.2656 C2.67188,22.3281 2.41146,22.3594 1.95313,22.3594 C1.43229,22.3594 0.976563,22.1641 0.585938,21.7734 C0.195313,21.3828 0,20.9271 0,20.4063 L0,14.3594 C0,13.3802 0.421875,12.7604 1.26563,12.5 L5.85938,10.9375 L5.85938,-5.07813 L2.73438,-4 C2.67188,-3.9375 2.41146,-3.90625 1.95313,-3.90625 C1.43229,-3.90625 0.976563,-4.10156 0.585938,-4.49219 C0.195313,-4.88281 0,-5.33854 0,-5.85938 L0,-11.9219 C0,-12.8281 0.421875,-13.4115 1.26563,-13.6719 L5.85938,-15.4375 L5.85938,-31.1563 C5.85938,-32.3958 6.47917,-33.0156 7.71875,-33.0156 C8.95833,-33.0156 9.57813,-32.3958 9.57813,-31.1563 L9.57813,-16.7031 L17.875,-19.8281 L17.875,-35.6406 C17.875,-36.8802 18.4922,-37.5 19.7266,-37.5 C20.9609,-37.5 21.5781,-36.8802 21.5781,-35.6406 L21.5781,-21.0938 L24.8125,-22.2656 C24.875,-22.3281 25.099,-22.3594 25.4844,-22.3594 C25.9427,-22.3594 26.4323,-22.1667 26.9531,-21.7813 C27.349,-21.3854 27.5469,-20.9271 27.5469,-20.4063 L27.5469,-14.3594 C27.5469,-13.4427 27.0885,-12.8229 26.1719,-12.5 L21.5781,-10.9375 L21.5781,5.07813 L24.8125,4 C24.875,3.9375 25.099,3.90625 25.4844,3.90625 C25.9427,3.90625 26.4323,4.10417 26.9531,4.5 C27.349,4.88542 27.5469,5.33854 27.5469,5.85938 L27.5469,11.9219 C27.5469,12.7656 27.0885,13.349 26.1719,13.6719 L21.5781,15.4375 L21.5781,31.1563 M17.875,-9.46875 L9.57813,-6.54688 L9.57813,9.46875 L17.875,6.54688 L17.875,-9.46875 "/>
<path class="TimeSig" transform="matrix(0.886677,0,0,0.886677,293.68,540.605)" d="M6.73438,-16.0156 C5.76563,-16.0156 4.89063,-15.4297 4.10938,-14.2578 C3.32813,-13.0859 2.9375,-11.3281 2.9375,-8.98438 L2.9375,-1.46875 C2.9375,-0.489583 2.44792,0 1.46875,0 C0.489583,0 0,-0.489583 0,-1.46875 L0,-23.5313 C0,-24.5104 0.489583,-25 1.46875,-25 C2.3125,-25 2.80208,-24.5104 2.9375,-23.5313 L2.9375,-22.0781 C2.9375,-21.7448 3.03125,-21.4844 3.21875,-21.2969 C3.41667,-20.901 3.64583,-20.6719 3.90625,-20.6094 C4.16667,-20.5469 4.32813,-20.5469 4.39063,-20.6094 C6.54688,-23.5365 9.15104,-25 12.2031,-25 C14.6198,-25 17,-24.0885 19.3438,-22.2656 C21.4896,-20.3802 23.3438,-19.4375 24.9063,-19.4375 C26.4688,-19.4375 28,-19.8906 29.5,-20.7969 C30.7292,-21.5781 31.8333,-22.526 32.8125,-23.6406 C33.5938,-24.5469 34.1146,-25 34.375,-25 C34.8333,-25 35.224,-24.8698 35.5469,-24.6094 C35.8698,-24.2865 36.0313,-23.9635 36.0313,-23.6406 C36.0313,-23.4427 35.1875,-22.0417 33.5,-19.4375 C31.875,-16.8958 30.0208,-13.9635 27.9375,-10.6406 C25.7813,-7.19271 23.9583,-3.05729 22.4688,1.76563 C20.7708,6.57813 19.9219,11.3281 19.9219,16.0156 C19.9219,16.7969 19.9896,17.9063 20.125,19.3438 C20.25,20.6458 20.3802,21.5573 20.5156,22.0781 C20.5156,22.599 20.5781,23.1823 20.7031,23.8281 L20.7031,24.125 C20.7031,24.5104 20.6068,24.8021 20.4141,25 C20.2214,25.1979 19.8958,25.2969 19.4375,25.2969 L16.6094,24.5156 C14.526,23.9948 12.8958,23.7344 11.7188,23.7344 C10.4167,23.7344 8.79167,23.9948 6.84375,24.5156 C4.94792,25.0365 3.96875,25.2969 3.90625,25.2969 C3.52083,25.2969 3.16146,25.1354 2.82813,24.8125 C2.70313,24.6146 2.64063,24.3854 2.64063,24.125 C2.64063,23.9271 2.67188,23.7656 2.73438,23.6406 C5.14063,17.974 8.07292,12.375 11.5313,6.84375 C15.4375,0.71875 19.6979,-5.53646 24.3125,-11.9219 C22.4896,-10.9427 20.5052,-10.3854 18.3594,-10.25 C16.2135,-10.25 14.099,-11.1979 12.0156,-13.0938 C9.99479,-15.0417 8.23438,-16.0156 6.73438,-16.0156"/>
<path class="TimeSig" transform="matrix(0.886677,0,0,0.886677,280.504,585.202)" d="M17.4844,-23.7344 C18.3906,-23.7344 19.3333,-23.9609 20.3125,-24.4141 C21.2917,-24.8672 21.8802,-25.0938 22.0781,-25.0938 C22.7865,-25.0938 23.2083,-24.5417 23.3438,-23.4375 L23.3438,13.2813 C23.3438,15.8229 24.026,18.0365 25.3906,19.9219 C26.8281,21.7448 28.5885,22.6563 30.6719,22.6563 C31.4531,22.6563 31.8438,23.0469 31.8438,23.8281 C31.8438,24.6094 31.4531,25 30.6719,25 C28.776,25 26.5625,24.8073 24.0313,24.4219 C21.2292,23.9635 19.0781,23.7344 17.5781,23.7344 C15.9531,23.7344 13.7396,23.9635 10.9375,24.4219 C8.01042,24.8073 5.82813,25 4.39063,25 C3.60938,25 3.21875,24.6094 3.21875,23.8281 C3.21875,23.0469 3.60938,22.6563 4.39063,22.6563 C6.47396,22.6563 8.23438,21.7448 9.67188,19.9219 C11.0365,18.0365 11.7188,15.8229 11.7188,13.2813 L11.7188,-11.2344 C11.7188,-11.5573 11.526,-11.9792 11.1406,-12.5 C10.8802,-12.8958 10.4896,-13.0938 9.96875,-13.0938 C9.51042,-13.0938 9.18229,-12.8646 8.98438,-12.4063 L2.64063,1.17188 C2.38021,1.82813 1.89063,2.15625 1.17188,2.15625 C0.848958,2.15625 0.557292,2.02604 0.296875,1.76563 C-0.0364583,1.43229 -0.203125,1.07292 -0.203125,0.6875 C-0.203125,0.625 -0.135417,0.395833 0,0 L11.7188,-25 C11.8542,-25.1979 12.0182,-25.2969 12.2109,-25.2969 C12.4036,-25.2969 13.1198,-25.0365 14.3594,-24.5156 C15.599,-23.9948 16.6406,-23.7344 17.4844,-23.7344"/>
<path class="TimeSig" transform="matrix(0.886677,0,0,0.886677,308.642,585.202)" d="M17,-0.59375 C14.5208,-0.59375 12.9896,0.385417 12.4063,2.34375 C11.9479,3.78125 11.7188,6.19271 11.7188,9.57813 L11.7188,12.5 C11.7188,15.8854 11.9479,18.2969 12.4063,19.7344 C12.9896,21.6823 14.5208,22.6563 17,22.6563 C19.7292,22.6563 21.4531,21.5156 22.1719,19.2344 C22.8177,17.0885 23.1406,14.3542 23.1406,11.0313 C23.1406,7.19792 22.7865,4.30208 22.0781,2.34375 C21.2969,0.385417 19.6042,-0.59375 17,-0.59375 M11.7188,-1.5625 C13.6771,-2.34375 15.4375,-2.80208 17,-2.9375 C22.2083,-2.9375 26.375,-1.76042 29.5,0.59375 C32.4896,3 33.9844,6.44792 33.9844,10.9375 C33.9844,15.5 32.4531,19.0156 29.3906,21.4844 C26.3385,23.8281 22.2083,25 17,25 C11.6563,25 7.48698,22.526 4.49219,17.5781 C1.4974,12.6302 0,6.77083 0,0 C0,-6.64583 1.76042,-12.5052 5.28125,-17.5781 C8.85417,-22.526 13.4427,-25 19.0469,-25 C22.6927,-25 25.9167,-24.0573 28.7188,-22.1719 C31.4479,-20.2865 32.8125,-17.8125 32.8125,-14.75 C32.8125,-12.8646 32.1615,-11.3021 30.8594,-10.0625 C29.6927,-8.76042 28.1979,-8.10938 26.375,-8.10938 C24.5521,-8.10938 22.9896,-8.76042 21.6875,-10.0625 C20.3854,-11.3646 19.7344,-12.9271 19.7344,-14.75 C19.7344,-15.4688 20.3854,-16.2813 21.6875,-17.1875 C22.9896,-17.9688 23.6406,-18.7813 23.6406,-19.625 C23.6406,-20.5417 23.1823,-21.2917 22.2656,-21.875 C21.224,-22.3958 20.151,-22.6563 19.0469,-22.6563 C16.0469,-22.6563 14.0625,-21.4531 13.0938,-19.0469 C12.0521,-16.7031 11.5313,-13.2865 11.5313,-8.79688 C11.5313,-7.49479 11.5625,-6.28906 11.625,-5.17969 C11.6875,-4.07031 11.7188,-2.86458 11.7188,-1.5625"/>
<path class="Beam" fill-rule="evenodd" d="M2215.06,917.575 L2524.02,917.575 L2524.02,928.658 L2215.06,928.658 L2215.06,917.575 "/>
<path class="Beam" fill-rule="evenodd" d="M2215.06,934.2 L2524.02,934.2 L2524.02,945.283 L2215.06,945.283 L2215.06,934.2 "/>
<path class="Beam" fill-rule="evenodd" d="M1940.44,934.09 L2093.77,939.738 L2093.77,950.829 L1940.44,945.181 L1940.44,934.09 "/>
<path class="Beam" fill-rule="evenodd" d="M2093.77,956.363 L2064.51,955.285 L2064.51,966.376 L2093.77,967.454 L2093.77,956.363 "/>
<path class="Beam" fill-rule="evenodd" d="M1538.03,1061.66 L1822.99,1061.66 L1822.99,1072.74 L1538.03,1072.74 L1538.03,1061.66 "/>
<path class="Beam" fill-rule="evenodd" d="M1538.03,1045.03 L1822.99,1045.03 L1822.99,1056.12 L1538.03,1056.12 L1538.03,1045.03 "/>
<path class="Beam" fill-rule="evenodd" d="M1287.12,961.909 L1442.04,961.909 L1442.04,972.992 L1287.12,972.992 L1287.12,961.909 "/>
<path class="Beam" fill-rule="evenodd" d="M1442.04,978.534 L1412.78,978.534 L1412.78,989.617 L1442.04,989.617 L1442.04,978.534 "/>
<path class="Beam" fill-rule="evenodd" d="M983.053,928.658 L1137.97,928.658 L1137.97,939.742 L983.053,939.742 L983.053,928.658 "/>
<path class="Beam" fill-rule="evenodd" d="M705.847,934.091 L860.765,939.738 L860.765,950.829 L705.847,945.182 L705.847,934.091 "/>
<path class="Beam" fill-rule="evenodd" d="M860.765,956.363 L831.505,955.297 L831.505,966.387 L860.765,967.454 L860.765,956.363 "/>
<path class="Beam" fill-rule="evenodd" d="M401.776,928.658 L556.693,928.658 L556.693,939.742 L401.776,939.742 L401.776,928.658 "/>
<path class="Beam" fill-rule="evenodd" d="M2371.93,496.403 L2614.83,496.403 L2614.83,507.487 L2371.93,507.487 L2371.93,496.403 "/>
<path class="Beam" fill-rule="evenodd" d="M2371.93,513.028 L2614.83,513.028 L2614.83,524.112 L2371.93,524.112 L2371.93,513.028 "/>
<path class="Beam" fill-rule="evenodd" d="M1829.62,496.403 L2072.53,496.403 L2072.53,507.487 L1829.62,507.487 L1829.62,496.403 "/>
<path class="Beam" fill-rule="evenodd" d="M1829.62,513.028 L2072.53,513.028 L2072.53,524.112 L1829.62,524.112 L1829.62,513.028 "/>
<path class="Beam" fill-rule="evenodd" d="M1606.62,512.888 L1728.18,518.564 L1728.18,529.66 L1606.62,523.983 L1606.62,512.888 "/>
<path class="Beam" fill-rule="evenodd" d="M1728.18,535.189 L1698.92,533.823 L1698.92,544.918 L1728.18,546.285 L1728.18,535.189 "/>
<path class="Beam" fill-rule="evenodd" d="M1283.62,640.488 L1509.02,640.488 L1509.02,651.572 L1283.62,651.572 L1283.62,640.488 "/>
<path class="Beam" fill-rule="evenodd" d="M1283.62,623.863 L1509.02,623.863 L1509.02,634.946 L1283.62,634.946 L1283.62,623.863 "/>
<path class="Beam" fill-rule="evenodd" d="M1091.45,490.717 L1210.23,496.397 L1210.23,507.493 L1091.45,501.813 L1091.45,490.717 "/>
<path class="Beam" fill-rule="evenodd" d="M1210.23,513.022 L1180.97,511.623 L1180.97,522.719 L1210.23,524.118 L1210.23,513.022 "/>
<path class="Beam" fill-rule="evenodd" d="M859.675,490.717 L978.446,496.397 L978.446,507.493 L859.675,501.813 L859.675,490.717 "/>
<path class="Beam" fill-rule="evenodd" d="M641.208,490.717 L759.979,496.397 L759.979,507.493 L641.208,501.813 L641.208,490.717 "/>
<path class="Beam" fill-rule="evenodd" d="M759.979,513.022 L730.719,511.623 L730.719,522.719 L759.979,524.118 L759.979,513.022 "/>
<path class="Beam" fill-rule="evenodd" d="M409.429,513.479 L528.2,490.761 L528.2,502.045 L409.429,524.763 L409.429,513.479 "/>
<path class="Hook" transform="matrix(0.886677,0,0,0.886677,2623.16,939.742)" d="M0,25 L0,0 L3.125,0 C3.125,3.70833 3.84375,7.42188 5.28125,11.1406 C6.84375,15.1719 8.56771,18.6875 10.4531,21.6875 C11.8177,23.8333 13.8698,27.1198 16.6094,31.5469 C18.6927,34.9323 20.4505,38.4792 21.8828,42.1875 C23.3151,45.8958 24.0313,49.6094 24.0313,53.3281 C24.0313,60.099 22.6302,67 19.8281,74.0313 C19.3073,74.8125 18.6875,75.2031 17.9688,75.2031 C17.3229,75.2031 16.7396,74.9427 16.2188,74.4219 C15.8229,74.026 15.625,73.5365 15.625,72.9531 L15.625,72.4688 C18.4271,66.0208 19.8281,59.6406 19.8281,53.3281 C19.8281,50.0677 18.849,46.5521 16.8906,42.7813 C14.9427,38.9375 12.9583,35.875 10.9375,33.5938 C8.65625,30.9271 6.05208,28.0625 3.125,25 L0,25 "/>
<path class="Hook" transform="matrix(0.886677,0,0,0.886677,2691.96,518.57)" d="M0,25 L0,0 L3.125,0 C3.125,3.70833 3.84375,7.42188 5.28125,11.1406 C6.84375,15.1719 8.56771,18.6875 10.4531,21.6875 C11.8177,23.8333 13.8698,27.1198 16.6094,31.5469 C18.6927,34.9323 20.4505,38.4792 21.8828,42.1875 C23.3151,45.8958 24.0313,49.6094 24.0313,53.3281 C24.0313,60.099 22.6302,67 19.8281,74.0313 C19.3073,74.8125 18.6875,75.2031 17.9688,75.2031 C17.3229,75.2031 16.7396,74.9427 16.2188,74.4219 C15.8229,74.026 15.625,73.5365 15.625,72.9531 L15.625,72.4688 C18.4271,66.0208 19.8281,59.6406 19.8281,53.3281 C19.8281,50.0677 18.849,46.5521 16.8906,42.7813 C14.9427,38.9375 12.9583,35.875 10.9375,33.5938 C8.65625,30.9271 6.05208,28.0625 3.125,25 L0,25 "/>
<path class="Hook" transform="matrix(0.886677,0,0,0.886677,2149.65,518.57)" d="M0,25 L0,0 L3.125,0 C3.125,3.70833 3.84375,7.42188 5.28125,11.1406 C6.84375,15.1719 8.56771,18.6875 10.4531,21.6875 C11.8177,23.8333 13.8698,27.1198 16.6094,31.5469 C18.6927,34.9323 20.4505,38.4792 21.8828,42.1875 C23.3151,45.8958 24.0313,49.6094 24.0313,53.3281 C24.0313,60.099 22.6302,67 19.8281,74.0313 C19.3073,74.8125 18.6875,75.2031 17.9688,75.2031 C17.3229,75.2031 16.7396,74.9427 16.2188,74.4219 C15.8229,74.026 15.625,73.5365 15.625,72.9531 L15.625,72.4688 C18.4271,66.0208 19.8281,59.6406 19.8281,53.3281 C19.8281,50.0677 18.849,46.5521 16.8906,42.7813 C14.9427,38.9375 12.9583,35.875 10.9375,33.5938 C8.65625,30.9271 6.05208,28.0625 3.125,25 L0,25 "/>
<path class="VoltaSegment" d="M2331.62,449.781 C2334.11,443.125 2337.71,439.797 2342.4,439.797 C2345.05,439.797 2347.22,440.638 2348.92,442.32 C2350.62,444.002 2351.47,446.146 2351.47,448.75 C2351.47,452.344 2349.61,455.906 2345.89,459.437 L2337.95,466.984 L2345.34,466.984 C2347.86,466.984 2349.48,466.789 2350.2,466.398 C2350.92,466.008 2351.64,464.927 2352.36,463.156 L2353.53,463.156 L2351.33,473.5 L2330.93,473.5 L2330.93,472.375 C2336.53,466.427 2340.24,462.041 2342.07,459.219 C2343.9,456.396 2344.81,453.854 2344.81,451.594 C2344.81,449.927 2344.27,448.474 2343.19,447.234 C2342.11,445.995 2340.71,445.375 2338.98,445.375 C2336.46,445.375 2334.47,446.844 2333,449.781 L2331.62,449.781 M2361.23,465.859 C2362.38,465.859 2363.36,466.276 2364.18,467.109 C2364.99,467.943 2365.4,468.929 2365.4,470.07 C2365.4,471.211 2364.99,472.174 2364.18,472.961 C2363.36,473.747 2362.36,474.14 2361.18,474.14 C2360.04,474.14 2359.08,473.739 2358.29,472.937 C2357.51,472.135 2357.12,471.146 2357.12,469.969 C2357.12,468.864 2357.53,467.903 2358.34,467.086 C2359.15,466.268 2360.12,465.859 2361.23,465.859"/>
<polyline class="VoltaSegment" fill="none" stroke="#000000" stroke-width="2.22" stroke-linecap="square" stroke-linejoin="bevel" points="2319.02,473.5 2319.02,431.383"/>
<polyline class="VoltaSegment" fill="none" stroke="#000000" stroke-width="2.22" stroke-linecap="square" stroke-linejoin="bevel" points="2319.02,431.383 2823.52,431.383"/>
<path class="VoltaSegment" d="M1792.14,445.187 C1791.76,445.187 1791.3,445.268 1790.75,445.429 C1790.21,445.591 1789.64,445.786 1789.03,446.015 C1788.43,446.245 1788.08,446.375 1787.99,446.406 L1787.99,445.125 L1800.33,439.797 L1801.16,439.797 L1801.16,467.719 C1801.16,469.614 1801.49,470.849 1802.14,471.422 C1802.8,471.995 1804.24,472.297 1806.46,472.328 L1806.46,473.5 L1788.08,473.5 L1788.08,472.328 C1790.5,472.297 1792.07,471.979 1792.81,471.375 C1793.54,470.771 1793.91,469.453 1793.91,467.422 L1793.91,448.562 C1793.91,446.312 1793.32,445.187 1792.14,445.187 M1815.93,465.859 C1817.07,465.859 1818.05,466.276 1818.87,467.109 C1819.69,467.943 1820.1,468.929 1820.1,470.07 C1820.1,471.211 1819.69,472.174 1818.87,472.961 C1818.05,473.747 1817.06,474.14 1815.88,474.14 C1814.73,474.14 1813.77,473.739 1812.99,472.937 C1812.21,472.135 1811.82,471.146 1811.82,469.969 C1811.82,468.864 1812.22,467.903 1813.03,467.086 C1813.85,466.268 1814.81,465.859 1815.93,465.859"/>
<polyline class="VoltaSegment" fill="none" stroke="#000000" stroke-width="2.22" stroke-linecap="square" stroke-linejoin="bevel" points="1776.72,473.5 1776.72,431.383"/>
<polyline class="VoltaSegment" fill="none" stroke="#000000" stroke-width="2.22" stroke-linecap="square" stroke-linejoin="bevel" points="1776.72,431.383 2305.67,431.383"/>
<polyline class="VoltaSegment" fill="none" stroke="#000000" stroke-width="2.22" stroke-linecap="square" stroke-linejoin="bevel" points="2305.67,431.383 2305.67,473.5"/>
<path class="NoteDot" transform="matrix(0.886677,0,0,0.886677,2633.8,1017.33)" d="M1.66406,4.00781 C0.554688,2.89844 0,1.5625 0,0 C0,-1.5625 0.554688,-2.89844 1.66406,-4.00781 C2.77344,-5.11719 4.10938,-5.67188 5.67188,-5.67188 C7.23438,-5.67188 8.56771,-5.11719 9.67188,-4.00781 C10.776,-2.89844 11.3281,-1.5625 11.3281,0 C11.3281,1.5625 10.776,2.89844 9.67188,4.00781 C8.56771,5.11719 7.23438,5.67188 5.67188,5.67188 C4.10938,5.67188 2.77344,5.11719 1.66406,4.00781"/>
<path class="NoteDot" transform="matrix(0.886677,0,0,0.886677,2702.6,596.154)" d="M1.66406,4.00781 C0.554688,2.89844 0,1.5625 0,0 C0,-1.5625 0.554688,-2.89844 1.66406,-4.00781 C2.77344,-5.11719 4.10938,-5.67188 5.67188,-5.67188 C7.23438,-5.67188 8.56771,-5.11719 9.67188,-4.00781 C10.776,-2.89844 11.3281,-1.5625 11.3281,0 C11.3281,1.5625 10.776,2.89844 9.67188,4.00781 C8.56771,5.11719 7.23438,5.67188 5.67188,5.67188 C4.10938,5.67188 2.77344,5.11719 1.66406,4.00781"/>
<path class="NoteDot" transform="matrix(0.886677,0,0,0.886677,2160.29,596.154)" d="M1.66406,4.00781 C0.554688,2.89844 0,1.5625 0,0 C0,-1.5625 0.554688,-2.89844 1.66406,-4.00781 C2.77344,-5.11719 4.10938,-5.67188 5.67188,-5.67188 C7.23438,-5.67188 8.56771,-5.11719 9.67188,-4.00781 C10.776,-2.89844 11.3281,-1.5625 11.3281,0 C11.3281,1.5625 10.776,2.89844 9.67188,4.00781 C8.56771,5.11719 7.23438,5.67188 5.67188,5.67188 C4.10938,5.67188 2.77344,5.11719 1.66406,4.00781"/>
</svg>
