<?xml version="1.0" encoding="UTF-8" standalone="no"?>
<svg width="2977.2px" height="4208.4px" viewBox="0 0 2977.2 4208.4"
 xmlns="http://www.w3.org/2000/svg" xmlns:xlink="http://www.w3.org/1999/xlink" version="1.2" baseProfile="tiny">
<title>Cadaneasca</title>
<desc>Generated by MuseScore 3.0.2</desc>
<polyline class="StaffLines" fill="none" stroke="#000000" stroke-width="2.00" stroke-linejoin="bevel" points="141.732,566.733 2835.47,566.733"/>
<polyline class="StaffLines" fill="none" stroke="#000000" stroke-width="2.00" stroke-linejoin="bevel" points="141.732,591.733 2835.47,591.733"/>
<polyline class="StaffLines" fill="none" stroke="#000000" stroke-width="2.00" stroke-linejoin="bevel" points="141.732,616.733 2835.47,616.733"/>
<polyline class="StaffLines" fill="none" stroke="#000000" stroke-width="2.00" stroke-linejoin="bevel" points="141.732,641.733 2835.47,641.733"/>
<polyline class="StaffLines" fill="none" stroke="#000000" stroke-width="2.00" stroke-linejoin="bevel" points="141.732,666.733 2835.47,666.733"/>
<polyline class="StaffLines" fill="none" stroke="#000000" stroke-width="2.00" stroke-linejoin="bevel" points="141.732,1041.73 2835.47,1041.73"/>
<polyline class="StaffLines" fill="none" stroke="#000000" stroke-width="2.00" stroke-linejoin="bevel" points="141.732,1066.73 2835.47,1066.73"/>
<polyline class="StaffLines" fill="none" stroke="#000000" stroke-width="2.00" stroke-linejoin="bevel" points="141.732,1091.73 2835.47,1091.73"/>
<polyline class="StaffLines" fill="none" stroke="#000000" stroke-width="2.00" stroke-linejoin="bevel" points="141.732,1116.73 2835.47,1116.73"/>
<polyline class="StaffLines" fill="none" stroke="#000000" stroke-width="2.00" stroke-linejoin="bevel" points="141.732,1141.73 2835.47,1141.73"/>
<path class="Text" d="M1027.09,268.732 C1027.09,248.055 1033.49,231.253 1046.29,218.326 C1059.1,205.399 1075.03,198.935 1094.09,198.935 C1102.62,198.935 1110.62,199.98 1118.09,202.068 C1125.56,204.157 1129.89,205.201 1131.09,205.201 C1135.49,205.201 1138.28,203.113 1139.48,198.935 L1143.69,198.935 L1145.48,243.732 L1140.89,243.732 C1133.56,218.93 1119.22,206.529 1097.89,206.529 C1083.36,206.529 1071.79,211.93 1063.19,222.732 C1054.59,233.534 1050.29,248.003 1050.29,266.139 C1050.29,277.732 1051.79,287.764 1054.79,296.232 C1057.79,304.701 1061.83,311.102 1066.9,315.435 C1071.96,319.769 1077.2,322.902 1082.59,324.834 C1087.99,326.766 1093.75,327.732 1099.89,327.732 C1115.62,327.732 1130.48,320.998 1144.48,307.529 L1148.09,311.139 C1141.96,319.264 1134.16,325.527 1124.69,329.928 C1115.23,334.329 1104.83,336.529 1093.5,336.529 C1073.76,336.529 1057.76,330.329 1045.49,317.928 C1033.22,305.527 1027.09,289.128 1027.09,268.732 M1159.09,313.982 C1159.09,311.597 1159.36,309.376 1159.89,307.318 C1160.42,305.261 1161.35,303.336 1162.69,301.545 C1164.02,299.753 1165.29,298.128 1166.49,296.67 C1167.69,295.211 1169.5,293.719 1171.9,292.193 C1174.3,290.667 1176.3,289.407 1177.9,288.412 C1179.5,287.417 1181.93,286.225 1185.19,284.834 C1188.46,283.443 1190.96,282.383 1192.69,281.654 C1194.43,280.925 1197.16,279.831 1200.9,278.373 C1204.63,276.915 1207.36,275.852 1209.09,275.185 L1209.09,263.045 C1209.09,252.034 1204.02,246.529 1193.89,246.529 C1189.89,246.529 1186.49,247.495 1183.69,249.428 C1180.9,251.36 1179.5,253.659 1179.5,256.326 C1179.5,257.399 1179.66,258.868 1180,260.732 C1180.33,262.597 1180.5,263.795 1180.5,264.326 C1180.5,266.597 1179.6,268.566 1177.79,270.232 C1175.99,271.899 1173.89,272.732 1171.5,272.732 C1169.23,272.732 1167.22,271.865 1165.49,270.131 C1163.76,268.396 1162.89,266.399 1162.89,264.139 C1162.89,257.868 1166.12,252.566 1172.59,248.232 C1179.06,243.899 1187.03,241.732 1196.5,241.732 C1207.42,241.732 1214.96,244.355 1219.09,249.6 C1223.23,254.844 1225.29,262.842 1225.29,273.592 L1225.29,312.389 C1225.29,316.764 1225.73,319.782 1226.59,321.443 C1227.46,323.105 1229.02,323.935 1231.29,323.935 C1234.1,323.935 1237.03,322.675 1240.09,320.154 L1240.09,325.389 C1236.62,329.389 1233.59,332.113 1230.99,333.56 C1228.39,335.008 1225.42,335.732 1222.09,335.732 C1217.96,335.732 1214.92,334.568 1212.99,332.24 C1211.06,329.912 1209.83,326.081 1209.29,320.748 C1197.83,330.738 1188.09,335.732 1180.09,335.732 C1173.96,335.732 1168.92,333.698 1164.99,329.631 C1161.06,325.563 1159.09,320.347 1159.09,313.982 M1209.09,308.81 L1209.09,279.967 C1197.09,284.342 1188.69,288.584 1183.89,292.693 C1179.09,296.803 1176.69,301.779 1176.69,307.623 C1176.69,313.06 1178.02,317.105 1180.69,319.756 C1183.35,322.407 1186.22,323.732 1189.29,323.732 C1193.83,323.732 1198.69,322.206 1203.89,319.154 C1206.02,317.967 1207.42,316.709 1208.09,315.381 C1208.76,314.053 1209.09,311.863 1209.09,308.81 M1309.5,335.732 L1308.69,335.123 L1308.69,321.967 C1302.29,331.144 1293.76,335.732 1283.09,335.732 C1272.03,335.732 1263.1,331.758 1256.29,323.81 C1249.49,315.863 1246.09,305.482 1246.09,292.67 C1246.09,278.555 1250.16,266.537 1258.29,256.615 C1266.43,246.693 1276.23,241.732 1287.69,241.732 C1294.89,241.732 1301.89,244.722 1308.69,250.701 L1308.69,219.232 C1308.69,215.055 1308.09,212.295 1306.89,210.951 C1305.69,209.607 1303.23,208.935 1299.5,208.935 C1297.62,208.935 1296.15,209.003 1295.09,209.139 L1295.09,205.935 C1307.23,202.738 1317.03,199.805 1324.5,197.139 L1325.5,197.529 L1325.5,310.607 C1325.5,315.253 1326.06,318.308 1327.19,319.771 C1328.32,321.235 1330.69,321.967 1334.29,321.967 C1334.96,321.967 1336.49,321.899 1338.89,321.764 L1338.89,324.935 L1309.5,335.732 M1290.89,324.935 C1295.96,324.935 1300.2,323.516 1303.59,320.678 C1306.99,317.839 1308.69,315.3 1308.69,313.06 L1308.69,267.529 C1308.69,262.248 1306.62,257.628 1302.49,253.67 C1298.36,249.711 1293.63,247.732 1288.29,247.732 C1280.69,247.732 1274.62,251.097 1270.09,257.826 C1265.56,264.555 1263.29,273.529 1263.29,284.748 C1263.29,296.894 1265.83,306.628 1270.9,313.951 C1275.96,321.274 1282.63,324.935 1290.89,324.935 M1346.09,313.982 C1346.09,311.597 1346.36,309.376 1346.89,307.318 C1347.42,305.261 1348.35,303.336 1349.69,301.545 C1351.02,299.753 1352.29,298.128 1353.49,296.67 C1354.69,295.211 1356.5,293.719 1358.9,292.193 C1361.3,290.667 1363.3,289.407 1364.9,288.412 C1366.5,287.417 1368.93,286.225 1372.19,284.834 C1375.46,283.443 1377.96,282.383 1379.69,281.654 C1381.43,280.925 1384.16,279.831 1387.9,278.373 C1391.63,276.915 1394.36,275.852 1396.09,275.185 L1396.09,263.045 C1396.09,252.034 1391.02,246.529 1380.89,246.529 C1376.89,246.529 1373.49,247.495 1370.69,249.428 C1367.9,251.36 1366.5,253.659 1366.5,256.326 C1366.5,257.399 1366.66,258.868 1367,260.732 C1367.33,262.597 1367.5,263.795 1367.5,264.326 C1367.5,266.597 1366.6,268.566 1364.79,270.232 C1362.99,271.899 1360.89,272.732 1358.5,272.732 C1356.23,272.732 1354.22,271.865 1352.49,270.131 C1350.76,268.396 1349.89,266.399 1349.89,264.139 C1349.89,257.868 1353.12,252.566 1359.59,248.232 C1366.06,243.899 1374.03,241.732 1383.5,241.732 C1394.42,241.732 1401.96,244.355 1406.09,249.6 C1410.23,254.844 1412.29,262.842 1412.29,273.592 L1412.29,312.389 C1412.29,316.764 1412.73,319.782 1413.59,321.443 C1414.46,323.105 1416.02,323.935 1418.29,323.935 C1421.1,323.935 1424.03,322.675 1427.09,320.154 L1427.09,325.389 C1423.62,329.389 1420.59,332.113 1417.99,333.56 C1415.39,335.008 1412.42,335.732 1409.09,335.732 C1404.96,335.732 1401.92,334.568 1399.99,332.24 C1398.06,329.912 1396.83,326.081 1396.29,320.748 C1384.83,330.738 1375.09,335.732 1367.09,335.732 C1360.96,335.732 1355.92,333.698 1351.99,329.631 C1348.06,325.563 1346.09,320.347 1346.09,313.982 M1396.09,308.81 L1396.09,279.967 C1384.09,284.342 1375.69,288.584 1370.89,292.693 C1366.09,296.803 1363.69,301.779 1363.69,307.623 C1363.69,313.06 1365.02,317.105 1367.69,319.756 C1370.35,322.407 1373.22,323.732 1376.29,323.732 C1380.83,323.732 1385.69,322.206 1390.89,319.154 C1393.02,317.967 1394.42,316.709 1395.09,315.381 C1395.76,314.053 1396.09,311.863 1396.09,308.81 M1430.09,253.935 L1430.09,250.529 C1439.96,247.665 1449.15,244.732 1457.69,241.732 L1459.09,242.123 L1459.09,257.748 C1465.89,251.415 1471.26,247.162 1475.19,244.99 C1479.13,242.818 1483.42,241.732 1488.09,241.732 C1495.42,241.732 1501.19,244.352 1505.39,249.592 C1509.59,254.831 1511.69,262.159 1511.69,271.576 L1511.69,317.498 C1511.69,322.446 1512.49,325.756 1514.09,327.428 C1515.7,329.1 1518.96,330.201 1523.89,330.732 L1523.89,333.732 L1482.29,333.732 L1482.29,330.732 C1487.36,330.336 1490.72,329.001 1492.39,326.725 C1494.06,324.448 1494.89,320.17 1494.89,313.889 L1494.89,271.982 C1494.89,259.014 1490.02,252.529 1480.29,252.529 C1476.96,252.529 1473.89,253.297 1471.09,254.834 C1468.29,256.37 1464.49,259.409 1459.69,263.951 L1459.69,320.31 C1459.69,323.915 1460.62,326.451 1462.49,327.92 C1464.36,329.389 1467.83,330.326 1472.89,330.732 L1472.89,333.732 L1430.5,333.732 L1430.5,330.732 C1435.56,330.336 1438.89,329.167 1440.49,327.225 C1442.09,325.282 1442.89,321.441 1442.89,315.701 L1442.89,265.967 C1442.89,261.019 1442.35,257.644 1441.29,255.842 C1440.22,254.04 1438.29,253.139 1435.5,253.139 C1432.96,253.139 1431.15,253.404 1430.09,253.935 M1545.5,278.326 C1545.76,286.732 1546.89,293.969 1548.89,300.037 C1550.89,306.105 1553.49,310.639 1556.69,313.639 C1559.9,316.639 1563.13,318.771 1566.4,320.037 C1569.66,321.303 1573.09,321.935 1576.69,321.935 C1583.09,321.935 1588.66,320.334 1593.4,317.131 C1598.13,313.928 1602.89,308.529 1607.69,300.935 L1610.89,302.326 C1606.75,313.128 1601.02,321.396 1593.69,327.131 C1586.35,332.865 1577.96,335.732 1568.5,335.732 C1557.03,335.732 1547.93,331.698 1541.19,323.631 C1534.46,315.563 1531.09,304.665 1531.09,290.935 C1531.09,276.133 1534.99,264.232 1542.79,255.232 C1550.6,246.232 1560.63,241.732 1572.89,241.732 C1583.02,241.732 1590.89,244.766 1596.49,250.834 C1602.09,256.902 1605.62,266.066 1607.09,278.326 L1545.5,278.326 M1545.89,272.326 L1586.69,272.326 C1585.35,263.659 1583.29,257.659 1580.49,254.326 C1577.69,250.993 1573.23,249.326 1567.09,249.326 C1555.09,249.326 1548.02,256.993 1545.89,272.326 M1620.09,313.982 C1620.09,311.597 1620.36,309.376 1620.89,307.318 C1621.42,305.261 1622.35,303.336 1623.69,301.545 C1625.02,299.753 1626.29,298.128 1627.49,296.67 C1628.69,295.211 1630.5,293.719 1632.9,292.193 C1635.3,290.667 1637.3,289.407 1638.9,288.412 C1640.5,287.417 1642.93,286.225 1646.19,284.834 C1649.46,283.443 1651.96,282.383 1653.69,281.654 C1655.43,280.925 1658.16,279.831 1661.9,278.373 C1665.63,276.915 1668.36,275.852 1670.09,275.185 L1670.09,263.045 C1670.09,252.034 1665.02,246.529 1654.89,246.529 C1650.89,246.529 1647.49,247.495 1644.69,249.428 C1641.9,251.36 1640.5,253.659 1640.5,256.326 C1640.5,257.399 1640.66,258.868 1641,260.732 C1641.33,262.597 1641.5,263.795 1641.5,264.326 C1641.5,266.597 1640.6,268.566 1638.79,270.232 C1636.99,271.899 1634.89,272.732 1632.5,272.732 C1630.23,272.732 1628.22,271.865 1626.49,270.131 C1624.76,268.396 1623.89,266.399 1623.89,264.139 C1623.89,257.868 1627.12,252.566 1633.59,248.232 C1640.06,243.899 1648.03,241.732 1657.5,241.732 C1668.42,241.732 1675.96,244.355 1680.09,249.6 C1684.23,254.844 1686.29,262.842 1686.29,273.592 L1686.29,312.389 C1686.29,316.764 1686.73,319.782 1687.59,321.443 C1688.46,323.105 1690.02,323.935 1692.29,323.935 C1695.1,323.935 1698.03,322.675 1701.09,320.154 L1701.09,325.389 C1697.62,329.389 1694.59,332.113 1691.99,333.56 C1689.39,335.008 1686.42,335.732 1683.09,335.732 C1678.96,335.732 1675.92,334.568 1673.99,332.24 C1672.06,329.912 1670.83,326.081 1670.29,320.748 C1658.83,330.738 1649.09,335.732 1641.09,335.732 C1634.96,335.732 1629.92,333.698 1625.99,329.631 C1622.06,325.563 1620.09,320.347 1620.09,313.982 M1670.09,308.81 L1670.09,279.967 C1658.09,284.342 1649.69,288.584 1644.89,292.693 C1640.09,296.803 1637.69,301.779 1637.69,307.623 C1637.69,313.06 1639.02,317.105 1641.69,319.756 C1644.35,322.407 1647.22,323.732 1650.29,323.732 C1654.83,323.732 1659.69,322.206 1664.89,319.154 C1667.02,317.967 1668.42,316.709 1669.09,315.381 C1669.76,314.053 1670.09,311.863 1670.09,308.81 M1755.69,245.732 C1755.82,245.732 1756.89,245.066 1758.89,243.732 L1761.09,243.732 L1761.89,270.935 L1758.89,270.935 C1756.63,261.998 1753.83,255.662 1750.5,251.928 C1747.16,248.193 1742.63,246.326 1736.89,246.326 C1732.36,246.326 1728.66,247.594 1725.79,250.131 C1722.93,252.667 1721.5,255.935 1721.5,259.935 C1721.5,265.665 1724.36,270.196 1730.09,273.529 L1751.69,286.326 C1757.69,289.93 1761.99,293.566 1764.59,297.232 C1767.2,300.899 1768.5,305.201 1768.5,310.139 C1768.5,317.066 1765.73,323.063 1760.19,328.131 C1754.66,333.198 1748.02,335.732 1740.29,335.732 C1736.96,335.732 1732.5,335.133 1726.9,333.935 C1721.3,332.738 1717.83,332.139 1716.5,332.139 C1714.5,332.139 1712.96,332.935 1711.89,334.529 L1709.29,334.529 L1709.29,303.326 L1712.5,303.326 C1714.62,312.659 1717.15,319.264 1720.09,323.139 C1724.36,328.597 1730.29,331.326 1737.89,331.326 C1742.96,331.326 1747,330.027 1750,327.428 C1753,324.829 1754.5,321.331 1754.5,316.935 C1754.5,310.935 1751.03,305.935 1744.09,301.935 L1732.5,295.326 C1723.96,290.534 1717.92,285.938 1714.39,281.537 C1710.86,277.136 1709.09,272.133 1709.09,266.529 C1709.09,259.331 1711.66,253.433 1716.79,248.834 C1721.93,244.235 1728.43,241.935 1736.29,241.935 C1740.69,241.935 1744.82,242.568 1748.69,243.834 C1752.56,245.1 1754.89,245.732 1755.69,245.732 M1780.09,291.092 C1780.09,276.3 1784.46,264.376 1793.19,255.318 C1801.93,246.261 1812.16,241.732 1823.89,241.732 C1832.29,241.732 1839.53,243.766 1845.59,247.834 C1851.65,251.902 1854.69,256.732 1854.69,262.326 C1854.69,264.597 1853.75,266.566 1851.89,268.232 C1850.02,269.899 1847.76,270.732 1845.09,270.732 C1840.56,270.732 1837.42,267.691 1835.69,261.607 L1834.5,257.248 C1833.42,253.55 1832.09,251.04 1830.49,249.717 C1828.89,248.394 1826.29,247.732 1822.69,247.732 C1814.56,247.732 1808,250.948 1803,257.381 C1798,263.813 1795.5,272.133 1795.5,282.342 C1795.5,293.748 1798.4,303.066 1804.19,310.295 C1809.99,317.524 1817.42,321.139 1826.5,321.139 C1832.23,321.139 1837.16,319.745 1841.29,316.959 C1845.43,314.172 1849.89,309.331 1854.69,302.435 L1857.5,304.217 C1856.16,306.894 1855,309.102 1854,310.842 C1853,312.581 1851.2,315.191 1848.59,318.67 C1845.99,322.149 1843.42,324.959 1840.89,327.1 C1838.36,329.24 1835.02,331.214 1830.89,333.021 C1826.75,334.829 1822.49,335.732 1818.09,335.732 C1807.03,335.732 1797.93,331.563 1790.79,323.225 C1783.66,314.886 1780.09,304.175 1780.09,291.092 M1869.09,313.982 C1869.09,311.597 1869.36,309.376 1869.89,307.318 C1870.42,305.261 1871.35,303.336 1872.69,301.545 C1874.02,299.753 1875.29,298.128 1876.49,296.67 C1877.69,295.211 1879.5,293.719 1881.9,292.193 C1884.3,290.667 1886.3,289.407 1887.9,288.412 C1889.5,287.417 1891.93,286.225 1895.19,284.834 C1898.46,283.443 1900.96,282.383 1902.69,281.654 C1904.43,280.925 1907.16,279.831 1910.9,278.373 C1914.63,276.915 1917.36,275.852 1919.09,275.185 L1919.09,263.045 C1919.09,252.034 1914.02,246.529 1903.89,246.529 C1899.89,246.529 1896.49,247.495 1893.69,249.428 C1890.9,251.36 1889.5,253.659 1889.5,256.326 C1889.5,257.399 1889.66,258.868 1890,260.732 C1890.33,262.597 1890.5,263.795 1890.5,264.326 C1890.5,266.597 1889.6,268.566 1887.79,270.232 C1885.99,271.899 1883.89,272.732 1881.5,272.732 C1879.23,272.732 1877.22,271.865 1875.49,270.131 C1873.76,268.396 1872.89,266.399 1872.89,264.139 C1872.89,257.868 1876.12,252.566 1882.59,248.232 C1889.06,243.899 1897.03,241.732 1906.5,241.732 C1917.42,241.732 1924.96,244.355 1929.09,249.6 C1933.23,254.844 1935.29,262.842 1935.29,273.592 L1935.29,312.389 C1935.29,316.764 1935.73,319.782 1936.59,321.443 C1937.46,323.105 1939.02,323.935 1941.29,323.935 C1944.1,323.935 1947.03,322.675 1950.09,320.154 L1950.09,325.389 C1946.62,329.389 1943.59,332.113 1940.99,333.56 C1938.39,335.008 1935.42,335.732 1932.09,335.732 C1927.96,335.732 1924.92,334.568 1922.99,332.24 C1921.06,329.912 1919.83,326.081 1919.29,320.748 C1907.83,330.738 1898.09,335.732 1890.09,335.732 C1883.96,335.732 1878.92,333.698 1874.99,329.631 C1871.06,325.563 1869.09,320.347 1869.09,313.982 M1919.09,308.81 L1919.09,279.967 C1907.09,284.342 1898.69,288.584 1893.89,292.693 C1889.09,296.803 1886.69,301.779 1886.69,307.623 C1886.69,313.06 1888.02,317.105 1890.69,319.756 C1893.35,322.407 1896.22,323.732 1899.29,323.732 C1903.83,323.732 1908.69,322.206 1913.89,319.154 C1916.02,317.967 1917.42,316.709 1918.09,315.381 C1918.76,314.053 1919.09,311.863 1919.09,308.81"/>
<path class="MeasureNumber" d="M146.513,983.952 C146.513,982.535 146.198,981.282 145.568,980.194 C144.938,979.105 144.178,978.261 143.287,977.662 C142.396,977.064 141.399,976.571 140.295,976.186 C139.191,975.8 138.23,975.548 137.412,975.428 C136.594,975.308 135.883,975.248 135.279,975.248 C134.956,975.248 134.795,975.139 134.795,974.92 C134.795,974.847 134.805,974.78 134.826,974.717 L139.185,965.264 L147.545,965.264 C147.972,965.264 148.313,965.196 148.568,965.061 C148.823,964.925 149.097,964.644 149.388,964.217 L149.748,964.498 L148.232,968.061 C148.128,968.3 147.821,968.42 147.31,968.42 L139.467,968.42 L137.795,971.811 C141.68,972.498 144.571,973.621 146.467,975.178 C148.362,976.735 149.31,979.019 149.31,982.03 C149.31,983.603 149.063,985.004 148.568,986.233 C148.073,987.462 147.446,988.452 146.685,989.202 C145.925,989.952 145.045,990.566 144.045,991.045 C143.045,991.524 142.086,991.853 141.17,992.03 C140.253,992.207 139.326,992.295 138.388,992.295 C136.899,992.295 135.714,992.074 134.834,991.631 C133.954,991.189 133.513,990.582 133.513,989.811 C133.513,988.821 134.086,988.327 135.232,988.327 C135.982,988.327 136.948,988.735 138.131,989.553 C139.313,990.371 140.253,990.78 140.951,990.78 C142.524,990.78 143.844,990.121 144.912,988.803 C145.98,987.485 146.513,985.868 146.513,983.952"/>
<path class="BarLine" d="M2793.22,1083.23 C2792.11,1082.13 2791.55,1080.8 2791.55,1079.23 C2791.55,1077.67 2792.11,1076.33 2793.22,1075.23 C2794.33,1074.12 2795.66,1073.56 2797.23,1073.56 C2798.79,1073.56 2800.12,1074.12 2801.23,1075.23 C2802.33,1076.33 2802.88,1077.67 2802.88,1079.23 C2802.88,1080.8 2802.33,1082.13 2801.23,1083.23 C2800.12,1084.34 2798.79,1084.89 2797.23,1084.89 C2795.66,1084.89 2794.33,1084.34 2793.22,1083.23"/>
<path class="BarLine" d="M2793.22,1108.23 C2792.11,1107.13 2791.55,1105.8 2791.55,1104.23 C2791.55,1102.67 2792.11,1101.33 2793.22,1100.23 C2794.33,1099.12 2795.66,1098.56 2797.23,1098.56 C2798.79,1098.56 2800.12,1099.12 2801.23,1100.23 C2802.33,1101.33 2802.88,1102.67 2802.88,1104.23 C2802.88,1105.8 2802.33,1107.13 2801.23,1108.23 C2800.12,1109.34 2798.79,1109.89 2797.23,1109.89 C2795.66,1109.89 2794.33,1109.34 2793.22,1108.23"/>
<polyline class="BarLine" fill="none" stroke="#000000" stroke-width="4.00" stroke-linejoin="bevel" points="2812.97,1040.73 2812.97,1142.73"/>
<polyline class="BarLine" fill="none" stroke="#000000" stroke-width="12.50" stroke-linejoin="bevel" points="2829.22,1040.73 2829.22,1142.73"/>
<polyline class="BarLine" fill="none" stroke="#000000" stroke-width="4.00" stroke-linejoin="bevel" points="2038.45,1040.73 2038.45,1142.73"/>
<polyline class="BarLine" fill="none" stroke="#000000" stroke-width="4.00" stroke-linejoin="bevel" points="1473.27,1040.73 1473.27,1142.73"/>
<polyline class="BarLine" fill="none" stroke="#000000" stroke-width="4.00" stroke-linejoin="bevel" points="862.089,1040.73 862.089,1142.73"/>
<polyline class="BarLine" fill="none" stroke="#000000" stroke-width="12.50" stroke-linejoin="bevel" points="239.42,1040.73 239.42,1142.73"/>
<polyline class="BarLine" fill="none" stroke="#000000" stroke-width="4.00" stroke-linejoin="bevel" points="255.67,1040.73 255.67,1142.73"/>
<path class="BarLine" d="M267.412,1083.23 C266.303,1082.13 265.748,1080.8 265.748,1079.23 C265.748,1077.67 266.303,1076.33 267.412,1075.23 C268.521,1074.12 269.857,1073.56 271.42,1073.56 C272.982,1073.56 274.316,1074.12 275.42,1075.23 C276.524,1076.33 277.076,1077.67 277.076,1079.23 C277.076,1080.8 276.524,1082.13 275.42,1083.23 C274.316,1084.34 272.982,1084.89 271.42,1084.89 C269.857,1084.89 268.521,1084.34 267.412,1083.23"/>
<path class="BarLine" d="M267.412,1108.23 C266.303,1107.13 265.748,1105.8 265.748,1104.23 C265.748,1102.67 266.303,1101.33 267.412,1100.23 C268.521,1099.12 269.857,1098.56 271.42,1098.56 C272.982,1098.56 274.316,1099.12 275.42,1100.23 C276.524,1101.33 277.076,1102.67 277.076,1104.23 C277.076,1105.8 276.524,1107.13 275.42,1108.23 C274.316,1109.34 272.982,1109.89 271.42,1109.89 C269.857,1109.89 268.521,1109.34 267.412,1108.23"/>
<path class="BarLine" d="M2793.22,608.233 C2792.11,607.128 2791.55,605.795 2791.55,604.233 C2791.55,602.67 2792.11,601.334 2793.22,600.225 C2794.33,599.115 2795.66,598.561 2797.23,598.561 C2798.79,598.561 2800.12,599.115 2801.23,600.225 C2802.33,601.334 2802.88,602.67 2802.88,604.233 C2802.88,605.795 2802.33,607.128 2801.23,608.233 C2800.12,609.337 2798.79,609.889 2797.23,609.889 C2795.66,609.889 2794.33,609.337 2793.22,608.233"/>
<path class="BarLine" d="M2793.22,633.233 C2792.11,632.128 2791.55,630.795 2791.55,629.233 C2791.55,627.67 2792.11,626.334 2793.22,625.225 C2794.33,624.115 2795.66,623.561 2797.23,623.561 C2798.79,623.561 2800.12,624.115 2801.23,625.225 C2802.33,626.334 2802.88,627.67 2802.88,629.233 C2802.88,630.795 2802.33,632.128 2801.23,633.233 C2800.12,634.337 2798.79,634.889 2797.23,634.889 C2795.66,634.889 2794.33,634.337 2793.22,633.233"/>
<polyline class="BarLine" fill="none" stroke="#000000" stroke-width="4.00" stroke-linejoin="bevel" points="2812.97,565.733 2812.97,667.733"/>
<polyline class="BarLine" fill="none" stroke="#000000" stroke-width="12.50" stroke-linejoin="bevel" points="2829.22,565.733 2829.22,667.733"/>
<polyline class="BarLine" fill="none" stroke="#000000" stroke-width="4.00" stroke-linejoin="bevel" points="2186.01,565.733 2186.01,667.733"/>
<polyline class="BarLine" fill="none" stroke="#000000" stroke-width="4.00" stroke-linejoin="bevel" points="1547.29,565.733 1547.29,667.733"/>
<polyline class="BarLine" fill="none" stroke="#000000" stroke-width="4.00" stroke-linejoin="bevel" points="939.74,565.733 939.74,667.733"/>
<path class="Accidental" d="M2376.77,1087.62 L2376.77,1095.34 C2376.77,1098.08 2376.9,1100.26 2377.16,1101.89 C2379.31,1100.07 2380.84,1098.7 2381.76,1097.8 C2382.8,1096.75 2383.84,1095.32 2384.88,1093.49 C2385.92,1091.66 2386.44,1089.84 2386.44,1088.01 C2386.44,1086.19 2386.05,1084.63 2385.27,1083.33 C2384.49,1082.02 2383.45,1081.37 2382.15,1081.37 C2380.58,1081.37 2379.28,1081.96 2378.24,1083.14 C2377.26,1084.44 2376.77,1085.94 2376.77,1087.62 M2372.66,1105.5 L2371.4,1046.03 C2372.31,1045.51 2373.23,1045.25 2374.14,1045.25 C2375.05,1045.25 2375.96,1045.51 2376.86,1046.03 L2376.08,1080.5 C2378.75,1078.22 2381.81,1077.08 2385.27,1077.08 C2387.8,1077.08 2389.91,1078.12 2391.61,1080.2 C2393.3,1082.28 2394.15,1084.67 2394.15,1087.34 C2394.15,1089.03 2393.59,1090.82 2392.49,1092.72 C2391.45,1094.47 2390.34,1095.83 2389.18,1096.81 C2388.52,1097.33 2386.86,1098.63 2384.19,1100.72 C2383.41,1101.3 2382.48,1101.98 2381.41,1102.76 C2380.34,1103.55 2379.67,1104.03 2379.41,1104.23 C2378.95,1104.49 2378.53,1105.01 2378.13,1105.8 C2377.68,1106.45 2377.16,1107 2376.57,1107.45 C2376.12,1107.85 2375.57,1108.05 2374.92,1108.05 C2374.27,1108.05 2373.74,1107.82 2373.35,1107.36 C2372.89,1106.9 2372.66,1106.28 2372.66,1105.5"/>
<path class="Accidental" d="M2075.02,1110.39 C2075.02,1111.63 2074.41,1112.25 2073.17,1112.25 C2071.94,1112.25 2071.32,1111.63 2071.32,1110.39 L2071.32,1095.94 L2063.02,1099.06 L2063.02,1114.87 C2063.02,1116.11 2062.4,1116.73 2061.16,1116.73 C2059.93,1116.73 2059.31,1116.11 2059.31,1114.87 L2059.31,1100.33 L2056.18,1101.5 C2056.12,1101.56 2055.86,1101.59 2055.4,1101.59 C2054.88,1101.59 2054.42,1101.4 2054.03,1101.01 C2053.64,1100.62 2053.45,1100.16 2053.45,1099.64 L2053.45,1093.59 C2053.45,1092.61 2053.87,1091.99 2054.71,1091.73 L2059.31,1090.17 L2059.31,1074.15 L2056.18,1075.23 C2056.12,1075.3 2055.86,1075.33 2055.4,1075.33 C2054.88,1075.33 2054.42,1075.13 2054.03,1074.74 C2053.64,1074.35 2053.45,1073.89 2053.45,1073.37 L2053.45,1067.31 C2053.45,1066.4 2053.87,1065.82 2054.71,1065.56 L2059.31,1063.8 L2059.31,1048.08 C2059.31,1046.84 2059.93,1046.22 2061.16,1046.22 C2062.4,1046.22 2063.02,1046.84 2063.02,1048.08 L2063.02,1062.53 L2071.32,1059.4 L2071.32,1043.59 C2071.32,1042.35 2071.94,1041.73 2073.17,1041.73 C2074.41,1041.73 2075.02,1042.35 2075.02,1043.59 L2075.02,1058.14 L2078.26,1056.97 C2078.32,1056.9 2078.54,1056.87 2078.93,1056.87 C2079.39,1056.87 2079.88,1057.07 2080.4,1057.45 C2080.79,1057.85 2080.99,1058.31 2080.99,1058.83 L2080.99,1064.87 C2080.99,1065.79 2080.53,1066.41 2079.62,1066.73 L2075.02,1068.3 L2075.02,1084.31 L2078.26,1083.23 C2078.32,1083.17 2078.54,1083.14 2078.93,1083.14 C2079.39,1083.14 2079.88,1083.34 2080.4,1083.73 C2080.79,1084.12 2080.99,1084.57 2080.99,1085.09 L2080.99,1091.15 C2080.99,1092 2080.53,1092.58 2079.62,1092.9 L2075.02,1094.67 L2075.02,1110.39 M2071.32,1069.76 L2063.02,1072.69 L2063.02,1088.7 L2071.32,1085.78 L2071.32,1069.76 "/>
<path class="Accidental" d="M1492.86,1087.62 L1492.86,1095.34 C1492.86,1098.08 1492.99,1100.26 1493.25,1101.89 C1495.4,1100.07 1496.93,1098.7 1497.85,1097.8 C1498.89,1096.75 1499.93,1095.32 1500.97,1093.49 C1502.01,1091.66 1502.53,1089.84 1502.53,1088.01 C1502.53,1086.19 1502.14,1084.63 1501.36,1083.33 C1500.58,1082.02 1499.54,1081.37 1498.24,1081.37 C1496.68,1081.37 1495.37,1081.96 1494.33,1083.14 C1493.35,1084.44 1492.86,1085.94 1492.86,1087.62 M1488.75,1105.5 L1487.49,1046.03 C1488.4,1045.51 1489.32,1045.25 1490.23,1045.25 C1491.14,1045.25 1492.05,1045.51 1492.96,1046.03 L1492.18,1080.5 C1494.84,1078.22 1497.9,1077.08 1501.36,1077.08 C1503.89,1077.08 1506.01,1078.12 1507.7,1080.2 C1509.39,1082.28 1510.24,1084.67 1510.24,1087.34 C1510.24,1089.03 1509.69,1090.82 1508.58,1092.72 C1507.54,1094.47 1506.44,1095.83 1505.27,1096.81 C1504.61,1097.33 1502.95,1098.63 1500.28,1100.72 C1499.5,1101.3 1498.58,1101.98 1497.5,1102.76 C1496.43,1103.55 1495.76,1104.03 1495.5,1104.23 C1495.04,1104.49 1494.62,1105.01 1494.22,1105.8 C1493.77,1106.45 1493.25,1107 1492.66,1107.45 C1492.21,1107.85 1491.66,1108.05 1491.01,1108.05 C1490.36,1108.05 1489.84,1107.82 1489.44,1107.36 C1488.98,1106.9 1488.75,1106.28 1488.75,1105.5"/>
<path class="Accidental" d="M1376.31,1087.62 L1376.31,1095.34 C1376.31,1098.08 1376.44,1100.26 1376.7,1101.89 C1378.84,1100.07 1380.38,1098.7 1381.29,1097.8 C1382.33,1096.75 1383.38,1095.32 1384.42,1093.49 C1385.46,1091.66 1385.98,1089.84 1385.98,1088.01 C1385.98,1086.19 1385.59,1084.63 1384.81,1083.33 C1384.03,1082.02 1382.98,1081.37 1381.68,1081.37 C1380.12,1081.37 1378.82,1081.96 1377.78,1083.14 C1376.8,1084.44 1376.31,1085.94 1376.31,1087.62 M1372.2,1105.5 L1370.93,1046.03 C1371.85,1045.51 1372.76,1045.25 1373.67,1045.25 C1374.59,1045.25 1375.5,1045.51 1376.4,1046.03 L1375.62,1080.5 C1378.29,1078.22 1381.35,1077.08 1384.81,1077.08 C1387.34,1077.08 1389.45,1078.12 1391.14,1080.2 C1392.84,1082.28 1393.68,1084.67 1393.68,1087.34 C1393.68,1089.03 1393.13,1090.82 1392.03,1092.72 C1390.98,1094.47 1389.88,1095.83 1388.71,1096.81 C1388.06,1097.33 1386.4,1098.63 1383.73,1100.72 C1382.95,1101.3 1382.02,1101.98 1380.95,1102.76 C1379.88,1103.55 1379.21,1104.03 1378.95,1104.23 C1378.49,1104.49 1378.06,1105.01 1377.67,1105.8 C1377.22,1106.45 1376.7,1107 1376.1,1107.45 C1375.66,1107.85 1375.11,1108.05 1374.46,1108.05 C1373.81,1108.05 1373.28,1107.82 1372.89,1107.36 C1372.43,1106.9 1372.2,1106.28 1372.2,1105.5"/>
<path class="Accidental" d="M898.667,1110.39 C898.667,1111.63 898.05,1112.25 896.816,1112.25 C895.581,1112.25 894.964,1111.63 894.964,1110.39 L894.964,1095.94 L886.667,1099.06 L886.667,1114.87 C886.667,1116.11 886.047,1116.73 884.808,1116.73 C883.568,1116.73 882.948,1116.11 882.948,1114.87 L882.948,1100.33 L879.823,1101.5 C879.761,1101.56 879.501,1101.59 879.042,1101.59 C878.521,1101.59 878.066,1101.4 877.675,1101.01 C877.284,1100.62 877.089,1100.16 877.089,1099.64 L877.089,1093.59 C877.089,1092.61 877.511,1091.99 878.355,1091.73 L882.948,1090.17 L882.948,1074.15 L879.823,1075.23 C879.761,1075.3 879.501,1075.33 879.042,1075.33 C878.521,1075.33 878.066,1075.13 877.675,1074.74 C877.284,1074.35 877.089,1073.89 877.089,1073.37 L877.089,1067.31 C877.089,1066.4 877.511,1065.82 878.355,1065.56 L882.948,1063.8 L882.948,1048.08 C882.948,1046.84 883.568,1046.22 884.808,1046.22 C886.047,1046.22 886.667,1046.84 886.667,1048.08 L886.667,1062.53 L894.964,1059.4 L894.964,1043.59 C894.964,1042.35 895.581,1041.73 896.816,1041.73 C898.05,1041.73 898.667,1042.35 898.667,1043.59 L898.667,1058.14 L901.902,1056.97 C901.964,1056.9 902.188,1056.87 902.573,1056.87 C903.032,1056.87 903.521,1057.07 904.042,1057.45 C904.438,1057.85 904.636,1058.31 904.636,1058.83 L904.636,1064.87 C904.636,1065.79 904.178,1066.41 903.261,1066.73 L898.667,1068.3 L898.667,1084.31 L901.902,1083.23 C901.964,1083.17 902.188,1083.14 902.573,1083.14 C903.032,1083.14 903.521,1083.34 904.042,1083.73 C904.438,1084.12 904.636,1084.57 904.636,1085.09 L904.636,1091.15 C904.636,1092 904.178,1092.58 903.261,1092.9 L898.667,1094.67 L898.667,1110.39 M894.964,1069.76 L886.667,1072.69 L886.667,1088.7 L894.964,1085.78 L894.964,1069.76 "/>
<path class="Accidental" d="M2465.24,612.623 L2465.24,620.342 C2465.24,623.082 2465.37,625.264 2465.63,626.889 C2467.78,625.066 2469.31,623.701 2470.23,622.795 C2471.27,621.753 2472.31,620.318 2473.35,618.49 C2474.39,616.662 2474.91,614.837 2474.91,613.014 C2474.91,611.191 2474.52,609.628 2473.74,608.326 C2472.96,607.024 2471.92,606.373 2470.62,606.373 C2469.06,606.373 2467.75,606.962 2466.71,608.139 C2465.73,609.441 2465.24,610.936 2465.24,612.623 M2461.13,630.498 L2459.87,571.029 C2460.78,570.509 2461.7,570.248 2462.61,570.248 C2463.52,570.248 2464.43,570.509 2465.34,571.029 L2464.56,605.498 C2467.22,603.217 2470.28,602.076 2473.74,602.076 C2476.27,602.076 2478.39,603.118 2480.08,605.201 C2481.77,607.285 2482.62,609.665 2482.62,612.342 C2482.62,614.029 2482.07,615.821 2480.96,617.717 C2479.92,619.467 2478.82,620.832 2477.65,621.811 C2476.99,622.332 2475.33,623.634 2472.66,625.717 C2471.88,626.3 2470.96,626.983 2469.88,627.764 C2468.81,628.545 2468.14,629.035 2467.88,629.233 C2467.43,629.493 2467,630.014 2466.6,630.795 C2466.15,631.451 2465.63,632.003 2465.04,632.451 C2464.59,632.847 2464.04,633.045 2463.39,633.045 C2462.74,633.045 2462.22,632.816 2461.82,632.358 C2461.36,631.899 2461.13,631.279 2461.13,630.498"/>
<path class="Accidental" d="M2222.58,635.389 C2222.58,636.628 2221.97,637.248 2220.73,637.248 C2219.5,637.248 2218.88,636.628 2218.88,635.389 L2218.88,620.936 L2210.58,624.061 L2210.58,639.873 C2210.58,641.113 2209.96,641.733 2208.73,641.733 C2207.49,641.733 2206.87,641.113 2206.87,639.873 L2206.87,625.326 L2203.74,626.498 C2203.68,626.561 2203.42,626.592 2202.96,626.592 C2202.44,626.592 2201.98,626.397 2201.59,626.006 C2201.2,625.615 2201.01,625.16 2201.01,624.639 L2201.01,618.592 C2201.01,617.613 2201.43,616.993 2202.27,616.733 L2206.87,615.17 L2206.87,599.154 L2203.74,600.233 C2203.68,600.295 2203.42,600.326 2202.96,600.326 C2202.44,600.326 2201.98,600.131 2201.59,599.74 C2201.2,599.35 2201.01,598.894 2201.01,598.373 L2201.01,592.311 C2201.01,591.404 2201.43,590.821 2202.27,590.561 L2206.87,588.795 L2206.87,573.076 C2206.87,571.837 2207.49,571.217 2208.73,571.217 C2209.96,571.217 2210.58,571.837 2210.58,573.076 L2210.58,587.529 L2218.88,584.404 L2218.88,568.592 C2218.88,567.352 2219.5,566.733 2220.73,566.733 C2221.97,566.733 2222.58,567.352 2222.58,568.592 L2222.58,583.139 L2225.82,581.967 C2225.88,581.904 2226.11,581.873 2226.49,581.873 C2226.95,581.873 2227.44,582.066 2227.96,582.451 C2228.36,582.847 2228.55,583.305 2228.55,583.826 L2228.55,589.873 C2228.55,590.79 2228.09,591.41 2227.18,591.733 L2222.58,593.295 L2222.58,609.311 L2225.82,608.233 C2225.88,608.17 2226.11,608.139 2226.49,608.139 C2226.95,608.139 2227.44,608.337 2227.96,608.733 C2228.36,609.118 2228.55,609.571 2228.55,610.092 L2228.55,616.154 C2228.55,616.998 2228.09,617.581 2227.18,617.904 L2222.58,619.67 L2222.58,635.389 M2218.88,594.764 L2210.58,597.686 L2210.58,613.701 L2218.88,610.779 L2218.88,594.764 "/>
<path class="Accidental" d="M1717.87,635.389 C1717.87,636.628 1717.25,637.248 1716.01,637.248 C1714.78,637.248 1714.16,636.628 1714.16,635.389 L1714.16,620.936 L1705.87,624.061 L1705.87,639.873 C1705.87,641.113 1705.25,641.733 1704.01,641.733 C1702.77,641.733 1702.15,641.113 1702.15,639.873 L1702.15,625.326 L1699.02,626.498 C1698.96,626.561 1698.7,626.592 1698.24,626.592 C1697.72,626.592 1697.26,626.397 1696.87,626.006 C1696.48,625.615 1696.29,625.16 1696.29,624.639 L1696.29,618.592 C1696.29,617.613 1696.71,616.993 1697.55,616.733 L1702.15,615.17 L1702.15,599.154 L1699.02,600.233 C1698.96,600.295 1698.7,600.326 1698.24,600.326 C1697.72,600.326 1697.26,600.131 1696.87,599.74 C1696.48,599.35 1696.29,598.894 1696.29,598.373 L1696.29,592.311 C1696.29,591.404 1696.71,590.821 1697.55,590.561 L1702.15,588.795 L1702.15,573.076 C1702.15,571.837 1702.77,571.217 1704.01,571.217 C1705.25,571.217 1705.87,571.837 1705.87,573.076 L1705.87,587.529 L1714.16,584.404 L1714.16,568.592 C1714.16,567.352 1714.78,566.733 1716.01,566.733 C1717.25,566.733 1717.87,567.352 1717.87,568.592 L1717.87,583.139 L1721.1,581.967 C1721.16,581.904 1721.39,581.873 1721.77,581.873 C1722.23,581.873 1722.72,582.066 1723.24,582.451 C1723.64,582.847 1723.83,583.305 1723.83,583.826 L1723.83,589.873 C1723.83,590.79 1723.38,591.41 1722.46,591.733 L1717.87,593.295 L1717.87,609.311 L1721.1,608.233 C1721.16,608.17 1721.39,608.139 1721.77,608.139 C1722.23,608.139 1722.72,608.337 1723.24,608.733 C1723.64,609.118 1723.83,609.571 1723.83,610.092 L1723.83,616.154 C1723.83,616.998 1723.38,617.581 1722.46,617.904 L1717.87,619.67 L1717.87,635.389 M1714.16,594.764 L1705.87,597.686 L1705.87,613.701 L1714.16,610.779 L1714.16,594.764 "/>
<path class="Accidental" d="M1628.55,612.623 L1628.55,620.342 C1628.55,623.082 1628.68,625.264 1628.94,626.889 C1631.08,625.066 1632.61,623.701 1633.53,622.795 C1634.57,621.753 1635.61,620.318 1636.65,618.49 C1637.7,616.662 1638.22,614.837 1638.22,613.014 C1638.22,611.191 1637.83,609.628 1637.05,608.326 C1636.26,607.024 1635.22,606.373 1633.92,606.373 C1632.36,606.373 1631.06,606.962 1630.01,608.139 C1629.03,609.441 1628.55,610.936 1628.55,612.623 M1624.44,630.498 L1623.17,571.029 C1624.09,570.509 1625,570.248 1625.91,570.248 C1626.82,570.248 1627.73,570.509 1628.64,571.029 L1627.86,605.498 C1630.52,603.217 1633.59,602.076 1637.05,602.076 C1639.58,602.076 1641.69,603.118 1643.38,605.201 C1645.07,607.285 1645.92,609.665 1645.92,612.342 C1645.92,614.029 1645.37,615.821 1644.26,617.717 C1643.22,619.467 1642.12,620.832 1640.95,621.811 C1640.3,622.332 1638.63,623.634 1635.97,625.717 C1635.19,626.3 1634.26,626.983 1633.19,627.764 C1632.11,628.545 1631.45,629.035 1631.19,629.233 C1630.73,629.493 1630.3,630.014 1629.9,630.795 C1629.46,631.451 1628.94,632.003 1628.34,632.451 C1627.89,632.847 1627.34,633.045 1626.69,633.045 C1626.04,633.045 1625.52,632.816 1625.12,632.358 C1624.67,631.899 1624.44,631.279 1624.44,630.498"/>
<path class="Accidental" d="M1218.98,612.623 L1218.98,620.342 C1218.98,623.082 1219.11,625.264 1219.37,626.889 C1221.51,625.066 1223.04,623.701 1223.96,622.795 C1225,621.753 1226.04,620.318 1227.09,618.49 C1228.13,616.662 1228.65,614.837 1228.65,613.014 C1228.65,611.191 1228.26,609.628 1227.48,608.326 C1226.7,607.024 1225.65,606.373 1224.35,606.373 C1222.79,606.373 1221.49,606.962 1220.45,608.139 C1219.47,609.441 1218.98,610.936 1218.98,612.623 M1214.87,630.498 L1213.6,571.029 C1214.52,570.509 1215.43,570.248 1216.34,570.248 C1217.26,570.248 1218.16,570.509 1219.07,571.029 L1218.29,605.498 C1220.96,603.217 1224.02,602.076 1227.48,602.076 C1230.01,602.076 1232.12,603.118 1233.81,605.201 C1235.51,607.285 1236.35,609.665 1236.35,612.342 C1236.35,614.029 1235.8,615.821 1234.7,617.717 C1233.65,619.467 1232.55,620.832 1231.38,621.811 C1230.73,622.332 1229.07,623.634 1226.4,625.717 C1225.62,626.3 1224.69,626.983 1223.62,627.764 C1222.54,628.545 1221.88,629.035 1221.62,629.233 C1221.16,629.493 1220.73,630.014 1220.34,630.795 C1219.89,631.451 1219.37,632.003 1218.77,632.451 C1218.33,632.847 1217.78,633.045 1217.13,633.045 C1216.47,633.045 1215.95,632.816 1215.55,632.358 C1215.1,631.899 1214.87,631.279 1214.87,630.498"/>
<path class="Accidental" d="M976.318,635.389 C976.318,636.628 975.701,637.248 974.467,637.248 C973.232,637.248 972.615,636.628 972.615,635.389 L972.615,620.936 L964.318,624.061 L964.318,639.873 C964.318,641.113 963.698,641.733 962.459,641.733 C961.219,641.733 960.6,641.113 960.6,639.873 L960.6,625.326 L957.475,626.498 C957.412,626.561 957.152,626.592 956.693,626.592 C956.172,626.592 955.717,626.397 955.326,626.006 C954.935,625.615 954.74,625.16 954.74,624.639 L954.74,618.592 C954.74,617.613 955.162,616.993 956.006,616.733 L960.6,615.17 L960.6,599.154 L957.475,600.233 C957.412,600.295 957.152,600.326 956.693,600.326 C956.172,600.326 955.717,600.131 955.326,599.74 C954.935,599.35 954.74,598.894 954.74,598.373 L954.74,592.311 C954.74,591.404 955.162,590.821 956.006,590.561 L960.6,588.795 L960.6,573.076 C960.6,571.837 961.219,571.217 962.459,571.217 C963.698,571.217 964.318,571.837 964.318,573.076 L964.318,587.529 L972.615,584.404 L972.615,568.592 C972.615,567.352 973.232,566.733 974.467,566.733 C975.701,566.733 976.318,567.352 976.318,568.592 L976.318,583.139 L979.553,581.967 C979.615,581.904 979.839,581.873 980.225,581.873 C980.683,581.873 981.172,582.066 981.693,582.451 C982.089,582.847 982.287,583.305 982.287,583.826 L982.287,589.873 C982.287,590.79 981.829,591.41 980.912,591.733 L976.318,593.295 L976.318,609.311 L979.553,608.233 C979.615,608.17 979.839,608.139 980.225,608.139 C980.683,608.139 981.172,608.337 981.693,608.733 C982.089,609.118 982.287,609.571 982.287,610.092 L982.287,616.154 C982.287,616.998 981.829,617.581 980.912,617.904 L976.318,619.67 L976.318,635.389 M972.615,594.764 L964.318,597.686 L964.318,613.701 L972.615,610.779 L972.615,594.764 "/>
<path class="Accidental" d="M471.6,635.389 C471.6,636.628 470.982,637.248 469.748,637.248 C468.514,637.248 467.897,636.628 467.897,635.389 L467.897,620.936 L459.6,624.061 L459.6,639.873 C459.6,641.113 458.98,641.733 457.74,641.733 C456.501,641.733 455.881,641.113 455.881,639.873 L455.881,625.326 L452.756,626.498 C452.693,626.561 452.433,626.592 451.975,626.592 C451.454,626.592 450.998,626.397 450.607,626.006 C450.217,625.615 450.022,625.16 450.022,624.639 L450.022,618.592 C450.022,617.613 450.443,616.993 451.287,616.733 L455.881,615.17 L455.881,599.154 L452.756,600.233 C452.693,600.295 452.433,600.326 451.975,600.326 C451.454,600.326 450.998,600.131 450.607,599.74 C450.217,599.35 450.022,598.894 450.022,598.373 L450.022,592.311 C450.022,591.404 450.443,590.821 451.287,590.561 L455.881,588.795 L455.881,573.076 C455.881,571.837 456.501,571.217 457.74,571.217 C458.98,571.217 459.6,571.837 459.6,573.076 L459.6,587.529 L467.897,584.404 L467.897,568.592 C467.897,567.352 468.514,566.733 469.748,566.733 C470.982,566.733 471.6,567.352 471.6,568.592 L471.6,583.139 L474.834,581.967 C474.897,581.904 475.12,581.873 475.506,581.873 C475.964,581.873 476.454,582.066 476.975,582.451 C477.37,582.847 477.568,583.305 477.568,583.826 L477.568,589.873 C477.568,590.79 477.11,591.41 476.193,591.733 L471.6,593.295 L471.6,609.311 L474.834,608.233 C474.897,608.17 475.12,608.139 475.506,608.139 C475.964,608.139 476.454,608.337 476.975,608.733 C477.37,609.118 477.568,609.571 477.568,610.092 L477.568,616.154 C477.568,616.998 477.11,617.581 476.193,617.904 L471.6,619.67 L471.6,635.389 M467.897,594.764 L459.6,597.686 L459.6,613.701 L467.897,610.779 L467.897,594.764 "/>
<path class="Accidental" d="M382.279,612.623 L382.279,620.342 C382.279,623.082 382.409,625.264 382.67,626.889 C384.816,625.066 386.347,623.701 387.264,622.795 C388.305,621.753 389.347,620.318 390.389,618.49 C391.43,616.662 391.951,614.837 391.951,613.014 C391.951,611.191 391.561,609.628 390.779,608.326 C389.998,607.024 388.956,606.373 387.654,606.373 C386.092,606.373 384.79,606.962 383.748,608.139 C382.769,609.441 382.279,610.936 382.279,612.623 M378.17,630.498 L376.904,571.029 C377.821,570.509 378.735,570.248 379.646,570.248 C380.558,570.248 381.467,570.509 382.373,571.029 L381.592,605.498 C384.258,603.217 387.321,602.076 390.779,602.076 C393.311,602.076 395.423,603.118 397.115,605.201 C398.808,607.285 399.654,609.665 399.654,612.342 C399.654,614.029 399.102,615.821 397.998,617.717 C396.956,619.467 395.852,620.832 394.686,621.811 C394.029,622.332 392.368,623.634 389.701,625.717 C388.92,626.3 387.993,626.983 386.92,627.764 C385.847,628.545 385.18,629.035 384.92,629.233 C384.462,629.493 384.034,630.014 383.639,630.795 C383.191,631.451 382.67,632.003 382.076,632.451 C381.628,632.847 381.079,633.045 380.428,633.045 C379.777,633.045 379.253,632.816 378.857,632.358 C378.399,631.899 378.17,631.279 378.17,630.498"/>
<polyline class="Stem" fill="none" stroke="#000000" stroke-width="3.25" stroke-linecap="round" stroke-linejoin="bevel" points="2744.5,1137.04 2744.5,1035.48"/>
<polyline class="Stem" fill="none" stroke="#000000" stroke-width="3.25" stroke-linecap="round" stroke-linejoin="bevel" points="2666.16,1099.54 2666.16,1035.48"/>
<polyline class="Stem" fill="none" stroke="#000000" stroke-width="3.25" stroke-linecap="round" stroke-linejoin="bevel" points="2587.82,1099.54 2587.82,1035.48"/>
<polyline class="Stem" fill="none" stroke="#000000" stroke-width="3.25" stroke-linecap="round" stroke-linejoin="bevel" points="2509.48,1112.04 2509.48,1022.98"/>
<polyline class="Stem" fill="none" stroke="#000000" stroke-width="3.25" stroke-linecap="round" stroke-linejoin="bevel" points="2431.14,1087.04 2431.14,1010.48"/>
<polyline class="Stem" fill="none" stroke="#000000" stroke-width="3.25" stroke-linecap="round" stroke-linejoin="bevel" points="2352.8,1074.54 2352.8,997.983"/>
<polyline class="Stem" fill="none" stroke="#000000" stroke-width="3.25" stroke-linecap="round" stroke-linejoin="bevel" points="2244.79,1071.43 2244.79,1141.73"/>
<polyline class="Stem" fill="none" stroke="#000000" stroke-width="3.25" stroke-linecap="round" stroke-linejoin="bevel" points="2166.45,1058.93 2166.45,1144.86"/>
<polyline class="Stem" fill="none" stroke="#000000" stroke-width="3.25" stroke-linecap="round" stroke-linejoin="bevel" points="2088.11,1083.93 2088.11,1147.98"/>
<polyline class="Stem" fill="none" stroke="#000000" stroke-width="3.25" stroke-linecap="round" stroke-linejoin="bevel" points="1971.34,1108.93 1971.34,1172.98"/>
<polyline class="Stem" fill="none" stroke="#000000" stroke-width="3.25" stroke-linecap="round" stroke-linejoin="bevel" points="1904.61,1096.43 1904.61,1160.48"/>
<polyline class="Stem" fill="none" stroke="#000000" stroke-width="3.25" stroke-linecap="round" stroke-linejoin="bevel" points="1837.88,1071.43 1837.88,1147.98"/>
<polyline class="Stem" fill="none" stroke="#000000" stroke-width="3.25" stroke-linecap="round" stroke-linejoin="bevel" points="1731.11,1096.43 1731.11,1169.86"/>
<polyline class="Stem" fill="none" stroke="#000000" stroke-width="3.25" stroke-linecap="round" stroke-linejoin="bevel" points="1624.34,1096.43 1624.34,1169.86"/>
<polyline class="Stem" fill="none" stroke="#000000" stroke-width="3.25" stroke-linecap="round" stroke-linejoin="bevel" points="1517.57,1096.43 1517.57,1169.86"/>
<polyline class="Stem" fill="none" stroke="#000000" stroke-width="3.25" stroke-linecap="round" stroke-linejoin="bevel" points="1401.01,1096.43 1401.01,1172.98"/>
<polyline class="Stem" fill="none" stroke="#000000" stroke-width="3.25" stroke-linecap="round" stroke-linejoin="bevel" points="1328.67,1083.93 1328.67,1157.31"/>
<polyline class="Stem" fill="none" stroke="#000000" stroke-width="3.25" stroke-linecap="round" stroke-linejoin="bevel" points="1256.79,1058.93 1256.79,1141.73"/>
<polyline class="Stem" fill="none" stroke="#000000" stroke-width="3.25" stroke-linecap="round" stroke-linejoin="bevel" points="1141.78,1083.93 1141.78,1160.48"/>
<polyline class="Stem" fill="none" stroke="#000000" stroke-width="3.25" stroke-linecap="round" stroke-linejoin="bevel" points="1026.77,1083.93 1026.77,1160.48"/>
<polyline class="Stem" fill="none" stroke="#000000" stroke-width="3.25" stroke-linecap="round" stroke-linejoin="bevel" points="911.753,1083.93 911.753,1160.48"/>
<polyline class="Stem" fill="none" stroke="#000000" stroke-width="3.25" stroke-linecap="round" stroke-linejoin="bevel" points="794.983,1071.43 794.983,1141.73"/>
<polyline class="Stem" fill="none" stroke="#000000" stroke-width="3.25" stroke-linecap="round" stroke-linejoin="bevel" points="728.251,1058.93 728.251,1129.23"/>
<polyline class="Stem" fill="none" stroke="#000000" stroke-width="3.25" stroke-linecap="round" stroke-linejoin="bevel" points="661.52,1046.43 661.52,1116.73"/>
<polyline class="Stem" fill="none" stroke="#000000" stroke-width="3.25" stroke-linecap="round" stroke-linejoin="bevel" points="554.749,1071.43 554.749,1151.11"/>
<polyline class="Stem" fill="none" stroke="#000000" stroke-width="3.25" stroke-linecap="round" stroke-linejoin="bevel" points="447.979,1071.43 447.979,1151.11"/>
<polyline class="Stem" fill="none" stroke="#000000" stroke-width="3.25" stroke-linecap="round" stroke-linejoin="bevel" points="341.209,1071.43 341.209,1151.11"/>
<polyline class="Stem" fill="none" stroke="#000000" stroke-width="3.25" stroke-linecap="round" stroke-linejoin="bevel" points="2762.2,637.037 2762.2,560.483"/>
<polyline class="Stem" fill="none" stroke="#000000" stroke-width="3.25" stroke-linecap="round" stroke-linejoin="bevel" points="2701.55,624.537 2701.55,560.483"/>
<polyline class="Stem" fill="none" stroke="#000000" stroke-width="3.25" stroke-linecap="round" stroke-linejoin="bevel" points="2640.9,624.537 2640.9,560.483"/>
<polyline class="Stem" fill="none" stroke="#000000" stroke-width="3.25" stroke-linecap="round" stroke-linejoin="bevel" points="2580.26,624.537 2580.26,547.983"/>
<polyline class="Stem" fill="none" stroke="#000000" stroke-width="3.25" stroke-linecap="round" stroke-linejoin="bevel" points="2519.61,612.037 2519.61,541.733"/>
<polyline class="Stem" fill="none" stroke="#000000" stroke-width="3.25" stroke-linecap="round" stroke-linejoin="bevel" points="2417.61,608.928 2417.61,672.983"/>
<polyline class="Stem" fill="none" stroke="#000000" stroke-width="3.25" stroke-linecap="round" stroke-linejoin="bevel" points="2356.96,596.428 2356.96,666.733"/>
<polyline class="Stem" fill="none" stroke="#000000" stroke-width="3.25" stroke-linecap="round" stroke-linejoin="bevel" points="2296.32,583.928 2296.32,660.483"/>
<polyline class="Stem" fill="none" stroke="#000000" stroke-width="3.25" stroke-linecap="round" stroke-linejoin="bevel" points="2235.67,608.928 2235.67,672.983"/>
<polyline class="Stem" fill="none" stroke="#000000" stroke-width="3.25" stroke-linecap="round" stroke-linejoin="bevel" points="2120.68,596.428 2120.68,666.733"/>
<polyline class="Stem" fill="none" stroke="#000000" stroke-width="3.25" stroke-linecap="round" stroke-linejoin="bevel" points="2055.72,583.928 2055.72,654.233"/>
<polyline class="Stem" fill="none" stroke="#000000" stroke-width="3.25" stroke-linecap="round" stroke-linejoin="bevel" points="1990.77,571.428 1990.77,641.733"/>
<polyline class="Stem" fill="none" stroke="#000000" stroke-width="3.25" stroke-linecap="round" stroke-linejoin="bevel" points="1925.81,633.928 1925.81,697.983"/>
<polyline class="Stem" fill="none" stroke="#000000" stroke-width="3.25" stroke-linecap="round" stroke-linejoin="bevel" points="1860.86,583.928 1860.86,672.983"/>
<polyline class="Stem" fill="none" stroke="#000000" stroke-width="3.25" stroke-linecap="round" stroke-linejoin="bevel" points="1795.91,596.428 1795.91,666.733"/>
<polyline class="Stem" fill="none" stroke="#000000" stroke-width="3.25" stroke-linecap="round" stroke-linejoin="bevel" points="1730.95,608.928 1730.95,672.983"/>
<polyline class="Stem" fill="none" stroke="#000000" stroke-width="3.25" stroke-linecap="round" stroke-linejoin="bevel" points="1682.91,612.037 1682.91,541.733"/>
<polyline class="Stem" fill="none" stroke="#000000" stroke-width="3.25" stroke-linecap="round" stroke-linejoin="bevel" points="1610.58,624.537 1610.58,547.983"/>
<polyline class="Stem" fill="none" stroke="#000000" stroke-width="3.25" stroke-linecap="round" stroke-linejoin="bevel" points="1486.27,633.928 1486.27,710.483"/>
<polyline class="Stem" fill="none" stroke="#000000" stroke-width="3.25" stroke-linecap="round" stroke-linejoin="bevel" points="1425.62,583.928 1425.62,694.858"/>
<polyline class="Stem" fill="none" stroke="#000000" stroke-width="3.25" stroke-linecap="round" stroke-linejoin="bevel" points="1364.97,583.928 1364.97,679.233"/>
<polyline class="Stem" fill="none" stroke="#000000" stroke-width="3.25" stroke-linecap="round" stroke-linejoin="bevel" points="1333.99,624.537 1333.99,547.983"/>
<polyline class="Stem" fill="none" stroke="#000000" stroke-width="3.25" stroke-linecap="round" stroke-linejoin="bevel" points="1273.34,612.037 1273.34,541.733"/>
<polyline class="Stem" fill="none" stroke="#000000" stroke-width="3.25" stroke-linecap="round" stroke-linejoin="bevel" points="1171.34,608.928 1171.34,672.983"/>
<polyline class="Stem" fill="none" stroke="#000000" stroke-width="3.25" stroke-linecap="round" stroke-linejoin="bevel" points="1110.7,596.428 1110.7,666.733"/>
<polyline class="Stem" fill="none" stroke="#000000" stroke-width="3.25" stroke-linecap="round" stroke-linejoin="bevel" points="1050.05,583.928 1050.05,660.483"/>
<polyline class="Stem" fill="none" stroke="#000000" stroke-width="3.25" stroke-linecap="round" stroke-linejoin="bevel" points="989.404,608.928 989.404,672.983"/>
<polyline class="Stem" fill="none" stroke="#000000" stroke-width="3.25" stroke-linecap="round" stroke-linejoin="bevel" points="874.411,596.428 874.411,666.733"/>
<polyline class="Stem" fill="none" stroke="#000000" stroke-width="3.25" stroke-linecap="round" stroke-linejoin="bevel" points="809.457,583.928 809.457,654.233"/>
<polyline class="Stem" fill="none" stroke="#000000" stroke-width="3.25" stroke-linecap="round" stroke-linejoin="bevel" points="744.502,571.428 744.502,641.733"/>
<polyline class="Stem" fill="none" stroke="#000000" stroke-width="3.25" stroke-linecap="round" stroke-linejoin="bevel" points="679.548,633.928 679.548,697.983"/>
<polyline class="Stem" fill="none" stroke="#000000" stroke-width="3.25" stroke-linecap="round" stroke-linejoin="bevel" points="614.594,583.928 614.594,672.983"/>
<polyline class="Stem" fill="none" stroke="#000000" stroke-width="3.25" stroke-linecap="round" stroke-linejoin="bevel" points="549.64,596.428 549.64,666.733"/>
<polyline class="Stem" fill="none" stroke="#000000" stroke-width="3.25" stroke-linecap="round" stroke-linejoin="bevel" points="484.686,608.928 484.686,672.983"/>
<polyline class="Stem" fill="none" stroke="#000000" stroke-width="3.25" stroke-linecap="round" stroke-linejoin="bevel" points="436.646,612.037 436.646,541.733"/>
<polyline class="Stem" fill="none" stroke="#000000" stroke-width="3.25" stroke-linecap="round" stroke-linejoin="bevel" points="364.311,624.537 364.311,547.983"/>
<path class="Note" d="M2735.18,1127.97 C2738.31,1127.97 2740.95,1128.78 2743.1,1130.4 C2745.11,1132.17 2746.12,1134.38 2746.12,1137.05 C2746.12,1141.53 2743.81,1145.73 2739.2,1149.64 C2734.51,1153.55 2729.49,1155.5 2724.15,1155.5 C2721.03,1155.5 2718.39,1154.69 2716.24,1153.06 C2714.22,1151.3 2713.21,1149.09 2713.21,1146.42 C2713.21,1141.93 2715.56,1137.73 2720.24,1133.83 C2724.81,1129.92 2729.79,1127.97 2735.18,1127.97"/>
<path class="Note" d="M2656.84,1090.47 C2659.97,1090.47 2662.61,1091.28 2664.76,1092.9 C2666.77,1094.67 2667.78,1096.88 2667.78,1099.55 C2667.78,1104.03 2665.47,1108.23 2660.86,1112.14 C2656.17,1116.05 2651.15,1118 2645.81,1118 C2642.68,1118 2640.05,1117.19 2637.9,1115.56 C2635.88,1113.8 2634.87,1111.59 2634.87,1108.92 C2634.87,1104.43 2637.22,1100.23 2641.9,1096.33 C2646.47,1092.42 2651.44,1090.47 2656.84,1090.47"/>
<path class="Note" d="M2578.5,1090.47 C2581.62,1090.47 2584.27,1091.28 2586.42,1092.9 C2588.43,1094.67 2589.44,1096.88 2589.44,1099.55 C2589.44,1104.03 2587.13,1108.23 2582.52,1112.14 C2577.83,1116.05 2572.81,1118 2567.47,1118 C2564.34,1118 2561.71,1117.19 2559.56,1115.56 C2557.54,1113.8 2556.53,1111.59 2556.53,1108.92 C2556.53,1104.43 2558.87,1100.23 2563.56,1096.33 C2568.12,1092.42 2573.1,1090.47 2578.5,1090.47"/>
<path class="Note" d="M2500.16,1102.97 C2503.28,1102.97 2505.92,1103.78 2508.08,1105.4 C2510.09,1107.17 2511.1,1109.38 2511.1,1112.05 C2511.1,1116.53 2508.79,1120.73 2504.17,1124.64 C2499.49,1128.55 2494.47,1130.5 2489.13,1130.5 C2486,1130.5 2483.37,1129.69 2481.22,1128.06 C2479.2,1126.3 2478.19,1124.09 2478.19,1121.42 C2478.19,1116.93 2480.53,1112.73 2485.22,1108.83 C2489.78,1104.92 2494.76,1102.97 2500.16,1102.97"/>
<path class="Note" d="M2421.82,1077.97 C2424.94,1077.97 2427.58,1078.78 2429.74,1080.4 C2431.75,1082.17 2432.76,1084.38 2432.76,1087.05 C2432.76,1091.53 2430.45,1095.73 2425.83,1099.64 C2421.15,1103.55 2416.13,1105.5 2410.79,1105.5 C2407.66,1105.5 2405.03,1104.69 2402.88,1103.06 C2400.86,1101.3 2399.85,1099.09 2399.85,1096.42 C2399.85,1091.93 2402.19,1087.73 2406.88,1083.83 C2411.44,1079.92 2416.42,1077.97 2421.82,1077.97"/>
<path class="Note" d="M2343.48,1065.47 C2346.6,1065.47 2349.24,1066.28 2351.4,1067.9 C2353.41,1069.67 2354.41,1071.88 2354.41,1074.55 C2354.41,1079.03 2352.11,1083.23 2347.49,1087.14 C2342.8,1091.05 2337.79,1093 2332.45,1093 C2329.32,1093 2326.68,1092.19 2324.54,1090.56 C2322.52,1088.8 2321.51,1086.59 2321.51,1083.92 C2321.51,1079.43 2323.85,1075.23 2328.54,1071.33 C2333.1,1067.42 2338.08,1065.47 2343.48,1065.47"/>
<path class="Note" d="M2265.14,1052.97 C2268.26,1052.97 2270.9,1053.78 2273.06,1055.4 C2275.07,1057.17 2276.07,1059.38 2276.07,1062.05 C2276.07,1066.53 2273.77,1070.73 2269.15,1074.64 C2264.46,1078.55 2259.45,1080.5 2254.1,1080.5 C2250.98,1080.5 2248.34,1079.69 2246.2,1078.06 C2244.18,1076.3 2243.17,1074.09 2243.17,1071.42 C2243.17,1066.93 2245.51,1062.73 2250.2,1058.83 C2254.76,1054.92 2259.74,1052.97 2265.14,1052.97"/>
<path class="Note" d="M2186.79,1040.47 C2189.92,1040.47 2192.56,1041.28 2194.72,1042.9 C2196.73,1044.67 2197.73,1046.88 2197.73,1049.55 C2197.73,1054.03 2195.42,1058.23 2190.81,1062.14 C2186.12,1066.05 2181.11,1068 2175.76,1068 C2172.64,1068 2170,1067.19 2167.86,1065.56 C2165.84,1063.8 2164.83,1061.59 2164.83,1058.92 C2164.83,1054.43 2167.17,1050.23 2171.86,1046.33 C2176.42,1042.42 2181.4,1040.47 2186.79,1040.47"/>
<path class="Note" d="M2108.45,1065.47 C2111.58,1065.47 2114.22,1066.28 2116.38,1067.9 C2118.39,1069.67 2119.39,1071.88 2119.39,1074.55 C2119.39,1079.03 2117.08,1083.23 2112.47,1087.14 C2107.78,1091.05 2102.77,1093 2097.42,1093 C2094.3,1093 2091.66,1092.19 2089.52,1090.56 C2087.5,1088.8 2086.48,1086.59 2086.48,1083.92 C2086.48,1079.43 2088.83,1075.23 2093.52,1071.33 C2098.08,1067.42 2103.06,1065.47 2108.45,1065.47"/>
<path class="Note" d="M1991.68,1090.47 C1994.81,1090.47 1997.45,1091.28 1999.61,1092.9 C2001.62,1094.67 2002.62,1096.88 2002.62,1099.55 C2002.62,1104.03 2000.31,1108.23 1995.7,1112.14 C1991.01,1116.05 1986,1118 1980.65,1118 C1977.53,1118 1974.89,1117.19 1972.75,1115.56 C1970.72,1113.8 1969.71,1111.59 1969.71,1108.92 C1969.71,1104.43 1972.06,1100.23 1976.75,1096.33 C1981.31,1092.42 1986.29,1090.47 1991.68,1090.47"/>
<path class="Note" d="M1924.95,1077.97 C1928.08,1077.97 1930.72,1078.78 1932.87,1080.4 C1934.88,1082.17 1935.89,1084.38 1935.89,1087.05 C1935.89,1091.53 1933.58,1095.73 1928.97,1099.64 C1924.28,1103.55 1919.26,1105.5 1913.92,1105.5 C1910.8,1105.5 1908.16,1104.69 1906.01,1103.06 C1903.99,1101.3 1902.98,1099.09 1902.98,1096.42 C1902.98,1091.93 1905.33,1087.73 1910.01,1083.83 C1914.58,1079.92 1919.56,1077.97 1924.95,1077.97"/>
<path class="Note" d="M1858.22,1052.97 C1861.35,1052.97 1863.99,1053.78 1866.14,1055.4 C1868.15,1057.17 1869.16,1059.38 1869.16,1062.05 C1869.16,1066.53 1866.85,1070.73 1862.24,1074.64 C1857.55,1078.55 1852.53,1080.5 1847.19,1080.5 C1844.06,1080.5 1841.43,1079.69 1839.28,1078.06 C1837.26,1076.3 1836.25,1074.09 1836.25,1071.42 C1836.25,1066.93 1838.6,1062.73 1843.28,1058.83 C1847.85,1054.92 1852.82,1052.97 1858.22,1052.97"/>
<path class="Note" d="M1751.45,1077.97 C1754.58,1077.97 1757.22,1078.78 1759.37,1080.4 C1761.38,1082.17 1762.39,1084.38 1762.39,1087.05 C1762.39,1091.53 1760.08,1095.73 1755.47,1099.64 C1750.78,1103.55 1745.76,1105.5 1740.42,1105.5 C1737.29,1105.5 1734.66,1104.69 1732.51,1103.06 C1730.49,1101.3 1729.48,1099.09 1729.48,1096.42 C1729.48,1091.93 1731.83,1087.73 1736.51,1083.83 C1741.08,1079.92 1746.05,1077.97 1751.45,1077.97"/>
<path class="Note" d="M1644.68,1077.97 C1647.8,1077.97 1650.45,1078.78 1652.6,1080.4 C1654.61,1082.17 1655.62,1084.38 1655.62,1087.05 C1655.62,1091.53 1653.31,1095.73 1648.7,1099.64 C1644.01,1103.55 1638.99,1105.5 1633.65,1105.5 C1630.52,1105.5 1627.89,1104.69 1625.74,1103.06 C1623.72,1101.3 1622.71,1099.09 1622.71,1096.42 C1622.71,1091.93 1625.05,1087.73 1629.74,1083.83 C1634.3,1079.92 1639.28,1077.97 1644.68,1077.97"/>
<path class="Note" d="M1537.91,1077.97 C1541.03,1077.97 1543.68,1078.78 1545.83,1080.4 C1547.84,1082.17 1548.85,1084.38 1548.85,1087.05 C1548.85,1091.53 1546.54,1095.73 1541.93,1099.64 C1537.24,1103.55 1532.22,1105.5 1526.88,1105.5 C1523.75,1105.5 1521.12,1104.69 1518.97,1103.06 C1516.95,1101.3 1515.94,1099.09 1515.94,1096.42 C1515.94,1091.93 1518.28,1087.73 1522.97,1083.83 C1527.53,1079.92 1532.51,1077.97 1537.91,1077.97"/>
<path class="Note" d="M1421.35,1077.97 C1424.48,1077.97 1427.12,1078.78 1429.28,1080.4 C1431.29,1082.17 1432.29,1084.38 1432.29,1087.05 C1432.29,1091.53 1429.98,1095.73 1425.37,1099.64 C1420.68,1103.55 1415.67,1105.5 1410.32,1105.5 C1407.2,1105.5 1404.56,1104.69 1402.42,1103.06 C1400.4,1101.3 1399.39,1099.09 1399.39,1096.42 C1399.39,1091.93 1401.73,1087.73 1406.42,1083.83 C1410.98,1079.92 1415.96,1077.97 1421.35,1077.97"/>
<path class="Note" d="M1349.02,1065.47 C1352.14,1065.47 1354.78,1066.28 1356.94,1067.9 C1358.95,1069.67 1359.96,1071.88 1359.96,1074.55 C1359.96,1079.03 1357.65,1083.23 1353.03,1087.14 C1348.35,1091.05 1343.33,1093 1337.99,1093 C1334.86,1093 1332.23,1092.19 1330.08,1090.56 C1328.06,1088.8 1327.05,1086.59 1327.05,1083.92 C1327.05,1079.43 1329.39,1075.23 1334.08,1071.33 C1338.64,1067.42 1343.62,1065.47 1349.02,1065.47"/>
<path class="Note" d="M1277.14,1040.47 C1280.26,1040.47 1282.9,1041.28 1285.06,1042.9 C1287.07,1044.67 1288.07,1046.88 1288.07,1049.55 C1288.07,1054.03 1285.77,1058.23 1281.15,1062.14 C1276.46,1066.05 1271.45,1068 1266.1,1068 C1262.98,1068 1260.34,1067.19 1258.2,1065.56 C1256.18,1063.8 1255.17,1061.59 1255.17,1058.92 C1255.17,1054.43 1257.51,1050.23 1262.2,1046.33 C1266.76,1042.42 1271.74,1040.47 1277.14,1040.47"/>
<path class="Note" d="M1162.12,1065.47 C1165.25,1065.47 1167.89,1066.28 1170.04,1067.9 C1172.05,1069.67 1173.06,1071.88 1173.06,1074.55 C1173.06,1079.03 1170.75,1083.23 1166.14,1087.14 C1161.45,1091.05 1156.44,1093 1151.09,1093 C1147.97,1093 1145.33,1092.19 1143.19,1090.56 C1141.16,1088.8 1140.15,1086.59 1140.15,1083.92 C1140.15,1079.43 1142.5,1075.23 1147.19,1071.33 C1151.75,1067.42 1156.73,1065.47 1162.12,1065.47"/>
<path class="Note" d="M1047.11,1065.47 C1050.23,1065.47 1052.88,1066.28 1055.03,1067.9 C1057.04,1069.67 1058.05,1071.88 1058.05,1074.55 C1058.05,1079.03 1055.74,1083.23 1051.13,1087.14 C1046.44,1091.05 1041.42,1093 1036.08,1093 C1032.95,1093 1030.32,1092.19 1028.17,1090.56 C1026.15,1088.8 1025.14,1086.59 1025.14,1083.92 C1025.14,1079.43 1027.48,1075.23 1032.17,1071.33 C1036.73,1067.42 1041.71,1065.47 1047.11,1065.47"/>
<path class="Note" d="M932.097,1065.47 C935.222,1065.47 937.863,1066.28 940.019,1067.9 C942.029,1069.67 943.034,1071.88 943.034,1074.55 C943.034,1079.03 940.727,1083.23 936.113,1087.14 C931.425,1091.05 926.409,1093 921.066,1093 C917.941,1093 915.305,1092.19 913.159,1090.56 C911.139,1088.8 910.128,1086.59 910.128,1083.92 C910.128,1079.43 912.472,1075.23 917.159,1071.33 C921.722,1067.42 926.701,1065.47 932.097,1065.47"/>
<path class="Note" d="M815.326,1052.97 C818.451,1052.97 821.092,1053.78 823.248,1055.4 C825.259,1057.17 826.264,1059.38 826.264,1062.05 C826.264,1066.53 823.957,1070.73 819.342,1074.64 C814.655,1078.55 809.639,1080.5 804.295,1080.5 C801.17,1080.5 798.535,1079.69 796.389,1078.06 C794.368,1076.3 793.358,1074.09 793.358,1071.42 C793.358,1066.93 795.701,1062.73 800.389,1058.83 C804.951,1054.92 809.931,1052.97 815.326,1052.97"/>
<path class="Note" d="M748.595,1040.47 C751.72,1040.47 754.361,1041.28 756.517,1042.9 C758.527,1044.67 759.532,1046.88 759.532,1049.55 C759.532,1054.03 757.225,1058.23 752.611,1062.14 C747.923,1066.05 742.907,1068 737.564,1068 C734.439,1068 731.803,1067.19 729.657,1065.56 C727.637,1063.8 726.626,1061.59 726.626,1058.92 C726.626,1054.43 728.97,1050.23 733.657,1046.33 C738.22,1042.42 743.199,1040.47 748.595,1040.47"/>
<path class="Note" d="M681.864,1027.97 C684.989,1027.97 687.629,1028.78 689.785,1030.4 C691.796,1032.17 692.801,1034.38 692.801,1037.05 C692.801,1041.53 690.494,1045.73 685.879,1049.64 C681.192,1053.55 676.176,1055.5 670.832,1055.5 C667.707,1055.5 665.072,1054.69 662.926,1053.06 C660.905,1051.3 659.895,1049.09 659.895,1046.42 C659.895,1041.93 662.239,1037.73 666.926,1033.83 C671.489,1029.92 676.468,1027.97 681.864,1027.97"/>
<path class="Note" d="M575.093,1052.97 C578.218,1052.97 580.859,1053.78 583.015,1055.4 C585.026,1057.17 586.031,1059.38 586.031,1062.05 C586.031,1066.53 583.723,1070.73 579.109,1074.64 C574.421,1078.55 569.406,1080.5 564.062,1080.5 C560.937,1080.5 558.302,1079.69 556.156,1078.06 C554.135,1076.3 553.124,1074.09 553.124,1071.42 C553.124,1066.93 555.468,1062.73 560.156,1058.83 C564.718,1054.92 569.697,1052.97 575.093,1052.97"/>
<path class="Note" d="M468.323,1052.97 C471.448,1052.97 474.089,1053.78 476.245,1055.4 C478.255,1057.17 479.26,1059.38 479.26,1062.05 C479.26,1066.53 476.953,1070.73 472.339,1074.64 C467.651,1078.55 462.635,1080.5 457.292,1080.5 C454.167,1080.5 451.531,1079.69 449.385,1078.06 C447.365,1076.3 446.354,1074.09 446.354,1071.42 C446.354,1066.93 448.698,1062.73 453.385,1058.83 C457.948,1054.92 462.927,1052.97 468.323,1052.97"/>
<path class="Note" d="M361.553,1052.97 C364.678,1052.97 367.318,1053.78 369.475,1055.4 C371.485,1057.17 372.49,1059.38 372.49,1062.05 C372.49,1066.53 370.183,1070.73 365.568,1074.64 C360.881,1078.55 355.865,1080.5 350.521,1080.5 C347.396,1080.5 344.761,1079.69 342.615,1078.06 C340.594,1076.3 339.584,1074.09 339.584,1071.42 C339.584,1066.93 341.928,1062.73 346.615,1058.83 C351.178,1054.92 356.157,1052.97 361.553,1052.97"/>
<path class="Note" d="M2752.88,627.967 C2756,627.967 2758.64,628.779 2760.8,630.404 C2762.81,632.165 2763.81,634.378 2763.81,637.045 C2763.81,641.535 2761.51,645.733 2756.89,649.639 C2752.2,653.545 2747.19,655.498 2741.84,655.498 C2738.72,655.498 2736.08,654.686 2733.94,653.061 C2731.92,651.3 2730.91,649.087 2730.91,646.42 C2730.91,641.93 2733.25,637.733 2737.94,633.826 C2742.5,629.92 2747.48,627.967 2752.88,627.967"/>
<path class="Note" d="M2692.23,615.467 C2695.35,615.467 2697.99,616.279 2700.15,617.904 C2702.16,619.665 2703.17,621.878 2703.17,624.545 C2703.17,629.035 2700.86,633.233 2696.24,637.139 C2691.56,641.045 2686.54,642.998 2681.2,642.998 C2678.07,642.998 2675.44,642.186 2673.29,640.561 C2671.27,638.8 2670.26,636.587 2670.26,633.92 C2670.26,629.43 2672.6,625.233 2677.29,621.326 C2681.85,617.42 2686.83,615.467 2692.23,615.467"/>
<path class="Note" d="M2631.58,615.467 C2634.71,615.467 2637.35,616.279 2639.5,617.904 C2641.52,619.665 2642.52,621.878 2642.52,624.545 C2642.52,629.035 2640.21,633.233 2635.6,637.139 C2630.91,641.045 2625.9,642.998 2620.55,642.998 C2617.43,642.998 2614.79,642.186 2612.65,640.561 C2610.62,638.8 2609.61,636.587 2609.61,633.92 C2609.61,629.43 2611.96,625.233 2616.65,621.326 C2621.21,617.42 2626.19,615.467 2631.58,615.467"/>
<path class="Note" d="M2570.94,615.467 C2574.06,615.467 2576.7,616.279 2578.86,617.904 C2580.87,619.665 2581.87,621.878 2581.87,624.545 C2581.87,629.035 2579.57,633.233 2574.95,637.139 C2570.26,641.045 2565.25,642.998 2559.9,642.998 C2556.78,642.998 2554.14,642.186 2552,640.561 C2549.98,638.8 2548.97,636.587 2548.97,633.92 C2548.97,629.43 2551.31,625.233 2556,621.326 C2560.56,617.42 2565.54,615.467 2570.94,615.467"/>
<path class="Note" d="M2510.29,602.967 C2513.41,602.967 2516.06,603.779 2518.21,605.404 C2520.22,607.165 2521.23,609.378 2521.23,612.045 C2521.23,616.535 2518.92,620.733 2514.31,624.639 C2509.62,628.545 2504.6,630.498 2499.26,630.498 C2496.13,630.498 2493.5,629.686 2491.35,628.061 C2489.33,626.3 2488.32,624.087 2488.32,621.42 C2488.32,616.93 2490.66,612.733 2495.35,608.826 C2499.91,604.92 2504.89,602.967 2510.29,602.967"/>
<path class="Note" d="M2437.95,590.467 C2441.08,590.467 2443.72,591.279 2445.88,592.904 C2447.89,594.665 2448.89,596.878 2448.89,599.545 C2448.89,604.035 2446.58,608.233 2441.97,612.139 C2437.28,616.045 2432.27,617.998 2426.92,617.998 C2423.8,617.998 2421.16,617.186 2419.02,615.561 C2417,613.8 2415.98,611.587 2415.98,608.92 C2415.98,604.43 2418.33,600.233 2423.02,596.326 C2427.58,592.42 2432.56,590.467 2437.95,590.467"/>
<path class="Note" d="M2377.31,577.967 C2380.43,577.967 2383.07,578.779 2385.23,580.404 C2387.24,582.165 2388.24,584.378 2388.24,587.045 C2388.24,591.535 2385.94,595.733 2381.32,599.639 C2376.64,603.545 2371.62,605.498 2366.28,605.498 C2363.15,605.498 2360.52,604.686 2358.37,603.061 C2356.35,601.3 2355.34,599.087 2355.34,596.42 C2355.34,591.93 2357.68,587.733 2362.37,583.826 C2366.93,579.92 2371.91,577.967 2377.31,577.967"/>
<path class="Note" d="M2316.66,565.467 C2319.79,565.467 2322.43,566.279 2324.58,567.904 C2326.59,569.665 2327.6,571.878 2327.6,574.545 C2327.6,579.035 2325.29,583.233 2320.68,587.139 C2315.99,591.045 2310.97,592.998 2305.63,592.998 C2302.5,592.998 2299.87,592.186 2297.72,590.561 C2295.7,588.8 2294.69,586.587 2294.69,583.92 C2294.69,579.43 2297.04,575.233 2301.72,571.326 C2306.29,567.42 2311.26,565.467 2316.66,565.467"/>
<path class="Note" d="M2256.01,590.467 C2259.14,590.467 2261.78,591.279 2263.94,592.904 C2265.95,594.665 2266.95,596.878 2266.95,599.545 C2266.95,604.035 2264.64,608.233 2260.03,612.139 C2255.34,616.045 2250.33,617.998 2244.98,617.998 C2241.86,617.998 2239.22,617.186 2237.08,615.561 C2235.06,613.8 2234.05,611.587 2234.05,608.92 C2234.05,604.43 2236.39,600.233 2241.08,596.326 C2245.64,592.42 2250.62,590.467 2256.01,590.467"/>
<path class="Note" d="M2141.02,577.967 C2144.15,577.967 2146.79,578.779 2148.94,580.404 C2150.95,582.165 2151.96,584.378 2151.96,587.045 C2151.96,591.535 2149.65,595.733 2145.04,599.639 C2140.35,603.545 2135.33,605.498 2129.99,605.498 C2126.86,605.498 2124.23,604.686 2122.08,603.061 C2120.06,601.3 2119.05,599.087 2119.05,596.42 C2119.05,591.93 2121.4,587.733 2126.08,583.826 C2130.65,579.92 2135.62,577.967 2141.02,577.967"/>
<path class="Note" d="M2076.07,565.467 C2079.19,565.467 2081.83,566.279 2083.99,567.904 C2086,569.665 2087,571.878 2087,574.545 C2087,579.035 2084.7,583.233 2080.08,587.139 C2075.39,591.045 2070.38,592.998 2065.04,592.998 C2061.91,592.998 2059.27,592.186 2057.13,590.561 C2055.11,588.8 2054.1,586.587 2054.1,583.92 C2054.1,579.43 2056.44,575.233 2061.13,571.326 C2065.69,567.42 2070.67,565.467 2076.07,565.467"/>
<path class="Note" d="M2011.11,552.967 C2014.24,552.967 2016.88,553.779 2019.03,555.404 C2021.04,557.165 2022.05,559.378 2022.05,562.045 C2022.05,566.535 2019.74,570.733 2015.13,574.639 C2010.44,578.545 2005.42,580.498 2000.08,580.498 C1996.96,580.498 1994.32,579.686 1992.17,578.061 C1990.15,576.3 1989.14,574.087 1989.14,571.42 C1989.14,566.93 1991.49,562.733 1996.17,558.826 C2000.74,554.92 2005.72,552.967 2011.11,552.967"/>
<path class="Note" d="M1946.16,615.467 C1949.28,615.467 1951.92,616.279 1954.08,617.904 C1956.09,619.665 1957.1,621.878 1957.1,624.545 C1957.1,629.035 1954.79,633.233 1950.17,637.139 C1945.49,641.045 1940.47,642.998 1935.13,642.998 C1932,642.998 1929.37,642.186 1927.22,640.561 C1925.2,638.8 1924.19,636.587 1924.19,633.92 C1924.19,629.43 1926.53,625.233 1931.22,621.326 C1935.78,617.42 1940.76,615.467 1946.16,615.467"/>
<path class="Note" d="M1881.2,565.467 C1884.33,565.467 1886.97,566.279 1889.13,567.904 C1891.14,569.665 1892.14,571.878 1892.14,574.545 C1892.14,579.035 1889.83,583.233 1885.22,587.139 C1880.53,591.045 1875.52,592.998 1870.17,592.998 C1867.05,592.998 1864.41,592.186 1862.27,590.561 C1860.25,588.8 1859.24,586.587 1859.24,583.92 C1859.24,579.43 1861.58,575.233 1866.27,571.326 C1870.83,567.42 1875.81,565.467 1881.2,565.467"/>
<path class="Note" d="M1816.25,577.967 C1819.37,577.967 1822.02,578.779 1824.17,580.404 C1826.18,582.165 1827.19,584.378 1827.19,587.045 C1827.19,591.535 1824.88,595.733 1820.27,599.639 C1815.58,603.545 1810.56,605.498 1805.22,605.498 C1802.09,605.498 1799.46,604.686 1797.31,603.061 C1795.29,601.3 1794.28,599.087 1794.28,596.42 C1794.28,591.93 1796.62,587.733 1801.31,583.826 C1805.87,579.92 1810.85,577.967 1816.25,577.967"/>
<path class="Note" d="M1751.3,590.467 C1754.42,590.467 1757.06,591.279 1759.22,592.904 C1761.23,594.665 1762.23,596.878 1762.23,599.545 C1762.23,604.035 1759.93,608.233 1755.31,612.139 C1750.62,616.045 1745.61,617.998 1740.26,617.998 C1737.14,617.998 1734.5,617.186 1732.36,615.561 C1730.34,613.8 1729.33,611.587 1729.33,608.92 C1729.33,604.43 1731.67,600.233 1736.36,596.326 C1740.92,592.42 1745.9,590.467 1751.3,590.467"/>
<path class="Note" d="M1673.59,602.967 C1676.72,602.967 1679.36,603.779 1681.51,605.404 C1683.52,607.165 1684.53,609.378 1684.53,612.045 C1684.53,616.535 1682.22,620.733 1677.61,624.639 C1672.92,628.545 1667.9,630.498 1662.56,630.498 C1659.44,630.498 1656.8,629.686 1654.65,628.061 C1652.63,626.3 1651.62,624.087 1651.62,621.42 C1651.62,616.93 1653.97,612.733 1658.65,608.826 C1663.22,604.92 1668.2,602.967 1673.59,602.967"/>
<path class="Note" d="M1601.26,615.467 C1604.38,615.467 1607.02,616.279 1609.18,617.904 C1611.19,619.665 1612.19,621.878 1612.19,624.545 C1612.19,629.035 1609.89,633.233 1605.27,637.139 C1600.58,641.045 1595.57,642.998 1590.23,642.998 C1587.1,642.998 1584.46,642.186 1582.32,640.561 C1580.3,638.8 1579.29,636.587 1579.29,633.92 C1579.29,629.43 1581.63,625.233 1586.32,621.326 C1590.88,617.42 1595.86,615.467 1601.26,615.467"/>
<path class="Note" d="M1506.61,615.467 C1509.73,615.467 1512.38,616.279 1514.53,617.904 C1516.54,619.665 1517.55,621.878 1517.55,624.545 C1517.55,629.035 1515.24,633.233 1510.63,637.139 C1505.94,641.045 1500.92,642.998 1495.58,642.998 C1492.45,642.998 1489.82,642.186 1487.67,640.561 C1485.65,638.8 1484.64,636.587 1484.64,633.92 C1484.64,629.43 1486.98,625.233 1491.67,621.326 C1496.23,617.42 1501.21,615.467 1506.61,615.467"/>
<path class="Note" d="M1445.96,565.467 C1449.09,565.467 1451.73,566.279 1453.89,567.904 C1455.9,569.665 1456.9,571.878 1456.9,574.545 C1456.9,579.035 1454.59,583.233 1449.98,587.139 C1445.29,591.045 1440.28,592.998 1434.93,592.998 C1431.81,592.998 1429.17,592.186 1427.03,590.561 C1425,588.8 1423.99,586.587 1423.99,583.92 C1423.99,579.43 1426.34,575.233 1431.03,571.326 C1435.59,567.42 1440.57,565.467 1445.96,565.467"/>
<path class="Note" d="M1385.32,565.467 C1388.44,565.467 1391.08,566.279 1393.24,567.904 C1395.25,569.665 1396.25,571.878 1396.25,574.545 C1396.25,579.035 1393.95,583.233 1389.33,587.139 C1384.64,591.045 1379.63,592.998 1374.29,592.998 C1371.16,592.998 1368.52,592.186 1366.38,590.561 C1364.36,588.8 1363.35,586.587 1363.35,583.92 C1363.35,579.43 1365.69,575.233 1370.38,571.326 C1374.94,567.42 1379.92,565.467 1385.32,565.467"/>
<path class="Note" d="M1324.67,615.467 C1327.8,615.467 1330.44,616.279 1332.59,617.904 C1334.6,619.665 1335.61,621.878 1335.61,624.545 C1335.61,629.035 1333.3,633.233 1328.69,637.139 C1324,641.045 1318.98,642.998 1313.64,642.998 C1310.51,642.998 1307.88,642.186 1305.73,640.561 C1303.71,638.8 1302.7,636.587 1302.7,633.92 C1302.7,629.43 1305.05,625.233 1309.73,621.326 C1314.3,617.42 1319.27,615.467 1324.67,615.467"/>
<path class="Note" d="M1264.02,602.967 C1267.15,602.967 1269.79,603.779 1271.95,605.404 C1273.96,607.165 1274.96,609.378 1274.96,612.045 C1274.96,616.535 1272.65,620.733 1268.04,624.639 C1263.35,628.545 1258.34,630.498 1252.99,630.498 C1249.87,630.498 1247.23,629.686 1245.09,628.061 C1243.07,626.3 1242.05,624.087 1242.05,621.42 C1242.05,616.93 1244.4,612.733 1249.09,608.826 C1253.65,604.92 1258.63,602.967 1264.02,602.967"/>
<path class="Note" d="M1191.69,590.467 C1194.81,590.467 1197.45,591.279 1199.61,592.904 C1201.62,594.665 1202.63,596.878 1202.63,599.545 C1202.63,604.035 1200.32,608.233 1195.7,612.139 C1191.02,616.045 1186,617.998 1180.66,617.998 C1177.53,617.998 1174.9,617.186 1172.75,615.561 C1170.73,613.8 1169.72,611.587 1169.72,608.92 C1169.72,604.43 1172.06,600.233 1176.75,596.326 C1181.31,592.42 1186.29,590.467 1191.69,590.467"/>
<path class="Note" d="M1131.04,577.967 C1134.17,577.967 1136.81,578.779 1138.96,580.404 C1140.97,582.165 1141.98,584.378 1141.98,587.045 C1141.98,591.535 1139.67,595.733 1135.06,599.639 C1130.37,603.545 1125.35,605.498 1120.01,605.498 C1116.88,605.498 1114.25,604.686 1112.1,603.061 C1110.08,601.3 1109.07,599.087 1109.07,596.42 C1109.07,591.93 1111.42,587.733 1116.1,583.826 C1120.67,579.92 1125.65,577.967 1131.04,577.967"/>
<path class="Note" d="M1070.39,565.467 C1073.52,565.467 1076.16,566.279 1078.32,567.904 C1080.33,569.665 1081.33,571.878 1081.33,574.545 C1081.33,579.035 1079.02,583.233 1074.41,587.139 C1069.72,591.045 1064.71,592.998 1059.36,592.998 C1056.24,592.998 1053.6,592.186 1051.46,590.561 C1049.44,588.8 1048.43,586.587 1048.43,583.92 C1048.43,579.43 1050.77,575.233 1055.46,571.326 C1060.02,567.42 1065,565.467 1070.39,565.467"/>
<path class="Note" d="M1009.75,590.467 C1012.87,590.467 1015.51,591.279 1017.67,592.904 C1019.68,594.665 1020.69,596.878 1020.69,599.545 C1020.69,604.035 1018.38,608.233 1013.76,612.139 C1009.08,616.045 1004.06,617.998 998.717,617.998 C995.592,617.998 992.956,617.186 990.81,615.561 C988.79,613.8 987.779,611.587 987.779,608.92 C987.779,604.43 990.123,600.233 994.81,596.326 C999.373,592.42 1004.35,590.467 1009.75,590.467"/>
<path class="Note" d="M894.755,577.967 C897.88,577.967 900.52,578.779 902.677,580.404 C904.687,582.165 905.692,584.378 905.692,587.045 C905.692,591.535 903.385,595.733 898.77,599.639 C894.083,603.545 889.067,605.498 883.723,605.498 C880.598,605.498 877.963,604.686 875.817,603.061 C873.796,601.3 872.786,599.087 872.786,596.42 C872.786,591.93 875.13,587.733 879.817,583.826 C884.38,579.92 889.359,577.967 894.755,577.967"/>
<path class="Note" d="M829.8,565.467 C832.925,565.467 835.566,566.279 837.722,567.904 C839.733,569.665 840.738,571.878 840.738,574.545 C840.738,579.035 838.431,583.233 833.816,587.139 C829.129,591.045 824.113,592.998 818.769,592.998 C815.644,592.998 813.009,592.186 810.863,590.561 C808.842,588.8 807.832,586.587 807.832,583.92 C807.832,579.43 810.175,575.233 814.863,571.326 C819.425,567.42 824.405,565.467 829.8,565.467"/>
<path class="Note" d="M764.846,552.967 C767.971,552.967 770.612,553.779 772.768,555.404 C774.779,557.165 775.784,559.378 775.784,562.045 C775.784,566.535 773.476,570.733 768.862,574.639 C764.174,578.545 759.159,580.498 753.815,580.498 C750.69,580.498 748.055,579.686 745.909,578.061 C743.888,576.3 742.877,574.087 742.877,571.42 C742.877,566.93 745.221,562.733 749.909,558.826 C754.471,554.92 759.45,552.967 764.846,552.967"/>
<path class="Note" d="M699.892,615.467 C703.017,615.467 705.658,616.279 707.814,617.904 C709.824,619.665 710.829,621.878 710.829,624.545 C710.829,629.035 708.522,633.233 703.908,637.139 C699.22,641.045 694.204,642.998 688.861,642.998 C685.736,642.998 683.1,642.186 680.954,640.561 C678.934,638.8 677.923,636.587 677.923,633.92 C677.923,629.43 680.267,625.233 684.954,621.326 C689.517,617.42 694.496,615.467 699.892,615.467"/>
<path class="Note" d="M634.938,565.467 C638.063,565.467 640.703,566.279 642.86,567.904 C644.87,569.665 645.875,571.878 645.875,574.545 C645.875,579.035 643.568,583.233 638.953,587.139 C634.266,591.045 629.25,592.998 623.907,592.998 C620.782,592.998 618.146,592.186 616,590.561 C613.979,588.8 612.969,586.587 612.969,583.92 C612.969,579.43 615.313,575.233 620,571.326 C624.563,567.42 629.542,565.467 634.938,565.467"/>
<path class="Note" d="M569.984,577.967 C573.109,577.967 575.749,578.779 577.905,580.404 C579.916,582.165 580.921,584.378 580.921,587.045 C580.921,591.535 578.614,595.733 573.999,599.639 C569.312,603.545 564.296,605.498 558.952,605.498 C555.827,605.498 553.192,604.686 551.046,603.061 C549.025,601.3 548.015,599.087 548.015,596.42 C548.015,591.93 550.359,587.733 555.046,583.826 C559.609,579.92 564.588,577.967 569.984,577.967"/>
<path class="Note" d="M505.029,590.467 C508.154,590.467 510.795,591.279 512.951,592.904 C514.962,594.665 515.967,596.878 515.967,599.545 C515.967,604.035 513.66,608.233 509.045,612.139 C504.357,616.045 499.342,617.998 493.998,617.998 C490.873,617.998 488.238,617.186 486.092,615.561 C484.071,613.8 483.061,611.587 483.061,608.92 C483.061,604.43 485.404,600.233 490.092,596.326 C494.654,592.42 499.634,590.467 505.029,590.467"/>
<path class="Note" d="M427.326,602.967 C430.451,602.967 433.092,603.779 435.248,605.404 C437.258,607.165 438.264,609.378 438.264,612.045 C438.264,616.535 435.956,620.733 431.342,624.639 C426.654,628.545 421.639,630.498 416.295,630.498 C413.17,630.498 410.534,629.686 408.389,628.061 C406.368,626.3 405.357,624.087 405.357,621.42 C405.357,616.93 407.701,612.733 412.389,608.826 C416.951,604.92 421.93,602.967 427.326,602.967"/>
<path class="Note" d="M354.99,615.467 C358.115,615.467 360.756,616.279 362.912,617.904 C364.922,619.665 365.928,621.878 365.928,624.545 C365.928,629.035 363.62,633.233 359.006,637.139 C354.318,641.045 349.303,642.998 343.959,642.998 C340.834,642.998 338.199,642.186 336.053,640.561 C334.032,638.8 333.021,636.587 333.021,633.92 C333.021,629.43 335.365,625.233 340.053,621.326 C344.615,617.42 349.594,615.467 354.99,615.467"/>
<path class="Clef" d="M194.451,1091.14 C194.451,1091.14 194.649,1091.14 195.045,1091.14 C195.305,1091.08 195.529,1091.05 195.717,1091.05 C203.008,1091.05 208.998,1093.62 213.685,1098.76 C218.373,1103.84 220.717,1109.76 220.717,1116.53 C220.717,1124.94 217.237,1131.77 210.279,1137.05 C208.456,1138.48 206.076,1139.65 203.139,1140.56 C203.472,1144.79 203.639,1148.21 203.639,1150.81 C203.639,1151.33 203.571,1153.22 203.435,1156.48 C203.175,1162.53 201.092,1167.77 197.185,1172.2 C193.415,1176.57 188.727,1178.75 183.123,1178.75 C177.852,1178.75 173.362,1176.89 169.654,1173.19 C165.935,1169.4 164.076,1164.85 164.076,1159.51 C164.076,1156.71 165.154,1154.33 167.31,1152.37 C169.519,1150.43 172.086,1149.45 175.014,1149.45 C177.618,1149.45 179.8,1150.46 181.56,1152.48 C183.383,1154.37 184.295,1156.71 184.295,1159.51 C184.295,1162.05 183.383,1164.22 181.56,1166.05 C179.737,1167.87 177.555,1168.78 175.014,1168.78 C173.972,1168.78 172.967,1168.59 171.998,1168.2 C174.862,1172.43 178.67,1174.55 183.42,1174.55 C187.909,1174.55 191.586,1172.72 194.451,1169.08 C197.451,1165.31 199.081,1160.91 199.342,1155.89 C199.467,1152.76 199.529,1150.98 199.529,1150.53 C199.529,1146.88 199.399,1143.89 199.139,1141.55 C195.889,1142.07 192.993,1142.33 190.451,1142.33 C181.399,1142.33 173.685,1138.74 167.31,1131.58 C161.06,1124.35 157.935,1115.75 157.935,1105.8 C157.935,1103.71 158.128,1101.6 158.514,1099.45 C158.909,1097.69 159.399,1095.77 159.982,1093.69 C160.305,1092.51 161.185,1090.62 162.623,1088.01 C163.144,1087.23 163.73,1086.26 164.381,1085.08 C165.032,1083.91 165.487,1083.13 165.748,1082.75 C166.394,1081.45 167.659,1079.69 169.545,1077.47 C170.066,1076.88 170.605,1076.24 171.162,1075.52 C171.719,1074.81 172.193,1074.22 172.584,1073.76 C172.974,1073.31 173.266,1072.95 173.459,1072.69 C173.652,1072.43 175.118,1070.7 177.857,1067.51 C178.503,1066.86 179.136,1066.16 179.756,1065.41 C180.375,1064.67 180.881,1064.08 181.271,1063.65 C181.662,1063.23 181.956,1062.92 182.154,1062.73 C179.81,1054.98 178.342,1048.8 177.748,1044.17 C177.3,1040.46 177.076,1035.38 177.076,1028.94 C177.076,1023.27 178.378,1017.96 180.982,1013.01 C183.514,1007.88 187.06,1003.68 191.623,1000.42 C191.883,1000.22 192.206,1000.12 192.592,1000.12 C193.05,1000.12 193.378,1000.22 193.576,1000.42 C197.086,1004.65 200.112,1010.15 202.654,1016.92 C205.258,1023.69 206.56,1029.85 206.56,1035.39 C206.56,1041.64 205.066,1047.5 202.076,1052.97 C198.691,1058.76 194.326,1064.75 188.982,1070.94 C190.347,1075.23 192.17,1081.96 194.451,1091.14 M202.748,1136.56 C206.133,1135.32 208.774,1133.21 210.67,1130.22 C212.753,1127.35 213.795,1124.13 213.795,1120.55 C213.795,1115.92 212.232,1111.82 209.107,1108.23 C205.909,1104.52 201.836,1102.44 196.889,1101.98 C199.691,1115.72 201.644,1127.25 202.748,1136.56 M164.967,1114 C164.967,1120.45 167.571,1126.11 172.779,1131 C178.112,1135.75 184.102,1138.12 190.748,1138.12 C193.477,1138.12 196.144,1137.93 198.748,1137.53 C197.706,1127.63 195.654,1115.78 192.592,1101.98 C188.883,1102.38 185.925,1103.68 183.717,1105.89 C181.56,1108.17 180.482,1110.74 180.482,1113.61 C180.482,1118.56 183.123,1122.56 188.404,1125.62 C188.852,1126.08 189.076,1126.57 189.076,1127.09 C189.076,1127.61 188.852,1128.1 188.404,1128.55 C188.008,1129 187.519,1129.23 186.935,1129.23 C186.873,1129.23 186.581,1129.17 186.06,1129.05 C182.342,1127.02 179.477,1124.42 177.467,1121.23 C175.571,1117.84 174.623,1114.42 174.623,1110.97 C174.623,1106.48 176.024,1102.41 178.826,1098.76 C181.753,1095.12 185.56,1092.77 190.248,1091.73 C188.425,1084.44 186.93,1078.74 185.764,1074.64 C184.722,1075.82 183.469,1077.23 182.006,1078.89 C180.542,1080.55 179.68,1081.54 179.42,1081.87 C177.076,1084.93 175.284,1087.3 174.045,1089 C171.826,1092.06 170.196,1094.7 169.154,1096.9 C168.05,1099.38 167.076,1102.09 166.232,1105.01 C165.389,1107.82 164.967,1110.81 164.967,1114 M197.576,1014.69 C192.691,1017.09 188.852,1020.54 186.06,1025.03 C183.196,1029.65 181.764,1034.63 181.764,1039.97 C181.764,1044.65 182.935,1050.97 185.279,1058.92 C189.967,1053.25 193.482,1048.01 195.826,1043.2 C198.295,1038.12 199.529,1032.81 199.529,1027.28 C199.529,1023.11 198.878,1018.92 197.576,1014.69"/>
<path class="Clef" d="M194.451,616.139 C194.451,616.139 194.649,616.139 195.045,616.139 C195.305,616.076 195.529,616.045 195.717,616.045 C203.008,616.045 208.998,618.618 213.685,623.764 C218.373,628.837 220.717,634.759 220.717,641.529 C220.717,649.936 217.237,656.774 210.279,662.045 C208.456,663.483 206.076,664.654 203.139,665.561 C203.472,669.79 203.639,673.207 203.639,675.811 C203.639,676.332 203.571,678.222 203.435,681.483 C203.175,687.535 201.092,692.774 197.185,697.201 C193.415,701.566 188.727,703.748 183.123,703.748 C177.852,703.748 173.362,701.894 169.654,698.186 C165.935,694.404 164.076,689.847 164.076,684.514 C164.076,681.712 165.154,679.332 167.31,677.373 C169.519,675.425 172.086,674.451 175.014,674.451 C177.618,674.451 179.8,675.462 181.56,677.483 C183.383,679.368 184.295,681.712 184.295,684.514 C184.295,687.045 183.383,689.222 181.56,691.045 C179.737,692.868 177.555,693.779 175.014,693.779 C173.972,693.779 172.967,693.587 171.998,693.201 C174.862,697.43 178.67,699.545 183.42,699.545 C187.909,699.545 191.586,697.722 194.451,694.076 C197.451,690.305 199.081,685.91 199.342,680.889 C199.467,677.764 199.529,675.977 199.529,675.529 C199.529,671.884 199.399,668.889 199.139,666.545 C195.889,667.066 192.993,667.326 190.451,667.326 C181.399,667.326 173.685,663.743 167.31,656.576 C161.06,649.347 157.935,640.753 157.935,630.795 C157.935,628.712 158.128,626.597 158.514,624.451 C158.909,622.691 159.399,620.769 159.982,618.686 C160.305,617.509 161.185,615.618 162.623,613.014 C163.144,612.233 163.73,611.256 164.381,610.084 C165.032,608.912 165.487,608.134 165.748,607.748 C166.394,606.446 167.659,604.686 169.545,602.467 C170.066,601.884 170.605,601.235 171.162,600.522 C171.719,599.808 172.193,599.222 172.584,598.764 C172.974,598.305 173.266,597.946 173.459,597.686 C173.652,597.425 175.118,595.701 177.857,592.514 C178.503,591.858 179.136,591.157 179.756,590.412 C180.375,589.667 180.881,589.082 181.271,588.654 C181.662,588.227 181.956,587.92 182.154,587.733 C179.81,579.983 178.342,573.795 177.748,569.17 C177.3,565.462 177.076,560.384 177.076,553.936 C177.076,548.269 178.378,542.962 180.982,538.014 C183.514,532.878 187.06,528.68 191.623,525.42 C191.883,525.222 192.206,525.123 192.592,525.123 C193.05,525.123 193.378,525.222 193.576,525.42 C197.086,529.649 200.112,535.149 202.654,541.92 C205.258,548.691 206.56,554.847 206.56,560.389 C206.56,566.639 205.066,572.498 202.076,577.967 C198.691,583.759 194.326,589.748 188.982,595.936 C190.347,600.227 192.17,606.962 194.451,616.139 M202.748,661.561 C206.133,660.321 208.774,658.207 210.67,655.217 C212.753,652.352 213.795,649.128 213.795,645.545 C213.795,640.92 212.232,636.816 209.107,633.233 C205.909,629.524 201.836,627.441 196.889,626.983 C199.691,640.722 201.644,652.248 202.748,661.561 M164.967,638.998 C164.967,645.446 167.571,651.113 172.779,655.998 C178.112,660.748 184.102,663.123 190.748,663.123 C193.477,663.123 196.144,662.925 198.748,662.529 C197.706,652.634 195.654,640.785 192.592,626.983 C188.883,627.378 185.925,628.68 183.717,630.889 C181.56,633.17 180.482,635.743 180.482,638.608 C180.482,643.555 183.123,647.561 188.404,650.623 C188.852,651.082 189.076,651.571 189.076,652.092 C189.076,652.613 188.852,653.097 188.404,653.545 C188.008,654.003 187.519,654.233 186.935,654.233 C186.873,654.233 186.581,654.17 186.06,654.045 C182.342,652.024 179.477,649.42 177.467,646.233 C175.571,642.837 174.623,639.415 174.623,635.967 C174.623,631.477 176.024,627.41 178.826,623.764 C181.753,620.118 185.56,617.774 190.248,616.733 C188.425,609.441 186.93,603.743 185.764,599.639 C184.722,600.816 183.469,602.233 182.006,603.889 C180.542,605.545 179.68,606.54 179.42,606.873 C177.076,609.925 175.284,612.3 174.045,613.998 C171.826,617.061 170.196,619.696 169.154,621.904 C168.05,624.384 167.076,627.087 166.232,630.014 C165.389,632.816 164.967,635.811 164.967,638.998 M197.576,539.686 C192.691,542.092 188.852,545.54 186.06,550.029 C183.196,554.654 181.764,559.634 181.764,564.967 C181.764,569.654 182.935,575.972 185.279,583.92 C189.967,578.253 193.482,573.014 195.826,568.201 C198.295,563.118 199.529,557.811 199.529,552.279 C199.529,548.113 198.878,543.915 197.576,539.686"/>
<path class="TimeSig" d="M264.342,592.326 C266.81,592.326 268.336,591.347 268.92,589.389 C269.378,587.951 269.607,585.54 269.607,582.154 L269.607,579.233 C269.607,575.847 269.378,573.436 268.92,571.998 C268.336,570.05 266.81,569.076 264.342,569.076 C261.404,569.076 259.644,570.217 259.06,572.498 C258.54,574.581 258.279,577.316 258.279,580.701 C258.279,584.733 258.639,587.628 259.357,589.389 C260.201,591.347 261.863,592.326 264.342,592.326 M269.607,593.295 C267.399,594.212 265.644,594.67 264.342,594.67 C259.133,594.67 254.967,593.493 251.842,591.139 C248.842,588.733 247.342,585.285 247.342,580.795 C247.342,576.233 248.873,572.717 251.935,570.248 C254.925,567.904 259.06,566.733 264.342,566.733 C269.675,566.733 273.839,569.206 276.834,574.154 C279.829,579.102 281.326,584.962 281.326,591.733 C281.326,598.378 279.571,604.238 276.06,609.311 C272.602,614.259 268.045,616.733 262.389,616.733 C258.743,616.733 255.488,615.79 252.623,613.904 C249.883,612.019 248.514,609.545 248.514,606.483 C248.514,604.597 249.165,603.035 250.467,601.795 C251.644,600.493 253.144,599.842 254.967,599.842 C256.79,599.842 258.352,600.493 259.654,601.795 C260.956,603.097 261.607,604.66 261.607,606.483 C261.607,607.201 260.956,608.014 259.654,608.92 C258.352,609.701 257.701,610.514 257.701,611.358 C257.701,612.274 258.154,613.024 259.06,613.608 C260.102,614.128 261.211,614.389 262.389,614.389 C265.378,614.389 267.363,613.186 268.342,610.779 C269.321,608.373 269.81,604.956 269.81,600.529 C269.81,599.227 269.777,598.022 269.709,596.912 C269.641,595.803 269.607,594.597 269.607,593.295"/>
<path class="TimeSig" d="M271.545,637.92 C274.805,634.337 276.435,630.951 276.435,627.764 C276.435,625.097 275.295,622.983 273.014,621.42 C270.805,619.858 268.071,619.076 264.81,619.076 C262.529,619.076 260.706,619.792 259.342,621.225 C257.977,622.657 257.295,624.285 257.295,626.108 C257.295,628.389 258.305,630.144 260.326,631.373 L271.545,637.92 M274.576,639.576 C280.107,642.774 282.873,647.04 282.873,652.373 C282.873,656.352 281.217,659.707 277.904,662.436 C274.581,665.3 269.925,666.733 263.935,666.733 C258.852,666.733 254.586,665.43 251.139,662.826 C247.493,660.222 245.67,656.868 245.67,652.764 C245.67,651.274 246.128,649.68 247.045,647.983 C247.889,646.483 248.732,645.311 249.576,644.467 C249.972,643.946 251.211,642.707 253.295,640.748 C249.253,637.884 247.201,634.337 247.139,630.108 C247.139,626.524 248.732,623.368 251.92,620.639 C255.107,618.035 259.404,616.733 264.81,616.733 C269.113,616.733 272.889,617.707 276.139,619.654 C279.264,621.613 280.826,624.316 280.826,627.764 C280.701,631.285 278.618,635.222 274.576,639.576 M256.31,642.514 C252.279,646.097 250.196,649.514 250.06,652.764 C250.06,656.087 251.461,658.858 254.264,661.076 C256.93,663.285 260.154,664.389 263.935,664.389 C266.602,664.389 268.685,663.545 270.185,661.858 C271.748,660.295 272.529,658.373 272.529,656.092 C272.529,653.29 271.389,651.238 269.107,649.936 L256.31,642.514 "/>
<path class="Beam" fill-rule="evenodd" d="M2586.19,1029.23 L2746.13,1029.23 L2746.13,1041.73 L2586.19,1041.73 L2586.19,1029.23 "/>
<path class="Beam" fill-rule="evenodd" d="M2351.17,991.135 L2511.1,1016.65 L2511.1,1029.31 L2351.17,1003.79 L2351.17,991.135 "/>
<path class="Beam" fill-rule="evenodd" d="M2086.48,1141.73 L2246.42,1135.35 L2246.42,1147.86 L2086.48,1154.24 L2086.48,1141.73 "/>
<path class="Beam" fill-rule="evenodd" d="M1836.25,1141.62 L1972.96,1167.23 L1972.96,1179.95 L1836.25,1154.34 L1836.25,1141.62 "/>
<path class="Beam" fill-rule="evenodd" d="M1255.17,1135.34 L1402.64,1167.29 L1402.64,1180.08 L1255.17,1148.13 L1255.17,1135.34 "/>
<path class="Beam" fill-rule="evenodd" d="M659.895,1110.37 L796.608,1135.98 L796.608,1148.7 L659.895,1123.09 L659.895,1110.37 "/>
<path class="Beam" fill-rule="evenodd" d="M2639.28,554.233 L2763.82,554.233 L2763.82,566.733 L2639.28,566.733 L2639.28,554.233 "/>
<path class="Beam" fill-rule="evenodd" d="M2517.99,535.114 L2581.88,541.699 L2581.88,554.266 L2517.99,547.681 L2517.99,535.114 "/>
<path class="Beam" fill-rule="evenodd" d="M2355.34,660.449 L2419.23,667.034 L2419.23,679.601 L2355.34,673.016 L2355.34,660.449 "/>
<path class="Beam" fill-rule="evenodd" d="M2234.05,666.601 L2297.94,653.431 L2297.94,666.194 L2234.05,679.364 L2234.05,666.601 "/>
<path class="Beam" fill-rule="evenodd" d="M1989.14,635.368 L2122.3,660.993 L2122.3,673.723 L1989.14,648.097 L1989.14,635.368 "/>
<path class="Beam" fill-rule="evenodd" d="M1859.24,666.286 L1927.44,692.537 L1927.44,705.93 L1859.24,679.68 L1859.24,666.286 "/>
<path class="Beam" fill-rule="evenodd" d="M1729.33,666.704 L1797.53,660.141 L1797.53,672.699 L1729.33,679.261 L1729.33,666.704 "/>
<path class="Beam" fill-rule="evenodd" d="M1608.95,541.99 L1684.54,535.459 L1684.54,548.006 L1608.95,554.537 L1608.95,541.99 "/>
<path class="Beam" fill-rule="evenodd" d="M1363.35,672.778 L1487.89,704.866 L1487.89,717.774 L1363.35,685.687 L1363.35,672.778 "/>
<path class="Beam" fill-rule="evenodd" d="M1271.72,535.114 L1335.62,541.699 L1335.62,554.266 L1271.72,547.681 L1271.72,535.114 "/>
<path class="Beam" fill-rule="evenodd" d="M1109.07,660.449 L1172.97,667.034 L1172.97,679.601 L1109.07,673.016 L1109.07,660.449 "/>
<path class="Beam" fill-rule="evenodd" d="M987.779,666.601 L1051.68,653.431 L1051.68,666.194 L987.779,679.364 L987.779,666.601 "/>
<path class="Beam" fill-rule="evenodd" d="M742.877,635.368 L876.036,660.993 L876.036,673.723 L742.877,648.097 L742.877,635.368 "/>
<path class="Beam" fill-rule="evenodd" d="M612.969,666.286 L681.173,692.537 L681.173,705.93 L612.969,679.68 L612.969,666.286 "/>
<path class="Beam" fill-rule="evenodd" d="M483.061,666.704 L551.265,660.141 L551.265,672.699 L483.061,679.261 L483.061,666.704 "/>
<path class="Beam" fill-rule="evenodd" d="M362.686,541.99 L438.271,535.459 L438.271,548.006 L362.686,554.537 L362.686,541.99 "/>
</svg>
