<?xml version="1.0" encoding="UTF-8" standalone="no"?>
<svg width="3060px" height="3960px" viewBox="0 0 3060 3960"
 xmlns="http://www.w3.org/2000/svg" xmlns:xlink="http://www.w3.org/1999/xlink" version="1.2" baseProfile="tiny">
<title>Canta_cucul_batal_vina</title>
<desc>Generated by MuseScore 3.0.2</desc>
<polyline class="StaffLines" fill="none" stroke="#000000" stroke-width="2.00" stroke-linejoin="bevel" points="141.732,566.733 2918.27,566.733"/>
<polyline class="StaffLines" fill="none" stroke="#000000" stroke-width="2.00" stroke-linejoin="bevel" points="141.732,591.733 2918.27,591.733"/>
<polyline class="StaffLines" fill="none" stroke="#000000" stroke-width="2.00" stroke-linejoin="bevel" points="141.732,616.733 2918.27,616.733"/>
<polyline class="StaffLines" fill="none" stroke="#000000" stroke-width="2.00" stroke-linejoin="bevel" points="141.732,641.733 2918.27,641.733"/>
<polyline class="StaffLines" fill="none" stroke="#000000" stroke-width="2.00" stroke-linejoin="bevel" points="141.732,666.733 2918.27,666.733"/>
<polyline class="StaffLines" fill="none" stroke="#000000" stroke-width="2.00" stroke-linejoin="bevel" points="141.732,1041.73 2918.27,1041.73"/>
<polyline class="StaffLines" fill="none" stroke="#000000" stroke-width="2.00" stroke-linejoin="bevel" points="141.732,1066.73 2918.27,1066.73"/>
<polyline class="StaffLines" fill="none" stroke="#000000" stroke-width="2.00" stroke-linejoin="bevel" points="141.732,1091.73 2918.27,1091.73"/>
<polyline class="StaffLines" fill="none" stroke="#000000" stroke-width="2.00" stroke-linejoin="bevel" points="141.732,1116.73 2918.27,1116.73"/>
<polyline class="StaffLines" fill="none" stroke="#000000" stroke-width="2.00" stroke-linejoin="bevel" points="141.732,1141.73 2918.27,1141.73"/>
<path class="Text" d="M1006.7,184.732 C1006.7,172.326 1010.54,162.245 1018.22,154.49 C1025.89,146.735 1035.45,142.857 1046.89,142.857 C1052.01,142.857 1056.82,143.485 1061.29,144.74 C1065.77,145.995 1068.37,146.623 1069.09,146.623 C1071.74,146.623 1073.42,145.368 1074.14,142.857 L1076.65,142.857 L1077.73,169.732 L1074.98,169.732 C1070.58,154.857 1061.97,147.42 1049.17,147.42 C1040.45,147.42 1033.51,150.659 1028.36,157.138 C1023.2,163.618 1020.62,172.295 1020.62,183.17 C1020.62,190.128 1021.52,196.149 1023.32,201.232 C1025.12,206.316 1027.53,210.157 1030.58,212.756 C1033.62,215.355 1036.76,217.235 1040,218.396 C1043.24,219.558 1046.7,220.138 1050.37,220.138 C1059.81,220.138 1068.73,216.097 1077.14,208.013 L1079.29,210.17 C1075.62,215.055 1070.94,218.818 1065.26,221.459 C1059.57,224.099 1053.33,225.42 1046.53,225.42 C1034.7,225.42 1025.1,221.698 1017.74,214.256 C1010.38,206.813 1006.7,196.972 1006.7,184.732 M1085.5,211.888 C1085.5,210.451 1085.66,209.115 1085.97,207.881 C1086.29,206.646 1086.85,205.493 1087.65,204.42 C1088.46,203.347 1089.22,202.373 1089.94,201.498 C1090.65,200.623 1091.73,199.727 1093.18,198.81 C1094.62,197.894 1095.82,197.138 1096.78,196.545 C1097.74,195.951 1099.2,195.235 1101.15,194.396 C1103.11,193.558 1104.61,192.92 1105.65,192.482 C1106.7,192.045 1108.34,191.388 1110.58,190.513 C1112.82,189.638 1114.46,189.003 1115.5,188.607 L1115.5,181.326 C1115.5,174.722 1112.46,171.42 1106.37,171.42 C1103.98,171.42 1101.94,171.998 1100.26,173.154 C1098.57,174.31 1097.73,175.691 1097.73,177.295 C1097.73,177.93 1097.83,178.808 1098.04,179.928 C1098.24,181.047 1098.34,181.769 1098.34,182.092 C1098.34,183.456 1097.8,184.638 1096.72,185.638 C1095.63,186.638 1094.37,187.138 1092.94,187.138 C1091.58,187.138 1090.38,186.618 1089.34,185.576 C1088.3,184.534 1087.78,183.331 1087.78,181.967 C1087.78,178.217 1089.72,175.04 1093.6,172.435 C1097.48,169.831 1102.26,168.529 1107.94,168.529 C1114.5,168.529 1119.02,170.102 1121.5,173.248 C1123.98,176.394 1125.22,181.196 1125.22,187.654 L1125.22,210.935 C1125.22,213.56 1125.48,215.37 1126,216.365 C1126.52,217.36 1127.46,217.857 1128.81,217.857 C1130.5,217.857 1132.26,217.102 1134.09,215.592 L1134.09,218.732 C1132.02,221.128 1130.2,222.761 1128.64,223.631 C1127.08,224.5 1125.29,224.935 1123.29,224.935 C1120.82,224.935 1119,224.237 1117.83,222.842 C1116.67,221.446 1115.94,219.144 1115.62,215.935 C1108.74,221.935 1102.89,224.935 1098.09,224.935 C1094.41,224.935 1091.4,223.714 1089.04,221.271 C1086.68,218.829 1085.5,215.701 1085.5,211.888 M1115.5,208.779 L1115.5,191.467 C1108.3,194.092 1103.26,196.638 1100.38,199.107 C1097.5,201.576 1096.06,204.56 1096.06,208.06 C1096.06,211.321 1096.86,213.748 1098.46,215.342 C1100.06,216.935 1101.78,217.732 1103.62,217.732 C1106.34,217.732 1109.26,216.816 1112.37,214.982 C1113.65,214.274 1114.5,213.521 1114.9,212.724 C1115.3,211.928 1115.5,210.612 1115.5,208.779 M1135.7,175.857 L1135.7,173.81 C1141.62,172.092 1147.14,170.331 1152.26,168.529 L1153.09,168.763 L1153.09,178.138 C1157.17,174.347 1160.4,171.797 1162.76,170.49 C1165.12,169.183 1167.7,168.529 1170.5,168.529 C1174.89,168.529 1178.35,170.102 1180.87,173.248 C1183.39,176.394 1184.65,180.79 1184.65,186.435 L1184.65,213.998 C1184.65,216.956 1185.13,218.938 1186.09,219.943 C1187.05,220.948 1189.01,221.612 1191.98,221.935 L1191.98,223.732 L1167.01,223.732 L1167.01,221.935 C1170.06,221.696 1172.08,220.894 1173.08,219.529 C1174.08,218.165 1174.58,215.597 1174.58,211.826 L1174.58,186.685 C1174.58,178.904 1171.65,175.013 1165.81,175.013 C1163.81,175.013 1161.97,175.474 1160.29,176.396 C1158.62,177.318 1156.34,179.144 1153.45,181.873 L1153.45,215.67 C1153.45,217.836 1154.01,219.362 1155.13,220.248 C1156.25,221.133 1158.33,221.696 1161.37,221.935 L1161.37,223.732 L1135.94,223.732 L1135.94,221.935 C1138.98,221.696 1140.98,220.993 1141.94,219.826 C1142.89,218.659 1143.37,216.352 1143.37,212.904 L1143.37,183.076 C1143.37,180.107 1143.05,178.081 1142.41,176.998 C1141.77,175.915 1140.61,175.373 1138.94,175.373 C1137.41,175.373 1136.34,175.534 1135.7,175.857 M1224.58,169.732 L1224.58,173.342 L1212.45,173.342 L1212.45,207.654 C1212.45,211.415 1212.93,214.154 1213.9,215.873 C1214.86,217.592 1216.46,218.451 1218.7,218.451 C1221.18,218.451 1223.58,217.05 1225.9,214.248 L1227.45,215.576 C1223.62,221.816 1218.82,224.935 1213.06,224.935 C1205.94,224.935 1202.37,219.831 1202.37,209.623 L1202.37,173.342 L1196.01,173.342 C1195.7,173.112 1195.54,172.847 1195.54,172.545 C1195.54,172.17 1195.66,171.87 1195.9,171.646 C1196.14,171.422 1196.6,171.105 1197.28,170.693 C1197.96,170.282 1198.78,169.691 1199.74,168.92 C1200.7,168.149 1202.02,166.75 1203.7,164.724 C1205.38,162.698 1207.22,160.263 1209.22,157.42 C1210.5,155.555 1211.3,154.42 1211.62,154.013 C1212.17,154.013 1212.45,154.54 1212.45,155.592 L1212.45,169.732 L1224.58,169.732 M1230.5,211.888 C1230.5,210.451 1230.66,209.115 1230.97,207.881 C1231.29,206.646 1231.85,205.493 1232.65,204.42 C1233.46,203.347 1234.22,202.373 1234.94,201.498 C1235.65,200.623 1236.73,199.727 1238.18,198.81 C1239.62,197.894 1240.82,197.138 1241.78,196.545 C1242.74,195.951 1244.2,195.235 1246.15,194.396 C1248.11,193.558 1249.61,192.92 1250.65,192.482 C1251.7,192.045 1253.34,191.388 1255.58,190.513 C1257.82,189.638 1259.46,189.003 1260.5,188.607 L1260.5,181.326 C1260.5,174.722 1257.46,171.42 1251.37,171.42 C1248.98,171.42 1246.94,171.998 1245.26,173.154 C1243.57,174.31 1242.73,175.691 1242.73,177.295 C1242.73,177.93 1242.83,178.808 1243.04,179.928 C1243.24,181.047 1243.34,181.769 1243.34,182.092 C1243.34,183.456 1242.8,184.638 1241.72,185.638 C1240.63,186.638 1239.37,187.138 1237.94,187.138 C1236.58,187.138 1235.38,186.618 1234.34,185.576 C1233.3,184.534 1232.78,183.331 1232.78,181.967 C1232.78,178.217 1234.72,175.04 1238.6,172.435 C1242.48,169.831 1247.26,168.529 1252.94,168.529 C1259.5,168.529 1264.02,170.102 1266.5,173.248 C1268.98,176.394 1270.22,181.196 1270.22,187.654 L1270.22,210.935 C1270.22,213.56 1270.48,215.37 1271,216.365 C1271.52,217.36 1272.46,217.857 1273.81,217.857 C1275.5,217.857 1277.26,217.102 1279.09,215.592 L1279.09,218.732 C1277.02,221.128 1275.2,222.761 1273.64,223.631 C1272.08,224.5 1270.29,224.935 1268.29,224.935 C1265.82,224.935 1264,224.237 1262.83,222.842 C1261.67,221.446 1260.94,219.144 1260.62,215.935 C1253.74,221.935 1247.89,224.935 1243.09,224.935 C1239.41,224.935 1236.4,223.714 1234.04,221.271 C1231.68,218.829 1230.5,215.701 1230.5,211.888 M1260.5,208.779 L1260.5,191.467 C1253.3,194.092 1248.26,196.638 1245.38,199.107 C1242.5,201.576 1241.06,204.56 1241.06,208.06 C1241.06,211.321 1241.86,213.748 1243.46,215.342 C1245.06,216.935 1246.78,217.732 1248.62,217.732 C1251.34,217.732 1254.26,216.816 1257.37,214.982 C1258.65,214.274 1259.5,213.521 1259.9,212.724 C1260.3,211.928 1260.5,210.612 1260.5,208.779 M1312.5,198.154 C1312.5,189.279 1315.12,182.123 1320.36,176.685 C1325.6,171.248 1331.74,168.529 1338.78,168.529 C1343.82,168.529 1348.16,169.75 1351.8,172.193 C1355.44,174.636 1357.26,177.534 1357.26,180.888 C1357.26,182.253 1356.7,183.435 1355.58,184.435 C1354.45,185.435 1353.09,185.935 1351.5,185.935 C1348.78,185.935 1346.9,184.112 1345.86,180.467 L1345.14,177.842 C1344.49,175.623 1343.69,174.118 1342.73,173.326 C1341.77,172.534 1340.22,172.138 1338.06,172.138 C1333.17,172.138 1329.23,174.068 1326.23,177.928 C1323.23,181.787 1321.73,186.779 1321.73,192.904 C1321.73,199.748 1323.47,205.336 1326.95,209.67 C1330.43,214.003 1334.89,216.17 1340.34,216.17 C1343.78,216.17 1346.74,215.334 1349.22,213.662 C1351.7,211.99 1354.38,209.086 1357.26,204.951 L1358.94,206.029 C1358.13,207.633 1357.43,208.956 1356.83,209.998 C1356.23,211.04 1355.16,212.605 1353.6,214.693 C1352.04,216.782 1350.5,218.469 1348.98,219.756 C1347.46,221.042 1345.46,222.227 1342.98,223.31 C1340.5,224.394 1337.94,224.935 1335.29,224.935 C1328.66,224.935 1323.2,222.433 1318.92,217.428 C1314.64,212.422 1312.5,205.998 1312.5,198.154 M1420.09,217.498 L1420.09,219.17 C1413.85,220.93 1408.37,222.81 1403.65,224.81 L1403.17,224.56 L1403.17,214.388 C1402.93,214.628 1402.23,215.344 1401.08,216.537 C1399.92,217.73 1399.1,218.555 1398.62,219.013 C1398.14,219.472 1397.32,220.178 1396.16,221.131 C1395,222.084 1393.98,222.769 1393.1,223.185 C1392.22,223.602 1391.1,223.998 1389.74,224.373 C1388.38,224.748 1387.02,224.935 1385.65,224.935 C1381.26,224.935 1377.74,223.498 1375.1,220.623 C1372.46,217.748 1371.14,213.92 1371.14,209.138 L1371.14,179.06 C1371.14,176.269 1370.62,174.336 1369.58,173.263 C1368.53,172.191 1366.58,171.576 1363.7,171.42 L1363.7,169.732 L1381.22,169.732 L1381.22,208.654 C1381.22,211.123 1382.06,213.253 1383.74,215.045 C1385.42,216.836 1387.42,217.732 1389.73,217.732 C1390.62,217.732 1391.66,217.612 1392.86,217.373 C1394.06,217.133 1395.44,216.675 1397,215.998 C1398.56,215.321 1399.88,214.248 1400.96,212.779 C1402.04,211.31 1402.58,209.498 1402.58,207.342 L1402.58,179.295 C1402.58,176.347 1402.04,174.396 1400.96,173.443 C1399.88,172.49 1397.46,171.935 1393.7,171.779 L1393.7,169.732 L1412.65,169.732 L1412.65,210.685 C1412.65,213.477 1413.09,215.31 1413.97,216.185 C1414.85,217.06 1416.7,217.498 1419.5,217.498 L1420.09,217.498 M1424.5,198.154 C1424.5,189.279 1427.12,182.123 1432.36,176.685 C1437.6,171.248 1443.74,168.529 1450.78,168.529 C1455.82,168.529 1460.16,169.75 1463.8,172.193 C1467.44,174.636 1469.26,177.534 1469.26,180.888 C1469.26,182.253 1468.7,183.435 1467.58,184.435 C1466.45,185.435 1465.09,185.935 1463.5,185.935 C1460.78,185.935 1458.9,184.112 1457.86,180.467 L1457.14,177.842 C1456.49,175.623 1455.69,174.118 1454.73,173.326 C1453.77,172.534 1452.22,172.138 1450.06,172.138 C1445.17,172.138 1441.23,174.068 1438.23,177.928 C1435.23,181.787 1433.73,186.779 1433.73,192.904 C1433.73,199.748 1435.47,205.336 1438.95,209.67 C1442.43,214.003 1446.89,216.17 1452.34,216.17 C1455.78,216.17 1458.74,215.334 1461.22,213.662 C1463.7,211.99 1466.38,209.086 1469.26,204.951 L1470.94,206.029 C1470.13,207.633 1469.43,208.956 1468.83,209.998 C1468.23,211.04 1467.16,212.605 1465.6,214.693 C1464.04,216.782 1462.5,218.469 1460.98,219.756 C1459.46,221.042 1457.46,222.227 1454.98,223.31 C1452.5,224.394 1449.94,224.935 1447.29,224.935 C1440.66,224.935 1435.2,222.433 1430.92,217.428 C1426.64,212.422 1424.5,205.998 1424.5,198.154 M1532.09,217.498 L1532.09,219.17 C1525.85,220.93 1520.37,222.81 1515.65,224.81 L1515.17,224.56 L1515.17,214.388 C1514.93,214.628 1514.23,215.344 1513.08,216.537 C1511.92,217.73 1511.1,218.555 1510.62,219.013 C1510.14,219.472 1509.32,220.178 1508.16,221.131 C1507,222.084 1505.98,222.769 1505.1,223.185 C1504.22,223.602 1503.1,223.998 1501.74,224.373 C1500.38,224.748 1499.02,224.935 1497.65,224.935 C1493.26,224.935 1489.74,223.498 1487.1,220.623 C1484.46,217.748 1483.14,213.92 1483.14,209.138 L1483.14,179.06 C1483.14,176.269 1482.62,174.336 1481.58,173.263 C1480.53,172.191 1478.58,171.576 1475.7,171.42 L1475.7,169.732 L1493.22,169.732 L1493.22,208.654 C1493.22,211.123 1494.06,213.253 1495.74,215.045 C1497.42,216.836 1499.42,217.732 1501.73,217.732 C1502.62,217.732 1503.66,217.612 1504.86,217.373 C1506.06,217.133 1507.44,216.675 1509,215.998 C1510.56,215.321 1511.88,214.248 1512.96,212.779 C1514.04,211.31 1514.58,209.498 1514.58,207.342 L1514.58,179.295 C1514.58,176.347 1514.04,174.396 1512.96,173.443 C1511.88,172.49 1509.46,171.935 1505.7,171.779 L1505.7,169.732 L1524.65,169.732 L1524.65,210.685 C1524.65,213.477 1525.09,215.31 1525.97,216.185 C1526.85,217.06 1528.7,217.498 1531.5,217.498 L1532.09,217.498 M1534.7,148.982 L1534.7,147.06 C1542.62,145.133 1548.98,143.373 1553.78,141.779 L1554.26,142.013 L1554.26,213.654 C1554.26,216.935 1554.8,219.076 1555.88,220.076 C1556.96,221.076 1559.42,221.696 1563.26,221.935 L1563.26,223.732 L1534.94,223.732 L1534.94,221.935 C1538.7,221.612 1541.17,220.891 1542.37,219.771 C1543.57,218.652 1544.17,216.493 1544.17,213.295 L1544.17,156.06 C1544.17,153.258 1543.81,151.336 1543.09,150.295 C1542.37,149.253 1541.06,148.732 1539.14,148.732 C1537.53,148.732 1536.06,148.816 1534.7,148.982 M1613.7,142.013 L1613.7,178.748 C1614.9,175.79 1617.06,173.347 1620.18,171.42 C1623.3,169.493 1626.7,168.529 1630.37,168.529 C1636.37,168.529 1641.39,171.04 1645.44,176.06 C1649.48,181.081 1651.5,187.284 1651.5,194.67 C1651.5,203.201 1648.8,210.378 1643.4,216.201 C1638,222.024 1631.34,224.935 1623.42,224.935 C1618.62,224.935 1614.12,224.138 1609.92,222.545 C1605.72,220.951 1603.62,219.258 1603.62,217.467 L1603.62,154.982 C1603.62,152.493 1603.24,150.849 1602.48,150.053 C1601.72,149.256 1600.14,148.857 1597.73,148.857 C1596.86,148.857 1596.18,148.899 1595.7,148.982 L1595.7,147.06 C1601.86,145.54 1607.65,143.779 1613.09,141.779 L1613.7,142.013 M1613.7,185.138 L1613.7,215.545 C1613.7,217.066 1614.86,218.409 1617.18,219.576 C1619.5,220.743 1622.22,221.326 1625.34,221.326 C1630.3,221.326 1634.14,219.477 1636.86,215.779 C1639.58,212.081 1640.94,206.894 1640.94,200.217 C1640.94,192.904 1639.56,187.055 1636.79,182.67 C1634.03,178.284 1630.29,176.092 1625.58,176.092 C1622.46,176.092 1619.7,177.016 1617.3,178.865 C1614.9,180.714 1613.7,182.805 1613.7,185.138 M1657.5,211.888 C1657.5,210.451 1657.66,209.115 1657.97,207.881 C1658.29,206.646 1658.85,205.493 1659.65,204.42 C1660.46,203.347 1661.22,202.373 1661.94,201.498 C1662.65,200.623 1663.73,199.727 1665.18,198.81 C1666.62,197.894 1667.82,197.138 1668.78,196.545 C1669.74,195.951 1671.2,195.235 1673.15,194.396 C1675.11,193.558 1676.61,192.92 1677.65,192.482 C1678.7,192.045 1680.34,191.388 1682.58,190.513 C1684.82,189.638 1686.46,189.003 1687.5,188.607 L1687.5,181.326 C1687.5,174.722 1684.46,171.42 1678.37,171.42 C1675.98,171.42 1673.94,171.998 1672.26,173.154 C1670.57,174.31 1669.73,175.691 1669.73,177.295 C1669.73,177.93 1669.83,178.808 1670.04,179.928 C1670.24,181.047 1670.34,181.769 1670.34,182.092 C1670.34,183.456 1669.8,184.638 1668.72,185.638 C1667.63,186.638 1666.37,187.138 1664.94,187.138 C1663.58,187.138 1662.38,186.618 1661.34,185.576 C1660.3,184.534 1659.78,183.331 1659.78,181.967 C1659.78,178.217 1661.72,175.04 1665.6,172.435 C1669.48,169.831 1674.26,168.529 1679.94,168.529 C1686.5,168.529 1691.02,170.102 1693.5,173.248 C1695.98,176.394 1697.22,181.196 1697.22,187.654 L1697.22,210.935 C1697.22,213.56 1697.48,215.37 1698,216.365 C1698.52,217.36 1699.46,217.857 1700.81,217.857 C1702.5,217.857 1704.26,217.102 1706.09,215.592 L1706.09,218.732 C1704.02,221.128 1702.2,222.761 1700.64,223.631 C1699.08,224.5 1697.29,224.935 1695.29,224.935 C1692.82,224.935 1691,224.237 1689.83,222.842 C1688.67,221.446 1687.94,219.144 1687.62,215.935 C1680.74,221.935 1674.89,224.935 1670.09,224.935 C1666.41,224.935 1663.4,223.714 1661.04,221.271 C1658.68,218.829 1657.5,215.701 1657.5,211.888 M1687.5,208.779 L1687.5,191.467 C1680.3,194.092 1675.26,196.638 1672.38,199.107 C1669.5,201.576 1668.06,204.56 1668.06,208.06 C1668.06,211.321 1668.86,213.748 1670.46,215.342 C1672.06,216.935 1673.78,217.732 1675.62,217.732 C1678.34,217.732 1681.26,216.816 1684.37,214.982 C1685.65,214.274 1686.5,213.521 1686.9,212.724 C1687.3,211.928 1687.5,210.612 1687.5,208.779 M1737.58,169.732 L1737.58,173.342 L1725.45,173.342 L1725.45,207.654 C1725.45,211.415 1725.93,214.154 1726.9,215.873 C1727.86,217.592 1729.46,218.451 1731.7,218.451 C1734.18,218.451 1736.58,217.05 1738.9,214.248 L1740.45,215.576 C1736.62,221.816 1731.82,224.935 1726.06,224.935 C1718.94,224.935 1715.37,219.831 1715.37,209.623 L1715.37,173.342 L1709.01,173.342 C1708.7,173.112 1708.54,172.847 1708.54,172.545 C1708.54,172.17 1708.66,171.87 1708.9,171.646 C1709.14,171.422 1709.6,171.105 1710.28,170.693 C1710.96,170.282 1711.78,169.691 1712.74,168.92 C1713.7,168.149 1715.02,166.75 1716.7,164.724 C1718.38,162.698 1720.22,160.263 1722.22,157.42 C1723.5,155.555 1724.3,154.42 1724.62,154.013 C1725.17,154.013 1725.45,154.54 1725.45,155.592 L1725.45,169.732 L1737.58,169.732 M1743.5,211.888 C1743.5,210.451 1743.66,209.115 1743.97,207.881 C1744.29,206.646 1744.85,205.493 1745.65,204.42 C1746.46,203.347 1747.22,202.373 1747.94,201.498 C1748.65,200.623 1749.73,199.727 1751.18,198.81 C1752.62,197.894 1753.82,197.138 1754.78,196.545 C1755.74,195.951 1757.2,195.235 1759.15,194.396 C1761.11,193.558 1762.61,192.92 1763.65,192.482 C1764.7,192.045 1766.34,191.388 1768.58,190.513 C1770.82,189.638 1772.46,189.003 1773.5,188.607 L1773.5,181.326 C1773.5,174.722 1770.46,171.42 1764.37,171.42 C1761.98,171.42 1759.94,171.998 1758.26,173.154 C1756.57,174.31 1755.73,175.691 1755.73,177.295 C1755.73,177.93 1755.83,178.808 1756.04,179.928 C1756.24,181.047 1756.34,181.769 1756.34,182.092 C1756.34,183.456 1755.8,184.638 1754.72,185.638 C1753.63,186.638 1752.37,187.138 1750.94,187.138 C1749.58,187.138 1748.38,186.618 1747.34,185.576 C1746.3,184.534 1745.78,183.331 1745.78,181.967 C1745.78,178.217 1747.72,175.04 1751.6,172.435 C1755.48,169.831 1760.26,168.529 1765.94,168.529 C1772.5,168.529 1777.02,170.102 1779.5,173.248 C1781.98,176.394 1783.22,181.196 1783.22,187.654 L1783.22,210.935 C1783.22,213.56 1783.48,215.37 1784,216.365 C1784.52,217.36 1785.46,217.857 1786.81,217.857 C1788.5,217.857 1790.26,217.102 1792.09,215.592 L1792.09,218.732 C1790.02,221.128 1788.2,222.761 1786.64,223.631 C1785.08,224.5 1783.29,224.935 1781.29,224.935 C1778.82,224.935 1777,224.237 1775.83,222.842 C1774.67,221.446 1773.94,219.144 1773.62,215.935 C1766.74,221.935 1760.89,224.935 1756.09,224.935 C1752.41,224.935 1749.4,223.714 1747.04,221.271 C1744.68,218.829 1743.5,215.701 1743.5,211.888 M1773.5,208.779 L1773.5,191.467 C1766.3,194.092 1761.26,196.638 1758.38,199.107 C1755.5,201.576 1754.06,204.56 1754.06,208.06 C1754.06,211.321 1754.86,213.748 1756.46,215.342 C1758.06,216.935 1759.78,217.732 1761.62,217.732 C1764.34,217.732 1767.26,216.816 1770.37,214.982 C1771.65,214.274 1772.5,213.521 1772.9,212.724 C1773.3,211.928 1773.5,210.612 1773.5,208.779 M1793.7,148.982 L1793.7,147.06 C1801.62,145.133 1807.98,143.373 1812.78,141.779 L1813.26,142.013 L1813.26,213.654 C1813.26,216.935 1813.8,219.076 1814.88,220.076 C1815.96,221.076 1818.42,221.696 1822.26,221.935 L1822.26,223.732 L1793.94,223.732 L1793.94,221.935 C1797.7,221.612 1800.17,220.891 1801.37,219.771 C1802.57,218.652 1803.17,216.493 1803.17,213.295 L1803.17,156.06 C1803.17,153.258 1802.81,151.336 1802.09,150.295 C1801.37,149.253 1800.06,148.732 1798.14,148.732 C1796.53,148.732 1795.06,148.816 1793.7,148.982 M1909.06,169.732 L1909.06,171.529 C1907.22,171.696 1905.85,172.297 1904.97,173.334 C1904.09,174.37 1902.86,176.888 1901.26,180.888 L1885.9,219.42 C1884.3,223.42 1883.17,225.42 1882.53,225.42 C1881.65,225.42 1880.62,223.54 1879.42,219.779 L1865.01,185.326 C1862.46,179.17 1860.58,175.373 1859.38,173.935 C1858.18,172.498 1856.41,171.696 1854.09,171.529 L1854.09,169.732 L1877.62,169.732 L1877.62,171.529 C1875.54,171.696 1874.1,172.019 1873.29,172.498 C1872.49,172.977 1872.09,173.774 1872.09,174.888 C1872.09,176.17 1872.45,177.654 1873.17,179.342 L1885.42,210.06 L1897.29,178.967 C1897.77,177.769 1898.01,176.571 1898.01,175.373 C1898.01,173.133 1896.13,171.852 1892.37,171.529 L1892.37,169.732 L1909.06,169.732 M1916.94,176.576 C1915.17,176.576 1913.5,176.696 1911.9,176.935 L1911.9,175.138 C1917.5,173.534 1923.7,171.331 1930.5,168.529 L1930.98,168.888 L1930.98,211.498 C1930.98,215.81 1931.48,218.547 1932.48,219.709 C1933.48,220.87 1935.94,221.612 1939.86,221.935 L1939.86,223.732 L1911.42,223.732 L1911.42,221.935 C1915.58,221.696 1918.2,220.974 1919.28,219.771 C1920.36,218.568 1920.9,215.81 1920.9,211.498 L1920.9,183.654 C1920.9,181.019 1920.6,179.18 1920,178.138 C1919.39,177.097 1918.37,176.576 1916.94,176.576 M1924.86,141.779 C1926.62,141.779 1928.1,142.378 1929.29,143.576 C1930.49,144.774 1931.09,146.211 1931.09,147.888 C1931.09,149.649 1930.49,151.11 1929.29,152.271 C1928.1,153.433 1926.62,154.013 1924.86,154.013 C1923.18,154.013 1921.76,153.415 1920.6,152.217 C1919.44,151.019 1918.86,149.579 1918.86,147.896 C1918.86,146.214 1919.46,144.774 1920.65,143.576 C1921.85,142.378 1923.25,141.779 1924.86,141.779 M1943.7,175.857 L1943.7,173.81 C1949.62,172.092 1955.14,170.331 1960.26,168.529 L1961.09,168.763 L1961.09,178.138 C1965.17,174.347 1968.4,171.797 1970.76,170.49 C1973.12,169.183 1975.7,168.529 1978.5,168.529 C1982.89,168.529 1986.35,170.102 1988.87,173.248 C1991.39,176.394 1992.65,180.79 1992.65,186.435 L1992.65,213.998 C1992.65,216.956 1993.13,218.938 1994.09,219.943 C1995.05,220.948 1997.01,221.612 1999.98,221.935 L1999.98,223.732 L1975.01,223.732 L1975.01,221.935 C1978.06,221.696 1980.08,220.894 1981.08,219.529 C1982.08,218.165 1982.58,215.597 1982.58,211.826 L1982.58,186.685 C1982.58,178.904 1979.65,175.013 1973.81,175.013 C1971.81,175.013 1969.97,175.474 1968.29,176.396 C1966.62,177.318 1964.34,179.144 1961.45,181.873 L1961.45,215.67 C1961.45,217.836 1962.01,219.362 1963.13,220.248 C1964.25,221.133 1966.33,221.696 1969.37,221.935 L1969.37,223.732 L1943.94,223.732 L1943.94,221.935 C1946.98,221.696 1948.98,220.993 1949.94,219.826 C1950.89,218.659 1951.37,216.352 1951.37,212.904 L1951.37,183.076 C1951.37,180.107 1951.05,178.081 1950.41,176.998 C1949.77,175.915 1948.61,175.373 1946.94,175.373 C1945.41,175.373 1944.34,175.534 1943.7,175.857 M2004.5,211.888 C2004.5,210.451 2004.66,209.115 2004.97,207.881 C2005.29,206.646 2005.85,205.493 2006.65,204.42 C2007.46,203.347 2008.22,202.373 2008.94,201.498 C2009.65,200.623 2010.73,199.727 2012.18,198.81 C2013.62,197.894 2014.82,197.138 2015.78,196.545 C2016.74,195.951 2018.2,195.235 2020.15,194.396 C2022.11,193.558 2023.61,192.92 2024.65,192.482 C2025.7,192.045 2027.34,191.388 2029.58,190.513 C2031.82,189.638 2033.46,189.003 2034.5,188.607 L2034.5,181.326 C2034.5,174.722 2031.46,171.42 2025.37,171.42 C2022.98,171.42 2020.94,171.998 2019.26,173.154 C2017.57,174.31 2016.73,175.691 2016.73,177.295 C2016.73,177.93 2016.83,178.808 2017.04,179.928 C2017.24,181.047 2017.34,181.769 2017.34,182.092 C2017.34,183.456 2016.8,184.638 2015.72,185.638 C2014.63,186.638 2013.37,187.138 2011.94,187.138 C2010.58,187.138 2009.38,186.618 2008.34,185.576 C2007.3,184.534 2006.78,183.331 2006.78,181.967 C2006.78,178.217 2008.72,175.04 2012.6,172.435 C2016.48,169.831 2021.26,168.529 2026.94,168.529 C2033.5,168.529 2038.02,170.102 2040.5,173.248 C2042.98,176.394 2044.22,181.196 2044.22,187.654 L2044.22,210.935 C2044.22,213.56 2044.48,215.37 2045,216.365 C2045.52,217.36 2046.46,217.857 2047.81,217.857 C2049.5,217.857 2051.26,217.102 2053.09,215.592 L2053.09,218.732 C2051.02,221.128 2049.2,222.761 2047.64,223.631 C2046.08,224.5 2044.29,224.935 2042.29,224.935 C2039.82,224.935 2038,224.237 2036.83,222.842 C2035.67,221.446 2034.94,219.144 2034.62,215.935 C2027.74,221.935 2021.89,224.935 2017.09,224.935 C2013.41,224.935 2010.4,223.714 2008.04,221.271 C2005.68,218.829 2004.5,215.701 2004.5,211.888 M2034.5,208.779 L2034.5,191.467 C2027.3,194.092 2022.26,196.638 2019.38,199.107 C2016.5,201.576 2015.06,204.56 2015.06,208.06 C2015.06,211.321 2015.86,213.748 2017.46,215.342 C2019.06,216.935 2020.78,217.732 2022.62,217.732 C2025.34,217.732 2028.26,216.816 2031.37,214.982 C2032.65,214.274 2033.5,213.521 2033.9,212.724 C2034.3,211.928 2034.5,210.612 2034.5,208.779"/>
<path class="Text" d="M1333.72,297.889 C1332.44,297.889 1331.33,297.441 1330.41,296.545 C1329.49,295.649 1328.77,294.639 1328.26,293.514 C1327.74,292.389 1326.94,291.378 1325.86,290.482 C1324.77,289.586 1323.47,289.139 1321.95,289.139 C1317.4,289.139 1315.12,292.696 1315.12,299.81 L1315.12,313.732 L1329.87,313.732 L1329.87,317.342 L1315.23,317.342 L1315.23,355.201 C1315.23,359.701 1315.87,362.573 1317.15,363.818 C1318.44,365.063 1321.52,365.769 1326.4,365.935 L1326.4,367.732 L1295.2,367.732 L1295.2,365.935 C1299.52,365.696 1302.26,364.951 1303.42,363.701 C1304.58,362.451 1305.15,359.618 1305.15,355.201 L1305.15,317.342 L1295.31,317.342 L1295.31,313.732 L1305.15,313.732 C1305.32,304.701 1307,297.743 1310.2,292.857 C1313.4,287.972 1318.76,285.529 1326.28,285.529 C1329.87,285.529 1332.85,286.23 1335.22,287.631 C1337.58,289.032 1338.76,290.816 1338.76,292.982 C1338.76,294.336 1338.26,295.493 1337.26,296.451 C1336.26,297.409 1335.08,297.889 1333.72,297.889 M1342,355.889 C1342,354.451 1342.16,353.115 1342.47,351.881 C1342.79,350.646 1343.35,349.493 1344.15,348.42 C1344.96,347.347 1345.72,346.373 1346.44,345.498 C1347.15,344.623 1348.23,343.727 1349.68,342.81 C1351.12,341.894 1352.32,341.139 1353.28,340.545 C1354.24,339.951 1355.7,339.235 1357.65,338.396 C1359.61,337.558 1361.11,336.92 1362.15,336.482 C1363.2,336.045 1364.84,335.389 1367.08,334.514 C1369.32,333.639 1370.96,333.003 1372,332.607 L1372,325.326 C1372,318.722 1368.96,315.42 1362.87,315.42 C1360.48,315.42 1358.44,315.998 1356.76,317.154 C1355.07,318.31 1354.23,319.691 1354.23,321.295 C1354.23,321.93 1354.33,322.808 1354.54,323.928 C1354.74,325.047 1354.84,325.769 1354.84,326.092 C1354.84,327.456 1354.3,328.639 1353.22,329.639 C1352.13,330.639 1350.87,331.139 1349.44,331.139 C1348.08,331.139 1346.88,330.618 1345.84,329.576 C1344.8,328.534 1344.28,327.331 1344.28,325.967 C1344.28,322.217 1346.22,319.04 1350.1,316.435 C1353.98,313.831 1358.76,312.529 1364.44,312.529 C1371,312.529 1375.52,314.102 1378,317.248 C1380.48,320.394 1381.72,325.196 1381.72,331.654 L1381.72,354.935 C1381.72,357.56 1381.98,359.37 1382.5,360.365 C1383.02,361.36 1383.96,361.857 1385.31,361.857 C1387,361.857 1388.76,361.102 1390.59,359.592 L1390.59,362.732 C1388.52,365.128 1386.7,366.761 1385.14,367.631 C1383.58,368.5 1381.79,368.935 1379.79,368.935 C1377.32,368.935 1375.5,368.237 1374.33,366.842 C1373.17,365.446 1372.44,363.144 1372.12,359.935 C1365.24,365.935 1359.39,368.935 1354.59,368.935 C1350.91,368.935 1347.9,367.714 1345.54,365.271 C1343.18,362.829 1342,359.701 1342,355.889 M1372,352.779 L1372,335.467 C1364.8,338.092 1359.76,340.639 1356.88,343.107 C1354,345.576 1352.56,348.56 1352.56,352.06 C1352.56,355.321 1353.36,357.748 1354.96,359.342 C1356.56,360.935 1358.28,361.732 1360.12,361.732 C1362.84,361.732 1365.76,360.816 1368.87,358.982 C1370.15,358.274 1371,357.521 1371.4,356.724 C1371.8,355.928 1372,354.612 1372,352.779 M1427.12,324.295 C1425.91,324.295 1424.43,323.594 1422.67,322.193 C1420.91,320.792 1419.75,320.092 1419.2,320.092 C1417.6,320.092 1415.79,321.253 1413.79,323.576 C1411.79,325.899 1410.79,328.019 1410.79,329.935 L1410.79,356.935 C1410.79,360.373 1411.47,362.691 1412.83,363.889 C1414.19,365.086 1416.91,365.769 1421,365.935 L1421,367.732 L1392.2,367.732 L1392.2,365.935 C1396.03,365.217 1398.41,364.417 1399.33,363.537 C1400.26,362.657 1400.72,360.696 1400.72,357.654 L1400.72,327.654 C1400.72,325.019 1400.42,323.159 1399.82,322.076 C1399.22,320.993 1398.16,320.451 1396.64,320.451 C1395.36,320.451 1393.96,320.612 1392.44,320.935 L1392.44,319.014 C1398.84,316.93 1404.76,314.769 1410.2,312.529 L1410.79,312.779 L1410.79,323.81 C1413.75,319.571 1416.27,316.631 1418.36,314.99 C1420.44,313.349 1422.72,312.529 1425.2,312.529 C1427.27,312.529 1428.89,313.089 1430.05,314.209 C1431.21,315.329 1431.79,316.889 1431.79,318.889 C1431.79,320.576 1431.38,321.899 1430.54,322.857 C1429.7,323.816 1428.56,324.295 1427.12,324.295 M1435,355.889 C1435,354.451 1435.16,353.115 1435.47,351.881 C1435.79,350.646 1436.35,349.493 1437.15,348.42 C1437.96,347.347 1438.72,346.373 1439.44,345.498 C1440.15,344.623 1441.23,343.727 1442.68,342.81 C1444.12,341.894 1445.32,341.139 1446.28,340.545 C1447.24,339.951 1448.7,339.235 1450.65,338.396 C1452.61,337.558 1454.11,336.92 1455.15,336.482 C1456.2,336.045 1457.84,335.389 1460.08,334.514 C1462.32,333.639 1463.96,333.003 1465,332.607 L1465,325.326 C1465,318.722 1461.96,315.42 1455.87,315.42 C1453.48,315.42 1451.44,315.998 1449.76,317.154 C1448.07,318.31 1447.23,319.691 1447.23,321.295 C1447.23,321.93 1447.33,322.808 1447.54,323.928 C1447.74,325.047 1447.84,325.769 1447.84,326.092 C1447.84,327.456 1447.3,328.639 1446.22,329.639 C1445.13,330.639 1443.87,331.139 1442.44,331.139 C1441.08,331.139 1439.88,330.618 1438.84,329.576 C1437.8,328.534 1437.28,327.331 1437.28,325.967 C1437.28,322.217 1439.22,319.04 1443.1,316.435 C1446.98,313.831 1451.76,312.529 1457.44,312.529 C1464,312.529 1468.52,314.102 1471,317.248 C1473.48,320.394 1474.72,325.196 1474.72,331.654 L1474.72,354.935 C1474.72,357.56 1474.98,359.37 1475.5,360.365 C1476.02,361.36 1476.96,361.857 1478.31,361.857 C1480,361.857 1481.76,361.102 1483.59,359.592 L1483.59,362.732 C1481.52,365.128 1479.7,366.761 1478.14,367.631 C1476.58,368.5 1474.79,368.935 1472.79,368.935 C1470.32,368.935 1468.5,368.237 1467.33,366.842 C1466.17,365.446 1465.44,363.144 1465.12,359.935 C1458.24,365.935 1452.39,368.935 1447.59,368.935 C1443.91,368.935 1440.9,367.714 1438.54,365.271 C1436.18,362.829 1435,359.701 1435,355.889 M1465,352.779 L1465,335.467 C1457.8,338.092 1452.76,340.639 1449.88,343.107 C1447,345.576 1445.56,348.56 1445.56,352.06 C1445.56,355.321 1446.36,357.748 1447.96,359.342 C1449.56,360.935 1451.28,361.732 1453.12,361.732 C1455.84,361.732 1458.76,360.816 1461.87,358.982 C1463.15,358.274 1464,357.521 1464.4,356.724 C1464.8,355.928 1465,354.612 1465,352.779 M1545.08,313.732 L1545.08,317.342 L1532.95,317.342 L1532.95,351.654 C1532.95,355.415 1533.43,358.154 1534.4,359.873 C1535.36,361.592 1536.96,362.451 1539.2,362.451 C1541.68,362.451 1544.08,361.05 1546.4,358.248 L1547.95,359.576 C1544.12,365.816 1539.32,368.935 1533.56,368.935 C1526.44,368.935 1522.87,363.831 1522.87,353.623 L1522.87,317.342 L1516.51,317.342 C1516.2,317.112 1516.04,316.847 1516.04,316.545 C1516.04,316.17 1516.16,315.87 1516.4,315.646 C1516.64,315.422 1517.1,315.105 1517.78,314.693 C1518.46,314.282 1519.28,313.691 1520.24,312.92 C1521.2,312.149 1522.52,310.75 1524.2,308.724 C1525.88,306.698 1527.72,304.264 1529.72,301.42 C1531,299.555 1531.8,298.42 1532.12,298.014 C1532.67,298.014 1532.95,298.54 1532.95,299.592 L1532.95,313.732 L1545.08,313.732 M1555.44,320.576 C1553.67,320.576 1552,320.696 1550.4,320.935 L1550.4,319.139 C1556,317.534 1562.2,315.331 1569,312.529 L1569.48,312.889 L1569.48,355.498 C1569.48,359.81 1569.98,362.547 1570.98,363.709 C1571.98,364.87 1574.44,365.612 1578.36,365.935 L1578.36,367.732 L1549.92,367.732 L1549.92,365.935 C1554.08,365.696 1556.7,364.974 1557.78,363.771 C1558.86,362.568 1559.4,359.81 1559.4,355.498 L1559.4,327.654 C1559.4,325.019 1559.1,323.18 1558.5,322.139 C1557.89,321.097 1556.87,320.576 1555.44,320.576 M1563.36,285.779 C1565.12,285.779 1566.6,286.378 1567.79,287.576 C1568.99,288.774 1569.59,290.211 1569.59,291.889 C1569.59,293.649 1568.99,295.11 1567.79,296.271 C1566.6,297.433 1565.12,298.014 1563.36,298.014 C1561.68,298.014 1560.26,297.415 1559.1,296.217 C1557.94,295.019 1557.36,293.579 1557.36,291.896 C1557.36,290.214 1557.96,288.774 1559.15,287.576 C1560.35,286.378 1561.75,285.779 1563.36,285.779 M1582.56,320.217 L1582.56,318.17 C1588.32,316.503 1593.92,314.623 1599.36,312.529 L1600.2,312.779 L1600.2,321.998 C1605.16,318.144 1608.84,315.602 1611.24,314.373 C1613.64,313.144 1616.16,312.529 1618.79,312.529 C1625.12,312.529 1629.36,315.967 1631.51,322.842 C1637.75,315.967 1644.27,312.529 1651.08,312.529 C1660.36,312.529 1665,319.706 1665,334.06 L1665,358.654 C1665,363.112 1666.72,365.461 1670.15,365.701 L1673.28,365.935 L1673.28,367.732 L1647,367.732 L1647,365.935 C1650.52,365.54 1652.72,364.862 1653.6,363.904 C1654.48,362.946 1654.92,360.758 1654.92,357.342 L1654.92,332.139 C1654.92,327.211 1654.28,323.792 1653,321.881 C1651.72,319.969 1649.36,319.014 1645.92,319.014 C1640.64,319.014 1636.28,321.441 1632.84,326.295 L1632.84,356.389 C1632.84,360.128 1633.42,362.633 1634.58,363.904 C1635.73,365.175 1638.03,365.852 1641.48,365.935 L1641.48,367.732 L1614.59,367.732 L1614.59,365.935 C1618.04,365.696 1620.26,365.058 1621.26,364.021 C1622.26,362.985 1622.76,360.795 1622.76,357.451 L1622.76,331.545 C1622.76,323.191 1620.12,319.014 1614.84,319.014 C1612.6,319.014 1610.1,319.571 1607.34,320.685 C1604.58,321.8 1602.36,323.592 1600.67,326.06 L1600.67,359.732 C1600.67,362.034 1601.23,363.605 1602.36,364.443 C1603.48,365.282 1605.64,365.779 1608.84,365.935 L1608.84,367.732 L1582.2,367.732 L1582.2,365.935 C1585.56,365.852 1587.79,365.253 1588.91,364.139 C1590.03,363.024 1590.59,360.836 1590.59,357.576 L1590.59,327.373 C1590.59,324.508 1590.29,322.519 1589.69,321.404 C1589.09,320.29 1588,319.732 1586.4,319.732 C1585.2,319.732 1583.91,319.894 1582.56,320.217 M1675.69,320.576 L1675.69,318.654 C1680.72,317.133 1686.47,315.092 1692.95,312.529 L1693.67,312.779 L1693.67,322.029 C1698.79,315.696 1704.56,312.529 1710.95,312.529 C1716.79,312.529 1721.6,314.938 1725.36,319.756 C1729.12,324.573 1731,330.717 1731,338.185 C1731,346.883 1728.58,354.183 1723.74,360.084 C1718.9,365.985 1712.92,368.935 1705.79,368.935 C1703.23,368.935 1701.09,368.592 1699.37,367.904 C1697.65,367.217 1695.75,365.915 1693.67,363.998 L1693.67,382.685 C1693.67,386.415 1694.31,388.816 1695.59,389.889 C1696.87,390.961 1699.75,391.534 1704.23,391.607 L1704.23,393.764 L1675.2,393.764 L1675.2,391.732 C1678.72,391.409 1681,390.73 1682.04,389.693 C1683.07,388.657 1683.59,386.576 1683.59,383.451 L1683.59,327.295 C1683.59,324.493 1683.27,322.652 1682.64,321.771 C1682,320.891 1680.69,320.451 1678.69,320.451 C1677.4,320.451 1676.4,320.493 1675.69,320.576 M1693.67,327.701 L1693.67,357.373 C1693.67,359.144 1695.05,360.912 1697.81,362.678 C1700.57,364.443 1703.35,365.326 1706.15,365.326 C1710.48,365.326 1713.98,363.256 1716.65,359.115 C1719.33,354.974 1720.67,349.566 1720.67,342.889 C1720.67,335.899 1719.33,330.292 1716.65,326.068 C1713.98,321.844 1710.4,319.732 1705.92,319.732 C1703.12,319.732 1700.38,320.618 1697.69,322.389 C1695.01,324.159 1693.67,325.93 1693.67,327.701 M1741.44,320.576 C1739.67,320.576 1738,320.696 1736.4,320.935 L1736.4,319.139 C1742,317.534 1748.2,315.331 1755,312.529 L1755.48,312.889 L1755.48,355.498 C1755.48,359.81 1755.98,362.547 1756.98,363.709 C1757.98,364.87 1760.44,365.612 1764.36,365.935 L1764.36,367.732 L1735.92,367.732 L1735.92,365.935 C1740.08,365.696 1742.7,364.974 1743.78,363.771 C1744.86,362.568 1745.4,359.81 1745.4,355.498 L1745.4,327.654 C1745.4,325.019 1745.1,323.18 1744.5,322.139 C1743.89,321.097 1742.87,320.576 1741.44,320.576 M1749.36,285.779 C1751.12,285.779 1752.6,286.378 1753.79,287.576 C1754.99,288.774 1755.59,290.211 1755.59,291.889 C1755.59,293.649 1754.99,295.11 1753.79,296.271 C1752.6,297.433 1751.12,298.014 1749.36,298.014 C1747.68,298.014 1746.26,297.415 1745.1,296.217 C1743.94,295.019 1743.36,293.579 1743.36,291.896 C1743.36,290.214 1743.96,288.774 1745.15,287.576 C1746.35,286.378 1747.75,285.779 1749.36,285.779"/>
<path class="MeasureNumber" d="M142.045,992.295 C139.357,992.295 137.193,991.22 135.553,989.069 C133.912,986.918 133.092,984.077 133.092,980.545 C133.092,979.462 133.198,978.34 133.412,977.178 C133.625,976.017 134.092,974.699 134.81,973.225 C135.529,971.751 136.461,970.428 137.607,969.256 C138.753,968.084 140.36,967.037 142.428,966.116 C144.495,965.194 146.878,964.613 149.576,964.373 L149.654,965.014 C146.508,965.524 143.881,966.8 141.771,968.842 C139.662,970.884 138.342,973.41 137.81,976.42 C139.06,975.702 140.006,975.235 140.646,975.022 C141.287,974.808 142.05,974.702 142.935,974.702 C145.227,974.702 147.053,975.444 148.412,976.928 C149.771,978.412 150.451,980.415 150.451,982.936 C150.451,985.696 149.67,987.946 148.107,989.686 C146.545,991.425 144.524,992.295 142.045,992.295 M141.404,976.452 C139.592,976.452 138.373,976.85 137.748,977.647 C137.123,978.444 136.81,979.623 136.81,981.186 C136.81,984.259 137.318,986.678 138.334,988.444 C139.349,990.209 140.737,991.092 142.498,991.092 C143.904,991.092 144.982,990.501 145.732,989.319 C146.482,988.136 146.857,986.462 146.857,984.295 C146.857,981.795 146.383,979.863 145.435,978.498 C144.487,977.134 143.144,976.452 141.404,976.452"/>
<polyline class="BarLine" fill="none" stroke="#000000" stroke-width="4.00" stroke-linejoin="bevel" points="2895.77,1040.73 2895.77,1142.73"/>
<polyline class="BarLine" fill="none" stroke="#000000" stroke-width="12.50" stroke-linejoin="bevel" points="2912.02,1040.73 2912.02,1142.73"/>
<polyline class="BarLine" fill="none" stroke="#000000" stroke-width="4.00" stroke-linejoin="bevel" points="2545.15,1040.73 2545.15,1142.73"/>
<polyline class="BarLine" fill="none" stroke="#000000" stroke-width="4.00" stroke-linejoin="bevel" points="2194.54,1040.73 2194.54,1142.73"/>
<polyline class="BarLine" fill="none" stroke="#000000" stroke-width="4.00" stroke-linejoin="bevel" points="1843.92,1040.73 1843.92,1142.73"/>
<polyline class="BarLine" fill="none" stroke="#000000" stroke-width="4.00" stroke-linejoin="bevel" points="1493.3,1040.73 1493.3,1142.73"/>
<polyline class="BarLine" fill="none" stroke="#000000" stroke-width="4.00" stroke-linejoin="bevel" points="1142.69,1040.73 1142.69,1142.73"/>
<polyline class="BarLine" fill="none" stroke="#000000" stroke-width="4.00" stroke-linejoin="bevel" points="725.572,1040.73 725.572,1142.73"/>
<polyline class="BarLine" fill="none" stroke="#000000" stroke-width="4.00" stroke-linejoin="bevel" points="2916.27,565.733 2916.27,667.733"/>
<polyline class="BarLine" fill="none" stroke="#000000" stroke-width="4.00" stroke-linejoin="bevel" points="2407.05,565.733 2407.05,667.733"/>
<polyline class="BarLine" fill="none" stroke="#000000" stroke-width="4.00" stroke-linejoin="bevel" points="1900.65,565.733 1900.65,667.733"/>
<polyline class="BarLine" fill="none" stroke="#000000" stroke-width="4.00" stroke-linejoin="bevel" points="1394.25,565.733 1394.25,667.733"/>
<polyline class="BarLine" fill="none" stroke="#000000" stroke-width="4.00" stroke-linejoin="bevel" points="887.846,565.733 887.846,667.733"/>
<path class="Accidental" d="M621.395,1072.89 C621.395,1074.13 620.778,1074.75 619.544,1074.75 C618.309,1074.75 617.692,1074.13 617.692,1072.89 L617.692,1058.44 L609.395,1061.56 L609.395,1077.37 C609.395,1078.61 608.775,1079.23 607.536,1079.23 C606.296,1079.23 605.676,1078.61 605.676,1077.37 L605.676,1062.83 L602.551,1064 C602.489,1064.06 602.228,1064.09 601.77,1064.09 C601.249,1064.09 600.794,1063.9 600.403,1063.51 C600.012,1063.12 599.817,1062.66 599.817,1062.14 L599.817,1056.09 C599.817,1055.11 600.239,1054.49 601.083,1054.23 L605.676,1052.67 L605.676,1036.65 L602.551,1037.73 C602.489,1037.8 602.228,1037.83 601.77,1037.83 C601.249,1037.83 600.794,1037.63 600.403,1037.24 C600.012,1036.85 599.817,1036.39 599.817,1035.87 L599.817,1029.81 C599.817,1028.9 600.239,1028.32 601.083,1028.06 L605.676,1026.3 L605.676,1010.58 C605.676,1009.34 606.296,1008.72 607.536,1008.72 C608.775,1008.72 609.395,1009.34 609.395,1010.58 L609.395,1025.03 L617.692,1021.9 L617.692,1006.09 C617.692,1004.85 618.309,1004.23 619.544,1004.23 C620.778,1004.23 621.395,1004.85 621.395,1006.09 L621.395,1020.64 L624.63,1019.47 C624.692,1019.4 624.916,1019.37 625.301,1019.37 C625.76,1019.37 626.249,1019.57 626.77,1019.95 C627.166,1020.35 627.364,1020.81 627.364,1021.33 L627.364,1027.37 C627.364,1028.29 626.906,1028.91 625.989,1029.23 L621.395,1030.8 L621.395,1046.81 L624.63,1045.73 C624.692,1045.67 624.916,1045.64 625.301,1045.64 C625.76,1045.64 626.249,1045.84 626.77,1046.23 C627.166,1046.62 627.364,1047.07 627.364,1047.59 L627.364,1053.65 C627.364,1054.5 626.906,1055.08 625.989,1055.4 L621.395,1057.17 L621.395,1072.89 M617.692,1032.26 L609.395,1035.19 L609.395,1051.2 L617.692,1048.28 L617.692,1032.26 "/>
<polyline class="LedgerLine" fill="none" stroke="#000000" stroke-width="4.00" stroke-linecap="square" stroke-linejoin="bevel" points="946.38,1016.73 994.294,1016.73"/>
<polyline class="LedgerLine" fill="none" stroke="#000000" stroke-width="4.00" stroke-linecap="square" stroke-linejoin="bevel" points="852.976,1016.73 900.89,1016.73"/>
<polyline class="LedgerLine" fill="none" stroke="#000000" stroke-width="4.00" stroke-linecap="square" stroke-linejoin="bevel" points="759.572,1016.73 807.486,1016.73"/>
<polyline class="Stem" fill="none" stroke="#000000" stroke-width="3.25" stroke-linecap="round" stroke-linejoin="bevel" points="2816.24,1096.43 2816.24,1169.86"/>
<polyline class="Stem" fill="none" stroke="#000000" stroke-width="3.25" stroke-linecap="round" stroke-linejoin="bevel" points="2737.08,1096.43 2737.08,1169.86"/>
<polyline class="Stem" fill="none" stroke="#000000" stroke-width="3.25" stroke-linecap="round" stroke-linejoin="bevel" points="2657.93,1083.93 2657.93,1160.48"/>
<polyline class="Stem" fill="none" stroke="#000000" stroke-width="3.25" stroke-linecap="round" stroke-linejoin="bevel" points="2578.78,1071.43 2578.78,1151.11"/>
<polyline class="Stem" fill="none" stroke="#000000" stroke-width="3.25" stroke-linecap="round" stroke-linejoin="bevel" points="2465.62,1058.93 2465.62,1141.73"/>
<polyline class="Stem" fill="none" stroke="#000000" stroke-width="3.25" stroke-linecap="round" stroke-linejoin="bevel" points="2386.47,1046.43 2386.47,1129.23"/>
<polyline class="Stem" fill="none" stroke="#000000" stroke-width="3.25" stroke-linecap="round" stroke-linejoin="bevel" points="2307.31,1058.93 2307.31,1141.73"/>
<polyline class="Stem" fill="none" stroke="#000000" stroke-width="3.25" stroke-linecap="round" stroke-linejoin="bevel" points="2228.16,1046.43 2228.16,1129.23"/>
<polyline class="Stem" fill="none" stroke="#000000" stroke-width="3.25" stroke-linecap="round" stroke-linejoin="bevel" points="2115.01,1046.43 2115.01,1129.23"/>
<polyline class="Stem" fill="none" stroke="#000000" stroke-width="3.25" stroke-linecap="round" stroke-linejoin="bevel" points="2035.85,1071.43 2035.85,1151.11"/>
<polyline class="Stem" fill="none" stroke="#000000" stroke-width="3.25" stroke-linecap="round" stroke-linejoin="bevel" points="1956.7,1071.43 1956.7,1151.11"/>
<polyline class="Stem" fill="none" stroke="#000000" stroke-width="3.25" stroke-linecap="round" stroke-linejoin="bevel" points="1877.54,1096.43 1877.54,1169.86"/>
<polyline class="Stem" fill="none" stroke="#000000" stroke-width="3.25" stroke-linecap="round" stroke-linejoin="bevel" points="1764.39,1083.93 1764.39,1160.48"/>
<polyline class="Stem" fill="none" stroke="#000000" stroke-width="3.25" stroke-linecap="round" stroke-linejoin="bevel" points="1685.24,1071.43 1685.24,1151.11"/>
<polyline class="Stem" fill="none" stroke="#000000" stroke-width="3.25" stroke-linecap="round" stroke-linejoin="bevel" points="1606.08,1058.93 1606.08,1141.73"/>
<polyline class="Stem" fill="none" stroke="#000000" stroke-width="3.25" stroke-linecap="round" stroke-linejoin="bevel" points="1526.93,1046.43 1526.93,1129.23"/>
<polyline class="Stem" fill="none" stroke="#000000" stroke-width="3.25" stroke-linecap="round" stroke-linejoin="bevel" points="1413.77,1046.43 1413.77,1129.23"/>
<polyline class="Stem" fill="none" stroke="#000000" stroke-width="3.25" stroke-linecap="round" stroke-linejoin="bevel" points="1334.62,1071.43 1334.62,1151.11"/>
<polyline class="Stem" fill="none" stroke="#000000" stroke-width="3.25" stroke-linecap="round" stroke-linejoin="bevel" points="1255.47,1058.93 1255.47,1141.73"/>
<polyline class="Stem" fill="none" stroke="#000000" stroke-width="3.25" stroke-linecap="round" stroke-linejoin="bevel" points="1176.31,1046.43 1176.31,1129.23"/>
<polyline class="Stem" fill="none" stroke="#000000" stroke-width="3.25" stroke-linecap="round" stroke-linejoin="bevel" points="1048.91,1033.93 1048.91,1116.73"/>
<polyline class="Stem" fill="none" stroke="#000000" stroke-width="3.25" stroke-linecap="round" stroke-linejoin="bevel" points="955.505,1021.43 955.505,1104.23"/>
<polyline class="Stem" fill="none" stroke="#000000" stroke-width="3.25" stroke-linecap="round" stroke-linejoin="bevel" points="862.101,1008.93 862.101,1091.73"/>
<polyline class="Stem" fill="none" stroke="#000000" stroke-width="3.25" stroke-linecap="round" stroke-linejoin="bevel" points="768.697,1008.93 768.697,1091.73"/>
<polyline class="Stem" fill="none" stroke="#000000" stroke-width="3.25" stroke-linecap="round" stroke-linejoin="bevel" points="634.481,1046.43 634.481,1129.23"/>
<polyline class="Stem" fill="none" stroke="#000000" stroke-width="3.25" stroke-linecap="round" stroke-linejoin="bevel" points="543.765,1058.93 543.765,1141.73"/>
<polyline class="Stem" fill="none" stroke="#000000" stroke-width="3.25" stroke-linecap="round" stroke-linejoin="bevel" points="453.05,1071.43 453.05,1151.11"/>
<polyline class="Stem" fill="none" stroke="#000000" stroke-width="3.25" stroke-linecap="round" stroke-linejoin="bevel" points="362.334,1083.93 362.334,1160.48"/>
<polyline class="Stem" fill="none" stroke="#000000" stroke-width="3.25" stroke-linecap="round" stroke-linejoin="bevel" points="2678.29,621.428 2678.29,694.858"/>
<polyline class="Stem" fill="none" stroke="#000000" stroke-width="3.25" stroke-linecap="round" stroke-linejoin="bevel" points="2559.48,621.428 2559.48,694.858"/>
<polyline class="Stem" fill="none" stroke="#000000" stroke-width="3.25" stroke-linecap="round" stroke-linejoin="bevel" points="2440.68,608.928 2440.68,685.483"/>
<polyline class="Stem" fill="none" stroke="#000000" stroke-width="3.25" stroke-linecap="round" stroke-linejoin="bevel" points="2288.58,596.428 2288.58,676.108"/>
<polyline class="Stem" fill="none" stroke="#000000" stroke-width="3.25" stroke-linecap="round" stroke-linejoin="bevel" points="2170.48,583.928 2170.48,666.733"/>
<polyline class="Stem" fill="none" stroke="#000000" stroke-width="3.25" stroke-linecap="round" stroke-linejoin="bevel" points="2052.38,571.428 2052.38,654.233"/>
<polyline class="Stem" fill="none" stroke="#000000" stroke-width="3.25" stroke-linecap="round" stroke-linejoin="bevel" points="1934.28,583.928 1934.28,666.733"/>
<polyline class="Stem" fill="none" stroke="#000000" stroke-width="3.25" stroke-linecap="round" stroke-linejoin="bevel" points="1782.17,571.428 1782.17,654.233"/>
<polyline class="Stem" fill="none" stroke="#000000" stroke-width="3.25" stroke-linecap="round" stroke-linejoin="bevel" points="1664.07,571.428 1664.07,654.233"/>
<polyline class="Stem" fill="none" stroke="#000000" stroke-width="3.25" stroke-linecap="round" stroke-linejoin="bevel" points="1545.97,596.428 1545.97,676.108"/>
<polyline class="Stem" fill="none" stroke="#000000" stroke-width="3.25" stroke-linecap="round" stroke-linejoin="bevel" points="1427.87,596.428 1427.87,676.108"/>
<polyline class="Stem" fill="none" stroke="#000000" stroke-width="3.25" stroke-linecap="round" stroke-linejoin="bevel" points="1305.44,624.537 1305.44,547.983"/>
<polyline class="Stem" fill="none" stroke="#000000" stroke-width="3.25" stroke-linecap="round" stroke-linejoin="bevel" points="1157.67,621.428 1157.67,694.858"/>
<polyline class="Stem" fill="none" stroke="#000000" stroke-width="3.25" stroke-linecap="round" stroke-linejoin="bevel" points="1039.57,608.928 1039.57,685.483"/>
<polyline class="Stem" fill="none" stroke="#000000" stroke-width="3.25" stroke-linecap="round" stroke-linejoin="bevel" points="921.471,608.928 921.471,685.483"/>
<polyline class="Stem" fill="none" stroke="#000000" stroke-width="3.25" stroke-linecap="round" stroke-linejoin="bevel" points="769.37,596.428 769.37,676.108"/>
<polyline class="Stem" fill="none" stroke="#000000" stroke-width="3.25" stroke-linecap="round" stroke-linejoin="bevel" points="651.27,596.428 651.27,676.108"/>
<polyline class="Stem" fill="none" stroke="#000000" stroke-width="3.25" stroke-linecap="round" stroke-linejoin="bevel" points="533.169,621.428 533.169,694.858"/>
<polyline class="Stem" fill="none" stroke="#000000" stroke-width="3.25" stroke-linecap="round" stroke-linejoin="bevel" points="415.068,621.428 415.068,694.858"/>
<path class="Note" d="M2836.58,1077.97 C2839.71,1077.97 2842.35,1078.78 2844.5,1080.4 C2846.51,1082.17 2847.52,1084.38 2847.52,1087.05 C2847.52,1091.53 2845.21,1095.73 2840.6,1099.64 C2835.91,1103.55 2830.89,1105.5 2825.55,1105.5 C2822.43,1105.5 2819.79,1104.69 2817.64,1103.06 C2815.62,1101.3 2814.61,1099.09 2814.61,1096.42 C2814.61,1091.93 2816.96,1087.73 2821.64,1083.83 C2826.21,1079.92 2831.19,1077.97 2836.58,1077.97"/>
<path class="Note" d="M2757.43,1077.97 C2760.55,1077.97 2763.19,1078.78 2765.35,1080.4 C2767.36,1082.17 2768.37,1084.38 2768.37,1087.05 C2768.37,1091.53 2766.06,1095.73 2761.44,1099.64 C2756.76,1103.55 2751.74,1105.5 2746.4,1105.5 C2743.27,1105.5 2740.64,1104.69 2738.49,1103.06 C2736.47,1101.3 2735.46,1099.09 2735.46,1096.42 C2735.46,1091.93 2737.8,1087.73 2742.49,1083.83 C2747.05,1079.92 2752.03,1077.97 2757.43,1077.97"/>
<path class="Note" d="M2678.27,1065.47 C2681.4,1065.47 2684.04,1066.28 2686.2,1067.9 C2688.21,1069.67 2689.21,1071.88 2689.21,1074.55 C2689.21,1079.03 2686.9,1083.23 2682.29,1087.14 C2677.6,1091.05 2672.59,1093 2667.24,1093 C2664.12,1093 2661.48,1092.19 2659.34,1090.56 C2657.32,1088.8 2656.31,1086.59 2656.31,1083.92 C2656.31,1079.43 2658.65,1075.23 2663.34,1071.33 C2667.9,1067.42 2672.88,1065.47 2678.27,1065.47"/>
<path class="Note" d="M2599.12,1052.97 C2602.25,1052.97 2604.89,1053.78 2607.04,1055.4 C2609.05,1057.17 2610.06,1059.38 2610.06,1062.05 C2610.06,1066.53 2607.75,1070.73 2603.14,1074.64 C2598.45,1078.55 2593.43,1080.5 2588.09,1080.5 C2584.96,1080.5 2582.33,1079.69 2580.18,1078.06 C2578.16,1076.3 2577.15,1074.09 2577.15,1071.42 C2577.15,1066.93 2579.5,1062.73 2584.18,1058.83 C2588.75,1054.92 2593.72,1052.97 2599.12,1052.97"/>
<path class="Note" d="M2485.97,1040.47 C2489.09,1040.47 2491.73,1041.28 2493.89,1042.9 C2495.9,1044.67 2496.9,1046.88 2496.9,1049.55 C2496.9,1054.03 2494.6,1058.23 2489.98,1062.14 C2485.29,1066.05 2480.28,1068 2474.94,1068 C2471.81,1068 2469.17,1067.19 2467.03,1065.56 C2465.01,1063.8 2464,1061.59 2464,1058.92 C2464,1054.43 2466.34,1050.23 2471.03,1046.33 C2475.59,1042.42 2480.57,1040.47 2485.97,1040.47"/>
<path class="Note" d="M2406.81,1027.97 C2409.94,1027.97 2412.58,1028.78 2414.73,1030.4 C2416.74,1032.17 2417.75,1034.38 2417.75,1037.05 C2417.75,1041.53 2415.44,1045.73 2410.83,1049.64 C2406.14,1053.55 2401.13,1055.5 2395.78,1055.5 C2392.66,1055.5 2390.02,1054.69 2387.88,1053.06 C2385.85,1051.3 2384.84,1049.09 2384.84,1046.42 C2384.84,1041.93 2387.19,1037.73 2391.88,1033.83 C2396.44,1029.92 2401.42,1027.97 2406.81,1027.97"/>
<path class="Note" d="M2327.66,1040.47 C2330.78,1040.47 2333.42,1041.28 2335.58,1042.9 C2337.59,1044.67 2338.6,1046.88 2338.6,1049.55 C2338.6,1054.03 2336.29,1058.23 2331.67,1062.14 C2326.99,1066.05 2321.97,1068 2316.63,1068 C2313.5,1068 2310.87,1067.19 2308.72,1065.56 C2306.7,1063.8 2305.69,1061.59 2305.69,1058.92 C2305.69,1054.43 2308.03,1050.23 2312.72,1046.33 C2317.28,1042.42 2322.26,1040.47 2327.66,1040.47"/>
<path class="Note" d="M2248.5,1027.97 C2251.63,1027.97 2254.27,1028.78 2256.43,1030.4 C2258.44,1032.17 2259.44,1034.38 2259.44,1037.05 C2259.44,1041.53 2257.13,1045.73 2252.52,1049.64 C2247.83,1053.55 2242.82,1055.5 2237.47,1055.5 C2234.35,1055.5 2231.71,1054.69 2229.57,1053.06 C2227.55,1051.3 2226.54,1049.09 2226.54,1046.42 C2226.54,1041.93 2228.88,1037.73 2233.57,1033.83 C2238.13,1029.92 2243.11,1027.97 2248.5,1027.97"/>
<path class="Note" d="M2135.35,1027.97 C2138.48,1027.97 2141.12,1028.78 2143.27,1030.4 C2145.28,1032.17 2146.29,1034.38 2146.29,1037.05 C2146.29,1041.53 2143.98,1045.73 2139.37,1049.64 C2134.68,1053.55 2129.66,1055.5 2124.32,1055.5 C2121.19,1055.5 2118.56,1054.69 2116.41,1053.06 C2114.39,1051.3 2113.38,1049.09 2113.38,1046.42 C2113.38,1041.93 2115.73,1037.73 2120.41,1033.83 C2124.98,1029.92 2129.95,1027.97 2135.35,1027.97"/>
<path class="Note" d="M2056.2,1052.97 C2059.32,1052.97 2061.96,1053.78 2064.12,1055.4 C2066.13,1057.17 2067.13,1059.38 2067.13,1062.05 C2067.13,1066.53 2064.83,1070.73 2060.21,1074.64 C2055.52,1078.55 2050.51,1080.5 2045.17,1080.5 C2042.04,1080.5 2039.4,1079.69 2037.26,1078.06 C2035.24,1076.3 2034.23,1074.09 2034.23,1071.42 C2034.23,1066.93 2036.57,1062.73 2041.26,1058.83 C2045.82,1054.92 2050.8,1052.97 2056.2,1052.97"/>
<path class="Note" d="M1977.04,1052.97 C1980.17,1052.97 1982.81,1053.78 1984.96,1055.4 C1986.97,1057.17 1987.98,1059.38 1987.98,1062.05 C1987.98,1066.53 1985.67,1070.73 1981.06,1074.64 C1976.37,1078.55 1971.36,1080.5 1966.01,1080.5 C1962.89,1080.5 1960.25,1079.69 1958.11,1078.06 C1956.08,1076.3 1955.07,1074.09 1955.07,1071.42 C1955.07,1066.93 1957.42,1062.73 1962.11,1058.83 C1966.67,1054.92 1971.65,1052.97 1977.04,1052.97"/>
<path class="Note" d="M1897.89,1077.97 C1901.01,1077.97 1903.65,1078.78 1905.81,1080.4 C1907.82,1082.17 1908.83,1084.38 1908.83,1087.05 C1908.83,1091.53 1906.52,1095.73 1901.9,1099.64 C1897.22,1103.55 1892.2,1105.5 1886.86,1105.5 C1883.73,1105.5 1881.1,1104.69 1878.95,1103.06 C1876.93,1101.3 1875.92,1099.09 1875.92,1096.42 C1875.92,1091.93 1878.26,1087.73 1882.95,1083.83 C1887.51,1079.92 1892.49,1077.97 1897.89,1077.97"/>
<path class="Note" d="M1784.73,1065.47 C1787.86,1065.47 1790.5,1066.28 1792.66,1067.9 C1794.67,1069.67 1795.67,1071.88 1795.67,1074.55 C1795.67,1079.03 1793.36,1083.23 1788.75,1087.14 C1784.06,1091.05 1779.05,1093 1773.7,1093 C1770.58,1093 1767.94,1092.19 1765.8,1090.56 C1763.78,1088.8 1762.77,1086.59 1762.77,1083.92 C1762.77,1079.43 1765.11,1075.23 1769.8,1071.33 C1774.36,1067.42 1779.34,1065.47 1784.73,1065.47"/>
<path class="Note" d="M1705.58,1052.97 C1708.71,1052.97 1711.35,1053.78 1713.5,1055.4 C1715.51,1057.17 1716.52,1059.38 1716.52,1062.05 C1716.52,1066.53 1714.21,1070.73 1709.6,1074.64 C1704.91,1078.55 1699.89,1080.5 1694.55,1080.5 C1691.42,1080.5 1688.79,1079.69 1686.64,1078.06 C1684.62,1076.3 1683.61,1074.09 1683.61,1071.42 C1683.61,1066.93 1685.96,1062.73 1690.64,1058.83 C1695.21,1054.92 1700.18,1052.97 1705.58,1052.97"/>
<path class="Note" d="M1626.43,1040.47 C1629.55,1040.47 1632.19,1041.28 1634.35,1042.9 C1636.36,1044.67 1637.36,1046.88 1637.36,1049.55 C1637.36,1054.03 1635.06,1058.23 1630.44,1062.14 C1625.75,1066.05 1620.74,1068 1615.4,1068 C1612.27,1068 1609.63,1067.19 1607.49,1065.56 C1605.47,1063.8 1604.46,1061.59 1604.46,1058.92 C1604.46,1054.43 1606.8,1050.23 1611.49,1046.33 C1616.05,1042.42 1621.03,1040.47 1626.43,1040.47"/>
<path class="Note" d="M1547.27,1027.97 C1550.4,1027.97 1553.04,1028.78 1555.19,1030.4 C1557.2,1032.17 1558.21,1034.38 1558.21,1037.05 C1558.21,1041.53 1555.9,1045.73 1551.29,1049.64 C1546.6,1053.55 1541.59,1055.5 1536.24,1055.5 C1533.12,1055.5 1530.48,1054.69 1528.34,1053.06 C1526.31,1051.3 1525.3,1049.09 1525.3,1046.42 C1525.3,1041.93 1527.65,1037.73 1532.34,1033.83 C1536.9,1029.92 1541.88,1027.97 1547.27,1027.97"/>
<path class="Note" d="M1434.12,1027.97 C1437.24,1027.97 1439.88,1028.78 1442.04,1030.4 C1444.05,1032.17 1445.06,1034.38 1445.06,1037.05 C1445.06,1041.53 1442.75,1045.73 1438.13,1049.64 C1433.45,1053.55 1428.43,1055.5 1423.09,1055.5 C1419.96,1055.5 1417.33,1054.69 1415.18,1053.06 C1413.16,1051.3 1412.15,1049.09 1412.15,1046.42 C1412.15,1041.93 1414.49,1037.73 1419.18,1033.83 C1423.74,1029.92 1428.72,1027.97 1434.12,1027.97"/>
<path class="Note" d="M1354.96,1052.97 C1358.09,1052.97 1360.73,1053.78 1362.89,1055.4 C1364.9,1057.17 1365.9,1059.38 1365.9,1062.05 C1365.9,1066.53 1363.59,1070.73 1358.98,1074.64 C1354.29,1078.55 1349.28,1080.5 1343.93,1080.5 C1340.81,1080.5 1338.17,1079.69 1336.03,1078.06 C1334.01,1076.3 1333,1074.09 1333,1071.42 C1333,1066.93 1335.34,1062.73 1340.03,1058.83 C1344.59,1054.92 1349.57,1052.97 1354.96,1052.97"/>
<path class="Note" d="M1275.81,1040.47 C1278.94,1040.47 1281.58,1041.28 1283.73,1042.9 C1285.74,1044.67 1286.75,1046.88 1286.75,1049.55 C1286.75,1054.03 1284.44,1058.23 1279.83,1062.14 C1275.14,1066.05 1270.12,1068 1264.78,1068 C1261.65,1068 1259.02,1067.19 1256.87,1065.56 C1254.85,1063.8 1253.84,1061.59 1253.84,1058.92 C1253.84,1054.43 1256.19,1050.23 1260.87,1046.33 C1265.44,1042.42 1270.41,1040.47 1275.81,1040.47"/>
<path class="Note" d="M1196.66,1027.97 C1199.78,1027.97 1202.42,1028.78 1204.58,1030.4 C1206.59,1032.17 1207.59,1034.38 1207.59,1037.05 C1207.59,1041.53 1205.29,1045.73 1200.67,1049.64 C1195.98,1053.55 1190.97,1055.5 1185.63,1055.5 C1182.5,1055.5 1179.86,1054.69 1177.72,1053.06 C1175.7,1051.3 1174.69,1049.09 1174.69,1046.42 C1174.69,1041.93 1177.03,1037.73 1181.72,1033.83 C1186.28,1029.92 1191.26,1027.97 1196.66,1027.97"/>
<path class="Note" d="M1069.25,1015.47 C1072.38,1015.47 1075.02,1016.28 1077.17,1017.9 C1079.18,1019.67 1080.19,1021.88 1080.19,1024.55 C1080.19,1029.03 1077.88,1033.23 1073.27,1037.14 C1068.58,1041.05 1063.57,1043 1058.22,1043 C1055.1,1043 1052.46,1042.19 1050.32,1040.56 C1048.29,1038.8 1047.28,1036.59 1047.28,1033.92 C1047.28,1029.43 1049.63,1025.23 1054.32,1021.33 C1058.88,1017.42 1063.86,1015.47 1069.25,1015.47"/>
<path class="Note" d="M975.849,1002.97 C978.974,1002.97 981.614,1003.78 983.77,1005.4 C985.781,1007.17 986.786,1009.38 986.786,1012.05 C986.786,1016.53 984.479,1020.73 979.864,1024.64 C975.177,1028.55 970.161,1030.5 964.817,1030.5 C961.692,1030.5 959.057,1029.69 956.911,1028.06 C954.89,1026.3 953.88,1024.09 953.88,1021.42 C953.88,1016.93 956.224,1012.73 960.911,1008.83 C965.474,1004.92 970.453,1002.97 975.849,1002.97"/>
<path class="Note" d="M882.445,990.467 C885.57,990.467 888.21,991.28 890.366,992.905 C892.377,994.665 893.382,996.879 893.382,999.545 C893.382,1004.03 891.075,1008.23 886.46,1012.14 C881.773,1016.05 876.757,1018 871.413,1018 C868.288,1018 865.653,1017.19 863.507,1015.56 C861.486,1013.8 860.476,1011.59 860.476,1008.92 C860.476,1004.43 862.82,1000.23 867.507,996.327 C872.07,992.42 877.049,990.467 882.445,990.467"/>
<path class="Note" d="M789.041,990.467 C792.166,990.467 794.806,991.28 796.962,992.905 C798.973,994.665 799.978,996.879 799.978,999.545 C799.978,1004.03 797.671,1008.23 793.056,1012.14 C788.369,1016.05 783.353,1018 778.009,1018 C774.884,1018 772.249,1017.19 770.103,1015.56 C768.082,1013.8 767.072,1011.59 767.072,1008.92 C767.072,1004.43 769.416,1000.23 774.103,996.327 C778.666,992.42 783.645,990.467 789.041,990.467"/>
<path class="Note" d="M654.825,1027.97 C657.95,1027.97 660.59,1028.78 662.747,1030.4 C664.757,1032.17 665.762,1034.38 665.762,1037.05 C665.762,1041.53 663.455,1045.73 658.84,1049.64 C654.153,1053.55 649.137,1055.5 643.794,1055.5 C640.669,1055.5 638.033,1054.69 635.887,1053.06 C633.867,1051.3 632.856,1049.09 632.856,1046.42 C632.856,1041.93 635.2,1037.73 639.887,1033.83 C644.45,1029.92 649.429,1027.97 654.825,1027.97"/>
<path class="Note" d="M564.109,1040.47 C567.234,1040.47 569.875,1041.28 572.031,1042.9 C574.041,1044.67 575.047,1046.88 575.047,1049.55 C575.047,1054.03 572.739,1058.23 568.125,1062.14 C563.437,1066.05 558.422,1068 553.078,1068 C549.953,1068 547.317,1067.19 545.172,1065.56 C543.151,1063.8 542.14,1061.59 542.14,1058.92 C542.14,1054.43 544.484,1050.23 549.172,1046.33 C553.734,1042.42 558.713,1040.47 564.109,1040.47"/>
<path class="Note" d="M473.393,1052.97 C476.518,1052.97 479.159,1053.78 481.315,1055.4 C483.326,1057.17 484.331,1059.38 484.331,1062.05 C484.331,1066.53 482.024,1070.73 477.409,1074.64 C472.722,1078.55 467.706,1080.5 462.362,1080.5 C459.237,1080.5 456.602,1079.69 454.456,1078.06 C452.435,1076.3 451.425,1074.09 451.425,1071.42 C451.425,1066.93 453.768,1062.73 458.456,1058.83 C463.018,1054.92 467.998,1052.97 473.393,1052.97"/>
<path class="Note" d="M382.678,1065.47 C385.803,1065.47 388.443,1066.28 390.6,1067.9 C392.61,1069.67 393.615,1071.88 393.615,1074.55 C393.615,1079.03 391.308,1083.23 386.693,1087.14 C382.006,1091.05 376.99,1093 371.646,1093 C368.521,1093 365.886,1092.19 363.74,1090.56 C361.719,1088.8 360.709,1086.59 360.709,1083.92 C360.709,1079.43 363.053,1075.23 367.74,1071.33 C372.303,1067.42 377.282,1065.47 382.678,1065.47"/>
<path class="Note" d="M2698.63,602.967 C2701.75,602.967 2704.39,603.779 2706.55,605.404 C2708.56,607.165 2709.57,609.378 2709.57,612.045 C2709.57,616.535 2707.26,620.733 2702.64,624.639 C2697.96,628.545 2692.94,630.498 2687.6,630.498 C2684.47,630.498 2681.84,629.686 2679.69,628.061 C2677.67,626.3 2676.66,624.087 2676.66,621.42 C2676.66,616.93 2679,612.733 2683.69,608.826 C2688.25,604.92 2693.23,602.967 2698.63,602.967"/>
<path class="Note" d="M2579.83,602.967 C2582.95,602.967 2585.59,603.779 2587.75,605.404 C2589.76,607.165 2590.76,609.378 2590.76,612.045 C2590.76,616.535 2588.46,620.733 2583.84,624.639 C2579.15,628.545 2574.14,630.498 2568.79,630.498 C2565.67,630.498 2563.03,629.686 2560.89,628.061 C2558.87,626.3 2557.86,624.087 2557.86,621.42 C2557.86,616.93 2560.2,612.733 2564.89,608.826 C2569.45,604.92 2574.43,602.967 2579.83,602.967"/>
<path class="Note" d="M2461.02,590.467 C2464.15,590.467 2466.79,591.279 2468.94,592.904 C2470.95,594.665 2471.96,596.878 2471.96,599.545 C2471.96,604.035 2469.65,608.233 2465.04,612.139 C2460.35,616.045 2455.33,617.998 2449.99,617.998 C2446.87,617.998 2444.23,617.186 2442.08,615.561 C2440.06,613.8 2439.05,611.587 2439.05,608.92 C2439.05,604.43 2441.4,600.233 2446.08,596.326 C2450.65,592.42 2455.63,590.467 2461.02,590.467"/>
<path class="Note" d="M2308.92,577.967 C2312.05,577.967 2314.69,578.779 2316.84,580.404 C2318.85,582.165 2319.86,584.378 2319.86,587.045 C2319.86,591.535 2317.55,595.733 2312.94,599.639 C2308.25,603.545 2303.23,605.498 2297.89,605.498 C2294.76,605.498 2292.13,604.686 2289.98,603.061 C2287.96,601.3 2286.95,599.087 2286.95,596.42 C2286.95,591.93 2289.3,587.733 2293.98,583.826 C2298.55,579.92 2303.53,577.967 2308.92,577.967"/>
<path class="Note" d="M2190.82,565.467 C2193.95,565.467 2196.59,566.279 2198.74,567.904 C2200.75,569.665 2201.76,571.878 2201.76,574.545 C2201.76,579.035 2199.45,583.233 2194.84,587.139 C2190.15,591.045 2185.13,592.998 2179.79,592.998 C2176.66,592.998 2174.03,592.186 2171.88,590.561 C2169.86,588.8 2168.85,586.587 2168.85,583.92 C2168.85,579.43 2171.2,575.233 2175.88,571.326 C2180.45,567.42 2185.42,565.467 2190.82,565.467"/>
<path class="Note" d="M2072.72,552.967 C2075.84,552.967 2078.49,553.779 2080.64,555.404 C2082.65,557.165 2083.66,559.378 2083.66,562.045 C2083.66,566.535 2081.35,570.733 2076.74,574.639 C2072.05,578.545 2067.03,580.498 2061.69,580.498 C2058.56,580.498 2055.93,579.686 2053.78,578.061 C2051.76,576.3 2050.75,574.087 2050.75,571.42 C2050.75,566.93 2053.09,562.733 2057.78,558.826 C2062.34,554.92 2067.32,552.967 2072.72,552.967"/>
<path class="Note" d="M1954.62,565.467 C1957.74,565.467 1960.38,566.279 1962.54,567.904 C1964.55,569.665 1965.56,571.878 1965.56,574.545 C1965.56,579.035 1963.25,583.233 1958.63,587.139 C1953.95,591.045 1948.93,592.998 1943.59,592.998 C1940.46,592.998 1937.83,592.186 1935.68,590.561 C1933.66,588.8 1932.65,586.587 1932.65,583.92 C1932.65,579.43 1934.99,575.233 1939.68,571.326 C1944.24,567.42 1949.22,565.467 1954.62,565.467"/>
<path class="Note" d="M1802.52,552.967 C1805.64,552.967 1808.28,553.779 1810.44,555.404 C1812.45,557.165 1813.46,559.378 1813.46,562.045 C1813.46,566.535 1811.15,570.733 1806.53,574.639 C1801.85,578.545 1796.83,580.498 1791.49,580.498 C1788.36,580.498 1785.73,579.686 1783.58,578.061 C1781.56,576.3 1780.55,574.087 1780.55,571.42 C1780.55,566.93 1782.89,562.733 1787.58,558.826 C1792.14,554.92 1797.12,552.967 1802.52,552.967"/>
<path class="Note" d="M1684.42,552.967 C1687.54,552.967 1690.18,553.779 1692.34,555.404 C1694.35,557.165 1695.36,559.378 1695.36,562.045 C1695.36,566.535 1693.05,570.733 1688.43,574.639 C1683.75,578.545 1678.73,580.498 1673.39,580.498 C1670.26,580.498 1667.63,579.686 1665.48,578.061 C1663.46,576.3 1662.45,574.087 1662.45,571.42 C1662.45,566.93 1664.79,562.733 1669.48,558.826 C1674.04,554.92 1679.02,552.967 1684.42,552.967"/>
<path class="Note" d="M1566.32,577.967 C1569.44,577.967 1572.08,578.779 1574.24,580.404 C1576.25,582.165 1577.25,584.378 1577.25,587.045 C1577.25,591.535 1574.95,595.733 1570.33,599.639 C1565.65,603.545 1560.63,605.498 1555.29,605.498 C1552.16,605.498 1549.53,604.686 1547.38,603.061 C1545.36,601.3 1544.35,599.087 1544.35,596.42 C1544.35,591.93 1546.69,587.733 1551.38,583.826 C1555.94,579.92 1560.92,577.967 1566.32,577.967"/>
<path class="Note" d="M1448.22,577.967 C1451.34,577.967 1453.98,578.779 1456.14,580.404 C1458.15,582.165 1459.15,584.378 1459.15,587.045 C1459.15,591.535 1456.85,595.733 1452.23,599.639 C1447.54,603.545 1442.53,605.498 1437.19,605.498 C1434.06,605.498 1431.43,604.686 1429.28,603.061 C1427.26,601.3 1426.25,599.087 1426.25,596.42 C1426.25,591.93 1428.59,587.733 1433.28,583.826 C1437.84,579.92 1442.82,577.967 1448.22,577.967"/>
<path class="Note" d="M1296.12,615.467 C1299.24,615.467 1301.88,616.279 1304.04,617.904 C1306.05,619.665 1307.05,621.878 1307.05,624.545 C1307.05,629.035 1304.75,633.233 1300.13,637.139 C1295.44,641.045 1290.43,642.998 1285.09,642.998 C1281.96,642.998 1279.32,642.186 1277.18,640.561 C1275.16,638.8 1274.15,636.587 1274.15,633.92 C1274.15,629.43 1276.49,625.233 1281.18,621.326 C1285.74,617.42 1290.72,615.467 1296.12,615.467"/>
<path class="Note" d="M1178.02,602.967 C1181.14,602.967 1183.78,603.779 1185.94,605.404 C1187.95,607.165 1188.95,609.378 1188.95,612.045 C1188.95,616.535 1186.65,620.733 1182.03,624.639 C1177.34,628.545 1172.33,630.498 1166.98,630.498 C1163.86,630.498 1161.22,629.686 1159.08,628.061 C1157.06,626.3 1156.05,624.087 1156.05,621.42 C1156.05,616.93 1158.39,612.733 1163.08,608.826 C1167.64,604.92 1172.62,602.967 1178.02,602.967"/>
<path class="Note" d="M1059.92,590.467 C1063.04,590.467 1065.68,591.279 1067.84,592.904 C1069.85,594.665 1070.85,596.878 1070.85,599.545 C1070.85,604.035 1068.55,608.233 1063.93,612.139 C1059.24,616.045 1054.23,617.998 1048.88,617.998 C1045.76,617.998 1043.12,617.186 1040.98,615.561 C1038.96,613.8 1037.95,611.587 1037.95,608.92 C1037.95,604.43 1040.29,600.233 1044.98,596.326 C1049.54,592.42 1054.52,590.467 1059.92,590.467"/>
<path class="Note" d="M941.814,590.467 C944.939,590.467 947.58,591.279 949.736,592.904 C951.747,594.665 952.752,596.878 952.752,599.545 C952.752,604.035 950.445,608.233 945.83,612.139 C941.143,616.045 936.127,617.998 930.783,617.998 C927.658,617.998 925.023,617.186 922.877,615.561 C920.856,613.8 919.846,611.587 919.846,608.92 C919.846,604.43 922.189,600.233 926.877,596.326 C931.439,592.42 936.419,590.467 941.814,590.467"/>
<path class="Note" d="M789.714,577.967 C792.839,577.967 795.48,578.779 797.636,580.404 C799.646,582.165 800.651,584.378 800.651,587.045 C800.651,591.535 798.344,595.733 793.73,599.639 C789.042,603.545 784.026,605.498 778.683,605.498 C775.558,605.498 772.922,604.686 770.776,603.061 C768.756,601.3 767.745,599.087 767.745,596.42 C767.745,591.93 770.089,587.733 774.776,583.826 C779.339,579.92 784.318,577.967 789.714,577.967"/>
<path class="Note" d="M671.613,577.967 C674.738,577.967 677.379,578.779 679.535,580.404 C681.546,582.165 682.551,584.378 682.551,587.045 C682.551,591.535 680.243,595.733 675.629,599.639 C670.941,603.545 665.926,605.498 660.582,605.498 C657.457,605.498 654.822,604.686 652.676,603.061 C650.655,601.3 649.645,599.087 649.645,596.42 C649.645,591.93 651.988,587.733 656.676,583.826 C661.238,579.92 666.217,577.967 671.613,577.967"/>
<path class="Note" d="M553.513,602.967 C556.638,602.967 559.278,603.779 561.435,605.404 C563.445,607.165 564.45,609.378 564.45,612.045 C564.45,616.535 562.143,620.733 557.528,624.639 C552.841,628.545 547.825,630.498 542.481,630.498 C539.356,630.498 536.721,629.686 534.575,628.061 C532.554,626.3 531.544,624.087 531.544,621.42 C531.544,616.93 533.888,612.733 538.575,608.826 C543.138,604.92 548.117,602.967 553.513,602.967"/>
<path class="Note" d="M435.412,602.967 C438.537,602.967 441.178,603.779 443.334,605.404 C445.344,607.165 446.35,609.378 446.35,612.045 C446.35,616.535 444.042,620.733 439.428,624.639 C434.74,628.545 429.725,630.498 424.381,630.498 C421.256,630.498 418.62,629.686 416.475,628.061 C414.454,626.3 413.443,624.087 413.443,621.42 C413.443,616.93 415.787,612.733 420.475,608.826 C425.037,604.92 430.016,602.967 435.412,602.967"/>
<path class="Clef" d="M194.451,1091.14 C194.451,1091.14 194.649,1091.14 195.045,1091.14 C195.305,1091.08 195.529,1091.05 195.717,1091.05 C203.008,1091.05 208.998,1093.62 213.685,1098.76 C218.373,1103.84 220.717,1109.76 220.717,1116.53 C220.717,1124.94 217.237,1131.77 210.279,1137.05 C208.456,1138.48 206.076,1139.65 203.139,1140.56 C203.472,1144.79 203.639,1148.21 203.639,1150.81 C203.639,1151.33 203.571,1153.22 203.435,1156.48 C203.175,1162.53 201.092,1167.77 197.185,1172.2 C193.415,1176.57 188.727,1178.75 183.123,1178.75 C177.852,1178.75 173.362,1176.89 169.654,1173.19 C165.935,1169.4 164.076,1164.85 164.076,1159.51 C164.076,1156.71 165.154,1154.33 167.31,1152.37 C169.519,1150.43 172.086,1149.45 175.014,1149.45 C177.618,1149.45 179.8,1150.46 181.56,1152.48 C183.383,1154.37 184.295,1156.71 184.295,1159.51 C184.295,1162.05 183.383,1164.22 181.56,1166.05 C179.737,1167.87 177.555,1168.78 175.014,1168.78 C173.972,1168.78 172.967,1168.59 171.998,1168.2 C174.862,1172.43 178.67,1174.55 183.42,1174.55 C187.909,1174.55 191.586,1172.72 194.451,1169.08 C197.451,1165.31 199.081,1160.91 199.342,1155.89 C199.467,1152.76 199.529,1150.98 199.529,1150.53 C199.529,1146.88 199.399,1143.89 199.139,1141.55 C195.889,1142.07 192.993,1142.33 190.451,1142.33 C181.399,1142.33 173.685,1138.74 167.31,1131.58 C161.06,1124.35 157.935,1115.75 157.935,1105.8 C157.935,1103.71 158.128,1101.6 158.514,1099.45 C158.909,1097.69 159.399,1095.77 159.982,1093.69 C160.305,1092.51 161.185,1090.62 162.623,1088.01 C163.144,1087.23 163.73,1086.26 164.381,1085.08 C165.032,1083.91 165.487,1083.13 165.748,1082.75 C166.394,1081.45 167.659,1079.69 169.545,1077.47 C170.066,1076.88 170.605,1076.24 171.162,1075.52 C171.719,1074.81 172.193,1074.22 172.584,1073.76 C172.974,1073.31 173.266,1072.95 173.459,1072.69 C173.652,1072.43 175.118,1070.7 177.857,1067.51 C178.503,1066.86 179.136,1066.16 179.756,1065.41 C180.375,1064.67 180.881,1064.08 181.271,1063.65 C181.662,1063.23 181.956,1062.92 182.154,1062.73 C179.81,1054.98 178.342,1048.8 177.748,1044.17 C177.3,1040.46 177.076,1035.38 177.076,1028.94 C177.076,1023.27 178.378,1017.96 180.982,1013.01 C183.514,1007.88 187.06,1003.68 191.623,1000.42 C191.883,1000.22 192.206,1000.12 192.592,1000.12 C193.05,1000.12 193.378,1000.22 193.576,1000.42 C197.086,1004.65 200.112,1010.15 202.654,1016.92 C205.258,1023.69 206.56,1029.85 206.56,1035.39 C206.56,1041.64 205.066,1047.5 202.076,1052.97 C198.691,1058.76 194.326,1064.75 188.982,1070.94 C190.347,1075.23 192.17,1081.96 194.451,1091.14 M202.748,1136.56 C206.133,1135.32 208.774,1133.21 210.67,1130.22 C212.753,1127.35 213.795,1124.13 213.795,1120.55 C213.795,1115.92 212.232,1111.82 209.107,1108.23 C205.909,1104.52 201.836,1102.44 196.889,1101.98 C199.691,1115.72 201.644,1127.25 202.748,1136.56 M164.967,1114 C164.967,1120.45 167.571,1126.11 172.779,1131 C178.112,1135.75 184.102,1138.12 190.748,1138.12 C193.477,1138.12 196.144,1137.93 198.748,1137.53 C197.706,1127.63 195.654,1115.78 192.592,1101.98 C188.883,1102.38 185.925,1103.68 183.717,1105.89 C181.56,1108.17 180.482,1110.74 180.482,1113.61 C180.482,1118.56 183.123,1122.56 188.404,1125.62 C188.852,1126.08 189.076,1126.57 189.076,1127.09 C189.076,1127.61 188.852,1128.1 188.404,1128.55 C188.008,1129 187.519,1129.23 186.935,1129.23 C186.873,1129.23 186.581,1129.17 186.06,1129.05 C182.342,1127.02 179.477,1124.42 177.467,1121.23 C175.571,1117.84 174.623,1114.42 174.623,1110.97 C174.623,1106.48 176.024,1102.41 178.826,1098.76 C181.753,1095.12 185.56,1092.77 190.248,1091.73 C188.425,1084.44 186.93,1078.74 185.764,1074.64 C184.722,1075.82 183.469,1077.23 182.006,1078.89 C180.542,1080.55 179.68,1081.54 179.42,1081.87 C177.076,1084.93 175.284,1087.3 174.045,1089 C171.826,1092.06 170.196,1094.7 169.154,1096.9 C168.05,1099.38 167.076,1102.09 166.232,1105.01 C165.389,1107.82 164.967,1110.81 164.967,1114 M197.576,1014.69 C192.691,1017.09 188.852,1020.54 186.06,1025.03 C183.196,1029.65 181.764,1034.63 181.764,1039.97 C181.764,1044.65 182.935,1050.97 185.279,1058.92 C189.967,1053.25 193.482,1048.01 195.826,1043.2 C198.295,1038.12 199.529,1032.81 199.529,1027.28 C199.529,1023.11 198.878,1018.92 197.576,1014.69"/>
<path class="Clef" d="M194.451,616.139 C194.451,616.139 194.649,616.139 195.045,616.139 C195.305,616.076 195.529,616.045 195.717,616.045 C203.008,616.045 208.998,618.618 213.685,623.764 C218.373,628.837 220.717,634.759 220.717,641.529 C220.717,649.936 217.237,656.774 210.279,662.045 C208.456,663.483 206.076,664.654 203.139,665.561 C203.472,669.79 203.639,673.207 203.639,675.811 C203.639,676.332 203.571,678.222 203.435,681.483 C203.175,687.535 201.092,692.774 197.185,697.201 C193.415,701.566 188.727,703.748 183.123,703.748 C177.852,703.748 173.362,701.894 169.654,698.186 C165.935,694.404 164.076,689.847 164.076,684.514 C164.076,681.712 165.154,679.332 167.31,677.373 C169.519,675.425 172.086,674.451 175.014,674.451 C177.618,674.451 179.8,675.462 181.56,677.483 C183.383,679.368 184.295,681.712 184.295,684.514 C184.295,687.045 183.383,689.222 181.56,691.045 C179.737,692.868 177.555,693.779 175.014,693.779 C173.972,693.779 172.967,693.587 171.998,693.201 C174.862,697.43 178.67,699.545 183.42,699.545 C187.909,699.545 191.586,697.722 194.451,694.076 C197.451,690.305 199.081,685.91 199.342,680.889 C199.467,677.764 199.529,675.977 199.529,675.529 C199.529,671.884 199.399,668.889 199.139,666.545 C195.889,667.066 192.993,667.326 190.451,667.326 C181.399,667.326 173.685,663.743 167.31,656.576 C161.06,649.347 157.935,640.753 157.935,630.795 C157.935,628.712 158.128,626.597 158.514,624.451 C158.909,622.691 159.399,620.769 159.982,618.686 C160.305,617.509 161.185,615.618 162.623,613.014 C163.144,612.233 163.73,611.256 164.381,610.084 C165.032,608.912 165.487,608.134 165.748,607.748 C166.394,606.446 167.659,604.686 169.545,602.467 C170.066,601.884 170.605,601.235 171.162,600.522 C171.719,599.808 172.193,599.222 172.584,598.764 C172.974,598.305 173.266,597.946 173.459,597.686 C173.652,597.425 175.118,595.701 177.857,592.514 C178.503,591.858 179.136,591.157 179.756,590.412 C180.375,589.667 180.881,589.082 181.271,588.654 C181.662,588.227 181.956,587.92 182.154,587.733 C179.81,579.983 178.342,573.795 177.748,569.17 C177.3,565.462 177.076,560.384 177.076,553.936 C177.076,548.269 178.378,542.962 180.982,538.014 C183.514,532.878 187.06,528.68 191.623,525.42 C191.883,525.222 192.206,525.123 192.592,525.123 C193.05,525.123 193.378,525.222 193.576,525.42 C197.086,529.649 200.112,535.149 202.654,541.92 C205.258,548.691 206.56,554.847 206.56,560.389 C206.56,566.639 205.066,572.498 202.076,577.967 C198.691,583.759 194.326,589.748 188.982,595.936 C190.347,600.227 192.17,606.962 194.451,616.139 M202.748,661.561 C206.133,660.321 208.774,658.207 210.67,655.217 C212.753,652.352 213.795,649.128 213.795,645.545 C213.795,640.92 212.232,636.816 209.107,633.233 C205.909,629.524 201.836,627.441 196.889,626.983 C199.691,640.722 201.644,652.248 202.748,661.561 M164.967,638.998 C164.967,645.446 167.571,651.113 172.779,655.998 C178.112,660.748 184.102,663.123 190.748,663.123 C193.477,663.123 196.144,662.925 198.748,662.529 C197.706,652.634 195.654,640.785 192.592,626.983 C188.883,627.378 185.925,628.68 183.717,630.889 C181.56,633.17 180.482,635.743 180.482,638.608 C180.482,643.555 183.123,647.561 188.404,650.623 C188.852,651.082 189.076,651.571 189.076,652.092 C189.076,652.613 188.852,653.097 188.404,653.545 C188.008,654.003 187.519,654.233 186.935,654.233 C186.873,654.233 186.581,654.17 186.06,654.045 C182.342,652.024 179.477,649.42 177.467,646.233 C175.571,642.837 174.623,639.415 174.623,635.967 C174.623,631.477 176.024,627.41 178.826,623.764 C181.753,620.118 185.56,617.774 190.248,616.733 C188.425,609.441 186.93,603.743 185.764,599.639 C184.722,600.816 183.469,602.233 182.006,603.889 C180.542,605.545 179.68,606.54 179.42,606.873 C177.076,609.925 175.284,612.3 174.045,613.998 C171.826,617.061 170.196,619.696 169.154,621.904 C168.05,624.384 167.076,627.087 166.232,630.014 C165.389,632.816 164.967,635.811 164.967,638.998 M197.576,539.686 C192.691,542.092 188.852,545.54 186.06,550.029 C183.196,554.654 181.764,559.634 181.764,564.967 C181.764,569.654 182.935,575.972 185.279,583.92 C189.967,578.253 193.482,573.014 195.826,568.201 C198.295,563.118 199.529,557.811 199.529,552.279 C199.529,548.113 198.878,543.915 197.576,539.686"/>
<path class="KeySig" d="M292.248,1110.39 C292.248,1111.63 291.631,1112.25 290.396,1112.25 C289.162,1112.25 288.545,1111.63 288.545,1110.39 L288.545,1095.94 L280.248,1099.06 L280.248,1114.87 C280.248,1116.11 279.628,1116.73 278.389,1116.73 C277.149,1116.73 276.529,1116.11 276.529,1114.87 L276.529,1100.33 L273.404,1101.5 C273.342,1101.56 273.081,1101.59 272.623,1101.59 C272.102,1101.59 271.646,1101.4 271.256,1101.01 C270.865,1100.62 270.67,1100.16 270.67,1099.64 L270.67,1093.59 C270.67,1092.61 271.092,1091.99 271.935,1091.73 L276.529,1090.17 L276.529,1074.15 L273.404,1075.23 C273.342,1075.3 273.081,1075.33 272.623,1075.33 C272.102,1075.33 271.646,1075.13 271.256,1074.74 C270.865,1074.35 270.67,1073.89 270.67,1073.37 L270.67,1067.31 C270.67,1066.4 271.092,1065.82 271.935,1065.56 L276.529,1063.8 L276.529,1048.08 C276.529,1046.84 277.149,1046.22 278.389,1046.22 C279.628,1046.22 280.248,1046.84 280.248,1048.08 L280.248,1062.53 L288.545,1059.4 L288.545,1043.59 C288.545,1042.35 289.162,1041.73 290.396,1041.73 C291.631,1041.73 292.248,1042.35 292.248,1043.59 L292.248,1058.14 L295.482,1056.97 C295.545,1056.9 295.769,1056.87 296.154,1056.87 C296.613,1056.87 297.102,1057.07 297.623,1057.45 C298.019,1057.85 298.217,1058.31 298.217,1058.83 L298.217,1064.87 C298.217,1065.79 297.758,1066.41 296.842,1066.73 L292.248,1068.3 L292.248,1084.31 L295.482,1083.23 C295.545,1083.17 295.769,1083.14 296.154,1083.14 C296.613,1083.14 297.102,1083.34 297.623,1083.73 C298.019,1084.12 298.217,1084.57 298.217,1085.09 L298.217,1091.15 C298.217,1092 297.758,1092.58 296.842,1092.9 L292.248,1094.67 L292.248,1110.39 M288.545,1069.76 L280.248,1072.69 L280.248,1088.7 L288.545,1085.78 L288.545,1069.76 "/>
<path class="KeySig" d="M267.248,1072.89 C267.248,1074.13 266.631,1074.75 265.396,1074.75 C264.162,1074.75 263.545,1074.13 263.545,1072.89 L263.545,1058.44 L255.248,1061.56 L255.248,1077.37 C255.248,1078.61 254.628,1079.23 253.389,1079.23 C252.149,1079.23 251.529,1078.61 251.529,1077.37 L251.529,1062.83 L248.404,1064 C248.342,1064.06 248.081,1064.09 247.623,1064.09 C247.102,1064.09 246.646,1063.9 246.256,1063.51 C245.865,1063.12 245.67,1062.66 245.67,1062.14 L245.67,1056.09 C245.67,1055.11 246.092,1054.49 246.935,1054.23 L251.529,1052.67 L251.529,1036.65 L248.404,1037.73 C248.342,1037.8 248.081,1037.83 247.623,1037.83 C247.102,1037.83 246.646,1037.63 246.256,1037.24 C245.865,1036.85 245.67,1036.39 245.67,1035.87 L245.67,1029.81 C245.67,1028.9 246.092,1028.32 246.935,1028.06 L251.529,1026.3 L251.529,1010.58 C251.529,1009.34 252.149,1008.72 253.389,1008.72 C254.628,1008.72 255.248,1009.34 255.248,1010.58 L255.248,1025.03 L263.545,1021.9 L263.545,1006.09 C263.545,1004.85 264.162,1004.23 265.396,1004.23 C266.631,1004.23 267.248,1004.85 267.248,1006.09 L267.248,1020.64 L270.482,1019.47 C270.545,1019.4 270.769,1019.37 271.154,1019.37 C271.613,1019.37 272.102,1019.57 272.623,1019.95 C273.019,1020.35 273.217,1020.81 273.217,1021.33 L273.217,1027.37 C273.217,1028.29 272.758,1028.91 271.842,1029.23 L267.248,1030.8 L267.248,1046.81 L270.482,1045.73 C270.545,1045.67 270.769,1045.64 271.154,1045.64 C271.613,1045.64 272.102,1045.84 272.623,1046.23 C273.019,1046.62 273.217,1047.07 273.217,1047.59 L273.217,1053.65 C273.217,1054.5 272.758,1055.08 271.842,1055.4 L267.248,1057.17 L267.248,1072.89 M263.545,1032.26 L255.248,1035.19 L255.248,1051.2 L263.545,1048.28 L263.545,1032.26 "/>
<path class="KeySig" d="M292.248,635.389 C292.248,636.628 291.631,637.248 290.396,637.248 C289.162,637.248 288.545,636.628 288.545,635.389 L288.545,620.936 L280.248,624.061 L280.248,639.873 C280.248,641.113 279.628,641.733 278.389,641.733 C277.149,641.733 276.529,641.113 276.529,639.873 L276.529,625.326 L273.404,626.498 C273.342,626.561 273.081,626.592 272.623,626.592 C272.102,626.592 271.646,626.397 271.256,626.006 C270.865,625.615 270.67,625.16 270.67,624.639 L270.67,618.592 C270.67,617.613 271.092,616.993 271.935,616.733 L276.529,615.17 L276.529,599.154 L273.404,600.233 C273.342,600.295 273.081,600.326 272.623,600.326 C272.102,600.326 271.646,600.131 271.256,599.74 C270.865,599.35 270.67,598.894 270.67,598.373 L270.67,592.311 C270.67,591.404 271.092,590.821 271.935,590.561 L276.529,588.795 L276.529,573.076 C276.529,571.837 277.149,571.217 278.389,571.217 C279.628,571.217 280.248,571.837 280.248,573.076 L280.248,587.529 L288.545,584.404 L288.545,568.592 C288.545,567.352 289.162,566.733 290.396,566.733 C291.631,566.733 292.248,567.352 292.248,568.592 L292.248,583.139 L295.482,581.967 C295.545,581.904 295.769,581.873 296.154,581.873 C296.613,581.873 297.102,582.066 297.623,582.451 C298.019,582.847 298.217,583.305 298.217,583.826 L298.217,589.873 C298.217,590.79 297.758,591.41 296.842,591.733 L292.248,593.295 L292.248,609.311 L295.482,608.233 C295.545,608.17 295.769,608.139 296.154,608.139 C296.613,608.139 297.102,608.337 297.623,608.733 C298.019,609.118 298.217,609.571 298.217,610.092 L298.217,616.154 C298.217,616.998 297.758,617.581 296.842,617.904 L292.248,619.67 L292.248,635.389 M288.545,594.764 L280.248,597.686 L280.248,613.701 L288.545,610.779 L288.545,594.764 "/>
<path class="KeySig" d="M267.248,597.889 C267.248,599.128 266.631,599.748 265.396,599.748 C264.162,599.748 263.545,599.128 263.545,597.889 L263.545,583.436 L255.248,586.561 L255.248,602.373 C255.248,603.613 254.628,604.233 253.389,604.233 C252.149,604.233 251.529,603.613 251.529,602.373 L251.529,587.826 L248.404,588.998 C248.342,589.061 248.081,589.092 247.623,589.092 C247.102,589.092 246.646,588.897 246.256,588.506 C245.865,588.115 245.67,587.66 245.67,587.139 L245.67,581.092 C245.67,580.113 246.092,579.493 246.935,579.233 L251.529,577.67 L251.529,561.654 L248.404,562.733 C248.342,562.795 248.081,562.826 247.623,562.826 C247.102,562.826 246.646,562.631 246.256,562.24 C245.865,561.85 245.67,561.394 245.67,560.873 L245.67,554.811 C245.67,553.904 246.092,553.321 246.935,553.061 L251.529,551.295 L251.529,535.576 C251.529,534.337 252.149,533.717 253.389,533.717 C254.628,533.717 255.248,534.337 255.248,535.576 L255.248,550.029 L263.545,546.904 L263.545,531.092 C263.545,529.852 264.162,529.233 265.396,529.233 C266.631,529.233 267.248,529.852 267.248,531.092 L267.248,545.639 L270.482,544.467 C270.545,544.404 270.769,544.373 271.154,544.373 C271.613,544.373 272.102,544.566 272.623,544.951 C273.019,545.347 273.217,545.805 273.217,546.326 L273.217,552.373 C273.217,553.29 272.758,553.91 271.842,554.233 L267.248,555.795 L267.248,571.811 L270.482,570.733 C270.545,570.67 270.769,570.639 271.154,570.639 C271.613,570.639 272.102,570.837 272.623,571.233 C273.019,571.618 273.217,572.071 273.217,572.592 L273.217,578.654 C273.217,579.498 272.758,580.081 271.842,580.404 L267.248,582.17 L267.248,597.889 M263.545,557.264 L255.248,560.186 L255.248,576.201 L263.545,573.279 L263.545,557.264 "/>
<path class="TimeSig" d="M346.006,567.912 C347.954,567.912 349.613,567.686 350.982,567.233 C352.352,566.779 353.23,566.553 353.615,566.553 C354.074,566.553 354.433,566.683 354.693,566.943 C354.891,567.131 355.021,567.355 355.084,567.615 C355.084,567.751 355.016,567.949 354.881,568.209 L326.475,601.225 L343.162,601.225 L343.162,588.131 C343.162,587.287 343.391,586.568 343.85,585.975 C344.631,585.329 345.282,584.938 345.803,584.803 C346.646,584.417 347.688,583.506 348.928,582.068 C349.969,580.902 351.209,578.855 352.646,575.928 C352.834,575.532 353.126,575.334 353.521,575.334 C354.303,575.334 354.756,575.792 354.881,576.709 L354.881,601.225 L362.021,601.225 C362.928,601.225 363.449,601.709 363.584,602.678 C363.584,603.657 363.063,604.147 362.021,604.147 L354.881,604.147 L354.881,604.928 C354.881,607.532 355.532,609.746 356.834,611.568 C358.334,613.391 360.094,614.303 362.115,614.303 C362.896,614.303 363.287,614.693 363.287,615.475 C363.287,616.256 362.896,616.647 362.115,616.647 C360.751,616.647 358.537,616.454 355.475,616.068 C352.672,615.61 350.49,615.381 348.928,615.381 C347.303,615.381 345.12,615.61 342.381,616.068 C339.454,616.454 337.277,616.647 335.85,616.647 C335.068,616.647 334.678,616.256 334.678,615.475 C334.678,614.693 335.068,614.303 335.85,614.303 C337.86,614.303 339.615,613.391 341.115,611.568 C342.48,609.683 343.162,607.47 343.162,604.928 L343.162,604.147 L326.475,604.147 C325.36,604.147 324.579,603.886 324.131,603.365 C323.6,602.98 323.334,602.459 323.334,601.803 C323.334,601.605 323.824,600.923 324.803,599.756 C325.917,598.454 327.089,596.86 328.318,594.975 C329.756,592.756 331.126,590.475 332.428,588.131 C333.855,585.464 334.995,582.402 335.85,578.943 C336.818,575.433 337.303,571.855 337.303,568.209 C337.303,567.167 337.761,566.647 338.678,566.647 C338.876,566.647 339.297,566.746 339.943,566.943 C340.141,567.006 340.55,567.102 341.17,567.233 C341.79,567.363 342.292,567.49 342.678,567.615 C343.855,567.813 344.964,567.912 346.006,567.912"/>
<path class="TimeSig" d="M346.006,618.084 C347.954,618.084 349.613,617.858 350.982,617.404 C352.352,616.951 353.23,616.725 353.615,616.725 C354.074,616.725 354.433,616.855 354.693,617.115 C354.891,617.303 355.021,617.527 355.084,617.787 C355.084,617.923 355.016,618.121 354.881,618.381 L326.475,651.397 L343.162,651.397 L343.162,638.303 C343.162,637.459 343.391,636.74 343.85,636.147 C344.631,635.501 345.282,635.11 345.803,634.975 C346.646,634.589 347.688,633.678 348.928,632.24 C349.969,631.074 351.209,629.027 352.646,626.1 C352.834,625.704 353.126,625.506 353.521,625.506 C354.303,625.506 354.756,625.964 354.881,626.881 L354.881,651.397 L362.021,651.397 C362.928,651.397 363.449,651.881 363.584,652.85 C363.584,653.829 363.063,654.319 362.021,654.319 L354.881,654.319 L354.881,655.1 C354.881,657.704 355.532,659.917 356.834,661.74 C358.334,663.563 360.094,664.475 362.115,664.475 C362.896,664.475 363.287,664.865 363.287,665.647 C363.287,666.428 362.896,666.819 362.115,666.819 C360.751,666.819 358.537,666.626 355.475,666.24 C352.672,665.782 350.49,665.553 348.928,665.553 C347.303,665.553 345.12,665.782 342.381,666.24 C339.454,666.626 337.277,666.819 335.85,666.819 C335.068,666.819 334.678,666.428 334.678,665.647 C334.678,664.865 335.068,664.475 335.85,664.475 C337.86,664.475 339.615,663.563 341.115,661.74 C342.48,659.855 343.162,657.641 343.162,655.1 L343.162,654.319 L326.475,654.319 C325.36,654.319 324.579,654.058 324.131,653.537 C323.6,653.152 323.334,652.631 323.334,651.975 C323.334,651.777 323.824,651.095 324.803,649.928 C325.917,648.626 327.089,647.032 328.318,645.147 C329.756,642.928 331.126,640.647 332.428,638.303 C333.855,635.636 334.995,632.574 335.85,629.115 C336.818,625.605 337.303,622.027 337.303,618.381 C337.303,617.339 337.761,616.819 338.678,616.819 C338.876,616.819 339.297,616.917 339.943,617.115 C340.141,617.178 340.55,617.274 341.17,617.404 C341.79,617.535 342.292,617.662 342.678,617.787 C343.855,617.985 344.964,618.084 346.006,618.084"/>
<path class="Rest" d="M2794.87,608.92 C2794.87,607.743 2795.53,606.441 2796.84,605.014 C2797.81,603.972 2799.24,602.733 2801.14,601.295 C2802.56,600.326 2803.96,598.863 2805.32,596.904 C2806.63,595.019 2807.28,592.967 2807.28,590.748 C2807.28,588.144 2806.43,585.837 2804.75,583.826 L2801.23,579.623 C2800.97,579.363 2800.84,579.037 2800.84,578.647 C2800.84,578.256 2801.03,577.899 2801.42,577.576 C2801.88,577.243 2802.27,577.076 2802.59,577.076 C2803.05,577.076 2803.41,577.274 2803.67,577.67 L2818.81,595.639 C2819.45,596.483 2819.78,597.326 2819.78,598.17 C2819.78,599.347 2819.13,600.649 2817.82,602.076 C2816.98,602.993 2815.58,604.233 2813.64,605.795 C2812.14,606.701 2810.7,608.165 2809.34,610.186 C2808.04,612.071 2807.39,614.123 2807.39,616.342 C2807.39,619.082 2808.17,621.394 2809.73,623.279 L2818.12,633.139 C2818.32,633.337 2818.48,633.665 2818.6,634.123 C2818.6,634.571 2818.44,634.962 2818.12,635.295 C2817.66,635.618 2817.27,635.779 2816.95,635.779 C2816.82,635.779 2816.3,635.42 2815.39,634.701 C2814.41,633.92 2813.1,633.17 2811.48,632.451 C2809.66,631.743 2807.87,631.389 2806.1,631.389 C2804.48,631.389 2803.15,631.842 2802.1,632.748 C2801.2,633.665 2800.75,635.425 2800.75,638.029 C2800.75,641.998 2801.69,645.123 2803.57,647.404 C2803.77,647.665 2803.8,647.988 2803.67,648.373 C2803.54,648.634 2803.31,648.764 2802.98,648.764 C2802.53,648.764 2801.53,647.592 2799.96,645.248 C2798.33,642.779 2796.8,639.946 2795.37,636.748 C2793.87,633.363 2793.12,630.566 2793.12,628.358 C2793.12,625.555 2794.45,624.154 2797.12,624.154 C2800.18,624.154 2804.16,625.196 2809.04,627.279 L2795.85,611.451 C2795.2,610.608 2794.87,609.764 2794.87,608.92"/>
</svg>
