<?xml version="1.0" encoding="UTF-8" standalone="no"?>
<svg width="3060px" height="3960px" viewBox="0 0 3060 3960"
 xmlns="http://www.w3.org/2000/svg" xmlns:xlink="http://www.w3.org/1999/xlink" version="1.2" baseProfile="tiny">
<title>Cantec_de_catanie</title>
<desc>Generated by MuseScore 3.0.2</desc>
<polyline class="StaffLines" fill="none" stroke="#000000" stroke-width="2.00" stroke-linejoin="bevel" points="141.732,566.733 2918.27,566.733"/>
<polyline class="StaffLines" fill="none" stroke="#000000" stroke-width="2.00" stroke-linejoin="bevel" points="141.732,591.733 2918.27,591.733"/>
<polyline class="StaffLines" fill="none" stroke="#000000" stroke-width="2.00" stroke-linejoin="bevel" points="141.732,616.733 2918.27,616.733"/>
<polyline class="StaffLines" fill="none" stroke="#000000" stroke-width="2.00" stroke-linejoin="bevel" points="141.732,641.733 2918.27,641.733"/>
<polyline class="StaffLines" fill="none" stroke="#000000" stroke-width="2.00" stroke-linejoin="bevel" points="141.732,666.733 2918.27,666.733"/>
<polyline class="StaffLines" fill="none" stroke="#000000" stroke-width="2.00" stroke-linejoin="bevel" points="141.732,1041.73 2918.27,1041.73"/>
<polyline class="StaffLines" fill="none" stroke="#000000" stroke-width="2.00" stroke-linejoin="bevel" points="141.732,1066.73 2918.27,1066.73"/>
<polyline class="StaffLines" fill="none" stroke="#000000" stroke-width="2.00" stroke-linejoin="bevel" points="141.732,1091.73 2918.27,1091.73"/>
<polyline class="StaffLines" fill="none" stroke="#000000" stroke-width="2.00" stroke-linejoin="bevel" points="141.732,1116.73 2918.27,1116.73"/>
<polyline class="StaffLines" fill="none" stroke="#000000" stroke-width="2.00" stroke-linejoin="bevel" points="141.732,1141.73 2918.27,1141.73"/>
<path class="Text" d="M1419.25,315.293 L1417.64,315.293 C1417.21,312.449 1416.53,310.618 1415.6,309.8 C1414.67,308.983 1412.78,308.574 1409.94,308.574 L1399.78,308.574 L1399.78,323.136 C1399.78,325.98 1400.16,327.821 1400.94,328.66 C1401.71,329.498 1403.45,329.991 1406.15,330.136 L1406.15,331.465 L1386.54,331.465 L1386.54,330.136 C1389.21,329.949 1390.89,329.446 1391.59,328.629 C1392.29,327.811 1392.64,325.954 1392.64,323.058 L1392.64,292.746 C1392.64,290.277 1392.27,288.657 1391.52,287.886 C1390.78,287.116 1389.12,286.636 1386.54,286.449 L1386.54,285.121 L1423.72,285.121 L1423.94,295.136 L1422.19,295.136 C1421.58,292.001 1420.65,289.991 1419.39,289.105 C1418.13,288.22 1415.51,287.777 1411.54,287.777 L1402.01,287.777 C1401.09,287.777 1400.48,287.928 1400.2,288.23 C1399.92,288.532 1399.78,289.178 1399.78,290.168 L1399.78,305.699 L1409.94,305.699 C1412.74,305.699 1414.62,305.29 1415.57,304.472 C1416.52,303.655 1417.21,301.85 1417.64,299.058 L1419.25,299.058 L1419.25,315.293 M1426.25,324.558 C1426.25,323.715 1426.34,322.933 1426.53,322.215 C1426.72,321.496 1427.04,320.824 1427.51,320.199 C1427.97,319.574 1428.41,319.006 1428.83,318.496 C1429.26,317.985 1429.89,317.462 1430.72,316.925 C1431.56,316.389 1432.26,315.946 1432.83,315.597 C1433.39,315.248 1434.24,314.832 1435.38,314.347 C1436.52,313.863 1437.4,313.493 1438.01,313.238 C1438.62,312.983 1439.57,312.6 1440.88,312.09 C1442.19,311.579 1443.14,311.204 1443.75,310.965 L1443.75,306.73 C1443.75,302.876 1441.98,300.949 1438.44,300.949 C1437.03,300.949 1435.84,301.285 1434.86,301.957 C1433.88,302.629 1433.39,303.433 1433.39,304.371 C1433.39,304.746 1433.45,305.259 1433.56,305.91 C1433.67,306.561 1433.73,306.98 1433.73,307.168 C1433.73,307.959 1433.42,308.647 1432.79,309.23 C1432.16,309.813 1431.42,310.105 1430.59,310.105 C1429.8,310.105 1429.1,309.803 1428.49,309.199 C1427.88,308.595 1427.58,307.897 1427.58,307.105 C1427.58,304.907 1428.71,303.05 1430.97,301.535 C1433.24,300.019 1436.03,299.261 1439.34,299.261 C1443.16,299.261 1445.8,300.178 1447.25,302.011 C1448.7,303.845 1449.42,306.647 1449.42,310.418 L1449.42,323.996 C1449.42,325.527 1449.57,326.582 1449.87,327.16 C1450.17,327.738 1450.72,328.027 1451.51,328.027 C1452.5,328.027 1453.53,327.59 1454.61,326.715 L1454.61,328.543 C1453.39,329.938 1452.32,330.892 1451.41,331.402 C1450.5,331.912 1449.46,332.168 1448.29,332.168 C1446.85,332.168 1445.79,331.759 1445.12,330.941 C1444.44,330.123 1444.01,328.782 1443.83,326.918 C1439.81,330.418 1436.39,332.168 1433.59,332.168 C1431.45,332.168 1429.69,331.457 1428.31,330.035 C1426.94,328.613 1426.25,326.787 1426.25,324.558 M1443.75,322.746 L1443.75,312.636 C1439.55,314.168 1436.61,315.655 1434.93,317.097 C1433.25,318.54 1432.4,320.282 1432.4,322.324 C1432.4,324.23 1432.87,325.647 1433.81,326.574 C1434.75,327.501 1435.75,327.965 1436.83,327.965 C1438.41,327.965 1440.11,327.428 1441.94,326.355 C1442.67,325.938 1443.16,325.498 1443.4,325.035 C1443.63,324.571 1443.75,323.808 1443.75,322.746 M1475.58,306.121 C1474.87,306.121 1474,305.712 1472.97,304.894 C1471.95,304.077 1471.27,303.668 1470.95,303.668 C1470.01,303.668 1468.96,304.345 1467.79,305.699 C1466.63,307.053 1466.04,308.293 1466.04,309.418 L1466.04,325.168 C1466.04,327.168 1466.44,328.519 1467.24,329.222 C1468.04,329.925 1469.62,330.324 1472,330.418 L1472,331.465 L1455.2,331.465 L1455.2,330.418 C1457.44,329.991 1458.83,329.522 1459.37,329.011 C1459.9,328.501 1460.17,327.36 1460.17,325.59 L1460.17,308.09 C1460.17,306.548 1460,305.462 1459.65,304.832 C1459.3,304.202 1458.68,303.886 1457.79,303.886 C1457.04,303.886 1456.23,303.98 1455.34,304.168 L1455.34,303.043 C1459.07,301.824 1462.52,300.563 1465.7,299.261 L1466.04,299.402 L1466.04,305.84 C1467.77,303.371 1469.25,301.657 1470.46,300.699 C1471.67,299.741 1473,299.261 1474.45,299.261 C1475.66,299.261 1476.6,299.587 1477.28,300.238 C1477.96,300.889 1478.29,301.798 1478.29,302.965 C1478.29,303.954 1478.05,304.728 1477.56,305.285 C1477.07,305.842 1476.41,306.121 1475.58,306.121 M1480.25,324.558 C1480.25,323.715 1480.34,322.933 1480.53,322.215 C1480.72,321.496 1481.04,320.824 1481.51,320.199 C1481.97,319.574 1482.41,319.006 1482.83,318.496 C1483.26,317.985 1483.89,317.462 1484.72,316.925 C1485.56,316.389 1486.26,315.946 1486.83,315.597 C1487.39,315.248 1488.24,314.832 1489.38,314.347 C1490.52,313.863 1491.4,313.493 1492.01,313.238 C1492.62,312.983 1493.57,312.6 1494.88,312.09 C1496.19,311.579 1497.14,311.204 1497.75,310.965 L1497.75,306.73 C1497.75,302.876 1495.98,300.949 1492.44,300.949 C1491.03,300.949 1489.84,301.285 1488.86,301.957 C1487.88,302.629 1487.39,303.433 1487.39,304.371 C1487.39,304.746 1487.45,305.259 1487.56,305.91 C1487.67,306.561 1487.73,306.98 1487.73,307.168 C1487.73,307.959 1487.42,308.647 1486.79,309.23 C1486.16,309.813 1485.42,310.105 1484.59,310.105 C1483.8,310.105 1483.1,309.803 1482.49,309.199 C1481.88,308.595 1481.58,307.897 1481.58,307.105 C1481.58,304.907 1482.71,303.05 1484.97,301.535 C1487.24,300.019 1490.03,299.261 1493.34,299.261 C1497.16,299.261 1499.8,300.178 1501.25,302.011 C1502.7,303.845 1503.42,306.647 1503.42,310.418 L1503.42,323.996 C1503.42,325.527 1503.57,326.582 1503.87,327.16 C1504.17,327.738 1504.72,328.027 1505.51,328.027 C1506.5,328.027 1507.53,327.59 1508.61,326.715 L1508.61,328.543 C1507.39,329.938 1506.32,330.892 1505.41,331.402 C1504.5,331.912 1503.46,332.168 1502.29,332.168 C1500.85,332.168 1499.79,331.759 1499.12,330.941 C1498.44,330.123 1498.01,328.782 1497.83,326.918 C1493.81,330.418 1490.39,332.168 1487.59,332.168 C1485.45,332.168 1483.69,331.457 1482.31,330.035 C1480.94,328.613 1480.25,326.787 1480.25,324.558 M1497.75,322.746 L1497.75,312.636 C1493.55,314.168 1490.61,315.655 1488.93,317.097 C1487.25,318.54 1486.4,320.282 1486.4,322.324 C1486.4,324.23 1486.87,325.647 1487.81,326.574 C1488.75,327.501 1489.75,327.965 1490.83,327.965 C1492.41,327.965 1494.11,327.428 1495.94,326.355 C1496.67,325.938 1497.16,325.498 1497.4,325.035 C1497.63,324.571 1497.75,323.808 1497.75,322.746 M1544.62,299.965 L1544.62,302.058 L1537.56,302.058 L1537.56,322.09 C1537.56,324.277 1537.84,325.873 1538.4,326.879 C1538.95,327.884 1539.89,328.386 1541.2,328.386 C1542.65,328.386 1544.05,327.569 1545.4,325.933 L1546.31,326.699 C1544.07,330.345 1541.27,332.168 1537.9,332.168 C1533.76,332.168 1531.69,329.188 1531.69,323.23 L1531.69,302.058 L1527.97,302.058 C1527.78,301.933 1527.69,301.782 1527.69,301.605 C1527.69,301.386 1527.76,301.212 1527.9,301.082 C1528.04,300.952 1528.31,300.764 1528.7,300.519 C1529.1,300.274 1529.58,299.928 1530.14,299.48 C1530.7,299.032 1531.47,298.217 1532.45,297.035 C1533.43,295.853 1534.5,294.433 1535.67,292.777 C1536.42,291.694 1536.89,291.032 1537.08,290.793 C1537.4,290.793 1537.56,291.1 1537.56,291.715 L1537.56,299.965 L1544.62,299.965 M1550.84,303.949 C1549.81,303.949 1548.83,304.022 1547.9,304.168 L1547.9,303.105 C1551.16,302.178 1554.78,300.897 1558.75,299.261 L1559.03,299.465 L1559.03,324.324 C1559.03,326.845 1559.32,328.444 1559.9,329.121 C1560.49,329.798 1561.92,330.23 1564.22,330.418 L1564.22,331.465 L1547.62,331.465 L1547.62,330.418 C1550.05,330.272 1551.58,329.85 1552.21,329.152 C1552.84,328.454 1553.15,326.845 1553.15,324.324 L1553.15,308.09 C1553.15,306.548 1552.98,305.472 1552.62,304.863 C1552.27,304.254 1551.67,303.949 1550.84,303.949 M1555.47,283.652 C1556.49,283.652 1557.35,284.001 1558.04,284.699 C1558.74,285.397 1559.09,286.235 1559.09,287.215 C1559.09,288.246 1558.74,289.1 1558.04,289.777 C1557.35,290.454 1556.49,290.793 1555.47,290.793 C1554.48,290.793 1553.64,290.441 1552.97,289.738 C1552.29,289.035 1551.95,288.194 1551.95,287.215 C1551.95,286.235 1552.3,285.397 1553.01,284.699 C1553.71,284.001 1554.53,283.652 1555.47,283.652 M1566.4,303.746 L1566.4,302.558 C1569.77,301.579 1573.04,300.48 1576.22,299.261 L1576.7,299.402 L1576.7,304.793 C1579.6,302.543 1581.74,301.058 1583.14,300.34 C1584.53,299.621 1586,299.261 1587.54,299.261 C1591.23,299.261 1593.71,301.267 1594.97,305.277 C1598.61,301.267 1602.42,299.261 1606.39,299.261 C1611.79,299.261 1614.5,303.449 1614.5,311.824 L1614.5,326.168 C1614.5,328.772 1615.5,330.142 1617.51,330.277 L1619.33,330.418 L1619.33,331.465 L1604,331.465 L1604,330.418 C1606.05,330.188 1607.33,329.793 1607.85,329.23 C1608.37,328.668 1608.62,327.392 1608.62,325.402 L1608.62,310.699 C1608.62,307.824 1608.25,305.829 1607.51,304.715 C1606.76,303.6 1605.38,303.043 1603.37,303.043 C1600.29,303.043 1597.75,304.459 1595.75,307.293 L1595.75,324.84 C1595.75,327.027 1596.08,328.491 1596.76,329.23 C1597.43,329.97 1598.77,330.366 1600.78,330.418 L1600.78,331.465 L1585.11,331.465 L1585.11,330.418 C1587.11,330.272 1588.4,329.897 1588.98,329.293 C1589.57,328.688 1589.86,327.412 1589.86,325.465 L1589.86,310.355 C1589.86,305.48 1588.32,303.043 1585.23,303.043 C1583.93,303.043 1582.47,303.368 1580.87,304.019 C1579.26,304.67 1577.96,305.715 1576.98,307.152 L1576.98,326.793 C1576.98,328.136 1577.31,329.053 1577.96,329.543 C1578.61,330.032 1579.87,330.324 1581.73,330.418 L1581.73,331.465 L1566.2,331.465 L1566.2,330.418 C1568.16,330.366 1569.46,330.017 1570.12,329.371 C1570.77,328.725 1571.09,327.449 1571.09,325.543 L1571.09,307.918 C1571.09,306.251 1570.92,305.092 1570.57,304.441 C1570.22,303.79 1569.58,303.465 1568.65,303.465 C1567.95,303.465 1567.2,303.558 1566.4,303.746 M1621.48,303.949 L1621.48,302.824 C1624.42,301.938 1627.78,300.751 1631.56,299.261 L1631.98,299.402 L1631.98,304.793 C1634.97,301.105 1638.33,299.261 1642.06,299.261 C1645.47,299.261 1648.27,300.668 1650.46,303.48 C1652.65,306.293 1653.75,309.876 1653.75,314.23 C1653.75,319.303 1652.34,323.561 1649.51,327.004 C1646.69,330.446 1643.2,332.168 1639.04,332.168 C1637.56,332.168 1636.31,331.967 1635.3,331.566 C1634.3,331.165 1633.19,330.407 1631.98,329.293 L1631.98,340.183 C1631.98,342.36 1632.35,343.761 1633.1,344.386 C1633.84,345.011 1635.52,345.35 1638.14,345.402 L1638.14,346.652 L1621.2,346.652 L1621.2,345.465 C1623.25,345.277 1624.58,344.881 1625.19,344.277 C1625.79,343.673 1626.09,342.459 1626.09,340.636 L1626.09,307.871 C1626.09,306.235 1625.91,305.162 1625.54,304.652 C1625.17,304.142 1624.4,303.886 1623.23,303.886 C1622.48,303.886 1621.9,303.907 1621.48,303.949 M1631.98,308.105 L1631.98,325.418 C1631.98,326.449 1632.79,327.48 1634.4,328.511 C1636.01,329.543 1637.63,330.058 1639.26,330.058 C1641.78,330.058 1643.83,328.85 1645.39,326.433 C1646.95,324.017 1647.73,320.866 1647.73,316.98 C1647.73,312.897 1646.95,309.623 1645.39,307.16 C1643.83,304.696 1641.74,303.465 1639.12,303.465 C1637.49,303.465 1635.89,303.98 1634.33,305.011 C1632.76,306.043 1631.98,307.074 1631.98,308.105 M1659.84,303.949 C1658.81,303.949 1657.83,304.022 1656.9,304.168 L1656.9,303.105 C1660.16,302.178 1663.78,300.897 1667.75,299.261 L1668.03,299.465 L1668.03,324.324 C1668.03,326.845 1668.32,328.444 1668.9,329.121 C1669.49,329.798 1670.92,330.23 1673.22,330.418 L1673.22,331.465 L1656.62,331.465 L1656.62,330.418 C1659.05,330.272 1660.58,329.85 1661.21,329.152 C1661.84,328.454 1662.15,326.845 1662.15,324.324 L1662.15,308.09 C1662.15,306.548 1661.98,305.472 1661.62,304.863 C1661.27,304.254 1660.67,303.949 1659.84,303.949 M1664.47,283.652 C1665.49,283.652 1666.35,284.001 1667.04,284.699 C1667.74,285.397 1668.09,286.235 1668.09,287.215 C1668.09,288.246 1667.74,289.1 1667.04,289.777 C1666.35,290.454 1665.49,290.793 1664.47,290.793 C1663.48,290.793 1662.64,290.441 1661.97,289.738 C1661.29,289.035 1660.95,288.194 1660.95,287.215 C1660.95,286.235 1661.3,285.397 1662.01,284.699 C1662.71,284.001 1663.53,283.652 1664.47,283.652"/>
<path class="Text" d="M1113.2,184.732 C1113.2,172.326 1117.04,162.245 1124.72,154.49 C1132.39,146.735 1141.95,142.857 1153.39,142.857 C1158.51,142.857 1163.32,143.485 1167.79,144.74 C1172.27,145.995 1174.87,146.623 1175.59,146.623 C1178.24,146.623 1179.92,145.368 1180.64,142.857 L1183.15,142.857 L1184.23,169.732 L1181.48,169.732 C1177.08,154.857 1168.47,147.42 1155.67,147.42 C1146.95,147.42 1140.01,150.659 1134.86,157.138 C1129.7,163.618 1127.12,172.295 1127.12,183.17 C1127.12,190.128 1128.02,196.149 1129.82,201.232 C1131.62,206.316 1134.03,210.157 1137.08,212.756 C1140.12,215.355 1143.26,217.235 1146.5,218.396 C1149.74,219.558 1153.2,220.138 1156.87,220.138 C1166.31,220.138 1175.23,216.097 1183.64,208.013 L1185.79,210.17 C1182.12,215.055 1177.44,218.818 1171.76,221.459 C1166.07,224.099 1159.83,225.42 1153.03,225.42 C1141.2,225.42 1131.6,221.698 1124.24,214.256 C1116.88,206.813 1113.2,196.972 1113.2,184.732 M1192,211.888 C1192,210.451 1192.16,209.115 1192.47,207.881 C1192.79,206.646 1193.35,205.493 1194.15,204.42 C1194.96,203.347 1195.72,202.373 1196.44,201.498 C1197.15,200.623 1198.23,199.727 1199.68,198.81 C1201.12,197.894 1202.32,197.138 1203.28,196.545 C1204.24,195.951 1205.7,195.235 1207.65,194.396 C1209.61,193.558 1211.11,192.92 1212.15,192.482 C1213.2,192.045 1214.84,191.388 1217.08,190.513 C1219.32,189.638 1220.96,189.003 1222,188.607 L1222,181.326 C1222,174.722 1218.96,171.42 1212.87,171.42 C1210.48,171.42 1208.44,171.998 1206.76,173.154 C1205.07,174.31 1204.23,175.691 1204.23,177.295 C1204.23,177.93 1204.33,178.808 1204.54,179.928 C1204.74,181.047 1204.84,181.769 1204.84,182.092 C1204.84,183.456 1204.3,184.638 1203.22,185.638 C1202.13,186.638 1200.87,187.138 1199.44,187.138 C1198.08,187.138 1196.88,186.618 1195.84,185.576 C1194.8,184.534 1194.28,183.331 1194.28,181.967 C1194.28,178.217 1196.22,175.04 1200.1,172.435 C1203.98,169.831 1208.76,168.529 1214.44,168.529 C1221,168.529 1225.52,170.102 1228,173.248 C1230.48,176.394 1231.72,181.196 1231.72,187.654 L1231.72,210.935 C1231.72,213.56 1231.98,215.37 1232.5,216.365 C1233.02,217.36 1233.96,217.857 1235.31,217.857 C1237,217.857 1238.76,217.102 1240.59,215.592 L1240.59,218.732 C1238.52,221.128 1236.7,222.761 1235.14,223.631 C1233.58,224.5 1231.79,224.935 1229.79,224.935 C1227.32,224.935 1225.5,224.237 1224.33,222.842 C1223.17,221.446 1222.44,219.144 1222.12,215.935 C1215.24,221.935 1209.39,224.935 1204.59,224.935 C1200.91,224.935 1197.9,223.714 1195.54,221.271 C1193.18,218.829 1192,215.701 1192,211.888 M1222,208.779 L1222,191.467 C1214.8,194.092 1209.76,196.638 1206.88,199.107 C1204,201.576 1202.56,204.56 1202.56,208.06 C1202.56,211.321 1203.36,213.748 1204.96,215.342 C1206.56,216.935 1208.28,217.732 1210.12,217.732 C1212.84,217.732 1215.76,216.816 1218.87,214.982 C1220.15,214.274 1221,213.521 1221.4,212.724 C1221.8,211.928 1222,210.612 1222,208.779 M1242.2,175.857 L1242.2,173.81 C1248.12,172.092 1253.64,170.331 1258.76,168.529 L1259.59,168.763 L1259.59,178.138 C1263.67,174.347 1266.9,171.797 1269.26,170.49 C1271.62,169.183 1274.2,168.529 1277,168.529 C1281.39,168.529 1284.85,170.102 1287.37,173.248 C1289.89,176.394 1291.15,180.79 1291.15,186.435 L1291.15,213.998 C1291.15,216.956 1291.63,218.938 1292.59,219.943 C1293.55,220.948 1295.51,221.612 1298.48,221.935 L1298.48,223.732 L1273.51,223.732 L1273.51,221.935 C1276.56,221.696 1278.58,220.894 1279.58,219.529 C1280.58,218.165 1281.08,215.597 1281.08,211.826 L1281.08,186.685 C1281.08,178.904 1278.15,175.013 1272.31,175.013 C1270.31,175.013 1268.47,175.474 1266.79,176.396 C1265.12,177.318 1262.84,179.144 1259.95,181.873 L1259.95,215.67 C1259.95,217.836 1260.51,219.362 1261.63,220.248 C1262.75,221.133 1264.83,221.696 1267.87,221.935 L1267.87,223.732 L1242.44,223.732 L1242.44,221.935 C1245.48,221.696 1247.48,220.993 1248.44,219.826 C1249.39,218.659 1249.87,216.352 1249.87,212.904 L1249.87,183.076 C1249.87,180.107 1249.55,178.081 1248.91,176.998 C1248.27,175.915 1247.11,175.373 1245.44,175.373 C1243.91,175.373 1242.84,175.534 1242.2,175.857 M1331.08,169.732 L1331.08,173.342 L1318.95,173.342 L1318.95,207.654 C1318.95,211.415 1319.43,214.154 1320.4,215.873 C1321.36,217.592 1322.96,218.451 1325.2,218.451 C1327.68,218.451 1330.08,217.05 1332.4,214.248 L1333.95,215.576 C1330.12,221.816 1325.32,224.935 1319.56,224.935 C1312.44,224.935 1308.87,219.831 1308.87,209.623 L1308.87,173.342 L1302.51,173.342 C1302.2,173.112 1302.04,172.847 1302.04,172.545 C1302.04,172.17 1302.16,171.87 1302.4,171.646 C1302.64,171.422 1303.1,171.105 1303.78,170.693 C1304.46,170.282 1305.28,169.691 1306.24,168.92 C1307.2,168.149 1308.52,166.75 1310.2,164.724 C1311.88,162.698 1313.72,160.263 1315.72,157.42 C1317,155.555 1317.8,154.42 1318.12,154.013 C1318.67,154.013 1318.95,154.54 1318.95,155.592 L1318.95,169.732 L1331.08,169.732 M1345.64,190.498 C1345.79,195.54 1346.47,199.878 1347.68,203.513 C1348.88,207.149 1350.44,209.868 1352.36,211.67 C1354.27,213.472 1356.21,214.753 1358.18,215.513 C1360.14,216.274 1362.2,216.654 1364.36,216.654 C1368.2,216.654 1371.54,215.693 1374.38,213.771 C1377.22,211.849 1380.08,208.612 1382.95,204.06 L1384.87,204.888 C1382.39,211.368 1378.95,216.329 1374.55,219.771 C1370.15,223.214 1365.11,224.935 1359.44,224.935 C1352.56,224.935 1347.1,222.516 1343.06,217.678 C1339.02,212.839 1337,206.3 1337,198.06 C1337,189.175 1339.34,182.032 1344.02,176.631 C1348.7,171.23 1354.72,168.529 1362.08,168.529 C1368.16,168.529 1372.88,170.349 1376.24,173.99 C1379.6,177.631 1381.72,183.133 1382.59,190.498 L1345.64,190.498 M1345.87,186.888 L1370.36,186.888 C1369.56,181.691 1368.32,178.092 1366.64,176.092 C1364.96,174.092 1362.28,173.092 1358.59,173.092 C1351.39,173.092 1347.15,177.691 1345.87,186.888 M1390,198.154 C1390,189.279 1392.62,182.123 1397.86,176.685 C1403.1,171.248 1409.24,168.529 1416.28,168.529 C1421.32,168.529 1425.66,169.75 1429.3,172.193 C1432.94,174.636 1434.76,177.534 1434.76,180.888 C1434.76,182.253 1434.2,183.435 1433.08,184.435 C1431.95,185.435 1430.59,185.935 1429,185.935 C1426.28,185.935 1424.4,184.112 1423.36,180.467 L1422.64,177.842 C1421.99,175.623 1421.19,174.118 1420.23,173.326 C1419.27,172.534 1417.72,172.138 1415.56,172.138 C1410.67,172.138 1406.73,174.068 1403.73,177.928 C1400.73,181.787 1399.23,186.779 1399.23,192.904 C1399.23,199.748 1400.97,205.336 1404.45,209.67 C1407.93,214.003 1412.39,216.17 1417.84,216.17 C1421.28,216.17 1424.24,215.334 1426.72,213.662 C1429.2,211.99 1431.88,209.086 1434.76,204.951 L1436.44,206.029 C1435.63,207.633 1434.93,208.956 1434.33,209.998 C1433.73,211.04 1432.66,212.605 1431.1,214.693 C1429.54,216.782 1428,218.469 1426.48,219.756 C1424.96,221.042 1422.96,222.227 1420.48,223.31 C1418,224.394 1415.44,224.935 1412.79,224.935 C1406.16,224.935 1400.7,222.433 1396.42,217.428 C1392.14,212.422 1390,205.998 1390,198.154 M1511.03,224.935 L1510.56,224.56 L1510.56,216.67 C1506.72,222.18 1501.6,224.935 1495.2,224.935 C1488.56,224.935 1483.19,222.55 1479.12,217.779 C1475.04,213.008 1473,206.779 1473,199.092 C1473,190.623 1475.44,183.412 1480.32,177.459 C1485.2,171.506 1491.08,168.529 1497.95,168.529 C1502.27,168.529 1506.48,170.326 1510.56,173.92 L1510.56,155.029 C1510.56,152.529 1510.2,150.875 1509.48,150.068 C1508.76,149.261 1507.28,148.857 1505.03,148.857 C1503.91,148.857 1503.04,148.899 1502.4,148.982 L1502.4,147.06 C1509.67,145.133 1515.55,143.373 1520.03,141.779 L1520.64,142.013 L1520.64,209.857 C1520.64,212.649 1520.98,214.482 1521.65,215.357 C1522.33,216.232 1523.75,216.67 1525.92,216.67 C1526.32,216.67 1527.23,216.633 1528.67,216.56 L1528.67,218.451 L1511.03,224.935 M1499.87,218.451 C1502.91,218.451 1505.46,217.599 1507.5,215.896 C1509.54,214.193 1510.56,212.67 1510.56,211.326 L1510.56,184.013 C1510.56,180.847 1509.32,178.076 1506.84,175.701 C1504.36,173.326 1501.52,172.138 1498.31,172.138 C1493.76,172.138 1490.12,174.157 1487.4,178.193 C1484.67,182.23 1483.31,187.612 1483.31,194.342 C1483.31,201.623 1484.83,207.461 1487.87,211.857 C1490.91,216.253 1494.91,218.451 1499.87,218.451 M1541.64,190.498 C1541.79,195.54 1542.47,199.878 1543.68,203.513 C1544.88,207.149 1546.44,209.868 1548.36,211.67 C1550.27,213.472 1552.21,214.753 1554.18,215.513 C1556.14,216.274 1558.2,216.654 1560.36,216.654 C1564.2,216.654 1567.54,215.693 1570.38,213.771 C1573.22,211.849 1576.08,208.612 1578.95,204.06 L1580.87,204.888 C1578.39,211.368 1574.95,216.329 1570.55,219.771 C1566.15,223.214 1561.11,224.935 1555.44,224.935 C1548.56,224.935 1543.1,222.516 1539.06,217.678 C1535.02,212.839 1533,206.3 1533,198.06 C1533,189.175 1535.34,182.032 1540.02,176.631 C1544.7,171.23 1550.72,168.529 1558.08,168.529 C1564.16,168.529 1568.88,170.349 1572.24,173.99 C1575.6,177.631 1577.72,183.133 1578.59,190.498 L1541.64,190.498 M1541.87,186.888 L1566.36,186.888 C1565.56,181.691 1564.32,178.092 1562.64,176.092 C1560.96,174.092 1558.28,173.092 1554.59,173.092 C1547.39,173.092 1543.15,177.691 1541.87,186.888 M1616,198.154 C1616,189.279 1618.62,182.123 1623.86,176.685 C1629.1,171.248 1635.24,168.529 1642.28,168.529 C1647.32,168.529 1651.66,169.75 1655.3,172.193 C1658.94,174.636 1660.76,177.534 1660.76,180.888 C1660.76,182.253 1660.2,183.435 1659.08,184.435 C1657.95,185.435 1656.59,185.935 1655,185.935 C1652.28,185.935 1650.4,184.112 1649.36,180.467 L1648.64,177.842 C1647.99,175.623 1647.19,174.118 1646.23,173.326 C1645.27,172.534 1643.72,172.138 1641.56,172.138 C1636.67,172.138 1632.73,174.068 1629.73,177.928 C1626.73,181.787 1625.23,186.779 1625.23,192.904 C1625.23,199.748 1626.97,205.336 1630.45,209.67 C1633.93,214.003 1638.39,216.17 1643.84,216.17 C1647.28,216.17 1650.24,215.334 1652.72,213.662 C1655.2,211.99 1657.88,209.086 1660.76,204.951 L1662.44,206.029 C1661.63,207.633 1660.93,208.956 1660.33,209.998 C1659.73,211.04 1658.66,212.605 1657.1,214.693 C1655.54,216.782 1654,218.469 1652.48,219.756 C1650.96,221.042 1648.96,222.227 1646.48,223.31 C1644,224.394 1641.44,224.935 1638.79,224.935 C1632.16,224.935 1626.7,222.433 1622.42,217.428 C1618.14,212.422 1616,205.998 1616,198.154 M1669,211.888 C1669,210.451 1669.16,209.115 1669.47,207.881 C1669.79,206.646 1670.35,205.493 1671.15,204.42 C1671.96,203.347 1672.72,202.373 1673.44,201.498 C1674.15,200.623 1675.23,199.727 1676.68,198.81 C1678.12,197.894 1679.32,197.138 1680.28,196.545 C1681.24,195.951 1682.7,195.235 1684.65,194.396 C1686.61,193.558 1688.11,192.92 1689.15,192.482 C1690.2,192.045 1691.84,191.388 1694.08,190.513 C1696.32,189.638 1697.96,189.003 1699,188.607 L1699,181.326 C1699,174.722 1695.96,171.42 1689.87,171.42 C1687.48,171.42 1685.44,171.998 1683.76,173.154 C1682.07,174.31 1681.23,175.691 1681.23,177.295 C1681.23,177.93 1681.33,178.808 1681.54,179.928 C1681.74,181.047 1681.84,181.769 1681.84,182.092 C1681.84,183.456 1681.3,184.638 1680.22,185.638 C1679.13,186.638 1677.87,187.138 1676.44,187.138 C1675.08,187.138 1673.88,186.618 1672.84,185.576 C1671.8,184.534 1671.28,183.331 1671.28,181.967 C1671.28,178.217 1673.22,175.04 1677.1,172.435 C1680.98,169.831 1685.76,168.529 1691.44,168.529 C1698,168.529 1702.52,170.102 1705,173.248 C1707.48,176.394 1708.72,181.196 1708.72,187.654 L1708.72,210.935 C1708.72,213.56 1708.98,215.37 1709.5,216.365 C1710.02,217.36 1710.96,217.857 1712.31,217.857 C1714,217.857 1715.76,217.102 1717.59,215.592 L1717.59,218.732 C1715.52,221.128 1713.7,222.761 1712.14,223.631 C1710.58,224.5 1708.79,224.935 1706.79,224.935 C1704.32,224.935 1702.5,224.237 1701.33,222.842 C1700.17,221.446 1699.44,219.144 1699.12,215.935 C1692.24,221.935 1686.39,224.935 1681.59,224.935 C1677.91,224.935 1674.9,223.714 1672.54,221.271 C1670.18,218.829 1669,215.701 1669,211.888 M1699,208.779 L1699,191.467 C1691.8,194.092 1686.76,196.638 1683.88,199.107 C1681,201.576 1679.56,204.56 1679.56,208.06 C1679.56,211.321 1680.36,213.748 1681.96,215.342 C1683.56,216.935 1685.28,217.732 1687.12,217.732 C1689.84,217.732 1692.76,216.816 1695.87,214.982 C1697.15,214.274 1698,213.521 1698.4,212.724 C1698.8,211.928 1699,210.612 1699,208.779 M1749.08,169.732 L1749.08,173.342 L1736.95,173.342 L1736.95,207.654 C1736.95,211.415 1737.43,214.154 1738.4,215.873 C1739.36,217.592 1740.96,218.451 1743.2,218.451 C1745.68,218.451 1748.08,217.05 1750.4,214.248 L1751.95,215.576 C1748.12,221.816 1743.32,224.935 1737.56,224.935 C1730.44,224.935 1726.87,219.831 1726.87,209.623 L1726.87,173.342 L1720.51,173.342 C1720.2,173.112 1720.04,172.847 1720.04,172.545 C1720.04,172.17 1720.16,171.87 1720.4,171.646 C1720.64,171.422 1721.1,171.105 1721.78,170.693 C1722.46,170.282 1723.28,169.691 1724.24,168.92 C1725.2,168.149 1726.52,166.75 1728.2,164.724 C1729.88,162.698 1731.72,160.263 1733.72,157.42 C1735,155.555 1735.8,154.42 1736.12,154.013 C1736.67,154.013 1736.95,154.54 1736.95,155.592 L1736.95,169.732 L1749.08,169.732 M1755,211.888 C1755,210.451 1755.16,209.115 1755.47,207.881 C1755.79,206.646 1756.35,205.493 1757.15,204.42 C1757.96,203.347 1758.72,202.373 1759.44,201.498 C1760.15,200.623 1761.23,199.727 1762.68,198.81 C1764.12,197.894 1765.32,197.138 1766.28,196.545 C1767.24,195.951 1768.7,195.235 1770.65,194.396 C1772.61,193.558 1774.11,192.92 1775.15,192.482 C1776.2,192.045 1777.84,191.388 1780.08,190.513 C1782.32,189.638 1783.96,189.003 1785,188.607 L1785,181.326 C1785,174.722 1781.96,171.42 1775.87,171.42 C1773.48,171.42 1771.44,171.998 1769.76,173.154 C1768.07,174.31 1767.23,175.691 1767.23,177.295 C1767.23,177.93 1767.33,178.808 1767.54,179.928 C1767.74,181.047 1767.84,181.769 1767.84,182.092 C1767.84,183.456 1767.3,184.638 1766.22,185.638 C1765.13,186.638 1763.87,187.138 1762.44,187.138 C1761.08,187.138 1759.88,186.618 1758.84,185.576 C1757.8,184.534 1757.28,183.331 1757.28,181.967 C1757.28,178.217 1759.22,175.04 1763.1,172.435 C1766.98,169.831 1771.76,168.529 1777.44,168.529 C1784,168.529 1788.52,170.102 1791,173.248 C1793.48,176.394 1794.72,181.196 1794.72,187.654 L1794.72,210.935 C1794.72,213.56 1794.98,215.37 1795.5,216.365 C1796.02,217.36 1796.96,217.857 1798.31,217.857 C1800,217.857 1801.76,217.102 1803.59,215.592 L1803.59,218.732 C1801.52,221.128 1799.7,222.761 1798.14,223.631 C1796.58,224.5 1794.79,224.935 1792.79,224.935 C1790.32,224.935 1788.5,224.237 1787.33,222.842 C1786.17,221.446 1785.44,219.144 1785.12,215.935 C1778.24,221.935 1772.39,224.935 1767.59,224.935 C1763.91,224.935 1760.9,223.714 1758.54,221.271 C1756.18,218.829 1755,215.701 1755,211.888 M1785,208.779 L1785,191.467 C1777.8,194.092 1772.76,196.638 1769.88,199.107 C1767,201.576 1765.56,204.56 1765.56,208.06 C1765.56,211.321 1766.36,213.748 1767.96,215.342 C1769.56,216.935 1771.28,217.732 1773.12,217.732 C1775.84,217.732 1778.76,216.816 1781.87,214.982 C1783.15,214.274 1784,213.521 1784.4,212.724 C1784.8,211.928 1785,210.612 1785,208.779 M1805.2,175.857 L1805.2,173.81 C1811.12,172.092 1816.64,170.331 1821.76,168.529 L1822.59,168.763 L1822.59,178.138 C1826.67,174.347 1829.9,171.797 1832.26,170.49 C1834.62,169.183 1837.2,168.529 1840,168.529 C1844.39,168.529 1847.85,170.102 1850.37,173.248 C1852.89,176.394 1854.15,180.79 1854.15,186.435 L1854.15,213.998 C1854.15,216.956 1854.63,218.938 1855.59,219.943 C1856.55,220.948 1858.51,221.612 1861.48,221.935 L1861.48,223.732 L1836.51,223.732 L1836.51,221.935 C1839.56,221.696 1841.58,220.894 1842.58,219.529 C1843.58,218.165 1844.08,215.597 1844.08,211.826 L1844.08,186.685 C1844.08,178.904 1841.15,175.013 1835.31,175.013 C1833.31,175.013 1831.47,175.474 1829.79,176.396 C1828.12,177.318 1825.84,179.144 1822.95,181.873 L1822.95,215.67 C1822.95,217.836 1823.51,219.362 1824.63,220.248 C1825.75,221.133 1827.83,221.696 1830.87,221.935 L1830.87,223.732 L1805.44,223.732 L1805.44,221.935 C1808.48,221.696 1810.48,220.993 1811.44,219.826 C1812.39,218.659 1812.87,216.352 1812.87,212.904 L1812.87,183.076 C1812.87,180.107 1812.55,178.081 1811.91,176.998 C1811.27,175.915 1810.11,175.373 1808.44,175.373 C1806.91,175.373 1805.84,175.534 1805.2,175.857 M1870.44,176.576 C1868.67,176.576 1867,176.696 1865.4,176.935 L1865.4,175.138 C1871,173.534 1877.2,171.331 1884,168.529 L1884.48,168.888 L1884.48,211.498 C1884.48,215.81 1884.98,218.547 1885.98,219.709 C1886.98,220.87 1889.44,221.612 1893.36,221.935 L1893.36,223.732 L1864.92,223.732 L1864.92,221.935 C1869.08,221.696 1871.7,220.974 1872.78,219.771 C1873.86,218.568 1874.4,215.81 1874.4,211.498 L1874.4,183.654 C1874.4,181.019 1874.1,179.18 1873.5,178.138 C1872.89,177.097 1871.87,176.576 1870.44,176.576 M1878.36,141.779 C1880.12,141.779 1881.6,142.378 1882.79,143.576 C1883.99,144.774 1884.59,146.211 1884.59,147.888 C1884.59,149.649 1883.99,151.11 1882.79,152.271 C1881.6,153.433 1880.12,154.013 1878.36,154.013 C1876.68,154.013 1875.26,153.415 1874.1,152.217 C1872.94,151.019 1872.36,149.579 1872.36,147.896 C1872.36,146.214 1872.96,144.774 1874.15,143.576 C1875.35,142.378 1876.75,141.779 1878.36,141.779 M1907.64,190.498 C1907.79,195.54 1908.47,199.878 1909.68,203.513 C1910.88,207.149 1912.44,209.868 1914.36,211.67 C1916.27,213.472 1918.21,214.753 1920.18,215.513 C1922.14,216.274 1924.2,216.654 1926.36,216.654 C1930.2,216.654 1933.54,215.693 1936.38,213.771 C1939.22,211.849 1942.08,208.612 1944.95,204.06 L1946.87,204.888 C1944.39,211.368 1940.95,216.329 1936.55,219.771 C1932.15,223.214 1927.11,224.935 1921.44,224.935 C1914.56,224.935 1909.1,222.516 1905.06,217.678 C1901.02,212.839 1899,206.3 1899,198.06 C1899,189.175 1901.34,182.032 1906.02,176.631 C1910.7,171.23 1916.72,168.529 1924.08,168.529 C1930.16,168.529 1934.88,170.349 1938.24,173.99 C1941.6,177.631 1943.72,183.133 1944.59,190.498 L1907.64,190.498 M1907.87,186.888 L1932.36,186.888 C1931.56,181.691 1930.32,178.092 1928.64,176.092 C1926.96,174.092 1924.28,173.092 1920.59,173.092 C1913.39,173.092 1909.15,177.691 1907.87,186.888"/>
<path class="MeasureNumber" d="M146.513,983.952 C146.513,982.535 146.198,981.282 145.568,980.194 C144.938,979.105 144.178,978.261 143.287,977.662 C142.396,977.064 141.399,976.571 140.295,976.186 C139.191,975.8 138.23,975.548 137.412,975.428 C136.594,975.308 135.883,975.248 135.279,975.248 C134.956,975.248 134.795,975.139 134.795,974.92 C134.795,974.847 134.805,974.78 134.826,974.717 L139.185,965.264 L147.545,965.264 C147.972,965.264 148.313,965.196 148.568,965.061 C148.823,964.925 149.097,964.644 149.388,964.217 L149.748,964.498 L148.232,968.061 C148.128,968.3 147.821,968.42 147.31,968.42 L139.467,968.42 L137.795,971.811 C141.68,972.498 144.571,973.621 146.467,975.178 C148.362,976.735 149.31,979.019 149.31,982.03 C149.31,983.603 149.063,985.004 148.568,986.233 C148.073,987.462 147.446,988.452 146.685,989.202 C145.925,989.952 145.045,990.566 144.045,991.045 C143.045,991.524 142.086,991.853 141.17,992.03 C140.253,992.207 139.326,992.295 138.388,992.295 C136.899,992.295 135.714,992.074 134.834,991.631 C133.954,991.189 133.513,990.582 133.513,989.811 C133.513,988.821 134.086,988.327 135.232,988.327 C135.982,988.327 136.948,988.735 138.131,989.553 C139.313,990.371 140.253,990.78 140.951,990.78 C142.524,990.78 143.844,990.121 144.912,988.803 C145.98,987.485 146.513,985.868 146.513,983.952"/>
<polyline class="BarLine" fill="none" stroke="#000000" stroke-width="4.00" stroke-linejoin="bevel" points="2895.77,1040.73 2895.77,1142.73"/>
<polyline class="BarLine" fill="none" stroke="#000000" stroke-width="12.50" stroke-linejoin="bevel" points="2912.02,1040.73 2912.02,1142.73"/>
<polyline class="BarLine" fill="none" stroke="#000000" stroke-width="4.00" stroke-linejoin="bevel" points="2559.43,1040.73 2559.43,1142.73"/>
<polyline class="BarLine" fill="none" stroke="#000000" stroke-width="4.00" stroke-linejoin="bevel" points="2193.61,1040.73 2193.61,1142.73"/>
<polyline class="BarLine" fill="none" stroke="#000000" stroke-width="4.00" stroke-linejoin="bevel" points="1804.99,1040.73 1804.99,1142.73"/>
<polyline class="BarLine" fill="none" stroke="#000000" stroke-width="4.00" stroke-linejoin="bevel" points="1437.27,1040.73 1437.27,1142.73"/>
<polyline class="BarLine" fill="none" stroke="#000000" stroke-width="4.00" stroke-linejoin="bevel" points="1092.35,1040.73 1092.35,1142.73"/>
<polyline class="BarLine" fill="none" stroke="#000000" stroke-width="4.00" stroke-linejoin="bevel" points="703.73,1040.73 703.73,1142.73"/>
<polyline class="BarLine" fill="none" stroke="#000000" stroke-width="4.00" stroke-linejoin="bevel" points="2916.27,565.733 2916.27,667.733"/>
<polyline class="BarLine" fill="none" stroke="#000000" stroke-width="4.00" stroke-linejoin="bevel" points="2274.2,565.733 2274.2,667.733"/>
<polyline class="BarLine" fill="none" stroke="#000000" stroke-width="4.00" stroke-linejoin="bevel" points="1634.95,565.733 1634.95,667.733"/>
<polyline class="BarLine" fill="none" stroke="#000000" stroke-width="4.00" stroke-linejoin="bevel" points="995.696,565.733 995.696,667.733"/>
<polyline class="LedgerLine" fill="none" stroke="#000000" stroke-width="4.00" stroke-linecap="square" stroke-linejoin="bevel" points="2469.35,1016.73 2517.27,1016.73"/>
<polyline class="LedgerLine" fill="none" stroke="#000000" stroke-width="4.00" stroke-linecap="square" stroke-linejoin="bevel" points="2308.19,1016.73 2356.11,1016.73"/>
<polyline class="LedgerLine" fill="none" stroke="#000000" stroke-width="4.00" stroke-linecap="square" stroke-linejoin="bevel" points="2227.61,1016.73 2275.53,1016.73"/>
<polyline class="LedgerLine" fill="none" stroke="#000000" stroke-width="4.00" stroke-linecap="square" stroke-linejoin="bevel" points="2097.83,1016.73 2145.75,1016.73"/>
<polyline class="LedgerLine" fill="none" stroke="#000000" stroke-width="4.00" stroke-linecap="square" stroke-linejoin="bevel" points="1925.27,1016.73 1973.19,1016.73"/>
<polyline class="LedgerLine" fill="none" stroke="#000000" stroke-width="4.00" stroke-linecap="square" stroke-linejoin="bevel" points="1838.99,1016.73 1886.91,1016.73"/>
<polyline class="LedgerLine" fill="none" stroke="#000000" stroke-width="4.00" stroke-linecap="square" stroke-linejoin="bevel" points="1712.06,1016.73 1759.98,1016.73"/>
<polyline class="LedgerLine" fill="none" stroke="#000000" stroke-width="4.00" stroke-linecap="square" stroke-linejoin="bevel" points="1628.63,1016.73 1676.55,1016.73"/>
<polyline class="LedgerLine" fill="none" stroke="#000000" stroke-width="4.00" stroke-linecap="square" stroke-linejoin="bevel" points="1272.31,1016.73 1320.23,1016.73"/>
<polyline class="LedgerLine" fill="none" stroke="#000000" stroke-width="4.00" stroke-linecap="square" stroke-linejoin="bevel" points="910.29,1016.73 958.204,1016.73"/>
<polyline class="LedgerLine" fill="none" stroke="#000000" stroke-width="4.00" stroke-linecap="square" stroke-linejoin="bevel" points="824.01,1016.73 871.924,1016.73"/>
<polyline class="LedgerLine" fill="none" stroke="#000000" stroke-width="4.00" stroke-linecap="square" stroke-linejoin="bevel" points="737.73,1016.73 785.644,1016.73"/>
<polyline class="LedgerLine" fill="none" stroke="#000000" stroke-width="4.00" stroke-linecap="square" stroke-linejoin="bevel" points="515.969,1016.73 563.883,1016.73"/>
<polyline class="LedgerLine" fill="none" stroke="#000000" stroke-width="4.00" stroke-linecap="square" stroke-linejoin="bevel" points="426.839,1016.73 474.753,1016.73"/>
<polyline class="LedgerLine" fill="none" stroke="#000000" stroke-width="4.00" stroke-linecap="square" stroke-linejoin="bevel" points="337.709,1016.73 385.623,1016.73"/>
<polyline class="Stem" fill="none" stroke="#000000" stroke-width="3.25" stroke-linecap="round" stroke-linejoin="bevel" points="2744.23,1058.93 2744.23,1141.73"/>
<polyline class="Stem" fill="none" stroke="#000000" stroke-width="3.25" stroke-linecap="round" stroke-linejoin="bevel" points="2668.64,1046.43 2668.64,1129.23"/>
<polyline class="Stem" fill="none" stroke="#000000" stroke-width="3.25" stroke-linecap="round" stroke-linejoin="bevel" points="2593.06,1033.93 2593.06,1116.73"/>
<polyline class="Stem" fill="none" stroke="#000000" stroke-width="3.25" stroke-linecap="round" stroke-linejoin="bevel" points="2478.48,1021.43 2478.48,1104.23"/>
<polyline class="Stem" fill="none" stroke="#000000" stroke-width="3.25" stroke-linecap="round" stroke-linejoin="bevel" points="2397.9,1046.43 2397.9,1129.23"/>
<polyline class="Stem" fill="none" stroke="#000000" stroke-width="3.25" stroke-linecap="round" stroke-linejoin="bevel" points="2317.32,1021.43 2317.32,1104.23"/>
<polyline class="Stem" fill="none" stroke="#000000" stroke-width="3.25" stroke-linecap="round" stroke-linejoin="bevel" points="2236.74,1021.43 2236.74,1104.23"/>
<polyline class="Stem" fill="none" stroke="#000000" stroke-width="3.25" stroke-linecap="round" stroke-linejoin="bevel" points="2106.96,1021.43 2106.96,1104.23"/>
<polyline class="Stem" fill="none" stroke="#000000" stroke-width="3.25" stroke-linecap="round" stroke-linejoin="bevel" points="2020.68,1033.93 2020.68,1116.73"/>
<polyline class="Stem" fill="none" stroke="#000000" stroke-width="3.25" stroke-linecap="round" stroke-linejoin="bevel" points="1934.4,1008.93 1934.4,1091.73"/>
<polyline class="Stem" fill="none" stroke="#000000" stroke-width="3.25" stroke-linecap="round" stroke-linejoin="bevel" points="1848.12,1008.93 1848.12,1091.73"/>
<polyline class="Stem" fill="none" stroke="#000000" stroke-width="3.25" stroke-linecap="round" stroke-linejoin="bevel" points="1721.19,1008.93 1721.19,1091.73"/>
<polyline class="Stem" fill="none" stroke="#000000" stroke-width="3.25" stroke-linecap="round" stroke-linejoin="bevel" points="1637.76,1021.43 1637.76,1104.23"/>
<polyline class="Stem" fill="none" stroke="#000000" stroke-width="3.25" stroke-linecap="round" stroke-linejoin="bevel" points="1554.33,1033.93 1554.33,1116.73"/>
<polyline class="Stem" fill="none" stroke="#000000" stroke-width="3.25" stroke-linecap="round" stroke-linejoin="bevel" points="1470.9,1046.43 1470.9,1129.23"/>
<polyline class="Stem" fill="none" stroke="#000000" stroke-width="3.25" stroke-linecap="round" stroke-linejoin="bevel" points="1359.17,1033.93 1359.17,1116.73"/>
<polyline class="Stem" fill="none" stroke="#000000" stroke-width="3.25" stroke-linecap="round" stroke-linejoin="bevel" points="1281.44,1021.43 1281.44,1104.23"/>
<polyline class="Stem" fill="none" stroke="#000000" stroke-width="3.25" stroke-linecap="round" stroke-linejoin="bevel" points="1203.71,1046.43 1203.71,1129.23"/>
<polyline class="Stem" fill="none" stroke="#000000" stroke-width="3.25" stroke-linecap="round" stroke-linejoin="bevel" points="1125.98,1071.43 1125.98,1151.11"/>
<polyline class="Stem" fill="none" stroke="#000000" stroke-width="3.25" stroke-linecap="round" stroke-linejoin="bevel" points="1005.7,1046.43 1005.7,1129.23"/>
<polyline class="Stem" fill="none" stroke="#000000" stroke-width="3.25" stroke-linecap="round" stroke-linejoin="bevel" points="919.415,1021.43 919.415,1104.23"/>
<polyline class="Stem" fill="none" stroke="#000000" stroke-width="3.25" stroke-linecap="round" stroke-linejoin="bevel" points="833.135,1021.43 833.135,1104.23"/>
<polyline class="Stem" fill="none" stroke="#000000" stroke-width="3.25" stroke-linecap="round" stroke-linejoin="bevel" points="746.855,1021.43 746.855,1104.23"/>
<polyline class="Stem" fill="none" stroke="#000000" stroke-width="3.25" stroke-linecap="round" stroke-linejoin="bevel" points="614.225,1033.93 614.225,1116.73"/>
<polyline class="Stem" fill="none" stroke="#000000" stroke-width="3.25" stroke-linecap="round" stroke-linejoin="bevel" points="525.094,1008.93 525.094,1091.73"/>
<polyline class="Stem" fill="none" stroke="#000000" stroke-width="3.25" stroke-linecap="round" stroke-linejoin="bevel" points="435.964,1008.93 435.964,1091.73"/>
<polyline class="Stem" fill="none" stroke="#000000" stroke-width="3.25" stroke-linecap="round" stroke-linejoin="bevel" points="346.834,1008.93 346.834,1091.73"/>
<polyline class="Stem" fill="none" stroke="#000000" stroke-width="3.25" stroke-linecap="round" stroke-linejoin="bevel" points="2611.86,621.428 2611.86,694.858"/>
<polyline class="Stem" fill="none" stroke="#000000" stroke-width="3.25" stroke-linecap="round" stroke-linejoin="bevel" points="2489.51,624.537 2489.51,547.983"/>
<polyline class="Stem" fill="none" stroke="#000000" stroke-width="3.25" stroke-linecap="round" stroke-linejoin="bevel" points="2307.83,621.428 2307.83,694.858"/>
<polyline class="Stem" fill="none" stroke="#000000" stroke-width="3.25" stroke-linecap="round" stroke-linejoin="bevel" points="2122.51,608.928 2122.51,685.483"/>
<polyline class="Stem" fill="none" stroke="#000000" stroke-width="3.25" stroke-linecap="round" stroke-linejoin="bevel" points="1971.2,596.428 1971.2,676.108"/>
<polyline class="Stem" fill="none" stroke="#000000" stroke-width="3.25" stroke-linecap="round" stroke-linejoin="bevel" points="1819.89,583.928 1819.89,666.733"/>
<polyline class="Stem" fill="none" stroke="#000000" stroke-width="3.25" stroke-linecap="round" stroke-linejoin="bevel" points="1668.57,571.428 1668.57,654.233"/>
<polyline class="Stem" fill="none" stroke="#000000" stroke-width="3.25" stroke-linecap="round" stroke-linejoin="bevel" points="1483.26,558.928 1483.26,641.733"/>
<polyline class="Stem" fill="none" stroke="#000000" stroke-width="3.25" stroke-linecap="round" stroke-linejoin="bevel" points="1331.95,596.428 1331.95,676.108"/>
<polyline class="Stem" fill="none" stroke="#000000" stroke-width="3.25" stroke-linecap="round" stroke-linejoin="bevel" points="1180.63,583.928 1180.63,666.733"/>
<polyline class="Stem" fill="none" stroke="#000000" stroke-width="3.25" stroke-linecap="round" stroke-linejoin="bevel" points="1029.32,571.428 1029.32,654.233"/>
<polyline class="Stem" fill="none" stroke="#000000" stroke-width="3.25" stroke-linecap="round" stroke-linejoin="bevel" points="844.008,558.928 844.008,641.733"/>
<polyline class="Stem" fill="none" stroke="#000000" stroke-width="3.25" stroke-linecap="round" stroke-linejoin="bevel" points="692.695,583.928 692.695,666.733"/>
<polyline class="Stem" fill="none" stroke="#000000" stroke-width="3.25" stroke-linecap="round" stroke-linejoin="bevel" points="541.382,583.928 541.382,666.733"/>
<polyline class="Stem" fill="none" stroke="#000000" stroke-width="3.25" stroke-linecap="round" stroke-linejoin="bevel" points="390.068,621.428 390.068,694.858"/>
<path class="Note" d="M2764.57,1040.47 C2767.69,1040.47 2770.34,1041.28 2772.49,1042.9 C2774.5,1044.67 2775.51,1046.88 2775.51,1049.55 C2775.51,1054.03 2773.2,1058.23 2768.59,1062.14 C2763.9,1066.05 2758.88,1068 2753.54,1068 C2750.41,1068 2747.78,1067.19 2745.63,1065.56 C2743.61,1063.8 2742.6,1061.59 2742.6,1058.92 C2742.6,1054.43 2744.94,1050.23 2749.63,1046.33 C2754.19,1042.42 2759.17,1040.47 2764.57,1040.47"/>
<path class="Note" d="M2688.99,1027.97 C2692.11,1027.97 2694.75,1028.78 2696.91,1030.4 C2698.92,1032.17 2699.92,1034.38 2699.92,1037.05 C2699.92,1041.53 2697.62,1045.73 2693,1049.64 C2688.31,1053.55 2683.3,1055.5 2677.96,1055.5 C2674.83,1055.5 2672.19,1054.69 2670.05,1053.06 C2668.03,1051.3 2667.02,1049.09 2667.02,1046.42 C2667.02,1041.93 2669.36,1037.73 2674.05,1033.83 C2678.61,1029.92 2683.59,1027.97 2688.99,1027.97"/>
<path class="Note" d="M2613.4,1015.47 C2616.53,1015.47 2619.17,1016.28 2621.32,1017.9 C2623.34,1019.67 2624.34,1021.88 2624.34,1024.55 C2624.34,1029.03 2622.03,1033.23 2617.42,1037.14 C2612.73,1041.05 2607.72,1043 2602.37,1043 C2599.25,1043 2596.61,1042.19 2594.47,1040.56 C2592.44,1038.8 2591.43,1036.59 2591.43,1033.92 C2591.43,1029.43 2593.78,1025.23 2598.47,1021.33 C2603.03,1017.42 2608.01,1015.47 2613.4,1015.47"/>
<path class="Note" d="M2498.82,1002.97 C2501.95,1002.97 2504.59,1003.78 2506.74,1005.4 C2508.76,1007.17 2509.76,1009.38 2509.76,1012.05 C2509.76,1016.53 2507.45,1020.73 2502.84,1024.64 C2498.15,1028.55 2493.14,1030.5 2487.79,1030.5 C2484.67,1030.5 2482.03,1029.69 2479.89,1028.06 C2477.86,1026.3 2476.85,1024.09 2476.85,1021.42 C2476.85,1016.93 2479.2,1012.73 2483.89,1008.83 C2488.45,1004.92 2493.43,1002.97 2498.82,1002.97"/>
<path class="Note" d="M2418.24,1027.97 C2421.37,1027.97 2424.01,1028.78 2426.16,1030.4 C2428.17,1032.17 2429.18,1034.38 2429.18,1037.05 C2429.18,1041.53 2426.87,1045.73 2422.26,1049.64 C2417.57,1053.55 2412.56,1055.5 2407.21,1055.5 C2404.09,1055.5 2401.45,1054.69 2399.31,1053.06 C2397.28,1051.3 2396.27,1049.09 2396.27,1046.42 C2396.27,1041.93 2398.62,1037.73 2403.31,1033.83 C2407.87,1029.92 2412.85,1027.97 2418.24,1027.97"/>
<path class="Note" d="M2337.66,1002.97 C2340.79,1002.97 2343.43,1003.78 2345.58,1005.4 C2347.59,1007.17 2348.6,1009.38 2348.6,1012.05 C2348.6,1016.53 2346.29,1020.73 2341.68,1024.64 C2336.99,1028.55 2331.97,1030.5 2326.63,1030.5 C2323.51,1030.5 2320.87,1029.69 2318.72,1028.06 C2316.7,1026.3 2315.69,1024.09 2315.69,1021.42 C2315.69,1016.93 2318.04,1012.73 2322.72,1008.83 C2327.29,1004.92 2332.27,1002.97 2337.66,1002.97"/>
<path class="Note" d="M2257.08,1002.97 C2260.21,1002.97 2262.85,1003.78 2265,1005.4 C2267.01,1007.17 2268.02,1009.38 2268.02,1012.05 C2268.02,1016.53 2265.71,1020.73 2261.1,1024.64 C2256.41,1028.55 2251.39,1030.5 2246.05,1030.5 C2242.93,1030.5 2240.29,1029.69 2238.14,1028.06 C2236.12,1026.3 2235.11,1024.09 2235.11,1021.42 C2235.11,1016.93 2237.46,1012.73 2242.14,1008.83 C2246.71,1004.92 2251.69,1002.97 2257.08,1002.97"/>
<path class="Note" d="M2127.3,1002.97 C2130.43,1002.97 2133.07,1003.78 2135.22,1005.4 C2137.23,1007.17 2138.24,1009.38 2138.24,1012.05 C2138.24,1016.53 2135.93,1020.73 2131.32,1024.64 C2126.63,1028.55 2121.61,1030.5 2116.27,1030.5 C2113.15,1030.5 2110.51,1029.69 2108.36,1028.06 C2106.34,1026.3 2105.33,1024.09 2105.33,1021.42 C2105.33,1016.93 2107.68,1012.73 2112.36,1008.83 C2116.93,1004.92 2121.91,1002.97 2127.3,1002.97"/>
<path class="Note" d="M2041.02,1015.47 C2044.15,1015.47 2046.79,1016.28 2048.94,1017.9 C2050.95,1019.67 2051.96,1021.88 2051.96,1024.55 C2051.96,1029.03 2049.65,1033.23 2045.04,1037.14 C2040.35,1041.05 2035.33,1043 2029.99,1043 C2026.87,1043 2024.23,1042.19 2022.08,1040.56 C2020.06,1038.8 2019.05,1036.59 2019.05,1033.92 C2019.05,1029.43 2021.4,1025.23 2026.08,1021.33 C2030.65,1017.42 2035.63,1015.47 2041.02,1015.47"/>
<path class="Note" d="M1954.74,990.467 C1957.87,990.467 1960.51,991.28 1962.66,992.905 C1964.67,994.665 1965.68,996.879 1965.68,999.545 C1965.68,1004.03 1963.37,1008.23 1958.76,1012.14 C1954.07,1016.05 1949.05,1018 1943.71,1018 C1940.59,1018 1937.95,1017.19 1935.8,1015.56 C1933.78,1013.8 1932.77,1011.59 1932.77,1008.92 C1932.77,1004.43 1935.12,1000.23 1939.8,996.327 C1944.37,992.42 1949.35,990.467 1954.74,990.467"/>
<path class="Note" d="M1868.46,990.467 C1871.59,990.467 1874.23,991.28 1876.38,992.905 C1878.39,994.665 1879.4,996.879 1879.4,999.545 C1879.4,1004.03 1877.09,1008.23 1872.48,1012.14 C1867.79,1016.05 1862.77,1018 1857.43,1018 C1854.31,1018 1851.67,1017.19 1849.52,1015.56 C1847.5,1013.8 1846.49,1011.59 1846.49,1008.92 C1846.49,1004.43 1848.84,1000.23 1853.52,996.327 C1858.09,992.42 1863.07,990.467 1868.46,990.467"/>
<path class="Note" d="M1741.53,990.467 C1744.66,990.467 1747.3,991.28 1749.45,992.905 C1751.46,994.665 1752.47,996.879 1752.47,999.545 C1752.47,1004.03 1750.16,1008.23 1745.55,1012.14 C1740.86,1016.05 1735.84,1018 1730.5,1018 C1727.37,1018 1724.74,1017.19 1722.59,1015.56 C1720.57,1013.8 1719.56,1011.59 1719.56,1008.92 C1719.56,1004.43 1721.91,1000.23 1726.59,996.327 C1731.16,992.42 1736.14,990.467 1741.53,990.467"/>
<path class="Note" d="M1658.1,1002.97 C1661.23,1002.97 1663.87,1003.78 1666.02,1005.4 C1668.03,1007.17 1669.04,1009.38 1669.04,1012.05 C1669.04,1016.53 1666.73,1020.73 1662.12,1024.64 C1657.43,1028.55 1652.41,1030.5 1647.07,1030.5 C1643.94,1030.5 1641.31,1029.69 1639.16,1028.06 C1637.14,1026.3 1636.13,1024.09 1636.13,1021.42 C1636.13,1016.93 1638.48,1012.73 1643.16,1008.83 C1647.73,1004.92 1652.71,1002.97 1658.1,1002.97"/>
<path class="Note" d="M1574.67,1015.47 C1577.8,1015.47 1580.44,1016.28 1582.59,1017.9 C1584.6,1019.67 1585.61,1021.88 1585.61,1024.55 C1585.61,1029.03 1583.3,1033.23 1578.69,1037.14 C1574,1041.05 1568.98,1043 1563.64,1043 C1560.51,1043 1557.88,1042.19 1555.73,1040.56 C1553.71,1038.8 1552.7,1036.59 1552.7,1033.92 C1552.7,1029.43 1555.05,1025.23 1559.73,1021.33 C1564.3,1017.42 1569.27,1015.47 1574.67,1015.47"/>
<path class="Note" d="M1491.24,1027.97 C1494.37,1027.97 1497.01,1028.78 1499.16,1030.4 C1501.17,1032.17 1502.18,1034.38 1502.18,1037.05 C1502.18,1041.53 1499.87,1045.73 1495.26,1049.64 C1490.57,1053.55 1485.55,1055.5 1480.21,1055.5 C1477.08,1055.5 1474.45,1054.69 1472.3,1053.06 C1470.28,1051.3 1469.27,1049.09 1469.27,1046.42 C1469.27,1041.93 1471.62,1037.73 1476.3,1033.83 C1480.87,1029.92 1485.84,1027.97 1491.24,1027.97"/>
<path class="Note" d="M1379.51,1015.47 C1382.64,1015.47 1385.28,1016.28 1387.43,1017.9 C1389.44,1019.67 1390.45,1021.88 1390.45,1024.55 C1390.45,1029.03 1388.14,1033.23 1383.53,1037.14 C1378.84,1041.05 1373.82,1043 1368.48,1043 C1365.35,1043 1362.72,1042.19 1360.57,1040.56 C1358.55,1038.8 1357.54,1036.59 1357.54,1033.92 C1357.54,1029.43 1359.89,1025.23 1364.57,1021.33 C1369.14,1017.42 1374.11,1015.47 1379.51,1015.47"/>
<path class="Note" d="M1301.78,1002.97 C1304.9,1002.97 1307.55,1003.78 1309.7,1005.4 C1311.71,1007.17 1312.72,1009.38 1312.72,1012.05 C1312.72,1016.53 1310.41,1020.73 1305.8,1024.64 C1301.11,1028.55 1296.09,1030.5 1290.75,1030.5 C1287.62,1030.5 1284.99,1029.69 1282.84,1028.06 C1280.82,1026.3 1279.81,1024.09 1279.81,1021.42 C1279.81,1016.93 1282.15,1012.73 1286.84,1008.83 C1291.4,1004.92 1296.38,1002.97 1301.78,1002.97"/>
<path class="Note" d="M1224.05,1027.97 C1227.17,1027.97 1229.82,1028.78 1231.97,1030.4 C1233.98,1032.17 1234.99,1034.38 1234.99,1037.05 C1234.99,1041.53 1232.68,1045.73 1228.07,1049.64 C1223.38,1053.55 1218.36,1055.5 1213.02,1055.5 C1209.89,1055.5 1207.26,1054.69 1205.11,1053.06 C1203.09,1051.3 1202.08,1049.09 1202.08,1046.42 C1202.08,1041.93 1204.42,1037.73 1209.11,1033.83 C1213.67,1029.92 1218.65,1027.97 1224.05,1027.97"/>
<path class="Note" d="M1146.32,1052.97 C1149.44,1052.97 1152.09,1053.78 1154.24,1055.4 C1156.25,1057.17 1157.26,1059.38 1157.26,1062.05 C1157.26,1066.53 1154.95,1070.73 1150.34,1074.64 C1145.65,1078.55 1140.63,1080.5 1135.29,1080.5 C1132.16,1080.5 1129.53,1079.69 1127.38,1078.06 C1125.36,1076.3 1124.35,1074.09 1124.35,1071.42 C1124.35,1066.93 1126.69,1062.73 1131.38,1058.83 C1135.94,1054.92 1140.92,1052.97 1146.32,1052.97"/>
<path class="Note" d="M1026.04,1027.97 C1029.16,1027.97 1031.8,1028.78 1033.96,1030.4 C1035.97,1032.17 1036.98,1034.38 1036.98,1037.05 C1036.98,1041.53 1034.67,1045.73 1030.05,1049.64 C1025.37,1053.55 1020.35,1055.5 1015.01,1055.5 C1011.88,1055.5 1009.25,1054.69 1007.1,1053.06 C1005.08,1051.3 1004.07,1049.09 1004.07,1046.42 C1004.07,1041.93 1006.41,1037.73 1011.1,1033.83 C1015.66,1029.92 1020.64,1027.97 1026.04,1027.97"/>
<path class="Note" d="M939.759,1002.97 C942.884,1002.97 945.525,1003.78 947.681,1005.4 C949.691,1007.17 950.697,1009.38 950.697,1012.05 C950.697,1016.53 948.389,1020.73 943.775,1024.64 C939.087,1028.55 934.072,1030.5 928.728,1030.5 C925.603,1030.5 922.967,1029.69 920.822,1028.06 C918.801,1026.3 917.79,1024.09 917.79,1021.42 C917.79,1016.93 920.134,1012.73 924.822,1008.83 C929.384,1004.92 934.363,1002.97 939.759,1002.97"/>
<path class="Note" d="M853.479,1002.97 C856.604,1002.97 859.244,1003.78 861.401,1005.4 C863.411,1007.17 864.416,1009.38 864.416,1012.05 C864.416,1016.53 862.109,1020.73 857.494,1024.64 C852.807,1028.55 847.791,1030.5 842.448,1030.5 C839.323,1030.5 836.687,1029.69 834.541,1028.06 C832.521,1026.3 831.51,1024.09 831.51,1021.42 C831.51,1016.93 833.854,1012.73 838.541,1008.83 C843.104,1004.92 848.083,1002.97 853.479,1002.97"/>
<path class="Note" d="M767.199,1002.97 C770.324,1002.97 772.964,1003.78 775.12,1005.4 C777.131,1007.17 778.136,1009.38 778.136,1012.05 C778.136,1016.53 775.829,1020.73 771.214,1024.64 C766.527,1028.55 761.511,1030.5 756.167,1030.5 C753.042,1030.5 750.407,1029.69 748.261,1028.06 C746.24,1026.3 745.23,1024.09 745.23,1021.42 C745.23,1016.93 747.574,1012.73 752.261,1008.83 C756.824,1004.92 761.803,1002.97 767.199,1002.97"/>
<path class="Note" d="M634.568,1015.47 C637.693,1015.47 640.334,1016.28 642.49,1017.9 C644.501,1019.67 645.506,1021.88 645.506,1024.55 C645.506,1029.03 643.199,1033.23 638.584,1037.14 C633.896,1041.05 628.881,1043 623.537,1043 C620.412,1043 617.777,1042.19 615.631,1040.56 C613.61,1038.8 612.6,1036.59 612.6,1033.92 C612.6,1029.43 614.943,1025.23 619.631,1021.33 C624.193,1017.42 629.173,1015.47 634.568,1015.47"/>
<path class="Note" d="M545.438,990.467 C548.563,990.467 551.204,991.28 553.36,992.905 C555.37,994.665 556.376,996.879 556.376,999.545 C556.376,1004.03 554.068,1008.23 549.454,1012.14 C544.766,1016.05 539.751,1018 534.407,1018 C531.282,1018 528.646,1017.19 526.501,1015.56 C524.48,1013.8 523.469,1011.59 523.469,1008.92 C523.469,1004.43 525.813,1000.23 530.501,996.327 C535.063,992.42 540.042,990.467 545.438,990.467"/>
<path class="Note" d="M456.308,990.467 C459.433,990.467 462.074,991.28 464.23,992.905 C466.24,994.665 467.245,996.879 467.245,999.545 C467.245,1004.03 464.938,1008.23 460.324,1012.14 C455.636,1016.05 450.62,1018 445.277,1018 C442.152,1018 439.516,1017.19 437.37,1015.56 C435.35,1013.8 434.339,1011.59 434.339,1008.92 C434.339,1004.43 436.683,1000.23 441.37,996.327 C445.933,992.42 450.912,990.467 456.308,990.467"/>
<path class="Note" d="M367.178,990.467 C370.303,990.467 372.943,991.28 375.1,992.905 C377.11,994.665 378.115,996.879 378.115,999.545 C378.115,1004.03 375.808,1008.23 371.193,1012.14 C366.506,1016.05 361.49,1018 356.146,1018 C353.021,1018 350.386,1017.19 348.24,1015.56 C346.219,1013.8 345.209,1011.59 345.209,1008.92 C345.209,1004.43 347.553,1000.23 352.24,996.327 C356.803,992.42 361.782,990.467 367.178,990.467"/>
<path class="Note" d="M2632.2,602.967 C2635.33,602.967 2637.97,603.779 2640.13,605.404 C2642.14,607.165 2643.14,609.378 2643.14,612.045 C2643.14,616.535 2640.83,620.733 2636.22,624.639 C2631.53,628.545 2626.52,630.498 2621.17,630.498 C2618.05,630.498 2615.41,629.686 2613.27,628.061 C2611.25,626.3 2610.24,624.087 2610.24,621.42 C2610.24,616.93 2612.58,612.733 2617.27,608.826 C2621.83,604.92 2626.81,602.967 2632.2,602.967"/>
<path class="Note" d="M2480.19,615.467 C2483.31,615.467 2485.95,616.279 2488.11,617.904 C2490.12,619.665 2491.12,621.878 2491.12,624.545 C2491.12,629.035 2488.82,633.233 2484.2,637.139 C2479.52,641.045 2474.5,642.998 2469.16,642.998 C2466.03,642.998 2463.4,642.186 2461.25,640.561 C2459.23,638.8 2458.22,636.587 2458.22,633.92 C2458.22,629.43 2460.56,625.233 2465.25,621.326 C2469.81,617.42 2474.79,615.467 2480.19,615.467"/>
<path class="Note" d="M2328.17,602.967 C2331.3,602.967 2333.94,603.779 2336.09,605.404 C2338.1,607.165 2339.11,609.378 2339.11,612.045 C2339.11,616.535 2336.8,620.733 2332.19,624.639 C2327.5,628.545 2322.48,630.498 2317.14,630.498 C2314.01,630.498 2311.38,629.686 2309.23,628.061 C2307.21,626.3 2306.2,624.087 2306.2,621.42 C2306.2,616.93 2308.55,612.733 2313.23,608.826 C2317.8,604.92 2322.78,602.967 2328.17,602.967"/>
<path class="Note" d="M2142.86,590.467 C2145.98,590.467 2148.62,591.279 2150.78,592.904 C2152.79,594.665 2153.8,596.878 2153.8,599.545 C2153.8,604.035 2151.49,608.233 2146.87,612.139 C2142.19,616.045 2137.17,617.998 2131.83,617.998 C2128.7,617.998 2126.07,617.186 2123.92,615.561 C2121.9,613.8 2120.89,611.587 2120.89,608.92 C2120.89,604.43 2123.23,600.233 2127.92,596.326 C2132.48,592.42 2137.46,590.467 2142.86,590.467"/>
<path class="Note" d="M1991.54,577.967 C1994.67,577.967 1997.31,578.779 1999.47,580.404 C2001.48,582.165 2002.48,584.378 2002.48,587.045 C2002.48,591.535 2000.17,595.733 1995.56,599.639 C1990.87,603.545 1985.86,605.498 1980.51,605.498 C1977.39,605.498 1974.75,604.686 1972.61,603.061 C1970.59,601.3 1969.58,599.087 1969.58,596.42 C1969.58,591.93 1971.92,587.733 1976.61,583.826 C1981.17,579.92 1986.15,577.967 1991.54,577.967"/>
<path class="Note" d="M1840.23,565.467 C1843.36,565.467 1846,566.279 1848.15,567.904 C1850.16,569.665 1851.17,571.878 1851.17,574.545 C1851.17,579.035 1848.86,583.233 1844.25,587.139 C1839.56,591.045 1834.54,592.998 1829.2,592.998 C1826.08,592.998 1823.44,592.186 1821.29,590.561 C1819.27,588.8 1818.26,586.587 1818.26,583.92 C1818.26,579.43 1820.61,575.233 1825.29,571.326 C1829.86,567.42 1834.84,565.467 1840.23,565.467"/>
<path class="Note" d="M1688.92,552.967 C1692.04,552.967 1694.68,553.779 1696.84,555.404 C1698.85,557.165 1699.86,559.378 1699.86,562.045 C1699.86,566.535 1697.55,570.733 1692.93,574.639 C1688.25,578.545 1683.23,580.498 1677.89,580.498 C1674.76,580.498 1672.13,579.686 1669.98,578.061 C1667.96,576.3 1666.95,574.087 1666.95,571.42 C1666.95,566.93 1669.29,562.733 1673.98,558.826 C1678.54,554.92 1683.52,552.967 1688.92,552.967"/>
<path class="Note" d="M1503.6,540.467 C1506.73,540.467 1509.37,541.279 1511.53,542.904 C1513.54,544.665 1514.54,546.878 1514.54,549.545 C1514.54,554.035 1512.24,558.233 1507.62,562.139 C1502.93,566.045 1497.92,567.998 1492.57,567.998 C1489.45,567.998 1486.81,567.186 1484.67,565.561 C1482.65,563.8 1481.64,561.587 1481.64,558.92 C1481.64,554.43 1483.98,550.233 1488.67,546.326 C1493.23,542.42 1498.21,540.467 1503.6,540.467"/>
<path class="Note" d="M1352.29,577.967 C1355.42,577.967 1358.06,578.779 1360.21,580.404 C1362.22,582.165 1363.23,584.378 1363.23,587.045 C1363.23,591.535 1360.92,595.733 1356.31,599.639 C1351.62,603.545 1346.6,605.498 1341.26,605.498 C1338.14,605.498 1335.5,604.686 1333.35,603.061 C1331.33,601.3 1330.32,599.087 1330.32,596.42 C1330.32,591.93 1332.67,587.733 1337.35,583.826 C1341.92,579.92 1346.9,577.967 1352.29,577.967"/>
<path class="Note" d="M1200.98,565.467 C1204.1,565.467 1206.74,566.279 1208.9,567.904 C1210.91,569.665 1211.92,571.878 1211.92,574.545 C1211.92,579.035 1209.61,583.233 1204.99,587.139 C1200.31,591.045 1195.29,592.998 1189.95,592.998 C1186.82,592.998 1184.19,592.186 1182.04,590.561 C1180.02,588.8 1179.01,586.587 1179.01,583.92 C1179.01,579.43 1181.35,575.233 1186.04,571.326 C1190.6,567.42 1195.58,565.467 1200.98,565.467"/>
<path class="Note" d="M1049.67,552.967 C1052.79,552.967 1055.43,553.779 1057.59,555.404 C1059.6,557.165 1060.6,559.378 1060.6,562.045 C1060.6,566.535 1058.3,570.733 1053.68,574.639 C1048.99,578.545 1043.98,580.498 1038.63,580.498 C1035.51,580.498 1032.87,579.686 1030.73,578.061 C1028.71,576.3 1027.7,574.087 1027.7,571.42 C1027.7,566.93 1030.04,562.733 1034.73,558.826 C1039.29,554.92 1044.27,552.967 1049.67,552.967"/>
<path class="Note" d="M864.352,540.467 C867.477,540.467 870.117,541.279 872.274,542.904 C874.284,544.665 875.289,546.878 875.289,549.545 C875.289,554.035 872.982,558.233 868.367,562.139 C863.68,566.045 858.664,567.998 853.321,567.998 C850.196,567.998 847.56,567.186 845.414,565.561 C843.393,563.8 842.383,561.587 842.383,558.92 C842.383,554.43 844.727,550.233 849.414,546.326 C853.977,542.42 858.956,540.467 864.352,540.467"/>
<path class="Note" d="M713.039,565.467 C716.164,565.467 718.804,566.279 720.96,567.904 C722.971,569.665 723.976,571.878 723.976,574.545 C723.976,579.035 721.669,583.233 717.054,587.139 C712.367,591.045 707.351,592.998 702.007,592.998 C698.882,592.998 696.247,592.186 694.101,590.561 C692.08,588.8 691.07,586.587 691.07,583.92 C691.07,579.43 693.414,575.233 698.101,571.326 C702.664,567.42 707.643,565.467 713.039,565.467"/>
<path class="Note" d="M561.725,565.467 C564.85,565.467 567.491,566.279 569.647,567.904 C571.658,569.665 572.663,571.878 572.663,574.545 C572.663,579.035 570.356,583.233 565.741,587.139 C561.053,591.045 556.038,592.998 550.694,592.998 C547.569,592.998 544.934,592.186 542.788,590.561 C540.767,588.8 539.757,586.587 539.757,583.92 C539.757,579.43 542.1,575.233 546.788,571.326 C551.35,567.42 556.329,565.467 561.725,565.467"/>
<path class="Note" d="M410.412,602.967 C413.537,602.967 416.178,603.779 418.334,605.404 C420.344,607.165 421.35,609.378 421.35,612.045 C421.35,616.535 419.042,620.733 414.428,624.639 C409.74,628.545 404.725,630.498 399.381,630.498 C396.256,630.498 393.62,629.686 391.475,628.061 C389.454,626.3 388.443,624.087 388.443,621.42 C388.443,616.93 390.787,612.733 395.475,608.826 C400.037,604.92 405.016,602.967 410.412,602.967"/>
<path class="Clef" d="M194.451,1091.14 C194.451,1091.14 194.649,1091.14 195.045,1091.14 C195.305,1091.08 195.529,1091.05 195.717,1091.05 C203.008,1091.05 208.998,1093.62 213.685,1098.76 C218.373,1103.84 220.717,1109.76 220.717,1116.53 C220.717,1124.94 217.237,1131.77 210.279,1137.05 C208.456,1138.48 206.076,1139.65 203.139,1140.56 C203.472,1144.79 203.639,1148.21 203.639,1150.81 C203.639,1151.33 203.571,1153.22 203.435,1156.48 C203.175,1162.53 201.092,1167.77 197.185,1172.2 C193.415,1176.57 188.727,1178.75 183.123,1178.75 C177.852,1178.75 173.362,1176.89 169.654,1173.19 C165.935,1169.4 164.076,1164.85 164.076,1159.51 C164.076,1156.71 165.154,1154.33 167.31,1152.37 C169.519,1150.43 172.086,1149.45 175.014,1149.45 C177.618,1149.45 179.8,1150.46 181.56,1152.48 C183.383,1154.37 184.295,1156.71 184.295,1159.51 C184.295,1162.05 183.383,1164.22 181.56,1166.05 C179.737,1167.87 177.555,1168.78 175.014,1168.78 C173.972,1168.78 172.967,1168.59 171.998,1168.2 C174.862,1172.43 178.67,1174.55 183.42,1174.55 C187.909,1174.55 191.586,1172.72 194.451,1169.08 C197.451,1165.31 199.081,1160.91 199.342,1155.89 C199.467,1152.76 199.529,1150.98 199.529,1150.53 C199.529,1146.88 199.399,1143.89 199.139,1141.55 C195.889,1142.07 192.993,1142.33 190.451,1142.33 C181.399,1142.33 173.685,1138.74 167.31,1131.58 C161.06,1124.35 157.935,1115.75 157.935,1105.8 C157.935,1103.71 158.128,1101.6 158.514,1099.45 C158.909,1097.69 159.399,1095.77 159.982,1093.69 C160.305,1092.51 161.185,1090.62 162.623,1088.01 C163.144,1087.23 163.73,1086.26 164.381,1085.08 C165.032,1083.91 165.487,1083.13 165.748,1082.75 C166.394,1081.45 167.659,1079.69 169.545,1077.47 C170.066,1076.88 170.605,1076.24 171.162,1075.52 C171.719,1074.81 172.193,1074.22 172.584,1073.76 C172.974,1073.31 173.266,1072.95 173.459,1072.69 C173.652,1072.43 175.118,1070.7 177.857,1067.51 C178.503,1066.86 179.136,1066.16 179.756,1065.41 C180.375,1064.67 180.881,1064.08 181.271,1063.65 C181.662,1063.23 181.956,1062.92 182.154,1062.73 C179.81,1054.98 178.342,1048.8 177.748,1044.17 C177.3,1040.46 177.076,1035.38 177.076,1028.94 C177.076,1023.27 178.378,1017.96 180.982,1013.01 C183.514,1007.88 187.06,1003.68 191.623,1000.42 C191.883,1000.22 192.206,1000.12 192.592,1000.12 C193.05,1000.12 193.378,1000.22 193.576,1000.42 C197.086,1004.65 200.112,1010.15 202.654,1016.92 C205.258,1023.69 206.56,1029.85 206.56,1035.39 C206.56,1041.64 205.066,1047.5 202.076,1052.97 C198.691,1058.76 194.326,1064.75 188.982,1070.94 C190.347,1075.23 192.17,1081.96 194.451,1091.14 M202.748,1136.56 C206.133,1135.32 208.774,1133.21 210.67,1130.22 C212.753,1127.35 213.795,1124.13 213.795,1120.55 C213.795,1115.92 212.232,1111.82 209.107,1108.23 C205.909,1104.52 201.836,1102.44 196.889,1101.98 C199.691,1115.72 201.644,1127.25 202.748,1136.56 M164.967,1114 C164.967,1120.45 167.571,1126.11 172.779,1131 C178.112,1135.75 184.102,1138.12 190.748,1138.12 C193.477,1138.12 196.144,1137.93 198.748,1137.53 C197.706,1127.63 195.654,1115.78 192.592,1101.98 C188.883,1102.38 185.925,1103.68 183.717,1105.89 C181.56,1108.17 180.482,1110.74 180.482,1113.61 C180.482,1118.56 183.123,1122.56 188.404,1125.62 C188.852,1126.08 189.076,1126.57 189.076,1127.09 C189.076,1127.61 188.852,1128.1 188.404,1128.55 C188.008,1129 187.519,1129.23 186.935,1129.23 C186.873,1129.23 186.581,1129.17 186.06,1129.05 C182.342,1127.02 179.477,1124.42 177.467,1121.23 C175.571,1117.84 174.623,1114.42 174.623,1110.97 C174.623,1106.48 176.024,1102.41 178.826,1098.76 C181.753,1095.12 185.56,1092.77 190.248,1091.73 C188.425,1084.44 186.93,1078.74 185.764,1074.64 C184.722,1075.82 183.469,1077.23 182.006,1078.89 C180.542,1080.55 179.68,1081.54 179.42,1081.87 C177.076,1084.93 175.284,1087.3 174.045,1089 C171.826,1092.06 170.196,1094.7 169.154,1096.9 C168.05,1099.38 167.076,1102.09 166.232,1105.01 C165.389,1107.82 164.967,1110.81 164.967,1114 M197.576,1014.69 C192.691,1017.09 188.852,1020.54 186.06,1025.03 C183.196,1029.65 181.764,1034.63 181.764,1039.97 C181.764,1044.65 182.935,1050.97 185.279,1058.92 C189.967,1053.25 193.482,1048.01 195.826,1043.2 C198.295,1038.12 199.529,1032.81 199.529,1027.28 C199.529,1023.11 198.878,1018.92 197.576,1014.69"/>
<path class="Clef" d="M194.451,616.139 C194.451,616.139 194.649,616.139 195.045,616.139 C195.305,616.076 195.529,616.045 195.717,616.045 C203.008,616.045 208.998,618.618 213.685,623.764 C218.373,628.837 220.717,634.759 220.717,641.529 C220.717,649.936 217.237,656.774 210.279,662.045 C208.456,663.483 206.076,664.654 203.139,665.561 C203.472,669.79 203.639,673.207 203.639,675.811 C203.639,676.332 203.571,678.222 203.435,681.483 C203.175,687.535 201.092,692.774 197.185,697.201 C193.415,701.566 188.727,703.748 183.123,703.748 C177.852,703.748 173.362,701.894 169.654,698.186 C165.935,694.404 164.076,689.847 164.076,684.514 C164.076,681.712 165.154,679.332 167.31,677.373 C169.519,675.425 172.086,674.451 175.014,674.451 C177.618,674.451 179.8,675.462 181.56,677.483 C183.383,679.368 184.295,681.712 184.295,684.514 C184.295,687.045 183.383,689.222 181.56,691.045 C179.737,692.868 177.555,693.779 175.014,693.779 C173.972,693.779 172.967,693.587 171.998,693.201 C174.862,697.43 178.67,699.545 183.42,699.545 C187.909,699.545 191.586,697.722 194.451,694.076 C197.451,690.305 199.081,685.91 199.342,680.889 C199.467,677.764 199.529,675.977 199.529,675.529 C199.529,671.884 199.399,668.889 199.139,666.545 C195.889,667.066 192.993,667.326 190.451,667.326 C181.399,667.326 173.685,663.743 167.31,656.576 C161.06,649.347 157.935,640.753 157.935,630.795 C157.935,628.712 158.128,626.597 158.514,624.451 C158.909,622.691 159.399,620.769 159.982,618.686 C160.305,617.509 161.185,615.618 162.623,613.014 C163.144,612.233 163.73,611.256 164.381,610.084 C165.032,608.912 165.487,608.134 165.748,607.748 C166.394,606.446 167.659,604.686 169.545,602.467 C170.066,601.884 170.605,601.235 171.162,600.522 C171.719,599.808 172.193,599.222 172.584,598.764 C172.974,598.305 173.266,597.946 173.459,597.686 C173.652,597.425 175.118,595.701 177.857,592.514 C178.503,591.858 179.136,591.157 179.756,590.412 C180.375,589.667 180.881,589.082 181.271,588.654 C181.662,588.227 181.956,587.92 182.154,587.733 C179.81,579.983 178.342,573.795 177.748,569.17 C177.3,565.462 177.076,560.384 177.076,553.936 C177.076,548.269 178.378,542.962 180.982,538.014 C183.514,532.878 187.06,528.68 191.623,525.42 C191.883,525.222 192.206,525.123 192.592,525.123 C193.05,525.123 193.378,525.222 193.576,525.42 C197.086,529.649 200.112,535.149 202.654,541.92 C205.258,548.691 206.56,554.847 206.56,560.389 C206.56,566.639 205.066,572.498 202.076,577.967 C198.691,583.759 194.326,589.748 188.982,595.936 C190.347,600.227 192.17,606.962 194.451,616.139 M202.748,661.561 C206.133,660.321 208.774,658.207 210.67,655.217 C212.753,652.352 213.795,649.128 213.795,645.545 C213.795,640.92 212.232,636.816 209.107,633.233 C205.909,629.524 201.836,627.441 196.889,626.983 C199.691,640.722 201.644,652.248 202.748,661.561 M164.967,638.998 C164.967,645.446 167.571,651.113 172.779,655.998 C178.112,660.748 184.102,663.123 190.748,663.123 C193.477,663.123 196.144,662.925 198.748,662.529 C197.706,652.634 195.654,640.785 192.592,626.983 C188.883,627.378 185.925,628.68 183.717,630.889 C181.56,633.17 180.482,635.743 180.482,638.608 C180.482,643.555 183.123,647.561 188.404,650.623 C188.852,651.082 189.076,651.571 189.076,652.092 C189.076,652.613 188.852,653.097 188.404,653.545 C188.008,654.003 187.519,654.233 186.935,654.233 C186.873,654.233 186.581,654.17 186.06,654.045 C182.342,652.024 179.477,649.42 177.467,646.233 C175.571,642.837 174.623,639.415 174.623,635.967 C174.623,631.477 176.024,627.41 178.826,623.764 C181.753,620.118 185.56,617.774 190.248,616.733 C188.425,609.441 186.93,603.743 185.764,599.639 C184.722,600.816 183.469,602.233 182.006,603.889 C180.542,605.545 179.68,606.54 179.42,606.873 C177.076,609.925 175.284,612.3 174.045,613.998 C171.826,617.061 170.196,619.696 169.154,621.904 C168.05,624.384 167.076,627.087 166.232,630.014 C165.389,632.816 164.967,635.811 164.967,638.998 M197.576,539.686 C192.691,542.092 188.852,545.54 186.06,550.029 C183.196,554.654 181.764,559.634 181.764,564.967 C181.764,569.654 182.935,575.972 185.279,583.92 C189.967,578.253 193.482,573.014 195.826,568.201 C198.295,563.118 199.529,557.811 199.529,552.279 C199.529,548.113 198.878,543.915 197.576,539.686"/>
<path class="KeySig" d="M267.248,1072.89 C267.248,1074.13 266.631,1074.75 265.396,1074.75 C264.162,1074.75 263.545,1074.13 263.545,1072.89 L263.545,1058.44 L255.248,1061.56 L255.248,1077.37 C255.248,1078.61 254.628,1079.23 253.389,1079.23 C252.149,1079.23 251.529,1078.61 251.529,1077.37 L251.529,1062.83 L248.404,1064 C248.342,1064.06 248.081,1064.09 247.623,1064.09 C247.102,1064.09 246.646,1063.9 246.256,1063.51 C245.865,1063.12 245.67,1062.66 245.67,1062.14 L245.67,1056.09 C245.67,1055.11 246.092,1054.49 246.935,1054.23 L251.529,1052.67 L251.529,1036.65 L248.404,1037.73 C248.342,1037.8 248.081,1037.83 247.623,1037.83 C247.102,1037.83 246.646,1037.63 246.256,1037.24 C245.865,1036.85 245.67,1036.39 245.67,1035.87 L245.67,1029.81 C245.67,1028.9 246.092,1028.32 246.935,1028.06 L251.529,1026.3 L251.529,1010.58 C251.529,1009.34 252.149,1008.72 253.389,1008.72 C254.628,1008.72 255.248,1009.34 255.248,1010.58 L255.248,1025.03 L263.545,1021.9 L263.545,1006.09 C263.545,1004.85 264.162,1004.23 265.396,1004.23 C266.631,1004.23 267.248,1004.85 267.248,1006.09 L267.248,1020.64 L270.482,1019.47 C270.545,1019.4 270.769,1019.37 271.154,1019.37 C271.613,1019.37 272.102,1019.57 272.623,1019.95 C273.019,1020.35 273.217,1020.81 273.217,1021.33 L273.217,1027.37 C273.217,1028.29 272.758,1028.91 271.842,1029.23 L267.248,1030.8 L267.248,1046.81 L270.482,1045.73 C270.545,1045.67 270.769,1045.64 271.154,1045.64 C271.613,1045.64 272.102,1045.84 272.623,1046.23 C273.019,1046.62 273.217,1047.07 273.217,1047.59 L273.217,1053.65 C273.217,1054.5 272.758,1055.08 271.842,1055.4 L267.248,1057.17 L267.248,1072.89 M263.545,1032.26 L255.248,1035.19 L255.248,1051.2 L263.545,1048.28 L263.545,1032.26 "/>
<path class="KeySig" d="M267.248,597.889 C267.248,599.128 266.631,599.748 265.396,599.748 C264.162,599.748 263.545,599.128 263.545,597.889 L263.545,583.436 L255.248,586.561 L255.248,602.373 C255.248,603.613 254.628,604.233 253.389,604.233 C252.149,604.233 251.529,603.613 251.529,602.373 L251.529,587.826 L248.404,588.998 C248.342,589.061 248.081,589.092 247.623,589.092 C247.102,589.092 246.646,588.897 246.256,588.506 C245.865,588.115 245.67,587.66 245.67,587.139 L245.67,581.092 C245.67,580.113 246.092,579.493 246.935,579.233 L251.529,577.67 L251.529,561.654 L248.404,562.733 C248.342,562.795 248.081,562.826 247.623,562.826 C247.102,562.826 246.646,562.631 246.256,562.24 C245.865,561.85 245.67,561.394 245.67,560.873 L245.67,554.811 C245.67,553.904 246.092,553.321 246.935,553.061 L251.529,551.295 L251.529,535.576 C251.529,534.337 252.149,533.717 253.389,533.717 C254.628,533.717 255.248,534.337 255.248,535.576 L255.248,550.029 L263.545,546.904 L263.545,531.092 C263.545,529.852 264.162,529.233 265.396,529.233 C266.631,529.233 267.248,529.852 267.248,531.092 L267.248,545.639 L270.482,544.467 C270.545,544.404 270.769,544.373 271.154,544.373 C271.613,544.373 272.102,544.566 272.623,544.951 C273.019,545.347 273.217,545.805 273.217,546.326 L273.217,552.373 C273.217,553.29 272.758,553.91 271.842,554.233 L267.248,555.795 L267.248,571.811 L270.482,570.733 C270.545,570.67 270.769,570.639 271.154,570.639 C271.613,570.639 272.102,570.837 272.623,571.233 C273.019,571.618 273.217,572.071 273.217,572.592 L273.217,578.654 C273.217,579.498 272.758,580.081 271.842,580.404 L267.248,582.17 L267.248,597.889 M263.545,557.264 L255.248,560.186 L255.248,576.201 L263.545,573.279 L263.545,557.264 "/>
<path class="TimeSig" d="M321.006,567.912 C322.954,567.912 324.613,567.686 325.982,567.233 C327.352,566.779 328.23,566.553 328.615,566.553 C329.073,566.553 329.433,566.683 329.693,566.943 C329.891,567.131 330.021,567.355 330.084,567.615 C330.084,567.751 330.016,567.949 329.881,568.209 L301.475,601.225 L318.162,601.225 L318.162,588.131 C318.162,587.287 318.391,586.568 318.85,585.975 C319.631,585.329 320.282,584.938 320.803,584.803 C321.646,584.417 322.688,583.506 323.928,582.068 C324.969,580.902 326.209,578.855 327.646,575.928 C327.834,575.532 328.126,575.334 328.521,575.334 C329.303,575.334 329.756,575.792 329.881,576.709 L329.881,601.225 L337.021,601.225 C337.928,601.225 338.448,601.709 338.584,602.678 C338.584,603.657 338.063,604.147 337.021,604.147 L329.881,604.147 L329.881,604.928 C329.881,607.532 330.532,609.746 331.834,611.568 C333.334,613.391 335.094,614.303 337.115,614.303 C337.896,614.303 338.287,614.693 338.287,615.475 C338.287,616.256 337.896,616.647 337.115,616.647 C335.751,616.647 333.537,616.454 330.475,616.068 C327.672,615.61 325.49,615.381 323.928,615.381 C322.303,615.381 320.12,615.61 317.381,616.068 C314.454,616.454 312.277,616.647 310.85,616.647 C310.068,616.647 309.678,616.256 309.678,615.475 C309.678,614.693 310.068,614.303 310.85,614.303 C312.86,614.303 314.615,613.391 316.115,611.568 C317.48,609.683 318.162,607.47 318.162,604.928 L318.162,604.147 L301.475,604.147 C300.36,604.147 299.579,603.886 299.131,603.365 C298.6,602.98 298.334,602.459 298.334,601.803 C298.334,601.605 298.823,600.923 299.803,599.756 C300.917,598.454 302.089,596.86 303.318,594.975 C304.756,592.756 306.126,590.475 307.428,588.131 C308.855,585.464 309.995,582.402 310.85,578.943 C311.818,575.433 312.303,571.855 312.303,568.209 C312.303,567.167 312.761,566.647 313.678,566.647 C313.876,566.647 314.297,566.746 314.943,566.943 C315.141,567.006 315.55,567.102 316.17,567.233 C316.79,567.363 317.292,567.49 317.678,567.615 C318.855,567.813 319.964,567.912 321.006,567.912"/>
<path class="TimeSig" d="M321.006,618.084 C322.954,618.084 324.613,617.858 325.982,617.404 C327.352,616.951 328.23,616.725 328.615,616.725 C329.073,616.725 329.433,616.855 329.693,617.115 C329.891,617.303 330.021,617.527 330.084,617.787 C330.084,617.923 330.016,618.121 329.881,618.381 L301.475,651.397 L318.162,651.397 L318.162,638.303 C318.162,637.459 318.391,636.74 318.85,636.147 C319.631,635.501 320.282,635.11 320.803,634.975 C321.646,634.589 322.688,633.678 323.928,632.24 C324.969,631.074 326.209,629.027 327.646,626.1 C327.834,625.704 328.126,625.506 328.521,625.506 C329.303,625.506 329.756,625.964 329.881,626.881 L329.881,651.397 L337.021,651.397 C337.928,651.397 338.448,651.881 338.584,652.85 C338.584,653.829 338.063,654.319 337.021,654.319 L329.881,654.319 L329.881,655.1 C329.881,657.704 330.532,659.917 331.834,661.74 C333.334,663.563 335.094,664.475 337.115,664.475 C337.896,664.475 338.287,664.865 338.287,665.647 C338.287,666.428 337.896,666.819 337.115,666.819 C335.751,666.819 333.537,666.626 330.475,666.24 C327.672,665.782 325.49,665.553 323.928,665.553 C322.303,665.553 320.12,665.782 317.381,666.24 C314.454,666.626 312.277,666.819 310.85,666.819 C310.068,666.819 309.678,666.428 309.678,665.647 C309.678,664.865 310.068,664.475 310.85,664.475 C312.86,664.475 314.615,663.563 316.115,661.74 C317.48,659.855 318.162,657.641 318.162,655.1 L318.162,654.319 L301.475,654.319 C300.36,654.319 299.579,654.058 299.131,653.537 C298.6,653.152 298.334,652.631 298.334,651.975 C298.334,651.777 298.823,651.095 299.803,649.928 C300.917,648.626 302.089,647.032 303.318,645.147 C304.756,642.928 306.126,640.647 307.428,638.303 C308.855,635.636 309.995,632.574 310.85,629.115 C311.818,625.605 312.303,622.027 312.303,618.381 C312.303,617.339 312.761,616.819 313.678,616.819 C313.876,616.819 314.297,616.917 314.943,617.115 C315.141,617.178 315.55,617.274 316.17,617.404 C316.79,617.535 317.292,617.662 317.678,617.787 C318.855,617.985 319.964,618.084 321.006,618.084"/>
<path class="Rest" d="M2817.59,1083.92 C2817.59,1082.74 2818.25,1081.44 2819.56,1080.01 C2820.53,1078.97 2821.96,1077.73 2823.86,1076.3 C2825.28,1075.33 2826.68,1073.86 2828.04,1071.9 C2829.35,1070.02 2830,1067.97 2830,1065.75 C2830,1063.14 2829.15,1060.84 2827.47,1058.83 L2823.95,1054.62 C2823.69,1054.36 2823.56,1054.04 2823.56,1053.65 C2823.56,1053.26 2823.75,1052.9 2824.14,1052.58 C2824.6,1052.24 2824.99,1052.08 2825.31,1052.08 C2825.77,1052.08 2826.13,1052.27 2826.39,1052.67 L2841.53,1070.64 C2842.17,1071.48 2842.5,1072.33 2842.5,1073.17 C2842.5,1074.35 2841.85,1075.65 2840.54,1077.08 C2839.7,1077.99 2838.3,1079.23 2836.36,1080.8 C2834.86,1081.7 2833.42,1083.17 2832.06,1085.19 C2830.76,1087.07 2830.11,1089.12 2830.11,1091.34 C2830.11,1094.08 2830.89,1096.39 2832.45,1098.28 L2840.84,1108.14 C2841.04,1108.34 2841.2,1108.67 2841.33,1109.12 C2841.33,1109.57 2841.16,1109.96 2840.84,1110.3 C2840.38,1110.62 2839.99,1110.78 2839.67,1110.78 C2839.54,1110.78 2839.02,1110.42 2838.11,1109.7 C2837.13,1108.92 2835.83,1108.17 2834.2,1107.45 C2832.38,1106.74 2830.59,1106.39 2828.83,1106.39 C2827.2,1106.39 2825.87,1106.84 2824.83,1107.75 C2823.92,1108.67 2823.47,1110.43 2823.47,1113.03 C2823.47,1117 2824.41,1120.12 2826.29,1122.4 C2826.49,1122.67 2826.52,1122.99 2826.39,1123.37 C2826.26,1123.63 2826.03,1123.76 2825.7,1123.76 C2825.25,1123.76 2824.25,1122.59 2822.68,1120.25 C2821.05,1117.78 2819.52,1114.95 2818.09,1111.75 C2816.59,1108.36 2815.84,1105.57 2815.84,1103.36 C2815.84,1100.56 2817.17,1099.15 2819.84,1099.15 C2822.9,1099.15 2826.88,1100.2 2831.76,1102.28 L2818.58,1086.45 C2817.92,1085.61 2817.59,1084.76 2817.59,1083.92"/>
<path class="Rest" d="M2761.66,608.92 C2761.66,607.743 2762.31,606.441 2763.63,605.014 C2764.6,603.972 2766.03,602.733 2767.92,601.295 C2769.35,600.326 2770.75,598.863 2772.11,596.904 C2773.41,595.019 2774.06,592.967 2774.06,590.748 C2774.06,588.144 2773.22,585.837 2771.53,583.826 L2768.02,579.623 C2767.76,579.363 2767.63,579.037 2767.63,578.647 C2767.63,578.256 2767.82,577.899 2768.2,577.576 C2768.66,577.243 2769.05,577.076 2769.38,577.076 C2769.83,577.076 2770.19,577.274 2770.45,577.67 L2785.6,595.639 C2786.24,596.483 2786.56,597.326 2786.56,598.17 C2786.56,599.347 2785.91,600.649 2784.61,602.076 C2783.77,602.993 2782.37,604.233 2780.42,605.795 C2778.92,606.701 2777.49,608.165 2776.13,610.186 C2774.82,612.071 2774.17,614.123 2774.17,616.342 C2774.17,619.082 2774.95,621.394 2776.52,623.279 L2784.91,633.139 C2785.11,633.337 2785.27,633.665 2785.39,634.123 C2785.39,634.571 2785.23,634.962 2784.91,635.295 C2784.45,635.618 2784.06,635.779 2783.74,635.779 C2783.61,635.779 2783.09,635.42 2782.17,634.701 C2781.19,633.92 2779.89,633.17 2778.27,632.451 C2776.44,631.743 2774.65,631.389 2772.89,631.389 C2771.27,631.389 2769.93,631.842 2768.89,632.748 C2767.99,633.665 2767.53,635.425 2767.53,638.029 C2767.53,641.998 2768.48,645.123 2770.36,647.404 C2770.56,647.665 2770.59,647.988 2770.45,648.373 C2770.33,648.634 2770.1,648.764 2769.77,648.764 C2769.32,648.764 2768.31,647.592 2766.75,645.248 C2765.12,642.779 2763.58,639.946 2762.16,636.748 C2760.66,633.363 2759.91,630.566 2759.91,628.358 C2759.91,625.555 2761.24,624.154 2763.91,624.154 C2766.97,624.154 2770.94,625.196 2775.83,627.279 L2762.64,611.451 C2761.99,610.608 2761.66,609.764 2761.66,608.92"/>
</svg>
