<?xml version="1.0" encoding="UTF-8" standalone="no"?>
<svg width="2977.2px" height="4208.4px" viewBox="0 0 2977.2 4208.4"
 xmlns="http://www.w3.org/2000/svg" xmlns:xlink="http://www.w3.org/1999/xlink" version="1.2" baseProfile="tiny">
<title>Carul_cu_boi_-_The_ox_cart</title>
<desc>Generated by MuseScore 3.0.2</desc>
<polyline class="StaffLines" fill="none" stroke="#000000" stroke-width="2.00" stroke-linejoin="bevel" points="141.732,566.733 2835.47,566.733"/>
<polyline class="StaffLines" fill="none" stroke="#000000" stroke-width="2.00" stroke-linejoin="bevel" points="141.732,591.733 2835.47,591.733"/>
<polyline class="StaffLines" fill="none" stroke="#000000" stroke-width="2.00" stroke-linejoin="bevel" points="141.732,616.733 2835.47,616.733"/>
<polyline class="StaffLines" fill="none" stroke="#000000" stroke-width="2.00" stroke-linejoin="bevel" points="141.732,641.733 2835.47,641.733"/>
<polyline class="StaffLines" fill="none" stroke="#000000" stroke-width="2.00" stroke-linejoin="bevel" points="141.732,666.733 2835.47,666.733"/>
<polyline class="StaffLines" fill="none" stroke="#000000" stroke-width="2.00" stroke-linejoin="bevel" points="141.732,1041.73 2835.47,1041.73"/>
<polyline class="StaffLines" fill="none" stroke="#000000" stroke-width="2.00" stroke-linejoin="bevel" points="141.732,1066.73 2835.47,1066.73"/>
<polyline class="StaffLines" fill="none" stroke="#000000" stroke-width="2.00" stroke-linejoin="bevel" points="141.732,1091.73 2835.47,1091.73"/>
<polyline class="StaffLines" fill="none" stroke="#000000" stroke-width="2.00" stroke-linejoin="bevel" points="141.732,1116.73 2835.47,1116.73"/>
<polyline class="StaffLines" fill="none" stroke="#000000" stroke-width="2.00" stroke-linejoin="bevel" points="141.732,1141.73 2835.47,1141.73"/>
<polyline class="StaffLines" fill="none" stroke="#000000" stroke-width="2.00" stroke-linejoin="bevel" points="141.732,1566.73 2835.47,1566.73"/>
<polyline class="StaffLines" fill="none" stroke="#000000" stroke-width="2.00" stroke-linejoin="bevel" points="141.732,1591.73 2835.47,1591.73"/>
<polyline class="StaffLines" fill="none" stroke="#000000" stroke-width="2.00" stroke-linejoin="bevel" points="141.732,1616.73 2835.47,1616.73"/>
<polyline class="StaffLines" fill="none" stroke="#000000" stroke-width="2.00" stroke-linejoin="bevel" points="141.732,1641.73 2835.47,1641.73"/>
<polyline class="StaffLines" fill="none" stroke="#000000" stroke-width="2.00" stroke-linejoin="bevel" points="141.732,1666.73 2835.47,1666.73"/>
<polyline class="StaffLines" fill="none" stroke="#000000" stroke-width="2.00" stroke-linejoin="bevel" points="141.732,2041.73 2835.47,2041.73"/>
<polyline class="StaffLines" fill="none" stroke="#000000" stroke-width="2.00" stroke-linejoin="bevel" points="141.732,2066.73 2835.47,2066.73"/>
<polyline class="StaffLines" fill="none" stroke="#000000" stroke-width="2.00" stroke-linejoin="bevel" points="141.732,2091.73 2835.47,2091.73"/>
<polyline class="StaffLines" fill="none" stroke="#000000" stroke-width="2.00" stroke-linejoin="bevel" points="141.732,2116.73 2835.47,2116.73"/>
<polyline class="StaffLines" fill="none" stroke="#000000" stroke-width="2.00" stroke-linejoin="bevel" points="141.732,2141.73 2835.47,2141.73"/>
<path class="Text" d="M1004.09,268.732 C1004.09,248.055 1010.49,231.253 1023.29,218.326 C1036.1,205.399 1052.03,198.935 1071.09,198.935 C1079.62,198.935 1087.62,199.98 1095.09,202.068 C1102.56,204.157 1106.89,205.201 1108.09,205.201 C1112.49,205.201 1115.28,203.113 1116.48,198.935 L1120.69,198.935 L1122.48,243.732 L1117.89,243.732 C1110.56,218.93 1096.22,206.529 1074.89,206.529 C1060.36,206.529 1048.79,211.93 1040.19,222.732 C1031.59,233.534 1027.29,248.003 1027.29,266.139 C1027.29,277.732 1028.79,287.764 1031.79,296.232 C1034.79,304.701 1038.83,311.102 1043.9,315.435 C1048.96,319.769 1054.2,322.902 1059.59,324.834 C1064.99,326.766 1070.75,327.732 1076.89,327.732 C1092.62,327.732 1107.48,320.998 1121.48,307.529 L1125.09,311.139 C1118.96,319.264 1111.16,325.527 1101.69,329.928 C1092.23,334.329 1081.83,336.529 1070.5,336.529 C1050.76,336.529 1034.76,330.329 1022.49,317.928 C1010.22,305.527 1004.09,289.128 1004.09,268.732 M1136.09,313.982 C1136.09,311.597 1136.36,309.376 1136.89,307.318 C1137.42,305.261 1138.35,303.336 1139.69,301.545 C1141.02,299.753 1142.29,298.128 1143.49,296.67 C1144.69,295.211 1146.5,293.719 1148.9,292.193 C1151.3,290.667 1153.3,289.407 1154.9,288.412 C1156.5,287.417 1158.93,286.225 1162.19,284.834 C1165.46,283.443 1167.96,282.383 1169.69,281.654 C1171.43,280.925 1174.16,279.831 1177.9,278.373 C1181.63,276.915 1184.36,275.852 1186.09,275.185 L1186.09,263.045 C1186.09,252.034 1181.02,246.529 1170.89,246.529 C1166.89,246.529 1163.49,247.495 1160.69,249.428 C1157.9,251.36 1156.5,253.659 1156.5,256.326 C1156.5,257.399 1156.66,258.868 1157,260.732 C1157.33,262.597 1157.5,263.795 1157.5,264.326 C1157.5,266.597 1156.6,268.566 1154.79,270.232 C1152.99,271.899 1150.89,272.732 1148.5,272.732 C1146.23,272.732 1144.22,271.865 1142.49,270.131 C1140.76,268.396 1139.89,266.399 1139.89,264.139 C1139.89,257.868 1143.12,252.566 1149.59,248.232 C1156.06,243.899 1164.03,241.732 1173.5,241.732 C1184.42,241.732 1191.96,244.355 1196.09,249.6 C1200.23,254.844 1202.29,262.842 1202.29,273.592 L1202.29,312.389 C1202.29,316.764 1202.73,319.782 1203.59,321.443 C1204.46,323.105 1206.02,323.935 1208.29,323.935 C1211.1,323.935 1214.03,322.675 1217.09,320.154 L1217.09,325.389 C1213.62,329.389 1210.59,332.113 1207.99,333.56 C1205.39,335.008 1202.42,335.732 1199.09,335.732 C1194.96,335.732 1191.92,334.568 1189.99,332.24 C1188.06,329.912 1186.83,326.081 1186.29,320.748 C1174.83,330.738 1165.09,335.732 1157.09,335.732 C1150.96,335.732 1145.92,333.698 1141.99,329.631 C1138.06,325.563 1136.09,320.347 1136.09,313.982 M1186.09,308.81 L1186.09,279.967 C1174.09,284.342 1165.69,288.584 1160.89,292.693 C1156.09,296.803 1153.69,301.779 1153.69,307.623 C1153.69,313.06 1155.02,317.105 1157.69,319.756 C1160.35,322.407 1163.22,323.732 1166.29,323.732 C1170.83,323.732 1175.69,322.206 1180.89,319.154 C1183.02,317.967 1184.42,316.709 1185.09,315.381 C1185.76,314.053 1186.09,311.863 1186.09,308.81 M1278.29,261.326 C1276.29,261.326 1273.83,260.159 1270.9,257.826 C1267.96,255.493 1266.03,254.326 1265.09,254.326 C1262.42,254.326 1259.42,256.261 1256.09,260.131 C1252.76,264.001 1251.09,267.534 1251.09,270.732 L1251.09,315.732 C1251.09,321.461 1252.22,325.326 1254.49,327.326 C1256.76,329.326 1261.29,330.461 1268.09,330.732 L1268.09,333.732 L1220.09,333.732 L1220.09,330.732 C1226.49,329.534 1230.45,328.201 1231.99,326.732 C1233.53,325.264 1234.29,321.998 1234.29,316.935 L1234.29,266.935 C1234.29,262.529 1233.79,259.428 1232.79,257.631 C1231.79,255.834 1230.03,254.935 1227.5,254.935 C1225.36,254.935 1223.03,255.201 1220.5,255.732 L1220.5,252.529 C1231.16,249.06 1241.03,245.461 1250.09,241.732 L1251.09,242.139 L1251.09,260.529 C1256.03,253.467 1260.23,248.568 1263.69,245.834 C1267.16,243.1 1270.96,241.732 1275.09,241.732 C1278.56,241.732 1281.26,242.665 1283.19,244.529 C1285.13,246.394 1286.09,248.993 1286.09,252.326 C1286.09,255.128 1285.39,257.329 1283.99,258.928 C1282.59,260.527 1280.69,261.326 1278.29,261.326 M1383.09,323.326 L1383.09,326.139 C1372.7,329.055 1363.56,332.185 1355.69,335.529 L1354.89,335.123 L1354.89,318.154 C1354.49,318.56 1353.33,319.758 1351.4,321.748 C1349.46,323.738 1348.1,325.113 1347.29,325.873 C1346.49,326.633 1345.13,327.81 1343.19,329.404 C1341.26,330.998 1339.56,332.139 1338.09,332.826 C1336.62,333.514 1334.76,334.17 1332.49,334.795 C1330.22,335.42 1327.96,335.732 1325.69,335.732 C1318.35,335.732 1312.49,333.336 1308.09,328.545 C1303.7,323.753 1301.5,317.373 1301.5,309.404 L1301.5,259.264 C1301.5,254.618 1300.63,251.402 1298.9,249.615 C1297.16,247.829 1293.89,246.8 1289.09,246.529 L1289.09,243.732 L1318.29,243.732 L1318.29,308.607 C1318.29,312.722 1319.69,316.271 1322.49,319.256 C1325.29,322.24 1328.62,323.732 1332.5,323.732 C1333.96,323.732 1335.69,323.534 1337.69,323.139 C1339.69,322.743 1341.99,321.98 1344.59,320.85 C1347.2,319.719 1349.4,317.928 1351.19,315.475 C1352.99,313.021 1353.89,310.003 1353.89,306.42 L1353.89,259.67 C1353.89,254.764 1352.99,251.514 1351.19,249.92 C1349.4,248.326 1345.36,247.399 1339.09,247.139 L1339.09,243.732 L1370.69,243.732 L1370.69,311.982 C1370.69,316.628 1371.42,319.68 1372.89,321.139 C1374.36,322.597 1377.42,323.326 1382.09,323.326 L1383.09,323.326 M1387.09,209.139 L1387.09,205.935 C1400.29,202.738 1410.89,199.805 1418.89,197.139 L1419.69,197.529 L1419.69,316.935 C1419.69,322.404 1420.59,325.972 1422.39,327.639 C1424.19,329.305 1428.29,330.336 1434.69,330.732 L1434.69,333.732 L1387.5,333.732 L1387.5,330.732 C1393.76,330.201 1397.89,329.001 1399.89,327.131 C1401.89,325.261 1402.89,321.659 1402.89,316.326 L1402.89,220.935 C1402.89,216.269 1402.29,213.068 1401.09,211.334 C1399.89,209.6 1397.7,208.732 1394.5,208.732 C1391.83,208.732 1389.36,208.868 1387.09,209.139 M1492.09,291.092 C1492.09,276.3 1496.46,264.376 1505.19,255.318 C1513.93,246.261 1524.16,241.732 1535.89,241.732 C1544.29,241.732 1551.53,243.766 1557.59,247.834 C1563.65,251.902 1566.69,256.732 1566.69,262.326 C1566.69,264.597 1565.75,266.566 1563.89,268.232 C1562.02,269.899 1559.76,270.732 1557.09,270.732 C1552.56,270.732 1549.42,267.691 1547.69,261.607 L1546.5,257.248 C1545.42,253.55 1544.09,251.04 1542.49,249.717 C1540.89,248.394 1538.29,247.732 1534.69,247.732 C1526.56,247.732 1520,250.948 1515,257.381 C1510,263.813 1507.5,272.133 1507.5,282.342 C1507.5,293.748 1510.4,303.066 1516.19,310.295 C1521.99,317.524 1529.42,321.139 1538.5,321.139 C1544.23,321.139 1549.16,319.745 1553.29,316.959 C1557.43,314.172 1561.89,309.331 1566.69,302.435 L1569.5,304.217 C1568.16,306.894 1567,309.102 1566,310.842 C1565,312.581 1563.2,315.191 1560.59,318.67 C1557.99,322.149 1555.42,324.959 1552.89,327.1 C1550.36,329.24 1547.02,331.214 1542.89,333.021 C1538.75,334.829 1534.49,335.732 1530.09,335.732 C1519.03,335.732 1509.93,331.563 1502.79,323.225 C1495.66,314.886 1492.09,304.175 1492.09,291.092 M1672.09,323.326 L1672.09,326.139 C1661.7,329.055 1652.56,332.185 1644.69,335.529 L1643.89,335.123 L1643.89,318.154 C1643.49,318.56 1642.33,319.758 1640.4,321.748 C1638.46,323.738 1637.1,325.113 1636.29,325.873 C1635.49,326.633 1634.13,327.81 1632.19,329.404 C1630.26,330.998 1628.56,332.139 1627.09,332.826 C1625.62,333.514 1623.76,334.17 1621.49,334.795 C1619.22,335.42 1616.96,335.732 1614.69,335.732 C1607.35,335.732 1601.49,333.336 1597.09,328.545 C1592.7,323.753 1590.5,317.373 1590.5,309.404 L1590.5,259.264 C1590.5,254.618 1589.63,251.402 1587.9,249.615 C1586.16,247.829 1582.89,246.8 1578.09,246.529 L1578.09,243.732 L1607.29,243.732 L1607.29,308.607 C1607.29,312.722 1608.69,316.271 1611.49,319.256 C1614.29,322.24 1617.62,323.732 1621.5,323.732 C1622.96,323.732 1624.69,323.534 1626.69,323.139 C1628.69,322.743 1630.99,321.98 1633.59,320.85 C1636.2,319.719 1638.4,317.928 1640.19,315.475 C1641.99,313.021 1642.89,310.003 1642.89,306.42 L1642.89,259.67 C1642.89,254.764 1641.99,251.514 1640.19,249.92 C1638.4,248.326 1634.36,247.399 1628.09,247.139 L1628.09,243.732 L1659.69,243.732 L1659.69,311.982 C1659.69,316.628 1660.42,319.68 1661.89,321.139 C1663.36,322.597 1666.42,323.326 1671.09,323.326 L1672.09,323.326 M1756.09,197.529 L1756.09,258.764 C1758.09,253.816 1761.69,249.74 1766.89,246.537 C1772.09,243.334 1777.75,241.732 1783.89,241.732 C1793.89,241.732 1802.26,245.915 1808.99,254.279 C1815.72,262.644 1819.09,272.982 1819.09,285.295 C1819.09,299.514 1814.59,311.475 1805.59,321.178 C1796.59,330.881 1785.49,335.732 1772.29,335.732 C1764.29,335.732 1756.79,334.404 1749.79,331.748 C1742.79,329.092 1739.29,326.274 1739.29,323.295 L1739.29,219.139 C1739.29,215.003 1738.66,212.269 1737.4,210.935 C1736.13,209.602 1733.5,208.935 1729.5,208.935 C1728.03,208.935 1726.89,209.003 1726.09,209.139 L1726.09,205.935 C1736.36,203.404 1746.03,200.472 1755.09,197.139 L1756.09,197.529 M1756.09,269.42 L1756.09,320.076 C1756.09,322.628 1758.02,324.876 1761.89,326.818 C1765.75,328.761 1770.29,329.732 1775.5,329.732 C1783.76,329.732 1790.16,326.649 1794.69,320.482 C1799.23,314.316 1801.5,305.67 1801.5,294.545 C1801.5,282.347 1799.2,272.594 1794.59,265.287 C1789.99,257.98 1783.75,254.326 1775.89,254.326 C1770.69,254.326 1766.09,255.868 1762.09,258.951 C1758.09,262.034 1756.09,265.524 1756.09,269.42 M1873.29,241.732 C1886.1,241.732 1896.63,246.001 1904.9,254.537 C1913.16,263.073 1917.29,273.878 1917.29,286.951 C1917.29,300.816 1913.03,312.412 1904.49,321.74 C1895.95,331.068 1885.42,335.732 1872.89,335.732 C1860.36,335.732 1849.92,331.232 1841.59,322.232 C1833.26,313.232 1829.09,301.998 1829.09,288.529 C1829.09,274.8 1833.19,263.568 1841.39,254.834 C1849.59,246.1 1860.22,241.732 1873.29,241.732 M1847.09,278.826 C1847.09,292.961 1849.69,304.98 1854.89,314.881 C1860.09,324.782 1866.89,329.732 1875.29,329.732 C1882.76,329.732 1888.63,326.563 1892.9,320.225 C1897.16,313.886 1899.29,305.107 1899.29,293.889 C1899.29,280.284 1896.63,269.191 1891.29,260.607 C1885.96,252.024 1879.09,247.732 1870.69,247.732 C1863.62,247.732 1857.92,250.571 1853.59,256.248 C1849.26,261.925 1847.09,269.451 1847.09,278.826 M1934.5,255.139 C1931.56,255.139 1928.76,255.336 1926.09,255.732 L1926.09,252.732 C1935.42,250.066 1945.76,246.399 1957.09,241.732 L1957.89,242.326 L1957.89,313.326 C1957.89,320.534 1958.72,325.105 1960.39,327.037 C1962.06,328.969 1966.15,330.201 1972.69,330.732 L1972.69,333.732 L1925.29,333.732 L1925.29,330.732 C1932.22,330.336 1936.59,329.139 1938.39,327.139 C1940.19,325.139 1941.09,320.534 1941.09,313.326 L1941.09,266.935 C1941.09,262.529 1940.59,259.461 1939.59,257.732 C1938.59,256.003 1936.89,255.139 1934.5,255.139 M1947.69,197.139 C1950.62,197.139 1953.09,198.139 1955.09,200.139 C1957.09,202.139 1958.09,204.54 1958.09,207.342 C1958.09,210.269 1957.09,212.698 1955.09,214.631 C1953.09,216.563 1950.62,217.529 1947.69,217.529 C1944.89,217.529 1942.53,216.529 1940.59,214.529 C1938.65,212.529 1937.69,210.131 1937.69,207.334 C1937.69,204.537 1938.69,202.139 1940.69,200.139 C1942.69,198.139 1945.02,197.139 1947.69,197.139"/>
<path class="MeasureNumber" d="M128.045,1968.01 C127.566,1968.01 126.607,1968.31 125.17,1968.89 L125.17,1968.34 L132.373,1964.7 L132.685,1964.78 L132.685,1988.78 C132.685,1989.74 132.925,1990.36 133.404,1990.66 C133.883,1990.95 134.909,1991.11 136.482,1991.14 L136.482,1991.73 L125.451,1991.73 L125.451,1991.14 C126.941,1991.08 127.946,1990.85 128.467,1990.47 C128.987,1990.08 129.248,1989.26 129.248,1988.01 L129.248,1969.89 C129.248,1968.64 128.847,1968.01 128.045,1968.01 M143.967,1988.61 C144.581,1988.61 145.495,1988.97 146.709,1989.69 C147.922,1990.42 148.982,1990.78 149.888,1990.78 C151.357,1990.78 152.597,1990.21 153.607,1989.07 C154.618,1987.93 155.123,1986.53 155.123,1984.86 C155.123,1983.82 154.943,1982.9 154.584,1982.11 C154.224,1981.32 153.766,1980.7 153.209,1980.26 C152.652,1979.83 151.985,1979.47 151.209,1979.19 C150.433,1978.92 149.706,1978.74 149.029,1978.66 C148.352,1978.57 147.628,1978.53 146.857,1978.53 L146.857,1978.01 C147.763,1977.69 148.542,1977.38 149.193,1977.07 C149.844,1976.76 150.529,1976.35 151.248,1975.83 C151.967,1975.32 152.521,1974.69 152.912,1973.94 C153.303,1973.19 153.498,1972.33 153.498,1971.37 C153.498,1970.12 153.089,1969.1 152.271,1968.3 C151.454,1967.49 150.394,1967.09 149.092,1967.09 C147.842,1967.09 146.743,1967.43 145.795,1968.12 C144.847,1968.8 143.961,1969.87 143.138,1971.34 L142.529,1971.17 C143.227,1969.29 144.17,1967.74 145.357,1966.52 C146.545,1965.31 148.227,1964.7 150.404,1964.7 C152.248,1964.7 153.75,1965.21 154.912,1966.22 C156.073,1967.23 156.654,1968.55 156.654,1970.17 C156.654,1971.26 156.373,1972.23 155.81,1973.05 C155.248,1973.88 154.274,1974.76 152.888,1975.7 C154.493,1976.39 155.748,1977.27 156.654,1978.34 C157.56,1979.42 158.013,1980.95 158.013,1982.95 C158.013,1985.79 156.967,1988.05 154.873,1989.75 C152.779,1991.45 150.144,1992.3 146.967,1992.3 C145.581,1992.3 144.482,1992.09 143.67,1991.67 C142.857,1991.25 142.451,1990.7 142.451,1990.01 C142.451,1989.59 142.592,1989.25 142.873,1988.99 C143.154,1988.74 143.519,1988.61 143.967,1988.61"/>
<path class="MeasureNumber" d="M134.092,1517.61 L133.967,1516.81 C137.008,1516.28 139.589,1514.98 141.709,1512.92 C143.829,1510.86 145.3,1508.2 146.123,1504.94 C144.154,1506.48 142.159,1507.25 140.138,1507.25 C137.972,1507.25 136.23,1506.5 134.912,1505.01 C133.594,1503.51 132.935,1501.55 132.935,1499.11 C132.935,1496.4 133.727,1494.14 135.31,1492.33 C136.894,1490.53 138.873,1489.62 141.248,1489.62 C143.831,1489.62 145.951,1490.68 147.607,1492.8 C149.263,1494.91 150.092,1497.63 150.092,1500.95 C150.092,1502.01 149.998,1503.11 149.81,1504.23 C149.623,1505.36 149.188,1506.69 148.506,1508.23 C147.823,1509.76 146.938,1511.14 145.849,1512.35 C144.761,1513.56 143.204,1514.67 141.178,1515.65 C139.152,1516.64 136.79,1517.3 134.092,1517.61 M141.576,1505.5 C142.076,1505.5 142.646,1505.43 143.287,1505.28 C143.928,1505.13 144.576,1504.81 145.232,1504.32 C145.888,1503.82 146.217,1503.22 146.217,1502.5 L146.217,1500.95 C146.217,1494.19 144.456,1490.81 140.935,1490.81 C140.102,1490.81 139.394,1491.03 138.81,1491.48 C138.227,1491.92 137.782,1492.5 137.474,1493.21 C137.167,1493.92 136.946,1494.65 136.81,1495.4 C136.675,1496.14 136.607,1496.93 136.607,1497.76 C136.607,1500.13 137.055,1502.01 137.951,1503.4 C138.847,1504.8 140.055,1505.5 141.576,1505.5"/>
<path class="MeasureNumber" d="M146.513,983.952 C146.513,982.535 146.198,981.282 145.568,980.194 C144.938,979.105 144.178,978.261 143.287,977.662 C142.396,977.064 141.399,976.571 140.295,976.186 C139.191,975.8 138.23,975.548 137.412,975.428 C136.594,975.308 135.883,975.248 135.279,975.248 C134.956,975.248 134.795,975.139 134.795,974.92 C134.795,974.847 134.805,974.78 134.826,974.717 L139.185,965.264 L147.545,965.264 C147.972,965.264 148.313,965.196 148.568,965.061 C148.823,964.925 149.097,964.644 149.388,964.217 L149.748,964.498 L148.232,968.061 C148.128,968.3 147.821,968.42 147.31,968.42 L139.467,968.42 L137.795,971.811 C141.68,972.498 144.571,973.621 146.467,975.178 C148.362,976.735 149.31,979.019 149.31,982.03 C149.31,983.603 149.063,985.004 148.568,986.233 C148.073,987.462 147.446,988.452 146.685,989.202 C145.925,989.952 145.045,990.566 144.045,991.045 C143.045,991.524 142.086,991.853 141.17,992.03 C140.253,992.207 139.326,992.295 138.388,992.295 C136.899,992.295 135.714,992.074 134.834,991.631 C133.954,991.189 133.513,990.582 133.513,989.811 C133.513,988.821 134.086,988.327 135.232,988.327 C135.982,988.327 136.948,988.735 138.131,989.553 C139.313,990.371 140.253,990.78 140.951,990.78 C142.524,990.78 143.844,990.121 144.912,988.803 C145.98,987.485 146.513,985.868 146.513,983.952"/>
<path class="SlurSegment" stroke="#000000" stroke-width="1.75" stroke-linecap="round" stroke-linejoin="round" fill-rule="evenodd" d="M2131.42,2151.73 C2166.24,2179.34 2229.84,2173.09 2258.61,2139.23 C2230.23,2177.07 2166.63,2183.32 2131.42,2151.73"/>
<path class="SlurSegment" stroke="#000000" stroke-width="1.75" stroke-linecap="round" stroke-linejoin="round" fill-rule="evenodd" d="M1877.03,2151.73 C1905.81,2185.59 1969.41,2191.84 2004.23,2164.23 C1969.02,2195.82 1905.42,2189.57 1877.03,2151.73"/>
<path class="SlurSegment" stroke="#000000" stroke-width="1.75" stroke-linecap="round" stroke-linejoin="round" fill-rule="evenodd" d="M816.57,2081.73 C861.729,2022.8 1021.38,1997.3 1082.65,2039.23 C1022.01,2001.25 862.36,2026.75 816.57,2081.73"/>
<path class="SlurSegment" stroke="#000000" stroke-width="1.75" stroke-linecap="round" stroke-linejoin="round" fill-rule="evenodd" d="M2419.7,1569.23 C2448.86,1542.45 2499.84,1548.7 2521.66,1581.73 C2499.35,1552.67 2448.37,1546.42 2419.7,1569.23"/>
<path class="SlurSegment" stroke="#000000" stroke-width="1.75" stroke-linecap="round" stroke-linejoin="round" fill-rule="evenodd" d="M2215.79,1569.23 C2237.61,1536.2 2288.59,1529.95 2317.75,1556.73 C2289.08,1533.92 2238.1,1540.17 2215.79,1569.23"/>
<path class="SlurSegment" stroke="#000000" stroke-width="1.75" stroke-linecap="round" stroke-linejoin="round" fill-rule="evenodd" d="M1128.55,1569.23 C1157.71,1542.45 1208.69,1548.7 1230.51,1581.73 C1208.2,1552.67 1157.22,1546.42 1128.55,1569.23"/>
<path class="SlurSegment" stroke="#000000" stroke-width="1.75" stroke-linecap="round" stroke-linejoin="round" fill-rule="evenodd" d="M924.64,1569.23 C946.463,1536.2 997.441,1529.95 1026.6,1556.73 C997.928,1533.92 946.949,1540.17 924.64,1569.23"/>
<path class="SlurSegment" fill="none" stroke="#000000" stroke-dasharray="10,5" stroke-dashoffset="0" stroke-width="2.50" stroke-linecap="square" stroke-linejoin="bevel" fill-rule="evenodd" d="M2556.34,689.233 C2592.79,722.971 2665.68,722.971 2702.13,689.233"/>
<path class="SlurSegment" stroke="#000000" stroke-width="1.75" stroke-linecap="round" stroke-linejoin="round" fill-rule="evenodd" d="M2374.1,676.733 C2400.11,697.122 2445.67,690.872 2465.22,664.233 C2446.21,694.835 2400.65,701.085 2374.1,676.733"/>
<path class="SlurSegment" stroke="#000000" stroke-width="1.75" stroke-linecap="round" stroke-linejoin="round" fill-rule="evenodd" d="M2191.86,676.733 C2211.41,703.372 2256.97,709.622 2282.98,689.233 C2256.43,713.585 2210.87,707.335 2191.86,676.733"/>
<path class="BarLine" d="M2793.22,2083.23 C2792.11,2082.13 2791.55,2080.8 2791.55,2079.23 C2791.55,2077.67 2792.11,2076.34 2793.22,2075.23 C2794.33,2074.12 2795.66,2073.56 2797.23,2073.56 C2798.79,2073.56 2800.12,2074.12 2801.23,2075.23 C2802.33,2076.34 2802.88,2077.67 2802.88,2079.23 C2802.88,2080.8 2802.33,2082.13 2801.23,2083.23 C2800.12,2084.34 2798.79,2084.89 2797.23,2084.89 C2795.66,2084.89 2794.33,2084.34 2793.22,2083.23"/>
<path class="BarLine" d="M2793.22,2108.23 C2792.11,2107.13 2791.55,2105.8 2791.55,2104.23 C2791.55,2102.67 2792.11,2101.34 2793.22,2100.23 C2794.33,2099.12 2795.66,2098.56 2797.23,2098.56 C2798.79,2098.56 2800.12,2099.12 2801.23,2100.23 C2802.33,2101.34 2802.88,2102.67 2802.88,2104.23 C2802.88,2105.8 2802.33,2107.13 2801.23,2108.23 C2800.12,2109.34 2798.79,2109.89 2797.23,2109.89 C2795.66,2109.89 2794.33,2109.34 2793.22,2108.23"/>
<polyline class="BarLine" stroke="#000000" stroke-width="4.00" stroke-linejoin="bevel" points="2812.97,2040.73 2812.97,2142.73"/>
<polyline class="BarLine" stroke="#000000" stroke-width="12.50" stroke-linejoin="bevel" points="2829.22,2040.73 2829.22,2142.73"/>
<polyline class="BarLine" stroke="#000000" stroke-width="4.00" stroke-linejoin="bevel" points="2371.35,2040.73 2371.35,2142.73"/>
<polyline class="BarLine" stroke="#000000" stroke-width="4.00" stroke-linejoin="bevel" points="1812.54,2040.73 1812.54,2142.73"/>
<polyline class="BarLine" stroke="#000000" stroke-width="4.00" stroke-linejoin="bevel" points="1352.01,2040.73 1352.01,2142.73"/>
<polyline class="BarLine" stroke="#000000" stroke-width="4.00" stroke-linejoin="bevel" points="768.113,2040.73 768.113,2142.73"/>
<polyline class="BarLine" stroke="#000000" stroke-width="12.50" stroke-linejoin="bevel" points="239.42,2040.73 239.42,2142.73"/>
<polyline class="BarLine" stroke="#000000" stroke-width="4.00" stroke-linejoin="bevel" points="255.67,2040.73 255.67,2142.73"/>
<path class="BarLine" d="M267.412,2083.23 C266.303,2082.13 265.748,2080.8 265.748,2079.23 C265.748,2077.67 266.303,2076.34 267.412,2075.23 C268.521,2074.12 269.857,2073.56 271.42,2073.56 C272.982,2073.56 274.316,2074.12 275.42,2075.23 C276.524,2076.34 277.076,2077.67 277.076,2079.23 C277.076,2080.8 276.524,2082.13 275.42,2083.23 C274.316,2084.34 272.982,2084.89 271.42,2084.89 C269.857,2084.89 268.521,2084.34 267.412,2083.23"/>
<path class="BarLine" d="M267.412,2108.23 C266.303,2107.13 265.748,2105.8 265.748,2104.23 C265.748,2102.67 266.303,2101.34 267.412,2100.23 C268.521,2099.12 269.857,2098.56 271.42,2098.56 C272.982,2098.56 274.316,2099.12 275.42,2100.23 C276.524,2101.34 277.076,2102.67 277.076,2104.23 C277.076,2105.8 276.524,2107.13 275.42,2108.23 C274.316,2109.34 272.982,2109.89 271.42,2109.89 C269.857,2109.89 268.521,2109.34 267.412,2108.23"/>
<polyline class="BarLine" stroke="#000000" stroke-width="4.00" stroke-linejoin="bevel" points="2833.47,1565.73 2833.47,1667.73"/>
<polyline class="BarLine" stroke="#000000" stroke-width="4.00" stroke-linejoin="bevel" points="2167.33,1565.73 2167.33,1667.73"/>
<polyline class="BarLine" stroke="#000000" stroke-width="4.00" stroke-linejoin="bevel" points="1542.32,1565.73 1542.32,1667.73"/>
<polyline class="BarLine" stroke="#000000" stroke-width="4.00" stroke-linejoin="bevel" points="876.183,1565.73 876.183,1667.73"/>
<polyline class="BarLine" stroke="#000000" stroke-width="4.00" stroke-linejoin="bevel" points="2821.97,1040.73 2821.97,1142.73"/>
<polyline class="BarLine" stroke="#000000" stroke-width="4.00" stroke-linejoin="bevel" points="2833.47,1040.73 2833.47,1142.73"/>
<polyline class="BarLine" stroke="#000000" stroke-width="4.00" stroke-linejoin="bevel" points="2198.08,1040.73 2198.08,1142.73"/>
<polyline class="BarLine" stroke="#000000" stroke-width="4.00" stroke-linejoin="bevel" points="1549.11,1040.73 1549.11,1142.73"/>
<polyline class="BarLine" stroke="#000000" stroke-width="4.00" stroke-linejoin="bevel" points="900.14,1040.73 900.14,1142.73"/>
<polyline class="BarLine" stroke="#000000" stroke-width="4.00" stroke-linejoin="bevel" points="2833.47,565.733 2833.47,667.733"/>
<polyline class="BarLine" stroke="#000000" stroke-width="4.00" stroke-linejoin="bevel" points="2127.36,565.733 2127.36,667.733"/>
<polyline class="BarLine" stroke="#000000" stroke-width="4.00" stroke-linejoin="bevel" points="1519.54,565.733 1519.54,667.733"/>
<polyline class="BarLine" stroke="#000000" stroke-width="4.00" stroke-linejoin="bevel" points="911.724,565.733 911.724,667.733"/>
<path class="Accidental" d="M1849.12,2160.39 C1849.12,2161.63 1848.5,2162.25 1847.26,2162.25 C1846.03,2162.25 1845.41,2161.63 1845.41,2160.39 L1845.41,2145.94 L1837.12,2149.06 L1837.12,2164.87 C1837.12,2166.11 1836.5,2166.73 1835.26,2166.73 C1834.02,2166.73 1833.4,2166.11 1833.4,2164.87 L1833.4,2150.33 L1830.27,2151.5 C1830.21,2151.56 1829.95,2151.59 1829.49,2151.59 C1828.97,2151.59 1828.51,2151.4 1828.12,2151.01 C1827.73,2150.62 1827.54,2150.16 1827.54,2149.64 L1827.54,2143.59 C1827.54,2142.61 1827.96,2141.99 1828.8,2141.73 L1833.4,2140.17 L1833.4,2124.16 L1830.27,2125.23 C1830.21,2125.3 1829.95,2125.33 1829.49,2125.33 C1828.97,2125.33 1828.51,2125.13 1828.12,2124.74 C1827.73,2124.35 1827.54,2123.89 1827.54,2123.37 L1827.54,2117.31 C1827.54,2116.41 1827.96,2115.82 1828.8,2115.56 L1833.4,2113.8 L1833.4,2098.08 C1833.4,2096.84 1834.02,2096.22 1835.26,2096.22 C1836.5,2096.22 1837.12,2096.84 1837.12,2098.08 L1837.12,2112.53 L1845.41,2109.41 L1845.41,2093.59 C1845.41,2092.35 1846.03,2091.73 1847.26,2091.73 C1848.5,2091.73 1849.12,2092.35 1849.12,2093.59 L1849.12,2108.14 L1852.35,2106.97 C1852.41,2106.91 1852.64,2106.87 1853.02,2106.87 C1853.48,2106.87 1853.97,2107.07 1854.49,2107.45 C1854.89,2107.85 1855.08,2108.31 1855.08,2108.83 L1855.08,2114.87 C1855.08,2115.79 1854.63,2116.41 1853.71,2116.73 L1849.12,2118.3 L1849.12,2134.31 L1852.35,2133.23 C1852.41,2133.17 1852.64,2133.14 1853.02,2133.14 C1853.48,2133.14 1853.97,2133.34 1854.49,2133.73 C1854.89,2134.12 1855.08,2134.57 1855.08,2135.09 L1855.08,2141.16 C1855.08,2142 1854.63,2142.58 1853.71,2142.91 L1849.12,2144.67 L1849.12,2160.39 M1845.41,2119.76 L1837.12,2122.69 L1837.12,2138.7 L1845.41,2135.78 L1845.41,2119.76 "/>
<path class="Accidental" d="M2234.66,1160.39 C2234.66,1161.63 2234.04,1162.25 2232.81,1162.25 C2231.57,1162.25 2230.96,1161.63 2230.96,1160.39 L2230.96,1145.94 L2222.66,1149.06 L2222.66,1164.87 C2222.66,1166.11 2222.04,1166.73 2220.8,1166.73 C2219.56,1166.73 2218.94,1166.11 2218.94,1164.87 L2218.94,1150.33 L2215.82,1151.5 C2215.75,1151.56 2215.49,1151.59 2215.03,1151.59 C2214.51,1151.59 2214.06,1151.4 2213.67,1151.01 C2213.28,1150.62 2213.08,1150.16 2213.08,1149.64 L2213.08,1143.59 C2213.08,1142.61 2213.5,1141.99 2214.35,1141.73 L2218.94,1140.17 L2218.94,1124.15 L2215.82,1125.23 C2215.75,1125.3 2215.49,1125.33 2215.03,1125.33 C2214.51,1125.33 2214.06,1125.13 2213.67,1124.74 C2213.28,1124.35 2213.08,1123.89 2213.08,1123.37 L2213.08,1117.31 C2213.08,1116.4 2213.5,1115.82 2214.35,1115.56 L2218.94,1113.8 L2218.94,1098.08 C2218.94,1096.84 2219.56,1096.22 2220.8,1096.22 C2222.04,1096.22 2222.66,1096.84 2222.66,1098.08 L2222.66,1112.53 L2230.96,1109.4 L2230.96,1093.59 C2230.96,1092.35 2231.57,1091.73 2232.81,1091.73 C2234.04,1091.73 2234.66,1092.35 2234.66,1093.59 L2234.66,1108.14 L2237.89,1106.97 C2237.96,1106.9 2238.18,1106.87 2238.57,1106.87 C2239.02,1106.87 2239.51,1107.07 2240.03,1107.45 C2240.43,1107.85 2240.63,1108.31 2240.63,1108.83 L2240.63,1114.87 C2240.63,1115.79 2240.17,1116.41 2239.25,1116.73 L2234.66,1118.3 L2234.66,1134.31 L2237.89,1133.23 C2237.96,1133.17 2238.18,1133.14 2238.57,1133.14 C2239.02,1133.14 2239.51,1133.34 2240.03,1133.73 C2240.43,1134.12 2240.63,1134.57 2240.63,1135.09 L2240.63,1141.15 C2240.63,1142 2240.17,1142.58 2239.25,1142.9 L2234.66,1144.67 L2234.66,1160.39 M2230.96,1119.76 L2222.66,1122.69 L2222.66,1138.7 L2230.96,1135.78 L2230.96,1119.76 "/>
<path class="Accidental" d="M2163.94,685.389 C2163.94,686.628 2163.33,687.248 2162.09,687.248 C2160.86,687.248 2160.24,686.628 2160.24,685.389 L2160.24,670.936 L2151.94,674.061 L2151.94,689.873 C2151.94,691.113 2151.32,691.733 2150.08,691.733 C2148.84,691.733 2148.22,691.113 2148.22,689.873 L2148.22,675.326 L2145.1,676.498 C2145.04,676.561 2144.78,676.592 2144.32,676.592 C2143.8,676.592 2143.34,676.397 2142.95,676.006 C2142.56,675.615 2142.36,675.16 2142.36,674.639 L2142.36,668.592 C2142.36,667.613 2142.79,666.993 2143.63,666.733 L2148.22,665.17 L2148.22,649.154 L2145.1,650.233 C2145.04,650.295 2144.78,650.326 2144.32,650.326 C2143.8,650.326 2143.34,650.131 2142.95,649.74 C2142.56,649.35 2142.36,648.894 2142.36,648.373 L2142.36,642.311 C2142.36,641.404 2142.79,640.821 2143.63,640.561 L2148.22,638.795 L2148.22,623.076 C2148.22,621.837 2148.84,621.217 2150.08,621.217 C2151.32,621.217 2151.94,621.837 2151.94,623.076 L2151.94,637.529 L2160.24,634.404 L2160.24,618.592 C2160.24,617.352 2160.86,616.733 2162.09,616.733 C2163.33,616.733 2163.94,617.352 2163.94,618.592 L2163.94,633.139 L2167.18,631.967 C2167.24,631.904 2167.46,631.873 2167.85,631.873 C2168.31,631.873 2168.8,632.066 2169.32,632.451 C2169.71,632.847 2169.91,633.305 2169.91,633.826 L2169.91,639.873 C2169.91,640.79 2169.45,641.41 2168.54,641.733 L2163.94,643.295 L2163.94,659.311 L2167.18,658.233 C2167.24,658.17 2167.46,658.139 2167.85,658.139 C2168.31,658.139 2168.8,658.337 2169.32,658.733 C2169.71,659.118 2169.91,659.571 2169.91,660.092 L2169.91,666.154 C2169.91,666.998 2169.45,667.582 2168.54,667.904 L2163.94,669.67 L2163.94,685.389 M2160.24,644.764 L2151.94,647.686 L2151.94,663.701 L2160.24,660.779 L2160.24,644.764 "/>
<polyline class="Stem" stroke="#000000" stroke-width="3.25" stroke-linecap="round" stroke-linejoin="bevel" points="2436.44,2137.89 2436.44,2054.23"/>
<polyline class="Stem" stroke="#000000" stroke-width="3.25" stroke-linecap="round" stroke-linejoin="bevel" points="2273.45,2112.04 2273.45,2041.73"/>
<polyline class="Stem" stroke="#000000" stroke-width="3.25" stroke-linecap="round" stroke-linejoin="bevel" points="2146.25,2124.54 2146.25,2047.98"/>
<polyline class="Stem" stroke="#000000" stroke-width="3.25" stroke-linecap="round" stroke-linejoin="bevel" points="2019.06,2137.04 2019.06,2066.73"/>
<polyline class="Stem" stroke="#000000" stroke-width="3.25" stroke-linecap="round" stroke-linejoin="bevel" points="1891.87,2124.54 1891.87,2060.48"/>
<polyline class="Stem" stroke="#000000" stroke-width="3.25" stroke-linecap="round" stroke-linejoin="bevel" points="1628.56,2112.04 1628.56,2032.36"/>
<polyline class="Stem" stroke="#000000" stroke-width="3.25" stroke-linecap="round" stroke-linejoin="bevel" points="1415.3,2099.54 1415.3,2022.98"/>
<polyline class="Stem" stroke="#000000" stroke-width="3.25" stroke-linecap="round" stroke-linejoin="bevel" points="1156.51,2096.43 1156.51,2169.86"/>
<polyline class="Stem" stroke="#000000" stroke-width="3.25" stroke-linecap="round" stroke-linejoin="bevel" points="1067.82,2071.43 1067.82,2160.48"/>
<polyline class="Stem" stroke="#000000" stroke-width="3.25" stroke-linecap="round" stroke-linejoin="bevel" points="979.123,2083.93 979.123,2168.82"/>
<polyline class="Stem" stroke="#000000" stroke-width="3.25" stroke-linecap="round" stroke-linejoin="bevel" points="890.431,2096.43 890.431,2177.15"/>
<polyline class="Stem" stroke="#000000" stroke-width="3.25" stroke-linecap="round" stroke-linejoin="bevel" points="801.738,2108.93 801.738,2185.48"/>
<polyline class="Stem" stroke="#000000" stroke-width="3.25" stroke-linecap="round" stroke-linejoin="bevel" points="584.137,2112.04 584.137,2032.36"/>
<polyline class="Stem" stroke="#000000" stroke-width="3.25" stroke-linecap="round" stroke-linejoin="bevel" points="370.873,2099.54 370.873,2022.98"/>
<polyline class="Stem" stroke="#000000" stroke-width="3.25" stroke-linecap="round" stroke-linejoin="bevel" points="2608.79,1621.43 2608.79,1694.86"/>
<polyline class="Stem" stroke="#000000" stroke-width="3.25" stroke-linecap="round" stroke-linejoin="bevel" points="2506.83,1608.93 2506.83,1691.73"/>
<polyline class="Stem" stroke="#000000" stroke-width="3.25" stroke-linecap="round" stroke-linejoin="bevel" points="2404.87,1596.43 2404.87,1689.65"/>
<polyline class="Stem" stroke="#000000" stroke-width="3.25" stroke-linecap="round" stroke-linejoin="bevel" points="2302.91,1583.93 2302.91,1687.57"/>
<polyline class="Stem" stroke="#000000" stroke-width="3.25" stroke-linecap="round" stroke-linejoin="bevel" points="2200.96,1596.43 2200.96,1685.48"/>
<polyline class="Stem" stroke="#000000" stroke-width="3.25" stroke-linecap="round" stroke-linejoin="bevel" points="2019.2,1583.93 2019.2,1660.48"/>
<polyline class="Stem" stroke="#000000" stroke-width="3.25" stroke-linecap="round" stroke-linejoin="bevel" points="1871.45,1583.93 1871.45,1660.48"/>
<polyline class="Stem" stroke="#000000" stroke-width="3.25" stroke-linecap="round" stroke-linejoin="bevel" points="1753.36,1574.54 1753.36,1510.48"/>
<polyline class="Stem" stroke="#000000" stroke-width="3.25" stroke-linecap="round" stroke-linejoin="bevel" points="1605.61,1662.04 1605.61,1535.48"/>
<polyline class="Stem" stroke="#000000" stroke-width="3.25" stroke-linecap="round" stroke-linejoin="bevel" points="1317.64,1621.43 1317.64,1694.86"/>
<polyline class="Stem" stroke="#000000" stroke-width="3.25" stroke-linecap="round" stroke-linejoin="bevel" points="1215.68,1608.93 1215.68,1691.73"/>
<polyline class="Stem" stroke="#000000" stroke-width="3.25" stroke-linecap="round" stroke-linejoin="bevel" points="1113.72,1596.43 1113.72,1689.65"/>
<polyline class="Stem" stroke="#000000" stroke-width="3.25" stroke-linecap="round" stroke-linejoin="bevel" points="1011.77,1583.93 1011.77,1687.57"/>
<polyline class="Stem" stroke="#000000" stroke-width="3.25" stroke-linecap="round" stroke-linejoin="bevel" points="909.808,1596.43 909.808,1685.48"/>
<polyline class="Stem" stroke="#000000" stroke-width="3.25" stroke-linecap="round" stroke-linejoin="bevel" points="728.055,1583.93 728.055,1660.48"/>
<polyline class="Stem" stroke="#000000" stroke-width="3.25" stroke-linecap="round" stroke-linejoin="bevel" points="580.301,1583.93 580.301,1660.48"/>
<polyline class="Stem" stroke="#000000" stroke-width="3.25" stroke-linecap="round" stroke-linejoin="bevel" points="462.212,1574.54 462.212,1510.48"/>
<polyline class="Stem" stroke="#000000" stroke-width="3.25" stroke-linecap="round" stroke-linejoin="bevel" points="314.459,1662.04 314.459,1535.48"/>
<polyline class="Stem" stroke="#000000" stroke-width="3.25" stroke-linecap="round" stroke-linejoin="bevel" points="2596.21,1137.04 2596.21,1054.23"/>
<polyline class="Stem" stroke="#000000" stroke-width="3.25" stroke-linecap="round" stroke-linejoin="bevel" points="2436.81,1124.54 2436.81,1047.98"/>
<polyline class="Stem" stroke="#000000" stroke-width="3.25" stroke-linecap="round" stroke-linejoin="bevel" points="2277.41,1124.54 2277.41,1047.98"/>
<polyline class="Stem" stroke="#000000" stroke-width="3.25" stroke-linecap="round" stroke-linejoin="bevel" points="2073.63,1112.04 2073.63,1041.73"/>
<polyline class="Stem" stroke="#000000" stroke-width="3.25" stroke-linecap="round" stroke-linejoin="bevel" points="1919.88,1112.04 1919.88,1041.73"/>
<polyline class="Stem" stroke="#000000" stroke-width="3.25" stroke-linecap="round" stroke-linejoin="bevel" points="1766.14,1099.54 1766.14,1035.48"/>
<polyline class="Stem" stroke="#000000" stroke-width="3.25" stroke-linecap="round" stroke-linejoin="bevel" points="1612.4,1099.54 1612.4,1035.48"/>
<polyline class="Stem" stroke="#000000" stroke-width="3.25" stroke-linecap="round" stroke-linejoin="bevel" points="1394.99,1096.43 1394.99,1166.73"/>
<polyline class="Stem" stroke="#000000" stroke-width="3.25" stroke-linecap="round" stroke-linejoin="bevel" points="1241.25,1096.43 1241.25,1166.73"/>
<polyline class="Stem" stroke="#000000" stroke-width="3.25" stroke-linecap="round" stroke-linejoin="bevel" points="1087.51,1058.93 1087.51,1135.48"/>
<polyline class="Stem" stroke="#000000" stroke-width="3.25" stroke-linecap="round" stroke-linejoin="bevel" points="933.765,1083.93 933.765,1147.98"/>
<polyline class="Stem" stroke="#000000" stroke-width="3.25" stroke-linecap="round" stroke-linejoin="bevel" points="775.687,1087.04 775.687,1016.73"/>
<polyline class="Stem" stroke="#000000" stroke-width="3.25" stroke-linecap="round" stroke-linejoin="bevel" points="621.944,1087.04 621.944,1016.73"/>
<polyline class="Stem" stroke="#000000" stroke-width="3.25" stroke-linecap="round" stroke-linejoin="bevel" points="468.201,1112.04 468.201,1041.73"/>
<polyline class="Stem" stroke="#000000" stroke-width="3.25" stroke-linecap="round" stroke-linejoin="bevel" points="314.459,1137.04 314.459,1066.73"/>
<polyline class="Stem" stroke="#000000" stroke-width="3.25" stroke-linecap="round" stroke-linejoin="bevel" points="2716.96,662.037 2716.96,591.733"/>
<polyline class="Stem" stroke="#000000" stroke-width="3.25" stroke-linecap="round" stroke-linejoin="bevel" points="2571.17,662.037 2571.17,591.733"/>
<polyline class="Stem" stroke="#000000" stroke-width="3.25" stroke-linecap="round" stroke-linejoin="bevel" points="2480.05,637.037 2480.05,566.733"/>
<polyline class="Stem" stroke="#000000" stroke-width="3.25" stroke-linecap="round" stroke-linejoin="bevel" points="2388.93,649.537 2388.93,568.816"/>
<polyline class="Stem" stroke="#000000" stroke-width="3.25" stroke-linecap="round" stroke-linejoin="bevel" points="2297.81,662.037 2297.81,570.899"/>
<polyline class="Stem" stroke="#000000" stroke-width="3.25" stroke-linecap="round" stroke-linejoin="bevel" points="2206.69,649.537 2206.69,572.983"/>
<polyline class="Stem" stroke="#000000" stroke-width="3.25" stroke-linecap="round" stroke-linejoin="bevel" points="2013.2,637.037 2013.2,566.733"/>
<polyline class="Stem" stroke="#000000" stroke-width="3.25" stroke-linecap="round" stroke-linejoin="bevel" points="1869.74,637.037 1869.74,566.733"/>
<polyline class="Stem" stroke="#000000" stroke-width="3.25" stroke-linecap="round" stroke-linejoin="bevel" points="1726.29,624.537 1726.29,560.483"/>
<polyline class="Stem" stroke="#000000" stroke-width="3.25" stroke-linecap="round" stroke-linejoin="bevel" points="1582.83,624.537 1582.83,560.483"/>
<polyline class="Stem" stroke="#000000" stroke-width="3.25" stroke-linecap="round" stroke-linejoin="bevel" points="1375.71,621.428 1375.71,691.733"/>
<polyline class="Stem" stroke="#000000" stroke-width="3.25" stroke-linecap="round" stroke-linejoin="bevel" points="1232.26,621.428 1232.26,691.733"/>
<polyline class="Stem" stroke="#000000" stroke-width="3.25" stroke-linecap="round" stroke-linejoin="bevel" points="1088.8,583.928 1088.8,660.483"/>
<polyline class="Stem" stroke="#000000" stroke-width="3.25" stroke-linecap="round" stroke-linejoin="bevel" points="945.349,608.928 945.349,672.983"/>
<polyline class="Stem" stroke="#000000" stroke-width="3.25" stroke-linecap="round" stroke-linejoin="bevel" points="797.558,612.037 797.558,541.733"/>
<polyline class="Stem" stroke="#000000" stroke-width="3.25" stroke-linecap="round" stroke-linejoin="bevel" points="654.103,612.037 654.103,541.733"/>
<polyline class="Stem" stroke="#000000" stroke-width="3.25" stroke-linecap="round" stroke-linejoin="bevel" points="510.648,637.037 510.648,566.733"/>
<polyline class="Stem" stroke="#000000" stroke-width="3.25" stroke-linecap="round" stroke-linejoin="bevel" points="367.193,662.037 367.193,591.733"/>
<path class="Note" d="M2434.9,2135.19 C2434.9,2134.08 2434.47,2133.14 2433.63,2132.36 C2432.78,2131.51 2431.8,2131.09 2430.69,2131.09 C2428.75,2131.09 2424.81,2133.05 2418.88,2136.95 C2412.76,2140.92 2409.01,2143.75 2407.65,2145.45 C2406.93,2146.36 2406.57,2147.3 2406.57,2148.28 C2406.57,2149.38 2407,2150.33 2407.85,2151.11 C2408.63,2151.95 2409.61,2152.37 2410.77,2152.37 C2412.66,2152.37 2416.63,2150.42 2422.69,2146.51 C2428.68,2142.61 2432.39,2139.78 2433.82,2138.01 C2434.54,2137.17 2434.9,2136.23 2434.9,2135.19 M2429.72,2127.97 C2435.32,2127.97 2438.12,2130.37 2438.12,2135.19 C2438.12,2137.53 2437.43,2140.26 2436.07,2143.39 C2434.7,2146.45 2432.88,2148.8 2430.6,2150.42 C2425.59,2153.81 2419.31,2155.5 2411.76,2155.5 C2406.15,2155.5 2403.35,2153.09 2403.35,2148.28 C2403.35,2146.13 2404.03,2143.43 2405.4,2140.17 C2406.7,2137.05 2408.52,2134.67 2410.87,2133.05 C2415.89,2129.66 2422.17,2127.97 2429.72,2127.97"/>
<path class="Note" d="M2264.13,2102.97 C2267.25,2102.97 2269.89,2103.78 2272.05,2105.41 C2274.06,2107.17 2275.06,2109.38 2275.06,2112.05 C2275.06,2116.54 2272.76,2120.73 2268.14,2124.64 C2263.45,2128.55 2258.44,2130.5 2253.09,2130.5 C2249.97,2130.5 2247.33,2129.69 2245.19,2128.06 C2243.17,2126.3 2242.16,2124.09 2242.16,2121.42 C2242.16,2116.93 2244.5,2112.73 2249.19,2108.83 C2253.75,2104.92 2258.73,2102.97 2264.13,2102.97"/>
<path class="Note" d="M2136.93,2115.47 C2140.06,2115.47 2142.7,2116.28 2144.85,2117.91 C2146.86,2119.67 2147.87,2121.88 2147.87,2124.55 C2147.87,2129.04 2145.56,2133.23 2140.95,2137.14 C2136.26,2141.05 2131.24,2143 2125.9,2143 C2122.78,2143 2120.14,2142.19 2117.99,2140.56 C2115.97,2138.8 2114.96,2136.59 2114.96,2133.92 C2114.96,2129.43 2117.31,2125.23 2121.99,2121.33 C2126.56,2117.42 2131.54,2115.47 2136.93,2115.47"/>
<path class="Note" d="M2009.74,2127.97 C2012.86,2127.97 2015.5,2128.78 2017.66,2130.41 C2019.67,2132.17 2020.68,2134.38 2020.68,2137.05 C2020.68,2141.54 2018.37,2145.73 2013.75,2149.64 C2009.07,2153.55 2004.05,2155.5 1998.71,2155.5 C1995.58,2155.5 1992.95,2154.69 1990.8,2153.06 C1988.78,2151.3 1987.77,2149.09 1987.77,2146.42 C1987.77,2141.93 1990.11,2137.73 1994.8,2133.83 C1999.36,2129.92 2004.34,2127.97 2009.74,2127.97"/>
<path class="Note" d="M1882.55,2115.47 C1885.67,2115.47 1888.31,2116.28 1890.47,2117.91 C1892.48,2119.67 1893.48,2121.88 1893.48,2124.55 C1893.48,2129.04 1891.18,2133.23 1886.56,2137.14 C1881.87,2141.05 1876.86,2143 1871.51,2143 C1868.39,2143 1865.75,2142.19 1863.61,2140.56 C1861.59,2138.8 1860.58,2136.59 1860.58,2133.92 C1860.58,2129.43 1862.92,2125.23 1867.61,2121.33 C1872.17,2117.42 1877.15,2115.47 1882.55,2115.47"/>
<path class="Note" d="M1619.24,2102.97 C1622.37,2102.97 1625.01,2103.78 1627.16,2105.41 C1629.17,2107.17 1630.18,2109.38 1630.18,2112.05 C1630.18,2116.54 1627.87,2120.73 1623.26,2124.64 C1618.57,2128.55 1613.55,2130.5 1608.21,2130.5 C1605.09,2130.5 1602.45,2129.69 1600.3,2128.06 C1598.28,2126.3 1597.27,2124.09 1597.27,2121.42 C1597.27,2116.93 1599.62,2112.73 1604.3,2108.83 C1608.87,2104.92 1613.85,2102.97 1619.24,2102.97"/>
<path class="Note" d="M1405.98,2090.47 C1409.1,2090.47 1411.74,2091.28 1413.9,2092.91 C1415.91,2094.67 1416.91,2096.88 1416.91,2099.55 C1416.91,2104.04 1414.61,2108.23 1409.99,2112.14 C1405.31,2116.05 1400.29,2118 1394.95,2118 C1391.82,2118 1389.19,2117.19 1387.04,2115.56 C1385.02,2113.8 1384.01,2111.59 1384.01,2108.92 C1384.01,2104.43 1386.35,2100.23 1391.04,2096.33 C1395.6,2092.42 1400.58,2090.47 1405.98,2090.47"/>
<path class="Note" d="M1176.85,2077.97 C1179.98,2077.97 1182.62,2078.78 1184.77,2080.41 C1186.79,2082.17 1187.79,2084.38 1187.79,2087.05 C1187.79,2091.54 1185.48,2095.73 1180.87,2099.64 C1176.18,2103.55 1171.17,2105.5 1165.82,2105.5 C1162.7,2105.5 1160.06,2104.69 1157.92,2103.06 C1155.89,2101.3 1154.88,2099.09 1154.88,2096.42 C1154.88,2091.93 1157.23,2087.73 1161.92,2083.83 C1166.48,2079.92 1171.46,2077.97 1176.85,2077.97"/>
<path class="Note" d="M1088.16,2052.97 C1091.29,2052.97 1093.93,2053.78 1096.08,2055.41 C1098.09,2057.17 1099.1,2059.38 1099.1,2062.05 C1099.1,2066.54 1096.79,2070.73 1092.18,2074.64 C1087.49,2078.55 1082.47,2080.5 1077.13,2080.5 C1074,2080.5 1071.37,2079.69 1069.22,2078.06 C1067.2,2076.3 1066.19,2074.09 1066.19,2071.42 C1066.19,2066.93 1068.54,2062.73 1073.22,2058.83 C1077.79,2054.92 1082.76,2052.97 1088.16,2052.97"/>
<path class="Note" d="M999.467,2065.47 C1002.59,2065.47 1005.23,2066.28 1007.39,2067.91 C1009.4,2069.67 1010.4,2071.88 1010.4,2074.55 C1010.4,2079.04 1008.1,2083.23 1003.48,2087.14 C998.795,2091.05 993.78,2093 988.436,2093 C985.311,2093 982.676,2092.19 980.53,2090.56 C978.509,2088.8 977.498,2086.59 977.498,2083.92 C977.498,2079.43 979.842,2075.23 984.53,2071.33 C989.092,2067.42 994.071,2065.47 999.467,2065.47"/>
<path class="Note" d="M910.774,2077.97 C913.899,2077.97 916.54,2078.78 918.696,2080.41 C920.707,2082.17 921.712,2084.38 921.712,2087.05 C921.712,2091.54 919.405,2095.73 914.79,2099.64 C910.103,2103.55 905.087,2105.5 899.743,2105.5 C896.618,2105.5 893.983,2104.69 891.837,2103.06 C889.816,2101.3 888.806,2099.09 888.806,2096.42 C888.806,2091.93 891.149,2087.73 895.837,2083.83 C900.399,2079.92 905.379,2077.97 910.774,2077.97"/>
<path class="Note" d="M822.082,2090.47 C825.207,2090.47 827.847,2091.28 830.003,2092.91 C832.014,2094.67 833.019,2096.88 833.019,2099.55 C833.019,2104.04 830.712,2108.23 826.097,2112.14 C821.41,2116.05 816.394,2118 811.05,2118 C807.925,2118 805.29,2117.19 803.144,2115.56 C801.123,2113.8 800.113,2111.59 800.113,2108.92 C800.113,2104.43 802.457,2100.23 807.144,2096.33 C811.707,2092.42 816.686,2090.47 822.082,2090.47"/>
<path class="Note" d="M574.817,2102.97 C577.942,2102.97 580.583,2103.78 582.739,2105.41 C584.749,2107.17 585.755,2109.38 585.755,2112.05 C585.755,2116.54 583.447,2120.73 578.833,2124.64 C574.145,2128.55 569.13,2130.5 563.786,2130.5 C560.661,2130.5 558.025,2129.69 555.88,2128.06 C553.859,2126.3 552.848,2124.09 552.848,2121.42 C552.848,2116.93 555.192,2112.73 559.88,2108.83 C564.442,2104.92 569.421,2102.97 574.817,2102.97"/>
<path class="Note" d="M361.553,2090.47 C364.678,2090.47 367.318,2091.28 369.475,2092.91 C371.485,2094.67 372.49,2096.88 372.49,2099.55 C372.49,2104.04 370.183,2108.23 365.568,2112.14 C360.881,2116.05 355.865,2118 350.521,2118 C347.396,2118 344.761,2117.19 342.615,2115.56 C340.594,2113.8 339.584,2111.59 339.584,2108.92 C339.584,2104.43 341.928,2100.23 346.615,2096.33 C351.178,2092.42 356.157,2090.47 361.553,2090.47"/>
<path class="Note" d="M2629.13,1602.97 C2632.26,1602.97 2634.9,1603.78 2637.05,1605.41 C2639.06,1607.17 2640.07,1609.38 2640.07,1612.05 C2640.07,1616.54 2637.76,1620.73 2633.15,1624.64 C2628.46,1628.55 2623.44,1630.5 2618.1,1630.5 C2614.97,1630.5 2612.34,1629.69 2610.19,1628.06 C2608.17,1626.3 2607.16,1624.09 2607.16,1621.42 C2607.16,1616.93 2609.51,1612.73 2614.19,1608.83 C2618.76,1604.92 2623.73,1602.97 2629.13,1602.97"/>
<path class="Note" d="M2527.17,1590.47 C2530.3,1590.47 2532.94,1591.28 2535.09,1592.91 C2537.11,1594.67 2538.11,1596.88 2538.11,1599.55 C2538.11,1604.04 2535.8,1608.23 2531.19,1612.14 C2526.5,1616.05 2521.49,1618 2516.14,1618 C2513.02,1618 2510.38,1617.19 2508.24,1615.56 C2506.21,1613.8 2505.2,1611.59 2505.2,1608.92 C2505.2,1604.43 2507.55,1600.23 2512.24,1596.33 C2516.8,1592.42 2521.78,1590.47 2527.17,1590.47"/>
<path class="Note" d="M2425.22,1577.97 C2428.34,1577.97 2430.98,1578.78 2433.14,1580.41 C2435.15,1582.17 2436.15,1584.38 2436.15,1587.05 C2436.15,1591.54 2433.85,1595.73 2429.23,1599.64 C2424.54,1603.55 2419.53,1605.5 2414.18,1605.5 C2411.06,1605.5 2408.42,1604.69 2406.28,1603.06 C2404.26,1601.3 2403.25,1599.09 2403.25,1596.42 C2403.25,1591.93 2405.59,1587.73 2410.28,1583.83 C2414.84,1579.92 2419.82,1577.97 2425.22,1577.97"/>
<path class="Note" d="M2323.26,1565.47 C2326.38,1565.47 2329.02,1566.28 2331.18,1567.91 C2333.19,1569.67 2334.2,1571.88 2334.2,1574.55 C2334.2,1579.04 2331.89,1583.23 2327.27,1587.14 C2322.59,1591.05 2317.57,1593 2312.23,1593 C2309.1,1593 2306.47,1592.19 2304.32,1590.56 C2302.3,1588.8 2301.29,1586.59 2301.29,1583.92 C2301.29,1579.43 2303.63,1575.23 2308.32,1571.33 C2312.88,1567.42 2317.86,1565.47 2323.26,1565.47"/>
<path class="Note" d="M2221.3,1577.97 C2224.43,1577.97 2227.07,1578.78 2229.22,1580.41 C2231.23,1582.17 2232.24,1584.38 2232.24,1587.05 C2232.24,1591.54 2229.93,1595.73 2225.32,1599.64 C2220.63,1603.55 2215.61,1605.5 2210.27,1605.5 C2207.14,1605.5 2204.51,1604.69 2202.36,1603.06 C2200.34,1601.3 2199.33,1599.09 2199.33,1596.42 C2199.33,1591.93 2201.68,1587.73 2206.36,1583.83 C2210.93,1579.92 2215.91,1577.97 2221.3,1577.97"/>
<path class="Note" d="M2039.55,1565.47 C2042.67,1565.47 2045.31,1566.28 2047.47,1567.91 C2049.48,1569.67 2050.49,1571.88 2050.49,1574.55 C2050.49,1579.04 2048.18,1583.23 2043.56,1587.14 C2038.88,1591.05 2033.86,1593 2028.52,1593 C2025.39,1593 2022.76,1592.19 2020.61,1590.56 C2018.59,1588.8 2017.58,1586.59 2017.58,1583.92 C2017.58,1579.43 2019.92,1575.23 2024.61,1571.33 C2029.17,1567.42 2034.15,1565.47 2039.55,1565.47"/>
<path class="Note" d="M1891.79,1565.47 C1894.92,1565.47 1897.56,1566.28 1899.72,1567.91 C1901.73,1569.67 1902.73,1571.88 1902.73,1574.55 C1902.73,1579.04 1900.42,1583.23 1895.81,1587.14 C1891.12,1591.05 1886.11,1593 1880.76,1593 C1877.64,1593 1875,1592.19 1872.86,1590.56 C1870.84,1588.8 1869.83,1586.59 1869.83,1583.92 C1869.83,1579.43 1872.17,1575.23 1876.86,1571.33 C1881.42,1567.42 1886.4,1565.47 1891.79,1565.47"/>
<path class="Note" d="M1744.04,1565.47 C1747.17,1565.47 1749.81,1566.28 1751.96,1567.91 C1753.97,1569.67 1754.98,1571.88 1754.98,1574.55 C1754.98,1579.04 1752.67,1583.23 1748.06,1587.14 C1743.37,1591.05 1738.35,1593 1733.01,1593 C1729.88,1593 1727.25,1592.19 1725.1,1590.56 C1723.08,1588.8 1722.07,1586.59 1722.07,1583.92 C1722.07,1579.43 1724.42,1575.23 1729.1,1571.33 C1733.67,1567.42 1738.65,1565.47 1744.04,1565.47"/>
<path class="Note" d="M1596.29,1652.97 C1599.41,1652.97 1602.05,1653.78 1604.21,1655.41 C1606.22,1657.17 1607.23,1659.38 1607.23,1662.05 C1607.23,1666.54 1604.92,1670.73 1600.3,1674.64 C1595.62,1678.55 1590.6,1680.5 1585.26,1680.5 C1582.13,1680.5 1579.5,1679.69 1577.35,1678.06 C1575.33,1676.3 1574.32,1674.09 1574.32,1671.42 C1574.32,1666.93 1576.66,1662.73 1581.35,1658.83 C1585.91,1654.92 1590.89,1652.97 1596.29,1652.97"/>
<path class="Note" d="M1337.98,1602.97 C1341.11,1602.97 1343.75,1603.78 1345.9,1605.41 C1347.91,1607.17 1348.92,1609.38 1348.92,1612.05 C1348.92,1616.54 1346.61,1620.73 1342,1624.64 C1337.31,1628.55 1332.29,1630.5 1326.95,1630.5 C1323.83,1630.5 1321.19,1629.69 1319.04,1628.06 C1317.02,1626.3 1316.01,1624.09 1316.01,1621.42 C1316.01,1616.93 1318.36,1612.73 1323.04,1608.83 C1327.61,1604.92 1332.59,1602.97 1337.98,1602.97"/>
<path class="Note" d="M1236.02,1590.47 C1239.15,1590.47 1241.79,1591.28 1243.95,1592.91 C1245.96,1594.67 1246.96,1596.88 1246.96,1599.55 C1246.96,1604.04 1244.65,1608.23 1240.04,1612.14 C1235.35,1616.05 1230.34,1618 1224.99,1618 C1221.87,1618 1219.23,1617.19 1217.09,1615.56 C1215.07,1613.8 1214.06,1611.59 1214.06,1608.92 C1214.06,1604.43 1216.4,1600.23 1221.09,1596.33 C1225.65,1592.42 1230.63,1590.47 1236.02,1590.47"/>
<path class="Note" d="M1134.07,1577.97 C1137.19,1577.97 1139.83,1578.78 1141.99,1580.41 C1144,1582.17 1145,1584.38 1145,1587.05 C1145,1591.54 1142.7,1595.73 1138.08,1599.64 C1133.39,1603.55 1128.38,1605.5 1123.04,1605.5 C1119.91,1605.5 1117.27,1604.69 1115.13,1603.06 C1113.11,1601.3 1112.1,1599.09 1112.1,1596.42 C1112.1,1591.93 1114.44,1587.73 1119.13,1583.83 C1123.69,1579.92 1128.67,1577.97 1134.07,1577.97"/>
<path class="Note" d="M1032.11,1565.47 C1035.23,1565.47 1037.87,1566.28 1040.03,1567.91 C1042.04,1569.67 1043.05,1571.88 1043.05,1574.55 C1043.05,1579.04 1040.74,1583.23 1036.12,1587.14 C1031.44,1591.05 1026.42,1593 1021.08,1593 C1017.95,1593 1015.32,1592.19 1013.17,1590.56 C1011.15,1588.8 1010.14,1586.59 1010.14,1583.92 C1010.14,1579.43 1012.48,1575.23 1017.17,1571.33 C1021.73,1567.42 1026.71,1565.47 1032.11,1565.47"/>
<path class="Note" d="M930.152,1577.97 C933.277,1577.97 935.918,1578.78 938.074,1580.41 C940.084,1582.17 941.089,1584.38 941.089,1587.05 C941.089,1591.54 938.782,1595.73 934.168,1599.64 C929.48,1603.55 924.464,1605.5 919.121,1605.5 C915.996,1605.5 913.36,1604.69 911.214,1603.06 C909.194,1601.3 908.183,1599.09 908.183,1596.42 C908.183,1591.93 910.527,1587.73 915.214,1583.83 C919.777,1579.92 924.756,1577.97 930.152,1577.97"/>
<path class="Note" d="M748.399,1565.47 C751.524,1565.47 754.164,1566.28 756.32,1567.91 C758.331,1569.67 759.336,1571.88 759.336,1574.55 C759.336,1579.04 757.029,1583.23 752.414,1587.14 C747.727,1591.05 742.711,1593 737.367,1593 C734.242,1593 731.607,1592.19 729.461,1590.56 C727.44,1588.8 726.43,1586.59 726.43,1583.92 C726.43,1579.43 728.774,1575.23 733.461,1571.33 C738.024,1567.42 743.003,1565.47 748.399,1565.47"/>
<path class="Note" d="M600.645,1565.47 C603.77,1565.47 606.411,1566.28 608.567,1567.91 C610.578,1569.67 611.583,1571.88 611.583,1574.55 C611.583,1579.04 609.275,1583.23 604.661,1587.14 C599.973,1591.05 594.958,1593 589.614,1593 C586.489,1593 583.854,1592.19 581.708,1590.56 C579.687,1588.8 578.676,1586.59 578.676,1583.92 C578.676,1579.43 581.02,1575.23 585.708,1571.33 C590.27,1567.42 595.249,1565.47 600.645,1565.47"/>
<path class="Note" d="M452.892,1565.47 C456.017,1565.47 458.658,1566.28 460.814,1567.91 C462.824,1569.67 463.829,1571.88 463.829,1574.55 C463.829,1579.04 461.522,1583.23 456.908,1587.14 C452.22,1591.05 447.204,1593 441.861,1593 C438.736,1593 436.1,1592.19 433.954,1590.56 C431.934,1588.8 430.923,1586.59 430.923,1583.92 C430.923,1579.43 433.267,1575.23 437.954,1571.33 C442.517,1567.42 447.496,1565.47 452.892,1565.47"/>
<path class="Note" d="M305.139,1652.97 C308.264,1652.97 310.904,1653.78 313.06,1655.41 C315.071,1657.17 316.076,1659.38 316.076,1662.05 C316.076,1666.54 313.769,1670.73 309.154,1674.64 C304.467,1678.55 299.451,1680.5 294.107,1680.5 C290.982,1680.5 288.347,1679.69 286.201,1678.06 C284.18,1676.3 283.17,1674.09 283.17,1671.42 C283.17,1666.93 285.514,1662.73 290.201,1658.83 C294.764,1654.92 299.743,1652.97 305.139,1652.97"/>
<path class="Note" d="M2586.89,1127.97 C2590.02,1127.97 2592.66,1128.78 2594.81,1130.4 C2596.83,1132.17 2597.83,1134.38 2597.83,1137.05 C2597.83,1141.53 2595.52,1145.73 2590.91,1149.64 C2586.22,1153.55 2581.21,1155.5 2575.86,1155.5 C2572.74,1155.5 2570.1,1154.69 2567.96,1153.06 C2565.93,1151.3 2564.92,1149.09 2564.92,1146.42 C2564.92,1141.93 2567.27,1137.73 2571.96,1133.83 C2576.52,1129.92 2581.5,1127.97 2586.89,1127.97"/>
<path class="Note" d="M2427.49,1115.47 C2430.62,1115.47 2433.26,1116.28 2435.41,1117.9 C2437.42,1119.67 2438.43,1121.88 2438.43,1124.55 C2438.43,1129.03 2436.12,1133.23 2431.51,1137.14 C2426.82,1141.05 2421.8,1143 2416.46,1143 C2413.33,1143 2410.7,1142.19 2408.55,1140.56 C2406.53,1138.8 2405.52,1136.59 2405.52,1133.92 C2405.52,1129.43 2407.87,1125.23 2412.55,1121.33 C2417.12,1117.42 2422.09,1115.47 2427.49,1115.47"/>
<path class="Note" d="M2268.09,1115.47 C2271.21,1115.47 2273.85,1116.28 2276.01,1117.9 C2278.02,1119.67 2279.03,1121.88 2279.03,1124.55 C2279.03,1129.03 2276.72,1133.23 2272.1,1137.14 C2267.42,1141.05 2262.4,1143 2257.06,1143 C2253.93,1143 2251.3,1142.19 2249.15,1140.56 C2247.13,1138.8 2246.12,1136.59 2246.12,1133.92 C2246.12,1129.43 2248.46,1125.23 2253.15,1121.33 C2257.71,1117.42 2262.69,1115.47 2268.09,1115.47"/>
<path class="Note" d="M2064.31,1102.97 C2067.43,1102.97 2070.07,1103.78 2072.23,1105.4 C2074.24,1107.17 2075.24,1109.38 2075.24,1112.05 C2075.24,1116.53 2072.94,1120.73 2068.32,1124.64 C2063.63,1128.55 2058.62,1130.5 2053.28,1130.5 C2050.15,1130.5 2047.52,1129.69 2045.37,1128.06 C2043.35,1126.3 2042.34,1124.09 2042.34,1121.42 C2042.34,1116.93 2044.68,1112.73 2049.37,1108.83 C2053.93,1104.92 2058.91,1102.97 2064.31,1102.97"/>
<path class="Note" d="M1910.56,1102.97 C1913.69,1102.97 1916.33,1103.78 1918.49,1105.4 C1920.5,1107.17 1921.5,1109.38 1921.5,1112.05 C1921.5,1116.53 1919.19,1120.73 1914.58,1124.64 C1909.89,1128.55 1904.88,1130.5 1899.53,1130.5 C1896.41,1130.5 1893.77,1129.69 1891.63,1128.06 C1889.61,1126.3 1888.6,1124.09 1888.6,1121.42 C1888.6,1116.93 1890.94,1112.73 1895.63,1108.83 C1900.19,1104.92 1905.17,1102.97 1910.56,1102.97"/>
<path class="Note" d="M1756.82,1090.47 C1759.95,1090.47 1762.59,1091.28 1764.74,1092.9 C1766.75,1094.67 1767.76,1096.88 1767.76,1099.55 C1767.76,1104.03 1765.45,1108.23 1760.84,1112.14 C1756.15,1116.05 1751.13,1118 1745.79,1118 C1742.67,1118 1740.03,1117.19 1737.88,1115.56 C1735.86,1113.8 1734.85,1111.59 1734.85,1108.92 C1734.85,1104.43 1737.2,1100.23 1741.88,1096.33 C1746.45,1092.42 1751.43,1090.47 1756.82,1090.47"/>
<path class="Note" d="M1603.08,1090.47 C1606.2,1090.47 1608.84,1091.28 1611,1092.9 C1613.01,1094.67 1614.02,1096.88 1614.02,1099.55 C1614.02,1104.03 1611.71,1108.23 1607.09,1112.14 C1602.41,1116.05 1597.39,1118 1592.05,1118 C1588.92,1118 1586.29,1117.19 1584.14,1115.56 C1582.12,1113.8 1581.11,1111.59 1581.11,1108.92 C1581.11,1104.43 1583.45,1100.23 1588.14,1096.33 C1592.7,1092.42 1597.68,1090.47 1603.08,1090.47"/>
<path class="Note" d="M1415.34,1077.97 C1418.46,1077.97 1421.1,1078.78 1423.26,1080.4 C1425.27,1082.17 1426.27,1084.38 1426.27,1087.05 C1426.27,1091.53 1423.97,1095.73 1419.35,1099.64 C1414.66,1103.55 1409.65,1105.5 1404.31,1105.5 C1401.18,1105.5 1398.54,1104.69 1396.4,1103.06 C1394.38,1101.3 1393.37,1099.09 1393.37,1096.42 C1393.37,1091.93 1395.71,1087.73 1400.4,1083.83 C1404.96,1079.92 1409.94,1077.97 1415.34,1077.97"/>
<path class="Note" d="M1261.59,1077.97 C1264.72,1077.97 1267.36,1078.78 1269.52,1080.4 C1271.53,1082.17 1272.53,1084.38 1272.53,1087.05 C1272.53,1091.53 1270.22,1095.73 1265.61,1099.64 C1260.92,1103.55 1255.91,1105.5 1250.56,1105.5 C1247.44,1105.5 1244.8,1104.69 1242.66,1103.06 C1240.64,1101.3 1239.63,1099.09 1239.63,1096.42 C1239.63,1091.93 1241.97,1087.73 1246.66,1083.83 C1251.22,1079.92 1256.2,1077.97 1261.59,1077.97"/>
<path class="Note" d="M1107.85,1040.47 C1110.98,1040.47 1113.62,1041.28 1115.77,1042.9 C1117.78,1044.67 1118.79,1046.88 1118.79,1049.55 C1118.79,1054.03 1116.48,1058.23 1111.87,1062.14 C1107.18,1066.05 1102.16,1068 1096.82,1068 C1093.7,1068 1091.06,1067.19 1088.91,1065.56 C1086.89,1063.8 1085.88,1061.59 1085.88,1058.92 C1085.88,1054.43 1088.23,1050.23 1092.91,1046.33 C1097.48,1042.42 1102.46,1040.47 1107.85,1040.47"/>
<path class="Note" d="M954.109,1065.47 C957.234,1065.47 959.874,1066.28 962.031,1067.9 C964.041,1069.67 965.046,1071.88 965.046,1074.55 C965.046,1079.03 962.739,1083.23 958.124,1087.14 C953.437,1091.05 948.421,1093 943.078,1093 C939.953,1093 937.317,1092.19 935.171,1090.56 C933.151,1088.8 932.14,1086.59 932.14,1083.92 C932.14,1079.43 934.484,1075.23 939.171,1071.33 C943.734,1067.42 948.713,1065.47 954.109,1065.47"/>
<path class="Note" d="M766.366,1077.97 C769.491,1077.97 772.132,1078.78 774.288,1080.4 C776.299,1082.17 777.304,1084.38 777.304,1087.05 C777.304,1091.53 774.996,1095.73 770.382,1099.64 C765.694,1103.55 760.679,1105.5 755.335,1105.5 C752.21,1105.5 749.575,1104.69 747.429,1103.06 C745.408,1101.3 744.398,1099.09 744.398,1096.42 C744.398,1091.93 746.741,1087.73 751.429,1083.83 C755.991,1079.92 760.97,1077.97 766.366,1077.97"/>
<path class="Note" d="M612.624,1077.97 C615.749,1077.97 618.389,1078.78 620.546,1080.4 C622.556,1082.17 623.561,1084.38 623.561,1087.05 C623.561,1091.53 621.254,1095.73 616.639,1099.64 C611.952,1103.55 606.936,1105.5 601.592,1105.5 C598.467,1105.5 595.832,1104.69 593.686,1103.06 C591.665,1101.3 590.655,1099.09 590.655,1096.42 C590.655,1091.93 592.999,1087.73 597.686,1083.83 C602.249,1079.92 607.228,1077.97 612.624,1077.97"/>
<path class="Note" d="M458.881,1102.97 C462.006,1102.97 464.647,1103.78 466.803,1105.4 C468.813,1107.17 469.819,1109.38 469.819,1112.05 C469.819,1116.53 467.511,1120.73 462.897,1124.64 C458.209,1128.55 453.194,1130.5 447.85,1130.5 C444.725,1130.5 442.089,1129.69 439.944,1128.06 C437.923,1126.3 436.912,1124.09 436.912,1121.42 C436.912,1116.93 439.256,1112.73 443.944,1108.83 C448.506,1104.92 453.485,1102.97 458.881,1102.97"/>
<path class="Note" d="M305.139,1127.97 C308.264,1127.97 310.904,1128.78 313.06,1130.4 C315.071,1132.17 316.076,1134.38 316.076,1137.05 C316.076,1141.53 313.769,1145.73 309.154,1149.64 C304.467,1153.55 299.451,1155.5 294.107,1155.5 C290.982,1155.5 288.347,1154.69 286.201,1153.06 C284.18,1151.3 283.17,1149.09 283.17,1146.42 C283.17,1141.93 285.514,1137.73 290.201,1133.83 C294.764,1129.92 299.743,1127.97 305.139,1127.97"/>
<path class="Note" d="M2707.64,652.967 C2710.77,652.967 2713.41,653.779 2715.57,655.404 C2717.58,657.165 2718.58,659.378 2718.58,662.045 C2718.58,666.535 2716.27,670.733 2711.66,674.639 C2706.97,678.545 2701.96,680.498 2696.61,680.498 C2693.49,680.498 2690.85,679.686 2688.71,678.061 C2686.69,676.3 2685.68,674.087 2685.68,671.42 C2685.68,666.93 2688.02,662.733 2692.71,658.826 C2697.27,654.92 2702.25,652.967 2707.64,652.967"/>
<path class="Note" d="M2561.85,652.967 C2564.98,652.967 2567.62,653.779 2569.77,655.404 C2571.78,657.165 2572.79,659.378 2572.79,662.045 C2572.79,666.535 2570.48,670.733 2565.87,674.639 C2561.18,678.545 2556.16,680.498 2550.82,680.498 C2547.7,680.498 2545.06,679.686 2542.91,678.061 C2540.89,676.3 2539.88,674.087 2539.88,671.42 C2539.88,666.93 2542.23,662.733 2546.91,658.826 C2551.48,654.92 2556.46,652.967 2561.85,652.967"/>
<path class="Note" d="M2470.73,627.967 C2473.86,627.967 2476.5,628.779 2478.65,630.404 C2480.66,632.165 2481.67,634.378 2481.67,637.045 C2481.67,641.535 2479.36,645.733 2474.75,649.639 C2470.06,653.545 2465.04,655.498 2459.7,655.498 C2456.58,655.498 2453.94,654.686 2451.79,653.061 C2449.77,651.3 2448.76,649.087 2448.76,646.42 C2448.76,641.93 2451.11,637.733 2455.79,633.826 C2460.36,629.92 2465.34,627.967 2470.73,627.967"/>
<path class="Note" d="M2379.61,640.467 C2382.74,640.467 2385.38,641.279 2387.53,642.904 C2389.54,644.665 2390.55,646.878 2390.55,649.545 C2390.55,654.035 2388.24,658.233 2383.63,662.139 C2378.94,666.045 2373.92,667.998 2368.58,667.998 C2365.46,667.998 2362.82,667.186 2360.67,665.561 C2358.65,663.8 2357.64,661.587 2357.64,658.92 C2357.64,654.43 2359.99,650.233 2364.67,646.326 C2369.24,642.42 2374.22,640.467 2379.61,640.467"/>
<path class="Note" d="M2288.49,652.967 C2291.62,652.967 2294.26,653.779 2296.41,655.404 C2298.42,657.165 2299.43,659.378 2299.43,662.045 C2299.43,666.535 2297.12,670.733 2292.51,674.639 C2287.82,678.545 2282.8,680.498 2277.46,680.498 C2274.34,680.498 2271.7,679.686 2269.55,678.061 C2267.53,676.3 2266.52,674.087 2266.52,671.42 C2266.52,666.93 2268.87,662.733 2273.55,658.826 C2278.12,654.92 2283.1,652.967 2288.49,652.967"/>
<path class="Note" d="M2197.37,640.467 C2200.5,640.467 2203.14,641.279 2205.29,642.904 C2207.3,644.665 2208.31,646.878 2208.31,649.545 C2208.31,654.035 2206,658.233 2201.39,662.139 C2196.7,666.045 2191.68,667.998 2186.34,667.998 C2183.22,667.998 2180.58,667.186 2178.43,665.561 C2176.41,663.8 2175.4,661.587 2175.4,658.92 C2175.4,654.43 2177.75,650.233 2182.43,646.326 C2187,642.42 2191.98,640.467 2197.37,640.467"/>
<path class="Note" d="M2003.88,627.967 C2007,627.967 2009.64,628.779 2011.8,630.404 C2013.81,632.165 2014.82,634.378 2014.82,637.045 C2014.82,641.535 2012.51,645.733 2007.89,649.639 C2003.21,653.545 1998.19,655.498 1992.85,655.498 C1989.72,655.498 1987.09,654.686 1984.94,653.061 C1982.92,651.3 1981.91,649.087 1981.91,646.42 C1981.91,641.93 1984.25,637.733 1988.94,633.826 C1993.5,629.92 1998.48,627.967 2003.88,627.967"/>
<path class="Note" d="M1860.42,627.967 C1863.55,627.967 1866.19,628.779 1868.34,630.404 C1870.36,632.165 1871.36,634.378 1871.36,637.045 C1871.36,641.535 1869.05,645.733 1864.44,649.639 C1859.75,653.545 1854.74,655.498 1849.39,655.498 C1846.27,655.498 1843.63,654.686 1841.49,653.061 C1839.46,651.3 1838.45,649.087 1838.45,646.42 C1838.45,641.93 1840.8,637.733 1845.49,633.826 C1850.05,629.92 1855.03,627.967 1860.42,627.967"/>
<path class="Note" d="M1716.97,615.467 C1720.09,615.467 1722.73,616.279 1724.89,617.904 C1726.9,619.665 1727.91,621.878 1727.91,624.545 C1727.91,629.035 1725.6,633.233 1720.98,637.139 C1716.3,641.045 1711.28,642.998 1705.94,642.998 C1702.81,642.998 1700.18,642.186 1698.03,640.561 C1696.01,638.8 1695,636.587 1695,633.92 C1695,629.43 1697.34,625.233 1702.03,621.326 C1706.59,617.42 1711.57,615.467 1716.97,615.467"/>
<path class="Note" d="M1573.51,615.467 C1576.64,615.467 1579.28,616.279 1581.43,617.904 C1583.45,619.665 1584.45,621.878 1584.45,624.545 C1584.45,629.035 1582.14,633.233 1577.53,637.139 C1572.84,641.045 1567.83,642.998 1562.48,642.998 C1559.36,642.998 1556.72,642.186 1554.58,640.561 C1552.55,638.8 1551.54,636.587 1551.54,633.92 C1551.54,629.43 1553.89,625.233 1558.58,621.326 C1563.14,617.42 1568.12,615.467 1573.51,615.467"/>
<path class="Note" d="M1396.06,602.967 C1399.18,602.967 1401.82,603.779 1403.98,605.404 C1405.99,607.165 1407,609.378 1407,612.045 C1407,616.535 1404.69,620.733 1400.07,624.639 C1395.39,628.545 1390.37,630.498 1385.03,630.498 C1381.9,630.498 1379.27,629.686 1377.12,628.061 C1375.1,626.3 1374.09,624.087 1374.09,621.42 C1374.09,616.93 1376.43,612.733 1381.12,608.826 C1385.68,604.92 1390.66,602.967 1396.06,602.967"/>
<path class="Note" d="M1252.6,602.967 C1255.73,602.967 1258.37,603.779 1260.52,605.404 C1262.54,607.165 1263.54,609.378 1263.54,612.045 C1263.54,616.535 1261.23,620.733 1256.62,624.639 C1251.93,628.545 1246.92,630.498 1241.57,630.498 C1238.45,630.498 1235.81,629.686 1233.67,628.061 C1231.64,626.3 1230.63,624.087 1230.63,621.42 C1230.63,616.93 1232.98,612.733 1237.67,608.826 C1242.23,604.92 1247.21,602.967 1252.6,602.967"/>
<path class="Note" d="M1109.15,565.467 C1112.27,565.467 1114.91,566.279 1117.07,567.904 C1119.08,569.665 1120.09,571.878 1120.09,574.545 C1120.09,579.035 1117.78,583.233 1113.16,587.139 C1108.48,591.045 1103.46,592.998 1098.12,592.998 C1094.99,592.998 1092.36,592.186 1090.21,590.561 C1088.19,588.8 1087.18,586.587 1087.18,583.92 C1087.18,579.43 1089.52,575.233 1094.21,571.326 C1098.77,567.42 1103.75,565.467 1109.15,565.467"/>
<path class="Note" d="M965.693,590.467 C968.818,590.467 971.459,591.279 973.615,592.904 C975.625,594.665 976.63,596.878 976.63,599.545 C976.63,604.035 974.323,608.233 969.709,612.139 C965.021,616.045 960.005,617.998 954.662,617.998 C951.537,617.998 948.901,617.186 946.755,615.561 C944.735,613.8 943.724,611.587 943.724,608.92 C943.724,604.43 946.068,600.233 950.755,596.326 C955.318,592.42 960.297,590.467 965.693,590.467"/>
<path class="Note" d="M788.238,602.967 C791.363,602.967 794.004,603.779 796.16,605.404 C798.17,607.165 799.175,609.378 799.175,612.045 C799.175,616.535 796.868,620.733 792.254,624.639 C787.566,628.545 782.55,630.498 777.207,630.498 C774.082,630.498 771.446,629.686 769.3,628.061 C767.28,626.3 766.269,624.087 766.269,621.42 C766.269,616.93 768.613,612.733 773.3,608.826 C777.863,604.92 782.842,602.967 788.238,602.967"/>
<path class="Note" d="M644.783,602.967 C647.908,602.967 650.549,603.779 652.705,605.404 C654.715,607.165 655.72,609.378 655.72,612.045 C655.72,616.535 653.413,620.733 648.799,624.639 C644.111,628.545 639.095,630.498 633.752,630.498 C630.627,630.498 627.991,629.686 625.845,628.061 C623.825,626.3 622.814,624.087 622.814,621.42 C622.814,616.93 625.158,612.733 629.845,608.826 C634.408,604.92 639.387,602.967 644.783,602.967"/>
<path class="Note" d="M501.328,627.967 C504.453,627.967 507.094,628.779 509.25,630.404 C511.26,632.165 512.265,634.378 512.265,637.045 C512.265,641.535 509.958,645.733 505.344,649.639 C500.656,653.545 495.64,655.498 490.297,655.498 C487.172,655.498 484.536,654.686 482.39,653.061 C480.37,651.3 479.359,649.087 479.359,646.42 C479.359,641.93 481.703,637.733 486.39,633.826 C490.953,629.92 495.932,627.967 501.328,627.967"/>
<path class="Note" d="M357.873,652.967 C360.998,652.967 363.639,653.779 365.795,655.404 C367.805,657.165 368.81,659.378 368.81,662.045 C368.81,666.535 366.503,670.733 361.889,674.639 C357.201,678.545 352.185,680.498 346.842,680.498 C343.717,680.498 341.081,679.686 338.935,678.061 C336.915,676.3 335.904,674.087 335.904,671.42 C335.904,666.93 338.248,662.733 342.935,658.826 C347.498,654.92 352.477,652.967 357.873,652.967"/>
<path class="Clef" d="M194.451,2091.14 C194.451,2091.14 194.649,2091.14 195.045,2091.14 C195.305,2091.08 195.529,2091.05 195.717,2091.05 C203.008,2091.05 208.998,2093.62 213.685,2098.76 C218.373,2103.84 220.717,2109.76 220.717,2116.53 C220.717,2124.94 217.237,2131.78 210.279,2137.05 C208.456,2138.48 206.076,2139.66 203.139,2140.56 C203.472,2144.79 203.639,2148.21 203.639,2150.81 C203.639,2151.33 203.571,2153.22 203.435,2156.48 C203.175,2162.54 201.092,2167.78 197.185,2172.2 C193.415,2176.57 188.727,2178.75 183.123,2178.75 C177.852,2178.75 173.362,2176.89 169.654,2173.19 C165.935,2169.41 164.076,2164.85 164.076,2159.51 C164.076,2156.71 165.154,2154.33 167.31,2152.37 C169.519,2150.43 172.086,2149.45 175.014,2149.45 C177.618,2149.45 179.8,2150.46 181.56,2152.48 C183.383,2154.37 184.295,2156.71 184.295,2159.51 C184.295,2162.05 183.383,2164.22 181.56,2166.05 C179.737,2167.87 177.555,2168.78 175.014,2168.78 C173.972,2168.78 172.967,2168.59 171.998,2168.2 C174.862,2172.43 178.67,2174.55 183.42,2174.55 C187.909,2174.55 191.586,2172.72 194.451,2169.08 C197.451,2165.31 199.081,2160.91 199.342,2155.89 C199.467,2152.76 199.529,2150.98 199.529,2150.53 C199.529,2146.88 199.399,2143.89 199.139,2141.55 C195.889,2142.07 192.993,2142.33 190.451,2142.33 C181.399,2142.33 173.685,2138.74 167.31,2131.58 C161.06,2124.35 157.935,2115.75 157.935,2105.8 C157.935,2103.71 158.128,2101.6 158.514,2099.45 C158.909,2097.69 159.399,2095.77 159.982,2093.69 C160.305,2092.51 161.185,2090.62 162.623,2088.01 C163.144,2087.23 163.73,2086.26 164.381,2085.09 C165.032,2083.91 165.487,2083.13 165.748,2082.75 C166.394,2081.45 167.659,2079.69 169.545,2077.47 C170.066,2076.88 170.605,2076.24 171.162,2075.52 C171.719,2074.81 172.193,2074.22 172.584,2073.76 C172.974,2073.31 173.266,2072.95 173.459,2072.69 C173.652,2072.43 175.118,2070.7 177.857,2067.51 C178.503,2066.86 179.136,2066.16 179.756,2065.41 C180.375,2064.67 180.881,2064.08 181.271,2063.66 C181.662,2063.23 181.956,2062.92 182.154,2062.73 C179.81,2054.98 178.342,2048.8 177.748,2044.17 C177.3,2040.46 177.076,2035.38 177.076,2028.94 C177.076,2023.27 178.378,2017.96 180.982,2013.01 C183.514,2007.88 187.06,2003.68 191.623,2000.42 C191.883,2000.22 192.206,2000.12 192.592,2000.12 C193.05,2000.12 193.378,2000.22 193.576,2000.42 C197.086,2004.65 200.112,2010.15 202.654,2016.92 C205.258,2023.69 206.56,2029.85 206.56,2035.39 C206.56,2041.64 205.066,2047.5 202.076,2052.97 C198.691,2058.76 194.326,2064.75 188.982,2070.94 C190.347,2075.23 192.17,2081.96 194.451,2091.14 M202.748,2136.56 C206.133,2135.32 208.774,2133.21 210.67,2130.22 C212.753,2127.35 213.795,2124.13 213.795,2120.55 C213.795,2115.92 212.232,2111.82 209.107,2108.23 C205.909,2104.53 201.836,2102.44 196.889,2101.98 C199.691,2115.72 201.644,2127.25 202.748,2136.56 M164.967,2114 C164.967,2120.45 167.571,2126.11 172.779,2131 C178.112,2135.75 184.102,2138.12 190.748,2138.12 C193.477,2138.12 196.144,2137.93 198.748,2137.53 C197.706,2127.63 195.654,2115.79 192.592,2101.98 C188.883,2102.38 185.925,2103.68 183.717,2105.89 C181.56,2108.17 180.482,2110.74 180.482,2113.61 C180.482,2118.56 183.123,2122.56 188.404,2125.62 C188.852,2126.08 189.076,2126.57 189.076,2127.09 C189.076,2127.61 188.852,2128.1 188.404,2128.55 C188.008,2129 187.519,2129.23 186.935,2129.23 C186.873,2129.23 186.581,2129.17 186.06,2129.05 C182.342,2127.03 179.477,2124.42 177.467,2121.23 C175.571,2117.84 174.623,2114.42 174.623,2110.97 C174.623,2106.48 176.024,2102.41 178.826,2098.76 C181.753,2095.12 185.56,2092.78 190.248,2091.73 C188.425,2084.44 186.93,2078.74 185.764,2074.64 C184.722,2075.82 183.469,2077.23 182.006,2078.89 C180.542,2080.55 179.68,2081.54 179.42,2081.87 C177.076,2084.93 175.284,2087.3 174.045,2089 C171.826,2092.06 170.196,2094.7 169.154,2096.91 C168.05,2099.38 167.076,2102.09 166.232,2105.01 C165.389,2107.82 164.967,2110.81 164.967,2114 M197.576,2014.69 C192.691,2017.09 188.852,2020.54 186.06,2025.03 C183.196,2029.66 181.764,2034.63 181.764,2039.97 C181.764,2044.66 182.935,2050.97 185.279,2058.92 C189.967,2053.25 193.482,2048.01 195.826,2043.2 C198.295,2038.12 199.529,2032.81 199.529,2027.28 C199.529,2023.11 198.878,2018.92 197.576,2014.69"/>
<path class="Clef" d="M194.451,1616.14 C194.451,1616.14 194.649,1616.14 195.045,1616.14 C195.305,1616.08 195.529,1616.05 195.717,1616.05 C203.008,1616.05 208.998,1618.62 213.685,1623.76 C218.373,1628.84 220.717,1634.76 220.717,1641.53 C220.717,1649.94 217.237,1656.77 210.279,1662.05 C208.456,1663.48 206.076,1664.66 203.139,1665.56 C203.472,1669.79 203.639,1673.21 203.639,1675.81 C203.639,1676.33 203.571,1678.22 203.435,1681.48 C203.175,1687.54 201.092,1692.77 197.185,1697.2 C193.415,1701.57 188.727,1703.75 183.123,1703.75 C177.852,1703.75 173.362,1701.89 169.654,1698.19 C165.935,1694.41 164.076,1689.85 164.076,1684.51 C164.076,1681.71 165.154,1679.33 167.31,1677.37 C169.519,1675.43 172.086,1674.45 175.014,1674.45 C177.618,1674.45 179.8,1675.46 181.56,1677.48 C183.383,1679.37 184.295,1681.71 184.295,1684.51 C184.295,1687.05 183.383,1689.22 181.56,1691.05 C179.737,1692.87 177.555,1693.78 175.014,1693.78 C173.972,1693.78 172.967,1693.59 171.998,1693.2 C174.862,1697.43 178.67,1699.55 183.42,1699.55 C187.909,1699.55 191.586,1697.72 194.451,1694.08 C197.451,1690.31 199.081,1685.91 199.342,1680.89 C199.467,1677.76 199.529,1675.98 199.529,1675.53 C199.529,1671.88 199.399,1668.89 199.139,1666.55 C195.889,1667.07 192.993,1667.33 190.451,1667.33 C181.399,1667.33 173.685,1663.74 167.31,1656.58 C161.06,1649.35 157.935,1640.75 157.935,1630.8 C157.935,1628.71 158.128,1626.6 158.514,1624.45 C158.909,1622.69 159.399,1620.77 159.982,1618.69 C160.305,1617.51 161.185,1615.62 162.623,1613.01 C163.144,1612.23 163.73,1611.26 164.381,1610.08 C165.032,1608.91 165.487,1608.13 165.748,1607.75 C166.394,1606.45 167.659,1604.69 169.545,1602.47 C170.066,1601.88 170.605,1601.24 171.162,1600.52 C171.719,1599.81 172.193,1599.22 172.584,1598.76 C172.974,1598.31 173.266,1597.95 173.459,1597.69 C173.652,1597.43 175.118,1595.7 177.857,1592.51 C178.503,1591.86 179.136,1591.16 179.756,1590.41 C180.375,1589.67 180.881,1589.08 181.271,1588.66 C181.662,1588.23 181.956,1587.92 182.154,1587.73 C179.81,1579.98 178.342,1573.8 177.748,1569.17 C177.3,1565.46 177.076,1560.38 177.076,1553.94 C177.076,1548.27 178.378,1542.96 180.982,1538.01 C183.514,1532.88 187.06,1528.68 191.623,1525.42 C191.883,1525.22 192.206,1525.12 192.592,1525.12 C193.05,1525.12 193.378,1525.22 193.576,1525.42 C197.086,1529.65 200.112,1535.15 202.654,1541.92 C205.258,1548.69 206.56,1554.85 206.56,1560.39 C206.56,1566.64 205.066,1572.5 202.076,1577.97 C198.691,1583.76 194.326,1589.75 188.982,1595.94 C190.347,1600.23 192.17,1606.96 194.451,1616.14 M202.748,1661.56 C206.133,1660.32 208.774,1658.21 210.67,1655.22 C212.753,1652.35 213.795,1649.13 213.795,1645.55 C213.795,1640.92 212.232,1636.82 209.107,1633.23 C205.909,1629.52 201.836,1627.44 196.889,1626.98 C199.691,1640.72 201.644,1652.25 202.748,1661.56 M164.967,1639 C164.967,1645.45 167.571,1651.11 172.779,1656 C178.112,1660.75 184.102,1663.12 190.748,1663.12 C193.477,1663.12 196.144,1662.93 198.748,1662.53 C197.706,1652.63 195.654,1640.79 192.592,1626.98 C188.883,1627.38 185.925,1628.68 183.717,1630.89 C181.56,1633.17 180.482,1635.74 180.482,1638.61 C180.482,1643.56 183.123,1647.56 188.404,1650.62 C188.852,1651.08 189.076,1651.57 189.076,1652.09 C189.076,1652.61 188.852,1653.1 188.404,1653.55 C188.008,1654 187.519,1654.23 186.935,1654.23 C186.873,1654.23 186.581,1654.17 186.06,1654.05 C182.342,1652.02 179.477,1649.42 177.467,1646.23 C175.571,1642.84 174.623,1639.42 174.623,1635.97 C174.623,1631.48 176.024,1627.41 178.826,1623.76 C181.753,1620.12 185.56,1617.77 190.248,1616.73 C188.425,1609.44 186.93,1603.74 185.764,1599.64 C184.722,1600.82 183.469,1602.23 182.006,1603.89 C180.542,1605.55 179.68,1606.54 179.42,1606.87 C177.076,1609.93 175.284,1612.3 174.045,1614 C171.826,1617.06 170.196,1619.7 169.154,1621.91 C168.05,1624.38 167.076,1627.09 166.232,1630.01 C165.389,1632.82 164.967,1635.81 164.967,1639 M197.576,1539.69 C192.691,1542.09 188.852,1545.54 186.06,1550.03 C183.196,1554.66 181.764,1559.63 181.764,1564.97 C181.764,1569.66 182.935,1575.97 185.279,1583.92 C189.967,1578.25 193.482,1573.01 195.826,1568.2 C198.295,1563.12 199.529,1557.81 199.529,1552.28 C199.529,1548.11 198.878,1543.92 197.576,1539.69"/>
<path class="Clef" d="M194.451,1091.14 C194.451,1091.14 194.649,1091.14 195.045,1091.14 C195.305,1091.08 195.529,1091.05 195.717,1091.05 C203.008,1091.05 208.998,1093.62 213.685,1098.76 C218.373,1103.84 220.717,1109.76 220.717,1116.53 C220.717,1124.94 217.237,1131.77 210.279,1137.05 C208.456,1138.48 206.076,1139.65 203.139,1140.56 C203.472,1144.79 203.639,1148.21 203.639,1150.81 C203.639,1151.33 203.571,1153.22 203.435,1156.48 C203.175,1162.53 201.092,1167.77 197.185,1172.2 C193.415,1176.57 188.727,1178.75 183.123,1178.75 C177.852,1178.75 173.362,1176.89 169.654,1173.19 C165.935,1169.4 164.076,1164.85 164.076,1159.51 C164.076,1156.71 165.154,1154.33 167.31,1152.37 C169.519,1150.43 172.086,1149.45 175.014,1149.45 C177.618,1149.45 179.8,1150.46 181.56,1152.48 C183.383,1154.37 184.295,1156.71 184.295,1159.51 C184.295,1162.05 183.383,1164.22 181.56,1166.05 C179.737,1167.87 177.555,1168.78 175.014,1168.78 C173.972,1168.78 172.967,1168.59 171.998,1168.2 C174.862,1172.43 178.67,1174.55 183.42,1174.55 C187.909,1174.55 191.586,1172.72 194.451,1169.08 C197.451,1165.31 199.081,1160.91 199.342,1155.89 C199.467,1152.76 199.529,1150.98 199.529,1150.53 C199.529,1146.88 199.399,1143.89 199.139,1141.55 C195.889,1142.07 192.993,1142.33 190.451,1142.33 C181.399,1142.33 173.685,1138.74 167.31,1131.58 C161.06,1124.35 157.935,1115.75 157.935,1105.8 C157.935,1103.71 158.128,1101.6 158.514,1099.45 C158.909,1097.69 159.399,1095.77 159.982,1093.69 C160.305,1092.51 161.185,1090.62 162.623,1088.01 C163.144,1087.23 163.73,1086.26 164.381,1085.08 C165.032,1083.91 165.487,1083.13 165.748,1082.75 C166.394,1081.45 167.659,1079.69 169.545,1077.47 C170.066,1076.88 170.605,1076.24 171.162,1075.52 C171.719,1074.81 172.193,1074.22 172.584,1073.76 C172.974,1073.31 173.266,1072.95 173.459,1072.69 C173.652,1072.43 175.118,1070.7 177.857,1067.51 C178.503,1066.86 179.136,1066.16 179.756,1065.41 C180.375,1064.67 180.881,1064.08 181.271,1063.65 C181.662,1063.23 181.956,1062.92 182.154,1062.73 C179.81,1054.98 178.342,1048.8 177.748,1044.17 C177.3,1040.46 177.076,1035.38 177.076,1028.94 C177.076,1023.27 178.378,1017.96 180.982,1013.01 C183.514,1007.88 187.06,1003.68 191.623,1000.42 C191.883,1000.22 192.206,1000.12 192.592,1000.12 C193.05,1000.12 193.378,1000.22 193.576,1000.42 C197.086,1004.65 200.112,1010.15 202.654,1016.92 C205.258,1023.69 206.56,1029.85 206.56,1035.39 C206.56,1041.64 205.066,1047.5 202.076,1052.97 C198.691,1058.76 194.326,1064.75 188.982,1070.94 C190.347,1075.23 192.17,1081.96 194.451,1091.14 M202.748,1136.56 C206.133,1135.32 208.774,1133.21 210.67,1130.22 C212.753,1127.35 213.795,1124.13 213.795,1120.55 C213.795,1115.92 212.232,1111.82 209.107,1108.23 C205.909,1104.52 201.836,1102.44 196.889,1101.98 C199.691,1115.72 201.644,1127.25 202.748,1136.56 M164.967,1114 C164.967,1120.45 167.571,1126.11 172.779,1131 C178.112,1135.75 184.102,1138.12 190.748,1138.12 C193.477,1138.12 196.144,1137.93 198.748,1137.53 C197.706,1127.63 195.654,1115.78 192.592,1101.98 C188.883,1102.38 185.925,1103.68 183.717,1105.89 C181.56,1108.17 180.482,1110.74 180.482,1113.61 C180.482,1118.56 183.123,1122.56 188.404,1125.62 C188.852,1126.08 189.076,1126.57 189.076,1127.09 C189.076,1127.61 188.852,1128.1 188.404,1128.55 C188.008,1129 187.519,1129.23 186.935,1129.23 C186.873,1129.23 186.581,1129.17 186.06,1129.05 C182.342,1127.02 179.477,1124.42 177.467,1121.23 C175.571,1117.84 174.623,1114.42 174.623,1110.97 C174.623,1106.48 176.024,1102.41 178.826,1098.76 C181.753,1095.12 185.56,1092.77 190.248,1091.73 C188.425,1084.44 186.93,1078.74 185.764,1074.64 C184.722,1075.82 183.469,1077.23 182.006,1078.89 C180.542,1080.55 179.68,1081.54 179.42,1081.87 C177.076,1084.93 175.284,1087.3 174.045,1089 C171.826,1092.06 170.196,1094.7 169.154,1096.9 C168.05,1099.38 167.076,1102.09 166.232,1105.01 C165.389,1107.82 164.967,1110.81 164.967,1114 M197.576,1014.69 C192.691,1017.09 188.852,1020.54 186.06,1025.03 C183.196,1029.65 181.764,1034.63 181.764,1039.97 C181.764,1044.65 182.935,1050.97 185.279,1058.92 C189.967,1053.25 193.482,1048.01 195.826,1043.2 C198.295,1038.12 199.529,1032.81 199.529,1027.28 C199.529,1023.11 198.878,1018.92 197.576,1014.69"/>
<path class="Clef" d="M194.451,616.139 C194.451,616.139 194.649,616.139 195.045,616.139 C195.305,616.076 195.529,616.045 195.717,616.045 C203.008,616.045 208.998,618.618 213.685,623.764 C218.373,628.837 220.717,634.759 220.717,641.529 C220.717,649.936 217.237,656.774 210.279,662.045 C208.456,663.483 206.076,664.654 203.139,665.561 C203.472,669.79 203.639,673.207 203.639,675.811 C203.639,676.332 203.571,678.222 203.435,681.483 C203.175,687.535 201.092,692.774 197.185,697.201 C193.415,701.566 188.727,703.748 183.123,703.748 C177.852,703.748 173.362,701.894 169.654,698.186 C165.935,694.404 164.076,689.847 164.076,684.514 C164.076,681.712 165.154,679.332 167.31,677.373 C169.519,675.425 172.086,674.451 175.014,674.451 C177.618,674.451 179.8,675.462 181.56,677.483 C183.383,679.368 184.295,681.712 184.295,684.514 C184.295,687.045 183.383,689.222 181.56,691.045 C179.737,692.868 177.555,693.779 175.014,693.779 C173.972,693.779 172.967,693.587 171.998,693.201 C174.862,697.43 178.67,699.545 183.42,699.545 C187.909,699.545 191.586,697.722 194.451,694.076 C197.451,690.305 199.081,685.91 199.342,680.889 C199.467,677.764 199.529,675.977 199.529,675.529 C199.529,671.884 199.399,668.889 199.139,666.545 C195.889,667.066 192.993,667.326 190.451,667.326 C181.399,667.326 173.685,663.743 167.31,656.576 C161.06,649.347 157.935,640.753 157.935,630.795 C157.935,628.712 158.128,626.597 158.514,624.451 C158.909,622.691 159.399,620.769 159.982,618.686 C160.305,617.509 161.185,615.618 162.623,613.014 C163.144,612.233 163.73,611.256 164.381,610.084 C165.032,608.912 165.487,608.134 165.748,607.748 C166.394,606.446 167.659,604.686 169.545,602.467 C170.066,601.884 170.605,601.235 171.162,600.522 C171.719,599.808 172.193,599.222 172.584,598.764 C172.974,598.305 173.266,597.946 173.459,597.686 C173.652,597.425 175.118,595.701 177.857,592.514 C178.503,591.858 179.136,591.157 179.756,590.412 C180.375,589.667 180.881,589.082 181.271,588.654 C181.662,588.227 181.956,587.92 182.154,587.733 C179.81,579.983 178.342,573.795 177.748,569.17 C177.3,565.462 177.076,560.384 177.076,553.936 C177.076,548.269 178.378,542.962 180.982,538.014 C183.514,532.878 187.06,528.68 191.623,525.42 C191.883,525.222 192.206,525.123 192.592,525.123 C193.05,525.123 193.378,525.222 193.576,525.42 C197.086,529.649 200.112,535.149 202.654,541.92 C205.258,548.691 206.56,554.847 206.56,560.389 C206.56,566.639 205.066,572.498 202.076,577.967 C198.691,583.759 194.326,589.748 188.982,595.936 C190.347,600.227 192.17,606.962 194.451,616.139 M202.748,661.561 C206.133,660.321 208.774,658.207 210.67,655.217 C212.753,652.352 213.795,649.128 213.795,645.545 C213.795,640.92 212.232,636.816 209.107,633.233 C205.909,629.524 201.836,627.441 196.889,626.983 C199.691,640.722 201.644,652.248 202.748,661.561 M164.967,638.998 C164.967,645.446 167.571,651.113 172.779,655.998 C178.112,660.748 184.102,663.123 190.748,663.123 C193.477,663.123 196.144,662.925 198.748,662.529 C197.706,652.634 195.654,640.785 192.592,626.983 C188.883,627.378 185.925,628.68 183.717,630.889 C181.56,633.17 180.482,635.743 180.482,638.608 C180.482,643.555 183.123,647.561 188.404,650.623 C188.852,651.082 189.076,651.571 189.076,652.092 C189.076,652.613 188.852,653.097 188.404,653.545 C188.008,654.003 187.519,654.233 186.935,654.233 C186.873,654.233 186.581,654.17 186.06,654.045 C182.342,652.024 179.477,649.42 177.467,646.233 C175.571,642.837 174.623,639.415 174.623,635.967 C174.623,631.477 176.024,627.41 178.826,623.764 C181.753,620.118 185.56,617.774 190.248,616.733 C188.425,609.441 186.93,603.743 185.764,599.639 C184.722,600.816 183.469,602.233 182.006,603.889 C180.542,605.545 179.68,606.54 179.42,606.873 C177.076,609.925 175.284,612.3 174.045,613.998 C171.826,617.061 170.196,619.696 169.154,621.904 C168.05,624.384 167.076,627.087 166.232,630.014 C165.389,632.816 164.967,635.811 164.967,638.998 M197.576,539.686 C192.691,542.092 188.852,545.54 186.06,550.029 C183.196,554.654 181.764,559.634 181.764,564.967 C181.764,569.654 182.935,575.972 185.279,583.92 C189.967,578.253 193.482,573.014 195.826,568.201 C198.295,563.118 199.529,557.811 199.529,552.279 C199.529,548.113 198.878,543.915 197.576,539.686"/>
<path class="TimeSig" d="M270.654,616.733 C268.696,616.733 266.935,616.376 265.373,615.662 C263.81,614.949 262.706,614.201 262.06,613.42 C261.206,612.441 260.357,611.691 259.514,611.17 C258.472,610.451 257.399,610.092 256.295,610.092 C254.597,610.092 253.196,610.613 252.092,611.654 C250.925,612.634 250.274,613.967 250.139,615.654 C250.014,616.373 249.623,616.733 248.967,616.733 C248.185,616.733 247.795,616.373 247.795,615.654 C247.795,613.123 248.383,610.847 249.56,608.826 C250.727,606.743 252.159,605.019 253.857,603.654 C255.284,602.415 257.17,600.915 259.514,599.154 C259.909,598.831 260.74,598.149 262.006,597.108 C263.271,596.066 264.331,595.186 265.185,594.467 C266.873,593.04 268.336,591.149 269.576,588.795 C270.743,586.451 271.326,583.915 271.326,581.186 C271.326,577.863 270.774,574.998 269.67,572.592 C268.503,570.248 266.711,569.076 264.295,569.076 C262.805,569.076 261.602,569.399 260.685,570.045 C259.706,570.701 259.217,571.581 259.217,572.686 C259.217,573.602 259.803,574.743 260.975,576.108 C262.146,577.472 262.732,578.613 262.732,579.529 C262.732,581.477 262.05,583.134 260.685,584.498 C259.383,585.8 257.79,586.451 255.904,586.451 C253.946,586.451 252.284,585.769 250.92,584.404 C249.618,582.977 248.967,581.352 248.967,579.529 C248.967,575.811 250.464,572.748 253.459,570.342 C256.454,567.936 260.066,566.733 264.295,566.733 C269.316,566.733 273.68,568.097 277.389,570.826 C281.097,573.43 282.951,576.884 282.951,581.186 C282.951,584.113 282.43,586.618 281.389,588.701 C280.409,590.92 278.946,592.649 276.998,593.889 C274.779,595.316 272.857,596.42 271.232,597.201 C268.951,598.243 266.675,599.222 264.404,600.139 C261.665,601.243 259.545,602.285 258.045,603.264 C258.899,603.066 259.779,602.967 260.685,602.967 C263.685,602.967 266.81,603.941 270.06,605.889 C273.383,607.847 275.956,608.826 277.779,608.826 C278.883,608.826 279.764,608.628 280.42,608.233 C281.066,607.847 281.488,607.425 281.685,606.967 C281.946,606.321 282.175,605.868 282.373,605.608 C282.633,605.212 282.956,605.014 283.342,605.014 C284.123,605.014 284.514,605.404 284.514,606.186 C284.514,608.009 283.211,610.222 280.607,612.826 C278.066,615.43 274.748,616.733 270.654,616.733"/>
<path class="TimeSig" d="M268.467,618.084 C270.415,618.084 272.073,617.858 273.443,617.404 C274.813,616.951 275.691,616.725 276.076,616.725 C276.534,616.725 276.894,616.855 277.154,617.115 C277.352,617.303 277.482,617.527 277.545,617.787 C277.545,617.923 277.477,618.121 277.342,618.381 L248.935,651.397 L265.623,651.397 L265.623,638.303 C265.623,637.459 265.852,636.74 266.31,636.147 C267.092,635.501 267.743,635.11 268.264,634.975 C269.107,634.589 270.149,633.678 271.389,632.24 C272.43,631.074 273.67,629.027 275.107,626.1 C275.295,625.704 275.586,625.506 275.982,625.506 C276.764,625.506 277.217,625.964 277.342,626.881 L277.342,651.397 L284.482,651.397 C285.389,651.397 285.909,651.881 286.045,652.85 C286.045,653.829 285.524,654.319 284.482,654.319 L277.342,654.319 L277.342,655.1 C277.342,657.704 277.993,659.917 279.295,661.74 C280.795,663.563 282.555,664.475 284.576,664.475 C285.357,664.475 285.748,664.865 285.748,665.647 C285.748,666.428 285.357,666.819 284.576,666.819 C283.211,666.819 280.998,666.626 277.935,666.24 C275.133,665.782 272.951,665.553 271.389,665.553 C269.764,665.553 267.581,665.782 264.842,666.24 C261.915,666.626 259.738,666.819 258.31,666.819 C257.529,666.819 257.139,666.428 257.139,665.647 C257.139,664.865 257.529,664.475 258.31,664.475 C260.321,664.475 262.076,663.563 263.576,661.74 C264.941,659.855 265.623,657.641 265.623,655.1 L265.623,654.319 L248.935,654.319 C247.821,654.319 247.04,654.058 246.592,653.537 C246.06,653.152 245.795,652.631 245.795,651.975 C245.795,651.777 246.284,651.095 247.264,649.928 C248.378,648.626 249.55,647.032 250.779,645.147 C252.217,642.928 253.586,640.647 254.889,638.303 C256.316,635.636 257.456,632.574 258.31,629.115 C259.279,625.605 259.764,622.027 259.764,618.381 C259.764,617.339 260.222,616.819 261.139,616.819 C261.336,616.819 261.758,616.917 262.404,617.115 C262.602,617.178 263.011,617.274 263.631,617.404 C264.251,617.535 264.753,617.662 265.139,617.787 C266.316,617.985 267.425,618.084 268.467,618.084"/>
<path class="Beam" fill-rule="evenodd" d="M2144.63,2041.89 L2275.07,2035.48 L2275.07,2047.99 L2144.63,2054.4 L2144.63,2041.89 "/>
<path class="Beam" fill-rule="evenodd" d="M1890.24,2054.07 L2020.68,2060.48 L2020.68,2072.99 L1890.24,2066.58 L1890.24,2054.07 "/>
<path class="Beam" fill-rule="evenodd" d="M800.113,2179.21 L1069.44,2153.9 L1069.44,2166.46 L800.113,2191.76 L800.113,2179.21 "/>
<path class="Beam" fill-rule="evenodd" d="M800.113,2160.46 L1069.44,2135.15 L1069.44,2147.71 L800.113,2173.01 L800.113,2160.46 "/>
<path class="Beam" fill-rule="evenodd" d="M2199.33,1679.23 L2508.45,1685.55 L2508.45,1698.05 L2199.33,1691.73 L2199.33,1679.23 "/>
<path class="Beam" fill-rule="evenodd" d="M2199.33,1660.48 L2508.45,1666.8 L2508.45,1679.3 L2199.33,1672.98 L2199.33,1660.48 "/>
<path class="Beam" fill-rule="evenodd" d="M1869.83,1654.23 L2020.83,1654.23 L2020.83,1666.73 L1869.83,1666.73 L1869.83,1654.23 "/>
<path class="Beam" fill-rule="evenodd" d="M1603.98,1529.69 L1754.99,1504.14 L1754.99,1516.82 L1603.98,1542.37 L1603.98,1529.69 "/>
<path class="Beam" fill-rule="evenodd" d="M908.183,1679.23 L1217.31,1685.55 L1217.31,1698.05 L908.183,1691.73 L908.183,1679.23 "/>
<path class="Beam" fill-rule="evenodd" d="M908.183,1660.48 L1217.31,1666.8 L1217.31,1679.3 L908.183,1672.98 L908.183,1660.48 "/>
<path class="Beam" fill-rule="evenodd" d="M578.676,1654.23 L729.68,1654.23 L729.68,1666.73 L578.676,1666.73 L578.676,1654.23 "/>
<path class="Beam" fill-rule="evenodd" d="M312.834,1529.69 L463.837,1504.14 L463.837,1516.82 L312.834,1542.37 L312.834,1529.69 "/>
<path class="Beam" fill-rule="evenodd" d="M2275.78,1041.73 L2438.44,1041.73 L2438.44,1054.23 L2275.78,1054.23 L2275.78,1041.73 "/>
<path class="Beam" fill-rule="evenodd" d="M1918.26,1035.48 L2075.25,1035.48 L2075.25,1047.98 L1918.26,1047.98 L1918.26,1035.48 "/>
<path class="Beam" fill-rule="evenodd" d="M1610.77,1029.23 L1767.77,1029.23 L1767.77,1041.73 L1610.77,1041.73 L1610.77,1029.23 "/>
<path class="Beam" fill-rule="evenodd" d="M1239.63,1160.48 L1396.62,1160.48 L1396.62,1172.98 L1239.63,1172.98 L1239.63,1160.48 "/>
<path class="Beam" fill-rule="evenodd" d="M932.14,1141.71 L1089.13,1128.95 L1089.13,1141.49 L932.14,1154.25 L932.14,1141.71 "/>
<path class="Beam" fill-rule="evenodd" d="M620.319,1010.48 L777.312,1010.48 L777.312,1022.98 L620.319,1022.98 L620.319,1010.48 "/>
<path class="Beam" fill-rule="evenodd" d="M312.834,1060.93 L469.826,1035.4 L469.826,1048.06 L312.834,1073.59 L312.834,1060.93 "/>
<path class="Beam" fill-rule="evenodd" d="M2569.55,585.483 L2718.59,585.483 L2718.59,597.983 L2569.55,597.983 L2569.55,585.483 "/>
<path class="Beam" fill-rule="evenodd" d="M2205.07,566.805 L2481.68,560.481 L2481.68,572.984 L2205.07,579.308 L2205.07,566.805 "/>
<path class="Beam" fill-rule="evenodd" d="M2205.07,585.555 L2481.68,579.231 L2481.68,591.734 L2205.07,598.058 L2205.07,585.555 "/>
<path class="Beam" fill-rule="evenodd" d="M1868.12,560.483 L2014.82,560.483 L2014.82,572.983 L1868.12,572.983 L1868.12,560.483 "/>
<path class="Beam" fill-rule="evenodd" d="M1581.21,554.233 L1727.91,554.233 L1727.91,566.733 L1581.21,566.733 L1581.21,554.233 "/>
<path class="Beam" fill-rule="evenodd" d="M1230.63,685.483 L1377.34,685.483 L1377.34,697.983 L1230.63,697.983 L1230.63,685.483 "/>
<path class="Beam" fill-rule="evenodd" d="M943.724,666.709 L1090.43,653.926 L1090.43,666.473 L943.724,679.256 L943.724,666.709 "/>
<path class="Beam" fill-rule="evenodd" d="M652.478,535.482 L799.183,535.482 L799.183,547.983 L652.478,547.983 L652.478,535.482 "/>
<path class="Beam" fill-rule="evenodd" d="M365.568,585.955 L512.273,560.388 L512.273,573.077 L365.568,598.643 L365.568,585.955 "/>
</svg>
