<?xml version="1.0" encoding="UTF-8" standalone="no"?>
<svg width="2976.38px" height="4209.45px" viewBox="0 0 2976.38 4209.45"
 xmlns="http://www.w3.org/2000/svg" xmlns:xlink="http://www.w3.org/1999/xlink" version="1.2" baseProfile="tiny">
<title>Dar-ar_naiba-n_tine_dragoste (2)</title>
<desc>Generated by MuseScore 3.0.2</desc>
<polyline class="StaffLines" fill="none" stroke="#000000" stroke-width="1.81" stroke-linejoin="bevel" points="212.599,552.756 2763.78,552.756"/>
<polyline class="StaffLines" fill="none" stroke="#000000" stroke-width="1.81" stroke-linejoin="bevel" points="212.599,575.433 2763.78,575.433"/>
<polyline class="StaffLines" fill="none" stroke="#000000" stroke-width="1.81" stroke-linejoin="bevel" points="212.599,598.11 2763.78,598.11"/>
<polyline class="StaffLines" fill="none" stroke="#000000" stroke-width="1.81" stroke-linejoin="bevel" points="212.599,620.787 2763.78,620.787"/>
<polyline class="StaffLines" fill="none" stroke="#000000" stroke-width="1.81" stroke-linejoin="bevel" points="212.599,643.465 2763.78,643.465"/>
<polyline class="StaffLines" fill="none" stroke="#000000" stroke-width="1.81" stroke-linejoin="bevel" points="212.599,983.622 2763.78,983.622"/>
<polyline class="StaffLines" fill="none" stroke="#000000" stroke-width="1.81" stroke-linejoin="bevel" points="212.599,1006.3 2763.78,1006.3"/>
<polyline class="StaffLines" fill="none" stroke="#000000" stroke-width="1.81" stroke-linejoin="bevel" points="212.599,1028.98 2763.78,1028.98"/>
<polyline class="StaffLines" fill="none" stroke="#000000" stroke-width="1.81" stroke-linejoin="bevel" points="212.599,1051.65 2763.78,1051.65"/>
<polyline class="StaffLines" fill="none" stroke="#000000" stroke-width="1.81" stroke-linejoin="bevel" points="212.599,1074.33 2763.78,1074.33"/>
<polyline class="StaffLines" fill="none" stroke="#000000" stroke-width="1.81" stroke-linejoin="bevel" points="212.599,1414.49 2763.78,1414.49"/>
<polyline class="StaffLines" fill="none" stroke="#000000" stroke-width="1.81" stroke-linejoin="bevel" points="212.599,1437.17 2763.78,1437.17"/>
<polyline class="StaffLines" fill="none" stroke="#000000" stroke-width="1.81" stroke-linejoin="bevel" points="212.599,1459.84 2763.78,1459.84"/>
<polyline class="StaffLines" fill="none" stroke="#000000" stroke-width="1.81" stroke-linejoin="bevel" points="212.599,1482.52 2763.78,1482.52"/>
<polyline class="StaffLines" fill="none" stroke="#000000" stroke-width="1.81" stroke-linejoin="bevel" points="212.599,1505.2 2763.78,1505.2"/>
<polyline class="StaffLines" fill="none" stroke="#000000" stroke-width="1.81" stroke-linejoin="bevel" points="212.599,1845.35 2763.78,1845.35"/>
<polyline class="StaffLines" fill="none" stroke="#000000" stroke-width="1.81" stroke-linejoin="bevel" points="212.599,1868.03 2763.78,1868.03"/>
<polyline class="StaffLines" fill="none" stroke="#000000" stroke-width="1.81" stroke-linejoin="bevel" points="212.599,1890.71 2763.78,1890.71"/>
<polyline class="StaffLines" fill="none" stroke="#000000" stroke-width="1.81" stroke-linejoin="bevel" points="212.599,1913.39 2763.78,1913.39"/>
<polyline class="StaffLines" fill="none" stroke="#000000" stroke-width="1.81" stroke-linejoin="bevel" points="212.599,1936.06 2763.78,1936.06"/>
<path class="MeasureNumber" d="M198.52,1797.19 C199.072,1797.19 199.893,1797.51 200.981,1798.16 C202.07,1798.82 203.026,1799.14 203.849,1799.14 C205.161,1799.14 206.273,1798.63 207.184,1797.6 C208.096,1796.58 208.552,1795.31 208.552,1793.81 C208.552,1792.88 208.39,1792.05 208.067,1791.34 C207.744,1790.62 207.33,1790.07 206.825,1789.68 C206.32,1789.29 205.721,1788.97 205.028,1788.72 C204.335,1788.47 203.682,1788.31 203.067,1788.23 C202.453,1788.16 201.796,1788.13 201.099,1788.13 L201.099,1787.66 C201.921,1787.36 202.627,1787.08 203.216,1786.8 C203.804,1786.53 204.421,1786.16 205.067,1785.69 C205.713,1785.22 206.21,1784.65 206.559,1783.98 C206.908,1783.3 207.083,1782.54 207.083,1781.67 C207.083,1780.55 206.716,1779.63 205.981,1778.91 C205.247,1778.19 204.291,1777.83 203.114,1777.83 C201.989,1777.83 201.002,1778.13 200.153,1778.74 C199.304,1779.35 198.505,1780.32 197.755,1781.64 L197.224,1781.5 C197.849,1779.79 198.695,1778.39 199.763,1777.3 C200.83,1776.22 202.343,1775.67 204.302,1775.67 C205.958,1775.67 207.309,1776.13 208.356,1777.04 C209.403,1777.95 209.927,1779.14 209.927,1780.59 C209.927,1781.58 209.674,1782.45 209.169,1783.2 C208.664,1783.94 207.786,1784.73 206.536,1785.56 C207.984,1786.19 209.114,1786.98 209.927,1787.95 C210.739,1788.92 211.145,1790.3 211.145,1792.09 C211.145,1794.65 210.205,1796.68 208.325,1798.21 C206.445,1799.74 204.072,1800.5 201.208,1800.5 C199.968,1800.5 198.981,1800.32 198.247,1799.95 C197.513,1799.58 197.145,1799.08 197.145,1798.45 C197.145,1798.07 197.27,1797.76 197.52,1797.53 C197.77,1797.3 198.104,1797.19 198.52,1797.19 M220.192,1778.66 C219.755,1778.66 218.89,1778.92 217.599,1779.45 L217.599,1778.94 L224.067,1775.67 L224.364,1775.73 L224.364,1797.34 C224.364,1798.2 224.58,1798.76 225.013,1799.02 C225.445,1799.29 226.369,1799.43 227.786,1799.45 L227.786,1800 L217.849,1800 L217.849,1799.45 C219.192,1799.41 220.099,1799.22 220.567,1798.87 C221.036,1798.52 221.27,1797.78 221.27,1796.66 L221.27,1780.34 C221.27,1779.22 220.911,1778.66 220.192,1778.66"/>
<path class="MeasureNumber" d="M195.708,1351.96 C195.833,1351.41 195.955,1350.93 196.075,1350.52 C196.195,1350.12 196.453,1349.53 196.849,1348.75 C197.244,1347.98 197.687,1347.33 198.177,1346.82 C198.666,1346.31 199.351,1345.85 200.231,1345.45 C201.112,1345.04 202.104,1344.84 203.208,1344.84 C205.072,1344.84 206.648,1345.45 207.934,1346.67 C209.221,1347.88 209.864,1349.38 209.864,1351.17 C209.864,1353.88 208.328,1356.85 205.255,1360.06 L199.208,1366.4 L207.802,1366.4 C208.625,1366.4 209.234,1366.26 209.63,1365.99 C210.026,1365.71 210.557,1365.06 211.224,1364.02 L211.692,1364.2 L209.724,1369.13 L195.677,1369.13 L195.677,1368.7 L202.083,1361.9 C205.208,1358.59 206.77,1355.47 206.77,1352.54 C206.77,1351.03 206.302,1349.81 205.364,1348.87 C204.427,1347.93 203.203,1347.46 201.692,1347.46 C200.442,1347.46 199.44,1347.8 198.684,1348.49 C197.929,1349.17 197.192,1350.39 196.474,1352.15 L195.708,1351.96 M228.755,1345.31 L228.755,1345.87 L221.13,1369.42 L218.786,1369.42 L225.911,1347.93 L218.099,1347.93 C217.119,1347.93 216.372,1348.11 215.856,1348.47 C215.341,1348.83 214.697,1349.62 213.927,1350.85 L213.317,1350.57 L215.442,1345.31 L228.755,1345.31 "/>
<path class="MeasureNumber" d="M196.208,921.096 C196.333,920.544 196.455,920.065 196.575,919.658 C196.695,919.252 196.953,918.661 197.349,917.885 C197.744,917.109 198.187,916.466 198.677,915.955 C199.166,915.445 199.851,914.987 200.731,914.58 C201.612,914.174 202.604,913.971 203.708,913.971 C205.572,913.971 207.148,914.58 208.434,915.799 C209.721,917.018 210.364,918.518 210.364,920.299 C210.364,923.018 208.828,925.981 205.755,929.19 L199.708,935.533 L208.302,935.533 C209.125,935.533 209.734,935.395 210.13,935.119 C210.526,934.843 211.057,934.19 211.724,933.158 L212.192,933.33 L210.224,938.268 L196.177,938.268 L196.177,937.83 L202.583,931.033 C205.708,927.721 207.27,924.601 207.27,921.674 C207.27,920.164 206.802,918.94 205.864,918.002 C204.927,917.065 203.703,916.596 202.192,916.596 C200.942,916.596 199.94,916.937 199.184,917.619 C198.429,918.302 197.692,919.523 196.974,921.283 L196.208,921.096 M216.02,935.455 C216.572,935.455 217.393,935.781 218.481,936.432 C219.57,937.083 220.526,937.408 221.349,937.408 C222.661,937.408 223.773,936.895 224.684,935.869 C225.596,934.843 226.052,933.58 226.052,932.08 C226.052,931.143 225.89,930.317 225.567,929.604 C225.244,928.89 224.83,928.338 224.325,927.947 C223.82,927.557 223.221,927.237 222.528,926.987 C221.835,926.737 221.182,926.575 220.567,926.502 C219.953,926.429 219.296,926.393 218.599,926.393 L218.599,925.924 C219.421,925.632 220.127,925.349 220.716,925.072 C221.304,924.796 221.921,924.424 222.567,923.955 C223.213,923.487 223.71,922.916 224.059,922.244 C224.408,921.572 224.583,920.804 224.583,919.94 C224.583,918.815 224.216,917.893 223.481,917.174 C222.747,916.455 221.791,916.096 220.614,916.096 C219.489,916.096 218.502,916.401 217.653,917.01 C216.804,917.619 216.005,918.585 215.255,919.908 L214.724,919.768 C215.349,918.059 216.195,916.661 217.263,915.572 C218.33,914.484 219.843,913.94 221.802,913.94 C223.458,913.94 224.809,914.395 225.856,915.307 C226.903,916.218 227.427,917.403 227.427,918.862 C227.427,919.851 227.174,920.718 226.669,921.463 C226.164,922.208 225.286,922.997 224.036,923.83 C225.484,924.455 226.614,925.252 227.427,926.221 C228.239,927.19 228.645,928.57 228.645,930.362 C228.645,932.914 227.705,934.953 225.825,936.479 C223.945,938.005 221.572,938.768 218.708,938.768 C217.468,938.768 216.481,938.583 215.747,938.213 C215.013,937.843 214.645,937.346 214.645,936.721 C214.645,936.335 214.77,936.028 215.02,935.799 C215.27,935.57 215.604,935.455 216.02,935.455"/>
<path class="MeasureNumber" d="M199.692,486.058 C199.255,486.058 198.39,486.324 197.099,486.855 L197.099,486.339 L203.567,483.074 L203.864,483.136 L203.864,504.745 C203.864,505.6 204.08,506.159 204.513,506.425 C204.945,506.691 205.869,506.834 207.286,506.855 L207.286,507.402 L197.349,507.402 L197.349,506.855 C198.692,506.813 199.599,506.618 200.067,506.269 C200.536,505.92 200.77,505.183 200.77,504.058 L200.77,487.745 C200.77,486.62 200.411,486.058 199.692,486.058 M213.224,508.199 L213.114,507.48 C215.854,506.99 218.177,505.818 220.083,503.964 C221.989,502.11 223.312,499.714 224.052,496.777 C222.281,498.172 220.484,498.87 218.661,498.87 C216.713,498.87 215.145,498.196 213.958,496.847 C212.77,495.498 212.177,493.73 212.177,491.542 C212.177,489.105 212.89,487.071 214.317,485.441 C215.744,483.811 217.526,482.995 219.661,482.995 C221.994,482.995 223.903,483.949 225.388,485.855 C226.872,487.761 227.614,490.209 227.614,493.199 C227.614,494.157 227.531,495.141 227.364,496.152 C227.197,497.162 226.809,498.357 226.2,499.738 C225.591,501.118 224.794,502.355 223.809,503.449 C222.825,504.542 221.421,505.534 219.599,506.425 C217.776,507.316 215.651,507.907 213.224,508.199 M219.958,497.292 C220.406,497.292 220.919,497.225 221.497,497.089 C222.075,496.954 222.658,496.665 223.247,496.222 C223.835,495.779 224.13,495.235 224.13,494.589 L224.13,493.199 C224.13,487.115 222.546,484.074 219.38,484.074 C218.63,484.074 217.992,484.271 217.466,484.667 C216.94,485.063 216.539,485.584 216.263,486.23 C215.987,486.876 215.789,487.534 215.669,488.206 C215.549,488.878 215.489,489.584 215.489,490.324 C215.489,492.449 215.89,494.141 216.692,495.402 C217.494,496.662 218.583,497.292 219.958,497.292"/>
<path class="TieSegment" stroke="#000000" stroke-width="1.59" stroke-linecap="round" stroke-linejoin="round" fill-rule="evenodd" d="M2290.7,1930.39 C2330.76,1958.06 2450.92,1958.06 2490.97,1930.39 C2450.92,1961.69 2330.76,1961.69 2290.7,1930.39"/>
<path class="TieSegment" stroke="#000000" stroke-width="1.59" stroke-linecap="round" stroke-linejoin="round" fill-rule="evenodd" d="M2186.66,1935.2 C2205.68,1947.84 2262.73,1947.84 2281.75,1935.2 C2262.73,1951.47 2205.68,1951.47 2186.66,1935.2"/>
<path class="TieSegment" stroke="#000000" stroke-width="1.59" stroke-linecap="round" stroke-linejoin="round" fill-rule="evenodd" d="M1430.17,1930.39 C1470.11,1958.06 1589.92,1958.06 1629.86,1930.39 C1589.92,1961.69 1470.11,1961.69 1430.17,1930.39"/>
<path class="TieSegment" stroke="#000000" stroke-width="1.59" stroke-linecap="round" stroke-linejoin="round" fill-rule="evenodd" d="M1326.13,1935.2 C1345.14,1947.84 1402.2,1947.84 1421.21,1935.2 C1402.2,1951.47 1345.14,1951.47 1326.13,1935.2"/>
<path class="TieSegment" stroke="#000000" stroke-width="1.59" stroke-linecap="round" stroke-linejoin="round" fill-rule="evenodd" d="M2290.7,1930.39 C2330.76,1958.06 2450.92,1958.06 2490.97,1930.39 C2450.92,1961.69 2330.76,1961.69 2290.7,1930.39"/>
<path class="TieSegment" stroke="#000000" stroke-width="1.59" stroke-linecap="round" stroke-linejoin="round" fill-rule="evenodd" d="M2186.66,1935.2 C2205.68,1947.84 2262.73,1947.84 2281.75,1935.2 C2262.73,1951.47 2205.68,1951.47 2186.66,1935.2"/>
<path class="TieSegment" stroke="#000000" stroke-width="1.59" stroke-linecap="round" stroke-linejoin="round" fill-rule="evenodd" d="M1430.17,1930.39 C1470.11,1958.06 1589.92,1958.06 1629.86,1930.39 C1589.92,1961.69 1470.11,1961.69 1430.17,1930.39"/>
<path class="TieSegment" stroke="#000000" stroke-width="1.59" stroke-linecap="round" stroke-linejoin="round" fill-rule="evenodd" d="M1326.13,1935.2 C1345.14,1947.84 1402.2,1947.84 1421.21,1935.2 C1402.2,1951.47 1345.14,1951.47 1326.13,1935.2"/>
<path class="TieSegment" stroke="#000000" stroke-width="1.59" stroke-linecap="round" stroke-linejoin="round" fill-rule="evenodd" d="M1948.36,1488.19 C2009.63,1515.86 2193.43,1515.86 2254.69,1488.19 C2193.43,1519.48 2009.63,1519.48 1948.36,1488.19"/>
<path class="TieSegment" stroke="#000000" stroke-width="1.59" stroke-linecap="round" stroke-linejoin="round" fill-rule="evenodd" d="M1778.02,1488.19 C1810.3,1510.9 1907.13,1510.9 1939.4,1488.19 C1907.13,1514.53 1810.3,1514.53 1778.02,1488.19"/>
<path class="TieSegment" stroke="#000000" stroke-width="1.59" stroke-linecap="round" stroke-linejoin="round" fill-rule="evenodd" d="M409.022,1442.83 C517.821,1411.54 844.215,1411.54 953.013,1442.83 C844.215,1415.17 517.821,1415.17 409.022,1442.83"/>
<path class="TieSegment" stroke="#000000" stroke-width="1.59" stroke-linecap="round" stroke-linejoin="round" fill-rule="evenodd" d="M1948.36,1488.19 C2009.63,1515.86 2193.43,1515.86 2254.69,1488.19 C2193.43,1519.48 2009.63,1519.48 1948.36,1488.19"/>
<path class="TieSegment" stroke="#000000" stroke-width="1.59" stroke-linecap="round" stroke-linejoin="round" fill-rule="evenodd" d="M1778.02,1488.19 C1810.3,1510.9 1907.13,1510.9 1939.4,1488.19 C1907.13,1514.53 1810.3,1514.53 1778.02,1488.19"/>
<path class="TieSegment" stroke="#000000" stroke-width="1.59" stroke-linecap="round" stroke-linejoin="round" fill-rule="evenodd" d="M409.022,1442.83 C517.821,1411.54 844.215,1411.54 953.013,1442.83 C844.215,1415.17 517.821,1415.17 409.022,1442.83"/>
<path class="TieSegment" stroke="#000000" stroke-width="1.59" stroke-linecap="round" stroke-linejoin="round" fill-rule="evenodd" d="M1885.49,1011.97 C1944.46,980.674 2121.36,980.674 2180.32,1011.97 C2121.36,984.302 1944.46,984.302 1885.49,1011.97"/>
<path class="TieSegment" stroke="#000000" stroke-width="1.59" stroke-linecap="round" stroke-linejoin="round" fill-rule="evenodd" d="M1721.99,1011.97 C1752.9,986.663 1845.63,986.663 1876.54,1011.97 C1845.63,990.292 1752.9,990.292 1721.99,1011.97"/>
<path class="TieSegment" stroke="#000000" stroke-width="1.59" stroke-linecap="round" stroke-linejoin="round" fill-rule="evenodd" d="M409.022,1000.63 C512.901,969.336 824.536,969.336 928.414,1000.63 C824.536,972.964 512.901,972.964 409.022,1000.63"/>
<path class="TieSegment" stroke="#000000" stroke-width="1.59" stroke-linecap="round" stroke-linejoin="round" fill-rule="evenodd" d="M1885.49,1011.97 C1944.46,980.674 2121.36,980.674 2180.32,1011.97 C2121.36,984.302 1944.46,984.302 1885.49,1011.97"/>
<path class="TieSegment" stroke="#000000" stroke-width="1.59" stroke-linecap="round" stroke-linejoin="round" fill-rule="evenodd" d="M1721.99,1011.97 C1752.9,986.663 1845.63,986.663 1876.54,1011.97 C1845.63,990.292 1752.9,990.292 1721.99,1011.97"/>
<path class="TieSegment" stroke="#000000" stroke-width="1.59" stroke-linecap="round" stroke-linejoin="round" fill-rule="evenodd" d="M409.022,1000.63 C512.901,969.336 824.536,969.336 928.414,1000.63 C824.536,972.964 512.901,972.964 409.022,1000.63"/>
<path class="TieSegment" stroke="#000000" stroke-width="1.59" stroke-linecap="round" stroke-linejoin="round" fill-rule="evenodd" d="M1908.26,569.764 C1965.82,538.469 2138.52,538.469 2196.08,569.764 C2138.52,542.098 1965.82,542.098 1908.26,569.764"/>
<path class="TieSegment" stroke="#000000" stroke-width="1.59" stroke-linecap="round" stroke-linejoin="round" fill-rule="evenodd" d="M1749.13,569.764 C1779.17,545.124 1869.27,545.124 1899.3,569.764 C1869.27,548.752 1779.17,548.752 1749.13,569.764"/>
<path class="TieSegment" stroke="#000000" stroke-width="1.59" stroke-linecap="round" stroke-linejoin="round" fill-rule="evenodd" d="M472.06,558.425 C572.786,527.131 874.965,527.131 975.692,558.425 C874.965,530.759 572.786,530.759 472.06,558.425"/>
<path class="TieSegment" stroke="#000000" stroke-width="1.59" stroke-linecap="round" stroke-linejoin="round" fill-rule="evenodd" d="M1908.26,569.764 C1965.82,538.469 2138.52,538.469 2196.08,569.764 C2138.52,542.098 1965.82,542.098 1908.26,569.764"/>
<path class="TieSegment" stroke="#000000" stroke-width="1.59" stroke-linecap="round" stroke-linejoin="round" fill-rule="evenodd" d="M1749.13,569.764 C1779.17,545.124 1869.27,545.124 1899.3,569.764 C1869.27,548.752 1779.17,548.752 1749.13,569.764"/>
<path class="TieSegment" stroke="#000000" stroke-width="1.59" stroke-linecap="round" stroke-linejoin="round" fill-rule="evenodd" d="M472.06,558.425 C572.786,527.131 874.965,527.131 975.692,558.425 C874.965,530.759 572.786,530.759 472.06,558.425"/>
<polyline class="BarLine" stroke="#000000" stroke-width="3.63" stroke-linejoin="bevel" points="2743.37,1844.45 2743.37,1936.97"/>
<polyline class="BarLine" stroke="#000000" stroke-width="11.34" stroke-linejoin="bevel" points="2758.11,1844.45 2758.11,1936.97"/>
<polyline class="BarLine" stroke="#000000" stroke-width="3.63" stroke-linejoin="bevel" points="2439.58,1844.45 2439.58,1936.97"/>
<path class="BarLine" transform="matrix(0.907087,0,0,0.907087,1995.63,1890.71)" d="M1.66406,-8.5 C0.554688,-9.60417 0,-10.9375 0,-12.5 C0,-14.0625 0.554688,-15.3984 1.66406,-16.5078 C2.77344,-17.6172 4.10938,-18.1719 5.67188,-18.1719 C7.23438,-18.1719 8.56771,-17.6172 9.67188,-16.5078 C10.776,-15.3984 11.3281,-14.0625 11.3281,-12.5 C11.3281,-10.9375 10.776,-9.60417 9.67188,-8.5 C8.56771,-7.39583 7.23438,-6.84375 5.67188,-6.84375 C4.10938,-6.84375 2.77344,-7.39583 1.66406,-8.5"/>
<path class="BarLine" transform="matrix(0.907087,0,0,0.907087,1995.63,1913.39)" d="M1.66406,-8.5 C0.554688,-9.60417 0,-10.9375 0,-12.5 C0,-14.0625 0.554688,-15.3984 1.66406,-16.5078 C2.77344,-17.6172 4.10938,-18.1719 5.67188,-18.1719 C7.23438,-18.1719 8.56771,-17.6172 9.67188,-16.5078 C10.776,-15.3984 11.3281,-14.0625 11.3281,-12.5 C11.3281,-10.9375 10.776,-9.60417 9.67188,-8.5 C8.56771,-7.39583 7.23438,-6.84375 5.67188,-6.84375 C4.10938,-6.84375 2.77344,-7.39583 1.66406,-8.5"/>
<polyline class="BarLine" stroke="#000000" stroke-width="3.63" stroke-linejoin="bevel" points="2015.06,1844.45 2015.06,1936.97"/>
<polyline class="BarLine" stroke="#000000" stroke-width="11.34" stroke-linejoin="bevel" points="2029.8,1844.45 2029.8,1936.97"/>
<polyline class="BarLine" stroke="#000000" stroke-width="3.63" stroke-linejoin="bevel" points="1579.05,1844.45 1579.05,1936.97"/>
<polyline class="BarLine" stroke="#000000" stroke-width="3.63" stroke-linejoin="bevel" points="1173.65,1844.45 1173.65,1936.97"/>
<polyline class="BarLine" stroke="#000000" stroke-width="3.63" stroke-linejoin="bevel" points="766.587,1844.45 766.587,1936.97"/>
<polyline class="BarLine" stroke="#000000" stroke-width="3.63" stroke-linejoin="bevel" points="2761.96,1413.58 2761.96,1506.1"/>
<polyline class="BarLine" stroke="#000000" stroke-width="3.63" stroke-linejoin="bevel" points="2203.31,1413.58 2203.31,1506.1"/>
<polyline class="BarLine" stroke="#000000" stroke-width="3.63" stroke-linejoin="bevel" points="1559.25,1413.58 1559.25,1506.1"/>
<polyline class="BarLine" stroke="#000000" stroke-width="3.63" stroke-linejoin="bevel" points="902.198,1413.58 902.198,1506.1"/>
<polyline class="BarLine" stroke="#000000" stroke-width="3.63" stroke-linejoin="bevel" points="2761.96,982.715 2761.96,1075.24"/>
<polyline class="BarLine" stroke="#000000" stroke-width="3.63" stroke-linejoin="bevel" points="2129.51,982.715 2129.51,1075.24"/>
<polyline class="BarLine" stroke="#000000" stroke-width="3.63" stroke-linejoin="bevel" points="1510.05,982.715 1510.05,1075.24"/>
<polyline class="BarLine" stroke="#000000" stroke-width="3.63" stroke-linejoin="bevel" points="877.599,982.715 877.599,1075.24"/>
<polyline class="BarLine" stroke="#000000" stroke-width="3.63" stroke-linejoin="bevel" points="2761.96,551.849 2761.96,644.372"/>
<polyline class="BarLine" stroke="#000000" stroke-width="3.63" stroke-linejoin="bevel" points="2145.27,551.849 2145.27,644.372"/>
<polyline class="BarLine" stroke="#000000" stroke-width="3.63" stroke-linejoin="bevel" points="1541.57,551.849 1541.57,644.372"/>
<polyline class="BarLine" stroke="#000000" stroke-width="3.63" stroke-linejoin="bevel" points="924.877,551.849 924.877,644.372"/>
<polyline class="BarLine" stroke="#000000" stroke-width="11.34" stroke-linejoin="bevel" points="360.206,551.849 360.206,644.372"/>
<polyline class="BarLine" stroke="#000000" stroke-width="3.63" stroke-linejoin="bevel" points="374.946,551.849 374.946,644.372"/>
<path class="BarLine" transform="matrix(0.907087,0,0,0.907087,384.087,598.11)" d="M1.66406,-8.5 C0.554688,-9.60417 0,-10.9375 0,-12.5 C0,-14.0625 0.554688,-15.3984 1.66406,-16.5078 C2.77344,-17.6172 4.10938,-18.1719 5.67188,-18.1719 C7.23438,-18.1719 8.56771,-17.6172 9.67188,-16.5078 C10.776,-15.3984 11.3281,-14.0625 11.3281,-12.5 C11.3281,-10.9375 10.776,-9.60417 9.67188,-8.5 C8.56771,-7.39583 7.23438,-6.84375 5.67188,-6.84375 C4.10938,-6.84375 2.77344,-7.39583 1.66406,-8.5"/>
<path class="BarLine" transform="matrix(0.907087,0,0,0.907087,384.087,620.787)" d="M1.66406,-8.5 C0.554688,-9.60417 0,-10.9375 0,-12.5 C0,-14.0625 0.554688,-15.3984 1.66406,-16.5078 C2.77344,-17.6172 4.10938,-18.1719 5.67188,-18.1719 C7.23438,-18.1719 8.56771,-17.6172 9.67188,-16.5078 C10.776,-15.3984 11.3281,-14.0625 11.3281,-12.5 C11.3281,-10.9375 10.776,-9.60417 9.67188,-8.5 C8.56771,-7.39583 7.23438,-6.84375 5.67188,-6.84375 C4.10938,-6.84375 2.77344,-7.39583 1.66406,-8.5"/>
<polyline class="Stem" stroke="#000000" stroke-width="2.95" stroke-linecap="round" stroke-linejoin="bevel" points="2509.97,1909.9 2509.97,1836.85"/>
<polyline class="Stem" stroke="#000000" stroke-width="2.95" stroke-linecap="round" stroke-linejoin="bevel" points="2299.68,1909.13 2299.68,1836.85"/>
<polyline class="Stem" stroke="#000000" stroke-width="2.95" stroke-linecap="round" stroke-linejoin="bevel" points="2195.63,1909.13 2195.63,1845.35"/>
<polyline class="Stem" stroke="#000000" stroke-width="2.95" stroke-linecap="round" stroke-linejoin="bevel" points="2091.59,1897.79 2091.59,1839.69"/>
<polyline class="Stem" stroke="#000000" stroke-width="2.95" stroke-linecap="round" stroke-linejoin="bevel" points="1929.96,1875.11 1929.96,1805.67"/>
<polyline class="Stem" stroke="#000000" stroke-width="2.95" stroke-linecap="round" stroke-linejoin="bevel" points="1835.91,1886.45 1835.91,1813.23"/>
<polyline class="Stem" stroke="#000000" stroke-width="2.95" stroke-linecap="round" stroke-linejoin="bevel" points="1741.85,1886.45 1741.85,1820.79"/>
<polyline class="Stem" stroke="#000000" stroke-width="2.95" stroke-linecap="round" stroke-linejoin="bevel" points="1647.8,1909.13 1647.8,1828.35"/>
<polyline class="Stem" stroke="#000000" stroke-width="2.95" stroke-linecap="round" stroke-linejoin="bevel" points="1439.15,1909.13 1439.15,1836.85"/>
<polyline class="Stem" stroke="#000000" stroke-width="2.95" stroke-linecap="round" stroke-linejoin="bevel" points="1335.1,1909.13 1335.1,1845.35"/>
<polyline class="Stem" stroke="#000000" stroke-width="2.95" stroke-linecap="round" stroke-linejoin="bevel" points="1231.06,1897.79 1231.06,1839.69"/>
<polyline class="Stem" stroke="#000000" stroke-width="2.95" stroke-linecap="round" stroke-linejoin="bevel" points="1079.25,1894.97 1079.25,1975.75"/>
<polyline class="Stem" stroke="#000000" stroke-width="2.95" stroke-linecap="round" stroke-linejoin="bevel" points="985.197,1883.63 985.197,1975.75"/>
<polyline class="Stem" stroke="#000000" stroke-width="2.95" stroke-linecap="round" stroke-linejoin="bevel" points="891.142,1906.31 891.142,1975.75"/>
<polyline class="Stem" stroke="#000000" stroke-width="2.95" stroke-linecap="round" stroke-linejoin="bevel" points="797.087,1894.97 797.087,1975.75"/>
<polyline class="Stem" stroke="#000000" stroke-width="2.95" stroke-linecap="round" stroke-linejoin="bevel" points="672.191,1883.63 672.191,1953.07"/>
<polyline class="Stem" stroke="#000000" stroke-width="2.95" stroke-linecap="round" stroke-linejoin="bevel" points="578.136,1872.29 578.136,1951.18"/>
<polyline class="Stem" stroke="#000000" stroke-width="2.95" stroke-linecap="round" stroke-linejoin="bevel" points="484.081,1872.29 484.081,1949.29"/>
<polyline class="Stem" stroke="#000000" stroke-width="2.95" stroke-linecap="round" stroke-linejoin="bevel" points="390.026,1872.29 390.026,1947.4"/>
<polyline class="Stem" stroke="#000000" stroke-width="2.95" stroke-linecap="round" stroke-linejoin="bevel" points="2273.69,1467.7 2273.69,1397.48"/>
<polyline class="Stem" stroke="#000000" stroke-width="2.95" stroke-linecap="round" stroke-linejoin="bevel" points="1957.33,1466.92 1957.33,1397.48"/>
<polyline class="Stem" stroke="#000000" stroke-width="2.95" stroke-linecap="round" stroke-linejoin="bevel" points="1787,1466.92 1787,1397.48"/>
<polyline class="Stem" stroke="#000000" stroke-width="2.95" stroke-linecap="round" stroke-linejoin="bevel" points="1616.66,1455.58 1616.66,1391.81"/>
<polyline class="Stem" stroke="#000000" stroke-width="2.95" stroke-linecap="round" stroke-linejoin="bevel" points="1432.1,1444.24 1432.1,1374.8"/>
<polyline class="Stem" stroke="#000000" stroke-width="2.95" stroke-linecap="round" stroke-linejoin="bevel" points="1278.38,1432.91 1278.38,1374.8"/>
<polyline class="Stem" stroke="#000000" stroke-width="2.95" stroke-linecap="round" stroke-linejoin="bevel" points="1124.66,1444.24 1124.66,1374.8"/>
<polyline class="Stem" stroke="#000000" stroke-width="2.95" stroke-linecap="round" stroke-linejoin="bevel" points="970.945,1455.58 970.945,1374.8"/>
<polyline class="Stem" stroke="#000000" stroke-width="2.95" stroke-linecap="round" stroke-linejoin="bevel" points="390.026,1463.4 390.026,1530.71"/>
<polyline class="Stem" stroke="#000000" stroke-width="2.95" stroke-linecap="round" stroke-linejoin="bevel" points="2640.96,1036.06 2640.96,966.614"/>
<polyline class="Stem" stroke="#000000" stroke-width="2.95" stroke-linecap="round" stroke-linejoin="bevel" points="2493.39,1047.39 2493.39,964.724"/>
<polyline class="Stem" stroke="#000000" stroke-width="2.95" stroke-linecap="round" stroke-linejoin="bevel" points="2345.82,1047.39 2345.82,962.835"/>
<polyline class="Stem" stroke="#000000" stroke-width="2.95" stroke-linecap="round" stroke-linejoin="bevel" points="2198.26,1024.72 2198.26,960.945"/>
<polyline class="Stem" stroke="#000000" stroke-width="2.95" stroke-linecap="round" stroke-linejoin="bevel" points="1867.56,1033.24 1867.56,1099.84"/>
<polyline class="Stem" stroke="#000000" stroke-width="2.95" stroke-linecap="round" stroke-linejoin="bevel" points="1704.06,1033.24 1704.06,1097.01"/>
<polyline class="Stem" stroke="#000000" stroke-width="2.95" stroke-linecap="round" stroke-linejoin="bevel" points="1540.55,1021.9 1540.55,1091.34"/>
<polyline class="Stem" stroke="#000000" stroke-width="2.95" stroke-linecap="round" stroke-linejoin="bevel" points="1362.14,1010.56 1362.14,1074.33"/>
<polyline class="Stem" stroke="#000000" stroke-width="2.95" stroke-linecap="round" stroke-linejoin="bevel" points="1214.58,999.22 1214.58,1076.22"/>
<polyline class="Stem" stroke="#000000" stroke-width="2.95" stroke-linecap="round" stroke-linejoin="bevel" points="1067.01,1010.56 1067.01,1078.11"/>
<polyline class="Stem" stroke="#000000" stroke-width="2.95" stroke-linecap="round" stroke-linejoin="bevel" points="919.438,1021.9 919.438,1080"/>
<polyline class="Stem" stroke="#000000" stroke-width="2.95" stroke-linecap="round" stroke-linejoin="bevel" points="390.026,1021.19 390.026,1091.34"/>
<polyline class="Stem" stroke="#000000" stroke-width="2.95" stroke-linecap="round" stroke-linejoin="bevel" points="2617.99,602.369 2617.99,671.811"/>
<polyline class="Stem" stroke="#000000" stroke-width="2.95" stroke-linecap="round" stroke-linejoin="bevel" points="2474.36,613.708 2474.36,671.811"/>
<polyline class="Stem" stroke="#000000" stroke-width="2.95" stroke-linecap="round" stroke-linejoin="bevel" points="2330.74,613.708 2330.74,671.811"/>
<polyline class="Stem" stroke="#000000" stroke-width="2.95" stroke-linecap="round" stroke-linejoin="bevel" points="2187.11,591.031 2187.11,671.811"/>
<polyline class="Stem" stroke="#000000" stroke-width="2.95" stroke-linecap="round" stroke-linejoin="bevel" points="1890.33,591.031 1890.33,660.473"/>
<polyline class="Stem" stroke="#000000" stroke-width="2.95" stroke-linecap="round" stroke-linejoin="bevel" points="1731.2,591.031 1731.2,649.134"/>
<polyline class="Stem" stroke="#000000" stroke-width="2.95" stroke-linecap="round" stroke-linejoin="bevel" points="1572.07,579.692 1572.07,643.465"/>
<polyline class="Stem" stroke="#000000" stroke-width="2.95" stroke-linecap="round" stroke-linejoin="bevel" points="1397.6,579.692 1397.6,666.142"/>
<polyline class="Stem" stroke="#000000" stroke-width="2.95" stroke-linecap="round" stroke-linejoin="bevel" points="1253.97,568.354 1253.97,666.142"/>
<polyline class="Stem" stroke="#000000" stroke-width="2.95" stroke-linecap="round" stroke-linejoin="bevel" points="1110.35,602.369 1110.35,666.142"/>
<polyline class="Stem" stroke="#000000" stroke-width="2.95" stroke-linecap="round" stroke-linejoin="bevel" points="966.716,579.692 966.716,666.142"/>
<polyline class="Stem" stroke="#000000" stroke-width="2.95" stroke-linecap="round" stroke-linejoin="bevel" points="453.063,578.989 453.063,651.969"/>
<path class="Note" transform="matrix(0.907087,0,0,0.907087,2479.95,1913.39)" d="M31.5469,-6.54688 C31.5469,-7.65104 31.125,-8.59375 30.2813,-9.375 C29.4271,-10.2188 28.4479,-10.6406 27.3438,-10.6406 C25.3958,-10.6406 21.4583,-8.6875 15.5313,-4.78125 C9.40625,-0.8125 5.66146,2.02083 4.29688,3.71875 C3.57813,4.625 3.21875,5.56771 3.21875,6.54688 C3.21875,7.65104 3.64583,8.59375 4.5,9.375 C5.28125,10.2188 6.25521,10.6406 7.42188,10.6406 C9.30729,10.6406 13.2813,8.6875 19.3438,4.78125 C25.3333,0.875 29.0417,-1.95833 30.4688,-3.71875 C31.1875,-4.5625 31.5469,-5.50521 31.5469,-6.54688 M26.375,-13.7656 C31.9688,-13.7656 34.7656,-11.3594 34.7656,-6.54688 C34.7656,-4.20313 34.0833,-1.46875 32.7188,1.65625 C31.3542,4.71875 29.5313,7.0625 27.25,8.6875 C22.2396,12.0729 15.9583,13.7656 8.40625,13.7656 C2.80208,13.7656 0,11.3594 0,6.54688 C0,4.40104 0.682292,1.69792 2.04688,-1.5625 C3.34896,-4.6875 5.17188,-7.0625 7.51563,-8.6875 C12.5365,-12.0729 18.8229,-13.7656 26.375,-13.7656"/>
<path class="Note" transform="matrix(0.907087,0,0,0.907087,2271.3,1913.39)" d="M21.9688,-13.7656 C25.0938,-13.7656 27.7344,-12.9531 29.8906,-11.3281 C31.901,-9.56771 32.9063,-7.35417 32.9063,-4.6875 C32.9063,-0.197917 30.599,4 25.9844,7.90625 C21.2969,11.8125 16.2813,13.7656 10.9375,13.7656 C7.8125,13.7656 5.17708,12.9531 3.03125,11.3281 C1.01042,9.56771 0,7.35417 0,4.6875 C0,0.197917 2.34375,-4 7.03125,-7.90625 C11.5938,-11.8125 16.5729,-13.7656 21.9688,-13.7656"/>
<path class="Note" transform="matrix(0.907087,0,0,0.907087,2167.25,1913.39)" d="M21.9688,-13.7656 C25.0938,-13.7656 27.7344,-12.9531 29.8906,-11.3281 C31.901,-9.56771 32.9063,-7.35417 32.9063,-4.6875 C32.9063,-0.197917 30.599,4 25.9844,7.90625 C21.2969,11.8125 16.2813,13.7656 10.9375,13.7656 C7.8125,13.7656 5.17708,12.9531 3.03125,11.3281 C1.01042,9.56771 0,7.35417 0,4.6875 C0,0.197917 2.34375,-4 7.03125,-7.90625 C11.5938,-11.8125 16.5729,-13.7656 21.9688,-13.7656"/>
<path class="Note" transform="matrix(0.907087,0,0,0.907087,2063.21,1902.05)" d="M21.9688,-13.7656 C25.0938,-13.7656 27.7344,-12.9531 29.8906,-11.3281 C31.901,-9.56771 32.9063,-7.35417 32.9063,-4.6875 C32.9063,-0.197917 30.599,4 25.9844,7.90625 C21.2969,11.8125 16.2813,13.7656 10.9375,13.7656 C7.8125,13.7656 5.17708,12.9531 3.03125,11.3281 C1.01042,9.56771 0,7.35417 0,4.6875 C0,0.197917 2.34375,-4 7.03125,-7.90625 C11.5938,-11.8125 16.5729,-13.7656 21.9688,-13.7656"/>
<path class="Note" transform="matrix(0.907087,0,0,0.907087,1901.58,1879.37)" d="M21.9688,-13.7656 C25.0938,-13.7656 27.7344,-12.9531 29.8906,-11.3281 C31.901,-9.56771 32.9063,-7.35417 32.9063,-4.6875 C32.9063,-0.197917 30.599,4 25.9844,7.90625 C21.2969,11.8125 16.2813,13.7656 10.9375,13.7656 C7.8125,13.7656 5.17708,12.9531 3.03125,11.3281 C1.01042,9.56771 0,7.35417 0,4.6875 C0,0.197917 2.34375,-4 7.03125,-7.90625 C11.5938,-11.8125 16.5729,-13.7656 21.9688,-13.7656"/>
<path class="Note" transform="matrix(0.907087,0,0,0.907087,1807.52,1890.71)" d="M21.9688,-13.7656 C25.0938,-13.7656 27.7344,-12.9531 29.8906,-11.3281 C31.901,-9.56771 32.9063,-7.35417 32.9063,-4.6875 C32.9063,-0.197917 30.599,4 25.9844,7.90625 C21.2969,11.8125 16.2813,13.7656 10.9375,13.7656 C7.8125,13.7656 5.17708,12.9531 3.03125,11.3281 C1.01042,9.56771 0,7.35417 0,4.6875 C0,0.197917 2.34375,-4 7.03125,-7.90625 C11.5938,-11.8125 16.5729,-13.7656 21.9688,-13.7656"/>
<path class="Note" transform="matrix(0.907087,0,0,0.907087,1713.47,1890.71)" d="M21.9688,-13.7656 C25.0938,-13.7656 27.7344,-12.9531 29.8906,-11.3281 C31.901,-9.56771 32.9063,-7.35417 32.9063,-4.6875 C32.9063,-0.197917 30.599,4 25.9844,7.90625 C21.2969,11.8125 16.2813,13.7656 10.9375,13.7656 C7.8125,13.7656 5.17708,12.9531 3.03125,11.3281 C1.01042,9.56771 0,7.35417 0,4.6875 C0,0.197917 2.34375,-4 7.03125,-7.90625 C11.5938,-11.8125 16.5729,-13.7656 21.9688,-13.7656"/>
<path class="Note" transform="matrix(0.907087,0,0,0.907087,1619.41,1913.39)" d="M21.9688,-13.7656 C25.0938,-13.7656 27.7344,-12.9531 29.8906,-11.3281 C31.901,-9.56771 32.9063,-7.35417 32.9063,-4.6875 C32.9063,-0.197917 30.599,4 25.9844,7.90625 C21.2969,11.8125 16.2813,13.7656 10.9375,13.7656 C7.8125,13.7656 5.17708,12.9531 3.03125,11.3281 C1.01042,9.56771 0,7.35417 0,4.6875 C0,0.197917 2.34375,-4 7.03125,-7.90625 C11.5938,-11.8125 16.5729,-13.7656 21.9688,-13.7656"/>
<path class="Note" transform="matrix(0.907087,0,0,0.907087,1410.76,1913.39)" d="M21.9688,-13.7656 C25.0938,-13.7656 27.7344,-12.9531 29.8906,-11.3281 C31.901,-9.56771 32.9063,-7.35417 32.9063,-4.6875 C32.9063,-0.197917 30.599,4 25.9844,7.90625 C21.2969,11.8125 16.2813,13.7656 10.9375,13.7656 C7.8125,13.7656 5.17708,12.9531 3.03125,11.3281 C1.01042,9.56771 0,7.35417 0,4.6875 C0,0.197917 2.34375,-4 7.03125,-7.90625 C11.5938,-11.8125 16.5729,-13.7656 21.9688,-13.7656"/>
<path class="Note" transform="matrix(0.907087,0,0,0.907087,1306.72,1913.39)" d="M21.9688,-13.7656 C25.0938,-13.7656 27.7344,-12.9531 29.8906,-11.3281 C31.901,-9.56771 32.9063,-7.35417 32.9063,-4.6875 C32.9063,-0.197917 30.599,4 25.9844,7.90625 C21.2969,11.8125 16.2813,13.7656 10.9375,13.7656 C7.8125,13.7656 5.17708,12.9531 3.03125,11.3281 C1.01042,9.56771 0,7.35417 0,4.6875 C0,0.197917 2.34375,-4 7.03125,-7.90625 C11.5938,-11.8125 16.5729,-13.7656 21.9688,-13.7656"/>
<path class="Note" transform="matrix(0.907087,0,0,0.907087,1202.67,1902.05)" d="M21.9688,-13.7656 C25.0938,-13.7656 27.7344,-12.9531 29.8906,-11.3281 C31.901,-9.56771 32.9063,-7.35417 32.9063,-4.6875 C32.9063,-0.197917 30.599,4 25.9844,7.90625 C21.2969,11.8125 16.2813,13.7656 10.9375,13.7656 C7.8125,13.7656 5.17708,12.9531 3.03125,11.3281 C1.01042,9.56771 0,7.35417 0,4.6875 C0,0.197917 2.34375,-4 7.03125,-7.90625 C11.5938,-11.8125 16.5729,-13.7656 21.9688,-13.7656"/>
<path class="Note" transform="matrix(0.907087,0,0,0.907087,1077.78,1890.71)" d="M21.9688,-13.7656 C25.0938,-13.7656 27.7344,-12.9531 29.8906,-11.3281 C31.901,-9.56771 32.9063,-7.35417 32.9063,-4.6875 C32.9063,-0.197917 30.599,4 25.9844,7.90625 C21.2969,11.8125 16.2813,13.7656 10.9375,13.7656 C7.8125,13.7656 5.17708,12.9531 3.03125,11.3281 C1.01042,9.56771 0,7.35417 0,4.6875 C0,0.197917 2.34375,-4 7.03125,-7.90625 C11.5938,-11.8125 16.5729,-13.7656 21.9688,-13.7656"/>
<path class="Note" transform="matrix(0.907087,0,0,0.907087,983.723,1879.37)" d="M21.9688,-13.7656 C25.0938,-13.7656 27.7344,-12.9531 29.8906,-11.3281 C31.901,-9.56771 32.9063,-7.35417 32.9063,-4.6875 C32.9063,-0.197917 30.599,4 25.9844,7.90625 C21.2969,11.8125 16.2813,13.7656 10.9375,13.7656 C7.8125,13.7656 5.17708,12.9531 3.03125,11.3281 C1.01042,9.56771 0,7.35417 0,4.6875 C0,0.197917 2.34375,-4 7.03125,-7.90625 C11.5938,-11.8125 16.5729,-13.7656 21.9688,-13.7656"/>
<path class="Note" transform="matrix(0.907087,0,0,0.907087,889.668,1902.05)" d="M21.9688,-13.7656 C25.0938,-13.7656 27.7344,-12.9531 29.8906,-11.3281 C31.901,-9.56771 32.9063,-7.35417 32.9063,-4.6875 C32.9063,-0.197917 30.599,4 25.9844,7.90625 C21.2969,11.8125 16.2813,13.7656 10.9375,13.7656 C7.8125,13.7656 5.17708,12.9531 3.03125,11.3281 C1.01042,9.56771 0,7.35417 0,4.6875 C0,0.197917 2.34375,-4 7.03125,-7.90625 C11.5938,-11.8125 16.5729,-13.7656 21.9688,-13.7656"/>
<path class="Note" transform="matrix(0.907087,0,0,0.907087,795.613,1890.71)" d="M21.9688,-13.7656 C25.0938,-13.7656 27.7344,-12.9531 29.8906,-11.3281 C31.901,-9.56771 32.9063,-7.35417 32.9063,-4.6875 C32.9063,-0.197917 30.599,4 25.9844,7.90625 C21.2969,11.8125 16.2813,13.7656 10.9375,13.7656 C7.8125,13.7656 5.17708,12.9531 3.03125,11.3281 C1.01042,9.56771 0,7.35417 0,4.6875 C0,0.197917 2.34375,-4 7.03125,-7.90625 C11.5938,-11.8125 16.5729,-13.7656 21.9688,-13.7656"/>
<path class="Note" transform="matrix(0.907087,0,0,0.907087,670.717,1879.37)" d="M21.9688,-13.7656 C25.0938,-13.7656 27.7344,-12.9531 29.8906,-11.3281 C31.901,-9.56771 32.9063,-7.35417 32.9063,-4.6875 C32.9063,-0.197917 30.599,4 25.9844,7.90625 C21.2969,11.8125 16.2813,13.7656 10.9375,13.7656 C7.8125,13.7656 5.17708,12.9531 3.03125,11.3281 C1.01042,9.56771 0,7.35417 0,4.6875 C0,0.197917 2.34375,-4 7.03125,-7.90625 C11.5938,-11.8125 16.5729,-13.7656 21.9688,-13.7656"/>
<path class="Note" transform="matrix(0.907087,0,0,0.907087,576.662,1868.03)" d="M21.9688,-13.7656 C25.0938,-13.7656 27.7344,-12.9531 29.8906,-11.3281 C31.901,-9.56771 32.9063,-7.35417 32.9063,-4.6875 C32.9063,-0.197917 30.599,4 25.9844,7.90625 C21.2969,11.8125 16.2813,13.7656 10.9375,13.7656 C7.8125,13.7656 5.17708,12.9531 3.03125,11.3281 C1.01042,9.56771 0,7.35417 0,4.6875 C0,0.197917 2.34375,-4 7.03125,-7.90625 C11.5938,-11.8125 16.5729,-13.7656 21.9688,-13.7656"/>
<path class="Note" transform="matrix(0.907087,0,0,0.907087,482.607,1868.03)" d="M21.9688,-13.7656 C25.0938,-13.7656 27.7344,-12.9531 29.8906,-11.3281 C31.901,-9.56771 32.9063,-7.35417 32.9063,-4.6875 C32.9063,-0.197917 30.599,4 25.9844,7.90625 C21.2969,11.8125 16.2813,13.7656 10.9375,13.7656 C7.8125,13.7656 5.17708,12.9531 3.03125,11.3281 C1.01042,9.56771 0,7.35417 0,4.6875 C0,0.197917 2.34375,-4 7.03125,-7.90625 C11.5938,-11.8125 16.5729,-13.7656 21.9688,-13.7656"/>
<path class="Note" transform="matrix(0.907087,0,0,0.907087,388.552,1868.03)" d="M21.9688,-13.7656 C25.0938,-13.7656 27.7344,-12.9531 29.8906,-11.3281 C31.901,-9.56771 32.9063,-7.35417 32.9063,-4.6875 C32.9063,-0.197917 30.599,4 25.9844,7.90625 C21.2969,11.8125 16.2813,13.7656 10.9375,13.7656 C7.8125,13.7656 5.17708,12.9531 3.03125,11.3281 C1.01042,9.56771 0,7.35417 0,4.6875 C0,0.197917 2.34375,-4 7.03125,-7.90625 C11.5938,-11.8125 16.5729,-13.7656 21.9688,-13.7656"/>
<path class="Note" transform="matrix(0.907087,0,0,0.907087,2243.67,1471.18)" d="M31.5469,-6.54688 C31.5469,-7.65104 31.125,-8.59375 30.2813,-9.375 C29.4271,-10.2188 28.4479,-10.6406 27.3438,-10.6406 C25.3958,-10.6406 21.4583,-8.6875 15.5313,-4.78125 C9.40625,-0.8125 5.66146,2.02083 4.29688,3.71875 C3.57813,4.625 3.21875,5.56771 3.21875,6.54688 C3.21875,7.65104 3.64583,8.59375 4.5,9.375 C5.28125,10.2188 6.25521,10.6406 7.42188,10.6406 C9.30729,10.6406 13.2813,8.6875 19.3438,4.78125 C25.3333,0.875 29.0417,-1.95833 30.4688,-3.71875 C31.1875,-4.5625 31.5469,-5.50521 31.5469,-6.54688 M26.375,-13.7656 C31.9688,-13.7656 34.7656,-11.3594 34.7656,-6.54688 C34.7656,-4.20313 34.0833,-1.46875 32.7188,1.65625 C31.3542,4.71875 29.5313,7.0625 27.25,8.6875 C22.2396,12.0729 15.9583,13.7656 8.40625,13.7656 C2.80208,13.7656 0,11.3594 0,6.54688 C0,4.40104 0.682292,1.69792 2.04688,-1.5625 C3.34896,-4.6875 5.17188,-7.0625 7.51563,-8.6875 C12.5365,-12.0729 18.8229,-13.7656 26.375,-13.7656"/>
<path class="Note" transform="matrix(0.907087,0,0,0.907087,1928.95,1471.18)" d="M21.9688,-13.7656 C25.0938,-13.7656 27.7344,-12.9531 29.8906,-11.3281 C31.901,-9.56771 32.9063,-7.35417 32.9063,-4.6875 C32.9063,-0.197917 30.599,4 25.9844,7.90625 C21.2969,11.8125 16.2813,13.7656 10.9375,13.7656 C7.8125,13.7656 5.17708,12.9531 3.03125,11.3281 C1.01042,9.56771 0,7.35417 0,4.6875 C0,0.197917 2.34375,-4 7.03125,-7.90625 C11.5938,-11.8125 16.5729,-13.7656 21.9688,-13.7656"/>
<path class="Note" transform="matrix(0.907087,0,0,0.907087,1758.61,1471.18)" d="M21.9688,-13.7656 C25.0938,-13.7656 27.7344,-12.9531 29.8906,-11.3281 C31.901,-9.56771 32.9063,-7.35417 32.9063,-4.6875 C32.9063,-0.197917 30.599,4 25.9844,7.90625 C21.2969,11.8125 16.2813,13.7656 10.9375,13.7656 C7.8125,13.7656 5.17708,12.9531 3.03125,11.3281 C1.01042,9.56771 0,7.35417 0,4.6875 C0,0.197917 2.34375,-4 7.03125,-7.90625 C11.5938,-11.8125 16.5729,-13.7656 21.9688,-13.7656"/>
<path class="Note" transform="matrix(0.907087,0,0,0.907087,1588.28,1459.84)" d="M21.9688,-13.7656 C25.0938,-13.7656 27.7344,-12.9531 29.8906,-11.3281 C31.901,-9.56771 32.9063,-7.35417 32.9063,-4.6875 C32.9063,-0.197917 30.599,4 25.9844,7.90625 C21.2969,11.8125 16.2813,13.7656 10.9375,13.7656 C7.8125,13.7656 5.17708,12.9531 3.03125,11.3281 C1.01042,9.56771 0,7.35417 0,4.6875 C0,0.197917 2.34375,-4 7.03125,-7.90625 C11.5938,-11.8125 16.5729,-13.7656 21.9688,-13.7656"/>
<path class="Note" transform="matrix(0.907087,0,0,0.907087,1403.72,1448.5)" d="M21.9688,-13.7656 C25.0938,-13.7656 27.7344,-12.9531 29.8906,-11.3281 C31.901,-9.56771 32.9063,-7.35417 32.9063,-4.6875 C32.9063,-0.197917 30.599,4 25.9844,7.90625 C21.2969,11.8125 16.2813,13.7656 10.9375,13.7656 C7.8125,13.7656 5.17708,12.9531 3.03125,11.3281 C1.01042,9.56771 0,7.35417 0,4.6875 C0,0.197917 2.34375,-4 7.03125,-7.90625 C11.5938,-11.8125 16.5729,-13.7656 21.9688,-13.7656"/>
<path class="Note" transform="matrix(0.907087,0,0,0.907087,1250,1437.17)" d="M21.9688,-13.7656 C25.0938,-13.7656 27.7344,-12.9531 29.8906,-11.3281 C31.901,-9.56771 32.9063,-7.35417 32.9063,-4.6875 C32.9063,-0.197917 30.599,4 25.9844,7.90625 C21.2969,11.8125 16.2813,13.7656 10.9375,13.7656 C7.8125,13.7656 5.17708,12.9531 3.03125,11.3281 C1.01042,9.56771 0,7.35417 0,4.6875 C0,0.197917 2.34375,-4 7.03125,-7.90625 C11.5938,-11.8125 16.5729,-13.7656 21.9688,-13.7656"/>
<path class="Note" transform="matrix(0.907087,0,0,0.907087,1096.28,1448.5)" d="M21.9688,-13.7656 C25.0938,-13.7656 27.7344,-12.9531 29.8906,-11.3281 C31.901,-9.56771 32.9063,-7.35417 32.9063,-4.6875 C32.9063,-0.197917 30.599,4 25.9844,7.90625 C21.2969,11.8125 16.2813,13.7656 10.9375,13.7656 C7.8125,13.7656 5.17708,12.9531 3.03125,11.3281 C1.01042,9.56771 0,7.35417 0,4.6875 C0,0.197917 2.34375,-4 7.03125,-7.90625 C11.5938,-11.8125 16.5729,-13.7656 21.9688,-13.7656"/>
<path class="Note" transform="matrix(0.907087,0,0,0.907087,942.563,1459.84)" d="M21.9688,-13.7656 C25.0938,-13.7656 27.7344,-12.9531 29.8906,-11.3281 C31.901,-9.56771 32.9063,-7.35417 32.9063,-4.6875 C32.9063,-0.197917 30.599,4 25.9844,7.90625 C21.2969,11.8125 16.2813,13.7656 10.9375,13.7656 C7.8125,13.7656 5.17708,12.9531 3.03125,11.3281 C1.01042,9.56771 0,7.35417 0,4.6875 C0,0.197917 2.34375,-4 7.03125,-7.90625 C11.5938,-11.8125 16.5729,-13.7656 21.9688,-13.7656"/>
<path class="Note" transform="matrix(0.907087,0,0,0.907087,388.552,1459.84)" d="M31.5469,-6.54688 C31.5469,-7.65104 31.125,-8.59375 30.2813,-9.375 C29.4271,-10.2188 28.4479,-10.6406 27.3438,-10.6406 C25.3958,-10.6406 21.4583,-8.6875 15.5313,-4.78125 C9.40625,-0.8125 5.66146,2.02083 4.29688,3.71875 C3.57813,4.625 3.21875,5.56771 3.21875,6.54688 C3.21875,7.65104 3.64583,8.59375 4.5,9.375 C5.28125,10.2188 6.25521,10.6406 7.42188,10.6406 C9.30729,10.6406 13.2813,8.6875 19.3438,4.78125 C25.3333,0.875 29.0417,-1.95833 30.4688,-3.71875 C31.1875,-4.5625 31.5469,-5.50521 31.5469,-6.54688 M26.375,-13.7656 C31.9688,-13.7656 34.7656,-11.3594 34.7656,-6.54688 C34.7656,-4.20313 34.0833,-1.46875 32.7188,1.65625 C31.3542,4.71875 29.5313,7.0625 27.25,8.6875 C22.2396,12.0729 15.9583,13.7656 8.40625,13.7656 C2.80208,13.7656 0,11.3594 0,6.54688 C0,4.40104 0.682292,1.69792 2.04688,-1.5625 C3.34896,-4.6875 5.17188,-7.0625 7.51563,-8.6875 C12.5365,-12.0729 18.8229,-13.7656 26.375,-13.7656"/>
<path class="Note" transform="matrix(0.907087,0,0,0.907087,2612.58,1040.32)" d="M21.9688,-13.7656 C25.0938,-13.7656 27.7344,-12.9531 29.8906,-11.3281 C31.901,-9.56771 32.9063,-7.35417 32.9063,-4.6875 C32.9063,-0.197917 30.599,4 25.9844,7.90625 C21.2969,11.8125 16.2813,13.7656 10.9375,13.7656 C7.8125,13.7656 5.17708,12.9531 3.03125,11.3281 C1.01042,9.56771 0,7.35417 0,4.6875 C0,0.197917 2.34375,-4 7.03125,-7.90625 C11.5938,-11.8125 16.5729,-13.7656 21.9688,-13.7656"/>
<path class="Note" transform="matrix(0.907087,0,0,0.907087,2465.01,1051.65)" d="M21.9688,-13.7656 C25.0938,-13.7656 27.7344,-12.9531 29.8906,-11.3281 C31.901,-9.56771 32.9063,-7.35417 32.9063,-4.6875 C32.9063,-0.197917 30.599,4 25.9844,7.90625 C21.2969,11.8125 16.2813,13.7656 10.9375,13.7656 C7.8125,13.7656 5.17708,12.9531 3.03125,11.3281 C1.01042,9.56771 0,7.35417 0,4.6875 C0,0.197917 2.34375,-4 7.03125,-7.90625 C11.5938,-11.8125 16.5729,-13.7656 21.9688,-13.7656"/>
<path class="Note" transform="matrix(0.907087,0,0,0.907087,2317.44,1051.65)" d="M21.9688,-13.7656 C25.0938,-13.7656 27.7344,-12.9531 29.8906,-11.3281 C31.901,-9.56771 32.9063,-7.35417 32.9063,-4.6875 C32.9063,-0.197917 30.599,4 25.9844,7.90625 C21.2969,11.8125 16.2813,13.7656 10.9375,13.7656 C7.8125,13.7656 5.17708,12.9531 3.03125,11.3281 C1.01042,9.56771 0,7.35417 0,4.6875 C0,0.197917 2.34375,-4 7.03125,-7.90625 C11.5938,-11.8125 16.5729,-13.7656 21.9688,-13.7656"/>
<path class="Note" transform="matrix(0.907087,0,0,0.907087,2169.87,1028.98)" d="M21.9688,-13.7656 C25.0938,-13.7656 27.7344,-12.9531 29.8906,-11.3281 C31.901,-9.56771 32.9063,-7.35417 32.9063,-4.6875 C32.9063,-0.197917 30.599,4 25.9844,7.90625 C21.2969,11.8125 16.2813,13.7656 10.9375,13.7656 C7.8125,13.7656 5.17708,12.9531 3.03125,11.3281 C1.01042,9.56771 0,7.35417 0,4.6875 C0,0.197917 2.34375,-4 7.03125,-7.90625 C11.5938,-11.8125 16.5729,-13.7656 21.9688,-13.7656"/>
<path class="Note" transform="matrix(0.907087,0,0,0.907087,1866.09,1028.98)" d="M21.9688,-13.7656 C25.0938,-13.7656 27.7344,-12.9531 29.8906,-11.3281 C31.901,-9.56771 32.9063,-7.35417 32.9063,-4.6875 C32.9063,-0.197917 30.599,4 25.9844,7.90625 C21.2969,11.8125 16.2813,13.7656 10.9375,13.7656 C7.8125,13.7656 5.17708,12.9531 3.03125,11.3281 C1.01042,9.56771 0,7.35417 0,4.6875 C0,0.197917 2.34375,-4 7.03125,-7.90625 C11.5938,-11.8125 16.5729,-13.7656 21.9688,-13.7656"/>
<path class="Note" transform="matrix(0.907087,0,0,0.907087,1702.58,1028.98)" d="M21.9688,-13.7656 C25.0938,-13.7656 27.7344,-12.9531 29.8906,-11.3281 C31.901,-9.56771 32.9063,-7.35417 32.9063,-4.6875 C32.9063,-0.197917 30.599,4 25.9844,7.90625 C21.2969,11.8125 16.2813,13.7656 10.9375,13.7656 C7.8125,13.7656 5.17708,12.9531 3.03125,11.3281 C1.01042,9.56771 0,7.35417 0,4.6875 C0,0.197917 2.34375,-4 7.03125,-7.90625 C11.5938,-11.8125 16.5729,-13.7656 21.9688,-13.7656"/>
<path class="Note" transform="matrix(0.907087,0,0,0.907087,1539.08,1017.64)" d="M21.9688,-13.7656 C25.0938,-13.7656 27.7344,-12.9531 29.8906,-11.3281 C31.901,-9.56771 32.9063,-7.35417 32.9063,-4.6875 C32.9063,-0.197917 30.599,4 25.9844,7.90625 C21.2969,11.8125 16.2813,13.7656 10.9375,13.7656 C7.8125,13.7656 5.17708,12.9531 3.03125,11.3281 C1.01042,9.56771 0,7.35417 0,4.6875 C0,0.197917 2.34375,-4 7.03125,-7.90625 C11.5938,-11.8125 16.5729,-13.7656 21.9688,-13.7656"/>
<path class="Note" transform="matrix(0.907087,0,0,0.907087,1360.67,1006.3)" d="M21.9688,-13.7656 C25.0938,-13.7656 27.7344,-12.9531 29.8906,-11.3281 C31.901,-9.56771 32.9063,-7.35417 32.9063,-4.6875 C32.9063,-0.197917 30.599,4 25.9844,7.90625 C21.2969,11.8125 16.2813,13.7656 10.9375,13.7656 C7.8125,13.7656 5.17708,12.9531 3.03125,11.3281 C1.01042,9.56771 0,7.35417 0,4.6875 C0,0.197917 2.34375,-4 7.03125,-7.90625 C11.5938,-11.8125 16.5729,-13.7656 21.9688,-13.7656"/>
<path class="Note" transform="matrix(0.907087,0,0,0.907087,1213.1,994.961)" d="M21.9688,-13.7656 C25.0938,-13.7656 27.7344,-12.9531 29.8906,-11.3281 C31.901,-9.56771 32.9063,-7.35417 32.9063,-4.6875 C32.9063,-0.197917 30.599,4 25.9844,7.90625 C21.2969,11.8125 16.2813,13.7656 10.9375,13.7656 C7.8125,13.7656 5.17708,12.9531 3.03125,11.3281 C1.01042,9.56771 0,7.35417 0,4.6875 C0,0.197917 2.34375,-4 7.03125,-7.90625 C11.5938,-11.8125 16.5729,-13.7656 21.9688,-13.7656"/>
<path class="Note" transform="matrix(0.907087,0,0,0.907087,1065.53,1006.3)" d="M21.9688,-13.7656 C25.0938,-13.7656 27.7344,-12.9531 29.8906,-11.3281 C31.901,-9.56771 32.9063,-7.35417 32.9063,-4.6875 C32.9063,-0.197917 30.599,4 25.9844,7.90625 C21.2969,11.8125 16.2813,13.7656 10.9375,13.7656 C7.8125,13.7656 5.17708,12.9531 3.03125,11.3281 C1.01042,9.56771 0,7.35417 0,4.6875 C0,0.197917 2.34375,-4 7.03125,-7.90625 C11.5938,-11.8125 16.5729,-13.7656 21.9688,-13.7656"/>
<path class="Note" transform="matrix(0.907087,0,0,0.907087,917.964,1017.64)" d="M21.9688,-13.7656 C25.0938,-13.7656 27.7344,-12.9531 29.8906,-11.3281 C31.901,-9.56771 32.9063,-7.35417 32.9063,-4.6875 C32.9063,-0.197917 30.599,4 25.9844,7.90625 C21.2969,11.8125 16.2813,13.7656 10.9375,13.7656 C7.8125,13.7656 5.17708,12.9531 3.03125,11.3281 C1.01042,9.56771 0,7.35417 0,4.6875 C0,0.197917 2.34375,-4 7.03125,-7.90625 C11.5938,-11.8125 16.5729,-13.7656 21.9688,-13.7656"/>
<path class="Note" transform="matrix(0.907087,0,0,0.907087,388.552,1017.64)" d="M31.5469,-6.54688 C31.5469,-7.65104 31.125,-8.59375 30.2813,-9.375 C29.4271,-10.2188 28.4479,-10.6406 27.3438,-10.6406 C25.3958,-10.6406 21.4583,-8.6875 15.5313,-4.78125 C9.40625,-0.8125 5.66146,2.02083 4.29688,3.71875 C3.57813,4.625 3.21875,5.56771 3.21875,6.54688 C3.21875,7.65104 3.64583,8.59375 4.5,9.375 C5.28125,10.2188 6.25521,10.6406 7.42188,10.6406 C9.30729,10.6406 13.2813,8.6875 19.3438,4.78125 C25.3333,0.875 29.0417,-1.95833 30.4688,-3.71875 C31.1875,-4.5625 31.5469,-5.50521 31.5469,-6.54688 M26.375,-13.7656 C31.9688,-13.7656 34.7656,-11.3594 34.7656,-6.54688 C34.7656,-4.20313 34.0833,-1.46875 32.7188,1.65625 C31.3542,4.71875 29.5313,7.0625 27.25,8.6875 C22.2396,12.0729 15.9583,13.7656 8.40625,13.7656 C2.80208,13.7656 0,11.3594 0,6.54688 C0,4.40104 0.682292,1.69792 2.04688,-1.5625 C3.34896,-4.6875 5.17188,-7.0625 7.51563,-8.6875 C12.5365,-12.0729 18.8229,-13.7656 26.375,-13.7656"/>
<path class="Note" transform="matrix(0.907087,0,0,0.907087,2616.52,598.11)" d="M21.9688,-13.7656 C25.0938,-13.7656 27.7344,-12.9531 29.8906,-11.3281 C31.901,-9.56771 32.9063,-7.35417 32.9063,-4.6875 C32.9063,-0.197917 30.599,4 25.9844,7.90625 C21.2969,11.8125 16.2813,13.7656 10.9375,13.7656 C7.8125,13.7656 5.17708,12.9531 3.03125,11.3281 C1.01042,9.56771 0,7.35417 0,4.6875 C0,0.197917 2.34375,-4 7.03125,-7.90625 C11.5938,-11.8125 16.5729,-13.7656 21.9688,-13.7656"/>
<path class="Note" transform="matrix(0.907087,0,0,0.907087,2472.89,609.449)" d="M21.9688,-13.7656 C25.0938,-13.7656 27.7344,-12.9531 29.8906,-11.3281 C31.901,-9.56771 32.9063,-7.35417 32.9063,-4.6875 C32.9063,-0.197917 30.599,4 25.9844,7.90625 C21.2969,11.8125 16.2813,13.7656 10.9375,13.7656 C7.8125,13.7656 5.17708,12.9531 3.03125,11.3281 C1.01042,9.56771 0,7.35417 0,4.6875 C0,0.197917 2.34375,-4 7.03125,-7.90625 C11.5938,-11.8125 16.5729,-13.7656 21.9688,-13.7656"/>
<path class="Note" transform="matrix(0.907087,0,0,0.907087,2329.26,609.449)" d="M21.9688,-13.7656 C25.0938,-13.7656 27.7344,-12.9531 29.8906,-11.3281 C31.901,-9.56771 32.9063,-7.35417 32.9063,-4.6875 C32.9063,-0.197917 30.599,4 25.9844,7.90625 C21.2969,11.8125 16.2813,13.7656 10.9375,13.7656 C7.8125,13.7656 5.17708,12.9531 3.03125,11.3281 C1.01042,9.56771 0,7.35417 0,4.6875 C0,0.197917 2.34375,-4 7.03125,-7.90625 C11.5938,-11.8125 16.5729,-13.7656 21.9688,-13.7656"/>
<path class="Note" transform="matrix(0.907087,0,0,0.907087,2185.63,586.772)" d="M21.9688,-13.7656 C25.0938,-13.7656 27.7344,-12.9531 29.8906,-11.3281 C31.901,-9.56771 32.9063,-7.35417 32.9063,-4.6875 C32.9063,-0.197917 30.599,4 25.9844,7.90625 C21.2969,11.8125 16.2813,13.7656 10.9375,13.7656 C7.8125,13.7656 5.17708,12.9531 3.03125,11.3281 C1.01042,9.56771 0,7.35417 0,4.6875 C0,0.197917 2.34375,-4 7.03125,-7.90625 C11.5938,-11.8125 16.5729,-13.7656 21.9688,-13.7656"/>
<path class="Note" transform="matrix(0.907087,0,0,0.907087,1888.85,586.772)" d="M21.9688,-13.7656 C25.0938,-13.7656 27.7344,-12.9531 29.8906,-11.3281 C31.901,-9.56771 32.9063,-7.35417 32.9063,-4.6875 C32.9063,-0.197917 30.599,4 25.9844,7.90625 C21.2969,11.8125 16.2813,13.7656 10.9375,13.7656 C7.8125,13.7656 5.17708,12.9531 3.03125,11.3281 C1.01042,9.56771 0,7.35417 0,4.6875 C0,0.197917 2.34375,-4 7.03125,-7.90625 C11.5938,-11.8125 16.5729,-13.7656 21.9688,-13.7656"/>
<path class="Note" transform="matrix(0.907087,0,0,0.907087,1729.72,586.772)" d="M21.9688,-13.7656 C25.0938,-13.7656 27.7344,-12.9531 29.8906,-11.3281 C31.901,-9.56771 32.9063,-7.35417 32.9063,-4.6875 C32.9063,-0.197917 30.599,4 25.9844,7.90625 C21.2969,11.8125 16.2813,13.7656 10.9375,13.7656 C7.8125,13.7656 5.17708,12.9531 3.03125,11.3281 C1.01042,9.56771 0,7.35417 0,4.6875 C0,0.197917 2.34375,-4 7.03125,-7.90625 C11.5938,-11.8125 16.5729,-13.7656 21.9688,-13.7656"/>
<path class="Note" transform="matrix(0.907087,0,0,0.907087,1570.6,575.433)" d="M21.9688,-13.7656 C25.0938,-13.7656 27.7344,-12.9531 29.8906,-11.3281 C31.901,-9.56771 32.9063,-7.35417 32.9063,-4.6875 C32.9063,-0.197917 30.599,4 25.9844,7.90625 C21.2969,11.8125 16.2813,13.7656 10.9375,13.7656 C7.8125,13.7656 5.17708,12.9531 3.03125,11.3281 C1.01042,9.56771 0,7.35417 0,4.6875 C0,0.197917 2.34375,-4 7.03125,-7.90625 C11.5938,-11.8125 16.5729,-13.7656 21.9688,-13.7656"/>
<path class="Note" transform="matrix(0.907087,0,0,0.907087,1396.13,575.433)" d="M21.9688,-13.7656 C25.0938,-13.7656 27.7344,-12.9531 29.8906,-11.3281 C31.901,-9.56771 32.9063,-7.35417 32.9063,-4.6875 C32.9063,-0.197917 30.599,4 25.9844,7.90625 C21.2969,11.8125 16.2813,13.7656 10.9375,13.7656 C7.8125,13.7656 5.17708,12.9531 3.03125,11.3281 C1.01042,9.56771 0,7.35417 0,4.6875 C0,0.197917 2.34375,-4 7.03125,-7.90625 C11.5938,-11.8125 16.5729,-13.7656 21.9688,-13.7656"/>
<path class="Note" transform="matrix(0.907087,0,0,0.907087,1252.5,564.095)" d="M21.9688,-13.7656 C25.0938,-13.7656 27.7344,-12.9531 29.8906,-11.3281 C31.901,-9.56771 32.9063,-7.35417 32.9063,-4.6875 C32.9063,-0.197917 30.599,4 25.9844,7.90625 C21.2969,11.8125 16.2813,13.7656 10.9375,13.7656 C7.8125,13.7656 5.17708,12.9531 3.03125,11.3281 C1.01042,9.56771 0,7.35417 0,4.6875 C0,0.197917 2.34375,-4 7.03125,-7.90625 C11.5938,-11.8125 16.5729,-13.7656 21.9688,-13.7656"/>
<path class="Note" transform="matrix(0.907087,0,0,0.907087,1108.87,598.11)" d="M21.9688,-13.7656 C25.0938,-13.7656 27.7344,-12.9531 29.8906,-11.3281 C31.901,-9.56771 32.9063,-7.35417 32.9063,-4.6875 C32.9063,-0.197917 30.599,4 25.9844,7.90625 C21.2969,11.8125 16.2813,13.7656 10.9375,13.7656 C7.8125,13.7656 5.17708,12.9531 3.03125,11.3281 C1.01042,9.56771 0,7.35417 0,4.6875 C0,0.197917 2.34375,-4 7.03125,-7.90625 C11.5938,-11.8125 16.5729,-13.7656 21.9688,-13.7656"/>
<path class="Note" transform="matrix(0.907087,0,0,0.907087,965.242,575.433)" d="M21.9688,-13.7656 C25.0938,-13.7656 27.7344,-12.9531 29.8906,-11.3281 C31.901,-9.56771 32.9063,-7.35417 32.9063,-4.6875 C32.9063,-0.197917 30.599,4 25.9844,7.90625 C21.2969,11.8125 16.2813,13.7656 10.9375,13.7656 C7.8125,13.7656 5.17708,12.9531 3.03125,11.3281 C1.01042,9.56771 0,7.35417 0,4.6875 C0,0.197917 2.34375,-4 7.03125,-7.90625 C11.5938,-11.8125 16.5729,-13.7656 21.9688,-13.7656"/>
<path class="Note" transform="matrix(0.907087,0,0,0.907087,451.589,575.433)" d="M31.5469,-6.54688 C31.5469,-7.65104 31.125,-8.59375 30.2813,-9.375 C29.4271,-10.2188 28.4479,-10.6406 27.3438,-10.6406 C25.3958,-10.6406 21.4583,-8.6875 15.5313,-4.78125 C9.40625,-0.8125 5.66146,2.02083 4.29688,3.71875 C3.57813,4.625 3.21875,5.56771 3.21875,6.54688 C3.21875,7.65104 3.64583,8.59375 4.5,9.375 C5.28125,10.2188 6.25521,10.6406 7.42188,10.6406 C9.30729,10.6406 13.2813,8.6875 19.3438,4.78125 C25.3333,0.875 29.0417,-1.95833 30.4688,-3.71875 C31.1875,-4.5625 31.5469,-5.50521 31.5469,-6.54688 M26.375,-13.7656 C31.9688,-13.7656 34.7656,-11.3594 34.7656,-6.54688 C34.7656,-4.20313 34.0833,-1.46875 32.7188,1.65625 C31.3542,4.71875 29.5313,7.0625 27.25,8.6875 C22.2396,12.0729 15.9583,13.7656 8.40625,13.7656 C2.80208,13.7656 0,11.3594 0,6.54688 C0,4.40104 0.682292,1.69792 2.04688,-1.5625 C3.34896,-4.6875 5.17188,-7.0625 7.51563,-8.6875 C12.5365,-12.0729 18.8229,-13.7656 26.375,-13.7656"/>
<path class="Clef" transform="matrix(0.907087,0,0,0.907087,227.112,1913.39)" d="M36.7188,-25.5938 C36.7188,-25.5938 36.9167,-25.5938 37.3125,-25.5938 C37.5729,-25.6563 37.7969,-25.6875 37.9844,-25.6875 C45.276,-25.6875 51.2656,-23.1146 55.9531,-17.9688 C60.6406,-12.8958 62.9844,-6.97396 62.9844,-0.203125 C62.9844,8.20313 59.5052,15.0417 52.5469,20.3125 C50.724,21.75 48.3438,22.9219 45.4063,23.8281 C45.7396,28.0573 45.9063,31.474 45.9063,34.0781 C45.9063,34.599 45.8385,36.4896 45.7031,39.75 C45.4427,45.8021 43.3594,51.0417 39.4531,55.4688 C35.6823,59.8333 30.9948,62.0156 25.3906,62.0156 C20.1198,62.0156 15.6302,60.1615 11.9219,56.4531 C8.20313,52.6719 6.34375,48.1146 6.34375,42.7813 C6.34375,39.9792 7.42188,37.599 9.57813,35.6406 C11.7865,33.6927 14.3542,32.7188 17.2813,32.7188 C19.8854,32.7188 22.0677,33.7292 23.8281,35.75 C25.651,37.6354 26.5625,39.9792 26.5625,42.7813 C26.5625,45.3125 25.651,47.4896 23.8281,49.3125 C22.0052,51.1354 19.8229,52.0469 17.2813,52.0469 C16.2396,52.0469 15.2344,51.8542 14.2656,51.4688 C17.1302,55.6979 20.9375,57.8125 25.6875,57.8125 C30.1771,57.8125 33.8542,55.9896 36.7188,52.3438 C39.7188,48.5729 41.349,44.1771 41.6094,39.1563 C41.7344,36.0313 41.7969,34.2448 41.7969,33.7969 C41.7969,30.151 41.6667,27.1563 41.4063,24.8125 C38.1563,25.3333 35.2604,25.5938 32.7188,25.5938 C23.6667,25.5938 15.9531,22.0104 9.57813,14.8438 C3.32813,7.61458 0.203125,-0.979167 0.203125,-10.9375 C0.203125,-13.0208 0.395833,-15.1354 0.78125,-17.2813 C1.17708,-19.0417 1.66667,-20.9635 2.25,-23.0469 C2.57292,-24.224 3.45313,-26.1146 4.89063,-28.7188 C5.41146,-29.5 5.9974,-30.4766 6.64844,-31.6484 C7.29948,-32.8203 7.75521,-33.599 8.01563,-33.9844 C8.66146,-35.2865 9.92708,-37.0469 11.8125,-39.2656 C12.3333,-39.849 12.8724,-40.4974 13.4297,-41.2109 C13.987,-41.9245 14.4609,-42.5104 14.8516,-42.9688 C15.2422,-43.4271 15.5339,-43.7865 15.7266,-44.0469 C15.9193,-44.3073 17.3854,-46.0313 20.125,-49.2188 C20.7708,-49.875 21.4036,-50.5755 22.0234,-51.3203 C22.6432,-52.0651 23.1484,-52.651 23.5391,-53.0781 C23.9297,-53.5052 24.224,-53.8125 24.4219,-54 C22.0781,-61.75 20.6094,-67.9375 20.0156,-72.5625 C19.5677,-76.2708 19.3438,-81.349 19.3438,-87.7969 C19.3438,-93.4635 20.6458,-98.7708 23.25,-103.719 C25.7813,-108.854 29.3281,-113.052 33.8906,-116.313 C34.151,-116.51 34.474,-116.609 34.8594,-116.609 C35.3177,-116.609 35.6458,-116.51 35.8438,-116.313 C39.3542,-112.083 42.3802,-106.583 44.9219,-99.8125 C47.526,-93.0417 48.8281,-86.8854 48.8281,-81.3438 C48.8281,-75.0938 47.3333,-69.2344 44.3438,-63.7656 C40.9583,-57.974 36.5938,-51.9844 31.25,-45.7969 C32.6146,-41.5052 34.4375,-34.7708 36.7188,-25.5938 M45.0156,19.8281 C48.401,18.5885 51.0417,16.474 52.9375,13.4844 C55.0208,10.6198 56.0625,7.39583 56.0625,3.8125 C56.0625,-0.8125 54.5,-4.91667 51.375,-8.5 C48.1771,-12.2083 44.1042,-14.2917 39.1563,-14.75 C41.9583,-1.01042 43.9115,10.5156 45.0156,19.8281 M7.23438,-2.73438 C7.23438,3.71354 9.83854,9.38021 15.0469,14.2656 C20.3802,19.0156 26.3698,21.3906 33.0156,21.3906 C35.7448,21.3906 38.4115,21.1927 41.0156,20.7969 C39.974,10.901 37.9219,-0.947917 34.8594,-14.75 C31.151,-14.3542 28.1927,-13.0521 25.9844,-10.8438 C23.8281,-8.5625 22.75,-5.98958 22.75,-3.125 C22.75,1.82292 25.3906,5.82813 30.6719,8.89063 C31.1198,9.34896 31.3438,9.83854 31.3438,10.3594 C31.3438,10.8802 31.1198,11.3646 30.6719,11.8125 C30.276,12.2708 29.7865,12.5 29.2031,12.5 C29.1406,12.5 28.849,12.4375 28.3281,12.3125 C24.6094,10.2917 21.7448,7.6875 19.7344,4.5 C17.8385,1.10417 16.8906,-2.31771 16.8906,-5.76563 C16.8906,-10.2552 18.2917,-14.3229 21.0938,-17.9688 C24.0208,-21.6146 27.8281,-23.9583 32.5156,-25 C30.6927,-32.2917 29.1979,-37.9896 28.0313,-42.0938 C26.9896,-40.9167 25.737,-39.5 24.2734,-37.8438 C22.8099,-36.1875 21.9479,-35.1927 21.6875,-34.8594 C19.3438,-31.8073 17.5521,-29.4323 16.3125,-27.7344 C14.0938,-24.6719 12.4635,-22.0365 11.4219,-19.8281 C10.3177,-17.349 9.34375,-14.6458 8.5,-11.7188 C7.65625,-8.91667 7.23438,-5.92188 7.23438,-2.73438 M39.8438,-102.047 C34.9583,-99.6406 31.1198,-96.1927 28.3281,-91.7031 C25.4635,-87.0781 24.0313,-82.099 24.0313,-76.7656 C24.0313,-72.0781 25.2031,-65.7604 27.5469,-57.8125 C32.2344,-63.4792 35.75,-68.7188 38.0938,-73.5313 C40.5625,-78.6146 41.7969,-83.9219 41.7969,-89.4531 C41.7969,-93.6198 41.1458,-97.8177 39.8438,-102.047"/>
<path class="Clef" transform="matrix(0.907087,0,0,0.907087,227.112,1482.52)" d="M36.7188,-25.5938 C36.7188,-25.5938 36.9167,-25.5938 37.3125,-25.5938 C37.5729,-25.6563 37.7969,-25.6875 37.9844,-25.6875 C45.276,-25.6875 51.2656,-23.1146 55.9531,-17.9688 C60.6406,-12.8958 62.9844,-6.97396 62.9844,-0.203125 C62.9844,8.20313 59.5052,15.0417 52.5469,20.3125 C50.724,21.75 48.3438,22.9219 45.4063,23.8281 C45.7396,28.0573 45.9063,31.474 45.9063,34.0781 C45.9063,34.599 45.8385,36.4896 45.7031,39.75 C45.4427,45.8021 43.3594,51.0417 39.4531,55.4688 C35.6823,59.8333 30.9948,62.0156 25.3906,62.0156 C20.1198,62.0156 15.6302,60.1615 11.9219,56.4531 C8.20313,52.6719 6.34375,48.1146 6.34375,42.7813 C6.34375,39.9792 7.42188,37.599 9.57813,35.6406 C11.7865,33.6927 14.3542,32.7188 17.2813,32.7188 C19.8854,32.7188 22.0677,33.7292 23.8281,35.75 C25.651,37.6354 26.5625,39.9792 26.5625,42.7813 C26.5625,45.3125 25.651,47.4896 23.8281,49.3125 C22.0052,51.1354 19.8229,52.0469 17.2813,52.0469 C16.2396,52.0469 15.2344,51.8542 14.2656,51.4688 C17.1302,55.6979 20.9375,57.8125 25.6875,57.8125 C30.1771,57.8125 33.8542,55.9896 36.7188,52.3438 C39.7188,48.5729 41.349,44.1771 41.6094,39.1563 C41.7344,36.0313 41.7969,34.2448 41.7969,33.7969 C41.7969,30.151 41.6667,27.1563 41.4063,24.8125 C38.1563,25.3333 35.2604,25.5938 32.7188,25.5938 C23.6667,25.5938 15.9531,22.0104 9.57813,14.8438 C3.32813,7.61458 0.203125,-0.979167 0.203125,-10.9375 C0.203125,-13.0208 0.395833,-15.1354 0.78125,-17.2813 C1.17708,-19.0417 1.66667,-20.9635 2.25,-23.0469 C2.57292,-24.224 3.45313,-26.1146 4.89063,-28.7188 C5.41146,-29.5 5.9974,-30.4766 6.64844,-31.6484 C7.29948,-32.8203 7.75521,-33.599 8.01563,-33.9844 C8.66146,-35.2865 9.92708,-37.0469 11.8125,-39.2656 C12.3333,-39.849 12.8724,-40.4974 13.4297,-41.2109 C13.987,-41.9245 14.4609,-42.5104 14.8516,-42.9688 C15.2422,-43.4271 15.5339,-43.7865 15.7266,-44.0469 C15.9193,-44.3073 17.3854,-46.0313 20.125,-49.2188 C20.7708,-49.875 21.4036,-50.5755 22.0234,-51.3203 C22.6432,-52.0651 23.1484,-52.651 23.5391,-53.0781 C23.9297,-53.5052 24.224,-53.8125 24.4219,-54 C22.0781,-61.75 20.6094,-67.9375 20.0156,-72.5625 C19.5677,-76.2708 19.3438,-81.349 19.3438,-87.7969 C19.3438,-93.4635 20.6458,-98.7708 23.25,-103.719 C25.7813,-108.854 29.3281,-113.052 33.8906,-116.313 C34.151,-116.51 34.474,-116.609 34.8594,-116.609 C35.3177,-116.609 35.6458,-116.51 35.8438,-116.313 C39.3542,-112.083 42.3802,-106.583 44.9219,-99.8125 C47.526,-93.0417 48.8281,-86.8854 48.8281,-81.3438 C48.8281,-75.0938 47.3333,-69.2344 44.3438,-63.7656 C40.9583,-57.974 36.5938,-51.9844 31.25,-45.7969 C32.6146,-41.5052 34.4375,-34.7708 36.7188,-25.5938 M45.0156,19.8281 C48.401,18.5885 51.0417,16.474 52.9375,13.4844 C55.0208,10.6198 56.0625,7.39583 56.0625,3.8125 C56.0625,-0.8125 54.5,-4.91667 51.375,-8.5 C48.1771,-12.2083 44.1042,-14.2917 39.1563,-14.75 C41.9583,-1.01042 43.9115,10.5156 45.0156,19.8281 M7.23438,-2.73438 C7.23438,3.71354 9.83854,9.38021 15.0469,14.2656 C20.3802,19.0156 26.3698,21.3906 33.0156,21.3906 C35.7448,21.3906 38.4115,21.1927 41.0156,20.7969 C39.974,10.901 37.9219,-0.947917 34.8594,-14.75 C31.151,-14.3542 28.1927,-13.0521 25.9844,-10.8438 C23.8281,-8.5625 22.75,-5.98958 22.75,-3.125 C22.75,1.82292 25.3906,5.82813 30.6719,8.89063 C31.1198,9.34896 31.3438,9.83854 31.3438,10.3594 C31.3438,10.8802 31.1198,11.3646 30.6719,11.8125 C30.276,12.2708 29.7865,12.5 29.2031,12.5 C29.1406,12.5 28.849,12.4375 28.3281,12.3125 C24.6094,10.2917 21.7448,7.6875 19.7344,4.5 C17.8385,1.10417 16.8906,-2.31771 16.8906,-5.76563 C16.8906,-10.2552 18.2917,-14.3229 21.0938,-17.9688 C24.0208,-21.6146 27.8281,-23.9583 32.5156,-25 C30.6927,-32.2917 29.1979,-37.9896 28.0313,-42.0938 C26.9896,-40.9167 25.737,-39.5 24.2734,-37.8438 C22.8099,-36.1875 21.9479,-35.1927 21.6875,-34.8594 C19.3438,-31.8073 17.5521,-29.4323 16.3125,-27.7344 C14.0938,-24.6719 12.4635,-22.0365 11.4219,-19.8281 C10.3177,-17.349 9.34375,-14.6458 8.5,-11.7188 C7.65625,-8.91667 7.23438,-5.92188 7.23438,-2.73438 M39.8438,-102.047 C34.9583,-99.6406 31.1198,-96.1927 28.3281,-91.7031 C25.4635,-87.0781 24.0313,-82.099 24.0313,-76.7656 C24.0313,-72.0781 25.2031,-65.7604 27.5469,-57.8125 C32.2344,-63.4792 35.75,-68.7188 38.0938,-73.5313 C40.5625,-78.6146 41.7969,-83.9219 41.7969,-89.4531 C41.7969,-93.6198 41.1458,-97.8177 39.8438,-102.047"/>
<path class="Clef" transform="matrix(0.907087,0,0,0.907087,227.112,1051.65)" d="M36.7188,-25.5938 C36.7188,-25.5938 36.9167,-25.5938 37.3125,-25.5938 C37.5729,-25.6563 37.7969,-25.6875 37.9844,-25.6875 C45.276,-25.6875 51.2656,-23.1146 55.9531,-17.9688 C60.6406,-12.8958 62.9844,-6.97396 62.9844,-0.203125 C62.9844,8.20313 59.5052,15.0417 52.5469,20.3125 C50.724,21.75 48.3438,22.9219 45.4063,23.8281 C45.7396,28.0573 45.9063,31.474 45.9063,34.0781 C45.9063,34.599 45.8385,36.4896 45.7031,39.75 C45.4427,45.8021 43.3594,51.0417 39.4531,55.4688 C35.6823,59.8333 30.9948,62.0156 25.3906,62.0156 C20.1198,62.0156 15.6302,60.1615 11.9219,56.4531 C8.20313,52.6719 6.34375,48.1146 6.34375,42.7813 C6.34375,39.9792 7.42188,37.599 9.57813,35.6406 C11.7865,33.6927 14.3542,32.7188 17.2813,32.7188 C19.8854,32.7188 22.0677,33.7292 23.8281,35.75 C25.651,37.6354 26.5625,39.9792 26.5625,42.7813 C26.5625,45.3125 25.651,47.4896 23.8281,49.3125 C22.0052,51.1354 19.8229,52.0469 17.2813,52.0469 C16.2396,52.0469 15.2344,51.8542 14.2656,51.4688 C17.1302,55.6979 20.9375,57.8125 25.6875,57.8125 C30.1771,57.8125 33.8542,55.9896 36.7188,52.3438 C39.7188,48.5729 41.349,44.1771 41.6094,39.1563 C41.7344,36.0313 41.7969,34.2448 41.7969,33.7969 C41.7969,30.151 41.6667,27.1563 41.4063,24.8125 C38.1563,25.3333 35.2604,25.5938 32.7188,25.5938 C23.6667,25.5938 15.9531,22.0104 9.57813,14.8438 C3.32813,7.61458 0.203125,-0.979167 0.203125,-10.9375 C0.203125,-13.0208 0.395833,-15.1354 0.78125,-17.2813 C1.17708,-19.0417 1.66667,-20.9635 2.25,-23.0469 C2.57292,-24.224 3.45313,-26.1146 4.89063,-28.7188 C5.41146,-29.5 5.9974,-30.4766 6.64844,-31.6484 C7.29948,-32.8203 7.75521,-33.599 8.01563,-33.9844 C8.66146,-35.2865 9.92708,-37.0469 11.8125,-39.2656 C12.3333,-39.849 12.8724,-40.4974 13.4297,-41.2109 C13.987,-41.9245 14.4609,-42.5104 14.8516,-42.9688 C15.2422,-43.4271 15.5339,-43.7865 15.7266,-44.0469 C15.9193,-44.3073 17.3854,-46.0313 20.125,-49.2188 C20.7708,-49.875 21.4036,-50.5755 22.0234,-51.3203 C22.6432,-52.0651 23.1484,-52.651 23.5391,-53.0781 C23.9297,-53.5052 24.224,-53.8125 24.4219,-54 C22.0781,-61.75 20.6094,-67.9375 20.0156,-72.5625 C19.5677,-76.2708 19.3438,-81.349 19.3438,-87.7969 C19.3438,-93.4635 20.6458,-98.7708 23.25,-103.719 C25.7813,-108.854 29.3281,-113.052 33.8906,-116.313 C34.151,-116.51 34.474,-116.609 34.8594,-116.609 C35.3177,-116.609 35.6458,-116.51 35.8438,-116.313 C39.3542,-112.083 42.3802,-106.583 44.9219,-99.8125 C47.526,-93.0417 48.8281,-86.8854 48.8281,-81.3438 C48.8281,-75.0938 47.3333,-69.2344 44.3438,-63.7656 C40.9583,-57.974 36.5938,-51.9844 31.25,-45.7969 C32.6146,-41.5052 34.4375,-34.7708 36.7188,-25.5938 M45.0156,19.8281 C48.401,18.5885 51.0417,16.474 52.9375,13.4844 C55.0208,10.6198 56.0625,7.39583 56.0625,3.8125 C56.0625,-0.8125 54.5,-4.91667 51.375,-8.5 C48.1771,-12.2083 44.1042,-14.2917 39.1563,-14.75 C41.9583,-1.01042 43.9115,10.5156 45.0156,19.8281 M7.23438,-2.73438 C7.23438,3.71354 9.83854,9.38021 15.0469,14.2656 C20.3802,19.0156 26.3698,21.3906 33.0156,21.3906 C35.7448,21.3906 38.4115,21.1927 41.0156,20.7969 C39.974,10.901 37.9219,-0.947917 34.8594,-14.75 C31.151,-14.3542 28.1927,-13.0521 25.9844,-10.8438 C23.8281,-8.5625 22.75,-5.98958 22.75,-3.125 C22.75,1.82292 25.3906,5.82813 30.6719,8.89063 C31.1198,9.34896 31.3438,9.83854 31.3438,10.3594 C31.3438,10.8802 31.1198,11.3646 30.6719,11.8125 C30.276,12.2708 29.7865,12.5 29.2031,12.5 C29.1406,12.5 28.849,12.4375 28.3281,12.3125 C24.6094,10.2917 21.7448,7.6875 19.7344,4.5 C17.8385,1.10417 16.8906,-2.31771 16.8906,-5.76563 C16.8906,-10.2552 18.2917,-14.3229 21.0938,-17.9688 C24.0208,-21.6146 27.8281,-23.9583 32.5156,-25 C30.6927,-32.2917 29.1979,-37.9896 28.0313,-42.0938 C26.9896,-40.9167 25.737,-39.5 24.2734,-37.8438 C22.8099,-36.1875 21.9479,-35.1927 21.6875,-34.8594 C19.3438,-31.8073 17.5521,-29.4323 16.3125,-27.7344 C14.0938,-24.6719 12.4635,-22.0365 11.4219,-19.8281 C10.3177,-17.349 9.34375,-14.6458 8.5,-11.7188 C7.65625,-8.91667 7.23438,-5.92188 7.23438,-2.73438 M39.8438,-102.047 C34.9583,-99.6406 31.1198,-96.1927 28.3281,-91.7031 C25.4635,-87.0781 24.0313,-82.099 24.0313,-76.7656 C24.0313,-72.0781 25.2031,-65.7604 27.5469,-57.8125 C32.2344,-63.4792 35.75,-68.7188 38.0938,-73.5313 C40.5625,-78.6146 41.7969,-83.9219 41.7969,-89.4531 C41.7969,-93.6198 41.1458,-97.8177 39.8438,-102.047"/>
<path class="Clef" transform="matrix(0.907087,0,0,0.907087,227.112,620.787)" d="M36.7188,-25.5938 C36.7188,-25.5938 36.9167,-25.5938 37.3125,-25.5938 C37.5729,-25.6563 37.7969,-25.6875 37.9844,-25.6875 C45.276,-25.6875 51.2656,-23.1146 55.9531,-17.9688 C60.6406,-12.8958 62.9844,-6.97396 62.9844,-0.203125 C62.9844,8.20313 59.5052,15.0417 52.5469,20.3125 C50.724,21.75 48.3438,22.9219 45.4063,23.8281 C45.7396,28.0573 45.9063,31.474 45.9063,34.0781 C45.9063,34.599 45.8385,36.4896 45.7031,39.75 C45.4427,45.8021 43.3594,51.0417 39.4531,55.4688 C35.6823,59.8333 30.9948,62.0156 25.3906,62.0156 C20.1198,62.0156 15.6302,60.1615 11.9219,56.4531 C8.20313,52.6719 6.34375,48.1146 6.34375,42.7813 C6.34375,39.9792 7.42188,37.599 9.57813,35.6406 C11.7865,33.6927 14.3542,32.7188 17.2813,32.7188 C19.8854,32.7188 22.0677,33.7292 23.8281,35.75 C25.651,37.6354 26.5625,39.9792 26.5625,42.7813 C26.5625,45.3125 25.651,47.4896 23.8281,49.3125 C22.0052,51.1354 19.8229,52.0469 17.2813,52.0469 C16.2396,52.0469 15.2344,51.8542 14.2656,51.4688 C17.1302,55.6979 20.9375,57.8125 25.6875,57.8125 C30.1771,57.8125 33.8542,55.9896 36.7188,52.3438 C39.7188,48.5729 41.349,44.1771 41.6094,39.1563 C41.7344,36.0313 41.7969,34.2448 41.7969,33.7969 C41.7969,30.151 41.6667,27.1563 41.4063,24.8125 C38.1563,25.3333 35.2604,25.5938 32.7188,25.5938 C23.6667,25.5938 15.9531,22.0104 9.57813,14.8438 C3.32813,7.61458 0.203125,-0.979167 0.203125,-10.9375 C0.203125,-13.0208 0.395833,-15.1354 0.78125,-17.2813 C1.17708,-19.0417 1.66667,-20.9635 2.25,-23.0469 C2.57292,-24.224 3.45313,-26.1146 4.89063,-28.7188 C5.41146,-29.5 5.9974,-30.4766 6.64844,-31.6484 C7.29948,-32.8203 7.75521,-33.599 8.01563,-33.9844 C8.66146,-35.2865 9.92708,-37.0469 11.8125,-39.2656 C12.3333,-39.849 12.8724,-40.4974 13.4297,-41.2109 C13.987,-41.9245 14.4609,-42.5104 14.8516,-42.9688 C15.2422,-43.4271 15.5339,-43.7865 15.7266,-44.0469 C15.9193,-44.3073 17.3854,-46.0313 20.125,-49.2188 C20.7708,-49.875 21.4036,-50.5755 22.0234,-51.3203 C22.6432,-52.0651 23.1484,-52.651 23.5391,-53.0781 C23.9297,-53.5052 24.224,-53.8125 24.4219,-54 C22.0781,-61.75 20.6094,-67.9375 20.0156,-72.5625 C19.5677,-76.2708 19.3438,-81.349 19.3438,-87.7969 C19.3438,-93.4635 20.6458,-98.7708 23.25,-103.719 C25.7813,-108.854 29.3281,-113.052 33.8906,-116.313 C34.151,-116.51 34.474,-116.609 34.8594,-116.609 C35.3177,-116.609 35.6458,-116.51 35.8438,-116.313 C39.3542,-112.083 42.3802,-106.583 44.9219,-99.8125 C47.526,-93.0417 48.8281,-86.8854 48.8281,-81.3438 C48.8281,-75.0938 47.3333,-69.2344 44.3438,-63.7656 C40.9583,-57.974 36.5938,-51.9844 31.25,-45.7969 C32.6146,-41.5052 34.4375,-34.7708 36.7188,-25.5938 M45.0156,19.8281 C48.401,18.5885 51.0417,16.474 52.9375,13.4844 C55.0208,10.6198 56.0625,7.39583 56.0625,3.8125 C56.0625,-0.8125 54.5,-4.91667 51.375,-8.5 C48.1771,-12.2083 44.1042,-14.2917 39.1563,-14.75 C41.9583,-1.01042 43.9115,10.5156 45.0156,19.8281 M7.23438,-2.73438 C7.23438,3.71354 9.83854,9.38021 15.0469,14.2656 C20.3802,19.0156 26.3698,21.3906 33.0156,21.3906 C35.7448,21.3906 38.4115,21.1927 41.0156,20.7969 C39.974,10.901 37.9219,-0.947917 34.8594,-14.75 C31.151,-14.3542 28.1927,-13.0521 25.9844,-10.8438 C23.8281,-8.5625 22.75,-5.98958 22.75,-3.125 C22.75,1.82292 25.3906,5.82813 30.6719,8.89063 C31.1198,9.34896 31.3438,9.83854 31.3438,10.3594 C31.3438,10.8802 31.1198,11.3646 30.6719,11.8125 C30.276,12.2708 29.7865,12.5 29.2031,12.5 C29.1406,12.5 28.849,12.4375 28.3281,12.3125 C24.6094,10.2917 21.7448,7.6875 19.7344,4.5 C17.8385,1.10417 16.8906,-2.31771 16.8906,-5.76563 C16.8906,-10.2552 18.2917,-14.3229 21.0938,-17.9688 C24.0208,-21.6146 27.8281,-23.9583 32.5156,-25 C30.6927,-32.2917 29.1979,-37.9896 28.0313,-42.0938 C26.9896,-40.9167 25.737,-39.5 24.2734,-37.8438 C22.8099,-36.1875 21.9479,-35.1927 21.6875,-34.8594 C19.3438,-31.8073 17.5521,-29.4323 16.3125,-27.7344 C14.0938,-24.6719 12.4635,-22.0365 11.4219,-19.8281 C10.3177,-17.349 9.34375,-14.6458 8.5,-11.7188 C7.65625,-8.91667 7.23438,-5.92188 7.23438,-2.73438 M39.8438,-102.047 C34.9583,-99.6406 31.1198,-96.1927 28.3281,-91.7031 C25.4635,-87.0781 24.0313,-82.099 24.0313,-76.7656 C24.0313,-72.0781 25.2031,-65.7604 27.5469,-57.8125 C32.2344,-63.4792 35.75,-68.7188 38.0938,-73.5313 C40.5625,-78.6146 41.7969,-83.9219 41.7969,-89.4531 C41.7969,-93.6198 41.1458,-97.8177 39.8438,-102.047"/>
<path class="KeySig" transform="matrix(0.907087,0,0,0.907087,306.879,1845.35)" d="M21.5781,31.1563 C21.5781,32.3958 20.9609,33.0156 19.7266,33.0156 C18.4922,33.0156 17.875,32.3958 17.875,31.1563 L17.875,16.7031 L9.57813,19.8281 L9.57813,35.6406 C9.57813,36.8802 8.95833,37.5 7.71875,37.5 C6.47917,37.5 5.85938,36.8802 5.85938,35.6406 L5.85938,21.0938 L2.73438,22.2656 C2.67188,22.3281 2.41146,22.3594 1.95313,22.3594 C1.43229,22.3594 0.976563,22.1641 0.585938,21.7734 C0.195313,21.3828 0,20.9271 0,20.4063 L0,14.3594 C0,13.3802 0.421875,12.7604 1.26563,12.5 L5.85938,10.9375 L5.85938,-5.07813 L2.73438,-4 C2.67188,-3.9375 2.41146,-3.90625 1.95313,-3.90625 C1.43229,-3.90625 0.976563,-4.10156 0.585938,-4.49219 C0.195313,-4.88281 0,-5.33854 0,-5.85938 L0,-11.9219 C0,-12.8281 0.421875,-13.4115 1.26563,-13.6719 L5.85938,-15.4375 L5.85938,-31.1563 C5.85938,-32.3958 6.47917,-33.0156 7.71875,-33.0156 C8.95833,-33.0156 9.57813,-32.3958 9.57813,-31.1563 L9.57813,-16.7031 L17.875,-19.8281 L17.875,-35.6406 C17.875,-36.8802 18.4922,-37.5 19.7266,-37.5 C20.9609,-37.5 21.5781,-36.8802 21.5781,-35.6406 L21.5781,-21.0938 L24.8125,-22.2656 C24.875,-22.3281 25.099,-22.3594 25.4844,-22.3594 C25.9427,-22.3594 26.4323,-22.1667 26.9531,-21.7813 C27.349,-21.3854 27.5469,-20.9271 27.5469,-20.4063 L27.5469,-14.3594 C27.5469,-13.4427 27.0885,-12.8229 26.1719,-12.5 L21.5781,-10.9375 L21.5781,5.07813 L24.8125,4 C24.875,3.9375 25.099,3.90625 25.4844,3.90625 C25.9427,3.90625 26.4323,4.10417 26.9531,4.5 C27.349,4.88542 27.5469,5.33854 27.5469,5.85938 L27.5469,11.9219 C27.5469,12.7656 27.0885,13.349 26.1719,13.6719 L21.5781,15.4375 L21.5781,31.1563 M17.875,-9.46875 L9.57813,-6.54688 L9.57813,9.46875 L17.875,6.54688 L17.875,-9.46875 "/>
<path class="KeySig" transform="matrix(0.907087,0,0,0.907087,306.879,1414.49)" d="M21.5781,31.1563 C21.5781,32.3958 20.9609,33.0156 19.7266,33.0156 C18.4922,33.0156 17.875,32.3958 17.875,31.1563 L17.875,16.7031 L9.57813,19.8281 L9.57813,35.6406 C9.57813,36.8802 8.95833,37.5 7.71875,37.5 C6.47917,37.5 5.85938,36.8802 5.85938,35.6406 L5.85938,21.0938 L2.73438,22.2656 C2.67188,22.3281 2.41146,22.3594 1.95313,22.3594 C1.43229,22.3594 0.976563,22.1641 0.585938,21.7734 C0.195313,21.3828 0,20.9271 0,20.4063 L0,14.3594 C0,13.3802 0.421875,12.7604 1.26563,12.5 L5.85938,10.9375 L5.85938,-5.07813 L2.73438,-4 C2.67188,-3.9375 2.41146,-3.90625 1.95313,-3.90625 C1.43229,-3.90625 0.976563,-4.10156 0.585938,-4.49219 C0.195313,-4.88281 0,-5.33854 0,-5.85938 L0,-11.9219 C0,-12.8281 0.421875,-13.4115 1.26563,-13.6719 L5.85938,-15.4375 L5.85938,-31.1563 C5.85938,-32.3958 6.47917,-33.0156 7.71875,-33.0156 C8.95833,-33.0156 9.57813,-32.3958 9.57813,-31.1563 L9.57813,-16.7031 L17.875,-19.8281 L17.875,-35.6406 C17.875,-36.8802 18.4922,-37.5 19.7266,-37.5 C20.9609,-37.5 21.5781,-36.8802 21.5781,-35.6406 L21.5781,-21.0938 L24.8125,-22.2656 C24.875,-22.3281 25.099,-22.3594 25.4844,-22.3594 C25.9427,-22.3594 26.4323,-22.1667 26.9531,-21.7813 C27.349,-21.3854 27.5469,-20.9271 27.5469,-20.4063 L27.5469,-14.3594 C27.5469,-13.4427 27.0885,-12.8229 26.1719,-12.5 L21.5781,-10.9375 L21.5781,5.07813 L24.8125,4 C24.875,3.9375 25.099,3.90625 25.4844,3.90625 C25.9427,3.90625 26.4323,4.10417 26.9531,4.5 C27.349,4.88542 27.5469,5.33854 27.5469,5.85938 L27.5469,11.9219 C27.5469,12.7656 27.0885,13.349 26.1719,13.6719 L21.5781,15.4375 L21.5781,31.1563 M17.875,-9.46875 L9.57813,-6.54688 L9.57813,9.46875 L17.875,6.54688 L17.875,-9.46875 "/>
<path class="KeySig" transform="matrix(0.907087,0,0,0.907087,306.879,983.622)" d="M21.5781,31.1563 C21.5781,32.3958 20.9609,33.0156 19.7266,33.0156 C18.4922,33.0156 17.875,32.3958 17.875,31.1563 L17.875,16.7031 L9.57813,19.8281 L9.57813,35.6406 C9.57813,36.8802 8.95833,37.5 7.71875,37.5 C6.47917,37.5 5.85938,36.8802 5.85938,35.6406 L5.85938,21.0938 L2.73438,22.2656 C2.67188,22.3281 2.41146,22.3594 1.95313,22.3594 C1.43229,22.3594 0.976563,22.1641 0.585938,21.7734 C0.195313,21.3828 0,20.9271 0,20.4063 L0,14.3594 C0,13.3802 0.421875,12.7604 1.26563,12.5 L5.85938,10.9375 L5.85938,-5.07813 L2.73438,-4 C2.67188,-3.9375 2.41146,-3.90625 1.95313,-3.90625 C1.43229,-3.90625 0.976563,-4.10156 0.585938,-4.49219 C0.195313,-4.88281 0,-5.33854 0,-5.85938 L0,-11.9219 C0,-12.8281 0.421875,-13.4115 1.26563,-13.6719 L5.85938,-15.4375 L5.85938,-31.1563 C5.85938,-32.3958 6.47917,-33.0156 7.71875,-33.0156 C8.95833,-33.0156 9.57813,-32.3958 9.57813,-31.1563 L9.57813,-16.7031 L17.875,-19.8281 L17.875,-35.6406 C17.875,-36.8802 18.4922,-37.5 19.7266,-37.5 C20.9609,-37.5 21.5781,-36.8802 21.5781,-35.6406 L21.5781,-21.0938 L24.8125,-22.2656 C24.875,-22.3281 25.099,-22.3594 25.4844,-22.3594 C25.9427,-22.3594 26.4323,-22.1667 26.9531,-21.7813 C27.349,-21.3854 27.5469,-20.9271 27.5469,-20.4063 L27.5469,-14.3594 C27.5469,-13.4427 27.0885,-12.8229 26.1719,-12.5 L21.5781,-10.9375 L21.5781,5.07813 L24.8125,4 C24.875,3.9375 25.099,3.90625 25.4844,3.90625 C25.9427,3.90625 26.4323,4.10417 26.9531,4.5 C27.349,4.88542 27.5469,5.33854 27.5469,5.85938 L27.5469,11.9219 C27.5469,12.7656 27.0885,13.349 26.1719,13.6719 L21.5781,15.4375 L21.5781,31.1563 M17.875,-9.46875 L9.57813,-6.54688 L9.57813,9.46875 L17.875,6.54688 L17.875,-9.46875 "/>
<path class="KeySig" transform="matrix(0.907087,0,0,0.907087,306.879,552.756)" d="M21.5781,31.1563 C21.5781,32.3958 20.9609,33.0156 19.7266,33.0156 C18.4922,33.0156 17.875,32.3958 17.875,31.1563 L17.875,16.7031 L9.57813,19.8281 L9.57813,35.6406 C9.57813,36.8802 8.95833,37.5 7.71875,37.5 C6.47917,37.5 5.85938,36.8802 5.85938,35.6406 L5.85938,21.0938 L2.73438,22.2656 C2.67188,22.3281 2.41146,22.3594 1.95313,22.3594 C1.43229,22.3594 0.976563,22.1641 0.585938,21.7734 C0.195313,21.3828 0,20.9271 0,20.4063 L0,14.3594 C0,13.3802 0.421875,12.7604 1.26563,12.5 L5.85938,10.9375 L5.85938,-5.07813 L2.73438,-4 C2.67188,-3.9375 2.41146,-3.90625 1.95313,-3.90625 C1.43229,-3.90625 0.976563,-4.10156 0.585938,-4.49219 C0.195313,-4.88281 0,-5.33854 0,-5.85938 L0,-11.9219 C0,-12.8281 0.421875,-13.4115 1.26563,-13.6719 L5.85938,-15.4375 L5.85938,-31.1563 C5.85938,-32.3958 6.47917,-33.0156 7.71875,-33.0156 C8.95833,-33.0156 9.57813,-32.3958 9.57813,-31.1563 L9.57813,-16.7031 L17.875,-19.8281 L17.875,-35.6406 C17.875,-36.8802 18.4922,-37.5 19.7266,-37.5 C20.9609,-37.5 21.5781,-36.8802 21.5781,-35.6406 L21.5781,-21.0938 L24.8125,-22.2656 C24.875,-22.3281 25.099,-22.3594 25.4844,-22.3594 C25.9427,-22.3594 26.4323,-22.1667 26.9531,-21.7813 C27.349,-21.3854 27.5469,-20.9271 27.5469,-20.4063 L27.5469,-14.3594 C27.5469,-13.4427 27.0885,-12.8229 26.1719,-12.5 L21.5781,-10.9375 L21.5781,5.07813 L24.8125,4 C24.875,3.9375 25.099,3.90625 25.4844,3.90625 C25.9427,3.90625 26.4323,4.10417 26.9531,4.5 C27.349,4.88542 27.5469,5.33854 27.5469,5.85938 L27.5469,11.9219 C27.5469,12.7656 27.0885,13.349 26.1719,13.6719 L21.5781,15.4375 L21.5781,31.1563 M17.875,-9.46875 L9.57813,-6.54688 L9.57813,9.46875 L17.875,6.54688 L17.875,-9.46875 "/>
<path class="Beam" fill-rule="evenodd" d="M2090.11,1833.85 L2197.11,1839.68 L2197.11,1851.03 L2090.11,1845.2 L2090.11,1833.85 "/>
<path class="Beam" fill-rule="evenodd" d="M1646.32,1822.9 L1931.44,1799.98 L1931.44,1811.36 L1646.32,1834.27 L1646.32,1822.9 "/>
<path class="Beam" fill-rule="evenodd" d="M1229.58,1833.85 L1336.57,1839.68 L1336.57,1851.03 L1229.58,1845.2 L1229.58,1833.85 "/>
<path class="Beam" fill-rule="evenodd" d="M795.613,1970.08 L1080.73,1970.08 L1080.73,1981.42 L795.613,1981.42 L795.613,1970.08 "/>
<path class="Beam" fill-rule="evenodd" d="M388.552,1941.73 L673.665,1947.46 L673.665,1958.8 L388.552,1953.07 L388.552,1941.73 "/>
<path class="Beam" fill-rule="evenodd" d="M1615.19,1386.04 L1788.47,1391.81 L1788.47,1403.15 L1615.19,1397.39 L1615.19,1386.04 "/>
<path class="Beam" fill-rule="evenodd" d="M969.471,1369.13 L1433.57,1369.13 L1433.57,1380.47 L969.471,1380.47 L969.471,1369.13 "/>
<path class="Beam" fill-rule="evenodd" d="M2196.78,955.237 L2642.44,960.944 L2642.44,972.284 L2196.78,966.577 L2196.78,955.237 "/>
<path class="Beam" fill-rule="evenodd" d="M1539.08,1085.67 L1705.53,1091.44 L1705.53,1102.78 L1539.08,1097.01 L1539.08,1085.67 "/>
<path class="Beam" fill-rule="evenodd" d="M917.964,1074.33 L1363.62,1068.62 L1363.62,1079.96 L917.964,1085.67 L917.964,1074.33 "/>
<path class="Beam" fill-rule="evenodd" d="M2185.63,666.142 L2619.47,666.142 L2619.47,677.48 L2185.63,677.48 L2185.63,666.142 "/>
<path class="Beam" fill-rule="evenodd" d="M1570.6,637.792 L1732.67,643.566 L1732.67,654.912 L1570.6,649.138 L1570.6,637.792 "/>
<path class="Beam" fill-rule="evenodd" d="M965.242,660.473 L1399.08,660.473 L1399.08,671.811 L965.242,671.811 L965.242,660.473 "/>
<path class="VoltaSegment" d="M2048.88,1750.85 C2051.41,1744.05 2055.08,1740.65 2059.88,1740.65 C2062.58,1740.65 2064.79,1741.51 2066.53,1743.23 C2068.26,1744.95 2069.13,1747.14 2069.13,1749.81 C2069.13,1753.47 2067.23,1757.11 2063.43,1760.71 L2055.33,1768.4 L2062.88,1768.4 C2065.45,1768.4 2067.1,1768.2 2067.83,1767.81 C2068.56,1767.41 2069.3,1766.31 2070.04,1764.51 L2071.24,1764.51 L2068.99,1775.06 L2048.18,1775.06 L2048.18,1773.9 C2053.89,1767.84 2057.67,1763.36 2059.54,1760.48 C2061.4,1757.59 2062.33,1755 2062.33,1752.71 C2062.33,1751 2061.78,1749.52 2060.68,1748.25 C2059.59,1746.98 2058.15,1746.35 2056.38,1746.35 C2053.82,1746.35 2051.79,1747.85 2050.29,1750.85 L2048.88,1750.85 M2078.58,1767.26 C2079.75,1767.26 2080.75,1767.68 2081.58,1768.53 C2082.42,1769.38 2082.83,1770.39 2082.83,1771.56 C2082.83,1772.72 2082.42,1773.71 2081.58,1774.51 C2080.75,1775.31 2079.73,1775.71 2078.54,1775.71 C2077.37,1775.71 2076.39,1775.3 2075.58,1774.48 C2074.78,1773.67 2074.38,1772.66 2074.38,1771.46 C2074.38,1770.33 2074.8,1769.34 2075.63,1768.51 C2076.46,1767.67 2077.45,1767.26 2078.58,1767.26"/>
<polyline class="VoltaSegment" fill="none" stroke="#000000" stroke-width="2.27" stroke-linecap="square" stroke-linejoin="bevel" points="2035.99,1775.06 2035.99,1731.97"/>
<polyline class="VoltaSegment" fill="none" stroke="#000000" stroke-width="2.27" stroke-linecap="square" stroke-linejoin="bevel" points="2035.99,1731.97 2743.37,1731.97"/>
<path class="VoltaSegment" d="M1191.3,1746.15 C1190.9,1746.15 1190.43,1746.23 1189.88,1746.4 C1189.33,1746.57 1188.74,1746.77 1188.13,1747 C1187.51,1747.23 1187.15,1747.37 1187.05,1747.4 L1187.05,1746.1 L1199.64,1740.65 L1200.5,1740.65 L1200.5,1769.15 C1200.5,1771.09 1200.84,1772.35 1201.5,1772.93 C1202.17,1773.51 1203.63,1773.82 1205.89,1773.85 L1205.89,1775.06 L1187.14,1775.06 L1187.14,1773.85 C1189.61,1773.82 1191.22,1773.5 1191.97,1772.88 C1192.72,1772.27 1193.1,1770.92 1193.1,1768.85 L1193.1,1749.6 C1193.1,1747.3 1192.5,1746.15 1191.3,1746.15 M1215.05,1767.26 C1216.22,1767.26 1217.22,1767.68 1218.05,1768.53 C1218.88,1769.38 1219.3,1770.39 1219.3,1771.56 C1219.3,1772.72 1218.88,1773.71 1218.05,1774.51 C1217.22,1775.31 1216.2,1775.71 1215,1775.71 C1213.84,1775.71 1212.85,1775.3 1212.05,1774.48 C1211.25,1773.67 1210.85,1772.66 1210.85,1771.46 C1210.85,1770.33 1211.26,1769.34 1212.1,1768.51 C1212.93,1767.67 1213.92,1767.26 1215.05,1767.26"/>
<polyline class="VoltaSegment" fill="none" stroke="#000000" stroke-width="2.27" stroke-linecap="square" stroke-linejoin="bevel" points="1175.46,1775.06 1175.46,1731.97"/>
<polyline class="VoltaSegment" fill="none" stroke="#000000" stroke-width="2.27" stroke-linecap="square" stroke-linejoin="bevel" points="1175.46,1731.97 2022.46,1731.97"/>
<polyline class="VoltaSegment" fill="none" stroke="#000000" stroke-width="2.27" stroke-linecap="square" stroke-linejoin="bevel" points="2022.46,1731.97 2022.46,1775.06"/>
<path class="Page" d="M212.828,3977.77 C212.964,3977.16 213.099,3976.63 213.234,3976.18 C213.37,3975.73 213.656,3975.08 214.094,3974.21 C214.531,3973.35 215.023,3972.63 215.57,3972.06 C216.117,3971.49 216.878,3970.98 217.852,3970.53 C218.826,3970.08 219.927,3969.85 221.156,3969.85 C223.229,3969.85 224.979,3970.53 226.406,3971.88 C227.833,3973.24 228.547,3974.91 228.547,3976.9 C228.547,3979.91 226.844,3983.2 223.438,3986.77 L216.719,3993.8 L226.266,3993.8 C227.172,3993.8 227.846,3993.65 228.289,3993.35 C228.732,3993.05 229.328,3992.33 230.078,3991.18 L230.594,3991.37 L228.391,3996.85 L212.797,3996.85 L212.797,3996.37 L219.906,3988.82 C223.375,3985.13 225.109,3981.66 225.109,3978.41 C225.109,3976.74 224.589,3975.38 223.547,3974.34 C222.505,3973.29 221.146,3972.77 219.469,3972.77 C218.083,3972.77 216.971,3973.15 216.133,3973.91 C215.294,3974.67 214.474,3976.03 213.672,3977.98 L212.828,3977.77 "/>
</svg>
