<?xml version="1.0" encoding="UTF-8" standalone="no"?>
<svg width="2977.23px" height="4208.45px" viewBox="0 0 2977.23 4208.45"
 xmlns="http://www.w3.org/2000/svg" xmlns:xlink="http://www.w3.org/1999/xlink" version="1.2" baseProfile="tiny">
<title>Di Di Di Mugurele Di</title>
<desc>Generated by MuseScore 3.0.2</desc>
<polyline class="StaffLines" fill="none" stroke="#000000" stroke-width="1.70" stroke-linejoin="bevel" points="141.732,503.15 2835.49,503.15"/>
<polyline class="StaffLines" fill="none" stroke="#000000" stroke-width="1.70" stroke-linejoin="bevel" points="141.732,524.409 2835.49,524.409"/>
<polyline class="StaffLines" fill="none" stroke="#000000" stroke-width="1.70" stroke-linejoin="bevel" points="141.732,545.669 2835.49,545.669"/>
<polyline class="StaffLines" fill="none" stroke="#000000" stroke-width="1.70" stroke-linejoin="bevel" points="141.732,566.929 2835.49,566.929"/>
<polyline class="StaffLines" fill="none" stroke="#000000" stroke-width="1.70" stroke-linejoin="bevel" points="141.732,588.189 2835.49,588.189"/>
<polyline class="StaffLines" fill="none" stroke="#000000" stroke-width="1.70" stroke-linejoin="bevel" points="141.732,907.087 2835.49,907.087"/>
<polyline class="StaffLines" fill="none" stroke="#000000" stroke-width="1.70" stroke-linejoin="bevel" points="141.732,928.346 2835.49,928.346"/>
<polyline class="StaffLines" fill="none" stroke="#000000" stroke-width="1.70" stroke-linejoin="bevel" points="141.732,949.606 2835.49,949.606"/>
<polyline class="StaffLines" fill="none" stroke="#000000" stroke-width="1.70" stroke-linejoin="bevel" points="141.732,970.866 2835.49,970.866"/>
<polyline class="StaffLines" fill="none" stroke="#000000" stroke-width="1.70" stroke-linejoin="bevel" points="141.732,992.126 2835.49,992.126"/>
<polyline class="StaffLines" fill="none" stroke="#000000" stroke-width="1.70" stroke-linejoin="bevel" points="141.732,1311.02 2835.49,1311.02"/>
<polyline class="StaffLines" fill="none" stroke="#000000" stroke-width="1.70" stroke-linejoin="bevel" points="141.732,1332.28 2835.49,1332.28"/>
<polyline class="StaffLines" fill="none" stroke="#000000" stroke-width="1.70" stroke-linejoin="bevel" points="141.732,1353.54 2835.49,1353.54"/>
<polyline class="StaffLines" fill="none" stroke="#000000" stroke-width="1.70" stroke-linejoin="bevel" points="141.732,1374.8 2835.49,1374.8"/>
<polyline class="StaffLines" fill="none" stroke="#000000" stroke-width="1.70" stroke-linejoin="bevel" points="141.732,1396.06 2835.49,1396.06"/>
<path class="Text" d="M954.701,232.938 C954.701,237.438 954.201,241.836 953.201,246.133 C952.201,250.43 950.352,254.878 947.654,259.477 C944.956,264.076 941.506,268.052 937.303,271.406 C933.099,274.761 927.524,277.537 920.576,279.735 C913.628,281.933 905.753,283.031 896.951,283.031 L854.357,283.031 L854.357,280.188 C860.055,279.761 863.68,278.748 865.232,277.149 C866.784,275.55 867.56,272.052 867.56,266.656 L867.56,200.125 C867.56,194.625 866.834,191.125 865.381,189.625 C863.928,188.125 860.253,187.11 854.357,186.578 L854.357,183.735 L894.857,183.735 C903.951,183.735 912.073,184.761 919.224,186.813 C926.375,188.865 932.125,191.516 936.474,194.766 C940.823,198.016 944.425,201.865 947.279,206.313 C950.133,210.761 952.084,215.136 953.131,219.438 C954.178,223.74 954.701,228.24 954.701,232.938 M938.357,233.985 C938.357,229.693 937.933,225.581 937.084,221.649 C936.235,217.716 934.709,213.732 932.506,209.696 C930.303,205.659 927.451,202.196 923.951,199.305 C920.451,196.414 915.852,194.047 910.154,192.203 C904.456,190.36 897.956,189.438 890.654,189.438 C887.56,189.438 885.487,189.836 884.435,190.633 C883.383,191.43 882.857,192.974 882.857,195.266 L882.857,271.203 C882.857,273.599 883.407,275.219 884.506,276.063 C885.605,276.906 887.654,277.328 890.654,277.328 C922.456,277.328 938.357,262.88 938.357,233.985 M969.404,224.078 C967.206,224.078 965.107,224.229 963.107,224.531 L963.107,222.281 C970.107,220.281 977.857,217.531 986.357,214.031 L986.951,214.485 L986.951,267.735 C986.951,273.13 987.576,276.555 988.826,278.008 C990.076,279.461 993.154,280.386 998.06,280.781 L998.06,283.031 L962.514,283.031 L962.514,280.781 C967.711,280.479 970.985,279.578 972.334,278.078 C973.683,276.578 974.357,273.13 974.357,267.735 L974.357,232.938 C974.357,229.636 973.982,227.334 973.232,226.031 C972.482,224.729 971.206,224.078 969.404,224.078 M979.31,180.578 C981.508,180.578 983.357,181.328 984.857,182.828 C986.357,184.328 987.107,186.13 987.107,188.235 C987.107,190.433 986.357,192.258 984.857,193.711 C983.357,195.164 981.508,195.891 979.31,195.891 C977.206,195.891 975.43,195.141 973.982,193.641 C972.534,192.141 971.81,190.339 971.81,188.235 C971.81,186.13 972.56,184.328 974.06,182.828 C975.56,181.328 977.31,180.578 979.31,180.578 M1023.4,283.328 C1023.4,283.328 1023,283.427 1022.2,283.625 C1021.31,283.834 1020.36,283.938 1019.36,283.938 C1016.66,283.938 1014.51,283.261 1012.91,281.906 C1011.31,280.552 1010.51,278.677 1010.51,276.281 C1010.51,273.781 1011.34,271.732 1012.98,270.133 C1014.63,268.534 1016.75,267.735 1019.36,267.735 C1022.75,267.735 1025.6,269.008 1027.9,271.555 C1030.21,274.102 1031.36,277.276 1031.36,281.078 C1031.36,285.578 1029.81,289.93 1026.71,294.133 C1023.61,298.336 1019.56,301.688 1014.56,304.188 L1013.2,301.328 C1021.41,295.735 1025.51,290.438 1025.51,285.438 C1025.51,284.031 1024.81,283.328 1023.4,283.328 M1129.4,284.531 L1128.81,284.063 L1128.81,274.203 C1124.01,281.089 1117.61,284.531 1109.61,284.531 C1101.31,284.531 1094.6,281.552 1089.51,275.594 C1084.41,269.636 1081.86,261.849 1081.86,252.235 C1081.86,241.651 1084.91,232.638 1091.01,225.196 C1097.1,217.753 1104.46,214.031 1113.06,214.031 C1118.46,214.031 1123.71,216.276 1128.81,220.766 L1128.81,197.156 C1128.81,194.021 1128.36,191.951 1127.46,190.946 C1126.56,189.94 1124.71,189.438 1121.9,189.438 C1120.51,189.438 1119.41,189.485 1118.61,189.578 L1118.61,187.188 C1127.7,184.781 1135.05,182.578 1140.65,180.578 L1141.4,180.891 L1141.4,265.688 C1141.4,269.177 1141.83,271.469 1142.68,272.563 C1143.53,273.656 1145.3,274.203 1148,274.203 C1148.5,274.203 1149.65,274.156 1151.45,274.063 L1151.45,276.438 L1129.4,284.531 M1115.45,276.438 C1119.25,276.438 1122.43,275.373 1124.98,273.242 C1127.53,271.112 1128.81,269.203 1128.81,267.516 L1128.81,233.375 C1128.81,229.417 1127.26,225.953 1124.15,222.985 C1121.05,220.016 1117.5,218.531 1113.51,218.531 C1107.81,218.531 1103.25,221.055 1099.86,226.102 C1096.46,231.149 1094.76,237.88 1094.76,246.297 C1094.76,255.401 1096.66,262.701 1100.46,268.196 C1104.26,273.69 1109.25,276.438 1115.45,276.438 M1162.4,224.078 C1160.21,224.078 1158.11,224.229 1156.11,224.531 L1156.11,222.281 C1163.11,220.281 1170.86,217.531 1179.36,214.031 L1179.95,214.485 L1179.95,267.735 C1179.95,273.13 1180.58,276.555 1181.83,278.008 C1183.08,279.461 1186.15,280.386 1191.06,280.781 L1191.06,283.031 L1155.51,283.031 L1155.51,280.781 C1160.71,280.479 1163.98,279.578 1165.33,278.078 C1166.68,276.578 1167.36,273.13 1167.36,267.735 L1167.36,232.938 C1167.36,229.636 1166.98,227.334 1166.23,226.031 C1165.48,224.729 1164.21,224.078 1162.4,224.078 M1172.31,180.578 C1174.51,180.578 1176.36,181.328 1177.86,182.828 C1179.36,184.328 1180.11,186.13 1180.11,188.235 C1180.11,190.433 1179.36,192.258 1177.86,193.711 C1176.36,195.164 1174.51,195.891 1172.31,195.891 C1170.21,195.891 1168.43,195.141 1166.98,193.641 C1165.53,192.141 1164.81,190.339 1164.81,188.235 C1164.81,186.13 1165.56,184.328 1167.06,182.828 C1168.56,181.328 1170.31,180.578 1172.31,180.578 M1216.4,283.328 C1216.4,283.328 1216,283.427 1215.2,283.625 C1214.31,283.834 1213.36,283.938 1212.36,283.938 C1209.66,283.938 1207.51,283.261 1205.91,281.906 C1204.31,280.552 1203.51,278.677 1203.51,276.281 C1203.51,273.781 1204.34,271.732 1205.98,270.133 C1207.63,268.534 1209.75,267.735 1212.36,267.735 C1215.75,267.735 1218.6,269.008 1220.9,271.555 C1223.21,274.102 1224.36,277.276 1224.36,281.078 C1224.36,285.578 1222.81,289.93 1219.71,294.133 C1216.61,298.336 1212.56,301.688 1207.56,304.188 L1206.2,301.328 C1214.41,295.735 1218.51,290.438 1218.51,285.438 C1218.51,284.031 1217.81,283.328 1216.4,283.328 M1322.4,284.531 L1321.81,284.063 L1321.81,274.203 C1317.01,281.089 1310.61,284.531 1302.61,284.531 C1294.31,284.531 1287.6,281.552 1282.51,275.594 C1277.41,269.636 1274.86,261.849 1274.86,252.235 C1274.86,241.651 1277.91,232.638 1284.01,225.196 C1290.1,217.753 1297.46,214.031 1306.06,214.031 C1311.46,214.031 1316.71,216.276 1321.81,220.766 L1321.81,197.156 C1321.81,194.021 1321.36,191.951 1320.46,190.946 C1319.56,189.94 1317.71,189.438 1314.9,189.438 C1313.51,189.438 1312.41,189.485 1311.61,189.578 L1311.61,187.188 C1320.7,184.781 1328.05,182.578 1333.65,180.578 L1334.4,180.891 L1334.4,265.688 C1334.4,269.177 1334.83,271.469 1335.68,272.563 C1336.53,273.656 1338.3,274.203 1341,274.203 C1341.5,274.203 1342.65,274.156 1344.45,274.063 L1344.45,276.438 L1322.4,284.531 M1308.45,276.438 C1312.25,276.438 1315.43,275.373 1317.98,273.242 C1320.53,271.112 1321.81,269.203 1321.81,267.516 L1321.81,233.375 C1321.81,229.417 1320.26,225.953 1317.15,222.985 C1314.05,220.016 1310.5,218.531 1306.51,218.531 C1300.81,218.531 1296.25,221.055 1292.86,226.102 C1289.46,231.149 1287.76,237.88 1287.76,246.297 C1287.76,255.401 1289.66,262.701 1293.46,268.196 C1297.26,273.69 1302.25,276.438 1308.45,276.438 M1355.4,224.078 C1353.21,224.078 1351.11,224.229 1349.11,224.531 L1349.11,222.281 C1356.11,220.281 1363.86,217.531 1372.36,214.031 L1372.95,214.485 L1372.95,267.735 C1372.95,273.13 1373.58,276.555 1374.83,278.008 C1376.08,279.461 1379.15,280.386 1384.06,280.781 L1384.06,283.031 L1348.51,283.031 L1348.51,280.781 C1353.71,280.479 1356.98,279.578 1358.33,278.078 C1359.68,276.578 1360.36,273.13 1360.36,267.735 L1360.36,232.938 C1360.36,229.636 1359.98,227.334 1359.23,226.031 C1358.48,224.729 1357.21,224.078 1355.4,224.078 M1365.31,180.578 C1367.51,180.578 1369.36,181.328 1370.86,182.828 C1372.36,184.328 1373.11,186.13 1373.11,188.235 C1373.11,190.433 1372.36,192.258 1370.86,193.711 C1369.36,195.164 1367.51,195.891 1365.31,195.891 C1363.21,195.891 1361.43,195.141 1359.98,193.641 C1358.53,192.141 1357.81,190.339 1357.81,188.235 C1357.81,186.13 1358.56,184.328 1360.06,182.828 C1361.56,181.328 1363.31,180.578 1365.31,180.578 M1527.65,197.078 L1489.25,283.031 L1487.15,283.031 L1449.51,200.531 L1449.51,260.985 C1449.51,268.578 1450.41,273.602 1452.21,276.055 C1454.01,278.508 1457.81,279.886 1463.61,280.188 L1463.61,283.031 L1428.36,283.031 L1428.36,280.188 C1434.56,279.781 1438.53,278.404 1440.28,276.055 C1442.03,273.706 1442.9,268.683 1442.9,260.985 L1442.9,200.078 C1442.9,194.578 1442.08,191.055 1440.43,189.508 C1438.78,187.961 1434.85,186.985 1428.65,186.578 L1428.65,183.735 L1458.36,183.735 L1493,259.485 L1526.15,183.735 L1556,183.735 L1556,186.578 C1550.4,187.078 1546.83,188.13 1545.28,189.735 C1543.73,191.339 1542.95,194.787 1542.95,200.078 L1542.95,266.688 C1542.95,271.979 1543.75,275.451 1545.35,277.102 C1546.95,278.753 1550.5,279.781 1556,280.188 L1556,283.031 L1514,283.031 L1514,280.188 C1519.9,279.781 1523.66,278.703 1525.26,276.953 C1526.85,275.203 1527.65,271.229 1527.65,265.031 L1527.65,197.078 M1630.11,275.235 L1630.11,277.328 C1622.31,279.526 1615.46,281.875 1609.56,284.375 L1608.95,284.078 L1608.95,271.36 C1608.65,271.651 1607.77,272.544 1606.33,274.039 C1604.88,275.534 1603.85,276.568 1603.26,277.141 C1602.66,277.714 1601.63,278.597 1600.18,279.789 C1598.72,280.982 1597.45,281.836 1596.35,282.352 C1595.25,282.867 1593.85,283.36 1592.15,283.828 C1590.46,284.297 1588.76,284.531 1587.06,284.531 C1581.56,284.531 1577.16,282.735 1573.86,279.141 C1570.56,275.547 1568.9,270.761 1568.9,264.781 L1568.9,227.188 C1568.9,223.698 1568.26,221.284 1566.96,219.946 C1565.66,218.607 1563.21,217.839 1559.61,217.641 L1559.61,215.531 L1581.51,215.531 L1581.51,264.188 C1581.51,267.271 1582.56,269.933 1584.66,272.172 C1586.76,274.412 1589.26,275.531 1592.15,275.531 C1593.26,275.531 1594.56,275.383 1596.06,275.086 C1597.56,274.789 1599.28,274.216 1601.23,273.367 C1603.18,272.518 1604.83,271.175 1606.18,269.336 C1607.53,267.498 1608.2,265.235 1608.2,262.547 L1608.2,227.485 C1608.2,223.808 1607.53,221.37 1606.18,220.172 C1604.83,218.974 1601.81,218.276 1597.11,218.078 L1597.11,215.531 L1620.81,215.531 L1620.81,266.719 C1620.81,270.209 1621.36,272.5 1622.46,273.594 C1623.56,274.688 1625.86,275.235 1629.36,275.235 L1630.11,275.235 M1677.25,228.735 C1675.75,228.735 1673.9,227.86 1671.7,226.11 C1669.5,224.36 1668.06,223.485 1667.36,223.485 C1665.36,223.485 1663.11,224.935 1660.61,227.836 C1658.11,230.737 1656.86,233.386 1656.86,235.781 L1656.86,269.531 C1656.86,273.834 1657.71,276.735 1659.4,278.235 C1661.1,279.735 1664.5,280.584 1669.61,280.781 L1669.61,283.031 L1633.61,283.031 L1633.61,280.781 C1638.41,279.886 1641.39,278.886 1642.54,277.781 C1643.69,276.677 1644.26,274.229 1644.26,270.438 L1644.26,232.938 C1644.26,229.636 1643.89,227.31 1643.14,225.961 C1642.39,224.612 1641.06,223.938 1639.15,223.938 C1637.56,223.938 1635.81,224.136 1633.9,224.531 L1633.9,222.141 C1641.9,219.537 1649.31,216.834 1656.11,214.031 L1656.86,214.328 L1656.86,228.141 C1660.56,222.839 1663.7,219.162 1666.3,217.11 C1668.9,215.058 1671.75,214.031 1674.86,214.031 C1677.45,214.031 1679.47,214.732 1680.93,216.133 C1682.38,217.534 1683.11,219.485 1683.11,221.985 C1683.11,224.089 1682.58,225.74 1681.53,226.938 C1680.48,228.136 1679.05,228.735 1677.25,228.735 M1693.11,274.938 C1693.11,273.031 1693.78,271.279 1695.13,269.68 C1696.48,268.081 1700.25,264.38 1706.45,258.578 C1701.45,256.068 1697.88,253.255 1695.73,250.141 C1693.59,247.026 1692.51,243.11 1692.51,238.391 C1692.51,231.62 1694.94,225.867 1699.79,221.133 C1704.64,216.399 1710.56,214.031 1717.56,214.031 C1721.46,214.031 1725.63,214.857 1730.08,216.508 C1734.52,218.159 1738.2,218.985 1741.11,218.985 L1752.65,218.985 L1752.65,224.688 L1740.2,224.688 C1742.11,229 1743.06,233.219 1743.06,237.344 C1743.06,244.271 1740.73,249.893 1736.08,254.211 C1731.43,258.529 1725.96,260.688 1719.65,260.688 C1718.46,260.688 1715.61,260.438 1711.11,259.938 C1709.11,260.531 1707.11,261.878 1705.11,263.977 C1703.11,266.076 1702.11,267.875 1702.11,269.375 C1702.11,271.781 1706.01,273.136 1713.81,273.438 L1733.15,274.328 C1738.65,274.526 1743.06,276.076 1746.36,278.977 C1749.66,281.878 1751.31,285.677 1751.31,290.375 C1751.31,297.584 1747.19,303.612 1738.94,308.461 C1730.69,313.31 1721.81,315.735 1712.31,315.735 C1705.21,315.735 1699.1,314.31 1694.01,311.461 C1688.91,308.612 1686.36,305.188 1686.36,301.188 C1686.36,298.386 1687.48,295.61 1689.73,292.86 C1691.98,290.11 1695.76,286.781 1701.06,282.875 C1697.96,281.375 1695.85,280.076 1694.76,278.977 C1693.66,277.878 1693.11,276.531 1693.11,274.938 M1704.2,283.328 C1701.11,287.026 1699.11,289.677 1698.21,291.281 C1697.31,292.886 1696.86,294.537 1696.86,296.235 C1696.86,299.537 1698.86,302.188 1702.86,304.188 C1706.86,306.188 1712.16,307.188 1718.76,307.188 C1727.25,307.188 1734.1,305.836 1739.3,303.133 C1744.51,300.43 1747.11,296.927 1747.11,292.625 C1747.11,289.927 1745.71,288.029 1742.9,286.93 C1740.1,285.831 1735.3,285.281 1728.5,285.281 C1718.4,285.281 1710.31,284.63 1704.2,283.328 M1731.5,243.219 C1731.5,241.542 1731.3,239.521 1730.9,237.156 C1730.51,234.792 1729.81,232.107 1728.81,229.102 C1727.81,226.097 1726.21,223.584 1724.01,221.563 C1721.8,219.542 1719.15,218.531 1716.06,218.531 C1712.56,218.531 1709.83,219.745 1707.88,222.172 C1705.93,224.599 1704.95,227.948 1704.95,232.219 C1704.95,240.854 1706.55,247.133 1709.76,251.055 C1712.96,254.977 1716.46,256.938 1720.26,256.938 C1723.75,256.938 1726.5,255.706 1728.5,253.242 C1730.5,250.779 1731.5,247.438 1731.5,243.219 M1826.11,275.235 L1826.11,277.328 C1818.31,279.526 1811.46,281.875 1805.56,284.375 L1804.95,284.078 L1804.95,271.36 C1804.65,271.651 1803.77,272.544 1802.33,274.039 C1800.88,275.534 1799.85,276.568 1799.26,277.141 C1798.66,277.714 1797.63,278.597 1796.18,279.789 C1794.72,280.982 1793.45,281.836 1792.35,282.352 C1791.25,282.867 1789.85,283.36 1788.15,283.828 C1786.46,284.297 1784.76,284.531 1783.06,284.531 C1777.56,284.531 1773.16,282.735 1769.86,279.141 C1766.56,275.547 1764.9,270.761 1764.9,264.781 L1764.9,227.188 C1764.9,223.698 1764.26,221.284 1762.96,219.946 C1761.66,218.607 1759.21,217.839 1755.61,217.641 L1755.61,215.531 L1777.51,215.531 L1777.51,264.188 C1777.51,267.271 1778.56,269.933 1780.66,272.172 C1782.76,274.412 1785.26,275.531 1788.15,275.531 C1789.26,275.531 1790.56,275.383 1792.06,275.086 C1793.56,274.789 1795.28,274.216 1797.23,273.367 C1799.18,272.518 1800.83,271.175 1802.18,269.336 C1803.53,267.498 1804.2,265.235 1804.2,262.547 L1804.2,227.485 C1804.2,223.808 1803.53,221.37 1802.18,220.172 C1800.83,218.974 1797.81,218.276 1793.11,218.078 L1793.11,215.531 L1816.81,215.531 L1816.81,266.719 C1816.81,270.209 1817.36,272.5 1818.46,273.594 C1819.56,274.688 1821.86,275.235 1825.36,275.235 L1826.11,275.235 M1829.61,189.578 L1829.61,187.188 C1839.5,184.781 1847.45,182.578 1853.45,180.578 L1854.06,180.891 L1854.06,270.438 C1854.06,274.531 1854.73,277.203 1856.08,278.453 C1857.43,279.703 1860.51,280.479 1865.31,280.781 L1865.31,283.031 L1829.9,283.031 L1829.9,280.781 C1834.6,280.386 1837.7,279.487 1839.2,278.086 C1840.7,276.685 1841.45,273.985 1841.45,269.985 L1841.45,198.438 C1841.45,194.938 1841,192.537 1840.11,191.235 C1839.21,189.933 1837.56,189.281 1835.15,189.281 C1833.15,189.281 1831.31,189.38 1829.61,189.578 M1881.65,241.485 C1881.85,247.787 1882.7,253.211 1884.2,257.758 C1885.7,262.305 1887.65,265.703 1890.05,267.953 C1892.45,270.203 1894.88,271.805 1897.33,272.758 C1899.79,273.711 1902.36,274.188 1905.06,274.188 C1909.85,274.188 1914.02,272.987 1917.58,270.586 C1921.13,268.185 1924.71,264.136 1928.31,258.438 L1930.7,259.485 C1927.61,267.578 1923.31,273.776 1917.81,278.078 C1912.31,282.38 1906.01,284.531 1898.9,284.531 C1890.31,284.531 1883.49,281.505 1878.44,275.453 C1873.38,269.401 1870.86,261.229 1870.86,250.938 C1870.86,239.834 1873.78,230.906 1879.63,224.156 C1885.48,217.406 1893,214.031 1902.2,214.031 C1909.81,214.031 1915.71,216.308 1919.9,220.86 C1924.1,225.412 1926.75,232.287 1927.86,241.485 L1881.65,241.485 M1881.95,236.985 L1912.56,236.985 C1911.56,230.485 1910.01,225.985 1907.91,223.485 C1905.81,220.985 1902.46,219.735 1897.86,219.735 C1888.86,219.735 1883.56,225.485 1881.95,236.985 M1955.4,283.328 C1955.4,283.328 1955,283.427 1954.2,283.625 C1953.31,283.834 1952.36,283.938 1951.36,283.938 C1948.66,283.938 1946.51,283.261 1944.91,281.906 C1943.31,280.552 1942.51,278.677 1942.51,276.281 C1942.51,273.781 1943.34,271.732 1944.98,270.133 C1946.63,268.534 1948.75,267.735 1951.36,267.735 C1954.75,267.735 1957.6,269.008 1959.9,271.555 C1962.21,274.102 1963.36,277.276 1963.36,281.078 C1963.36,285.578 1961.81,289.93 1958.71,294.133 C1955.61,298.336 1951.56,301.688 1946.56,304.188 L1945.2,301.328 C1953.41,295.735 1957.51,290.438 1957.51,285.438 C1957.51,284.031 1956.81,283.328 1955.4,283.328 M2061.4,284.531 L2060.81,284.063 L2060.81,274.203 C2056.01,281.089 2049.61,284.531 2041.61,284.531 C2033.31,284.531 2026.6,281.552 2021.51,275.594 C2016.41,269.636 2013.86,261.849 2013.86,252.235 C2013.86,241.651 2016.91,232.638 2023.01,225.196 C2029.1,217.753 2036.46,214.031 2045.06,214.031 C2050.46,214.031 2055.71,216.276 2060.81,220.766 L2060.81,197.156 C2060.81,194.021 2060.36,191.951 2059.46,190.946 C2058.56,189.94 2056.71,189.438 2053.9,189.438 C2052.51,189.438 2051.41,189.485 2050.61,189.578 L2050.61,187.188 C2059.7,184.781 2067.05,182.578 2072.65,180.578 L2073.4,180.891 L2073.4,265.688 C2073.4,269.177 2073.83,271.469 2074.68,272.563 C2075.53,273.656 2077.3,274.203 2080,274.203 C2080.5,274.203 2081.65,274.156 2083.45,274.063 L2083.45,276.438 L2061.4,284.531 M2047.45,276.438 C2051.25,276.438 2054.43,275.373 2056.98,273.242 C2059.53,271.112 2060.81,269.203 2060.81,267.516 L2060.81,233.375 C2060.81,229.417 2059.26,225.953 2056.15,222.985 C2053.05,220.016 2049.5,218.531 2045.51,218.531 C2039.81,218.531 2035.25,221.055 2031.86,226.102 C2028.46,231.149 2026.76,237.88 2026.76,246.297 C2026.76,255.401 2028.66,262.701 2032.46,268.196 C2036.26,273.69 2041.25,276.438 2047.45,276.438 M2094.4,224.078 C2092.21,224.078 2090.11,224.229 2088.11,224.531 L2088.11,222.281 C2095.11,220.281 2102.86,217.531 2111.36,214.031 L2111.95,214.485 L2111.95,267.735 C2111.95,273.13 2112.58,276.555 2113.83,278.008 C2115.08,279.461 2118.15,280.386 2123.06,280.781 L2123.06,283.031 L2087.51,283.031 L2087.51,280.781 C2092.71,280.479 2095.98,279.578 2097.33,278.078 C2098.68,276.578 2099.36,273.13 2099.36,267.735 L2099.36,232.938 C2099.36,229.636 2098.98,227.334 2098.23,226.031 C2097.48,224.729 2096.21,224.078 2094.4,224.078 M2104.31,180.578 C2106.51,180.578 2108.36,181.328 2109.86,182.828 C2111.36,184.328 2112.11,186.13 2112.11,188.235 C2112.11,190.433 2111.36,192.258 2109.86,193.711 C2108.36,195.164 2106.51,195.891 2104.31,195.891 C2102.21,195.891 2100.43,195.141 2098.98,193.641 C2097.53,192.141 2096.81,190.339 2096.81,188.235 C2096.81,186.13 2097.56,184.328 2099.06,182.828 C2100.56,181.328 2102.31,180.578 2104.31,180.578"/>
<path class="MeasureNumber" d="M129.451,1248.35 C129.045,1248.35 128.232,1248.6 127.013,1249.1 L127.013,1248.61 L133.123,1245.52 L133.404,1245.6 L133.404,1265.99 C133.404,1266.8 133.607,1267.33 134.013,1267.58 C134.42,1267.83 135.29,1267.97 136.623,1267.99 L136.623,1268.5 L127.248,1268.5 L127.248,1267.99 C128.519,1267.95 129.373,1267.76 129.81,1267.43 C130.248,1267.11 130.467,1266.41 130.467,1265.35 L130.467,1249.94 C130.467,1248.88 130.128,1248.35 129.451,1248.35 M154.31,1265.71 C152.904,1267.89 151.045,1268.97 148.732,1268.97 C146.42,1268.97 144.56,1267.86 143.154,1265.64 C141.748,1263.43 141.045,1260.57 141.045,1257.08 C141.045,1253.79 141.748,1251.04 143.154,1248.83 C144.56,1246.62 146.467,1245.52 148.873,1245.52 C151.092,1245.52 152.904,1246.61 154.31,1248.79 C155.717,1250.96 156.42,1253.8 156.42,1257.29 C156.42,1260.73 155.717,1263.54 154.31,1265.71 M148.763,1246.41 C145.795,1246.41 144.31,1250.07 144.31,1257.39 C144.31,1264.53 145.784,1268.1 148.732,1268.1 C151.68,1268.1 153.154,1264.51 153.154,1257.35 C153.154,1253.8 152.779,1251.08 152.029,1249.21 C151.279,1247.35 150.191,1246.41 148.763,1246.41"/>
<path class="MeasureNumber" d="M145.873,857.942 C145.873,856.744 145.605,855.681 145.068,854.754 C144.532,853.827 143.886,853.109 143.131,852.598 C142.375,852.088 141.527,851.668 140.584,851.34 C139.641,851.012 138.823,850.799 138.131,850.7 C137.438,850.601 136.831,850.551 136.31,850.551 C136.04,850.551 135.904,850.463 135.904,850.286 C135.904,850.213 135.915,850.155 135.935,850.114 L139.654,842.067 L146.748,842.067 C147.112,842.067 147.402,842.01 147.615,841.895 C147.829,841.78 148.06,841.541 148.31,841.176 L148.623,841.411 L147.326,844.442 C147.243,844.65 146.982,844.754 146.545,844.754 L139.888,844.754 L138.451,847.629 C141.763,848.223 144.224,849.181 145.834,850.504 C147.443,851.827 148.248,853.765 148.248,856.317 C148.248,857.661 148.04,858.853 147.623,859.895 C147.206,860.937 146.675,861.778 146.029,862.418 C145.383,863.059 144.633,863.583 143.779,863.989 C142.925,864.395 142.107,864.671 141.326,864.817 C140.545,864.963 139.758,865.036 138.967,865.036 C137.696,865.036 136.688,864.851 135.943,864.481 C135.198,864.111 134.826,863.598 134.826,862.942 C134.826,862.098 135.31,861.676 136.279,861.676 C136.915,861.676 137.737,862.023 138.748,862.715 C139.758,863.408 140.555,863.754 141.138,863.754 C142.482,863.754 143.607,863.194 144.513,862.075 C145.42,860.955 145.873,859.577 145.873,857.942"/>
<path class="SlurSegment" stroke="#000000" stroke-width="1.49" stroke-linecap="round" stroke-linejoin="round" fill-rule="evenodd" d="M1359.24,515.905 C1421.37,469.511 1602.63,475.889 1661.35,526.535 C1602.51,479.289 1421.25,472.911 1359.24,515.905"/>
<path class="TieSegment" fill="none" stroke="#000000" stroke-dasharray="8.50394,4.25197" stroke-dashoffset="0" stroke-width="2.13" stroke-linecap="square" stroke-linejoin="bevel" fill-rule="evenodd" d="M2514.34,1395.72 C2535.83,1410.35 2600.29,1410.35 2621.77,1395.72"/>
<path class="TieSegment" fill="none" stroke="#000000" stroke-dasharray="8.50394,4.25197" stroke-dashoffset="0" stroke-width="2.13" stroke-linecap="square" stroke-linejoin="bevel" fill-rule="evenodd" d="M1250,1313.76 C1271.22,1295.94 1334.86,1295.94 1356.08,1313.76"/>
<path class="TieSegment" fill="none" stroke="#000000" stroke-dasharray="8.50394,4.25197" stroke-dashoffset="0" stroke-width="2.13" stroke-linecap="square" stroke-linejoin="bevel" fill-rule="evenodd" d="M2514.34,1395.72 C2535.83,1410.35 2600.29,1410.35 2621.77,1395.72"/>
<path class="TieSegment" fill="none" stroke="#000000" stroke-dasharray="8.50394,4.25197" stroke-dashoffset="0" stroke-width="2.13" stroke-linecap="square" stroke-linejoin="bevel" fill-rule="evenodd" d="M1250,1313.76 C1271.22,1295.94 1334.86,1295.94 1356.08,1313.76"/>
<path class="TieSegment" stroke="#000000" stroke-width="1.49" stroke-linecap="round" stroke-linejoin="round" fill-rule="evenodd" d="M1899.06,933.661 C1994.54,904.323 2280.98,904.323 2376.47,933.661 C2280.98,907.724 1994.54,907.724 1899.06,933.661"/>
<path class="TieSegment" stroke="#000000" stroke-width="1.49" stroke-linecap="round" stroke-linejoin="round" fill-rule="evenodd" d="M822.778,880.512 C865.139,851.173 992.224,851.173 1034.58,880.512 C992.224,854.575 865.139,854.575 822.778,880.512"/>
<path class="TieSegment" stroke="#000000" stroke-width="1.49" stroke-linecap="round" stroke-linejoin="round" fill-rule="evenodd" d="M567.588,880.512 C616.947,851.173 765.023,851.173 814.381,880.512 C765.023,854.575 616.947,854.575 567.588,880.512"/>
<path class="TieSegment" stroke="#000000" stroke-width="1.49" stroke-linecap="round" stroke-linejoin="round" fill-rule="evenodd" d="M1899.06,933.661 C1994.54,904.323 2280.98,904.323 2376.47,933.661 C2280.98,907.724 1994.54,907.724 1899.06,933.661"/>
<path class="TieSegment" stroke="#000000" stroke-width="1.49" stroke-linecap="round" stroke-linejoin="round" fill-rule="evenodd" d="M822.778,880.512 C865.139,851.173 992.224,851.173 1034.58,880.512 C992.224,854.575 865.139,854.575 822.778,880.512"/>
<path class="TieSegment" stroke="#000000" stroke-width="1.49" stroke-linecap="round" stroke-linejoin="round" fill-rule="evenodd" d="M567.588,880.512 C616.947,851.173 765.023,851.173 814.381,880.512 C765.023,854.575 616.947,854.575 567.588,880.512"/>
<path class="TieSegment" stroke="#000000" stroke-width="1.49" stroke-linecap="round" stroke-linejoin="round" fill-rule="evenodd" d="M1665.77,529.724 C1787.38,500.386 2152.21,500.386 2273.82,529.724 C2152.21,503.787 1787.38,503.787 1665.77,529.724"/>
<path class="TieSegment" stroke="#000000" stroke-width="1.49" stroke-linecap="round" stroke-linejoin="round" fill-rule="evenodd" d="M1665.77,529.724 C1787.38,500.386 2152.21,500.386 2273.82,529.724 C2152.21,503.787 1787.38,503.787 1665.77,529.724"/>
<path class="BarLine" transform="matrix(0.850394,0,0,0.850394,2797.3,1353.54)" d="M1.66406,-8.5 C0.554688,-9.60417 0,-10.9375 0,-12.5 C0,-14.0625 0.554688,-15.3984 1.66406,-16.5078 C2.77344,-17.6172 4.10938,-18.1719 5.67188,-18.1719 C7.23438,-18.1719 8.56771,-17.6172 9.67188,-16.5078 C10.776,-15.3984 11.3281,-14.0625 11.3281,-12.5 C11.3281,-10.9375 10.776,-9.60417 9.67188,-8.5 C8.56771,-7.39583 7.23438,-6.84375 5.67188,-6.84375 C4.10938,-6.84375 2.77344,-7.39583 1.66406,-8.5"/>
<path class="BarLine" transform="matrix(0.850394,0,0,0.850394,2797.3,1374.8)" d="M1.66406,-8.5 C0.554688,-9.60417 0,-10.9375 0,-12.5 C0,-14.0625 0.554688,-15.3984 1.66406,-16.5078 C2.77344,-17.6172 4.10938,-18.1719 5.67188,-18.1719 C7.23438,-18.1719 8.56771,-17.6172 9.67188,-16.5078 C10.776,-15.3984 11.3281,-14.0625 11.3281,-12.5 C11.3281,-10.9375 10.776,-9.60417 9.67188,-8.5 C8.56771,-7.39583 7.23438,-6.84375 5.67188,-6.84375 C4.10938,-6.84375 2.77344,-7.39583 1.66406,-8.5"/>
<polyline class="BarLine" stroke="#000000" stroke-width="3.40" stroke-linejoin="bevel" points="2815.51,1310.17 2815.51,1396.91"/>
<polyline class="BarLine" stroke="#000000" stroke-width="10.63" stroke-linejoin="bevel" points="2829.33,1310.17 2829.33,1396.91"/>
<polyline class="BarLine" stroke="#000000" stroke-width="3.40" stroke-linejoin="bevel" points="2167.79,1310.17 2167.79,1396.91"/>
<polyline class="BarLine" stroke="#000000" stroke-width="3.40" stroke-linejoin="bevel" points="1531.14,1310.17 1531.14,1396.91"/>
<polyline class="BarLine" stroke="#000000" stroke-width="3.40" stroke-linejoin="bevel" points="906.965,1310.17 906.965,1396.91"/>
<polyline class="BarLine" stroke="#000000" stroke-width="10.63" stroke-linejoin="bevel" points="224.805,1310.17 224.805,1396.91"/>
<polyline class="BarLine" stroke="#000000" stroke-width="3.40" stroke-linejoin="bevel" points="238.624,1310.17 238.624,1396.91"/>
<path class="BarLine" transform="matrix(0.850394,0,0,0.850394,247.194,1353.54)" d="M1.66406,-8.5 C0.554688,-9.60417 0,-10.9375 0,-12.5 C0,-14.0625 0.554688,-15.3984 1.66406,-16.5078 C2.77344,-17.6172 4.10938,-18.1719 5.67188,-18.1719 C7.23438,-18.1719 8.56771,-17.6172 9.67188,-16.5078 C10.776,-15.3984 11.3281,-14.0625 11.3281,-12.5 C11.3281,-10.9375 10.776,-9.60417 9.67188,-8.5 C8.56771,-7.39583 7.23438,-6.84375 5.67188,-6.84375 C4.10938,-6.84375 2.77344,-7.39583 1.66406,-8.5"/>
<path class="BarLine" transform="matrix(0.850394,0,0,0.850394,247.194,1374.8)" d="M1.66406,-8.5 C0.554688,-9.60417 0,-10.9375 0,-12.5 C0,-14.0625 0.554688,-15.3984 1.66406,-16.5078 C2.77344,-17.6172 4.10938,-18.1719 5.67188,-18.1719 C7.23438,-18.1719 8.56771,-17.6172 9.67188,-16.5078 C10.776,-15.3984 11.3281,-14.0625 11.3281,-12.5 C11.3281,-10.9375 10.776,-9.60417 9.67188,-8.5 C8.56771,-7.39583 7.23438,-6.84375 5.67188,-6.84375 C4.10938,-6.84375 2.77344,-7.39583 1.66406,-8.5"/>
<polyline class="BarLine" stroke="#000000" stroke-width="3.40" stroke-linejoin="bevel" points="2824.01,906.236 2824.01,992.976"/>
<polyline class="BarLine" stroke="#000000" stroke-width="3.40" stroke-linejoin="bevel" points="2833.79,906.236 2833.79,992.976"/>
<polyline class="BarLine" stroke="#000000" stroke-width="3.40" stroke-linejoin="bevel" points="2328.29,906.236 2328.29,992.976"/>
<polyline class="BarLine" stroke="#000000" stroke-width="3.40" stroke-linejoin="bevel" points="1851.89,906.236 1851.89,992.976"/>
<polyline class="BarLine" stroke="#000000" stroke-width="3.40" stroke-linejoin="bevel" points="1319.95,906.236 1319.95,992.976"/>
<polyline class="BarLine" stroke="#000000" stroke-width="3.40" stroke-linejoin="bevel" points="766.742,906.236 766.742,992.976"/>
<polyline class="BarLine" stroke="#000000" stroke-width="3.40" stroke-linejoin="bevel" points="2833.79,502.299 2833.79,589.039"/>
<polyline class="BarLine" stroke="#000000" stroke-width="3.40" stroke-linejoin="bevel" points="2225.65,502.299 2225.65,589.039"/>
<polyline class="BarLine" stroke="#000000" stroke-width="3.40" stroke-linejoin="bevel" points="1618.6,502.299 1618.6,589.039"/>
<polyline class="BarLine" stroke="#000000" stroke-width="3.40" stroke-linejoin="bevel" points="956.012,502.299 956.012,589.039"/>
<polyline class="Stem" stroke="#000000" stroke-width="2.76" stroke-linecap="round" stroke-linejoin="bevel" points="2638.59,1370.81 2638.59,1303.05"/>
<polyline class="Stem" stroke="#000000" stroke-width="2.76" stroke-linecap="round" stroke-linejoin="bevel" points="2522.76,1370.81 2522.76,1303.05"/>
<polyline class="Stem" stroke="#000000" stroke-width="2.76" stroke-linecap="round" stroke-linejoin="bevel" points="2381.71,1357.54 2381.71,1427.95"/>
<polyline class="Stem" stroke="#000000" stroke-width="2.76" stroke-linecap="round" stroke-linejoin="bevel" points="2196.38,1346.91 2196.38,1412.01"/>
<polyline class="Stem" stroke="#000000" stroke-width="2.76" stroke-linecap="round" stroke-linejoin="bevel" points="2059.02,1336.28 2059.02,1406.69"/>
<polyline class="Stem" stroke="#000000" stroke-width="2.76" stroke-linecap="round" stroke-linejoin="bevel" points="1885.51,1325.65 1885.51,1396.06"/>
<polyline class="Stem" stroke="#000000" stroke-width="2.76" stroke-linecap="round" stroke-linejoin="bevel" points="1802.28,1370.81 1802.28,1311.02"/>
<polyline class="Stem" stroke="#000000" stroke-width="2.76" stroke-linecap="round" stroke-linejoin="bevel" points="1693.84,1370.81 1693.84,1311.02"/>
<polyline class="Stem" stroke="#000000" stroke-width="2.76" stroke-linecap="round" stroke-linejoin="bevel" points="1347.67,1336.28 1347.67,1404.04"/>
<polyline class="Stem" stroke="#000000" stroke-width="2.76" stroke-linecap="round" stroke-linejoin="bevel" points="1233.19,1336.28 1233.19,1406.69"/>
<polyline class="Stem" stroke="#000000" stroke-width="2.76" stroke-linecap="round" stroke-linejoin="bevel" points="1118.72,1357.54 1118.72,1427.95"/>
<polyline class="Stem" stroke="#000000" stroke-width="2.76" stroke-linecap="round" stroke-linejoin="bevel" points="935.56,1346.91 935.56,1412.01"/>
<polyline class="Stem" stroke="#000000" stroke-width="2.76" stroke-linecap="round" stroke-linejoin="bevel" points="792.332,1357.54 792.332,1427.95"/>
<polyline class="Stem" stroke="#000000" stroke-width="2.76" stroke-linecap="round" stroke-linejoin="bevel" points="634.656,1370.81 634.656,1303.05"/>
<polyline class="Stem" stroke="#000000" stroke-width="2.76" stroke-linecap="round" stroke-linejoin="bevel" points="451.753,1370.81 451.753,1303.05"/>
<polyline class="Stem" stroke="#000000" stroke-width="2.76" stroke-linecap="round" stroke-linejoin="bevel" points="337.439,1370.81 337.439,1303.05"/>
<polyline class="Stem" stroke="#000000" stroke-width="2.76" stroke-linecap="round" stroke-linejoin="bevel" points="2367.51,952.94 2367.51,1016.04"/>
<polyline class="Stem" stroke="#000000" stroke-width="2.76" stroke-linecap="round" stroke-linejoin="bevel" points="1881.25,952.94 1881.25,1016.04"/>
<polyline class="Stem" stroke="#000000" stroke-width="2.76" stroke-linecap="round" stroke-linejoin="bevel" points="1635.93,942.969 1635.93,1008.07"/>
<polyline class="Stem" stroke="#000000" stroke-width="2.76" stroke-linecap="round" stroke-linejoin="bevel" points="1525.39,932.339 1525.39,1002.76"/>
<polyline class="Stem" stroke="#000000" stroke-width="2.76" stroke-linecap="round" stroke-linejoin="bevel" points="1348.54,921.709 1348.54,992.126"/>
<polyline class="Stem" stroke="#000000" stroke-width="2.76" stroke-linecap="round" stroke-linejoin="bevel" points="1206.76,911.079 1206.76,981.496"/>
<polyline class="Stem" stroke="#000000" stroke-width="2.76" stroke-linecap="round" stroke-linejoin="bevel" points="1026.17,900.45 1026.17,970.866"/>
<polyline class="Stem" stroke="#000000" stroke-width="2.76" stroke-linecap="round" stroke-linejoin="bevel" points="805.967,900.45 805.967,970.866"/>
<polyline class="Stem" stroke="#000000" stroke-width="2.76" stroke-linecap="round" stroke-linejoin="bevel" points="550.777,900.45 550.777,970.866"/>
<polyline class="Stem" stroke="#000000" stroke-width="2.76" stroke-linecap="round" stroke-linejoin="bevel" points="440.244,932.339 440.244,1002.76"/>
<polyline class="Stem" stroke="#000000" stroke-width="2.76" stroke-linecap="round" stroke-linejoin="bevel" points="263.392,932.339 263.392,1000.1"/>
<polyline class="Stem" stroke="#000000" stroke-width="2.76" stroke-linecap="round" stroke-linejoin="bevel" points="2264.87,549.003 2264.87,612.106"/>
<polyline class="Stem" stroke="#000000" stroke-width="2.76" stroke-linecap="round" stroke-linejoin="bevel" points="1647.96,549.003 1647.96,612.106"/>
<polyline class="Stem" stroke="#000000" stroke-width="2.76" stroke-linecap="round" stroke-linejoin="bevel" points="1346.63,539.032 1346.63,604.134"/>
<polyline class="Stem" stroke="#000000" stroke-width="2.76" stroke-linecap="round" stroke-linejoin="bevel" points="1207.39,528.402 1207.39,598.819"/>
<polyline class="Stem" stroke="#000000" stroke-width="2.76" stroke-linecap="round" stroke-linejoin="bevel" points="984.607,517.772 984.607,588.189"/>
<polyline class="Stem" stroke="#000000" stroke-width="2.76" stroke-linecap="round" stroke-linejoin="bevel" points="830.711,528.402 830.711,598.819"/>
<polyline class="Stem" stroke="#000000" stroke-width="2.76" stroke-linecap="round" stroke-linejoin="bevel" points="630.739,528.402 630.739,596.161"/>
<polyline class="Stem" stroke="#000000" stroke-width="2.76" stroke-linecap="round" stroke-linejoin="bevel" points="430.767,528.402 430.767,596.161"/>
<polyline class="Stem" stroke="#000000" stroke-width="2.76" stroke-linecap="round" stroke-linejoin="bevel" points="305.785,528.402 305.785,598.819"/>
<path class="Note" transform="matrix(0.850394,0,0,0.850394,2611.98,1374.8)" d="M21.9688,-13.7656 C25.0938,-13.7656 27.7344,-12.9531 29.8906,-11.3281 C31.901,-9.56771 32.9063,-7.35417 32.9063,-4.6875 C32.9063,-0.197917 30.599,4 25.9844,7.90625 C21.2969,11.8125 16.2813,13.7656 10.9375,13.7656 C7.8125,13.7656 5.17708,12.9531 3.03125,11.3281 C1.01042,9.56771 0,7.35417 0,4.6875 C0,0.197917 2.34375,-4 7.03125,-7.90625 C11.5938,-11.8125 16.5729,-13.7656 21.9688,-13.7656"/>
<path class="Note" transform="matrix(0.850394,0,0,0.850394,2496.15,1374.8)" d="M21.9688,-13.7656 C25.0938,-13.7656 27.7344,-12.9531 29.8906,-11.3281 C31.901,-9.56771 32.9063,-7.35417 32.9063,-4.6875 C32.9063,-0.197917 30.599,4 25.9844,7.90625 C21.2969,11.8125 16.2813,13.7656 10.9375,13.7656 C7.8125,13.7656 5.17708,12.9531 3.03125,11.3281 C1.01042,9.56771 0,7.35417 0,4.6875 C0,0.197917 2.34375,-4 7.03125,-7.90625 C11.5938,-11.8125 16.5729,-13.7656 21.9688,-13.7656"/>
<path class="Note" transform="matrix(0.850394,0,0,0.850394,2380.32,1353.54)" d="M21.9688,-13.7656 C25.0938,-13.7656 27.7344,-12.9531 29.8906,-11.3281 C31.901,-9.56771 32.9063,-7.35417 32.9063,-4.6875 C32.9063,-0.197917 30.599,4 25.9844,7.90625 C21.2969,11.8125 16.2813,13.7656 10.9375,13.7656 C7.8125,13.7656 5.17708,12.9531 3.03125,11.3281 C1.01042,9.56771 0,7.35417 0,4.6875 C0,0.197917 2.34375,-4 7.03125,-7.90625 C11.5938,-11.8125 16.5729,-13.7656 21.9688,-13.7656"/>
<path class="Note" transform="matrix(0.850394,0,0,0.850394,2195,1342.91)" d="M21.9688,-13.7656 C25.0938,-13.7656 27.7344,-12.9531 29.8906,-11.3281 C31.901,-9.56771 32.9063,-7.35417 32.9063,-4.6875 C32.9063,-0.197917 30.599,4 25.9844,7.90625 C21.2969,11.8125 16.2813,13.7656 10.9375,13.7656 C7.8125,13.7656 5.17708,12.9531 3.03125,11.3281 C1.01042,9.56771 0,7.35417 0,4.6875 C0,0.197917 2.34375,-4 7.03125,-7.90625 C11.5938,-11.8125 16.5729,-13.7656 21.9688,-13.7656"/>
<path class="Note" transform="matrix(0.850394,0,0,0.850394,2057.64,1332.28)" d="M21.9688,-13.7656 C25.0938,-13.7656 27.7344,-12.9531 29.8906,-11.3281 C31.901,-9.56771 32.9063,-7.35417 32.9063,-4.6875 C32.9063,-0.197917 30.599,4 25.9844,7.90625 C21.2969,11.8125 16.2813,13.7656 10.9375,13.7656 C7.8125,13.7656 5.17708,12.9531 3.03125,11.3281 C1.01042,9.56771 0,7.35417 0,4.6875 C0,0.197917 2.34375,-4 7.03125,-7.90625 C11.5938,-11.8125 16.5729,-13.7656 21.9688,-13.7656"/>
<path class="Note" transform="matrix(0.850394,0,0,0.850394,1884.12,1321.65)" d="M21.9688,-13.7656 C25.0938,-13.7656 27.7344,-12.9531 29.8906,-11.3281 C31.901,-9.56771 32.9063,-7.35417 32.9063,-4.6875 C32.9063,-0.197917 30.599,4 25.9844,7.90625 C21.2969,11.8125 16.2813,13.7656 10.9375,13.7656 C7.8125,13.7656 5.17708,12.9531 3.03125,11.3281 C1.01042,9.56771 0,7.35417 0,4.6875 C0,0.197917 2.34375,-4 7.03125,-7.90625 C11.5938,-11.8125 16.5729,-13.7656 21.9688,-13.7656"/>
<path class="Note" transform="matrix(0.850394,0,0,0.850394,1775.68,1374.8)" d="M21.9688,-13.7656 C25.0938,-13.7656 27.7344,-12.9531 29.8906,-11.3281 C31.901,-9.56771 32.9063,-7.35417 32.9063,-4.6875 C32.9063,-0.197917 30.599,4 25.9844,7.90625 C21.2969,11.8125 16.2813,13.7656 10.9375,13.7656 C7.8125,13.7656 5.17708,12.9531 3.03125,11.3281 C1.01042,9.56771 0,7.35417 0,4.6875 C0,0.197917 2.34375,-4 7.03125,-7.90625 C11.5938,-11.8125 16.5729,-13.7656 21.9688,-13.7656"/>
<path class="Note" transform="matrix(0.850394,0,0,0.850394,1667.23,1374.8)" d="M21.9688,-13.7656 C25.0938,-13.7656 27.7344,-12.9531 29.8906,-11.3281 C31.901,-9.56771 32.9063,-7.35417 32.9063,-4.6875 C32.9063,-0.197917 30.599,4 25.9844,7.90625 C21.2969,11.8125 16.2813,13.7656 10.9375,13.7656 C7.8125,13.7656 5.17708,12.9531 3.03125,11.3281 C1.01042,9.56771 0,7.35417 0,4.6875 C0,0.197917 2.34375,-4 7.03125,-7.90625 C11.5938,-11.8125 16.5729,-13.7656 21.9688,-13.7656"/>
<path class="Note" transform="matrix(0.850394,0,0,0.850394,1346.28,1332.28)" d="M21.9688,-13.7656 C25.0938,-13.7656 27.7344,-12.9531 29.8906,-11.3281 C31.901,-9.56771 32.9063,-7.35417 32.9063,-4.6875 C32.9063,-0.197917 30.599,4 25.9844,7.90625 C21.2969,11.8125 16.2813,13.7656 10.9375,13.7656 C7.8125,13.7656 5.17708,12.9531 3.03125,11.3281 C1.01042,9.56771 0,7.35417 0,4.6875 C0,0.197917 2.34375,-4 7.03125,-7.90625 C11.5938,-11.8125 16.5729,-13.7656 21.9688,-13.7656"/>
<path class="Note" transform="matrix(0.850394,0,0,0.850394,1231.81,1332.28)" d="M21.9688,-13.7656 C25.0938,-13.7656 27.7344,-12.9531 29.8906,-11.3281 C31.901,-9.56771 32.9063,-7.35417 32.9063,-4.6875 C32.9063,-0.197917 30.599,4 25.9844,7.90625 C21.2969,11.8125 16.2813,13.7656 10.9375,13.7656 C7.8125,13.7656 5.17708,12.9531 3.03125,11.3281 C1.01042,9.56771 0,7.35417 0,4.6875 C0,0.197917 2.34375,-4 7.03125,-7.90625 C11.5938,-11.8125 16.5729,-13.7656 21.9688,-13.7656"/>
<path class="Note" transform="matrix(0.850394,0,0,0.850394,1117.34,1353.54)" d="M21.9688,-13.7656 C25.0938,-13.7656 27.7344,-12.9531 29.8906,-11.3281 C31.901,-9.56771 32.9063,-7.35417 32.9063,-4.6875 C32.9063,-0.197917 30.599,4 25.9844,7.90625 C21.2969,11.8125 16.2813,13.7656 10.9375,13.7656 C7.8125,13.7656 5.17708,12.9531 3.03125,11.3281 C1.01042,9.56771 0,7.35417 0,4.6875 C0,0.197917 2.34375,-4 7.03125,-7.90625 C11.5938,-11.8125 16.5729,-13.7656 21.9688,-13.7656"/>
<path class="Note" transform="matrix(0.850394,0,0,0.850394,934.178,1342.91)" d="M21.9688,-13.7656 C25.0938,-13.7656 27.7344,-12.9531 29.8906,-11.3281 C31.901,-9.56771 32.9063,-7.35417 32.9063,-4.6875 C32.9063,-0.197917 30.599,4 25.9844,7.90625 C21.2969,11.8125 16.2813,13.7656 10.9375,13.7656 C7.8125,13.7656 5.17708,12.9531 3.03125,11.3281 C1.01042,9.56771 0,7.35417 0,4.6875 C0,0.197917 2.34375,-4 7.03125,-7.90625 C11.5938,-11.8125 16.5729,-13.7656 21.9688,-13.7656"/>
<path class="Note" transform="matrix(0.850394,0,0,0.850394,790.95,1353.54)" d="M21.9688,-13.7656 C25.0938,-13.7656 27.7344,-12.9531 29.8906,-11.3281 C31.901,-9.56771 32.9063,-7.35417 32.9063,-4.6875 C32.9063,-0.197917 30.599,4 25.9844,7.90625 C21.2969,11.8125 16.2813,13.7656 10.9375,13.7656 C7.8125,13.7656 5.17708,12.9531 3.03125,11.3281 C1.01042,9.56771 0,7.35417 0,4.6875 C0,0.197917 2.34375,-4 7.03125,-7.90625 C11.5938,-11.8125 16.5729,-13.7656 21.9688,-13.7656"/>
<path class="Note" transform="matrix(0.850394,0,0,0.850394,608.048,1374.8)" d="M21.9688,-13.7656 C25.0938,-13.7656 27.7344,-12.9531 29.8906,-11.3281 C31.901,-9.56771 32.9063,-7.35417 32.9063,-4.6875 C32.9063,-0.197917 30.599,4 25.9844,7.90625 C21.2969,11.8125 16.2813,13.7656 10.9375,13.7656 C7.8125,13.7656 5.17708,12.9531 3.03125,11.3281 C1.01042,9.56771 0,7.35417 0,4.6875 C0,0.197917 2.34375,-4 7.03125,-7.90625 C11.5938,-11.8125 16.5729,-13.7656 21.9688,-13.7656"/>
<path class="Note" transform="matrix(0.850394,0,0,0.850394,425.145,1374.8)" d="M21.9688,-13.7656 C25.0938,-13.7656 27.7344,-12.9531 29.8906,-11.3281 C31.901,-9.56771 32.9063,-7.35417 32.9063,-4.6875 C32.9063,-0.197917 30.599,4 25.9844,7.90625 C21.2969,11.8125 16.2813,13.7656 10.9375,13.7656 C7.8125,13.7656 5.17708,12.9531 3.03125,11.3281 C1.01042,9.56771 0,7.35417 0,4.6875 C0,0.197917 2.34375,-4 7.03125,-7.90625 C11.5938,-11.8125 16.5729,-13.7656 21.9688,-13.7656"/>
<path class="Note" transform="matrix(0.850394,0,0,0.850394,310.831,1374.8)" d="M21.9688,-13.7656 C25.0938,-13.7656 27.7344,-12.9531 29.8906,-11.3281 C31.901,-9.56771 32.9063,-7.35417 32.9063,-4.6875 C32.9063,-0.197917 30.599,4 25.9844,7.90625 C21.2969,11.8125 16.2813,13.7656 10.9375,13.7656 C7.8125,13.7656 5.17708,12.9531 3.03125,11.3281 C1.01042,9.56771 0,7.35417 0,4.6875 C0,0.197917 2.34375,-4 7.03125,-7.90625 C11.5938,-11.8125 16.5729,-13.7656 21.9688,-13.7656"/>
<path class="Note" transform="matrix(0.850394,0,0,0.850394,2366.13,949.606)" d="M31.5469,-6.54688 C31.5469,-7.65104 31.125,-8.59375 30.2813,-9.375 C29.4271,-10.2188 28.4479,-10.6406 27.3438,-10.6406 C25.3958,-10.6406 21.4583,-8.6875 15.5313,-4.78125 C9.40625,-0.8125 5.66146,2.02083 4.29688,3.71875 C3.57813,4.625 3.21875,5.56771 3.21875,6.54688 C3.21875,7.65104 3.64583,8.59375 4.5,9.375 C5.28125,10.2188 6.25521,10.6406 7.42188,10.6406 C9.30729,10.6406 13.2813,8.6875 19.3438,4.78125 C25.3333,0.875 29.0417,-1.95833 30.4688,-3.71875 C31.1875,-4.5625 31.5469,-5.50521 31.5469,-6.54688 M26.375,-13.7656 C31.9688,-13.7656 34.7656,-11.3594 34.7656,-6.54688 C34.7656,-4.20313 34.0833,-1.46875 32.7188,1.65625 C31.3542,4.71875 29.5313,7.0625 27.25,8.6875 C22.2396,12.0729 15.9583,13.7656 8.40625,13.7656 C2.80208,13.7656 0,11.3594 0,6.54688 C0,4.40104 0.682292,1.69792 2.04688,-1.5625 C3.34896,-4.6875 5.17188,-7.0625 7.51563,-8.6875 C12.5365,-12.0729 18.8229,-13.7656 26.375,-13.7656"/>
<path class="Note" transform="matrix(0.850394,0,0,0.850394,1879.87,949.606)" d="M31.5469,-6.54688 C31.5469,-7.65104 31.125,-8.59375 30.2813,-9.375 C29.4271,-10.2188 28.4479,-10.6406 27.3438,-10.6406 C25.3958,-10.6406 21.4583,-8.6875 15.5313,-4.78125 C9.40625,-0.8125 5.66146,2.02083 4.29688,3.71875 C3.57813,4.625 3.21875,5.56771 3.21875,6.54688 C3.21875,7.65104 3.64583,8.59375 4.5,9.375 C5.28125,10.2188 6.25521,10.6406 7.42188,10.6406 C9.30729,10.6406 13.2813,8.6875 19.3438,4.78125 C25.3333,0.875 29.0417,-1.95833 30.4688,-3.71875 C31.1875,-4.5625 31.5469,-5.50521 31.5469,-6.54688 M26.375,-13.7656 C31.9688,-13.7656 34.7656,-11.3594 34.7656,-6.54688 C34.7656,-4.20313 34.0833,-1.46875 32.7188,1.65625 C31.3542,4.71875 29.5313,7.0625 27.25,8.6875 C22.2396,12.0729 15.9583,13.7656 8.40625,13.7656 C2.80208,13.7656 0,11.3594 0,6.54688 C0,4.40104 0.682292,1.69792 2.04688,-1.5625 C3.34896,-4.6875 5.17188,-7.0625 7.51563,-8.6875 C12.5365,-12.0729 18.8229,-13.7656 26.375,-13.7656"/>
<path class="Note" transform="matrix(0.850394,0,0,0.850394,1634.54,938.976)" d="M21.9688,-13.7656 C25.0938,-13.7656 27.7344,-12.9531 29.8906,-11.3281 C31.901,-9.56771 32.9063,-7.35417 32.9063,-4.6875 C32.9063,-0.197917 30.599,4 25.9844,7.90625 C21.2969,11.8125 16.2813,13.7656 10.9375,13.7656 C7.8125,13.7656 5.17708,12.9531 3.03125,11.3281 C1.01042,9.56771 0,7.35417 0,4.6875 C0,0.197917 2.34375,-4 7.03125,-7.90625 C11.5938,-11.8125 16.5729,-13.7656 21.9688,-13.7656"/>
<path class="Note" transform="matrix(0.850394,0,0,0.850394,1524.01,928.346)" d="M21.9688,-13.7656 C25.0938,-13.7656 27.7344,-12.9531 29.8906,-11.3281 C31.901,-9.56771 32.9063,-7.35417 32.9063,-4.6875 C32.9063,-0.197917 30.599,4 25.9844,7.90625 C21.2969,11.8125 16.2813,13.7656 10.9375,13.7656 C7.8125,13.7656 5.17708,12.9531 3.03125,11.3281 C1.01042,9.56771 0,7.35417 0,4.6875 C0,0.197917 2.34375,-4 7.03125,-7.90625 C11.5938,-11.8125 16.5729,-13.7656 21.9688,-13.7656"/>
<path class="Note" transform="matrix(0.850394,0,0,0.850394,1347.16,917.717)" d="M21.9688,-13.7656 C25.0938,-13.7656 27.7344,-12.9531 29.8906,-11.3281 C31.901,-9.56771 32.9063,-7.35417 32.9063,-4.6875 C32.9063,-0.197917 30.599,4 25.9844,7.90625 C21.2969,11.8125 16.2813,13.7656 10.9375,13.7656 C7.8125,13.7656 5.17708,12.9531 3.03125,11.3281 C1.01042,9.56771 0,7.35417 0,4.6875 C0,0.197917 2.34375,-4 7.03125,-7.90625 C11.5938,-11.8125 16.5729,-13.7656 21.9688,-13.7656"/>
<path class="Note" transform="matrix(0.850394,0,0,0.850394,1205.38,907.087)" d="M21.9688,-13.7656 C25.0938,-13.7656 27.7344,-12.9531 29.8906,-11.3281 C31.901,-9.56771 32.9063,-7.35417 32.9063,-4.6875 C32.9063,-0.197917 30.599,4 25.9844,7.90625 C21.2969,11.8125 16.2813,13.7656 10.9375,13.7656 C7.8125,13.7656 5.17708,12.9531 3.03125,11.3281 C1.01042,9.56771 0,7.35417 0,4.6875 C0,0.197917 2.34375,-4 7.03125,-7.90625 C11.5938,-11.8125 16.5729,-13.7656 21.9688,-13.7656"/>
<path class="Note" transform="matrix(0.850394,0,0,0.850394,1024.79,896.457)" d="M21.9688,-13.7656 C25.0938,-13.7656 27.7344,-12.9531 29.8906,-11.3281 C31.901,-9.56771 32.9063,-7.35417 32.9063,-4.6875 C32.9063,-0.197917 30.599,4 25.9844,7.90625 C21.2969,11.8125 16.2813,13.7656 10.9375,13.7656 C7.8125,13.7656 5.17708,12.9531 3.03125,11.3281 C1.01042,9.56771 0,7.35417 0,4.6875 C0,0.197917 2.34375,-4 7.03125,-7.90625 C11.5938,-11.8125 16.5729,-13.7656 21.9688,-13.7656"/>
<path class="Note" transform="matrix(0.850394,0,0,0.850394,804.585,896.457)" d="M21.9688,-13.7656 C25.0938,-13.7656 27.7344,-12.9531 29.8906,-11.3281 C31.901,-9.56771 32.9063,-7.35417 32.9063,-4.6875 C32.9063,-0.197917 30.599,4 25.9844,7.90625 C21.2969,11.8125 16.2813,13.7656 10.9375,13.7656 C7.8125,13.7656 5.17708,12.9531 3.03125,11.3281 C1.01042,9.56771 0,7.35417 0,4.6875 C0,0.197917 2.34375,-4 7.03125,-7.90625 C11.5938,-11.8125 16.5729,-13.7656 21.9688,-13.7656"/>
<path class="Note" transform="matrix(0.850394,0,0,0.850394,549.395,896.457)" d="M21.9688,-13.7656 C25.0938,-13.7656 27.7344,-12.9531 29.8906,-11.3281 C31.901,-9.56771 32.9063,-7.35417 32.9063,-4.6875 C32.9063,-0.197917 30.599,4 25.9844,7.90625 C21.2969,11.8125 16.2813,13.7656 10.9375,13.7656 C7.8125,13.7656 5.17708,12.9531 3.03125,11.3281 C1.01042,9.56771 0,7.35417 0,4.6875 C0,0.197917 2.34375,-4 7.03125,-7.90625 C11.5938,-11.8125 16.5729,-13.7656 21.9688,-13.7656"/>
<path class="Note" transform="matrix(0.850394,0,0,0.850394,438.862,928.346)" d="M21.9688,-13.7656 C25.0938,-13.7656 27.7344,-12.9531 29.8906,-11.3281 C31.901,-9.56771 32.9063,-7.35417 32.9063,-4.6875 C32.9063,-0.197917 30.599,4 25.9844,7.90625 C21.2969,11.8125 16.2813,13.7656 10.9375,13.7656 C7.8125,13.7656 5.17708,12.9531 3.03125,11.3281 C1.01042,9.56771 0,7.35417 0,4.6875 C0,0.197917 2.34375,-4 7.03125,-7.90625 C11.5938,-11.8125 16.5729,-13.7656 21.9688,-13.7656"/>
<path class="Note" transform="matrix(0.850394,0,0,0.850394,262.01,928.346)" d="M21.9688,-13.7656 C25.0938,-13.7656 27.7344,-12.9531 29.8906,-11.3281 C31.901,-9.56771 32.9063,-7.35417 32.9063,-4.6875 C32.9063,-0.197917 30.599,4 25.9844,7.90625 C21.2969,11.8125 16.2813,13.7656 10.9375,13.7656 C7.8125,13.7656 5.17708,12.9531 3.03125,11.3281 C1.01042,9.56771 0,7.35417 0,4.6875 C0,0.197917 2.34375,-4 7.03125,-7.90625 C11.5938,-11.8125 16.5729,-13.7656 21.9688,-13.7656"/>
<path class="Note" transform="matrix(0.850394,0,0,0.850394,2263.49,545.669)" d="M31.5469,-6.54688 C31.5469,-7.65104 31.125,-8.59375 30.2813,-9.375 C29.4271,-10.2188 28.4479,-10.6406 27.3438,-10.6406 C25.3958,-10.6406 21.4583,-8.6875 15.5313,-4.78125 C9.40625,-0.8125 5.66146,2.02083 4.29688,3.71875 C3.57813,4.625 3.21875,5.56771 3.21875,6.54688 C3.21875,7.65104 3.64583,8.59375 4.5,9.375 C5.28125,10.2188 6.25521,10.6406 7.42188,10.6406 C9.30729,10.6406 13.2813,8.6875 19.3438,4.78125 C25.3333,0.875 29.0417,-1.95833 30.4688,-3.71875 C31.1875,-4.5625 31.5469,-5.50521 31.5469,-6.54688 M26.375,-13.7656 C31.9688,-13.7656 34.7656,-11.3594 34.7656,-6.54688 C34.7656,-4.20313 34.0833,-1.46875 32.7188,1.65625 C31.3542,4.71875 29.5313,7.0625 27.25,8.6875 C22.2396,12.0729 15.9583,13.7656 8.40625,13.7656 C2.80208,13.7656 0,11.3594 0,6.54688 C0,4.40104 0.682292,1.69792 2.04688,-1.5625 C3.34896,-4.6875 5.17188,-7.0625 7.51563,-8.6875 C12.5365,-12.0729 18.8229,-13.7656 26.375,-13.7656"/>
<path class="Note" transform="matrix(0.850394,0,0,0.850394,1646.58,545.669)" d="M31.5469,-6.54688 C31.5469,-7.65104 31.125,-8.59375 30.2813,-9.375 C29.4271,-10.2188 28.4479,-10.6406 27.3438,-10.6406 C25.3958,-10.6406 21.4583,-8.6875 15.5313,-4.78125 C9.40625,-0.8125 5.66146,2.02083 4.29688,3.71875 C3.57813,4.625 3.21875,5.56771 3.21875,6.54688 C3.21875,7.65104 3.64583,8.59375 4.5,9.375 C5.28125,10.2188 6.25521,10.6406 7.42188,10.6406 C9.30729,10.6406 13.2813,8.6875 19.3438,4.78125 C25.3333,0.875 29.0417,-1.95833 30.4688,-3.71875 C31.1875,-4.5625 31.5469,-5.50521 31.5469,-6.54688 M26.375,-13.7656 C31.9688,-13.7656 34.7656,-11.3594 34.7656,-6.54688 C34.7656,-4.20313 34.0833,-1.46875 32.7188,1.65625 C31.3542,4.71875 29.5313,7.0625 27.25,8.6875 C22.2396,12.0729 15.9583,13.7656 8.40625,13.7656 C2.80208,13.7656 0,11.3594 0,6.54688 C0,4.40104 0.682292,1.69792 2.04688,-1.5625 C3.34896,-4.6875 5.17188,-7.0625 7.51563,-8.6875 C12.5365,-12.0729 18.8229,-13.7656 26.375,-13.7656"/>
<path class="Note" transform="matrix(0.850394,0,0,0.850394,1345.25,535.039)" d="M21.9688,-13.7656 C25.0938,-13.7656 27.7344,-12.9531 29.8906,-11.3281 C31.901,-9.56771 32.9063,-7.35417 32.9063,-4.6875 C32.9063,-0.197917 30.599,4 25.9844,7.90625 C21.2969,11.8125 16.2813,13.7656 10.9375,13.7656 C7.8125,13.7656 5.17708,12.9531 3.03125,11.3281 C1.01042,9.56771 0,7.35417 0,4.6875 C0,0.197917 2.34375,-4 7.03125,-7.90625 C11.5938,-11.8125 16.5729,-13.7656 21.9688,-13.7656"/>
<path class="Note" transform="matrix(0.850394,0,0,0.850394,1206.01,524.409)" d="M21.9688,-13.7656 C25.0938,-13.7656 27.7344,-12.9531 29.8906,-11.3281 C31.901,-9.56771 32.9063,-7.35417 32.9063,-4.6875 C32.9063,-0.197917 30.599,4 25.9844,7.90625 C21.2969,11.8125 16.2813,13.7656 10.9375,13.7656 C7.8125,13.7656 5.17708,12.9531 3.03125,11.3281 C1.01042,9.56771 0,7.35417 0,4.6875 C0,0.197917 2.34375,-4 7.03125,-7.90625 C11.5938,-11.8125 16.5729,-13.7656 21.9688,-13.7656"/>
<path class="Note" transform="matrix(0.850394,0,0,0.850394,983.225,513.779)" d="M21.9688,-13.7656 C25.0938,-13.7656 27.7344,-12.9531 29.8906,-11.3281 C31.901,-9.56771 32.9063,-7.35417 32.9063,-4.6875 C32.9063,-0.197917 30.599,4 25.9844,7.90625 C21.2969,11.8125 16.2813,13.7656 10.9375,13.7656 C7.8125,13.7656 5.17708,12.9531 3.03125,11.3281 C1.01042,9.56771 0,7.35417 0,4.6875 C0,0.197917 2.34375,-4 7.03125,-7.90625 C11.5938,-11.8125 16.5729,-13.7656 21.9688,-13.7656"/>
<path class="Note" transform="matrix(0.850394,0,0,0.850394,829.329,524.409)" d="M21.9688,-13.7656 C25.0938,-13.7656 27.7344,-12.9531 29.8906,-11.3281 C31.901,-9.56771 32.9063,-7.35417 32.9063,-4.6875 C32.9063,-0.197917 30.599,4 25.9844,7.90625 C21.2969,11.8125 16.2813,13.7656 10.9375,13.7656 C7.8125,13.7656 5.17708,12.9531 3.03125,11.3281 C1.01042,9.56771 0,7.35417 0,4.6875 C0,0.197917 2.34375,-4 7.03125,-7.90625 C11.5938,-11.8125 16.5729,-13.7656 21.9688,-13.7656"/>
<path class="Note" transform="matrix(0.850394,0,0,0.850394,629.357,524.409)" d="M21.9688,-13.7656 C25.0938,-13.7656 27.7344,-12.9531 29.8906,-11.3281 C31.901,-9.56771 32.9063,-7.35417 32.9063,-4.6875 C32.9063,-0.197917 30.599,4 25.9844,7.90625 C21.2969,11.8125 16.2813,13.7656 10.9375,13.7656 C7.8125,13.7656 5.17708,12.9531 3.03125,11.3281 C1.01042,9.56771 0,7.35417 0,4.6875 C0,0.197917 2.34375,-4 7.03125,-7.90625 C11.5938,-11.8125 16.5729,-13.7656 21.9688,-13.7656"/>
<path class="Note" transform="matrix(0.850394,0,0,0.850394,429.386,524.409)" d="M21.9688,-13.7656 C25.0938,-13.7656 27.7344,-12.9531 29.8906,-11.3281 C31.901,-9.56771 32.9063,-7.35417 32.9063,-4.6875 C32.9063,-0.197917 30.599,4 25.9844,7.90625 C21.2969,11.8125 16.2813,13.7656 10.9375,13.7656 C7.8125,13.7656 5.17708,12.9531 3.03125,11.3281 C1.01042,9.56771 0,7.35417 0,4.6875 C0,0.197917 2.34375,-4 7.03125,-7.90625 C11.5938,-11.8125 16.5729,-13.7656 21.9688,-13.7656"/>
<path class="Note" transform="matrix(0.850394,0,0,0.850394,304.403,524.409)" d="M21.9688,-13.7656 C25.0938,-13.7656 27.7344,-12.9531 29.8906,-11.3281 C31.901,-9.56771 32.9063,-7.35417 32.9063,-4.6875 C32.9063,-0.197917 30.599,4 25.9844,7.90625 C21.2969,11.8125 16.2813,13.7656 10.9375,13.7656 C7.8125,13.7656 5.17708,12.9531 3.03125,11.3281 C1.01042,9.56771 0,7.35417 0,4.6875 C0,0.197917 2.34375,-4 7.03125,-7.90625 C11.5938,-11.8125 16.5729,-13.7656 21.9688,-13.7656"/>
<path class="Clef" transform="matrix(0.850394,0,0,0.850394,155.339,1374.8)" d="M38.875,-136.719 C40.5625,-138.542 41.4063,-140.234 41.4063,-141.797 C41.2813,-143.161 40.6979,-144.203 39.6563,-144.922 C38.4792,-145.703 37.1094,-146.094 35.5469,-146.094 C34.4427,-146.094 33.5313,-145.734 32.8125,-145.016 C32.1667,-144.37 31.8438,-143.557 31.8438,-142.578 C31.8438,-141.411 32.3281,-140.531 33.2969,-139.938 L38.875,-136.719 M40.4375,-135.844 C43.1667,-134.344 44.5313,-132.323 44.5313,-129.781 C44.5313,-129.781 44.5313,-129.688 44.5313,-129.5 C44.5313,-127.479 43.7188,-125.786 42.0938,-124.422 C40.4688,-122.984 38.1563,-122.266 35.1563,-122.266 C32.6875,-122.266 30.5417,-122.917 28.7188,-124.219 C26.8958,-125.458 25.9844,-127.151 25.9844,-129.297 C25.9844,-130.141 26.2083,-130.922 26.6563,-131.641 C27.1771,-132.484 27.6042,-133.073 27.9375,-133.406 C28,-133.469 28.1458,-133.615 28.375,-133.844 C28.6042,-134.073 28.8307,-134.299 29.0547,-134.523 C29.2786,-134.747 29.5208,-134.99 29.7813,-135.25 C27.7708,-136.625 26.7656,-138.417 26.7656,-140.625 C26.7656,-142.385 27.5469,-143.948 29.1094,-145.313 C30.7344,-146.615 32.8802,-147.266 35.5469,-147.266 C37.7656,-147.266 39.6563,-146.779 41.2188,-145.805 C42.7813,-144.831 43.5625,-143.495 43.5625,-141.797 C43.5625,-140.036 42.5208,-138.052 40.4375,-135.844 M31.25,-134.375 C29.3021,-132.615 28.2604,-130.922 28.125,-129.297 C28.125,-127.609 28.8411,-126.211 30.2734,-125.102 C31.7057,-123.992 33.3333,-123.438 35.1563,-123.438 C36.4583,-123.438 37.5,-123.859 38.2813,-124.703 C39.0625,-125.484 39.4531,-126.432 39.4531,-127.547 C39.3906,-128.974 38.8073,-130.016 37.7031,-130.672 L31.25,-134.375 M36.7188,-25.5938 C36.7188,-25.5938 36.9167,-25.5938 37.3125,-25.5938 C37.5729,-25.6563 37.7969,-25.6875 37.9844,-25.6875 C45.276,-25.6875 51.2656,-23.1146 55.9531,-17.9688 C60.6406,-12.8958 62.9844,-6.97396 62.9844,-0.203125 C62.9844,8.20313 59.5052,15.0417 52.5469,20.3125 C50.724,21.75 48.3438,22.9219 45.4063,23.8281 C45.7396,28.0573 45.9063,31.474 45.9063,34.0781 C45.9063,34.599 45.8385,36.4896 45.7031,39.75 C45.4427,45.8021 43.3594,51.0417 39.4531,55.4688 C35.6823,59.8333 30.9948,62.0156 25.3906,62.0156 C20.1198,62.0156 15.6302,60.1615 11.9219,56.4531 C8.20313,52.6719 6.34375,48.1146 6.34375,42.7813 C6.34375,39.9792 7.42188,37.599 9.57813,35.6406 C11.7865,33.6927 14.3542,32.7188 17.2813,32.7188 C19.8854,32.7188 22.0677,33.7292 23.8281,35.75 C25.651,37.6354 26.5625,39.9792 26.5625,42.7813 C26.5625,45.3125 25.651,47.4896 23.8281,49.3125 C22.0052,51.1354 19.8229,52.0469 17.2813,52.0469 C16.2396,52.0469 15.2344,51.8542 14.2656,51.4688 C17.1302,55.6979 20.9375,57.8125 25.6875,57.8125 C30.1771,57.8125 33.8542,55.9896 36.7188,52.3438 C39.7188,48.5729 41.349,44.1771 41.6094,39.1563 C41.7344,36.0313 41.7969,34.2448 41.7969,33.7969 C41.7969,30.151 41.6667,27.1563 41.4063,24.8125 C38.1563,25.3333 35.2604,25.5938 32.7188,25.5938 C23.6667,25.5938 15.9531,22.0104 9.57813,14.8438 C3.32813,7.61458 0.203125,-0.979167 0.203125,-10.9375 C0.203125,-13.0208 0.395833,-15.1354 0.78125,-17.2813 C1.17708,-19.0417 1.66667,-20.9635 2.25,-23.0469 C2.57292,-24.224 3.45313,-26.1146 4.89063,-28.7188 C5.41146,-29.5 5.9974,-30.4766 6.64844,-31.6484 C7.29948,-32.8203 7.75521,-33.599 8.01563,-33.9844 C8.66146,-35.2865 9.92708,-37.0469 11.8125,-39.2656 C12.3333,-39.849 12.8724,-40.4974 13.4297,-41.2109 C13.987,-41.9245 14.4609,-42.5104 14.8516,-42.9688 C15.2422,-43.4271 15.5339,-43.7865 15.7266,-44.0469 C15.9193,-44.3073 17.3854,-46.0313 20.125,-49.2188 C20.7708,-49.875 21.4036,-50.5755 22.0234,-51.3203 C22.6432,-52.0651 23.1484,-52.651 23.5391,-53.0781 C23.9297,-53.5052 24.224,-53.8125 24.4219,-54 C22.0781,-61.75 20.6094,-67.9375 20.0156,-72.5625 C19.5677,-76.2708 19.3438,-81.349 19.3438,-87.7969 C19.3438,-93.4635 20.6458,-98.7708 23.25,-103.719 C25.7813,-108.854 29.3281,-113.052 33.8906,-116.313 C34.151,-116.51 34.474,-116.609 34.8594,-116.609 C35.3177,-116.609 35.6458,-116.51 35.8438,-116.313 C39.3542,-112.083 42.3802,-106.583 44.9219,-99.8125 C47.526,-93.0417 48.8281,-86.8854 48.8281,-81.3438 C48.8281,-75.0938 47.3333,-69.2344 44.3438,-63.7656 C40.9583,-57.974 36.5938,-51.9844 31.25,-45.7969 C32.6146,-41.5052 34.4375,-34.7708 36.7188,-25.5938 M45.0156,19.8281 C48.401,18.5885 51.0417,16.474 52.9375,13.4844 C55.0208,10.6198 56.0625,7.39583 56.0625,3.8125 C56.0625,-0.8125 54.5,-4.91667 51.375,-8.5 C48.1771,-12.2083 44.1042,-14.2917 39.1563,-14.75 C41.9583,-1.01042 43.9115,10.5156 45.0156,19.8281 M7.23438,-2.73438 C7.23438,3.71354 9.83854,9.38021 15.0469,14.2656 C20.3802,19.0156 26.3698,21.3906 33.0156,21.3906 C35.7448,21.3906 38.4115,21.1927 41.0156,20.7969 C39.974,10.901 37.9219,-0.947917 34.8594,-14.75 C31.151,-14.3542 28.1927,-13.0521 25.9844,-10.8438 C23.8281,-8.5625 22.75,-5.98958 22.75,-3.125 C22.75,1.82292 25.3906,5.82813 30.6719,8.89063 C31.1198,9.34896 31.3438,9.83854 31.3438,10.3594 C31.3438,10.8802 31.1198,11.3646 30.6719,11.8125 C30.276,12.2708 29.7865,12.5 29.2031,12.5 C29.1406,12.5 28.849,12.4375 28.3281,12.3125 C24.6094,10.2917 21.7448,7.6875 19.7344,4.5 C17.8385,1.10417 16.8906,-2.31771 16.8906,-5.76563 C16.8906,-10.2552 18.2917,-14.3229 21.0938,-17.9688 C24.0208,-21.6146 27.8281,-23.9583 32.5156,-25 C30.6927,-32.2917 29.1979,-37.9896 28.0313,-42.0938 C26.9896,-40.9167 25.737,-39.5 24.2734,-37.8438 C22.8099,-36.1875 21.9479,-35.1927 21.6875,-34.8594 C19.3438,-31.8073 17.5521,-29.4323 16.3125,-27.7344 C14.0938,-24.6719 12.4635,-22.0365 11.4219,-19.8281 C10.3177,-17.349 9.34375,-14.6458 8.5,-11.7188 C7.65625,-8.91667 7.23438,-5.92188 7.23438,-2.73438 M39.8438,-102.047 C34.9583,-99.6406 31.1198,-96.1927 28.3281,-91.7031 C25.4635,-87.0781 24.0313,-82.099 24.0313,-76.7656 C24.0313,-72.0781 25.2031,-65.7604 27.5469,-57.8125 C32.2344,-63.4792 35.75,-68.7188 38.0938,-73.5313 C40.5625,-78.6146 41.7969,-83.9219 41.7969,-89.4531 C41.7969,-93.6198 41.1458,-97.8177 39.8438,-102.047"/>
<path class="Clef" transform="matrix(0.850394,0,0,0.850394,155.339,970.866)" d="M38.875,-136.719 C40.5625,-138.542 41.4063,-140.234 41.4063,-141.797 C41.2813,-143.161 40.6979,-144.203 39.6563,-144.922 C38.4792,-145.703 37.1094,-146.094 35.5469,-146.094 C34.4427,-146.094 33.5313,-145.734 32.8125,-145.016 C32.1667,-144.37 31.8438,-143.557 31.8438,-142.578 C31.8438,-141.411 32.3281,-140.531 33.2969,-139.938 L38.875,-136.719 M40.4375,-135.844 C43.1667,-134.344 44.5313,-132.323 44.5313,-129.781 C44.5313,-129.781 44.5313,-129.688 44.5313,-129.5 C44.5313,-127.479 43.7188,-125.786 42.0938,-124.422 C40.4688,-122.984 38.1563,-122.266 35.1563,-122.266 C32.6875,-122.266 30.5417,-122.917 28.7188,-124.219 C26.8958,-125.458 25.9844,-127.151 25.9844,-129.297 C25.9844,-130.141 26.2083,-130.922 26.6563,-131.641 C27.1771,-132.484 27.6042,-133.073 27.9375,-133.406 C28,-133.469 28.1458,-133.615 28.375,-133.844 C28.6042,-134.073 28.8307,-134.299 29.0547,-134.523 C29.2786,-134.747 29.5208,-134.99 29.7813,-135.25 C27.7708,-136.625 26.7656,-138.417 26.7656,-140.625 C26.7656,-142.385 27.5469,-143.948 29.1094,-145.313 C30.7344,-146.615 32.8802,-147.266 35.5469,-147.266 C37.7656,-147.266 39.6563,-146.779 41.2188,-145.805 C42.7813,-144.831 43.5625,-143.495 43.5625,-141.797 C43.5625,-140.036 42.5208,-138.052 40.4375,-135.844 M31.25,-134.375 C29.3021,-132.615 28.2604,-130.922 28.125,-129.297 C28.125,-127.609 28.8411,-126.211 30.2734,-125.102 C31.7057,-123.992 33.3333,-123.438 35.1563,-123.438 C36.4583,-123.438 37.5,-123.859 38.2813,-124.703 C39.0625,-125.484 39.4531,-126.432 39.4531,-127.547 C39.3906,-128.974 38.8073,-130.016 37.7031,-130.672 L31.25,-134.375 M36.7188,-25.5938 C36.7188,-25.5938 36.9167,-25.5938 37.3125,-25.5938 C37.5729,-25.6563 37.7969,-25.6875 37.9844,-25.6875 C45.276,-25.6875 51.2656,-23.1146 55.9531,-17.9688 C60.6406,-12.8958 62.9844,-6.97396 62.9844,-0.203125 C62.9844,8.20313 59.5052,15.0417 52.5469,20.3125 C50.724,21.75 48.3438,22.9219 45.4063,23.8281 C45.7396,28.0573 45.9063,31.474 45.9063,34.0781 C45.9063,34.599 45.8385,36.4896 45.7031,39.75 C45.4427,45.8021 43.3594,51.0417 39.4531,55.4688 C35.6823,59.8333 30.9948,62.0156 25.3906,62.0156 C20.1198,62.0156 15.6302,60.1615 11.9219,56.4531 C8.20313,52.6719 6.34375,48.1146 6.34375,42.7813 C6.34375,39.9792 7.42188,37.599 9.57813,35.6406 C11.7865,33.6927 14.3542,32.7188 17.2813,32.7188 C19.8854,32.7188 22.0677,33.7292 23.8281,35.75 C25.651,37.6354 26.5625,39.9792 26.5625,42.7813 C26.5625,45.3125 25.651,47.4896 23.8281,49.3125 C22.0052,51.1354 19.8229,52.0469 17.2813,52.0469 C16.2396,52.0469 15.2344,51.8542 14.2656,51.4688 C17.1302,55.6979 20.9375,57.8125 25.6875,57.8125 C30.1771,57.8125 33.8542,55.9896 36.7188,52.3438 C39.7188,48.5729 41.349,44.1771 41.6094,39.1563 C41.7344,36.0313 41.7969,34.2448 41.7969,33.7969 C41.7969,30.151 41.6667,27.1563 41.4063,24.8125 C38.1563,25.3333 35.2604,25.5938 32.7188,25.5938 C23.6667,25.5938 15.9531,22.0104 9.57813,14.8438 C3.32813,7.61458 0.203125,-0.979167 0.203125,-10.9375 C0.203125,-13.0208 0.395833,-15.1354 0.78125,-17.2813 C1.17708,-19.0417 1.66667,-20.9635 2.25,-23.0469 C2.57292,-24.224 3.45313,-26.1146 4.89063,-28.7188 C5.41146,-29.5 5.9974,-30.4766 6.64844,-31.6484 C7.29948,-32.8203 7.75521,-33.599 8.01563,-33.9844 C8.66146,-35.2865 9.92708,-37.0469 11.8125,-39.2656 C12.3333,-39.849 12.8724,-40.4974 13.4297,-41.2109 C13.987,-41.9245 14.4609,-42.5104 14.8516,-42.9688 C15.2422,-43.4271 15.5339,-43.7865 15.7266,-44.0469 C15.9193,-44.3073 17.3854,-46.0313 20.125,-49.2188 C20.7708,-49.875 21.4036,-50.5755 22.0234,-51.3203 C22.6432,-52.0651 23.1484,-52.651 23.5391,-53.0781 C23.9297,-53.5052 24.224,-53.8125 24.4219,-54 C22.0781,-61.75 20.6094,-67.9375 20.0156,-72.5625 C19.5677,-76.2708 19.3438,-81.349 19.3438,-87.7969 C19.3438,-93.4635 20.6458,-98.7708 23.25,-103.719 C25.7813,-108.854 29.3281,-113.052 33.8906,-116.313 C34.151,-116.51 34.474,-116.609 34.8594,-116.609 C35.3177,-116.609 35.6458,-116.51 35.8438,-116.313 C39.3542,-112.083 42.3802,-106.583 44.9219,-99.8125 C47.526,-93.0417 48.8281,-86.8854 48.8281,-81.3438 C48.8281,-75.0938 47.3333,-69.2344 44.3438,-63.7656 C40.9583,-57.974 36.5938,-51.9844 31.25,-45.7969 C32.6146,-41.5052 34.4375,-34.7708 36.7188,-25.5938 M45.0156,19.8281 C48.401,18.5885 51.0417,16.474 52.9375,13.4844 C55.0208,10.6198 56.0625,7.39583 56.0625,3.8125 C56.0625,-0.8125 54.5,-4.91667 51.375,-8.5 C48.1771,-12.2083 44.1042,-14.2917 39.1563,-14.75 C41.9583,-1.01042 43.9115,10.5156 45.0156,19.8281 M7.23438,-2.73438 C7.23438,3.71354 9.83854,9.38021 15.0469,14.2656 C20.3802,19.0156 26.3698,21.3906 33.0156,21.3906 C35.7448,21.3906 38.4115,21.1927 41.0156,20.7969 C39.974,10.901 37.9219,-0.947917 34.8594,-14.75 C31.151,-14.3542 28.1927,-13.0521 25.9844,-10.8438 C23.8281,-8.5625 22.75,-5.98958 22.75,-3.125 C22.75,1.82292 25.3906,5.82813 30.6719,8.89063 C31.1198,9.34896 31.3438,9.83854 31.3438,10.3594 C31.3438,10.8802 31.1198,11.3646 30.6719,11.8125 C30.276,12.2708 29.7865,12.5 29.2031,12.5 C29.1406,12.5 28.849,12.4375 28.3281,12.3125 C24.6094,10.2917 21.7448,7.6875 19.7344,4.5 C17.8385,1.10417 16.8906,-2.31771 16.8906,-5.76563 C16.8906,-10.2552 18.2917,-14.3229 21.0938,-17.9688 C24.0208,-21.6146 27.8281,-23.9583 32.5156,-25 C30.6927,-32.2917 29.1979,-37.9896 28.0313,-42.0938 C26.9896,-40.9167 25.737,-39.5 24.2734,-37.8438 C22.8099,-36.1875 21.9479,-35.1927 21.6875,-34.8594 C19.3438,-31.8073 17.5521,-29.4323 16.3125,-27.7344 C14.0938,-24.6719 12.4635,-22.0365 11.4219,-19.8281 C10.3177,-17.349 9.34375,-14.6458 8.5,-11.7188 C7.65625,-8.91667 7.23438,-5.92188 7.23438,-2.73438 M39.8438,-102.047 C34.9583,-99.6406 31.1198,-96.1927 28.3281,-91.7031 C25.4635,-87.0781 24.0313,-82.099 24.0313,-76.7656 C24.0313,-72.0781 25.2031,-65.7604 27.5469,-57.8125 C32.2344,-63.4792 35.75,-68.7188 38.0938,-73.5313 C40.5625,-78.6146 41.7969,-83.9219 41.7969,-89.4531 C41.7969,-93.6198 41.1458,-97.8177 39.8438,-102.047"/>
<path class="Clef" transform="matrix(0.850394,0,0,0.850394,155.339,566.929)" d="M38.875,-136.719 C40.5625,-138.542 41.4063,-140.234 41.4063,-141.797 C41.2813,-143.161 40.6979,-144.203 39.6563,-144.922 C38.4792,-145.703 37.1094,-146.094 35.5469,-146.094 C34.4427,-146.094 33.5313,-145.734 32.8125,-145.016 C32.1667,-144.37 31.8438,-143.557 31.8438,-142.578 C31.8438,-141.411 32.3281,-140.531 33.2969,-139.938 L38.875,-136.719 M40.4375,-135.844 C43.1667,-134.344 44.5313,-132.323 44.5313,-129.781 C44.5313,-129.781 44.5313,-129.688 44.5313,-129.5 C44.5313,-127.479 43.7188,-125.786 42.0938,-124.422 C40.4688,-122.984 38.1563,-122.266 35.1563,-122.266 C32.6875,-122.266 30.5417,-122.917 28.7188,-124.219 C26.8958,-125.458 25.9844,-127.151 25.9844,-129.297 C25.9844,-130.141 26.2083,-130.922 26.6563,-131.641 C27.1771,-132.484 27.6042,-133.073 27.9375,-133.406 C28,-133.469 28.1458,-133.615 28.375,-133.844 C28.6042,-134.073 28.8307,-134.299 29.0547,-134.523 C29.2786,-134.747 29.5208,-134.99 29.7813,-135.25 C27.7708,-136.625 26.7656,-138.417 26.7656,-140.625 C26.7656,-142.385 27.5469,-143.948 29.1094,-145.313 C30.7344,-146.615 32.8802,-147.266 35.5469,-147.266 C37.7656,-147.266 39.6563,-146.779 41.2188,-145.805 C42.7813,-144.831 43.5625,-143.495 43.5625,-141.797 C43.5625,-140.036 42.5208,-138.052 40.4375,-135.844 M31.25,-134.375 C29.3021,-132.615 28.2604,-130.922 28.125,-129.297 C28.125,-127.609 28.8411,-126.211 30.2734,-125.102 C31.7057,-123.992 33.3333,-123.438 35.1563,-123.438 C36.4583,-123.438 37.5,-123.859 38.2813,-124.703 C39.0625,-125.484 39.4531,-126.432 39.4531,-127.547 C39.3906,-128.974 38.8073,-130.016 37.7031,-130.672 L31.25,-134.375 M36.7188,-25.5938 C36.7188,-25.5938 36.9167,-25.5938 37.3125,-25.5938 C37.5729,-25.6563 37.7969,-25.6875 37.9844,-25.6875 C45.276,-25.6875 51.2656,-23.1146 55.9531,-17.9688 C60.6406,-12.8958 62.9844,-6.97396 62.9844,-0.203125 C62.9844,8.20313 59.5052,15.0417 52.5469,20.3125 C50.724,21.75 48.3438,22.9219 45.4063,23.8281 C45.7396,28.0573 45.9063,31.474 45.9063,34.0781 C45.9063,34.599 45.8385,36.4896 45.7031,39.75 C45.4427,45.8021 43.3594,51.0417 39.4531,55.4688 C35.6823,59.8333 30.9948,62.0156 25.3906,62.0156 C20.1198,62.0156 15.6302,60.1615 11.9219,56.4531 C8.20313,52.6719 6.34375,48.1146 6.34375,42.7813 C6.34375,39.9792 7.42188,37.599 9.57813,35.6406 C11.7865,33.6927 14.3542,32.7188 17.2813,32.7188 C19.8854,32.7188 22.0677,33.7292 23.8281,35.75 C25.651,37.6354 26.5625,39.9792 26.5625,42.7813 C26.5625,45.3125 25.651,47.4896 23.8281,49.3125 C22.0052,51.1354 19.8229,52.0469 17.2813,52.0469 C16.2396,52.0469 15.2344,51.8542 14.2656,51.4688 C17.1302,55.6979 20.9375,57.8125 25.6875,57.8125 C30.1771,57.8125 33.8542,55.9896 36.7188,52.3438 C39.7188,48.5729 41.349,44.1771 41.6094,39.1563 C41.7344,36.0313 41.7969,34.2448 41.7969,33.7969 C41.7969,30.151 41.6667,27.1563 41.4063,24.8125 C38.1563,25.3333 35.2604,25.5938 32.7188,25.5938 C23.6667,25.5938 15.9531,22.0104 9.57813,14.8438 C3.32813,7.61458 0.203125,-0.979167 0.203125,-10.9375 C0.203125,-13.0208 0.395833,-15.1354 0.78125,-17.2813 C1.17708,-19.0417 1.66667,-20.9635 2.25,-23.0469 C2.57292,-24.224 3.45313,-26.1146 4.89063,-28.7188 C5.41146,-29.5 5.9974,-30.4766 6.64844,-31.6484 C7.29948,-32.8203 7.75521,-33.599 8.01563,-33.9844 C8.66146,-35.2865 9.92708,-37.0469 11.8125,-39.2656 C12.3333,-39.849 12.8724,-40.4974 13.4297,-41.2109 C13.987,-41.9245 14.4609,-42.5104 14.8516,-42.9688 C15.2422,-43.4271 15.5339,-43.7865 15.7266,-44.0469 C15.9193,-44.3073 17.3854,-46.0313 20.125,-49.2188 C20.7708,-49.875 21.4036,-50.5755 22.0234,-51.3203 C22.6432,-52.0651 23.1484,-52.651 23.5391,-53.0781 C23.9297,-53.5052 24.224,-53.8125 24.4219,-54 C22.0781,-61.75 20.6094,-67.9375 20.0156,-72.5625 C19.5677,-76.2708 19.3438,-81.349 19.3438,-87.7969 C19.3438,-93.4635 20.6458,-98.7708 23.25,-103.719 C25.7813,-108.854 29.3281,-113.052 33.8906,-116.313 C34.151,-116.51 34.474,-116.609 34.8594,-116.609 C35.3177,-116.609 35.6458,-116.51 35.8438,-116.313 C39.3542,-112.083 42.3802,-106.583 44.9219,-99.8125 C47.526,-93.0417 48.8281,-86.8854 48.8281,-81.3438 C48.8281,-75.0938 47.3333,-69.2344 44.3438,-63.7656 C40.9583,-57.974 36.5938,-51.9844 31.25,-45.7969 C32.6146,-41.5052 34.4375,-34.7708 36.7188,-25.5938 M45.0156,19.8281 C48.401,18.5885 51.0417,16.474 52.9375,13.4844 C55.0208,10.6198 56.0625,7.39583 56.0625,3.8125 C56.0625,-0.8125 54.5,-4.91667 51.375,-8.5 C48.1771,-12.2083 44.1042,-14.2917 39.1563,-14.75 C41.9583,-1.01042 43.9115,10.5156 45.0156,19.8281 M7.23438,-2.73438 C7.23438,3.71354 9.83854,9.38021 15.0469,14.2656 C20.3802,19.0156 26.3698,21.3906 33.0156,21.3906 C35.7448,21.3906 38.4115,21.1927 41.0156,20.7969 C39.974,10.901 37.9219,-0.947917 34.8594,-14.75 C31.151,-14.3542 28.1927,-13.0521 25.9844,-10.8438 C23.8281,-8.5625 22.75,-5.98958 22.75,-3.125 C22.75,1.82292 25.3906,5.82813 30.6719,8.89063 C31.1198,9.34896 31.3438,9.83854 31.3438,10.3594 C31.3438,10.8802 31.1198,11.3646 30.6719,11.8125 C30.276,12.2708 29.7865,12.5 29.2031,12.5 C29.1406,12.5 28.849,12.4375 28.3281,12.3125 C24.6094,10.2917 21.7448,7.6875 19.7344,4.5 C17.8385,1.10417 16.8906,-2.31771 16.8906,-5.76563 C16.8906,-10.2552 18.2917,-14.3229 21.0938,-17.9688 C24.0208,-21.6146 27.8281,-23.9583 32.5156,-25 C30.6927,-32.2917 29.1979,-37.9896 28.0313,-42.0938 C26.9896,-40.9167 25.737,-39.5 24.2734,-37.8438 C22.8099,-36.1875 21.9479,-35.1927 21.6875,-34.8594 C19.3438,-31.8073 17.5521,-29.4323 16.3125,-27.7344 C14.0938,-24.6719 12.4635,-22.0365 11.4219,-19.8281 C10.3177,-17.349 9.34375,-14.6458 8.5,-11.7188 C7.65625,-8.91667 7.23438,-5.92188 7.23438,-2.73438 M39.8438,-102.047 C34.9583,-99.6406 31.1198,-96.1927 28.3281,-91.7031 C25.4635,-87.0781 24.0313,-82.099 24.0313,-76.7656 C24.0313,-72.0781 25.2031,-65.7604 27.5469,-57.8125 C32.2344,-63.4792 35.75,-68.7188 38.0938,-73.5313 C40.5625,-78.6146 41.7969,-83.9219 41.7969,-89.4531 C41.7969,-93.6198 41.1458,-97.8177 39.8438,-102.047"/>
<path class="TimeSig" transform="matrix(0.850394,0,0,0.850394,231.542,524.409)" d="M17,-0.59375 C14.5208,-0.59375 12.9896,0.385417 12.4063,2.34375 C11.9479,3.78125 11.7188,6.19271 11.7188,9.57813 L11.7188,12.5 C11.7188,15.8854 11.9479,18.2969 12.4063,19.7344 C12.9896,21.6823 14.5208,22.6563 17,22.6563 C19.7292,22.6563 21.4531,21.5156 22.1719,19.2344 C22.8177,17.0885 23.1406,14.3542 23.1406,11.0313 C23.1406,7.19792 22.7865,4.30208 22.0781,2.34375 C21.2969,0.385417 19.6042,-0.59375 17,-0.59375 M11.7188,-1.5625 C13.6771,-2.34375 15.4375,-2.80208 17,-2.9375 C22.2083,-2.9375 26.375,-1.76042 29.5,0.59375 C32.4896,3 33.9844,6.44792 33.9844,10.9375 C33.9844,15.5 32.4531,19.0156 29.3906,21.4844 C26.3385,23.8281 22.2083,25 17,25 C11.6563,25 7.48698,22.526 4.49219,17.5781 C1.4974,12.6302 0,6.77083 0,0 C0,-6.64583 1.76042,-12.5052 5.28125,-17.5781 C8.85417,-22.526 13.4427,-25 19.0469,-25 C22.6927,-25 25.9167,-24.0573 28.7188,-22.1719 C31.4479,-20.2865 32.8125,-17.8125 32.8125,-14.75 C32.8125,-12.8646 32.1615,-11.3021 30.8594,-10.0625 C29.6927,-8.76042 28.1979,-8.10938 26.375,-8.10938 C24.5521,-8.10938 22.9896,-8.76042 21.6875,-10.0625 C20.3854,-11.3646 19.7344,-12.9271 19.7344,-14.75 C19.7344,-15.4688 20.3854,-16.2813 21.6875,-17.1875 C22.9896,-17.9688 23.6406,-18.7813 23.6406,-19.625 C23.6406,-20.5417 23.1823,-21.2917 22.2656,-21.875 C21.224,-22.3958 20.151,-22.6563 19.0469,-22.6563 C16.0469,-22.6563 14.0625,-21.4531 13.0938,-19.0469 C12.0521,-16.7031 11.5313,-13.2865 11.5313,-8.79688 C11.5313,-7.49479 11.5625,-6.28906 11.625,-5.17969 C11.6875,-4.07031 11.7188,-2.86458 11.7188,-1.5625"/>
<path class="TimeSig" transform="matrix(0.850394,0,0,0.850394,230.12,566.929)" d="M25.875,-3.8125 C29.1354,-7.39583 30.7656,-10.7813 30.7656,-13.9688 C30.7656,-16.6354 29.625,-18.75 27.3438,-20.3125 C25.1354,-21.875 22.401,-22.6563 19.1406,-22.6563 C16.8594,-22.6563 15.0365,-21.9401 13.6719,-20.5078 C12.3073,-19.0755 11.625,-17.4479 11.625,-15.625 C11.625,-13.3438 12.6354,-11.5885 14.6563,-10.3594 L25.875,-3.8125 M28.9063,-2.15625 C34.4375,1.04167 37.2031,5.30729 37.2031,10.6406 C37.2031,14.6198 35.5469,17.974 32.2344,20.7031 C28.9115,23.5677 24.2552,25 18.2656,25 C13.1823,25 8.91667,23.6979 5.46875,21.0938 C1.82292,18.4896 0,15.1354 0,11.0313 C0,9.54167 0.458333,7.94792 1.375,6.25 C2.21875,4.75 3.0625,3.57813 3.90625,2.73438 C4.30208,2.21354 5.54167,0.973958 7.625,-0.984375 C3.58333,-3.84896 1.53125,-7.39583 1.46875,-11.625 C1.46875,-15.2083 3.0625,-18.3646 6.25,-21.0938 C9.4375,-23.6979 13.7344,-25 19.1406,-25 C23.4427,-25 27.2188,-24.026 30.4688,-22.0781 C33.5938,-20.1198 35.1563,-17.4167 35.1563,-13.9688 C35.0313,-10.4479 32.9479,-6.51042 28.9063,-2.15625 M10.6406,0.78125 C6.60938,4.36458 4.52604,7.78125 4.39063,11.0313 C4.39063,14.3542 5.79167,17.125 8.59375,19.3438 C11.2604,21.5521 14.4844,22.6563 18.2656,22.6563 C20.9323,22.6563 23.0156,21.8125 24.5156,20.125 C26.0781,18.5625 26.8594,16.6406 26.8594,14.3594 C26.8594,11.5573 25.7188,9.50521 23.4375,8.20313 L10.6406,0.78125 "/>
<path class="Rest" transform="matrix(0.850394,0,0,0.850394,1558.78,1353.54)" d="M7.03125,-20.5156 C8.91667,-20.5156 10.349,-19.9948 11.3281,-18.9531 C12.3073,-17.776 12.8281,-16.6667 12.8906,-15.625 C13.026,-14.6458 13.3542,-13.5417 13.875,-12.3125 C14.4583,-11.2708 15.2031,-10.75 16.1094,-10.75 C16.8281,-10.75 17.9063,-11.5625 19.3438,-13.1875 C20.6458,-14.6146 21.5885,-15.8854 22.1719,-17 C22.4948,-17.6458 22.9479,-17.9688 23.5313,-17.9688 L23.6406,-17.9688 C24.2865,-17.9063 24.7396,-17.5833 25,-17 L12.7031,25 C12.0469,25.6563 11.1328,25.9844 9.96094,25.9844 C8.78906,25.9844 7.88021,25.6563 7.23438,25 L18.9531,-7.625 C14.7865,-6.125 11.2708,-5.375 8.40625,-5.375 C6.0625,-5.375 4.04167,-6.125 2.34375,-7.625 C0.583333,-9.05208 -0.296875,-10.9375 -0.296875,-13.2813 C-0.296875,-15.3021 0.421875,-16.9948 1.85938,-18.3594 C3.28646,-19.7969 5.01042,-20.5156 7.03125,-20.5156"/>
<path class="Rest" transform="matrix(0.850394,0,0,0.850394,2647.15,949.606)" d="M-0.59375,-7.8125 C-0.59375,-8.98958 0.0625,-10.2917 1.375,-11.7188 C2.34375,-12.7604 3.77604,-14 5.67188,-15.4375 C7.09896,-16.4063 8.49479,-17.8698 9.85938,-19.8281 C11.1615,-21.7135 11.8125,-23.7656 11.8125,-25.9844 C11.8125,-28.5885 10.9688,-30.8958 9.28125,-32.9063 L5.76563,-37.1094 C5.50521,-37.3698 5.375,-37.6953 5.375,-38.0859 C5.375,-38.4766 5.56771,-38.8333 5.95313,-39.1563 C6.41146,-39.4896 6.80208,-39.6563 7.125,-39.6563 C7.58333,-39.6563 7.94271,-39.4583 8.20313,-39.0625 L23.3438,-21.0938 C23.9896,-20.25 24.3125,-19.4063 24.3125,-18.5625 C24.3125,-17.3854 23.6615,-16.0833 22.3594,-14.6563 C21.5156,-13.7396 20.1198,-12.5 18.1719,-10.9375 C16.6719,-10.0313 15.2396,-8.56771 13.875,-6.54688 C12.5729,-4.66146 11.9219,-2.60938 11.9219,-0.390625 C11.9219,2.34896 12.7031,4.66146 14.2656,6.54688 L22.6563,16.4063 C22.8542,16.6042 23.0156,16.9323 23.1406,17.3906 C23.1406,17.8385 22.9792,18.2292 22.6563,18.5625 C22.1979,18.8854 21.8073,19.0469 21.4844,19.0469 C21.3594,19.0469 20.8385,18.6875 19.9219,17.9688 C18.9427,17.1875 17.6406,16.4375 16.0156,15.7188 C14.1927,15.0104 12.401,14.6563 10.6406,14.6563 C9.01563,14.6563 7.68229,15.1094 6.64063,16.0156 C5.73438,16.9323 5.28125,18.6927 5.28125,21.2969 C5.28125,25.2656 6.22396,28.3906 8.10938,30.6719 C8.30729,30.9323 8.33854,31.2552 8.20313,31.6406 C8.07813,31.901 7.84896,32.0313 7.51563,32.0313 C7.06771,32.0313 6.0625,30.8594 4.5,28.5156 C2.86458,26.0469 1.33333,23.2135 -0.09375,20.0156 C-1.59375,16.6302 -2.34375,13.8333 -2.34375,11.625 C-2.34375,8.82292 -1.01042,7.42188 1.65625,7.42188 C4.71875,7.42188 8.69271,8.46354 13.5781,10.5469 L0.390625,-5.28125 C-0.265625,-6.125 -0.59375,-6.96875 -0.59375,-7.8125"/>
<path class="Articulation" transform="matrix(0.850394,0,0,0.850394,2187.66,1272.76)" d="M46.5781,-17.0938 C46.974,-17.6771 47.5313,-17.9688 48.25,-17.9688 C48.7708,-17.9688 49.2266,-17.7734 49.6172,-17.3828 C50.0078,-16.9922 50.2031,-16.5365 50.2031,-16.0156 C50.2031,-15.6302 50.1042,-15.2708 49.9063,-14.9375 L40.625,-0.875 C40.2396,-0.291667 39.6563,0 38.875,0 C38.2813,0 37.7917,-0.229167 37.4063,-0.6875 L27.6406,-12.5938 L19.8281,-0.875 C19.4323,-0.291667 18.8438,0 18.0625,0 C17.4792,0 16.9948,-0.229167 16.6094,-0.6875 L6.73438,-12.5938 L3.60938,-7.90625 C3.22396,-7.32292 2.67188,-7.03125 1.95313,-7.03125 C1.43229,-7.03125 0.976563,-7.22656 0.585938,-7.61719 C0.195313,-8.00781 0,-8.46354 0,-8.98438 C0,-9.38021 0.0989583,-9.73958 0.296875,-10.0625 L9.57813,-24.125 C9.96354,-24.7083 10.5469,-25 11.3281,-25 C11.9115,-25 12.401,-24.7708 12.7969,-24.3125 L22.5625,-12.4063 L30.375,-24.125 C30.7604,-24.7083 31.3438,-25 32.125,-25 C32.7188,-25 33.2083,-24.7708 33.5938,-24.3125 L43.4531,-12.4063 L46.5781,-17.0938 "/>
<path class="Articulation" transform="matrix(0.850394,0,0,0.850394,1627.2,868.819)" d="M46.5781,-17.0938 C46.974,-17.6771 47.5313,-17.9688 48.25,-17.9688 C48.7708,-17.9688 49.2266,-17.7734 49.6172,-17.3828 C50.0078,-16.9922 50.2031,-16.5365 50.2031,-16.0156 C50.2031,-15.6302 50.1042,-15.2708 49.9063,-14.9375 L40.625,-0.875 C40.2396,-0.291667 39.6563,0 38.875,0 C38.2813,0 37.7917,-0.229167 37.4063,-0.6875 L27.6406,-12.5938 L19.8281,-0.875 C19.4323,-0.291667 18.8438,0 18.0625,0 C17.4792,0 16.9948,-0.229167 16.6094,-0.6875 L6.73438,-12.5938 L3.60938,-7.90625 C3.22396,-7.32292 2.67188,-7.03125 1.95313,-7.03125 C1.43229,-7.03125 0.976563,-7.22656 0.585938,-7.61719 C0.195313,-8.00781 0,-8.46354 0,-8.98438 C0,-9.38021 0.0989583,-9.73958 0.296875,-10.0625 L9.57813,-24.125 C9.96354,-24.7083 10.5469,-25 11.3281,-25 C11.9115,-25 12.401,-24.7708 12.7969,-24.3125 L22.5625,-12.4063 L30.375,-24.125 C30.7604,-24.7083 31.3438,-25 32.125,-25 C32.7188,-25 33.2083,-24.7708 33.5938,-24.3125 L43.4531,-12.4063 L46.5781,-17.0938 "/>
<path class="Articulation" transform="matrix(0.850394,0,0,0.850394,1339.81,864.567)" d="M46.5781,-17.0938 C46.974,-17.6771 47.5313,-17.9688 48.25,-17.9688 C48.7708,-17.9688 49.2266,-17.7734 49.6172,-17.3828 C50.0078,-16.9922 50.2031,-16.5365 50.2031,-16.0156 C50.2031,-15.6302 50.1042,-15.2708 49.9063,-14.9375 L40.625,-0.875 C40.2396,-0.291667 39.6563,0 38.875,0 C38.2813,0 37.7917,-0.229167 37.4063,-0.6875 L27.6406,-12.5938 L19.8281,-0.875 C19.4323,-0.291667 18.8438,0 18.0625,0 C17.4792,0 16.9948,-0.229167 16.6094,-0.6875 L6.73438,-12.5938 L3.60938,-7.90625 C3.22396,-7.32292 2.67188,-7.03125 1.95313,-7.03125 C1.43229,-7.03125 0.976563,-7.22656 0.585938,-7.61719 C0.195313,-8.00781 0,-8.46354 0,-8.98438 C0,-9.38021 0.0989583,-9.73958 0.296875,-10.0625 L9.57813,-24.125 C9.96354,-24.7083 10.5469,-25 11.3281,-25 C11.9115,-25 12.401,-24.7708 12.7969,-24.3125 L22.5625,-12.4063 L30.375,-24.125 C30.7604,-24.7083 31.3438,-25 32.125,-25 C32.7188,-25 33.2083,-24.7708 33.5938,-24.3125 L43.4531,-12.4063 L46.5781,-17.0938 "/>
<path class="Articulation" transform="matrix(0.850394,0,0,0.850394,1337.9,464.882)" d="M46.5781,-17.0938 C46.974,-17.6771 47.5313,-17.9688 48.25,-17.9688 C48.7708,-17.9688 49.2266,-17.7734 49.6172,-17.3828 C50.0078,-16.9922 50.2031,-16.5365 50.2031,-16.0156 C50.2031,-15.6302 50.1042,-15.2708 49.9063,-14.9375 L40.625,-0.875 C40.2396,-0.291667 39.6563,0 38.875,0 C38.2813,0 37.7917,-0.229167 37.4063,-0.6875 L27.6406,-12.5938 L19.8281,-0.875 C19.4323,-0.291667 18.8438,0 18.0625,0 C17.4792,0 16.9948,-0.229167 16.6094,-0.6875 L6.73438,-12.5938 L3.60938,-7.90625 C3.22396,-7.32292 2.67188,-7.03125 1.95313,-7.03125 C1.43229,-7.03125 0.976563,-7.22656 0.585938,-7.61719 C0.195313,-8.00781 0,-8.46354 0,-8.98438 C0,-9.38021 0.0989583,-9.73958 0.296875,-10.0625 L9.57813,-24.125 C9.96354,-24.7083 10.5469,-25 11.3281,-25 C11.9115,-25 12.401,-24.7708 12.7969,-24.3125 L22.5625,-12.4063 L30.375,-24.125 C30.7604,-24.7083 31.3438,-25 32.125,-25 C32.7188,-25 33.2083,-24.7708 33.5938,-24.3125 L43.4531,-12.4063 L46.5781,-17.0938 "/>
<path class="Articulation" transform="matrix(0.850394,0,0,0.850394,975.88,460.63)" d="M46.5781,-17.0938 C46.974,-17.6771 47.5313,-17.9688 48.25,-17.9688 C48.7708,-17.9688 49.2266,-17.7734 49.6172,-17.3828 C50.0078,-16.9922 50.2031,-16.5365 50.2031,-16.0156 C50.2031,-15.6302 50.1042,-15.2708 49.9063,-14.9375 L40.625,-0.875 C40.2396,-0.291667 39.6563,0 38.875,0 C38.2813,0 37.7917,-0.229167 37.4063,-0.6875 L27.6406,-12.5938 L19.8281,-0.875 C19.4323,-0.291667 18.8438,0 18.0625,0 C17.4792,0 16.9948,-0.229167 16.6094,-0.6875 L6.73438,-12.5938 L3.60938,-7.90625 C3.22396,-7.32292 2.67188,-7.03125 1.95313,-7.03125 C1.43229,-7.03125 0.976563,-7.22656 0.585938,-7.61719 C0.195313,-8.00781 0,-8.46354 0,-8.98438 C0,-9.38021 0.0989583,-9.73958 0.296875,-10.0625 L9.57813,-24.125 C9.96354,-24.7083 10.5469,-25 11.3281,-25 C11.9115,-25 12.401,-24.7708 12.7969,-24.3125 L22.5625,-12.4063 L30.375,-24.125 C30.7604,-24.7083 31.3438,-25 32.125,-25 C32.7188,-25 33.2083,-24.7708 33.5938,-24.3125 L43.4531,-12.4063 L46.5781,-17.0938 "/>
<path class="Beam" fill-rule="evenodd" d="M1692.45,1305.71 L1803.67,1305.71 L1803.67,1316.34 L1692.45,1316.34 L1692.45,1305.71 "/>
<path class="Hook" transform="matrix(0.850394,0,0,0.850394,2521.38,1303.05)" d="M0,25 L0,0 L3.125,0 C3.125,3.70833 3.84375,7.42188 5.28125,11.1406 C6.84375,15.1719 8.56771,18.6875 10.4531,21.6875 C11.8177,23.8333 13.8698,27.1198 16.6094,31.5469 C18.6927,34.9323 20.4505,38.4792 21.8828,42.1875 C23.3151,45.8958 24.0313,49.6094 24.0313,53.3281 C24.0313,60.099 22.6302,67 19.8281,74.0313 C19.3073,74.8125 18.6875,75.2031 17.9688,75.2031 C17.3229,75.2031 16.7396,74.9427 16.2188,74.4219 C15.8229,74.026 15.625,73.5365 15.625,72.9531 L15.625,72.4688 C18.4271,66.0208 19.8281,59.6406 19.8281,53.3281 C19.8281,50.0677 18.849,46.5521 16.8906,42.7813 C14.9427,38.9375 12.9583,35.875 10.9375,33.5938 C8.65625,30.9271 6.05208,28.0625 3.125,25 L0,25 "/>
<path class="Hook" transform="matrix(0.850394,0,0,0.850394,2380.32,1427.95)" d="M22.75,-72.3594 C24.25,-72.3594 25.849,-69.9219 27.5469,-65.0469 C29.1719,-60.224 29.9844,-55.6302 29.9844,-51.2656 C29.9844,-47.5573 29.0729,-43.8802 27.25,-40.2344 C25.3646,-36.3281 23.1198,-32.9427 20.5156,-30.0781 L12.5,-21.0938 C10.0313,-18.2292 7.81771,-14.9115 5.85938,-11.1406 C4.03646,-7.49479 3.125,-3.78125 3.125,0 L0,0 L0,-25 L3.125,-25 C4.88542,-26.1042 7.48958,-27.8646 10.9375,-30.2813 C12.5,-31.4479 14.8438,-33.401 17.9688,-36.1406 C20.5104,-38.4844 22.4323,-40.8906 23.7344,-43.3594 C25.099,-45.9635 25.7813,-48.599 25.7813,-51.2656 C25.7813,-57.4531 23.9896,-63.6094 20.4063,-69.7344 C20.4063,-69.7344 20.4063,-69.8646 20.4063,-70.125 C20.4063,-70.7083 20.6042,-71.1927 21,-71.5781 C21.5208,-72.099 22.1042,-72.3594 22.75,-72.3594"/>
<path class="Hook" transform="matrix(0.850394,0,0,0.850394,2057.64,1406.69)" d="M22.75,-72.3594 C24.25,-72.3594 25.849,-69.9219 27.5469,-65.0469 C29.1719,-60.224 29.9844,-55.6302 29.9844,-51.2656 C29.9844,-47.5573 29.0729,-43.8802 27.25,-40.2344 C25.3646,-36.3281 23.1198,-32.9427 20.5156,-30.0781 L12.5,-21.0938 C10.0313,-18.2292 7.81771,-14.9115 5.85938,-11.1406 C4.03646,-7.49479 3.125,-3.78125 3.125,0 L0,0 L0,-25 L3.125,-25 C4.88542,-26.1042 7.48958,-27.8646 10.9375,-30.2813 C12.5,-31.4479 14.8438,-33.401 17.9688,-36.1406 C20.5104,-38.4844 22.4323,-40.8906 23.7344,-43.3594 C25.099,-45.9635 25.7813,-48.599 25.7813,-51.2656 C25.7813,-57.4531 23.9896,-63.6094 20.4063,-69.7344 C20.4063,-69.7344 20.4063,-69.8646 20.4063,-70.125 C20.4063,-70.7083 20.6042,-71.1927 21,-71.5781 C21.5208,-72.099 22.1042,-72.3594 22.75,-72.3594"/>
<path class="Hook" transform="matrix(0.850394,0,0,0.850394,1231.81,1406.69)" d="M22.75,-72.3594 C24.25,-72.3594 25.849,-69.9219 27.5469,-65.0469 C29.1719,-60.224 29.9844,-55.6302 29.9844,-51.2656 C29.9844,-47.5573 29.0729,-43.8802 27.25,-40.2344 C25.3646,-36.3281 23.1198,-32.9427 20.5156,-30.0781 L12.5,-21.0938 C10.0313,-18.2292 7.81771,-14.9115 5.85938,-11.1406 C4.03646,-7.49479 3.125,-3.78125 3.125,0 L0,0 L0,-25 L3.125,-25 C4.88542,-26.1042 7.48958,-27.8646 10.9375,-30.2813 C12.5,-31.4479 14.8438,-33.401 17.9688,-36.1406 C20.5104,-38.4844 22.4323,-40.8906 23.7344,-43.3594 C25.099,-45.9635 25.7813,-48.599 25.7813,-51.2656 C25.7813,-57.4531 23.9896,-63.6094 20.4063,-69.7344 C20.4063,-69.7344 20.4063,-69.8646 20.4063,-70.125 C20.4063,-70.7083 20.6042,-71.1927 21,-71.5781 C21.5208,-72.099 22.1042,-72.3594 22.75,-72.3594"/>
<path class="Hook" transform="matrix(0.850394,0,0,0.850394,1117.34,1427.95)" d="M22.75,-72.3594 C24.25,-72.3594 25.849,-69.9219 27.5469,-65.0469 C29.1719,-60.224 29.9844,-55.6302 29.9844,-51.2656 C29.9844,-47.5573 29.0729,-43.8802 27.25,-40.2344 C25.3646,-36.3281 23.1198,-32.9427 20.5156,-30.0781 L12.5,-21.0938 C10.0313,-18.2292 7.81771,-14.9115 5.85938,-11.1406 C4.03646,-7.49479 3.125,-3.78125 3.125,0 L0,0 L0,-25 L3.125,-25 C4.88542,-26.1042 7.48958,-27.8646 10.9375,-30.2813 C12.5,-31.4479 14.8438,-33.401 17.9688,-36.1406 C20.5104,-38.4844 22.4323,-40.8906 23.7344,-43.3594 C25.099,-45.9635 25.7813,-48.599 25.7813,-51.2656 C25.7813,-57.4531 23.9896,-63.6094 20.4063,-69.7344 C20.4063,-69.7344 20.4063,-69.8646 20.4063,-70.125 C20.4063,-70.7083 20.6042,-71.1927 21,-71.5781 C21.5208,-72.099 22.1042,-72.3594 22.75,-72.3594"/>
<path class="Hook" transform="matrix(0.850394,0,0,0.850394,790.95,1427.95)" d="M22.75,-72.3594 C24.25,-72.3594 25.849,-69.9219 27.5469,-65.0469 C29.1719,-60.224 29.9844,-55.6302 29.9844,-51.2656 C29.9844,-47.5573 29.0729,-43.8802 27.25,-40.2344 C25.3646,-36.3281 23.1198,-32.9427 20.5156,-30.0781 L12.5,-21.0938 C10.0313,-18.2292 7.81771,-14.9115 5.85938,-11.1406 C4.03646,-7.49479 3.125,-3.78125 3.125,0 L0,0 L0,-25 L3.125,-25 C4.88542,-26.1042 7.48958,-27.8646 10.9375,-30.2813 C12.5,-31.4479 14.8438,-33.401 17.9688,-36.1406 C20.5104,-38.4844 22.4323,-40.8906 23.7344,-43.3594 C25.099,-45.9635 25.7813,-48.599 25.7813,-51.2656 C25.7813,-57.4531 23.9896,-63.6094 20.4063,-69.7344 C20.4063,-69.7344 20.4063,-69.8646 20.4063,-70.125 C20.4063,-70.7083 20.6042,-71.1927 21,-71.5781 C21.5208,-72.099 22.1042,-72.3594 22.75,-72.3594"/>
<path class="Hook" transform="matrix(0.850394,0,0,0.850394,336.057,1303.05)" d="M0,25 L0,0 L3.125,0 C3.125,3.70833 3.84375,7.42188 5.28125,11.1406 C6.84375,15.1719 8.56771,18.6875 10.4531,21.6875 C11.8177,23.8333 13.8698,27.1198 16.6094,31.5469 C18.6927,34.9323 20.4505,38.4792 21.8828,42.1875 C23.3151,45.8958 24.0313,49.6094 24.0313,53.3281 C24.0313,60.099 22.6302,67 19.8281,74.0313 C19.3073,74.8125 18.6875,75.2031 17.9688,75.2031 C17.3229,75.2031 16.7396,74.9427 16.2188,74.4219 C15.8229,74.026 15.625,73.5365 15.625,72.9531 L15.625,72.4688 C18.4271,66.0208 19.8281,59.6406 19.8281,53.3281 C19.8281,50.0677 18.849,46.5521 16.8906,42.7813 C14.9427,38.9375 12.9583,35.875 10.9375,33.5938 C8.65625,30.9271 6.05208,28.0625 3.125,25 L0,25 "/>
<path class="Hook" transform="matrix(0.850394,0,0,0.850394,1524.01,1002.76)" d="M22.75,-72.3594 C24.25,-72.3594 25.849,-69.9219 27.5469,-65.0469 C29.1719,-60.224 29.9844,-55.6302 29.9844,-51.2656 C29.9844,-47.5573 29.0729,-43.8802 27.25,-40.2344 C25.3646,-36.3281 23.1198,-32.9427 20.5156,-30.0781 L12.5,-21.0938 C10.0313,-18.2292 7.81771,-14.9115 5.85938,-11.1406 C4.03646,-7.49479 3.125,-3.78125 3.125,0 L0,0 L0,-25 L3.125,-25 C4.88542,-26.1042 7.48958,-27.8646 10.9375,-30.2813 C12.5,-31.4479 14.8438,-33.401 17.9688,-36.1406 C20.5104,-38.4844 22.4323,-40.8906 23.7344,-43.3594 C25.099,-45.9635 25.7813,-48.599 25.7813,-51.2656 C25.7813,-57.4531 23.9896,-63.6094 20.4063,-69.7344 C20.4063,-69.7344 20.4063,-69.8646 20.4063,-70.125 C20.4063,-70.7083 20.6042,-71.1927 21,-71.5781 C21.5208,-72.099 22.1042,-72.3594 22.75,-72.3594"/>
<path class="Hook" transform="matrix(0.850394,0,0,0.850394,1205.38,981.496)" d="M22.75,-72.3594 C24.25,-72.3594 25.849,-69.9219 27.5469,-65.0469 C29.1719,-60.224 29.9844,-55.6302 29.9844,-51.2656 C29.9844,-47.5573 29.0729,-43.8802 27.25,-40.2344 C25.3646,-36.3281 23.1198,-32.9427 20.5156,-30.0781 L12.5,-21.0938 C10.0313,-18.2292 7.81771,-14.9115 5.85938,-11.1406 C4.03646,-7.49479 3.125,-3.78125 3.125,0 L0,0 L0,-25 L3.125,-25 C4.88542,-26.1042 7.48958,-27.8646 10.9375,-30.2813 C12.5,-31.4479 14.8438,-33.401 17.9688,-36.1406 C20.5104,-38.4844 22.4323,-40.8906 23.7344,-43.3594 C25.099,-45.9635 25.7813,-48.599 25.7813,-51.2656 C25.7813,-57.4531 23.9896,-63.6094 20.4063,-69.7344 C20.4063,-69.7344 20.4063,-69.8646 20.4063,-70.125 C20.4063,-70.7083 20.6042,-71.1927 21,-71.5781 C21.5208,-72.099 22.1042,-72.3594 22.75,-72.3594"/>
<path class="Hook" transform="matrix(0.850394,0,0,0.850394,438.862,1002.76)" d="M22.75,-72.3594 C24.25,-72.3594 25.849,-69.9219 27.5469,-65.0469 C29.1719,-60.224 29.9844,-55.6302 29.9844,-51.2656 C29.9844,-47.5573 29.0729,-43.8802 27.25,-40.2344 C25.3646,-36.3281 23.1198,-32.9427 20.5156,-30.0781 L12.5,-21.0938 C10.0313,-18.2292 7.81771,-14.9115 5.85938,-11.1406 C4.03646,-7.49479 3.125,-3.78125 3.125,0 L0,0 L0,-25 L3.125,-25 C4.88542,-26.1042 7.48958,-27.8646 10.9375,-30.2813 C12.5,-31.4479 14.8438,-33.401 17.9688,-36.1406 C20.5104,-38.4844 22.4323,-40.8906 23.7344,-43.3594 C25.099,-45.9635 25.7813,-48.599 25.7813,-51.2656 C25.7813,-57.4531 23.9896,-63.6094 20.4063,-69.7344 C20.4063,-69.7344 20.4063,-69.8646 20.4063,-70.125 C20.4063,-70.7083 20.6042,-71.1927 21,-71.5781 C21.5208,-72.099 22.1042,-72.3594 22.75,-72.3594"/>
<path class="Hook" transform="matrix(0.850394,0,0,0.850394,1206.01,598.819)" d="M22.75,-72.3594 C24.25,-72.3594 25.849,-69.9219 27.5469,-65.0469 C29.1719,-60.224 29.9844,-55.6302 29.9844,-51.2656 C29.9844,-47.5573 29.0729,-43.8802 27.25,-40.2344 C25.3646,-36.3281 23.1198,-32.9427 20.5156,-30.0781 L12.5,-21.0938 C10.0313,-18.2292 7.81771,-14.9115 5.85938,-11.1406 C4.03646,-7.49479 3.125,-3.78125 3.125,0 L0,0 L0,-25 L3.125,-25 C4.88542,-26.1042 7.48958,-27.8646 10.9375,-30.2813 C12.5,-31.4479 14.8438,-33.401 17.9688,-36.1406 C20.5104,-38.4844 22.4323,-40.8906 23.7344,-43.3594 C25.099,-45.9635 25.7813,-48.599 25.7813,-51.2656 C25.7813,-57.4531 23.9896,-63.6094 20.4063,-69.7344 C20.4063,-69.7344 20.4063,-69.8646 20.4063,-70.125 C20.4063,-70.7083 20.6042,-71.1927 21,-71.5781 C21.5208,-72.099 22.1042,-72.3594 22.75,-72.3594"/>
<path class="Hook" transform="matrix(0.850394,0,0,0.850394,829.329,598.819)" d="M22.75,-72.3594 C24.25,-72.3594 25.849,-69.9219 27.5469,-65.0469 C29.1719,-60.224 29.9844,-55.6302 29.9844,-51.2656 C29.9844,-47.5573 29.0729,-43.8802 27.25,-40.2344 C25.3646,-36.3281 23.1198,-32.9427 20.5156,-30.0781 L12.5,-21.0938 C10.0313,-18.2292 7.81771,-14.9115 5.85938,-11.1406 C4.03646,-7.49479 3.125,-3.78125 3.125,0 L0,0 L0,-25 L3.125,-25 C4.88542,-26.1042 7.48958,-27.8646 10.9375,-30.2813 C12.5,-31.4479 14.8438,-33.401 17.9688,-36.1406 C20.5104,-38.4844 22.4323,-40.8906 23.7344,-43.3594 C25.099,-45.9635 25.7813,-48.599 25.7813,-51.2656 C25.7813,-57.4531 23.9896,-63.6094 20.4063,-69.7344 C20.4063,-69.7344 20.4063,-69.8646 20.4063,-70.125 C20.4063,-70.7083 20.6042,-71.1927 21,-71.5781 C21.5208,-72.099 22.1042,-72.3594 22.75,-72.3594"/>
<path class="Hook" transform="matrix(0.850394,0,0,0.850394,304.403,598.819)" d="M22.75,-72.3594 C24.25,-72.3594 25.849,-69.9219 27.5469,-65.0469 C29.1719,-60.224 29.9844,-55.6302 29.9844,-51.2656 C29.9844,-47.5573 29.0729,-43.8802 27.25,-40.2344 C25.3646,-36.3281 23.1198,-32.9427 20.5156,-30.0781 L12.5,-21.0938 C10.0313,-18.2292 7.81771,-14.9115 5.85938,-11.1406 C4.03646,-7.49479 3.125,-3.78125 3.125,0 L0,0 L0,-25 L3.125,-25 C4.88542,-26.1042 7.48958,-27.8646 10.9375,-30.2813 C12.5,-31.4479 14.8438,-33.401 17.9688,-36.1406 C20.5104,-38.4844 22.4323,-40.8906 23.7344,-43.3594 C25.099,-45.9635 25.7813,-48.599 25.7813,-51.2656 C25.7813,-57.4531 23.9896,-63.6094 20.4063,-69.7344 C20.4063,-69.7344 20.4063,-69.8646 20.4063,-70.125 C20.4063,-70.7083 20.6042,-71.1927 21,-71.5781 C21.5208,-72.099 22.1042,-72.3594 22.75,-72.3594"/>
<path class="NoteDot" transform="matrix(0.850394,0,0,0.850394,1916.84,938.976)" d="M1.66406,4.00781 C0.554688,2.89844 0,1.5625 0,0 C0,-1.5625 0.554688,-2.89844 1.66406,-4.00781 C2.77344,-5.11719 4.10938,-5.67188 5.67188,-5.67188 C7.23438,-5.67188 8.56771,-5.11719 9.67188,-4.00781 C10.776,-2.89844 11.3281,-1.5625 11.3281,0 C11.3281,1.5625 10.776,2.89844 9.67188,4.00781 C8.56771,5.11719 7.23438,5.67188 5.67188,5.67188 C4.10938,5.67188 2.77344,5.11719 1.66406,4.00781"/>
<path class="NoteDot" transform="matrix(0.850394,0,0,0.850394,1669.98,938.976)" d="M1.66406,4.00781 C0.554688,2.89844 0,1.5625 0,0 C0,-1.5625 0.554688,-2.89844 1.66406,-4.00781 C2.77344,-5.11719 4.10938,-5.67188 5.67188,-5.67188 C7.23438,-5.67188 8.56771,-5.11719 9.67188,-4.00781 C10.776,-2.89844 11.3281,-1.5625 11.3281,0 C11.3281,1.5625 10.776,2.89844 9.67188,4.00781 C8.56771,5.11719 7.23438,5.67188 5.67188,5.67188 C4.10938,5.67188 2.77344,5.11719 1.66406,4.00781"/>
<path class="NoteDot" transform="matrix(0.850394,0,0,0.850394,840.016,896.457)" d="M1.66406,4.00781 C0.554688,2.89844 0,1.5625 0,0 C0,-1.5625 0.554688,-2.89844 1.66406,-4.00781 C2.77344,-5.11719 4.10938,-5.67188 5.67188,-5.67188 C7.23438,-5.67188 8.56771,-5.11719 9.67188,-4.00781 C10.776,-2.89844 11.3281,-1.5625 11.3281,0 C11.3281,1.5625 10.776,2.89844 9.67188,4.00781 C8.56771,5.11719 7.23438,5.67188 5.67188,5.67188 C4.10938,5.67188 2.77344,5.11719 1.66406,4.00781"/>
<path class="NoteDot" transform="matrix(0.850394,0,0,0.850394,584.826,896.457)" d="M1.66406,4.00781 C0.554688,2.89844 0,1.5625 0,0 C0,-1.5625 0.554688,-2.89844 1.66406,-4.00781 C2.77344,-5.11719 4.10938,-5.67188 5.67188,-5.67188 C7.23438,-5.67188 8.56771,-5.11719 9.67188,-4.00781 C10.776,-2.89844 11.3281,-1.5625 11.3281,0 C11.3281,1.5625 10.776,2.89844 9.67188,4.00781 C8.56771,5.11719 7.23438,5.67188 5.67188,5.67188 C4.10938,5.67188 2.77344,5.11719 1.66406,4.00781"/>
<path class="NoteDot" transform="matrix(0.850394,0,0,0.850394,2300.45,535.039)" d="M1.66406,4.00781 C0.554688,2.89844 0,1.5625 0,0 C0,-1.5625 0.554688,-2.89844 1.66406,-4.00781 C2.77344,-5.11719 4.10938,-5.67188 5.67188,-5.67188 C7.23438,-5.67188 8.56771,-5.11719 9.67188,-4.00781 C10.776,-2.89844 11.3281,-1.5625 11.3281,0 C11.3281,1.5625 10.776,2.89844 9.67188,4.00781 C8.56771,5.11719 7.23438,5.67188 5.67188,5.67188 C4.10938,5.67188 2.77344,5.11719 1.66406,4.00781"/>
<path class="NoteDot" transform="matrix(0.850394,0,0,0.850394,1683.55,535.039)" d="M1.66406,4.00781 C0.554688,2.89844 0,1.5625 0,0 C0,-1.5625 0.554688,-2.89844 1.66406,-4.00781 C2.77344,-5.11719 4.10938,-5.67188 5.67188,-5.67188 C7.23438,-5.67188 8.56771,-5.11719 9.67188,-4.00781 C10.776,-2.89844 11.3281,-1.5625 11.3281,0 C11.3281,1.5625 10.776,2.89844 9.67188,4.00781 C8.56771,5.11719 7.23438,5.67188 5.67188,5.67188 C4.10938,5.67188 2.77344,5.11719 1.66406,4.00781"/>
<path class="NoteDot" transform="matrix(0.850394,0,0,0.850394,1380.68,535.039)" d="M1.66406,4.00781 C0.554688,2.89844 0,1.5625 0,0 C0,-1.5625 0.554688,-2.89844 1.66406,-4.00781 C2.77344,-5.11719 4.10938,-5.67188 5.67188,-5.67188 C7.23438,-5.67188 8.56771,-5.11719 9.67188,-4.00781 C10.776,-2.89844 11.3281,-1.5625 11.3281,0 C11.3281,1.5625 10.776,2.89844 9.67188,4.00781 C8.56771,5.11719 7.23438,5.67188 5.67188,5.67188 C4.10938,5.67188 2.77344,5.11719 1.66406,4.00781"/>
</svg>
