<?xml version="1.0" encoding="UTF-8" standalone="no"?>
<svg width="3060px" height="3960px" viewBox="0 0 3060 3960"
 xmlns="http://www.w3.org/2000/svg" xmlns:xlink="http://www.w3.org/1999/xlink" version="1.2" baseProfile="tiny">
<title>Din_copita_murgul_bate</title>
<desc>Generated by MuseScore 3.0.2</desc>
<polyline class="StaffLines" fill="none" stroke="#000000" stroke-width="2.00" stroke-linejoin="bevel" points="141.732,566.733 2918.27,566.733"/>
<polyline class="StaffLines" fill="none" stroke="#000000" stroke-width="2.00" stroke-linejoin="bevel" points="141.732,591.733 2918.27,591.733"/>
<polyline class="StaffLines" fill="none" stroke="#000000" stroke-width="2.00" stroke-linejoin="bevel" points="141.732,616.733 2918.27,616.733"/>
<polyline class="StaffLines" fill="none" stroke="#000000" stroke-width="2.00" stroke-linejoin="bevel" points="141.732,641.733 2918.27,641.733"/>
<polyline class="StaffLines" fill="none" stroke="#000000" stroke-width="2.00" stroke-linejoin="bevel" points="141.732,666.733 2918.27,666.733"/>
<polyline class="StaffLines" fill="none" stroke="#000000" stroke-width="2.00" stroke-linejoin="bevel" points="141.732,1041.73 2918.27,1041.73"/>
<polyline class="StaffLines" fill="none" stroke="#000000" stroke-width="2.00" stroke-linejoin="bevel" points="141.732,1066.73 2918.27,1066.73"/>
<polyline class="StaffLines" fill="none" stroke="#000000" stroke-width="2.00" stroke-linejoin="bevel" points="141.732,1091.73 2918.27,1091.73"/>
<polyline class="StaffLines" fill="none" stroke="#000000" stroke-width="2.00" stroke-linejoin="bevel" points="141.732,1116.73 2918.27,1116.73"/>
<polyline class="StaffLines" fill="none" stroke="#000000" stroke-width="2.00" stroke-linejoin="bevel" points="141.732,1141.73 2918.27,1141.73"/>
<path class="Text" d="M1419.25,315.293 L1417.64,315.293 C1417.21,312.449 1416.53,310.618 1415.6,309.8 C1414.67,308.983 1412.78,308.574 1409.94,308.574 L1399.78,308.574 L1399.78,323.136 C1399.78,325.98 1400.16,327.821 1400.94,328.66 C1401.71,329.498 1403.45,329.991 1406.15,330.136 L1406.15,331.465 L1386.54,331.465 L1386.54,330.136 C1389.21,329.949 1390.89,329.446 1391.59,328.629 C1392.29,327.811 1392.64,325.954 1392.64,323.058 L1392.64,292.746 C1392.64,290.277 1392.27,288.657 1391.52,287.886 C1390.78,287.116 1389.12,286.636 1386.54,286.449 L1386.54,285.121 L1423.72,285.121 L1423.94,295.136 L1422.19,295.136 C1421.58,292.001 1420.65,289.991 1419.39,289.105 C1418.13,288.22 1415.51,287.777 1411.54,287.777 L1402.01,287.777 C1401.09,287.777 1400.48,287.928 1400.2,288.23 C1399.92,288.532 1399.78,289.178 1399.78,290.168 L1399.78,305.699 L1409.94,305.699 C1412.74,305.699 1414.62,305.29 1415.57,304.472 C1416.52,303.655 1417.21,301.85 1417.64,299.058 L1419.25,299.058 L1419.25,315.293 M1426.25,324.558 C1426.25,323.715 1426.34,322.933 1426.53,322.215 C1426.72,321.496 1427.04,320.824 1427.51,320.199 C1427.97,319.574 1428.41,319.006 1428.83,318.496 C1429.26,317.985 1429.89,317.462 1430.72,316.925 C1431.56,316.389 1432.26,315.946 1432.83,315.597 C1433.39,315.248 1434.24,314.832 1435.38,314.347 C1436.52,313.863 1437.4,313.493 1438.01,313.238 C1438.62,312.983 1439.57,312.6 1440.88,312.09 C1442.19,311.579 1443.14,311.204 1443.75,310.965 L1443.75,306.73 C1443.75,302.876 1441.98,300.949 1438.44,300.949 C1437.03,300.949 1435.84,301.285 1434.86,301.957 C1433.88,302.629 1433.39,303.433 1433.39,304.371 C1433.39,304.746 1433.45,305.259 1433.56,305.91 C1433.67,306.561 1433.73,306.98 1433.73,307.168 C1433.73,307.959 1433.42,308.647 1432.79,309.23 C1432.16,309.813 1431.42,310.105 1430.59,310.105 C1429.8,310.105 1429.1,309.803 1428.49,309.199 C1427.88,308.595 1427.58,307.897 1427.58,307.105 C1427.58,304.907 1428.71,303.05 1430.97,301.535 C1433.24,300.019 1436.03,299.261 1439.34,299.261 C1443.16,299.261 1445.8,300.178 1447.25,302.011 C1448.7,303.845 1449.42,306.647 1449.42,310.418 L1449.42,323.996 C1449.42,325.527 1449.57,326.582 1449.87,327.16 C1450.17,327.738 1450.72,328.027 1451.51,328.027 C1452.5,328.027 1453.53,327.59 1454.61,326.715 L1454.61,328.543 C1453.39,329.938 1452.32,330.892 1451.41,331.402 C1450.5,331.912 1449.46,332.168 1448.29,332.168 C1446.85,332.168 1445.79,331.759 1445.12,330.941 C1444.44,330.123 1444.01,328.782 1443.83,326.918 C1439.81,330.418 1436.39,332.168 1433.59,332.168 C1431.45,332.168 1429.69,331.457 1428.31,330.035 C1426.94,328.613 1426.25,326.787 1426.25,324.558 M1443.75,322.746 L1443.75,312.636 C1439.55,314.168 1436.61,315.655 1434.93,317.097 C1433.25,318.54 1432.4,320.282 1432.4,322.324 C1432.4,324.23 1432.87,325.647 1433.81,326.574 C1434.75,327.501 1435.75,327.965 1436.83,327.965 C1438.41,327.965 1440.11,327.428 1441.94,326.355 C1442.67,325.938 1443.16,325.498 1443.4,325.035 C1443.63,324.571 1443.75,323.808 1443.75,322.746 M1475.58,306.121 C1474.87,306.121 1474,305.712 1472.97,304.894 C1471.95,304.077 1471.27,303.668 1470.95,303.668 C1470.01,303.668 1468.96,304.345 1467.79,305.699 C1466.63,307.053 1466.04,308.293 1466.04,309.418 L1466.04,325.168 C1466.04,327.168 1466.44,328.519 1467.24,329.222 C1468.04,329.925 1469.62,330.324 1472,330.418 L1472,331.465 L1455.2,331.465 L1455.2,330.418 C1457.44,329.991 1458.83,329.522 1459.37,329.011 C1459.9,328.501 1460.17,327.36 1460.17,325.59 L1460.17,308.09 C1460.17,306.548 1460,305.462 1459.65,304.832 C1459.3,304.202 1458.68,303.886 1457.79,303.886 C1457.04,303.886 1456.23,303.98 1455.34,304.168 L1455.34,303.043 C1459.07,301.824 1462.52,300.563 1465.7,299.261 L1466.04,299.402 L1466.04,305.84 C1467.77,303.371 1469.25,301.657 1470.46,300.699 C1471.67,299.741 1473,299.261 1474.45,299.261 C1475.66,299.261 1476.6,299.587 1477.28,300.238 C1477.96,300.889 1478.29,301.798 1478.29,302.965 C1478.29,303.954 1478.05,304.728 1477.56,305.285 C1477.07,305.842 1476.41,306.121 1475.58,306.121 M1480.25,324.558 C1480.25,323.715 1480.34,322.933 1480.53,322.215 C1480.72,321.496 1481.04,320.824 1481.51,320.199 C1481.97,319.574 1482.41,319.006 1482.83,318.496 C1483.26,317.985 1483.89,317.462 1484.72,316.925 C1485.56,316.389 1486.26,315.946 1486.83,315.597 C1487.39,315.248 1488.24,314.832 1489.38,314.347 C1490.52,313.863 1491.4,313.493 1492.01,313.238 C1492.62,312.983 1493.57,312.6 1494.88,312.09 C1496.19,311.579 1497.14,311.204 1497.75,310.965 L1497.75,306.73 C1497.75,302.876 1495.98,300.949 1492.44,300.949 C1491.03,300.949 1489.84,301.285 1488.86,301.957 C1487.88,302.629 1487.39,303.433 1487.39,304.371 C1487.39,304.746 1487.45,305.259 1487.56,305.91 C1487.67,306.561 1487.73,306.98 1487.73,307.168 C1487.73,307.959 1487.42,308.647 1486.79,309.23 C1486.16,309.813 1485.42,310.105 1484.59,310.105 C1483.8,310.105 1483.1,309.803 1482.49,309.199 C1481.88,308.595 1481.58,307.897 1481.58,307.105 C1481.58,304.907 1482.71,303.05 1484.97,301.535 C1487.24,300.019 1490.03,299.261 1493.34,299.261 C1497.16,299.261 1499.8,300.178 1501.25,302.011 C1502.7,303.845 1503.42,306.647 1503.42,310.418 L1503.42,323.996 C1503.42,325.527 1503.57,326.582 1503.87,327.16 C1504.17,327.738 1504.72,328.027 1505.51,328.027 C1506.5,328.027 1507.53,327.59 1508.61,326.715 L1508.61,328.543 C1507.39,329.938 1506.32,330.892 1505.41,331.402 C1504.5,331.912 1503.46,332.168 1502.29,332.168 C1500.85,332.168 1499.79,331.759 1499.12,330.941 C1498.44,330.123 1498.01,328.782 1497.83,326.918 C1493.81,330.418 1490.39,332.168 1487.59,332.168 C1485.45,332.168 1483.69,331.457 1482.31,330.035 C1480.94,328.613 1480.25,326.787 1480.25,324.558 M1497.75,322.746 L1497.75,312.636 C1493.55,314.168 1490.61,315.655 1488.93,317.097 C1487.25,318.54 1486.4,320.282 1486.4,322.324 C1486.4,324.23 1486.87,325.647 1487.81,326.574 C1488.75,327.501 1489.75,327.965 1490.83,327.965 C1492.41,327.965 1494.11,327.428 1495.94,326.355 C1496.67,325.938 1497.16,325.498 1497.4,325.035 C1497.63,324.571 1497.75,323.808 1497.75,322.746 M1544.62,299.965 L1544.62,302.058 L1537.56,302.058 L1537.56,322.09 C1537.56,324.277 1537.84,325.873 1538.4,326.879 C1538.95,327.884 1539.89,328.386 1541.2,328.386 C1542.65,328.386 1544.05,327.569 1545.4,325.933 L1546.31,326.699 C1544.07,330.345 1541.27,332.168 1537.9,332.168 C1533.76,332.168 1531.69,329.188 1531.69,323.23 L1531.69,302.058 L1527.97,302.058 C1527.78,301.933 1527.69,301.782 1527.69,301.605 C1527.69,301.386 1527.76,301.212 1527.9,301.082 C1528.04,300.952 1528.31,300.764 1528.7,300.519 C1529.1,300.274 1529.58,299.928 1530.14,299.48 C1530.7,299.032 1531.47,298.217 1532.45,297.035 C1533.43,295.853 1534.5,294.433 1535.67,292.777 C1536.42,291.694 1536.89,291.032 1537.08,290.793 C1537.4,290.793 1537.56,291.1 1537.56,291.715 L1537.56,299.965 L1544.62,299.965 M1550.84,303.949 C1549.81,303.949 1548.83,304.022 1547.9,304.168 L1547.9,303.105 C1551.16,302.178 1554.78,300.897 1558.75,299.261 L1559.03,299.465 L1559.03,324.324 C1559.03,326.845 1559.32,328.444 1559.9,329.121 C1560.49,329.798 1561.92,330.23 1564.22,330.418 L1564.22,331.465 L1547.62,331.465 L1547.62,330.418 C1550.05,330.272 1551.58,329.85 1552.21,329.152 C1552.84,328.454 1553.15,326.845 1553.15,324.324 L1553.15,308.09 C1553.15,306.548 1552.98,305.472 1552.62,304.863 C1552.27,304.254 1551.67,303.949 1550.84,303.949 M1555.47,283.652 C1556.49,283.652 1557.35,284.001 1558.04,284.699 C1558.74,285.397 1559.09,286.235 1559.09,287.215 C1559.09,288.246 1558.74,289.1 1558.04,289.777 C1557.35,290.454 1556.49,290.793 1555.47,290.793 C1554.48,290.793 1553.64,290.441 1552.97,289.738 C1552.29,289.035 1551.95,288.194 1551.95,287.215 C1551.95,286.235 1552.3,285.397 1553.01,284.699 C1553.71,284.001 1554.53,283.652 1555.47,283.652 M1566.4,303.746 L1566.4,302.558 C1569.77,301.579 1573.04,300.48 1576.22,299.261 L1576.7,299.402 L1576.7,304.793 C1579.6,302.543 1581.74,301.058 1583.14,300.34 C1584.53,299.621 1586,299.261 1587.54,299.261 C1591.23,299.261 1593.71,301.267 1594.97,305.277 C1598.61,301.267 1602.42,299.261 1606.39,299.261 C1611.79,299.261 1614.5,303.449 1614.5,311.824 L1614.5,326.168 C1614.5,328.772 1615.5,330.142 1617.51,330.277 L1619.33,330.418 L1619.33,331.465 L1604,331.465 L1604,330.418 C1606.05,330.188 1607.33,329.793 1607.85,329.23 C1608.37,328.668 1608.62,327.392 1608.62,325.402 L1608.62,310.699 C1608.62,307.824 1608.25,305.829 1607.51,304.715 C1606.76,303.6 1605.38,303.043 1603.37,303.043 C1600.29,303.043 1597.75,304.459 1595.75,307.293 L1595.75,324.84 C1595.75,327.027 1596.08,328.491 1596.76,329.23 C1597.43,329.97 1598.77,330.366 1600.78,330.418 L1600.78,331.465 L1585.11,331.465 L1585.11,330.418 C1587.11,330.272 1588.4,329.897 1588.98,329.293 C1589.57,328.688 1589.86,327.412 1589.86,325.465 L1589.86,310.355 C1589.86,305.48 1588.32,303.043 1585.23,303.043 C1583.93,303.043 1582.47,303.368 1580.87,304.019 C1579.26,304.67 1577.96,305.715 1576.98,307.152 L1576.98,326.793 C1576.98,328.136 1577.31,329.053 1577.96,329.543 C1578.61,330.032 1579.87,330.324 1581.73,330.418 L1581.73,331.465 L1566.2,331.465 L1566.2,330.418 C1568.16,330.366 1569.46,330.017 1570.12,329.371 C1570.77,328.725 1571.09,327.449 1571.09,325.543 L1571.09,307.918 C1571.09,306.251 1570.92,305.092 1570.57,304.441 C1570.22,303.79 1569.58,303.465 1568.65,303.465 C1567.95,303.465 1567.2,303.558 1566.4,303.746 M1621.48,303.949 L1621.48,302.824 C1624.42,301.938 1627.78,300.751 1631.56,299.261 L1631.98,299.402 L1631.98,304.793 C1634.97,301.105 1638.33,299.261 1642.06,299.261 C1645.47,299.261 1648.27,300.668 1650.46,303.48 C1652.65,306.293 1653.75,309.876 1653.75,314.23 C1653.75,319.303 1652.34,323.561 1649.51,327.004 C1646.69,330.446 1643.2,332.168 1639.04,332.168 C1637.56,332.168 1636.31,331.967 1635.3,331.566 C1634.3,331.165 1633.19,330.407 1631.98,329.293 L1631.98,340.183 C1631.98,342.36 1632.35,343.761 1633.1,344.386 C1633.84,345.011 1635.52,345.35 1638.14,345.402 L1638.14,346.652 L1621.2,346.652 L1621.2,345.465 C1623.25,345.277 1624.58,344.881 1625.19,344.277 C1625.79,343.673 1626.09,342.459 1626.09,340.636 L1626.09,307.871 C1626.09,306.235 1625.91,305.162 1625.54,304.652 C1625.17,304.142 1624.4,303.886 1623.23,303.886 C1622.48,303.886 1621.9,303.907 1621.48,303.949 M1631.98,308.105 L1631.98,325.418 C1631.98,326.449 1632.79,327.48 1634.4,328.511 C1636.01,329.543 1637.63,330.058 1639.26,330.058 C1641.78,330.058 1643.83,328.85 1645.39,326.433 C1646.95,324.017 1647.73,320.866 1647.73,316.98 C1647.73,312.897 1646.95,309.623 1645.39,307.16 C1643.83,304.696 1641.74,303.465 1639.12,303.465 C1637.49,303.465 1635.89,303.98 1634.33,305.011 C1632.76,306.043 1631.98,307.074 1631.98,308.105 M1659.84,303.949 C1658.81,303.949 1657.83,304.022 1656.9,304.168 L1656.9,303.105 C1660.16,302.178 1663.78,300.897 1667.75,299.261 L1668.03,299.465 L1668.03,324.324 C1668.03,326.845 1668.32,328.444 1668.9,329.121 C1669.49,329.798 1670.92,330.23 1673.22,330.418 L1673.22,331.465 L1656.62,331.465 L1656.62,330.418 C1659.05,330.272 1660.58,329.85 1661.21,329.152 C1661.84,328.454 1662.15,326.845 1662.15,324.324 L1662.15,308.09 C1662.15,306.548 1661.98,305.472 1661.62,304.863 C1661.27,304.254 1660.67,303.949 1659.84,303.949 M1664.47,283.652 C1665.49,283.652 1666.35,284.001 1667.04,284.699 C1667.74,285.397 1668.09,286.235 1668.09,287.215 C1668.09,288.246 1667.74,289.1 1667.04,289.777 C1666.35,290.454 1665.49,290.793 1664.47,290.793 C1663.48,290.793 1662.64,290.441 1661.97,289.738 C1661.29,289.035 1660.95,288.194 1660.95,287.215 C1660.95,286.235 1661.3,285.397 1662.01,284.699 C1662.71,284.001 1663.53,283.652 1664.47,283.652"/>
<path class="Text" d="M1064.08,183.654 C1064.08,187.258 1063.67,190.779 1062.87,194.217 C1062.07,197.654 1060.59,201.214 1058.44,204.896 C1056.28,208.579 1053.52,211.758 1050.16,214.435 C1046.8,217.112 1042.34,219.331 1036.78,221.092 C1031.22,222.852 1024.91,223.732 1017.87,223.732 L983.795,223.732 L983.795,221.451 C988.357,221.118 991.258,220.31 992.498,219.029 C993.737,217.748 994.357,214.951 994.357,210.638 L994.357,157.404 C994.357,153.008 993.777,150.211 992.615,149.013 C991.454,147.816 988.514,147.003 983.795,146.576 L983.795,144.295 L1016.2,144.295 C1023.48,144.295 1029.98,145.115 1035.7,146.756 C1041.42,148.396 1046.02,150.516 1049.5,153.115 C1052.98,155.714 1055.86,158.795 1058.14,162.357 C1060.42,165.92 1061.98,169.42 1062.82,172.857 C1063.66,176.295 1064.08,179.894 1064.08,183.654 M1051,184.498 C1051,181.06 1050.66,177.769 1049.97,174.623 C1049.29,171.477 1048.07,168.29 1046.31,165.06 C1044.55,161.831 1042.27,159.06 1039.47,156.748 C1036.68,154.435 1033,152.542 1028.44,151.068 C1023.87,149.594 1018.67,148.857 1012.84,148.857 C1010.36,148.857 1008.7,149.175 1007.86,149.81 C1007.01,150.446 1006.59,151.68 1006.59,153.513 L1006.59,214.263 C1006.59,216.18 1007.03,217.477 1007.91,218.154 C1008.79,218.831 1010.44,219.17 1012.84,219.17 C1038.28,219.17 1051,207.612 1051,184.498 M1075.44,176.576 C1073.67,176.576 1072,176.696 1070.4,176.935 L1070.4,175.138 C1076,173.534 1082.2,171.331 1089,168.529 L1089.48,168.888 L1089.48,211.498 C1089.48,215.81 1089.98,218.547 1090.98,219.709 C1091.98,220.87 1094.44,221.612 1098.36,221.935 L1098.36,223.732 L1069.92,223.732 L1069.92,221.935 C1074.08,221.696 1076.7,220.974 1077.78,219.771 C1078.86,218.568 1079.4,215.81 1079.4,211.498 L1079.4,183.654 C1079.4,181.019 1079.1,179.18 1078.5,178.138 C1077.89,177.097 1076.87,176.576 1075.44,176.576 M1083.36,141.779 C1085.12,141.779 1086.6,142.378 1087.79,143.576 C1088.99,144.774 1089.59,146.211 1089.59,147.888 C1089.59,149.649 1088.99,151.11 1087.79,152.271 C1086.6,153.433 1085.12,154.013 1083.36,154.013 C1081.68,154.013 1080.26,153.415 1079.1,152.217 C1077.94,151.019 1077.36,149.579 1077.36,147.896 C1077.36,146.214 1077.96,144.774 1079.15,143.576 C1080.35,142.378 1081.75,141.779 1083.36,141.779 M1102.2,175.857 L1102.2,173.81 C1108.12,172.092 1113.64,170.331 1118.76,168.529 L1119.59,168.763 L1119.59,178.138 C1123.67,174.347 1126.9,171.797 1129.26,170.49 C1131.62,169.183 1134.2,168.529 1137,168.529 C1141.39,168.529 1144.85,170.102 1147.37,173.248 C1149.89,176.394 1151.15,180.79 1151.15,186.435 L1151.15,213.998 C1151.15,216.956 1151.63,218.938 1152.59,219.943 C1153.55,220.948 1155.51,221.612 1158.48,221.935 L1158.48,223.732 L1133.51,223.732 L1133.51,221.935 C1136.56,221.696 1138.58,220.894 1139.58,219.529 C1140.58,218.165 1141.08,215.597 1141.08,211.826 L1141.08,186.685 C1141.08,178.904 1138.15,175.013 1132.31,175.013 C1130.31,175.013 1128.47,175.474 1126.79,176.396 C1125.12,177.318 1122.84,179.144 1119.95,181.873 L1119.95,215.67 C1119.95,217.836 1120.51,219.362 1121.63,220.248 C1122.75,221.133 1124.83,221.696 1127.87,221.935 L1127.87,223.732 L1102.44,223.732 L1102.44,221.935 C1105.48,221.696 1107.48,220.993 1108.44,219.826 C1109.39,218.659 1109.87,216.352 1109.87,212.904 L1109.87,183.076 C1109.87,180.107 1109.55,178.081 1108.91,176.998 C1108.27,175.915 1107.11,175.373 1105.44,175.373 C1103.91,175.373 1102.84,175.534 1102.2,175.857 M1193,198.154 C1193,189.279 1195.62,182.123 1200.86,176.685 C1206.1,171.248 1212.24,168.529 1219.28,168.529 C1224.32,168.529 1228.66,169.75 1232.3,172.193 C1235.94,174.636 1237.76,177.534 1237.76,180.888 C1237.76,182.253 1237.2,183.435 1236.08,184.435 C1234.95,185.435 1233.59,185.935 1232,185.935 C1229.28,185.935 1227.4,184.112 1226.36,180.467 L1225.64,177.842 C1224.99,175.623 1224.19,174.118 1223.23,173.326 C1222.27,172.534 1220.72,172.138 1218.56,172.138 C1213.67,172.138 1209.73,174.068 1206.73,177.928 C1203.73,181.787 1202.23,186.779 1202.23,192.904 C1202.23,199.748 1203.97,205.336 1207.45,209.67 C1210.93,214.003 1215.39,216.17 1220.84,216.17 C1224.28,216.17 1227.24,215.334 1229.72,213.662 C1232.2,211.99 1234.88,209.086 1237.76,204.951 L1239.44,206.029 C1238.63,207.633 1237.93,208.956 1237.33,209.998 C1236.73,211.04 1235.66,212.605 1234.1,214.693 C1232.54,216.782 1231,218.469 1229.48,219.756 C1227.96,221.042 1225.96,222.227 1223.48,223.31 C1221,224.394 1218.44,224.935 1215.79,224.935 C1209.16,224.935 1203.7,222.433 1199.42,217.428 C1195.14,212.422 1193,205.998 1193,198.154 M1272.51,168.529 C1280.19,168.529 1286.51,171.092 1291.47,176.217 C1296.44,181.342 1298.92,187.826 1298.92,195.67 C1298.92,203.982 1296.36,210.938 1291.24,216.537 C1286.12,222.136 1279.8,224.935 1272.28,224.935 C1264.76,224.935 1258.5,222.235 1253.5,216.834 C1248.5,211.433 1246,204.696 1246,196.623 C1246,188.383 1248.46,181.641 1253.38,176.396 C1258.3,171.152 1264.68,168.529 1272.51,168.529 M1256.79,190.795 C1256.79,199.274 1258.35,206.482 1261.47,212.42 C1264.59,218.357 1268.67,221.326 1273.72,221.326 C1278.2,221.326 1281.72,219.425 1284.28,215.623 C1286.84,211.821 1288.12,206.555 1288.12,199.826 C1288.12,191.659 1286.52,185.003 1283.32,179.857 C1280.12,174.711 1275.99,172.138 1270.95,172.138 C1266.71,172.138 1263.29,173.842 1260.69,177.248 C1258.09,180.654 1256.79,185.17 1256.79,190.795 M1303.69,176.576 L1303.69,174.654 C1308.72,173.133 1314.47,171.092 1320.95,168.529 L1321.67,168.779 L1321.67,178.029 C1326.79,171.696 1332.56,168.529 1338.95,168.529 C1344.79,168.529 1349.6,170.938 1353.36,175.756 C1357.12,180.573 1359,186.717 1359,194.185 C1359,202.883 1356.58,210.183 1351.74,216.084 C1346.9,221.985 1340.92,224.935 1333.79,224.935 C1331.23,224.935 1329.09,224.592 1327.37,223.904 C1325.65,223.217 1323.75,221.915 1321.67,219.998 L1321.67,238.685 C1321.67,242.415 1322.31,244.816 1323.59,245.888 C1324.87,246.961 1327.75,247.534 1332.23,247.607 L1332.23,249.763 L1303.2,249.763 L1303.2,247.732 C1306.72,247.409 1309,246.73 1310.04,245.693 C1311.07,244.657 1311.59,242.576 1311.59,239.451 L1311.59,183.295 C1311.59,180.493 1311.27,178.652 1310.64,177.771 C1310,176.891 1308.69,176.451 1306.69,176.451 C1305.4,176.451 1304.4,176.493 1303.69,176.576 M1321.67,183.701 L1321.67,213.373 C1321.67,215.144 1323.05,216.912 1325.81,218.678 C1328.57,220.443 1331.35,221.326 1334.15,221.326 C1338.48,221.326 1341.98,219.256 1344.65,215.115 C1347.33,210.974 1348.67,205.566 1348.67,198.888 C1348.67,191.899 1347.33,186.292 1344.65,182.068 C1341.98,177.844 1338.4,175.732 1333.92,175.732 C1331.12,175.732 1328.38,176.618 1325.69,178.388 C1323.01,180.159 1321.67,181.93 1321.67,183.701 M1369.44,176.576 C1367.67,176.576 1366,176.696 1364.4,176.935 L1364.4,175.138 C1370,173.534 1376.2,171.331 1383,168.529 L1383.48,168.888 L1383.48,211.498 C1383.48,215.81 1383.98,218.547 1384.98,219.709 C1385.98,220.87 1388.44,221.612 1392.36,221.935 L1392.36,223.732 L1363.92,223.732 L1363.92,221.935 C1368.08,221.696 1370.7,220.974 1371.78,219.771 C1372.86,218.568 1373.4,215.81 1373.4,211.498 L1373.4,183.654 C1373.4,181.019 1373.1,179.18 1372.5,178.138 C1371.89,177.097 1370.87,176.576 1369.44,176.576 M1377.36,141.779 C1379.12,141.779 1380.6,142.378 1381.79,143.576 C1382.99,144.774 1383.59,146.211 1383.59,147.888 C1383.59,149.649 1382.99,151.11 1381.79,152.271 C1380.6,153.433 1379.12,154.013 1377.36,154.013 C1375.68,154.013 1374.26,153.415 1373.1,152.217 C1371.94,151.019 1371.36,149.579 1371.36,147.896 C1371.36,146.214 1371.96,144.774 1373.15,143.576 C1374.35,142.378 1375.75,141.779 1377.36,141.779 M1426.08,169.732 L1426.08,173.342 L1413.95,173.342 L1413.95,207.654 C1413.95,211.415 1414.43,214.154 1415.4,215.873 C1416.36,217.592 1417.96,218.451 1420.2,218.451 C1422.68,218.451 1425.08,217.05 1427.4,214.248 L1428.95,215.576 C1425.12,221.816 1420.32,224.935 1414.56,224.935 C1407.44,224.935 1403.87,219.831 1403.87,209.623 L1403.87,173.342 L1397.51,173.342 C1397.2,173.112 1397.04,172.847 1397.04,172.545 C1397.04,172.17 1397.16,171.87 1397.4,171.646 C1397.64,171.422 1398.1,171.105 1398.78,170.693 C1399.46,170.282 1400.28,169.691 1401.24,168.92 C1402.2,168.149 1403.52,166.75 1405.2,164.724 C1406.88,162.698 1408.72,160.263 1410.72,157.42 C1412,155.555 1412.8,154.42 1413.12,154.013 C1413.67,154.013 1413.95,154.54 1413.95,155.592 L1413.95,169.732 L1426.08,169.732 M1432,211.888 C1432,210.451 1432.16,209.115 1432.47,207.881 C1432.79,206.646 1433.35,205.493 1434.15,204.42 C1434.96,203.347 1435.72,202.373 1436.44,201.498 C1437.15,200.623 1438.23,199.727 1439.68,198.81 C1441.12,197.894 1442.32,197.138 1443.28,196.545 C1444.24,195.951 1445.7,195.235 1447.65,194.396 C1449.61,193.558 1451.11,192.92 1452.15,192.482 C1453.2,192.045 1454.84,191.388 1457.08,190.513 C1459.32,189.638 1460.96,189.003 1462,188.607 L1462,181.326 C1462,174.722 1458.96,171.42 1452.87,171.42 C1450.48,171.42 1448.44,171.998 1446.76,173.154 C1445.07,174.31 1444.23,175.691 1444.23,177.295 C1444.23,177.93 1444.33,178.808 1444.54,179.928 C1444.74,181.047 1444.84,181.769 1444.84,182.092 C1444.84,183.456 1444.3,184.638 1443.22,185.638 C1442.13,186.638 1440.87,187.138 1439.44,187.138 C1438.08,187.138 1436.88,186.618 1435.84,185.576 C1434.8,184.534 1434.28,183.331 1434.28,181.967 C1434.28,178.217 1436.22,175.04 1440.1,172.435 C1443.98,169.831 1448.76,168.529 1454.44,168.529 C1461,168.529 1465.52,170.102 1468,173.248 C1470.48,176.394 1471.72,181.196 1471.72,187.654 L1471.72,210.935 C1471.72,213.56 1471.98,215.37 1472.5,216.365 C1473.02,217.36 1473.96,217.857 1475.31,217.857 C1477,217.857 1478.76,217.102 1480.59,215.592 L1480.59,218.732 C1478.52,221.128 1476.7,222.761 1475.14,223.631 C1473.58,224.5 1471.79,224.935 1469.79,224.935 C1467.32,224.935 1465.5,224.237 1464.33,222.842 C1463.17,221.446 1462.44,219.144 1462.12,215.935 C1455.24,221.935 1449.39,224.935 1444.59,224.935 C1440.91,224.935 1437.9,223.714 1435.54,221.271 C1433.18,218.829 1432,215.701 1432,211.888 M1462,208.779 L1462,191.467 C1454.8,194.092 1449.76,196.638 1446.88,199.107 C1444,201.576 1442.56,204.56 1442.56,208.06 C1442.56,211.321 1443.36,213.748 1444.96,215.342 C1446.56,216.935 1448.28,217.732 1450.12,217.732 C1452.84,217.732 1455.76,216.816 1458.87,214.982 C1460.15,214.274 1461,213.521 1461.4,212.724 C1461.8,211.928 1462,210.612 1462,208.779 M1512.56,176.217 L1512.56,174.17 C1518.32,172.503 1523.92,170.623 1529.36,168.529 L1530.2,168.779 L1530.2,177.998 C1535.16,174.144 1538.84,171.602 1541.24,170.373 C1543.64,169.144 1546.16,168.529 1548.79,168.529 C1555.12,168.529 1559.36,171.967 1561.51,178.842 C1567.75,171.967 1574.27,168.529 1581.08,168.529 C1590.36,168.529 1595,175.706 1595,190.06 L1595,214.654 C1595,219.112 1596.72,221.461 1600.15,221.701 L1603.28,221.935 L1603.28,223.732 L1577,223.732 L1577,221.935 C1580.52,221.54 1582.72,220.862 1583.6,219.904 C1584.48,218.946 1584.92,216.758 1584.92,213.342 L1584.92,188.138 C1584.92,183.211 1584.28,179.792 1583,177.881 C1581.72,175.969 1579.36,175.013 1575.92,175.013 C1570.64,175.013 1566.28,177.441 1562.84,182.295 L1562.84,212.388 C1562.84,216.128 1563.42,218.633 1564.58,219.904 C1565.73,221.175 1568.03,221.852 1571.48,221.935 L1571.48,223.732 L1544.59,223.732 L1544.59,221.935 C1548.04,221.696 1550.26,221.058 1551.26,220.021 C1552.26,218.985 1552.76,216.795 1552.76,213.451 L1552.76,187.545 C1552.76,179.191 1550.12,175.013 1544.84,175.013 C1542.6,175.013 1540.1,175.571 1537.34,176.685 C1534.58,177.8 1532.36,179.592 1530.67,182.06 L1530.67,215.732 C1530.67,218.034 1531.23,219.605 1532.36,220.443 C1533.48,221.282 1535.64,221.779 1538.84,221.935 L1538.84,223.732 L1512.2,223.732 L1512.2,221.935 C1515.56,221.852 1517.79,221.253 1518.91,220.138 C1520.03,219.024 1520.59,216.836 1520.59,213.576 L1520.59,183.373 C1520.59,180.508 1520.29,178.519 1519.69,177.404 C1519.09,176.29 1518,175.732 1516.4,175.732 C1515.2,175.732 1513.91,175.894 1512.56,176.217 M1661.59,217.498 L1661.59,219.17 C1655.35,220.93 1649.87,222.81 1645.15,224.81 L1644.67,224.56 L1644.67,214.388 C1644.43,214.628 1643.73,215.344 1642.58,216.537 C1641.42,217.73 1640.6,218.555 1640.12,219.013 C1639.64,219.472 1638.82,220.178 1637.66,221.131 C1636.5,222.084 1635.48,222.769 1634.6,223.185 C1633.72,223.602 1632.6,223.998 1631.24,224.373 C1629.88,224.748 1628.52,224.935 1627.15,224.935 C1622.76,224.935 1619.24,223.498 1616.6,220.623 C1613.96,217.748 1612.64,213.92 1612.64,209.138 L1612.64,179.06 C1612.64,176.269 1612.12,174.336 1611.08,173.263 C1610.03,172.191 1608.08,171.576 1605.2,171.42 L1605.2,169.732 L1622.72,169.732 L1622.72,208.654 C1622.72,211.123 1623.56,213.253 1625.24,215.045 C1626.92,216.836 1628.92,217.732 1631.23,217.732 C1632.12,217.732 1633.16,217.612 1634.36,217.373 C1635.56,217.133 1636.94,216.675 1638.5,215.998 C1640.06,215.321 1641.38,214.248 1642.46,212.779 C1643.54,211.31 1644.08,209.498 1644.08,207.342 L1644.08,179.295 C1644.08,176.347 1643.54,174.396 1642.46,173.443 C1641.38,172.49 1638.96,171.935 1635.2,171.779 L1635.2,169.732 L1654.15,169.732 L1654.15,210.685 C1654.15,213.477 1654.59,215.31 1655.47,216.185 C1656.35,217.06 1658.2,217.498 1661,217.498 L1661.59,217.498 M1699.12,180.295 C1697.91,180.295 1696.43,179.594 1694.67,178.193 C1692.91,176.792 1691.75,176.092 1691.2,176.092 C1689.6,176.092 1687.79,177.253 1685.79,179.576 C1683.79,181.899 1682.79,184.019 1682.79,185.935 L1682.79,212.935 C1682.79,216.373 1683.47,218.691 1684.83,219.888 C1686.19,221.086 1688.91,221.769 1693,221.935 L1693,223.732 L1664.2,223.732 L1664.2,221.935 C1668.03,221.217 1670.41,220.417 1671.33,219.537 C1672.26,218.657 1672.72,216.696 1672.72,213.654 L1672.72,183.654 C1672.72,181.019 1672.42,179.159 1671.82,178.076 C1671.22,176.993 1670.16,176.451 1668.64,176.451 C1667.36,176.451 1665.96,176.612 1664.44,176.935 L1664.44,175.013 C1670.84,172.93 1676.76,170.769 1682.2,168.529 L1682.79,168.779 L1682.79,179.81 C1685.75,175.571 1688.27,172.631 1690.36,170.99 C1692.44,169.349 1694.72,168.529 1697.2,168.529 C1699.27,168.529 1700.89,169.089 1702.05,170.209 C1703.21,171.329 1703.79,172.888 1703.79,174.888 C1703.79,176.576 1703.38,177.899 1702.54,178.857 C1701.7,179.816 1700.56,180.295 1699.12,180.295 M1711.2,217.248 C1711.2,215.727 1711.74,214.329 1712.82,213.053 C1713.9,211.777 1716.91,208.816 1721.87,204.17 C1717.87,202.159 1715.01,199.909 1713.29,197.42 C1711.58,194.93 1710.72,191.8 1710.72,188.029 C1710.72,182.602 1712.66,177.995 1716.54,174.209 C1720.42,170.422 1725.16,168.529 1730.76,168.529 C1733.88,168.529 1737.22,169.191 1740.78,170.513 C1744.34,171.836 1747.28,172.498 1749.59,172.498 L1758.84,172.498 L1758.84,177.06 L1748.87,177.06 C1750.39,180.508 1751.15,183.883 1751.15,187.185 C1751.15,192.727 1749.29,197.224 1745.58,200.678 C1741.86,204.131 1737.48,205.857 1732.44,205.857 C1731.48,205.857 1729.2,205.654 1725.59,205.248 C1724,205.727 1722.4,206.808 1720.8,208.49 C1719.2,210.172 1718.4,211.612 1718.4,212.81 C1718.4,214.727 1721.52,215.805 1727.76,216.045 L1743.23,216.779 C1747.64,216.935 1751.16,218.172 1753.8,220.49 C1756.44,222.808 1757.76,225.847 1757.76,229.607 C1757.76,235.368 1754.46,240.188 1747.86,244.068 C1741.25,247.948 1734.15,249.888 1726.56,249.888 C1720.88,249.888 1716,248.748 1711.92,246.467 C1707.84,244.185 1705.79,241.446 1705.79,238.248 C1705.79,236.008 1706.7,233.79 1708.5,231.592 C1710.3,229.394 1713.32,226.732 1717.56,223.607 C1715.08,222.409 1713.4,221.37 1712.52,220.49 C1711.64,219.61 1711.2,218.529 1711.2,217.248 M1720.08,223.967 C1717.6,226.935 1716,229.058 1715.28,230.334 C1714.56,231.61 1714.2,232.93 1714.2,234.295 C1714.2,236.93 1715.8,239.047 1719,240.646 C1722.2,242.245 1726.44,243.045 1731.72,243.045 C1738.52,243.045 1744,241.967 1748.15,239.81 C1752.31,237.654 1754.39,234.857 1754.39,231.42 C1754.39,229.253 1753.27,227.73 1751.03,226.849 C1748.79,225.969 1744.95,225.529 1739.51,225.529 C1731.44,225.529 1724.96,225.008 1720.08,223.967 M1741.92,191.888 C1741.92,190.545 1741.76,188.928 1741.44,187.037 C1741.11,185.146 1740.55,182.998 1739.76,180.592 C1738.96,178.185 1737.68,176.175 1735.92,174.56 C1734.16,172.946 1732.04,172.138 1729.56,172.138 C1726.76,172.138 1724.58,173.107 1723.01,175.045 C1721.45,176.982 1720.67,179.659 1720.67,183.076 C1720.67,189.993 1721.95,195.019 1724.51,198.154 C1727.08,201.29 1729.88,202.857 1732.92,202.857 C1735.72,202.857 1737.92,201.873 1739.52,199.904 C1741.12,197.935 1741.92,195.263 1741.92,191.888 M1817.59,217.498 L1817.59,219.17 C1811.35,220.93 1805.87,222.81 1801.15,224.81 L1800.67,224.56 L1800.67,214.388 C1800.43,214.628 1799.73,215.344 1798.58,216.537 C1797.42,217.73 1796.6,218.555 1796.12,219.013 C1795.64,219.472 1794.82,220.178 1793.66,221.131 C1792.5,222.084 1791.48,222.769 1790.6,223.185 C1789.72,223.602 1788.6,223.998 1787.24,224.373 C1785.88,224.748 1784.52,224.935 1783.15,224.935 C1778.76,224.935 1775.24,223.498 1772.6,220.623 C1769.96,217.748 1768.64,213.92 1768.64,209.138 L1768.64,179.06 C1768.64,176.269 1768.12,174.336 1767.08,173.263 C1766.03,172.191 1764.08,171.576 1761.2,171.42 L1761.2,169.732 L1778.72,169.732 L1778.72,208.654 C1778.72,211.123 1779.56,213.253 1781.24,215.045 C1782.92,216.836 1784.92,217.732 1787.23,217.732 C1788.12,217.732 1789.16,217.612 1790.36,217.373 C1791.56,217.133 1792.94,216.675 1794.5,215.998 C1796.06,215.321 1797.38,214.248 1798.46,212.779 C1799.54,211.31 1800.08,209.498 1800.08,207.342 L1800.08,179.295 C1800.08,176.347 1799.54,174.396 1798.46,173.443 C1797.38,172.49 1794.96,171.935 1791.2,171.779 L1791.2,169.732 L1810.15,169.732 L1810.15,210.685 C1810.15,213.477 1810.59,215.31 1811.47,216.185 C1812.35,217.06 1814.2,217.498 1817,217.498 L1817.59,217.498 M1820.2,148.982 L1820.2,147.06 C1828.12,145.133 1834.48,143.373 1839.28,141.779 L1839.76,142.013 L1839.76,213.654 C1839.76,216.935 1840.3,219.076 1841.38,220.076 C1842.46,221.076 1844.92,221.696 1848.76,221.935 L1848.76,223.732 L1820.44,223.732 L1820.44,221.935 C1824.2,221.612 1826.67,220.891 1827.87,219.771 C1829.07,218.652 1829.67,216.493 1829.67,213.295 L1829.67,156.06 C1829.67,153.258 1829.31,151.336 1828.59,150.295 C1827.87,149.253 1826.56,148.732 1824.64,148.732 C1823.03,148.732 1821.56,148.816 1820.2,148.982 M1899.2,142.013 L1899.2,178.748 C1900.4,175.79 1902.56,173.347 1905.68,171.42 C1908.8,169.493 1912.2,168.529 1915.87,168.529 C1921.87,168.529 1926.89,171.04 1930.94,176.06 C1934.98,181.081 1937,187.284 1937,194.67 C1937,203.201 1934.3,210.378 1928.9,216.201 C1923.5,222.024 1916.84,224.935 1908.92,224.935 C1904.12,224.935 1899.62,224.138 1895.42,222.545 C1891.22,220.951 1889.12,219.258 1889.12,217.467 L1889.12,154.982 C1889.12,152.493 1888.74,150.849 1887.98,150.053 C1887.22,149.256 1885.64,148.857 1883.23,148.857 C1882.36,148.857 1881.68,148.899 1881.2,148.982 L1881.2,147.06 C1887.36,145.54 1893.15,143.779 1898.59,141.779 L1899.2,142.013 M1899.2,185.138 L1899.2,215.545 C1899.2,217.066 1900.36,218.409 1902.68,219.576 C1905,220.743 1907.72,221.326 1910.84,221.326 C1915.8,221.326 1919.64,219.477 1922.36,215.779 C1925.08,212.081 1926.44,206.894 1926.44,200.217 C1926.44,192.904 1925.06,187.055 1922.29,182.67 C1919.53,178.284 1915.79,176.092 1911.08,176.092 C1907.96,176.092 1905.2,177.016 1902.8,178.865 C1900.4,180.714 1899.2,182.805 1899.2,185.138 M1943,211.888 C1943,210.451 1943.16,209.115 1943.47,207.881 C1943.79,206.646 1944.35,205.493 1945.15,204.42 C1945.96,203.347 1946.72,202.373 1947.44,201.498 C1948.15,200.623 1949.23,199.727 1950.68,198.81 C1952.12,197.894 1953.32,197.138 1954.28,196.545 C1955.24,195.951 1956.7,195.235 1958.65,194.396 C1960.61,193.558 1962.11,192.92 1963.15,192.482 C1964.2,192.045 1965.84,191.388 1968.08,190.513 C1970.32,189.638 1971.96,189.003 1973,188.607 L1973,181.326 C1973,174.722 1969.96,171.42 1963.87,171.42 C1961.48,171.42 1959.44,171.998 1957.76,173.154 C1956.07,174.31 1955.23,175.691 1955.23,177.295 C1955.23,177.93 1955.33,178.808 1955.54,179.928 C1955.74,181.047 1955.84,181.769 1955.84,182.092 C1955.84,183.456 1955.3,184.638 1954.22,185.638 C1953.13,186.638 1951.87,187.138 1950.44,187.138 C1949.08,187.138 1947.88,186.618 1946.84,185.576 C1945.8,184.534 1945.28,183.331 1945.28,181.967 C1945.28,178.217 1947.22,175.04 1951.1,172.435 C1954.98,169.831 1959.76,168.529 1965.44,168.529 C1972,168.529 1976.52,170.102 1979,173.248 C1981.48,176.394 1982.72,181.196 1982.72,187.654 L1982.72,210.935 C1982.72,213.56 1982.98,215.37 1983.5,216.365 C1984.02,217.36 1984.96,217.857 1986.31,217.857 C1988,217.857 1989.76,217.102 1991.59,215.592 L1991.59,218.732 C1989.52,221.128 1987.7,222.761 1986.14,223.631 C1984.58,224.5 1982.79,224.935 1980.79,224.935 C1978.32,224.935 1976.5,224.237 1975.33,222.842 C1974.17,221.446 1973.44,219.144 1973.12,215.935 C1966.24,221.935 1960.39,224.935 1955.59,224.935 C1951.91,224.935 1948.9,223.714 1946.54,221.271 C1944.18,218.829 1943,215.701 1943,211.888 M1973,208.779 L1973,191.467 C1965.8,194.092 1960.76,196.638 1957.88,199.107 C1955,201.576 1953.56,204.56 1953.56,208.06 C1953.56,211.321 1954.36,213.748 1955.96,215.342 C1957.56,216.935 1959.28,217.732 1961.12,217.732 C1963.84,217.732 1966.76,216.816 1969.87,214.982 C1971.15,214.274 1972,213.521 1972.4,212.724 C1972.8,211.928 1973,210.612 1973,208.779 M2023.08,169.732 L2023.08,173.342 L2010.95,173.342 L2010.95,207.654 C2010.95,211.415 2011.43,214.154 2012.4,215.873 C2013.36,217.592 2014.96,218.451 2017.2,218.451 C2019.68,218.451 2022.08,217.05 2024.4,214.248 L2025.95,215.576 C2022.12,221.816 2017.32,224.935 2011.56,224.935 C2004.44,224.935 2000.87,219.831 2000.87,209.623 L2000.87,173.342 L1994.51,173.342 C1994.2,173.112 1994.04,172.847 1994.04,172.545 C1994.04,172.17 1994.16,171.87 1994.4,171.646 C1994.64,171.422 1995.1,171.105 1995.78,170.693 C1996.46,170.282 1997.28,169.691 1998.24,168.92 C1999.2,168.149 2000.52,166.75 2002.2,164.724 C2003.88,162.698 2005.72,160.263 2007.72,157.42 C2009,155.555 2009.8,154.42 2010.12,154.013 C2010.67,154.013 2010.95,154.54 2010.95,155.592 L2010.95,169.732 L2023.08,169.732 M2037.64,190.498 C2037.79,195.54 2038.47,199.878 2039.68,203.513 C2040.88,207.149 2042.44,209.868 2044.36,211.67 C2046.27,213.472 2048.21,214.753 2050.18,215.513 C2052.14,216.274 2054.2,216.654 2056.36,216.654 C2060.2,216.654 2063.54,215.693 2066.38,213.771 C2069.22,211.849 2072.08,208.612 2074.95,204.06 L2076.87,204.888 C2074.39,211.368 2070.95,216.329 2066.55,219.771 C2062.15,223.214 2057.11,224.935 2051.44,224.935 C2044.56,224.935 2039.1,222.516 2035.06,217.678 C2031.02,212.839 2029,206.3 2029,198.06 C2029,189.175 2031.34,182.032 2036.02,176.631 C2040.7,171.23 2046.72,168.529 2054.08,168.529 C2060.16,168.529 2064.88,170.349 2068.24,173.99 C2071.6,177.631 2073.72,183.133 2074.59,190.498 L2037.64,190.498 M2037.87,186.888 L2062.36,186.888 C2061.56,181.691 2060.32,178.092 2058.64,176.092 C2056.96,174.092 2054.28,173.092 2050.59,173.092 C2043.39,173.092 2039.15,177.691 2037.87,186.888"/>
<path class="MeasureNumber" d="M151.107,982.498 L151.107,985.061 L147.029,985.061 L147.029,991.733 L143.951,991.733 L143.951,985.061 L132.717,985.061 L132.717,982.498 L145.263,964.702 L147.029,964.702 L147.029,982.498 L151.107,982.498 M143.904,982.498 L143.904,968.78 L134.31,982.498 L143.904,982.498 "/>
<polyline class="BarLine" fill="none" stroke="#000000" stroke-width="4.00" stroke-linejoin="bevel" points="2895.77,1040.73 2895.77,1142.73"/>
<polyline class="BarLine" fill="none" stroke="#000000" stroke-width="12.50" stroke-linejoin="bevel" points="2912.02,1040.73 2912.02,1142.73"/>
<polyline class="BarLine" fill="none" stroke="#000000" stroke-width="4.00" stroke-linejoin="bevel" points="2507.08,1040.73 2507.08,1142.73"/>
<polyline class="BarLine" fill="none" stroke="#000000" stroke-width="4.00" stroke-linejoin="bevel" points="2079.7,1040.73 2079.7,1142.73"/>
<polyline class="BarLine" fill="none" stroke="#000000" stroke-width="4.00" stroke-linejoin="bevel" points="1652.33,1040.73 1652.33,1142.73"/>
<polyline class="BarLine" fill="none" stroke="#000000" stroke-width="4.00" stroke-linejoin="bevel" points="1224.96,1040.73 1224.96,1142.73"/>
<polyline class="BarLine" fill="none" stroke="#000000" stroke-width="4.00" stroke-linejoin="bevel" points="797.582,1040.73 797.582,1142.73"/>
<polyline class="BarLine" fill="none" stroke="#000000" stroke-width="4.00" stroke-linejoin="bevel" points="2916.27,565.733 2916.27,667.733"/>
<polyline class="BarLine" fill="none" stroke="#000000" stroke-width="4.00" stroke-linejoin="bevel" points="2088.78,565.733 2088.78,667.733"/>
<polyline class="BarLine" fill="none" stroke="#000000" stroke-width="4.00" stroke-linejoin="bevel" points="1222.61,565.733 1222.61,667.733"/>
<polyline class="LedgerLine" fill="none" stroke="#000000" stroke-width="4.00" stroke-linecap="square" stroke-linejoin="bevel" points="562.896,1016.73 610.81,1016.73"/>
<polyline class="LedgerLine" fill="none" stroke="#000000" stroke-width="4.00" stroke-linecap="square" stroke-linejoin="bevel" points="450.302,1016.73 498.216,1016.73"/>
<polyline class="LedgerLine" fill="none" stroke="#000000" stroke-width="4.00" stroke-linecap="square" stroke-linejoin="bevel" points="337.709,1016.73 385.623,1016.73"/>
<polyline class="Stem" fill="none" stroke="#000000" stroke-width="3.25" stroke-linecap="round" stroke-linejoin="bevel" points="2540.7,1046.43 2540.7,1129.23"/>
<polyline class="Stem" fill="none" stroke="#000000" stroke-width="3.25" stroke-linecap="round" stroke-linejoin="bevel" points="2408.36,1058.93 2408.36,1141.73"/>
<polyline class="Stem" fill="none" stroke="#000000" stroke-width="3.25" stroke-linecap="round" stroke-linejoin="bevel" points="2310.01,1071.43 2310.01,1151.11"/>
<polyline class="Stem" fill="none" stroke="#000000" stroke-width="3.25" stroke-linecap="round" stroke-linejoin="bevel" points="2211.67,1058.93 2211.67,1141.73"/>
<polyline class="Stem" fill="none" stroke="#000000" stroke-width="3.25" stroke-linecap="round" stroke-linejoin="bevel" points="2113.33,1046.43 2113.33,1129.23"/>
<polyline class="Stem" fill="none" stroke="#000000" stroke-width="3.25" stroke-linecap="round" stroke-linejoin="bevel" points="1980.98,1033.93 1980.98,1116.73"/>
<polyline class="Stem" fill="none" stroke="#000000" stroke-width="3.25" stroke-linecap="round" stroke-linejoin="bevel" points="1882.64,1058.93 1882.64,1141.73"/>
<polyline class="Stem" fill="none" stroke="#000000" stroke-width="3.25" stroke-linecap="round" stroke-linejoin="bevel" points="1784.3,1058.93 1784.3,1141.73"/>
<polyline class="Stem" fill="none" stroke="#000000" stroke-width="3.25" stroke-linecap="round" stroke-linejoin="bevel" points="1685.95,1058.93 1685.95,1141.73"/>
<polyline class="Stem" fill="none" stroke="#000000" stroke-width="3.25" stroke-linecap="round" stroke-linejoin="bevel" points="1553.61,1071.43 1553.61,1151.11"/>
<polyline class="Stem" fill="none" stroke="#000000" stroke-width="3.25" stroke-linecap="round" stroke-linejoin="bevel" points="1455.27,1058.93 1455.27,1141.73"/>
<polyline class="Stem" fill="none" stroke="#000000" stroke-width="3.25" stroke-linecap="round" stroke-linejoin="bevel" points="1356.92,1046.43 1356.92,1129.23"/>
<polyline class="Stem" fill="none" stroke="#000000" stroke-width="3.25" stroke-linecap="round" stroke-linejoin="bevel" points="1258.58,1033.93 1258.58,1116.73"/>
<polyline class="Stem" fill="none" stroke="#000000" stroke-width="3.25" stroke-linecap="round" stroke-linejoin="bevel" points="1126.24,1033.93 1126.24,1116.73"/>
<polyline class="Stem" fill="none" stroke="#000000" stroke-width="3.25" stroke-linecap="round" stroke-linejoin="bevel" points="1027.89,1033.93 1027.89,1116.73"/>
<polyline class="Stem" fill="none" stroke="#000000" stroke-width="3.25" stroke-linecap="round" stroke-linejoin="bevel" points="929.551,1033.93 929.551,1116.73"/>
<polyline class="Stem" fill="none" stroke="#000000" stroke-width="3.25" stroke-linecap="round" stroke-linejoin="bevel" points="831.207,1046.43 831.207,1129.23"/>
<polyline class="Stem" fill="none" stroke="#000000" stroke-width="3.25" stroke-linecap="round" stroke-linejoin="bevel" points="684.614,1033.93 684.614,1116.73"/>
<polyline class="Stem" fill="none" stroke="#000000" stroke-width="3.25" stroke-linecap="round" stroke-linejoin="bevel" points="572.021,1021.43 572.021,1104.23"/>
<polyline class="Stem" fill="none" stroke="#000000" stroke-width="3.25" stroke-linecap="round" stroke-linejoin="bevel" points="459.427,1008.93 459.427,1091.73"/>
<polyline class="Stem" fill="none" stroke="#000000" stroke-width="3.25" stroke-linecap="round" stroke-linejoin="bevel" points="346.834,1021.43 346.834,1104.23"/>
<polyline class="Stem" fill="none" stroke="#000000" stroke-width="3.25" stroke-linecap="round" stroke-linejoin="bevel" points="2122.41,596.428 2122.41,676.108"/>
<polyline class="Stem" fill="none" stroke="#000000" stroke-width="3.25" stroke-linecap="round" stroke-linejoin="bevel" points="1880.36,583.928 1880.36,666.733"/>
<polyline class="Stem" fill="none" stroke="#000000" stroke-width="3.25" stroke-linecap="round" stroke-linejoin="bevel" points="1672.32,583.928 1672.32,666.733"/>
<polyline class="Stem" fill="none" stroke="#000000" stroke-width="3.25" stroke-linecap="round" stroke-linejoin="bevel" points="1464.28,571.428 1464.28,654.233"/>
<polyline class="Stem" fill="none" stroke="#000000" stroke-width="3.25" stroke-linecap="round" stroke-linejoin="bevel" points="1256.24,583.928 1256.24,666.733"/>
<polyline class="Stem" fill="none" stroke="#000000" stroke-width="3.25" stroke-linecap="round" stroke-linejoin="bevel" points="1014.19,596.428 1014.19,676.108"/>
<polyline class="Stem" fill="none" stroke="#000000" stroke-width="3.25" stroke-linecap="round" stroke-linejoin="bevel" points="806.153,596.428 806.153,676.108"/>
<polyline class="Stem" fill="none" stroke="#000000" stroke-width="3.25" stroke-linecap="round" stroke-linejoin="bevel" points="598.11,596.428 598.11,676.108"/>
<polyline class="Stem" fill="none" stroke="#000000" stroke-width="3.25" stroke-linecap="round" stroke-linejoin="bevel" points="419.732,624.537 419.732,547.983"/>
<path class="Note" d="M2561.04,1027.97 C2564.17,1027.97 2566.81,1028.78 2568.97,1030.4 C2570.98,1032.17 2571.98,1034.38 2571.98,1037.05 C2571.98,1041.53 2569.67,1045.73 2565.06,1049.64 C2560.37,1053.55 2555.36,1055.5 2550.01,1055.5 C2546.89,1055.5 2544.25,1054.69 2542.11,1053.06 C2540.09,1051.3 2539.08,1049.09 2539.08,1046.42 C2539.08,1041.93 2541.42,1037.73 2546.11,1033.83 C2550.67,1029.92 2555.65,1027.97 2561.04,1027.97"/>
<path class="Note" d="M2428.7,1040.47 C2431.83,1040.47 2434.47,1041.28 2436.62,1042.9 C2438.63,1044.67 2439.64,1046.88 2439.64,1049.55 C2439.64,1054.03 2437.33,1058.23 2432.72,1062.14 C2428.03,1066.05 2423.01,1068 2417.67,1068 C2414.54,1068 2411.91,1067.19 2409.76,1065.56 C2407.74,1063.8 2406.73,1061.59 2406.73,1058.92 C2406.73,1054.43 2409.08,1050.23 2413.76,1046.33 C2418.33,1042.42 2423.31,1040.47 2428.7,1040.47"/>
<path class="Note" d="M2330.36,1052.97 C2333.48,1052.97 2336.12,1053.78 2338.28,1055.4 C2340.29,1057.17 2341.3,1059.38 2341.3,1062.05 C2341.3,1066.53 2338.99,1070.73 2334.37,1074.64 C2329.69,1078.55 2324.67,1080.5 2319.33,1080.5 C2316.2,1080.5 2313.57,1079.69 2311.42,1078.06 C2309.4,1076.3 2308.39,1074.09 2308.39,1071.42 C2308.39,1066.93 2310.73,1062.73 2315.42,1058.83 C2319.98,1054.92 2324.96,1052.97 2330.36,1052.97"/>
<path class="Note" d="M2232.01,1040.47 C2235.14,1040.47 2237.78,1041.28 2239.94,1042.9 C2241.95,1044.67 2242.95,1046.88 2242.95,1049.55 C2242.95,1054.03 2240.64,1058.23 2236.03,1062.14 C2231.34,1066.05 2226.33,1068 2220.98,1068 C2217.86,1068 2215.22,1067.19 2213.08,1065.56 C2211.06,1063.8 2210.05,1061.59 2210.05,1058.92 C2210.05,1054.43 2212.39,1050.23 2217.08,1046.33 C2221.64,1042.42 2226.62,1040.47 2232.01,1040.47"/>
<path class="Note" d="M2133.67,1027.97 C2136.8,1027.97 2139.44,1028.78 2141.59,1030.4 C2143.6,1032.17 2144.61,1034.38 2144.61,1037.05 C2144.61,1041.53 2142.3,1045.73 2137.69,1049.64 C2133,1053.55 2127.98,1055.5 2122.64,1055.5 C2119.51,1055.5 2116.88,1054.69 2114.73,1053.06 C2112.71,1051.3 2111.7,1049.09 2111.7,1046.42 C2111.7,1041.93 2114.05,1037.73 2118.73,1033.83 C2123.3,1029.92 2128.28,1027.97 2133.67,1027.97"/>
<path class="Note" d="M2001.33,1015.47 C2004.45,1015.47 2007.09,1016.28 2009.25,1017.9 C2011.26,1019.67 2012.27,1021.88 2012.27,1024.55 C2012.27,1029.03 2009.96,1033.23 2005.34,1037.14 C2000.66,1041.05 1995.64,1043 1990.3,1043 C1987.17,1043 1984.54,1042.19 1982.39,1040.56 C1980.37,1038.8 1979.36,1036.59 1979.36,1033.92 C1979.36,1029.43 1981.7,1025.23 1986.39,1021.33 C1990.95,1017.42 1995.93,1015.47 2001.33,1015.47"/>
<path class="Note" d="M1902.98,1040.47 C1906.11,1040.47 1908.75,1041.28 1910.91,1042.9 C1912.92,1044.67 1913.92,1046.88 1913.92,1049.55 C1913.92,1054.03 1911.61,1058.23 1907,1062.14 C1902.31,1066.05 1897.3,1068 1891.95,1068 C1888.83,1068 1886.19,1067.19 1884.05,1065.56 C1882.03,1063.8 1881.02,1061.59 1881.02,1058.92 C1881.02,1054.43 1883.36,1050.23 1888.05,1046.33 C1892.61,1042.42 1897.59,1040.47 1902.98,1040.47"/>
<path class="Note" d="M1804.64,1040.47 C1807.77,1040.47 1810.41,1041.28 1812.56,1042.9 C1814.57,1044.67 1815.58,1046.88 1815.58,1049.55 C1815.58,1054.03 1813.27,1058.23 1808.66,1062.14 C1803.97,1066.05 1798.95,1068 1793.61,1068 C1790.48,1068 1787.85,1067.19 1785.7,1065.56 C1783.68,1063.8 1782.67,1061.59 1782.67,1058.92 C1782.67,1054.43 1785.02,1050.23 1789.7,1046.33 C1794.27,1042.42 1799.25,1040.47 1804.64,1040.47"/>
<path class="Note" d="M1706.3,1040.47 C1709.42,1040.47 1712.06,1041.28 1714.22,1042.9 C1716.23,1044.67 1717.24,1046.88 1717.24,1049.55 C1717.24,1054.03 1714.93,1058.23 1710.31,1062.14 C1705.63,1066.05 1700.61,1068 1695.27,1068 C1692.14,1068 1689.51,1067.19 1687.36,1065.56 C1685.34,1063.8 1684.33,1061.59 1684.33,1058.92 C1684.33,1054.43 1686.67,1050.23 1691.36,1046.33 C1695.92,1042.42 1700.9,1040.47 1706.3,1040.47"/>
<path class="Note" d="M1573.95,1052.97 C1577.08,1052.97 1579.72,1053.78 1581.88,1055.4 C1583.89,1057.17 1584.89,1059.38 1584.89,1062.05 C1584.89,1066.53 1582.58,1070.73 1577.97,1074.64 C1573.28,1078.55 1568.27,1080.5 1562.92,1080.5 C1559.8,1080.5 1557.16,1079.69 1555.02,1078.06 C1553,1076.3 1551.99,1074.09 1551.99,1071.42 C1551.99,1066.93 1554.33,1062.73 1559.02,1058.83 C1563.58,1054.92 1568.56,1052.97 1573.95,1052.97"/>
<path class="Note" d="M1475.61,1040.47 C1478.74,1040.47 1481.38,1041.28 1483.53,1042.9 C1485.54,1044.67 1486.55,1046.88 1486.55,1049.55 C1486.55,1054.03 1484.24,1058.23 1479.63,1062.14 C1474.94,1066.05 1469.92,1068 1464.58,1068 C1461.45,1068 1458.82,1067.19 1456.67,1065.56 C1454.65,1063.8 1453.64,1061.59 1453.64,1058.92 C1453.64,1054.43 1455.99,1050.23 1460.67,1046.33 C1465.24,1042.42 1470.22,1040.47 1475.61,1040.47"/>
<path class="Note" d="M1377.27,1027.97 C1380.39,1027.97 1383.03,1028.78 1385.19,1030.4 C1387.2,1032.17 1388.21,1034.38 1388.21,1037.05 C1388.21,1041.53 1385.9,1045.73 1381.28,1049.64 C1376.6,1053.55 1371.58,1055.5 1366.24,1055.5 C1363.11,1055.5 1360.48,1054.69 1358.33,1053.06 C1356.31,1051.3 1355.3,1049.09 1355.3,1046.42 C1355.3,1041.93 1357.64,1037.73 1362.33,1033.83 C1366.89,1029.92 1371.87,1027.97 1377.27,1027.97"/>
<path class="Note" d="M1278.92,1015.47 C1282.05,1015.47 1284.69,1016.28 1286.85,1017.9 C1288.86,1019.67 1289.86,1021.88 1289.86,1024.55 C1289.86,1029.03 1287.55,1033.23 1282.94,1037.14 C1278.25,1041.05 1273.24,1043 1267.89,1043 C1264.77,1043 1262.13,1042.19 1259.99,1040.56 C1257.97,1038.8 1256.96,1036.59 1256.96,1033.92 C1256.96,1029.43 1259.3,1025.23 1263.99,1021.33 C1268.55,1017.42 1273.53,1015.47 1278.92,1015.47"/>
<path class="Note" d="M1146.58,1015.47 C1149.71,1015.47 1152.35,1016.28 1154.5,1017.9 C1156.51,1019.67 1157.52,1021.88 1157.52,1024.55 C1157.52,1029.03 1155.21,1033.23 1150.6,1037.14 C1145.91,1041.05 1140.89,1043 1135.55,1043 C1132.42,1043 1129.79,1042.19 1127.64,1040.56 C1125.62,1038.8 1124.61,1036.59 1124.61,1033.92 C1124.61,1029.43 1126.96,1025.23 1131.64,1021.33 C1136.21,1017.42 1141.19,1015.47 1146.58,1015.47"/>
<path class="Note" d="M1048.24,1015.47 C1051.36,1015.47 1054,1016.28 1056.16,1017.9 C1058.17,1019.67 1059.18,1021.88 1059.18,1024.55 C1059.18,1029.03 1056.87,1033.23 1052.25,1037.14 C1047.57,1041.05 1042.55,1043 1037.21,1043 C1034.08,1043 1031.45,1042.19 1029.3,1040.56 C1027.28,1038.8 1026.27,1036.59 1026.27,1033.92 C1026.27,1029.43 1028.61,1025.23 1033.3,1021.33 C1037.86,1017.42 1042.84,1015.47 1048.24,1015.47"/>
<path class="Note" d="M949.894,1015.47 C953.019,1015.47 955.66,1016.28 957.816,1017.9 C959.827,1019.67 960.832,1021.88 960.832,1024.55 C960.832,1029.03 958.525,1033.23 953.91,1037.14 C949.223,1041.05 944.207,1043 938.863,1043 C935.738,1043 933.103,1042.19 930.957,1040.56 C928.936,1038.8 927.926,1036.59 927.926,1033.92 C927.926,1029.43 930.269,1025.23 934.957,1021.33 C939.519,1017.42 944.499,1015.47 949.894,1015.47"/>
<path class="Note" d="M851.551,1027.97 C854.676,1027.97 857.317,1028.78 859.473,1030.4 C861.483,1032.17 862.489,1034.38 862.489,1037.05 C862.489,1041.53 860.181,1045.73 855.567,1049.64 C850.879,1053.55 845.864,1055.5 840.52,1055.5 C837.395,1055.5 834.759,1054.69 832.614,1053.06 C830.593,1051.3 829.582,1049.09 829.582,1046.42 C829.582,1041.93 831.926,1037.73 836.614,1033.83 C841.176,1029.92 846.155,1027.97 851.551,1027.97"/>
<path class="Note" d="M704.958,1015.47 C708.083,1015.47 710.723,1016.28 712.88,1017.9 C714.89,1019.67 715.895,1021.88 715.895,1024.55 C715.895,1029.03 713.588,1033.23 708.973,1037.14 C704.286,1041.05 699.27,1043 693.926,1043 C690.801,1043 688.166,1042.19 686.02,1040.56 C683.999,1038.8 682.989,1036.59 682.989,1033.92 C682.989,1029.43 685.333,1025.23 690.02,1021.33 C694.583,1017.42 699.562,1015.47 704.958,1015.47"/>
<path class="Note" d="M592.364,1002.97 C595.489,1002.97 598.13,1003.78 600.286,1005.4 C602.297,1007.17 603.302,1009.38 603.302,1012.05 C603.302,1016.53 600.995,1020.73 596.38,1024.64 C591.692,1028.55 586.677,1030.5 581.333,1030.5 C578.208,1030.5 575.573,1029.69 573.427,1028.06 C571.406,1026.3 570.396,1024.09 570.396,1021.42 C570.396,1016.93 572.739,1012.73 577.427,1008.83 C581.989,1004.92 586.969,1002.97 592.364,1002.97"/>
<path class="Note" d="M479.771,990.467 C482.896,990.467 485.537,991.28 487.693,992.905 C489.703,994.665 490.709,996.879 490.709,999.545 C490.709,1004.03 488.401,1008.23 483.787,1012.14 C479.099,1016.05 474.084,1018 468.74,1018 C465.615,1018 462.979,1017.19 460.834,1015.56 C458.813,1013.8 457.802,1011.59 457.802,1008.92 C457.802,1004.43 460.146,1000.23 464.834,996.327 C469.396,992.42 474.375,990.467 479.771,990.467"/>
<path class="Note" d="M367.178,1002.97 C370.303,1002.97 372.943,1003.78 375.1,1005.4 C377.11,1007.17 378.115,1009.38 378.115,1012.05 C378.115,1016.53 375.808,1020.73 371.193,1024.64 C366.506,1028.55 361.49,1030.5 356.146,1030.5 C353.021,1030.5 350.386,1029.69 348.24,1028.06 C346.219,1026.3 345.209,1024.09 345.209,1021.42 C345.209,1016.93 347.553,1012.73 352.24,1008.83 C356.803,1004.92 361.782,1002.97 367.178,1002.97"/>
<path class="Note" d="M2142.75,577.967 C2145.87,577.967 2148.51,578.779 2150.67,580.404 C2152.68,582.165 2153.69,584.378 2153.69,587.045 C2153.69,591.535 2151.38,595.733 2146.76,599.639 C2142.08,603.545 2137.06,605.498 2131.72,605.498 C2128.59,605.498 2125.96,604.686 2123.81,603.061 C2121.79,601.3 2120.78,599.087 2120.78,596.42 C2120.78,591.93 2123.12,587.733 2127.81,583.826 C2132.37,579.92 2137.35,577.967 2142.75,577.967"/>
<path class="Note" d="M1900.71,565.467 C1903.83,565.467 1906.47,566.279 1908.63,567.904 C1910.64,569.665 1911.64,571.878 1911.64,574.545 C1911.64,579.035 1909.34,583.233 1904.72,587.139 C1900.04,591.045 1895.02,592.998 1889.68,592.998 C1886.55,592.998 1883.92,592.186 1881.77,590.561 C1879.75,588.8 1878.74,586.587 1878.74,583.92 C1878.74,579.43 1881.08,575.233 1885.77,571.326 C1890.33,567.42 1895.31,565.467 1900.71,565.467"/>
<path class="Note" d="M1692.66,565.467 C1695.79,565.467 1698.43,566.279 1700.59,567.904 C1702.6,569.665 1703.6,571.878 1703.6,574.545 C1703.6,579.035 1701.3,583.233 1696.68,587.139 C1691.99,591.045 1686.98,592.998 1681.63,592.998 C1678.51,592.998 1675.87,592.186 1673.73,590.561 C1671.71,588.8 1670.7,586.587 1670.7,583.92 C1670.7,579.43 1673.04,575.233 1677.73,571.326 C1682.29,567.42 1687.27,565.467 1692.66,565.467"/>
<path class="Note" d="M1484.62,552.967 C1487.75,552.967 1490.39,553.779 1492.54,555.404 C1494.56,557.165 1495.56,559.378 1495.56,562.045 C1495.56,566.535 1493.25,570.733 1488.64,574.639 C1483.95,578.545 1478.94,580.498 1473.59,580.498 C1470.47,580.498 1467.83,579.686 1465.69,578.061 C1463.66,576.3 1462.65,574.087 1462.65,571.42 C1462.65,566.93 1465,562.733 1469.69,558.826 C1474.25,554.92 1479.23,552.967 1484.62,552.967"/>
<path class="Note" d="M1276.58,565.467 C1279.71,565.467 1282.35,566.279 1284.5,567.904 C1286.51,569.665 1287.52,571.878 1287.52,574.545 C1287.52,579.035 1285.21,583.233 1280.6,587.139 C1275.91,591.045 1270.89,592.998 1265.55,592.998 C1262.42,592.998 1259.79,592.186 1257.64,590.561 C1255.62,588.8 1254.61,586.587 1254.61,583.92 C1254.61,579.43 1256.96,575.233 1261.64,571.326 C1266.21,567.42 1271.18,565.467 1276.58,565.467"/>
<path class="Note" d="M1034.54,577.967 C1037.66,577.967 1040.3,578.779 1042.46,580.404 C1044.47,582.165 1045.48,584.378 1045.48,587.045 C1045.48,591.535 1043.17,595.733 1038.55,599.639 C1033.87,603.545 1028.85,605.498 1023.51,605.498 C1020.38,605.498 1017.75,604.686 1015.6,603.061 C1013.58,601.3 1012.57,599.087 1012.57,596.42 C1012.57,591.93 1014.91,587.733 1019.6,583.826 C1024.16,579.92 1029.14,577.967 1034.54,577.967"/>
<path class="Note" d="M826.496,577.967 C829.621,577.967 832.262,578.779 834.418,580.404 C836.429,582.165 837.434,584.378 837.434,587.045 C837.434,591.535 835.127,595.733 830.512,599.639 C825.824,603.545 820.809,605.498 815.465,605.498 C812.34,605.498 809.705,604.686 807.559,603.061 C805.538,601.3 804.528,599.087 804.528,596.42 C804.528,591.93 806.871,587.733 811.559,583.826 C816.121,579.92 821.101,577.967 826.496,577.967"/>
<path class="Note" d="M618.454,577.967 C621.579,577.967 624.22,578.779 626.376,580.404 C628.387,582.165 629.392,584.378 629.392,587.045 C629.392,591.535 627.084,595.733 622.47,599.639 C617.782,603.545 612.767,605.498 607.423,605.498 C604.298,605.498 601.663,604.686 599.517,603.061 C597.496,601.3 596.485,599.087 596.485,596.42 C596.485,591.93 598.829,587.733 603.517,583.826 C608.079,579.92 613.058,577.967 618.454,577.967"/>
<path class="Note" d="M410.412,615.467 C413.537,615.467 416.178,616.279 418.334,617.904 C420.344,619.665 421.35,621.878 421.35,624.545 C421.35,629.035 419.042,633.233 414.428,637.139 C409.74,641.045 404.725,642.998 399.381,642.998 C396.256,642.998 393.62,642.186 391.475,640.561 C389.454,638.8 388.443,636.587 388.443,633.92 C388.443,629.43 390.787,625.233 395.475,621.326 C400.037,617.42 405.016,615.467 410.412,615.467"/>
<path class="Clef" d="M194.451,1091.14 C194.451,1091.14 194.649,1091.14 195.045,1091.14 C195.305,1091.08 195.529,1091.05 195.717,1091.05 C203.008,1091.05 208.998,1093.62 213.685,1098.76 C218.373,1103.84 220.717,1109.76 220.717,1116.53 C220.717,1124.94 217.237,1131.77 210.279,1137.05 C208.456,1138.48 206.076,1139.65 203.139,1140.56 C203.472,1144.79 203.639,1148.21 203.639,1150.81 C203.639,1151.33 203.571,1153.22 203.435,1156.48 C203.175,1162.53 201.092,1167.77 197.185,1172.2 C193.415,1176.57 188.727,1178.75 183.123,1178.75 C177.852,1178.75 173.362,1176.89 169.654,1173.19 C165.935,1169.4 164.076,1164.85 164.076,1159.51 C164.076,1156.71 165.154,1154.33 167.31,1152.37 C169.519,1150.43 172.086,1149.45 175.014,1149.45 C177.618,1149.45 179.8,1150.46 181.56,1152.48 C183.383,1154.37 184.295,1156.71 184.295,1159.51 C184.295,1162.05 183.383,1164.22 181.56,1166.05 C179.737,1167.87 177.555,1168.78 175.014,1168.78 C173.972,1168.78 172.967,1168.59 171.998,1168.2 C174.862,1172.43 178.67,1174.55 183.42,1174.55 C187.909,1174.55 191.586,1172.72 194.451,1169.08 C197.451,1165.31 199.081,1160.91 199.342,1155.89 C199.467,1152.76 199.529,1150.98 199.529,1150.53 C199.529,1146.88 199.399,1143.89 199.139,1141.55 C195.889,1142.07 192.993,1142.33 190.451,1142.33 C181.399,1142.33 173.685,1138.74 167.31,1131.58 C161.06,1124.35 157.935,1115.75 157.935,1105.8 C157.935,1103.71 158.128,1101.6 158.514,1099.45 C158.909,1097.69 159.399,1095.77 159.982,1093.69 C160.305,1092.51 161.185,1090.62 162.623,1088.01 C163.144,1087.23 163.73,1086.26 164.381,1085.08 C165.032,1083.91 165.487,1083.13 165.748,1082.75 C166.394,1081.45 167.659,1079.69 169.545,1077.47 C170.066,1076.88 170.605,1076.24 171.162,1075.52 C171.719,1074.81 172.193,1074.22 172.584,1073.76 C172.974,1073.31 173.266,1072.95 173.459,1072.69 C173.652,1072.43 175.118,1070.7 177.857,1067.51 C178.503,1066.86 179.136,1066.16 179.756,1065.41 C180.375,1064.67 180.881,1064.08 181.271,1063.65 C181.662,1063.23 181.956,1062.92 182.154,1062.73 C179.81,1054.98 178.342,1048.8 177.748,1044.17 C177.3,1040.46 177.076,1035.38 177.076,1028.94 C177.076,1023.27 178.378,1017.96 180.982,1013.01 C183.514,1007.88 187.06,1003.68 191.623,1000.42 C191.883,1000.22 192.206,1000.12 192.592,1000.12 C193.05,1000.12 193.378,1000.22 193.576,1000.42 C197.086,1004.65 200.112,1010.15 202.654,1016.92 C205.258,1023.69 206.56,1029.85 206.56,1035.39 C206.56,1041.64 205.066,1047.5 202.076,1052.97 C198.691,1058.76 194.326,1064.75 188.982,1070.94 C190.347,1075.23 192.17,1081.96 194.451,1091.14 M202.748,1136.56 C206.133,1135.32 208.774,1133.21 210.67,1130.22 C212.753,1127.35 213.795,1124.13 213.795,1120.55 C213.795,1115.92 212.232,1111.82 209.107,1108.23 C205.909,1104.52 201.836,1102.44 196.889,1101.98 C199.691,1115.72 201.644,1127.25 202.748,1136.56 M164.967,1114 C164.967,1120.45 167.571,1126.11 172.779,1131 C178.112,1135.75 184.102,1138.12 190.748,1138.12 C193.477,1138.12 196.144,1137.93 198.748,1137.53 C197.706,1127.63 195.654,1115.78 192.592,1101.98 C188.883,1102.38 185.925,1103.68 183.717,1105.89 C181.56,1108.17 180.482,1110.74 180.482,1113.61 C180.482,1118.56 183.123,1122.56 188.404,1125.62 C188.852,1126.08 189.076,1126.57 189.076,1127.09 C189.076,1127.61 188.852,1128.1 188.404,1128.55 C188.008,1129 187.519,1129.23 186.935,1129.23 C186.873,1129.23 186.581,1129.17 186.06,1129.05 C182.342,1127.02 179.477,1124.42 177.467,1121.23 C175.571,1117.84 174.623,1114.42 174.623,1110.97 C174.623,1106.48 176.024,1102.41 178.826,1098.76 C181.753,1095.12 185.56,1092.77 190.248,1091.73 C188.425,1084.44 186.93,1078.74 185.764,1074.64 C184.722,1075.82 183.469,1077.23 182.006,1078.89 C180.542,1080.55 179.68,1081.54 179.42,1081.87 C177.076,1084.93 175.284,1087.3 174.045,1089 C171.826,1092.06 170.196,1094.7 169.154,1096.9 C168.05,1099.38 167.076,1102.09 166.232,1105.01 C165.389,1107.82 164.967,1110.81 164.967,1114 M197.576,1014.69 C192.691,1017.09 188.852,1020.54 186.06,1025.03 C183.196,1029.65 181.764,1034.63 181.764,1039.97 C181.764,1044.65 182.935,1050.97 185.279,1058.92 C189.967,1053.25 193.482,1048.01 195.826,1043.2 C198.295,1038.12 199.529,1032.81 199.529,1027.28 C199.529,1023.11 198.878,1018.92 197.576,1014.69"/>
<path class="Clef" d="M194.451,616.139 C194.451,616.139 194.649,616.139 195.045,616.139 C195.305,616.076 195.529,616.045 195.717,616.045 C203.008,616.045 208.998,618.618 213.685,623.764 C218.373,628.837 220.717,634.759 220.717,641.529 C220.717,649.936 217.237,656.774 210.279,662.045 C208.456,663.483 206.076,664.654 203.139,665.561 C203.472,669.79 203.639,673.207 203.639,675.811 C203.639,676.332 203.571,678.222 203.435,681.483 C203.175,687.535 201.092,692.774 197.185,697.201 C193.415,701.566 188.727,703.748 183.123,703.748 C177.852,703.748 173.362,701.894 169.654,698.186 C165.935,694.404 164.076,689.847 164.076,684.514 C164.076,681.712 165.154,679.332 167.31,677.373 C169.519,675.425 172.086,674.451 175.014,674.451 C177.618,674.451 179.8,675.462 181.56,677.483 C183.383,679.368 184.295,681.712 184.295,684.514 C184.295,687.045 183.383,689.222 181.56,691.045 C179.737,692.868 177.555,693.779 175.014,693.779 C173.972,693.779 172.967,693.587 171.998,693.201 C174.862,697.43 178.67,699.545 183.42,699.545 C187.909,699.545 191.586,697.722 194.451,694.076 C197.451,690.305 199.081,685.91 199.342,680.889 C199.467,677.764 199.529,675.977 199.529,675.529 C199.529,671.884 199.399,668.889 199.139,666.545 C195.889,667.066 192.993,667.326 190.451,667.326 C181.399,667.326 173.685,663.743 167.31,656.576 C161.06,649.347 157.935,640.753 157.935,630.795 C157.935,628.712 158.128,626.597 158.514,624.451 C158.909,622.691 159.399,620.769 159.982,618.686 C160.305,617.509 161.185,615.618 162.623,613.014 C163.144,612.233 163.73,611.256 164.381,610.084 C165.032,608.912 165.487,608.134 165.748,607.748 C166.394,606.446 167.659,604.686 169.545,602.467 C170.066,601.884 170.605,601.235 171.162,600.522 C171.719,599.808 172.193,599.222 172.584,598.764 C172.974,598.305 173.266,597.946 173.459,597.686 C173.652,597.425 175.118,595.701 177.857,592.514 C178.503,591.858 179.136,591.157 179.756,590.412 C180.375,589.667 180.881,589.082 181.271,588.654 C181.662,588.227 181.956,587.92 182.154,587.733 C179.81,579.983 178.342,573.795 177.748,569.17 C177.3,565.462 177.076,560.384 177.076,553.936 C177.076,548.269 178.378,542.962 180.982,538.014 C183.514,532.878 187.06,528.68 191.623,525.42 C191.883,525.222 192.206,525.123 192.592,525.123 C193.05,525.123 193.378,525.222 193.576,525.42 C197.086,529.649 200.112,535.149 202.654,541.92 C205.258,548.691 206.56,554.847 206.56,560.389 C206.56,566.639 205.066,572.498 202.076,577.967 C198.691,583.759 194.326,589.748 188.982,595.936 C190.347,600.227 192.17,606.962 194.451,616.139 M202.748,661.561 C206.133,660.321 208.774,658.207 210.67,655.217 C212.753,652.352 213.795,649.128 213.795,645.545 C213.795,640.92 212.232,636.816 209.107,633.233 C205.909,629.524 201.836,627.441 196.889,626.983 C199.691,640.722 201.644,652.248 202.748,661.561 M164.967,638.998 C164.967,645.446 167.571,651.113 172.779,655.998 C178.112,660.748 184.102,663.123 190.748,663.123 C193.477,663.123 196.144,662.925 198.748,662.529 C197.706,652.634 195.654,640.785 192.592,626.983 C188.883,627.378 185.925,628.68 183.717,630.889 C181.56,633.17 180.482,635.743 180.482,638.608 C180.482,643.555 183.123,647.561 188.404,650.623 C188.852,651.082 189.076,651.571 189.076,652.092 C189.076,652.613 188.852,653.097 188.404,653.545 C188.008,654.003 187.519,654.233 186.935,654.233 C186.873,654.233 186.581,654.17 186.06,654.045 C182.342,652.024 179.477,649.42 177.467,646.233 C175.571,642.837 174.623,639.415 174.623,635.967 C174.623,631.477 176.024,627.41 178.826,623.764 C181.753,620.118 185.56,617.774 190.248,616.733 C188.425,609.441 186.93,603.743 185.764,599.639 C184.722,600.816 183.469,602.233 182.006,603.889 C180.542,605.545 179.68,606.54 179.42,606.873 C177.076,609.925 175.284,612.3 174.045,613.998 C171.826,617.061 170.196,619.696 169.154,621.904 C168.05,624.384 167.076,627.087 166.232,630.014 C165.389,632.816 164.967,635.811 164.967,638.998 M197.576,539.686 C192.691,542.092 188.852,545.54 186.06,550.029 C183.196,554.654 181.764,559.634 181.764,564.967 C181.764,569.654 182.935,575.972 185.279,583.92 C189.967,578.253 193.482,573.014 195.826,568.201 C198.295,563.118 199.529,557.811 199.529,552.279 C199.529,548.113 198.878,543.915 197.576,539.686"/>
<path class="KeySig" d="M267.248,1072.89 C267.248,1074.13 266.631,1074.75 265.396,1074.75 C264.162,1074.75 263.545,1074.13 263.545,1072.89 L263.545,1058.44 L255.248,1061.56 L255.248,1077.37 C255.248,1078.61 254.628,1079.23 253.389,1079.23 C252.149,1079.23 251.529,1078.61 251.529,1077.37 L251.529,1062.83 L248.404,1064 C248.342,1064.06 248.081,1064.09 247.623,1064.09 C247.102,1064.09 246.646,1063.9 246.256,1063.51 C245.865,1063.12 245.67,1062.66 245.67,1062.14 L245.67,1056.09 C245.67,1055.11 246.092,1054.49 246.935,1054.23 L251.529,1052.67 L251.529,1036.65 L248.404,1037.73 C248.342,1037.8 248.081,1037.83 247.623,1037.83 C247.102,1037.83 246.646,1037.63 246.256,1037.24 C245.865,1036.85 245.67,1036.39 245.67,1035.87 L245.67,1029.81 C245.67,1028.9 246.092,1028.32 246.935,1028.06 L251.529,1026.3 L251.529,1010.58 C251.529,1009.34 252.149,1008.72 253.389,1008.72 C254.628,1008.72 255.248,1009.34 255.248,1010.58 L255.248,1025.03 L263.545,1021.9 L263.545,1006.09 C263.545,1004.85 264.162,1004.23 265.396,1004.23 C266.631,1004.23 267.248,1004.85 267.248,1006.09 L267.248,1020.64 L270.482,1019.47 C270.545,1019.4 270.769,1019.37 271.154,1019.37 C271.613,1019.37 272.102,1019.57 272.623,1019.95 C273.019,1020.35 273.217,1020.81 273.217,1021.33 L273.217,1027.37 C273.217,1028.29 272.758,1028.91 271.842,1029.23 L267.248,1030.8 L267.248,1046.81 L270.482,1045.73 C270.545,1045.67 270.769,1045.64 271.154,1045.64 C271.613,1045.64 272.102,1045.84 272.623,1046.23 C273.019,1046.62 273.217,1047.07 273.217,1047.59 L273.217,1053.65 C273.217,1054.5 272.758,1055.08 271.842,1055.4 L267.248,1057.17 L267.248,1072.89 M263.545,1032.26 L255.248,1035.19 L255.248,1051.2 L263.545,1048.28 L263.545,1032.26 "/>
<path class="KeySig" d="M267.248,597.889 C267.248,599.128 266.631,599.748 265.396,599.748 C264.162,599.748 263.545,599.128 263.545,597.889 L263.545,583.436 L255.248,586.561 L255.248,602.373 C255.248,603.613 254.628,604.233 253.389,604.233 C252.149,604.233 251.529,603.613 251.529,602.373 L251.529,587.826 L248.404,588.998 C248.342,589.061 248.081,589.092 247.623,589.092 C247.102,589.092 246.646,588.897 246.256,588.506 C245.865,588.115 245.67,587.66 245.67,587.139 L245.67,581.092 C245.67,580.113 246.092,579.493 246.935,579.233 L251.529,577.67 L251.529,561.654 L248.404,562.733 C248.342,562.795 248.081,562.826 247.623,562.826 C247.102,562.826 246.646,562.631 246.256,562.24 C245.865,561.85 245.67,561.394 245.67,560.873 L245.67,554.811 C245.67,553.904 246.092,553.321 246.935,553.061 L251.529,551.295 L251.529,535.576 C251.529,534.337 252.149,533.717 253.389,533.717 C254.628,533.717 255.248,534.337 255.248,535.576 L255.248,550.029 L263.545,546.904 L263.545,531.092 C263.545,529.852 264.162,529.233 265.396,529.233 C266.631,529.233 267.248,529.852 267.248,531.092 L267.248,545.639 L270.482,544.467 C270.545,544.404 270.769,544.373 271.154,544.373 C271.613,544.373 272.102,544.566 272.623,544.951 C273.019,545.347 273.217,545.805 273.217,546.326 L273.217,552.373 C273.217,553.29 272.758,553.91 271.842,554.233 L267.248,555.795 L267.248,571.811 L270.482,570.733 C270.545,570.67 270.769,570.639 271.154,570.639 C271.613,570.639 272.102,570.837 272.623,571.233 C273.019,571.618 273.217,572.071 273.217,572.592 L273.217,578.654 C273.217,579.498 272.758,580.081 271.842,580.404 L267.248,582.17 L267.248,597.889 M263.545,557.264 L255.248,560.186 L255.248,576.201 L263.545,573.279 L263.545,557.264 "/>
<path class="TimeSig" d="M321.006,567.912 C322.954,567.912 324.613,567.686 325.982,567.233 C327.352,566.779 328.23,566.553 328.615,566.553 C329.073,566.553 329.433,566.683 329.693,566.943 C329.891,567.131 330.021,567.355 330.084,567.615 C330.084,567.751 330.016,567.949 329.881,568.209 L301.475,601.225 L318.162,601.225 L318.162,588.131 C318.162,587.287 318.391,586.568 318.85,585.975 C319.631,585.329 320.282,584.938 320.803,584.803 C321.646,584.417 322.688,583.506 323.928,582.068 C324.969,580.902 326.209,578.855 327.646,575.928 C327.834,575.532 328.126,575.334 328.521,575.334 C329.303,575.334 329.756,575.792 329.881,576.709 L329.881,601.225 L337.021,601.225 C337.928,601.225 338.448,601.709 338.584,602.678 C338.584,603.657 338.063,604.147 337.021,604.147 L329.881,604.147 L329.881,604.928 C329.881,607.532 330.532,609.746 331.834,611.568 C333.334,613.391 335.094,614.303 337.115,614.303 C337.896,614.303 338.287,614.693 338.287,615.475 C338.287,616.256 337.896,616.647 337.115,616.647 C335.751,616.647 333.537,616.454 330.475,616.068 C327.672,615.61 325.49,615.381 323.928,615.381 C322.303,615.381 320.12,615.61 317.381,616.068 C314.454,616.454 312.277,616.647 310.85,616.647 C310.068,616.647 309.678,616.256 309.678,615.475 C309.678,614.693 310.068,614.303 310.85,614.303 C312.86,614.303 314.615,613.391 316.115,611.568 C317.48,609.683 318.162,607.47 318.162,604.928 L318.162,604.147 L301.475,604.147 C300.36,604.147 299.579,603.886 299.131,603.365 C298.6,602.98 298.334,602.459 298.334,601.803 C298.334,601.605 298.823,600.923 299.803,599.756 C300.917,598.454 302.089,596.86 303.318,594.975 C304.756,592.756 306.126,590.475 307.428,588.131 C308.855,585.464 309.995,582.402 310.85,578.943 C311.818,575.433 312.303,571.855 312.303,568.209 C312.303,567.167 312.761,566.647 313.678,566.647 C313.876,566.647 314.297,566.746 314.943,566.943 C315.141,567.006 315.55,567.102 316.17,567.233 C316.79,567.363 317.292,567.49 317.678,567.615 C318.855,567.813 319.964,567.912 321.006,567.912"/>
<path class="TimeSig" d="M321.006,618.084 C322.954,618.084 324.613,617.858 325.982,617.404 C327.352,616.951 328.23,616.725 328.615,616.725 C329.073,616.725 329.433,616.855 329.693,617.115 C329.891,617.303 330.021,617.527 330.084,617.787 C330.084,617.923 330.016,618.121 329.881,618.381 L301.475,651.397 L318.162,651.397 L318.162,638.303 C318.162,637.459 318.391,636.74 318.85,636.147 C319.631,635.501 320.282,635.11 320.803,634.975 C321.646,634.589 322.688,633.678 323.928,632.24 C324.969,631.074 326.209,629.027 327.646,626.1 C327.834,625.704 328.126,625.506 328.521,625.506 C329.303,625.506 329.756,625.964 329.881,626.881 L329.881,651.397 L337.021,651.397 C337.928,651.397 338.448,651.881 338.584,652.85 C338.584,653.829 338.063,654.319 337.021,654.319 L329.881,654.319 L329.881,655.1 C329.881,657.704 330.532,659.917 331.834,661.74 C333.334,663.563 335.094,664.475 337.115,664.475 C337.896,664.475 338.287,664.865 338.287,665.647 C338.287,666.428 337.896,666.819 337.115,666.819 C335.751,666.819 333.537,666.626 330.475,666.24 C327.672,665.782 325.49,665.553 323.928,665.553 C322.303,665.553 320.12,665.782 317.381,666.24 C314.454,666.626 312.277,666.819 310.85,666.819 C310.068,666.819 309.678,666.428 309.678,665.647 C309.678,664.865 310.068,664.475 310.85,664.475 C312.86,664.475 314.615,663.563 316.115,661.74 C317.48,659.855 318.162,657.641 318.162,655.1 L318.162,654.319 L301.475,654.319 C300.36,654.319 299.579,654.058 299.131,653.537 C298.6,653.152 298.334,652.631 298.334,651.975 C298.334,651.777 298.823,651.095 299.803,649.928 C300.917,648.626 302.089,647.032 303.318,645.147 C304.756,642.928 306.126,640.647 307.428,638.303 C308.855,635.636 309.995,632.574 310.85,629.115 C311.818,625.605 312.303,622.027 312.303,618.381 C312.303,617.339 312.761,616.819 313.678,616.819 C313.876,616.819 314.297,616.917 314.943,617.115 C315.141,617.178 315.55,617.274 316.17,617.404 C316.79,617.535 317.292,617.662 317.678,617.787 C318.855,617.985 319.964,618.084 321.006,618.084"/>
<path class="Rest" d="M2772.66,1091.73 L2737.11,1091.73 C2736.45,1091.73 2736.13,1091.4 2736.13,1090.75 L2736.13,1077.08 C2736.13,1076.43 2736.45,1076.11 2737.11,1076.11 L2772.66,1076.11 C2773.3,1076.11 2773.63,1076.43 2773.63,1077.08 L2773.63,1090.75 C2773.63,1091.4 2773.3,1091.73 2772.66,1091.73"/>
<path class="Rest" d="M2637.01,1083.92 C2637.01,1082.74 2637.66,1081.44 2638.98,1080.01 C2639.95,1078.97 2641.38,1077.73 2643.27,1076.3 C2644.7,1075.33 2646.1,1073.86 2647.46,1071.9 C2648.76,1070.02 2649.41,1067.97 2649.41,1065.75 C2649.41,1063.14 2648.57,1060.84 2646.88,1058.83 L2643.37,1054.62 C2643.11,1054.36 2642.98,1054.04 2642.98,1053.65 C2642.98,1053.26 2643.17,1052.9 2643.55,1052.58 C2644.01,1052.24 2644.4,1052.08 2644.73,1052.08 C2645.18,1052.08 2645.54,1052.27 2645.8,1052.67 L2660.95,1070.64 C2661.59,1071.48 2661.91,1072.33 2661.91,1073.17 C2661.91,1074.35 2661.26,1075.65 2659.96,1077.08 C2659.12,1077.99 2657.72,1079.23 2655.77,1080.8 C2654.27,1081.7 2652.84,1083.17 2651.48,1085.19 C2650.17,1087.07 2649.52,1089.12 2649.52,1091.34 C2649.52,1094.08 2650.3,1096.39 2651.87,1098.28 L2660.26,1108.14 C2660.46,1108.34 2660.62,1108.67 2660.74,1109.12 C2660.74,1109.57 2660.58,1109.96 2660.26,1110.3 C2659.8,1110.62 2659.41,1110.78 2659.09,1110.78 C2658.96,1110.78 2658.44,1110.42 2657.52,1109.7 C2656.54,1108.92 2655.24,1108.17 2653.62,1107.45 C2651.79,1106.74 2650,1106.39 2648.24,1106.39 C2646.62,1106.39 2645.28,1106.84 2644.24,1107.75 C2643.34,1108.67 2642.88,1110.43 2642.88,1113.03 C2642.88,1117 2643.83,1120.12 2645.71,1122.4 C2645.91,1122.67 2645.94,1122.99 2645.8,1123.37 C2645.68,1123.63 2645.45,1123.76 2645.12,1123.76 C2644.67,1123.76 2643.66,1122.59 2642.1,1120.25 C2640.47,1117.78 2638.93,1114.95 2637.51,1111.75 C2636.01,1108.36 2635.26,1105.57 2635.26,1103.36 C2635.26,1100.56 2636.59,1099.15 2639.26,1099.15 C2642.32,1099.15 2646.29,1100.2 2651.18,1102.28 L2637.99,1086.45 C2637.34,1085.61 2637.01,1084.76 2637.01,1083.92"/>
<path class="Rest" d="M2598.14,616.733 L2562.59,616.733 C2561.93,616.733 2561.61,616.404 2561.61,615.748 L2561.61,602.076 C2561.61,601.43 2561.93,601.108 2562.59,601.108 L2598.14,601.108 C2598.78,601.108 2599.11,601.43 2599.11,602.076 L2599.11,615.748 C2599.11,616.404 2598.78,616.733 2598.14,616.733"/>
<path class="Rest" d="M2340.6,608.92 C2340.6,607.743 2341.26,606.441 2342.57,605.014 C2343.54,603.972 2344.97,602.733 2346.87,601.295 C2348.29,600.326 2349.69,598.863 2351.05,596.904 C2352.36,595.019 2353.01,592.967 2353.01,590.748 C2353.01,588.144 2352.16,585.837 2350.47,583.826 L2346.96,579.623 C2346.7,579.363 2346.57,579.037 2346.57,578.647 C2346.57,578.256 2346.76,577.899 2347.15,577.576 C2347.61,577.243 2348,577.076 2348.32,577.076 C2348.78,577.076 2349.14,577.274 2349.4,577.67 L2364.54,595.639 C2365.18,596.483 2365.51,597.326 2365.51,598.17 C2365.51,599.347 2364.86,600.649 2363.55,602.076 C2362.71,602.993 2361.31,604.233 2359.37,605.795 C2357.87,606.701 2356.43,608.165 2355.07,610.186 C2353.77,612.071 2353.12,614.123 2353.12,616.342 C2353.12,619.082 2353.9,621.394 2355.46,623.279 L2363.85,633.139 C2364.05,633.337 2364.21,633.665 2364.33,634.123 C2364.33,634.571 2364.17,634.962 2363.85,635.295 C2363.39,635.618 2363,635.779 2362.68,635.779 C2362.55,635.779 2362.03,635.42 2361.12,634.701 C2360.14,633.92 2358.83,633.17 2357.21,632.451 C2355.39,631.743 2353.59,631.389 2351.83,631.389 C2350.21,631.389 2348.88,631.842 2347.83,632.748 C2346.93,633.665 2346.47,635.425 2346.47,638.029 C2346.47,641.998 2347.42,645.123 2349.3,647.404 C2349.5,647.665 2349.53,647.988 2349.4,648.373 C2349.27,648.634 2349.04,648.764 2348.71,648.764 C2348.26,648.764 2347.26,647.592 2345.69,645.248 C2344.06,642.779 2342.53,639.946 2341.1,636.748 C2339.6,633.363 2338.85,630.566 2338.85,628.358 C2338.85,625.555 2340.18,624.154 2342.85,624.154 C2345.91,624.154 2349.89,625.196 2354.77,627.279 L2341.58,611.451 C2340.93,610.608 2340.6,609.764 2340.6,608.92"/>
</svg>
