<?xml version="1.0" encoding="UTF-8" standalone="no"?>
<svg width="2977.2px" height="4208.4px" viewBox="0 0 2977.2 4208.4"
 xmlns="http://www.w3.org/2000/svg" xmlns:xlink="http://www.w3.org/1999/xlink" version="1.2" baseProfile="tiny">
<title>Eu_sunt_Barbu_Lautarul</title>
<desc>Generated by MuseScore 3.0.2</desc>
<polyline class="StaffLines" fill="none" stroke="#000000" stroke-width="2.00" stroke-linejoin="bevel" points="141.732,566.733 2835.47,566.733"/>
<polyline class="StaffLines" fill="none" stroke="#000000" stroke-width="2.00" stroke-linejoin="bevel" points="141.732,591.733 2835.47,591.733"/>
<polyline class="StaffLines" fill="none" stroke="#000000" stroke-width="2.00" stroke-linejoin="bevel" points="141.732,616.733 2835.47,616.733"/>
<polyline class="StaffLines" fill="none" stroke="#000000" stroke-width="2.00" stroke-linejoin="bevel" points="141.732,641.733 2835.47,641.733"/>
<polyline class="StaffLines" fill="none" stroke="#000000" stroke-width="2.00" stroke-linejoin="bevel" points="141.732,666.733 2835.47,666.733"/>
<polyline class="StaffLines" fill="none" stroke="#000000" stroke-width="2.00" stroke-linejoin="bevel" points="141.732,1041.73 2835.47,1041.73"/>
<polyline class="StaffLines" fill="none" stroke="#000000" stroke-width="2.00" stroke-linejoin="bevel" points="141.732,1066.73 2835.47,1066.73"/>
<polyline class="StaffLines" fill="none" stroke="#000000" stroke-width="2.00" stroke-linejoin="bevel" points="141.732,1091.73 2835.47,1091.73"/>
<polyline class="StaffLines" fill="none" stroke="#000000" stroke-width="2.00" stroke-linejoin="bevel" points="141.732,1116.73 2835.47,1116.73"/>
<polyline class="StaffLines" fill="none" stroke="#000000" stroke-width="2.00" stroke-linejoin="bevel" points="141.732,1141.73 2835.47,1141.73"/>
<path class="Text" d="M978.467,296.107 C978.467,303.326 977.099,309.704 974.365,315.24 C971.631,320.777 967.956,325.336 963.342,328.92 C957.873,333.211 952.014,336.253 945.764,338.045 C939.514,339.836 931.441,340.732 921.545,340.732 L879.842,340.732 L879.842,195.326 L918.42,195.326 C928.764,195.326 936.524,195.667 941.701,196.35 C946.878,197.032 951.842,198.644 956.592,201.185 C961.8,203.977 965.61,207.636 968.021,212.162 C970.433,216.688 971.639,222.014 971.639,228.139 C971.639,234.972 969.831,241.089 966.217,246.49 C962.602,251.891 957.607,256.123 951.232,259.185 L951.232,259.967 C959.889,262.31 966.592,266.592 971.342,272.81 C976.092,279.029 978.467,286.795 978.467,296.107 M951.514,230.873 C951.514,227.352 950.928,224.305 949.756,221.732 C948.584,219.159 946.696,217.128 944.092,215.639 C940.967,213.878 937.485,212.803 933.646,212.412 C929.808,212.021 924.503,211.826 917.732,211.826 L899.17,211.826 L899.17,254.404 L921.154,254.404 C927.206,254.404 931.665,254.094 934.529,253.475 C937.394,252.855 940.357,251.571 943.42,249.623 C946.347,247.727 948.428,245.251 949.662,242.193 C950.896,239.136 951.514,235.363 951.514,230.873 M958.357,296.889 C958.357,291.42 957.576,286.909 956.014,283.357 C954.451,279.805 951.295,276.795 946.545,274.326 C943.482,272.701 940.144,271.659 936.529,271.201 C932.915,270.743 927.79,270.514 921.154,270.514 L899.17,270.514 L899.17,324.232 L914.904,324.232 C923.362,324.232 930.034,323.842 934.92,323.06 C939.805,322.279 944.102,320.618 947.81,318.076 C951.456,315.534 954.125,312.652 955.818,309.428 C957.511,306.204 958.357,302.024 958.357,296.889 M1057.31,313.873 L1057.31,283.607 C1052.95,283.993 1047.43,284.527 1040.76,285.209 C1034.08,285.891 1028.7,286.852 1024.59,288.092 C1019.72,289.592 1015.68,291.889 1012.49,294.982 C1009.3,298.076 1007.7,302.389 1007.7,307.92 C1007.7,314.17 1009.46,318.889 1012.97,322.076 C1016.49,325.264 1021.63,326.857 1028.4,326.857 C1034.2,326.857 1039.44,325.605 1044.12,323.1 C1048.81,320.594 1053.21,317.519 1057.31,313.873 M1057.31,329.107 C1055.81,330.211 1053.81,331.758 1051.3,333.748 C1048.8,335.738 1046.37,337.316 1044.03,338.482 C1040.78,340.18 1037.64,341.485 1034.61,342.396 C1031.58,343.308 1027.33,343.764 1021.86,343.764 C1017.37,343.764 1013.1,342.917 1009.07,341.225 C1005.03,339.532 1001.48,337.154 998.42,334.092 C995.493,331.092 993.152,327.396 991.396,323.006 C989.641,318.615 988.764,313.977 988.764,309.092 C988.764,301.54 990.357,295.11 993.545,289.803 C996.732,284.495 1001.78,280.279 1008.69,277.154 C1014.8,274.352 1022.02,272.415 1030.36,271.342 C1038.69,270.269 1047.67,269.472 1057.31,268.951 L1057.31,265.435 C1057.31,261.144 1056.66,257.678 1055.36,255.037 C1054.06,252.396 1052.23,250.363 1049.89,248.935 C1047.54,247.435 1044.68,246.441 1041.29,245.951 C1037.91,245.461 1034.42,245.217 1030.84,245.217 C1026.61,245.217 1021.63,245.852 1015.9,247.123 C1010.17,248.394 1004.45,250.232 998.717,252.639 L997.639,252.639 L997.639,233.998 C1001.02,233.019 1005.88,231.943 1012.19,230.771 C1018.51,229.6 1024.76,229.014 1030.95,229.014 C1038.43,229.014 1044.74,229.6 1049.89,230.771 C1055.03,231.943 1059.66,234.06 1063.76,237.123 C1067.73,240.113 1070.69,243.985 1072.65,248.74 C1074.6,253.495 1075.58,259.29 1075.58,266.123 L1075.58,340.732 L1057.31,340.732 L1057.31,329.107 M1159.19,251.373 L1158.22,251.373 C1156.84,250.988 1155.39,250.745 1153.87,250.646 C1152.34,250.547 1150.5,250.498 1148.34,250.498 C1143.39,250.498 1138.48,251.571 1133.6,253.717 C1128.72,255.863 1124.1,259.055 1119.73,263.295 L1119.73,340.732 L1101.37,340.732 L1101.37,231.654 L1119.73,231.654 L1119.73,247.857 C1126.44,241.93 1132.28,237.748 1137.26,235.31 C1142.24,232.873 1147.08,231.654 1151.76,231.654 C1153.65,231.654 1155.07,231.701 1156.01,231.795 C1156.96,231.889 1158.02,232.034 1159.19,232.232 L1159.19,251.373 M1245.94,285.842 C1245.94,272.821 1243.95,262.943 1239.97,256.209 C1236,249.475 1229.62,246.107 1220.84,246.107 C1215.82,246.107 1210.76,247.279 1205.65,249.623 C1200.54,251.967 1195.9,254.925 1191.73,258.498 L1191.73,320.998 C1196.36,323.279 1200.46,324.891 1204.04,325.834 C1207.62,326.777 1211.56,327.248 1215.86,327.248 C1225.23,327.248 1232.59,323.928 1237.93,317.287 C1243.27,310.646 1245.94,300.165 1245.94,285.842 M1264.87,284.389 C1264.87,302.222 1260.54,316.576 1251.89,327.451 C1243.23,338.326 1232.39,343.764 1219.37,343.764 C1213.45,343.764 1208.38,343.029 1204.19,341.56 C1199.99,340.092 1195.84,338.123 1191.73,335.654 L1190.56,340.732 L1173.37,340.732 L1173.37,188.779 L1191.73,188.779 L1191.73,243.076 C1196.36,238.909 1201.37,235.459 1206.77,232.725 C1212.17,229.99 1218.29,228.623 1225.14,228.623 C1237.44,228.623 1247.14,233.555 1254.23,243.42 C1261.33,253.284 1264.87,266.941 1264.87,284.389 M1369.34,340.732 L1350.98,340.732 L1350.98,328.623 C1345.32,333.571 1339.94,337.331 1334.87,339.904 C1329.79,342.477 1324.12,343.764 1317.87,343.764 C1313.12,343.764 1308.65,342.982 1304.44,341.42 C1300.24,339.857 1296.58,337.383 1293.45,333.998 C1290.33,330.613 1287.9,326.347 1286.18,321.201 C1284.45,316.055 1283.59,309.805 1283.59,302.451 L1283.59,231.654 L1301.95,231.654 L1301.95,293.764 C1301.95,299.555 1302.16,304.355 1302.58,308.162 C1303.01,311.969 1303.97,315.305 1305.47,318.17 C1306.97,320.972 1309,323.024 1311.58,324.326 C1314.15,325.628 1317.84,326.279 1322.65,326.279 C1327.14,326.279 1331.93,325.008 1337.01,322.467 C1342.08,319.925 1346.74,316.8 1350.98,313.092 L1350.98,231.654 L1369.34,231.654 L1369.34,340.732 M1478.12,340.732 L1459.76,340.732 L1459.76,188.779 L1478.12,188.779 L1478.12,340.732 M1566.31,313.873 L1566.31,283.607 C1561.95,283.993 1556.43,284.527 1549.76,285.209 C1543.08,285.891 1537.7,286.852 1533.59,288.092 C1528.72,289.592 1524.68,291.889 1521.49,294.982 C1518.3,298.076 1516.7,302.389 1516.7,307.92 C1516.7,314.17 1518.46,318.889 1521.97,322.076 C1525.49,325.264 1530.63,326.857 1537.4,326.857 C1543.2,326.857 1548.44,325.605 1553.12,323.1 C1557.81,320.594 1562.21,317.519 1566.31,313.873 M1566.31,329.107 C1564.81,330.211 1562.81,331.758 1560.3,333.748 C1557.8,335.738 1555.37,337.316 1553.03,338.482 C1549.78,340.18 1546.64,341.485 1543.61,342.396 C1540.58,343.308 1536.33,343.764 1530.86,343.764 C1526.37,343.764 1522.1,342.917 1518.07,341.225 C1514.03,339.532 1510.48,337.154 1507.42,334.092 C1504.49,331.092 1502.15,327.396 1500.4,323.006 C1498.64,318.615 1497.76,313.977 1497.76,309.092 C1497.76,301.54 1499.36,295.11 1502.54,289.803 C1505.73,284.495 1510.78,280.279 1517.69,277.154 C1523.8,274.352 1531.02,272.415 1539.36,271.342 C1547.69,270.269 1556.67,269.472 1566.31,268.951 L1566.31,265.435 C1566.31,261.144 1565.66,257.678 1564.36,255.037 C1563.06,252.396 1561.23,250.363 1558.89,248.935 C1556.54,247.435 1553.68,246.441 1550.29,245.951 C1546.91,245.461 1543.42,245.217 1539.84,245.217 C1535.61,245.217 1530.63,245.852 1524.9,247.123 C1519.17,248.394 1513.45,250.232 1507.72,252.639 L1506.64,252.639 L1506.64,233.998 C1510.02,233.019 1514.88,231.943 1521.19,230.771 C1527.51,229.6 1533.76,229.014 1539.95,229.014 C1547.43,229.014 1553.74,229.6 1558.89,230.771 C1564.03,231.943 1568.66,234.06 1572.76,237.123 C1576.73,240.113 1579.69,243.985 1581.65,248.74 C1583.6,253.495 1584.58,259.29 1584.58,266.123 L1584.58,340.732 L1566.31,340.732 L1566.31,329.107 M1695.34,340.732 L1676.98,340.732 L1676.98,328.623 C1671.32,333.571 1665.94,337.331 1660.87,339.904 C1655.79,342.477 1650.12,343.764 1643.87,343.764 C1639.12,343.764 1634.65,342.982 1630.44,341.42 C1626.24,339.857 1622.58,337.383 1619.45,333.998 C1616.33,330.613 1613.9,326.347 1612.18,321.201 C1610.45,316.055 1609.59,309.805 1609.59,302.451 L1609.59,231.654 L1627.95,231.654 L1627.95,293.764 C1627.95,299.555 1628.16,304.355 1628.58,308.162 C1629.01,311.969 1629.97,315.305 1631.47,318.17 C1632.97,320.972 1635,323.024 1637.58,324.326 C1640.15,325.628 1643.84,326.279 1648.65,326.279 C1653.14,326.279 1657.93,325.008 1663.01,322.467 C1668.08,319.925 1672.74,316.8 1676.98,313.092 L1676.98,231.654 L1695.34,231.654 L1695.34,340.732 M1755.39,342.889 C1745.36,342.889 1737.54,340.04 1731.94,334.342 C1726.34,328.644 1723.54,319.639 1723.54,307.326 L1723.54,246.889 L1711.14,246.889 L1711.14,231.654 L1723.54,231.654 L1723.54,200.295 L1741.9,200.295 L1741.9,231.654 L1775.7,231.654 L1775.7,246.889 L1741.9,246.889 L1741.9,298.732 C1741.9,304.274 1742,308.542 1742.2,311.537 C1742.4,314.532 1743.15,317.331 1744.45,319.935 C1745.56,322.206 1747.34,323.912 1749.82,325.053 C1752.29,326.193 1755.64,326.764 1759.87,326.764 C1762.87,326.764 1765.77,326.323 1768.57,325.443 C1771.37,324.563 1773.38,323.831 1774.62,323.248 L1775.7,323.248 L1775.7,339.748 C1772.24,340.727 1768.74,341.495 1765.19,342.053 C1761.65,342.61 1758.38,342.889 1755.39,342.889 M1850.31,313.873 L1850.31,283.607 C1845.95,283.993 1840.43,284.527 1833.76,285.209 C1827.08,285.891 1821.7,286.852 1817.59,288.092 C1812.72,289.592 1808.68,291.889 1805.49,294.982 C1802.3,298.076 1800.7,302.389 1800.7,307.92 C1800.7,314.17 1802.46,318.889 1805.97,322.076 C1809.49,325.264 1814.63,326.857 1821.4,326.857 C1827.2,326.857 1832.44,325.605 1837.12,323.1 C1841.81,320.594 1846.21,317.519 1850.31,313.873 M1850.31,329.107 C1848.81,330.211 1846.81,331.758 1844.3,333.748 C1841.8,335.738 1839.37,337.316 1837.03,338.482 C1833.78,340.18 1830.64,341.485 1827.61,342.396 C1824.58,343.308 1820.33,343.764 1814.86,343.764 C1810.37,343.764 1806.1,342.917 1802.07,341.225 C1798.03,339.532 1794.48,337.154 1791.42,334.092 C1788.49,331.092 1786.15,327.396 1784.4,323.006 C1782.64,318.615 1781.76,313.977 1781.76,309.092 C1781.76,301.54 1783.36,295.11 1786.54,289.803 C1789.73,284.495 1794.78,280.279 1801.69,277.154 C1807.8,274.352 1815.02,272.415 1823.36,271.342 C1831.69,270.269 1840.67,269.472 1850.31,268.951 L1850.31,265.435 C1850.31,261.144 1849.66,257.678 1848.36,255.037 C1847.06,252.396 1845.23,250.363 1842.89,248.935 C1840.54,247.435 1837.68,246.441 1834.29,245.951 C1830.91,245.461 1827.42,245.217 1823.84,245.217 C1819.61,245.217 1814.63,245.852 1808.9,247.123 C1803.17,248.394 1797.45,250.232 1791.72,252.639 L1790.64,252.639 L1790.64,233.998 C1794.02,233.019 1798.88,231.943 1805.19,230.771 C1811.51,229.6 1817.76,229.014 1823.95,229.014 C1831.43,229.014 1837.74,229.6 1842.89,230.771 C1848.03,231.943 1852.66,234.06 1856.76,237.123 C1860.73,240.113 1863.69,243.985 1865.65,248.74 C1867.6,253.495 1868.58,259.29 1868.58,266.123 L1868.58,340.732 L1850.31,340.732 L1850.31,329.107 M1952.19,251.373 L1951.22,251.373 C1949.84,250.988 1948.39,250.745 1946.87,250.646 C1945.34,250.547 1943.5,250.498 1941.34,250.498 C1936.39,250.498 1931.48,251.571 1926.6,253.717 C1921.72,255.863 1917.1,259.055 1912.73,263.295 L1912.73,340.732 L1894.37,340.732 L1894.37,231.654 L1912.73,231.654 L1912.73,247.857 C1919.44,241.93 1925.28,237.748 1930.26,235.31 C1935.24,232.873 1940.08,231.654 1944.76,231.654 C1946.65,231.654 1948.07,231.701 1949.01,231.795 C1949.96,231.889 1951.02,232.034 1952.19,232.232 L1952.19,251.373 M2051.34,340.732 L2032.98,340.732 L2032.98,328.623 C2027.32,333.571 2021.94,337.331 2016.87,339.904 C2011.79,342.477 2006.12,343.764 1999.87,343.764 C1995.12,343.764 1990.65,342.982 1986.44,341.42 C1982.24,339.857 1978.58,337.383 1975.45,333.998 C1972.33,330.613 1969.9,326.347 1968.18,321.201 C1966.45,316.055 1965.59,309.805 1965.59,302.451 L1965.59,231.654 L1983.95,231.654 L1983.95,293.764 C1983.95,299.555 1984.16,304.355 1984.58,308.162 C1985.01,311.969 1985.97,315.305 1987.47,318.17 C1988.97,320.972 1991,323.024 1993.58,324.326 C1996.15,325.628 1999.84,326.279 2004.65,326.279 C2009.14,326.279 2013.93,325.008 2019.01,322.467 C2024.08,319.925 2028.74,316.8 2032.98,313.092 L2032.98,231.654 L2051.34,231.654 L2051.34,340.732 M2097.12,340.732 L2078.76,340.732 L2078.76,188.779 L2097.12,188.779 L2097.12,340.732 "/>
<path class="MeasureNumber" d="M146.513,983.952 C146.513,982.535 146.198,981.282 145.568,980.194 C144.938,979.105 144.178,978.261 143.287,977.662 C142.396,977.064 141.399,976.571 140.295,976.186 C139.191,975.8 138.23,975.548 137.412,975.428 C136.594,975.308 135.883,975.248 135.279,975.248 C134.956,975.248 134.795,975.139 134.795,974.92 C134.795,974.847 134.805,974.78 134.826,974.717 L139.185,965.264 L147.545,965.264 C147.972,965.264 148.313,965.196 148.568,965.061 C148.823,964.925 149.097,964.644 149.388,964.217 L149.748,964.498 L148.232,968.061 C148.128,968.3 147.821,968.42 147.31,968.42 L139.467,968.42 L137.795,971.811 C141.68,972.498 144.571,973.621 146.467,975.178 C148.362,976.735 149.31,979.019 149.31,982.03 C149.31,983.603 149.063,985.004 148.568,986.233 C148.073,987.462 147.446,988.452 146.685,989.202 C145.925,989.952 145.045,990.566 144.045,991.045 C143.045,991.524 142.086,991.853 141.17,992.03 C140.253,992.207 139.326,992.295 138.388,992.295 C136.899,992.295 135.714,992.074 134.834,991.631 C133.954,991.189 133.513,990.582 133.513,989.811 C133.513,988.821 134.086,988.327 135.232,988.327 C135.982,988.327 136.948,988.735 138.131,989.553 C139.313,990.371 140.253,990.78 140.951,990.78 C142.524,990.78 143.844,990.121 144.912,988.803 C145.98,987.485 146.513,985.868 146.513,983.952"/>
<path class="SlurSegment" stroke="#000000" stroke-width="1.75" stroke-linecap="round" stroke-linejoin="round" fill-rule="evenodd" d="M2116.62,1151.73 C2134.22,1176.45 2175.88,1182.7 2199.96,1164.23 C2175.29,1186.66 2133.62,1180.41 2116.62,1151.73"/>
<path class="SlurSegment" stroke="#000000" stroke-width="1.75" stroke-linecap="round" stroke-linejoin="round" fill-rule="evenodd" d="M1816.61,1139.23 C1840.69,1157.7 1882.35,1151.45 1899.95,1126.73 C1882.95,1155.41 1841.28,1161.66 1816.61,1139.23"/>
<path class="SlurSegment" stroke="#000000" stroke-width="1.75" stroke-linecap="round" stroke-linejoin="round" fill-rule="evenodd" d="M1383.74,1151.73 C1424.95,1192.59 1512.72,1198.84 1559.3,1164.23 C1512.44,1202.83 1424.66,1196.58 1383.74,1151.73"/>
<path class="SlurSegment" stroke="#000000" stroke-width="1.75" stroke-linecap="round" stroke-linejoin="round" fill-rule="evenodd" d="M1203.78,1176.73 C1229.51,1196.85 1274.5,1190.6 1293.76,1164.23 C1275.05,1194.56 1230.06,1200.81 1203.78,1176.73"/>
<path class="SlurSegment" stroke="#000000" stroke-width="1.75" stroke-linecap="round" stroke-linejoin="round" fill-rule="evenodd" d="M849.641,1151.73 C867.236,1176.45 908.903,1182.7 932.976,1164.23 C908.31,1186.66 866.642,1180.41 849.641,1151.73"/>
<path class="SlurSegment" stroke="#000000" stroke-width="1.75" stroke-linecap="round" stroke-linejoin="round" fill-rule="evenodd" d="M549.635,1139.23 C573.707,1157.7 615.375,1151.45 632.97,1126.73 C615.968,1155.41 574.301,1161.66 549.635,1139.23"/>
<path class="SlurSegment" stroke="#000000" stroke-width="1.75" stroke-linecap="round" stroke-linejoin="round" fill-rule="evenodd" d="M2387.21,676.733 C2412.59,696.518 2456.89,690.268 2475.81,664.233 C2457.45,694.228 2413.15,700.478 2387.21,676.733"/>
<path class="SlurSegment" stroke="#000000" stroke-width="1.75" stroke-linecap="round" stroke-linejoin="round" fill-rule="evenodd" d="M1135.27,676.733 C1160.65,696.518 1204.95,690.268 1223.87,664.233 C1205.51,694.228 1161.21,700.478 1135.27,676.733"/>
<path class="BarLine" d="M2793.22,1083.23 C2792.11,1082.13 2791.55,1080.8 2791.55,1079.23 C2791.55,1077.67 2792.11,1076.33 2793.22,1075.23 C2794.33,1074.12 2795.66,1073.56 2797.23,1073.56 C2798.79,1073.56 2800.12,1074.12 2801.23,1075.23 C2802.33,1076.33 2802.88,1077.67 2802.88,1079.23 C2802.88,1080.8 2802.33,1082.13 2801.23,1083.23 C2800.12,1084.34 2798.79,1084.89 2797.23,1084.89 C2795.66,1084.89 2794.33,1084.34 2793.22,1083.23"/>
<path class="BarLine" d="M2793.22,1108.23 C2792.11,1107.13 2791.55,1105.8 2791.55,1104.23 C2791.55,1102.67 2792.11,1101.33 2793.22,1100.23 C2794.33,1099.12 2795.66,1098.56 2797.23,1098.56 C2798.79,1098.56 2800.12,1099.12 2801.23,1100.23 C2802.33,1101.33 2802.88,1102.67 2802.88,1104.23 C2802.88,1105.8 2802.33,1107.13 2801.23,1108.23 C2800.12,1109.34 2798.79,1109.89 2797.23,1109.89 C2795.66,1109.89 2794.33,1109.34 2793.22,1108.23"/>
<polyline class="BarLine" stroke="#000000" stroke-width="4.00" stroke-linejoin="bevel" points="2812.97,1040.73 2812.97,1142.73"/>
<polyline class="BarLine" stroke="#000000" stroke-width="12.50" stroke-linejoin="bevel" points="2829.22,1040.73 2829.22,1142.73"/>
<polyline class="BarLine" stroke="#000000" stroke-width="4.00" stroke-linejoin="bevel" points="2268.83,1040.73 2268.83,1142.73"/>
<polyline class="BarLine" stroke="#000000" stroke-width="4.00" stroke-linejoin="bevel" points="1634.82,1040.73 1634.82,1142.73"/>
<polyline class="BarLine" stroke="#000000" stroke-width="4.00" stroke-linejoin="bevel" points="1001.85,1040.73 1001.85,1142.73"/>
<polyline class="BarLine" stroke="#000000" stroke-width="12.50" stroke-linejoin="bevel" points="299.678,1040.73 299.678,1142.73"/>
<polyline class="BarLine" stroke="#000000" stroke-width="4.00" stroke-linejoin="bevel" points="315.928,1040.73 315.928,1142.73"/>
<path class="BarLine" d="M327.67,1083.23 C326.56,1082.13 326.006,1080.8 326.006,1079.23 C326.006,1077.67 326.56,1076.33 327.67,1075.23 C328.779,1074.12 330.115,1073.56 331.678,1073.56 C333.24,1073.56 334.574,1074.12 335.678,1075.23 C336.782,1076.33 337.334,1077.67 337.334,1079.23 C337.334,1080.8 336.782,1082.13 335.678,1083.23 C334.574,1084.34 333.24,1084.89 331.678,1084.89 C330.115,1084.89 328.779,1084.34 327.67,1083.23"/>
<path class="BarLine" d="M327.67,1108.23 C326.56,1107.13 326.006,1105.8 326.006,1104.23 C326.006,1102.67 326.56,1101.33 327.67,1100.23 C328.779,1099.12 330.115,1098.56 331.678,1098.56 C333.24,1098.56 334.574,1099.12 335.678,1100.23 C336.782,1101.33 337.334,1102.67 337.334,1104.23 C337.334,1105.8 336.782,1107.13 335.678,1108.23 C334.574,1109.34 333.24,1109.89 331.678,1109.89 C330.115,1109.89 328.779,1109.34 327.67,1108.23"/>
<polyline class="BarLine" stroke="#000000" stroke-width="4.00" stroke-linejoin="bevel" points="2833.47,565.733 2833.47,667.733"/>
<polyline class="BarLine" stroke="#000000" stroke-width="4.00" stroke-linejoin="bevel" points="2197,565.733 2197,667.733"/>
<polyline class="BarLine" stroke="#000000" stroke-width="4.00" stroke-linejoin="bevel" points="1581.52,565.733 1581.52,667.733"/>
<polyline class="BarLine" stroke="#000000" stroke-width="4.00" stroke-linejoin="bevel" points="945.052,565.733 945.052,667.733"/>
<polyline class="LedgerLine" stroke="#000000" stroke-width="4.00" stroke-linecap="square" stroke-linejoin="bevel" points="2302.83,1166.73 2350.75,1166.73"/>
<polyline class="LedgerLine" stroke="#000000" stroke-width="4.00" stroke-linecap="square" stroke-linejoin="bevel" points="1035.85,1166.73 1083.77,1166.73"/>
<polyline class="Stem" stroke="#000000" stroke-width="3.25" stroke-linecap="round" stroke-linejoin="bevel" points="2608.97,1149.54 2608.97,1066.73"/>
<polyline class="Stem" stroke="#000000" stroke-width="3.25" stroke-linecap="round" stroke-linejoin="bevel" points="2475.29,1149.54 2475.29,1085.48"/>
<polyline class="Stem" stroke="#000000" stroke-width="3.25" stroke-linecap="round" stroke-linejoin="bevel" points="2341.62,1162.04 2341.62,1091.73"/>
<polyline class="Stem" stroke="#000000" stroke-width="3.25" stroke-linecap="round" stroke-linejoin="bevel" points="2214.79,1137.04 2214.79,1066.73"/>
<polyline class="Stem" stroke="#000000" stroke-width="3.25" stroke-linecap="round" stroke-linejoin="bevel" points="2131.45,1124.54 2131.45,1057.12"/>
<polyline class="Stem" stroke="#000000" stroke-width="3.25" stroke-linecap="round" stroke-linejoin="bevel" points="1998.12,1112.04 1998.12,1041.73"/>
<polyline class="Stem" stroke="#000000" stroke-width="3.25" stroke-linecap="round" stroke-linejoin="bevel" points="1914.78,1099.54 1914.78,1016.73"/>
<polyline class="Stem" stroke="#000000" stroke-width="3.25" stroke-linecap="round" stroke-linejoin="bevel" points="1831.45,1112.04 1831.45,1019.14"/>
<polyline class="Stem" stroke="#000000" stroke-width="3.25" stroke-linecap="round" stroke-linejoin="bevel" points="1698.11,1112.04 1698.11,1022.98"/>
<polyline class="Stem" stroke="#000000" stroke-width="3.25" stroke-linecap="round" stroke-linejoin="bevel" points="1574.13,1137.04 1574.13,1047.98"/>
<polyline class="Stem" stroke="#000000" stroke-width="3.25" stroke-linecap="round" stroke-linejoin="bevel" points="1398.58,1124.54 1398.58,1041.73"/>
<polyline class="Stem" stroke="#000000" stroke-width="3.25" stroke-linecap="round" stroke-linejoin="bevel" points="1308.6,1137.04 1308.6,1066.73"/>
<polyline class="Stem" stroke="#000000" stroke-width="3.25" stroke-linecap="round" stroke-linejoin="bevel" points="1218.61,1149.54 1218.61,1076.35"/>
<polyline class="Stem" stroke="#000000" stroke-width="3.25" stroke-linecap="round" stroke-linejoin="bevel" points="1074.64,1162.04 1074.64,1091.73"/>
<polyline class="Stem" stroke="#000000" stroke-width="3.25" stroke-linecap="round" stroke-linejoin="bevel" points="947.808,1137.04 947.808,1066.73"/>
<polyline class="Stem" stroke="#000000" stroke-width="3.25" stroke-linecap="round" stroke-linejoin="bevel" points="864.473,1124.54 864.473,1057.12"/>
<polyline class="Stem" stroke="#000000" stroke-width="3.25" stroke-linecap="round" stroke-linejoin="bevel" points="731.137,1112.04 731.137,1041.73"/>
<polyline class="Stem" stroke="#000000" stroke-width="3.25" stroke-linecap="round" stroke-linejoin="bevel" points="647.802,1099.54 647.802,1016.73"/>
<polyline class="Stem" stroke="#000000" stroke-width="3.25" stroke-linecap="round" stroke-linejoin="bevel" points="564.467,1112.04 564.467,1019.14"/>
<polyline class="Stem" stroke="#000000" stroke-width="3.25" stroke-linecap="round" stroke-linejoin="bevel" points="431.131,1112.04 431.131,1022.98"/>
<polyline class="Stem" stroke="#000000" stroke-width="3.25" stroke-linecap="round" stroke-linejoin="bevel" points="2721,624.537 2721,560.483"/>
<polyline class="Stem" stroke="#000000" stroke-width="3.25" stroke-linecap="round" stroke-linejoin="bevel" points="2579.24,624.537 2579.24,560.483"/>
<polyline class="Stem" stroke="#000000" stroke-width="3.25" stroke-linecap="round" stroke-linejoin="bevel" points="2490.64,637.037 2490.64,566.733"/>
<polyline class="Stem" stroke="#000000" stroke-width="3.25" stroke-linecap="round" stroke-linejoin="bevel" points="2402.04,649.537 2402.04,566.733"/>
<polyline class="Stem" stroke="#000000" stroke-width="3.25" stroke-linecap="round" stroke-linejoin="bevel" points="2260.29,637.037 2260.29,566.733"/>
<polyline class="Stem" stroke="#000000" stroke-width="3.25" stroke-linecap="round" stroke-linejoin="bevel" points="2075.03,624.537 2075.03,560.483"/>
<polyline class="Stem" stroke="#000000" stroke-width="3.25" stroke-linecap="round" stroke-linejoin="bevel" points="1923.78,624.537 1923.78,560.483"/>
<polyline class="Stem" stroke="#000000" stroke-width="3.25" stroke-linecap="round" stroke-linejoin="bevel" points="1799.58,621.428 1799.58,691.733"/>
<polyline class="Stem" stroke="#000000" stroke-width="3.25" stroke-linecap="round" stroke-linejoin="bevel" points="1615.15,608.928 1615.15,685.483"/>
<polyline class="Stem" stroke="#000000" stroke-width="3.25" stroke-linecap="round" stroke-linejoin="bevel" points="1469.05,624.537 1469.05,560.483"/>
<polyline class="Stem" stroke="#000000" stroke-width="3.25" stroke-linecap="round" stroke-linejoin="bevel" points="1327.3,624.537 1327.3,560.483"/>
<polyline class="Stem" stroke="#000000" stroke-width="3.25" stroke-linecap="round" stroke-linejoin="bevel" points="1238.7,637.037 1238.7,566.733"/>
<polyline class="Stem" stroke="#000000" stroke-width="3.25" stroke-linecap="round" stroke-linejoin="bevel" points="1150.1,649.537 1150.1,566.733"/>
<polyline class="Stem" stroke="#000000" stroke-width="3.25" stroke-linecap="round" stroke-linejoin="bevel" points="1008.34,637.037 1008.34,566.733"/>
<polyline class="Stem" stroke="#000000" stroke-width="3.25" stroke-linecap="round" stroke-linejoin="bevel" points="834.493,624.537 834.493,560.483"/>
<polyline class="Stem" stroke="#000000" stroke-width="3.25" stroke-linecap="round" stroke-linejoin="bevel" points="694.646,624.537 694.646,560.483"/>
<polyline class="Stem" stroke="#000000" stroke-width="3.25" stroke-linecap="round" stroke-linejoin="bevel" points="554.799,624.537 554.799,560.483"/>
<polyline class="Stem" stroke="#000000" stroke-width="3.25" stroke-linecap="round" stroke-linejoin="bevel" points="414.951,674.537 414.951,585.483"/>
<path class="Note" d="M2599.65,1140.47 C2602.77,1140.47 2605.41,1141.28 2607.57,1142.9 C2609.58,1144.67 2610.58,1146.88 2610.58,1149.55 C2610.58,1154.03 2608.28,1158.23 2603.66,1162.14 C2598.97,1166.05 2593.96,1168 2588.62,1168 C2585.49,1168 2582.85,1167.19 2580.71,1165.56 C2578.69,1163.8 2577.68,1161.59 2577.68,1158.92 C2577.68,1154.43 2580.02,1150.23 2584.71,1146.33 C2589.27,1142.42 2594.25,1140.47 2599.65,1140.47"/>
<path class="Note" d="M2465.97,1140.47 C2469.1,1140.47 2471.74,1141.28 2473.9,1142.9 C2475.91,1144.67 2476.91,1146.88 2476.91,1149.55 C2476.91,1154.03 2474.6,1158.23 2469.99,1162.14 C2465.3,1166.05 2460.29,1168 2454.94,1168 C2451.82,1168 2449.18,1167.19 2447.04,1165.56 C2445.02,1163.8 2444.01,1161.59 2444.01,1158.92 C2444.01,1154.43 2446.35,1150.23 2451.04,1146.33 C2455.6,1142.42 2460.58,1140.47 2465.97,1140.47"/>
<path class="Note" d="M2332.3,1152.97 C2335.43,1152.97 2338.07,1153.78 2340.22,1155.4 C2342.23,1157.17 2343.24,1159.38 2343.24,1162.05 C2343.24,1166.53 2340.93,1170.73 2336.32,1174.64 C2331.63,1178.55 2326.61,1180.5 2321.27,1180.5 C2318.15,1180.5 2315.51,1179.69 2313.36,1178.06 C2311.34,1176.3 2310.33,1174.09 2310.33,1171.42 C2310.33,1166.93 2312.68,1162.73 2317.36,1158.83 C2321.93,1154.92 2326.91,1152.97 2332.3,1152.97"/>
<path class="Note" d="M2205.47,1127.97 C2208.59,1127.97 2211.23,1128.78 2213.39,1130.4 C2215.4,1132.17 2216.4,1134.38 2216.4,1137.05 C2216.4,1141.53 2214.1,1145.73 2209.48,1149.64 C2204.8,1153.55 2199.78,1155.5 2194.44,1155.5 C2191.31,1155.5 2188.68,1154.69 2186.53,1153.06 C2184.51,1151.3 2183.5,1149.09 2183.5,1146.42 C2183.5,1141.93 2185.84,1137.73 2190.53,1133.83 C2195.09,1129.92 2200.07,1127.97 2205.47,1127.97"/>
<path class="Note" d="M2122.13,1115.47 C2125.26,1115.47 2127.9,1116.28 2130.05,1117.9 C2132.06,1119.67 2133.07,1121.88 2133.07,1124.55 C2133.07,1129.03 2130.76,1133.23 2126.15,1137.14 C2121.46,1141.05 2116.44,1143 2111.1,1143 C2107.98,1143 2105.34,1142.19 2103.19,1140.56 C2101.17,1138.8 2100.16,1136.59 2100.16,1133.92 C2100.16,1129.43 2102.51,1125.23 2107.19,1121.33 C2111.76,1117.42 2116.74,1115.47 2122.13,1115.47"/>
<path class="Note" d="M1988.8,1102.97 C1991.92,1102.97 1994.56,1103.78 1996.72,1105.4 C1998.73,1107.17 1999.73,1109.38 1999.73,1112.05 C1999.73,1116.53 1997.43,1120.73 1992.81,1124.64 C1988.12,1128.55 1983.11,1130.5 1977.76,1130.5 C1974.64,1130.5 1972,1129.69 1969.86,1128.06 C1967.84,1126.3 1966.83,1124.09 1966.83,1121.42 C1966.83,1116.93 1969.17,1112.73 1973.86,1108.83 C1978.42,1104.92 1983.4,1102.97 1988.8,1102.97"/>
<path class="Note" d="M1905.46,1090.47 C1908.59,1090.47 1911.23,1091.28 1913.38,1092.9 C1915.39,1094.67 1916.4,1096.88 1916.4,1099.55 C1916.4,1104.03 1914.09,1108.23 1909.48,1112.14 C1904.79,1116.05 1899.77,1118 1894.43,1118 C1891.3,1118 1888.67,1117.19 1886.52,1115.56 C1884.5,1113.8 1883.49,1111.59 1883.49,1108.92 C1883.49,1104.43 1885.84,1100.23 1890.52,1096.33 C1895.09,1092.42 1900.07,1090.47 1905.46,1090.47"/>
<path class="Note" d="M1822.13,1102.97 C1825.25,1102.97 1827.89,1103.78 1830.05,1105.4 C1832.06,1107.17 1833.06,1109.38 1833.06,1112.05 C1833.06,1116.53 1830.76,1120.73 1826.14,1124.64 C1821.45,1128.55 1816.44,1130.5 1811.09,1130.5 C1807.97,1130.5 1805.33,1129.69 1803.19,1128.06 C1801.17,1126.3 1800.16,1124.09 1800.16,1121.42 C1800.16,1116.93 1802.5,1112.73 1807.19,1108.83 C1811.75,1104.92 1816.73,1102.97 1822.13,1102.97"/>
<path class="Note" d="M1688.79,1102.97 C1691.91,1102.97 1694.56,1103.78 1696.71,1105.4 C1698.72,1107.17 1699.73,1109.38 1699.73,1112.05 C1699.73,1116.53 1697.42,1120.73 1692.81,1124.64 C1688.12,1128.55 1683.1,1130.5 1677.76,1130.5 C1674.63,1130.5 1672,1129.69 1669.85,1128.06 C1667.83,1126.3 1666.82,1124.09 1666.82,1121.42 C1666.82,1116.93 1669.16,1112.73 1673.85,1108.83 C1678.41,1104.92 1683.39,1102.97 1688.79,1102.97"/>
<path class="Note" d="M1564.81,1127.97 C1567.93,1127.97 1570.57,1128.78 1572.73,1130.4 C1574.74,1132.17 1575.75,1134.38 1575.75,1137.05 C1575.75,1141.53 1573.44,1145.73 1568.82,1149.64 C1564.14,1153.55 1559.12,1155.5 1553.78,1155.5 C1550.65,1155.5 1548.02,1154.69 1545.87,1153.06 C1543.85,1151.3 1542.84,1149.09 1542.84,1146.42 C1542.84,1141.93 1545.18,1137.73 1549.87,1133.83 C1554.43,1129.92 1559.41,1127.97 1564.81,1127.97"/>
<path class="Note" d="M1389.26,1115.47 C1392.38,1115.47 1395.02,1116.28 1397.18,1117.9 C1399.19,1119.67 1400.19,1121.88 1400.19,1124.55 C1400.19,1129.03 1397.89,1133.23 1393.27,1137.14 C1388.58,1141.05 1383.57,1143 1378.23,1143 C1375.1,1143 1372.46,1142.19 1370.32,1140.56 C1368.3,1138.8 1367.29,1136.59 1367.29,1133.92 C1367.29,1129.43 1369.63,1125.23 1374.32,1121.33 C1378.88,1117.42 1383.86,1115.47 1389.26,1115.47"/>
<path class="Note" d="M1299.27,1127.97 C1302.4,1127.97 1305.04,1128.78 1307.2,1130.4 C1309.21,1132.17 1310.21,1134.38 1310.21,1137.05 C1310.21,1141.53 1307.9,1145.73 1303.29,1149.64 C1298.6,1153.55 1293.59,1155.5 1288.24,1155.5 C1285.12,1155.5 1282.48,1154.69 1280.34,1153.06 C1278.32,1151.3 1277.31,1149.09 1277.31,1146.42 C1277.31,1141.93 1279.65,1137.73 1284.34,1133.83 C1288.9,1129.92 1293.88,1127.97 1299.27,1127.97"/>
<path class="Note" d="M1209.29,1140.47 C1212.42,1140.47 1215.06,1141.28 1217.21,1142.9 C1219.23,1144.67 1220.23,1146.88 1220.23,1149.55 C1220.23,1154.03 1217.92,1158.23 1213.31,1162.14 C1208.62,1166.05 1203.61,1168 1198.26,1168 C1195.14,1168 1192.5,1167.19 1190.36,1165.56 C1188.33,1163.8 1187.32,1161.59 1187.32,1158.92 C1187.32,1154.43 1189.67,1150.23 1194.36,1146.33 C1198.92,1142.42 1203.9,1140.47 1209.29,1140.47"/>
<path class="Note" d="M1065.32,1152.97 C1068.45,1152.97 1071.09,1153.78 1073.24,1155.4 C1075.25,1157.17 1076.26,1159.38 1076.26,1162.05 C1076.26,1166.53 1073.95,1170.73 1069.34,1174.64 C1064.65,1178.55 1059.64,1180.5 1054.29,1180.5 C1051.17,1180.5 1048.53,1179.69 1046.39,1178.06 C1044.36,1176.3 1043.35,1174.09 1043.35,1171.42 C1043.35,1166.93 1045.7,1162.73 1050.39,1158.83 C1054.95,1154.92 1059.93,1152.97 1065.32,1152.97"/>
<path class="Note" d="M938.487,1127.97 C941.612,1127.97 944.253,1128.78 946.409,1130.4 C948.42,1132.17 949.425,1134.38 949.425,1137.05 C949.425,1141.53 947.118,1145.73 942.503,1149.64 C937.816,1153.55 932.8,1155.5 927.456,1155.5 C924.331,1155.5 921.696,1154.69 919.55,1153.06 C917.529,1151.3 916.519,1149.09 916.519,1146.42 C916.519,1141.93 918.862,1137.73 923.55,1133.83 C928.112,1129.92 933.092,1127.97 938.487,1127.97"/>
<path class="Note" d="M855.153,1115.47 C858.278,1115.47 860.918,1116.28 863.074,1117.9 C865.085,1119.67 866.09,1121.88 866.09,1124.55 C866.09,1129.03 863.783,1133.23 859.168,1137.14 C854.481,1141.05 849.465,1143 844.121,1143 C840.996,1143 838.361,1142.19 836.215,1140.56 C834.194,1138.8 833.184,1136.59 833.184,1133.92 C833.184,1129.43 835.528,1125.23 840.215,1121.33 C844.778,1117.42 849.757,1115.47 855.153,1115.47"/>
<path class="Note" d="M721.817,1102.97 C724.942,1102.97 727.582,1103.78 729.738,1105.4 C731.749,1107.17 732.754,1109.38 732.754,1112.05 C732.754,1116.53 730.447,1120.73 725.832,1124.64 C721.145,1128.55 716.129,1130.5 710.785,1130.5 C707.66,1130.5 705.025,1129.69 702.879,1128.06 C700.858,1126.3 699.848,1124.09 699.848,1121.42 C699.848,1116.93 702.192,1112.73 706.879,1108.83 C711.442,1104.92 716.421,1102.97 721.817,1102.97"/>
<path class="Note" d="M638.482,1090.47 C641.607,1090.47 644.247,1091.28 646.403,1092.9 C648.414,1094.67 649.419,1096.88 649.419,1099.55 C649.419,1104.03 647.112,1108.23 642.497,1112.14 C637.81,1116.05 632.794,1118 627.45,1118 C624.325,1118 621.69,1117.19 619.544,1115.56 C617.523,1113.8 616.513,1111.59 616.513,1108.92 C616.513,1104.43 618.857,1100.23 623.544,1096.33 C628.107,1092.42 633.086,1090.47 638.482,1090.47"/>
<path class="Note" d="M555.147,1102.97 C558.272,1102.97 560.912,1103.78 563.068,1105.4 C565.079,1107.17 566.084,1109.38 566.084,1112.05 C566.084,1116.53 563.777,1120.73 559.162,1124.64 C554.475,1128.55 549.459,1130.5 544.115,1130.5 C540.99,1130.5 538.355,1129.69 536.209,1128.06 C534.188,1126.3 533.178,1124.09 533.178,1121.42 C533.178,1116.93 535.522,1112.73 540.209,1108.83 C544.772,1104.92 549.751,1102.97 555.147,1102.97"/>
<path class="Note" d="M421.811,1102.97 C424.936,1102.97 427.576,1103.78 429.732,1105.4 C431.743,1107.17 432.748,1109.38 432.748,1112.05 C432.748,1116.53 430.441,1120.73 425.826,1124.64 C421.139,1128.55 416.123,1130.5 410.779,1130.5 C407.654,1130.5 405.019,1129.69 402.873,1128.06 C400.852,1126.3 399.842,1124.09 399.842,1121.42 C399.842,1116.93 402.186,1112.73 406.873,1108.83 C411.436,1104.92 416.415,1102.97 421.811,1102.97"/>
<path class="Note" d="M2711.68,615.467 C2714.8,615.467 2717.44,616.279 2719.6,617.904 C2721.61,619.665 2722.62,621.878 2722.62,624.545 C2722.62,629.035 2720.31,633.233 2715.69,637.139 C2711.01,641.045 2705.99,642.998 2700.65,642.998 C2697.52,642.998 2694.89,642.186 2692.74,640.561 C2690.72,638.8 2689.71,636.587 2689.71,633.92 C2689.71,629.43 2692.05,625.233 2696.74,621.326 C2701.3,617.42 2706.28,615.467 2711.68,615.467"/>
<path class="Note" d="M2569.92,615.467 C2573.05,615.467 2575.69,616.279 2577.84,617.904 C2579.85,619.665 2580.86,621.878 2580.86,624.545 C2580.86,629.035 2578.55,633.233 2573.94,637.139 C2569.25,641.045 2564.23,642.998 2558.89,642.998 C2555.76,642.998 2553.13,642.186 2550.98,640.561 C2548.96,638.8 2547.95,636.587 2547.95,633.92 C2547.95,629.43 2550.3,625.233 2554.98,621.326 C2559.55,617.42 2564.53,615.467 2569.92,615.467"/>
<path class="Note" d="M2481.32,627.967 C2484.45,627.967 2487.09,628.779 2489.24,630.404 C2491.25,632.165 2492.26,634.378 2492.26,637.045 C2492.26,641.535 2489.95,645.733 2485.34,649.639 C2480.65,653.545 2475.64,655.498 2470.29,655.498 C2467.17,655.498 2464.53,654.686 2462.39,653.061 C2460.36,651.3 2459.35,649.087 2459.35,646.42 C2459.35,641.93 2461.7,637.733 2466.39,633.826 C2470.95,629.92 2475.93,627.967 2481.32,627.967"/>
<path class="Note" d="M2392.72,640.467 C2395.85,640.467 2398.49,641.279 2400.65,642.904 C2402.66,644.665 2403.66,646.878 2403.66,649.545 C2403.66,654.035 2401.35,658.233 2396.74,662.139 C2392.05,666.045 2387.04,667.998 2381.69,667.998 C2378.57,667.998 2375.93,667.186 2373.79,665.561 C2371.77,663.8 2370.76,661.587 2370.76,658.92 C2370.76,654.43 2373.1,650.233 2377.79,646.326 C2382.35,642.42 2387.33,640.467 2392.72,640.467"/>
<path class="Note" d="M2250.97,627.967 C2254.09,627.967 2256.73,628.779 2258.89,630.404 C2260.9,632.165 2261.9,634.378 2261.9,637.045 C2261.9,641.535 2259.6,645.733 2254.98,649.639 C2250.29,653.545 2245.28,655.498 2239.94,655.498 C2236.81,655.498 2234.17,654.686 2232.03,653.061 C2230.01,651.3 2229,649.087 2229,646.42 C2229,641.93 2231.34,637.733 2236.03,633.826 C2240.59,629.92 2245.57,627.967 2250.97,627.967"/>
<path class="Note" d="M2065.71,615.467 C2068.84,615.467 2071.48,616.279 2073.63,617.904 C2075.64,619.665 2076.65,621.878 2076.65,624.545 C2076.65,629.035 2074.34,633.233 2069.73,637.139 C2065.04,641.045 2060.02,642.998 2054.68,642.998 C2051.56,642.998 2048.92,642.186 2046.77,640.561 C2044.75,638.8 2043.74,636.587 2043.74,633.92 C2043.74,629.43 2046.09,625.233 2050.77,621.326 C2055.34,617.42 2060.32,615.467 2065.71,615.467"/>
<path class="Note" d="M1914.46,615.467 C1917.58,615.467 1920.22,616.279 1922.38,617.904 C1924.39,619.665 1925.4,621.878 1925.4,624.545 C1925.4,629.035 1923.09,633.233 1918.47,637.139 C1913.79,641.045 1908.77,642.998 1903.43,642.998 C1900.3,642.998 1897.67,642.186 1895.52,640.561 C1893.5,638.8 1892.49,636.587 1892.49,633.92 C1892.49,629.43 1894.83,625.233 1899.52,621.326 C1904.08,617.42 1909.06,615.467 1914.46,615.467"/>
<path class="Note" d="M1819.92,602.967 C1823.05,602.967 1825.69,603.779 1827.85,605.404 C1829.86,607.165 1830.86,609.378 1830.86,612.045 C1830.86,616.535 1828.55,620.733 1823.94,624.639 C1819.25,628.545 1814.24,630.498 1808.89,630.498 C1805.77,630.498 1803.13,629.686 1800.99,628.061 C1798.97,626.3 1797.96,624.087 1797.96,621.42 C1797.96,616.93 1800.3,612.733 1804.99,608.826 C1809.55,604.92 1814.53,602.967 1819.92,602.967"/>
<path class="Note" d="M1635.49,590.467 C1638.62,590.467 1641.26,591.279 1643.41,592.904 C1645.42,594.665 1646.43,596.878 1646.43,599.545 C1646.43,604.035 1644.12,608.233 1639.51,612.139 C1634.82,616.045 1629.8,617.998 1624.46,617.998 C1621.33,617.998 1618.7,617.186 1616.55,615.561 C1614.53,613.8 1613.52,611.587 1613.52,608.92 C1613.52,604.43 1615.87,600.233 1620.55,596.326 C1625.12,592.42 1630.09,590.467 1635.49,590.467"/>
<path class="Note" d="M1459.73,615.467 C1462.86,615.467 1465.5,616.279 1467.65,617.904 C1469.67,619.665 1470.67,621.878 1470.67,624.545 C1470.67,629.035 1468.36,633.233 1463.75,637.139 C1459.06,641.045 1454.05,642.998 1448.7,642.998 C1445.58,642.998 1442.94,642.186 1440.8,640.561 C1438.77,638.8 1437.76,636.587 1437.76,633.92 C1437.76,629.43 1440.11,625.233 1444.8,621.326 C1449.36,617.42 1454.34,615.467 1459.73,615.467"/>
<path class="Note" d="M1317.98,615.467 C1321.1,615.467 1323.74,616.279 1325.9,617.904 C1327.91,619.665 1328.91,621.878 1328.91,624.545 C1328.91,629.035 1326.61,633.233 1321.99,637.139 C1317.3,641.045 1312.29,642.998 1306.94,642.998 C1303.82,642.998 1301.18,642.186 1299.04,640.561 C1297.02,638.8 1296.01,636.587 1296.01,633.92 C1296.01,629.43 1298.35,625.233 1303.04,621.326 C1307.6,617.42 1312.58,615.467 1317.98,615.467"/>
<path class="Note" d="M1229.38,627.967 C1232.5,627.967 1235.14,628.779 1237.3,630.404 C1239.31,632.165 1240.31,634.378 1240.31,637.045 C1240.31,641.535 1238.01,645.733 1233.39,649.639 C1228.7,653.545 1223.69,655.498 1218.35,655.498 C1215.22,655.498 1212.59,654.686 1210.44,653.061 C1208.42,651.3 1207.41,649.087 1207.41,646.42 C1207.41,641.93 1209.75,637.733 1214.44,633.826 C1219,629.92 1223.98,627.967 1229.38,627.967"/>
<path class="Note" d="M1140.78,640.467 C1143.9,640.467 1146.54,641.279 1148.7,642.904 C1150.71,644.665 1151.72,646.878 1151.72,649.545 C1151.72,654.035 1149.41,658.233 1144.79,662.139 C1140.11,666.045 1135.09,667.998 1129.75,667.998 C1126.62,667.998 1123.99,667.186 1121.84,665.561 C1119.82,663.8 1118.81,661.587 1118.81,658.92 C1118.81,654.43 1121.15,650.233 1125.84,646.326 C1130.4,642.42 1135.38,640.467 1140.78,640.467"/>
<path class="Note" d="M999.021,627.967 C1002.15,627.967 1004.79,628.779 1006.94,630.404 C1008.95,632.165 1009.96,634.378 1009.96,637.045 C1009.96,641.535 1007.65,645.733 1003.04,649.639 C998.349,653.545 993.333,655.498 987.989,655.498 C984.864,655.498 982.229,654.686 980.083,653.061 C978.062,651.3 977.052,649.087 977.052,646.42 C977.052,641.93 979.396,637.733 984.083,633.826 C988.646,629.92 993.625,627.967 999.021,627.967"/>
<path class="Note" d="M825.173,615.467 C828.298,615.467 830.939,616.279 833.095,617.904 C835.105,619.665 836.111,621.878 836.111,624.545 C836.111,629.035 833.803,633.233 829.189,637.139 C824.501,641.045 819.486,642.998 814.142,642.998 C811.017,642.998 808.381,642.186 806.236,640.561 C804.215,638.8 803.204,636.587 803.204,633.92 C803.204,629.43 805.548,625.233 810.236,621.326 C814.798,617.42 819.777,615.467 825.173,615.467"/>
<path class="Note" d="M685.326,615.467 C688.451,615.467 691.091,616.279 693.248,617.904 C695.258,619.665 696.263,621.878 696.263,624.545 C696.263,629.035 693.956,633.233 689.341,637.139 C684.654,641.045 679.638,642.998 674.294,642.998 C671.169,642.998 668.534,642.186 666.388,640.561 C664.367,638.8 663.357,636.587 663.357,633.92 C663.357,629.43 665.701,625.233 670.388,621.326 C674.951,617.42 679.93,615.467 685.326,615.467"/>
<path class="Note" d="M545.478,615.467 C548.603,615.467 551.244,616.279 553.4,617.904 C555.411,619.665 556.416,621.878 556.416,624.545 C556.416,629.035 554.108,633.233 549.494,637.139 C544.806,641.045 539.791,642.998 534.447,642.998 C531.322,642.998 528.687,642.186 526.541,640.561 C524.52,638.8 523.51,636.587 523.51,633.92 C523.51,629.43 525.853,625.233 530.541,621.326 C535.103,617.42 540.082,615.467 545.478,615.467"/>
<path class="Note" d="M405.631,665.467 C408.756,665.467 411.396,666.279 413.553,667.904 C415.563,669.665 416.568,671.878 416.568,674.545 C416.568,679.035 414.261,683.233 409.646,687.139 C404.959,691.045 399.943,692.998 394.6,692.998 C391.475,692.998 388.839,692.186 386.693,690.561 C384.673,688.8 383.662,686.587 383.662,683.92 C383.662,679.431 386.006,675.233 390.693,671.326 C395.256,667.42 400.235,665.467 405.631,665.467"/>
<path class="Clef" d="M194.451,1091.14 C194.451,1091.14 194.649,1091.14 195.045,1091.14 C195.305,1091.08 195.529,1091.05 195.717,1091.05 C203.008,1091.05 208.998,1093.62 213.685,1098.76 C218.373,1103.84 220.717,1109.76 220.717,1116.53 C220.717,1124.94 217.237,1131.77 210.279,1137.05 C208.456,1138.48 206.076,1139.65 203.139,1140.56 C203.472,1144.79 203.639,1148.21 203.639,1150.81 C203.639,1151.33 203.571,1153.22 203.435,1156.48 C203.175,1162.53 201.092,1167.77 197.185,1172.2 C193.415,1176.57 188.727,1178.75 183.123,1178.75 C177.852,1178.75 173.362,1176.89 169.654,1173.19 C165.935,1169.4 164.076,1164.85 164.076,1159.51 C164.076,1156.71 165.154,1154.33 167.31,1152.37 C169.519,1150.43 172.086,1149.45 175.014,1149.45 C177.618,1149.45 179.8,1150.46 181.56,1152.48 C183.383,1154.37 184.295,1156.71 184.295,1159.51 C184.295,1162.05 183.383,1164.22 181.56,1166.05 C179.737,1167.87 177.555,1168.78 175.014,1168.78 C173.972,1168.78 172.967,1168.59 171.998,1168.2 C174.862,1172.43 178.67,1174.55 183.42,1174.55 C187.909,1174.55 191.586,1172.72 194.451,1169.08 C197.451,1165.31 199.081,1160.91 199.342,1155.89 C199.467,1152.76 199.529,1150.98 199.529,1150.53 C199.529,1146.88 199.399,1143.89 199.139,1141.55 C195.889,1142.07 192.993,1142.33 190.451,1142.33 C181.399,1142.33 173.685,1138.74 167.31,1131.58 C161.06,1124.35 157.935,1115.75 157.935,1105.8 C157.935,1103.71 158.128,1101.6 158.514,1099.45 C158.909,1097.69 159.399,1095.77 159.982,1093.69 C160.305,1092.51 161.185,1090.62 162.623,1088.01 C163.144,1087.23 163.73,1086.26 164.381,1085.08 C165.032,1083.91 165.487,1083.13 165.748,1082.75 C166.394,1081.45 167.659,1079.69 169.545,1077.47 C170.066,1076.88 170.605,1076.24 171.162,1075.52 C171.719,1074.81 172.193,1074.22 172.584,1073.76 C172.974,1073.31 173.266,1072.95 173.459,1072.69 C173.652,1072.43 175.118,1070.7 177.857,1067.51 C178.503,1066.86 179.136,1066.16 179.756,1065.41 C180.375,1064.67 180.881,1064.08 181.271,1063.65 C181.662,1063.23 181.956,1062.92 182.154,1062.73 C179.81,1054.98 178.342,1048.8 177.748,1044.17 C177.3,1040.46 177.076,1035.38 177.076,1028.94 C177.076,1023.27 178.378,1017.96 180.982,1013.01 C183.514,1007.88 187.06,1003.68 191.623,1000.42 C191.883,1000.22 192.206,1000.12 192.592,1000.12 C193.05,1000.12 193.378,1000.22 193.576,1000.42 C197.086,1004.65 200.112,1010.15 202.654,1016.92 C205.258,1023.69 206.56,1029.85 206.56,1035.39 C206.56,1041.64 205.066,1047.5 202.076,1052.97 C198.691,1058.76 194.326,1064.75 188.982,1070.94 C190.347,1075.23 192.17,1081.96 194.451,1091.14 M202.748,1136.56 C206.133,1135.32 208.774,1133.21 210.67,1130.22 C212.753,1127.35 213.795,1124.13 213.795,1120.55 C213.795,1115.92 212.232,1111.82 209.107,1108.23 C205.909,1104.52 201.836,1102.44 196.889,1101.98 C199.691,1115.72 201.644,1127.25 202.748,1136.56 M164.967,1114 C164.967,1120.45 167.571,1126.11 172.779,1131 C178.112,1135.75 184.102,1138.12 190.748,1138.12 C193.477,1138.12 196.144,1137.93 198.748,1137.53 C197.706,1127.63 195.654,1115.78 192.592,1101.98 C188.883,1102.38 185.925,1103.68 183.717,1105.89 C181.56,1108.17 180.482,1110.74 180.482,1113.61 C180.482,1118.56 183.123,1122.56 188.404,1125.62 C188.852,1126.08 189.076,1126.57 189.076,1127.09 C189.076,1127.61 188.852,1128.1 188.404,1128.55 C188.008,1129 187.519,1129.23 186.935,1129.23 C186.873,1129.23 186.581,1129.17 186.06,1129.05 C182.342,1127.02 179.477,1124.42 177.467,1121.23 C175.571,1117.84 174.623,1114.42 174.623,1110.97 C174.623,1106.48 176.024,1102.41 178.826,1098.76 C181.753,1095.12 185.56,1092.77 190.248,1091.73 C188.425,1084.44 186.93,1078.74 185.764,1074.64 C184.722,1075.82 183.469,1077.23 182.006,1078.89 C180.542,1080.55 179.68,1081.54 179.42,1081.87 C177.076,1084.93 175.284,1087.3 174.045,1089 C171.826,1092.06 170.196,1094.7 169.154,1096.9 C168.05,1099.38 167.076,1102.09 166.232,1105.01 C165.389,1107.82 164.967,1110.81 164.967,1114 M197.576,1014.69 C192.691,1017.09 188.852,1020.54 186.06,1025.03 C183.196,1029.65 181.764,1034.63 181.764,1039.97 C181.764,1044.65 182.935,1050.97 185.279,1058.92 C189.967,1053.25 193.482,1048.01 195.826,1043.2 C198.295,1038.12 199.529,1032.81 199.529,1027.28 C199.529,1023.11 198.878,1018.92 197.576,1014.69"/>
<path class="Clef" d="M194.451,616.139 C194.451,616.139 194.649,616.139 195.045,616.139 C195.305,616.076 195.529,616.045 195.717,616.045 C203.008,616.045 208.998,618.618 213.685,623.764 C218.373,628.837 220.717,634.759 220.717,641.529 C220.717,649.936 217.237,656.774 210.279,662.045 C208.456,663.483 206.076,664.654 203.139,665.561 C203.472,669.79 203.639,673.207 203.639,675.811 C203.639,676.332 203.571,678.222 203.435,681.483 C203.175,687.535 201.092,692.774 197.185,697.201 C193.415,701.566 188.727,703.748 183.123,703.748 C177.852,703.748 173.362,701.894 169.654,698.186 C165.935,694.404 164.076,689.847 164.076,684.514 C164.076,681.712 165.154,679.332 167.31,677.373 C169.519,675.425 172.086,674.451 175.014,674.451 C177.618,674.451 179.8,675.462 181.56,677.483 C183.383,679.368 184.295,681.712 184.295,684.514 C184.295,687.045 183.383,689.222 181.56,691.045 C179.737,692.868 177.555,693.779 175.014,693.779 C173.972,693.779 172.967,693.587 171.998,693.201 C174.862,697.43 178.67,699.545 183.42,699.545 C187.909,699.545 191.586,697.722 194.451,694.076 C197.451,690.305 199.081,685.91 199.342,680.889 C199.467,677.764 199.529,675.977 199.529,675.529 C199.529,671.884 199.399,668.889 199.139,666.545 C195.889,667.066 192.993,667.326 190.451,667.326 C181.399,667.326 173.685,663.743 167.31,656.576 C161.06,649.347 157.935,640.753 157.935,630.795 C157.935,628.712 158.128,626.597 158.514,624.451 C158.909,622.691 159.399,620.769 159.982,618.686 C160.305,617.509 161.185,615.618 162.623,613.014 C163.144,612.233 163.73,611.256 164.381,610.084 C165.032,608.912 165.487,608.134 165.748,607.748 C166.394,606.446 167.659,604.686 169.545,602.467 C170.066,601.884 170.605,601.235 171.162,600.522 C171.719,599.808 172.193,599.222 172.584,598.764 C172.974,598.305 173.266,597.946 173.459,597.686 C173.652,597.425 175.118,595.701 177.857,592.514 C178.503,591.858 179.136,591.157 179.756,590.412 C180.375,589.667 180.881,589.082 181.271,588.654 C181.662,588.227 181.956,587.92 182.154,587.733 C179.81,579.983 178.342,573.795 177.748,569.17 C177.3,565.462 177.076,560.384 177.076,553.936 C177.076,548.269 178.378,542.962 180.982,538.014 C183.514,532.878 187.06,528.68 191.623,525.42 C191.883,525.222 192.206,525.123 192.592,525.123 C193.05,525.123 193.378,525.222 193.576,525.42 C197.086,529.649 200.112,535.149 202.654,541.92 C205.258,548.691 206.56,554.847 206.56,560.389 C206.56,566.639 205.066,572.498 202.076,577.967 C198.691,583.759 194.326,589.748 188.982,595.936 C190.347,600.227 192.17,606.962 194.451,616.139 M202.748,661.561 C206.133,660.321 208.774,658.207 210.67,655.217 C212.753,652.352 213.795,649.128 213.795,645.545 C213.795,640.92 212.232,636.816 209.107,633.233 C205.909,629.524 201.836,627.441 196.889,626.983 C199.691,640.722 201.644,652.248 202.748,661.561 M164.967,638.998 C164.967,645.446 167.571,651.113 172.779,655.998 C178.112,660.748 184.102,663.123 190.748,663.123 C193.477,663.123 196.144,662.925 198.748,662.529 C197.706,652.634 195.654,640.785 192.592,626.983 C188.883,627.378 185.925,628.68 183.717,630.889 C181.56,633.17 180.482,635.743 180.482,638.608 C180.482,643.555 183.123,647.561 188.404,650.623 C188.852,651.082 189.076,651.571 189.076,652.092 C189.076,652.613 188.852,653.097 188.404,653.545 C188.008,654.003 187.519,654.233 186.935,654.233 C186.873,654.233 186.581,654.17 186.06,654.045 C182.342,652.024 179.477,649.42 177.467,646.233 C175.571,642.837 174.623,639.415 174.623,635.967 C174.623,631.477 176.024,627.41 178.826,623.764 C181.753,620.118 185.56,617.774 190.248,616.733 C188.425,609.441 186.93,603.743 185.764,599.639 C184.722,600.816 183.469,602.233 182.006,603.889 C180.542,605.545 179.68,606.54 179.42,606.873 C177.076,609.925 175.284,612.3 174.045,613.998 C171.826,617.061 170.196,619.696 169.154,621.904 C168.05,624.384 167.076,627.087 166.232,630.014 C165.389,632.816 164.967,635.811 164.967,638.998 M197.576,539.686 C192.691,542.092 188.852,545.54 186.06,550.029 C183.196,554.654 181.764,559.634 181.764,564.967 C181.764,569.654 182.935,575.972 185.279,583.92 C189.967,578.253 193.482,573.014 195.826,568.201 C198.295,563.118 199.529,557.811 199.529,552.279 C199.529,548.113 198.878,543.915 197.576,539.686"/>
<path class="KeySig" d="M250.85,1087.62 L250.85,1095.34 C250.85,1098.08 250.98,1100.26 251.24,1101.89 C253.386,1100.07 254.917,1098.7 255.834,1097.8 C256.876,1096.75 257.917,1095.32 258.959,1093.49 C260.001,1091.66 260.521,1089.84 260.521,1088.01 C260.521,1086.19 260.131,1084.63 259.35,1083.33 C258.568,1082.02 257.527,1081.37 256.225,1081.37 C254.662,1081.37 253.36,1081.96 252.318,1083.14 C251.339,1084.44 250.85,1085.94 250.85,1087.62 M246.74,1105.5 L245.475,1046.03 C246.391,1045.51 247.305,1045.25 248.217,1045.25 C249.128,1045.25 250.037,1045.51 250.943,1046.03 L250.162,1080.5 C252.829,1078.22 255.891,1077.08 259.35,1077.08 C261.881,1077.08 263.993,1078.12 265.685,1080.2 C267.378,1082.28 268.225,1084.67 268.225,1087.34 C268.225,1089.03 267.672,1090.82 266.568,1092.72 C265.527,1094.47 264.422,1095.83 263.256,1096.81 C262.6,1097.33 260.938,1098.63 258.271,1100.72 C257.49,1101.3 256.563,1101.98 255.49,1102.76 C254.417,1103.55 253.751,1104.03 253.49,1104.23 C253.032,1104.49 252.605,1105.01 252.209,1105.8 C251.761,1106.45 251.24,1107 250.646,1107.45 C250.198,1107.85 249.649,1108.05 248.998,1108.05 C248.347,1108.05 247.823,1107.82 247.428,1107.36 C246.969,1106.9 246.74,1106.28 246.74,1105.5"/>
<path class="KeySig" d="M250.85,612.623 L250.85,620.342 C250.85,623.082 250.98,625.264 251.24,626.889 C253.386,625.066 254.917,623.701 255.834,622.795 C256.876,621.753 257.917,620.318 258.959,618.49 C260.001,616.662 260.521,614.837 260.521,613.014 C260.521,611.191 260.131,609.628 259.35,608.326 C258.568,607.024 257.527,606.373 256.225,606.373 C254.662,606.373 253.36,606.962 252.318,608.139 C251.339,609.441 250.85,610.936 250.85,612.623 M246.74,630.498 L245.475,571.029 C246.391,570.509 247.305,570.248 248.217,570.248 C249.128,570.248 250.037,570.509 250.943,571.029 L250.162,605.498 C252.829,603.217 255.891,602.076 259.35,602.076 C261.881,602.076 263.993,603.118 265.685,605.201 C267.378,607.285 268.225,609.665 268.225,612.342 C268.225,614.029 267.672,615.821 266.568,617.717 C265.527,619.467 264.422,620.832 263.256,621.811 C262.6,622.332 260.938,623.634 258.271,625.717 C257.49,626.3 256.563,626.983 255.49,627.764 C254.417,628.545 253.751,629.035 253.49,629.233 C253.032,629.493 252.605,630.014 252.209,630.795 C251.761,631.451 251.24,632.003 250.646,632.451 C250.198,632.847 249.649,633.045 248.998,633.045 C248.347,633.045 247.823,632.816 247.428,632.358 C246.969,631.899 246.74,631.279 246.74,630.498"/>
<path class="TimeSig" d="M318.412,616.733 C316.454,616.733 314.693,616.376 313.131,615.662 C311.568,614.949 310.464,614.201 309.818,613.42 C308.964,612.441 308.115,611.691 307.271,611.17 C306.23,610.451 305.157,610.092 304.053,610.092 C302.355,610.092 300.954,610.613 299.85,611.654 C298.683,612.634 298.032,613.967 297.896,615.654 C297.771,616.373 297.381,616.733 296.725,616.733 C295.943,616.733 295.553,616.373 295.553,615.654 C295.553,613.123 296.141,610.847 297.318,608.826 C298.485,606.743 299.917,605.019 301.615,603.654 C303.042,602.415 304.928,600.915 307.271,599.154 C307.667,598.831 308.498,598.149 309.764,597.108 C311.029,596.066 312.089,595.186 312.943,594.467 C314.631,593.04 316.094,591.149 317.334,588.795 C318.501,586.451 319.084,583.915 319.084,581.186 C319.084,577.863 318.532,574.998 317.428,572.592 C316.261,570.248 314.469,569.076 312.053,569.076 C310.563,569.076 309.36,569.399 308.443,570.045 C307.464,570.701 306.975,571.581 306.975,572.686 C306.975,573.602 307.56,574.743 308.732,576.108 C309.904,577.472 310.49,578.613 310.49,579.529 C310.49,581.477 309.808,583.134 308.443,584.498 C307.141,585.8 305.547,586.451 303.662,586.451 C301.704,586.451 300.042,585.769 298.678,584.404 C297.376,582.977 296.725,581.352 296.725,579.529 C296.725,575.811 298.222,572.748 301.217,570.342 C304.212,567.936 307.823,566.733 312.053,566.733 C317.073,566.733 321.438,568.097 325.146,570.826 C328.855,573.43 330.709,576.884 330.709,581.186 C330.709,584.113 330.188,586.618 329.146,588.701 C328.167,590.92 326.704,592.649 324.756,593.889 C322.537,595.316 320.615,596.42 318.99,597.201 C316.709,598.243 314.433,599.222 312.162,600.139 C309.422,601.243 307.303,602.285 305.803,603.264 C306.657,603.066 307.537,602.967 308.443,602.967 C311.443,602.967 314.568,603.941 317.818,605.889 C321.141,607.847 323.714,608.826 325.537,608.826 C326.641,608.826 327.521,608.628 328.178,608.233 C328.823,607.847 329.245,607.425 329.443,606.967 C329.704,606.321 329.933,605.868 330.131,605.608 C330.391,605.212 330.714,605.014 331.1,605.014 C331.881,605.014 332.271,605.404 332.271,606.186 C332.271,608.009 330.969,610.222 328.365,612.826 C325.823,615.43 322.506,616.733 318.412,616.733"/>
<path class="TimeSig" d="M316.225,618.084 C318.172,618.084 319.831,617.858 321.201,617.404 C322.571,616.951 323.448,616.725 323.834,616.725 C324.292,616.725 324.652,616.855 324.912,617.115 C325.11,617.303 325.24,617.527 325.303,617.787 C325.303,617.923 325.235,618.121 325.1,618.381 L296.693,651.397 L313.381,651.397 L313.381,638.303 C313.381,637.459 313.61,636.74 314.068,636.147 C314.85,635.501 315.501,635.11 316.021,634.975 C316.865,634.589 317.907,633.678 319.146,632.24 C320.188,631.074 321.428,629.027 322.865,626.1 C323.053,625.704 323.344,625.506 323.74,625.506 C324.521,625.506 324.975,625.964 325.1,626.881 L325.1,651.397 L332.24,651.397 C333.146,651.397 333.667,651.881 333.803,652.85 C333.803,653.829 333.282,654.319 332.24,654.319 L325.1,654.319 L325.1,655.1 C325.1,657.704 325.751,659.917 327.053,661.74 C328.553,663.563 330.313,664.475 332.334,664.475 C333.115,664.475 333.506,664.865 333.506,665.647 C333.506,666.428 333.115,666.819 332.334,666.819 C330.969,666.819 328.756,666.626 325.693,666.24 C322.891,665.782 320.709,665.553 319.146,665.553 C317.521,665.553 315.339,665.782 312.6,666.24 C309.672,666.626 307.495,666.819 306.068,666.819 C305.287,666.819 304.896,666.428 304.896,665.647 C304.896,664.865 305.287,664.475 306.068,664.475 C308.079,664.475 309.834,663.563 311.334,661.74 C312.698,659.855 313.381,657.641 313.381,655.1 L313.381,654.319 L296.693,654.319 C295.579,654.319 294.797,654.058 294.35,653.537 C293.818,653.152 293.553,652.631 293.553,651.975 C293.553,651.777 294.042,651.095 295.021,649.928 C296.136,648.626 297.308,647.032 298.537,645.147 C299.975,642.928 301.344,640.647 302.646,638.303 C304.073,635.636 305.214,632.574 306.068,629.115 C307.037,625.605 307.521,622.027 307.521,618.381 C307.521,617.339 307.98,616.819 308.896,616.819 C309.094,616.819 309.516,616.917 310.162,617.115 C310.36,617.178 310.769,617.274 311.389,617.404 C312.008,617.535 312.511,617.662 312.896,617.787 C314.073,617.985 315.183,618.084 316.225,618.084"/>
<path class="Beam" fill-rule="evenodd" d="M2340,1085.63 L2476.92,1079.23 L2476.92,1091.74 L2340,1098.14 L2340,1085.63 "/>
<path class="Beam" fill-rule="evenodd" d="M1996.49,1035.07 L2216.41,1060.44 L2216.41,1073.02 L1996.49,1047.65 L1996.49,1035.07 "/>
<path class="Beam" fill-rule="evenodd" d="M2129.83,1069.2 L2216.41,1079.19 L2216.41,1091.77 L2129.83,1081.78 L2129.83,1069.2 "/>
<path class="Beam" fill-rule="evenodd" d="M1696.49,1016.82 L1916.41,1010.48 L1916.41,1022.99 L1696.49,1029.33 L1696.49,1016.82 "/>
<path class="Beam" fill-rule="evenodd" d="M1829.82,1031.73 L1916.41,1029.23 L1916.41,1041.74 L1829.82,1044.23 L1829.82,1031.73 "/>
<path class="Beam" fill-rule="evenodd" d="M1396.95,1035.36 L1575.75,1041.73 L1575.75,1054.24 L1396.95,1047.87 L1396.95,1035.36 "/>
<path class="Beam" fill-rule="evenodd" d="M1575.75,1060.48 L1542.75,1059.3 L1542.75,1071.81 L1575.75,1072.99 L1575.75,1060.48 "/>
<path class="Beam" fill-rule="evenodd" d="M1073.02,1085.79 L1310.22,1060.45 L1310.22,1073.02 L1073.02,1098.37 L1073.02,1085.79 "/>
<path class="Beam" fill-rule="evenodd" d="M1216.99,1089.16 L1310.22,1079.2 L1310.22,1091.77 L1216.99,1101.73 L1216.99,1089.16 "/>
<path class="Beam" fill-rule="evenodd" d="M729.512,1035.07 L949.433,1060.44 L949.433,1073.02 L729.512,1047.65 L729.512,1035.07 "/>
<path class="Beam" fill-rule="evenodd" d="M862.848,1069.2 L949.433,1079.19 L949.433,1091.77 L862.848,1081.78 L862.848,1069.2 "/>
<path class="Beam" fill-rule="evenodd" d="M429.506,1016.82 L649.427,1010.48 L649.427,1022.99 L429.506,1029.33 L429.506,1016.82 "/>
<path class="Beam" fill-rule="evenodd" d="M562.842,1031.73 L649.427,1029.23 L649.427,1041.74 L562.842,1044.23 L562.842,1031.73 "/>
<path class="Beam" fill-rule="evenodd" d="M2577.62,554.233 L2722.62,554.233 L2722.62,566.733 L2577.62,566.733 L2577.62,554.233 "/>
<path class="Beam" fill-rule="evenodd" d="M2258.66,560.483 L2492.27,560.483 L2492.27,572.983 L2258.66,572.983 L2258.66,560.483 "/>
<path class="Beam" fill-rule="evenodd" d="M2400.42,579.233 L2492.27,579.233 L2492.27,591.733 L2400.42,591.733 L2400.42,579.233 "/>
<path class="Beam" fill-rule="evenodd" d="M1922.15,554.233 L2076.66,554.233 L2076.66,566.733 L1922.15,566.733 L1922.15,554.233 "/>
<path class="Beam" fill-rule="evenodd" d="M1613.52,679.229 L1801.21,685.589 L1801.21,698.096 L1613.52,691.736 L1613.52,679.229 "/>
<path class="Beam" fill-rule="evenodd" d="M1801.21,666.839 L1768.21,665.721 L1768.21,678.228 L1801.21,679.346 L1801.21,666.839 "/>
<path class="Beam" fill-rule="evenodd" d="M1325.67,554.233 L1470.68,554.233 L1470.68,566.733 L1325.67,566.733 L1325.67,554.233 "/>
<path class="Beam" fill-rule="evenodd" d="M1006.72,560.483 L1240.32,560.483 L1240.32,572.983 L1006.72,572.983 L1006.72,560.483 "/>
<path class="Beam" fill-rule="evenodd" d="M1148.47,579.233 L1240.32,579.233 L1240.32,591.733 L1148.47,591.733 L1148.47,579.233 "/>
<path class="Beam" fill-rule="evenodd" d="M693.021,554.233 L836.118,554.233 L836.118,566.733 L693.021,566.733 L693.021,554.233 "/>
<path class="Beam" fill-rule="evenodd" d="M413.326,579.714 L556.424,554.133 L556.424,566.832 L413.326,592.413 L413.326,579.714 "/>
<path class="NoteDot" d="M1410.62,1133.24 C1409.51,1132.13 1408.95,1130.8 1408.95,1129.23 C1408.95,1127.67 1409.51,1126.33 1410.62,1125.23 C1411.73,1124.12 1413.06,1123.56 1414.62,1123.56 C1416.19,1123.56 1417.52,1124.12 1418.62,1125.23 C1419.73,1126.33 1420.28,1127.67 1420.28,1129.23 C1420.28,1130.8 1419.73,1132.13 1418.62,1133.24 C1417.52,1134.35 1416.19,1134.9 1414.62,1134.9 C1413.06,1134.9 1411.73,1134.35 1410.62,1133.24"/>
<path class="NoteDot" d="M1656.85,608.24 C1655.74,607.131 1655.19,605.795 1655.19,604.233 C1655.19,602.67 1655.74,601.334 1656.85,600.225 C1657.96,599.115 1659.3,598.561 1660.86,598.561 C1662.42,598.561 1663.75,599.115 1664.86,600.225 C1665.96,601.334 1666.51,602.67 1666.51,604.233 C1666.51,605.795 1665.96,607.131 1664.86,608.24 C1663.75,609.35 1662.42,609.904 1660.86,609.904 C1659.3,609.904 1657.96,609.35 1656.85,608.24"/>
</svg>
