<?xml version="1.0" encoding="UTF-8" standalone="no"?>
<svg width="2974.68px" height="4209.45px" viewBox="0 0 2974.68 4209.45"
 xmlns="http://www.w3.org/2000/svg" xmlns:xlink="http://www.w3.org/1999/xlink" version="1.2" baseProfile="tiny">
<title>Hai_sa_bem_un_paharel_-_Lets_have_a_glass_of_wine (1)</title>
<desc>Generated by MuseScore 3.0.2</desc>
<polyline class="StaffLines" fill="none" stroke="#000000" stroke-width="1.81" stroke-linejoin="bevel" points="212.599,575.433 2762.08,575.433"/>
<polyline class="StaffLines" fill="none" stroke="#000000" stroke-width="1.81" stroke-linejoin="bevel" points="212.599,598.11 2762.08,598.11"/>
<polyline class="StaffLines" fill="none" stroke="#000000" stroke-width="1.81" stroke-linejoin="bevel" points="212.599,620.787 2762.08,620.787"/>
<polyline class="StaffLines" fill="none" stroke="#000000" stroke-width="1.81" stroke-linejoin="bevel" points="212.599,643.465 2762.08,643.465"/>
<polyline class="StaffLines" fill="none" stroke="#000000" stroke-width="1.81" stroke-linejoin="bevel" points="212.599,666.142 2762.08,666.142"/>
<polyline class="StaffLines" fill="none" stroke="#000000" stroke-width="1.81" stroke-linejoin="bevel" points="212.599,892.913 2762.08,892.913"/>
<polyline class="StaffLines" fill="none" stroke="#000000" stroke-width="1.81" stroke-linejoin="bevel" points="212.599,915.591 2762.08,915.591"/>
<polyline class="StaffLines" fill="none" stroke="#000000" stroke-width="1.81" stroke-linejoin="bevel" points="212.599,938.268 2762.08,938.268"/>
<polyline class="StaffLines" fill="none" stroke="#000000" stroke-width="1.81" stroke-linejoin="bevel" points="212.599,960.945 2762.08,960.945"/>
<polyline class="StaffLines" fill="none" stroke="#000000" stroke-width="1.81" stroke-linejoin="bevel" points="212.599,983.622 2762.08,983.622"/>
<polyline class="StaffLines" fill="none" stroke="#000000" stroke-width="1.81" stroke-linejoin="bevel" points="212.599,1210.39 2762.08,1210.39"/>
<polyline class="StaffLines" fill="none" stroke="#000000" stroke-width="1.81" stroke-linejoin="bevel" points="212.599,1233.07 2762.08,1233.07"/>
<polyline class="StaffLines" fill="none" stroke="#000000" stroke-width="1.81" stroke-linejoin="bevel" points="212.599,1255.75 2762.08,1255.75"/>
<polyline class="StaffLines" fill="none" stroke="#000000" stroke-width="1.81" stroke-linejoin="bevel" points="212.599,1278.43 2762.08,1278.43"/>
<polyline class="StaffLines" fill="none" stroke="#000000" stroke-width="1.81" stroke-linejoin="bevel" points="212.599,1301.1 2762.08,1301.1"/>
<path class="Text" d="M849.748,307.141 L895.201,307.141 L895.201,278.031 C895.201,272.635 894.451,269.161 892.951,267.609 C891.451,266.057 887.8,265.031 881.998,264.531 L881.998,261.687 L923.701,261.687 L923.701,264.531 C917.899,265.031 914.248,266.057 912.748,267.609 C911.248,269.161 910.498,272.635 910.498,278.031 L910.498,344.641 C910.498,349.932 911.298,353.38 912.897,354.984 C914.496,356.588 918.097,357.641 923.701,358.141 L923.701,360.984 L881.998,360.984 L881.998,358.141 C887.8,357.734 891.451,356.682 892.951,354.984 C894.451,353.286 895.201,349.286 895.201,342.984 L895.201,313.734 L849.748,313.734 L849.748,344.641 C849.748,349.932 850.548,353.38 852.147,354.984 C853.746,356.588 857.347,357.641 862.951,358.141 L862.951,360.984 L821.248,360.984 L821.248,358.141 C827.05,357.734 830.701,356.682 832.201,354.984 C833.701,353.286 834.451,349.286 834.451,342.984 L834.451,278.031 C834.451,272.635 833.701,269.161 832.201,267.609 C830.701,266.057 827.05,265.031 821.248,264.531 L821.248,261.687 L862.951,261.687 L862.951,264.531 C857.149,265.031 853.498,266.057 851.998,267.609 C850.498,269.161 849.748,272.635 849.748,278.031 L849.748,307.141 M929.748,346.172 C929.748,344.38 929.949,342.713 930.35,341.172 C930.751,339.63 931.451,338.187 932.451,336.844 C933.451,335.5 934.402,334.281 935.303,333.187 C936.204,332.094 937.553,330.974 939.35,329.828 C941.147,328.682 942.647,327.737 943.85,326.992 C945.053,326.247 946.878,325.354 949.326,324.312 C951.774,323.271 953.649,322.477 954.951,321.93 C956.253,321.383 958.303,320.562 961.1,319.469 C963.897,318.375 965.946,317.578 967.248,317.078 L967.248,307.969 C967.248,299.719 963.446,295.594 955.842,295.594 C952.842,295.594 950.293,296.318 948.194,297.766 C946.095,299.213 945.045,300.937 945.045,302.937 C945.045,303.74 945.17,304.841 945.42,306.242 C945.67,307.643 945.795,308.542 945.795,308.937 C945.795,310.635 945.121,312.109 943.772,313.359 C942.423,314.609 940.847,315.234 939.045,315.234 C937.347,315.234 935.847,314.586 934.545,313.289 C933.243,311.992 932.592,310.49 932.592,308.781 C932.592,304.083 935.019,300.109 939.873,296.859 C944.727,293.609 950.701,291.984 957.795,291.984 C965.993,291.984 971.641,293.95 974.74,297.883 C977.839,301.815 979.389,307.812 979.389,315.875 L979.389,344.984 C979.389,348.266 979.714,350.529 980.365,351.773 C981.016,353.018 982.191,353.641 983.889,353.641 C985.993,353.641 988.196,352.693 990.498,350.797 L990.498,354.734 C987.894,357.734 985.618,359.776 983.67,360.859 C981.722,361.943 979.498,362.484 976.998,362.484 C973.894,362.484 971.618,361.612 970.17,359.867 C968.722,358.122 967.795,355.25 967.389,351.25 C958.795,358.74 951.498,362.484 945.498,362.484 C940.894,362.484 937.118,360.961 934.17,357.914 C931.222,354.867 929.748,350.953 929.748,346.172 M967.248,342.297 L967.248,320.656 C958.248,323.937 951.949,327.12 948.35,330.203 C944.751,333.286 942.951,337.021 942.951,341.406 C942.951,345.479 943.951,348.51 945.951,350.5 C947.951,352.49 950.102,353.484 952.404,353.484 C955.8,353.484 959.446,352.338 963.342,350.047 C964.946,349.151 965.998,348.206 966.498,347.211 C966.998,346.216 967.248,344.578 967.248,342.297 M1000.3,302.031 C998.097,302.031 995.998,302.182 993.998,302.484 L993.998,300.234 C1001,298.234 1008.75,295.484 1017.25,291.984 L1017.84,292.437 L1017.84,345.687 C1017.84,351.083 1018.47,354.508 1019.72,355.961 C1020.97,357.414 1024.05,358.338 1028.95,358.734 L1028.95,360.984 L993.404,360.984 L993.404,358.734 C998.602,358.432 1001.88,357.531 1003.22,356.031 C1004.57,354.531 1005.25,351.083 1005.25,345.687 L1005.25,310.891 C1005.25,307.588 1004.87,305.286 1004.12,303.984 C1003.37,302.682 1002.1,302.031 1000.3,302.031 M1010.2,258.531 C1012.4,258.531 1014.25,259.281 1015.75,260.781 C1017.25,262.281 1018,264.083 1018,266.187 C1018,268.385 1017.25,270.211 1015.75,271.664 C1014.25,273.117 1012.4,273.844 1010.2,273.844 C1008.1,273.844 1006.32,273.094 1004.87,271.594 C1003.43,270.094 1002.7,268.292 1002.7,266.187 C1002.7,264.083 1003.45,262.281 1004.95,260.781 C1006.45,259.281 1008.2,258.531 1010.2,258.531 M1111.2,294.984 C1111.3,294.984 1112.09,294.484 1113.59,293.484 L1115.25,293.484 L1115.84,313.891 L1113.59,313.891 C1111.89,307.193 1109.8,302.443 1107.3,299.641 C1104.8,296.838 1101.39,295.437 1097.09,295.437 C1093.7,295.437 1090.92,296.388 1088.77,298.289 C1086.62,300.19 1085.55,302.641 1085.55,305.641 C1085.55,309.943 1087.7,313.344 1092,315.844 L1108.2,325.437 C1112.7,328.135 1115.93,330.859 1117.87,333.609 C1119.82,336.359 1120.8,339.583 1120.8,343.281 C1120.8,348.479 1118.72,352.979 1114.57,356.781 C1110.42,360.583 1105.45,362.484 1099.65,362.484 C1097.15,362.484 1093.8,362.034 1089.6,361.133 C1085.4,360.232 1082.8,359.781 1081.8,359.781 C1080.3,359.781 1079.14,360.38 1078.34,361.578 L1076.4,361.578 L1076.4,338.187 L1078.8,338.187 C1080.4,345.187 1082.3,350.135 1084.5,353.031 C1087.7,357.135 1092.14,359.187 1097.84,359.187 C1101.64,359.187 1104.67,358.211 1106.92,356.258 C1109.17,354.305 1110.3,351.682 1110.3,348.391 C1110.3,343.891 1107.7,340.141 1102.5,337.141 L1093.8,332.187 C1087.4,328.583 1082.88,325.133 1080.22,321.836 C1077.57,318.539 1076.25,314.792 1076.25,310.594 C1076.25,305.187 1078.17,300.76 1082.02,297.312 C1085.87,293.865 1090.75,292.141 1096.65,292.141 C1099.95,292.141 1103.04,292.615 1105.94,293.562 C1108.84,294.51 1110.6,294.984 1111.2,294.984 M1173.39,261.391 L1177.75,261.391 C1175.95,277.088 1168.85,284.937 1156.45,284.937 C1150.85,284.937 1146.02,283.187 1141.97,279.687 C1137.93,276.187 1135.8,270.088 1135.59,261.391 L1139.95,261.391 C1141.05,266.391 1142.92,270.065 1145.57,272.414 C1148.22,274.763 1151.95,275.937 1156.75,275.937 C1161.14,275.937 1164.49,274.937 1166.8,272.937 C1169.1,270.937 1171.3,267.088 1173.39,261.391 M1129.75,346.172 C1129.75,344.38 1129.95,342.713 1130.35,341.172 C1130.75,339.63 1131.45,338.187 1132.45,336.844 C1133.45,335.5 1134.4,334.281 1135.3,333.187 C1136.2,332.094 1137.55,330.974 1139.35,329.828 C1141.15,328.682 1142.65,327.737 1143.85,326.992 C1145.05,326.247 1146.88,325.354 1149.33,324.312 C1151.77,323.271 1153.65,322.477 1154.95,321.93 C1156.25,321.383 1158.3,320.562 1161.1,319.469 C1163.9,318.375 1165.95,317.578 1167.25,317.078 L1167.25,307.969 C1167.25,299.719 1163.45,295.594 1155.84,295.594 C1152.84,295.594 1150.29,296.318 1148.19,297.766 C1146.09,299.213 1145.05,300.937 1145.05,302.937 C1145.05,303.74 1145.17,304.841 1145.42,306.242 C1145.67,307.643 1145.8,308.542 1145.8,308.937 C1145.8,310.635 1145.12,312.109 1143.77,313.359 C1142.42,314.609 1140.85,315.234 1139.05,315.234 C1137.35,315.234 1135.85,314.586 1134.55,313.289 C1133.24,311.992 1132.59,310.49 1132.59,308.781 C1132.59,304.083 1135.02,300.109 1139.87,296.859 C1144.73,293.609 1150.7,291.984 1157.8,291.984 C1165.99,291.984 1171.64,293.95 1174.74,297.883 C1177.84,301.815 1179.39,307.812 1179.39,315.875 L1179.39,344.984 C1179.39,348.266 1179.71,350.529 1180.37,351.773 C1181.02,353.018 1182.19,353.641 1183.89,353.641 C1185.99,353.641 1188.2,352.693 1190.5,350.797 L1190.5,354.734 C1187.89,357.734 1185.62,359.776 1183.67,360.859 C1181.72,361.943 1179.5,362.484 1177,362.484 C1173.89,362.484 1171.62,361.612 1170.17,359.867 C1168.72,358.122 1167.8,355.25 1167.39,351.25 C1158.8,358.74 1151.5,362.484 1145.5,362.484 C1140.89,362.484 1137.12,360.961 1134.17,357.914 C1131.22,354.867 1129.75,350.953 1129.75,346.172 M1167.25,342.297 L1167.25,320.656 C1158.25,323.937 1151.95,327.12 1148.35,330.203 C1144.75,333.286 1142.95,337.021 1142.95,341.406 C1142.95,345.479 1143.95,348.51 1145.95,350.5 C1147.95,352.49 1150.1,353.484 1152.4,353.484 C1155.8,353.484 1159.45,352.338 1163.34,350.047 C1164.95,349.151 1166,348.206 1166.5,347.211 C1167,346.216 1167.25,344.578 1167.25,342.297 M1253,258.844 L1253,304.75 C1254.5,301.052 1257.2,298 1261.1,295.594 C1265,293.187 1269.25,291.984 1273.84,291.984 C1281.34,291.984 1287.62,295.122 1292.67,301.398 C1297.72,307.674 1300.25,315.427 1300.25,324.656 C1300.25,335.323 1296.87,344.294 1290.12,351.57 C1283.37,358.846 1275.05,362.484 1265.15,362.484 C1259.15,362.484 1253.53,361.49 1248.28,359.5 C1243.03,357.51 1240.4,355.396 1240.4,353.156 L1240.4,275.031 C1240.4,271.937 1239.93,269.891 1238.97,268.891 C1238.02,267.891 1236.05,267.391 1233.05,267.391 C1231.95,267.391 1231.1,267.437 1230.5,267.531 L1230.5,265.141 C1238.2,263.234 1245.45,261.031 1252.25,258.531 L1253,258.844 M1253,312.75 L1253,350.75 C1253,352.656 1254.45,354.338 1257.35,355.797 C1260.25,357.255 1263.65,357.984 1267.55,357.984 C1273.74,357.984 1278.54,355.672 1281.94,351.047 C1285.34,346.422 1287.05,339.937 1287.05,331.594 C1287.05,322.448 1285.32,315.135 1281.87,309.656 C1278.43,304.177 1273.75,301.437 1267.84,301.437 C1263.95,301.437 1260.5,302.594 1257.5,304.906 C1254.5,307.219 1253,309.833 1253,312.75 M1318.55,319.437 C1318.74,325.74 1319.59,331.164 1321.09,335.711 C1322.59,340.258 1324.54,343.656 1326.94,345.906 C1329.34,348.156 1331.77,349.758 1334.22,350.711 C1336.68,351.664 1339.25,352.141 1341.95,352.141 C1346.74,352.141 1350.91,350.94 1354.47,348.539 C1358.02,346.138 1361.6,342.088 1365.2,336.391 L1367.59,337.437 C1364.5,345.531 1360.2,351.729 1354.7,356.031 C1349.2,360.333 1342.9,362.484 1335.8,362.484 C1327.2,362.484 1320.38,359.458 1315.33,353.406 C1310.27,347.354 1307.75,339.182 1307.75,328.891 C1307.75,317.786 1310.67,308.859 1316.52,302.109 C1322.37,295.359 1329.89,291.984 1339.09,291.984 C1346.7,291.984 1352.6,294.26 1356.8,298.812 C1360.99,303.365 1363.64,310.24 1364.75,319.437 L1318.55,319.437 M1318.84,314.937 L1349.45,314.937 C1348.45,308.437 1346.9,303.937 1344.8,301.437 C1342.7,298.937 1339.35,297.687 1334.75,297.687 C1325.75,297.687 1320.45,303.437 1318.84,314.937 M1372.95,301.594 L1372.95,299.031 C1380.15,296.948 1387.15,294.599 1393.95,291.984 L1395,292.297 L1395,303.828 C1401.2,299.005 1405.8,295.825 1408.8,294.289 C1411.8,292.753 1414.95,291.984 1418.25,291.984 C1426.14,291.984 1431.44,296.281 1434.14,304.875 C1441.94,296.281 1450.09,291.984 1458.59,291.984 C1470.2,291.984 1476,300.953 1476,318.891 L1476,349.625 C1476,355.198 1478.15,358.135 1482.45,358.437 L1486.34,358.734 L1486.34,360.984 L1453.5,360.984 L1453.5,358.734 C1457.89,358.234 1460.64,357.388 1461.74,356.195 C1462.84,355.003 1463.39,352.266 1463.39,347.984 L1463.39,316.5 C1463.39,310.333 1462.59,306.057 1460.99,303.672 C1459.39,301.286 1456.44,300.094 1452.14,300.094 C1445.55,300.094 1440.1,303.13 1435.8,309.203 L1435.8,346.797 C1435.8,351.474 1436.52,354.607 1437.97,356.195 C1439.41,357.784 1442.29,358.63 1446.59,358.734 L1446.59,360.984 L1413,360.984 L1413,358.734 C1417.3,358.432 1420.08,357.635 1421.33,356.344 C1422.58,355.052 1423.2,352.318 1423.2,348.141 L1423.2,315.75 C1423.2,305.312 1419.9,300.094 1413.3,300.094 C1410.49,300.094 1407.37,300.789 1403.92,302.18 C1400.47,303.57 1397.7,305.812 1395.59,308.906 L1395.59,350.969 C1395.59,353.854 1396.29,355.82 1397.69,356.867 C1399.09,357.914 1401.8,358.536 1405.8,358.734 L1405.8,360.984 L1372.5,360.984 L1372.5,358.734 C1376.7,358.63 1379.5,357.883 1380.9,356.492 C1382.3,355.102 1383,352.365 1383,348.281 L1383,310.531 C1383,306.958 1382.62,304.474 1381.87,303.078 C1381.12,301.682 1379.75,300.984 1377.75,300.984 C1376.25,300.984 1374.65,301.187 1372.95,301.594 M1598,353.187 L1598,355.281 C1590.2,357.479 1583.35,359.828 1577.45,362.328 L1576.84,362.031 L1576.84,349.312 C1576.54,349.604 1575.66,350.497 1574.22,351.992 C1572.77,353.487 1571.75,354.521 1571.15,355.094 C1570.55,355.667 1569.52,356.549 1568.07,357.742 C1566.62,358.935 1565.34,359.789 1564.24,360.305 C1563.14,360.82 1561.74,361.312 1560.05,361.781 C1558.35,362.25 1556.65,362.484 1554.95,362.484 C1549.45,362.484 1545.05,360.687 1541.75,357.094 C1538.45,353.5 1536.8,348.713 1536.8,342.734 L1536.8,305.141 C1536.8,301.651 1536.15,299.237 1534.85,297.898 C1533.55,296.56 1531.1,295.792 1527.5,295.594 L1527.5,293.484 L1549.4,293.484 L1549.4,342.141 C1549.4,345.224 1550.45,347.885 1552.55,350.125 C1554.65,352.365 1557.15,353.484 1560.05,353.484 C1561.15,353.484 1562.45,353.336 1563.95,353.039 C1565.45,352.742 1567.18,352.169 1569.12,351.32 C1571.07,350.471 1572.72,349.128 1574.07,347.289 C1575.42,345.45 1576.09,343.187 1576.09,340.5 L1576.09,305.437 C1576.09,301.76 1575.42,299.323 1574.07,298.125 C1572.72,296.927 1569.7,296.229 1565,296.031 L1565,293.484 L1588.7,293.484 L1588.7,344.672 C1588.7,348.161 1589.25,350.453 1590.35,351.547 C1591.45,352.641 1593.75,353.187 1597.25,353.187 L1598,353.187 M1601.5,301.141 L1601.5,298.594 C1608.89,296.437 1615.8,294.234 1622.2,291.984 L1623.25,292.281 L1623.25,304 C1628.35,299.25 1632.38,296.06 1635.33,294.43 C1638.27,292.799 1641.5,291.984 1645,291.984 C1650.5,291.984 1654.82,293.95 1657.97,297.883 C1661.13,301.815 1662.7,307.312 1662.7,314.375 L1662.7,348.812 C1662.7,352.521 1663.3,355 1664.5,356.25 C1665.7,357.5 1668.14,358.328 1671.84,358.734 L1671.84,360.984 L1640.64,360.984 L1640.64,358.734 C1644.44,358.432 1646.97,357.43 1648.22,355.727 C1649.47,354.023 1650.09,350.818 1650.09,346.109 L1650.09,314.672 C1650.09,304.953 1646.44,300.094 1639.14,300.094 C1636.65,300.094 1634.35,300.669 1632.25,301.82 C1630.14,302.971 1627.3,305.25 1623.7,308.656 L1623.7,350.906 C1623.7,353.615 1624.4,355.521 1625.8,356.625 C1627.2,357.729 1629.8,358.432 1633.59,358.734 L1633.59,360.984 L1601.8,360.984 L1601.8,358.734 C1605.6,358.432 1608.1,357.555 1609.3,356.102 C1610.49,354.648 1611.09,351.766 1611.09,347.453 L1611.09,310.156 C1611.09,306.448 1610.69,303.917 1609.9,302.562 C1609.1,301.208 1607.65,300.531 1605.55,300.531 C1603.65,300.531 1602.3,300.734 1601.5,301.141 M1713.09,302.031 L1713.09,299.641 C1719.39,297.734 1726.6,295.182 1734.7,291.984 L1735.59,292.281 L1735.59,303.844 C1742,295.937 1749.2,291.984 1757.2,291.984 C1764.49,291.984 1770.49,294.995 1775.19,301.016 C1779.9,307.036 1782.25,314.713 1782.25,324.047 C1782.25,334.922 1779.22,344.047 1773.17,351.422 C1767.12,358.797 1759.64,362.484 1750.75,362.484 C1747.55,362.484 1744.88,362.055 1742.72,361.195 C1740.57,360.336 1738.2,358.713 1735.59,356.328 L1735.59,379.672 C1735.59,384.338 1736.39,387.341 1738,388.68 C1739.6,390.018 1743.2,390.734 1748.8,390.828 L1748.8,393.531 L1712.5,393.531 L1712.5,390.984 C1716.89,390.588 1719.74,389.74 1721.05,388.437 C1722.35,387.135 1723,384.536 1723,380.641 L1723,310.437 C1723,306.937 1722.6,304.638 1721.8,303.539 C1720.99,302.44 1719.34,301.891 1716.84,301.891 C1715.25,301.891 1714,301.937 1713.09,302.031 M1735.59,310.937 L1735.59,348.031 C1735.59,350.24 1737.32,352.45 1740.77,354.664 C1744.22,356.878 1747.7,357.984 1751.2,357.984 C1756.6,357.984 1760.97,355.396 1764.32,350.219 C1767.67,345.042 1769.34,338.281 1769.34,329.937 C1769.34,321.187 1767.67,314.174 1764.32,308.898 C1760.97,303.622 1756.49,300.984 1750.89,300.984 C1747.4,300.984 1743.98,302.091 1740.62,304.305 C1737.27,306.518 1735.59,308.729 1735.59,310.937 M1833.39,261.391 L1837.75,261.391 C1835.95,277.088 1828.85,284.937 1816.45,284.937 C1810.85,284.937 1806.02,283.187 1801.97,279.687 C1797.93,276.187 1795.8,270.088 1795.59,261.391 L1799.95,261.391 C1801.05,266.391 1802.92,270.065 1805.57,272.414 C1808.22,274.763 1811.95,275.937 1816.75,275.937 C1821.14,275.937 1824.49,274.937 1826.8,272.937 C1829.1,270.937 1831.3,267.088 1833.39,261.391 M1789.75,346.172 C1789.75,344.38 1789.95,342.713 1790.35,341.172 C1790.75,339.63 1791.45,338.187 1792.45,336.844 C1793.45,335.5 1794.4,334.281 1795.3,333.187 C1796.2,332.094 1797.55,330.974 1799.35,329.828 C1801.15,328.682 1802.65,327.737 1803.85,326.992 C1805.05,326.247 1806.88,325.354 1809.33,324.312 C1811.77,323.271 1813.65,322.477 1814.95,321.93 C1816.25,321.383 1818.3,320.562 1821.1,319.469 C1823.9,318.375 1825.95,317.578 1827.25,317.078 L1827.25,307.969 C1827.25,299.719 1823.45,295.594 1815.84,295.594 C1812.84,295.594 1810.29,296.318 1808.19,297.766 C1806.09,299.213 1805.05,300.937 1805.05,302.937 C1805.05,303.74 1805.17,304.841 1805.42,306.242 C1805.67,307.643 1805.8,308.542 1805.8,308.937 C1805.8,310.635 1805.12,312.109 1803.77,313.359 C1802.42,314.609 1800.85,315.234 1799.05,315.234 C1797.35,315.234 1795.85,314.586 1794.55,313.289 C1793.24,311.992 1792.59,310.49 1792.59,308.781 C1792.59,304.083 1795.02,300.109 1799.87,296.859 C1804.73,293.609 1810.7,291.984 1817.8,291.984 C1825.99,291.984 1831.64,293.95 1834.74,297.883 C1837.84,301.815 1839.39,307.812 1839.39,315.875 L1839.39,344.984 C1839.39,348.266 1839.71,350.529 1840.37,351.773 C1841.02,353.018 1842.19,353.641 1843.89,353.641 C1845.99,353.641 1848.2,352.693 1850.5,350.797 L1850.5,354.734 C1847.89,357.734 1845.62,359.776 1843.67,360.859 C1841.72,361.943 1839.5,362.484 1837,362.484 C1833.89,362.484 1831.62,361.612 1830.17,359.867 C1828.72,358.122 1827.8,355.25 1827.39,351.25 C1818.8,358.74 1811.5,362.484 1805.5,362.484 C1800.89,362.484 1797.12,360.961 1794.17,357.914 C1791.22,354.867 1789.75,350.953 1789.75,346.172 M1827.25,342.297 L1827.25,320.656 C1818.25,323.937 1811.95,327.12 1808.35,330.203 C1804.75,333.286 1802.95,337.021 1802.95,341.406 C1802.95,345.479 1803.95,348.51 1805.95,350.5 C1807.95,352.49 1810.1,353.484 1812.4,353.484 C1815.8,353.484 1819.45,352.338 1823.34,350.047 C1824.95,349.151 1826,348.206 1826.5,347.211 C1827,346.216 1827.25,344.578 1827.25,342.297 M1874.7,309.531 L1874.7,345.687 C1874.7,350.885 1875.3,354.234 1876.5,355.734 C1877.7,357.234 1880.5,358.234 1884.9,358.734 L1884.9,360.984 L1852.5,360.984 L1852.5,358.734 C1856.8,358.13 1859.47,357.13 1860.52,355.734 C1861.57,354.338 1862.09,350.99 1862.09,345.687 L1862.09,275.031 C1862.09,271.833 1861.67,269.734 1860.82,268.734 C1859.97,267.734 1858.1,267.234 1855.2,267.234 C1854.5,267.234 1853.65,267.333 1852.65,267.531 L1852.65,265.141 C1859.75,263.234 1866.85,261.031 1873.95,258.531 L1874.7,258.984 L1874.7,304.594 C1878.1,300.094 1881.52,296.867 1884.97,294.914 C1888.41,292.961 1892.34,291.984 1896.75,291.984 C1909.05,291.984 1915.2,299.937 1915.2,315.844 L1915.2,345.687 C1915.2,350.885 1915.68,354.159 1916.62,355.508 C1917.57,356.857 1920.1,357.932 1924.2,358.734 L1924.2,360.984 L1892.39,360.984 L1892.39,358.734 C1896.69,358.338 1899.47,357.338 1900.72,355.734 C1901.97,354.13 1902.59,350.781 1902.59,345.687 L1902.59,315.984 C1902.59,305.391 1898.84,300.094 1891.34,300.094 C1888.45,300.094 1885.72,300.818 1883.17,302.266 C1880.62,303.713 1877.8,306.135 1874.7,309.531 M1973.39,261.391 L1977.75,261.391 C1975.95,277.088 1968.85,284.937 1956.45,284.937 C1950.85,284.937 1946.02,283.187 1941.97,279.687 C1937.93,276.187 1935.8,270.088 1935.59,261.391 L1939.95,261.391 C1941.05,266.391 1942.92,270.065 1945.57,272.414 C1948.22,274.763 1951.95,275.937 1956.75,275.937 C1961.14,275.937 1964.49,274.937 1966.8,272.937 C1969.1,270.937 1971.3,267.088 1973.39,261.391 M1929.75,346.172 C1929.75,344.38 1929.95,342.713 1930.35,341.172 C1930.75,339.63 1931.45,338.187 1932.45,336.844 C1933.45,335.5 1934.4,334.281 1935.3,333.187 C1936.2,332.094 1937.55,330.974 1939.35,329.828 C1941.15,328.682 1942.65,327.737 1943.85,326.992 C1945.05,326.247 1946.88,325.354 1949.33,324.312 C1951.77,323.271 1953.65,322.477 1954.95,321.93 C1956.25,321.383 1958.3,320.562 1961.1,319.469 C1963.9,318.375 1965.95,317.578 1967.25,317.078 L1967.25,307.969 C1967.25,299.719 1963.45,295.594 1955.84,295.594 C1952.84,295.594 1950.29,296.318 1948.19,297.766 C1946.09,299.213 1945.05,300.937 1945.05,302.937 C1945.05,303.74 1945.17,304.841 1945.42,306.242 C1945.67,307.643 1945.8,308.542 1945.8,308.937 C1945.8,310.635 1945.12,312.109 1943.77,313.359 C1942.42,314.609 1940.85,315.234 1939.05,315.234 C1937.35,315.234 1935.85,314.586 1934.55,313.289 C1933.24,311.992 1932.59,310.49 1932.59,308.781 C1932.59,304.083 1935.02,300.109 1939.87,296.859 C1944.73,293.609 1950.7,291.984 1957.8,291.984 C1965.99,291.984 1971.64,293.95 1974.74,297.883 C1977.84,301.815 1979.39,307.812 1979.39,315.875 L1979.39,344.984 C1979.39,348.266 1979.71,350.529 1980.37,351.773 C1981.02,353.018 1982.19,353.641 1983.89,353.641 C1985.99,353.641 1988.2,352.693 1990.5,350.797 L1990.5,354.734 C1987.89,357.734 1985.62,359.776 1983.67,360.859 C1981.72,361.943 1979.5,362.484 1977,362.484 C1973.89,362.484 1971.62,361.612 1970.17,359.867 C1968.72,358.122 1967.8,355.25 1967.39,351.25 C1958.8,358.74 1951.5,362.484 1945.5,362.484 C1940.89,362.484 1937.12,360.961 1934.17,357.914 C1931.22,354.867 1929.75,350.953 1929.75,346.172 M1967.25,342.297 L1967.25,320.656 C1958.25,323.937 1951.95,327.12 1948.35,330.203 C1944.75,333.286 1942.95,337.021 1942.95,341.406 C1942.95,345.479 1943.95,348.51 1945.95,350.5 C1947.95,352.49 1950.1,353.484 1952.4,353.484 C1955.8,353.484 1959.45,352.338 1963.34,350.047 C1964.95,349.151 1966,348.206 1966.5,347.211 C1967,346.216 1967.25,344.578 1967.25,342.297 M2036.14,306.687 C2034.64,306.687 2032.79,305.812 2030.59,304.062 C2028.39,302.312 2026.95,301.437 2026.25,301.437 C2024.25,301.437 2022,302.888 2019.5,305.789 C2017,308.69 2015.75,311.338 2015.75,313.734 L2015.75,347.484 C2015.75,351.786 2016.6,354.687 2018.3,356.187 C2019.99,357.687 2023.39,358.536 2028.5,358.734 L2028.5,360.984 L1992.5,360.984 L1992.5,358.734 C1997.3,357.838 2000.28,356.838 2001.43,355.734 C2002.58,354.63 2003.15,352.182 2003.15,348.391 L2003.15,310.891 C2003.15,307.588 2002.78,305.263 2002.03,303.914 C2001.28,302.565 1999.95,301.891 1998.05,301.891 C1996.45,301.891 1994.7,302.088 1992.8,302.484 L1992.8,300.094 C2000.8,297.49 2008.2,294.786 2015,291.984 L2015.75,292.281 L2015.75,306.094 C2019.45,300.792 2022.59,297.115 2025.19,295.062 C2027.79,293.01 2030.64,291.984 2033.75,291.984 C2036.34,291.984 2038.37,292.685 2039.82,294.086 C2041.27,295.487 2042,297.437 2042,299.937 C2042,302.042 2041.47,303.693 2040.42,304.891 C2039.37,306.088 2037.94,306.687 2036.14,306.687 M2057.55,319.437 C2057.74,325.74 2058.59,331.164 2060.09,335.711 C2061.59,340.258 2063.54,343.656 2065.94,345.906 C2068.34,348.156 2070.77,349.758 2073.22,350.711 C2075.68,351.664 2078.25,352.141 2080.95,352.141 C2085.74,352.141 2089.91,350.94 2093.47,348.539 C2097.02,346.138 2100.6,342.088 2104.2,336.391 L2106.59,337.437 C2103.5,345.531 2099.2,351.729 2093.7,356.031 C2088.2,360.333 2081.9,362.484 2074.8,362.484 C2066.2,362.484 2059.38,359.458 2054.33,353.406 C2049.27,347.354 2046.75,339.182 2046.75,328.891 C2046.75,317.786 2049.67,308.859 2055.52,302.109 C2061.37,295.359 2068.89,291.984 2078.09,291.984 C2085.7,291.984 2091.6,294.26 2095.8,298.812 C2099.99,303.365 2102.64,310.24 2103.75,319.437 L2057.55,319.437 M2057.84,314.937 L2088.45,314.937 C2087.45,308.437 2085.9,303.937 2083.8,301.437 C2081.7,298.937 2078.35,297.687 2073.75,297.687 C2064.75,297.687 2059.45,303.437 2057.84,314.937 M2111.5,267.531 L2111.5,265.141 C2121.39,262.734 2129.34,260.531 2135.34,258.531 L2135.95,258.844 L2135.95,348.391 C2135.95,352.484 2136.63,355.156 2137.97,356.406 C2139.32,357.656 2142.4,358.432 2147.2,358.734 L2147.2,360.984 L2111.8,360.984 L2111.8,358.734 C2116.49,358.338 2119.59,357.44 2121.09,356.039 C2122.59,354.638 2123.34,351.937 2123.34,347.937 L2123.34,276.391 C2123.34,272.891 2122.89,270.49 2122,269.187 C2121.1,267.885 2119.45,267.234 2117.05,267.234 C2115.05,267.234 2113.2,267.333 2111.5,267.531"/>
<path class="MeasureNumber" d="M199.692,1143.7 C199.255,1143.7 198.39,1143.96 197.099,1144.49 L197.099,1143.98 L203.567,1140.71 L203.864,1140.77 L203.864,1162.38 C203.864,1163.24 204.08,1163.8 204.513,1164.06 C204.945,1164.33 205.869,1164.47 207.286,1164.49 L207.286,1165.04 L197.349,1165.04 L197.349,1164.49 C198.692,1164.45 199.599,1164.26 200.067,1163.91 C200.536,1163.56 200.77,1162.82 200.77,1161.7 L200.77,1145.38 C200.77,1144.26 200.411,1143.7 199.692,1143.7 M227.255,1141.21 L227.255,1141.77 L219.63,1165.32 L217.286,1165.32 L224.411,1143.84 L216.599,1143.84 C215.619,1143.84 214.872,1144.02 214.356,1144.38 C213.841,1144.73 213.197,1145.53 212.427,1146.76 L211.817,1146.48 L213.942,1141.21 L227.255,1141.21 "/>
<path class="MeasureNumber" d="M205.724,848.356 L205.614,847.637 C208.354,847.148 210.677,845.976 212.583,844.122 C214.489,842.267 215.812,839.872 216.552,836.934 C214.781,838.33 212.984,839.028 211.161,839.028 C209.213,839.028 207.645,838.353 206.458,837.004 C205.27,835.655 204.677,833.887 204.677,831.7 C204.677,829.262 205.39,827.228 206.817,825.598 C208.244,823.968 210.026,823.153 212.161,823.153 C214.494,823.153 216.403,824.106 217.888,826.012 C219.372,827.919 220.114,830.366 220.114,833.356 C220.114,834.314 220.031,835.299 219.864,836.309 C219.697,837.32 219.309,838.515 218.7,839.895 C218.091,841.275 217.294,842.512 216.309,843.606 C215.325,844.7 213.921,845.692 212.099,846.583 C210.276,847.473 208.151,848.064 205.724,848.356 M212.458,837.45 C212.906,837.45 213.419,837.382 213.997,837.247 C214.575,837.111 215.158,836.822 215.747,836.379 C216.335,835.937 216.63,835.392 216.63,834.747 L216.63,833.356 C216.63,827.273 215.046,824.231 211.88,824.231 C211.13,824.231 210.492,824.429 209.966,824.825 C209.44,825.221 209.039,825.741 208.763,826.387 C208.487,827.033 208.289,827.692 208.169,828.364 C208.049,829.036 207.989,829.741 207.989,830.481 C207.989,832.606 208.39,834.299 209.192,835.559 C209.994,836.82 211.083,837.45 212.458,837.45"/>
<polyline class="BarLine" fill="none" stroke="#000000" stroke-width="3.63" stroke-linejoin="bevel" points="2749.83,1209.49 2749.83,1302.01"/>
<polyline class="BarLine" fill="none" stroke="#000000" stroke-width="3.63" stroke-linejoin="bevel" points="2760.26,1209.49 2760.26,1302.01"/>
<polyline class="BarLine" fill="none" stroke="#000000" stroke-width="3.63" stroke-linejoin="bevel" points="2204.46,1209.49 2204.46,1302.01"/>
<polyline class="BarLine" fill="none" stroke="#000000" stroke-width="3.63" stroke-linejoin="bevel" points="1588.03,1209.49 1588.03,1302.01"/>
<polyline class="BarLine" fill="none" stroke="#000000" stroke-width="3.63" stroke-linejoin="bevel" points="971.612,1209.49 971.612,1302.01"/>
<polyline class="BarLine" fill="none" stroke="#000000" stroke-width="3.63" stroke-linejoin="bevel" points="2760.26,892.006 2760.26,984.529"/>
<polyline class="BarLine" fill="none" stroke="#000000" stroke-width="3.63" stroke-linejoin="bevel" points="2499.29,892.006 2499.29,984.529"/>
<polyline class="BarLine" fill="none" stroke="#000000" stroke-width="3.63" stroke-linejoin="bevel" points="2161.75,892.006 2161.75,984.529"/>
<polyline class="BarLine" fill="none" stroke="#000000" stroke-width="3.63" stroke-linejoin="bevel" points="1824.21,892.006 1824.21,984.529"/>
<polyline class="BarLine" fill="none" stroke="#000000" stroke-width="3.63" stroke-linejoin="bevel" points="1486.67,892.006 1486.67,984.529"/>
<polyline class="BarLine" fill="none" stroke="#000000" stroke-width="3.63" stroke-linejoin="bevel" points="1225.7,892.006 1225.7,984.529"/>
<polyline class="BarLine" fill="none" stroke="#000000" stroke-width="3.63" stroke-linejoin="bevel" points="888.163,892.006 888.163,984.529"/>
<polyline class="BarLine" fill="none" stroke="#000000" stroke-width="3.63" stroke-linejoin="bevel" points="621.676,892.006 621.676,984.529"/>
<polyline class="BarLine" fill="none" stroke="#000000" stroke-width="3.63" stroke-linejoin="bevel" points="2760.26,574.526 2760.26,667.049"/>
<polyline class="BarLine" fill="none" stroke="#000000" stroke-width="3.63" stroke-linejoin="bevel" points="2487.51,574.526 2487.51,667.049"/>
<polyline class="BarLine" fill="none" stroke="#000000" stroke-width="3.63" stroke-linejoin="bevel" points="2138.18,574.526 2138.18,667.049"/>
<polyline class="BarLine" fill="none" stroke="#000000" stroke-width="3.63" stroke-linejoin="bevel" points="1859.91,574.526 1859.91,667.049"/>
<polyline class="BarLine" fill="none" stroke="#000000" stroke-width="3.63" stroke-linejoin="bevel" points="1581.64,574.526 1581.64,667.049"/>
<polyline class="BarLine" fill="none" stroke="#000000" stroke-width="3.63" stroke-linejoin="bevel" points="1308.89,574.526 1308.89,667.049"/>
<polyline class="BarLine" fill="none" stroke="#000000" stroke-width="3.63" stroke-linejoin="bevel" points="959.564,574.526 959.564,667.049"/>
<polyline class="BarLine" fill="none" stroke="#000000" stroke-width="3.63" stroke-linejoin="bevel" points="681.294,574.526 681.294,667.049"/>
<polyline class="Stem" fill="none" stroke="#000000" stroke-width="2.95" stroke-linecap="round" stroke-linejoin="bevel" points="2519.13,1296.84 2519.13,1221.73"/>
<polyline class="Stem" fill="none" stroke="#000000" stroke-width="2.95" stroke-linecap="round" stroke-linejoin="bevel" points="2261.87,1285.5 2261.87,1210.39"/>
<polyline class="Stem" fill="none" stroke="#000000" stroke-width="2.95" stroke-linecap="round" stroke-linejoin="bevel" points="2084.63,1274.17 2084.63,1204.72"/>
<polyline class="Stem" fill="none" stroke="#000000" stroke-width="2.95" stroke-linecap="round" stroke-linejoin="bevel" points="1938.23,1262.83 1938.23,1197.17"/>
<polyline class="Stem" fill="none" stroke="#000000" stroke-width="2.95" stroke-linecap="round" stroke-linejoin="bevel" points="1791.84,1251.49 1791.84,1189.61"/>
<polyline class="Stem" fill="none" stroke="#000000" stroke-width="2.95" stroke-linecap="round" stroke-linejoin="bevel" points="1645.44,1251.49 1645.44,1182.05"/>
<polyline class="Stem" fill="none" stroke="#000000" stroke-width="2.95" stroke-linecap="round" stroke-linejoin="bevel" points="1441.3,1271.35 1441.3,1329.45"/>
<polyline class="Stem" fill="none" stroke="#000000" stroke-width="2.95" stroke-linecap="round" stroke-linejoin="bevel" points="1294.9,1260.01 1294.9,1325.67"/>
<polyline class="Stem" fill="none" stroke="#000000" stroke-width="2.95" stroke-linecap="round" stroke-linejoin="bevel" points="1148.51,1248.67 1148.51,1321.89"/>
<polyline class="Stem" fill="none" stroke="#000000" stroke-width="2.95" stroke-linecap="round" stroke-linejoin="bevel" points="1002.11,1248.67 1002.11,1318.11"/>
<polyline class="Stem" fill="none" stroke="#000000" stroke-width="2.95" stroke-linecap="round" stroke-linejoin="bevel" points="824.876,1260.01 824.876,1323.78"/>
<polyline class="Stem" fill="none" stroke="#000000" stroke-width="2.95" stroke-linecap="round" stroke-linejoin="bevel" points="678.48,1248.67 678.48,1316.22"/>
<polyline class="Stem" fill="none" stroke="#000000" stroke-width="2.95" stroke-linecap="round" stroke-linejoin="bevel" points="532.085,1237.33 532.085,1308.66"/>
<polyline class="Stem" fill="none" stroke="#000000" stroke-width="2.95" stroke-linecap="round" stroke-linejoin="bevel" points="385.689,1237.33 385.689,1301.1"/>
<polyline class="Stem" fill="none" stroke="#000000" stroke-width="2.95" stroke-linecap="round" stroke-linejoin="bevel" points="2558.33,946.123 2558.33,875.906"/>
<polyline class="Stem" fill="none" stroke="#000000" stroke-width="2.95" stroke-linecap="round" stroke-linejoin="bevel" points="2449.18,956.686 2449.18,892.913"/>
<polyline class="Stem" fill="none" stroke="#000000" stroke-width="2.95" stroke-linecap="round" stroke-linejoin="bevel" points="2372.51,968.024 2372.51,892.913"/>
<polyline class="Stem" fill="none" stroke="#000000" stroke-width="2.95" stroke-linecap="round" stroke-linejoin="bevel" points="2295.83,956.686 2295.83,892.913"/>
<polyline class="Stem" fill="none" stroke="#000000" stroke-width="2.95" stroke-linecap="round" stroke-linejoin="bevel" points="2219.16,956.686 2219.16,892.913"/>
<polyline class="Stem" fill="none" stroke="#000000" stroke-width="2.95" stroke-linecap="round" stroke-linejoin="bevel" points="2084.74,953.865 2084.74,1011.97"/>
<polyline class="Stem" fill="none" stroke="#000000" stroke-width="2.95" stroke-linecap="round" stroke-linejoin="bevel" points="2008.06,942.527 2008.06,1008.19"/>
<polyline class="Stem" fill="none" stroke="#000000" stroke-width="2.95" stroke-linecap="round" stroke-linejoin="bevel" points="1931.39,931.188 1931.39,1004.41"/>
<polyline class="Stem" fill="none" stroke="#000000" stroke-width="2.95" stroke-linecap="round" stroke-linejoin="bevel" points="1854.71,931.188 1854.71,1000.63"/>
<polyline class="Stem" fill="none" stroke="#000000" stroke-width="2.95" stroke-linecap="round" stroke-linejoin="bevel" points="1747.2,942.527 1747.2,1006.3"/>
<polyline class="Stem" fill="none" stroke="#000000" stroke-width="2.95" stroke-linecap="round" stroke-linejoin="bevel" points="1670.52,931.188 1670.52,998.74"/>
<polyline class="Stem" fill="none" stroke="#000000" stroke-width="2.95" stroke-linecap="round" stroke-linejoin="bevel" points="1593.85,919.85 1593.85,991.181"/>
<polyline class="Stem" fill="none" stroke="#000000" stroke-width="2.95" stroke-linecap="round" stroke-linejoin="bevel" points="1517.18,919.85 1517.18,983.622"/>
<polyline class="Stem" fill="none" stroke="#000000" stroke-width="2.95" stroke-linecap="round" stroke-linejoin="bevel" points="1257.02,919.146 1257.02,992.126"/>
<polyline class="Stem" fill="none" stroke="#000000" stroke-width="2.95" stroke-linecap="round" stroke-linejoin="bevel" points="1148.69,931.188 1148.69,1011.97"/>
<polyline class="Stem" fill="none" stroke="#000000" stroke-width="2.95" stroke-linecap="round" stroke-linejoin="bevel" points="1072.01,942.527 1072.01,1015.75"/>
<polyline class="Stem" fill="none" stroke="#000000" stroke-width="2.95" stroke-linecap="round" stroke-linejoin="bevel" points="995.338,953.865 995.338,1019.53"/>
<polyline class="Stem" fill="none" stroke="#000000" stroke-width="2.95" stroke-linecap="round" stroke-linejoin="bevel" points="918.664,953.865 918.664,1023.31"/>
<polyline class="Stem" fill="none" stroke="#000000" stroke-width="2.95" stroke-linecap="round" stroke-linejoin="bevel" points="796.908,945.347 796.908,875.906"/>
<polyline class="Stem" fill="none" stroke="#000000" stroke-width="2.95" stroke-linecap="round" stroke-linejoin="bevel" points="679.084,968.024 679.084,892.913"/>
<polyline class="Stem" fill="none" stroke="#000000" stroke-width="2.95" stroke-linecap="round" stroke-linejoin="bevel" points="530.42,945.347 530.42,875.906"/>
<polyline class="Stem" fill="none" stroke="#000000" stroke-width="2.95" stroke-linecap="round" stroke-linejoin="bevel" points="412.597,968.024 412.597,892.913"/>
<polyline class="Stem" fill="none" stroke="#000000" stroke-width="2.95" stroke-linecap="round" stroke-linejoin="bevel" points="2546.55,651.32 2546.55,575.433"/>
<polyline class="Stem" fill="none" stroke="#000000" stroke-width="2.95" stroke-linecap="round" stroke-linejoin="bevel" points="2434.45,639.206 2434.45,575.433"/>
<polyline class="Stem" fill="none" stroke="#000000" stroke-width="2.95" stroke-linecap="round" stroke-linejoin="bevel" points="2354.83,627.867 2354.83,569.764"/>
<polyline class="Stem" fill="none" stroke="#000000" stroke-width="2.95" stroke-linecap="round" stroke-linejoin="bevel" points="2248.3,625.047 2248.3,688.819"/>
<polyline class="Stem" fill="none" stroke="#000000" stroke-width="2.95" stroke-linecap="round" stroke-linejoin="bevel" points="2168.68,625.047 2168.68,688.819"/>
<polyline class="Stem" fill="none" stroke="#000000" stroke-width="2.95" stroke-linecap="round" stroke-linejoin="bevel" points="2041.04,639.206 2041.04,566.929"/>
<polyline class="Stem" fill="none" stroke="#000000" stroke-width="2.95" stroke-linecap="round" stroke-linejoin="bevel" points="1917.32,661.883 1917.32,586.772"/>
<polyline class="Stem" fill="none" stroke="#000000" stroke-width="2.95" stroke-linecap="round" stroke-linejoin="bevel" points="1762.77,639.206 1762.77,566.929"/>
<polyline class="Stem" fill="none" stroke="#000000" stroke-width="2.95" stroke-linecap="round" stroke-linejoin="bevel" points="1639.05,661.883 1639.05,586.772"/>
<polyline class="Stem" fill="none" stroke="#000000" stroke-width="2.95" stroke-linecap="round" stroke-linejoin="bevel" points="1367.93,639.981 1367.93,566.929"/>
<polyline class="Stem" fill="none" stroke="#000000" stroke-width="2.95" stroke-linecap="round" stroke-linejoin="bevel" points="1255.83,627.867 1255.83,558.425"/>
<polyline class="Stem" fill="none" stroke="#000000" stroke-width="2.95" stroke-linecap="round" stroke-linejoin="bevel" points="1176.21,616.528 1176.21,552.756"/>
<polyline class="Stem" fill="none" stroke="#000000" stroke-width="2.95" stroke-linecap="round" stroke-linejoin="bevel" points="1069.69,613.708 1069.69,671.811"/>
<polyline class="Stem" fill="none" stroke="#000000" stroke-width="2.95" stroke-linecap="round" stroke-linejoin="bevel" points="990.065,613.708 990.065,671.811"/>
<polyline class="Stem" fill="none" stroke="#000000" stroke-width="2.95" stroke-linecap="round" stroke-linejoin="bevel" points="862.417,627.867 862.417,558.425"/>
<polyline class="Stem" fill="none" stroke="#000000" stroke-width="2.95" stroke-linecap="round" stroke-linejoin="bevel" points="738.702,650.544 738.702,575.433"/>
<polyline class="Stem" fill="none" stroke="#000000" stroke-width="2.95" stroke-linecap="round" stroke-linejoin="bevel" points="584.146,627.867 584.146,558.425"/>
<polyline class="Stem" fill="none" stroke="#000000" stroke-width="2.95" stroke-linecap="round" stroke-linejoin="bevel" points="460.432,650.544 460.432,575.433"/>
<path class="Note" transform="matrix(0.907087,0,0,0.907087,2490.75,1301.1)" d="M21.9688,-13.7656 C25.0938,-13.7656 27.7344,-12.9531 29.8906,-11.3281 C31.901,-9.56771 32.9063,-7.35417 32.9063,-4.6875 C32.9063,-0.197917 30.599,4 25.9844,7.90625 C21.2969,11.8125 16.2813,13.7656 10.9375,13.7656 C7.8125,13.7656 5.17708,12.9531 3.03125,11.3281 C1.01042,9.56771 0,7.35417 0,4.6875 C0,0.197917 2.34375,-4 7.03125,-7.90625 C11.5938,-11.8125 16.5729,-13.7656 21.9688,-13.7656"/>
<path class="Note" transform="matrix(0.907087,0,0,0.907087,2233.48,1289.76)" d="M21.9688,-13.7656 C25.0938,-13.7656 27.7344,-12.9531 29.8906,-11.3281 C31.901,-9.56771 32.9063,-7.35417 32.9063,-4.6875 C32.9063,-0.197917 30.599,4 25.9844,7.90625 C21.2969,11.8125 16.2813,13.7656 10.9375,13.7656 C7.8125,13.7656 5.17708,12.9531 3.03125,11.3281 C1.01042,9.56771 0,7.35417 0,4.6875 C0,0.197917 2.34375,-4 7.03125,-7.90625 C11.5938,-11.8125 16.5729,-13.7656 21.9688,-13.7656"/>
<path class="Note" transform="matrix(0.907087,0,0,0.907087,2056.25,1278.43)" d="M21.9688,-13.7656 C25.0938,-13.7656 27.7344,-12.9531 29.8906,-11.3281 C31.901,-9.56771 32.9063,-7.35417 32.9063,-4.6875 C32.9063,-0.197917 30.599,4 25.9844,7.90625 C21.2969,11.8125 16.2813,13.7656 10.9375,13.7656 C7.8125,13.7656 5.17708,12.9531 3.03125,11.3281 C1.01042,9.56771 0,7.35417 0,4.6875 C0,0.197917 2.34375,-4 7.03125,-7.90625 C11.5938,-11.8125 16.5729,-13.7656 21.9688,-13.7656"/>
<path class="Note" transform="matrix(0.907087,0,0,0.907087,1909.85,1267.09)" d="M21.9688,-13.7656 C25.0938,-13.7656 27.7344,-12.9531 29.8906,-11.3281 C31.901,-9.56771 32.9063,-7.35417 32.9063,-4.6875 C32.9063,-0.197917 30.599,4 25.9844,7.90625 C21.2969,11.8125 16.2813,13.7656 10.9375,13.7656 C7.8125,13.7656 5.17708,12.9531 3.03125,11.3281 C1.01042,9.56771 0,7.35417 0,4.6875 C0,0.197917 2.34375,-4 7.03125,-7.90625 C11.5938,-11.8125 16.5729,-13.7656 21.9688,-13.7656"/>
<path class="Note" transform="matrix(0.907087,0,0,0.907087,1763.46,1255.75)" d="M21.9688,-13.7656 C25.0938,-13.7656 27.7344,-12.9531 29.8906,-11.3281 C31.901,-9.56771 32.9063,-7.35417 32.9063,-4.6875 C32.9063,-0.197917 30.599,4 25.9844,7.90625 C21.2969,11.8125 16.2813,13.7656 10.9375,13.7656 C7.8125,13.7656 5.17708,12.9531 3.03125,11.3281 C1.01042,9.56771 0,7.35417 0,4.6875 C0,0.197917 2.34375,-4 7.03125,-7.90625 C11.5938,-11.8125 16.5729,-13.7656 21.9688,-13.7656"/>
<path class="Note" transform="matrix(0.907087,0,0,0.907087,1617.06,1255.75)" d="M21.9688,-13.7656 C25.0938,-13.7656 27.7344,-12.9531 29.8906,-11.3281 C31.901,-9.56771 32.9063,-7.35417 32.9063,-4.6875 C32.9063,-0.197917 30.599,4 25.9844,7.90625 C21.2969,11.8125 16.2813,13.7656 10.9375,13.7656 C7.8125,13.7656 5.17708,12.9531 3.03125,11.3281 C1.01042,9.56771 0,7.35417 0,4.6875 C0,0.197917 2.34375,-4 7.03125,-7.90625 C11.5938,-11.8125 16.5729,-13.7656 21.9688,-13.7656"/>
<path class="Note" transform="matrix(0.907087,0,0,0.907087,1439.82,1267.09)" d="M21.9688,-13.7656 C25.0938,-13.7656 27.7344,-12.9531 29.8906,-11.3281 C31.901,-9.56771 32.9063,-7.35417 32.9063,-4.6875 C32.9063,-0.197917 30.599,4 25.9844,7.90625 C21.2969,11.8125 16.2813,13.7656 10.9375,13.7656 C7.8125,13.7656 5.17708,12.9531 3.03125,11.3281 C1.01042,9.56771 0,7.35417 0,4.6875 C0,0.197917 2.34375,-4 7.03125,-7.90625 C11.5938,-11.8125 16.5729,-13.7656 21.9688,-13.7656"/>
<path class="Note" transform="matrix(0.907087,0,0,0.907087,1293.43,1255.75)" d="M21.9688,-13.7656 C25.0938,-13.7656 27.7344,-12.9531 29.8906,-11.3281 C31.901,-9.56771 32.9063,-7.35417 32.9063,-4.6875 C32.9063,-0.197917 30.599,4 25.9844,7.90625 C21.2969,11.8125 16.2813,13.7656 10.9375,13.7656 C7.8125,13.7656 5.17708,12.9531 3.03125,11.3281 C1.01042,9.56771 0,7.35417 0,4.6875 C0,0.197917 2.34375,-4 7.03125,-7.90625 C11.5938,-11.8125 16.5729,-13.7656 21.9688,-13.7656"/>
<path class="Note" transform="matrix(0.907087,0,0,0.907087,1147.03,1244.41)" d="M21.9688,-13.7656 C25.0938,-13.7656 27.7344,-12.9531 29.8906,-11.3281 C31.901,-9.56771 32.9063,-7.35417 32.9063,-4.6875 C32.9063,-0.197917 30.599,4 25.9844,7.90625 C21.2969,11.8125 16.2813,13.7656 10.9375,13.7656 C7.8125,13.7656 5.17708,12.9531 3.03125,11.3281 C1.01042,9.56771 0,7.35417 0,4.6875 C0,0.197917 2.34375,-4 7.03125,-7.90625 C11.5938,-11.8125 16.5729,-13.7656 21.9688,-13.7656"/>
<path class="Note" transform="matrix(0.907087,0,0,0.907087,1000.64,1244.41)" d="M21.9688,-13.7656 C25.0938,-13.7656 27.7344,-12.9531 29.8906,-11.3281 C31.901,-9.56771 32.9063,-7.35417 32.9063,-4.6875 C32.9063,-0.197917 30.599,4 25.9844,7.90625 C21.2969,11.8125 16.2813,13.7656 10.9375,13.7656 C7.8125,13.7656 5.17708,12.9531 3.03125,11.3281 C1.01042,9.56771 0,7.35417 0,4.6875 C0,0.197917 2.34375,-4 7.03125,-7.90625 C11.5938,-11.8125 16.5729,-13.7656 21.9688,-13.7656"/>
<path class="Note" transform="matrix(0.907087,0,0,0.907087,823.402,1255.75)" d="M21.9688,-13.7656 C25.0938,-13.7656 27.7344,-12.9531 29.8906,-11.3281 C31.901,-9.56771 32.9063,-7.35417 32.9063,-4.6875 C32.9063,-0.197917 30.599,4 25.9844,7.90625 C21.2969,11.8125 16.2813,13.7656 10.9375,13.7656 C7.8125,13.7656 5.17708,12.9531 3.03125,11.3281 C1.01042,9.56771 0,7.35417 0,4.6875 C0,0.197917 2.34375,-4 7.03125,-7.90625 C11.5938,-11.8125 16.5729,-13.7656 21.9688,-13.7656"/>
<path class="Note" transform="matrix(0.907087,0,0,0.907087,677.006,1244.41)" d="M21.9688,-13.7656 C25.0938,-13.7656 27.7344,-12.9531 29.8906,-11.3281 C31.901,-9.56771 32.9063,-7.35417 32.9063,-4.6875 C32.9063,-0.197917 30.599,4 25.9844,7.90625 C21.2969,11.8125 16.2813,13.7656 10.9375,13.7656 C7.8125,13.7656 5.17708,12.9531 3.03125,11.3281 C1.01042,9.56771 0,7.35417 0,4.6875 C0,0.197917 2.34375,-4 7.03125,-7.90625 C11.5938,-11.8125 16.5729,-13.7656 21.9688,-13.7656"/>
<path class="Note" transform="matrix(0.907087,0,0,0.907087,530.611,1233.07)" d="M21.9688,-13.7656 C25.0938,-13.7656 27.7344,-12.9531 29.8906,-11.3281 C31.901,-9.56771 32.9063,-7.35417 32.9063,-4.6875 C32.9063,-0.197917 30.599,4 25.9844,7.90625 C21.2969,11.8125 16.2813,13.7656 10.9375,13.7656 C7.8125,13.7656 5.17708,12.9531 3.03125,11.3281 C1.01042,9.56771 0,7.35417 0,4.6875 C0,0.197917 2.34375,-4 7.03125,-7.90625 C11.5938,-11.8125 16.5729,-13.7656 21.9688,-13.7656"/>
<path class="Note" transform="matrix(0.907087,0,0,0.907087,384.215,1233.07)" d="M21.9688,-13.7656 C25.0938,-13.7656 27.7344,-12.9531 29.8906,-11.3281 C31.901,-9.56771 32.9063,-7.35417 32.9063,-4.6875 C32.9063,-0.197917 30.599,4 25.9844,7.90625 C21.2969,11.8125 16.2813,13.7656 10.9375,13.7656 C7.8125,13.7656 5.17708,12.9531 3.03125,11.3281 C1.01042,9.56771 0,7.35417 0,4.6875 C0,0.197917 2.34375,-4 7.03125,-7.90625 C11.5938,-11.8125 16.5729,-13.7656 21.9688,-13.7656"/>
<path class="Note" transform="matrix(0.907087,0,0,0.907087,2528.32,949.606)" d="M31.5469,-6.54688 C31.5469,-7.65104 31.125,-8.59375 30.2813,-9.375 C29.4271,-10.2188 28.4479,-10.6406 27.3438,-10.6406 C25.3958,-10.6406 21.4583,-8.6875 15.5313,-4.78125 C9.40625,-0.8125 5.66146,2.02083 4.29688,3.71875 C3.57813,4.625 3.21875,5.56771 3.21875,6.54688 C3.21875,7.65104 3.64583,8.59375 4.5,9.375 C5.28125,10.2188 6.25521,10.6406 7.42188,10.6406 C9.30729,10.6406 13.2813,8.6875 19.3438,4.78125 C25.3333,0.875 29.0417,-1.95833 30.4688,-3.71875 C31.1875,-4.5625 31.5469,-5.50521 31.5469,-6.54688 M26.375,-13.7656 C31.9688,-13.7656 34.7656,-11.3594 34.7656,-6.54688 C34.7656,-4.20313 34.0833,-1.46875 32.7188,1.65625 C31.3542,4.71875 29.5313,7.0625 27.25,8.6875 C22.2396,12.0729 15.9583,13.7656 8.40625,13.7656 C2.80208,13.7656 0,11.3594 0,6.54688 C0,4.40104 0.682292,1.69792 2.04688,-1.5625 C3.34896,-4.6875 5.17188,-7.0625 7.51563,-8.6875 C12.5365,-12.0729 18.8229,-13.7656 26.375,-13.7656"/>
<path class="Note" transform="matrix(0.907087,0,0,0.907087,2420.8,960.945)" d="M21.9688,-13.7656 C25.0938,-13.7656 27.7344,-12.9531 29.8906,-11.3281 C31.901,-9.56771 32.9063,-7.35417 32.9063,-4.6875 C32.9063,-0.197917 30.599,4 25.9844,7.90625 C21.2969,11.8125 16.2813,13.7656 10.9375,13.7656 C7.8125,13.7656 5.17708,12.9531 3.03125,11.3281 C1.01042,9.56771 0,7.35417 0,4.6875 C0,0.197917 2.34375,-4 7.03125,-7.90625 C11.5938,-11.8125 16.5729,-13.7656 21.9688,-13.7656"/>
<path class="Note" transform="matrix(0.907087,0,0,0.907087,2344.13,972.284)" d="M21.9688,-13.7656 C25.0938,-13.7656 27.7344,-12.9531 29.8906,-11.3281 C31.901,-9.56771 32.9063,-7.35417 32.9063,-4.6875 C32.9063,-0.197917 30.599,4 25.9844,7.90625 C21.2969,11.8125 16.2813,13.7656 10.9375,13.7656 C7.8125,13.7656 5.17708,12.9531 3.03125,11.3281 C1.01042,9.56771 0,7.35417 0,4.6875 C0,0.197917 2.34375,-4 7.03125,-7.90625 C11.5938,-11.8125 16.5729,-13.7656 21.9688,-13.7656"/>
<path class="Note" transform="matrix(0.907087,0,0,0.907087,2267.45,960.945)" d="M21.9688,-13.7656 C25.0938,-13.7656 27.7344,-12.9531 29.8906,-11.3281 C31.901,-9.56771 32.9063,-7.35417 32.9063,-4.6875 C32.9063,-0.197917 30.599,4 25.9844,7.90625 C21.2969,11.8125 16.2813,13.7656 10.9375,13.7656 C7.8125,13.7656 5.17708,12.9531 3.03125,11.3281 C1.01042,9.56771 0,7.35417 0,4.6875 C0,0.197917 2.34375,-4 7.03125,-7.90625 C11.5938,-11.8125 16.5729,-13.7656 21.9688,-13.7656"/>
<path class="Note" transform="matrix(0.907087,0,0,0.907087,2190.78,960.945)" d="M21.9688,-13.7656 C25.0938,-13.7656 27.7344,-12.9531 29.8906,-11.3281 C31.901,-9.56771 32.9063,-7.35417 32.9063,-4.6875 C32.9063,-0.197917 30.599,4 25.9844,7.90625 C21.2969,11.8125 16.2813,13.7656 10.9375,13.7656 C7.8125,13.7656 5.17708,12.9531 3.03125,11.3281 C1.01042,9.56771 0,7.35417 0,4.6875 C0,0.197917 2.34375,-4 7.03125,-7.90625 C11.5938,-11.8125 16.5729,-13.7656 21.9688,-13.7656"/>
<path class="Note" transform="matrix(0.907087,0,0,0.907087,2083.26,949.606)" d="M21.9688,-13.7656 C25.0938,-13.7656 27.7344,-12.9531 29.8906,-11.3281 C31.901,-9.56771 32.9063,-7.35417 32.9063,-4.6875 C32.9063,-0.197917 30.599,4 25.9844,7.90625 C21.2969,11.8125 16.2813,13.7656 10.9375,13.7656 C7.8125,13.7656 5.17708,12.9531 3.03125,11.3281 C1.01042,9.56771 0,7.35417 0,4.6875 C0,0.197917 2.34375,-4 7.03125,-7.90625 C11.5938,-11.8125 16.5729,-13.7656 21.9688,-13.7656"/>
<path class="Note" transform="matrix(0.907087,0,0,0.907087,2006.59,938.268)" d="M21.9688,-13.7656 C25.0938,-13.7656 27.7344,-12.9531 29.8906,-11.3281 C31.901,-9.56771 32.9063,-7.35417 32.9063,-4.6875 C32.9063,-0.197917 30.599,4 25.9844,7.90625 C21.2969,11.8125 16.2813,13.7656 10.9375,13.7656 C7.8125,13.7656 5.17708,12.9531 3.03125,11.3281 C1.01042,9.56771 0,7.35417 0,4.6875 C0,0.197917 2.34375,-4 7.03125,-7.90625 C11.5938,-11.8125 16.5729,-13.7656 21.9688,-13.7656"/>
<path class="Note" transform="matrix(0.907087,0,0,0.907087,1929.91,926.929)" d="M21.9688,-13.7656 C25.0938,-13.7656 27.7344,-12.9531 29.8906,-11.3281 C31.901,-9.56771 32.9063,-7.35417 32.9063,-4.6875 C32.9063,-0.197917 30.599,4 25.9844,7.90625 C21.2969,11.8125 16.2813,13.7656 10.9375,13.7656 C7.8125,13.7656 5.17708,12.9531 3.03125,11.3281 C1.01042,9.56771 0,7.35417 0,4.6875 C0,0.197917 2.34375,-4 7.03125,-7.90625 C11.5938,-11.8125 16.5729,-13.7656 21.9688,-13.7656"/>
<path class="Note" transform="matrix(0.907087,0,0,0.907087,1853.24,926.929)" d="M21.9688,-13.7656 C25.0938,-13.7656 27.7344,-12.9531 29.8906,-11.3281 C31.901,-9.56771 32.9063,-7.35417 32.9063,-4.6875 C32.9063,-0.197917 30.599,4 25.9844,7.90625 C21.2969,11.8125 16.2813,13.7656 10.9375,13.7656 C7.8125,13.7656 5.17708,12.9531 3.03125,11.3281 C1.01042,9.56771 0,7.35417 0,4.6875 C0,0.197917 2.34375,-4 7.03125,-7.90625 C11.5938,-11.8125 16.5729,-13.7656 21.9688,-13.7656"/>
<path class="Note" transform="matrix(0.907087,0,0,0.907087,1745.72,938.268)" d="M21.9688,-13.7656 C25.0938,-13.7656 27.7344,-12.9531 29.8906,-11.3281 C31.901,-9.56771 32.9063,-7.35417 32.9063,-4.6875 C32.9063,-0.197917 30.599,4 25.9844,7.90625 C21.2969,11.8125 16.2813,13.7656 10.9375,13.7656 C7.8125,13.7656 5.17708,12.9531 3.03125,11.3281 C1.01042,9.56771 0,7.35417 0,4.6875 C0,0.197917 2.34375,-4 7.03125,-7.90625 C11.5938,-11.8125 16.5729,-13.7656 21.9688,-13.7656"/>
<path class="Note" transform="matrix(0.907087,0,0,0.907087,1669.05,926.929)" d="M21.9688,-13.7656 C25.0938,-13.7656 27.7344,-12.9531 29.8906,-11.3281 C31.901,-9.56771 32.9063,-7.35417 32.9063,-4.6875 C32.9063,-0.197917 30.599,4 25.9844,7.90625 C21.2969,11.8125 16.2813,13.7656 10.9375,13.7656 C7.8125,13.7656 5.17708,12.9531 3.03125,11.3281 C1.01042,9.56771 0,7.35417 0,4.6875 C0,0.197917 2.34375,-4 7.03125,-7.90625 C11.5938,-11.8125 16.5729,-13.7656 21.9688,-13.7656"/>
<path class="Note" transform="matrix(0.907087,0,0,0.907087,1592.38,915.591)" d="M21.9688,-13.7656 C25.0938,-13.7656 27.7344,-12.9531 29.8906,-11.3281 C31.901,-9.56771 32.9063,-7.35417 32.9063,-4.6875 C32.9063,-0.197917 30.599,4 25.9844,7.90625 C21.2969,11.8125 16.2813,13.7656 10.9375,13.7656 C7.8125,13.7656 5.17708,12.9531 3.03125,11.3281 C1.01042,9.56771 0,7.35417 0,4.6875 C0,0.197917 2.34375,-4 7.03125,-7.90625 C11.5938,-11.8125 16.5729,-13.7656 21.9688,-13.7656"/>
<path class="Note" transform="matrix(0.907087,0,0,0.907087,1515.7,915.591)" d="M21.9688,-13.7656 C25.0938,-13.7656 27.7344,-12.9531 29.8906,-11.3281 C31.901,-9.56771 32.9063,-7.35417 32.9063,-4.6875 C32.9063,-0.197917 30.599,4 25.9844,7.90625 C21.2969,11.8125 16.2813,13.7656 10.9375,13.7656 C7.8125,13.7656 5.17708,12.9531 3.03125,11.3281 C1.01042,9.56771 0,7.35417 0,4.6875 C0,0.197917 2.34375,-4 7.03125,-7.90625 C11.5938,-11.8125 16.5729,-13.7656 21.9688,-13.7656"/>
<path class="Note" transform="matrix(0.907087,0,0,0.907087,1255.55,915.591)" d="M31.5469,-6.54688 C31.5469,-7.65104 31.125,-8.59375 30.2813,-9.375 C29.4271,-10.2188 28.4479,-10.6406 27.3438,-10.6406 C25.3958,-10.6406 21.4583,-8.6875 15.5313,-4.78125 C9.40625,-0.8125 5.66146,2.02083 4.29688,3.71875 C3.57813,4.625 3.21875,5.56771 3.21875,6.54688 C3.21875,7.65104 3.64583,8.59375 4.5,9.375 C5.28125,10.2188 6.25521,10.6406 7.42188,10.6406 C9.30729,10.6406 13.2813,8.6875 19.3438,4.78125 C25.3333,0.875 29.0417,-1.95833 30.4688,-3.71875 C31.1875,-4.5625 31.5469,-5.50521 31.5469,-6.54688 M26.375,-13.7656 C31.9688,-13.7656 34.7656,-11.3594 34.7656,-6.54688 C34.7656,-4.20313 34.0833,-1.46875 32.7188,1.65625 C31.3542,4.71875 29.5313,7.0625 27.25,8.6875 C22.2396,12.0729 15.9583,13.7656 8.40625,13.7656 C2.80208,13.7656 0,11.3594 0,6.54688 C0,4.40104 0.682292,1.69792 2.04688,-1.5625 C3.34896,-4.6875 5.17188,-7.0625 7.51563,-8.6875 C12.5365,-12.0729 18.8229,-13.7656 26.375,-13.7656"/>
<path class="Note" transform="matrix(0.907087,0,0,0.907087,1147.21,926.929)" d="M21.9688,-13.7656 C25.0938,-13.7656 27.7344,-12.9531 29.8906,-11.3281 C31.901,-9.56771 32.9063,-7.35417 32.9063,-4.6875 C32.9063,-0.197917 30.599,4 25.9844,7.90625 C21.2969,11.8125 16.2813,13.7656 10.9375,13.7656 C7.8125,13.7656 5.17708,12.9531 3.03125,11.3281 C1.01042,9.56771 0,7.35417 0,4.6875 C0,0.197917 2.34375,-4 7.03125,-7.90625 C11.5938,-11.8125 16.5729,-13.7656 21.9688,-13.7656"/>
<path class="Note" transform="matrix(0.907087,0,0,0.907087,1070.54,938.268)" d="M21.9688,-13.7656 C25.0938,-13.7656 27.7344,-12.9531 29.8906,-11.3281 C31.901,-9.56771 32.9063,-7.35417 32.9063,-4.6875 C32.9063,-0.197917 30.599,4 25.9844,7.90625 C21.2969,11.8125 16.2813,13.7656 10.9375,13.7656 C7.8125,13.7656 5.17708,12.9531 3.03125,11.3281 C1.01042,9.56771 0,7.35417 0,4.6875 C0,0.197917 2.34375,-4 7.03125,-7.90625 C11.5938,-11.8125 16.5729,-13.7656 21.9688,-13.7656"/>
<path class="Note" transform="matrix(0.907087,0,0,0.907087,993.864,949.606)" d="M21.9688,-13.7656 C25.0938,-13.7656 27.7344,-12.9531 29.8906,-11.3281 C31.901,-9.56771 32.9063,-7.35417 32.9063,-4.6875 C32.9063,-0.197917 30.599,4 25.9844,7.90625 C21.2969,11.8125 16.2813,13.7656 10.9375,13.7656 C7.8125,13.7656 5.17708,12.9531 3.03125,11.3281 C1.01042,9.56771 0,7.35417 0,4.6875 C0,0.197917 2.34375,-4 7.03125,-7.90625 C11.5938,-11.8125 16.5729,-13.7656 21.9688,-13.7656"/>
<path class="Note" transform="matrix(0.907087,0,0,0.907087,917.19,949.606)" d="M21.9688,-13.7656 C25.0938,-13.7656 27.7344,-12.9531 29.8906,-11.3281 C31.901,-9.56771 32.9063,-7.35417 32.9063,-4.6875 C32.9063,-0.197917 30.599,4 25.9844,7.90625 C21.2969,11.8125 16.2813,13.7656 10.9375,13.7656 C7.8125,13.7656 5.17708,12.9531 3.03125,11.3281 C1.01042,9.56771 0,7.35417 0,4.6875 C0,0.197917 2.34375,-4 7.03125,-7.90625 C11.5938,-11.8125 16.5729,-13.7656 21.9688,-13.7656"/>
<path class="Note" transform="matrix(0.907087,0,0,0.907087,768.526,949.606)" d="M21.9688,-13.7656 C25.0938,-13.7656 27.7344,-12.9531 29.8906,-11.3281 C31.901,-9.56771 32.9063,-7.35417 32.9063,-4.6875 C32.9063,-0.197917 30.599,4 25.9844,7.90625 C21.2969,11.8125 16.2813,13.7656 10.9375,13.7656 C7.8125,13.7656 5.17708,12.9531 3.03125,11.3281 C1.01042,9.56771 0,7.35417 0,4.6875 C0,0.197917 2.34375,-4 7.03125,-7.90625 C11.5938,-11.8125 16.5729,-13.7656 21.9688,-13.7656"/>
<path class="Note" transform="matrix(0.907087,0,0,0.907087,650.702,972.284)" d="M21.9688,-13.7656 C25.0938,-13.7656 27.7344,-12.9531 29.8906,-11.3281 C31.901,-9.56771 32.9063,-7.35417 32.9063,-4.6875 C32.9063,-0.197917 30.599,4 25.9844,7.90625 C21.2969,11.8125 16.2813,13.7656 10.9375,13.7656 C7.8125,13.7656 5.17708,12.9531 3.03125,11.3281 C1.01042,9.56771 0,7.35417 0,4.6875 C0,0.197917 2.34375,-4 7.03125,-7.90625 C11.5938,-11.8125 16.5729,-13.7656 21.9688,-13.7656"/>
<path class="Note" transform="matrix(0.907087,0,0,0.907087,502.038,949.606)" d="M21.9688,-13.7656 C25.0938,-13.7656 27.7344,-12.9531 29.8906,-11.3281 C31.901,-9.56771 32.9063,-7.35417 32.9063,-4.6875 C32.9063,-0.197917 30.599,4 25.9844,7.90625 C21.2969,11.8125 16.2813,13.7656 10.9375,13.7656 C7.8125,13.7656 5.17708,12.9531 3.03125,11.3281 C1.01042,9.56771 0,7.35417 0,4.6875 C0,0.197917 2.34375,-4 7.03125,-7.90625 C11.5938,-11.8125 16.5729,-13.7656 21.9688,-13.7656"/>
<path class="Note" transform="matrix(0.907087,0,0,0.907087,384.215,972.284)" d="M21.9688,-13.7656 C25.0938,-13.7656 27.7344,-12.9531 29.8906,-11.3281 C31.901,-9.56771 32.9063,-7.35417 32.9063,-4.6875 C32.9063,-0.197917 30.599,4 25.9844,7.90625 C21.2969,11.8125 16.2813,13.7656 10.9375,13.7656 C7.8125,13.7656 5.17708,12.9531 3.03125,11.3281 C1.01042,9.56771 0,7.35417 0,4.6875 C0,0.197917 2.34375,-4 7.03125,-7.90625 C11.5938,-11.8125 16.5729,-13.7656 21.9688,-13.7656"/>
<path class="Note" transform="matrix(0.907087,0,0,0.907087,2516.53,654.803)" d="M31.5469,-6.54688 C31.5469,-7.65104 31.125,-8.59375 30.2813,-9.375 C29.4271,-10.2188 28.4479,-10.6406 27.3438,-10.6406 C25.3958,-10.6406 21.4583,-8.6875 15.5313,-4.78125 C9.40625,-0.8125 5.66146,2.02083 4.29688,3.71875 C3.57813,4.625 3.21875,5.56771 3.21875,6.54688 C3.21875,7.65104 3.64583,8.59375 4.5,9.375 C5.28125,10.2188 6.25521,10.6406 7.42188,10.6406 C9.30729,10.6406 13.2813,8.6875 19.3438,4.78125 C25.3333,0.875 29.0417,-1.95833 30.4688,-3.71875 C31.1875,-4.5625 31.5469,-5.50521 31.5469,-6.54688 M26.375,-13.7656 C31.9688,-13.7656 34.7656,-11.3594 34.7656,-6.54688 C34.7656,-4.20313 34.0833,-1.46875 32.7188,1.65625 C31.3542,4.71875 29.5313,7.0625 27.25,8.6875 C22.2396,12.0729 15.9583,13.7656 8.40625,13.7656 C2.80208,13.7656 0,11.3594 0,6.54688 C0,4.40104 0.682292,1.69792 2.04688,-1.5625 C3.34896,-4.6875 5.17188,-7.0625 7.51563,-8.6875 C12.5365,-12.0729 18.8229,-13.7656 26.375,-13.7656"/>
<path class="Note" transform="matrix(0.907087,0,0,0.907087,2406.07,643.465)" d="M21.9688,-13.7656 C25.0938,-13.7656 27.7344,-12.9531 29.8906,-11.3281 C31.901,-9.56771 32.9063,-7.35417 32.9063,-4.6875 C32.9063,-0.197917 30.599,4 25.9844,7.90625 C21.2969,11.8125 16.2813,13.7656 10.9375,13.7656 C7.8125,13.7656 5.17708,12.9531 3.03125,11.3281 C1.01042,9.56771 0,7.35417 0,4.6875 C0,0.197917 2.34375,-4 7.03125,-7.90625 C11.5938,-11.8125 16.5729,-13.7656 21.9688,-13.7656"/>
<path class="Note" transform="matrix(0.907087,0,0,0.907087,2326.45,632.126)" d="M21.9688,-13.7656 C25.0938,-13.7656 27.7344,-12.9531 29.8906,-11.3281 C31.901,-9.56771 32.9063,-7.35417 32.9063,-4.6875 C32.9063,-0.197917 30.599,4 25.9844,7.90625 C21.2969,11.8125 16.2813,13.7656 10.9375,13.7656 C7.8125,13.7656 5.17708,12.9531 3.03125,11.3281 C1.01042,9.56771 0,7.35417 0,4.6875 C0,0.197917 2.34375,-4 7.03125,-7.90625 C11.5938,-11.8125 16.5729,-13.7656 21.9688,-13.7656"/>
<path class="Note" transform="matrix(0.907087,0,0,0.907087,2246.83,620.787)" d="M21.9688,-13.7656 C25.0938,-13.7656 27.7344,-12.9531 29.8906,-11.3281 C31.901,-9.56771 32.9063,-7.35417 32.9063,-4.6875 C32.9063,-0.197917 30.599,4 25.9844,7.90625 C21.2969,11.8125 16.2813,13.7656 10.9375,13.7656 C7.8125,13.7656 5.17708,12.9531 3.03125,11.3281 C1.01042,9.56771 0,7.35417 0,4.6875 C0,0.197917 2.34375,-4 7.03125,-7.90625 C11.5938,-11.8125 16.5729,-13.7656 21.9688,-13.7656"/>
<path class="Note" transform="matrix(0.907087,0,0,0.907087,2167.21,620.787)" d="M21.9688,-13.7656 C25.0938,-13.7656 27.7344,-12.9531 29.8906,-11.3281 C31.901,-9.56771 32.9063,-7.35417 32.9063,-4.6875 C32.9063,-0.197917 30.599,4 25.9844,7.90625 C21.2969,11.8125 16.2813,13.7656 10.9375,13.7656 C7.8125,13.7656 5.17708,12.9531 3.03125,11.3281 C1.01042,9.56771 0,7.35417 0,4.6875 C0,0.197917 2.34375,-4 7.03125,-7.90625 C11.5938,-11.8125 16.5729,-13.7656 21.9688,-13.7656"/>
<path class="Note" transform="matrix(0.907087,0,0,0.907087,2012.65,643.465)" d="M21.9688,-13.7656 C25.0938,-13.7656 27.7344,-12.9531 29.8906,-11.3281 C31.901,-9.56771 32.9063,-7.35417 32.9063,-4.6875 C32.9063,-0.197917 30.599,4 25.9844,7.90625 C21.2969,11.8125 16.2813,13.7656 10.9375,13.7656 C7.8125,13.7656 5.17708,12.9531 3.03125,11.3281 C1.01042,9.56771 0,7.35417 0,4.6875 C0,0.197917 2.34375,-4 7.03125,-7.90625 C11.5938,-11.8125 16.5729,-13.7656 21.9688,-13.7656"/>
<path class="Note" transform="matrix(0.907087,0,0,0.907087,1888.94,666.142)" d="M21.9688,-13.7656 C25.0938,-13.7656 27.7344,-12.9531 29.8906,-11.3281 C31.901,-9.56771 32.9063,-7.35417 32.9063,-4.6875 C32.9063,-0.197917 30.599,4 25.9844,7.90625 C21.2969,11.8125 16.2813,13.7656 10.9375,13.7656 C7.8125,13.7656 5.17708,12.9531 3.03125,11.3281 C1.01042,9.56771 0,7.35417 0,4.6875 C0,0.197917 2.34375,-4 7.03125,-7.90625 C11.5938,-11.8125 16.5729,-13.7656 21.9688,-13.7656"/>
<path class="Note" transform="matrix(0.907087,0,0,0.907087,1734.38,643.465)" d="M21.9688,-13.7656 C25.0938,-13.7656 27.7344,-12.9531 29.8906,-11.3281 C31.901,-9.56771 32.9063,-7.35417 32.9063,-4.6875 C32.9063,-0.197917 30.599,4 25.9844,7.90625 C21.2969,11.8125 16.2813,13.7656 10.9375,13.7656 C7.8125,13.7656 5.17708,12.9531 3.03125,11.3281 C1.01042,9.56771 0,7.35417 0,4.6875 C0,0.197917 2.34375,-4 7.03125,-7.90625 C11.5938,-11.8125 16.5729,-13.7656 21.9688,-13.7656"/>
<path class="Note" transform="matrix(0.907087,0,0,0.907087,1610.67,666.142)" d="M21.9688,-13.7656 C25.0938,-13.7656 27.7344,-12.9531 29.8906,-11.3281 C31.901,-9.56771 32.9063,-7.35417 32.9063,-4.6875 C32.9063,-0.197917 30.599,4 25.9844,7.90625 C21.2969,11.8125 16.2813,13.7656 10.9375,13.7656 C7.8125,13.7656 5.17708,12.9531 3.03125,11.3281 C1.01042,9.56771 0,7.35417 0,4.6875 C0,0.197917 2.34375,-4 7.03125,-7.90625 C11.5938,-11.8125 16.5729,-13.7656 21.9688,-13.7656"/>
<path class="Note" transform="matrix(0.907087,0,0,0.907087,1337.91,643.465)" d="M31.5469,-6.54688 C31.5469,-7.65104 31.125,-8.59375 30.2813,-9.375 C29.4271,-10.2188 28.4479,-10.6406 27.3438,-10.6406 C25.3958,-10.6406 21.4583,-8.6875 15.5313,-4.78125 C9.40625,-0.8125 5.66146,2.02083 4.29688,3.71875 C3.57813,4.625 3.21875,5.56771 3.21875,6.54688 C3.21875,7.65104 3.64583,8.59375 4.5,9.375 C5.28125,10.2188 6.25521,10.6406 7.42188,10.6406 C9.30729,10.6406 13.2813,8.6875 19.3438,4.78125 C25.3333,0.875 29.0417,-1.95833 30.4688,-3.71875 C31.1875,-4.5625 31.5469,-5.50521 31.5469,-6.54688 M26.375,-13.7656 C31.9688,-13.7656 34.7656,-11.3594 34.7656,-6.54688 C34.7656,-4.20313 34.0833,-1.46875 32.7188,1.65625 C31.3542,4.71875 29.5313,7.0625 27.25,8.6875 C22.2396,12.0729 15.9583,13.7656 8.40625,13.7656 C2.80208,13.7656 0,11.3594 0,6.54688 C0,4.40104 0.682292,1.69792 2.04688,-1.5625 C3.34896,-4.6875 5.17188,-7.0625 7.51563,-8.6875 C12.5365,-12.0729 18.8229,-13.7656 26.375,-13.7656"/>
<path class="Note" transform="matrix(0.907087,0,0,0.907087,1227.45,632.126)" d="M21.9688,-13.7656 C25.0938,-13.7656 27.7344,-12.9531 29.8906,-11.3281 C31.901,-9.56771 32.9063,-7.35417 32.9063,-4.6875 C32.9063,-0.197917 30.599,4 25.9844,7.90625 C21.2969,11.8125 16.2813,13.7656 10.9375,13.7656 C7.8125,13.7656 5.17708,12.9531 3.03125,11.3281 C1.01042,9.56771 0,7.35417 0,4.6875 C0,0.197917 2.34375,-4 7.03125,-7.90625 C11.5938,-11.8125 16.5729,-13.7656 21.9688,-13.7656"/>
<path class="Note" transform="matrix(0.907087,0,0,0.907087,1147.83,620.787)" d="M21.9688,-13.7656 C25.0938,-13.7656 27.7344,-12.9531 29.8906,-11.3281 C31.901,-9.56771 32.9063,-7.35417 32.9063,-4.6875 C32.9063,-0.197917 30.599,4 25.9844,7.90625 C21.2969,11.8125 16.2813,13.7656 10.9375,13.7656 C7.8125,13.7656 5.17708,12.9531 3.03125,11.3281 C1.01042,9.56771 0,7.35417 0,4.6875 C0,0.197917 2.34375,-4 7.03125,-7.90625 C11.5938,-11.8125 16.5729,-13.7656 21.9688,-13.7656"/>
<path class="Note" transform="matrix(0.907087,0,0,0.907087,1068.21,609.449)" d="M21.9688,-13.7656 C25.0938,-13.7656 27.7344,-12.9531 29.8906,-11.3281 C31.901,-9.56771 32.9063,-7.35417 32.9063,-4.6875 C32.9063,-0.197917 30.599,4 25.9844,7.90625 C21.2969,11.8125 16.2813,13.7656 10.9375,13.7656 C7.8125,13.7656 5.17708,12.9531 3.03125,11.3281 C1.01042,9.56771 0,7.35417 0,4.6875 C0,0.197917 2.34375,-4 7.03125,-7.90625 C11.5938,-11.8125 16.5729,-13.7656 21.9688,-13.7656"/>
<path class="Note" transform="matrix(0.907087,0,0,0.907087,988.591,609.449)" d="M21.9688,-13.7656 C25.0938,-13.7656 27.7344,-12.9531 29.8906,-11.3281 C31.901,-9.56771 32.9063,-7.35417 32.9063,-4.6875 C32.9063,-0.197917 30.599,4 25.9844,7.90625 C21.2969,11.8125 16.2813,13.7656 10.9375,13.7656 C7.8125,13.7656 5.17708,12.9531 3.03125,11.3281 C1.01042,9.56771 0,7.35417 0,4.6875 C0,0.197917 2.34375,-4 7.03125,-7.90625 C11.5938,-11.8125 16.5729,-13.7656 21.9688,-13.7656"/>
<path class="Note" transform="matrix(0.907087,0,0,0.907087,834.035,632.126)" d="M21.9688,-13.7656 C25.0938,-13.7656 27.7344,-12.9531 29.8906,-11.3281 C31.901,-9.56771 32.9063,-7.35417 32.9063,-4.6875 C32.9063,-0.197917 30.599,4 25.9844,7.90625 C21.2969,11.8125 16.2813,13.7656 10.9375,13.7656 C7.8125,13.7656 5.17708,12.9531 3.03125,11.3281 C1.01042,9.56771 0,7.35417 0,4.6875 C0,0.197917 2.34375,-4 7.03125,-7.90625 C11.5938,-11.8125 16.5729,-13.7656 21.9688,-13.7656"/>
<path class="Note" transform="matrix(0.907087,0,0,0.907087,710.32,654.803)" d="M21.9688,-13.7656 C25.0938,-13.7656 27.7344,-12.9531 29.8906,-11.3281 C31.901,-9.56771 32.9063,-7.35417 32.9063,-4.6875 C32.9063,-0.197917 30.599,4 25.9844,7.90625 C21.2969,11.8125 16.2813,13.7656 10.9375,13.7656 C7.8125,13.7656 5.17708,12.9531 3.03125,11.3281 C1.01042,9.56771 0,7.35417 0,4.6875 C0,0.197917 2.34375,-4 7.03125,-7.90625 C11.5938,-11.8125 16.5729,-13.7656 21.9688,-13.7656"/>
<path class="Note" transform="matrix(0.907087,0,0,0.907087,555.765,632.126)" d="M21.9688,-13.7656 C25.0938,-13.7656 27.7344,-12.9531 29.8906,-11.3281 C31.901,-9.56771 32.9063,-7.35417 32.9063,-4.6875 C32.9063,-0.197917 30.599,4 25.9844,7.90625 C21.2969,11.8125 16.2813,13.7656 10.9375,13.7656 C7.8125,13.7656 5.17708,12.9531 3.03125,11.3281 C1.01042,9.56771 0,7.35417 0,4.6875 C0,0.197917 2.34375,-4 7.03125,-7.90625 C11.5938,-11.8125 16.5729,-13.7656 21.9688,-13.7656"/>
<path class="Note" transform="matrix(0.907087,0,0,0.907087,432.05,654.803)" d="M21.9688,-13.7656 C25.0938,-13.7656 27.7344,-12.9531 29.8906,-11.3281 C31.901,-9.56771 32.9063,-7.35417 32.9063,-4.6875 C32.9063,-0.197917 30.599,4 25.9844,7.90625 C21.2969,11.8125 16.2813,13.7656 10.9375,13.7656 C7.8125,13.7656 5.17708,12.9531 3.03125,11.3281 C1.01042,9.56771 0,7.35417 0,4.6875 C0,0.197917 2.34375,-4 7.03125,-7.90625 C11.5938,-11.8125 16.5729,-13.7656 21.9688,-13.7656"/>
<path class="Clef" transform="matrix(0.907087,0,0,0.907087,227.112,1278.43)" d="M36.7188,-25.5938 C36.7188,-25.5938 36.9167,-25.5938 37.3125,-25.5938 C37.5729,-25.6563 37.7969,-25.6875 37.9844,-25.6875 C45.276,-25.6875 51.2656,-23.1146 55.9531,-17.9688 C60.6406,-12.8958 62.9844,-6.97396 62.9844,-0.203125 C62.9844,8.20313 59.5052,15.0417 52.5469,20.3125 C50.724,21.75 48.3438,22.9219 45.4063,23.8281 C45.7396,28.0573 45.9063,31.474 45.9063,34.0781 C45.9063,34.599 45.8385,36.4896 45.7031,39.75 C45.4427,45.8021 43.3594,51.0417 39.4531,55.4688 C35.6823,59.8333 30.9948,62.0156 25.3906,62.0156 C20.1198,62.0156 15.6302,60.1615 11.9219,56.4531 C8.20313,52.6719 6.34375,48.1146 6.34375,42.7813 C6.34375,39.9792 7.42188,37.599 9.57813,35.6406 C11.7865,33.6927 14.3542,32.7188 17.2813,32.7188 C19.8854,32.7188 22.0677,33.7292 23.8281,35.75 C25.651,37.6354 26.5625,39.9792 26.5625,42.7813 C26.5625,45.3125 25.651,47.4896 23.8281,49.3125 C22.0052,51.1354 19.8229,52.0469 17.2813,52.0469 C16.2396,52.0469 15.2344,51.8542 14.2656,51.4688 C17.1302,55.6979 20.9375,57.8125 25.6875,57.8125 C30.1771,57.8125 33.8542,55.9896 36.7188,52.3438 C39.7188,48.5729 41.349,44.1771 41.6094,39.1563 C41.7344,36.0313 41.7969,34.2448 41.7969,33.7969 C41.7969,30.151 41.6667,27.1563 41.4063,24.8125 C38.1563,25.3333 35.2604,25.5938 32.7188,25.5938 C23.6667,25.5938 15.9531,22.0104 9.57813,14.8438 C3.32813,7.61458 0.203125,-0.979167 0.203125,-10.9375 C0.203125,-13.0208 0.395833,-15.1354 0.78125,-17.2813 C1.17708,-19.0417 1.66667,-20.9635 2.25,-23.0469 C2.57292,-24.224 3.45313,-26.1146 4.89063,-28.7188 C5.41146,-29.5 5.9974,-30.4766 6.64844,-31.6484 C7.29948,-32.8203 7.75521,-33.599 8.01563,-33.9844 C8.66146,-35.2865 9.92708,-37.0469 11.8125,-39.2656 C12.3333,-39.849 12.8724,-40.4974 13.4297,-41.2109 C13.987,-41.9245 14.4609,-42.5104 14.8516,-42.9688 C15.2422,-43.4271 15.5339,-43.7865 15.7266,-44.0469 C15.9193,-44.3073 17.3854,-46.0313 20.125,-49.2188 C20.7708,-49.875 21.4036,-50.5755 22.0234,-51.3203 C22.6432,-52.0651 23.1484,-52.651 23.5391,-53.0781 C23.9297,-53.5052 24.224,-53.8125 24.4219,-54 C22.0781,-61.75 20.6094,-67.9375 20.0156,-72.5625 C19.5677,-76.2708 19.3438,-81.349 19.3438,-87.7969 C19.3438,-93.4635 20.6458,-98.7708 23.25,-103.719 C25.7813,-108.854 29.3281,-113.052 33.8906,-116.313 C34.151,-116.51 34.474,-116.609 34.8594,-116.609 C35.3177,-116.609 35.6458,-116.51 35.8438,-116.313 C39.3542,-112.083 42.3802,-106.583 44.9219,-99.8125 C47.526,-93.0417 48.8281,-86.8854 48.8281,-81.3438 C48.8281,-75.0938 47.3333,-69.2344 44.3438,-63.7656 C40.9583,-57.974 36.5938,-51.9844 31.25,-45.7969 C32.6146,-41.5052 34.4375,-34.7708 36.7188,-25.5938 M45.0156,19.8281 C48.401,18.5885 51.0417,16.474 52.9375,13.4844 C55.0208,10.6198 56.0625,7.39583 56.0625,3.8125 C56.0625,-0.8125 54.5,-4.91667 51.375,-8.5 C48.1771,-12.2083 44.1042,-14.2917 39.1563,-14.75 C41.9583,-1.01042 43.9115,10.5156 45.0156,19.8281 M7.23438,-2.73438 C7.23438,3.71354 9.83854,9.38021 15.0469,14.2656 C20.3802,19.0156 26.3698,21.3906 33.0156,21.3906 C35.7448,21.3906 38.4115,21.1927 41.0156,20.7969 C39.974,10.901 37.9219,-0.947917 34.8594,-14.75 C31.151,-14.3542 28.1927,-13.0521 25.9844,-10.8438 C23.8281,-8.5625 22.75,-5.98958 22.75,-3.125 C22.75,1.82292 25.3906,5.82813 30.6719,8.89063 C31.1198,9.34896 31.3438,9.83854 31.3438,10.3594 C31.3438,10.8802 31.1198,11.3646 30.6719,11.8125 C30.276,12.2708 29.7865,12.5 29.2031,12.5 C29.1406,12.5 28.849,12.4375 28.3281,12.3125 C24.6094,10.2917 21.7448,7.6875 19.7344,4.5 C17.8385,1.10417 16.8906,-2.31771 16.8906,-5.76563 C16.8906,-10.2552 18.2917,-14.3229 21.0938,-17.9688 C24.0208,-21.6146 27.8281,-23.9583 32.5156,-25 C30.6927,-32.2917 29.1979,-37.9896 28.0313,-42.0938 C26.9896,-40.9167 25.737,-39.5 24.2734,-37.8438 C22.8099,-36.1875 21.9479,-35.1927 21.6875,-34.8594 C19.3438,-31.8073 17.5521,-29.4323 16.3125,-27.7344 C14.0938,-24.6719 12.4635,-22.0365 11.4219,-19.8281 C10.3177,-17.349 9.34375,-14.6458 8.5,-11.7188 C7.65625,-8.91667 7.23438,-5.92188 7.23438,-2.73438 M39.8438,-102.047 C34.9583,-99.6406 31.1198,-96.1927 28.3281,-91.7031 C25.4635,-87.0781 24.0313,-82.099 24.0313,-76.7656 C24.0313,-72.0781 25.2031,-65.7604 27.5469,-57.8125 C32.2344,-63.4792 35.75,-68.7188 38.0938,-73.5313 C40.5625,-78.6146 41.7969,-83.9219 41.7969,-89.4531 C41.7969,-93.6198 41.1458,-97.8177 39.8438,-102.047"/>
<path class="Clef" transform="matrix(0.907087,0,0,0.907087,227.112,960.945)" d="M36.7188,-25.5938 C36.7188,-25.5938 36.9167,-25.5938 37.3125,-25.5938 C37.5729,-25.6563 37.7969,-25.6875 37.9844,-25.6875 C45.276,-25.6875 51.2656,-23.1146 55.9531,-17.9688 C60.6406,-12.8958 62.9844,-6.97396 62.9844,-0.203125 C62.9844,8.20313 59.5052,15.0417 52.5469,20.3125 C50.724,21.75 48.3438,22.9219 45.4063,23.8281 C45.7396,28.0573 45.9063,31.474 45.9063,34.0781 C45.9063,34.599 45.8385,36.4896 45.7031,39.75 C45.4427,45.8021 43.3594,51.0417 39.4531,55.4688 C35.6823,59.8333 30.9948,62.0156 25.3906,62.0156 C20.1198,62.0156 15.6302,60.1615 11.9219,56.4531 C8.20313,52.6719 6.34375,48.1146 6.34375,42.7813 C6.34375,39.9792 7.42188,37.599 9.57813,35.6406 C11.7865,33.6927 14.3542,32.7188 17.2813,32.7188 C19.8854,32.7188 22.0677,33.7292 23.8281,35.75 C25.651,37.6354 26.5625,39.9792 26.5625,42.7813 C26.5625,45.3125 25.651,47.4896 23.8281,49.3125 C22.0052,51.1354 19.8229,52.0469 17.2813,52.0469 C16.2396,52.0469 15.2344,51.8542 14.2656,51.4688 C17.1302,55.6979 20.9375,57.8125 25.6875,57.8125 C30.1771,57.8125 33.8542,55.9896 36.7188,52.3438 C39.7188,48.5729 41.349,44.1771 41.6094,39.1563 C41.7344,36.0313 41.7969,34.2448 41.7969,33.7969 C41.7969,30.151 41.6667,27.1563 41.4063,24.8125 C38.1563,25.3333 35.2604,25.5938 32.7188,25.5938 C23.6667,25.5938 15.9531,22.0104 9.57813,14.8438 C3.32813,7.61458 0.203125,-0.979167 0.203125,-10.9375 C0.203125,-13.0208 0.395833,-15.1354 0.78125,-17.2813 C1.17708,-19.0417 1.66667,-20.9635 2.25,-23.0469 C2.57292,-24.224 3.45313,-26.1146 4.89063,-28.7188 C5.41146,-29.5 5.9974,-30.4766 6.64844,-31.6484 C7.29948,-32.8203 7.75521,-33.599 8.01563,-33.9844 C8.66146,-35.2865 9.92708,-37.0469 11.8125,-39.2656 C12.3333,-39.849 12.8724,-40.4974 13.4297,-41.2109 C13.987,-41.9245 14.4609,-42.5104 14.8516,-42.9688 C15.2422,-43.4271 15.5339,-43.7865 15.7266,-44.0469 C15.9193,-44.3073 17.3854,-46.0313 20.125,-49.2188 C20.7708,-49.875 21.4036,-50.5755 22.0234,-51.3203 C22.6432,-52.0651 23.1484,-52.651 23.5391,-53.0781 C23.9297,-53.5052 24.224,-53.8125 24.4219,-54 C22.0781,-61.75 20.6094,-67.9375 20.0156,-72.5625 C19.5677,-76.2708 19.3438,-81.349 19.3438,-87.7969 C19.3438,-93.4635 20.6458,-98.7708 23.25,-103.719 C25.7813,-108.854 29.3281,-113.052 33.8906,-116.313 C34.151,-116.51 34.474,-116.609 34.8594,-116.609 C35.3177,-116.609 35.6458,-116.51 35.8438,-116.313 C39.3542,-112.083 42.3802,-106.583 44.9219,-99.8125 C47.526,-93.0417 48.8281,-86.8854 48.8281,-81.3438 C48.8281,-75.0938 47.3333,-69.2344 44.3438,-63.7656 C40.9583,-57.974 36.5938,-51.9844 31.25,-45.7969 C32.6146,-41.5052 34.4375,-34.7708 36.7188,-25.5938 M45.0156,19.8281 C48.401,18.5885 51.0417,16.474 52.9375,13.4844 C55.0208,10.6198 56.0625,7.39583 56.0625,3.8125 C56.0625,-0.8125 54.5,-4.91667 51.375,-8.5 C48.1771,-12.2083 44.1042,-14.2917 39.1563,-14.75 C41.9583,-1.01042 43.9115,10.5156 45.0156,19.8281 M7.23438,-2.73438 C7.23438,3.71354 9.83854,9.38021 15.0469,14.2656 C20.3802,19.0156 26.3698,21.3906 33.0156,21.3906 C35.7448,21.3906 38.4115,21.1927 41.0156,20.7969 C39.974,10.901 37.9219,-0.947917 34.8594,-14.75 C31.151,-14.3542 28.1927,-13.0521 25.9844,-10.8438 C23.8281,-8.5625 22.75,-5.98958 22.75,-3.125 C22.75,1.82292 25.3906,5.82813 30.6719,8.89063 C31.1198,9.34896 31.3438,9.83854 31.3438,10.3594 C31.3438,10.8802 31.1198,11.3646 30.6719,11.8125 C30.276,12.2708 29.7865,12.5 29.2031,12.5 C29.1406,12.5 28.849,12.4375 28.3281,12.3125 C24.6094,10.2917 21.7448,7.6875 19.7344,4.5 C17.8385,1.10417 16.8906,-2.31771 16.8906,-5.76563 C16.8906,-10.2552 18.2917,-14.3229 21.0938,-17.9688 C24.0208,-21.6146 27.8281,-23.9583 32.5156,-25 C30.6927,-32.2917 29.1979,-37.9896 28.0313,-42.0938 C26.9896,-40.9167 25.737,-39.5 24.2734,-37.8438 C22.8099,-36.1875 21.9479,-35.1927 21.6875,-34.8594 C19.3438,-31.8073 17.5521,-29.4323 16.3125,-27.7344 C14.0938,-24.6719 12.4635,-22.0365 11.4219,-19.8281 C10.3177,-17.349 9.34375,-14.6458 8.5,-11.7188 C7.65625,-8.91667 7.23438,-5.92188 7.23438,-2.73438 M39.8438,-102.047 C34.9583,-99.6406 31.1198,-96.1927 28.3281,-91.7031 C25.4635,-87.0781 24.0313,-82.099 24.0313,-76.7656 C24.0313,-72.0781 25.2031,-65.7604 27.5469,-57.8125 C32.2344,-63.4792 35.75,-68.7188 38.0938,-73.5313 C40.5625,-78.6146 41.7969,-83.9219 41.7969,-89.4531 C41.7969,-93.6198 41.1458,-97.8177 39.8438,-102.047"/>
<path class="Clef" transform="matrix(0.907087,0,0,0.907087,227.112,643.465)" d="M36.7188,-25.5938 C36.7188,-25.5938 36.9167,-25.5938 37.3125,-25.5938 C37.5729,-25.6563 37.7969,-25.6875 37.9844,-25.6875 C45.276,-25.6875 51.2656,-23.1146 55.9531,-17.9688 C60.6406,-12.8958 62.9844,-6.97396 62.9844,-0.203125 C62.9844,8.20313 59.5052,15.0417 52.5469,20.3125 C50.724,21.75 48.3438,22.9219 45.4063,23.8281 C45.7396,28.0573 45.9063,31.474 45.9063,34.0781 C45.9063,34.599 45.8385,36.4896 45.7031,39.75 C45.4427,45.8021 43.3594,51.0417 39.4531,55.4688 C35.6823,59.8333 30.9948,62.0156 25.3906,62.0156 C20.1198,62.0156 15.6302,60.1615 11.9219,56.4531 C8.20313,52.6719 6.34375,48.1146 6.34375,42.7813 C6.34375,39.9792 7.42188,37.599 9.57813,35.6406 C11.7865,33.6927 14.3542,32.7188 17.2813,32.7188 C19.8854,32.7188 22.0677,33.7292 23.8281,35.75 C25.651,37.6354 26.5625,39.9792 26.5625,42.7813 C26.5625,45.3125 25.651,47.4896 23.8281,49.3125 C22.0052,51.1354 19.8229,52.0469 17.2813,52.0469 C16.2396,52.0469 15.2344,51.8542 14.2656,51.4688 C17.1302,55.6979 20.9375,57.8125 25.6875,57.8125 C30.1771,57.8125 33.8542,55.9896 36.7188,52.3438 C39.7188,48.5729 41.349,44.1771 41.6094,39.1563 C41.7344,36.0313 41.7969,34.2448 41.7969,33.7969 C41.7969,30.151 41.6667,27.1563 41.4063,24.8125 C38.1563,25.3333 35.2604,25.5938 32.7188,25.5938 C23.6667,25.5938 15.9531,22.0104 9.57813,14.8438 C3.32813,7.61458 0.203125,-0.979167 0.203125,-10.9375 C0.203125,-13.0208 0.395833,-15.1354 0.78125,-17.2813 C1.17708,-19.0417 1.66667,-20.9635 2.25,-23.0469 C2.57292,-24.224 3.45313,-26.1146 4.89063,-28.7188 C5.41146,-29.5 5.9974,-30.4766 6.64844,-31.6484 C7.29948,-32.8203 7.75521,-33.599 8.01563,-33.9844 C8.66146,-35.2865 9.92708,-37.0469 11.8125,-39.2656 C12.3333,-39.849 12.8724,-40.4974 13.4297,-41.2109 C13.987,-41.9245 14.4609,-42.5104 14.8516,-42.9688 C15.2422,-43.4271 15.5339,-43.7865 15.7266,-44.0469 C15.9193,-44.3073 17.3854,-46.0313 20.125,-49.2188 C20.7708,-49.875 21.4036,-50.5755 22.0234,-51.3203 C22.6432,-52.0651 23.1484,-52.651 23.5391,-53.0781 C23.9297,-53.5052 24.224,-53.8125 24.4219,-54 C22.0781,-61.75 20.6094,-67.9375 20.0156,-72.5625 C19.5677,-76.2708 19.3438,-81.349 19.3438,-87.7969 C19.3438,-93.4635 20.6458,-98.7708 23.25,-103.719 C25.7813,-108.854 29.3281,-113.052 33.8906,-116.313 C34.151,-116.51 34.474,-116.609 34.8594,-116.609 C35.3177,-116.609 35.6458,-116.51 35.8438,-116.313 C39.3542,-112.083 42.3802,-106.583 44.9219,-99.8125 C47.526,-93.0417 48.8281,-86.8854 48.8281,-81.3438 C48.8281,-75.0938 47.3333,-69.2344 44.3438,-63.7656 C40.9583,-57.974 36.5938,-51.9844 31.25,-45.7969 C32.6146,-41.5052 34.4375,-34.7708 36.7188,-25.5938 M45.0156,19.8281 C48.401,18.5885 51.0417,16.474 52.9375,13.4844 C55.0208,10.6198 56.0625,7.39583 56.0625,3.8125 C56.0625,-0.8125 54.5,-4.91667 51.375,-8.5 C48.1771,-12.2083 44.1042,-14.2917 39.1563,-14.75 C41.9583,-1.01042 43.9115,10.5156 45.0156,19.8281 M7.23438,-2.73438 C7.23438,3.71354 9.83854,9.38021 15.0469,14.2656 C20.3802,19.0156 26.3698,21.3906 33.0156,21.3906 C35.7448,21.3906 38.4115,21.1927 41.0156,20.7969 C39.974,10.901 37.9219,-0.947917 34.8594,-14.75 C31.151,-14.3542 28.1927,-13.0521 25.9844,-10.8438 C23.8281,-8.5625 22.75,-5.98958 22.75,-3.125 C22.75,1.82292 25.3906,5.82813 30.6719,8.89063 C31.1198,9.34896 31.3438,9.83854 31.3438,10.3594 C31.3438,10.8802 31.1198,11.3646 30.6719,11.8125 C30.276,12.2708 29.7865,12.5 29.2031,12.5 C29.1406,12.5 28.849,12.4375 28.3281,12.3125 C24.6094,10.2917 21.7448,7.6875 19.7344,4.5 C17.8385,1.10417 16.8906,-2.31771 16.8906,-5.76563 C16.8906,-10.2552 18.2917,-14.3229 21.0938,-17.9688 C24.0208,-21.6146 27.8281,-23.9583 32.5156,-25 C30.6927,-32.2917 29.1979,-37.9896 28.0313,-42.0938 C26.9896,-40.9167 25.737,-39.5 24.2734,-37.8438 C22.8099,-36.1875 21.9479,-35.1927 21.6875,-34.8594 C19.3438,-31.8073 17.5521,-29.4323 16.3125,-27.7344 C14.0938,-24.6719 12.4635,-22.0365 11.4219,-19.8281 C10.3177,-17.349 9.34375,-14.6458 8.5,-11.7188 C7.65625,-8.91667 7.23438,-5.92188 7.23438,-2.73438 M39.8438,-102.047 C34.9583,-99.6406 31.1198,-96.1927 28.3281,-91.7031 C25.4635,-87.0781 24.0313,-82.099 24.0313,-76.7656 C24.0313,-72.0781 25.2031,-65.7604 27.5469,-57.8125 C32.2344,-63.4792 35.75,-68.7188 38.0938,-73.5313 C40.5625,-78.6146 41.7969,-83.9219 41.7969,-89.4531 C41.7969,-93.6198 41.1458,-97.8177 39.8438,-102.047"/>
<path class="KeySig" transform="matrix(0.907087,0,0,0.907087,307.41,1255.75)" d="M4.59375,-4.10938 L4.59375,3.60938 C4.59375,6.34896 4.72396,8.53125 4.98438,10.1563 C7.13021,8.33333 8.66146,6.96875 9.57813,6.0625 C10.6198,5.02083 11.6615,3.58594 12.7031,1.75781 C13.7448,-0.0703125 14.2656,-1.89583 14.2656,-3.71875 C14.2656,-5.54167 13.875,-7.10417 13.0938,-8.40625 C12.3125,-9.70833 11.2708,-10.3594 9.96875,-10.3594 C8.40625,-10.3594 7.10417,-9.77083 6.0625,-8.59375 C5.08333,-7.29167 4.59375,-5.79688 4.59375,-4.10938 M0.484375,13.7656 L-0.78125,-45.7031 C0.135417,-46.224 1.04948,-46.4844 1.96094,-46.4844 C2.8724,-46.4844 3.78125,-46.224 4.6875,-45.7031 L3.90625,-11.2344 C6.57292,-13.5156 9.63542,-14.6563 13.0938,-14.6563 C15.625,-14.6563 17.737,-13.6146 19.4297,-11.5313 C21.1224,-9.44792 21.9688,-7.06771 21.9688,-4.39063 C21.9688,-2.70313 21.4167,-0.911458 20.3125,0.984375 C19.2708,2.73438 18.1667,4.09896 17,5.07813 C16.3438,5.59896 14.6823,6.90104 12.0156,8.98438 C11.2344,9.56771 10.3073,10.25 9.23438,11.0313 C8.16146,11.8125 7.49479,12.3021 7.23438,12.5 C6.77604,12.7604 6.34896,13.2813 5.95313,14.0625 C5.50521,14.7188 4.98438,15.2708 4.39063,15.7188 C3.94271,16.1146 3.39323,16.3125 2.74219,16.3125 C2.09115,16.3125 1.56771,16.0833 1.17188,15.625 C0.713542,15.1667 0.484375,14.5469 0.484375,13.7656"/>
<path class="KeySig" transform="matrix(0.907087,0,0,0.907087,307.41,938.268)" d="M4.59375,-4.10938 L4.59375,3.60938 C4.59375,6.34896 4.72396,8.53125 4.98438,10.1563 C7.13021,8.33333 8.66146,6.96875 9.57813,6.0625 C10.6198,5.02083 11.6615,3.58594 12.7031,1.75781 C13.7448,-0.0703125 14.2656,-1.89583 14.2656,-3.71875 C14.2656,-5.54167 13.875,-7.10417 13.0938,-8.40625 C12.3125,-9.70833 11.2708,-10.3594 9.96875,-10.3594 C8.40625,-10.3594 7.10417,-9.77083 6.0625,-8.59375 C5.08333,-7.29167 4.59375,-5.79688 4.59375,-4.10938 M0.484375,13.7656 L-0.78125,-45.7031 C0.135417,-46.224 1.04948,-46.4844 1.96094,-46.4844 C2.8724,-46.4844 3.78125,-46.224 4.6875,-45.7031 L3.90625,-11.2344 C6.57292,-13.5156 9.63542,-14.6563 13.0938,-14.6563 C15.625,-14.6563 17.737,-13.6146 19.4297,-11.5313 C21.1224,-9.44792 21.9688,-7.06771 21.9688,-4.39063 C21.9688,-2.70313 21.4167,-0.911458 20.3125,0.984375 C19.2708,2.73438 18.1667,4.09896 17,5.07813 C16.3438,5.59896 14.6823,6.90104 12.0156,8.98438 C11.2344,9.56771 10.3073,10.25 9.23438,11.0313 C8.16146,11.8125 7.49479,12.3021 7.23438,12.5 C6.77604,12.7604 6.34896,13.2813 5.95313,14.0625 C5.50521,14.7188 4.98438,15.2708 4.39063,15.7188 C3.94271,16.1146 3.39323,16.3125 2.74219,16.3125 C2.09115,16.3125 1.56771,16.0833 1.17188,15.625 C0.713542,15.1667 0.484375,14.5469 0.484375,13.7656"/>
<path class="KeySig" transform="matrix(0.907087,0,0,0.907087,307.41,620.787)" d="M4.59375,-4.10938 L4.59375,3.60938 C4.59375,6.34896 4.72396,8.53125 4.98438,10.1563 C7.13021,8.33333 8.66146,6.96875 9.57813,6.0625 C10.6198,5.02083 11.6615,3.58594 12.7031,1.75781 C13.7448,-0.0703125 14.2656,-1.89583 14.2656,-3.71875 C14.2656,-5.54167 13.875,-7.10417 13.0938,-8.40625 C12.3125,-9.70833 11.2708,-10.3594 9.96875,-10.3594 C8.40625,-10.3594 7.10417,-9.77083 6.0625,-8.59375 C5.08333,-7.29167 4.59375,-5.79688 4.59375,-4.10938 M0.484375,13.7656 L-0.78125,-45.7031 C0.135417,-46.224 1.04948,-46.4844 1.96094,-46.4844 C2.8724,-46.4844 3.78125,-46.224 4.6875,-45.7031 L3.90625,-11.2344 C6.57292,-13.5156 9.63542,-14.6563 13.0938,-14.6563 C15.625,-14.6563 17.737,-13.6146 19.4297,-11.5313 C21.1224,-9.44792 21.9688,-7.06771 21.9688,-4.39063 C21.9688,-2.70313 21.4167,-0.911458 20.3125,0.984375 C19.2708,2.73438 18.1667,4.09896 17,5.07813 C16.3438,5.59896 14.6823,6.90104 12.0156,8.98438 C11.2344,9.56771 10.3073,10.25 9.23438,11.0313 C8.16146,11.8125 7.49479,12.3021 7.23438,12.5 C6.77604,12.7604 6.34896,13.2813 5.95313,14.0625 C5.50521,14.7188 4.98438,15.2708 4.39063,15.7188 C3.94271,16.1146 3.39323,16.3125 2.74219,16.3125 C2.09115,16.3125 1.56771,16.0833 1.17188,15.625 C0.713542,15.1667 0.484375,14.5469 0.484375,13.7656"/>
<path class="TimeSig" transform="matrix(0.907087,0,0,0.907087,352.127,598.11)" d="M22.8594,25 C20.901,25 19.1406,24.6432 17.5781,23.9297 C16.0156,23.2161 14.9115,22.4688 14.2656,21.6875 C13.4115,20.7083 12.5625,19.9583 11.7188,19.4375 C10.6771,18.7188 9.60417,18.3594 8.5,18.3594 C6.80208,18.3594 5.40104,18.8802 4.29688,19.9219 C3.13021,20.901 2.47917,22.2344 2.34375,23.9219 C2.21875,24.6406 1.82813,25 1.17188,25 C0.390625,25 0,24.6406 0,23.9219 C0,21.3906 0.588542,19.1146 1.76563,17.0938 C2.93229,15.0104 4.36458,13.2865 6.0625,11.9219 C7.48958,10.6823 9.375,9.18229 11.7188,7.42188 C12.1146,7.09896 12.9453,6.41667 14.2109,5.375 C15.4766,4.33333 16.5365,3.45313 17.3906,2.73438 C19.0781,1.30729 20.5417,-0.583333 21.7813,-2.9375 C22.9479,-5.28125 23.5313,-7.81771 23.5313,-10.5469 C23.5313,-13.8698 22.9792,-16.7344 21.875,-19.1406 C20.7083,-21.4844 18.9167,-22.6563 16.5,-22.6563 C15.0104,-22.6563 13.8073,-22.3333 12.8906,-21.6875 C11.9115,-21.0313 11.4219,-20.151 11.4219,-19.0469 C11.4219,-18.1302 12.0078,-16.9896 13.1797,-15.625 C14.3516,-14.2604 14.9375,-13.1198 14.9375,-12.2031 C14.9375,-10.2552 14.2552,-8.59896 12.8906,-7.23438 C11.5885,-5.93229 9.99479,-5.28125 8.10938,-5.28125 C6.15104,-5.28125 4.48958,-5.96354 3.125,-7.32813 C1.82292,-8.75521 1.17188,-10.3802 1.17188,-12.2031 C1.17188,-15.9219 2.66927,-18.9844 5.66406,-21.3906 C8.65885,-23.7969 12.2708,-25 16.5,-25 C21.5208,-25 25.8854,-23.6354 29.5938,-20.9063 C33.3021,-18.3021 35.1563,-14.849 35.1563,-10.5469 C35.1563,-7.61979 34.6354,-5.11458 33.5938,-3.03125 C32.6146,-0.8125 31.151,0.916667 29.2031,2.15625 C26.9844,3.58333 25.0625,4.6875 23.4375,5.46875 C21.1563,6.51042 18.8802,7.48958 16.6094,8.40625 C13.8698,9.51042 11.75,10.5521 10.25,11.5313 C11.1042,11.3333 11.9844,11.2344 12.8906,11.2344 C15.8906,11.2344 19.0156,12.2083 22.2656,14.1563 C25.5885,16.1146 28.1615,17.0938 29.9844,17.0938 C31.0885,17.0938 31.9688,16.8958 32.625,16.5 C33.2708,16.1146 33.6927,15.6927 33.8906,15.2344 C34.151,14.5885 34.3802,14.1354 34.5781,13.875 C34.8385,13.4792 35.1615,13.2813 35.5469,13.2813 C36.3281,13.2813 36.7188,13.6719 36.7188,14.4531 C36.7188,16.276 35.4167,18.4896 32.8125,21.0938 C30.2708,23.6979 26.9531,25 22.8594,25"/>
<path class="TimeSig" transform="matrix(0.907087,0,0,0.907087,350.497,643.543)" d="M22.4688,-23.7344 C24.4167,-23.7344 26.0755,-23.9609 27.4453,-24.4141 C28.8151,-24.8672 29.6927,-25.0938 30.0781,-25.0938 C30.5365,-25.0938 30.8958,-24.9635 31.1563,-24.7031 C31.3542,-24.5156 31.4844,-24.2917 31.5469,-24.0313 C31.5469,-23.8958 31.4792,-23.6979 31.3438,-23.4375 L2.9375,9.57813 L19.625,9.57813 L19.625,-3.51563 C19.625,-4.35938 19.8542,-5.07813 20.3125,-5.67188 C21.0938,-6.31771 21.7448,-6.70833 22.2656,-6.84375 C23.1094,-7.22917 24.151,-8.14063 25.3906,-9.57813 C26.4323,-10.7448 27.6719,-12.7917 29.1094,-15.7188 C29.2969,-16.1146 29.5885,-16.3125 29.9844,-16.3125 C30.7656,-16.3125 31.2188,-15.8542 31.3438,-14.9375 L31.3438,9.57813 L38.4844,9.57813 C39.3906,9.57813 39.9115,10.0625 40.0469,11.0313 C40.0469,12.0104 39.526,12.5 38.4844,12.5 L31.3438,12.5 L31.3438,13.2813 C31.3438,15.8854 31.9948,18.099 33.2969,19.9219 C34.7969,21.7448 36.5573,22.6563 38.5781,22.6563 C39.3594,22.6563 39.75,23.0469 39.75,23.8281 C39.75,24.6094 39.3594,25 38.5781,25 C37.2135,25 35,24.8073 31.9375,24.4219 C29.1354,23.9635 26.9531,23.7344 25.3906,23.7344 C23.7656,23.7344 21.5833,23.9635 18.8438,24.4219 C15.9167,24.8073 13.7396,25 12.3125,25 C11.5313,25 11.1406,24.6094 11.1406,23.8281 C11.1406,23.0469 11.5313,22.6563 12.3125,22.6563 C14.3229,22.6563 16.0781,21.7448 17.5781,19.9219 C18.9427,18.0365 19.625,15.8229 19.625,13.2813 L19.625,12.5 L2.9375,12.5 C1.82292,12.5 1.04167,12.2396 0.59375,11.7188 C0.0625,11.3333 -0.203125,10.8125 -0.203125,10.1563 C-0.203125,9.95833 0.286458,9.27604 1.26563,8.10938 C2.38021,6.80729 3.55208,5.21354 4.78125,3.32813 C6.21875,1.10938 7.58854,-1.17188 8.89063,-3.51563 C10.3177,-6.18229 11.4583,-9.24479 12.3125,-12.7031 C13.2813,-16.2135 13.7656,-19.7917 13.7656,-23.4375 C13.7656,-24.4792 14.224,-25 15.1406,-25 C15.3385,-25 15.7604,-24.901 16.4063,-24.7031 C16.6042,-24.6406 17.013,-24.5443 17.6328,-24.4141 C18.2526,-24.2839 18.7552,-24.1563 19.1406,-24.0313 C20.3177,-23.8333 21.4271,-23.7344 22.4688,-23.7344"/>
<path class="Fermata" transform="matrix(0.907087,0,0,0.907087,2475.57,1187.72)" d="M28.4219,-1.95313 C27.1198,-3.25521 26.4688,-4.85156 26.4688,-6.74219 C26.4688,-8.63281 27.1198,-10.2292 28.4219,-11.5313 C29.724,-12.8333 31.3177,-13.4844 33.2031,-13.4844 C35.0885,-13.4844 36.6823,-12.8333 37.9844,-11.5313 C39.2865,-10.2292 39.9375,-8.63281 39.9375,-6.74219 C39.9375,-4.85156 39.2865,-3.25521 37.9844,-1.95313 C36.6823,-0.651042 35.0885,0 33.2031,0 C31.3177,0 29.724,-0.651042 28.4219,-1.95313 M21.875,-35.5469 C25.2604,-37.2448 29.0365,-38.0938 33.2031,-38.0938 C37.3698,-38.0938 41.1458,-37.2448 44.5313,-35.5469 C48.2396,-33.8594 51.1719,-31.7448 53.3281,-29.2031 C55.7344,-26.4635 57.7813,-23.6979 59.4688,-20.9063 C61.2292,-18.0417 62.599,-15.1406 63.5781,-12.2031 C64.4219,-9.79688 65.1354,-7.45313 65.7188,-5.17188 C66.1771,-3.42188 66.4063,-2.1875 66.4063,-1.46875 C66.4063,-1.14583 66.2135,-0.786458 65.8281,-0.390625 C65.3073,-0.130208 64.8802,0 64.5469,0 C63.5781,0 62.9271,-0.588542 62.5938,-1.76563 C61.3646,-9.11979 57.9792,-15.3698 52.4375,-20.5156 C46.9063,-25.4635 40.4948,-27.9375 33.2031,-27.9375 C25.9115,-27.9375 19.5,-25.4635 13.9688,-20.5156 C8.4375,-15.3698 5.05208,-9.11979 3.8125,-1.76563 C3.61458,-0.588542 2.96354,0 1.85938,0 C1.53646,0 1.11458,-0.130208 0.59375,-0.390625 C0.197917,-0.786458 0,-1.14583 0,-1.46875 C0,-2.1875 0.229167,-3.42188 0.6875,-5.17188 C1.27083,-7.45313 1.98438,-9.79688 2.82813,-12.2031 C3.80729,-15.1406 5.17708,-18.0417 6.9375,-20.9063 C8.625,-23.6979 10.6771,-26.4635 13.0938,-29.2031 C15.3646,-31.8698 18.2917,-33.9844 21.875,-35.5469"/>
<path class="Beam" fill-rule="evenodd" d="M1643.97,1176.22 L2086.1,1199.05 L2086.1,1210.4 L1643.97,1187.57 L1643.97,1176.22 "/>
<path class="Beam" fill-rule="evenodd" d="M1000.64,1312.44 L1442.77,1323.85 L1442.77,1335.2 L1000.64,1323.78 L1000.64,1312.44 "/>
<path class="Beam" fill-rule="evenodd" d="M384.215,1295.43 L826.35,1318.25 L826.35,1329.61 L384.215,1306.78 L384.215,1295.43 "/>
<path class="Beam" fill-rule="evenodd" d="M2217.69,887.244 L2450.66,887.244 L2450.66,898.583 L2217.69,898.583 L2217.69,887.244 "/>
<path class="Beam" fill-rule="evenodd" d="M1853.24,994.954 L2086.21,1006.44 L2086.21,1017.79 L1853.24,1006.31 L1853.24,994.954 "/>
<path class="Beam" fill-rule="evenodd" d="M1515.7,977.925 L1748.67,1000.89 L1748.67,1012.29 L1515.7,989.319 L1515.7,977.925 "/>
<path class="Beam" fill-rule="evenodd" d="M917.19,1017.63 L1150.16,1006.15 L1150.16,1017.5 L917.19,1028.98 L917.19,1017.63 "/>
<path class="Beam" fill-rule="evenodd" d="M2353.36,563.87 L2435.93,569.75 L2435.93,581.117 L2353.36,575.238 L2353.36,563.87 "/>
<path class="Beam" fill-rule="evenodd" d="M2167.21,683.15 L2249.78,683.15 L2249.78,694.488 L2167.21,694.488 L2167.21,683.15 "/>
<path class="Beam" fill-rule="evenodd" d="M1174.74,546.862 L1257.31,552.742 L1257.31,564.109 L1174.74,558.23 L1174.74,546.862 "/>
<path class="Beam" fill-rule="evenodd" d="M988.591,666.142 L1071.16,666.142 L1071.16,677.48 L988.591,677.48 L988.591,666.142 "/>
</svg>
