<?xml version="1.0" encoding="UTF-8" standalone="no"?>
<svg width="2974.68px" height="4209.45px" viewBox="0 0 2974.68 4209.45"
 xmlns="http://www.w3.org/2000/svg" xmlns:xlink="http://www.w3.org/1999/xlink" version="1.2" baseProfile="tiny">
<title>Hai_sa_bem_un_paharel_-_Lets_have_a_glass_of_wine (2)</title>
<desc>Generated by MuseScore 3.0.2</desc>
<polyline class="StaffLines" fill="none" stroke="#000000" stroke-width="1.81" stroke-linejoin="bevel" points="212.599,598.11 2762.08,598.11"/>
<polyline class="StaffLines" fill="none" stroke="#000000" stroke-width="1.81" stroke-linejoin="bevel" points="212.599,620.787 2762.08,620.787"/>
<polyline class="StaffLines" fill="none" stroke="#000000" stroke-width="1.81" stroke-linejoin="bevel" points="212.599,643.465 2762.08,643.465"/>
<polyline class="StaffLines" fill="none" stroke="#000000" stroke-width="1.81" stroke-linejoin="bevel" points="212.599,666.142 2762.08,666.142"/>
<polyline class="StaffLines" fill="none" stroke="#000000" stroke-width="1.81" stroke-linejoin="bevel" points="212.599,688.819 2762.08,688.819"/>
<polyline class="StaffLines" fill="none" stroke="#000000" stroke-width="1.81" stroke-linejoin="bevel" points="212.599,915.591 2762.08,915.591"/>
<polyline class="StaffLines" fill="none" stroke="#000000" stroke-width="1.81" stroke-linejoin="bevel" points="212.599,938.268 2762.08,938.268"/>
<polyline class="StaffLines" fill="none" stroke="#000000" stroke-width="1.81" stroke-linejoin="bevel" points="212.599,960.945 2762.08,960.945"/>
<polyline class="StaffLines" fill="none" stroke="#000000" stroke-width="1.81" stroke-linejoin="bevel" points="212.599,983.622 2762.08,983.622"/>
<polyline class="StaffLines" fill="none" stroke="#000000" stroke-width="1.81" stroke-linejoin="bevel" points="212.599,1006.3 2762.08,1006.3"/>
<polyline class="StaffLines" fill="none" stroke="#000000" stroke-width="1.81" stroke-linejoin="bevel" points="212.599,1233.07 2762.08,1233.07"/>
<polyline class="StaffLines" fill="none" stroke="#000000" stroke-width="1.81" stroke-linejoin="bevel" points="212.599,1255.75 2762.08,1255.75"/>
<polyline class="StaffLines" fill="none" stroke="#000000" stroke-width="1.81" stroke-linejoin="bevel" points="212.599,1278.43 2762.08,1278.43"/>
<polyline class="StaffLines" fill="none" stroke="#000000" stroke-width="1.81" stroke-linejoin="bevel" points="212.599,1301.1 2762.08,1301.1"/>
<polyline class="StaffLines" fill="none" stroke="#000000" stroke-width="1.81" stroke-linejoin="bevel" points="212.599,1323.78 2762.08,1323.78"/>
<polyline class="StaffLines" fill="none" stroke="#000000" stroke-width="1.81" stroke-linejoin="bevel" points="212.599,1550.55 2762.08,1550.55"/>
<polyline class="StaffLines" fill="none" stroke="#000000" stroke-width="1.81" stroke-linejoin="bevel" points="212.599,1573.23 2762.08,1573.23"/>
<polyline class="StaffLines" fill="none" stroke="#000000" stroke-width="1.81" stroke-linejoin="bevel" points="212.599,1595.91 2762.08,1595.91"/>
<polyline class="StaffLines" fill="none" stroke="#000000" stroke-width="1.81" stroke-linejoin="bevel" points="212.599,1618.58 2762.08,1618.58"/>
<polyline class="StaffLines" fill="none" stroke="#000000" stroke-width="1.81" stroke-linejoin="bevel" points="212.599,1641.26 2762.08,1641.26"/>
<polyline class="StaffLines" fill="none" stroke="#000000" stroke-width="1.81" stroke-linejoin="bevel" points="212.599,1868.03 2762.08,1868.03"/>
<polyline class="StaffLines" fill="none" stroke="#000000" stroke-width="1.81" stroke-linejoin="bevel" points="212.599,1890.71 2762.08,1890.71"/>
<polyline class="StaffLines" fill="none" stroke="#000000" stroke-width="1.81" stroke-linejoin="bevel" points="212.599,1913.39 2762.08,1913.39"/>
<polyline class="StaffLines" fill="none" stroke="#000000" stroke-width="1.81" stroke-linejoin="bevel" points="212.599,1936.06 2762.08,1936.06"/>
<polyline class="StaffLines" fill="none" stroke="#000000" stroke-width="1.81" stroke-linejoin="bevel" points="212.599,1958.74 2762.08,1958.74"/>
<path class="MeasureNumber" d="M197.52,1819.86 C198.072,1819.86 198.893,1820.19 199.981,1820.84 C201.07,1821.49 202.026,1821.82 202.849,1821.82 C204.161,1821.82 205.273,1821.3 206.184,1820.28 C207.096,1819.25 207.552,1817.99 207.552,1816.49 C207.552,1815.55 207.39,1814.73 207.067,1814.01 C206.744,1813.3 206.33,1812.75 205.825,1812.36 C205.32,1811.97 204.721,1811.65 204.028,1811.4 C203.335,1811.15 202.682,1810.98 202.067,1810.91 C201.453,1810.84 200.796,1810.8 200.099,1810.8 L200.099,1810.33 C200.921,1810.04 201.627,1809.76 202.216,1809.48 C202.804,1809.21 203.421,1808.83 204.067,1808.36 C204.713,1807.9 205.21,1807.33 205.559,1806.65 C205.908,1805.98 206.083,1805.21 206.083,1804.35 C206.083,1803.22 205.716,1802.3 204.981,1801.58 C204.247,1800.86 203.291,1800.51 202.114,1800.51 C200.989,1800.51 200.002,1800.81 199.153,1801.42 C198.304,1802.03 197.505,1802.99 196.755,1804.32 L196.224,1804.18 C196.849,1802.47 197.695,1801.07 198.763,1799.98 C199.83,1798.89 201.343,1798.35 203.302,1798.35 C204.958,1798.35 206.309,1798.8 207.356,1799.72 C208.403,1800.63 208.927,1801.81 208.927,1803.27 C208.927,1804.26 208.674,1805.13 208.169,1805.87 C207.664,1806.62 206.786,1807.41 205.536,1808.24 C206.984,1808.86 208.114,1809.66 208.927,1810.63 C209.739,1811.6 210.145,1812.98 210.145,1814.77 C210.145,1817.32 209.205,1819.36 207.325,1820.89 C205.445,1822.41 203.072,1823.18 200.208,1823.18 C198.968,1823.18 197.981,1822.99 197.247,1822.62 C196.513,1822.25 196.145,1821.76 196.145,1821.13 C196.145,1820.74 196.27,1820.44 196.52,1820.21 C196.77,1819.98 197.104,1819.86 197.52,1819.86 M228.755,1798.85 L228.755,1799.41 L221.13,1822.96 L218.786,1822.96 L225.911,1801.47 L218.099,1801.47 C217.119,1801.47 216.372,1801.65 215.856,1802.01 C215.341,1802.37 214.697,1803.17 213.927,1804.4 L213.317,1804.11 L215.442,1798.85 L228.755,1798.85 "/>
<path class="MeasureNumber" d="M198.02,1502.38 C198.572,1502.38 199.393,1502.71 200.481,1503.36 C201.57,1504.01 202.526,1504.34 203.349,1504.34 C204.661,1504.34 205.773,1503.82 206.684,1502.8 C207.596,1501.77 208.052,1500.51 208.052,1499.01 C208.052,1498.07 207.89,1497.25 207.567,1496.53 C207.244,1495.82 206.83,1495.27 206.325,1494.88 C205.82,1494.49 205.221,1494.17 204.528,1493.92 C203.835,1493.67 203.182,1493.5 202.567,1493.43 C201.953,1493.36 201.296,1493.32 200.599,1493.32 L200.599,1492.85 C201.421,1492.56 202.127,1492.28 202.716,1492 C203.304,1491.73 203.921,1491.35 204.567,1490.88 C205.213,1490.42 205.71,1489.85 206.059,1489.17 C206.408,1488.5 206.583,1487.73 206.583,1486.87 C206.583,1485.74 206.216,1484.82 205.481,1484.1 C204.747,1483.38 203.791,1483.03 202.614,1483.03 C201.489,1483.03 200.502,1483.33 199.653,1483.94 C198.804,1484.55 198.005,1485.51 197.255,1486.84 L196.724,1486.7 C197.349,1484.99 198.195,1483.59 199.263,1482.5 C200.33,1481.41 201.843,1480.87 203.802,1480.87 C205.458,1480.87 206.809,1481.32 207.856,1482.24 C208.903,1483.15 209.427,1484.33 209.427,1485.79 C209.427,1486.78 209.174,1487.65 208.669,1488.39 C208.164,1489.14 207.286,1489.93 206.036,1490.76 C207.484,1491.38 208.614,1492.18 209.427,1493.15 C210.239,1494.12 210.645,1495.5 210.645,1497.29 C210.645,1499.84 209.705,1501.88 207.825,1503.41 C205.945,1504.93 203.572,1505.7 200.708,1505.7 C199.468,1505.7 198.481,1505.51 197.747,1505.14 C197.013,1504.77 196.645,1504.28 196.645,1503.65 C196.645,1503.26 196.77,1502.96 197.02,1502.73 C197.27,1502.5 197.604,1502.38 198.02,1502.38 M216.02,1502.38 C216.572,1502.38 217.393,1502.71 218.481,1503.36 C219.57,1504.01 220.526,1504.34 221.349,1504.34 C222.661,1504.34 223.773,1503.82 224.684,1502.8 C225.596,1501.77 226.052,1500.51 226.052,1499.01 C226.052,1498.07 225.89,1497.25 225.567,1496.53 C225.244,1495.82 224.83,1495.27 224.325,1494.88 C223.82,1494.49 223.221,1494.17 222.528,1493.92 C221.835,1493.67 221.182,1493.5 220.567,1493.43 C219.953,1493.36 219.296,1493.32 218.599,1493.32 L218.599,1492.85 C219.421,1492.56 220.127,1492.28 220.716,1492 C221.304,1491.73 221.921,1491.35 222.567,1490.88 C223.213,1490.42 223.71,1489.85 224.059,1489.17 C224.408,1488.5 224.583,1487.73 224.583,1486.87 C224.583,1485.74 224.216,1484.82 223.481,1484.1 C222.747,1483.38 221.791,1483.03 220.614,1483.03 C219.489,1483.03 218.502,1483.33 217.653,1483.94 C216.804,1484.55 216.005,1485.51 215.255,1486.84 L214.724,1486.7 C215.349,1484.99 216.195,1483.59 217.263,1482.5 C218.33,1481.41 219.843,1480.87 221.802,1480.87 C223.458,1480.87 224.809,1481.32 225.856,1482.24 C226.903,1483.15 227.427,1484.33 227.427,1485.79 C227.427,1486.78 227.174,1487.65 226.669,1488.39 C226.164,1489.14 225.286,1489.93 224.036,1490.76 C225.484,1491.38 226.614,1492.18 227.427,1493.15 C228.239,1494.12 228.645,1495.5 228.645,1497.29 C228.645,1499.84 227.705,1501.88 225.825,1503.41 C223.945,1504.93 221.572,1505.7 218.708,1505.7 C217.468,1505.7 216.481,1505.51 215.747,1505.14 C215.013,1504.77 214.645,1504.28 214.645,1503.65 C214.645,1503.26 214.77,1502.96 215.02,1502.73 C215.27,1502.5 215.604,1502.38 216.02,1502.38"/>
<path class="MeasureNumber" d="M195.708,1170.54 C195.833,1169.99 195.955,1169.51 196.075,1169.11 C196.195,1168.7 196.453,1168.11 196.849,1167.33 C197.244,1166.56 197.687,1165.91 198.177,1165.4 C198.666,1164.89 199.351,1164.44 200.231,1164.03 C201.112,1163.62 202.104,1163.42 203.208,1163.42 C205.072,1163.42 206.648,1164.03 207.934,1165.25 C209.221,1166.47 209.864,1167.97 209.864,1169.75 C209.864,1172.47 208.328,1175.43 205.255,1178.64 L199.208,1184.98 L207.802,1184.98 C208.625,1184.98 209.234,1184.84 209.63,1184.57 C210.026,1184.29 210.557,1183.64 211.224,1182.61 L211.692,1182.78 L209.724,1187.72 L195.677,1187.72 L195.677,1187.28 L202.083,1180.48 C205.208,1177.17 206.77,1174.05 206.77,1171.12 C206.77,1169.61 206.302,1168.39 205.364,1167.45 C204.427,1166.51 203.203,1166.04 201.692,1166.04 C200.442,1166.04 199.44,1166.39 198.684,1167.07 C197.929,1167.75 197.192,1168.97 196.474,1170.73 L195.708,1170.54 M214.724,1188.51 L214.614,1187.79 C217.354,1187.31 219.677,1186.13 221.583,1184.28 C223.489,1182.42 224.812,1180.03 225.552,1177.09 C223.781,1178.49 221.984,1179.19 220.161,1179.19 C218.213,1179.19 216.645,1178.51 215.458,1177.16 C214.27,1175.81 213.677,1174.04 213.677,1171.86 C213.677,1169.42 214.39,1167.39 215.817,1165.76 C217.244,1164.13 219.026,1163.31 221.161,1163.31 C223.494,1163.31 225.403,1164.26 226.888,1166.17 C228.372,1168.08 229.114,1170.52 229.114,1173.51 C229.114,1174.47 229.031,1175.46 228.864,1176.47 C228.697,1177.48 228.309,1178.67 227.7,1180.05 C227.091,1181.43 226.294,1182.67 225.309,1183.76 C224.325,1184.86 222.921,1185.85 221.099,1186.74 C219.276,1187.63 217.151,1188.22 214.724,1188.51 M221.458,1177.61 C221.906,1177.61 222.419,1177.54 222.997,1177.4 C223.575,1177.27 224.158,1176.98 224.747,1176.54 C225.335,1176.09 225.63,1175.55 225.63,1174.9 L225.63,1173.51 C225.63,1167.43 224.046,1164.39 220.88,1164.39 C220.13,1164.39 219.492,1164.59 218.966,1164.98 C218.44,1165.38 218.039,1165.9 217.763,1166.54 C217.487,1167.19 217.289,1167.85 217.169,1168.52 C217.049,1169.19 216.989,1169.9 216.989,1170.64 C216.989,1172.76 217.39,1174.46 218.192,1175.72 C218.994,1176.98 220.083,1177.61 221.458,1177.61"/>
<path class="MeasureNumber" d="M196.208,853.064 C196.333,852.512 196.455,852.033 196.575,851.627 C196.695,851.221 196.953,850.63 197.349,849.853 C197.744,849.077 198.187,848.434 198.677,847.924 C199.166,847.413 199.851,846.955 200.731,846.549 C201.612,846.143 202.604,845.939 203.708,845.939 C205.572,845.939 207.148,846.549 208.434,847.768 C209.721,848.986 210.364,850.486 210.364,852.268 C210.364,854.986 208.828,857.95 205.755,861.158 L199.708,867.502 L208.302,867.502 C209.125,867.502 209.734,867.364 210.13,867.088 C210.526,866.812 211.057,866.158 211.724,865.127 L212.192,865.299 L210.224,870.236 L196.177,870.236 L196.177,869.799 L202.583,863.002 C205.708,859.689 207.27,856.57 207.27,853.643 C207.27,852.132 206.802,850.908 205.864,849.971 C204.927,849.033 203.703,848.564 202.192,848.564 C200.942,848.564 199.94,848.906 199.184,849.588 C198.429,850.27 197.692,851.492 196.974,853.252 L196.208,853.064 M225.942,863.221 C225.942,861.96 225.661,860.838 225.099,859.853 C224.536,858.869 223.854,858.109 223.052,857.572 C222.25,857.036 221.351,856.593 220.356,856.244 C219.362,855.895 218.497,855.666 217.763,855.557 C217.028,855.447 216.385,855.393 215.833,855.393 C215.541,855.393 215.395,855.299 215.395,855.111 C215.395,855.038 215.411,854.976 215.442,854.924 L219.364,846.408 L226.88,846.408 C227.265,846.408 227.572,846.348 227.802,846.228 C228.031,846.109 228.276,845.856 228.536,845.471 L228.864,845.721 L227.489,848.924 C227.395,849.143 227.119,849.252 226.661,849.252 L219.614,849.252 L218.099,852.299 C221.609,852.924 224.216,853.937 225.919,855.338 C227.622,856.739 228.474,858.794 228.474,861.502 C228.474,862.919 228.25,864.182 227.802,865.291 C227.354,866.4 226.789,867.291 226.106,867.963 C225.424,868.635 224.632,869.187 223.731,869.619 C222.83,870.051 221.966,870.346 221.138,870.502 C220.309,870.658 219.479,870.736 218.645,870.736 C217.302,870.736 216.234,870.538 215.442,870.143 C214.651,869.747 214.255,869.2 214.255,868.502 C214.255,867.617 214.77,867.174 215.802,867.174 C216.468,867.174 217.335,867.541 218.403,868.275 C219.471,869.01 220.317,869.377 220.942,869.377 C222.359,869.377 223.546,868.783 224.505,867.596 C225.463,866.408 225.942,864.95 225.942,863.221"/>
<path class="MeasureNumber" d="M196.708,535.584 C196.833,535.032 196.955,534.553 197.075,534.147 C197.195,533.74 197.453,533.149 197.849,532.373 C198.244,531.597 198.687,530.954 199.177,530.443 C199.666,529.933 200.351,529.475 201.231,529.068 C202.112,528.662 203.104,528.459 204.208,528.459 C206.072,528.459 207.648,529.068 208.934,530.287 C210.221,531.506 210.864,533.006 210.864,534.787 C210.864,537.506 209.328,540.47 206.255,543.678 L200.208,550.022 L208.802,550.022 C209.625,550.022 210.234,549.884 210.63,549.608 C211.026,549.332 211.557,548.678 212.224,547.647 L212.692,547.818 L210.724,552.756 L196.677,552.756 L196.677,552.318 L203.083,545.522 C206.208,542.209 207.77,539.089 207.77,536.162 C207.77,534.652 207.302,533.428 206.364,532.49 C205.427,531.553 204.203,531.084 202.692,531.084 C201.442,531.084 200.44,531.425 199.684,532.108 C198.929,532.79 198.192,534.011 197.474,535.772 L196.708,535.584 M220.192,531.412 C219.755,531.412 218.89,531.678 217.599,532.209 L217.599,531.693 L224.067,528.428 L224.364,528.49 L224.364,550.1 C224.364,550.954 224.58,551.514 225.013,551.779 C225.445,552.045 226.369,552.188 227.786,552.209 L227.786,552.756 L217.849,552.756 L217.849,552.209 C219.192,552.167 220.099,551.972 220.567,551.623 C221.036,551.274 221.27,550.537 221.27,549.412 L221.27,533.1 C221.27,531.975 220.911,531.412 220.192,531.412"/>
<polyline class="BarLine" fill="none" stroke="#000000" stroke-width="3.63" stroke-linejoin="bevel" points="2741.67,1867.12 2741.67,1959.65"/>
<polyline class="BarLine" fill="none" stroke="#000000" stroke-width="11.34" stroke-linejoin="bevel" points="2756.41,1867.12 2756.41,1959.65"/>
<polyline class="BarLine" fill="none" stroke="#000000" stroke-width="3.63" stroke-linejoin="bevel" points="2196.74,1867.12 2196.74,1959.65"/>
<polyline class="BarLine" fill="none" stroke="#000000" stroke-width="3.63" stroke-linejoin="bevel" points="1582.89,1867.12 1582.89,1959.65"/>
<polyline class="BarLine" fill="none" stroke="#000000" stroke-width="3.63" stroke-linejoin="bevel" points="969.039,1867.12 969.039,1959.65"/>
<polyline class="BarLine" fill="none" stroke="#000000" stroke-width="3.63" stroke-linejoin="bevel" points="2760.26,1549.64 2760.26,1642.17"/>
<polyline class="BarLine" fill="none" stroke="#000000" stroke-width="3.63" stroke-linejoin="bevel" points="2216.42,1549.64 2216.42,1642.17"/>
<polyline class="BarLine" fill="none" stroke="#000000" stroke-width="3.63" stroke-linejoin="bevel" points="1596.01,1549.64 1596.01,1642.17"/>
<polyline class="BarLine" fill="none" stroke="#000000" stroke-width="3.63" stroke-linejoin="bevel" points="975.598,1549.64 975.598,1642.17"/>
<polyline class="BarLine" fill="none" stroke="#000000" stroke-width="3.63" stroke-linejoin="bevel" points="2760.26,1232.16 2760.26,1324.69"/>
<polyline class="BarLine" fill="none" stroke="#000000" stroke-width="3.63" stroke-linejoin="bevel" points="2216.42,1232.16 2216.42,1324.69"/>
<polyline class="BarLine" fill="none" stroke="#000000" stroke-width="3.63" stroke-linejoin="bevel" points="1596.01,1232.16 1596.01,1324.69"/>
<polyline class="BarLine" fill="none" stroke="#000000" stroke-width="3.63" stroke-linejoin="bevel" points="975.598,1232.16 975.598,1324.69"/>
<polyline class="BarLine" fill="none" stroke="#000000" stroke-width="3.63" stroke-linejoin="bevel" points="2760.26,914.684 2760.26,1007.21"/>
<polyline class="BarLine" fill="none" stroke="#000000" stroke-width="3.63" stroke-linejoin="bevel" points="2216.42,914.684 2216.42,1007.21"/>
<polyline class="BarLine" fill="none" stroke="#000000" stroke-width="3.63" stroke-linejoin="bevel" points="1596.01,914.684 1596.01,1007.21"/>
<polyline class="BarLine" fill="none" stroke="#000000" stroke-width="3.63" stroke-linejoin="bevel" points="975.598,914.684 975.598,1007.21"/>
<polyline class="BarLine" fill="none" stroke="#000000" stroke-width="3.63" stroke-linejoin="bevel" points="2760.26,597.203 2760.26,689.726"/>
<polyline class="BarLine" fill="none" stroke="#000000" stroke-width="3.63" stroke-linejoin="bevel" points="2216.42,597.203 2216.42,689.726"/>
<polyline class="BarLine" fill="none" stroke="#000000" stroke-width="3.63" stroke-linejoin="bevel" points="1596.01,597.203 1596.01,689.726"/>
<polyline class="BarLine" fill="none" stroke="#000000" stroke-width="3.63" stroke-linejoin="bevel" points="975.598,597.203 975.598,689.726"/>
<polyline class="Stem" fill="none" stroke="#000000" stroke-width="2.95" stroke-linecap="round" stroke-linejoin="bevel" points="2254.15,1965.82 2254.15,1890.71"/>
<polyline class="Stem" fill="none" stroke="#000000" stroke-width="2.95" stroke-linecap="round" stroke-linejoin="bevel" points="2077.56,1954.48 2077.56,1890.71"/>
<polyline class="Stem" fill="none" stroke="#000000" stroke-width="2.95" stroke-linecap="round" stroke-linejoin="bevel" points="1931.8,1943.14 1931.8,1881.26"/>
<polyline class="Stem" fill="none" stroke="#000000" stroke-width="2.95" stroke-linecap="round" stroke-linejoin="bevel" points="1786.05,1931.8 1786.05,1871.81"/>
<polyline class="Stem" fill="none" stroke="#000000" stroke-width="2.95" stroke-linecap="round" stroke-linejoin="bevel" points="1640.3,1920.47 1640.3,1862.36"/>
<polyline class="Stem" fill="none" stroke="#000000" stroke-width="2.95" stroke-linecap="round" stroke-linejoin="bevel" points="1463.71,1943.14 1463.71,1862.36"/>
<polyline class="Stem" fill="none" stroke="#000000" stroke-width="2.95" stroke-linecap="round" stroke-linejoin="bevel" points="1317.95,1931.8 1317.95,1858.58"/>
<polyline class="Stem" fill="none" stroke="#000000" stroke-width="2.95" stroke-linecap="round" stroke-linejoin="bevel" points="1172.2,1920.47 1172.2,1854.8"/>
<polyline class="Stem" fill="none" stroke="#000000" stroke-width="2.95" stroke-linecap="round" stroke-linejoin="bevel" points="1026.45,1920.47 1026.45,1851.02"/>
<polyline class="Stem" fill="none" stroke="#000000" stroke-width="2.95" stroke-linecap="round" stroke-linejoin="bevel" points="822.946,1917.64 822.946,1981.42"/>
<polyline class="Stem" fill="none" stroke="#000000" stroke-width="2.95" stroke-linecap="round" stroke-linejoin="bevel" points="677.194,1906.31 677.194,1973.86"/>
<polyline class="Stem" fill="none" stroke="#000000" stroke-width="2.95" stroke-linecap="round" stroke-linejoin="bevel" points="531.442,1894.97 531.442,1966.3"/>
<polyline class="Stem" fill="none" stroke="#000000" stroke-width="2.95" stroke-linecap="round" stroke-linejoin="bevel" points="385.689,1894.97 385.689,1958.74"/>
<polyline class="Stem" fill="none" stroke="#000000" stroke-width="2.95" stroke-linecap="round" stroke-linejoin="bevel" points="2275.46,1603.76 2275.46,1533.54"/>
<polyline class="Stem" fill="none" stroke="#000000" stroke-width="2.95" stroke-linecap="round" stroke-linejoin="bevel" points="2095.59,1614.32 2095.59,1550.55"/>
<polyline class="Stem" fill="none" stroke="#000000" stroke-width="2.95" stroke-linecap="round" stroke-linejoin="bevel" points="1948.2,1625.66 1948.2,1556.22"/>
<polyline class="Stem" fill="none" stroke="#000000" stroke-width="2.95" stroke-linecap="round" stroke-linejoin="bevel" points="1800.81,1637 1800.81,1573.23"/>
<polyline class="Stem" fill="none" stroke="#000000" stroke-width="2.95" stroke-linecap="round" stroke-linejoin="bevel" points="1653.42,1637 1653.42,1573.23"/>
<polyline class="Stem" fill="none" stroke="#000000" stroke-width="2.95" stroke-linecap="round" stroke-linejoin="bevel" points="1475.18,1625.66 1475.18,1544.88"/>
<polyline class="Stem" fill="none" stroke="#000000" stroke-width="2.95" stroke-linecap="round" stroke-linejoin="bevel" points="1327.79,1614.32 1327.79,1541.1"/>
<polyline class="Stem" fill="none" stroke="#000000" stroke-width="2.95" stroke-linecap="round" stroke-linejoin="bevel" points="1180.4,1602.99 1180.4,1537.32"/>
<polyline class="Stem" fill="none" stroke="#000000" stroke-width="2.95" stroke-linecap="round" stroke-linejoin="bevel" points="1033.01,1602.99 1033.01,1533.54"/>
<polyline class="Stem" fill="none" stroke="#000000" stroke-width="2.95" stroke-linecap="round" stroke-linejoin="bevel" points="827.865,1600.16 827.865,1663.94"/>
<polyline class="Stem" fill="none" stroke="#000000" stroke-width="2.95" stroke-linecap="round" stroke-linejoin="bevel" points="680.473,1588.83 680.473,1656.38"/>
<polyline class="Stem" fill="none" stroke="#000000" stroke-width="2.95" stroke-linecap="round" stroke-linejoin="bevel" points="533.081,1577.49 533.081,1648.82"/>
<polyline class="Stem" fill="none" stroke="#000000" stroke-width="2.95" stroke-linecap="round" stroke-linejoin="bevel" points="385.689,1577.49 385.689,1641.26"/>
<polyline class="Stem" fill="none" stroke="#000000" stroke-width="2.95" stroke-linecap="round" stroke-linejoin="bevel" points="2247.74,1281.98 2247.74,1349.29"/>
<polyline class="Stem" fill="none" stroke="#000000" stroke-width="2.95" stroke-linecap="round" stroke-linejoin="bevel" points="2095.59,1285.5 2095.59,1227.4"/>
<polyline class="Stem" fill="none" stroke="#000000" stroke-width="2.95" stroke-linecap="round" stroke-linejoin="bevel" points="1948.2,1296.84 1948.2,1229.29"/>
<polyline class="Stem" fill="none" stroke="#000000" stroke-width="2.95" stroke-linecap="round" stroke-linejoin="bevel" points="1800.81,1308.18 1800.81,1231.18"/>
<polyline class="Stem" fill="none" stroke="#000000" stroke-width="2.95" stroke-linecap="round" stroke-linejoin="bevel" points="1653.42,1296.84 1653.42,1233.07"/>
<polyline class="Stem" fill="none" stroke="#000000" stroke-width="2.95" stroke-linecap="round" stroke-linejoin="bevel" points="1475.18,1308.18 1475.18,1227.4"/>
<polyline class="Stem" fill="none" stroke="#000000" stroke-width="2.95" stroke-linecap="round" stroke-linejoin="bevel" points="1327.79,1296.84 1327.79,1223.62"/>
<polyline class="Stem" fill="none" stroke="#000000" stroke-width="2.95" stroke-linecap="round" stroke-linejoin="bevel" points="1180.4,1285.5 1180.4,1219.84"/>
<polyline class="Stem" fill="none" stroke="#000000" stroke-width="2.95" stroke-linecap="round" stroke-linejoin="bevel" points="1033.01,1285.5 1033.01,1216.06"/>
<polyline class="Stem" fill="none" stroke="#000000" stroke-width="2.95" stroke-linecap="round" stroke-linejoin="bevel" points="854.773,1308.18 854.773,1227.4"/>
<polyline class="Stem" fill="none" stroke="#000000" stroke-width="2.95" stroke-linecap="round" stroke-linejoin="bevel" points="707.381,1296.84 707.381,1223.62"/>
<polyline class="Stem" fill="none" stroke="#000000" stroke-width="2.95" stroke-linecap="round" stroke-linejoin="bevel" points="559.989,1285.5 559.989,1219.84"/>
<polyline class="Stem" fill="none" stroke="#000000" stroke-width="2.95" stroke-linecap="round" stroke-linejoin="bevel" points="412.597,1285.5 412.597,1216.06"/>
<polyline class="Stem" fill="none" stroke="#000000" stroke-width="2.95" stroke-linecap="round" stroke-linejoin="bevel" points="2275.46,968.8 2275.46,898.583"/>
<polyline class="Stem" fill="none" stroke="#000000" stroke-width="2.95" stroke-linecap="round" stroke-linejoin="bevel" points="2095.59,979.363 2095.59,915.591"/>
<polyline class="Stem" fill="none" stroke="#000000" stroke-width="2.95" stroke-linecap="round" stroke-linejoin="bevel" points="1948.2,990.702 1948.2,917.48"/>
<polyline class="Stem" fill="none" stroke="#000000" stroke-width="2.95" stroke-linecap="round" stroke-linejoin="bevel" points="1800.81,1002.04 1800.81,919.37"/>
<polyline class="Stem" fill="none" stroke="#000000" stroke-width="2.95" stroke-linecap="round" stroke-linejoin="bevel" points="1653.42,990.702 1653.42,921.26"/>
<polyline class="Stem" fill="none" stroke="#000000" stroke-width="2.95" stroke-linecap="round" stroke-linejoin="bevel" points="1475.18,1002.04 1475.18,932.599"/>
<polyline class="Stem" fill="none" stroke="#000000" stroke-width="2.95" stroke-linecap="round" stroke-linejoin="bevel" points="1327.79,990.702 1327.79,925.039"/>
<polyline class="Stem" fill="none" stroke="#000000" stroke-width="2.95" stroke-linecap="round" stroke-linejoin="bevel" points="1180.4,979.363 1180.4,917.48"/>
<polyline class="Stem" fill="none" stroke="#000000" stroke-width="2.95" stroke-linecap="round" stroke-linejoin="bevel" points="1033.01,979.363 1033.01,909.921"/>
<polyline class="Stem" fill="none" stroke="#000000" stroke-width="2.95" stroke-linecap="round" stroke-linejoin="bevel" points="854.773,1002.04 854.773,932.599"/>
<polyline class="Stem" fill="none" stroke="#000000" stroke-width="2.95" stroke-linecap="round" stroke-linejoin="bevel" points="707.381,990.702 707.381,925.039"/>
<polyline class="Stem" fill="none" stroke="#000000" stroke-width="2.95" stroke-linecap="round" stroke-linejoin="bevel" points="559.989,979.363 559.989,917.48"/>
<polyline class="Stem" fill="none" stroke="#000000" stroke-width="2.95" stroke-linecap="round" stroke-linejoin="bevel" points="412.597,979.363 412.597,909.921"/>
<polyline class="Stem" fill="none" stroke="#000000" stroke-width="2.95" stroke-linecap="round" stroke-linejoin="bevel" points="2275.46,685.336 2275.46,609.449"/>
<polyline class="Stem" fill="none" stroke="#000000" stroke-width="2.95" stroke-linecap="round" stroke-linejoin="bevel" points="2095.59,673.221 2095.59,592.441"/>
<polyline class="Stem" fill="none" stroke="#000000" stroke-width="2.95" stroke-linecap="round" stroke-linejoin="bevel" points="1948.2,661.883 1948.2,588.661"/>
<polyline class="Stem" fill="none" stroke="#000000" stroke-width="2.95" stroke-linecap="round" stroke-linejoin="bevel" points="1800.81,650.544 1800.81,584.882"/>
<polyline class="Stem" fill="none" stroke="#000000" stroke-width="2.95" stroke-linecap="round" stroke-linejoin="bevel" points="1653.42,650.544 1653.42,581.102"/>
<polyline class="Stem" fill="none" stroke="#000000" stroke-width="2.95" stroke-linecap="round" stroke-linejoin="bevel" points="1475.18,673.221 1475.18,592.441"/>
<polyline class="Stem" fill="none" stroke="#000000" stroke-width="2.95" stroke-linecap="round" stroke-linejoin="bevel" points="1327.79,661.883 1327.79,588.661"/>
<polyline class="Stem" fill="none" stroke="#000000" stroke-width="2.95" stroke-linecap="round" stroke-linejoin="bevel" points="1180.4,650.544 1180.4,584.882"/>
<polyline class="Stem" fill="none" stroke="#000000" stroke-width="2.95" stroke-linecap="round" stroke-linejoin="bevel" points="1033.01,650.544 1033.01,581.102"/>
<polyline class="Stem" fill="none" stroke="#000000" stroke-width="2.95" stroke-linecap="round" stroke-linejoin="bevel" points="854.773,673.221 854.773,592.441"/>
<polyline class="Stem" fill="none" stroke="#000000" stroke-width="2.95" stroke-linecap="round" stroke-linejoin="bevel" points="707.381,661.883 707.381,588.661"/>
<polyline class="Stem" fill="none" stroke="#000000" stroke-width="2.95" stroke-linecap="round" stroke-linejoin="bevel" points="559.989,650.544 559.989,584.882"/>
<polyline class="Stem" fill="none" stroke="#000000" stroke-width="2.95" stroke-linecap="round" stroke-linejoin="bevel" points="412.597,650.544 412.597,581.102"/>
<path class="Note" transform="matrix(0.907087,0,0,0.907087,2225.77,1970.08)" d="M21.9688,-13.7656 C25.0938,-13.7656 27.7344,-12.9531 29.8906,-11.3281 C31.901,-9.56771 32.9063,-7.35417 32.9063,-4.6875 C32.9063,-0.197917 30.599,4 25.9844,7.90625 C21.2969,11.8125 16.2813,13.7656 10.9375,13.7656 C7.8125,13.7656 5.17708,12.9531 3.03125,11.3281 C1.01042,9.56771 0,7.35417 0,4.6875 C0,0.197917 2.34375,-4 7.03125,-7.90625 C11.5938,-11.8125 16.5729,-13.7656 21.9688,-13.7656"/>
<path class="Note" transform="matrix(0.907087,0,0,0.907087,2049.17,1958.74)" d="M21.9688,-13.7656 C25.0938,-13.7656 27.7344,-12.9531 29.8906,-11.3281 C31.901,-9.56771 32.9063,-7.35417 32.9063,-4.6875 C32.9063,-0.197917 30.599,4 25.9844,7.90625 C21.2969,11.8125 16.2813,13.7656 10.9375,13.7656 C7.8125,13.7656 5.17708,12.9531 3.03125,11.3281 C1.01042,9.56771 0,7.35417 0,4.6875 C0,0.197917 2.34375,-4 7.03125,-7.90625 C11.5938,-11.8125 16.5729,-13.7656 21.9688,-13.7656"/>
<path class="Note" transform="matrix(0.907087,0,0,0.907087,1903.42,1947.4)" d="M21.9688,-13.7656 C25.0938,-13.7656 27.7344,-12.9531 29.8906,-11.3281 C31.901,-9.56771 32.9063,-7.35417 32.9063,-4.6875 C32.9063,-0.197917 30.599,4 25.9844,7.90625 C21.2969,11.8125 16.2813,13.7656 10.9375,13.7656 C7.8125,13.7656 5.17708,12.9531 3.03125,11.3281 C1.01042,9.56771 0,7.35417 0,4.6875 C0,0.197917 2.34375,-4 7.03125,-7.90625 C11.5938,-11.8125 16.5729,-13.7656 21.9688,-13.7656"/>
<path class="Note" transform="matrix(0.907087,0,0,0.907087,1757.67,1936.06)" d="M21.9688,-13.7656 C25.0938,-13.7656 27.7344,-12.9531 29.8906,-11.3281 C31.901,-9.56771 32.9063,-7.35417 32.9063,-4.6875 C32.9063,-0.197917 30.599,4 25.9844,7.90625 C21.2969,11.8125 16.2813,13.7656 10.9375,13.7656 C7.8125,13.7656 5.17708,12.9531 3.03125,11.3281 C1.01042,9.56771 0,7.35417 0,4.6875 C0,0.197917 2.34375,-4 7.03125,-7.90625 C11.5938,-11.8125 16.5729,-13.7656 21.9688,-13.7656"/>
<path class="Note" transform="matrix(0.907087,0,0,0.907087,1611.92,1924.72)" d="M21.9688,-13.7656 C25.0938,-13.7656 27.7344,-12.9531 29.8906,-11.3281 C31.901,-9.56771 32.9063,-7.35417 32.9063,-4.6875 C32.9063,-0.197917 30.599,4 25.9844,7.90625 C21.2969,11.8125 16.2813,13.7656 10.9375,13.7656 C7.8125,13.7656 5.17708,12.9531 3.03125,11.3281 C1.01042,9.56771 0,7.35417 0,4.6875 C0,0.197917 2.34375,-4 7.03125,-7.90625 C11.5938,-11.8125 16.5729,-13.7656 21.9688,-13.7656"/>
<path class="Note" transform="matrix(0.907087,0,0,0.907087,1435.32,1947.4)" d="M21.9688,-13.7656 C25.0938,-13.7656 27.7344,-12.9531 29.8906,-11.3281 C31.901,-9.56771 32.9063,-7.35417 32.9063,-4.6875 C32.9063,-0.197917 30.599,4 25.9844,7.90625 C21.2969,11.8125 16.2813,13.7656 10.9375,13.7656 C7.8125,13.7656 5.17708,12.9531 3.03125,11.3281 C1.01042,9.56771 0,7.35417 0,4.6875 C0,0.197917 2.34375,-4 7.03125,-7.90625 C11.5938,-11.8125 16.5729,-13.7656 21.9688,-13.7656"/>
<path class="Note" transform="matrix(0.907087,0,0,0.907087,1289.57,1936.06)" d="M21.9688,-13.7656 C25.0938,-13.7656 27.7344,-12.9531 29.8906,-11.3281 C31.901,-9.56771 32.9063,-7.35417 32.9063,-4.6875 C32.9063,-0.197917 30.599,4 25.9844,7.90625 C21.2969,11.8125 16.2813,13.7656 10.9375,13.7656 C7.8125,13.7656 5.17708,12.9531 3.03125,11.3281 C1.01042,9.56771 0,7.35417 0,4.6875 C0,0.197917 2.34375,-4 7.03125,-7.90625 C11.5938,-11.8125 16.5729,-13.7656 21.9688,-13.7656"/>
<path class="Note" transform="matrix(0.907087,0,0,0.907087,1143.82,1924.72)" d="M21.9688,-13.7656 C25.0938,-13.7656 27.7344,-12.9531 29.8906,-11.3281 C31.901,-9.56771 32.9063,-7.35417 32.9063,-4.6875 C32.9063,-0.197917 30.599,4 25.9844,7.90625 C21.2969,11.8125 16.2813,13.7656 10.9375,13.7656 C7.8125,13.7656 5.17708,12.9531 3.03125,11.3281 C1.01042,9.56771 0,7.35417 0,4.6875 C0,0.197917 2.34375,-4 7.03125,-7.90625 C11.5938,-11.8125 16.5729,-13.7656 21.9688,-13.7656"/>
<path class="Note" transform="matrix(0.907087,0,0,0.907087,998.066,1924.72)" d="M21.9688,-13.7656 C25.0938,-13.7656 27.7344,-12.9531 29.8906,-11.3281 C31.901,-9.56771 32.9063,-7.35417 32.9063,-4.6875 C32.9063,-0.197917 30.599,4 25.9844,7.90625 C21.2969,11.8125 16.2813,13.7656 10.9375,13.7656 C7.8125,13.7656 5.17708,12.9531 3.03125,11.3281 C1.01042,9.56771 0,7.35417 0,4.6875 C0,0.197917 2.34375,-4 7.03125,-7.90625 C11.5938,-11.8125 16.5729,-13.7656 21.9688,-13.7656"/>
<path class="Note" transform="matrix(0.907087,0,0,0.907087,821.472,1913.39)" d="M21.9688,-13.7656 C25.0938,-13.7656 27.7344,-12.9531 29.8906,-11.3281 C31.901,-9.56771 32.9063,-7.35417 32.9063,-4.6875 C32.9063,-0.197917 30.599,4 25.9844,7.90625 C21.2969,11.8125 16.2813,13.7656 10.9375,13.7656 C7.8125,13.7656 5.17708,12.9531 3.03125,11.3281 C1.01042,9.56771 0,7.35417 0,4.6875 C0,0.197917 2.34375,-4 7.03125,-7.90625 C11.5938,-11.8125 16.5729,-13.7656 21.9688,-13.7656"/>
<path class="Note" transform="matrix(0.907087,0,0,0.907087,675.72,1902.05)" d="M21.9688,-13.7656 C25.0938,-13.7656 27.7344,-12.9531 29.8906,-11.3281 C31.901,-9.56771 32.9063,-7.35417 32.9063,-4.6875 C32.9063,-0.197917 30.599,4 25.9844,7.90625 C21.2969,11.8125 16.2813,13.7656 10.9375,13.7656 C7.8125,13.7656 5.17708,12.9531 3.03125,11.3281 C1.01042,9.56771 0,7.35417 0,4.6875 C0,0.197917 2.34375,-4 7.03125,-7.90625 C11.5938,-11.8125 16.5729,-13.7656 21.9688,-13.7656"/>
<path class="Note" transform="matrix(0.907087,0,0,0.907087,529.967,1890.71)" d="M21.9688,-13.7656 C25.0938,-13.7656 27.7344,-12.9531 29.8906,-11.3281 C31.901,-9.56771 32.9063,-7.35417 32.9063,-4.6875 C32.9063,-0.197917 30.599,4 25.9844,7.90625 C21.2969,11.8125 16.2813,13.7656 10.9375,13.7656 C7.8125,13.7656 5.17708,12.9531 3.03125,11.3281 C1.01042,9.56771 0,7.35417 0,4.6875 C0,0.197917 2.34375,-4 7.03125,-7.90625 C11.5938,-11.8125 16.5729,-13.7656 21.9688,-13.7656"/>
<path class="Note" transform="matrix(0.907087,0,0,0.907087,384.215,1890.71)" d="M21.9688,-13.7656 C25.0938,-13.7656 27.7344,-12.9531 29.8906,-11.3281 C31.901,-9.56771 32.9063,-7.35417 32.9063,-4.6875 C32.9063,-0.197917 30.599,4 25.9844,7.90625 C21.2969,11.8125 16.2813,13.7656 10.9375,13.7656 C7.8125,13.7656 5.17708,12.9531 3.03125,11.3281 C1.01042,9.56771 0,7.35417 0,4.6875 C0,0.197917 2.34375,-4 7.03125,-7.90625 C11.5938,-11.8125 16.5729,-13.7656 21.9688,-13.7656"/>
<path class="Note" transform="matrix(0.907087,0,0,0.907087,2245.44,1607.24)" d="M31.5469,-6.54688 C31.5469,-7.65104 31.125,-8.59375 30.2813,-9.375 C29.4271,-10.2188 28.4479,-10.6406 27.3438,-10.6406 C25.3958,-10.6406 21.4583,-8.6875 15.5313,-4.78125 C9.40625,-0.8125 5.66146,2.02083 4.29688,3.71875 C3.57813,4.625 3.21875,5.56771 3.21875,6.54688 C3.21875,7.65104 3.64583,8.59375 4.5,9.375 C5.28125,10.2188 6.25521,10.6406 7.42188,10.6406 C9.30729,10.6406 13.2813,8.6875 19.3438,4.78125 C25.3333,0.875 29.0417,-1.95833 30.4688,-3.71875 C31.1875,-4.5625 31.5469,-5.50521 31.5469,-6.54688 M26.375,-13.7656 C31.9688,-13.7656 34.7656,-11.3594 34.7656,-6.54688 C34.7656,-4.20313 34.0833,-1.46875 32.7188,1.65625 C31.3542,4.71875 29.5313,7.0625 27.25,8.6875 C22.2396,12.0729 15.9583,13.7656 8.40625,13.7656 C2.80208,13.7656 0,11.3594 0,6.54688 C0,4.40104 0.682292,1.69792 2.04688,-1.5625 C3.34896,-4.6875 5.17188,-7.0625 7.51563,-8.6875 C12.5365,-12.0729 18.8229,-13.7656 26.375,-13.7656"/>
<path class="Note" transform="matrix(0.907087,0,0,0.907087,2067.21,1618.58)" d="M21.9688,-13.7656 C25.0938,-13.7656 27.7344,-12.9531 29.8906,-11.3281 C31.901,-9.56771 32.9063,-7.35417 32.9063,-4.6875 C32.9063,-0.197917 30.599,4 25.9844,7.90625 C21.2969,11.8125 16.2813,13.7656 10.9375,13.7656 C7.8125,13.7656 5.17708,12.9531 3.03125,11.3281 C1.01042,9.56771 0,7.35417 0,4.6875 C0,0.197917 2.34375,-4 7.03125,-7.90625 C11.5938,-11.8125 16.5729,-13.7656 21.9688,-13.7656"/>
<path class="Note" transform="matrix(0.907087,0,0,0.907087,1919.82,1629.92)" d="M21.9688,-13.7656 C25.0938,-13.7656 27.7344,-12.9531 29.8906,-11.3281 C31.901,-9.56771 32.9063,-7.35417 32.9063,-4.6875 C32.9063,-0.197917 30.599,4 25.9844,7.90625 C21.2969,11.8125 16.2813,13.7656 10.9375,13.7656 C7.8125,13.7656 5.17708,12.9531 3.03125,11.3281 C1.01042,9.56771 0,7.35417 0,4.6875 C0,0.197917 2.34375,-4 7.03125,-7.90625 C11.5938,-11.8125 16.5729,-13.7656 21.9688,-13.7656"/>
<path class="Note" transform="matrix(0.907087,0,0,0.907087,1772.43,1641.26)" d="M21.9688,-13.7656 C25.0938,-13.7656 27.7344,-12.9531 29.8906,-11.3281 C31.901,-9.56771 32.9063,-7.35417 32.9063,-4.6875 C32.9063,-0.197917 30.599,4 25.9844,7.90625 C21.2969,11.8125 16.2813,13.7656 10.9375,13.7656 C7.8125,13.7656 5.17708,12.9531 3.03125,11.3281 C1.01042,9.56771 0,7.35417 0,4.6875 C0,0.197917 2.34375,-4 7.03125,-7.90625 C11.5938,-11.8125 16.5729,-13.7656 21.9688,-13.7656"/>
<path class="Note" transform="matrix(0.907087,0,0,0.907087,1625.03,1641.26)" d="M21.9688,-13.7656 C25.0938,-13.7656 27.7344,-12.9531 29.8906,-11.3281 C31.901,-9.56771 32.9063,-7.35417 32.9063,-4.6875 C32.9063,-0.197917 30.599,4 25.9844,7.90625 C21.2969,11.8125 16.2813,13.7656 10.9375,13.7656 C7.8125,13.7656 5.17708,12.9531 3.03125,11.3281 C1.01042,9.56771 0,7.35417 0,4.6875 C0,0.197917 2.34375,-4 7.03125,-7.90625 C11.5938,-11.8125 16.5729,-13.7656 21.9688,-13.7656"/>
<path class="Note" transform="matrix(0.907087,0,0,0.907087,1446.8,1629.92)" d="M21.9688,-13.7656 C25.0938,-13.7656 27.7344,-12.9531 29.8906,-11.3281 C31.901,-9.56771 32.9063,-7.35417 32.9063,-4.6875 C32.9063,-0.197917 30.599,4 25.9844,7.90625 C21.2969,11.8125 16.2813,13.7656 10.9375,13.7656 C7.8125,13.7656 5.17708,12.9531 3.03125,11.3281 C1.01042,9.56771 0,7.35417 0,4.6875 C0,0.197917 2.34375,-4 7.03125,-7.90625 C11.5938,-11.8125 16.5729,-13.7656 21.9688,-13.7656"/>
<path class="Note" transform="matrix(0.907087,0,0,0.907087,1299.41,1618.58)" d="M21.9688,-13.7656 C25.0938,-13.7656 27.7344,-12.9531 29.8906,-11.3281 C31.901,-9.56771 32.9063,-7.35417 32.9063,-4.6875 C32.9063,-0.197917 30.599,4 25.9844,7.90625 C21.2969,11.8125 16.2813,13.7656 10.9375,13.7656 C7.8125,13.7656 5.17708,12.9531 3.03125,11.3281 C1.01042,9.56771 0,7.35417 0,4.6875 C0,0.197917 2.34375,-4 7.03125,-7.90625 C11.5938,-11.8125 16.5729,-13.7656 21.9688,-13.7656"/>
<path class="Note" transform="matrix(0.907087,0,0,0.907087,1152.02,1607.24)" d="M21.9688,-13.7656 C25.0938,-13.7656 27.7344,-12.9531 29.8906,-11.3281 C31.901,-9.56771 32.9063,-7.35417 32.9063,-4.6875 C32.9063,-0.197917 30.599,4 25.9844,7.90625 C21.2969,11.8125 16.2813,13.7656 10.9375,13.7656 C7.8125,13.7656 5.17708,12.9531 3.03125,11.3281 C1.01042,9.56771 0,7.35417 0,4.6875 C0,0.197917 2.34375,-4 7.03125,-7.90625 C11.5938,-11.8125 16.5729,-13.7656 21.9688,-13.7656"/>
<path class="Note" transform="matrix(0.907087,0,0,0.907087,1004.62,1607.24)" d="M21.9688,-13.7656 C25.0938,-13.7656 27.7344,-12.9531 29.8906,-11.3281 C31.901,-9.56771 32.9063,-7.35417 32.9063,-4.6875 C32.9063,-0.197917 30.599,4 25.9844,7.90625 C21.2969,11.8125 16.2813,13.7656 10.9375,13.7656 C7.8125,13.7656 5.17708,12.9531 3.03125,11.3281 C1.01042,9.56771 0,7.35417 0,4.6875 C0,0.197917 2.34375,-4 7.03125,-7.90625 C11.5938,-11.8125 16.5729,-13.7656 21.9688,-13.7656"/>
<path class="Note" transform="matrix(0.907087,0,0,0.907087,826.391,1595.91)" d="M21.9688,-13.7656 C25.0938,-13.7656 27.7344,-12.9531 29.8906,-11.3281 C31.901,-9.56771 32.9063,-7.35417 32.9063,-4.6875 C32.9063,-0.197917 30.599,4 25.9844,7.90625 C21.2969,11.8125 16.2813,13.7656 10.9375,13.7656 C7.8125,13.7656 5.17708,12.9531 3.03125,11.3281 C1.01042,9.56771 0,7.35417 0,4.6875 C0,0.197917 2.34375,-4 7.03125,-7.90625 C11.5938,-11.8125 16.5729,-13.7656 21.9688,-13.7656"/>
<path class="Note" transform="matrix(0.907087,0,0,0.907087,678.999,1584.57)" d="M21.9688,-13.7656 C25.0938,-13.7656 27.7344,-12.9531 29.8906,-11.3281 C31.901,-9.56771 32.9063,-7.35417 32.9063,-4.6875 C32.9063,-0.197917 30.599,4 25.9844,7.90625 C21.2969,11.8125 16.2813,13.7656 10.9375,13.7656 C7.8125,13.7656 5.17708,12.9531 3.03125,11.3281 C1.01042,9.56771 0,7.35417 0,4.6875 C0,0.197917 2.34375,-4 7.03125,-7.90625 C11.5938,-11.8125 16.5729,-13.7656 21.9688,-13.7656"/>
<path class="Note" transform="matrix(0.907087,0,0,0.907087,531.607,1573.23)" d="M21.9688,-13.7656 C25.0938,-13.7656 27.7344,-12.9531 29.8906,-11.3281 C31.901,-9.56771 32.9063,-7.35417 32.9063,-4.6875 C32.9063,-0.197917 30.599,4 25.9844,7.90625 C21.2969,11.8125 16.2813,13.7656 10.9375,13.7656 C7.8125,13.7656 5.17708,12.9531 3.03125,11.3281 C1.01042,9.56771 0,7.35417 0,4.6875 C0,0.197917 2.34375,-4 7.03125,-7.90625 C11.5938,-11.8125 16.5729,-13.7656 21.9688,-13.7656"/>
<path class="Note" transform="matrix(0.907087,0,0,0.907087,384.215,1573.23)" d="M21.9688,-13.7656 C25.0938,-13.7656 27.7344,-12.9531 29.8906,-11.3281 C31.901,-9.56771 32.9063,-7.35417 32.9063,-4.6875 C32.9063,-0.197917 30.599,4 25.9844,7.90625 C21.2969,11.8125 16.2813,13.7656 10.9375,13.7656 C7.8125,13.7656 5.17708,12.9531 3.03125,11.3281 C1.01042,9.56771 0,7.35417 0,4.6875 C0,0.197917 2.34375,-4 7.03125,-7.90625 C11.5938,-11.8125 16.5729,-13.7656 21.9688,-13.7656"/>
<path class="Note" transform="matrix(0.907087,0,0,0.907087,2246.26,1278.43)" d="M31.5469,-6.54688 C31.5469,-7.65104 31.125,-8.59375 30.2813,-9.375 C29.4271,-10.2188 28.4479,-10.6406 27.3438,-10.6406 C25.3958,-10.6406 21.4583,-8.6875 15.5313,-4.78125 C9.40625,-0.8125 5.66146,2.02083 4.29688,3.71875 C3.57813,4.625 3.21875,5.56771 3.21875,6.54688 C3.21875,7.65104 3.64583,8.59375 4.5,9.375 C5.28125,10.2188 6.25521,10.6406 7.42188,10.6406 C9.30729,10.6406 13.2813,8.6875 19.3438,4.78125 C25.3333,0.875 29.0417,-1.95833 30.4688,-3.71875 C31.1875,-4.5625 31.5469,-5.50521 31.5469,-6.54688 M26.375,-13.7656 C31.9688,-13.7656 34.7656,-11.3594 34.7656,-6.54688 C34.7656,-4.20313 34.0833,-1.46875 32.7188,1.65625 C31.3542,4.71875 29.5313,7.0625 27.25,8.6875 C22.2396,12.0729 15.9583,13.7656 8.40625,13.7656 C2.80208,13.7656 0,11.3594 0,6.54688 C0,4.40104 0.682292,1.69792 2.04688,-1.5625 C3.34896,-4.6875 5.17188,-7.0625 7.51563,-8.6875 C12.5365,-12.0729 18.8229,-13.7656 26.375,-13.7656"/>
<path class="Note" transform="matrix(0.907087,0,0,0.907087,2067.21,1289.76)" d="M21.9688,-13.7656 C25.0938,-13.7656 27.7344,-12.9531 29.8906,-11.3281 C31.901,-9.56771 32.9063,-7.35417 32.9063,-4.6875 C32.9063,-0.197917 30.599,4 25.9844,7.90625 C21.2969,11.8125 16.2813,13.7656 10.9375,13.7656 C7.8125,13.7656 5.17708,12.9531 3.03125,11.3281 C1.01042,9.56771 0,7.35417 0,4.6875 C0,0.197917 2.34375,-4 7.03125,-7.90625 C11.5938,-11.8125 16.5729,-13.7656 21.9688,-13.7656"/>
<path class="Note" transform="matrix(0.907087,0,0,0.907087,1919.82,1301.1)" d="M21.9688,-13.7656 C25.0938,-13.7656 27.7344,-12.9531 29.8906,-11.3281 C31.901,-9.56771 32.9063,-7.35417 32.9063,-4.6875 C32.9063,-0.197917 30.599,4 25.9844,7.90625 C21.2969,11.8125 16.2813,13.7656 10.9375,13.7656 C7.8125,13.7656 5.17708,12.9531 3.03125,11.3281 C1.01042,9.56771 0,7.35417 0,4.6875 C0,0.197917 2.34375,-4 7.03125,-7.90625 C11.5938,-11.8125 16.5729,-13.7656 21.9688,-13.7656"/>
<path class="Note" transform="matrix(0.907087,0,0,0.907087,1772.43,1312.44)" d="M21.9688,-13.7656 C25.0938,-13.7656 27.7344,-12.9531 29.8906,-11.3281 C31.901,-9.56771 32.9063,-7.35417 32.9063,-4.6875 C32.9063,-0.197917 30.599,4 25.9844,7.90625 C21.2969,11.8125 16.2813,13.7656 10.9375,13.7656 C7.8125,13.7656 5.17708,12.9531 3.03125,11.3281 C1.01042,9.56771 0,7.35417 0,4.6875 C0,0.197917 2.34375,-4 7.03125,-7.90625 C11.5938,-11.8125 16.5729,-13.7656 21.9688,-13.7656"/>
<path class="Note" transform="matrix(0.907087,0,0,0.907087,1625.03,1301.1)" d="M21.9688,-13.7656 C25.0938,-13.7656 27.7344,-12.9531 29.8906,-11.3281 C31.901,-9.56771 32.9063,-7.35417 32.9063,-4.6875 C32.9063,-0.197917 30.599,4 25.9844,7.90625 C21.2969,11.8125 16.2813,13.7656 10.9375,13.7656 C7.8125,13.7656 5.17708,12.9531 3.03125,11.3281 C1.01042,9.56771 0,7.35417 0,4.6875 C0,0.197917 2.34375,-4 7.03125,-7.90625 C11.5938,-11.8125 16.5729,-13.7656 21.9688,-13.7656"/>
<path class="Note" transform="matrix(0.907087,0,0,0.907087,1446.8,1312.44)" d="M21.9688,-13.7656 C25.0938,-13.7656 27.7344,-12.9531 29.8906,-11.3281 C31.901,-9.56771 32.9063,-7.35417 32.9063,-4.6875 C32.9063,-0.197917 30.599,4 25.9844,7.90625 C21.2969,11.8125 16.2813,13.7656 10.9375,13.7656 C7.8125,13.7656 5.17708,12.9531 3.03125,11.3281 C1.01042,9.56771 0,7.35417 0,4.6875 C0,0.197917 2.34375,-4 7.03125,-7.90625 C11.5938,-11.8125 16.5729,-13.7656 21.9688,-13.7656"/>
<path class="Note" transform="matrix(0.907087,0,0,0.907087,1299.41,1301.1)" d="M21.9688,-13.7656 C25.0938,-13.7656 27.7344,-12.9531 29.8906,-11.3281 C31.901,-9.56771 32.9063,-7.35417 32.9063,-4.6875 C32.9063,-0.197917 30.599,4 25.9844,7.90625 C21.2969,11.8125 16.2813,13.7656 10.9375,13.7656 C7.8125,13.7656 5.17708,12.9531 3.03125,11.3281 C1.01042,9.56771 0,7.35417 0,4.6875 C0,0.197917 2.34375,-4 7.03125,-7.90625 C11.5938,-11.8125 16.5729,-13.7656 21.9688,-13.7656"/>
<path class="Note" transform="matrix(0.907087,0,0,0.907087,1152.02,1289.76)" d="M21.9688,-13.7656 C25.0938,-13.7656 27.7344,-12.9531 29.8906,-11.3281 C31.901,-9.56771 32.9063,-7.35417 32.9063,-4.6875 C32.9063,-0.197917 30.599,4 25.9844,7.90625 C21.2969,11.8125 16.2813,13.7656 10.9375,13.7656 C7.8125,13.7656 5.17708,12.9531 3.03125,11.3281 C1.01042,9.56771 0,7.35417 0,4.6875 C0,0.197917 2.34375,-4 7.03125,-7.90625 C11.5938,-11.8125 16.5729,-13.7656 21.9688,-13.7656"/>
<path class="Note" transform="matrix(0.907087,0,0,0.907087,1004.62,1289.76)" d="M21.9688,-13.7656 C25.0938,-13.7656 27.7344,-12.9531 29.8906,-11.3281 C31.901,-9.56771 32.9063,-7.35417 32.9063,-4.6875 C32.9063,-0.197917 30.599,4 25.9844,7.90625 C21.2969,11.8125 16.2813,13.7656 10.9375,13.7656 C7.8125,13.7656 5.17708,12.9531 3.03125,11.3281 C1.01042,9.56771 0,7.35417 0,4.6875 C0,0.197917 2.34375,-4 7.03125,-7.90625 C11.5938,-11.8125 16.5729,-13.7656 21.9688,-13.7656"/>
<path class="Note" transform="matrix(0.907087,0,0,0.907087,826.391,1312.44)" d="M21.9688,-13.7656 C25.0938,-13.7656 27.7344,-12.9531 29.8906,-11.3281 C31.901,-9.56771 32.9063,-7.35417 32.9063,-4.6875 C32.9063,-0.197917 30.599,4 25.9844,7.90625 C21.2969,11.8125 16.2813,13.7656 10.9375,13.7656 C7.8125,13.7656 5.17708,12.9531 3.03125,11.3281 C1.01042,9.56771 0,7.35417 0,4.6875 C0,0.197917 2.34375,-4 7.03125,-7.90625 C11.5938,-11.8125 16.5729,-13.7656 21.9688,-13.7656"/>
<path class="Note" transform="matrix(0.907087,0,0,0.907087,678.999,1301.1)" d="M21.9688,-13.7656 C25.0938,-13.7656 27.7344,-12.9531 29.8906,-11.3281 C31.901,-9.56771 32.9063,-7.35417 32.9063,-4.6875 C32.9063,-0.197917 30.599,4 25.9844,7.90625 C21.2969,11.8125 16.2813,13.7656 10.9375,13.7656 C7.8125,13.7656 5.17708,12.9531 3.03125,11.3281 C1.01042,9.56771 0,7.35417 0,4.6875 C0,0.197917 2.34375,-4 7.03125,-7.90625 C11.5938,-11.8125 16.5729,-13.7656 21.9688,-13.7656"/>
<path class="Note" transform="matrix(0.907087,0,0,0.907087,531.607,1289.76)" d="M21.9688,-13.7656 C25.0938,-13.7656 27.7344,-12.9531 29.8906,-11.3281 C31.901,-9.56771 32.9063,-7.35417 32.9063,-4.6875 C32.9063,-0.197917 30.599,4 25.9844,7.90625 C21.2969,11.8125 16.2813,13.7656 10.9375,13.7656 C7.8125,13.7656 5.17708,12.9531 3.03125,11.3281 C1.01042,9.56771 0,7.35417 0,4.6875 C0,0.197917 2.34375,-4 7.03125,-7.90625 C11.5938,-11.8125 16.5729,-13.7656 21.9688,-13.7656"/>
<path class="Note" transform="matrix(0.907087,0,0,0.907087,384.215,1289.76)" d="M21.9688,-13.7656 C25.0938,-13.7656 27.7344,-12.9531 29.8906,-11.3281 C31.901,-9.56771 32.9063,-7.35417 32.9063,-4.6875 C32.9063,-0.197917 30.599,4 25.9844,7.90625 C21.2969,11.8125 16.2813,13.7656 10.9375,13.7656 C7.8125,13.7656 5.17708,12.9531 3.03125,11.3281 C1.01042,9.56771 0,7.35417 0,4.6875 C0,0.197917 2.34375,-4 7.03125,-7.90625 C11.5938,-11.8125 16.5729,-13.7656 21.9688,-13.7656"/>
<path class="Note" transform="matrix(0.907087,0,0,0.907087,2245.44,972.284)" d="M31.5469,-6.54688 C31.5469,-7.65104 31.125,-8.59375 30.2813,-9.375 C29.4271,-10.2188 28.4479,-10.6406 27.3438,-10.6406 C25.3958,-10.6406 21.4583,-8.6875 15.5313,-4.78125 C9.40625,-0.8125 5.66146,2.02083 4.29688,3.71875 C3.57813,4.625 3.21875,5.56771 3.21875,6.54688 C3.21875,7.65104 3.64583,8.59375 4.5,9.375 C5.28125,10.2188 6.25521,10.6406 7.42188,10.6406 C9.30729,10.6406 13.2813,8.6875 19.3438,4.78125 C25.3333,0.875 29.0417,-1.95833 30.4688,-3.71875 C31.1875,-4.5625 31.5469,-5.50521 31.5469,-6.54688 M26.375,-13.7656 C31.9688,-13.7656 34.7656,-11.3594 34.7656,-6.54688 C34.7656,-4.20313 34.0833,-1.46875 32.7188,1.65625 C31.3542,4.71875 29.5313,7.0625 27.25,8.6875 C22.2396,12.0729 15.9583,13.7656 8.40625,13.7656 C2.80208,13.7656 0,11.3594 0,6.54688 C0,4.40104 0.682292,1.69792 2.04688,-1.5625 C3.34896,-4.6875 5.17188,-7.0625 7.51563,-8.6875 C12.5365,-12.0729 18.8229,-13.7656 26.375,-13.7656"/>
<path class="Note" transform="matrix(0.907087,0,0,0.907087,2067.21,983.622)" d="M21.9688,-13.7656 C25.0938,-13.7656 27.7344,-12.9531 29.8906,-11.3281 C31.901,-9.56771 32.9063,-7.35417 32.9063,-4.6875 C32.9063,-0.197917 30.599,4 25.9844,7.90625 C21.2969,11.8125 16.2813,13.7656 10.9375,13.7656 C7.8125,13.7656 5.17708,12.9531 3.03125,11.3281 C1.01042,9.56771 0,7.35417 0,4.6875 C0,0.197917 2.34375,-4 7.03125,-7.90625 C11.5938,-11.8125 16.5729,-13.7656 21.9688,-13.7656"/>
<path class="Note" transform="matrix(0.907087,0,0,0.907087,1919.82,994.961)" d="M21.9688,-13.7656 C25.0938,-13.7656 27.7344,-12.9531 29.8906,-11.3281 C31.901,-9.56771 32.9063,-7.35417 32.9063,-4.6875 C32.9063,-0.197917 30.599,4 25.9844,7.90625 C21.2969,11.8125 16.2813,13.7656 10.9375,13.7656 C7.8125,13.7656 5.17708,12.9531 3.03125,11.3281 C1.01042,9.56771 0,7.35417 0,4.6875 C0,0.197917 2.34375,-4 7.03125,-7.90625 C11.5938,-11.8125 16.5729,-13.7656 21.9688,-13.7656"/>
<path class="Note" transform="matrix(0.907087,0,0,0.907087,1772.43,1006.3)" d="M21.9688,-13.7656 C25.0938,-13.7656 27.7344,-12.9531 29.8906,-11.3281 C31.901,-9.56771 32.9063,-7.35417 32.9063,-4.6875 C32.9063,-0.197917 30.599,4 25.9844,7.90625 C21.2969,11.8125 16.2813,13.7656 10.9375,13.7656 C7.8125,13.7656 5.17708,12.9531 3.03125,11.3281 C1.01042,9.56771 0,7.35417 0,4.6875 C0,0.197917 2.34375,-4 7.03125,-7.90625 C11.5938,-11.8125 16.5729,-13.7656 21.9688,-13.7656"/>
<path class="Note" transform="matrix(0.907087,0,0,0.907087,1625.03,994.961)" d="M21.9688,-13.7656 C25.0938,-13.7656 27.7344,-12.9531 29.8906,-11.3281 C31.901,-9.56771 32.9063,-7.35417 32.9063,-4.6875 C32.9063,-0.197917 30.599,4 25.9844,7.90625 C21.2969,11.8125 16.2813,13.7656 10.9375,13.7656 C7.8125,13.7656 5.17708,12.9531 3.03125,11.3281 C1.01042,9.56771 0,7.35417 0,4.6875 C0,0.197917 2.34375,-4 7.03125,-7.90625 C11.5938,-11.8125 16.5729,-13.7656 21.9688,-13.7656"/>
<path class="Note" transform="matrix(0.907087,0,0,0.907087,1446.8,1006.3)" d="M21.9688,-13.7656 C25.0938,-13.7656 27.7344,-12.9531 29.8906,-11.3281 C31.901,-9.56771 32.9063,-7.35417 32.9063,-4.6875 C32.9063,-0.197917 30.599,4 25.9844,7.90625 C21.2969,11.8125 16.2813,13.7656 10.9375,13.7656 C7.8125,13.7656 5.17708,12.9531 3.03125,11.3281 C1.01042,9.56771 0,7.35417 0,4.6875 C0,0.197917 2.34375,-4 7.03125,-7.90625 C11.5938,-11.8125 16.5729,-13.7656 21.9688,-13.7656"/>
<path class="Note" transform="matrix(0.907087,0,0,0.907087,1299.41,994.961)" d="M21.9688,-13.7656 C25.0938,-13.7656 27.7344,-12.9531 29.8906,-11.3281 C31.901,-9.56771 32.9063,-7.35417 32.9063,-4.6875 C32.9063,-0.197917 30.599,4 25.9844,7.90625 C21.2969,11.8125 16.2813,13.7656 10.9375,13.7656 C7.8125,13.7656 5.17708,12.9531 3.03125,11.3281 C1.01042,9.56771 0,7.35417 0,4.6875 C0,0.197917 2.34375,-4 7.03125,-7.90625 C11.5938,-11.8125 16.5729,-13.7656 21.9688,-13.7656"/>
<path class="Note" transform="matrix(0.907087,0,0,0.907087,1152.02,983.622)" d="M21.9688,-13.7656 C25.0938,-13.7656 27.7344,-12.9531 29.8906,-11.3281 C31.901,-9.56771 32.9063,-7.35417 32.9063,-4.6875 C32.9063,-0.197917 30.599,4 25.9844,7.90625 C21.2969,11.8125 16.2813,13.7656 10.9375,13.7656 C7.8125,13.7656 5.17708,12.9531 3.03125,11.3281 C1.01042,9.56771 0,7.35417 0,4.6875 C0,0.197917 2.34375,-4 7.03125,-7.90625 C11.5938,-11.8125 16.5729,-13.7656 21.9688,-13.7656"/>
<path class="Note" transform="matrix(0.907087,0,0,0.907087,1004.62,983.622)" d="M21.9688,-13.7656 C25.0938,-13.7656 27.7344,-12.9531 29.8906,-11.3281 C31.901,-9.56771 32.9063,-7.35417 32.9063,-4.6875 C32.9063,-0.197917 30.599,4 25.9844,7.90625 C21.2969,11.8125 16.2813,13.7656 10.9375,13.7656 C7.8125,13.7656 5.17708,12.9531 3.03125,11.3281 C1.01042,9.56771 0,7.35417 0,4.6875 C0,0.197917 2.34375,-4 7.03125,-7.90625 C11.5938,-11.8125 16.5729,-13.7656 21.9688,-13.7656"/>
<path class="Note" transform="matrix(0.907087,0,0,0.907087,826.391,1006.3)" d="M21.9688,-13.7656 C25.0938,-13.7656 27.7344,-12.9531 29.8906,-11.3281 C31.901,-9.56771 32.9063,-7.35417 32.9063,-4.6875 C32.9063,-0.197917 30.599,4 25.9844,7.90625 C21.2969,11.8125 16.2813,13.7656 10.9375,13.7656 C7.8125,13.7656 5.17708,12.9531 3.03125,11.3281 C1.01042,9.56771 0,7.35417 0,4.6875 C0,0.197917 2.34375,-4 7.03125,-7.90625 C11.5938,-11.8125 16.5729,-13.7656 21.9688,-13.7656"/>
<path class="Note" transform="matrix(0.907087,0,0,0.907087,678.999,994.961)" d="M21.9688,-13.7656 C25.0938,-13.7656 27.7344,-12.9531 29.8906,-11.3281 C31.901,-9.56771 32.9063,-7.35417 32.9063,-4.6875 C32.9063,-0.197917 30.599,4 25.9844,7.90625 C21.2969,11.8125 16.2813,13.7656 10.9375,13.7656 C7.8125,13.7656 5.17708,12.9531 3.03125,11.3281 C1.01042,9.56771 0,7.35417 0,4.6875 C0,0.197917 2.34375,-4 7.03125,-7.90625 C11.5938,-11.8125 16.5729,-13.7656 21.9688,-13.7656"/>
<path class="Note" transform="matrix(0.907087,0,0,0.907087,531.607,983.622)" d="M21.9688,-13.7656 C25.0938,-13.7656 27.7344,-12.9531 29.8906,-11.3281 C31.901,-9.56771 32.9063,-7.35417 32.9063,-4.6875 C32.9063,-0.197917 30.599,4 25.9844,7.90625 C21.2969,11.8125 16.2813,13.7656 10.9375,13.7656 C7.8125,13.7656 5.17708,12.9531 3.03125,11.3281 C1.01042,9.56771 0,7.35417 0,4.6875 C0,0.197917 2.34375,-4 7.03125,-7.90625 C11.5938,-11.8125 16.5729,-13.7656 21.9688,-13.7656"/>
<path class="Note" transform="matrix(0.907087,0,0,0.907087,384.215,983.622)" d="M21.9688,-13.7656 C25.0938,-13.7656 27.7344,-12.9531 29.8906,-11.3281 C31.901,-9.56771 32.9063,-7.35417 32.9063,-4.6875 C32.9063,-0.197917 30.599,4 25.9844,7.90625 C21.2969,11.8125 16.2813,13.7656 10.9375,13.7656 C7.8125,13.7656 5.17708,12.9531 3.03125,11.3281 C1.01042,9.56771 0,7.35417 0,4.6875 C0,0.197917 2.34375,-4 7.03125,-7.90625 C11.5938,-11.8125 16.5729,-13.7656 21.9688,-13.7656"/>
<path class="Note" transform="matrix(0.907087,0,0,0.907087,2245.44,688.819)" d="M31.5469,-6.54688 C31.5469,-7.65104 31.125,-8.59375 30.2813,-9.375 C29.4271,-10.2188 28.4479,-10.6406 27.3438,-10.6406 C25.3958,-10.6406 21.4583,-8.6875 15.5313,-4.78125 C9.40625,-0.8125 5.66146,2.02083 4.29688,3.71875 C3.57813,4.625 3.21875,5.56771 3.21875,6.54688 C3.21875,7.65104 3.64583,8.59375 4.5,9.375 C5.28125,10.2188 6.25521,10.6406 7.42188,10.6406 C9.30729,10.6406 13.2813,8.6875 19.3438,4.78125 C25.3333,0.875 29.0417,-1.95833 30.4688,-3.71875 C31.1875,-4.5625 31.5469,-5.50521 31.5469,-6.54688 M26.375,-13.7656 C31.9688,-13.7656 34.7656,-11.3594 34.7656,-6.54688 C34.7656,-4.20313 34.0833,-1.46875 32.7188,1.65625 C31.3542,4.71875 29.5313,7.0625 27.25,8.6875 C22.2396,12.0729 15.9583,13.7656 8.40625,13.7656 C2.80208,13.7656 0,11.3594 0,6.54688 C0,4.40104 0.682292,1.69792 2.04688,-1.5625 C3.34896,-4.6875 5.17188,-7.0625 7.51563,-8.6875 C12.5365,-12.0729 18.8229,-13.7656 26.375,-13.7656"/>
<path class="Note" transform="matrix(0.907087,0,0,0.907087,2067.21,677.48)" d="M21.9688,-13.7656 C25.0938,-13.7656 27.7344,-12.9531 29.8906,-11.3281 C31.901,-9.56771 32.9063,-7.35417 32.9063,-4.6875 C32.9063,-0.197917 30.599,4 25.9844,7.90625 C21.2969,11.8125 16.2813,13.7656 10.9375,13.7656 C7.8125,13.7656 5.17708,12.9531 3.03125,11.3281 C1.01042,9.56771 0,7.35417 0,4.6875 C0,0.197917 2.34375,-4 7.03125,-7.90625 C11.5938,-11.8125 16.5729,-13.7656 21.9688,-13.7656"/>
<path class="Note" transform="matrix(0.907087,0,0,0.907087,1919.82,666.142)" d="M21.9688,-13.7656 C25.0938,-13.7656 27.7344,-12.9531 29.8906,-11.3281 C31.901,-9.56771 32.9063,-7.35417 32.9063,-4.6875 C32.9063,-0.197917 30.599,4 25.9844,7.90625 C21.2969,11.8125 16.2813,13.7656 10.9375,13.7656 C7.8125,13.7656 5.17708,12.9531 3.03125,11.3281 C1.01042,9.56771 0,7.35417 0,4.6875 C0,0.197917 2.34375,-4 7.03125,-7.90625 C11.5938,-11.8125 16.5729,-13.7656 21.9688,-13.7656"/>
<path class="Note" transform="matrix(0.907087,0,0,0.907087,1772.43,654.803)" d="M21.9688,-13.7656 C25.0938,-13.7656 27.7344,-12.9531 29.8906,-11.3281 C31.901,-9.56771 32.9063,-7.35417 32.9063,-4.6875 C32.9063,-0.197917 30.599,4 25.9844,7.90625 C21.2969,11.8125 16.2813,13.7656 10.9375,13.7656 C7.8125,13.7656 5.17708,12.9531 3.03125,11.3281 C1.01042,9.56771 0,7.35417 0,4.6875 C0,0.197917 2.34375,-4 7.03125,-7.90625 C11.5938,-11.8125 16.5729,-13.7656 21.9688,-13.7656"/>
<path class="Note" transform="matrix(0.907087,0,0,0.907087,1625.03,654.803)" d="M21.9688,-13.7656 C25.0938,-13.7656 27.7344,-12.9531 29.8906,-11.3281 C31.901,-9.56771 32.9063,-7.35417 32.9063,-4.6875 C32.9063,-0.197917 30.599,4 25.9844,7.90625 C21.2969,11.8125 16.2813,13.7656 10.9375,13.7656 C7.8125,13.7656 5.17708,12.9531 3.03125,11.3281 C1.01042,9.56771 0,7.35417 0,4.6875 C0,0.197917 2.34375,-4 7.03125,-7.90625 C11.5938,-11.8125 16.5729,-13.7656 21.9688,-13.7656"/>
<path class="Note" transform="matrix(0.907087,0,0,0.907087,1446.8,677.48)" d="M21.9688,-13.7656 C25.0938,-13.7656 27.7344,-12.9531 29.8906,-11.3281 C31.901,-9.56771 32.9063,-7.35417 32.9063,-4.6875 C32.9063,-0.197917 30.599,4 25.9844,7.90625 C21.2969,11.8125 16.2813,13.7656 10.9375,13.7656 C7.8125,13.7656 5.17708,12.9531 3.03125,11.3281 C1.01042,9.56771 0,7.35417 0,4.6875 C0,0.197917 2.34375,-4 7.03125,-7.90625 C11.5938,-11.8125 16.5729,-13.7656 21.9688,-13.7656"/>
<path class="Note" transform="matrix(0.907087,0,0,0.907087,1299.41,666.142)" d="M21.9688,-13.7656 C25.0938,-13.7656 27.7344,-12.9531 29.8906,-11.3281 C31.901,-9.56771 32.9063,-7.35417 32.9063,-4.6875 C32.9063,-0.197917 30.599,4 25.9844,7.90625 C21.2969,11.8125 16.2813,13.7656 10.9375,13.7656 C7.8125,13.7656 5.17708,12.9531 3.03125,11.3281 C1.01042,9.56771 0,7.35417 0,4.6875 C0,0.197917 2.34375,-4 7.03125,-7.90625 C11.5938,-11.8125 16.5729,-13.7656 21.9688,-13.7656"/>
<path class="Note" transform="matrix(0.907087,0,0,0.907087,1152.02,654.803)" d="M21.9688,-13.7656 C25.0938,-13.7656 27.7344,-12.9531 29.8906,-11.3281 C31.901,-9.56771 32.9063,-7.35417 32.9063,-4.6875 C32.9063,-0.197917 30.599,4 25.9844,7.90625 C21.2969,11.8125 16.2813,13.7656 10.9375,13.7656 C7.8125,13.7656 5.17708,12.9531 3.03125,11.3281 C1.01042,9.56771 0,7.35417 0,4.6875 C0,0.197917 2.34375,-4 7.03125,-7.90625 C11.5938,-11.8125 16.5729,-13.7656 21.9688,-13.7656"/>
<path class="Note" transform="matrix(0.907087,0,0,0.907087,1004.62,654.803)" d="M21.9688,-13.7656 C25.0938,-13.7656 27.7344,-12.9531 29.8906,-11.3281 C31.901,-9.56771 32.9063,-7.35417 32.9063,-4.6875 C32.9063,-0.197917 30.599,4 25.9844,7.90625 C21.2969,11.8125 16.2813,13.7656 10.9375,13.7656 C7.8125,13.7656 5.17708,12.9531 3.03125,11.3281 C1.01042,9.56771 0,7.35417 0,4.6875 C0,0.197917 2.34375,-4 7.03125,-7.90625 C11.5938,-11.8125 16.5729,-13.7656 21.9688,-13.7656"/>
<path class="Note" transform="matrix(0.907087,0,0,0.907087,826.391,677.48)" d="M21.9688,-13.7656 C25.0938,-13.7656 27.7344,-12.9531 29.8906,-11.3281 C31.901,-9.56771 32.9063,-7.35417 32.9063,-4.6875 C32.9063,-0.197917 30.599,4 25.9844,7.90625 C21.2969,11.8125 16.2813,13.7656 10.9375,13.7656 C7.8125,13.7656 5.17708,12.9531 3.03125,11.3281 C1.01042,9.56771 0,7.35417 0,4.6875 C0,0.197917 2.34375,-4 7.03125,-7.90625 C11.5938,-11.8125 16.5729,-13.7656 21.9688,-13.7656"/>
<path class="Note" transform="matrix(0.907087,0,0,0.907087,678.999,666.142)" d="M21.9688,-13.7656 C25.0938,-13.7656 27.7344,-12.9531 29.8906,-11.3281 C31.901,-9.56771 32.9063,-7.35417 32.9063,-4.6875 C32.9063,-0.197917 30.599,4 25.9844,7.90625 C21.2969,11.8125 16.2813,13.7656 10.9375,13.7656 C7.8125,13.7656 5.17708,12.9531 3.03125,11.3281 C1.01042,9.56771 0,7.35417 0,4.6875 C0,0.197917 2.34375,-4 7.03125,-7.90625 C11.5938,-11.8125 16.5729,-13.7656 21.9688,-13.7656"/>
<path class="Note" transform="matrix(0.907087,0,0,0.907087,531.607,654.803)" d="M21.9688,-13.7656 C25.0938,-13.7656 27.7344,-12.9531 29.8906,-11.3281 C31.901,-9.56771 32.9063,-7.35417 32.9063,-4.6875 C32.9063,-0.197917 30.599,4 25.9844,7.90625 C21.2969,11.8125 16.2813,13.7656 10.9375,13.7656 C7.8125,13.7656 5.17708,12.9531 3.03125,11.3281 C1.01042,9.56771 0,7.35417 0,4.6875 C0,0.197917 2.34375,-4 7.03125,-7.90625 C11.5938,-11.8125 16.5729,-13.7656 21.9688,-13.7656"/>
<path class="Note" transform="matrix(0.907087,0,0,0.907087,384.215,654.803)" d="M21.9688,-13.7656 C25.0938,-13.7656 27.7344,-12.9531 29.8906,-11.3281 C31.901,-9.56771 32.9063,-7.35417 32.9063,-4.6875 C32.9063,-0.197917 30.599,4 25.9844,7.90625 C21.2969,11.8125 16.2813,13.7656 10.9375,13.7656 C7.8125,13.7656 5.17708,12.9531 3.03125,11.3281 C1.01042,9.56771 0,7.35417 0,4.6875 C0,0.197917 2.34375,-4 7.03125,-7.90625 C11.5938,-11.8125 16.5729,-13.7656 21.9688,-13.7656"/>
<path class="Clef" transform="matrix(0.907087,0,0,0.907087,227.112,1936.06)" d="M36.7188,-25.5938 C36.7188,-25.5938 36.9167,-25.5938 37.3125,-25.5938 C37.5729,-25.6563 37.7969,-25.6875 37.9844,-25.6875 C45.276,-25.6875 51.2656,-23.1146 55.9531,-17.9688 C60.6406,-12.8958 62.9844,-6.97396 62.9844,-0.203125 C62.9844,8.20313 59.5052,15.0417 52.5469,20.3125 C50.724,21.75 48.3438,22.9219 45.4063,23.8281 C45.7396,28.0573 45.9063,31.474 45.9063,34.0781 C45.9063,34.599 45.8385,36.4896 45.7031,39.75 C45.4427,45.8021 43.3594,51.0417 39.4531,55.4688 C35.6823,59.8333 30.9948,62.0156 25.3906,62.0156 C20.1198,62.0156 15.6302,60.1615 11.9219,56.4531 C8.20313,52.6719 6.34375,48.1146 6.34375,42.7813 C6.34375,39.9792 7.42188,37.599 9.57813,35.6406 C11.7865,33.6927 14.3542,32.7188 17.2813,32.7188 C19.8854,32.7188 22.0677,33.7292 23.8281,35.75 C25.651,37.6354 26.5625,39.9792 26.5625,42.7813 C26.5625,45.3125 25.651,47.4896 23.8281,49.3125 C22.0052,51.1354 19.8229,52.0469 17.2813,52.0469 C16.2396,52.0469 15.2344,51.8542 14.2656,51.4688 C17.1302,55.6979 20.9375,57.8125 25.6875,57.8125 C30.1771,57.8125 33.8542,55.9896 36.7188,52.3438 C39.7188,48.5729 41.349,44.1771 41.6094,39.1563 C41.7344,36.0313 41.7969,34.2448 41.7969,33.7969 C41.7969,30.151 41.6667,27.1563 41.4063,24.8125 C38.1563,25.3333 35.2604,25.5938 32.7188,25.5938 C23.6667,25.5938 15.9531,22.0104 9.57813,14.8438 C3.32813,7.61458 0.203125,-0.979167 0.203125,-10.9375 C0.203125,-13.0208 0.395833,-15.1354 0.78125,-17.2813 C1.17708,-19.0417 1.66667,-20.9635 2.25,-23.0469 C2.57292,-24.224 3.45313,-26.1146 4.89063,-28.7188 C5.41146,-29.5 5.9974,-30.4766 6.64844,-31.6484 C7.29948,-32.8203 7.75521,-33.599 8.01563,-33.9844 C8.66146,-35.2865 9.92708,-37.0469 11.8125,-39.2656 C12.3333,-39.849 12.8724,-40.4974 13.4297,-41.2109 C13.987,-41.9245 14.4609,-42.5104 14.8516,-42.9688 C15.2422,-43.4271 15.5339,-43.7865 15.7266,-44.0469 C15.9193,-44.3073 17.3854,-46.0313 20.125,-49.2188 C20.7708,-49.875 21.4036,-50.5755 22.0234,-51.3203 C22.6432,-52.0651 23.1484,-52.651 23.5391,-53.0781 C23.9297,-53.5052 24.224,-53.8125 24.4219,-54 C22.0781,-61.75 20.6094,-67.9375 20.0156,-72.5625 C19.5677,-76.2708 19.3438,-81.349 19.3438,-87.7969 C19.3438,-93.4635 20.6458,-98.7708 23.25,-103.719 C25.7813,-108.854 29.3281,-113.052 33.8906,-116.313 C34.151,-116.51 34.474,-116.609 34.8594,-116.609 C35.3177,-116.609 35.6458,-116.51 35.8438,-116.313 C39.3542,-112.083 42.3802,-106.583 44.9219,-99.8125 C47.526,-93.0417 48.8281,-86.8854 48.8281,-81.3438 C48.8281,-75.0938 47.3333,-69.2344 44.3438,-63.7656 C40.9583,-57.974 36.5938,-51.9844 31.25,-45.7969 C32.6146,-41.5052 34.4375,-34.7708 36.7188,-25.5938 M45.0156,19.8281 C48.401,18.5885 51.0417,16.474 52.9375,13.4844 C55.0208,10.6198 56.0625,7.39583 56.0625,3.8125 C56.0625,-0.8125 54.5,-4.91667 51.375,-8.5 C48.1771,-12.2083 44.1042,-14.2917 39.1563,-14.75 C41.9583,-1.01042 43.9115,10.5156 45.0156,19.8281 M7.23438,-2.73438 C7.23438,3.71354 9.83854,9.38021 15.0469,14.2656 C20.3802,19.0156 26.3698,21.3906 33.0156,21.3906 C35.7448,21.3906 38.4115,21.1927 41.0156,20.7969 C39.974,10.901 37.9219,-0.947917 34.8594,-14.75 C31.151,-14.3542 28.1927,-13.0521 25.9844,-10.8438 C23.8281,-8.5625 22.75,-5.98958 22.75,-3.125 C22.75,1.82292 25.3906,5.82813 30.6719,8.89063 C31.1198,9.34896 31.3438,9.83854 31.3438,10.3594 C31.3438,10.8802 31.1198,11.3646 30.6719,11.8125 C30.276,12.2708 29.7865,12.5 29.2031,12.5 C29.1406,12.5 28.849,12.4375 28.3281,12.3125 C24.6094,10.2917 21.7448,7.6875 19.7344,4.5 C17.8385,1.10417 16.8906,-2.31771 16.8906,-5.76563 C16.8906,-10.2552 18.2917,-14.3229 21.0938,-17.9688 C24.0208,-21.6146 27.8281,-23.9583 32.5156,-25 C30.6927,-32.2917 29.1979,-37.9896 28.0313,-42.0938 C26.9896,-40.9167 25.737,-39.5 24.2734,-37.8438 C22.8099,-36.1875 21.9479,-35.1927 21.6875,-34.8594 C19.3438,-31.8073 17.5521,-29.4323 16.3125,-27.7344 C14.0938,-24.6719 12.4635,-22.0365 11.4219,-19.8281 C10.3177,-17.349 9.34375,-14.6458 8.5,-11.7188 C7.65625,-8.91667 7.23438,-5.92188 7.23438,-2.73438 M39.8438,-102.047 C34.9583,-99.6406 31.1198,-96.1927 28.3281,-91.7031 C25.4635,-87.0781 24.0313,-82.099 24.0313,-76.7656 C24.0313,-72.0781 25.2031,-65.7604 27.5469,-57.8125 C32.2344,-63.4792 35.75,-68.7188 38.0938,-73.5313 C40.5625,-78.6146 41.7969,-83.9219 41.7969,-89.4531 C41.7969,-93.6198 41.1458,-97.8177 39.8438,-102.047"/>
<path class="Clef" transform="matrix(0.907087,0,0,0.907087,227.112,1618.58)" d="M36.7188,-25.5938 C36.7188,-25.5938 36.9167,-25.5938 37.3125,-25.5938 C37.5729,-25.6563 37.7969,-25.6875 37.9844,-25.6875 C45.276,-25.6875 51.2656,-23.1146 55.9531,-17.9688 C60.6406,-12.8958 62.9844,-6.97396 62.9844,-0.203125 C62.9844,8.20313 59.5052,15.0417 52.5469,20.3125 C50.724,21.75 48.3438,22.9219 45.4063,23.8281 C45.7396,28.0573 45.9063,31.474 45.9063,34.0781 C45.9063,34.599 45.8385,36.4896 45.7031,39.75 C45.4427,45.8021 43.3594,51.0417 39.4531,55.4688 C35.6823,59.8333 30.9948,62.0156 25.3906,62.0156 C20.1198,62.0156 15.6302,60.1615 11.9219,56.4531 C8.20313,52.6719 6.34375,48.1146 6.34375,42.7813 C6.34375,39.9792 7.42188,37.599 9.57813,35.6406 C11.7865,33.6927 14.3542,32.7188 17.2813,32.7188 C19.8854,32.7188 22.0677,33.7292 23.8281,35.75 C25.651,37.6354 26.5625,39.9792 26.5625,42.7813 C26.5625,45.3125 25.651,47.4896 23.8281,49.3125 C22.0052,51.1354 19.8229,52.0469 17.2813,52.0469 C16.2396,52.0469 15.2344,51.8542 14.2656,51.4688 C17.1302,55.6979 20.9375,57.8125 25.6875,57.8125 C30.1771,57.8125 33.8542,55.9896 36.7188,52.3438 C39.7188,48.5729 41.349,44.1771 41.6094,39.1563 C41.7344,36.0313 41.7969,34.2448 41.7969,33.7969 C41.7969,30.151 41.6667,27.1563 41.4063,24.8125 C38.1563,25.3333 35.2604,25.5938 32.7188,25.5938 C23.6667,25.5938 15.9531,22.0104 9.57813,14.8438 C3.32813,7.61458 0.203125,-0.979167 0.203125,-10.9375 C0.203125,-13.0208 0.395833,-15.1354 0.78125,-17.2813 C1.17708,-19.0417 1.66667,-20.9635 2.25,-23.0469 C2.57292,-24.224 3.45313,-26.1146 4.89063,-28.7188 C5.41146,-29.5 5.9974,-30.4766 6.64844,-31.6484 C7.29948,-32.8203 7.75521,-33.599 8.01563,-33.9844 C8.66146,-35.2865 9.92708,-37.0469 11.8125,-39.2656 C12.3333,-39.849 12.8724,-40.4974 13.4297,-41.2109 C13.987,-41.9245 14.4609,-42.5104 14.8516,-42.9688 C15.2422,-43.4271 15.5339,-43.7865 15.7266,-44.0469 C15.9193,-44.3073 17.3854,-46.0313 20.125,-49.2188 C20.7708,-49.875 21.4036,-50.5755 22.0234,-51.3203 C22.6432,-52.0651 23.1484,-52.651 23.5391,-53.0781 C23.9297,-53.5052 24.224,-53.8125 24.4219,-54 C22.0781,-61.75 20.6094,-67.9375 20.0156,-72.5625 C19.5677,-76.2708 19.3438,-81.349 19.3438,-87.7969 C19.3438,-93.4635 20.6458,-98.7708 23.25,-103.719 C25.7813,-108.854 29.3281,-113.052 33.8906,-116.313 C34.151,-116.51 34.474,-116.609 34.8594,-116.609 C35.3177,-116.609 35.6458,-116.51 35.8438,-116.313 C39.3542,-112.083 42.3802,-106.583 44.9219,-99.8125 C47.526,-93.0417 48.8281,-86.8854 48.8281,-81.3438 C48.8281,-75.0938 47.3333,-69.2344 44.3438,-63.7656 C40.9583,-57.974 36.5938,-51.9844 31.25,-45.7969 C32.6146,-41.5052 34.4375,-34.7708 36.7188,-25.5938 M45.0156,19.8281 C48.401,18.5885 51.0417,16.474 52.9375,13.4844 C55.0208,10.6198 56.0625,7.39583 56.0625,3.8125 C56.0625,-0.8125 54.5,-4.91667 51.375,-8.5 C48.1771,-12.2083 44.1042,-14.2917 39.1563,-14.75 C41.9583,-1.01042 43.9115,10.5156 45.0156,19.8281 M7.23438,-2.73438 C7.23438,3.71354 9.83854,9.38021 15.0469,14.2656 C20.3802,19.0156 26.3698,21.3906 33.0156,21.3906 C35.7448,21.3906 38.4115,21.1927 41.0156,20.7969 C39.974,10.901 37.9219,-0.947917 34.8594,-14.75 C31.151,-14.3542 28.1927,-13.0521 25.9844,-10.8438 C23.8281,-8.5625 22.75,-5.98958 22.75,-3.125 C22.75,1.82292 25.3906,5.82813 30.6719,8.89063 C31.1198,9.34896 31.3438,9.83854 31.3438,10.3594 C31.3438,10.8802 31.1198,11.3646 30.6719,11.8125 C30.276,12.2708 29.7865,12.5 29.2031,12.5 C29.1406,12.5 28.849,12.4375 28.3281,12.3125 C24.6094,10.2917 21.7448,7.6875 19.7344,4.5 C17.8385,1.10417 16.8906,-2.31771 16.8906,-5.76563 C16.8906,-10.2552 18.2917,-14.3229 21.0938,-17.9688 C24.0208,-21.6146 27.8281,-23.9583 32.5156,-25 C30.6927,-32.2917 29.1979,-37.9896 28.0313,-42.0938 C26.9896,-40.9167 25.737,-39.5 24.2734,-37.8438 C22.8099,-36.1875 21.9479,-35.1927 21.6875,-34.8594 C19.3438,-31.8073 17.5521,-29.4323 16.3125,-27.7344 C14.0938,-24.6719 12.4635,-22.0365 11.4219,-19.8281 C10.3177,-17.349 9.34375,-14.6458 8.5,-11.7188 C7.65625,-8.91667 7.23438,-5.92188 7.23438,-2.73438 M39.8438,-102.047 C34.9583,-99.6406 31.1198,-96.1927 28.3281,-91.7031 C25.4635,-87.0781 24.0313,-82.099 24.0313,-76.7656 C24.0313,-72.0781 25.2031,-65.7604 27.5469,-57.8125 C32.2344,-63.4792 35.75,-68.7188 38.0938,-73.5313 C40.5625,-78.6146 41.7969,-83.9219 41.7969,-89.4531 C41.7969,-93.6198 41.1458,-97.8177 39.8438,-102.047"/>
<path class="Clef" transform="matrix(0.907087,0,0,0.907087,227.112,1301.1)" d="M36.7188,-25.5938 C36.7188,-25.5938 36.9167,-25.5938 37.3125,-25.5938 C37.5729,-25.6563 37.7969,-25.6875 37.9844,-25.6875 C45.276,-25.6875 51.2656,-23.1146 55.9531,-17.9688 C60.6406,-12.8958 62.9844,-6.97396 62.9844,-0.203125 C62.9844,8.20313 59.5052,15.0417 52.5469,20.3125 C50.724,21.75 48.3438,22.9219 45.4063,23.8281 C45.7396,28.0573 45.9063,31.474 45.9063,34.0781 C45.9063,34.599 45.8385,36.4896 45.7031,39.75 C45.4427,45.8021 43.3594,51.0417 39.4531,55.4688 C35.6823,59.8333 30.9948,62.0156 25.3906,62.0156 C20.1198,62.0156 15.6302,60.1615 11.9219,56.4531 C8.20313,52.6719 6.34375,48.1146 6.34375,42.7813 C6.34375,39.9792 7.42188,37.599 9.57813,35.6406 C11.7865,33.6927 14.3542,32.7188 17.2813,32.7188 C19.8854,32.7188 22.0677,33.7292 23.8281,35.75 C25.651,37.6354 26.5625,39.9792 26.5625,42.7813 C26.5625,45.3125 25.651,47.4896 23.8281,49.3125 C22.0052,51.1354 19.8229,52.0469 17.2813,52.0469 C16.2396,52.0469 15.2344,51.8542 14.2656,51.4688 C17.1302,55.6979 20.9375,57.8125 25.6875,57.8125 C30.1771,57.8125 33.8542,55.9896 36.7188,52.3438 C39.7188,48.5729 41.349,44.1771 41.6094,39.1563 C41.7344,36.0313 41.7969,34.2448 41.7969,33.7969 C41.7969,30.151 41.6667,27.1563 41.4063,24.8125 C38.1563,25.3333 35.2604,25.5938 32.7188,25.5938 C23.6667,25.5938 15.9531,22.0104 9.57813,14.8438 C3.32813,7.61458 0.203125,-0.979167 0.203125,-10.9375 C0.203125,-13.0208 0.395833,-15.1354 0.78125,-17.2813 C1.17708,-19.0417 1.66667,-20.9635 2.25,-23.0469 C2.57292,-24.224 3.45313,-26.1146 4.89063,-28.7188 C5.41146,-29.5 5.9974,-30.4766 6.64844,-31.6484 C7.29948,-32.8203 7.75521,-33.599 8.01563,-33.9844 C8.66146,-35.2865 9.92708,-37.0469 11.8125,-39.2656 C12.3333,-39.849 12.8724,-40.4974 13.4297,-41.2109 C13.987,-41.9245 14.4609,-42.5104 14.8516,-42.9688 C15.2422,-43.4271 15.5339,-43.7865 15.7266,-44.0469 C15.9193,-44.3073 17.3854,-46.0313 20.125,-49.2188 C20.7708,-49.875 21.4036,-50.5755 22.0234,-51.3203 C22.6432,-52.0651 23.1484,-52.651 23.5391,-53.0781 C23.9297,-53.5052 24.224,-53.8125 24.4219,-54 C22.0781,-61.75 20.6094,-67.9375 20.0156,-72.5625 C19.5677,-76.2708 19.3438,-81.349 19.3438,-87.7969 C19.3438,-93.4635 20.6458,-98.7708 23.25,-103.719 C25.7813,-108.854 29.3281,-113.052 33.8906,-116.313 C34.151,-116.51 34.474,-116.609 34.8594,-116.609 C35.3177,-116.609 35.6458,-116.51 35.8438,-116.313 C39.3542,-112.083 42.3802,-106.583 44.9219,-99.8125 C47.526,-93.0417 48.8281,-86.8854 48.8281,-81.3438 C48.8281,-75.0938 47.3333,-69.2344 44.3438,-63.7656 C40.9583,-57.974 36.5938,-51.9844 31.25,-45.7969 C32.6146,-41.5052 34.4375,-34.7708 36.7188,-25.5938 M45.0156,19.8281 C48.401,18.5885 51.0417,16.474 52.9375,13.4844 C55.0208,10.6198 56.0625,7.39583 56.0625,3.8125 C56.0625,-0.8125 54.5,-4.91667 51.375,-8.5 C48.1771,-12.2083 44.1042,-14.2917 39.1563,-14.75 C41.9583,-1.01042 43.9115,10.5156 45.0156,19.8281 M7.23438,-2.73438 C7.23438,3.71354 9.83854,9.38021 15.0469,14.2656 C20.3802,19.0156 26.3698,21.3906 33.0156,21.3906 C35.7448,21.3906 38.4115,21.1927 41.0156,20.7969 C39.974,10.901 37.9219,-0.947917 34.8594,-14.75 C31.151,-14.3542 28.1927,-13.0521 25.9844,-10.8438 C23.8281,-8.5625 22.75,-5.98958 22.75,-3.125 C22.75,1.82292 25.3906,5.82813 30.6719,8.89063 C31.1198,9.34896 31.3438,9.83854 31.3438,10.3594 C31.3438,10.8802 31.1198,11.3646 30.6719,11.8125 C30.276,12.2708 29.7865,12.5 29.2031,12.5 C29.1406,12.5 28.849,12.4375 28.3281,12.3125 C24.6094,10.2917 21.7448,7.6875 19.7344,4.5 C17.8385,1.10417 16.8906,-2.31771 16.8906,-5.76563 C16.8906,-10.2552 18.2917,-14.3229 21.0938,-17.9688 C24.0208,-21.6146 27.8281,-23.9583 32.5156,-25 C30.6927,-32.2917 29.1979,-37.9896 28.0313,-42.0938 C26.9896,-40.9167 25.737,-39.5 24.2734,-37.8438 C22.8099,-36.1875 21.9479,-35.1927 21.6875,-34.8594 C19.3438,-31.8073 17.5521,-29.4323 16.3125,-27.7344 C14.0938,-24.6719 12.4635,-22.0365 11.4219,-19.8281 C10.3177,-17.349 9.34375,-14.6458 8.5,-11.7188 C7.65625,-8.91667 7.23438,-5.92188 7.23438,-2.73438 M39.8438,-102.047 C34.9583,-99.6406 31.1198,-96.1927 28.3281,-91.7031 C25.4635,-87.0781 24.0313,-82.099 24.0313,-76.7656 C24.0313,-72.0781 25.2031,-65.7604 27.5469,-57.8125 C32.2344,-63.4792 35.75,-68.7188 38.0938,-73.5313 C40.5625,-78.6146 41.7969,-83.9219 41.7969,-89.4531 C41.7969,-93.6198 41.1458,-97.8177 39.8438,-102.047"/>
<path class="Clef" transform="matrix(0.907087,0,0,0.907087,227.112,983.622)" d="M36.7188,-25.5938 C36.7188,-25.5938 36.9167,-25.5938 37.3125,-25.5938 C37.5729,-25.6563 37.7969,-25.6875 37.9844,-25.6875 C45.276,-25.6875 51.2656,-23.1146 55.9531,-17.9688 C60.6406,-12.8958 62.9844,-6.97396 62.9844,-0.203125 C62.9844,8.20313 59.5052,15.0417 52.5469,20.3125 C50.724,21.75 48.3438,22.9219 45.4063,23.8281 C45.7396,28.0573 45.9063,31.474 45.9063,34.0781 C45.9063,34.599 45.8385,36.4896 45.7031,39.75 C45.4427,45.8021 43.3594,51.0417 39.4531,55.4688 C35.6823,59.8333 30.9948,62.0156 25.3906,62.0156 C20.1198,62.0156 15.6302,60.1615 11.9219,56.4531 C8.20313,52.6719 6.34375,48.1146 6.34375,42.7813 C6.34375,39.9792 7.42188,37.599 9.57813,35.6406 C11.7865,33.6927 14.3542,32.7188 17.2813,32.7188 C19.8854,32.7188 22.0677,33.7292 23.8281,35.75 C25.651,37.6354 26.5625,39.9792 26.5625,42.7813 C26.5625,45.3125 25.651,47.4896 23.8281,49.3125 C22.0052,51.1354 19.8229,52.0469 17.2813,52.0469 C16.2396,52.0469 15.2344,51.8542 14.2656,51.4688 C17.1302,55.6979 20.9375,57.8125 25.6875,57.8125 C30.1771,57.8125 33.8542,55.9896 36.7188,52.3438 C39.7188,48.5729 41.349,44.1771 41.6094,39.1563 C41.7344,36.0313 41.7969,34.2448 41.7969,33.7969 C41.7969,30.151 41.6667,27.1563 41.4063,24.8125 C38.1563,25.3333 35.2604,25.5938 32.7188,25.5938 C23.6667,25.5938 15.9531,22.0104 9.57813,14.8438 C3.32813,7.61458 0.203125,-0.979167 0.203125,-10.9375 C0.203125,-13.0208 0.395833,-15.1354 0.78125,-17.2813 C1.17708,-19.0417 1.66667,-20.9635 2.25,-23.0469 C2.57292,-24.224 3.45313,-26.1146 4.89063,-28.7188 C5.41146,-29.5 5.9974,-30.4766 6.64844,-31.6484 C7.29948,-32.8203 7.75521,-33.599 8.01563,-33.9844 C8.66146,-35.2865 9.92708,-37.0469 11.8125,-39.2656 C12.3333,-39.849 12.8724,-40.4974 13.4297,-41.2109 C13.987,-41.9245 14.4609,-42.5104 14.8516,-42.9688 C15.2422,-43.4271 15.5339,-43.7865 15.7266,-44.0469 C15.9193,-44.3073 17.3854,-46.0313 20.125,-49.2188 C20.7708,-49.875 21.4036,-50.5755 22.0234,-51.3203 C22.6432,-52.0651 23.1484,-52.651 23.5391,-53.0781 C23.9297,-53.5052 24.224,-53.8125 24.4219,-54 C22.0781,-61.75 20.6094,-67.9375 20.0156,-72.5625 C19.5677,-76.2708 19.3438,-81.349 19.3438,-87.7969 C19.3438,-93.4635 20.6458,-98.7708 23.25,-103.719 C25.7813,-108.854 29.3281,-113.052 33.8906,-116.313 C34.151,-116.51 34.474,-116.609 34.8594,-116.609 C35.3177,-116.609 35.6458,-116.51 35.8438,-116.313 C39.3542,-112.083 42.3802,-106.583 44.9219,-99.8125 C47.526,-93.0417 48.8281,-86.8854 48.8281,-81.3438 C48.8281,-75.0938 47.3333,-69.2344 44.3438,-63.7656 C40.9583,-57.974 36.5938,-51.9844 31.25,-45.7969 C32.6146,-41.5052 34.4375,-34.7708 36.7188,-25.5938 M45.0156,19.8281 C48.401,18.5885 51.0417,16.474 52.9375,13.4844 C55.0208,10.6198 56.0625,7.39583 56.0625,3.8125 C56.0625,-0.8125 54.5,-4.91667 51.375,-8.5 C48.1771,-12.2083 44.1042,-14.2917 39.1563,-14.75 C41.9583,-1.01042 43.9115,10.5156 45.0156,19.8281 M7.23438,-2.73438 C7.23438,3.71354 9.83854,9.38021 15.0469,14.2656 C20.3802,19.0156 26.3698,21.3906 33.0156,21.3906 C35.7448,21.3906 38.4115,21.1927 41.0156,20.7969 C39.974,10.901 37.9219,-0.947917 34.8594,-14.75 C31.151,-14.3542 28.1927,-13.0521 25.9844,-10.8438 C23.8281,-8.5625 22.75,-5.98958 22.75,-3.125 C22.75,1.82292 25.3906,5.82813 30.6719,8.89063 C31.1198,9.34896 31.3438,9.83854 31.3438,10.3594 C31.3438,10.8802 31.1198,11.3646 30.6719,11.8125 C30.276,12.2708 29.7865,12.5 29.2031,12.5 C29.1406,12.5 28.849,12.4375 28.3281,12.3125 C24.6094,10.2917 21.7448,7.6875 19.7344,4.5 C17.8385,1.10417 16.8906,-2.31771 16.8906,-5.76563 C16.8906,-10.2552 18.2917,-14.3229 21.0938,-17.9688 C24.0208,-21.6146 27.8281,-23.9583 32.5156,-25 C30.6927,-32.2917 29.1979,-37.9896 28.0313,-42.0938 C26.9896,-40.9167 25.737,-39.5 24.2734,-37.8438 C22.8099,-36.1875 21.9479,-35.1927 21.6875,-34.8594 C19.3438,-31.8073 17.5521,-29.4323 16.3125,-27.7344 C14.0938,-24.6719 12.4635,-22.0365 11.4219,-19.8281 C10.3177,-17.349 9.34375,-14.6458 8.5,-11.7188 C7.65625,-8.91667 7.23438,-5.92188 7.23438,-2.73438 M39.8438,-102.047 C34.9583,-99.6406 31.1198,-96.1927 28.3281,-91.7031 C25.4635,-87.0781 24.0313,-82.099 24.0313,-76.7656 C24.0313,-72.0781 25.2031,-65.7604 27.5469,-57.8125 C32.2344,-63.4792 35.75,-68.7188 38.0938,-73.5313 C40.5625,-78.6146 41.7969,-83.9219 41.7969,-89.4531 C41.7969,-93.6198 41.1458,-97.8177 39.8438,-102.047"/>
<path class="Clef" transform="matrix(0.907087,0,0,0.907087,227.112,666.142)" d="M36.7188,-25.5938 C36.7188,-25.5938 36.9167,-25.5938 37.3125,-25.5938 C37.5729,-25.6563 37.7969,-25.6875 37.9844,-25.6875 C45.276,-25.6875 51.2656,-23.1146 55.9531,-17.9688 C60.6406,-12.8958 62.9844,-6.97396 62.9844,-0.203125 C62.9844,8.20313 59.5052,15.0417 52.5469,20.3125 C50.724,21.75 48.3438,22.9219 45.4063,23.8281 C45.7396,28.0573 45.9063,31.474 45.9063,34.0781 C45.9063,34.599 45.8385,36.4896 45.7031,39.75 C45.4427,45.8021 43.3594,51.0417 39.4531,55.4688 C35.6823,59.8333 30.9948,62.0156 25.3906,62.0156 C20.1198,62.0156 15.6302,60.1615 11.9219,56.4531 C8.20313,52.6719 6.34375,48.1146 6.34375,42.7813 C6.34375,39.9792 7.42188,37.599 9.57813,35.6406 C11.7865,33.6927 14.3542,32.7188 17.2813,32.7188 C19.8854,32.7188 22.0677,33.7292 23.8281,35.75 C25.651,37.6354 26.5625,39.9792 26.5625,42.7813 C26.5625,45.3125 25.651,47.4896 23.8281,49.3125 C22.0052,51.1354 19.8229,52.0469 17.2813,52.0469 C16.2396,52.0469 15.2344,51.8542 14.2656,51.4688 C17.1302,55.6979 20.9375,57.8125 25.6875,57.8125 C30.1771,57.8125 33.8542,55.9896 36.7188,52.3438 C39.7188,48.5729 41.349,44.1771 41.6094,39.1563 C41.7344,36.0313 41.7969,34.2448 41.7969,33.7969 C41.7969,30.151 41.6667,27.1563 41.4063,24.8125 C38.1563,25.3333 35.2604,25.5938 32.7188,25.5938 C23.6667,25.5938 15.9531,22.0104 9.57813,14.8438 C3.32813,7.61458 0.203125,-0.979167 0.203125,-10.9375 C0.203125,-13.0208 0.395833,-15.1354 0.78125,-17.2813 C1.17708,-19.0417 1.66667,-20.9635 2.25,-23.0469 C2.57292,-24.224 3.45313,-26.1146 4.89063,-28.7188 C5.41146,-29.5 5.9974,-30.4766 6.64844,-31.6484 C7.29948,-32.8203 7.75521,-33.599 8.01563,-33.9844 C8.66146,-35.2865 9.92708,-37.0469 11.8125,-39.2656 C12.3333,-39.849 12.8724,-40.4974 13.4297,-41.2109 C13.987,-41.9245 14.4609,-42.5104 14.8516,-42.9688 C15.2422,-43.4271 15.5339,-43.7865 15.7266,-44.0469 C15.9193,-44.3073 17.3854,-46.0313 20.125,-49.2188 C20.7708,-49.875 21.4036,-50.5755 22.0234,-51.3203 C22.6432,-52.0651 23.1484,-52.651 23.5391,-53.0781 C23.9297,-53.5052 24.224,-53.8125 24.4219,-54 C22.0781,-61.75 20.6094,-67.9375 20.0156,-72.5625 C19.5677,-76.2708 19.3438,-81.349 19.3438,-87.7969 C19.3438,-93.4635 20.6458,-98.7708 23.25,-103.719 C25.7813,-108.854 29.3281,-113.052 33.8906,-116.313 C34.151,-116.51 34.474,-116.609 34.8594,-116.609 C35.3177,-116.609 35.6458,-116.51 35.8438,-116.313 C39.3542,-112.083 42.3802,-106.583 44.9219,-99.8125 C47.526,-93.0417 48.8281,-86.8854 48.8281,-81.3438 C48.8281,-75.0938 47.3333,-69.2344 44.3438,-63.7656 C40.9583,-57.974 36.5938,-51.9844 31.25,-45.7969 C32.6146,-41.5052 34.4375,-34.7708 36.7188,-25.5938 M45.0156,19.8281 C48.401,18.5885 51.0417,16.474 52.9375,13.4844 C55.0208,10.6198 56.0625,7.39583 56.0625,3.8125 C56.0625,-0.8125 54.5,-4.91667 51.375,-8.5 C48.1771,-12.2083 44.1042,-14.2917 39.1563,-14.75 C41.9583,-1.01042 43.9115,10.5156 45.0156,19.8281 M7.23438,-2.73438 C7.23438,3.71354 9.83854,9.38021 15.0469,14.2656 C20.3802,19.0156 26.3698,21.3906 33.0156,21.3906 C35.7448,21.3906 38.4115,21.1927 41.0156,20.7969 C39.974,10.901 37.9219,-0.947917 34.8594,-14.75 C31.151,-14.3542 28.1927,-13.0521 25.9844,-10.8438 C23.8281,-8.5625 22.75,-5.98958 22.75,-3.125 C22.75,1.82292 25.3906,5.82813 30.6719,8.89063 C31.1198,9.34896 31.3438,9.83854 31.3438,10.3594 C31.3438,10.8802 31.1198,11.3646 30.6719,11.8125 C30.276,12.2708 29.7865,12.5 29.2031,12.5 C29.1406,12.5 28.849,12.4375 28.3281,12.3125 C24.6094,10.2917 21.7448,7.6875 19.7344,4.5 C17.8385,1.10417 16.8906,-2.31771 16.8906,-5.76563 C16.8906,-10.2552 18.2917,-14.3229 21.0938,-17.9688 C24.0208,-21.6146 27.8281,-23.9583 32.5156,-25 C30.6927,-32.2917 29.1979,-37.9896 28.0313,-42.0938 C26.9896,-40.9167 25.737,-39.5 24.2734,-37.8438 C22.8099,-36.1875 21.9479,-35.1927 21.6875,-34.8594 C19.3438,-31.8073 17.5521,-29.4323 16.3125,-27.7344 C14.0938,-24.6719 12.4635,-22.0365 11.4219,-19.8281 C10.3177,-17.349 9.34375,-14.6458 8.5,-11.7188 C7.65625,-8.91667 7.23438,-5.92188 7.23438,-2.73438 M39.8438,-102.047 C34.9583,-99.6406 31.1198,-96.1927 28.3281,-91.7031 C25.4635,-87.0781 24.0313,-82.099 24.0313,-76.7656 C24.0313,-72.0781 25.2031,-65.7604 27.5469,-57.8125 C32.2344,-63.4792 35.75,-68.7188 38.0938,-73.5313 C40.5625,-78.6146 41.7969,-83.9219 41.7969,-89.4531 C41.7969,-93.6198 41.1458,-97.8177 39.8438,-102.047"/>
<path class="KeySig" transform="matrix(0.907087,0,0,0.907087,307.41,1913.39)" d="M4.59375,-4.10938 L4.59375,3.60938 C4.59375,6.34896 4.72396,8.53125 4.98438,10.1563 C7.13021,8.33333 8.66146,6.96875 9.57813,6.0625 C10.6198,5.02083 11.6615,3.58594 12.7031,1.75781 C13.7448,-0.0703125 14.2656,-1.89583 14.2656,-3.71875 C14.2656,-5.54167 13.875,-7.10417 13.0938,-8.40625 C12.3125,-9.70833 11.2708,-10.3594 9.96875,-10.3594 C8.40625,-10.3594 7.10417,-9.77083 6.0625,-8.59375 C5.08333,-7.29167 4.59375,-5.79688 4.59375,-4.10938 M0.484375,13.7656 L-0.78125,-45.7031 C0.135417,-46.224 1.04948,-46.4844 1.96094,-46.4844 C2.8724,-46.4844 3.78125,-46.224 4.6875,-45.7031 L3.90625,-11.2344 C6.57292,-13.5156 9.63542,-14.6563 13.0938,-14.6563 C15.625,-14.6563 17.737,-13.6146 19.4297,-11.5313 C21.1224,-9.44792 21.9688,-7.06771 21.9688,-4.39063 C21.9688,-2.70313 21.4167,-0.911458 20.3125,0.984375 C19.2708,2.73438 18.1667,4.09896 17,5.07813 C16.3438,5.59896 14.6823,6.90104 12.0156,8.98438 C11.2344,9.56771 10.3073,10.25 9.23438,11.0313 C8.16146,11.8125 7.49479,12.3021 7.23438,12.5 C6.77604,12.7604 6.34896,13.2813 5.95313,14.0625 C5.50521,14.7188 4.98438,15.2708 4.39063,15.7188 C3.94271,16.1146 3.39323,16.3125 2.74219,16.3125 C2.09115,16.3125 1.56771,16.0833 1.17188,15.625 C0.713542,15.1667 0.484375,14.5469 0.484375,13.7656"/>
<path class="KeySig" transform="matrix(0.907087,0,0,0.907087,307.41,1595.91)" d="M4.59375,-4.10938 L4.59375,3.60938 C4.59375,6.34896 4.72396,8.53125 4.98438,10.1563 C7.13021,8.33333 8.66146,6.96875 9.57813,6.0625 C10.6198,5.02083 11.6615,3.58594 12.7031,1.75781 C13.7448,-0.0703125 14.2656,-1.89583 14.2656,-3.71875 C14.2656,-5.54167 13.875,-7.10417 13.0938,-8.40625 C12.3125,-9.70833 11.2708,-10.3594 9.96875,-10.3594 C8.40625,-10.3594 7.10417,-9.77083 6.0625,-8.59375 C5.08333,-7.29167 4.59375,-5.79688 4.59375,-4.10938 M0.484375,13.7656 L-0.78125,-45.7031 C0.135417,-46.224 1.04948,-46.4844 1.96094,-46.4844 C2.8724,-46.4844 3.78125,-46.224 4.6875,-45.7031 L3.90625,-11.2344 C6.57292,-13.5156 9.63542,-14.6563 13.0938,-14.6563 C15.625,-14.6563 17.737,-13.6146 19.4297,-11.5313 C21.1224,-9.44792 21.9688,-7.06771 21.9688,-4.39063 C21.9688,-2.70313 21.4167,-0.911458 20.3125,0.984375 C19.2708,2.73438 18.1667,4.09896 17,5.07813 C16.3438,5.59896 14.6823,6.90104 12.0156,8.98438 C11.2344,9.56771 10.3073,10.25 9.23438,11.0313 C8.16146,11.8125 7.49479,12.3021 7.23438,12.5 C6.77604,12.7604 6.34896,13.2813 5.95313,14.0625 C5.50521,14.7188 4.98438,15.2708 4.39063,15.7188 C3.94271,16.1146 3.39323,16.3125 2.74219,16.3125 C2.09115,16.3125 1.56771,16.0833 1.17188,15.625 C0.713542,15.1667 0.484375,14.5469 0.484375,13.7656"/>
<path class="KeySig" transform="matrix(0.907087,0,0,0.907087,307.41,1278.43)" d="M4.59375,-4.10938 L4.59375,3.60938 C4.59375,6.34896 4.72396,8.53125 4.98438,10.1563 C7.13021,8.33333 8.66146,6.96875 9.57813,6.0625 C10.6198,5.02083 11.6615,3.58594 12.7031,1.75781 C13.7448,-0.0703125 14.2656,-1.89583 14.2656,-3.71875 C14.2656,-5.54167 13.875,-7.10417 13.0938,-8.40625 C12.3125,-9.70833 11.2708,-10.3594 9.96875,-10.3594 C8.40625,-10.3594 7.10417,-9.77083 6.0625,-8.59375 C5.08333,-7.29167 4.59375,-5.79688 4.59375,-4.10938 M0.484375,13.7656 L-0.78125,-45.7031 C0.135417,-46.224 1.04948,-46.4844 1.96094,-46.4844 C2.8724,-46.4844 3.78125,-46.224 4.6875,-45.7031 L3.90625,-11.2344 C6.57292,-13.5156 9.63542,-14.6563 13.0938,-14.6563 C15.625,-14.6563 17.737,-13.6146 19.4297,-11.5313 C21.1224,-9.44792 21.9688,-7.06771 21.9688,-4.39063 C21.9688,-2.70313 21.4167,-0.911458 20.3125,0.984375 C19.2708,2.73438 18.1667,4.09896 17,5.07813 C16.3438,5.59896 14.6823,6.90104 12.0156,8.98438 C11.2344,9.56771 10.3073,10.25 9.23438,11.0313 C8.16146,11.8125 7.49479,12.3021 7.23438,12.5 C6.77604,12.7604 6.34896,13.2813 5.95313,14.0625 C5.50521,14.7188 4.98438,15.2708 4.39063,15.7188 C3.94271,16.1146 3.39323,16.3125 2.74219,16.3125 C2.09115,16.3125 1.56771,16.0833 1.17188,15.625 C0.713542,15.1667 0.484375,14.5469 0.484375,13.7656"/>
<path class="KeySig" transform="matrix(0.907087,0,0,0.907087,307.41,960.945)" d="M4.59375,-4.10938 L4.59375,3.60938 C4.59375,6.34896 4.72396,8.53125 4.98438,10.1563 C7.13021,8.33333 8.66146,6.96875 9.57813,6.0625 C10.6198,5.02083 11.6615,3.58594 12.7031,1.75781 C13.7448,-0.0703125 14.2656,-1.89583 14.2656,-3.71875 C14.2656,-5.54167 13.875,-7.10417 13.0938,-8.40625 C12.3125,-9.70833 11.2708,-10.3594 9.96875,-10.3594 C8.40625,-10.3594 7.10417,-9.77083 6.0625,-8.59375 C5.08333,-7.29167 4.59375,-5.79688 4.59375,-4.10938 M0.484375,13.7656 L-0.78125,-45.7031 C0.135417,-46.224 1.04948,-46.4844 1.96094,-46.4844 C2.8724,-46.4844 3.78125,-46.224 4.6875,-45.7031 L3.90625,-11.2344 C6.57292,-13.5156 9.63542,-14.6563 13.0938,-14.6563 C15.625,-14.6563 17.737,-13.6146 19.4297,-11.5313 C21.1224,-9.44792 21.9688,-7.06771 21.9688,-4.39063 C21.9688,-2.70313 21.4167,-0.911458 20.3125,0.984375 C19.2708,2.73438 18.1667,4.09896 17,5.07813 C16.3438,5.59896 14.6823,6.90104 12.0156,8.98438 C11.2344,9.56771 10.3073,10.25 9.23438,11.0313 C8.16146,11.8125 7.49479,12.3021 7.23438,12.5 C6.77604,12.7604 6.34896,13.2813 5.95313,14.0625 C5.50521,14.7188 4.98438,15.2708 4.39063,15.7188 C3.94271,16.1146 3.39323,16.3125 2.74219,16.3125 C2.09115,16.3125 1.56771,16.0833 1.17188,15.625 C0.713542,15.1667 0.484375,14.5469 0.484375,13.7656"/>
<path class="KeySig" transform="matrix(0.907087,0,0,0.907087,307.41,643.465)" d="M4.59375,-4.10938 L4.59375,3.60938 C4.59375,6.34896 4.72396,8.53125 4.98438,10.1563 C7.13021,8.33333 8.66146,6.96875 9.57813,6.0625 C10.6198,5.02083 11.6615,3.58594 12.7031,1.75781 C13.7448,-0.0703125 14.2656,-1.89583 14.2656,-3.71875 C14.2656,-5.54167 13.875,-7.10417 13.0938,-8.40625 C12.3125,-9.70833 11.2708,-10.3594 9.96875,-10.3594 C8.40625,-10.3594 7.10417,-9.77083 6.0625,-8.59375 C5.08333,-7.29167 4.59375,-5.79688 4.59375,-4.10938 M0.484375,13.7656 L-0.78125,-45.7031 C0.135417,-46.224 1.04948,-46.4844 1.96094,-46.4844 C2.8724,-46.4844 3.78125,-46.224 4.6875,-45.7031 L3.90625,-11.2344 C6.57292,-13.5156 9.63542,-14.6563 13.0938,-14.6563 C15.625,-14.6563 17.737,-13.6146 19.4297,-11.5313 C21.1224,-9.44792 21.9688,-7.06771 21.9688,-4.39063 C21.9688,-2.70313 21.4167,-0.911458 20.3125,0.984375 C19.2708,2.73438 18.1667,4.09896 17,5.07813 C16.3438,5.59896 14.6823,6.90104 12.0156,8.98438 C11.2344,9.56771 10.3073,10.25 9.23438,11.0313 C8.16146,11.8125 7.49479,12.3021 7.23438,12.5 C6.77604,12.7604 6.34896,13.2813 5.95313,14.0625 C5.50521,14.7188 4.98438,15.2708 4.39063,15.7188 C3.94271,16.1146 3.39323,16.3125 2.74219,16.3125 C2.09115,16.3125 1.56771,16.0833 1.17188,15.625 C0.713542,15.1667 0.484375,14.5469 0.484375,13.7656"/>
<path class="Rest" transform="matrix(0.907087,0,0,0.907087,2482.81,1913.39)" d="M-0.59375,-7.8125 C-0.59375,-8.98958 0.0625,-10.2917 1.375,-11.7188 C2.34375,-12.7604 3.77604,-14 5.67188,-15.4375 C7.09896,-16.4063 8.49479,-17.8698 9.85938,-19.8281 C11.1615,-21.7135 11.8125,-23.7656 11.8125,-25.9844 C11.8125,-28.5885 10.9688,-30.8958 9.28125,-32.9063 L5.76563,-37.1094 C5.50521,-37.3698 5.375,-37.6953 5.375,-38.0859 C5.375,-38.4766 5.56771,-38.8333 5.95313,-39.1563 C6.41146,-39.4896 6.80208,-39.6563 7.125,-39.6563 C7.58333,-39.6563 7.94271,-39.4583 8.20313,-39.0625 L23.3438,-21.0938 C23.9896,-20.25 24.3125,-19.4063 24.3125,-18.5625 C24.3125,-17.3854 23.6615,-16.0833 22.3594,-14.6563 C21.5156,-13.7396 20.1198,-12.5 18.1719,-10.9375 C16.6719,-10.0313 15.2396,-8.56771 13.875,-6.54688 C12.5729,-4.66146 11.9219,-2.60938 11.9219,-0.390625 C11.9219,2.34896 12.7031,4.66146 14.2656,6.54688 L22.6563,16.4063 C22.8542,16.6042 23.0156,16.9323 23.1406,17.3906 C23.1406,17.8385 22.9792,18.2292 22.6563,18.5625 C22.1979,18.8854 21.8073,19.0469 21.4844,19.0469 C21.3594,19.0469 20.8385,18.6875 19.9219,17.9688 C18.9427,17.1875 17.6406,16.4375 16.0156,15.7188 C14.1927,15.0104 12.401,14.6563 10.6406,14.6563 C9.01563,14.6563 7.68229,15.1094 6.64063,16.0156 C5.73438,16.9323 5.28125,18.6927 5.28125,21.2969 C5.28125,25.2656 6.22396,28.3906 8.10938,30.6719 C8.30729,30.9323 8.33854,31.2552 8.20313,31.6406 C8.07813,31.901 7.84896,32.0313 7.51563,32.0313 C7.06771,32.0313 6.0625,30.8594 4.5,28.5156 C2.86458,26.0469 1.33333,23.2135 -0.09375,20.0156 C-1.59375,16.6302 -2.34375,13.8333 -2.34375,11.625 C-2.34375,8.82292 -1.01042,7.42188 1.65625,7.42188 C4.71875,7.42188 8.69271,8.46354 13.5781,10.5469 L0.390625,-5.28125 C-0.265625,-6.125 -0.59375,-6.96875 -0.59375,-7.8125"/>
<path class="Beam" fill-rule="evenodd" d="M1638.82,1856.49 L2079.03,1885.03 L2079.03,1896.39 L1638.82,1867.85 L1638.82,1856.49 "/>
<path class="Beam" fill-rule="evenodd" d="M1024.97,1845.28 L1465.18,1856.69 L1465.18,1868.03 L1024.97,1856.62 L1024.97,1845.28 "/>
<path class="Beam" fill-rule="evenodd" d="M384.215,1953.06 L824.42,1975.89 L824.42,1987.25 L384.215,1964.42 L384.215,1953.06 "/>
<path class="Beam" fill-rule="evenodd" d="M1946.73,1550.66 L2097.07,1544.88 L2097.07,1556.22 L1946.73,1562.01 L1946.73,1550.66 "/>
<path class="Beam" fill-rule="evenodd" d="M1651.94,1567.56 L1802.28,1567.56 L1802.28,1578.9 L1651.94,1578.9 L1651.94,1567.56 "/>
<path class="Beam" fill-rule="evenodd" d="M1031.53,1527.8 L1476.66,1539.21 L1476.66,1550.55 L1031.53,1539.14 L1031.53,1527.8 "/>
<path class="Beam" fill-rule="evenodd" d="M384.215,1635.58 L829.339,1658.41 L829.339,1669.77 L384.215,1646.94 L384.215,1635.58 "/>
<path class="Beam" fill-rule="evenodd" d="M1651.94,1227.44 L2097.07,1221.73 L2097.07,1233.07 L1651.94,1238.78 L1651.94,1227.44 "/>
<path class="Beam" fill-rule="evenodd" d="M1031.53,1210.32 L1476.66,1221.73 L1476.66,1233.07 L1031.53,1221.66 L1031.53,1210.32 "/>
<path class="Beam" fill-rule="evenodd" d="M411.123,1210.32 L856.247,1221.73 L856.247,1233.07 L411.123,1221.66 L411.123,1210.32 "/>
<path class="Beam" fill-rule="evenodd" d="M1651.94,915.628 L2097.07,909.921 L2097.07,921.26 L1651.94,926.967 L1651.94,915.628 "/>
<path class="Beam" fill-rule="evenodd" d="M1031.53,904.093 L1476.66,926.922 L1476.66,938.275 L1031.53,915.447 L1031.53,904.093 "/>
<path class="Beam" fill-rule="evenodd" d="M411.123,904.093 L856.247,926.922 L856.247,938.275 L411.123,915.447 L411.123,904.093 "/>
<path class="Beam" fill-rule="evenodd" d="M1651.94,575.356 L2097.07,586.77 L2097.07,598.112 L1651.94,586.698 L1651.94,575.356 "/>
<path class="Beam" fill-rule="evenodd" d="M1031.53,575.356 L1476.66,586.77 L1476.66,598.112 L1031.53,586.698 L1031.53,575.356 "/>
<path class="Beam" fill-rule="evenodd" d="M411.123,575.356 L856.247,586.77 L856.247,598.112 L411.123,586.698 L411.123,575.356 "/>
<path class="Page" d="M212.828,3977.77 C212.964,3977.16 213.099,3976.63 213.234,3976.18 C213.37,3975.73 213.656,3975.08 214.094,3974.21 C214.531,3973.35 215.023,3972.63 215.57,3972.06 C216.117,3971.49 216.878,3970.98 217.852,3970.53 C218.826,3970.08 219.927,3969.85 221.156,3969.85 C223.229,3969.85 224.979,3970.53 226.406,3971.88 C227.833,3973.24 228.547,3974.91 228.547,3976.9 C228.547,3979.91 226.844,3983.2 223.438,3986.77 L216.719,3993.8 L226.266,3993.8 C227.172,3993.8 227.846,3993.65 228.289,3993.35 C228.732,3993.05 229.328,3992.33 230.078,3991.18 L230.594,3991.37 L228.391,3996.85 L212.797,3996.85 L212.797,3996.37 L219.906,3988.82 C223.375,3985.13 225.109,3981.66 225.109,3978.41 C225.109,3976.74 224.589,3975.38 223.547,3974.34 C222.505,3973.29 221.146,3972.77 219.469,3972.77 C218.083,3972.77 216.971,3973.15 216.133,3973.91 C215.294,3974.67 214.474,3976.03 213.672,3977.98 L212.828,3977.77 "/>
</svg>
