<?xml version="1.0" encoding="UTF-8" standalone="no"?>
<svg width="2977.23px" height="4208.45px" viewBox="0 0 2977.23 4208.45"
 xmlns="http://www.w3.org/2000/svg" xmlns:xlink="http://www.w3.org/1999/xlink" version="1.2" baseProfile="tiny">
<title>Hei_bordei_he-he-hei</title>
<desc>Generated by MuseScore 3.0.2</desc>
<polyline class="StaffLines" fill="none" stroke="#000000" stroke-width="2.00" stroke-linejoin="bevel" points="70.8662,495.893 2906.36,495.893"/>
<polyline class="StaffLines" fill="none" stroke="#000000" stroke-width="2.00" stroke-linejoin="bevel" points="70.8662,520.895 2906.36,520.895"/>
<polyline class="StaffLines" fill="none" stroke="#000000" stroke-width="2.00" stroke-linejoin="bevel" points="70.8662,545.896 2906.36,545.896"/>
<polyline class="StaffLines" fill="none" stroke="#000000" stroke-width="2.00" stroke-linejoin="bevel" points="70.8662,570.898 2906.36,570.898"/>
<polyline class="StaffLines" fill="none" stroke="#000000" stroke-width="2.00" stroke-linejoin="bevel" points="70.8662,595.899 2906.36,595.899"/>
<polyline class="StaffLines" fill="none" stroke="#000000" stroke-width="2.00" stroke-linejoin="bevel" points="70.8662,970.923 2906.36,970.923"/>
<polyline class="StaffLines" fill="none" stroke="#000000" stroke-width="2.00" stroke-linejoin="bevel" points="70.8662,995.925 2906.36,995.925"/>
<polyline class="StaffLines" fill="none" stroke="#000000" stroke-width="2.00" stroke-linejoin="bevel" points="70.8662,1020.93 2906.36,1020.93"/>
<polyline class="StaffLines" fill="none" stroke="#000000" stroke-width="2.00" stroke-linejoin="bevel" points="70.8662,1045.93 2906.36,1045.93"/>
<polyline class="StaffLines" fill="none" stroke="#000000" stroke-width="2.00" stroke-linejoin="bevel" points="70.8662,1070.93 2906.36,1070.93"/>
<polyline class="StaffLines" fill="none" stroke="#000000" stroke-width="2.00" stroke-linejoin="bevel" points="70.8662,1445.95 2906.36,1445.95"/>
<polyline class="StaffLines" fill="none" stroke="#000000" stroke-width="2.00" stroke-linejoin="bevel" points="70.8662,1470.95 2906.36,1470.95"/>
<polyline class="StaffLines" fill="none" stroke="#000000" stroke-width="2.00" stroke-linejoin="bevel" points="70.8662,1495.96 2906.36,1495.96"/>
<polyline class="StaffLines" fill="none" stroke="#000000" stroke-width="2.00" stroke-linejoin="bevel" points="70.8662,1520.96 2906.36,1520.96"/>
<polyline class="StaffLines" fill="none" stroke="#000000" stroke-width="2.00" stroke-linejoin="bevel" points="70.8662,1545.96 2906.36,1545.96"/>
<polyline class="StaffLines" fill="none" stroke="#000000" stroke-width="2.00" stroke-linejoin="bevel" points="70.8662,1920.98 2906.36,1920.98"/>
<polyline class="StaffLines" fill="none" stroke="#000000" stroke-width="2.00" stroke-linejoin="bevel" points="70.8662,1945.98 2906.36,1945.98"/>
<polyline class="StaffLines" fill="none" stroke="#000000" stroke-width="2.00" stroke-linejoin="bevel" points="70.8662,1970.99 2906.36,1970.99"/>
<polyline class="StaffLines" fill="none" stroke="#000000" stroke-width="2.00" stroke-linejoin="bevel" points="70.8662,1995.99 2906.36,1995.99"/>
<polyline class="StaffLines" fill="none" stroke="#000000" stroke-width="2.00" stroke-linejoin="bevel" points="70.8662,2020.99 2906.36,2020.99"/>
<path class="Text" d="M988.194,185.296 L1024.55,185.296 L1024.55,162.015 C1024.55,157.692 1023.95,154.911 1022.76,153.671 C1021.56,152.431 1018.64,151.614 1013.99,151.218 L1013.99,148.937 L1047.35,148.937 L1047.35,151.218 C1042.72,151.614 1039.8,152.431 1038.6,153.671 C1037.4,154.911 1036.8,157.692 1036.8,162.015 L1036.8,215.296 C1036.8,219.536 1037.44,222.296 1038.72,223.577 C1039.99,224.858 1042.87,225.697 1047.35,226.093 L1047.35,228.374 L1013.99,228.374 L1013.99,226.093 C1018.64,225.77 1021.56,224.929 1022.76,223.569 C1023.95,222.21 1024.55,219.01 1024.55,213.968 L1024.55,190.577 L988.194,190.577 L988.194,215.296 C988.194,219.536 988.835,222.296 990.116,223.577 C991.398,224.858 994.278,225.697 998.757,226.093 L998.757,228.374 L965.398,228.374 L965.398,226.093 C970.043,225.77 972.965,224.929 974.163,223.569 C975.361,222.21 975.96,219.01 975.96,213.968 L975.96,162.015 C975.96,157.692 975.361,154.911 974.163,153.671 C972.965,152.431 970.043,151.614 965.398,151.218 L965.398,148.937 L998.757,148.937 L998.757,151.218 C994.121,151.614 991.202,152.431 989.999,153.671 C988.796,154.911 988.194,157.692 988.194,162.015 L988.194,185.296 M1061.24,195.14 C1061.4,200.181 1062.08,204.52 1063.28,208.155 C1064.48,211.791 1066.04,214.51 1067.96,216.312 C1069.88,218.114 1071.82,219.395 1073.78,220.155 C1075.74,220.916 1077.8,221.296 1079.96,221.296 C1083.8,221.296 1087.14,220.335 1089.98,218.413 C1092.82,216.491 1095.68,213.254 1098.55,208.702 L1100.48,209.53 C1098,216.01 1094.56,220.97 1090.16,224.413 C1085.75,227.856 1080.72,229.577 1075.04,229.577 C1068.16,229.577 1062.7,227.158 1058.66,222.319 C1054.62,217.481 1052.6,210.942 1052.6,202.702 C1052.6,193.817 1054.94,186.674 1059.62,181.273 C1064.31,175.872 1070.32,173.171 1077.68,173.171 C1083.76,173.171 1088.48,174.991 1091.84,178.632 C1095.2,182.273 1097.32,187.775 1098.19,195.14 L1061.24,195.14 M1061.48,191.53 L1085.96,191.53 C1085.16,186.332 1083.92,182.733 1082.24,180.733 C1080.56,178.733 1077.88,177.733 1074.19,177.733 C1067,177.733 1062.76,182.332 1061.48,191.53 M1110.04,181.218 C1108.28,181.218 1106.6,181.338 1105.01,181.577 L1105.01,179.78 C1110.6,178.176 1116.8,175.973 1123.6,173.171 L1124.09,173.53 L1124.09,216.14 C1124.09,220.452 1124.59,223.189 1125.59,224.351 C1126.59,225.512 1129.04,226.254 1132.96,226.577 L1132.96,228.374 L1104.52,228.374 L1104.52,226.577 C1108.68,226.338 1111.3,225.616 1112.38,224.413 C1113.47,223.21 1114.01,220.452 1114.01,216.14 L1114.01,188.296 C1114.01,185.661 1113.7,183.822 1113.1,182.78 C1112.5,181.739 1111.48,181.218 1110.04,181.218 M1117.96,146.421 C1119.72,146.421 1121.2,147.02 1122.4,148.218 C1123.6,149.416 1124.19,150.853 1124.19,152.53 C1124.19,154.291 1123.6,155.752 1122.4,156.913 C1121.2,158.075 1119.72,158.655 1117.96,158.655 C1116.28,158.655 1114.86,158.056 1113.7,156.858 C1112.54,155.661 1111.96,154.22 1111.96,152.538 C1111.96,150.856 1112.56,149.416 1113.76,148.218 C1114.95,147.02 1116.36,146.421 1117.96,146.421 M1184.8,146.655 L1184.8,183.39 C1186,180.431 1188.16,177.989 1191.28,176.062 C1194.4,174.135 1197.8,173.171 1201.48,173.171 C1207.48,173.171 1212.5,175.681 1216.54,180.702 C1220.58,185.723 1222.6,191.926 1222.6,199.312 C1222.6,207.843 1219.9,215.02 1214.5,220.843 C1209.1,226.666 1202.44,229.577 1194.52,229.577 C1189.72,229.577 1185.22,228.78 1181.02,227.187 C1176.82,225.593 1174.73,223.9 1174.73,222.108 L1174.73,159.624 C1174.73,157.135 1174.35,155.491 1173.59,154.694 C1172.82,153.898 1171.24,153.499 1168.84,153.499 C1167.96,153.499 1167.28,153.541 1166.8,153.624 L1166.8,151.702 C1172.96,150.181 1178.76,148.421 1184.19,146.421 L1184.8,146.655 M1184.8,189.78 L1184.8,220.187 C1184.8,221.707 1185.96,223.051 1188.28,224.218 C1190.6,225.385 1193.32,225.968 1196.44,225.968 C1201.4,225.968 1205.24,224.119 1207.96,220.421 C1210.68,216.723 1212.04,211.536 1212.04,204.858 C1212.04,197.546 1210.66,191.697 1207.9,187.312 C1205.14,182.926 1201.4,180.733 1196.68,180.733 C1193.56,180.733 1190.81,181.658 1188.41,183.507 C1186,185.356 1184.8,187.447 1184.8,189.78 M1255.12,173.171 C1262.79,173.171 1269.11,175.733 1274.08,180.858 C1279.04,185.983 1281.52,192.468 1281.52,200.312 C1281.52,208.624 1278.96,215.58 1273.84,221.179 C1268.72,226.778 1262.4,229.577 1254.88,229.577 C1247.36,229.577 1241.1,226.877 1236.1,221.476 C1231.1,216.075 1228.6,209.338 1228.6,201.265 C1228.6,193.025 1231.06,186.283 1235.98,181.038 C1240.91,175.793 1247.28,173.171 1255.12,173.171 M1239.4,195.437 C1239.4,203.916 1240.96,211.124 1244.08,217.062 C1247.2,222.999 1251.28,225.968 1256.32,225.968 C1260.8,225.968 1264.32,224.067 1266.88,220.265 C1269.44,216.463 1270.73,211.197 1270.73,204.468 C1270.73,196.301 1269.12,189.645 1265.92,184.499 C1262.72,179.353 1258.6,176.78 1253.55,176.78 C1249.31,176.78 1245.89,178.483 1243.3,181.89 C1240.7,185.296 1239.4,189.812 1239.4,195.437 M1320.73,184.937 C1319.52,184.937 1318.03,184.236 1316.27,182.835 C1314.51,181.434 1313.36,180.733 1312.8,180.733 C1311.2,180.733 1309.4,181.895 1307.4,184.218 C1305.4,186.541 1304.4,188.661 1304.4,190.577 L1304.4,217.577 C1304.4,221.015 1305.08,223.332 1306.44,224.53 C1307.8,225.728 1310.52,226.411 1314.6,226.577 L1314.6,228.374 L1285.8,228.374 L1285.8,226.577 C1289.64,225.858 1292.01,225.059 1292.94,224.179 C1293.86,223.299 1294.32,221.338 1294.32,218.296 L1294.32,188.296 C1294.32,185.661 1294.02,183.801 1293.42,182.718 C1292.82,181.635 1291.76,181.093 1290.24,181.093 C1288.96,181.093 1287.56,181.254 1286.04,181.577 L1286.04,179.655 C1292.44,177.572 1298.37,175.411 1303.8,173.171 L1304.4,173.421 L1304.4,184.452 C1307.36,180.213 1309.88,177.273 1311.96,175.632 C1314.04,173.991 1316.32,173.171 1318.8,173.171 C1320.88,173.171 1322.49,173.731 1323.66,174.851 C1324.82,175.97 1325.4,177.53 1325.4,179.53 C1325.4,181.218 1324.98,182.541 1324.14,183.499 C1323.3,184.457 1322.16,184.937 1320.73,184.937 M1366.63,229.577 L1366.16,229.202 L1366.16,221.312 C1362.32,226.822 1357.2,229.577 1350.8,229.577 C1344.16,229.577 1338.8,227.192 1334.72,222.421 C1330.64,217.65 1328.6,211.421 1328.6,203.733 C1328.6,195.265 1331.04,188.054 1335.92,182.101 C1340.8,176.148 1346.68,173.171 1353.55,173.171 C1357.88,173.171 1362.08,174.968 1366.16,178.562 L1366.16,159.671 C1366.16,157.171 1365.8,155.517 1365.09,154.71 C1364.37,153.903 1362.88,153.499 1360.63,153.499 C1359.52,153.499 1358.64,153.541 1358.01,153.624 L1358.01,151.702 C1365.28,149.775 1371.15,148.015 1375.63,146.421 L1376.24,146.655 L1376.24,214.499 C1376.24,217.291 1376.58,219.124 1377.26,219.999 C1377.93,220.874 1379.36,221.312 1381.52,221.312 C1381.92,221.312 1382.84,221.275 1384.27,221.202 L1384.27,223.093 L1366.63,229.577 M1355.48,223.093 C1358.52,223.093 1361.06,222.241 1363.1,220.538 C1365.14,218.835 1366.16,217.312 1366.16,215.968 L1366.16,188.655 C1366.16,185.489 1364.92,182.718 1362.44,180.343 C1359.97,177.968 1357.12,176.78 1353.91,176.78 C1349.36,176.78 1345.72,178.799 1343,182.835 C1340.28,186.872 1338.91,192.254 1338.91,198.983 C1338.91,206.265 1340.43,212.103 1343.48,216.499 C1346.52,220.895 1350.52,223.093 1355.48,223.093 M1397.24,195.14 C1397.4,200.181 1398.08,204.52 1399.28,208.155 C1400.48,211.791 1402.04,214.51 1403.96,216.312 C1405.88,218.114 1407.82,219.395 1409.78,220.155 C1411.74,220.916 1413.8,221.296 1415.96,221.296 C1419.8,221.296 1423.14,220.335 1425.98,218.413 C1428.82,216.491 1431.68,213.254 1434.55,208.702 L1436.48,209.53 C1434,216.01 1430.56,220.97 1426.16,224.413 C1421.75,227.856 1416.72,229.577 1411.04,229.577 C1404.16,229.577 1398.7,227.158 1394.66,222.319 C1390.62,217.481 1388.6,210.942 1388.6,202.702 C1388.6,193.817 1390.94,186.674 1395.62,181.273 C1400.31,175.872 1406.32,173.171 1413.68,173.171 C1419.76,173.171 1424.48,174.991 1427.84,178.632 C1431.2,182.273 1433.32,187.775 1434.19,195.14 L1397.24,195.14 M1397.48,191.53 L1421.96,191.53 C1421.16,186.332 1419.92,182.733 1418.24,180.733 C1416.56,178.733 1413.88,177.733 1410.19,177.733 C1403,177.733 1398.76,182.332 1397.48,191.53 M1446.04,181.218 C1444.28,181.218 1442.6,181.338 1441.01,181.577 L1441.01,179.78 C1446.6,178.176 1452.8,175.973 1459.6,173.171 L1460.09,173.53 L1460.09,216.14 C1460.09,220.452 1460.59,223.189 1461.59,224.351 C1462.59,225.512 1465.04,226.254 1468.96,226.577 L1468.96,228.374 L1440.52,228.374 L1440.52,226.577 C1444.68,226.338 1447.3,225.616 1448.38,224.413 C1449.47,223.21 1450.01,220.452 1450.01,216.14 L1450.01,188.296 C1450.01,185.661 1449.7,183.822 1449.1,182.78 C1448.5,181.739 1447.48,181.218 1446.04,181.218 M1453.96,146.421 C1455.72,146.421 1457.2,147.02 1458.4,148.218 C1459.6,149.416 1460.19,150.853 1460.19,152.53 C1460.19,154.291 1459.6,155.752 1458.4,156.913 C1457.2,158.075 1455.72,158.655 1453.96,158.655 C1452.28,158.655 1450.86,158.056 1449.7,156.858 C1448.54,155.661 1447.96,154.22 1447.96,152.538 C1447.96,150.856 1448.56,149.416 1449.76,148.218 C1450.95,147.02 1452.36,146.421 1453.96,146.421 M1488.65,228.608 C1488.65,228.608 1488.32,228.692 1487.68,228.858 C1486.96,229.015 1486.2,229.093 1485.4,229.093 C1483.24,229.093 1481.52,228.554 1480.24,227.476 C1478.96,226.398 1478.32,224.895 1478.32,222.968 C1478.32,220.968 1478.98,219.33 1480.3,218.054 C1481.61,216.778 1483.31,216.14 1485.4,216.14 C1488.12,216.14 1490.4,217.158 1492.24,219.194 C1494.09,221.231 1495.01,223.77 1495.01,226.812 C1495.01,230.416 1493.76,233.898 1491.28,237.257 C1488.8,240.616 1485.55,243.296 1481.55,245.296 L1480.48,243.015 C1487.04,238.536 1490.32,234.296 1490.32,230.296 C1490.32,229.171 1489.76,228.608 1488.65,228.608 M1550.55,187.218 L1550.55,216.14 C1550.55,220.296 1551.04,222.973 1552,224.171 C1552.96,225.369 1555.2,226.171 1558.73,226.577 L1558.73,228.374 L1532.8,228.374 L1532.8,226.577 C1536.24,226.098 1538.38,225.299 1539.22,224.179 C1540.06,223.059 1540.48,220.379 1540.48,216.14 L1540.48,159.624 C1540.48,157.062 1540.14,155.379 1539.46,154.577 C1538.78,153.775 1537.28,153.374 1534.96,153.374 C1534.4,153.374 1533.72,153.457 1532.91,153.624 L1532.91,151.702 C1538.6,150.181 1544.28,148.421 1549.96,146.421 L1550.55,146.78 L1550.55,183.249 C1553.28,179.655 1556.03,177.077 1558.78,175.515 C1561.54,173.952 1564.67,173.171 1568.19,173.171 C1578.04,173.171 1582.96,179.53 1582.96,192.249 L1582.96,216.14 C1582.96,220.296 1583.34,222.913 1584.1,223.991 C1584.86,225.069 1586.88,225.931 1590.16,226.577 L1590.16,228.374 L1564.73,228.374 L1564.73,226.577 C1568.16,226.254 1570.38,225.452 1571.38,224.171 C1572.38,222.89 1572.88,220.213 1572.88,216.14 L1572.88,192.374 C1572.88,183.895 1569.88,179.655 1563.88,179.655 C1561.56,179.655 1559.38,180.236 1557.34,181.398 C1555.29,182.559 1553.03,184.499 1550.55,187.218 M1603.24,195.14 C1603.4,200.181 1604.08,204.52 1605.28,208.155 C1606.48,211.791 1608.04,214.51 1609.96,216.312 C1611.88,218.114 1613.82,219.395 1615.78,220.155 C1617.74,220.916 1619.8,221.296 1621.96,221.296 C1625.8,221.296 1629.14,220.335 1631.98,218.413 C1634.82,216.491 1637.68,213.254 1640.55,208.702 L1642.48,209.53 C1640,216.01 1636.56,220.97 1632.16,224.413 C1627.75,227.856 1622.72,229.577 1617.04,229.577 C1610.16,229.577 1604.7,227.158 1600.66,222.319 C1596.62,217.481 1594.6,210.942 1594.6,202.702 C1594.6,193.817 1596.94,186.674 1601.62,181.273 C1606.31,175.872 1612.32,173.171 1619.68,173.171 C1625.76,173.171 1630.48,174.991 1633.84,178.632 C1637.2,182.273 1639.32,187.775 1640.19,195.14 L1603.24,195.14 M1603.48,191.53 L1627.96,191.53 C1627.16,186.332 1625.92,182.733 1624.24,180.733 C1622.56,178.733 1619.88,177.733 1616.19,177.733 C1609,177.733 1604.76,182.332 1603.48,191.53 M1649.29,197.53 L1678.8,197.53 L1678.8,205.093 L1649.29,205.093 L1649.29,197.53 M1703.55,187.218 L1703.55,216.14 C1703.55,220.296 1704.04,222.973 1705,224.171 C1705.96,225.369 1708.2,226.171 1711.73,226.577 L1711.73,228.374 L1685.8,228.374 L1685.8,226.577 C1689.24,226.098 1691.38,225.299 1692.22,224.179 C1693.06,223.059 1693.48,220.379 1693.48,216.14 L1693.48,159.624 C1693.48,157.062 1693.14,155.379 1692.46,154.577 C1691.78,153.775 1690.28,153.374 1687.96,153.374 C1687.4,153.374 1686.72,153.457 1685.91,153.624 L1685.91,151.702 C1691.6,150.181 1697.28,148.421 1702.96,146.421 L1703.55,146.78 L1703.55,183.249 C1706.28,179.655 1709.03,177.077 1711.78,175.515 C1714.54,173.952 1717.67,173.171 1721.19,173.171 C1731.04,173.171 1735.96,179.53 1735.96,192.249 L1735.96,216.14 C1735.96,220.296 1736.34,222.913 1737.1,223.991 C1737.86,225.069 1739.88,225.931 1743.16,226.577 L1743.16,228.374 L1717.73,228.374 L1717.73,226.577 C1721.16,226.254 1723.38,225.452 1724.38,224.171 C1725.38,222.89 1725.88,220.213 1725.88,216.14 L1725.88,192.374 C1725.88,183.895 1722.88,179.655 1716.88,179.655 C1714.56,179.655 1712.38,180.236 1710.34,181.398 C1708.29,182.559 1706.03,184.499 1703.55,187.218 M1756.24,195.14 C1756.4,200.181 1757.08,204.52 1758.28,208.155 C1759.48,211.791 1761.04,214.51 1762.96,216.312 C1764.88,218.114 1766.82,219.395 1768.78,220.155 C1770.74,220.916 1772.8,221.296 1774.96,221.296 C1778.8,221.296 1782.14,220.335 1784.98,218.413 C1787.82,216.491 1790.68,213.254 1793.55,208.702 L1795.48,209.53 C1793,216.01 1789.56,220.97 1785.16,224.413 C1780.75,227.856 1775.72,229.577 1770.04,229.577 C1763.16,229.577 1757.7,227.158 1753.66,222.319 C1749.62,217.481 1747.6,210.942 1747.6,202.702 C1747.6,193.817 1749.94,186.674 1754.62,181.273 C1759.31,175.872 1765.32,173.171 1772.68,173.171 C1778.76,173.171 1783.48,174.991 1786.84,178.632 C1790.2,182.273 1792.32,187.775 1793.19,195.14 L1756.24,195.14 M1756.48,191.53 L1780.96,191.53 C1780.16,186.332 1778.92,182.733 1777.24,180.733 C1775.56,178.733 1772.88,177.733 1769.19,177.733 C1762,177.733 1757.76,182.332 1756.48,191.53 M1802.29,197.53 L1831.8,197.53 L1831.8,205.093 L1802.29,205.093 L1802.29,197.53 M1856.55,187.218 L1856.55,216.14 C1856.55,220.296 1857.04,222.973 1858,224.171 C1858.96,225.369 1861.2,226.171 1864.73,226.577 L1864.73,228.374 L1838.8,228.374 L1838.8,226.577 C1842.24,226.098 1844.38,225.299 1845.22,224.179 C1846.06,223.059 1846.48,220.379 1846.48,216.14 L1846.48,159.624 C1846.48,157.062 1846.14,155.379 1845.46,154.577 C1844.78,153.775 1843.28,153.374 1840.96,153.374 C1840.4,153.374 1839.72,153.457 1838.91,153.624 L1838.91,151.702 C1844.6,150.181 1850.28,148.421 1855.96,146.421 L1856.55,146.78 L1856.55,183.249 C1859.28,179.655 1862.03,177.077 1864.78,175.515 C1867.54,173.952 1870.67,173.171 1874.19,173.171 C1884.04,173.171 1888.96,179.53 1888.96,192.249 L1888.96,216.14 C1888.96,220.296 1889.34,222.913 1890.1,223.991 C1890.86,225.069 1892.88,225.931 1896.16,226.577 L1896.16,228.374 L1870.73,228.374 L1870.73,226.577 C1874.16,226.254 1876.38,225.452 1877.38,224.171 C1878.38,222.89 1878.88,220.213 1878.88,216.14 L1878.88,192.374 C1878.88,183.895 1875.88,179.655 1869.88,179.655 C1867.56,179.655 1865.38,180.236 1863.34,181.398 C1861.29,182.559 1859.03,184.499 1856.55,187.218 M1909.24,195.14 C1909.4,200.181 1910.08,204.52 1911.28,208.155 C1912.48,211.791 1914.04,214.51 1915.96,216.312 C1917.88,218.114 1919.82,219.395 1921.78,220.155 C1923.74,220.916 1925.8,221.296 1927.96,221.296 C1931.8,221.296 1935.14,220.335 1937.98,218.413 C1940.82,216.491 1943.68,213.254 1946.55,208.702 L1948.48,209.53 C1946,216.01 1942.56,220.97 1938.16,224.413 C1933.75,227.856 1928.72,229.577 1923.04,229.577 C1916.16,229.577 1910.7,227.158 1906.66,222.319 C1902.62,217.481 1900.6,210.942 1900.6,202.702 C1900.6,193.817 1902.94,186.674 1907.62,181.273 C1912.31,175.872 1918.32,173.171 1925.68,173.171 C1931.76,173.171 1936.48,174.991 1939.84,178.632 C1943.2,182.273 1945.32,187.775 1946.19,195.14 L1909.24,195.14 M1909.48,191.53 L1933.96,191.53 C1933.16,186.332 1931.92,182.733 1930.24,180.733 C1928.56,178.733 1925.88,177.733 1922.19,177.733 C1915,177.733 1910.76,182.332 1909.48,191.53 M1958.04,181.218 C1956.28,181.218 1954.6,181.338 1953.01,181.577 L1953.01,179.78 C1958.6,178.176 1964.8,175.973 1971.6,173.171 L1972.09,173.53 L1972.09,216.14 C1972.09,220.452 1972.59,223.189 1973.59,224.351 C1974.59,225.512 1977.04,226.254 1980.96,226.577 L1980.96,228.374 L1952.52,228.374 L1952.52,226.577 C1956.68,226.338 1959.3,225.616 1960.38,224.413 C1961.47,223.21 1962.01,220.452 1962.01,216.14 L1962.01,188.296 C1962.01,185.661 1961.7,183.822 1961.1,182.78 C1960.5,181.739 1959.48,181.218 1958.04,181.218 M1965.96,146.421 C1967.72,146.421 1969.2,147.02 1970.4,148.218 C1971.6,149.416 1972.19,150.853 1972.19,152.53 C1972.19,154.291 1971.6,155.752 1970.4,156.913 C1969.2,158.075 1967.72,158.655 1965.96,158.655 C1964.28,158.655 1962.86,158.056 1961.7,156.858 C1960.54,155.661 1959.96,154.22 1959.96,152.538 C1959.96,150.856 1960.56,149.416 1961.76,148.218 C1962.95,147.02 1964.36,146.421 1965.96,146.421 M2006.27,207.249 L2004.73,207.249 C2003.92,197.489 2003.04,188.89 2002.09,181.452 C2001.13,174.015 2000.41,168.577 1999.92,165.14 C1999.44,161.702 1999.19,158.822 1999.19,156.499 C1999.19,153.697 1999.75,151.457 2000.87,149.78 C2001.99,148.103 2003.55,147.265 2005.55,147.265 C2009.79,147.265 2011.91,150.463 2011.91,156.858 C2011.91,159.098 2011.67,161.898 2011.19,165.257 C2010.72,168.616 2010,174.036 2009.04,181.515 C2008.08,188.994 2007.16,197.572 2006.27,207.249 M2001.05,218.53 C2002.29,217.249 2003.79,216.608 2005.55,216.608 C2007.31,216.608 2008.84,217.249 2010.12,218.53 C2011.4,219.812 2012.04,221.372 2012.04,223.21 C2012.04,225.049 2011.42,226.549 2010.18,227.71 C2008.94,228.872 2007.36,229.452 2005.44,229.452 C2003.68,229.452 2002.2,228.872 2001,227.71 C1999.8,226.549 1999.19,225.049 1999.19,223.21 C1999.19,221.372 1999.81,219.812 2001.05,218.53"/>
<path class="MeasureNumber" d="M57.1787,1847.26 C56.6996,1847.26 55.7412,1847.55 54.3037,1848.14 L54.3037,1847.59 L61.5069,1843.95 L61.8194,1844.03 L61.8194,1868.03 C61.8194,1868.98 62.059,1869.61 62.5381,1869.9 C63.0173,1870.19 64.0433,1870.35 65.6162,1870.39 L65.6162,1870.98 L54.585,1870.98 L54.585,1870.39 C56.0746,1870.32 57.0798,1870.1 57.6006,1869.71 C58.1215,1869.33 58.3819,1868.51 58.3819,1867.26 L58.3819,1849.14 C58.3819,1847.89 57.9808,1847.26 57.1787,1847.26 M84.1475,1863.2 C84.1475,1861.78 83.8324,1860.53 83.2022,1859.44 C82.572,1858.35 81.8116,1857.51 80.9209,1856.91 C80.0303,1856.31 79.0329,1855.82 77.9287,1855.43 C76.8246,1855.05 75.8636,1854.79 75.0459,1854.67 C74.2282,1854.56 73.5173,1854.5 72.9131,1854.5 C72.5902,1854.5 72.4287,1854.39 72.4287,1854.17 C72.4287,1854.09 72.4392,1854.03 72.46,1853.96 L76.8194,1844.51 L85.1787,1844.51 C85.6058,1844.51 85.947,1844.44 86.2022,1844.31 C86.4574,1844.17 86.7308,1843.89 87.0225,1843.46 L87.3819,1843.75 L85.8662,1847.31 C85.7621,1847.55 85.4548,1847.67 84.9444,1847.67 L77.1006,1847.67 L75.4287,1851.06 C79.3142,1851.75 82.2048,1852.87 84.1006,1854.42 C85.9965,1855.98 86.9444,1858.27 86.9444,1861.28 C86.9444,1862.85 86.697,1864.25 86.2022,1865.48 C85.7074,1866.71 85.0798,1867.7 84.3194,1868.45 C83.559,1869.2 82.6787,1869.81 81.6787,1870.29 C80.6787,1870.77 79.7204,1871.1 78.8037,1871.28 C77.8871,1871.45 76.96,1871.54 76.0225,1871.54 C74.5329,1871.54 73.348,1871.32 72.4678,1870.88 C71.5876,1870.44 71.1475,1869.83 71.1475,1869.06 C71.1475,1868.07 71.7204,1867.57 72.8662,1867.57 C73.6162,1867.57 74.5824,1867.98 75.7647,1868.8 C76.947,1869.62 77.8871,1870.03 78.585,1870.03 C80.1579,1870.03 81.4782,1869.37 82.5459,1868.05 C83.6136,1866.73 84.1475,1865.12 84.1475,1863.2"/>
<path class="MeasureNumber" d="M56.6787,1372.23 C56.1996,1372.23 55.2412,1372.52 53.8037,1373.11 L53.8037,1372.56 L61.0069,1368.92 L61.3194,1369 L61.3194,1393 C61.3194,1393.95 61.559,1394.58 62.0381,1394.87 C62.5173,1395.16 63.5433,1395.32 65.1162,1395.36 L65.1162,1395.95 L54.085,1395.95 L54.085,1395.36 C55.5746,1395.29 56.5798,1395.07 57.1006,1394.68 C57.6215,1394.3 57.8819,1393.48 57.8819,1392.23 L57.8819,1374.11 C57.8819,1372.86 57.4808,1372.23 56.6787,1372.23 M70.6006,1376.87 C70.736,1376.26 70.8715,1375.73 71.0069,1375.28 C71.1423,1374.83 71.4287,1374.17 71.8662,1373.31 C72.3037,1372.44 72.7959,1371.73 73.3428,1371.16 C73.8897,1370.59 74.6501,1370.08 75.6241,1369.63 C76.598,1369.18 77.6996,1368.95 78.9287,1368.95 C81.0017,1368.95 82.7517,1369.63 84.1787,1370.98 C85.6058,1372.34 86.3194,1374.01 86.3194,1376 C86.3194,1379.01 84.6162,1382.3 81.21,1385.87 L74.4912,1392.9 L84.0381,1392.9 C84.9444,1392.9 85.6189,1392.75 86.0616,1392.45 C86.5043,1392.15 87.1006,1391.42 87.8506,1390.28 L88.3662,1390.47 L86.1631,1395.95 L70.5694,1395.95 L70.5694,1395.47 L77.6787,1387.92 C81.1475,1384.23 82.8819,1380.76 82.8819,1377.51 C82.8819,1375.84 82.361,1374.48 81.3194,1373.43 C80.2777,1372.39 78.9183,1371.87 77.2412,1371.87 C75.8558,1371.87 74.7439,1372.25 73.9053,1373.01 C73.0668,1373.77 72.2465,1375.13 71.4444,1377.07 L70.6006,1376.87 "/>
<path class="MeasureNumber" d="M75.6475,913.139 C75.6475,911.722 75.3324,910.469 74.7022,909.381 C74.072,908.292 73.3116,907.448 72.4209,906.849 C71.5303,906.251 70.5329,905.758 69.4287,905.373 C68.3246,904.988 67.3636,904.735 66.5459,904.615 C65.7282,904.495 65.0173,904.435 64.4131,904.435 C64.0902,904.435 63.9287,904.326 63.9287,904.107 C63.9287,904.034 63.9392,903.967 63.96,903.904 L68.3194,894.451 L76.6787,894.451 C77.1058,894.451 77.447,894.383 77.7022,894.248 C77.9574,894.113 78.2308,893.831 78.5225,893.404 L78.8819,893.685 L77.3662,897.248 C77.2621,897.488 76.9548,897.607 76.4444,897.607 L68.6006,897.607 L66.9287,900.998 C70.8142,901.685 73.7048,902.808 75.6006,904.365 C77.4965,905.922 78.4444,908.206 78.4444,911.217 C78.4444,912.79 78.197,914.191 77.7022,915.42 C77.2074,916.649 76.5798,917.639 75.8194,918.389 C75.059,919.139 74.1787,919.753 73.1787,920.232 C72.1787,920.711 71.2204,921.04 70.3037,921.217 C69.3871,921.394 68.46,921.482 67.5225,921.482 C66.0329,921.482 64.848,921.261 63.9678,920.818 C63.0876,920.376 62.6475,919.769 62.6475,918.998 C62.6475,918.008 63.2204,917.514 64.3662,917.514 C65.1162,917.514 66.0824,917.922 67.2647,918.74 C68.447,919.558 69.3871,919.967 70.085,919.967 C71.6579,919.967 72.9782,919.308 74.0459,917.99 C75.1136,916.672 75.6475,915.055 75.6475,913.139"/>
<path class="TieSegment" stroke="#000000" stroke-width="1.75" stroke-linecap="round" stroke-linejoin="round" fill-rule="evenodd" d="M2101.66,2064.74 C2186.59,2095.24 2441.39,2095.24 2526.32,2064.74 C2441.39,2099.24 2186.59,2099.24 2101.66,2064.74"/>
<path class="TieSegment" stroke="#000000" stroke-width="1.75" stroke-linecap="round" stroke-linejoin="round" fill-rule="evenodd" d="M719.852,2014.74 C806.915,2045.24 1068.11,2045.24 1155.17,2014.74 C1068.11,2049.24 806.915,2049.24 719.852,2014.74"/>
<path class="TieSegment" stroke="#000000" stroke-width="1.75" stroke-linecap="round" stroke-linejoin="round" fill-rule="evenodd" d="M2101.66,2064.74 C2186.59,2095.24 2441.39,2095.24 2526.32,2064.74 C2441.39,2099.24 2186.59,2099.24 2101.66,2064.74"/>
<path class="TieSegment" stroke="#000000" stroke-width="1.75" stroke-linecap="round" stroke-linejoin="round" fill-rule="evenodd" d="M719.852,2014.74 C806.915,2045.24 1068.11,2045.24 1155.17,2014.74 C1068.11,2049.24 806.915,2049.24 719.852,2014.74"/>
<path class="TieSegment" stroke="#000000" stroke-width="1.75" stroke-linecap="round" stroke-linejoin="round" fill-rule="evenodd" d="M2263.85,1114.68 C2332.82,1145.18 2539.75,1145.18 2608.72,1114.68 C2539.75,1149.18 2332.82,1149.18 2263.85,1114.68"/>
<path class="TieSegment" stroke="#000000" stroke-width="1.75" stroke-linecap="round" stroke-linejoin="round" fill-rule="evenodd" d="M1121.38,1064.68 C1192.49,1095.18 1405.81,1095.18 1476.92,1064.68 C1405.81,1099.18 1192.49,1099.18 1121.38,1064.68"/>
<path class="TieSegment" stroke="#000000" stroke-width="1.75" stroke-linecap="round" stroke-linejoin="round" fill-rule="evenodd" d="M2263.85,1114.68 C2332.82,1145.18 2539.75,1145.18 2608.72,1114.68 C2539.75,1149.18 2332.82,1149.18 2263.85,1114.68"/>
<path class="TieSegment" stroke="#000000" stroke-width="1.75" stroke-linecap="round" stroke-linejoin="round" fill-rule="evenodd" d="M1121.38,1064.68 C1192.49,1095.18 1405.81,1095.18 1476.92,1064.68 C1405.81,1099.18 1192.49,1099.18 1121.38,1064.68"/>
<polyline class="BarLine" stroke="#000000" stroke-width="4.00" stroke-linejoin="bevel" points="2883.86,1919.98 2883.86,2021.99"/>
<polyline class="BarLine" stroke="#000000" stroke-width="12.50" stroke-linejoin="bevel" points="2900.11,1919.98 2900.11,2021.99"/>
<polyline class="BarLine" stroke="#000000" stroke-width="4.00" stroke-linejoin="bevel" points="2469.66,1919.98 2469.66,2021.99"/>
<polyline class="BarLine" stroke="#000000" stroke-width="4.00" stroke-linejoin="bevel" points="2037.59,1919.98 2037.59,2021.99"/>
<path class="BarLine" d="M1512.37,1962.49 C1511.26,1961.38 1510.71,1960.05 1510.71,1958.49 C1510.71,1956.92 1511.26,1955.59 1512.37,1954.48 C1513.48,1953.37 1514.82,1952.81 1516.38,1952.81 C1517.94,1952.81 1519.27,1953.37 1520.38,1954.48 C1521.48,1955.59 1522.03,1956.92 1522.03,1958.49 C1522.03,1960.05 1521.48,1961.38 1520.38,1962.49 C1519.27,1963.59 1517.94,1964.14 1516.38,1964.14 C1514.82,1964.14 1513.48,1963.59 1512.37,1962.49"/>
<path class="BarLine" d="M1512.37,1987.49 C1511.26,1986.38 1510.71,1985.05 1510.71,1983.49 C1510.71,1981.93 1511.26,1980.59 1512.37,1979.48 C1513.48,1978.37 1514.82,1977.82 1516.38,1977.82 C1517.94,1977.82 1519.27,1978.37 1520.38,1979.48 C1521.48,1980.59 1522.03,1981.93 1522.03,1983.49 C1522.03,1985.05 1521.48,1986.38 1520.38,1987.49 C1519.27,1988.59 1517.94,1989.14 1516.38,1989.14 C1514.82,1989.14 1513.48,1988.59 1512.37,1987.49"/>
<polyline class="BarLine" stroke="#000000" stroke-width="4.00" stroke-linejoin="bevel" points="1532.12,1919.98 1532.12,2021.99"/>
<polyline class="BarLine" stroke="#000000" stroke-width="12.50" stroke-linejoin="bevel" points="1548.37,1919.98 1548.37,2021.99"/>
<polyline class="BarLine" stroke="#000000" stroke-width="4.00" stroke-linejoin="bevel" points="1098.51,1919.98 1098.51,2021.99"/>
<polyline class="BarLine" stroke="#000000" stroke-width="4.00" stroke-linejoin="bevel" points="665.281,1919.98 665.281,2021.99"/>
<polyline class="BarLine" stroke="#000000" stroke-width="4.00" stroke-linejoin="bevel" points="2904.36,1444.95 2904.36,1546.96"/>
<polyline class="BarLine" stroke="#000000" stroke-width="4.00" stroke-linejoin="bevel" points="1975.73,1444.95 1975.73,1546.96"/>
<polyline class="BarLine" stroke="#000000" stroke-width="4.00" stroke-linejoin="bevel" points="1106.23,1444.95 1106.23,1546.96"/>
<polyline class="BarLine" stroke="#000000" stroke-width="12.50" stroke-linejoin="bevel" points="168.56,1444.95 168.56,1546.96"/>
<polyline class="BarLine" stroke="#000000" stroke-width="4.00" stroke-linejoin="bevel" points="184.811,1444.95 184.811,1546.96"/>
<path class="BarLine" d="M196.554,1487.46 C195.444,1486.35 194.89,1485.02 194.89,1483.46 C194.89,1481.89 195.444,1480.56 196.554,1479.45 C197.663,1478.34 198.999,1477.78 200.562,1477.78 C202.124,1477.78 203.457,1478.34 204.562,1479.45 C205.666,1480.56 206.218,1481.89 206.218,1483.46 C206.218,1485.02 205.666,1486.35 204.562,1487.46 C203.457,1488.56 202.124,1489.11 200.562,1489.11 C198.999,1489.11 197.663,1488.56 196.554,1487.46"/>
<path class="BarLine" d="M196.554,1512.46 C195.444,1511.35 194.89,1510.02 194.89,1508.46 C194.89,1506.9 195.444,1505.56 196.554,1504.45 C197.663,1503.34 198.999,1502.79 200.562,1502.79 C202.124,1502.79 203.457,1503.34 204.562,1504.45 C205.666,1505.56 206.218,1506.9 206.218,1508.46 C206.218,1510.02 205.666,1511.35 204.562,1512.46 C203.457,1513.56 202.124,1514.11 200.562,1514.11 C198.999,1514.11 197.663,1513.56 196.554,1512.46"/>
<polyline class="BarLine" stroke="#000000" stroke-width="4.00" stroke-linejoin="bevel" points="2892.86,969.923 2892.86,1071.93"/>
<polyline class="BarLine" stroke="#000000" stroke-width="4.00" stroke-linejoin="bevel" points="2904.36,969.923 2904.36,1071.93"/>
<polyline class="BarLine" stroke="#000000" stroke-width="4.00" stroke-linejoin="bevel" points="2552.07,969.923 2552.07,1071.93"/>
<polyline class="BarLine" stroke="#000000" stroke-width="4.00" stroke-linejoin="bevel" points="2199.78,969.923 2199.78,1071.93"/>
<path class="BarLine" d="M1754.34,1012.43 C1753.23,1011.32 1752.67,1009.99 1752.67,1008.43 C1752.67,1006.86 1753.23,1005.53 1754.34,1004.42 C1755.45,1003.31 1756.78,1002.75 1758.34,1002.75 C1759.91,1002.75 1761.24,1003.31 1762.34,1004.42 C1763.45,1005.53 1764,1006.86 1764,1008.43 C1764,1009.99 1763.45,1011.32 1762.34,1012.43 C1761.24,1013.53 1759.91,1014.08 1758.34,1014.08 C1756.78,1014.08 1755.45,1013.53 1754.34,1012.43"/>
<path class="BarLine" d="M1754.34,1037.43 C1753.23,1036.32 1752.67,1034.99 1752.67,1033.43 C1752.67,1031.87 1753.23,1030.53 1754.34,1029.42 C1755.45,1028.31 1756.78,1027.76 1758.34,1027.76 C1759.91,1027.76 1761.24,1028.31 1762.34,1029.42 C1763.45,1030.53 1764,1031.87 1764,1033.43 C1764,1034.99 1763.45,1036.32 1762.34,1037.43 C1761.24,1038.53 1759.91,1039.08 1758.34,1039.08 C1756.78,1039.08 1755.45,1038.53 1754.34,1037.43"/>
<polyline class="BarLine" stroke="#000000" stroke-width="4.00" stroke-linejoin="bevel" points="1774.09,969.923 1774.09,1071.93"/>
<polyline class="BarLine" stroke="#000000" stroke-width="12.50" stroke-linejoin="bevel" points="1790.34,969.923 1790.34,1071.93"/>
<polyline class="BarLine" stroke="#000000" stroke-width="4.00" stroke-linejoin="bevel" points="1420.26,969.923 1420.26,1071.93"/>
<polyline class="BarLine" stroke="#000000" stroke-width="4.00" stroke-linejoin="bevel" points="1066.81,969.923 1066.81,1071.93"/>
<polyline class="BarLine" stroke="#000000" stroke-width="4.00" stroke-linejoin="bevel" points="661.623,969.923 661.623,1071.93"/>
<polyline class="BarLine" stroke="#000000" stroke-width="4.00" stroke-linejoin="bevel" points="2904.36,494.893 2904.36,596.899"/>
<polyline class="BarLine" stroke="#000000" stroke-width="4.00" stroke-linejoin="bevel" points="2272.08,494.893 2272.08,596.899"/>
<polyline class="BarLine" stroke="#000000" stroke-width="4.00" stroke-linejoin="bevel" points="1550.41,494.893 1550.41,596.899"/>
<polyline class="BarLine" stroke="#000000" stroke-width="4.00" stroke-linejoin="bevel" points="918.225,494.893 918.225,596.899"/>
<path class="Accidental" d="M2012.31,1564.61 C2012.31,1565.85 2011.69,1566.47 2010.46,1566.47 C2009.23,1566.47 2008.61,1565.85 2008.61,1564.61 L2008.61,1550.16 L2000.31,1553.29 L2000.31,1569.1 C2000.31,1570.34 1999.69,1570.96 1998.45,1570.96 C1997.21,1570.96 1996.59,1570.34 1996.59,1569.1 L1996.59,1554.55 L1993.47,1555.72 C1993.41,1555.79 1993.15,1555.82 1992.69,1555.82 C1992.17,1555.82 1991.71,1555.62 1991.32,1555.23 C1990.93,1554.84 1990.73,1554.39 1990.73,1553.86 L1990.73,1547.82 C1990.73,1546.84 1991.16,1546.22 1992,1545.96 L1996.59,1544.4 L1996.59,1528.38 L1993.47,1529.46 C1993.41,1529.52 1993.15,1529.55 1992.69,1529.55 C1992.17,1529.55 1991.71,1529.36 1991.32,1528.97 C1990.93,1528.58 1990.73,1528.12 1990.73,1527.6 L1990.73,1521.54 C1990.73,1520.63 1991.16,1520.05 1992,1519.79 L1996.59,1518.02 L1996.59,1502.3 C1996.59,1501.06 1997.21,1500.44 1998.45,1500.44 C1999.69,1500.44 2000.31,1501.06 2000.31,1502.3 L2000.31,1516.76 L2008.61,1513.63 L2008.61,1497.82 C2008.61,1496.58 2009.23,1495.96 2010.46,1495.96 C2011.69,1495.96 2012.31,1496.58 2012.31,1497.82 L2012.31,1512.36 L2015.55,1511.19 C2015.61,1511.13 2015.83,1511.1 2016.22,1511.1 C2016.68,1511.1 2017.17,1511.29 2017.69,1511.68 C2018.08,1512.07 2018.28,1512.53 2018.28,1513.05 L2018.28,1519.1 C2018.28,1520.02 2017.82,1520.64 2016.91,1520.96 L2012.31,1522.52 L2012.31,1538.54 L2015.55,1537.46 C2015.61,1537.4 2015.83,1537.36 2016.22,1537.36 C2016.68,1537.36 2017.17,1537.56 2017.69,1537.96 C2018.08,1538.34 2018.28,1538.8 2018.28,1539.32 L2018.28,1545.38 C2018.28,1546.22 2017.82,1546.81 2016.91,1547.13 L2012.31,1548.9 L2012.31,1564.61 M2008.61,1523.99 L2000.31,1526.91 L2000.31,1542.93 L2008.61,1540.01 L2008.61,1523.99 "/>
<path class="Accidental" d="M233.891,1089.58 C233.891,1090.82 233.274,1091.44 232.039,1091.44 C230.805,1091.44 230.188,1090.82 230.188,1089.58 L230.188,1075.13 L221.891,1078.26 L221.891,1094.07 C221.891,1095.31 221.271,1095.93 220.031,1095.93 C218.792,1095.93 218.172,1095.31 218.172,1094.07 L218.172,1079.52 L215.047,1080.69 C214.985,1080.76 214.724,1080.79 214.266,1080.79 C213.745,1080.79 213.289,1080.59 212.899,1080.2 C212.508,1079.81 212.313,1079.36 212.313,1078.83 L212.313,1072.79 C212.313,1071.81 212.735,1071.19 213.578,1070.93 L218.172,1069.37 L218.172,1053.35 L215.047,1054.43 C214.985,1054.49 214.724,1054.52 214.266,1054.52 C213.745,1054.52 213.289,1054.33 212.899,1053.94 C212.508,1053.55 212.313,1053.09 212.313,1052.57 L212.313,1046.51 C212.313,1045.6 212.735,1045.02 213.578,1044.76 L218.172,1042.99 L218.172,1027.27 C218.172,1026.03 218.792,1025.41 220.031,1025.41 C221.271,1025.41 221.891,1026.03 221.891,1027.27 L221.891,1041.73 L230.188,1038.6 L230.188,1022.79 C230.188,1021.55 230.805,1020.93 232.039,1020.93 C233.274,1020.93 233.891,1021.55 233.891,1022.79 L233.891,1037.33 L237.125,1036.16 C237.188,1036.1 237.412,1036.07 237.797,1036.07 C238.255,1036.07 238.745,1036.26 239.266,1036.65 C239.662,1037.04 239.86,1037.5 239.86,1038.02 L239.86,1044.07 C239.86,1044.99 239.401,1045.61 238.485,1045.93 L233.891,1047.49 L233.891,1063.51 L237.125,1062.43 C237.188,1062.37 237.412,1062.33 237.797,1062.33 C238.255,1062.33 238.745,1062.53 239.266,1062.93 C239.662,1063.31 239.86,1063.77 239.86,1064.29 L239.86,1070.35 C239.86,1071.19 239.401,1071.78 238.485,1072.1 L233.891,1073.87 L233.891,1089.58 M230.188,1048.96 L221.891,1051.88 L221.891,1067.9 L230.188,1064.98 L230.188,1048.96 "/>
<path class="Accidental" d="M1941.37,541.787 L1941.37,549.506 C1941.37,552.245 1941.5,554.427 1941.76,556.052 C1943.91,554.23 1945.44,552.865 1946.36,551.959 C1947.4,550.917 1948.44,549.482 1949.48,547.654 C1950.52,545.826 1951.04,544 1951.04,542.177 C1951.04,540.355 1950.65,538.792 1949.87,537.49 C1949.09,536.188 1948.05,535.537 1946.75,535.537 C1945.18,535.537 1943.88,536.125 1942.84,537.302 C1941.86,538.605 1941.37,540.099 1941.37,541.787 M1937.26,559.662 L1936,500.193 C1936.91,499.672 1937.83,499.412 1938.74,499.412 C1939.65,499.412 1940.56,499.672 1941.46,500.193 L1940.68,534.662 C1943.35,532.381 1946.41,531.24 1949.87,531.24 C1952.4,531.24 1954.51,532.282 1956.21,534.365 C1957.9,536.448 1958.75,538.828 1958.75,541.506 C1958.75,543.193 1958.19,544.985 1957.09,546.881 C1956.05,548.631 1954.94,549.995 1953.78,550.974 C1953.12,551.495 1951.46,552.797 1948.79,554.881 C1948.01,555.464 1947.08,556.146 1946.01,556.927 C1944.94,557.709 1944.27,558.198 1944.01,558.396 C1943.55,558.657 1943.13,559.177 1942.73,559.959 C1942.28,560.615 1941.76,561.167 1941.17,561.615 C1940.72,562.011 1940.17,562.209 1939.52,562.209 C1938.87,562.209 1938.35,561.98 1937.95,561.521 C1937.49,561.063 1937.26,560.443 1937.26,559.662"/>
<path class="Accidental" d="M938.722,541.787 L938.722,549.506 C938.722,552.245 938.852,554.427 939.112,556.052 C941.258,554.23 942.789,552.865 943.706,551.959 C944.748,550.917 945.789,549.482 946.831,547.654 C947.873,545.826 948.394,544 948.394,542.177 C948.394,540.355 948.003,538.792 947.222,537.49 C946.44,536.188 945.399,535.537 944.097,535.537 C942.534,535.537 941.232,536.125 940.19,537.302 C939.211,538.605 938.722,540.099 938.722,541.787 M934.612,559.662 L933.347,500.193 C934.263,499.672 935.177,499.412 936.089,499.412 C937,499.412 937.909,499.672 938.815,500.193 L938.034,534.662 C940.701,532.381 943.763,531.24 947.222,531.24 C949.753,531.24 951.865,532.282 953.558,534.365 C955.25,536.448 956.097,538.828 956.097,541.506 C956.097,543.193 955.545,544.985 954.44,546.881 C953.399,548.631 952.295,549.995 951.128,550.974 C950.472,551.495 948.81,552.797 946.144,554.881 C945.362,555.464 944.435,556.146 943.362,556.927 C942.289,557.709 941.623,558.198 941.362,558.396 C940.904,558.657 940.477,559.177 940.081,559.959 C939.633,560.615 939.112,561.167 938.519,561.615 C938.071,562.011 937.521,562.209 936.87,562.209 C936.219,562.209 935.696,561.98 935.3,561.521 C934.841,561.063 934.612,560.443 934.612,559.662"/>
<polyline class="LedgerLine" stroke="#000000" stroke-width="4.00" stroke-linecap="square" stroke-linejoin="bevel" points="2506.67,2045.99 2556.39,2045.99"/>
<polyline class="LedgerLine" stroke="#000000" stroke-width="4.00" stroke-linecap="square" stroke-linejoin="bevel" points="2071.59,2045.99 2121.32,2045.99"/>
<polyline class="LedgerLine" stroke="#000000" stroke-width="4.00" stroke-linecap="square" stroke-linejoin="bevel" points="2589.07,1095.93 2638.79,1095.93"/>
<polyline class="LedgerLine" stroke="#000000" stroke-width="4.00" stroke-linecap="square" stroke-linejoin="bevel" points="2233.78,1095.93 2283.5,1095.93"/>
<polyline class="Stem" stroke="#000000" stroke-width="3.25" stroke-linecap="round" stroke-linejoin="bevel" points="2547.26,2042.15 2547.26,1958.49"/>
<polyline class="Stem" stroke="#000000" stroke-width="3.25" stroke-linecap="round" stroke-linejoin="bevel" points="2112.19,2042.15 2112.19,1958.49"/>
<polyline class="Stem" stroke="#000000" stroke-width="3.25" stroke-linecap="round" stroke-linejoin="bevel" points="1866.45,2028.79 1866.45,1945.98"/>
<polyline class="Stem" stroke="#000000" stroke-width="3.25" stroke-linecap="round" stroke-linejoin="bevel" points="1741.18,2016.29 1741.18,1945.98"/>
<polyline class="Stem" stroke="#000000" stroke-width="3.25" stroke-linecap="round" stroke-linejoin="bevel" points="1615.92,2003.79 1615.92,1939.73"/>
<polyline class="Stem" stroke="#000000" stroke-width="3.25" stroke-linecap="round" stroke-linejoin="bevel" points="1176.11,1992.15 1176.11,1911.61"/>
<polyline class="Stem" stroke="#000000" stroke-width="3.25" stroke-linecap="round" stroke-linejoin="bevel" points="730.379,1992.15 730.379,1911.61"/>
<polyline class="Stem" stroke="#000000" stroke-width="3.25" stroke-linecap="round" stroke-linejoin="bevel" points="494.142,1978.79 494.142,1902.23"/>
<polyline class="Stem" stroke="#000000" stroke-width="3.25" stroke-linecap="round" stroke-linejoin="bevel" points="368.873,2016.29 368.873,1945.98"/>
<polyline class="Stem" stroke="#000000" stroke-width="3.25" stroke-linecap="round" stroke-linejoin="bevel" points="243.604,2003.79 243.604,1939.73"/>
<polyline class="Stem" stroke="#000000" stroke-width="3.25" stroke-linecap="round" stroke-linejoin="bevel" points="2714,1516.26 2714,1445.95"/>
<polyline class="Stem" stroke="#000000" stroke-width="3.25" stroke-linecap="round" stroke-linejoin="bevel" points="2494.36,1503.76 2494.36,1439.7"/>
<polyline class="Stem" stroke="#000000" stroke-width="3.25" stroke-linecap="round" stroke-linejoin="bevel" points="2274.71,1516.26 2274.71,1445.95"/>
<polyline class="Stem" stroke="#000000" stroke-width="3.25" stroke-linecap="round" stroke-linejoin="bevel" points="2055.07,1528.76 2055.07,1452.2"/>
<polyline class="Stem" stroke="#000000" stroke-width="3.25" stroke-linecap="round" stroke-linejoin="bevel" points="1604.02,1488.15 1604.02,1564.71"/>
<polyline class="Stem" stroke="#000000" stroke-width="3.25" stroke-linecap="round" stroke-linejoin="bevel" points="1401.61,1516.26 1401.61,1445.95"/>
<polyline class="Stem" stroke="#000000" stroke-width="3.25" stroke-linecap="round" stroke-linejoin="bevel" points="1169.52,1541.26 1169.52,1470.95"/>
<polyline class="Stem" stroke="#000000" stroke-width="3.25" stroke-linecap="round" stroke-linejoin="bevel" points="734.522,1488.15 734.522,1564.71"/>
<polyline class="Stem" stroke="#000000" stroke-width="3.25" stroke-linecap="round" stroke-linejoin="bevel" points="532.104,1516.26 532.104,1445.95"/>
<polyline class="Stem" stroke="#000000" stroke-width="3.25" stroke-linecap="round" stroke-linejoin="bevel" points="300.021,1541.26 300.021,1470.95"/>
<polyline class="Stem" stroke="#000000" stroke-width="3.25" stroke-linecap="round" stroke-linejoin="bevel" points="2629.67,1092.09 2629.67,1008.43"/>
<polyline class="Stem" stroke="#000000" stroke-width="3.25" stroke-linecap="round" stroke-linejoin="bevel" points="2274.38,1092.09 2274.38,1008.43"/>
<polyline class="Stem" stroke="#000000" stroke-width="3.25" stroke-linecap="round" stroke-linejoin="bevel" points="2064.1,1078.73 2064.1,995.925"/>
<polyline class="Stem" stroke="#000000" stroke-width="3.25" stroke-linecap="round" stroke-linejoin="bevel" points="1960.99,1066.23 1960.99,995.925"/>
<polyline class="Stem" stroke="#000000" stroke-width="3.25" stroke-linecap="round" stroke-linejoin="bevel" points="1857.88,1053.73 1857.88,989.674"/>
<polyline class="Stem" stroke="#000000" stroke-width="3.25" stroke-linecap="round" stroke-linejoin="bevel" points="1497.86,1042.09 1497.86,961.547"/>
<polyline class="Stem" stroke="#000000" stroke-width="3.25" stroke-linecap="round" stroke-linejoin="bevel" points="1131.91,1042.09 1131.91,961.547"/>
<polyline class="Stem" stroke="#000000" stroke-width="3.25" stroke-linecap="round" stroke-linejoin="bevel" points="931.131,1028.73 931.131,952.172"/>
<polyline class="Stem" stroke="#000000" stroke-width="3.25" stroke-linecap="round" stroke-linejoin="bevel" points="828.024,1066.23 828.024,995.925"/>
<polyline class="Stem" stroke="#000000" stroke-width="3.25" stroke-linecap="round" stroke-linejoin="bevel" points="724.916,1053.73 724.916,989.674"/>
<polyline class="Stem" stroke="#000000" stroke-width="3.25" stroke-linecap="round" stroke-linejoin="bevel" points="587.347,1041.23 587.347,970.923"/>
<polyline class="Stem" stroke="#000000" stroke-width="3.25" stroke-linecap="round" stroke-linejoin="bevel" points="483.78,1028.73 483.78,964.673"/>
<polyline class="Stem" stroke="#000000" stroke-width="3.25" stroke-linecap="round" stroke-linejoin="bevel" points="380.212,1041.23 380.212,970.923"/>
<polyline class="Stem" stroke="#000000" stroke-width="3.25" stroke-linecap="round" stroke-linejoin="bevel" points="276.645,1053.73 276.645,977.173"/>
<polyline class="Stem" stroke="#000000" stroke-width="3.25" stroke-linecap="round" stroke-linejoin="bevel" points="2337.18,554.557 2337.18,477.142"/>
<polyline class="Stem" stroke="#000000" stroke-width="3.25" stroke-linecap="round" stroke-linejoin="bevel" points="1966.08,550.592 1966.08,624.026"/>
<polyline class="Stem" stroke="#000000" stroke-width="3.25" stroke-linecap="round" stroke-linejoin="bevel" points="1804.72,566.202 1804.72,495.893"/>
<polyline class="Stem" stroke="#000000" stroke-width="3.25" stroke-linecap="round" stroke-linejoin="bevel" points="1613.71,553.701 1613.71,489.643"/>
<polyline class="Stem" stroke="#000000" stroke-width="3.25" stroke-linecap="round" stroke-linejoin="bevel" points="963.427,549.816 963.427,624.026"/>
<polyline class="Stem" stroke="#000000" stroke-width="3.25" stroke-linecap="round" stroke-linejoin="bevel" points="628.439,538.091 628.439,614.651"/>
<polyline class="Stem" stroke="#000000" stroke-width="3.25" stroke-linecap="round" stroke-linejoin="bevel" points="447.557,538.091 447.557,614.651"/>
<polyline class="Stem" stroke="#000000" stroke-width="3.25" stroke-linecap="round" stroke-linejoin="bevel" points="266.675,550.592 266.675,620.901"/>
<path class="Note" d="M2545.71,2039.44 C2545.71,2038.34 2545.29,2037.4 2544.45,2036.62 C2543.59,2035.77 2542.62,2035.35 2541.51,2035.35 C2539.56,2035.35 2535.63,2037.3 2529.7,2041.21 C2523.57,2045.18 2519.83,2048.01 2518.46,2049.71 C2517.75,2050.62 2517.39,2051.56 2517.39,2052.54 C2517.39,2053.64 2517.81,2054.58 2518.67,2055.37 C2519.45,2056.21 2520.42,2056.63 2521.59,2056.63 C2523.47,2056.63 2527.45,2054.68 2533.51,2050.77 C2539.5,2046.87 2543.21,2044.03 2544.64,2042.27 C2545.36,2041.43 2545.71,2040.49 2545.71,2039.44 M2540.54,2032.23 C2546.14,2032.23 2548.93,2034.63 2548.93,2039.44 C2548.93,2041.79 2548.25,2044.52 2546.89,2047.65 C2545.52,2050.71 2543.7,2053.05 2541.42,2054.68 C2536.41,2058.06 2530.13,2059.76 2522.57,2059.76 C2516.97,2059.76 2514.17,2057.35 2514.17,2052.54 C2514.17,2050.39 2514.85,2047.69 2516.21,2044.43 C2517.52,2041.3 2519.34,2038.93 2521.68,2037.3 C2526.7,2033.92 2532.99,2032.23 2540.54,2032.23"/>
<path class="Note" d="M2110.64,2039.44 C2110.64,2038.34 2110.22,2037.4 2109.38,2036.62 C2108.52,2035.77 2107.54,2035.35 2106.44,2035.35 C2104.49,2035.35 2100.55,2037.3 2094.63,2041.21 C2088.5,2045.18 2084.76,2048.01 2083.39,2049.71 C2082.67,2050.62 2082.31,2051.56 2082.31,2052.54 C2082.31,2053.64 2082.74,2054.58 2083.59,2055.37 C2084.38,2056.21 2085.35,2056.63 2086.52,2056.63 C2088.4,2056.63 2092.38,2054.68 2098.44,2050.77 C2104.43,2046.87 2108.14,2044.03 2109.56,2042.27 C2110.28,2041.43 2110.64,2040.49 2110.64,2039.44 M2105.47,2032.23 C2111.06,2032.23 2113.86,2034.63 2113.86,2039.44 C2113.86,2041.79 2113.18,2044.52 2111.81,2047.65 C2110.45,2050.71 2108.63,2053.05 2106.34,2054.68 C2101.33,2058.06 2095.05,2059.76 2087.5,2059.76 C2081.9,2059.76 2079.09,2057.35 2079.09,2052.54 C2079.09,2050.39 2079.78,2047.69 2081.14,2044.43 C2082.44,2041.3 2084.27,2038.93 2086.61,2037.3 C2091.63,2033.92 2097.92,2032.23 2105.47,2032.23"/>
<path class="Note" d="M1857.13,2019.72 C1860.26,2019.72 1862.9,2020.54 1865.05,2022.16 C1867.06,2023.92 1868.07,2026.14 1868.07,2028.8 C1868.07,2033.29 1865.76,2037.49 1861.15,2041.4 C1856.46,2045.3 1851.44,2047.26 1846.1,2047.26 C1842.97,2047.26 1840.34,2046.44 1838.19,2044.82 C1836.17,2043.06 1835.16,2040.84 1835.16,2038.18 C1835.16,2033.69 1837.51,2029.49 1842.19,2025.58 C1846.76,2021.68 1851.73,2019.72 1857.13,2019.72"/>
<path class="Note" d="M1731.86,2007.22 C1734.99,2007.22 1737.63,2008.04 1739.78,2009.66 C1741.79,2011.42 1742.8,2013.63 1742.8,2016.3 C1742.8,2020.79 1740.49,2024.99 1735.88,2028.9 C1731.19,2032.8 1726.17,2034.75 1720.83,2034.75 C1717.71,2034.75 1715.07,2033.94 1712.92,2032.32 C1710.9,2030.56 1709.89,2028.34 1709.89,2025.68 C1709.89,2021.19 1712.24,2016.99 1716.92,2013.08 C1721.49,2009.18 1726.47,2007.22 1731.86,2007.22"/>
<path class="Note" d="M1606.59,1994.72 C1609.72,1994.72 1612.36,1995.54 1614.51,1997.16 C1616.53,1998.92 1617.53,2001.13 1617.53,2003.8 C1617.53,2008.29 1615.22,2012.49 1610.61,2016.39 C1605.92,2020.3 1600.91,2022.25 1595.56,2022.25 C1592.44,2022.25 1589.8,2021.44 1587.66,2019.82 C1585.63,2018.06 1584.62,2015.84 1584.62,2013.18 C1584.62,2008.69 1586.97,2004.49 1591.66,2000.58 C1596.22,1996.68 1601.2,1994.72 1606.59,1994.72"/>
<path class="Note" d="M1174.56,1989.44 C1174.56,1988.34 1174.14,1987.39 1173.3,1986.61 C1172.44,1985.77 1171.46,1985.35 1170.36,1985.35 C1168.41,1985.35 1164.47,1987.3 1158.55,1991.21 C1152.42,1995.18 1148.68,1998.01 1147.31,1999.71 C1146.59,2000.61 1146.23,2001.56 1146.23,2002.53 C1146.23,2003.64 1146.66,2004.58 1147.52,2005.36 C1148.3,2006.21 1149.27,2006.63 1150.44,2006.63 C1152.32,2006.63 1156.3,2004.68 1162.36,2000.77 C1168.35,1996.86 1172.06,1994.03 1173.48,1992.27 C1174.2,1991.43 1174.56,1990.48 1174.56,1989.44 M1169.39,1982.22 C1174.98,1982.22 1177.78,1984.63 1177.78,1989.44 C1177.78,1991.78 1177.1,1994.52 1175.73,1997.64 C1174.37,2000.71 1172.55,2003.05 1170.27,2004.68 C1165.26,2008.06 1158.97,2009.75 1151.42,2009.75 C1145.82,2009.75 1143.02,2007.35 1143.02,2002.53 C1143.02,2000.39 1143.7,1997.69 1145.06,1994.43 C1146.37,1991.3 1148.19,1988.93 1150.53,1987.3 C1155.55,1983.91 1161.84,1982.22 1169.39,1982.22"/>
<path class="Note" d="M728.83,1989.44 C728.83,1988.34 728.408,1987.39 727.564,1986.61 C726.71,1985.77 725.731,1985.35 724.627,1985.35 C722.679,1985.35 718.741,1987.3 712.814,1991.21 C706.689,1995.18 702.944,1998.01 701.58,1999.71 C700.861,2000.61 700.502,2001.56 700.502,2002.53 C700.502,2003.64 700.929,2004.58 701.783,2005.36 C702.564,2006.21 703.538,2006.63 704.705,2006.63 C706.59,2006.63 710.564,2004.68 716.627,2000.77 C722.616,1996.86 726.325,1994.03 727.752,1992.27 C728.471,1991.43 728.83,1990.48 728.83,1989.44 M723.658,1982.22 C729.252,1982.22 732.049,1984.63 732.049,1989.44 C732.049,1991.78 731.366,1994.52 730.002,1997.64 C728.637,2000.71 726.814,2003.05 724.533,2004.68 C719.523,2008.06 713.241,2009.75 705.689,2009.75 C700.085,2009.75 697.283,2007.35 697.283,2002.53 C697.283,2000.39 697.965,1997.69 699.33,1994.43 C700.632,1991.3 702.455,1988.93 704.799,1987.3 C709.819,1983.91 716.106,1982.22 723.658,1982.22"/>
<path class="Note" d="M484.819,1969.72 C487.944,1969.72 490.585,1970.53 492.741,1972.16 C494.752,1973.92 495.757,1976.13 495.757,1978.8 C495.757,1983.29 493.45,1987.49 488.835,1991.39 C484.147,1995.3 479.132,1997.25 473.788,1997.25 C470.663,1997.25 468.028,1996.44 465.882,1994.81 C463.861,1993.05 462.851,1990.84 462.851,1988.17 C462.851,1983.68 465.194,1979.49 469.882,1975.58 C474.444,1971.67 479.423,1969.72 484.819,1969.72"/>
<path class="Note" d="M359.55,2007.22 C362.675,2007.22 365.316,2008.04 367.472,2009.66 C369.483,2011.42 370.488,2013.63 370.488,2016.3 C370.488,2020.79 368.181,2024.99 363.566,2028.9 C358.878,2032.8 353.863,2034.75 348.519,2034.75 C345.394,2034.75 342.759,2033.94 340.613,2032.32 C338.592,2030.56 337.582,2028.34 337.582,2025.68 C337.582,2021.19 339.925,2016.99 344.613,2013.08 C349.175,2009.18 354.155,2007.22 359.55,2007.22"/>
<path class="Note" d="M234.281,1994.72 C237.406,1994.72 240.047,1995.54 242.203,1997.16 C244.214,1998.92 245.219,2001.13 245.219,2003.8 C245.219,2008.29 242.912,2012.49 238.297,2016.39 C233.61,2020.3 228.594,2022.25 223.25,2022.25 C220.125,2022.25 217.49,2021.44 215.344,2019.82 C213.323,2018.06 212.313,2015.84 212.313,2013.18 C212.313,2008.69 214.656,2004.49 219.344,2000.58 C223.906,1996.68 228.886,1994.72 234.281,1994.72"/>
<path class="Note" d="M2704.68,1507.19 C2707.81,1507.19 2710.45,1508 2712.6,1509.63 C2714.61,1511.39 2715.62,1513.6 2715.62,1516.27 C2715.62,1520.76 2713.31,1524.96 2708.7,1528.86 C2704.01,1532.77 2698.99,1534.72 2693.65,1534.72 C2690.53,1534.72 2687.89,1533.91 2685.74,1532.29 C2683.72,1530.53 2682.71,1528.31 2682.71,1525.65 C2682.71,1521.16 2685.06,1516.96 2689.74,1513.05 C2694.31,1509.15 2699.29,1507.19 2704.68,1507.19"/>
<path class="Note" d="M2485.04,1494.69 C2488.16,1494.69 2490.8,1495.5 2492.96,1497.13 C2494.97,1498.89 2495.97,1501.1 2495.97,1503.77 C2495.97,1508.26 2493.67,1512.46 2489.05,1516.36 C2484.36,1520.27 2479.35,1522.22 2474,1522.22 C2470.88,1522.22 2468.24,1521.41 2466.1,1519.78 C2464.08,1518.02 2463.07,1515.81 2463.07,1513.14 C2463.07,1508.65 2465.41,1504.46 2470.1,1500.55 C2474.66,1496.64 2479.64,1494.69 2485.04,1494.69"/>
<path class="Note" d="M2265.39,1507.19 C2268.51,1507.19 2271.16,1508 2273.31,1509.63 C2275.32,1511.39 2276.33,1513.6 2276.33,1516.27 C2276.33,1520.76 2274.02,1524.96 2269.41,1528.86 C2264.72,1532.77 2259.7,1534.72 2254.36,1534.72 C2251.23,1534.72 2248.6,1533.91 2246.45,1532.29 C2244.43,1530.53 2243.42,1528.31 2243.42,1525.65 C2243.42,1521.16 2245.76,1516.96 2250.45,1513.05 C2255.01,1509.15 2259.99,1507.19 2265.39,1507.19"/>
<path class="Note" d="M2045.74,1519.69 C2048.87,1519.69 2051.51,1520.51 2053.67,1522.13 C2055.68,1523.89 2056.68,1526.1 2056.68,1528.77 C2056.68,1533.26 2054.37,1537.46 2049.76,1541.36 C2045.07,1545.27 2040.06,1547.22 2034.71,1547.22 C2031.59,1547.22 2028.95,1546.41 2026.81,1544.79 C2024.79,1543.03 2023.77,1540.81 2023.77,1538.15 C2023.77,1533.66 2026.12,1529.46 2030.81,1525.55 C2035.37,1521.65 2040.35,1519.69 2045.74,1519.69"/>
<path class="Note" d="M1624.37,1469.69 C1627.49,1469.69 1630.13,1470.5 1632.29,1472.13 C1634.3,1473.89 1635.31,1476.1 1635.31,1478.77 C1635.31,1483.26 1633,1487.46 1628.38,1491.36 C1623.7,1495.27 1618.68,1497.22 1613.34,1497.22 C1610.21,1497.22 1607.58,1496.41 1605.43,1494.78 C1603.41,1493.02 1602.4,1490.81 1602.4,1488.14 C1602.4,1483.65 1604.74,1479.46 1609.43,1475.55 C1613.99,1471.64 1618.97,1469.69 1624.37,1469.69"/>
<path class="Note" d="M1392.28,1507.19 C1395.41,1507.19 1398.05,1508 1400.21,1509.63 C1402.22,1511.39 1403.22,1513.6 1403.22,1516.27 C1403.22,1520.76 1400.91,1524.96 1396.3,1528.86 C1391.61,1532.77 1386.6,1534.72 1381.25,1534.72 C1378.13,1534.72 1375.49,1533.91 1373.35,1532.29 C1371.33,1530.53 1370.32,1528.31 1370.32,1525.65 C1370.32,1521.16 1372.66,1516.96 1377.35,1513.05 C1381.91,1509.15 1386.89,1507.19 1392.28,1507.19"/>
<path class="Note" d="M1160.2,1532.19 C1163.33,1532.19 1165.97,1533.01 1168.12,1534.63 C1170.13,1536.39 1171.14,1538.6 1171.14,1541.27 C1171.14,1545.76 1168.83,1549.96 1164.22,1553.87 C1159.53,1557.77 1154.51,1559.72 1149.17,1559.72 C1146.04,1559.72 1143.41,1558.91 1141.26,1557.29 C1139.24,1555.53 1138.23,1553.31 1138.23,1550.65 C1138.23,1546.16 1140.58,1541.96 1145.26,1538.05 C1149.83,1534.15 1154.81,1532.19 1160.2,1532.19"/>
<path class="Note" d="M754.866,1469.69 C757.991,1469.69 760.631,1470.5 762.787,1472.13 C764.798,1473.89 765.803,1476.1 765.803,1478.77 C765.803,1483.26 763.496,1487.46 758.881,1491.36 C754.194,1495.27 749.178,1497.22 743.834,1497.22 C740.709,1497.22 738.074,1496.41 735.928,1494.78 C733.907,1493.02 732.897,1490.81 732.897,1488.14 C732.897,1483.65 735.241,1479.46 739.928,1475.55 C744.491,1471.64 749.47,1469.69 754.866,1469.69"/>
<path class="Note" d="M522.782,1507.19 C525.907,1507.19 528.548,1508 530.704,1509.63 C532.714,1511.39 533.72,1513.6 533.72,1516.27 C533.72,1520.76 531.412,1524.96 526.798,1528.86 C522.11,1532.77 517.095,1534.72 511.751,1534.72 C508.626,1534.72 505.99,1533.91 503.845,1532.29 C501.824,1530.53 500.813,1528.31 500.813,1525.65 C500.813,1521.16 503.157,1516.96 507.845,1513.05 C512.407,1509.15 517.386,1507.19 522.782,1507.19"/>
<path class="Note" d="M290.699,1532.19 C293.824,1532.19 296.464,1533.01 298.621,1534.63 C300.631,1536.39 301.636,1538.6 301.636,1541.27 C301.636,1545.76 299.329,1549.96 294.714,1553.87 C290.027,1557.77 285.011,1559.72 279.667,1559.72 C276.542,1559.72 273.907,1558.91 271.761,1557.29 C269.74,1555.53 268.73,1553.31 268.73,1550.65 C268.73,1546.16 271.074,1541.96 275.761,1538.05 C280.324,1534.15 285.303,1532.19 290.699,1532.19"/>
<path class="Note" d="M2628.12,1089.38 C2628.12,1088.28 2627.7,1087.34 2626.85,1086.56 C2626,1085.71 2625.02,1085.29 2623.91,1085.29 C2621.97,1085.29 2618.03,1087.24 2612.1,1091.15 C2605.98,1095.12 2602.23,1097.95 2600.87,1099.65 C2600.15,1100.56 2599.79,1101.5 2599.79,1102.48 C2599.79,1103.58 2600.22,1104.52 2601.07,1105.31 C2601.85,1106.15 2602.83,1106.57 2603.99,1106.57 C2605.88,1106.57 2609.85,1104.62 2615.91,1100.71 C2621.9,1096.81 2625.61,1093.97 2627.04,1092.21 C2627.76,1091.37 2628.12,1090.43 2628.12,1089.38 M2622.95,1082.17 C2628.54,1082.17 2631.34,1084.57 2631.34,1089.38 C2631.34,1091.73 2630.65,1094.46 2629.29,1097.59 C2627.93,1100.65 2626.1,1102.99 2623.82,1104.62 C2618.81,1108 2612.53,1109.7 2604.98,1109.7 C2599.37,1109.7 2596.57,1107.29 2596.57,1102.48 C2596.57,1100.33 2597.25,1097.63 2598.62,1094.37 C2599.92,1091.24 2601.74,1088.87 2604.09,1087.24 C2609.11,1083.86 2615.39,1082.17 2622.95,1082.17"/>
<path class="Note" d="M2272.83,1089.38 C2272.83,1088.28 2272.41,1087.34 2271.56,1086.56 C2270.71,1085.71 2269.73,1085.29 2268.62,1085.29 C2266.68,1085.29 2262.74,1087.24 2256.81,1091.15 C2250.69,1095.12 2246.94,1097.95 2245.58,1099.65 C2244.86,1100.56 2244.5,1101.5 2244.5,1102.48 C2244.5,1103.58 2244.93,1104.52 2245.78,1105.31 C2246.56,1106.15 2247.54,1106.57 2248.7,1106.57 C2250.59,1106.57 2254.56,1104.62 2260.62,1100.71 C2266.61,1096.81 2270.32,1093.97 2271.75,1092.21 C2272.47,1091.37 2272.83,1090.43 2272.83,1089.38 M2267.66,1082.17 C2273.25,1082.17 2276.05,1084.57 2276.05,1089.38 C2276.05,1091.73 2275.36,1094.46 2274,1097.59 C2272.63,1100.65 2270.81,1102.99 2268.53,1104.62 C2263.52,1108 2257.24,1109.7 2249.69,1109.7 C2244.08,1109.7 2241.28,1107.29 2241.28,1102.48 C2241.28,1100.33 2241.96,1097.63 2243.33,1094.37 C2244.63,1091.24 2246.45,1088.87 2248.8,1087.24 C2253.82,1083.86 2260.1,1082.17 2267.66,1082.17"/>
<path class="Note" d="M2054.77,1069.66 C2057.9,1069.66 2060.54,1070.48 2062.7,1072.1 C2064.71,1073.86 2065.71,1076.08 2065.71,1078.74 C2065.71,1083.23 2063.4,1087.43 2058.79,1091.34 C2054.1,1095.24 2049.09,1097.2 2043.74,1097.2 C2040.62,1097.2 2037.98,1096.38 2035.84,1094.76 C2033.82,1093 2032.81,1090.78 2032.81,1088.12 C2032.81,1083.63 2035.15,1079.43 2039.84,1075.52 C2044.4,1071.62 2049.38,1069.66 2054.77,1069.66"/>
<path class="Note" d="M1951.67,1057.16 C1954.79,1057.16 1957.43,1057.98 1959.59,1059.6 C1961.6,1061.36 1962.6,1063.58 1962.6,1066.24 C1962.6,1070.73 1960.3,1074.93 1955.68,1078.84 C1951,1082.74 1945.98,1084.69 1940.64,1084.69 C1937.51,1084.69 1934.88,1083.88 1932.73,1082.26 C1930.71,1080.5 1929.7,1078.28 1929.7,1075.62 C1929.7,1071.13 1932.04,1066.93 1936.73,1063.02 C1941.29,1059.12 1946.27,1057.16 1951.67,1057.16"/>
<path class="Note" d="M1848.56,1044.66 C1851.68,1044.66 1854.33,1045.48 1856.48,1047.1 C1858.49,1048.86 1859.5,1051.07 1859.5,1053.74 C1859.5,1058.23 1857.19,1062.43 1852.58,1066.33 C1847.89,1070.24 1842.87,1072.19 1837.53,1072.19 C1834.4,1072.19 1831.77,1071.38 1829.62,1069.76 C1827.6,1068 1826.59,1065.78 1826.59,1063.12 C1826.59,1058.63 1828.93,1054.43 1833.62,1050.52 C1838.18,1046.62 1843.16,1044.66 1848.56,1044.66"/>
<path class="Note" d="M1496.31,1039.38 C1496.31,1038.28 1495.89,1037.33 1495.05,1036.55 C1494.19,1035.71 1493.21,1035.29 1492.11,1035.29 C1490.16,1035.29 1486.22,1037.24 1480.3,1041.15 C1474.17,1045.12 1470.43,1047.95 1469.06,1049.65 C1468.34,1050.55 1467.98,1051.5 1467.98,1052.47 C1467.98,1053.58 1468.41,1054.52 1469.27,1055.3 C1470.05,1056.15 1471.02,1056.57 1472.19,1056.57 C1474.07,1056.57 1478.05,1054.62 1484.11,1050.71 C1490.1,1046.8 1493.81,1043.97 1495.23,1042.21 C1495.95,1041.37 1496.31,1040.42 1496.31,1039.38 M1491.14,1032.16 C1496.73,1032.16 1499.53,1034.57 1499.53,1039.38 C1499.53,1041.72 1498.85,1044.46 1497.48,1047.58 C1496.12,1050.65 1494.3,1052.99 1492.02,1054.62 C1487,1058 1480.72,1059.69 1473.17,1059.69 C1467.57,1059.69 1464.77,1057.29 1464.77,1052.47 C1464.77,1050.33 1465.45,1047.63 1466.81,1044.37 C1468.11,1041.24 1469.94,1038.87 1472.28,1037.24 C1477.3,1033.85 1483.59,1032.16 1491.14,1032.16"/>
<path class="Note" d="M1130.36,1039.38 C1130.36,1038.28 1129.94,1037.33 1129.1,1036.55 C1128.24,1035.71 1127.26,1035.29 1126.16,1035.29 C1124.21,1035.29 1120.27,1037.24 1114.35,1041.15 C1108.22,1045.12 1104.48,1047.95 1103.11,1049.65 C1102.39,1050.55 1102.03,1051.5 1102.03,1052.47 C1102.03,1053.58 1102.46,1054.52 1103.31,1055.3 C1104.1,1056.15 1105.07,1056.57 1106.24,1056.57 C1108.12,1056.57 1112.1,1054.62 1118.16,1050.71 C1124.15,1046.8 1127.86,1043.97 1129.28,1042.21 C1130,1041.37 1130.36,1040.42 1130.36,1039.38 M1125.19,1032.16 C1130.78,1032.16 1133.58,1034.57 1133.58,1039.38 C1133.58,1041.72 1132.9,1044.46 1131.53,1047.58 C1130.17,1050.65 1128.35,1052.99 1126.06,1054.62 C1121.05,1058 1114.77,1059.69 1107.22,1059.69 C1101.62,1059.69 1098.81,1057.29 1098.81,1052.47 C1098.81,1050.33 1099.5,1047.63 1100.86,1044.37 C1102.16,1041.24 1103.99,1038.87 1106.33,1037.24 C1111.35,1033.85 1117.64,1032.16 1125.19,1032.16"/>
<path class="Note" d="M921.809,1019.66 C924.934,1019.66 927.574,1020.47 929.731,1022.1 C931.741,1023.86 932.746,1026.07 932.746,1028.74 C932.746,1033.23 930.439,1037.43 925.824,1041.33 C921.137,1045.24 916.121,1047.19 910.778,1047.19 C907.653,1047.19 905.017,1046.38 902.871,1044.76 C900.85,1042.99 899.84,1040.78 899.84,1038.11 C899.84,1033.62 902.184,1029.43 906.871,1025.52 C911.434,1021.61 916.413,1019.66 921.809,1019.66"/>
<path class="Note" d="M818.701,1057.16 C821.826,1057.16 824.467,1057.98 826.623,1059.6 C828.634,1061.36 829.639,1063.58 829.639,1066.24 C829.639,1070.73 827.332,1074.93 822.717,1078.84 C818.03,1082.74 813.014,1084.69 807.67,1084.69 C804.545,1084.69 801.91,1083.88 799.764,1082.26 C797.743,1080.5 796.733,1078.28 796.733,1075.62 C796.733,1071.13 799.076,1066.93 803.764,1063.02 C808.326,1059.12 813.306,1057.16 818.701,1057.16"/>
<path class="Note" d="M715.594,1044.66 C718.719,1044.66 721.36,1045.48 723.516,1047.1 C725.526,1048.86 726.532,1051.07 726.532,1053.74 C726.532,1058.23 724.224,1062.43 719.61,1066.33 C714.922,1070.24 709.907,1072.19 704.563,1072.19 C701.438,1072.19 698.803,1071.38 696.657,1069.76 C694.636,1068 693.625,1065.78 693.625,1063.12 C693.625,1058.63 695.969,1054.43 700.657,1050.52 C705.219,1046.62 710.198,1044.66 715.594,1044.66"/>
<path class="Note" d="M578.025,1032.16 C581.15,1032.16 583.79,1032.97 585.947,1034.6 C587.957,1036.36 588.962,1038.57 588.962,1041.24 C588.962,1045.73 586.655,1049.93 582.04,1053.83 C577.353,1057.74 572.337,1059.69 566.993,1059.69 C563.868,1059.69 561.233,1058.88 559.087,1057.26 C557.066,1055.5 556.056,1053.28 556.056,1050.62 C556.056,1046.13 558.4,1041.93 563.087,1038.02 C567.65,1034.12 572.629,1032.16 578.025,1032.16"/>
<path class="Note" d="M474.457,1019.66 C477.582,1019.66 480.223,1020.47 482.379,1022.1 C484.39,1023.86 485.395,1026.07 485.395,1028.74 C485.395,1033.23 483.088,1037.43 478.473,1041.33 C473.785,1045.24 468.77,1047.19 463.426,1047.19 C460.301,1047.19 457.666,1046.38 455.52,1044.76 C453.499,1042.99 452.489,1040.78 452.489,1038.11 C452.489,1033.62 454.832,1029.43 459.52,1025.52 C464.082,1021.61 469.061,1019.66 474.457,1019.66"/>
<path class="Note" d="M370.89,1032.16 C374.015,1032.16 376.656,1032.97 378.812,1034.6 C380.822,1036.36 381.827,1038.57 381.827,1041.24 C381.827,1045.73 379.52,1049.93 374.906,1053.83 C370.218,1057.74 365.202,1059.69 359.859,1059.69 C356.734,1059.69 354.098,1058.88 351.952,1057.26 C349.932,1055.5 348.921,1053.28 348.921,1050.62 C348.921,1046.13 351.265,1041.93 355.952,1038.02 C360.515,1034.12 365.494,1032.16 370.89,1032.16"/>
<path class="Note" d="M267.323,1044.66 C270.448,1044.66 273.088,1045.48 275.244,1047.1 C277.255,1048.86 278.26,1051.07 278.26,1053.74 C278.26,1058.23 275.953,1062.43 271.338,1066.33 C266.651,1070.24 261.635,1072.19 256.291,1072.19 C253.166,1072.19 250.531,1071.38 248.385,1069.76 C246.364,1068 245.354,1065.78 245.354,1063.12 C245.354,1058.63 247.698,1054.43 252.385,1050.52 C256.948,1046.62 261.927,1044.66 267.323,1044.66"/>
<path class="Note" d="M2335.63,551.85 C2335.63,550.746 2335.21,549.803 2334.36,549.022 C2333.51,548.178 2332.53,547.756 2331.43,547.756 C2329.48,547.756 2325.54,549.709 2319.61,553.616 C2313.49,557.584 2309.74,560.418 2308.38,562.116 C2307.66,563.022 2307.3,563.965 2307.3,564.944 C2307.3,566.048 2307.73,566.991 2308.58,567.772 C2309.36,568.616 2310.34,569.038 2311.5,569.038 C2313.39,569.038 2317.36,567.084 2323.43,563.178 C2329.42,559.272 2333.12,556.439 2334.55,554.678 C2335.27,553.834 2335.63,552.892 2335.63,551.85 M2330.46,544.631 C2336.05,544.631 2338.85,547.038 2338.85,551.85 C2338.85,554.194 2338.17,556.928 2336.8,560.053 C2335.44,563.116 2333.61,565.459 2331.33,567.084 C2326.32,570.47 2320.04,572.163 2312.49,572.163 C2306.88,572.163 2304.08,569.756 2304.08,564.944 C2304.08,562.798 2304.76,560.095 2306.13,556.834 C2307.43,553.709 2309.25,551.334 2311.6,549.709 C2316.62,546.324 2322.91,544.631 2330.46,544.631"/>
<path class="Note" d="M1986.42,532.131 C1989.54,532.131 1992.19,532.943 1994.34,534.568 C1996.35,536.328 1997.36,538.542 1997.36,541.209 C1997.36,545.698 1995.05,549.896 1990.44,553.802 C1985.75,557.709 1980.73,559.662 1975.39,559.662 C1972.26,559.662 1969.63,558.849 1967.48,557.224 C1965.46,555.464 1964.45,553.25 1964.45,550.584 C1964.45,546.094 1966.79,541.896 1971.48,537.99 C1976.04,534.084 1981.02,532.131 1986.42,532.131"/>
<path class="Note" d="M1795.4,557.132 C1798.53,557.132 1801.17,557.945 1803.32,559.57 C1805.33,561.33 1806.34,563.544 1806.34,566.21 C1806.34,570.7 1804.03,574.898 1799.42,578.804 C1794.73,582.71 1789.71,584.663 1784.37,584.663 C1781.25,584.663 1778.61,583.851 1776.46,582.226 C1774.44,580.465 1773.43,578.252 1773.43,575.585 C1773.43,571.096 1775.78,566.898 1780.46,562.991 C1785.03,559.085 1790.01,557.132 1795.4,557.132"/>
<path class="Note" d="M1604.38,544.631 C1607.51,544.631 1610.15,545.444 1612.31,547.069 C1614.32,548.829 1615.32,551.043 1615.32,553.709 C1615.32,558.199 1613.01,562.397 1608.4,566.303 C1603.71,570.209 1598.7,572.163 1593.35,572.163 C1590.23,572.163 1587.59,571.35 1585.45,569.725 C1583.43,567.965 1582.41,565.751 1582.41,563.084 C1582.41,558.595 1584.76,554.397 1589.45,550.491 C1594.01,546.584 1598.99,544.631 1604.38,544.631"/>
<path class="Note" d="M993.348,539.349 C993.348,538.245 992.927,537.302 992.083,536.521 C991.229,535.677 990.249,535.256 989.145,535.256 C987.197,535.256 983.26,537.209 977.333,541.115 C971.208,545.084 967.463,547.917 966.098,549.615 C965.38,550.521 965.02,551.464 965.02,552.443 C965.02,553.547 965.447,554.49 966.302,555.271 C967.083,556.115 968.057,556.537 969.223,556.537 C971.109,556.537 975.083,554.584 981.145,550.677 C987.135,546.771 990.843,543.938 992.27,542.177 C992.989,541.334 993.348,540.391 993.348,539.349 M988.177,532.131 C993.77,532.131 996.567,534.537 996.567,539.349 C996.567,541.693 995.885,544.427 994.52,547.552 C993.156,550.615 991.333,552.959 989.052,554.584 C984.041,557.969 977.76,559.662 970.208,559.662 C964.604,559.662 961.802,557.256 961.802,552.443 C961.802,550.297 962.484,547.594 963.848,544.334 C965.15,541.209 966.973,538.834 969.317,537.209 C974.338,533.823 980.624,532.131 988.177,532.131"/>
<path class="Note" d="M648.782,519.63 C651.907,519.63 654.548,520.442 656.704,522.067 C658.715,523.828 659.72,526.041 659.72,528.708 C659.72,533.197 657.413,537.395 652.798,541.302 C648.111,545.208 643.095,547.161 637.751,547.161 C634.626,547.161 631.991,546.349 629.845,544.724 C627.824,542.963 626.814,540.75 626.814,538.083 C626.814,533.593 629.157,529.395 633.845,525.489 C638.407,521.583 643.387,519.63 648.782,519.63"/>
<path class="Note" d="M467.901,519.63 C471.026,519.63 473.666,520.442 475.823,522.067 C477.833,523.828 478.838,526.041 478.838,528.708 C478.838,533.197 476.531,537.395 471.916,541.302 C467.229,545.208 462.213,547.161 456.87,547.161 C453.745,547.161 451.109,546.349 448.963,544.724 C446.942,542.963 445.932,540.75 445.932,538.083 C445.932,533.593 448.276,529.395 452.963,525.489 C457.526,521.583 462.505,519.63 467.901,519.63"/>
<path class="Note" d="M287.019,532.131 C290.144,532.131 292.785,532.943 294.941,534.568 C296.951,536.328 297.957,538.542 297.957,541.209 C297.957,545.698 295.649,549.896 291.035,553.802 C286.347,557.709 281.332,559.662 275.988,559.662 C272.863,559.662 270.227,558.849 268.082,557.224 C266.061,555.464 265.05,553.25 265.05,550.584 C265.05,546.094 267.394,541.896 272.082,537.99 C276.644,534.084 281.623,532.131 287.019,532.131"/>
<path class="Clef" d="M123.586,1970.39 C123.586,1970.39 123.784,1970.39 124.18,1970.39 C124.44,1970.33 124.664,1970.3 124.852,1970.3 C132.143,1970.3 138.133,1972.87 142.82,1978.02 C147.508,1983.09 149.852,1989.01 149.852,1995.78 C149.852,2004.19 146.372,2011.03 139.414,2016.3 C137.591,2017.74 135.211,2018.91 132.274,2019.82 C132.607,2024.04 132.774,2027.46 132.774,2030.07 C132.774,2030.59 132.706,2032.48 132.57,2035.74 C132.31,2041.79 130.227,2047.03 126.32,2051.46 C122.55,2055.82 117.862,2058 112.258,2058 C106.987,2058 102.497,2056.15 98.7891,2052.44 C95.0704,2048.66 93.211,2044.1 93.211,2038.77 C93.211,2035.97 94.2891,2033.59 96.4454,2031.63 C98.6537,2029.68 101.221,2028.71 104.149,2028.71 C106.753,2028.71 108.935,2029.72 110.695,2031.74 C112.518,2033.62 113.43,2035.97 113.43,2038.77 C113.43,2041.3 112.518,2043.48 110.695,2045.3 C108.872,2047.12 106.69,2048.03 104.149,2048.03 C103.107,2048.03 102.102,2047.84 101.133,2047.46 C103.997,2051.69 107.805,2053.8 112.555,2053.8 C117.044,2053.8 120.721,2051.98 123.586,2048.33 C126.586,2044.56 128.216,2040.16 128.477,2035.14 C128.602,2032.02 128.664,2030.23 128.664,2029.78 C128.664,2026.14 128.534,2023.14 128.274,2020.8 C125.024,2021.32 122.128,2021.58 119.586,2021.58 C110.534,2021.58 102.82,2018 96.4454,2010.83 C90.1954,2003.6 87.0704,1995.01 87.0704,1985.05 C87.0704,1982.97 87.2631,1980.85 87.6485,1978.71 C88.0443,1976.95 88.5339,1975.02 89.1173,1972.94 C89.4402,1971.76 90.3204,1969.87 91.7579,1967.27 C92.2787,1966.49 92.8647,1965.51 93.5157,1964.34 C94.1667,1963.17 94.6225,1962.39 94.8829,1962 C95.5287,1960.7 96.7943,1958.94 98.6798,1956.72 C99.2006,1956.14 99.7397,1955.49 100.297,1954.78 C100.854,1954.06 101.328,1953.48 101.719,1953.02 C102.109,1952.56 102.401,1952.2 102.594,1951.94 C102.787,1951.68 104.253,1949.96 106.992,1946.77 C107.638,1946.11 108.271,1945.41 108.891,1944.67 C109.51,1943.92 110.016,1943.34 110.406,1942.91 C110.797,1942.48 111.091,1942.18 111.289,1941.99 C108.945,1934.24 107.477,1928.05 106.883,1923.43 C106.435,1919.72 106.211,1914.64 106.211,1908.19 C106.211,1902.52 107.513,1897.22 110.117,1892.27 C112.649,1887.13 116.195,1882.94 120.758,1879.68 C121.018,1879.48 121.341,1879.38 121.727,1879.38 C122.185,1879.38 122.513,1879.48 122.711,1879.68 C126.221,1883.9 129.247,1889.4 131.789,1896.18 C134.393,1902.95 135.695,1909.1 135.695,1914.64 C135.695,1920.89 134.201,1926.75 131.211,1932.22 C127.826,1938.01 123.461,1944 118.117,1950.19 C119.482,1954.48 121.305,1961.22 123.586,1970.39 M131.883,2015.82 C135.268,2014.58 137.909,2012.46 139.805,2009.47 C141.888,2006.61 142.93,2003.38 142.93,1999.8 C142.93,1995.18 141.367,1991.07 138.242,1987.49 C135.044,1983.78 130.971,1981.7 126.024,1981.24 C128.826,1994.98 130.779,2006.5 131.883,2015.82 M94.1016,1993.25 C94.1016,1999.7 96.7058,2005.37 101.914,2010.25 C107.247,2015 113.237,2017.38 119.883,2017.38 C122.612,2017.38 125.279,2017.18 127.883,2016.78 C126.841,2006.89 124.789,1995.04 121.727,1981.24 C118.018,1981.63 115.06,1982.94 112.852,1985.14 C110.695,1987.43 109.617,1990 109.617,1992.86 C109.617,1997.81 112.258,2001.82 117.539,2004.88 C117.987,2005.34 118.211,2005.83 118.211,2006.35 C118.211,2006.87 117.987,2007.35 117.539,2007.8 C117.143,2008.26 116.654,2008.49 116.07,2008.49 C116.008,2008.49 115.716,2008.43 115.195,2008.3 C111.477,2006.28 108.612,2003.68 106.602,2000.49 C104.706,1997.09 103.758,1993.67 103.758,1990.22 C103.758,1985.73 105.159,1981.66 107.961,1978.02 C110.888,1974.37 114.695,1972.03 119.383,1970.99 C117.56,1963.7 116.065,1958 114.899,1953.89 C113.857,1955.07 112.604,1956.49 111.141,1958.14 C109.677,1959.8 108.815,1960.79 108.555,1961.13 C106.211,1964.18 104.419,1966.56 103.18,1968.25 C100.961,1971.32 99.3308,1973.95 98.2891,1976.16 C97.185,1978.64 96.211,1981.34 95.3673,1984.27 C94.5235,1987.07 94.1016,1990.07 94.1016,1993.25 M126.711,1893.94 C121.826,1896.35 117.987,1899.79 115.195,1904.28 C112.331,1908.91 110.899,1913.89 110.899,1919.22 C110.899,1923.91 112.07,1930.23 114.414,1938.18 C119.102,1932.51 122.617,1927.27 124.961,1922.46 C127.43,1917.37 128.664,1912.07 128.664,1906.53 C128.664,1902.37 128.013,1898.17 126.711,1893.94"/>
<path class="Clef" d="M123.586,1495.36 C123.586,1495.36 123.784,1495.36 124.18,1495.36 C124.44,1495.3 124.664,1495.27 124.852,1495.27 C132.143,1495.27 138.133,1497.84 142.82,1502.99 C147.508,1508.06 149.852,1513.98 149.852,1520.75 C149.852,1529.16 146.372,1536 139.414,1541.27 C137.591,1542.71 135.211,1543.88 132.274,1544.79 C132.607,1549.01 132.774,1552.43 132.774,1555.04 C132.774,1555.56 132.706,1557.45 132.57,1560.71 C132.31,1566.76 130.227,1572 126.32,1576.43 C122.55,1580.79 117.862,1582.97 112.258,1582.97 C106.987,1582.97 102.497,1581.12 98.7891,1577.41 C95.0704,1573.63 93.211,1569.07 93.211,1563.74 C93.211,1560.94 94.2891,1558.56 96.4454,1556.6 C98.6537,1554.65 101.221,1553.68 104.149,1553.68 C106.753,1553.68 108.935,1554.69 110.695,1556.71 C112.518,1558.59 113.43,1560.94 113.43,1563.74 C113.43,1566.27 112.518,1568.45 110.695,1570.27 C108.872,1572.09 106.69,1573 104.149,1573 C103.107,1573 102.102,1572.81 101.133,1572.43 C103.997,1576.66 107.805,1578.77 112.555,1578.77 C117.044,1578.77 120.721,1576.95 123.586,1573.3 C126.586,1569.53 128.216,1565.13 128.477,1560.11 C128.602,1556.99 128.664,1555.2 128.664,1554.75 C128.664,1551.11 128.534,1548.11 128.274,1545.77 C125.024,1546.29 122.128,1546.55 119.586,1546.55 C110.534,1546.55 102.82,1542.97 96.4454,1535.8 C90.1954,1528.57 87.0704,1519.98 87.0704,1510.02 C87.0704,1507.94 87.2631,1505.82 87.6485,1503.68 C88.0443,1501.92 88.5339,1499.99 89.1173,1497.91 C89.4402,1496.73 90.3204,1494.84 91.7579,1492.24 C92.2787,1491.46 92.8647,1490.48 93.5157,1489.31 C94.1667,1488.14 94.6225,1487.36 94.8829,1486.97 C95.5287,1485.67 96.7943,1483.91 98.6798,1481.69 C99.2006,1481.11 99.7397,1480.46 100.297,1479.75 C100.854,1479.03 101.328,1478.45 101.719,1477.99 C102.109,1477.53 102.401,1477.17 102.594,1476.91 C102.787,1476.65 104.253,1474.93 106.992,1471.74 C107.638,1471.08 108.271,1470.38 108.891,1469.64 C109.51,1468.89 110.016,1468.31 110.406,1467.88 C110.797,1467.45 111.091,1467.15 111.289,1466.96 C108.945,1459.21 107.477,1453.02 106.883,1448.4 C106.435,1444.69 106.211,1439.61 106.211,1433.16 C106.211,1427.49 107.513,1422.19 110.117,1417.24 C112.649,1412.1 116.195,1407.91 120.758,1404.65 C121.018,1404.45 121.341,1404.35 121.727,1404.35 C122.185,1404.35 122.513,1404.45 122.711,1404.65 C126.221,1408.87 129.247,1414.37 131.789,1421.15 C134.393,1427.92 135.695,1434.07 135.695,1439.61 C135.695,1445.86 134.201,1451.72 131.211,1457.19 C127.826,1462.98 123.461,1468.97 118.117,1475.16 C119.482,1479.45 121.305,1486.19 123.586,1495.36 M131.883,1540.79 C135.268,1539.55 137.909,1537.43 139.805,1534.44 C141.888,1531.58 142.93,1528.35 142.93,1524.77 C142.93,1520.15 141.367,1516.04 138.242,1512.46 C135.044,1508.75 130.971,1506.67 126.024,1506.21 C128.826,1519.95 130.779,1531.47 131.883,1540.79 M94.1016,1518.22 C94.1016,1524.67 96.7058,1530.34 101.914,1535.22 C107.247,1539.97 113.237,1542.35 119.883,1542.35 C122.612,1542.35 125.279,1542.15 127.883,1541.75 C126.841,1531.86 124.789,1520.01 121.727,1506.21 C118.018,1506.6 115.06,1507.91 112.852,1510.11 C110.695,1512.4 109.617,1514.97 109.617,1517.83 C109.617,1522.78 112.258,1526.79 117.539,1529.85 C117.987,1530.31 118.211,1530.8 118.211,1531.32 C118.211,1531.84 117.987,1532.32 117.539,1532.77 C117.143,1533.23 116.654,1533.46 116.07,1533.46 C116.008,1533.46 115.716,1533.4 115.195,1533.27 C111.477,1531.25 108.612,1528.65 106.602,1525.46 C104.706,1522.06 103.758,1518.64 103.758,1515.19 C103.758,1510.7 105.159,1506.63 107.961,1502.99 C110.888,1499.34 114.695,1497 119.383,1495.96 C117.56,1488.67 116.065,1482.97 114.899,1478.86 C113.857,1480.04 112.604,1481.46 111.141,1483.11 C109.677,1484.77 108.815,1485.76 108.555,1486.1 C106.211,1489.15 104.419,1491.53 103.18,1493.22 C100.961,1496.29 99.3308,1498.92 98.2891,1501.13 C97.185,1503.61 96.211,1506.31 95.3673,1509.24 C94.5235,1512.04 94.1016,1515.04 94.1016,1518.22 M126.711,1418.91 C121.826,1421.32 117.987,1424.76 115.195,1429.25 C112.331,1433.88 110.899,1438.86 110.899,1444.19 C110.899,1448.88 112.07,1455.2 114.414,1463.15 C119.102,1457.48 122.617,1452.24 124.961,1447.43 C127.43,1442.34 128.664,1437.04 128.664,1431.5 C128.664,1427.34 128.013,1423.14 126.711,1418.91"/>
<path class="Clef" d="M123.586,1020.33 C123.586,1020.33 123.784,1020.33 124.18,1020.33 C124.44,1020.27 124.664,1020.24 124.852,1020.24 C132.143,1020.24 138.133,1022.81 142.82,1027.96 C147.508,1033.03 149.852,1038.95 149.852,1045.72 C149.852,1054.13 146.372,1060.97 139.414,1066.24 C137.591,1067.68 135.211,1068.85 132.274,1069.76 C132.607,1073.98 132.774,1077.4 132.774,1080.01 C132.774,1080.53 132.706,1082.42 132.57,1085.68 C132.31,1091.73 130.227,1096.97 126.32,1101.4 C122.55,1105.76 117.862,1107.94 112.258,1107.94 C106.987,1107.94 102.497,1106.09 98.7891,1102.38 C95.0704,1098.6 93.211,1094.04 93.211,1088.71 C93.211,1085.91 94.2891,1083.53 96.4454,1081.57 C98.6537,1079.62 101.221,1078.65 104.149,1078.65 C106.753,1078.65 108.935,1079.66 110.695,1081.68 C112.518,1083.56 113.43,1085.91 113.43,1088.71 C113.43,1091.24 112.518,1093.42 110.695,1095.24 C108.872,1097.06 106.69,1097.97 104.149,1097.97 C103.107,1097.97 102.102,1097.78 101.133,1097.4 C103.997,1101.63 107.805,1103.74 112.555,1103.74 C117.044,1103.74 120.721,1101.92 123.586,1098.27 C126.586,1094.5 128.216,1090.1 128.477,1085.08 C128.602,1081.96 128.664,1080.17 128.664,1079.72 C128.664,1076.08 128.534,1073.08 128.274,1070.74 C125.024,1071.26 122.128,1071.52 119.586,1071.52 C110.534,1071.52 102.82,1067.94 96.4454,1060.77 C90.1954,1053.54 87.0704,1044.95 87.0704,1034.99 C87.0704,1032.91 87.2631,1030.79 87.6485,1028.65 C88.0443,1026.89 88.5339,1024.96 89.1173,1022.88 C89.4402,1021.7 90.3204,1019.81 91.7579,1017.21 C92.2787,1016.43 92.8647,1015.45 93.5157,1014.28 C94.1667,1013.11 94.6225,1012.33 94.8829,1011.94 C95.5287,1010.64 96.7943,1008.88 98.6798,1006.66 C99.2006,1006.08 99.7397,1005.43 100.297,1004.72 C100.854,1004 101.328,1003.42 101.719,1002.96 C102.109,1002.5 102.401,1002.14 102.594,1001.88 C102.787,1001.62 104.253,999.896 106.992,996.709 C107.638,996.053 108.271,995.352 108.891,994.607 C109.51,993.863 110.016,993.277 110.406,992.85 C110.797,992.422 111.091,992.115 111.289,991.928 C108.945,984.178 107.477,977.99 106.883,973.365 C106.435,969.657 106.211,964.579 106.211,958.131 C106.211,952.464 107.513,947.157 110.117,942.209 C112.649,937.074 116.195,932.876 120.758,929.615 C121.018,929.417 121.341,929.318 121.727,929.318 C122.185,929.318 122.513,929.417 122.711,929.615 C126.221,933.844 129.247,939.344 131.789,946.115 C134.393,952.886 135.695,959.042 135.695,964.584 C135.695,970.834 134.201,976.693 131.211,982.162 C127.826,987.954 123.461,993.943 118.117,1000.13 C119.482,1004.42 121.305,1011.16 123.586,1020.33 M131.883,1065.76 C135.268,1064.52 137.909,1062.4 139.805,1059.41 C141.888,1056.55 142.93,1053.32 142.93,1049.74 C142.93,1045.12 141.367,1041.01 138.242,1037.43 C135.044,1033.72 130.971,1031.64 126.024,1031.18 C128.826,1044.92 130.779,1056.44 131.883,1065.76 M94.1016,1043.19 C94.1016,1049.64 96.7058,1055.31 101.914,1060.19 C107.247,1064.94 113.237,1067.32 119.883,1067.32 C122.612,1067.32 125.279,1067.12 127.883,1066.72 C126.841,1056.83 124.789,1044.98 121.727,1031.18 C118.018,1031.57 115.06,1032.88 112.852,1035.08 C110.695,1037.37 109.617,1039.94 109.617,1042.8 C109.617,1047.75 112.258,1051.76 117.539,1054.82 C117.987,1055.28 118.211,1055.77 118.211,1056.29 C118.211,1056.81 117.987,1057.29 117.539,1057.74 C117.143,1058.2 116.654,1058.43 116.07,1058.43 C116.008,1058.43 115.716,1058.37 115.195,1058.24 C111.477,1056.22 108.612,1053.62 106.602,1050.43 C104.706,1047.03 103.758,1043.61 103.758,1040.16 C103.758,1035.67 105.159,1031.6 107.961,1027.96 C110.888,1024.31 114.695,1021.97 119.383,1020.93 C117.56,1013.64 116.065,1007.94 114.899,1003.83 C113.857,1005.01 112.604,1006.43 111.141,1008.08 C109.677,1009.74 108.815,1010.73 108.555,1011.07 C106.211,1014.12 104.419,1016.5 103.18,1018.19 C100.961,1021.26 99.3308,1023.89 98.2891,1026.1 C97.185,1028.58 96.211,1031.28 95.3673,1034.21 C94.5235,1037.01 94.1016,1040.01 94.1016,1043.19 M126.711,943.881 C121.826,946.287 117.987,949.735 115.195,954.225 C112.331,958.85 110.899,963.829 110.899,969.162 C110.899,973.85 112.07,980.167 114.414,988.115 C119.102,982.449 122.617,977.209 124.961,972.396 C127.43,967.313 128.664,962.006 128.664,956.475 C128.664,952.308 128.013,948.11 126.711,943.881"/>
<path class="Clef" d="M123.586,545.304 C123.586,545.304 123.784,545.304 124.18,545.304 C124.44,545.241 124.664,545.21 124.852,545.21 C132.143,545.21 138.133,547.783 142.82,552.929 C147.508,558.002 149.852,563.924 149.852,570.695 C149.852,579.101 146.372,585.939 139.414,591.21 C137.591,592.648 135.211,593.82 132.274,594.726 C132.607,598.955 132.774,602.372 132.774,604.976 C132.774,605.497 132.706,607.387 132.57,610.648 C132.31,616.7 130.227,621.939 126.32,626.366 C122.55,630.731 117.862,632.913 112.258,632.913 C106.987,632.913 102.497,631.059 98.7891,627.351 C95.0704,623.57 93.211,619.012 93.211,613.679 C93.211,610.877 94.2891,608.497 96.4454,606.538 C98.6537,604.59 101.221,603.616 104.149,603.616 C106.753,603.616 108.935,604.627 110.695,606.648 C112.518,608.533 113.43,610.877 113.43,613.679 C113.43,616.21 112.518,618.387 110.695,620.21 C108.872,622.033 106.69,622.945 104.149,622.945 C103.107,622.945 102.102,622.752 101.133,622.366 C103.997,626.596 107.805,628.71 112.555,628.71 C117.044,628.71 120.721,626.887 123.586,623.241 C126.586,619.471 128.216,615.075 128.477,610.054 C128.602,606.929 128.664,605.143 128.664,604.695 C128.664,601.049 128.534,598.054 128.274,595.71 C125.024,596.231 122.128,596.491 119.586,596.491 C110.534,596.491 102.82,592.908 96.4454,585.741 C90.1954,578.512 87.0704,569.919 87.0704,559.96 C87.0704,557.877 87.2631,555.762 87.6485,553.616 C88.0443,551.856 88.5339,549.934 89.1173,547.851 C89.4402,546.674 90.3204,544.783 91.7579,542.179 C92.2787,541.398 92.8647,540.421 93.5157,539.249 C94.1667,538.077 94.6225,537.299 94.8829,536.913 C95.5287,535.611 96.7943,533.851 98.6798,531.632 C99.2006,531.049 99.7397,530.4 100.297,529.687 C100.854,528.973 101.328,528.387 101.719,527.929 C102.109,527.471 102.401,527.111 102.594,526.851 C102.787,526.59 104.253,524.866 106.992,521.679 C107.638,521.023 108.271,520.322 108.891,519.577 C109.51,518.833 110.016,518.247 110.406,517.82 C110.797,517.393 111.091,517.085 111.289,516.898 C108.945,509.148 107.477,502.96 106.883,498.335 C106.435,494.627 106.211,489.549 106.211,483.101 C106.211,477.434 107.513,472.127 110.117,467.179 C112.649,462.044 116.195,457.846 120.758,454.585 C121.018,454.387 121.341,454.288 121.727,454.288 C122.185,454.288 122.513,454.387 122.711,454.585 C126.221,458.814 129.247,464.314 131.789,471.085 C134.393,477.856 135.695,484.012 135.695,489.554 C135.695,495.804 134.201,501.663 131.211,507.132 C127.826,512.924 123.461,518.913 118.117,525.101 C119.482,529.393 121.305,536.127 123.586,545.304 M131.883,590.726 C135.268,589.486 137.909,587.372 139.805,584.382 C141.888,581.518 142.93,578.294 142.93,574.71 C142.93,570.085 141.367,565.981 138.242,562.398 C135.044,558.689 130.971,556.606 126.024,556.148 C128.826,569.887 130.779,581.413 131.883,590.726 M94.1016,568.163 C94.1016,574.611 96.7058,580.278 101.914,585.163 C107.247,589.913 113.237,592.288 119.883,592.288 C122.612,592.288 125.279,592.09 127.883,591.695 C126.841,581.799 124.789,569.95 121.727,556.148 C118.018,556.544 115.06,557.846 112.852,560.054 C110.695,562.335 109.617,564.908 109.617,567.773 C109.617,572.721 112.258,576.726 117.539,579.788 C117.987,580.247 118.211,580.736 118.211,581.257 C118.211,581.778 117.987,582.262 117.539,582.71 C117.143,583.169 116.654,583.398 116.07,583.398 C116.008,583.398 115.716,583.335 115.195,583.21 C111.477,581.189 108.612,578.585 106.602,575.398 C104.706,572.002 103.758,568.58 103.758,565.132 C103.758,560.643 105.159,556.575 107.961,552.929 C110.888,549.283 114.695,546.939 119.383,545.898 C117.56,538.606 116.065,532.908 114.899,528.804 C113.857,529.981 112.604,531.398 111.141,533.054 C109.677,534.71 108.815,535.705 108.555,536.038 C106.211,539.09 104.419,541.465 103.18,543.163 C100.961,546.226 99.3308,548.861 98.2891,551.07 C97.185,553.549 96.211,556.252 95.3673,559.179 C94.5235,561.981 94.1016,564.976 94.1016,568.163 M126.711,468.851 C121.826,471.257 117.987,474.705 115.195,479.195 C112.331,483.82 110.899,488.799 110.899,494.132 C110.899,498.82 112.07,505.137 114.414,513.085 C119.102,507.419 122.617,502.179 124.961,497.366 C127.43,492.283 128.664,486.976 128.664,481.445 C128.664,477.278 128.013,473.08 126.711,468.851"/>
<path class="TimeSig" d="M199.795,545.895 C197.836,545.895 196.076,545.538 194.514,544.824 C192.951,544.111 191.847,543.363 191.201,542.582 C190.347,541.603 189.498,540.853 188.654,540.332 C187.613,539.613 186.54,539.254 185.435,539.254 C183.738,539.254 182.336,539.775 181.232,540.816 C180.066,541.796 179.415,543.129 179.279,544.816 C179.154,545.535 178.764,545.895 178.107,545.895 C177.326,545.895 176.935,545.535 176.935,544.816 C176.935,542.285 177.524,540.009 178.701,537.988 C179.868,535.905 181.3,534.181 182.998,532.816 C184.425,531.577 186.31,530.077 188.654,528.316 C189.05,527.994 189.881,527.311 191.146,526.27 C192.412,525.228 193.472,524.348 194.326,523.629 C196.014,522.202 197.477,520.311 198.717,517.957 C199.883,515.613 200.467,513.077 200.467,510.348 C200.467,507.025 199.915,504.16 198.81,501.754 C197.644,499.41 195.852,498.238 193.435,498.238 C191.946,498.238 190.743,498.561 189.826,499.207 C188.847,499.863 188.357,500.744 188.357,501.848 C188.357,502.764 188.943,503.905 190.115,505.27 C191.287,506.634 191.873,507.775 191.873,508.691 C191.873,510.639 191.191,512.296 189.826,513.66 C188.524,514.962 186.93,515.613 185.045,515.613 C183.086,515.613 181.425,514.931 180.06,513.566 C178.758,512.139 178.107,510.514 178.107,508.691 C178.107,504.973 179.605,501.91 182.599,499.504 C185.594,497.098 189.206,495.895 193.435,495.895 C198.456,495.895 202.821,497.259 206.529,499.988 C210.238,502.593 212.092,506.046 212.092,510.348 C212.092,513.275 211.571,515.78 210.529,517.863 C209.55,520.082 208.086,521.811 206.139,523.051 C203.92,524.478 201.998,525.582 200.373,526.363 C198.092,527.405 195.816,528.384 193.545,529.301 C190.805,530.405 188.685,531.447 187.185,532.426 C188.04,532.228 188.92,532.129 189.826,532.129 C192.826,532.129 195.951,533.103 199.201,535.051 C202.524,537.009 205.097,537.988 206.92,537.988 C208.024,537.988 208.904,537.79 209.56,537.395 C210.206,537.009 210.628,536.587 210.826,536.129 C211.086,535.483 211.316,535.03 211.514,534.77 C211.774,534.374 212.097,534.176 212.482,534.176 C213.264,534.176 213.654,534.566 213.654,535.348 C213.654,537.171 212.352,539.384 209.748,541.988 C207.206,544.593 203.889,545.895 199.795,545.895"/>
<path class="TimeSig" d="M197.607,547.249 C199.555,547.249 201.214,547.023 202.584,546.57 C203.954,546.117 204.831,545.89 205.217,545.89 C205.675,545.89 206.034,546.02 206.295,546.281 C206.493,546.468 206.623,546.692 206.685,546.952 C206.685,547.088 206.618,547.286 206.482,547.546 L178.076,580.562 L194.763,580.562 L194.763,567.468 C194.763,566.624 194.993,565.906 195.451,565.312 C196.232,564.666 196.883,564.275 197.404,564.14 C198.248,563.755 199.289,562.843 200.529,561.406 C201.571,560.239 202.81,558.192 204.248,555.265 C204.435,554.869 204.727,554.671 205.123,554.671 C205.904,554.671 206.357,555.13 206.482,556.046 L206.482,580.562 L213.623,580.562 C214.529,580.562 215.05,581.046 215.185,582.015 C215.185,582.994 214.664,583.484 213.623,583.484 L206.482,583.484 L206.482,584.265 C206.482,586.869 207.133,589.083 208.435,590.906 C209.935,592.728 211.696,593.64 213.717,593.64 C214.498,593.64 214.888,594.031 214.888,594.812 C214.888,595.593 214.498,595.984 213.717,595.984 C212.352,595.984 210.138,595.791 207.076,595.406 C204.274,594.947 202.092,594.718 200.529,594.718 C198.904,594.718 196.722,594.947 193.982,595.406 C191.055,595.791 188.878,595.984 187.451,595.984 C186.67,595.984 186.279,595.593 186.279,594.812 C186.279,594.031 186.67,593.64 187.451,593.64 C189.461,593.64 191.217,592.728 192.717,590.906 C194.081,589.02 194.763,586.807 194.763,584.265 L194.763,583.484 L178.076,583.484 C176.961,583.484 176.18,583.223 175.732,582.702 C175.201,582.317 174.935,581.796 174.935,581.14 C174.935,580.942 175.425,580.26 176.404,579.093 C177.519,577.791 178.691,576.197 179.92,574.312 C181.357,572.093 182.727,569.812 184.029,567.468 C185.456,564.801 186.597,561.739 187.451,558.281 C188.42,554.77 188.904,551.192 188.904,547.546 C188.904,546.505 189.362,545.984 190.279,545.984 C190.477,545.984 190.899,546.083 191.545,546.281 C191.743,546.343 192.151,546.439 192.771,546.57 C193.391,546.7 193.894,546.827 194.279,546.952 C195.456,547.15 196.566,547.249 197.607,547.249"/>
<path class="Beam" fill-rule="evenodd" d="M1614.29,1933.31 L1742.81,1939.73 L1742.81,1952.24 L1614.29,1945.83 L1614.29,1933.31 "/>
<path class="Beam" fill-rule="evenodd" d="M241.979,1933.31 L370.498,1939.73 L370.498,1952.24 L241.979,1945.83 L241.979,1933.31 "/>
<path class="Beam" fill-rule="evenodd" d="M2492.73,1433.36 L2715.63,1439.7 L2715.63,1452.21 L2492.73,1445.86 L2492.73,1433.36 "/>
<path class="Beam" fill-rule="evenodd" d="M2053.44,1446.04 L2276.34,1439.7 L2276.34,1452.21 L2053.44,1458.55 L2053.44,1446.04 "/>
<path class="Beam" fill-rule="evenodd" d="M1167.9,1465.02 L1403.23,1439.67 L1403.23,1452.24 L1167.9,1477.59 L1167.9,1465.02 "/>
<path class="Beam" fill-rule="evenodd" d="M298.396,1465.02 L533.729,1439.67 L533.729,1452.24 L298.396,1477.59 L298.396,1465.02 "/>
<path class="Beam" fill-rule="evenodd" d="M1856.26,983.215 L1962.61,989.663 L1962.61,1002.19 L1856.26,995.739 L1856.26,983.215 "/>
<path class="Beam" fill-rule="evenodd" d="M723.291,983.215 L829.649,989.663 L829.649,1002.19 L723.291,995.739 L723.291,983.215 "/>
<path class="Beam" fill-rule="evenodd" d="M482.154,958.215 L588.972,964.661 L588.972,977.185 L482.154,970.738 L482.154,958.215 "/>
<path class="Beam" fill-rule="evenodd" d="M275.02,971.108 L381.837,964.661 L381.837,977.185 L275.02,983.631 L275.02,971.108 "/>
<path class="Beam" fill-rule="evenodd" d="M1612.08,483.283 L1806.35,489.639 L1806.35,502.147 L1612.08,495.79 L1612.08,483.283 "/>
<path class="Beam" fill-rule="evenodd" d="M265.05,614.647 L449.182,608.284 L449.182,620.792 L265.05,627.155 L265.05,614.647 "/>
<path class="VoltaSegment" d="M1568.83,1856.88 C1571.62,1849.4 1575.65,1845.66 1580.92,1845.66 C1583.89,1845.66 1586.33,1846.6 1588.24,1848.49 C1590.15,1850.37 1591.11,1852.78 1591.11,1855.72 C1591.11,1859.75 1589.01,1863.75 1584.83,1867.7 L1575.92,1876.17 L1584.23,1876.17 C1587.06,1876.17 1588.87,1875.95 1589.67,1875.51 C1590.47,1875.07 1591.28,1873.86 1592.09,1871.88 L1593.4,1871.88 L1590.94,1883.49 L1568.06,1883.49 L1568.06,1882.22 C1574.33,1875.54 1578.49,1870.62 1580.54,1867.45 C1582.6,1864.29 1583.62,1861.44 1583.62,1858.91 C1583.62,1857.03 1583.02,1855.4 1581.81,1854.01 C1580.6,1852.62 1579.02,1851.92 1577.08,1851.92 C1574.25,1851.92 1572.02,1853.57 1570.37,1856.88 L1568.83,1856.88 M1602,1874.91 C1603.28,1874.91 1604.38,1875.37 1605.29,1876.31 C1606.21,1877.24 1606.67,1878.35 1606.67,1879.63 C1606.67,1880.92 1606.21,1882 1605.29,1882.88 C1604.38,1883.76 1603.26,1884.2 1601.94,1884.2 C1600.65,1884.2 1599.57,1883.75 1598.69,1882.85 C1597.81,1881.95 1597.37,1880.85 1597.37,1879.53 C1597.37,1878.28 1597.83,1877.2 1598.75,1876.28 C1599.66,1875.37 1600.75,1874.91 1602,1874.91"/>
<polyline class="VoltaSegment" fill="none" stroke="#000000" stroke-width="2.50" stroke-linecap="square" stroke-linejoin="bevel" points="1554.62,1883.49 1554.62,1835.98"/>
<polyline class="VoltaSegment" fill="none" stroke="#000000" stroke-width="2.50" stroke-linecap="square" stroke-linejoin="bevel" points="1554.62,1835.98 2883.86,1835.98"/>
<path class="VoltaSegment" d="M167.56,1851.7 C167.122,1851.7 166.601,1851.8 165.997,1851.98 C165.393,1852.16 164.75,1852.38 164.067,1852.63 C163.385,1852.89 162.992,1853.04 162.888,1853.08 L162.888,1851.64 L176.747,1845.66 L177.685,1845.66 L177.685,1877 C177.685,1879.13 178.049,1880.51 178.778,1881.15 C179.507,1881.79 181.122,1882.13 183.622,1882.17 L183.622,1883.49 L162.997,1883.49 L162.997,1882.17 C165.705,1882.13 167.474,1881.77 168.302,1881.1 C169.13,1880.42 169.544,1878.94 169.544,1876.67 L169.544,1855.5 C169.544,1852.97 168.882,1851.7 167.56,1851.7 M194.185,1874.91 C195.466,1874.91 196.565,1875.37 197.481,1876.31 C198.398,1877.24 198.856,1878.35 198.856,1879.63 C198.856,1880.92 198.398,1882 197.481,1882.88 C196.565,1883.76 195.445,1884.2 194.122,1884.2 C192.841,1884.2 191.76,1883.75 190.88,1882.85 C190,1881.95 189.56,1880.85 189.56,1879.53 C189.56,1878.28 190.018,1877.2 190.935,1876.28 C191.851,1875.37 192.935,1874.91 194.185,1874.91"/>
<polyline class="VoltaSegment" fill="none" stroke="#000000" stroke-width="2.50" stroke-linecap="square" stroke-linejoin="bevel" points="149.809,1883.49 149.809,1835.98"/>
<polyline class="VoltaSegment" fill="none" stroke="#000000" stroke-width="2.50" stroke-linecap="square" stroke-linejoin="bevel" points="149.809,1835.98 1540.29,1835.98"/>
<polyline class="VoltaSegment" fill="none" stroke="#000000" stroke-width="2.50" stroke-linecap="square" stroke-linejoin="bevel" points="1540.29,1835.98 1540.29,1883.49"/>
<path class="VoltaSegment" d="M1810.79,906.816 C1813.58,899.337 1817.62,895.598 1822.89,895.598 C1825.86,895.598 1828.3,896.54 1830.21,898.426 C1832.12,900.311 1833.07,902.723 1833.07,905.66 C1833.07,909.691 1830.98,913.686 1826.79,917.645 L1817.89,926.113 L1826.2,926.113 C1829.02,926.113 1830.83,925.892 1831.64,925.449 C1832.44,925.007 1833.25,923.796 1834.06,921.816 L1835.37,921.816 L1832.9,933.426 L1810.03,933.426 L1810.03,932.16 C1816.3,925.483 1820.46,920.561 1822.51,917.395 C1824.56,914.228 1825.59,911.379 1825.59,908.848 C1825.59,906.973 1824.99,905.34 1823.78,903.949 C1822.57,902.559 1820.99,901.863 1819.04,901.863 C1816.22,901.863 1813.99,903.514 1812.34,906.816 L1810.79,906.816 M1843.96,924.848 C1845.25,924.848 1846.35,925.314 1847.26,926.246 C1848.18,927.178 1848.64,928.288 1848.64,929.574 C1848.64,930.861 1848.18,931.944 1847.26,932.824 C1846.35,933.704 1845.23,934.145 1843.9,934.145 C1842.62,934.145 1841.54,933.694 1840.66,932.793 C1839.78,931.892 1839.34,930.785 1839.34,929.473 C1839.34,928.223 1839.8,927.139 1840.71,926.223 C1841.63,925.306 1842.71,924.848 1843.96,924.848"/>
<polyline class="VoltaSegment" fill="none" stroke="#000000" stroke-width="2.50" stroke-linecap="square" stroke-linejoin="bevel" points="1796.59,933.426 1796.59,885.923"/>
<polyline class="VoltaSegment" fill="none" stroke="#000000" stroke-width="2.50" stroke-linecap="square" stroke-linejoin="bevel" points="1796.59,885.923 2892.86,885.923"/>
<path class="VoltaSegment" d="M681.374,901.645 C680.937,901.645 680.416,901.736 679.812,901.918 C679.208,902.1 678.564,902.319 677.882,902.574 C677.2,902.829 676.807,902.978 676.702,903.02 L676.702,901.582 L690.562,895.598 L691.499,895.598 L691.499,926.941 C691.499,929.066 691.864,930.449 692.593,931.09 C693.322,931.731 694.937,932.072 697.437,932.113 L697.437,933.426 L676.812,933.426 L676.812,932.113 C679.52,932.072 681.288,931.712 682.117,931.035 C682.945,930.358 683.359,928.884 683.359,926.613 L683.359,905.441 C683.359,902.91 682.697,901.645 681.374,901.645 M707.999,924.848 C709.281,924.848 710.38,925.314 711.296,926.246 C712.213,927.178 712.671,928.288 712.671,929.574 C712.671,930.861 712.213,931.944 711.296,932.824 C710.38,933.704 709.26,934.145 707.937,934.145 C706.656,934.145 705.575,933.694 704.695,932.793 C703.814,931.892 703.374,930.785 703.374,929.473 C703.374,928.223 703.833,927.139 704.749,926.223 C705.666,925.306 706.749,924.848 707.999,924.848"/>
<polyline class="VoltaSegment" fill="none" stroke="#000000" stroke-width="2.50" stroke-linecap="square" stroke-linejoin="bevel" points="663.624,933.426 663.624,885.923"/>
<polyline class="VoltaSegment" fill="none" stroke="#000000" stroke-width="2.50" stroke-linecap="square" stroke-linejoin="bevel" points="663.624,885.923 1782.25,885.923"/>
<polyline class="VoltaSegment" fill="none" stroke="#000000" stroke-width="2.50" stroke-linecap="square" stroke-linejoin="bevel" points="1782.25,885.923 1782.25,933.426"/>
</svg>
