<?xml version="1.0" encoding="UTF-8" standalone="no"?>
<svg width="2977.2px" height="4208.4px" viewBox="0 0 2977.2 4208.4"
 xmlns="http://www.w3.org/2000/svg" xmlns:xlink="http://www.w3.org/1999/xlink" version="1.2" baseProfile="tiny">
<title>Invartita</title>
<desc>Generated by MuseScore 3.0.2</desc>
<polyline class="StaffLines" fill="none" stroke="#000000" stroke-width="2.00" stroke-linejoin="bevel" points="141.732,566.733 2835.47,566.733"/>
<polyline class="StaffLines" fill="none" stroke="#000000" stroke-width="2.00" stroke-linejoin="bevel" points="141.732,591.733 2835.47,591.733"/>
<polyline class="StaffLines" fill="none" stroke="#000000" stroke-width="2.00" stroke-linejoin="bevel" points="141.732,616.733 2835.47,616.733"/>
<polyline class="StaffLines" fill="none" stroke="#000000" stroke-width="2.00" stroke-linejoin="bevel" points="141.732,641.733 2835.47,641.733"/>
<polyline class="StaffLines" fill="none" stroke="#000000" stroke-width="2.00" stroke-linejoin="bevel" points="141.732,666.733 2835.47,666.733"/>
<polyline class="StaffLines" fill="none" stroke="#000000" stroke-width="2.00" stroke-linejoin="bevel" points="141.732,1041.73 2835.47,1041.73"/>
<polyline class="StaffLines" fill="none" stroke="#000000" stroke-width="2.00" stroke-linejoin="bevel" points="141.732,1066.73 2835.47,1066.73"/>
<polyline class="StaffLines" fill="none" stroke="#000000" stroke-width="2.00" stroke-linejoin="bevel" points="141.732,1091.73 2835.47,1091.73"/>
<polyline class="StaffLines" fill="none" stroke="#000000" stroke-width="2.00" stroke-linejoin="bevel" points="141.732,1116.73 2835.47,1116.73"/>
<polyline class="StaffLines" fill="none" stroke="#000000" stroke-width="2.00" stroke-linejoin="bevel" points="141.732,1141.73 2835.47,1141.73"/>
<polyline class="StaffLines" fill="none" stroke="#000000" stroke-width="2.00" stroke-linejoin="bevel" points="141.732,1516.73 2835.47,1516.73"/>
<polyline class="StaffLines" fill="none" stroke="#000000" stroke-width="2.00" stroke-linejoin="bevel" points="141.732,1541.73 2835.47,1541.73"/>
<polyline class="StaffLines" fill="none" stroke="#000000" stroke-width="2.00" stroke-linejoin="bevel" points="141.732,1566.73 2835.47,1566.73"/>
<polyline class="StaffLines" fill="none" stroke="#000000" stroke-width="2.00" stroke-linejoin="bevel" points="141.732,1591.73 2835.47,1591.73"/>
<polyline class="StaffLines" fill="none" stroke="#000000" stroke-width="2.00" stroke-linejoin="bevel" points="141.732,1616.73 2835.47,1616.73"/>
<path class="Text" d="M1321.62,294.427 L1321.62,296.598 L1287.58,296.598 L1287.58,294.427 L1290.39,294.427 C1293.67,294.427 1296.06,293.468 1297.54,291.552 C1298.48,290.302 1298.95,287.296 1298.95,282.536 L1298.95,231.208 C1298.95,227.187 1298.7,224.531 1298.19,223.239 C1297.8,222.26 1297,221.421 1295.78,220.723 C1294.06,219.786 1292.26,219.317 1290.39,219.317 L1287.58,219.317 L1287.58,217.145 L1321.62,217.145 L1321.62,219.317 L1318.75,219.317 C1315.51,219.317 1313.15,220.27 1311.67,222.177 C1310.69,223.427 1310.2,226.437 1310.2,231.208 L1310.2,282.536 C1310.2,286.557 1310.46,289.213 1310.97,290.505 C1311.35,291.484 1312.17,292.322 1313.42,293.02 C1315.1,293.958 1316.87,294.427 1318.75,294.427 L1321.62,294.427 M1343.98,252.708 C1350.27,245.135 1356.27,241.348 1361.98,241.348 C1364.91,241.348 1367.43,242.08 1369.54,243.544 C1371.65,245.007 1373.33,247.416 1374.58,250.77 C1375.43,253.114 1375.86,256.708 1375.86,261.552 L1375.86,284.473 C1375.86,287.869 1376.13,290.171 1376.69,291.38 C1377.11,292.359 1377.81,293.122 1378.76,293.669 C1379.72,294.216 1381.49,294.489 1384.06,294.489 L1384.06,296.598 L1357.53,296.598 L1357.53,294.489 L1358.64,294.489 C1361.14,294.489 1362.89,294.109 1363.88,293.348 C1364.88,292.588 1365.57,291.463 1365.97,289.973 C1366.12,289.39 1366.2,287.557 1366.2,284.473 L1366.2,262.489 C1366.2,257.614 1365.57,254.072 1364.29,251.864 C1363.02,249.656 1360.88,248.552 1357.87,248.552 C1353.23,248.552 1348.6,251.088 1343.98,256.161 L1343.98,284.473 C1343.98,288.098 1344.2,290.343 1344.64,291.208 C1345.18,292.343 1345.93,293.174 1346.89,293.7 C1347.85,294.226 1349.79,294.489 1352.72,294.489 L1352.72,296.598 L1326.17,296.598 L1326.17,294.489 L1327.34,294.489 C1330.08,294.489 1331.93,293.796 1332.89,292.411 C1333.85,291.026 1334.33,288.38 1334.33,284.473 L1334.33,264.552 C1334.33,258.104 1334.18,254.177 1333.88,252.77 C1333.58,251.364 1333.13,250.406 1332.53,249.895 C1331.92,249.385 1331.12,249.13 1330.11,249.13 C1329.01,249.13 1327.7,249.427 1326.17,250.02 L1325.29,247.911 L1341.47,241.348 L1343.98,241.348 L1343.98,252.708 M1385.59,242.927 L1410.84,242.927 L1410.84,245.098 L1409.2,245.098 C1407.68,245.098 1406.52,245.468 1405.72,246.208 C1404.91,246.947 1404.51,247.942 1404.51,249.192 C1404.51,250.557 1404.92,252.177 1405.75,254.052 L1418.23,283.708 L1430.76,252.942 C1431.66,250.755 1432.11,249.093 1432.11,247.958 C1432.11,247.416 1431.95,246.968 1431.64,246.614 C1431.21,246.031 1430.67,245.632 1430.01,245.419 C1429.34,245.205 1428,245.098 1425.97,245.098 L1425.97,242.927 L1443.48,242.927 L1443.48,245.098 C1441.45,245.255 1440.04,245.661 1439.26,246.317 C1437.9,247.494 1436.67,249.447 1435.58,252.177 L1416.53,298.239 L1414.12,298.239 L1394.97,252.942 C1394.1,250.838 1393.28,249.325 1392.5,248.403 C1391.72,247.481 1390.72,246.708 1389.51,246.083 C1388.85,245.739 1387.54,245.411 1385.59,245.098 L1385.59,242.927 M1478.75,288.864 C1473.25,293.124 1469.79,295.583 1468.39,296.239 C1466.27,297.218 1464.02,297.708 1461.64,297.708 C1457.93,297.708 1454.88,296.44 1452.47,293.903 C1450.07,291.367 1448.87,288.026 1448.87,283.88 C1448.87,281.265 1449.46,278.999 1450.62,277.083 C1452.23,274.427 1455.01,271.927 1458.97,269.583 C1462.94,267.239 1469.53,264.39 1478.75,261.036 L1478.75,258.927 C1478.75,253.572 1477.9,249.898 1476.2,247.903 C1474.5,245.908 1472.03,244.911 1468.79,244.911 C1466.34,244.911 1464.38,245.578 1462.94,246.911 C1461.45,248.234 1460.7,249.755 1460.7,251.473 L1460.83,254.88 C1460.83,256.671 1460.37,258.057 1459.45,259.036 C1458.53,260.015 1457.33,260.505 1455.84,260.505 C1454.39,260.505 1453.21,259.997 1452.29,258.981 C1451.38,257.966 1450.92,256.578 1450.92,254.817 C1450.92,251.463 1452.64,248.38 1456.08,245.567 C1459.51,242.755 1464.34,241.348 1470.54,241.348 C1475.32,241.348 1479.22,242.145 1482.26,243.739 C1484.58,244.958 1486.28,246.854 1487.37,249.427 C1488.07,251.104 1488.42,254.541 1488.42,259.739 L1488.42,277.958 C1488.42,283.083 1488.52,286.221 1488.72,287.372 C1488.91,288.523 1489.24,289.294 1489.69,289.684 C1490.13,290.075 1490.65,290.27 1491.23,290.27 C1491.86,290.27 1492.4,290.135 1492.87,289.864 C1493.7,289.354 1495.28,287.927 1497.62,285.583 L1497.62,288.864 C1493.25,294.729 1489.07,297.661 1485.08,297.661 C1483.17,297.661 1481.65,296.994 1480.51,295.661 C1479.38,294.328 1478.79,292.062 1478.75,288.864 M1478.75,285.052 L1478.75,264.598 C1472.85,266.942 1469.04,268.604 1467.33,269.583 C1464.24,271.302 1462.04,273.098 1460.71,274.973 C1459.38,276.848 1458.72,278.901 1458.72,281.13 C1458.72,283.942 1459.56,286.276 1461.23,288.13 C1462.91,289.984 1464.84,290.911 1467.03,290.911 C1470,290.911 1473.9,288.958 1478.75,285.052 M1517.04,241.348 L1517.04,253.411 C1521.53,245.369 1526.14,241.348 1530.87,241.348 C1533.02,241.348 1534.79,242.002 1536.2,243.309 C1537.61,244.617 1538.31,246.13 1538.31,247.848 C1538.31,249.369 1537.8,250.658 1536.79,251.716 C1535.77,252.773 1534.56,253.302 1533.15,253.302 C1531.79,253.302 1530.26,252.627 1528.56,251.278 C1526.86,249.929 1525.6,249.255 1524.78,249.255 C1524.08,249.255 1523.32,249.645 1522.5,250.427 C1520.74,252.031 1518.92,254.666 1517.04,258.333 L1517.04,284.052 C1517.04,287.02 1517.41,289.27 1518.15,290.802 C1518.66,291.854 1519.57,292.731 1520.86,293.434 C1522.15,294.137 1524,294.489 1526.42,294.489 L1526.42,296.598 L1498.94,296.598 L1498.94,294.489 C1501.67,294.489 1503.71,294.057 1505.03,293.192 C1506.01,292.567 1506.7,291.572 1507.09,290.208 C1507.28,289.541 1507.37,287.645 1507.37,284.52 L1507.37,263.723 C1507.37,257.473 1507.25,253.752 1507,252.559 C1506.75,251.367 1506.28,250.497 1505.59,249.95 C1504.9,249.403 1504.06,249.13 1503.04,249.13 C1501.84,249.13 1500.47,249.427 1498.94,250.02 L1498.36,247.911 L1514.59,241.348 L1517.04,241.348 M1556.94,225.286 L1556.94,242.927 L1569.47,242.927 L1569.47,247.02 L1556.94,247.02 L1556.94,281.833 C1556.94,285.312 1557.43,287.656 1558.43,288.864 C1559.42,290.072 1560.7,290.677 1562.26,290.677 C1563.56,290.677 1564.81,290.276 1566.01,289.473 C1567.22,288.671 1568.16,287.489 1568.83,285.927 L1571.11,285.927 C1569.74,289.76 1567.81,292.643 1565.31,294.575 C1562.81,296.507 1560.23,297.473 1557.58,297.473 C1555.77,297.473 1554.01,296.976 1552.29,295.981 C1550.58,294.986 1549.31,293.562 1548.49,291.708 C1547.67,289.854 1547.26,286.989 1547.26,283.114 L1547.26,247.02 L1538.76,247.02 L1538.76,245.098 C1540.91,244.234 1543.11,242.776 1545.36,240.723 C1547.61,238.671 1549.61,236.239 1551.36,233.427 C1552.26,231.947 1553.51,229.234 1555.11,225.286 L1556.94,225.286 M1588,213.27 C1589.63,213.27 1591.03,213.848 1592.19,215.005 C1593.34,216.161 1593.92,217.557 1593.92,219.192 C1593.92,220.838 1593.34,222.247 1592.19,223.419 C1591.03,224.591 1589.63,225.177 1588,225.177 C1586.35,225.177 1584.94,224.591 1583.77,223.419 C1582.6,222.247 1582.01,220.838 1582.01,219.192 C1582.01,217.557 1582.59,216.161 1583.75,215.005 C1584.9,213.848 1586.32,213.27 1588,213.27 M1592.86,241.348 L1592.86,284.473 C1592.86,287.828 1593.1,290.062 1593.59,291.177 C1594.08,292.291 1594.81,293.122 1595.76,293.669 C1596.72,294.216 1598.47,294.489 1601,294.489 L1601,296.598 L1574.94,296.598 L1574.94,294.489 C1577.55,294.489 1579.31,294.234 1580.2,293.723 C1581.1,293.213 1581.81,292.372 1582.34,291.2 C1582.87,290.028 1583.14,287.786 1583.14,284.473 L1583.14,263.786 C1583.14,257.963 1582.96,254.192 1582.61,252.473 C1582.34,251.223 1581.91,250.354 1581.32,249.864 C1580.73,249.374 1579.93,249.13 1578.92,249.13 C1577.83,249.13 1576.5,249.427 1574.94,250.02 L1574.11,247.911 L1590.28,241.348 L1592.86,241.348 M1622.94,225.286 L1622.94,242.927 L1635.47,242.927 L1635.47,247.02 L1622.94,247.02 L1622.94,281.833 C1622.94,285.312 1623.43,287.656 1624.43,288.864 C1625.42,290.072 1626.7,290.677 1628.26,290.677 C1629.56,290.677 1630.81,290.276 1632.01,289.473 C1633.22,288.671 1634.16,287.489 1634.83,285.927 L1637.11,285.927 C1635.74,289.76 1633.81,292.643 1631.31,294.575 C1628.81,296.507 1626.23,297.473 1623.58,297.473 C1621.77,297.473 1620.01,296.976 1618.29,295.981 C1616.58,294.986 1615.31,293.562 1614.49,291.708 C1613.67,289.854 1613.26,286.989 1613.26,283.114 L1613.26,247.02 L1604.76,247.02 L1604.76,245.098 C1606.91,244.234 1609.11,242.776 1611.36,240.723 C1613.61,238.671 1615.61,236.239 1617.36,233.427 C1618.26,231.947 1619.51,229.234 1621.11,225.286 L1622.94,225.286 M1670.75,288.864 C1665.25,293.124 1661.79,295.583 1660.39,296.239 C1658.27,297.218 1656.02,297.708 1653.64,297.708 C1649.93,297.708 1646.88,296.44 1644.47,293.903 C1642.07,291.367 1640.87,288.026 1640.87,283.88 C1640.87,281.265 1641.46,278.999 1642.62,277.083 C1644.23,274.427 1647.01,271.927 1650.97,269.583 C1654.94,267.239 1661.53,264.39 1670.75,261.036 L1670.75,258.927 C1670.75,253.572 1669.9,249.898 1668.2,247.903 C1666.5,245.908 1664.03,244.911 1660.79,244.911 C1658.34,244.911 1656.38,245.578 1654.94,246.911 C1653.45,248.234 1652.7,249.755 1652.7,251.473 L1652.83,254.88 C1652.83,256.671 1652.37,258.057 1651.45,259.036 C1650.53,260.015 1649.33,260.505 1647.84,260.505 C1646.39,260.505 1645.21,259.997 1644.29,258.981 C1643.38,257.966 1642.92,256.578 1642.92,254.817 C1642.92,251.463 1644.64,248.38 1648.08,245.567 C1651.51,242.755 1656.34,241.348 1662.54,241.348 C1667.32,241.348 1671.22,242.145 1674.26,243.739 C1676.58,244.958 1678.28,246.854 1679.37,249.427 C1680.07,251.104 1680.42,254.541 1680.42,259.739 L1680.42,277.958 C1680.42,283.083 1680.52,286.221 1680.72,287.372 C1680.91,288.523 1681.24,289.294 1681.69,289.684 C1682.13,290.075 1682.65,290.27 1683.23,290.27 C1683.86,290.27 1684.4,290.135 1684.87,289.864 C1685.7,289.354 1687.28,287.927 1689.62,285.583 L1689.62,288.864 C1685.25,294.729 1681.07,297.661 1677.08,297.661 C1675.17,297.661 1673.65,296.994 1672.51,295.661 C1671.38,294.328 1670.79,292.062 1670.75,288.864 M1670.75,285.052 L1670.75,264.598 C1664.85,266.942 1661.04,268.604 1659.33,269.583 C1656.24,271.302 1654.04,273.098 1652.71,274.973 C1651.38,276.848 1650.72,278.901 1650.72,281.13 C1650.72,283.942 1651.56,286.276 1653.23,288.13 C1654.91,289.984 1656.84,290.911 1659.03,290.911 C1662,290.911 1665.9,288.958 1670.75,285.052"/>
<path class="MeasureNumber" d="M143.326,1451.86 C145.732,1453.64 147.368,1455.13 148.232,1456.34 C149.097,1457.55 149.529,1458.93 149.529,1460.47 C149.529,1462.54 148.816,1464.2 147.389,1465.44 C145.961,1466.68 144.05,1467.3 141.654,1467.3 C139.383,1467.3 137.534,1466.68 136.107,1465.44 C134.68,1464.2 133.967,1462.6 133.967,1460.64 C133.967,1459.27 134.295,1458.13 134.951,1457.22 C135.607,1456.3 137.014,1455.04 139.17,1453.42 C137.066,1451.59 135.714,1450.22 135.115,1449.31 C134.516,1448.4 134.217,1447.3 134.217,1446 C134.217,1444.17 134.935,1442.64 136.373,1441.44 C137.81,1440.23 139.623,1439.62 141.81,1439.62 C143.81,1439.62 145.456,1440.16 146.748,1441.24 C148.04,1442.32 148.685,1443.69 148.685,1445.36 C148.685,1446.71 148.287,1447.87 147.49,1448.83 C146.693,1449.79 145.305,1450.8 143.326,1451.86 M140.217,1454.22 C139.04,1455.14 138.211,1456.07 137.732,1457.01 C137.253,1457.94 137.014,1459.04 137.014,1460.31 C137.014,1462.04 137.48,1463.44 138.412,1464.5 C139.344,1465.56 140.571,1466.09 142.092,1466.09 C143.394,1466.09 144.451,1465.69 145.264,1464.87 C146.076,1464.06 146.482,1463 146.482,1461.7 C146.482,1461.29 146.438,1460.89 146.349,1460.51 C146.261,1460.14 146.17,1459.81 146.076,1459.54 C145.982,1459.26 145.795,1458.95 145.514,1458.6 C145.232,1458.25 145.006,1457.98 144.834,1457.78 C144.662,1457.58 144.349,1457.3 143.896,1456.92 C143.443,1456.55 143.102,1456.28 142.873,1456.12 C142.644,1455.97 142.217,1455.66 141.592,1455.21 C140.967,1454.76 140.508,1454.43 140.217,1454.22 M142.17,1451.14 C142.201,1451.12 142.383,1450.99 142.717,1450.76 C143.05,1450.54 143.29,1450.36 143.435,1450.23 C143.581,1450.1 143.808,1449.89 144.115,1449.61 C144.422,1449.33 144.654,1449.06 144.81,1448.81 C144.967,1448.56 145.146,1448.26 145.349,1447.9 C145.553,1447.54 145.701,1447.14 145.795,1446.7 C145.889,1446.26 145.935,1445.81 145.935,1445.33 C145.935,1443.94 145.534,1442.84 144.732,1442.03 C143.93,1441.22 142.852,1440.81 141.498,1440.81 C140.237,1440.81 139.201,1441.18 138.389,1441.93 C137.576,1442.67 137.17,1443.62 137.17,1444.76 C137.17,1445.88 137.558,1446.93 138.334,1447.91 C139.11,1448.9 140.389,1449.97 142.17,1451.14"/>
<path class="MeasureNumber" d="M146.514,983.952 C146.514,982.535 146.198,981.282 145.568,980.194 C144.938,979.105 144.178,978.261 143.287,977.663 C142.396,977.064 141.399,976.571 140.295,976.186 C139.191,975.801 138.23,975.548 137.412,975.428 C136.594,975.308 135.883,975.248 135.279,975.248 C134.956,975.248 134.795,975.139 134.795,974.92 C134.795,974.847 134.805,974.78 134.826,974.717 L139.185,965.264 L147.545,965.264 C147.972,965.264 148.313,965.196 148.568,965.061 C148.823,964.926 149.097,964.644 149.389,964.217 L149.748,964.498 L148.232,968.061 C148.128,968.301 147.821,968.42 147.31,968.42 L139.467,968.42 L137.795,971.811 C141.68,972.498 144.571,973.621 146.467,975.178 C148.362,976.735 149.31,979.019 149.31,982.03 C149.31,983.603 149.063,985.004 148.568,986.233 C148.073,987.462 147.446,988.452 146.685,989.202 C145.925,989.952 145.045,990.566 144.045,991.045 C143.045,991.524 142.086,991.853 141.17,992.03 C140.253,992.207 139.326,992.295 138.389,992.295 C136.899,992.295 135.714,992.074 134.834,991.631 C133.954,991.189 133.514,990.582 133.514,989.811 C133.514,988.821 134.086,988.327 135.232,988.327 C135.982,988.327 136.948,988.735 138.131,989.553 C139.313,990.371 140.253,990.78 140.951,990.78 C142.524,990.78 143.844,990.121 144.912,988.803 C145.98,987.485 146.514,985.868 146.514,983.952"/>
<path class="BarLine" d="M2801.97,1558.23 C2800.86,1557.13 2800.3,1555.8 2800.3,1554.23 C2800.3,1552.67 2800.86,1551.33 2801.97,1550.23 C2803.08,1549.12 2804.41,1548.56 2805.98,1548.56 C2807.54,1548.56 2808.87,1549.12 2809.98,1550.23 C2811.08,1551.33 2811.63,1552.67 2811.63,1554.23 C2811.63,1555.8 2811.08,1557.13 2809.98,1558.23 C2808.87,1559.34 2807.54,1559.89 2805.98,1559.89 C2804.41,1559.89 2803.08,1559.34 2801.97,1558.23"/>
<path class="BarLine" d="M2801.97,1583.23 C2800.86,1582.13 2800.3,1580.8 2800.3,1579.23 C2800.3,1577.67 2800.86,1576.33 2801.97,1575.23 C2803.08,1574.12 2804.41,1573.56 2805.98,1573.56 C2807.54,1573.56 2808.87,1574.12 2809.98,1575.23 C2811.08,1576.33 2811.63,1577.67 2811.63,1579.23 C2811.63,1580.8 2811.08,1582.13 2809.98,1583.23 C2808.87,1584.34 2807.54,1584.89 2805.98,1584.89 C2804.41,1584.89 2803.08,1584.34 2801.97,1583.23"/>
<polyline class="BarLine" fill="none" stroke="#000000" stroke-width="4.00" stroke-linejoin="bevel" points="2821.72,1515.73 2821.72,1617.73"/>
<polyline class="BarLine" fill="none" stroke="#000000" stroke-width="12.50" stroke-linejoin="bevel" points="2829.22,1515.73 2829.22,1617.73"/>
<polyline class="BarLine" fill="none" stroke="#000000" stroke-width="4.00" stroke-linejoin="bevel" points="2457.86,1515.73 2457.86,1617.73"/>
<polyline class="BarLine" fill="none" stroke="#000000" stroke-width="4.00" stroke-linejoin="bevel" points="1806.57,1515.73 1806.57,1617.73"/>
<polyline class="BarLine" fill="none" stroke="#000000" stroke-width="4.00" stroke-linejoin="bevel" points="1250.11,1515.73 1250.11,1617.73"/>
<polyline class="BarLine" fill="none" stroke="#000000" stroke-width="4.00" stroke-linejoin="bevel" points="693.652,1515.73 693.652,1617.73"/>
<polyline class="BarLine" fill="none" stroke="#000000" stroke-width="4.00" stroke-linejoin="bevel" points="2833.47,1040.73 2833.47,1142.73"/>
<polyline class="BarLine" fill="none" stroke="#000000" stroke-width="4.00" stroke-linejoin="bevel" points="1936.7,1040.73 1936.7,1142.73"/>
<polyline class="BarLine" fill="none" stroke="#000000" stroke-width="4.00" stroke-linejoin="bevel" points="1197.25,1040.73 1197.25,1142.73"/>
<polyline class="BarLine" fill="none" stroke="#000000" stroke-width="12.50" stroke-linejoin="bevel" points="350.959,1040.73 350.959,1142.73"/>
<polyline class="BarLine" fill="none" stroke="#000000" stroke-width="4.00" stroke-linejoin="bevel" points="358.459,1040.73 358.459,1142.73"/>
<path class="BarLine" d="M370.201,1083.23 C369.092,1082.13 368.537,1080.8 368.537,1079.23 C368.537,1077.67 369.092,1076.33 370.201,1075.23 C371.311,1074.12 372.646,1073.56 374.209,1073.56 C375.771,1073.56 377.105,1074.12 378.209,1075.23 C379.313,1076.33 379.865,1077.67 379.865,1079.23 C379.865,1080.8 379.313,1082.13 378.209,1083.23 C377.105,1084.34 375.771,1084.89 374.209,1084.89 C372.646,1084.89 371.311,1084.34 370.201,1083.23"/>
<path class="BarLine" d="M370.201,1108.23 C369.092,1107.13 368.537,1105.8 368.537,1104.23 C368.537,1102.67 369.092,1101.33 370.201,1100.23 C371.311,1099.12 372.646,1098.56 374.209,1098.56 C375.771,1098.56 377.105,1099.12 378.209,1100.23 C379.313,1101.33 379.865,1102.67 379.865,1104.23 C379.865,1105.8 379.313,1107.13 378.209,1108.23 C377.105,1109.34 375.771,1109.89 374.209,1109.89 C372.646,1109.89 371.311,1109.34 370.201,1108.23"/>
<path class="BarLine" d="M2801.97,608.233 C2800.86,607.128 2800.3,605.795 2800.3,604.233 C2800.3,602.67 2800.86,601.334 2801.97,600.225 C2803.08,599.115 2804.41,598.561 2805.98,598.561 C2807.54,598.561 2808.87,599.115 2809.98,600.225 C2811.08,601.334 2811.63,602.67 2811.63,604.233 C2811.63,605.795 2811.08,607.128 2809.98,608.233 C2808.87,609.337 2807.54,609.889 2805.98,609.889 C2804.41,609.889 2803.08,609.337 2801.97,608.233"/>
<path class="BarLine" d="M2801.97,633.233 C2800.86,632.128 2800.3,630.795 2800.3,629.233 C2800.3,627.67 2800.86,626.334 2801.97,625.225 C2803.08,624.115 2804.41,623.561 2805.98,623.561 C2807.54,623.561 2808.87,624.115 2809.98,625.225 C2811.08,626.334 2811.63,627.67 2811.63,629.233 C2811.63,630.795 2811.08,632.128 2809.98,633.233 C2808.87,634.337 2807.54,634.889 2805.98,634.889 C2804.41,634.889 2803.08,634.337 2801.97,633.233"/>
<polyline class="BarLine" fill="none" stroke="#000000" stroke-width="4.00" stroke-linejoin="bevel" points="2821.72,565.733 2821.72,667.733"/>
<polyline class="BarLine" fill="none" stroke="#000000" stroke-width="12.50" stroke-linejoin="bevel" points="2829.22,565.733 2829.22,667.733"/>
<polyline class="BarLine" fill="none" stroke="#000000" stroke-width="4.00" stroke-linejoin="bevel" points="2335.65,565.733 2335.65,667.733"/>
<polyline class="BarLine" fill="none" stroke="#000000" stroke-width="4.00" stroke-linejoin="bevel" points="1634.69,565.733 1634.69,667.733"/>
<polyline class="BarLine" fill="none" stroke="#000000" stroke-width="4.00" stroke-linejoin="bevel" points="1014.54,565.733 1014.54,667.733"/>
<polyline class="BarLine" fill="none" stroke="#000000" stroke-width="12.50" stroke-linejoin="bevel" points="403.693,565.733 403.693,667.733"/>
<polyline class="BarLine" fill="none" stroke="#000000" stroke-width="4.00" stroke-linejoin="bevel" points="411.193,565.733 411.193,667.733"/>
<path class="BarLine" d="M422.936,608.233 C421.826,607.128 421.272,605.795 421.272,604.233 C421.272,602.67 421.826,601.334 422.936,600.225 C424.045,599.115 425.381,598.561 426.943,598.561 C428.506,598.561 429.839,599.115 430.943,600.225 C432.048,601.334 432.6,602.67 432.6,604.233 C432.6,605.795 432.048,607.128 430.943,608.233 C429.839,609.337 428.506,609.889 426.943,609.889 C425.381,609.889 424.045,609.337 422.936,608.233"/>
<path class="BarLine" d="M422.936,633.233 C421.826,632.128 421.272,630.795 421.272,629.233 C421.272,627.67 421.826,626.334 422.936,625.225 C424.045,624.115 425.381,623.561 426.943,623.561 C428.506,623.561 429.839,624.115 430.943,625.225 C432.048,626.334 432.6,627.67 432.6,629.233 C432.6,630.795 432.048,632.128 430.943,633.233 C429.839,634.337 428.506,634.889 426.943,634.889 C425.381,634.889 424.045,634.337 422.936,633.233"/>
<path class="Accidental" d="M2181.56,1085.39 C2181.56,1086.63 2180.94,1087.25 2179.71,1087.25 C2178.47,1087.25 2177.85,1086.63 2177.85,1085.39 L2177.85,1070.94 L2169.56,1074.06 L2169.56,1089.87 C2169.56,1091.11 2168.94,1091.73 2167.7,1091.73 C2166.46,1091.73 2165.84,1091.11 2165.84,1089.87 L2165.84,1075.33 L2162.71,1076.5 C2162.65,1076.56 2162.39,1076.59 2161.93,1076.59 C2161.41,1076.59 2160.96,1076.4 2160.57,1076.01 C2160.18,1075.62 2159.98,1075.16 2159.98,1074.64 L2159.98,1068.59 C2159.98,1067.61 2160.4,1066.99 2161.25,1066.73 L2165.84,1065.17 L2165.84,1049.15 L2162.71,1050.23 C2162.65,1050.3 2162.39,1050.33 2161.93,1050.33 C2161.41,1050.33 2160.96,1050.13 2160.57,1049.74 C2160.18,1049.35 2159.98,1048.89 2159.98,1048.37 L2159.98,1042.31 C2159.98,1041.4 2160.4,1040.82 2161.25,1040.56 L2165.84,1038.8 L2165.84,1023.08 C2165.84,1021.84 2166.46,1021.22 2167.7,1021.22 C2168.94,1021.22 2169.56,1021.84 2169.56,1023.08 L2169.56,1037.53 L2177.85,1034.4 L2177.85,1018.59 C2177.85,1017.35 2178.47,1016.73 2179.71,1016.73 C2180.94,1016.73 2181.56,1017.35 2181.56,1018.59 L2181.56,1033.14 L2184.79,1031.97 C2184.85,1031.9 2185.08,1031.87 2185.46,1031.87 C2185.92,1031.87 2186.41,1032.07 2186.93,1032.45 C2187.33,1032.85 2187.53,1033.31 2187.53,1033.83 L2187.53,1039.87 C2187.53,1040.79 2187.07,1041.41 2186.15,1041.73 L2181.56,1043.3 L2181.56,1059.31 L2184.79,1058.23 C2184.85,1058.17 2185.08,1058.14 2185.46,1058.14 C2185.92,1058.14 2186.41,1058.34 2186.93,1058.73 C2187.33,1059.12 2187.53,1059.57 2187.53,1060.09 L2187.53,1066.15 C2187.53,1067 2187.07,1067.58 2186.15,1067.9 L2181.56,1069.67 L2181.56,1085.39 M2177.85,1044.76 L2169.56,1047.69 L2169.56,1063.7 L2177.85,1060.78 L2177.85,1044.76 "/>
<path class="Accidental" d="M1428.66,516.733 C1429.51,516.274 1430.35,516.045 1431.2,516.045 C1432.05,516.045 1432.9,516.274 1433.74,516.733 L1433.44,534.998 L1444.1,533.045 L1444.49,533.045 C1445.66,533.045 1446.24,533.597 1446.24,534.701 L1446.93,591.733 C1446.09,592.191 1445.24,592.42 1444.39,592.42 C1443.54,592.42 1442.69,592.191 1441.85,591.733 L1442.15,573.467 L1431.6,575.42 L1431.21,575.42 C1430.03,575.42 1429.44,574.868 1429.44,573.764 L1428.66,516.733 M1442.24,563.701 L1442.54,542.998 L1433.35,544.764 L1433.05,565.467 L1442.24,563.701 "/>
<polyline class="LedgerLine" fill="none" stroke="#000000" stroke-width="3.00" stroke-linecap="square" stroke-linejoin="bevel" points="2547.88,1016.73 2595.8,1016.73"/>
<polyline class="LedgerLine" fill="none" stroke="#000000" stroke-width="3.00" stroke-linecap="square" stroke-linejoin="bevel" points="1264.48,541.733 1312.39,541.733"/>
<polyline class="Stem" fill="none" stroke="#000000" stroke-width="3.25" stroke-linecap="round" stroke-linejoin="bevel" points="2522.96,1575.39 2522.96,1497.98"/>
<polyline class="Stem" fill="none" stroke="#000000" stroke-width="3.25" stroke-linecap="round" stroke-linejoin="bevel" points="2392.18,1562.04 2392.18,1491.73"/>
<polyline class="Stem" fill="none" stroke="#000000" stroke-width="3.25" stroke-linecap="round" stroke-linejoin="bevel" points="2297.22,1587.04 2297.22,1516.73"/>
<polyline class="Stem" fill="none" stroke="#000000" stroke-width="3.25" stroke-linecap="round" stroke-linejoin="bevel" points="2202.25,1574.54 2202.25,1497.98"/>
<polyline class="Stem" fill="none" stroke="#000000" stroke-width="3.25" stroke-linecap="round" stroke-linejoin="bevel" points="2107.28,1562.04 2107.28,1491.73"/>
<polyline class="Stem" fill="none" stroke="#000000" stroke-width="3.25" stroke-linecap="round" stroke-linejoin="bevel" points="2018.26,1558.93 2018.26,1635.48"/>
<polyline class="Stem" fill="none" stroke="#000000" stroke-width="3.25" stroke-linecap="round" stroke-linejoin="bevel" points="1958.9,1546.43 1958.9,1627.15"/>
<polyline class="Stem" fill="none" stroke="#000000" stroke-width="3.25" stroke-linecap="round" stroke-linejoin="bevel" points="1899.55,1533.93 1899.55,1618.82"/>
<polyline class="Stem" fill="none" stroke="#000000" stroke-width="3.25" stroke-linecap="round" stroke-linejoin="bevel" points="1840.19,1521.43 1840.19,1610.48"/>
<polyline class="Stem" fill="none" stroke="#000000" stroke-width="3.25" stroke-linecap="round" stroke-linejoin="bevel" points="1678.48,1533.93 1678.48,1616.73"/>
<polyline class="Stem" fill="none" stroke="#000000" stroke-width="3.25" stroke-linecap="round" stroke-linejoin="bevel" points="1585.6,1546.43 1585.6,1616.73"/>
<polyline class="Stem" fill="none" stroke="#000000" stroke-width="3.25" stroke-linecap="round" stroke-linejoin="bevel" points="1492.72,1558.93 1492.72,1622.98"/>
<polyline class="Stem" fill="none" stroke="#000000" stroke-width="3.25" stroke-linecap="round" stroke-linejoin="bevel" points="1434.67,1583.93 1434.67,1660.48"/>
<polyline class="Stem" fill="none" stroke="#000000" stroke-width="3.25" stroke-linecap="round" stroke-linejoin="bevel" points="1376.62,1558.93 1376.62,1653.27"/>
<polyline class="Stem" fill="none" stroke="#000000" stroke-width="3.25" stroke-linecap="round" stroke-linejoin="bevel" points="1283.73,1558.93 1283.73,1641.73"/>
<polyline class="Stem" fill="none" stroke="#000000" stroke-width="3.25" stroke-linecap="round" stroke-linejoin="bevel" points="1192.32,1574.54 1192.32,1497.98"/>
<polyline class="Stem" fill="none" stroke="#000000" stroke-width="3.25" stroke-linecap="round" stroke-linejoin="bevel" points="1105.25,1562.04 1105.25,1491.73"/>
<polyline class="Stem" fill="none" stroke="#000000" stroke-width="3.25" stroke-linecap="round" stroke-linejoin="bevel" points="988.505,1558.93 988.505,1622.98"/>
<polyline class="Stem" fill="none" stroke="#000000" stroke-width="3.25" stroke-linecap="round" stroke-linejoin="bevel" points="901.429,1546.43 901.429,1616.73"/>
<polyline class="Stem" fill="none" stroke="#000000" stroke-width="3.25" stroke-linecap="round" stroke-linejoin="bevel" points="814.353,1546.43 814.353,1616.73"/>
<polyline class="Stem" fill="none" stroke="#000000" stroke-width="3.25" stroke-linecap="round" stroke-linejoin="bevel" points="727.277,1546.43 727.277,1616.73"/>
<polyline class="Stem" fill="none" stroke="#000000" stroke-width="3.25" stroke-linecap="round" stroke-linejoin="bevel" points="383.834,1533.15 383.834,1616.73"/>
<polyline class="Stem" fill="none" stroke="#000000" stroke-width="3.25" stroke-linecap="round" stroke-linejoin="bevel" points="2695.05,1033.93 2695.05,1097.98"/>
<polyline class="Stem" fill="none" stroke="#000000" stroke-width="3.25" stroke-linecap="round" stroke-linejoin="bevel" points="2557.01,1021.43 2557.01,1091.73"/>
<polyline class="Stem" fill="none" stroke="#000000" stroke-width="3.25" stroke-linecap="round" stroke-linejoin="bevel" points="2418.96,1033.93 2418.96,1110.48"/>
<polyline class="Stem" fill="none" stroke="#000000" stroke-width="3.25" stroke-linecap="round" stroke-linejoin="bevel" points="2280.92,1046.43 2280.92,1116.73"/>
<polyline class="Stem" fill="none" stroke="#000000" stroke-width="3.25" stroke-linecap="round" stroke-linejoin="bevel" points="2194.64,1058.93 2194.64,1141.73"/>
<polyline class="Stem" fill="none" stroke="#000000" stroke-width="3.25" stroke-linecap="round" stroke-linejoin="bevel" points="2108.37,1046.43 2108.37,1139.33"/>
<polyline class="Stem" fill="none" stroke="#000000" stroke-width="3.25" stroke-linecap="round" stroke-linejoin="bevel" points="1970.32,1046.43 1970.32,1135.48"/>
<polyline class="Stem" fill="none" stroke="#000000" stroke-width="3.25" stroke-linecap="round" stroke-linejoin="bevel" points="1764.43,1099.54 1764.43,1022.98"/>
<polyline class="Stem" fill="none" stroke="#000000" stroke-width="3.25" stroke-linecap="round" stroke-linejoin="bevel" points="1608.79,1096.43 1608.79,1166.73"/>
<polyline class="Stem" fill="none" stroke="#000000" stroke-width="3.25" stroke-linecap="round" stroke-linejoin="bevel" points="1482.82,1083.93 1482.82,1160.48"/>
<polyline class="Stem" fill="none" stroke="#000000" stroke-width="3.25" stroke-linecap="round" stroke-linejoin="bevel" points="1356.84,1083.93 1356.84,1147.98"/>
<polyline class="Stem" fill="none" stroke="#000000" stroke-width="3.25" stroke-linecap="round" stroke-linejoin="bevel" points="1230.87,1083.93 1230.87,1147.98"/>
<polyline class="Stem" fill="none" stroke="#000000" stroke-width="3.25" stroke-linecap="round" stroke-linejoin="bevel" points="1101.06,1099.54 1101.06,1022.98"/>
<polyline class="Stem" fill="none" stroke="#000000" stroke-width="3.25" stroke-linecap="round" stroke-linejoin="bevel" points="975.577,1087.04 975.577,1016.73"/>
<polyline class="Stem" fill="none" stroke="#000000" stroke-width="3.25" stroke-linecap="round" stroke-linejoin="bevel" points="820.435,1083.93 820.435,1147.98"/>
<polyline class="Stem" fill="none" stroke="#000000" stroke-width="3.25" stroke-linecap="round" stroke-linejoin="bevel" points="694.956,1071.43 694.956,1141.73"/>
<polyline class="Stem" fill="none" stroke="#000000" stroke-width="3.25" stroke-linecap="round" stroke-linejoin="bevel" points="569.477,1071.43 569.477,1141.73"/>
<polyline class="Stem" fill="none" stroke="#000000" stroke-width="3.25" stroke-linecap="round" stroke-linejoin="bevel" points="443.998,1071.43 443.998,1141.73"/>
<polyline class="Stem" fill="none" stroke="#000000" stroke-width="3.25" stroke-linecap="round" stroke-linejoin="bevel" points="2370.17,620.653 2370.17,694.858"/>
<polyline class="Stem" fill="none" stroke="#000000" stroke-width="3.25" stroke-linecap="round" stroke-linejoin="bevel" points="2221.15,608.928 2221.15,672.983"/>
<polyline class="Stem" fill="none" stroke="#000000" stroke-width="3.25" stroke-linecap="round" stroke-linejoin="bevel" points="2107.03,596.428 2107.03,666.733"/>
<polyline class="Stem" fill="none" stroke="#000000" stroke-width="3.25" stroke-linecap="round" stroke-linejoin="bevel" points="1992.91,583.928 1992.91,647.983"/>
<polyline class="Stem" fill="none" stroke="#000000" stroke-width="3.25" stroke-linecap="round" stroke-linejoin="bevel" points="1878.79,571.428 1878.79,641.733"/>
<polyline class="Stem" fill="none" stroke="#000000" stroke-width="3.25" stroke-linecap="round" stroke-linejoin="bevel" points="1807.47,583.928 1807.47,666.733"/>
<polyline class="Stem" fill="none" stroke="#000000" stroke-width="3.25" stroke-linecap="round" stroke-linejoin="bevel" points="1668.32,571.428 1668.32,660.483"/>
<polyline class="Stem" fill="none" stroke="#000000" stroke-width="3.25" stroke-linecap="round" stroke-linejoin="bevel" points="1453.96,558.928 1453.96,641.733"/>
<polyline class="Stem" fill="none" stroke="#000000" stroke-width="3.25" stroke-linecap="round" stroke-linejoin="bevel" points="1273.61,546.428 1273.61,629.233"/>
<polyline class="Stem" fill="none" stroke="#000000" stroke-width="3.25" stroke-linecap="round" stroke-linejoin="bevel" points="1160.88,583.928 1160.88,660.483"/>
<polyline class="Stem" fill="none" stroke="#000000" stroke-width="3.25" stroke-linecap="round" stroke-linejoin="bevel" points="1048.16,583.928 1048.16,660.483"/>
<polyline class="Stem" fill="none" stroke="#000000" stroke-width="3.25" stroke-linecap="round" stroke-linejoin="bevel" points="844.953,583.928 844.953,666.733"/>
<polyline class="Stem" fill="none" stroke="#000000" stroke-width="3.25" stroke-linecap="round" stroke-linejoin="bevel" points="675.744,583.928 675.744,666.733"/>
<polyline class="Stem" fill="none" stroke="#000000" stroke-width="3.25" stroke-linecap="round" stroke-linejoin="bevel" points="569.988,608.928 569.988,685.483"/>
<polyline class="Stem" fill="none" stroke="#000000" stroke-width="3.25" stroke-linecap="round" stroke-linejoin="bevel" points="464.232,633.928 464.232,697.983"/>
<path class="Note" d="M2521.41,1572.69 C2521.41,1571.58 2520.99,1570.64 2520.15,1569.86 C2519.29,1569.01 2518.31,1568.59 2517.21,1568.59 C2515.26,1568.59 2511.32,1570.55 2505.4,1574.45 C2499.27,1578.42 2495.53,1581.25 2494.16,1582.95 C2493.44,1583.86 2493.08,1584.8 2493.08,1585.78 C2493.08,1586.88 2493.51,1587.83 2494.36,1588.61 C2495.15,1589.45 2496.12,1589.87 2497.29,1589.87 C2499.17,1589.87 2503.15,1587.92 2509.21,1584.01 C2515.2,1580.11 2518.91,1577.27 2520.33,1575.51 C2521.05,1574.67 2521.41,1573.73 2521.41,1572.69 M2516.24,1565.47 C2521.83,1565.47 2524.63,1567.87 2524.63,1572.69 C2524.63,1575.03 2523.95,1577.76 2522.58,1580.89 C2521.22,1583.95 2519.4,1586.3 2517.11,1587.92 C2512.1,1591.31 2505.82,1593 2498.27,1593 C2492.67,1593 2489.86,1590.59 2489.86,1585.78 C2489.86,1583.63 2490.55,1580.93 2491.91,1577.67 C2493.21,1574.55 2495.04,1572.17 2497.38,1570.55 C2502.4,1567.16 2508.69,1565.47 2516.24,1565.47"/>
<path class="Note" d="M2382.86,1552.97 C2385.99,1552.97 2388.63,1553.78 2390.79,1555.41 C2392.8,1557.17 2393.8,1559.38 2393.8,1562.05 C2393.8,1566.54 2391.49,1570.73 2386.88,1574.64 C2382.19,1578.55 2377.18,1580.5 2371.83,1580.5 C2368.71,1580.5 2366.07,1579.69 2363.93,1578.06 C2361.91,1576.3 2360.89,1574.09 2360.89,1571.42 C2360.89,1566.93 2363.24,1562.73 2367.93,1558.83 C2372.49,1554.92 2377.47,1552.97 2382.86,1552.97"/>
<path class="Note" d="M2287.89,1577.97 C2291.02,1577.97 2293.66,1578.78 2295.82,1580.41 C2297.83,1582.17 2298.83,1584.38 2298.83,1587.05 C2298.83,1591.54 2296.53,1595.73 2291.91,1599.64 C2287.22,1603.55 2282.21,1605.5 2276.86,1605.5 C2273.74,1605.5 2271.1,1604.69 2268.96,1603.06 C2266.94,1601.3 2265.93,1599.09 2265.93,1596.42 C2265.93,1591.93 2268.27,1587.73 2272.96,1583.83 C2277.52,1579.92 2282.5,1577.97 2287.89,1577.97"/>
<path class="Note" d="M2192.93,1565.47 C2196.05,1565.47 2198.69,1566.28 2200.85,1567.91 C2202.86,1569.67 2203.86,1571.88 2203.86,1574.55 C2203.86,1579.04 2201.56,1583.23 2196.94,1587.14 C2192.25,1591.05 2187.24,1593 2181.89,1593 C2178.77,1593 2176.13,1592.19 2173.99,1590.56 C2171.97,1588.8 2170.96,1586.59 2170.96,1583.92 C2170.96,1579.43 2173.3,1575.23 2177.99,1571.33 C2182.55,1567.42 2187.53,1565.47 2192.93,1565.47"/>
<path class="Note" d="M2097.96,1552.97 C2101.08,1552.97 2103.72,1553.78 2105.88,1555.41 C2107.89,1557.17 2108.89,1559.38 2108.89,1562.05 C2108.89,1566.54 2106.59,1570.73 2101.97,1574.64 C2097.29,1578.55 2092.27,1580.5 2086.93,1580.5 C2083.8,1580.5 2081.17,1579.69 2079.02,1578.06 C2077,1576.3 2075.99,1574.09 2075.99,1571.42 C2075.99,1566.93 2078.33,1562.73 2083.02,1558.83 C2087.58,1554.92 2092.56,1552.97 2097.96,1552.97"/>
<path class="Note" d="M2038.6,1540.47 C2041.73,1540.47 2044.37,1541.28 2046.52,1542.91 C2048.53,1544.67 2049.54,1546.88 2049.54,1549.55 C2049.54,1554.04 2047.23,1558.23 2042.62,1562.14 C2037.93,1566.05 2032.91,1568 2027.57,1568 C2024.45,1568 2021.81,1567.19 2019.66,1565.56 C2017.64,1563.8 2016.63,1561.59 2016.63,1558.92 C2016.63,1554.43 2018.98,1550.23 2023.66,1546.33 C2028.23,1542.42 2033.21,1540.47 2038.6,1540.47"/>
<path class="Note" d="M1979.25,1527.97 C1982.37,1527.97 1985.01,1528.78 1987.17,1530.41 C1989.18,1532.17 1990.18,1534.38 1990.18,1537.05 C1990.18,1541.54 1987.88,1545.73 1983.26,1549.64 C1978.57,1553.55 1973.56,1555.5 1968.21,1555.5 C1965.09,1555.5 1962.45,1554.69 1960.31,1553.06 C1958.29,1551.3 1957.28,1549.09 1957.28,1546.42 C1957.28,1541.93 1959.62,1537.73 1964.31,1533.83 C1968.87,1529.92 1973.85,1527.97 1979.25,1527.97"/>
<path class="Note" d="M1919.89,1515.47 C1923.02,1515.47 1925.66,1516.28 1927.81,1517.91 C1929.82,1519.67 1930.83,1521.88 1930.83,1524.55 C1930.83,1529.04 1928.52,1533.23 1923.91,1537.14 C1919.22,1541.05 1914.2,1543 1908.86,1543 C1905.73,1543 1903.1,1542.19 1900.95,1540.56 C1898.93,1538.8 1897.92,1536.59 1897.92,1533.92 C1897.92,1529.43 1900.27,1525.23 1904.95,1521.33 C1909.52,1517.42 1914.49,1515.47 1919.89,1515.47"/>
<path class="Note" d="M1860.54,1502.97 C1863.66,1502.97 1866.3,1503.78 1868.46,1505.41 C1870.47,1507.17 1871.47,1509.38 1871.47,1512.05 C1871.47,1516.54 1869.17,1520.73 1864.55,1524.64 C1859.86,1528.55 1854.85,1530.5 1849.5,1530.5 C1846.38,1530.5 1843.74,1529.69 1841.6,1528.06 C1839.58,1526.3 1838.57,1524.09 1838.57,1521.42 C1838.57,1516.93 1840.91,1512.73 1845.6,1508.83 C1850.16,1504.92 1855.14,1502.97 1860.54,1502.97"/>
<path class="Note" d="M1698.82,1515.47 C1701.95,1515.47 1704.59,1516.28 1706.75,1517.91 C1708.76,1519.67 1709.76,1521.88 1709.76,1524.55 C1709.76,1529.04 1707.45,1533.23 1702.84,1537.14 C1698.15,1541.05 1693.14,1543 1687.79,1543 C1684.67,1543 1682.03,1542.19 1679.89,1540.56 C1677.86,1538.8 1676.85,1536.59 1676.85,1533.92 C1676.85,1529.43 1679.2,1525.23 1683.89,1521.33 C1688.45,1517.42 1693.43,1515.47 1698.82,1515.47"/>
<path class="Note" d="M1605.94,1527.97 C1609.07,1527.97 1611.71,1528.78 1613.86,1530.41 C1615.87,1532.17 1616.88,1534.38 1616.88,1537.05 C1616.88,1541.54 1614.57,1545.73 1609.96,1549.64 C1605.27,1553.55 1600.25,1555.5 1594.91,1555.5 C1591.79,1555.5 1589.15,1554.69 1587,1553.06 C1584.98,1551.3 1583.97,1549.09 1583.97,1546.42 C1583.97,1541.93 1586.32,1537.73 1591,1533.83 C1595.57,1529.92 1600.55,1527.97 1605.94,1527.97"/>
<path class="Note" d="M1513.06,1540.47 C1516.19,1540.47 1518.83,1541.28 1520.98,1542.91 C1522.99,1544.67 1524,1546.88 1524,1549.55 C1524,1554.04 1521.69,1558.23 1517.08,1562.14 C1512.39,1566.05 1507.37,1568 1502.03,1568 C1498.9,1568 1496.27,1567.19 1494.12,1565.56 C1492.1,1563.8 1491.09,1561.59 1491.09,1558.92 C1491.09,1554.43 1493.44,1550.23 1498.12,1546.33 C1502.69,1542.42 1507.66,1540.47 1513.06,1540.47"/>
<path class="Note" d="M1455.01,1565.47 C1458.13,1565.47 1460.78,1566.28 1462.93,1567.91 C1464.94,1569.67 1465.95,1571.88 1465.95,1574.55 C1465.95,1579.04 1463.64,1583.23 1459.03,1587.14 C1454.34,1591.05 1449.32,1593 1443.98,1593 C1440.85,1593 1438.22,1592.19 1436.07,1590.56 C1434.05,1588.8 1433.04,1586.59 1433.04,1583.92 C1433.04,1579.43 1435.38,1575.23 1440.07,1571.33 C1444.63,1567.42 1449.61,1565.47 1455.01,1565.47"/>
<path class="Note" d="M1396.96,1540.47 C1400.08,1540.47 1402.72,1541.28 1404.88,1542.91 C1406.89,1544.67 1407.9,1546.88 1407.9,1549.55 C1407.9,1554.04 1405.59,1558.23 1400.97,1562.14 C1396.29,1566.05 1391.27,1568 1385.93,1568 C1382.8,1568 1380.17,1567.19 1378.02,1565.56 C1376,1563.8 1374.99,1561.59 1374.99,1558.92 C1374.99,1554.43 1377.33,1550.23 1382.02,1546.33 C1386.58,1542.42 1391.56,1540.47 1396.96,1540.47"/>
<path class="Note" d="M1304.08,1540.47 C1307.2,1540.47 1309.84,1541.28 1312,1542.91 C1314.01,1544.67 1315.02,1546.88 1315.02,1549.55 C1315.02,1554.04 1312.71,1558.23 1308.09,1562.14 C1303.41,1566.05 1298.39,1568 1293.05,1568 C1289.92,1568 1287.29,1567.19 1285.14,1565.56 C1283.12,1563.8 1282.11,1561.59 1282.11,1558.92 C1282.11,1554.43 1284.45,1550.23 1289.14,1546.33 C1293.7,1542.42 1298.68,1540.47 1304.08,1540.47"/>
<path class="Note" d="M1183,1565.47 C1186.13,1565.47 1188.77,1566.28 1190.92,1567.91 C1192.93,1569.67 1193.94,1571.88 1193.94,1574.55 C1193.94,1579.04 1191.63,1583.23 1187.02,1587.14 C1182.33,1591.05 1177.31,1593 1171.97,1593 C1168.85,1593 1166.21,1592.19 1164.06,1590.56 C1162.04,1588.8 1161.03,1586.59 1161.03,1583.92 C1161.03,1579.43 1163.38,1575.23 1168.06,1571.33 C1172.63,1567.42 1177.61,1565.47 1183,1565.47"/>
<path class="Note" d="M1095.93,1552.97 C1099.05,1552.97 1101.69,1553.78 1103.85,1555.41 C1105.86,1557.17 1106.86,1559.38 1106.86,1562.05 C1106.86,1566.54 1104.56,1570.73 1099.94,1574.64 C1095.25,1578.55 1090.24,1580.5 1084.89,1580.5 C1081.77,1580.5 1079.13,1579.69 1076.99,1578.06 C1074.97,1576.3 1073.96,1574.09 1073.96,1571.42 C1073.96,1566.93 1076.3,1562.73 1080.99,1558.83 C1085.55,1554.92 1090.53,1552.97 1095.93,1552.97"/>
<path class="Note" d="M1008.85,1540.47 C1011.97,1540.47 1014.61,1541.28 1016.77,1542.91 C1018.78,1544.67 1019.79,1546.88 1019.79,1549.55 C1019.79,1554.04 1017.48,1558.23 1012.86,1562.14 C1008.18,1566.05 1003.16,1568 997.818,1568 C994.693,1568 992.057,1567.19 989.912,1565.56 C987.891,1563.8 986.88,1561.59 986.88,1558.92 C986.88,1554.43 989.224,1550.23 993.912,1546.33 C998.474,1542.42 1003.45,1540.47 1008.85,1540.47"/>
<path class="Note" d="M921.773,1527.97 C924.898,1527.97 927.539,1528.78 929.695,1530.41 C931.705,1532.17 932.71,1534.38 932.71,1537.05 C932.71,1541.54 930.403,1545.73 925.789,1549.64 C921.101,1553.55 916.085,1555.5 910.742,1555.5 C907.617,1555.5 904.981,1554.69 902.835,1553.06 C900.815,1551.3 899.804,1549.09 899.804,1546.42 C899.804,1541.93 902.148,1537.73 906.835,1533.83 C911.398,1529.92 916.377,1527.97 921.773,1527.97"/>
<path class="Note" d="M834.697,1527.97 C837.822,1527.97 840.462,1528.78 842.619,1530.41 C844.629,1532.17 845.634,1534.38 845.634,1537.05 C845.634,1541.54 843.327,1545.73 838.712,1549.64 C834.025,1553.55 829.009,1555.5 823.665,1555.5 C820.54,1555.5 817.905,1554.69 815.759,1553.06 C813.738,1551.3 812.728,1549.09 812.728,1546.42 C812.728,1541.93 815.072,1537.73 819.759,1533.83 C824.322,1529.92 829.301,1527.97 834.697,1527.97"/>
<path class="Note" d="M747.62,1527.97 C750.745,1527.97 753.386,1528.78 755.542,1530.41 C757.553,1532.17 758.558,1534.38 758.558,1537.05 C758.558,1541.54 756.251,1545.73 751.636,1549.64 C746.949,1553.55 741.933,1555.5 736.589,1555.5 C733.464,1555.5 730.829,1554.69 728.683,1553.06 C726.662,1551.3 725.652,1549.09 725.652,1546.42 C725.652,1541.93 727.995,1537.73 732.683,1533.83 C737.245,1529.92 742.225,1527.97 747.62,1527.97"/>
<path class="Note" d="M413.756,1522.69 C413.756,1521.58 413.334,1520.64 412.49,1519.86 C411.636,1519.01 410.657,1518.59 409.553,1518.59 C407.605,1518.59 403.667,1520.55 397.74,1524.45 C391.615,1528.42 387.87,1531.25 386.506,1532.95 C385.787,1533.86 385.428,1534.8 385.428,1535.78 C385.428,1536.88 385.855,1537.83 386.709,1538.61 C387.49,1539.45 388.464,1539.87 389.631,1539.87 C391.516,1539.87 395.49,1537.92 401.553,1534.01 C407.542,1530.11 411.251,1527.27 412.678,1525.51 C413.396,1524.67 413.756,1523.73 413.756,1522.69 M408.584,1515.47 C414.178,1515.47 416.975,1517.87 416.975,1522.69 C416.975,1525.03 416.292,1527.76 414.928,1530.89 C413.563,1533.95 411.74,1536.3 409.459,1537.92 C404.449,1541.31 398.167,1543 390.615,1543 C385.011,1543 382.209,1540.59 382.209,1535.78 C382.209,1533.63 382.891,1530.93 384.256,1527.67 C385.558,1524.55 387.381,1522.17 389.725,1520.55 C394.745,1517.16 401.032,1515.47 408.584,1515.47"/>
<path class="Note" d="M2715.39,1015.47 C2718.52,1015.47 2721.16,1016.28 2723.32,1017.9 C2725.33,1019.67 2726.33,1021.88 2726.33,1024.55 C2726.33,1029.03 2724.02,1033.23 2719.41,1037.14 C2714.72,1041.05 2709.71,1043 2704.36,1043 C2701.24,1043 2698.6,1042.19 2696.46,1040.56 C2694.44,1038.8 2693.42,1036.59 2693.42,1033.92 C2693.42,1029.43 2695.77,1025.23 2700.46,1021.33 C2705.02,1017.42 2710,1015.47 2715.39,1015.47"/>
<path class="Note" d="M2577.35,1002.97 C2580.48,1002.97 2583.12,1003.78 2585.27,1005.4 C2587.28,1007.17 2588.29,1009.38 2588.29,1012.05 C2588.29,1016.53 2585.98,1020.73 2581.37,1024.64 C2576.68,1028.55 2571.66,1030.5 2566.32,1030.5 C2563.19,1030.5 2560.56,1029.69 2558.41,1028.06 C2556.39,1026.3 2555.38,1024.09 2555.38,1021.42 C2555.38,1016.93 2557.73,1012.73 2562.41,1008.83 C2566.98,1004.92 2571.95,1002.97 2577.35,1002.97"/>
<path class="Note" d="M2439.31,1015.47 C2442.43,1015.47 2445.07,1016.28 2447.23,1017.9 C2449.24,1019.67 2450.24,1021.88 2450.24,1024.55 C2450.24,1029.03 2447.94,1033.23 2443.32,1037.14 C2438.64,1041.05 2433.62,1043 2428.28,1043 C2425.15,1043 2422.52,1042.19 2420.37,1040.56 C2418.35,1038.8 2417.34,1036.59 2417.34,1033.92 C2417.34,1029.43 2419.68,1025.23 2424.37,1021.33 C2428.93,1017.42 2433.91,1015.47 2439.31,1015.47"/>
<path class="Note" d="M2301.26,1027.97 C2304.39,1027.97 2307.03,1028.78 2309.19,1030.4 C2311.2,1032.17 2312.2,1034.38 2312.2,1037.05 C2312.2,1041.53 2309.89,1045.73 2305.28,1049.64 C2300.59,1053.55 2295.58,1055.5 2290.23,1055.5 C2287.11,1055.5 2284.47,1054.69 2282.33,1053.06 C2280.31,1051.3 2279.3,1049.09 2279.3,1046.42 C2279.3,1041.93 2281.64,1037.73 2286.33,1033.83 C2290.89,1029.92 2295.87,1027.97 2301.26,1027.97"/>
<path class="Note" d="M2214.99,1040.47 C2218.11,1040.47 2220.75,1041.28 2222.91,1042.9 C2224.92,1044.67 2225.93,1046.88 2225.93,1049.55 C2225.93,1054.03 2223.62,1058.23 2219,1062.14 C2214.32,1066.05 2209.3,1068 2203.96,1068 C2200.83,1068 2198.2,1067.19 2196.05,1065.56 C2194.03,1063.8 2193.02,1061.59 2193.02,1058.92 C2193.02,1054.43 2195.36,1050.23 2200.05,1046.33 C2204.61,1042.42 2209.59,1040.47 2214.99,1040.47"/>
<path class="Note" d="M2128.71,1027.97 C2131.84,1027.97 2134.48,1028.78 2136.63,1030.4 C2138.64,1032.17 2139.65,1034.38 2139.65,1037.05 C2139.65,1041.53 2137.34,1045.73 2132.73,1049.64 C2128.04,1053.55 2123.02,1055.5 2117.68,1055.5 C2114.55,1055.5 2111.92,1054.69 2109.77,1053.06 C2107.75,1051.3 2106.74,1049.09 2106.74,1046.42 C2106.74,1041.93 2109.09,1037.73 2113.77,1033.83 C2118.34,1029.92 2123.31,1027.97 2128.71,1027.97"/>
<path class="Note" d="M1990.67,1027.97 C1993.79,1027.97 1996.43,1028.78 1998.59,1030.4 C2000.6,1032.17 2001.61,1034.38 2001.61,1037.05 C2001.61,1041.53 1999.3,1045.73 1994.68,1049.64 C1990,1053.55 1984.98,1055.5 1979.64,1055.5 C1976.51,1055.5 1973.88,1054.69 1971.73,1053.06 C1969.71,1051.3 1968.7,1049.09 1968.7,1046.42 C1968.7,1041.93 1971.04,1037.73 1975.73,1033.83 C1980.29,1029.92 1985.27,1027.97 1990.67,1027.97"/>
<path class="Note" d="M1755.11,1090.47 C1758.23,1090.47 1760.88,1091.28 1763.03,1092.9 C1765.04,1094.67 1766.05,1096.88 1766.05,1099.55 C1766.05,1104.03 1763.74,1108.23 1759.13,1112.14 C1754.44,1116.05 1749.42,1118 1744.08,1118 C1740.95,1118 1738.32,1117.19 1736.17,1115.56 C1734.15,1113.8 1733.14,1111.59 1733.14,1108.92 C1733.14,1104.43 1735.48,1100.23 1740.17,1096.33 C1744.73,1092.42 1749.71,1090.47 1755.11,1090.47"/>
<path class="Note" d="M1629.14,1077.97 C1632.26,1077.97 1634.9,1078.78 1637.06,1080.4 C1639.07,1082.17 1640.07,1084.38 1640.07,1087.05 C1640.07,1091.53 1637.77,1095.73 1633.15,1099.64 C1628.46,1103.55 1623.45,1105.5 1618.1,1105.5 C1614.98,1105.5 1612.34,1104.69 1610.2,1103.06 C1608.18,1101.3 1607.17,1099.09 1607.17,1096.42 C1607.17,1091.93 1609.51,1087.73 1614.2,1083.83 C1618.76,1079.92 1623.74,1077.97 1629.14,1077.97"/>
<path class="Note" d="M1503.16,1065.47 C1506.29,1065.47 1508.93,1066.28 1511.08,1067.9 C1513.09,1069.67 1514.1,1071.88 1514.1,1074.55 C1514.1,1079.03 1511.79,1083.23 1507.18,1087.14 C1502.49,1091.05 1497.47,1093 1492.13,1093 C1489.01,1093 1486.37,1092.19 1484.22,1090.56 C1482.2,1088.8 1481.19,1086.59 1481.19,1083.92 C1481.19,1079.43 1483.54,1075.23 1488.22,1071.33 C1492.79,1067.42 1497.77,1065.47 1503.16,1065.47"/>
<path class="Note" d="M1377.19,1065.47 C1380.31,1065.47 1382.95,1066.28 1385.11,1067.9 C1387.12,1069.67 1388.13,1071.88 1388.13,1074.55 C1388.13,1079.03 1385.82,1083.23 1381.2,1087.14 C1376.52,1091.05 1371.5,1093 1366.16,1093 C1363.03,1093 1360.4,1092.19 1358.25,1090.56 C1356.23,1088.8 1355.22,1086.59 1355.22,1083.92 C1355.22,1079.43 1357.56,1075.23 1362.25,1071.33 C1366.81,1067.42 1371.79,1065.47 1377.19,1065.47"/>
<path class="Note" d="M1251.21,1065.47 C1254.34,1065.47 1256.98,1066.28 1259.14,1067.9 C1261.15,1069.67 1262.15,1071.88 1262.15,1074.55 C1262.15,1079.03 1259.85,1083.23 1255.23,1087.14 C1250.54,1091.05 1245.53,1093 1240.18,1093 C1237.06,1093 1234.42,1092.19 1232.28,1090.56 C1230.26,1088.8 1229.25,1086.59 1229.25,1083.92 C1229.25,1079.43 1231.59,1075.23 1236.28,1071.33 C1240.84,1067.42 1245.82,1065.47 1251.21,1065.47"/>
<path class="Note" d="M1091.74,1090.47 C1094.86,1090.47 1097.5,1091.28 1099.66,1092.9 C1101.67,1094.67 1102.67,1096.88 1102.67,1099.55 C1102.67,1104.03 1100.37,1108.23 1095.75,1112.14 C1091.06,1116.05 1086.05,1118 1080.7,1118 C1077.58,1118 1074.94,1117.19 1072.8,1115.56 C1070.78,1113.8 1069.77,1111.59 1069.77,1108.92 C1069.77,1104.43 1072.11,1100.23 1076.8,1096.33 C1081.36,1092.42 1086.34,1090.47 1091.74,1090.47"/>
<path class="Note" d="M966.257,1077.97 C969.382,1077.97 972.023,1078.78 974.179,1080.4 C976.189,1082.17 977.195,1084.38 977.195,1087.05 C977.195,1091.53 974.887,1095.73 970.273,1099.64 C965.585,1103.55 960.57,1105.5 955.226,1105.5 C952.101,1105.5 949.465,1104.69 947.32,1103.06 C945.299,1101.3 944.288,1099.09 944.288,1096.42 C944.288,1091.93 946.632,1087.73 951.32,1083.83 C955.882,1079.92 960.861,1077.97 966.257,1077.97"/>
<path class="Note" d="M840.778,1065.47 C843.903,1065.47 846.544,1066.28 848.7,1067.9 C850.711,1069.67 851.716,1071.88 851.716,1074.55 C851.716,1079.03 849.409,1083.23 844.794,1087.14 C840.106,1091.05 835.091,1093 829.747,1093 C826.622,1093 823.987,1092.19 821.841,1090.56 C819.82,1088.8 818.81,1086.59 818.81,1083.92 C818.81,1079.43 821.153,1075.23 825.841,1071.33 C830.403,1067.42 835.382,1065.47 840.778,1065.47"/>
<path class="Note" d="M715.299,1052.97 C718.424,1052.97 721.065,1053.78 723.221,1055.4 C725.232,1057.17 726.237,1059.38 726.237,1062.05 C726.237,1066.53 723.93,1070.73 719.315,1074.64 C714.628,1078.55 709.612,1080.5 704.268,1080.5 C701.143,1080.5 698.508,1079.69 696.362,1078.06 C694.341,1076.3 693.331,1074.09 693.331,1071.42 C693.331,1066.93 695.674,1062.73 700.362,1058.83 C704.924,1054.92 709.904,1052.97 715.299,1052.97"/>
<path class="Note" d="M589.821,1052.97 C592.946,1052.97 595.586,1053.78 597.743,1055.4 C599.753,1057.17 600.758,1059.38 600.758,1062.05 C600.758,1066.53 598.451,1070.73 593.836,1074.64 C589.149,1078.55 584.133,1080.5 578.789,1080.5 C575.664,1080.5 573.029,1079.69 570.883,1078.06 C568.862,1076.3 567.852,1074.09 567.852,1071.42 C567.852,1066.93 570.196,1062.73 574.883,1058.83 C579.446,1054.92 584.425,1052.97 589.821,1052.97"/>
<path class="Note" d="M464.342,1052.97 C467.467,1052.97 470.107,1053.78 472.264,1055.4 C474.274,1057.17 475.279,1059.38 475.279,1062.05 C475.279,1066.53 472.972,1070.73 468.357,1074.64 C463.67,1078.55 458.654,1080.5 453.311,1080.5 C450.186,1080.5 447.55,1079.69 445.404,1078.06 C443.384,1076.3 442.373,1074.09 442.373,1071.42 C442.373,1066.93 444.717,1062.73 449.404,1058.83 C453.967,1054.92 458.946,1052.97 464.342,1052.97"/>
<path class="Note" d="M2400.1,610.186 C2400.1,609.082 2399.67,608.139 2398.83,607.358 C2397.98,606.514 2397,606.092 2395.89,606.092 C2393.94,606.092 2390.01,608.045 2384.08,611.951 C2377.95,615.92 2374.21,618.753 2372.85,620.451 C2372.13,621.358 2371.77,622.3 2371.77,623.279 C2371.77,624.384 2372.19,625.326 2373.05,626.108 C2373.83,626.951 2374.8,627.373 2375.97,627.373 C2377.86,627.373 2381.83,625.42 2387.89,621.514 C2393.88,617.608 2397.59,614.774 2399.02,613.014 C2399.74,612.17 2400.1,611.227 2400.1,610.186 M2394.92,602.967 C2400.52,602.967 2403.31,605.373 2403.31,610.186 C2403.31,612.529 2402.63,615.264 2401.27,618.389 C2399.9,621.451 2398.08,623.795 2395.8,625.42 C2390.79,628.805 2384.51,630.498 2376.95,630.498 C2371.35,630.498 2368.55,628.092 2368.55,623.279 C2368.55,621.134 2369.23,618.43 2370.6,615.17 C2371.9,612.045 2373.72,609.67 2376.06,608.045 C2381.08,604.66 2387.37,602.967 2394.92,602.967"/>
<path class="Note" d="M2241.5,590.467 C2244.62,590.467 2247.26,591.279 2249.42,592.904 C2251.43,594.665 2252.43,596.878 2252.43,599.545 C2252.43,604.035 2250.13,608.233 2245.51,612.139 C2240.82,616.045 2235.81,617.998 2230.46,617.998 C2227.34,617.998 2224.7,617.186 2222.56,615.561 C2220.54,613.8 2219.53,611.587 2219.53,608.92 C2219.53,604.43 2221.87,600.233 2226.56,596.326 C2231.12,592.42 2236.1,590.467 2241.5,590.467"/>
<path class="Note" d="M2127.38,577.967 C2130.5,577.967 2133.14,578.779 2135.3,580.404 C2137.31,582.165 2138.31,584.378 2138.31,587.045 C2138.31,591.535 2136.01,595.733 2131.39,599.639 C2126.7,603.545 2121.69,605.498 2116.34,605.498 C2113.22,605.498 2110.58,604.686 2108.44,603.061 C2106.42,601.3 2105.41,599.087 2105.41,596.42 C2105.41,591.93 2107.75,587.733 2112.44,583.826 C2117,579.92 2121.98,577.967 2127.38,577.967"/>
<path class="Note" d="M2013.26,565.467 C2016.38,565.467 2019.02,566.279 2021.18,567.904 C2023.19,569.665 2024.19,571.878 2024.19,574.545 C2024.19,579.035 2021.89,583.233 2017.27,587.139 C2012.58,591.045 2007.57,592.998 2002.22,592.998 C1999.1,592.998 1996.46,592.186 1994.32,590.561 C1992.3,588.8 1991.29,586.587 1991.29,583.92 C1991.29,579.43 1993.63,575.233 1998.32,571.326 C2002.88,567.42 2007.86,565.467 2013.26,565.467"/>
<path class="Note" d="M1899.14,552.967 C1902.26,552.967 1904.9,553.779 1907.06,555.404 C1909.07,557.165 1910.07,559.378 1910.07,562.045 C1910.07,566.535 1907.77,570.733 1903.15,574.639 C1898.46,578.545 1893.45,580.498 1888.11,580.498 C1884.98,580.498 1882.34,579.686 1880.2,578.061 C1878.18,576.3 1877.17,574.087 1877.17,571.42 C1877.17,566.93 1879.51,562.733 1884.2,558.826 C1888.76,554.92 1893.74,552.967 1899.14,552.967"/>
<path class="Note" d="M1827.81,565.467 C1830.94,565.467 1833.58,566.279 1835.73,567.904 C1837.74,569.665 1838.75,571.878 1838.75,574.545 C1838.75,579.035 1836.44,583.233 1831.83,587.139 C1827.14,591.045 1822.12,592.998 1816.78,592.998 C1813.66,592.998 1811.02,592.186 1808.87,590.561 C1806.85,588.8 1805.84,586.587 1805.84,583.92 C1805.84,579.43 1808.19,575.233 1812.87,571.326 C1817.44,567.42 1822.42,565.467 1827.81,565.467"/>
<path class="Note" d="M1688.66,552.967 C1691.78,552.967 1694.42,553.779 1696.58,555.404 C1698.59,557.165 1699.6,559.378 1699.6,562.045 C1699.6,566.535 1697.29,570.733 1692.67,574.639 C1687.99,578.545 1682.97,580.498 1677.63,580.498 C1674.5,580.498 1671.87,579.686 1669.72,578.061 C1667.7,576.3 1666.69,574.087 1666.69,571.42 C1666.69,566.93 1669.03,562.733 1673.72,558.826 C1678.28,554.92 1683.26,552.967 1688.66,552.967"/>
<path class="Note" d="M1474.3,540.467 C1477.43,540.467 1480.07,541.279 1482.23,542.904 C1484.24,544.665 1485.24,546.878 1485.24,549.545 C1485.24,554.035 1482.93,558.233 1478.32,562.139 C1473.63,566.045 1468.62,567.998 1463.27,567.998 C1460.15,567.998 1457.51,567.186 1455.37,565.561 C1453.35,563.8 1452.34,561.587 1452.34,558.92 C1452.34,554.43 1454.68,550.233 1459.37,546.326 C1463.93,542.42 1468.91,540.467 1474.3,540.467"/>
<path class="Note" d="M1293.95,527.967 C1297.07,527.967 1299.71,528.779 1301.87,530.404 C1303.88,532.165 1304.89,534.378 1304.89,537.045 C1304.89,541.535 1302.58,545.733 1297.96,549.639 C1293.28,553.545 1288.26,555.498 1282.92,555.498 C1279.79,555.498 1277.16,554.686 1275.01,553.061 C1272.99,551.3 1271.98,549.087 1271.98,546.42 C1271.98,541.93 1274.32,537.733 1279.01,533.826 C1283.57,529.92 1288.55,527.967 1293.95,527.967"/>
<path class="Note" d="M1181.23,565.467 C1184.35,565.467 1186.99,566.279 1189.15,567.904 C1191.16,569.665 1192.17,571.878 1192.17,574.545 C1192.17,579.035 1189.86,583.233 1185.24,587.139 C1180.56,591.045 1175.54,592.998 1170.2,592.998 C1167.07,592.998 1164.44,592.186 1162.29,590.561 C1160.27,588.8 1159.26,586.587 1159.26,583.92 C1159.26,579.43 1161.6,575.233 1166.29,571.326 C1170.85,567.42 1175.83,565.467 1181.23,565.467"/>
<path class="Note" d="M1068.51,565.467 C1071.63,565.467 1074.27,566.279 1076.43,567.904 C1078.44,569.665 1079.44,571.878 1079.44,574.545 C1079.44,579.035 1077.14,583.233 1072.52,587.139 C1067.83,591.045 1062.82,592.998 1057.47,592.998 C1054.35,592.998 1051.71,592.186 1049.57,590.561 C1047.55,588.8 1046.54,586.587 1046.54,583.92 C1046.54,579.43 1048.88,575.233 1053.57,571.326 C1058.13,567.42 1063.11,565.467 1068.51,565.467"/>
<path class="Note" d="M865.297,565.467 C868.422,565.467 871.062,566.279 873.219,567.904 C875.229,569.665 876.234,571.878 876.234,574.545 C876.234,579.035 873.927,583.233 869.312,587.139 C864.625,591.045 859.609,592.998 854.265,592.998 C851.14,592.998 848.505,592.186 846.359,590.561 C844.338,588.8 843.328,586.587 843.328,583.92 C843.328,579.43 845.672,575.233 850.359,571.326 C854.922,567.42 859.901,565.467 865.297,565.467"/>
<path class="Note" d="M696.088,565.467 C699.213,565.467 701.853,566.279 704.009,567.904 C706.02,569.665 707.025,571.878 707.025,574.545 C707.025,579.035 704.718,583.233 700.103,587.139 C695.416,591.045 690.4,592.998 685.056,592.998 C681.931,592.998 679.296,592.186 677.15,590.561 C675.129,588.8 674.119,586.587 674.119,583.92 C674.119,579.43 676.463,575.233 681.15,571.326 C685.713,567.42 690.692,565.467 696.088,565.467"/>
<path class="Note" d="M590.332,590.467 C593.457,590.467 596.098,591.279 598.254,592.904 C600.264,594.665 601.269,596.878 601.269,599.545 C601.269,604.035 598.962,608.233 594.348,612.139 C589.66,616.045 584.644,617.998 579.301,617.998 C576.176,617.998 573.54,617.186 571.394,615.561 C569.374,613.8 568.363,611.587 568.363,608.92 C568.363,604.43 570.707,600.233 575.394,596.326 C579.957,592.42 584.936,590.467 590.332,590.467"/>
<path class="Note" d="M484.576,615.467 C487.701,615.467 490.342,616.279 492.498,617.904 C494.509,619.665 495.514,621.878 495.514,624.545 C495.514,629.035 493.206,633.233 488.592,637.139 C483.904,641.045 478.889,642.998 473.545,642.998 C470.42,642.998 467.785,642.186 465.639,640.561 C463.618,638.8 462.607,636.587 462.607,633.92 C462.607,629.431 464.951,625.233 469.639,621.326 C474.201,617.42 479.18,615.467 484.576,615.467"/>
<path class="Clef" d="M190.951,1566.14 C190.951,1566.14 191.149,1566.14 191.545,1566.14 C191.805,1566.08 192.029,1566.05 192.217,1566.05 C199.508,1566.05 205.498,1568.62 210.185,1573.76 C214.873,1578.84 217.217,1584.76 217.217,1591.53 C217.217,1599.94 213.737,1606.77 206.779,1612.05 C204.956,1613.48 202.576,1614.66 199.639,1615.56 C199.972,1619.79 200.139,1623.21 200.139,1625.81 C200.139,1626.33 200.071,1628.22 199.935,1631.48 C199.675,1637.54 197.592,1642.77 193.685,1647.2 C189.915,1651.57 185.227,1653.75 179.623,1653.75 C174.352,1653.75 169.862,1651.89 166.154,1648.19 C162.435,1644.41 160.576,1639.85 160.576,1634.51 C160.576,1631.71 161.654,1629.33 163.81,1627.37 C166.019,1625.43 168.586,1624.45 171.514,1624.45 C174.118,1624.45 176.3,1625.46 178.06,1627.48 C179.883,1629.37 180.795,1631.71 180.795,1634.51 C180.795,1637.05 179.883,1639.22 178.06,1641.05 C176.237,1642.87 174.055,1643.78 171.514,1643.78 C170.472,1643.78 169.467,1643.59 168.498,1643.2 C171.362,1647.43 175.17,1649.55 179.92,1649.55 C184.409,1649.55 188.086,1647.72 190.951,1644.08 C193.951,1640.31 195.581,1635.91 195.842,1630.89 C195.967,1627.76 196.029,1625.98 196.029,1625.53 C196.029,1621.88 195.899,1618.89 195.639,1616.55 C192.389,1617.07 189.493,1617.33 186.951,1617.33 C177.899,1617.33 170.185,1613.74 163.81,1606.58 C157.56,1599.35 154.435,1590.75 154.435,1580.8 C154.435,1578.71 154.628,1576.6 155.014,1574.45 C155.409,1572.69 155.899,1570.77 156.482,1568.69 C156.805,1567.51 157.685,1565.62 159.123,1563.01 C159.644,1562.23 160.23,1561.26 160.881,1560.08 C161.532,1558.91 161.987,1558.13 162.248,1557.75 C162.894,1556.45 164.159,1554.69 166.045,1552.47 C166.566,1551.88 167.105,1551.24 167.662,1550.52 C168.219,1549.81 168.693,1549.22 169.084,1548.76 C169.474,1548.31 169.766,1547.95 169.959,1547.69 C170.152,1547.43 171.618,1545.7 174.357,1542.51 C175.003,1541.86 175.636,1541.16 176.256,1540.41 C176.876,1539.67 177.381,1539.08 177.771,1538.66 C178.162,1538.23 178.456,1537.92 178.654,1537.73 C176.31,1529.98 174.842,1523.8 174.248,1519.17 C173.8,1515.46 173.576,1510.38 173.576,1503.94 C173.576,1498.27 174.878,1492.96 177.482,1488.01 C180.014,1482.88 183.56,1478.68 188.123,1475.42 C188.383,1475.22 188.706,1475.12 189.092,1475.12 C189.55,1475.12 189.878,1475.22 190.076,1475.42 C193.586,1479.65 196.612,1485.15 199.154,1491.92 C201.758,1498.69 203.06,1504.85 203.06,1510.39 C203.06,1516.64 201.566,1522.5 198.576,1527.97 C195.191,1533.76 190.826,1539.75 185.482,1545.94 C186.847,1550.23 188.67,1556.96 190.951,1566.14 M199.248,1611.56 C202.633,1610.32 205.274,1608.21 207.17,1605.22 C209.253,1602.35 210.295,1599.13 210.295,1595.55 C210.295,1590.92 208.732,1586.82 205.607,1583.23 C202.409,1579.52 198.336,1577.44 193.389,1576.98 C196.191,1590.72 198.144,1602.25 199.248,1611.56 M161.467,1589 C161.467,1595.45 164.071,1601.11 169.279,1606 C174.612,1610.75 180.602,1613.12 187.248,1613.12 C189.977,1613.12 192.644,1612.93 195.248,1612.53 C194.206,1602.63 192.154,1590.79 189.092,1576.98 C185.383,1577.38 182.425,1578.68 180.217,1580.89 C178.06,1583.17 176.982,1585.74 176.982,1588.61 C176.982,1593.56 179.623,1597.56 184.904,1600.62 C185.352,1601.08 185.576,1601.57 185.576,1602.09 C185.576,1602.61 185.352,1603.1 184.904,1603.55 C184.508,1604 184.019,1604.23 183.435,1604.23 C183.373,1604.23 183.081,1604.17 182.56,1604.05 C178.842,1602.02 175.977,1599.42 173.967,1596.23 C172.071,1592.84 171.123,1589.42 171.123,1585.97 C171.123,1581.48 172.524,1577.41 175.326,1573.76 C178.253,1570.12 182.06,1567.77 186.748,1566.73 C184.925,1559.44 183.43,1553.74 182.264,1549.64 C181.222,1550.82 179.969,1552.23 178.506,1553.89 C177.042,1555.55 176.18,1556.54 175.92,1556.87 C173.576,1559.93 171.784,1562.3 170.545,1564 C168.326,1567.06 166.696,1569.7 165.654,1571.91 C164.55,1574.38 163.576,1577.09 162.732,1580.01 C161.889,1582.82 161.467,1585.81 161.467,1589 M194.076,1489.69 C189.191,1492.09 185.352,1495.54 182.56,1500.03 C179.696,1504.66 178.264,1509.63 178.264,1514.97 C178.264,1519.66 179.435,1525.97 181.779,1533.92 C186.467,1528.25 189.982,1523.01 192.326,1518.2 C194.795,1513.12 196.029,1507.81 196.029,1502.28 C196.029,1498.11 195.378,1493.92 194.076,1489.69"/>
<path class="Clef" d="M190.951,1091.14 C190.951,1091.14 191.149,1091.14 191.545,1091.14 C191.805,1091.08 192.029,1091.05 192.217,1091.05 C199.508,1091.05 205.498,1093.62 210.185,1098.76 C214.873,1103.84 217.217,1109.76 217.217,1116.53 C217.217,1124.94 213.737,1131.77 206.779,1137.05 C204.956,1138.48 202.576,1139.65 199.639,1140.56 C199.972,1144.79 200.139,1148.21 200.139,1150.81 C200.139,1151.33 200.071,1153.22 199.935,1156.48 C199.675,1162.53 197.592,1167.77 193.685,1172.2 C189.915,1176.57 185.227,1178.75 179.623,1178.75 C174.352,1178.75 169.862,1176.89 166.154,1173.19 C162.435,1169.4 160.576,1164.85 160.576,1159.51 C160.576,1156.71 161.654,1154.33 163.81,1152.37 C166.019,1150.43 168.586,1149.45 171.514,1149.45 C174.118,1149.45 176.3,1150.46 178.06,1152.48 C179.883,1154.37 180.795,1156.71 180.795,1159.51 C180.795,1162.05 179.883,1164.22 178.06,1166.05 C176.237,1167.87 174.055,1168.78 171.514,1168.78 C170.472,1168.78 169.467,1168.59 168.498,1168.2 C171.362,1172.43 175.17,1174.55 179.92,1174.55 C184.409,1174.55 188.086,1172.72 190.951,1169.08 C193.951,1165.31 195.581,1160.91 195.842,1155.89 C195.967,1152.76 196.029,1150.98 196.029,1150.53 C196.029,1146.88 195.899,1143.89 195.639,1141.55 C192.389,1142.07 189.493,1142.33 186.951,1142.33 C177.899,1142.33 170.185,1138.74 163.81,1131.58 C157.56,1124.35 154.435,1115.75 154.435,1105.8 C154.435,1103.71 154.628,1101.6 155.014,1099.45 C155.409,1097.69 155.899,1095.77 156.482,1093.69 C156.805,1092.51 157.685,1090.62 159.123,1088.01 C159.644,1087.23 160.23,1086.26 160.881,1085.08 C161.532,1083.91 161.987,1083.13 162.248,1082.75 C162.894,1081.45 164.159,1079.69 166.045,1077.47 C166.566,1076.88 167.105,1076.24 167.662,1075.52 C168.219,1074.81 168.693,1074.22 169.084,1073.76 C169.474,1073.31 169.766,1072.95 169.959,1072.69 C170.152,1072.43 171.618,1070.7 174.357,1067.51 C175.003,1066.86 175.636,1066.16 176.256,1065.41 C176.876,1064.67 177.381,1064.08 177.771,1063.65 C178.162,1063.23 178.456,1062.92 178.654,1062.73 C176.31,1054.98 174.842,1048.8 174.248,1044.17 C173.8,1040.46 173.576,1035.38 173.576,1028.94 C173.576,1023.27 174.878,1017.96 177.482,1013.01 C180.014,1007.88 183.56,1003.68 188.123,1000.42 C188.383,1000.22 188.706,1000.12 189.092,1000.12 C189.55,1000.12 189.878,1000.22 190.076,1000.42 C193.586,1004.65 196.612,1010.15 199.154,1016.92 C201.758,1023.69 203.06,1029.85 203.06,1035.39 C203.06,1041.64 201.566,1047.5 198.576,1052.97 C195.191,1058.76 190.826,1064.75 185.482,1070.94 C186.847,1075.23 188.67,1081.96 190.951,1091.14 M199.248,1136.56 C202.633,1135.32 205.274,1133.21 207.17,1130.22 C209.253,1127.35 210.295,1124.13 210.295,1120.55 C210.295,1115.92 208.732,1111.82 205.607,1108.23 C202.409,1104.52 198.336,1102.44 193.389,1101.98 C196.191,1115.72 198.144,1127.25 199.248,1136.56 M161.467,1114 C161.467,1120.45 164.071,1126.11 169.279,1131 C174.612,1135.75 180.602,1138.12 187.248,1138.12 C189.977,1138.12 192.644,1137.93 195.248,1137.53 C194.206,1127.63 192.154,1115.78 189.092,1101.98 C185.383,1102.38 182.425,1103.68 180.217,1105.89 C178.06,1108.17 176.982,1110.74 176.982,1113.61 C176.982,1118.56 179.623,1122.56 184.904,1125.62 C185.352,1126.08 185.576,1126.57 185.576,1127.09 C185.576,1127.61 185.352,1128.1 184.904,1128.55 C184.508,1129 184.019,1129.23 183.435,1129.23 C183.373,1129.23 183.081,1129.17 182.56,1129.05 C178.842,1127.02 175.977,1124.42 173.967,1121.23 C172.071,1117.84 171.123,1114.42 171.123,1110.97 C171.123,1106.48 172.524,1102.41 175.326,1098.76 C178.253,1095.12 182.06,1092.77 186.748,1091.73 C184.925,1084.44 183.43,1078.74 182.264,1074.64 C181.222,1075.82 179.969,1077.23 178.506,1078.89 C177.042,1080.55 176.18,1081.54 175.92,1081.87 C173.576,1084.93 171.784,1087.3 170.545,1089 C168.326,1092.06 166.696,1094.7 165.654,1096.9 C164.55,1099.38 163.576,1102.09 162.732,1105.01 C161.889,1107.82 161.467,1110.81 161.467,1114 M194.076,1014.69 C189.191,1017.09 185.352,1020.54 182.56,1025.03 C179.696,1029.65 178.264,1034.63 178.264,1039.97 C178.264,1044.65 179.435,1050.97 181.779,1058.92 C186.467,1053.25 189.982,1048.01 192.326,1043.2 C194.795,1038.12 196.029,1032.81 196.029,1027.28 C196.029,1023.11 195.378,1018.92 194.076,1014.69"/>
<path class="Clef" d="M190.951,616.139 C190.951,616.139 191.149,616.139 191.545,616.139 C191.805,616.076 192.029,616.045 192.217,616.045 C199.508,616.045 205.498,618.618 210.185,623.764 C214.873,628.837 217.217,634.759 217.217,641.529 C217.217,649.936 213.737,656.774 206.779,662.045 C204.956,663.483 202.576,664.654 199.639,665.561 C199.972,669.79 200.139,673.207 200.139,675.811 C200.139,676.332 200.071,678.222 199.935,681.483 C199.675,687.535 197.592,692.774 193.685,697.201 C189.915,701.566 185.227,703.748 179.623,703.748 C174.352,703.748 169.862,701.894 166.154,698.186 C162.435,694.404 160.576,689.847 160.576,684.514 C160.576,681.712 161.654,679.332 163.81,677.373 C166.019,675.425 168.586,674.451 171.514,674.451 C174.118,674.451 176.3,675.462 178.06,677.483 C179.883,679.368 180.795,681.712 180.795,684.514 C180.795,687.045 179.883,689.222 178.06,691.045 C176.237,692.868 174.055,693.779 171.514,693.779 C170.472,693.779 169.467,693.587 168.498,693.201 C171.362,697.431 175.17,699.545 179.92,699.545 C184.409,699.545 188.086,697.722 190.951,694.076 C193.951,690.306 195.581,685.91 195.842,680.889 C195.967,677.764 196.029,675.977 196.029,675.529 C196.029,671.884 195.899,668.889 195.639,666.545 C192.389,667.066 189.493,667.326 186.951,667.326 C177.899,667.326 170.185,663.743 163.81,656.576 C157.56,649.347 154.435,640.753 154.435,630.795 C154.435,628.712 154.628,626.597 155.014,624.451 C155.409,622.691 155.899,620.769 156.482,618.686 C156.805,617.509 157.685,615.618 159.123,613.014 C159.644,612.233 160.23,611.256 160.881,610.084 C161.532,608.912 161.987,608.134 162.248,607.748 C162.894,606.446 164.159,604.686 166.045,602.467 C166.566,601.884 167.105,601.235 167.662,600.522 C168.219,599.808 168.693,599.222 169.084,598.764 C169.474,598.306 169.766,597.946 169.959,597.686 C170.152,597.425 171.618,595.701 174.357,592.514 C175.003,591.858 175.636,591.157 176.256,590.412 C176.876,589.667 177.381,589.082 177.771,588.654 C178.162,588.227 178.456,587.92 178.654,587.733 C176.31,579.983 174.842,573.795 174.248,569.17 C173.8,565.462 173.576,560.384 173.576,553.936 C173.576,548.269 174.878,542.962 177.482,538.014 C180.014,532.878 183.56,528.681 188.123,525.42 C188.383,525.222 188.706,525.123 189.092,525.123 C189.55,525.123 189.878,525.222 190.076,525.42 C193.586,529.649 196.612,535.149 199.154,541.92 C201.758,548.691 203.06,554.847 203.06,560.389 C203.06,566.639 201.566,572.498 198.576,577.967 C195.191,583.759 190.826,589.748 185.482,595.936 C186.847,600.227 188.67,606.962 190.951,616.139 M199.248,661.561 C202.633,660.321 205.274,658.207 207.17,655.217 C209.253,652.352 210.295,649.128 210.295,645.545 C210.295,640.92 208.732,636.816 205.607,633.233 C202.409,629.524 198.336,627.441 193.389,626.983 C196.191,640.722 198.144,652.248 199.248,661.561 M161.467,638.998 C161.467,645.446 164.071,651.113 169.279,655.998 C174.612,660.748 180.602,663.123 187.248,663.123 C189.977,663.123 192.644,662.925 195.248,662.529 C194.206,652.634 192.154,640.785 189.092,626.983 C185.383,627.378 182.425,628.681 180.217,630.889 C178.06,633.17 176.982,635.743 176.982,638.608 C176.982,643.556 179.623,647.561 184.904,650.623 C185.352,651.082 185.576,651.571 185.576,652.092 C185.576,652.613 185.352,653.097 184.904,653.545 C184.508,654.003 184.019,654.233 183.435,654.233 C183.373,654.233 183.081,654.17 182.56,654.045 C178.842,652.024 175.977,649.42 173.967,646.233 C172.071,642.837 171.123,639.415 171.123,635.967 C171.123,631.477 172.524,627.41 175.326,623.764 C178.253,620.118 182.06,617.774 186.748,616.733 C184.925,609.441 183.43,603.743 182.264,599.639 C181.222,600.816 179.969,602.233 178.506,603.889 C177.042,605.545 176.18,606.54 175.92,606.873 C173.576,609.925 171.784,612.3 170.545,613.998 C168.326,617.061 166.696,619.696 165.654,621.904 C164.55,624.384 163.576,627.087 162.732,630.014 C161.889,632.816 161.467,635.811 161.467,638.998 M194.076,539.686 C189.191,542.092 185.352,545.54 182.56,550.029 C179.696,554.654 178.264,559.634 178.264,564.967 C178.264,569.654 179.435,575.972 181.779,583.92 C186.467,578.253 189.982,573.014 192.326,568.201 C194.795,563.118 196.029,557.811 196.029,552.279 C196.029,548.113 195.378,543.915 194.076,539.686"/>
<path class="KeySig" d="M313.748,1535.39 C313.748,1536.63 313.131,1537.25 311.896,1537.25 C310.662,1537.25 310.045,1536.63 310.045,1535.39 L310.045,1520.94 L301.748,1524.06 L301.748,1539.87 C301.748,1541.11 301.128,1541.73 299.889,1541.73 C298.649,1541.73 298.029,1541.11 298.029,1539.87 L298.029,1525.33 L294.904,1526.5 C294.842,1526.56 294.581,1526.59 294.123,1526.59 C293.602,1526.59 293.146,1526.4 292.756,1526.01 C292.365,1525.62 292.17,1525.16 292.17,1524.64 L292.17,1518.59 C292.17,1517.61 292.592,1516.99 293.436,1516.73 L298.029,1515.17 L298.029,1499.16 L294.904,1500.23 C294.842,1500.3 294.581,1500.33 294.123,1500.33 C293.602,1500.33 293.146,1500.13 292.756,1499.74 C292.365,1499.35 292.17,1498.89 292.17,1498.37 L292.17,1492.31 C292.17,1491.41 292.592,1490.82 293.436,1490.56 L298.029,1488.8 L298.029,1473.08 C298.029,1471.84 298.649,1471.22 299.889,1471.22 C301.128,1471.22 301.748,1471.84 301.748,1473.08 L301.748,1487.53 L310.045,1484.41 L310.045,1468.59 C310.045,1467.35 310.662,1466.73 311.896,1466.73 C313.131,1466.73 313.748,1467.35 313.748,1468.59 L313.748,1483.14 L316.982,1481.97 C317.045,1481.91 317.269,1481.87 317.654,1481.87 C318.113,1481.87 318.602,1482.07 319.123,1482.45 C319.519,1482.85 319.717,1483.31 319.717,1483.83 L319.717,1489.87 C319.717,1490.79 319.258,1491.41 318.342,1491.73 L313.748,1493.3 L313.748,1509.31 L316.982,1508.23 C317.045,1508.17 317.269,1508.14 317.654,1508.14 C318.113,1508.14 318.602,1508.34 319.123,1508.73 C319.519,1509.12 319.717,1509.57 319.717,1510.09 L319.717,1516.16 C319.717,1517 319.258,1517.58 318.342,1517.91 L313.748,1519.67 L313.748,1535.39 M310.045,1494.76 L301.748,1497.69 L301.748,1513.7 L310.045,1510.78 L310.045,1494.76 "/>
<path class="KeySig" d="M288.748,1585.39 C288.748,1586.63 288.131,1587.25 286.896,1587.25 C285.662,1587.25 285.045,1586.63 285.045,1585.39 L285.045,1570.94 L276.748,1574.06 L276.748,1589.87 C276.748,1591.11 276.128,1591.73 274.889,1591.73 C273.649,1591.73 273.029,1591.11 273.029,1589.87 L273.029,1575.33 L269.904,1576.5 C269.842,1576.56 269.581,1576.59 269.123,1576.59 C268.602,1576.59 268.146,1576.4 267.756,1576.01 C267.365,1575.62 267.17,1575.16 267.17,1574.64 L267.17,1568.59 C267.17,1567.61 267.592,1566.99 268.435,1566.73 L273.029,1565.17 L273.029,1549.16 L269.904,1550.23 C269.842,1550.3 269.581,1550.33 269.123,1550.33 C268.602,1550.33 268.146,1550.13 267.756,1549.74 C267.365,1549.35 267.17,1548.89 267.17,1548.37 L267.17,1542.31 C267.17,1541.41 267.592,1540.82 268.435,1540.56 L273.029,1538.8 L273.029,1523.08 C273.029,1521.84 273.649,1521.22 274.889,1521.22 C276.128,1521.22 276.748,1521.84 276.748,1523.08 L276.748,1537.53 L285.045,1534.41 L285.045,1518.59 C285.045,1517.35 285.662,1516.73 286.896,1516.73 C288.131,1516.73 288.748,1517.35 288.748,1518.59 L288.748,1533.14 L291.982,1531.97 C292.045,1531.91 292.269,1531.87 292.654,1531.87 C293.113,1531.87 293.602,1532.07 294.123,1532.45 C294.519,1532.85 294.717,1533.31 294.717,1533.83 L294.717,1539.87 C294.717,1540.79 294.258,1541.41 293.342,1541.73 L288.748,1543.3 L288.748,1559.31 L291.982,1558.23 C292.045,1558.17 292.269,1558.14 292.654,1558.14 C293.113,1558.14 293.602,1558.34 294.123,1558.73 C294.519,1559.12 294.717,1559.57 294.717,1560.09 L294.717,1566.16 C294.717,1567 294.258,1567.58 293.342,1567.91 L288.748,1569.67 L288.748,1585.39 M285.045,1544.76 L276.748,1547.69 L276.748,1563.7 L285.045,1560.78 L285.045,1544.76 "/>
<path class="KeySig" d="M263.748,1547.89 C263.748,1549.13 263.131,1549.75 261.896,1549.75 C260.662,1549.75 260.045,1549.13 260.045,1547.89 L260.045,1533.44 L251.748,1536.56 L251.748,1552.37 C251.748,1553.61 251.128,1554.23 249.889,1554.23 C248.649,1554.23 248.029,1553.61 248.029,1552.37 L248.029,1537.83 L244.904,1539 C244.842,1539.06 244.581,1539.09 244.123,1539.09 C243.602,1539.09 243.146,1538.9 242.756,1538.51 C242.365,1538.12 242.17,1537.66 242.17,1537.14 L242.17,1531.09 C242.17,1530.11 242.592,1529.49 243.435,1529.23 L248.029,1527.67 L248.029,1511.66 L244.904,1512.73 C244.842,1512.8 244.581,1512.83 244.123,1512.83 C243.602,1512.83 243.146,1512.63 242.756,1512.24 C242.365,1511.85 242.17,1511.39 242.17,1510.87 L242.17,1504.81 C242.17,1503.91 242.592,1503.32 243.435,1503.06 L248.029,1501.3 L248.029,1485.58 C248.029,1484.34 248.649,1483.72 249.889,1483.72 C251.128,1483.72 251.748,1484.34 251.748,1485.58 L251.748,1500.03 L260.045,1496.91 L260.045,1481.09 C260.045,1479.85 260.662,1479.23 261.896,1479.23 C263.131,1479.23 263.748,1479.85 263.748,1481.09 L263.748,1495.64 L266.982,1494.47 C267.045,1494.41 267.269,1494.37 267.654,1494.37 C268.113,1494.37 268.602,1494.57 269.123,1494.95 C269.519,1495.35 269.717,1495.81 269.717,1496.33 L269.717,1502.37 C269.717,1503.29 269.258,1503.91 268.342,1504.23 L263.748,1505.8 L263.748,1521.81 L266.982,1520.73 C267.045,1520.67 267.269,1520.64 267.654,1520.64 C268.113,1520.64 268.602,1520.84 269.123,1521.23 C269.519,1521.62 269.717,1522.07 269.717,1522.59 L269.717,1528.66 C269.717,1529.5 269.258,1530.08 268.342,1530.41 L263.748,1532.17 L263.748,1547.89 M260.045,1507.26 L251.748,1510.19 L251.748,1526.2 L260.045,1523.28 L260.045,1507.26 "/>
<path class="KeySig" d="M313.748,1060.39 C313.748,1061.63 313.131,1062.25 311.896,1062.25 C310.662,1062.25 310.045,1061.63 310.045,1060.39 L310.045,1045.94 L301.748,1049.06 L301.748,1064.87 C301.748,1066.11 301.128,1066.73 299.889,1066.73 C298.649,1066.73 298.029,1066.11 298.029,1064.87 L298.029,1050.33 L294.904,1051.5 C294.842,1051.56 294.581,1051.59 294.123,1051.59 C293.602,1051.59 293.146,1051.4 292.756,1051.01 C292.365,1050.62 292.17,1050.16 292.17,1049.64 L292.17,1043.59 C292.17,1042.61 292.592,1041.99 293.436,1041.73 L298.029,1040.17 L298.029,1024.15 L294.904,1025.23 C294.842,1025.3 294.581,1025.33 294.123,1025.33 C293.602,1025.33 293.146,1025.13 292.756,1024.74 C292.365,1024.35 292.17,1023.89 292.17,1023.37 L292.17,1017.31 C292.17,1016.4 292.592,1015.82 293.436,1015.56 L298.029,1013.8 L298.029,998.077 C298.029,996.837 298.649,996.217 299.889,996.217 C301.128,996.217 301.748,996.837 301.748,998.077 L301.748,1012.53 L310.045,1009.4 L310.045,993.592 C310.045,992.353 310.662,991.733 311.896,991.733 C313.131,991.733 313.748,992.353 313.748,993.592 L313.748,1008.14 L316.982,1006.97 C317.045,1006.9 317.269,1006.87 317.654,1006.87 C318.113,1006.87 318.602,1007.07 319.123,1007.45 C319.519,1007.85 319.717,1008.31 319.717,1008.83 L319.717,1014.87 C319.717,1015.79 319.258,1016.41 318.342,1016.73 L313.748,1018.3 L313.748,1034.31 L316.982,1033.23 C317.045,1033.17 317.269,1033.14 317.654,1033.14 C318.113,1033.14 318.602,1033.34 319.123,1033.73 C319.519,1034.12 319.717,1034.57 319.717,1035.09 L319.717,1041.15 C319.717,1042 319.258,1042.58 318.342,1042.9 L313.748,1044.67 L313.748,1060.39 M310.045,1019.76 L301.748,1022.69 L301.748,1038.7 L310.045,1035.78 L310.045,1019.76 "/>
<path class="KeySig" d="M288.748,1110.39 C288.748,1111.63 288.131,1112.25 286.896,1112.25 C285.662,1112.25 285.045,1111.63 285.045,1110.39 L285.045,1095.94 L276.748,1099.06 L276.748,1114.87 C276.748,1116.11 276.128,1116.73 274.889,1116.73 C273.649,1116.73 273.029,1116.11 273.029,1114.87 L273.029,1100.33 L269.904,1101.5 C269.842,1101.56 269.581,1101.59 269.123,1101.59 C268.602,1101.59 268.146,1101.4 267.756,1101.01 C267.365,1100.62 267.17,1100.16 267.17,1099.64 L267.17,1093.59 C267.17,1092.61 267.592,1091.99 268.435,1091.73 L273.029,1090.17 L273.029,1074.15 L269.904,1075.23 C269.842,1075.3 269.581,1075.33 269.123,1075.33 C268.602,1075.33 268.146,1075.13 267.756,1074.74 C267.365,1074.35 267.17,1073.89 267.17,1073.37 L267.17,1067.31 C267.17,1066.4 267.592,1065.82 268.435,1065.56 L273.029,1063.8 L273.029,1048.08 C273.029,1046.84 273.649,1046.22 274.889,1046.22 C276.128,1046.22 276.748,1046.84 276.748,1048.08 L276.748,1062.53 L285.045,1059.4 L285.045,1043.59 C285.045,1042.35 285.662,1041.73 286.896,1041.73 C288.131,1041.73 288.748,1042.35 288.748,1043.59 L288.748,1058.14 L291.982,1056.97 C292.045,1056.9 292.269,1056.87 292.654,1056.87 C293.113,1056.87 293.602,1057.07 294.123,1057.45 C294.519,1057.85 294.717,1058.31 294.717,1058.83 L294.717,1064.87 C294.717,1065.79 294.258,1066.41 293.342,1066.73 L288.748,1068.3 L288.748,1084.31 L291.982,1083.23 C292.045,1083.17 292.269,1083.14 292.654,1083.14 C293.113,1083.14 293.602,1083.34 294.123,1083.73 C294.519,1084.12 294.717,1084.57 294.717,1085.09 L294.717,1091.15 C294.717,1092 294.258,1092.58 293.342,1092.9 L288.748,1094.67 L288.748,1110.39 M285.045,1069.76 L276.748,1072.69 L276.748,1088.7 L285.045,1085.78 L285.045,1069.76 "/>
<path class="KeySig" d="M263.748,1072.89 C263.748,1074.13 263.131,1074.75 261.896,1074.75 C260.662,1074.75 260.045,1074.13 260.045,1072.89 L260.045,1058.44 L251.748,1061.56 L251.748,1077.37 C251.748,1078.61 251.128,1079.23 249.889,1079.23 C248.649,1079.23 248.029,1078.61 248.029,1077.37 L248.029,1062.83 L244.904,1064 C244.842,1064.06 244.581,1064.09 244.123,1064.09 C243.602,1064.09 243.146,1063.9 242.756,1063.51 C242.365,1063.12 242.17,1062.66 242.17,1062.14 L242.17,1056.09 C242.17,1055.11 242.592,1054.49 243.435,1054.23 L248.029,1052.67 L248.029,1036.65 L244.904,1037.73 C244.842,1037.8 244.581,1037.83 244.123,1037.83 C243.602,1037.83 243.146,1037.63 242.756,1037.24 C242.365,1036.85 242.17,1036.39 242.17,1035.87 L242.17,1029.81 C242.17,1028.9 242.592,1028.32 243.435,1028.06 L248.029,1026.3 L248.029,1010.58 C248.029,1009.34 248.649,1008.72 249.889,1008.72 C251.128,1008.72 251.748,1009.34 251.748,1010.58 L251.748,1025.03 L260.045,1021.9 L260.045,1006.09 C260.045,1004.85 260.662,1004.23 261.896,1004.23 C263.131,1004.23 263.748,1004.85 263.748,1006.09 L263.748,1020.64 L266.982,1019.47 C267.045,1019.4 267.269,1019.37 267.654,1019.37 C268.113,1019.37 268.602,1019.57 269.123,1019.95 C269.519,1020.35 269.717,1020.81 269.717,1021.33 L269.717,1027.37 C269.717,1028.29 269.258,1028.91 268.342,1029.23 L263.748,1030.8 L263.748,1046.81 L266.982,1045.73 C267.045,1045.67 267.269,1045.64 267.654,1045.64 C268.113,1045.64 268.602,1045.84 269.123,1046.23 C269.519,1046.62 269.717,1047.07 269.717,1047.59 L269.717,1053.65 C269.717,1054.5 269.258,1055.08 268.342,1055.4 L263.748,1057.17 L263.748,1072.89 M260.045,1032.26 L251.748,1035.19 L251.748,1051.2 L260.045,1048.28 L260.045,1032.26 "/>
<path class="KeySig" d="M313.748,585.389 C313.748,586.628 313.131,587.248 311.896,587.248 C310.662,587.248 310.045,586.628 310.045,585.389 L310.045,570.936 L301.748,574.061 L301.748,589.873 C301.748,591.113 301.128,591.733 299.889,591.733 C298.649,591.733 298.029,591.113 298.029,589.873 L298.029,575.326 L294.904,576.498 C294.842,576.561 294.581,576.592 294.123,576.592 C293.602,576.592 293.146,576.397 292.756,576.006 C292.365,575.615 292.17,575.16 292.17,574.639 L292.17,568.592 C292.17,567.613 292.592,566.993 293.436,566.733 L298.029,565.17 L298.029,549.154 L294.904,550.233 C294.842,550.295 294.581,550.326 294.123,550.326 C293.602,550.326 293.146,550.131 292.756,549.74 C292.365,549.35 292.17,548.894 292.17,548.373 L292.17,542.311 C292.17,541.404 292.592,540.821 293.436,540.561 L298.029,538.795 L298.029,523.076 C298.029,521.837 298.649,521.217 299.889,521.217 C301.128,521.217 301.748,521.837 301.748,523.076 L301.748,537.529 L310.045,534.404 L310.045,518.592 C310.045,517.352 310.662,516.733 311.896,516.733 C313.131,516.733 313.748,517.352 313.748,518.592 L313.748,533.139 L316.982,531.967 C317.045,531.904 317.269,531.873 317.654,531.873 C318.113,531.873 318.602,532.066 319.123,532.451 C319.519,532.847 319.717,533.305 319.717,533.826 L319.717,539.873 C319.717,540.79 319.258,541.41 318.342,541.733 L313.748,543.295 L313.748,559.311 L316.982,558.233 C317.045,558.17 317.269,558.139 317.654,558.139 C318.113,558.139 318.602,558.337 319.123,558.733 C319.519,559.118 319.717,559.571 319.717,560.092 L319.717,566.154 C319.717,566.998 319.258,567.582 318.342,567.904 L313.748,569.67 L313.748,585.389 M310.045,544.764 L301.748,547.686 L301.748,563.701 L310.045,560.779 L310.045,544.764 "/>
<path class="KeySig" d="M288.748,635.389 C288.748,636.628 288.131,637.248 286.896,637.248 C285.662,637.248 285.045,636.628 285.045,635.389 L285.045,620.936 L276.748,624.061 L276.748,639.873 C276.748,641.113 276.128,641.733 274.889,641.733 C273.649,641.733 273.029,641.113 273.029,639.873 L273.029,625.326 L269.904,626.498 C269.842,626.561 269.581,626.592 269.123,626.592 C268.602,626.592 268.146,626.397 267.756,626.006 C267.365,625.615 267.17,625.16 267.17,624.639 L267.17,618.592 C267.17,617.613 267.592,616.993 268.435,616.733 L273.029,615.17 L273.029,599.154 L269.904,600.233 C269.842,600.295 269.581,600.326 269.123,600.326 C268.602,600.326 268.146,600.131 267.756,599.74 C267.365,599.35 267.17,598.894 267.17,598.373 L267.17,592.311 C267.17,591.404 267.592,590.821 268.435,590.561 L273.029,588.795 L273.029,573.076 C273.029,571.837 273.649,571.217 274.889,571.217 C276.128,571.217 276.748,571.837 276.748,573.076 L276.748,587.529 L285.045,584.404 L285.045,568.592 C285.045,567.352 285.662,566.733 286.896,566.733 C288.131,566.733 288.748,567.352 288.748,568.592 L288.748,583.139 L291.982,581.967 C292.045,581.904 292.269,581.873 292.654,581.873 C293.113,581.873 293.602,582.066 294.123,582.451 C294.519,582.847 294.717,583.305 294.717,583.826 L294.717,589.873 C294.717,590.79 294.258,591.41 293.342,591.733 L288.748,593.295 L288.748,609.311 L291.982,608.233 C292.045,608.17 292.269,608.139 292.654,608.139 C293.113,608.139 293.602,608.337 294.123,608.733 C294.519,609.118 294.717,609.571 294.717,610.092 L294.717,616.154 C294.717,616.998 294.258,617.582 293.342,617.904 L288.748,619.67 L288.748,635.389 M285.045,594.764 L276.748,597.686 L276.748,613.701 L285.045,610.779 L285.045,594.764 "/>
<path class="KeySig" d="M263.748,597.889 C263.748,599.128 263.131,599.748 261.896,599.748 C260.662,599.748 260.045,599.128 260.045,597.889 L260.045,583.436 L251.748,586.561 L251.748,602.373 C251.748,603.613 251.128,604.233 249.889,604.233 C248.649,604.233 248.029,603.613 248.029,602.373 L248.029,587.826 L244.904,588.998 C244.842,589.061 244.581,589.092 244.123,589.092 C243.602,589.092 243.146,588.897 242.756,588.506 C242.365,588.115 242.17,587.66 242.17,587.139 L242.17,581.092 C242.17,580.113 242.592,579.493 243.435,579.233 L248.029,577.67 L248.029,561.654 L244.904,562.733 C244.842,562.795 244.581,562.826 244.123,562.826 C243.602,562.826 243.146,562.631 242.756,562.24 C242.365,561.85 242.17,561.394 242.17,560.873 L242.17,554.811 C242.17,553.904 242.592,553.321 243.435,553.061 L248.029,551.295 L248.029,535.576 C248.029,534.337 248.649,533.717 249.889,533.717 C251.128,533.717 251.748,534.337 251.748,535.576 L251.748,550.029 L260.045,546.904 L260.045,531.092 C260.045,529.852 260.662,529.233 261.896,529.233 C263.131,529.233 263.748,529.852 263.748,531.092 L263.748,545.639 L266.982,544.467 C267.045,544.404 267.269,544.373 267.654,544.373 C268.113,544.373 268.602,544.566 269.123,544.951 C269.519,545.347 269.717,545.805 269.717,546.326 L269.717,552.373 C269.717,553.29 269.258,553.91 268.342,554.233 L263.748,555.795 L263.748,571.811 L266.982,570.733 C267.045,570.67 267.269,570.639 267.654,570.639 C268.113,570.639 268.602,570.837 269.123,571.233 C269.519,571.618 269.717,572.071 269.717,572.592 L269.717,578.654 C269.717,579.498 269.258,580.082 268.342,580.404 L263.748,582.17 L263.748,597.889 M260.045,557.264 L251.748,560.186 L251.748,576.201 L260.045,573.279 L260.045,557.264 "/>
<path class="TimeSig" d="M374.725,590.264 C374.725,590.92 375.084,591.54 375.803,592.123 C376.844,592.904 377.657,593.493 378.24,593.889 C379.021,594.337 379.839,595.378 380.693,597.014 C381.402,598.576 381.756,600.493 381.756,602.764 C381.756,607.264 380.1,610.717 376.787,613.123 C373.402,615.529 369.105,616.733 363.896,616.733 C359.657,616.733 356.074,615.691 353.146,613.608 C350.021,611.66 348.459,608.925 348.459,605.404 C348.459,603.717 349.11,602.154 350.412,600.717 C351.777,599.477 353.339,598.858 355.1,598.858 C356.923,598.858 358.423,599.509 359.6,600.811 C360.902,602.05 361.553,603.582 361.553,605.404 C361.553,606.248 360.902,607.16 359.6,608.139 C358.225,609.055 357.537,609.936 357.537,610.779 C357.537,612.019 358.157,612.93 359.396,613.514 C360.636,614.097 362.136,614.389 363.896,614.389 C366.167,614.389 367.792,613.285 368.771,611.076 C369.688,608.66 370.146,605.889 370.146,602.764 L370.146,601.108 C370.146,599.222 370.079,597.561 369.943,596.123 C369.818,595.019 369.365,594.014 368.584,593.108 C367.865,592.191 366.725,591.733 365.162,591.733 L357.146,591.733 C356.24,591.733 355.787,591.243 355.787,590.264 C355.787,589.42 356.24,588.93 357.146,588.795 L365.162,588.795 C366.985,588.795 368.287,588.212 369.068,587.045 C369.714,586.128 370.074,584.498 370.146,582.154 L370.146,578.936 L370.146,578.154 C370.146,572.102 367.933,569.076 363.506,569.076 C359.6,569.076 357.61,570.149 357.537,572.295 C357.537,573.014 358.157,573.795 359.396,574.639 C360.574,575.483 361.162,576.264 361.162,576.983 C361.162,578.608 360.574,580.009 359.396,581.186 C358.292,582.29 356.928,582.842 355.303,582.842 C353.74,582.842 352.402,582.29 351.287,581.186 C350.183,579.946 349.631,578.545 349.631,576.983 C349.631,573.92 351.001,571.415 353.74,569.467 C356.605,567.644 359.86,566.733 363.506,566.733 C368.381,566.733 372.417,567.675 375.615,569.561 C378.803,571.384 380.396,574.248 380.396,578.154 C380.396,580.957 380.105,583.071 379.521,584.498 C378.928,585.998 378.277,586.91 377.568,587.233 C376.787,587.566 376.136,587.957 375.615,588.404 C375.021,588.863 374.725,589.483 374.725,590.264"/>
<path class="TimeSig" d="M367.506,618.084 C369.454,618.084 371.113,617.858 372.482,617.404 C373.852,616.951 374.73,616.725 375.115,616.725 C375.574,616.725 375.933,616.855 376.193,617.115 C376.391,617.303 376.521,617.527 376.584,617.787 C376.584,617.923 376.516,618.121 376.381,618.381 L347.975,651.397 L364.662,651.397 L364.662,638.303 C364.662,637.459 364.891,636.74 365.35,636.147 C366.131,635.501 366.782,635.11 367.303,634.975 C368.146,634.589 369.188,633.678 370.428,632.24 C371.469,631.074 372.709,629.027 374.146,626.1 C374.334,625.704 374.626,625.506 375.021,625.506 C375.803,625.506 376.256,625.964 376.381,626.881 L376.381,651.397 L383.521,651.397 C384.428,651.397 384.949,651.881 385.084,652.85 C385.084,653.829 384.563,654.319 383.521,654.319 L376.381,654.319 L376.381,655.1 C376.381,657.704 377.032,659.917 378.334,661.74 C379.834,663.563 381.594,664.475 383.615,664.475 C384.396,664.475 384.787,664.865 384.787,665.647 C384.787,666.428 384.396,666.819 383.615,666.819 C382.251,666.819 380.037,666.626 376.975,666.24 C374.173,665.782 371.99,665.553 370.428,665.553 C368.803,665.553 366.62,665.782 363.881,666.24 C360.954,666.626 358.777,666.819 357.35,666.819 C356.568,666.819 356.178,666.428 356.178,665.647 C356.178,664.865 356.568,664.475 357.35,664.475 C359.36,664.475 361.115,663.563 362.615,661.74 C363.98,659.855 364.662,657.641 364.662,655.1 L364.662,654.319 L347.975,654.319 C346.86,654.319 346.079,654.058 345.631,653.537 C345.1,653.152 344.834,652.631 344.834,651.975 C344.834,651.777 345.324,651.095 346.303,649.928 C347.417,648.626 348.589,647.032 349.818,645.147 C351.256,642.928 352.626,640.647 353.928,638.303 C355.355,635.636 356.495,632.574 357.35,629.115 C358.318,625.605 358.803,622.027 358.803,618.381 C358.803,617.339 359.261,616.819 360.178,616.819 C360.376,616.819 360.798,616.917 361.443,617.115 C361.641,617.178 362.05,617.274 362.67,617.404 C363.29,617.535 363.792,617.662 364.178,617.787 C365.355,617.985 366.464,618.084 367.506,618.084"/>
<path class="Articulation" d="M2006.64,962.139 C2007.04,961.556 2007.59,961.264 2008.31,961.264 C2008.83,961.264 2009.29,961.459 2009.68,961.85 C2010.07,962.241 2010.27,962.696 2010.27,963.217 C2010.27,963.603 2010.17,963.962 2009.97,964.295 L2000.69,978.358 C2000.3,978.941 1999.72,979.233 1998.94,979.233 C1998.34,979.233 1997.85,979.004 1997.47,978.545 L1987.7,966.639 L1979.89,978.358 C1979.49,978.941 1978.91,979.233 1978.12,979.233 C1977.54,979.233 1977.06,979.004 1976.67,978.545 L1966.8,966.639 L1963.67,971.327 C1963.29,971.91 1962.73,972.202 1962.02,972.202 C1961.49,972.202 1961.04,972.006 1960.65,971.616 C1960.26,971.225 1960.06,970.769 1960.06,970.248 C1960.06,969.853 1960.16,969.493 1960.36,969.17 L1969.64,955.108 C1970.03,954.524 1970.61,954.233 1971.39,954.233 C1971.97,954.233 1972.46,954.462 1972.86,954.92 L1982.62,966.827 L1990.44,955.108 C1990.82,954.524 1991.41,954.233 1992.19,954.233 C1992.78,954.233 1993.27,954.462 1993.66,954.92 L2003.52,966.827 L2006.64,962.139 "/>
<path class="Beam" fill-rule="evenodd" d="M2295.59,1511.38 L2393.81,1485.53 L2393.81,1497.94 L2295.59,1523.79 L2295.59,1511.38 "/>
<path class="Beam" fill-rule="evenodd" d="M2105.65,1485.51 L2203.87,1491.97 L2203.87,1504 L2105.65,1497.53 L2105.65,1485.51 "/>
<path class="Beam" fill-rule="evenodd" d="M1838.57,1604.42 L2019.88,1629.88 L2019.88,1642 L1838.57,1616.54 L1838.57,1604.42 "/>
<path class="Beam" fill-rule="evenodd" d="M1838.57,1586.42 L2019.88,1611.88 L2019.88,1624 L1838.57,1598.54 L1838.57,1586.42 "/>
<path class="Beam" fill-rule="evenodd" d="M1491.09,1616.97 L1587.22,1610.5 L1587.22,1622.53 L1491.09,1629 L1491.09,1616.97 "/>
<path class="Beam" fill-rule="evenodd" d="M1282.11,1635.69 L1436.29,1654.84 L1436.29,1666.93 L1282.11,1647.78 L1282.11,1635.69 "/>
<path class="Beam" fill-rule="evenodd" d="M1374.99,1629.23 L1436.29,1636.84 L1436.29,1648.93 L1374.99,1641.32 L1374.99,1629.23 "/>
<path class="Beam" fill-rule="evenodd" d="M1103.62,1485.48 L1193.95,1491.97 L1193.95,1504 L1103.62,1497.52 L1103.62,1485.48 "/>
<path class="Beam" fill-rule="evenodd" d="M899.804,1610.72 L990.13,1617.2 L990.13,1629.23 L899.804,1622.75 L899.804,1610.72 "/>
<path class="Beam" fill-rule="evenodd" d="M725.652,1610.73 L815.978,1610.73 L815.978,1622.73 L725.652,1622.73 L725.652,1610.73 "/>
<path class="Beam" fill-rule="evenodd" d="M2555.38,1085.73 L2696.67,1092.12 L2696.67,1104.14 L2555.38,1097.74 L2555.38,1085.73 "/>
<path class="Beam" fill-rule="evenodd" d="M2279.3,1110.73 L2420.59,1104.33 L2420.59,1116.34 L2279.3,1122.74 L2279.3,1110.73 "/>
<path class="Beam" fill-rule="evenodd" d="M1968.7,1129.48 L2196.27,1135.82 L2196.27,1147.83 L1968.7,1141.49 L1968.7,1129.48 "/>
<path class="Beam" fill-rule="evenodd" d="M2106.74,1115.33 L2196.27,1117.82 L2196.27,1129.83 L2106.74,1127.33 L2106.74,1115.33 "/>
<path class="Beam" fill-rule="evenodd" d="M1481.19,1154.48 L1610.42,1160.89 L1610.42,1172.9 L1481.19,1166.49 L1481.19,1154.48 "/>
<path class="Beam" fill-rule="evenodd" d="M1229.25,1141.98 L1358.47,1141.98 L1358.47,1153.98 L1229.25,1153.98 L1229.25,1141.98 "/>
<path class="Beam" fill-rule="evenodd" d="M973.952,1010.56 L1102.68,1016.98 L1102.68,1028.99 L973.952,1022.58 L973.952,1010.56 "/>
<path class="Beam" fill-rule="evenodd" d="M693.331,1135.73 L822.06,1142.14 L822.06,1154.15 L693.331,1147.74 L693.331,1135.73 "/>
<path class="Beam" fill-rule="evenodd" d="M442.373,1135.73 L571.102,1135.73 L571.102,1147.73 L442.373,1147.73 L442.373,1135.73 "/>
<path class="Beam" fill-rule="evenodd" d="M2105.41,660.724 L2222.78,667.152 L2222.78,679.17 L2105.41,672.742 L2105.41,660.724 "/>
<path class="Beam" fill-rule="evenodd" d="M1877.17,635.724 L1994.54,642.152 L1994.54,654.17 L1877.17,647.742 L1877.17,635.724 "/>
<path class="Beam" fill-rule="evenodd" d="M1666.69,654.477 L1809.09,660.873 L1809.09,672.885 L1666.69,666.489 L1666.69,654.477 "/>
<path class="Beam" fill-rule="evenodd" d="M1809.09,642.873 L1777.84,641.469 L1777.84,653.481 L1809.09,654.885 L1809.09,642.873 "/>
<path class="Beam" fill-rule="evenodd" d="M1046.54,654.483 L1162.51,654.483 L1162.51,666.483 L1046.54,666.483 L1046.54,654.483 "/>
<path class="Beam" fill-rule="evenodd" d="M462.607,691.941 L571.613,679.057 L571.613,691.14 L462.607,704.024 L462.607,691.941 "/>
<path class="NoteDot" d="M2535,1583.24 C2533.89,1582.13 2533.33,1580.8 2533.33,1579.23 C2533.33,1577.67 2533.89,1576.33 2535,1575.23 C2536.11,1574.12 2537.44,1573.56 2539,1573.56 C2540.57,1573.56 2541.9,1574.12 2543,1575.23 C2544.11,1576.33 2544.66,1577.67 2544.66,1579.23 C2544.66,1580.8 2544.11,1582.13 2543,1583.24 C2541.9,1584.35 2540.57,1584.91 2539,1584.91 C2537.44,1584.91 2536.11,1584.35 2535,1583.24"/>
<path class="NoteDot" d="M427.342,1533.24 C426.232,1532.13 425.678,1530.8 425.678,1529.23 C425.678,1527.67 426.232,1526.33 427.342,1525.23 C428.451,1524.12 429.787,1523.56 431.35,1523.56 C432.912,1523.56 434.245,1524.12 435.35,1525.23 C436.454,1526.33 437.006,1527.67 437.006,1529.23 C437.006,1530.8 436.454,1532.13 435.35,1533.24 C434.245,1534.35 432.912,1534.91 431.35,1534.91 C429.787,1534.91 428.451,1534.35 427.342,1533.24"/>
<path class="NoteDot" d="M2413.68,608.24 C2412.57,607.131 2412.02,605.795 2412.02,604.233 C2412.02,602.67 2412.57,601.334 2413.68,600.225 C2414.79,599.115 2416.13,598.561 2417.69,598.561 C2419.25,598.561 2420.58,599.115 2421.69,600.225 C2422.79,601.334 2423.35,602.67 2423.35,604.233 C2423.35,605.795 2422.79,607.131 2421.69,608.24 C2420.58,609.35 2419.25,609.904 2417.69,609.904 C2416.13,609.904 2414.79,609.35 2413.68,608.24"/>
<path class="NoteDot" d="M1710.02,558.24 C1708.91,557.131 1708.35,555.795 1708.35,554.233 C1708.35,552.67 1708.91,551.334 1710.02,550.225 C1711.13,549.115 1712.46,548.561 1714.03,548.561 C1715.59,548.561 1716.92,549.115 1718.03,550.225 C1719.13,551.334 1719.68,552.67 1719.68,554.233 C1719.68,555.795 1719.13,557.131 1718.03,558.24 C1716.92,559.35 1715.59,559.904 1714.03,559.904 C1712.46,559.904 1711.13,559.35 1710.02,558.24"/>
</svg>
