<?xml version="1.0" encoding="UTF-8" standalone="no"?>
<svg width="2976.38px" height="4209.45px" viewBox="0 0 2976.38 4209.45"
 xmlns="http://www.w3.org/2000/svg" xmlns:xlink="http://www.w3.org/1999/xlink" version="1.2" baseProfile="tiny">
<title>M-a_facut_mama_oltean</title>
<desc>Generated by MuseScore 3.0.2</desc>
<polyline class="StaffLines" fill="none" stroke="#000000" stroke-width="1.81" stroke-linejoin="bevel" points="141.732,504.567 2834.64,504.567"/>
<polyline class="StaffLines" fill="none" stroke="#000000" stroke-width="1.81" stroke-linejoin="bevel" points="141.732,527.244 2834.64,527.244"/>
<polyline class="StaffLines" fill="none" stroke="#000000" stroke-width="1.81" stroke-linejoin="bevel" points="141.732,549.921 2834.64,549.921"/>
<polyline class="StaffLines" fill="none" stroke="#000000" stroke-width="1.81" stroke-linejoin="bevel" points="141.732,572.598 2834.64,572.598"/>
<polyline class="StaffLines" fill="none" stroke="#000000" stroke-width="1.81" stroke-linejoin="bevel" points="141.732,595.276 2834.64,595.276"/>
<polyline class="StaffLines" fill="none" stroke="#000000" stroke-width="1.81" stroke-linejoin="bevel" points="141.732,822.047 2834.64,822.047"/>
<polyline class="StaffLines" fill="none" stroke="#000000" stroke-width="1.81" stroke-linejoin="bevel" points="141.732,844.724 2834.64,844.724"/>
<polyline class="StaffLines" fill="none" stroke="#000000" stroke-width="1.81" stroke-linejoin="bevel" points="141.732,867.402 2834.64,867.402"/>
<polyline class="StaffLines" fill="none" stroke="#000000" stroke-width="1.81" stroke-linejoin="bevel" points="141.732,890.079 2834.64,890.079"/>
<polyline class="StaffLines" fill="none" stroke="#000000" stroke-width="1.81" stroke-linejoin="bevel" points="141.732,912.756 2834.64,912.756"/>
<polyline class="StaffLines" fill="none" stroke="#000000" stroke-width="1.81" stroke-linejoin="bevel" points="141.732,1139.53 2834.64,1139.53"/>
<polyline class="StaffLines" fill="none" stroke="#000000" stroke-width="1.81" stroke-linejoin="bevel" points="141.732,1162.2 2834.64,1162.2"/>
<polyline class="StaffLines" fill="none" stroke="#000000" stroke-width="1.81" stroke-linejoin="bevel" points="141.732,1184.88 2834.64,1184.88"/>
<polyline class="StaffLines" fill="none" stroke="#000000" stroke-width="1.81" stroke-linejoin="bevel" points="141.732,1207.56 2834.64,1207.56"/>
<polyline class="StaffLines" fill="none" stroke="#000000" stroke-width="1.81" stroke-linejoin="bevel" points="141.732,1230.24 2834.64,1230.24"/>
<path class="Text" d="M1014.92,226.368 L984.201,295.118 L982.529,295.118 L952.404,229.118 L952.404,277.477 C952.404,283.561 953.125,287.582 954.568,289.54 C956.011,291.498 959.05,292.597 963.685,292.837 L963.685,295.118 L935.482,295.118 L935.482,292.837 C940.441,292.514 943.62,291.412 945.021,289.532 C946.422,287.652 947.123,283.634 947.123,277.477 L947.123,228.759 C947.123,224.363 946.464,221.545 945.146,220.306 C943.829,219.066 940.691,218.285 935.732,217.962 L935.732,215.681 L959.482,215.681 L987.201,276.274 L1013.72,215.681 L1037.61,215.681 L1037.61,217.962 C1033.13,218.358 1030.27,219.196 1029.02,220.477 C1027.78,221.759 1027.15,224.519 1027.15,228.759 L1027.15,282.04 C1027.15,286.28 1027.79,289.058 1029.08,290.376 C1030.36,291.694 1033.2,292.514 1037.61,292.837 L1037.61,295.118 L1004,295.118 L1004,292.837 C1008.72,292.514 1011.72,291.655 1013,290.259 C1014.28,288.863 1014.92,285.681 1014.92,280.712 L1014.92,226.368 M1044.37,264.274 L1073.89,264.274 L1073.89,271.837 L1044.37,271.837 L1044.37,264.274 M1082.69,283.274 C1082.69,281.837 1082.84,280.501 1083.16,279.267 C1083.48,278.032 1084.04,276.878 1084.84,275.806 C1085.64,274.733 1086.4,273.759 1087.12,272.884 C1087.84,272.009 1088.92,271.113 1090.37,270.196 C1091.81,269.28 1093.01,268.524 1093.97,267.931 C1094.92,267.337 1096.38,266.621 1098.34,265.782 C1100.3,264.944 1101.8,264.306 1102.84,263.868 C1103.88,263.431 1105.52,262.774 1107.76,261.899 C1110,261.024 1111.64,260.389 1112.69,259.993 L1112.69,252.712 C1112.69,246.108 1109.64,242.806 1103.56,242.806 C1101.16,242.806 1099.13,243.384 1097.44,244.54 C1095.76,245.696 1094.92,247.076 1094.92,248.681 C1094.92,249.316 1095.02,250.194 1095.22,251.313 C1095.43,252.433 1095.53,253.155 1095.53,253.477 C1095.53,254.842 1094.99,256.024 1093.9,257.024 C1092.82,258.024 1091.56,258.524 1090.12,258.524 C1088.77,258.524 1087.57,258.003 1086.53,256.962 C1085.49,255.92 1084.97,254.717 1084.97,253.352 C1084.97,249.602 1086.91,246.425 1090.79,243.821 C1094.67,241.217 1099.45,239.915 1105.12,239.915 C1111.69,239.915 1116.21,241.488 1118.69,244.634 C1121.16,247.78 1122.4,252.582 1122.4,259.04 L1122.4,282.321 C1122.4,284.946 1122.66,286.756 1123.19,287.751 C1123.71,288.746 1124.64,289.243 1126,289.243 C1127.69,289.243 1129.45,288.488 1131.28,286.977 L1131.28,290.118 C1129.21,292.514 1127.39,294.147 1125.83,295.017 C1124.26,295.886 1122.48,296.321 1120.48,296.321 C1118,296.321 1116.18,295.623 1115.02,294.227 C1113.86,292.832 1113.12,290.53 1112.81,287.321 C1105.92,293.321 1100.08,296.321 1095.28,296.321 C1091.6,296.321 1088.58,295.1 1086.22,292.657 C1083.87,290.214 1082.69,287.087 1082.69,283.274 M1112.69,280.165 L1112.69,262.852 C1105.49,265.477 1100.45,268.024 1097.57,270.493 C1094.69,272.962 1093.25,275.946 1093.25,279.446 C1093.25,282.707 1094.05,285.134 1095.65,286.727 C1097.25,288.321 1098.97,289.118 1100.81,289.118 C1103.53,289.118 1106.45,288.201 1109.56,286.368 C1110.84,285.66 1111.68,284.907 1112.08,284.11 C1112.48,283.313 1112.69,281.998 1112.69,280.165 M1201.4,225.274 C1200.12,225.274 1199.02,224.826 1198.1,223.931 C1197.18,223.035 1196.46,222.024 1195.94,220.899 C1195.43,219.774 1194.63,218.764 1193.54,217.868 C1192.46,216.972 1191.16,216.524 1189.64,216.524 C1185.09,216.524 1182.81,220.082 1182.81,227.196 L1182.81,241.118 L1197.56,241.118 L1197.56,244.727 L1182.92,244.727 L1182.92,282.587 C1182.92,287.087 1183.56,289.959 1184.84,291.204 C1186.12,292.449 1189.21,293.155 1194.09,293.321 L1194.09,295.118 L1162.89,295.118 L1162.89,293.321 C1167.21,293.082 1169.95,292.337 1171.11,291.087 C1172.26,289.837 1172.84,287.003 1172.84,282.587 L1172.84,244.727 L1163,244.727 L1163,241.118 L1172.84,241.118 C1173.01,232.087 1174.69,225.128 1177.89,220.243 C1181.09,215.358 1186.45,212.915 1193.97,212.915 C1197.56,212.915 1200.54,213.615 1202.9,215.017 C1205.27,216.418 1206.45,218.201 1206.45,220.368 C1206.45,221.722 1205.95,222.878 1204.95,223.837 C1203.95,224.795 1202.77,225.274 1201.4,225.274 M1209.69,283.274 C1209.69,281.837 1209.84,280.501 1210.16,279.267 C1210.48,278.032 1211.04,276.878 1211.84,275.806 C1212.64,274.733 1213.4,273.759 1214.12,272.884 C1214.84,272.009 1215.92,271.113 1217.37,270.196 C1218.81,269.28 1220.01,268.524 1220.97,267.931 C1221.92,267.337 1223.38,266.621 1225.34,265.782 C1227.3,264.944 1228.8,264.306 1229.84,263.868 C1230.88,263.431 1232.52,262.774 1234.76,261.899 C1237,261.024 1238.64,260.389 1239.69,259.993 L1239.69,252.712 C1239.69,246.108 1236.64,242.806 1230.56,242.806 C1228.16,242.806 1226.13,243.384 1224.44,244.54 C1222.76,245.696 1221.92,247.076 1221.92,248.681 C1221.92,249.316 1222.02,250.194 1222.22,251.313 C1222.43,252.433 1222.53,253.155 1222.53,253.477 C1222.53,254.842 1221.99,256.024 1220.9,257.024 C1219.82,258.024 1218.56,258.524 1217.12,258.524 C1215.77,258.524 1214.57,258.003 1213.53,256.962 C1212.49,255.92 1211.97,254.717 1211.97,253.352 C1211.97,249.602 1213.91,246.425 1217.79,243.821 C1221.67,241.217 1226.45,239.915 1232.12,239.915 C1238.69,239.915 1243.21,241.488 1245.69,244.634 C1248.16,247.78 1249.4,252.582 1249.4,259.04 L1249.4,282.321 C1249.4,284.946 1249.66,286.756 1250.19,287.751 C1250.71,288.746 1251.64,289.243 1253,289.243 C1254.69,289.243 1256.45,288.488 1258.28,286.977 L1258.28,290.118 C1256.21,292.514 1254.39,294.147 1252.83,295.017 C1251.26,295.886 1249.48,296.321 1247.48,296.321 C1245,296.321 1243.18,295.623 1242.02,294.227 C1240.86,292.832 1240.12,290.53 1239.81,287.321 C1232.92,293.321 1227.08,296.321 1222.28,296.321 C1218.6,296.321 1215.58,295.1 1213.22,292.657 C1210.87,290.214 1209.69,287.087 1209.69,283.274 M1239.69,280.165 L1239.69,262.852 C1232.49,265.477 1227.45,268.024 1224.57,270.493 C1221.69,272.962 1220.25,275.946 1220.25,279.446 C1220.25,282.707 1221.05,285.134 1222.65,286.727 C1224.25,288.321 1225.97,289.118 1227.81,289.118 C1230.53,289.118 1233.45,288.201 1236.56,286.368 C1237.84,285.66 1238.68,284.907 1239.08,284.11 C1239.48,283.313 1239.69,281.998 1239.69,280.165 M1261.69,269.54 C1261.69,260.665 1264.31,253.509 1269.54,248.071 C1274.78,242.634 1280.92,239.915 1287.97,239.915 C1293.01,239.915 1297.35,241.136 1300.99,243.579 C1304.63,246.022 1306.45,248.92 1306.45,252.274 C1306.45,253.639 1305.89,254.821 1304.76,255.821 C1303.64,256.821 1302.28,257.321 1300.69,257.321 C1297.97,257.321 1296.09,255.498 1295.04,251.852 L1294.33,249.227 C1293.68,247.009 1292.88,245.503 1291.92,244.712 C1290.96,243.92 1289.4,243.524 1287.25,243.524 C1282.36,243.524 1278.42,245.454 1275.42,249.313 C1272.42,253.173 1270.92,258.165 1270.92,264.29 C1270.92,271.134 1272.66,276.722 1276.14,281.056 C1279.62,285.389 1284.08,287.556 1289.53,287.556 C1292.97,287.556 1295.92,286.72 1298.4,285.048 C1300.88,283.376 1303.57,280.472 1306.45,276.337 L1308.12,277.415 C1307.32,279.019 1306.62,280.342 1306.02,281.384 C1305.42,282.425 1304.34,283.99 1302.79,286.079 C1301.23,288.168 1299.69,289.855 1298.17,291.142 C1296.65,292.428 1294.65,293.613 1292.17,294.696 C1289.69,295.78 1287.13,296.321 1284.48,296.321 C1277.85,296.321 1272.39,293.819 1268.11,288.813 C1263.83,283.808 1261.69,277.384 1261.69,269.54 M1369.28,288.884 L1369.28,290.556 C1363.04,292.316 1357.56,294.196 1352.84,296.196 L1352.36,295.946 L1352.36,285.774 C1352.12,286.014 1351.42,286.73 1350.26,287.923 C1349.11,289.115 1348.29,289.941 1347.81,290.399 C1347.33,290.858 1346.51,291.563 1345.35,292.517 C1344.19,293.47 1343.17,294.155 1342.29,294.571 C1341.41,294.988 1340.29,295.384 1338.93,295.759 C1337.57,296.134 1336.21,296.321 1334.84,296.321 C1330.45,296.321 1326.93,294.884 1324.29,292.009 C1321.65,289.134 1320.33,285.306 1320.33,280.524 L1320.33,250.446 C1320.33,247.655 1319.81,245.722 1318.76,244.649 C1317.72,243.576 1315.76,242.962 1312.89,242.806 L1312.89,241.118 L1330.4,241.118 L1330.4,280.04 C1330.4,282.509 1331.25,284.639 1332.93,286.431 C1334.61,288.222 1336.61,289.118 1338.92,289.118 C1339.81,289.118 1340.85,288.998 1342.04,288.759 C1343.24,288.519 1344.62,288.061 1346.19,287.384 C1347.75,286.707 1349.07,285.634 1350.15,284.165 C1351.22,282.696 1351.76,280.884 1351.76,278.727 L1351.76,250.681 C1351.76,247.733 1351.22,245.782 1350.15,244.829 C1349.07,243.876 1346.65,243.321 1342.89,243.165 L1342.89,241.118 L1361.84,241.118 L1361.84,282.071 C1361.84,284.863 1362.28,286.696 1363.16,287.571 C1364.04,288.446 1365.88,288.884 1368.69,288.884 L1369.28,288.884 M1401.76,241.118 L1401.76,244.727 L1389.64,244.727 L1389.64,279.04 C1389.64,282.8 1390.12,285.54 1391.08,287.259 C1392.05,288.977 1393.65,289.837 1395.89,289.837 C1398.37,289.837 1400.77,288.436 1403.09,285.634 L1404.64,286.962 C1400.81,293.201 1396.01,296.321 1390.25,296.321 C1383.12,296.321 1379.56,291.217 1379.56,281.009 L1379.56,244.727 L1373.2,244.727 C1372.89,244.498 1372.73,244.233 1372.73,243.931 C1372.73,243.556 1372.85,243.256 1373.09,243.032 C1373.33,242.808 1373.79,242.49 1374.47,242.079 C1375.14,241.668 1375.96,241.076 1376.93,240.306 C1377.89,239.535 1379.21,238.136 1380.89,236.11 C1382.57,234.084 1384.4,231.649 1386.4,228.806 C1387.69,226.941 1388.49,225.806 1388.81,225.399 C1389.36,225.399 1389.64,225.925 1389.64,226.977 L1389.64,241.118 L1401.76,241.118 M1436.25,247.602 L1436.25,245.556 C1442.01,243.889 1447.61,242.009 1453.04,239.915 L1453.89,240.165 L1453.89,249.384 C1458.85,245.53 1462.53,242.988 1464.93,241.759 C1467.33,240.53 1469.85,239.915 1472.48,239.915 C1478.81,239.915 1483.04,243.352 1485.2,250.227 C1491.44,243.352 1497.96,239.915 1504.76,239.915 C1514.04,239.915 1518.69,247.092 1518.69,261.446 L1518.69,286.04 C1518.69,290.498 1520.4,292.847 1523.84,293.087 L1526.97,293.321 L1526.97,295.118 L1500.69,295.118 L1500.69,293.321 C1504.21,292.925 1506.41,292.248 1507.29,291.29 C1508.17,290.332 1508.61,288.144 1508.61,284.727 L1508.61,259.524 C1508.61,254.597 1507.97,251.178 1506.69,249.267 C1505.4,247.355 1503.04,246.399 1499.61,246.399 C1494.33,246.399 1489.97,248.826 1486.53,253.681 L1486.53,283.774 C1486.53,287.514 1487.11,290.019 1488.26,291.29 C1489.42,292.561 1491.72,293.238 1495.17,293.321 L1495.17,295.118 L1468.28,295.118 L1468.28,293.321 C1471.73,293.082 1473.95,292.444 1474.95,291.407 C1475.95,290.371 1476.45,288.181 1476.45,284.837 L1476.45,258.931 C1476.45,250.576 1473.81,246.399 1468.53,246.399 C1466.29,246.399 1463.79,246.957 1461.03,248.071 C1458.27,249.186 1456.04,250.977 1454.36,253.446 L1454.36,287.118 C1454.36,289.42 1454.92,290.99 1456.04,291.829 C1457.17,292.668 1459.33,293.165 1462.53,293.321 L1462.53,295.118 L1435.89,295.118 L1435.89,293.321 C1439.24,293.238 1441.48,292.639 1442.6,291.524 C1443.72,290.41 1444.28,288.222 1444.28,284.962 L1444.28,254.759 C1444.28,251.894 1443.98,249.905 1443.38,248.79 C1442.78,247.675 1441.69,247.118 1440.09,247.118 C1438.88,247.118 1437.6,247.28 1436.25,247.602 M1530.69,283.274 C1530.69,281.837 1530.84,280.501 1531.16,279.267 C1531.48,278.032 1532.04,276.878 1532.84,275.806 C1533.64,274.733 1534.4,273.759 1535.12,272.884 C1535.84,272.009 1536.92,271.113 1538.37,270.196 C1539.81,269.28 1541.01,268.524 1541.97,267.931 C1542.92,267.337 1544.38,266.621 1546.34,265.782 C1548.3,264.944 1549.8,264.306 1550.84,263.868 C1551.88,263.431 1553.52,262.774 1555.76,261.899 C1558,261.024 1559.64,260.389 1560.69,259.993 L1560.69,252.712 C1560.69,246.108 1557.64,242.806 1551.56,242.806 C1549.16,242.806 1547.13,243.384 1545.44,244.54 C1543.76,245.696 1542.92,247.076 1542.92,248.681 C1542.92,249.316 1543.02,250.194 1543.22,251.313 C1543.43,252.433 1543.53,253.155 1543.53,253.477 C1543.53,254.842 1542.99,256.024 1541.9,257.024 C1540.82,258.024 1539.56,258.524 1538.12,258.524 C1536.77,258.524 1535.57,258.003 1534.53,256.962 C1533.49,255.92 1532.97,254.717 1532.97,253.352 C1532.97,249.602 1534.91,246.425 1538.79,243.821 C1542.67,241.217 1547.45,239.915 1553.12,239.915 C1559.69,239.915 1564.21,241.488 1566.69,244.634 C1569.16,247.78 1570.4,252.582 1570.4,259.04 L1570.4,282.321 C1570.4,284.946 1570.66,286.756 1571.19,287.751 C1571.71,288.746 1572.64,289.243 1574,289.243 C1575.69,289.243 1577.45,288.488 1579.28,286.977 L1579.28,290.118 C1577.21,292.514 1575.39,294.147 1573.83,295.017 C1572.26,295.886 1570.48,296.321 1568.48,296.321 C1566,296.321 1564.18,295.623 1563.02,294.227 C1561.86,292.832 1561.12,290.53 1560.81,287.321 C1553.92,293.321 1548.08,296.321 1543.28,296.321 C1539.6,296.321 1536.58,295.1 1534.22,292.657 C1531.87,290.214 1530.69,287.087 1530.69,283.274 M1560.69,280.165 L1560.69,262.852 C1553.49,265.477 1548.45,268.024 1545.57,270.493 C1542.69,272.962 1541.25,275.946 1541.25,279.446 C1541.25,282.707 1542.05,285.134 1543.65,286.727 C1545.25,288.321 1546.97,289.118 1548.81,289.118 C1551.53,289.118 1554.45,288.201 1557.56,286.368 C1558.84,285.66 1559.68,284.907 1560.08,284.11 C1560.48,283.313 1560.69,281.998 1560.69,280.165 M1581.25,247.602 L1581.25,245.556 C1587.01,243.889 1592.61,242.009 1598.04,239.915 L1598.89,240.165 L1598.89,249.384 C1603.85,245.53 1607.53,242.988 1609.93,241.759 C1612.33,240.53 1614.85,239.915 1617.48,239.915 C1623.81,239.915 1628.04,243.352 1630.2,250.227 C1636.44,243.352 1642.96,239.915 1649.76,239.915 C1659.04,239.915 1663.69,247.092 1663.69,261.446 L1663.69,286.04 C1663.69,290.498 1665.4,292.847 1668.84,293.087 L1671.97,293.321 L1671.97,295.118 L1645.69,295.118 L1645.69,293.321 C1649.21,292.925 1651.41,292.248 1652.29,291.29 C1653.17,290.332 1653.61,288.144 1653.61,284.727 L1653.61,259.524 C1653.61,254.597 1652.97,251.178 1651.69,249.267 C1650.4,247.355 1648.04,246.399 1644.61,246.399 C1639.33,246.399 1634.97,248.826 1631.53,253.681 L1631.53,283.774 C1631.53,287.514 1632.11,290.019 1633.26,291.29 C1634.42,292.561 1636.72,293.238 1640.17,293.321 L1640.17,295.118 L1613.28,295.118 L1613.28,293.321 C1616.73,293.082 1618.95,292.444 1619.95,291.407 C1620.95,290.371 1621.45,288.181 1621.45,284.837 L1621.45,258.931 C1621.45,250.576 1618.81,246.399 1613.53,246.399 C1611.29,246.399 1608.79,246.957 1606.03,248.071 C1603.27,249.186 1601.04,250.977 1599.36,253.446 L1599.36,287.118 C1599.36,289.42 1599.92,290.99 1601.04,291.829 C1602.17,292.668 1604.33,293.165 1607.53,293.321 L1607.53,295.118 L1580.89,295.118 L1580.89,293.321 C1584.24,293.238 1586.48,292.639 1587.6,291.524 C1588.72,290.41 1589.28,288.222 1589.28,284.962 L1589.28,254.759 C1589.28,251.894 1588.98,249.905 1588.38,248.79 C1587.78,247.675 1586.69,247.118 1585.09,247.118 C1583.88,247.118 1582.6,247.28 1581.25,247.602 M1675.69,283.274 C1675.69,281.837 1675.84,280.501 1676.16,279.267 C1676.48,278.032 1677.04,276.878 1677.84,275.806 C1678.64,274.733 1679.4,273.759 1680.12,272.884 C1680.84,272.009 1681.92,271.113 1683.37,270.196 C1684.81,269.28 1686.01,268.524 1686.97,267.931 C1687.92,267.337 1689.38,266.621 1691.34,265.782 C1693.3,264.944 1694.8,264.306 1695.84,263.868 C1696.88,263.431 1698.52,262.774 1700.76,261.899 C1703,261.024 1704.64,260.389 1705.69,259.993 L1705.69,252.712 C1705.69,246.108 1702.64,242.806 1696.56,242.806 C1694.16,242.806 1692.13,243.384 1690.44,244.54 C1688.76,245.696 1687.92,247.076 1687.92,248.681 C1687.92,249.316 1688.02,250.194 1688.22,251.313 C1688.43,252.433 1688.53,253.155 1688.53,253.477 C1688.53,254.842 1687.99,256.024 1686.9,257.024 C1685.82,258.024 1684.56,258.524 1683.12,258.524 C1681.77,258.524 1680.57,258.003 1679.53,256.962 C1678.49,255.92 1677.97,254.717 1677.97,253.352 C1677.97,249.602 1679.91,246.425 1683.79,243.821 C1687.67,241.217 1692.45,239.915 1698.12,239.915 C1704.69,239.915 1709.21,241.488 1711.69,244.634 C1714.16,247.78 1715.4,252.582 1715.4,259.04 L1715.4,282.321 C1715.4,284.946 1715.66,286.756 1716.19,287.751 C1716.71,288.746 1717.64,289.243 1719,289.243 C1720.69,289.243 1722.45,288.488 1724.28,286.977 L1724.28,290.118 C1722.21,292.514 1720.39,294.147 1718.83,295.017 C1717.26,295.886 1715.48,296.321 1713.48,296.321 C1711,296.321 1709.18,295.623 1708.02,294.227 C1706.86,292.832 1706.12,290.53 1705.81,287.321 C1698.92,293.321 1693.08,296.321 1688.28,296.321 C1684.6,296.321 1681.58,295.1 1679.22,292.657 C1676.87,290.214 1675.69,287.087 1675.69,283.274 M1705.69,280.165 L1705.69,262.852 C1698.49,265.477 1693.45,268.024 1690.57,270.493 C1687.69,272.962 1686.25,275.946 1686.25,279.446 C1686.25,282.707 1687.05,285.134 1688.65,286.727 C1690.25,288.321 1691.97,289.118 1693.81,289.118 C1696.53,289.118 1699.45,288.201 1702.56,286.368 C1703.84,285.66 1704.68,284.907 1705.08,284.11 C1705.48,283.313 1705.69,281.998 1705.69,280.165 M1784.2,239.915 C1791.88,239.915 1798.2,242.477 1803.16,247.602 C1808.13,252.727 1810.61,259.212 1810.61,267.056 C1810.61,275.368 1808.05,282.324 1802.93,287.923 C1797.81,293.522 1791.49,296.321 1783.97,296.321 C1776.45,296.321 1770.19,293.621 1765.19,288.22 C1760.19,282.819 1757.69,276.082 1757.69,268.009 C1757.69,259.769 1760.15,253.027 1765.07,247.782 C1769.99,242.537 1776.37,239.915 1784.2,239.915 M1768.48,262.181 C1768.48,270.66 1770.04,277.868 1773.16,283.806 C1776.28,289.743 1780.36,292.712 1785.4,292.712 C1789.88,292.712 1793.4,290.811 1795.97,287.009 C1798.53,283.207 1799.81,277.941 1799.81,271.212 C1799.81,263.045 1798.21,256.389 1795.01,251.243 C1791.8,246.097 1787.68,243.524 1782.64,243.524 C1778.4,243.524 1774.98,245.227 1772.38,248.634 C1769.78,252.04 1768.48,256.556 1768.48,262.181 M1814.89,220.368 L1814.89,218.446 C1822.81,216.519 1829.16,214.759 1833.97,213.165 L1834.45,213.399 L1834.45,285.04 C1834.45,288.321 1834.99,290.462 1836.07,291.462 C1837.15,292.462 1839.61,293.082 1843.45,293.321 L1843.45,295.118 L1815.12,295.118 L1815.12,293.321 C1818.88,292.998 1821.36,292.277 1822.56,291.157 C1823.76,290.037 1824.36,287.878 1824.36,284.681 L1824.36,227.446 C1824.36,224.644 1824,222.722 1823.28,221.681 C1822.56,220.639 1821.24,220.118 1819.33,220.118 C1817.72,220.118 1816.24,220.201 1814.89,220.368 M1875.76,241.118 L1875.76,244.727 L1863.64,244.727 L1863.64,279.04 C1863.64,282.8 1864.12,285.54 1865.08,287.259 C1866.05,288.977 1867.65,289.837 1869.89,289.837 C1872.37,289.837 1874.77,288.436 1877.09,285.634 L1878.64,286.962 C1874.81,293.201 1870.01,296.321 1864.25,296.321 C1857.12,296.321 1853.56,291.217 1853.56,281.009 L1853.56,244.727 L1847.2,244.727 C1846.89,244.498 1846.73,244.233 1846.73,243.931 C1846.73,243.556 1846.85,243.256 1847.09,243.032 C1847.33,242.808 1847.79,242.49 1848.47,242.079 C1849.14,241.668 1849.96,241.076 1850.93,240.306 C1851.89,239.535 1853.21,238.136 1854.89,236.11 C1856.57,234.084 1858.4,231.649 1860.4,228.806 C1861.69,226.941 1862.49,225.806 1862.81,225.399 C1863.36,225.399 1863.64,225.925 1863.64,226.977 L1863.64,241.118 L1875.76,241.118 M1890.33,261.884 C1890.48,266.925 1891.16,271.264 1892.37,274.899 C1893.57,278.535 1895.13,281.253 1897.04,283.056 C1898.96,284.858 1900.9,286.139 1902.87,286.899 C1904.83,287.66 1906.89,288.04 1909.04,288.04 C1912.89,288.04 1916.23,287.079 1919.07,285.157 C1921.91,283.235 1924.76,279.998 1927.64,275.446 L1929.56,276.274 C1927.08,282.753 1923.64,287.714 1919.24,291.157 C1914.84,294.6 1909.8,296.321 1904.12,296.321 C1897.25,296.321 1891.79,293.902 1887.75,289.063 C1883.71,284.225 1881.69,277.686 1881.69,269.446 C1881.69,260.561 1884.03,253.418 1888.71,248.017 C1893.39,242.615 1899.41,239.915 1906.76,239.915 C1912.85,239.915 1917.57,241.735 1920.93,245.376 C1924.29,249.017 1926.4,254.519 1927.28,261.884 L1890.33,261.884 M1890.56,258.274 L1915.04,258.274 C1914.24,253.076 1913,249.477 1911.33,247.477 C1909.65,245.477 1906.97,244.477 1903.28,244.477 C1896.08,244.477 1891.84,249.076 1890.56,258.274 M1934.69,283.274 C1934.69,281.837 1934.84,280.501 1935.16,279.267 C1935.48,278.032 1936.04,276.878 1936.84,275.806 C1937.64,274.733 1938.4,273.759 1939.12,272.884 C1939.84,272.009 1940.92,271.113 1942.37,270.196 C1943.81,269.28 1945.01,268.524 1945.97,267.931 C1946.92,267.337 1948.38,266.621 1950.34,265.782 C1952.3,264.944 1953.8,264.306 1954.84,263.868 C1955.88,263.431 1957.52,262.774 1959.76,261.899 C1962,261.024 1963.64,260.389 1964.69,259.993 L1964.69,252.712 C1964.69,246.108 1961.64,242.806 1955.56,242.806 C1953.16,242.806 1951.13,243.384 1949.44,244.54 C1947.76,245.696 1946.92,247.076 1946.92,248.681 C1946.92,249.316 1947.02,250.194 1947.22,251.313 C1947.43,252.433 1947.53,253.155 1947.53,253.477 C1947.53,254.842 1946.99,256.024 1945.9,257.024 C1944.82,258.024 1943.56,258.524 1942.12,258.524 C1940.77,258.524 1939.57,258.003 1938.53,256.962 C1937.49,255.92 1936.97,254.717 1936.97,253.352 C1936.97,249.602 1938.91,246.425 1942.79,243.821 C1946.67,241.217 1951.45,239.915 1957.12,239.915 C1963.69,239.915 1968.21,241.488 1970.69,244.634 C1973.16,247.78 1974.4,252.582 1974.4,259.04 L1974.4,282.321 C1974.4,284.946 1974.66,286.756 1975.19,287.751 C1975.71,288.746 1976.64,289.243 1978,289.243 C1979.69,289.243 1981.45,288.488 1983.28,286.977 L1983.28,290.118 C1981.21,292.514 1979.39,294.147 1977.83,295.017 C1976.26,295.886 1974.48,296.321 1972.48,296.321 C1970,296.321 1968.18,295.623 1967.02,294.227 C1965.86,292.832 1965.12,290.53 1964.81,287.321 C1957.92,293.321 1952.08,296.321 1947.28,296.321 C1943.6,296.321 1940.58,295.1 1938.22,292.657 C1935.87,290.214 1934.69,287.087 1934.69,283.274 M1964.69,280.165 L1964.69,262.852 C1957.49,265.477 1952.45,268.024 1949.57,270.493 C1946.69,272.962 1945.25,275.946 1945.25,279.446 C1945.25,282.707 1946.05,285.134 1947.65,286.727 C1949.25,288.321 1950.97,289.118 1952.81,289.118 C1955.53,289.118 1958.45,288.201 1961.56,286.368 C1962.84,285.66 1963.68,284.907 1964.08,284.11 C1964.48,283.313 1964.69,281.998 1964.69,280.165 M1984.89,247.243 L1984.89,245.196 C1990.81,243.477 1996.33,241.717 2001.45,239.915 L2002.28,240.149 L2002.28,249.524 C2006.36,245.733 2009.58,243.183 2011.94,241.876 C2014.3,240.569 2016.88,239.915 2019.69,239.915 C2024.08,239.915 2027.54,241.488 2030.06,244.634 C2032.58,247.78 2033.84,252.175 2033.84,257.821 L2033.84,285.384 C2033.84,288.342 2034.32,290.324 2035.28,291.329 C2036.24,292.334 2038.2,292.998 2041.17,293.321 L2041.17,295.118 L2016.2,295.118 L2016.2,293.321 C2019.24,293.082 2021.26,292.28 2022.26,290.915 C2023.26,289.55 2023.76,286.983 2023.76,283.212 L2023.76,258.071 C2023.76,250.29 2020.84,246.399 2015,246.399 C2013,246.399 2011.16,246.86 2009.48,247.782 C2007.81,248.704 2005.52,250.53 2002.64,253.259 L2002.64,287.056 C2002.64,289.222 2003.2,290.748 2004.32,291.634 C2005.44,292.519 2007.52,293.082 2010.56,293.321 L2010.56,295.118 L1985.12,295.118 L1985.12,293.321 C1988.16,293.082 1990.16,292.378 1991.12,291.212 C1992.08,290.045 1992.56,287.738 1992.56,284.29 L1992.56,254.462 C1992.56,251.493 1992.24,249.467 1991.6,248.384 C1990.96,247.3 1989.8,246.759 1988.12,246.759 C1986.6,246.759 1985.52,246.92 1984.89,247.243"/>
<path class="MeasureNumber" d="M129.826,1072.83 C129.388,1072.83 128.524,1073.1 127.232,1073.63 L127.232,1073.11 L133.701,1069.85 L133.998,1069.91 L133.998,1091.52 C133.998,1092.37 134.214,1092.93 134.646,1093.2 C135.079,1093.46 136.003,1093.61 137.42,1093.63 L137.42,1094.17 L127.482,1094.17 L127.482,1093.63 C128.826,1093.58 129.732,1093.39 130.201,1093.04 C130.67,1092.69 130.904,1091.95 130.904,1090.83 L130.904,1074.52 C130.904,1073.39 130.545,1072.83 129.826,1072.83 M147.826,1072.83 C147.388,1072.83 146.524,1073.1 145.232,1073.63 L145.232,1073.11 L151.701,1069.85 L151.998,1069.91 L151.998,1091.52 C151.998,1092.37 152.214,1092.93 152.646,1093.2 C153.079,1093.46 154.003,1093.61 155.42,1093.63 L155.42,1094.17 L145.482,1094.17 L145.482,1093.63 C146.826,1093.58 147.732,1093.39 148.201,1093.04 C148.67,1092.69 148.904,1091.95 148.904,1090.83 L148.904,1074.52 C148.904,1073.39 148.545,1072.83 147.826,1072.83"/>
<path class="MeasureNumber" d="M146.076,769.677 C146.076,768.417 145.795,767.294 145.232,766.31 C144.67,765.326 143.987,764.565 143.185,764.029 C142.383,763.492 141.485,763.05 140.49,762.701 C139.495,762.352 138.631,762.123 137.896,762.013 C137.162,761.904 136.519,761.849 135.967,761.849 C135.675,761.849 135.529,761.755 135.529,761.568 C135.529,761.495 135.545,761.432 135.576,761.38 L139.498,752.865 L147.013,752.865 C147.399,752.865 147.706,752.805 147.935,752.685 C148.165,752.565 148.409,752.313 148.67,751.927 L148.998,752.177 L147.623,755.38 C147.529,755.599 147.253,755.709 146.795,755.709 L139.748,755.709 L138.232,758.755 C141.743,759.38 144.349,760.393 146.053,761.794 C147.756,763.195 148.607,765.25 148.607,767.959 C148.607,769.375 148.383,770.638 147.935,771.748 C147.487,772.857 146.922,773.748 146.24,774.419 C145.558,775.091 144.766,775.643 143.865,776.076 C142.964,776.508 142.099,776.802 141.271,776.959 C140.443,777.115 139.612,777.193 138.779,777.193 C137.435,777.193 136.368,776.995 135.576,776.599 C134.784,776.203 134.388,775.656 134.388,774.959 C134.388,774.073 134.904,773.63 135.935,773.63 C136.602,773.63 137.469,773.998 138.537,774.732 C139.605,775.466 140.451,775.834 141.076,775.834 C142.493,775.834 143.68,775.24 144.638,774.052 C145.597,772.865 146.076,771.406 146.076,769.677"/>
<path class="SlurSegment" stroke="#000000" stroke-width="1.59" stroke-linecap="round" stroke-linejoin="round" fill-rule="evenodd" d="M855.255,1153.13 C871.784,1139.96 897.891,1145.63 907.469,1164.47 C897.121,1149.18 871.014,1143.51 855.255,1153.13"/>
<path class="TieSegment" stroke="#000000" stroke-width="1.59" stroke-linecap="round" stroke-linejoin="round" fill-rule="evenodd" d="M2506.44,1226.5 C2530.51,1242.97 2602.71,1242.97 2626.78,1226.5 C2602.71,1246.6 2530.51,1246.6 2506.44,1226.5"/>
<path class="TieSegment" stroke="#000000" stroke-width="1.59" stroke-linecap="round" stroke-linejoin="round" fill-rule="evenodd" d="M2506.44,1226.5 C2530.51,1242.97 2602.71,1242.97 2626.78,1226.5 C2602.71,1246.6 2530.51,1246.6 2506.44,1226.5"/>
<path class="TieSegment" stroke="#000000" stroke-width="1.59" stroke-linecap="round" stroke-linejoin="round" fill-rule="evenodd" d="M2070.21,895.748 C2151.8,923.414 2396.57,923.414 2478.16,895.748 C2396.57,927.042 2151.8,927.042 2070.21,895.748"/>
<path class="TieSegment" stroke="#000000" stroke-width="1.59" stroke-linecap="round" stroke-linejoin="round" fill-rule="evenodd" d="M811.823,816.378 C893.248,785.083 1137.53,785.083 1218.95,816.378 C1137.53,788.712 893.248,788.712 811.823,816.378"/>
<path class="TieSegment" stroke="#000000" stroke-width="1.59" stroke-linecap="round" stroke-linejoin="round" fill-rule="evenodd" d="M2070.21,895.748 C2151.8,923.414 2396.57,923.414 2478.16,895.748 C2396.57,927.042 2151.8,927.042 2070.21,895.748"/>
<path class="TieSegment" stroke="#000000" stroke-width="1.59" stroke-linecap="round" stroke-linejoin="round" fill-rule="evenodd" d="M811.823,816.378 C893.248,785.083 1137.53,785.083 1218.95,816.378 C1137.53,788.712 893.248,788.712 811.823,816.378"/>
<path class="TieSegment" stroke="#000000" stroke-width="1.59" stroke-linecap="round" stroke-linejoin="round" fill-rule="evenodd" d="M1693.78,510.236 C1812.93,478.942 2170.38,478.942 2289.53,510.236 C2170.38,482.57 1812.93,482.57 1693.78,510.236"/>
<path class="TieSegment" stroke="#000000" stroke-width="1.59" stroke-linecap="round" stroke-linejoin="round" fill-rule="evenodd" d="M1693.78,510.236 C1812.93,478.942 2170.38,478.942 2289.53,510.236 C2170.38,482.57 1812.93,482.57 1693.78,510.236"/>
<polyline class="BarLine" stroke="#000000" stroke-width="3.63" stroke-linejoin="bevel" points="2822.4,1138.62 2822.4,1231.14"/>
<polyline class="BarLine" stroke="#000000" stroke-width="3.63" stroke-linejoin="bevel" points="2832.83,1138.62 2832.83,1231.14"/>
<polyline class="BarLine" stroke="#000000" stroke-width="3.63" stroke-linejoin="bevel" points="2575.39,1138.62 2575.39,1231.14"/>
<polyline class="BarLine" stroke="#000000" stroke-width="3.63" stroke-linejoin="bevel" points="2211.84,1138.62 2211.84,1231.14"/>
<polyline class="BarLine" stroke="#000000" stroke-width="3.63" stroke-linejoin="bevel" points="1877.84,1138.62 1877.84,1231.14"/>
<polyline class="BarLine" stroke="#000000" stroke-width="3.63" stroke-linejoin="bevel" points="1579.36,1138.62 1579.36,1231.14"/>
<polyline class="BarLine" stroke="#000000" stroke-width="3.63" stroke-linejoin="bevel" points="1245.36,1138.62 1245.36,1231.14"/>
<polyline class="BarLine" stroke="#000000" stroke-width="3.63" stroke-linejoin="bevel" points="946.888,1138.62 946.888,1231.14"/>
<polyline class="BarLine" stroke="#000000" stroke-width="3.63" stroke-linejoin="bevel" points="612.887,1138.62 612.887,1231.14"/>
<polyline class="BarLine" stroke="#000000" stroke-width="3.63" stroke-linejoin="bevel" points="2832.83,821.14 2832.83,913.663"/>
<polyline class="BarLine" stroke="#000000" stroke-width="3.63" stroke-linejoin="bevel" points="2426.77,821.14 2426.77,913.663"/>
<polyline class="BarLine" stroke="#000000" stroke-width="3.63" stroke-linejoin="bevel" points="2020.72,821.14 2020.72,913.663"/>
<polyline class="BarLine" stroke="#000000" stroke-width="3.63" stroke-linejoin="bevel" points="1573.62,821.14 1573.62,913.663"/>
<polyline class="BarLine" stroke="#000000" stroke-width="3.63" stroke-linejoin="bevel" points="1167.56,821.14 1167.56,913.663"/>
<polyline class="BarLine" stroke="#000000" stroke-width="3.63" stroke-linejoin="bevel" points="761.507,821.14 761.507,913.663"/>
<polyline class="BarLine" stroke="#000000" stroke-width="3.63" stroke-linejoin="bevel" points="2832.83,503.66 2832.83,596.183"/>
<polyline class="BarLine" stroke="#000000" stroke-width="3.63" stroke-linejoin="bevel" points="2238.15,503.66 2238.15,596.183"/>
<polyline class="BarLine" stroke="#000000" stroke-width="3.63" stroke-linejoin="bevel" points="1643.46,503.66 1643.46,596.183"/>
<polyline class="BarLine" stroke="#000000" stroke-width="3.63" stroke-linejoin="bevel" points="1007.74,503.66 1007.74,596.183"/>
<path class="Accidental" transform="matrix(0.907087,0,0,0.907087,459.915,1139.53)" d="M-0.78125,-37.5 C0.0625,-37.9583 0.908854,-38.1875 1.75781,-38.1875 C2.60677,-38.1875 3.45313,-37.9583 4.29688,-37.5 L4,-19.2344 L14.6563,-21.1875 L15.0469,-21.1875 C16.2135,-21.1875 16.7969,-20.6354 16.7969,-19.5313 L17.4844,37.5 C16.6406,37.9583 15.7943,38.1875 14.9453,38.1875 C14.0964,38.1875 13.25,37.9583 12.4063,37.5 L12.7031,19.2344 L2.15625,21.1875 L1.76563,21.1875 C0.588542,21.1875 0,20.6354 0,19.5313 L-0.78125,-37.5 M12.7969,9.46875 L13.0938,-11.2344 L3.90625,-9.46875 L3.60938,11.2344 L12.7969,9.46875 "/>
<path class="Accidental" transform="matrix(0.907087,0,0,0.907087,542.481,822.047)" d="M-0.78125,-37.5 C0.0625,-37.9583 0.908854,-38.1875 1.75781,-38.1875 C2.60677,-38.1875 3.45313,-37.9583 4.29688,-37.5 L4,-19.2344 L14.6563,-21.1875 L15.0469,-21.1875 C16.2135,-21.1875 16.7969,-20.6354 16.7969,-19.5313 L17.4844,37.5 C16.6406,37.9583 15.7943,38.1875 14.9453,38.1875 C14.0964,38.1875 13.25,37.9583 12.4063,37.5 L12.7031,19.2344 L2.15625,21.1875 L1.76563,21.1875 C0.588542,21.1875 0,20.6354 0,19.5313 L-0.78125,-37.5 M12.7969,9.46875 L13.0938,-11.2344 L3.90625,-9.46875 L3.60938,11.2344 L12.7969,9.46875 "/>
<polyline class="Stem" stroke="#000000" stroke-width="2.95" stroke-linecap="round" stroke-linejoin="bevel" points="2645.78,1204.08 2645.78,1131.02"/>
<polyline class="Stem" stroke="#000000" stroke-width="2.95" stroke-linecap="round" stroke-linejoin="bevel" points="2515.41,1203.3 2515.41,1139.53"/>
<polyline class="Stem" stroke="#000000" stroke-width="2.95" stroke-linecap="round" stroke-linejoin="bevel" points="2428.87,1191.96 2428.87,1133.86"/>
<polyline class="Stem" stroke="#000000" stroke-width="2.95" stroke-linecap="round" stroke-linejoin="bevel" points="2374.78,1191.96 2374.78,1122.52"/>
<polyline class="Stem" stroke="#000000" stroke-width="2.95" stroke-linecap="round" stroke-linejoin="bevel" points="2269.25,1180.62 2269.25,1116.85"/>
<polyline class="Stem" stroke="#000000" stroke-width="2.95" stroke-linecap="round" stroke-linejoin="bevel" points="2162.62,1203.3 2162.62,1139.53"/>
<polyline class="Stem" stroke="#000000" stroke-width="2.95" stroke-linecap="round" stroke-linejoin="bevel" points="2086.83,1191.96 2086.83,1133.86"/>
<polyline class="Stem" stroke="#000000" stroke-width="2.95" stroke-linecap="round" stroke-linejoin="bevel" points="2011.04,1191.96 2011.04,1122.52"/>
<polyline class="Stem" stroke="#000000" stroke-width="2.95" stroke-linecap="round" stroke-linejoin="bevel" points="1935.25,1180.62 1935.25,1116.85"/>
<polyline class="Stem" stroke="#000000" stroke-width="2.95" stroke-linecap="round" stroke-linejoin="bevel" points="1803.16,1177.8 1803.16,1235.91"/>
<polyline class="Stem" stroke="#000000" stroke-width="2.95" stroke-linecap="round" stroke-linejoin="bevel" points="1728.81,1166.46 1728.81,1230.24"/>
<polyline class="Stem" stroke="#000000" stroke-width="2.95" stroke-linecap="round" stroke-linejoin="bevel" points="1609.86,1189.14 1609.86,1255.75"/>
<polyline class="Stem" stroke="#000000" stroke-width="2.95" stroke-linecap="round" stroke-linejoin="bevel" points="1530.14,1203.3 1530.14,1139.53"/>
<polyline class="Stem" stroke="#000000" stroke-width="2.95" stroke-linecap="round" stroke-linejoin="bevel" points="1454.35,1191.96 1454.35,1133.86"/>
<polyline class="Stem" stroke="#000000" stroke-width="2.95" stroke-linecap="round" stroke-linejoin="bevel" points="1378.56,1191.96 1378.56,1122.52"/>
<polyline class="Stem" stroke="#000000" stroke-width="2.95" stroke-linecap="round" stroke-linejoin="bevel" points="1302.77,1180.62 1302.77,1116.85"/>
<polyline class="Stem" stroke="#000000" stroke-width="2.95" stroke-linecap="round" stroke-linejoin="bevel" points="1170.68,1177.8 1170.68,1235.91"/>
<polyline class="Stem" stroke="#000000" stroke-width="2.95" stroke-linecap="round" stroke-linejoin="bevel" points="1096.34,1166.46 1096.34,1230.24"/>
<polyline class="Stem" stroke="#000000" stroke-width="2.95" stroke-linecap="round" stroke-linejoin="bevel" points="977.389,1155.13 977.389,1230.24"/>
<polyline class="Stem" stroke="#000000" stroke-width="2.95" stroke-linecap="round" stroke-linejoin="bevel" points="894.015,1189.14 894.015,1252.91"/>
<polyline class="Stem" stroke="#000000" stroke-width="2.95" stroke-linecap="round" stroke-linejoin="bevel" points="841.801,1177.8 841.801,1244.19"/>
<polyline class="Stem" stroke="#000000" stroke-width="2.95" stroke-linecap="round" stroke-linejoin="bevel" points="758.259,1166.46 758.259,1230.24"/>
<polyline class="Stem" stroke="#000000" stroke-width="2.95" stroke-linecap="round" stroke-linejoin="bevel" points="643.388,1155.13 643.388,1230.24"/>
<polyline class="Stem" stroke="#000000" stroke-width="2.95" stroke-linecap="round" stroke-linejoin="bevel" points="482.153,1143.79 482.153,1218.9"/>
<polyline class="Stem" stroke="#000000" stroke-width="2.95" stroke-linecap="round" stroke-linejoin="bevel" points="400.656,1155.13 400.656,1224.57"/>
<polyline class="Stem" stroke="#000000" stroke-width="2.95" stroke-linecap="round" stroke-linejoin="bevel" points="319.16,1166.46 319.16,1230.24"/>
<polyline class="Stem" stroke="#000000" stroke-width="2.95" stroke-linecap="round" stroke-linejoin="bevel" points="2497.16,875.257 2497.16,805.039"/>
<polyline class="Stem" stroke="#000000" stroke-width="2.95" stroke-linecap="round" stroke-linejoin="bevel" points="2079.76,875.257 2079.76,805.039"/>
<polyline class="Stem" stroke="#000000" stroke-width="2.95" stroke-linecap="round" stroke-linejoin="bevel" points="1835.37,871.661 1835.37,938.268"/>
<polyline class="Stem" stroke="#000000" stroke-width="2.95" stroke-linecap="round" stroke-linejoin="bevel" points="1719.75,860.322 1719.75,918.425"/>
<polyline class="Stem" stroke="#000000" stroke-width="2.95" stroke-linecap="round" stroke-linejoin="bevel" points="1604.12,848.983 1604.12,912.756"/>
<polyline class="Stem" stroke="#000000" stroke-width="2.95" stroke-linecap="round" stroke-linejoin="bevel" points="1209.4,836.942 1209.4,912.756"/>
<polyline class="Stem" stroke="#000000" stroke-width="2.95" stroke-linecap="round" stroke-linejoin="bevel" points="792.826,836.942 792.826,912.756"/>
<polyline class="Stem" stroke="#000000" stroke-width="2.95" stroke-linecap="round" stroke-linejoin="bevel" points="564.719,826.306 564.719,901.417"/>
<polyline class="Stem" stroke="#000000" stroke-width="2.95" stroke-linecap="round" stroke-linejoin="bevel" points="441.94,837.645 441.94,907.087"/>
<polyline class="Stem" stroke="#000000" stroke-width="2.95" stroke-linecap="round" stroke-linejoin="bevel" points="319.16,848.983 319.16,912.756"/>
<polyline class="Stem" stroke="#000000" stroke-width="2.95" stroke-linecap="round" stroke-linejoin="bevel" points="2279.98,530.8 2279.98,603.779"/>
<polyline class="Stem" stroke="#000000" stroke-width="2.95" stroke-linecap="round" stroke-linejoin="bevel" points="1674.78,530.8 1674.78,603.779"/>
<polyline class="Stem" stroke="#000000" stroke-width="2.95" stroke-linecap="round" stroke-linejoin="bevel" points="1374.29,520.165 1374.29,595.276"/>
<polyline class="Stem" stroke="#000000" stroke-width="2.95" stroke-linecap="round" stroke-linejoin="bevel" points="1206.26,554.18 1206.26,617.953"/>
<polyline class="Stem" stroke="#000000" stroke-width="2.95" stroke-linecap="round" stroke-linejoin="bevel" points="1038.24,542.842 1038.24,612.283"/>
<polyline class="Stem" stroke="#000000" stroke-width="2.95" stroke-linecap="round" stroke-linejoin="bevel" points="847.299,531.503 847.299,595.276"/>
<polyline class="Stem" stroke="#000000" stroke-width="2.95" stroke-linecap="round" stroke-linejoin="bevel" points="687.197,531.503 687.197,595.276"/>
<polyline class="Stem" stroke="#000000" stroke-width="2.95" stroke-linecap="round" stroke-linejoin="bevel" points="554.004,545.662 554.004,481.89"/>
<polyline class="Stem" stroke="#000000" stroke-width="2.95" stroke-linecap="round" stroke-linejoin="bevel" points="393.902,568.339 393.902,504.567"/>
<path class="Note" transform="matrix(0.907087,0,0,0.907087,2615.76,1207.56)" d="M31.5469,-6.54688 C31.5469,-7.65104 31.125,-8.59375 30.2813,-9.375 C29.4271,-10.2188 28.4479,-10.6406 27.3438,-10.6406 C25.3958,-10.6406 21.4583,-8.6875 15.5313,-4.78125 C9.40625,-0.8125 5.66146,2.02083 4.29688,3.71875 C3.57813,4.625 3.21875,5.56771 3.21875,6.54688 C3.21875,7.65104 3.64583,8.59375 4.5,9.375 C5.28125,10.2188 6.25521,10.6406 7.42188,10.6406 C9.30729,10.6406 13.2813,8.6875 19.3438,4.78125 C25.3333,0.875 29.0417,-1.95833 30.4688,-3.71875 C31.1875,-4.5625 31.5469,-5.50521 31.5469,-6.54688 M26.375,-13.7656 C31.9688,-13.7656 34.7656,-11.3594 34.7656,-6.54688 C34.7656,-4.20313 34.0833,-1.46875 32.7188,1.65625 C31.3542,4.71875 29.5313,7.0625 27.25,8.6875 C22.2396,12.0729 15.9583,13.7656 8.40625,13.7656 C2.80208,13.7656 0,11.3594 0,6.54688 C0,4.40104 0.682292,1.69792 2.04688,-1.5625 C3.34896,-4.6875 5.17188,-7.0625 7.51563,-8.6875 C12.5365,-12.0729 18.8229,-13.7656 26.375,-13.7656"/>
<path class="Note" transform="matrix(0.907087,0,0,0.907087,2487.03,1207.56)" d="M21.9688,-13.7656 C25.0938,-13.7656 27.7344,-12.9531 29.8906,-11.3281 C31.901,-9.56771 32.9063,-7.35417 32.9063,-4.6875 C32.9063,-0.197917 30.599,4 25.9844,7.90625 C21.2969,11.8125 16.2813,13.7656 10.9375,13.7656 C7.8125,13.7656 5.17708,12.9531 3.03125,11.3281 C1.01042,9.56771 0,7.35417 0,4.6875 C0,0.197917 2.34375,-4 7.03125,-7.90625 C11.5938,-11.8125 16.5729,-13.7656 21.9688,-13.7656"/>
<path class="Note" transform="matrix(0.907087,0,0,0.907087,2400.49,1196.22)" d="M21.9688,-13.7656 C25.0938,-13.7656 27.7344,-12.9531 29.8906,-11.3281 C31.901,-9.56771 32.9063,-7.35417 32.9063,-4.6875 C32.9063,-0.197917 30.599,4 25.9844,7.90625 C21.2969,11.8125 16.2813,13.7656 10.9375,13.7656 C7.8125,13.7656 5.17708,12.9531 3.03125,11.3281 C1.01042,9.56771 0,7.35417 0,4.6875 C0,0.197917 2.34375,-4 7.03125,-7.90625 C11.5938,-11.8125 16.5729,-13.7656 21.9688,-13.7656"/>
<path class="Note" transform="matrix(0.907087,0,0,0.907087,2346.4,1196.22)" d="M21.9688,-13.7656 C25.0938,-13.7656 27.7344,-12.9531 29.8906,-11.3281 C31.901,-9.56771 32.9063,-7.35417 32.9063,-4.6875 C32.9063,-0.197917 30.599,4 25.9844,7.90625 C21.2969,11.8125 16.2813,13.7656 10.9375,13.7656 C7.8125,13.7656 5.17708,12.9531 3.03125,11.3281 C1.01042,9.56771 0,7.35417 0,4.6875 C0,0.197917 2.34375,-4 7.03125,-7.90625 C11.5938,-11.8125 16.5729,-13.7656 21.9688,-13.7656"/>
<path class="Note" transform="matrix(0.907087,0,0,0.907087,2240.87,1184.88)" d="M21.9688,-13.7656 C25.0938,-13.7656 27.7344,-12.9531 29.8906,-11.3281 C31.901,-9.56771 32.9063,-7.35417 32.9063,-4.6875 C32.9063,-0.197917 30.599,4 25.9844,7.90625 C21.2969,11.8125 16.2813,13.7656 10.9375,13.7656 C7.8125,13.7656 5.17708,12.9531 3.03125,11.3281 C1.01042,9.56771 0,7.35417 0,4.6875 C0,0.197917 2.34375,-4 7.03125,-7.90625 C11.5938,-11.8125 16.5729,-13.7656 21.9688,-13.7656"/>
<path class="Note" transform="matrix(0.907087,0,0,0.907087,2134.24,1207.56)" d="M21.9688,-13.7656 C25.0938,-13.7656 27.7344,-12.9531 29.8906,-11.3281 C31.901,-9.56771 32.9063,-7.35417 32.9063,-4.6875 C32.9063,-0.197917 30.599,4 25.9844,7.90625 C21.2969,11.8125 16.2813,13.7656 10.9375,13.7656 C7.8125,13.7656 5.17708,12.9531 3.03125,11.3281 C1.01042,9.56771 0,7.35417 0,4.6875 C0,0.197917 2.34375,-4 7.03125,-7.90625 C11.5938,-11.8125 16.5729,-13.7656 21.9688,-13.7656"/>
<path class="Note" transform="matrix(0.907087,0,0,0.907087,2058.45,1196.22)" d="M21.9688,-13.7656 C25.0938,-13.7656 27.7344,-12.9531 29.8906,-11.3281 C31.901,-9.56771 32.9063,-7.35417 32.9063,-4.6875 C32.9063,-0.197917 30.599,4 25.9844,7.90625 C21.2969,11.8125 16.2813,13.7656 10.9375,13.7656 C7.8125,13.7656 5.17708,12.9531 3.03125,11.3281 C1.01042,9.56771 0,7.35417 0,4.6875 C0,0.197917 2.34375,-4 7.03125,-7.90625 C11.5938,-11.8125 16.5729,-13.7656 21.9688,-13.7656"/>
<path class="Note" transform="matrix(0.907087,0,0,0.907087,1982.66,1196.22)" d="M21.9688,-13.7656 C25.0938,-13.7656 27.7344,-12.9531 29.8906,-11.3281 C31.901,-9.56771 32.9063,-7.35417 32.9063,-4.6875 C32.9063,-0.197917 30.599,4 25.9844,7.90625 C21.2969,11.8125 16.2813,13.7656 10.9375,13.7656 C7.8125,13.7656 5.17708,12.9531 3.03125,11.3281 C1.01042,9.56771 0,7.35417 0,4.6875 C0,0.197917 2.34375,-4 7.03125,-7.90625 C11.5938,-11.8125 16.5729,-13.7656 21.9688,-13.7656"/>
<path class="Note" transform="matrix(0.907087,0,0,0.907087,1906.87,1184.88)" d="M21.9688,-13.7656 C25.0938,-13.7656 27.7344,-12.9531 29.8906,-11.3281 C31.901,-9.56771 32.9063,-7.35417 32.9063,-4.6875 C32.9063,-0.197917 30.599,4 25.9844,7.90625 C21.2969,11.8125 16.2813,13.7656 10.9375,13.7656 C7.8125,13.7656 5.17708,12.9531 3.03125,11.3281 C1.01042,9.56771 0,7.35417 0,4.6875 C0,0.197917 2.34375,-4 7.03125,-7.90625 C11.5938,-11.8125 16.5729,-13.7656 21.9688,-13.7656"/>
<path class="Note" transform="matrix(0.907087,0,0,0.907087,1801.68,1173.54)" d="M21.9688,-13.7656 C25.0938,-13.7656 27.7344,-12.9531 29.8906,-11.3281 C31.901,-9.56771 32.9063,-7.35417 32.9063,-4.6875 C32.9063,-0.197917 30.599,4 25.9844,7.90625 C21.2969,11.8125 16.2813,13.7656 10.9375,13.7656 C7.8125,13.7656 5.17708,12.9531 3.03125,11.3281 C1.01042,9.56771 0,7.35417 0,4.6875 C0,0.197917 2.34375,-4 7.03125,-7.90625 C11.5938,-11.8125 16.5729,-13.7656 21.9688,-13.7656"/>
<path class="Note" transform="matrix(0.907087,0,0,0.907087,1727.34,1162.2)" d="M21.9688,-13.7656 C25.0938,-13.7656 27.7344,-12.9531 29.8906,-11.3281 C31.901,-9.56771 32.9063,-7.35417 32.9063,-4.6875 C32.9063,-0.197917 30.599,4 25.9844,7.90625 C21.2969,11.8125 16.2813,13.7656 10.9375,13.7656 C7.8125,13.7656 5.17708,12.9531 3.03125,11.3281 C1.01042,9.56771 0,7.35417 0,4.6875 C0,0.197917 2.34375,-4 7.03125,-7.90625 C11.5938,-11.8125 16.5729,-13.7656 21.9688,-13.7656"/>
<path class="Note" transform="matrix(0.907087,0,0,0.907087,1608.39,1184.88)" d="M21.9688,-13.7656 C25.0938,-13.7656 27.7344,-12.9531 29.8906,-11.3281 C31.901,-9.56771 32.9063,-7.35417 32.9063,-4.6875 C32.9063,-0.197917 30.599,4 25.9844,7.90625 C21.2969,11.8125 16.2813,13.7656 10.9375,13.7656 C7.8125,13.7656 5.17708,12.9531 3.03125,11.3281 C1.01042,9.56771 0,7.35417 0,4.6875 C0,0.197917 2.34375,-4 7.03125,-7.90625 C11.5938,-11.8125 16.5729,-13.7656 21.9688,-13.7656"/>
<path class="Note" transform="matrix(0.907087,0,0,0.907087,1501.76,1207.56)" d="M21.9688,-13.7656 C25.0938,-13.7656 27.7344,-12.9531 29.8906,-11.3281 C31.901,-9.56771 32.9063,-7.35417 32.9063,-4.6875 C32.9063,-0.197917 30.599,4 25.9844,7.90625 C21.2969,11.8125 16.2813,13.7656 10.9375,13.7656 C7.8125,13.7656 5.17708,12.9531 3.03125,11.3281 C1.01042,9.56771 0,7.35417 0,4.6875 C0,0.197917 2.34375,-4 7.03125,-7.90625 C11.5938,-11.8125 16.5729,-13.7656 21.9688,-13.7656"/>
<path class="Note" transform="matrix(0.907087,0,0,0.907087,1425.97,1196.22)" d="M21.9688,-13.7656 C25.0938,-13.7656 27.7344,-12.9531 29.8906,-11.3281 C31.901,-9.56771 32.9063,-7.35417 32.9063,-4.6875 C32.9063,-0.197917 30.599,4 25.9844,7.90625 C21.2969,11.8125 16.2813,13.7656 10.9375,13.7656 C7.8125,13.7656 5.17708,12.9531 3.03125,11.3281 C1.01042,9.56771 0,7.35417 0,4.6875 C0,0.197917 2.34375,-4 7.03125,-7.90625 C11.5938,-11.8125 16.5729,-13.7656 21.9688,-13.7656"/>
<path class="Note" transform="matrix(0.907087,0,0,0.907087,1350.18,1196.22)" d="M21.9688,-13.7656 C25.0938,-13.7656 27.7344,-12.9531 29.8906,-11.3281 C31.901,-9.56771 32.9063,-7.35417 32.9063,-4.6875 C32.9063,-0.197917 30.599,4 25.9844,7.90625 C21.2969,11.8125 16.2813,13.7656 10.9375,13.7656 C7.8125,13.7656 5.17708,12.9531 3.03125,11.3281 C1.01042,9.56771 0,7.35417 0,4.6875 C0,0.197917 2.34375,-4 7.03125,-7.90625 C11.5938,-11.8125 16.5729,-13.7656 21.9688,-13.7656"/>
<path class="Note" transform="matrix(0.907087,0,0,0.907087,1274.39,1184.88)" d="M21.9688,-13.7656 C25.0938,-13.7656 27.7344,-12.9531 29.8906,-11.3281 C31.901,-9.56771 32.9063,-7.35417 32.9063,-4.6875 C32.9063,-0.197917 30.599,4 25.9844,7.90625 C21.2969,11.8125 16.2813,13.7656 10.9375,13.7656 C7.8125,13.7656 5.17708,12.9531 3.03125,11.3281 C1.01042,9.56771 0,7.35417 0,4.6875 C0,0.197917 2.34375,-4 7.03125,-7.90625 C11.5938,-11.8125 16.5729,-13.7656 21.9688,-13.7656"/>
<path class="Note" transform="matrix(0.907087,0,0,0.907087,1169.21,1173.54)" d="M21.9688,-13.7656 C25.0938,-13.7656 27.7344,-12.9531 29.8906,-11.3281 C31.901,-9.56771 32.9063,-7.35417 32.9063,-4.6875 C32.9063,-0.197917 30.599,4 25.9844,7.90625 C21.2969,11.8125 16.2813,13.7656 10.9375,13.7656 C7.8125,13.7656 5.17708,12.9531 3.03125,11.3281 C1.01042,9.56771 0,7.35417 0,4.6875 C0,0.197917 2.34375,-4 7.03125,-7.90625 C11.5938,-11.8125 16.5729,-13.7656 21.9688,-13.7656"/>
<path class="Note" transform="matrix(0.907087,0,0,0.907087,1094.86,1162.2)" d="M21.9688,-13.7656 C25.0938,-13.7656 27.7344,-12.9531 29.8906,-11.3281 C31.901,-9.56771 32.9063,-7.35417 32.9063,-4.6875 C32.9063,-0.197917 30.599,4 25.9844,7.90625 C21.2969,11.8125 16.2813,13.7656 10.9375,13.7656 C7.8125,13.7656 5.17708,12.9531 3.03125,11.3281 C1.01042,9.56771 0,7.35417 0,4.6875 C0,0.197917 2.34375,-4 7.03125,-7.90625 C11.5938,-11.8125 16.5729,-13.7656 21.9688,-13.7656"/>
<path class="Note" transform="matrix(0.907087,0,0,0.907087,975.915,1150.87)" d="M21.9688,-13.7656 C25.0938,-13.7656 27.7344,-12.9531 29.8906,-11.3281 C31.901,-9.56771 32.9063,-7.35417 32.9063,-4.6875 C32.9063,-0.197917 30.599,4 25.9844,7.90625 C21.2969,11.8125 16.2813,13.7656 10.9375,13.7656 C7.8125,13.7656 5.17708,12.9531 3.03125,11.3281 C1.01042,9.56771 0,7.35417 0,4.6875 C0,0.197917 2.34375,-4 7.03125,-7.90625 C11.5938,-11.8125 16.5729,-13.7656 21.9688,-13.7656"/>
<path class="Note" transform="matrix(0.907087,0,0,0.907087,892.541,1184.88)" d="M21.9688,-13.7656 C25.0938,-13.7656 27.7344,-12.9531 29.8906,-11.3281 C31.901,-9.56771 32.9063,-7.35417 32.9063,-4.6875 C32.9063,-0.197917 30.599,4 25.9844,7.90625 C21.2969,11.8125 16.2813,13.7656 10.9375,13.7656 C7.8125,13.7656 5.17708,12.9531 3.03125,11.3281 C1.01042,9.56771 0,7.35417 0,4.6875 C0,0.197917 2.34375,-4 7.03125,-7.90625 C11.5938,-11.8125 16.5729,-13.7656 21.9688,-13.7656"/>
<path class="Note" transform="matrix(0.907087,0,0,0.907087,840.327,1173.54)" d="M21.9688,-13.7656 C25.0938,-13.7656 27.7344,-12.9531 29.8906,-11.3281 C31.901,-9.56771 32.9063,-7.35417 32.9063,-4.6875 C32.9063,-0.197917 30.599,4 25.9844,7.90625 C21.2969,11.8125 16.2813,13.7656 10.9375,13.7656 C7.8125,13.7656 5.17708,12.9531 3.03125,11.3281 C1.01042,9.56771 0,7.35417 0,4.6875 C0,0.197917 2.34375,-4 7.03125,-7.90625 C11.5938,-11.8125 16.5729,-13.7656 21.9688,-13.7656"/>
<path class="Note" transform="matrix(0.907087,0,0,0.907087,756.785,1162.2)" d="M21.9688,-13.7656 C25.0938,-13.7656 27.7344,-12.9531 29.8906,-11.3281 C31.901,-9.56771 32.9063,-7.35417 32.9063,-4.6875 C32.9063,-0.197917 30.599,4 25.9844,7.90625 C21.2969,11.8125 16.2813,13.7656 10.9375,13.7656 C7.8125,13.7656 5.17708,12.9531 3.03125,11.3281 C1.01042,9.56771 0,7.35417 0,4.6875 C0,0.197917 2.34375,-4 7.03125,-7.90625 C11.5938,-11.8125 16.5729,-13.7656 21.9688,-13.7656"/>
<path class="Note" transform="matrix(0.907087,0,0,0.907087,641.914,1150.87)" d="M21.9688,-13.7656 C25.0938,-13.7656 27.7344,-12.9531 29.8906,-11.3281 C31.901,-9.56771 32.9063,-7.35417 32.9063,-4.6875 C32.9063,-0.197917 30.599,4 25.9844,7.90625 C21.2969,11.8125 16.2813,13.7656 10.9375,13.7656 C7.8125,13.7656 5.17708,12.9531 3.03125,11.3281 C1.01042,9.56771 0,7.35417 0,4.6875 C0,0.197917 2.34375,-4 7.03125,-7.90625 C11.5938,-11.8125 16.5729,-13.7656 21.9688,-13.7656"/>
<path class="Note" transform="matrix(0.907087,0,0,0.907087,480.679,1139.53)" d="M21.9688,-13.7656 C25.0938,-13.7656 27.7344,-12.9531 29.8906,-11.3281 C31.901,-9.56771 32.9063,-7.35417 32.9063,-4.6875 C32.9063,-0.197917 30.599,4 25.9844,7.90625 C21.2969,11.8125 16.2813,13.7656 10.9375,13.7656 C7.8125,13.7656 5.17708,12.9531 3.03125,11.3281 C1.01042,9.56771 0,7.35417 0,4.6875 C0,0.197917 2.34375,-4 7.03125,-7.90625 C11.5938,-11.8125 16.5729,-13.7656 21.9688,-13.7656"/>
<path class="Note" transform="matrix(0.907087,0,0,0.907087,399.182,1150.87)" d="M21.9688,-13.7656 C25.0938,-13.7656 27.7344,-12.9531 29.8906,-11.3281 C31.901,-9.56771 32.9063,-7.35417 32.9063,-4.6875 C32.9063,-0.197917 30.599,4 25.9844,7.90625 C21.2969,11.8125 16.2813,13.7656 10.9375,13.7656 C7.8125,13.7656 5.17708,12.9531 3.03125,11.3281 C1.01042,9.56771 0,7.35417 0,4.6875 C0,0.197917 2.34375,-4 7.03125,-7.90625 C11.5938,-11.8125 16.5729,-13.7656 21.9688,-13.7656"/>
<path class="Note" transform="matrix(0.907087,0,0,0.907087,317.686,1162.2)" d="M21.9688,-13.7656 C25.0938,-13.7656 27.7344,-12.9531 29.8906,-11.3281 C31.901,-9.56771 32.9063,-7.35417 32.9063,-4.6875 C32.9063,-0.197917 30.599,4 25.9844,7.90625 C21.2969,11.8125 16.2813,13.7656 10.9375,13.7656 C7.8125,13.7656 5.17708,12.9531 3.03125,11.3281 C1.01042,9.56771 0,7.35417 0,4.6875 C0,0.197917 2.34375,-4 7.03125,-7.90625 C11.5938,-11.8125 16.5729,-13.7656 21.9688,-13.7656"/>
<path class="Note" transform="matrix(0.907087,0,0,0.907087,2467.14,878.74)" d="M31.5469,-6.54688 C31.5469,-7.65104 31.125,-8.59375 30.2813,-9.375 C29.4271,-10.2188 28.4479,-10.6406 27.3438,-10.6406 C25.3958,-10.6406 21.4583,-8.6875 15.5313,-4.78125 C9.40625,-0.8125 5.66146,2.02083 4.29688,3.71875 C3.57813,4.625 3.21875,5.56771 3.21875,6.54688 C3.21875,7.65104 3.64583,8.59375 4.5,9.375 C5.28125,10.2188 6.25521,10.6406 7.42188,10.6406 C9.30729,10.6406 13.2813,8.6875 19.3438,4.78125 C25.3333,0.875 29.0417,-1.95833 30.4688,-3.71875 C31.1875,-4.5625 31.5469,-5.50521 31.5469,-6.54688 M26.375,-13.7656 C31.9688,-13.7656 34.7656,-11.3594 34.7656,-6.54688 C34.7656,-4.20313 34.0833,-1.46875 32.7188,1.65625 C31.3542,4.71875 29.5313,7.0625 27.25,8.6875 C22.2396,12.0729 15.9583,13.7656 8.40625,13.7656 C2.80208,13.7656 0,11.3594 0,6.54688 C0,4.40104 0.682292,1.69792 2.04688,-1.5625 C3.34896,-4.6875 5.17188,-7.0625 7.51563,-8.6875 C12.5365,-12.0729 18.8229,-13.7656 26.375,-13.7656"/>
<path class="Note" transform="matrix(0.907087,0,0,0.907087,2049.74,878.74)" d="M31.5469,-6.54688 C31.5469,-7.65104 31.125,-8.59375 30.2813,-9.375 C29.4271,-10.2188 28.4479,-10.6406 27.3438,-10.6406 C25.3958,-10.6406 21.4583,-8.6875 15.5313,-4.78125 C9.40625,-0.8125 5.66146,2.02083 4.29688,3.71875 C3.57813,4.625 3.21875,5.56771 3.21875,6.54688 C3.21875,7.65104 3.64583,8.59375 4.5,9.375 C5.28125,10.2188 6.25521,10.6406 7.42188,10.6406 C9.30729,10.6406 13.2813,8.6875 19.3438,4.78125 C25.3333,0.875 29.0417,-1.95833 30.4688,-3.71875 C31.1875,-4.5625 31.5469,-5.50521 31.5469,-6.54688 M26.375,-13.7656 C31.9688,-13.7656 34.7656,-11.3594 34.7656,-6.54688 C34.7656,-4.20313 34.0833,-1.46875 32.7188,1.65625 C31.3542,4.71875 29.5313,7.0625 27.25,8.6875 C22.2396,12.0729 15.9583,13.7656 8.40625,13.7656 C2.80208,13.7656 0,11.3594 0,6.54688 C0,4.40104 0.682292,1.69792 2.04688,-1.5625 C3.34896,-4.6875 5.17188,-7.0625 7.51563,-8.6875 C12.5365,-12.0729 18.8229,-13.7656 26.375,-13.7656"/>
<path class="Note" transform="matrix(0.907087,0,0,0.907087,1833.9,867.402)" d="M21.9688,-13.7656 C25.0938,-13.7656 27.7344,-12.9531 29.8906,-11.3281 C31.901,-9.56771 32.9063,-7.35417 32.9063,-4.6875 C32.9063,-0.197917 30.599,4 25.9844,7.90625 C21.2969,11.8125 16.2813,13.7656 10.9375,13.7656 C7.8125,13.7656 5.17708,12.9531 3.03125,11.3281 C1.01042,9.56771 0,7.35417 0,4.6875 C0,0.197917 2.34375,-4 7.03125,-7.90625 C11.5938,-11.8125 16.5729,-13.7656 21.9688,-13.7656"/>
<path class="Note" transform="matrix(0.907087,0,0,0.907087,1718.27,856.063)" d="M21.9688,-13.7656 C25.0938,-13.7656 27.7344,-12.9531 29.8906,-11.3281 C31.901,-9.56771 32.9063,-7.35417 32.9063,-4.6875 C32.9063,-0.197917 30.599,4 25.9844,7.90625 C21.2969,11.8125 16.2813,13.7656 10.9375,13.7656 C7.8125,13.7656 5.17708,12.9531 3.03125,11.3281 C1.01042,9.56771 0,7.35417 0,4.6875 C0,0.197917 2.34375,-4 7.03125,-7.90625 C11.5938,-11.8125 16.5729,-13.7656 21.9688,-13.7656"/>
<path class="Note" transform="matrix(0.907087,0,0,0.907087,1602.65,844.724)" d="M21.9688,-13.7656 C25.0938,-13.7656 27.7344,-12.9531 29.8906,-11.3281 C31.901,-9.56771 32.9063,-7.35417 32.9063,-4.6875 C32.9063,-0.197917 30.599,4 25.9844,7.90625 C21.2969,11.8125 16.2813,13.7656 10.9375,13.7656 C7.8125,13.7656 5.17708,12.9531 3.03125,11.3281 C1.01042,9.56771 0,7.35417 0,4.6875 C0,0.197917 2.34375,-4 7.03125,-7.90625 C11.5938,-11.8125 16.5729,-13.7656 21.9688,-13.7656"/>
<path class="Note" transform="matrix(0.907087,0,0,0.907087,1207.93,833.386)" d="M31.5469,-6.54688 C31.5469,-7.65104 31.125,-8.59375 30.2813,-9.375 C29.4271,-10.2188 28.4479,-10.6406 27.3438,-10.6406 C25.3958,-10.6406 21.4583,-8.6875 15.5313,-4.78125 C9.40625,-0.8125 5.66146,2.02083 4.29688,3.71875 C3.57813,4.625 3.21875,5.56771 3.21875,6.54688 C3.21875,7.65104 3.64583,8.59375 4.5,9.375 C5.28125,10.2188 6.25521,10.6406 7.42188,10.6406 C9.30729,10.6406 13.2813,8.6875 19.3438,4.78125 C25.3333,0.875 29.0417,-1.95833 30.4688,-3.71875 C31.1875,-4.5625 31.5469,-5.50521 31.5469,-6.54688 M26.375,-13.7656 C31.9688,-13.7656 34.7656,-11.3594 34.7656,-6.54688 C34.7656,-4.20313 34.0833,-1.46875 32.7188,1.65625 C31.3542,4.71875 29.5313,7.0625 27.25,8.6875 C22.2396,12.0729 15.9583,13.7656 8.40625,13.7656 C2.80208,13.7656 0,11.3594 0,6.54688 C0,4.40104 0.682292,1.69792 2.04688,-1.5625 C3.34896,-4.6875 5.17188,-7.0625 7.51563,-8.6875 C12.5365,-12.0729 18.8229,-13.7656 26.375,-13.7656"/>
<path class="Note" transform="matrix(0.907087,0,0,0.907087,791.352,833.386)" d="M31.5469,-6.54688 C31.5469,-7.65104 31.125,-8.59375 30.2813,-9.375 C29.4271,-10.2188 28.4479,-10.6406 27.3438,-10.6406 C25.3958,-10.6406 21.4583,-8.6875 15.5313,-4.78125 C9.40625,-0.8125 5.66146,2.02083 4.29688,3.71875 C3.57813,4.625 3.21875,5.56771 3.21875,6.54688 C3.21875,7.65104 3.64583,8.59375 4.5,9.375 C5.28125,10.2188 6.25521,10.6406 7.42188,10.6406 C9.30729,10.6406 13.2813,8.6875 19.3438,4.78125 C25.3333,0.875 29.0417,-1.95833 30.4688,-3.71875 C31.1875,-4.5625 31.5469,-5.50521 31.5469,-6.54688 M26.375,-13.7656 C31.9688,-13.7656 34.7656,-11.3594 34.7656,-6.54688 C34.7656,-4.20313 34.0833,-1.46875 32.7188,1.65625 C31.3542,4.71875 29.5313,7.0625 27.25,8.6875 C22.2396,12.0729 15.9583,13.7656 8.40625,13.7656 C2.80208,13.7656 0,11.3594 0,6.54688 C0,4.40104 0.682292,1.69792 2.04688,-1.5625 C3.34896,-4.6875 5.17188,-7.0625 7.51563,-8.6875 C12.5365,-12.0729 18.8229,-13.7656 26.375,-13.7656"/>
<path class="Note" transform="matrix(0.907087,0,0,0.907087,563.245,822.047)" d="M21.9688,-13.7656 C25.0938,-13.7656 27.7344,-12.9531 29.8906,-11.3281 C31.901,-9.56771 32.9063,-7.35417 32.9063,-4.6875 C32.9063,-0.197917 30.599,4 25.9844,7.90625 C21.2969,11.8125 16.2813,13.7656 10.9375,13.7656 C7.8125,13.7656 5.17708,12.9531 3.03125,11.3281 C1.01042,9.56771 0,7.35417 0,4.6875 C0,0.197917 2.34375,-4 7.03125,-7.90625 C11.5938,-11.8125 16.5729,-13.7656 21.9688,-13.7656"/>
<path class="Note" transform="matrix(0.907087,0,0,0.907087,440.466,833.386)" d="M21.9688,-13.7656 C25.0938,-13.7656 27.7344,-12.9531 29.8906,-11.3281 C31.901,-9.56771 32.9063,-7.35417 32.9063,-4.6875 C32.9063,-0.197917 30.599,4 25.9844,7.90625 C21.2969,11.8125 16.2813,13.7656 10.9375,13.7656 C7.8125,13.7656 5.17708,12.9531 3.03125,11.3281 C1.01042,9.56771 0,7.35417 0,4.6875 C0,0.197917 2.34375,-4 7.03125,-7.90625 C11.5938,-11.8125 16.5729,-13.7656 21.9688,-13.7656"/>
<path class="Note" transform="matrix(0.907087,0,0,0.907087,317.686,844.724)" d="M21.9688,-13.7656 C25.0938,-13.7656 27.7344,-12.9531 29.8906,-11.3281 C31.901,-9.56771 32.9063,-7.35417 32.9063,-4.6875 C32.9063,-0.197917 30.599,4 25.9844,7.90625 C21.2969,11.8125 16.2813,13.7656 10.9375,13.7656 C7.8125,13.7656 5.17708,12.9531 3.03125,11.3281 C1.01042,9.56771 0,7.35417 0,4.6875 C0,0.197917 2.34375,-4 7.03125,-7.90625 C11.5938,-11.8125 16.5729,-13.7656 21.9688,-13.7656"/>
<path class="Note" transform="matrix(0.907087,0,0,0.907087,2278.51,527.244)" d="M31.5469,-6.54688 C31.5469,-7.65104 31.125,-8.59375 30.2813,-9.375 C29.4271,-10.2188 28.4479,-10.6406 27.3438,-10.6406 C25.3958,-10.6406 21.4583,-8.6875 15.5313,-4.78125 C9.40625,-0.8125 5.66146,2.02083 4.29688,3.71875 C3.57813,4.625 3.21875,5.56771 3.21875,6.54688 C3.21875,7.65104 3.64583,8.59375 4.5,9.375 C5.28125,10.2188 6.25521,10.6406 7.42188,10.6406 C9.30729,10.6406 13.2813,8.6875 19.3438,4.78125 C25.3333,0.875 29.0417,-1.95833 30.4688,-3.71875 C31.1875,-4.5625 31.5469,-5.50521 31.5469,-6.54688 M26.375,-13.7656 C31.9688,-13.7656 34.7656,-11.3594 34.7656,-6.54688 C34.7656,-4.20313 34.0833,-1.46875 32.7188,1.65625 C31.3542,4.71875 29.5313,7.0625 27.25,8.6875 C22.2396,12.0729 15.9583,13.7656 8.40625,13.7656 C2.80208,13.7656 0,11.3594 0,6.54688 C0,4.40104 0.682292,1.69792 2.04688,-1.5625 C3.34896,-4.6875 5.17188,-7.0625 7.51563,-8.6875 C12.5365,-12.0729 18.8229,-13.7656 26.375,-13.7656"/>
<path class="Note" transform="matrix(0.907087,0,0,0.907087,1673.31,527.244)" d="M31.5469,-6.54688 C31.5469,-7.65104 31.125,-8.59375 30.2813,-9.375 C29.4271,-10.2188 28.4479,-10.6406 27.3438,-10.6406 C25.3958,-10.6406 21.4583,-8.6875 15.5313,-4.78125 C9.40625,-0.8125 5.66146,2.02083 4.29688,3.71875 C3.57813,4.625 3.21875,5.56771 3.21875,6.54688 C3.21875,7.65104 3.64583,8.59375 4.5,9.375 C5.28125,10.2188 6.25521,10.6406 7.42188,10.6406 C9.30729,10.6406 13.2813,8.6875 19.3438,4.78125 C25.3333,0.875 29.0417,-1.95833 30.4688,-3.71875 C31.1875,-4.5625 31.5469,-5.50521 31.5469,-6.54688 M26.375,-13.7656 C31.9688,-13.7656 34.7656,-11.3594 34.7656,-6.54688 C34.7656,-4.20313 34.0833,-1.46875 32.7188,1.65625 C31.3542,4.71875 29.5313,7.0625 27.25,8.6875 C22.2396,12.0729 15.9583,13.7656 8.40625,13.7656 C2.80208,13.7656 0,11.3594 0,6.54688 C0,4.40104 0.682292,1.69792 2.04688,-1.5625 C3.34896,-4.6875 5.17188,-7.0625 7.51563,-8.6875 C12.5365,-12.0729 18.8229,-13.7656 26.375,-13.7656"/>
<path class="Note" transform="matrix(0.907087,0,0,0.907087,1372.81,515.905)" d="M21.9688,-13.7656 C25.0938,-13.7656 27.7344,-12.9531 29.8906,-11.3281 C31.901,-9.56771 32.9063,-7.35417 32.9063,-4.6875 C32.9063,-0.197917 30.599,4 25.9844,7.90625 C21.2969,11.8125 16.2813,13.7656 10.9375,13.7656 C7.8125,13.7656 5.17708,12.9531 3.03125,11.3281 C1.01042,9.56771 0,7.35417 0,4.6875 C0,0.197917 2.34375,-4 7.03125,-7.90625 C11.5938,-11.8125 16.5729,-13.7656 21.9688,-13.7656"/>
<path class="Note" transform="matrix(0.907087,0,0,0.907087,1204.79,549.921)" d="M21.9688,-13.7656 C25.0938,-13.7656 27.7344,-12.9531 29.8906,-11.3281 C31.901,-9.56771 32.9063,-7.35417 32.9063,-4.6875 C32.9063,-0.197917 30.599,4 25.9844,7.90625 C21.2969,11.8125 16.2813,13.7656 10.9375,13.7656 C7.8125,13.7656 5.17708,12.9531 3.03125,11.3281 C1.01042,9.56771 0,7.35417 0,4.6875 C0,0.197917 2.34375,-4 7.03125,-7.90625 C11.5938,-11.8125 16.5729,-13.7656 21.9688,-13.7656"/>
<path class="Note" transform="matrix(0.907087,0,0,0.907087,1036.77,538.583)" d="M21.9688,-13.7656 C25.0938,-13.7656 27.7344,-12.9531 29.8906,-11.3281 C31.901,-9.56771 32.9063,-7.35417 32.9063,-4.6875 C32.9063,-0.197917 30.599,4 25.9844,7.90625 C21.2969,11.8125 16.2813,13.7656 10.9375,13.7656 C7.8125,13.7656 5.17708,12.9531 3.03125,11.3281 C1.01042,9.56771 0,7.35417 0,4.6875 C0,0.197917 2.34375,-4 7.03125,-7.90625 C11.5938,-11.8125 16.5729,-13.7656 21.9688,-13.7656"/>
<path class="Note" transform="matrix(0.907087,0,0,0.907087,845.825,527.244)" d="M21.9688,-13.7656 C25.0938,-13.7656 27.7344,-12.9531 29.8906,-11.3281 C31.901,-9.56771 32.9063,-7.35417 32.9063,-4.6875 C32.9063,-0.197917 30.599,4 25.9844,7.90625 C21.2969,11.8125 16.2813,13.7656 10.9375,13.7656 C7.8125,13.7656 5.17708,12.9531 3.03125,11.3281 C1.01042,9.56771 0,7.35417 0,4.6875 C0,0.197917 2.34375,-4 7.03125,-7.90625 C11.5938,-11.8125 16.5729,-13.7656 21.9688,-13.7656"/>
<path class="Note" transform="matrix(0.907087,0,0,0.907087,685.723,527.244)" d="M21.9688,-13.7656 C25.0938,-13.7656 27.7344,-12.9531 29.8906,-11.3281 C31.901,-9.56771 32.9063,-7.35417 32.9063,-4.6875 C32.9063,-0.197917 30.599,4 25.9844,7.90625 C21.2969,11.8125 16.2813,13.7656 10.9375,13.7656 C7.8125,13.7656 5.17708,12.9531 3.03125,11.3281 C1.01042,9.56771 0,7.35417 0,4.6875 C0,0.197917 2.34375,-4 7.03125,-7.90625 C11.5938,-11.8125 16.5729,-13.7656 21.9688,-13.7656"/>
<path class="Note" transform="matrix(0.907087,0,0,0.907087,525.622,549.921)" d="M21.9688,-13.7656 C25.0938,-13.7656 27.7344,-12.9531 29.8906,-11.3281 C31.901,-9.56771 32.9063,-7.35417 32.9063,-4.6875 C32.9063,-0.197917 30.599,4 25.9844,7.90625 C21.2969,11.8125 16.2813,13.7656 10.9375,13.7656 C7.8125,13.7656 5.17708,12.9531 3.03125,11.3281 C1.01042,9.56771 0,7.35417 0,4.6875 C0,0.197917 2.34375,-4 7.03125,-7.90625 C11.5938,-11.8125 16.5729,-13.7656 21.9688,-13.7656"/>
<path class="Note" transform="matrix(0.907087,0,0,0.907087,365.52,572.598)" d="M21.9688,-13.7656 C25.0938,-13.7656 27.7344,-12.9531 29.8906,-11.3281 C31.901,-9.56771 32.9063,-7.35417 32.9063,-4.6875 C32.9063,-0.197917 30.599,4 25.9844,7.90625 C21.2969,11.8125 16.2813,13.7656 10.9375,13.7656 C7.8125,13.7656 5.17708,12.9531 3.03125,11.3281 C1.01042,9.56771 0,7.35417 0,4.6875 C0,0.197917 2.34375,-4 7.03125,-7.90625 C11.5938,-11.8125 16.5729,-13.7656 21.9688,-13.7656"/>
<path class="Clef" transform="matrix(0.907087,0,0,0.907087,156.246,1207.56)" d="M36.7188,-25.5938 C36.7188,-25.5938 36.9167,-25.5938 37.3125,-25.5938 C37.5729,-25.6563 37.7969,-25.6875 37.9844,-25.6875 C45.276,-25.6875 51.2656,-23.1146 55.9531,-17.9688 C60.6406,-12.8958 62.9844,-6.97396 62.9844,-0.203125 C62.9844,8.20313 59.5052,15.0417 52.5469,20.3125 C50.724,21.75 48.3438,22.9219 45.4063,23.8281 C45.7396,28.0573 45.9063,31.474 45.9063,34.0781 C45.9063,34.599 45.8385,36.4896 45.7031,39.75 C45.4427,45.8021 43.3594,51.0417 39.4531,55.4688 C35.6823,59.8333 30.9948,62.0156 25.3906,62.0156 C20.1198,62.0156 15.6302,60.1615 11.9219,56.4531 C8.20313,52.6719 6.34375,48.1146 6.34375,42.7813 C6.34375,39.9792 7.42188,37.599 9.57813,35.6406 C11.7865,33.6927 14.3542,32.7188 17.2813,32.7188 C19.8854,32.7188 22.0677,33.7292 23.8281,35.75 C25.651,37.6354 26.5625,39.9792 26.5625,42.7813 C26.5625,45.3125 25.651,47.4896 23.8281,49.3125 C22.0052,51.1354 19.8229,52.0469 17.2813,52.0469 C16.2396,52.0469 15.2344,51.8542 14.2656,51.4688 C17.1302,55.6979 20.9375,57.8125 25.6875,57.8125 C30.1771,57.8125 33.8542,55.9896 36.7188,52.3438 C39.7188,48.5729 41.349,44.1771 41.6094,39.1563 C41.7344,36.0313 41.7969,34.2448 41.7969,33.7969 C41.7969,30.151 41.6667,27.1563 41.4063,24.8125 C38.1563,25.3333 35.2604,25.5938 32.7188,25.5938 C23.6667,25.5938 15.9531,22.0104 9.57813,14.8438 C3.32813,7.61458 0.203125,-0.979167 0.203125,-10.9375 C0.203125,-13.0208 0.395833,-15.1354 0.78125,-17.2813 C1.17708,-19.0417 1.66667,-20.9635 2.25,-23.0469 C2.57292,-24.224 3.45313,-26.1146 4.89063,-28.7188 C5.41146,-29.5 5.9974,-30.4766 6.64844,-31.6484 C7.29948,-32.8203 7.75521,-33.599 8.01563,-33.9844 C8.66146,-35.2865 9.92708,-37.0469 11.8125,-39.2656 C12.3333,-39.849 12.8724,-40.4974 13.4297,-41.2109 C13.987,-41.9245 14.4609,-42.5104 14.8516,-42.9688 C15.2422,-43.4271 15.5339,-43.7865 15.7266,-44.0469 C15.9193,-44.3073 17.3854,-46.0313 20.125,-49.2188 C20.7708,-49.875 21.4036,-50.5755 22.0234,-51.3203 C22.6432,-52.0651 23.1484,-52.651 23.5391,-53.0781 C23.9297,-53.5052 24.224,-53.8125 24.4219,-54 C22.0781,-61.75 20.6094,-67.9375 20.0156,-72.5625 C19.5677,-76.2708 19.3438,-81.349 19.3438,-87.7969 C19.3438,-93.4635 20.6458,-98.7708 23.25,-103.719 C25.7813,-108.854 29.3281,-113.052 33.8906,-116.313 C34.151,-116.51 34.474,-116.609 34.8594,-116.609 C35.3177,-116.609 35.6458,-116.51 35.8438,-116.313 C39.3542,-112.083 42.3802,-106.583 44.9219,-99.8125 C47.526,-93.0417 48.8281,-86.8854 48.8281,-81.3438 C48.8281,-75.0938 47.3333,-69.2344 44.3438,-63.7656 C40.9583,-57.974 36.5938,-51.9844 31.25,-45.7969 C32.6146,-41.5052 34.4375,-34.7708 36.7188,-25.5938 M45.0156,19.8281 C48.401,18.5885 51.0417,16.474 52.9375,13.4844 C55.0208,10.6198 56.0625,7.39583 56.0625,3.8125 C56.0625,-0.8125 54.5,-4.91667 51.375,-8.5 C48.1771,-12.2083 44.1042,-14.2917 39.1563,-14.75 C41.9583,-1.01042 43.9115,10.5156 45.0156,19.8281 M7.23438,-2.73438 C7.23438,3.71354 9.83854,9.38021 15.0469,14.2656 C20.3802,19.0156 26.3698,21.3906 33.0156,21.3906 C35.7448,21.3906 38.4115,21.1927 41.0156,20.7969 C39.974,10.901 37.9219,-0.947917 34.8594,-14.75 C31.151,-14.3542 28.1927,-13.0521 25.9844,-10.8438 C23.8281,-8.5625 22.75,-5.98958 22.75,-3.125 C22.75,1.82292 25.3906,5.82813 30.6719,8.89063 C31.1198,9.34896 31.3438,9.83854 31.3438,10.3594 C31.3438,10.8802 31.1198,11.3646 30.6719,11.8125 C30.276,12.2708 29.7865,12.5 29.2031,12.5 C29.1406,12.5 28.849,12.4375 28.3281,12.3125 C24.6094,10.2917 21.7448,7.6875 19.7344,4.5 C17.8385,1.10417 16.8906,-2.31771 16.8906,-5.76563 C16.8906,-10.2552 18.2917,-14.3229 21.0938,-17.9688 C24.0208,-21.6146 27.8281,-23.9583 32.5156,-25 C30.6927,-32.2917 29.1979,-37.9896 28.0313,-42.0938 C26.9896,-40.9167 25.737,-39.5 24.2734,-37.8438 C22.8099,-36.1875 21.9479,-35.1927 21.6875,-34.8594 C19.3438,-31.8073 17.5521,-29.4323 16.3125,-27.7344 C14.0938,-24.6719 12.4635,-22.0365 11.4219,-19.8281 C10.3177,-17.349 9.34375,-14.6458 8.5,-11.7188 C7.65625,-8.91667 7.23438,-5.92188 7.23438,-2.73438 M39.8438,-102.047 C34.9583,-99.6406 31.1198,-96.1927 28.3281,-91.7031 C25.4635,-87.0781 24.0313,-82.099 24.0313,-76.7656 C24.0313,-72.0781 25.2031,-65.7604 27.5469,-57.8125 C32.2344,-63.4792 35.75,-68.7188 38.0938,-73.5313 C40.5625,-78.6146 41.7969,-83.9219 41.7969,-89.4531 C41.7969,-93.6198 41.1458,-97.8177 39.8438,-102.047"/>
<path class="Clef" transform="matrix(0.907087,0,0,0.907087,156.246,890.079)" d="M36.7188,-25.5938 C36.7188,-25.5938 36.9167,-25.5938 37.3125,-25.5938 C37.5729,-25.6563 37.7969,-25.6875 37.9844,-25.6875 C45.276,-25.6875 51.2656,-23.1146 55.9531,-17.9688 C60.6406,-12.8958 62.9844,-6.97396 62.9844,-0.203125 C62.9844,8.20313 59.5052,15.0417 52.5469,20.3125 C50.724,21.75 48.3438,22.9219 45.4063,23.8281 C45.7396,28.0573 45.9063,31.474 45.9063,34.0781 C45.9063,34.599 45.8385,36.4896 45.7031,39.75 C45.4427,45.8021 43.3594,51.0417 39.4531,55.4688 C35.6823,59.8333 30.9948,62.0156 25.3906,62.0156 C20.1198,62.0156 15.6302,60.1615 11.9219,56.4531 C8.20313,52.6719 6.34375,48.1146 6.34375,42.7813 C6.34375,39.9792 7.42188,37.599 9.57813,35.6406 C11.7865,33.6927 14.3542,32.7188 17.2813,32.7188 C19.8854,32.7188 22.0677,33.7292 23.8281,35.75 C25.651,37.6354 26.5625,39.9792 26.5625,42.7813 C26.5625,45.3125 25.651,47.4896 23.8281,49.3125 C22.0052,51.1354 19.8229,52.0469 17.2813,52.0469 C16.2396,52.0469 15.2344,51.8542 14.2656,51.4688 C17.1302,55.6979 20.9375,57.8125 25.6875,57.8125 C30.1771,57.8125 33.8542,55.9896 36.7188,52.3438 C39.7188,48.5729 41.349,44.1771 41.6094,39.1563 C41.7344,36.0313 41.7969,34.2448 41.7969,33.7969 C41.7969,30.151 41.6667,27.1563 41.4063,24.8125 C38.1563,25.3333 35.2604,25.5938 32.7188,25.5938 C23.6667,25.5938 15.9531,22.0104 9.57813,14.8438 C3.32813,7.61458 0.203125,-0.979167 0.203125,-10.9375 C0.203125,-13.0208 0.395833,-15.1354 0.78125,-17.2813 C1.17708,-19.0417 1.66667,-20.9635 2.25,-23.0469 C2.57292,-24.224 3.45313,-26.1146 4.89063,-28.7188 C5.41146,-29.5 5.9974,-30.4766 6.64844,-31.6484 C7.29948,-32.8203 7.75521,-33.599 8.01563,-33.9844 C8.66146,-35.2865 9.92708,-37.0469 11.8125,-39.2656 C12.3333,-39.849 12.8724,-40.4974 13.4297,-41.2109 C13.987,-41.9245 14.4609,-42.5104 14.8516,-42.9688 C15.2422,-43.4271 15.5339,-43.7865 15.7266,-44.0469 C15.9193,-44.3073 17.3854,-46.0313 20.125,-49.2188 C20.7708,-49.875 21.4036,-50.5755 22.0234,-51.3203 C22.6432,-52.0651 23.1484,-52.651 23.5391,-53.0781 C23.9297,-53.5052 24.224,-53.8125 24.4219,-54 C22.0781,-61.75 20.6094,-67.9375 20.0156,-72.5625 C19.5677,-76.2708 19.3438,-81.349 19.3438,-87.7969 C19.3438,-93.4635 20.6458,-98.7708 23.25,-103.719 C25.7813,-108.854 29.3281,-113.052 33.8906,-116.313 C34.151,-116.51 34.474,-116.609 34.8594,-116.609 C35.3177,-116.609 35.6458,-116.51 35.8438,-116.313 C39.3542,-112.083 42.3802,-106.583 44.9219,-99.8125 C47.526,-93.0417 48.8281,-86.8854 48.8281,-81.3438 C48.8281,-75.0938 47.3333,-69.2344 44.3438,-63.7656 C40.9583,-57.974 36.5938,-51.9844 31.25,-45.7969 C32.6146,-41.5052 34.4375,-34.7708 36.7188,-25.5938 M45.0156,19.8281 C48.401,18.5885 51.0417,16.474 52.9375,13.4844 C55.0208,10.6198 56.0625,7.39583 56.0625,3.8125 C56.0625,-0.8125 54.5,-4.91667 51.375,-8.5 C48.1771,-12.2083 44.1042,-14.2917 39.1563,-14.75 C41.9583,-1.01042 43.9115,10.5156 45.0156,19.8281 M7.23438,-2.73438 C7.23438,3.71354 9.83854,9.38021 15.0469,14.2656 C20.3802,19.0156 26.3698,21.3906 33.0156,21.3906 C35.7448,21.3906 38.4115,21.1927 41.0156,20.7969 C39.974,10.901 37.9219,-0.947917 34.8594,-14.75 C31.151,-14.3542 28.1927,-13.0521 25.9844,-10.8438 C23.8281,-8.5625 22.75,-5.98958 22.75,-3.125 C22.75,1.82292 25.3906,5.82813 30.6719,8.89063 C31.1198,9.34896 31.3438,9.83854 31.3438,10.3594 C31.3438,10.8802 31.1198,11.3646 30.6719,11.8125 C30.276,12.2708 29.7865,12.5 29.2031,12.5 C29.1406,12.5 28.849,12.4375 28.3281,12.3125 C24.6094,10.2917 21.7448,7.6875 19.7344,4.5 C17.8385,1.10417 16.8906,-2.31771 16.8906,-5.76563 C16.8906,-10.2552 18.2917,-14.3229 21.0938,-17.9688 C24.0208,-21.6146 27.8281,-23.9583 32.5156,-25 C30.6927,-32.2917 29.1979,-37.9896 28.0313,-42.0938 C26.9896,-40.9167 25.737,-39.5 24.2734,-37.8438 C22.8099,-36.1875 21.9479,-35.1927 21.6875,-34.8594 C19.3438,-31.8073 17.5521,-29.4323 16.3125,-27.7344 C14.0938,-24.6719 12.4635,-22.0365 11.4219,-19.8281 C10.3177,-17.349 9.34375,-14.6458 8.5,-11.7188 C7.65625,-8.91667 7.23438,-5.92188 7.23438,-2.73438 M39.8438,-102.047 C34.9583,-99.6406 31.1198,-96.1927 28.3281,-91.7031 C25.4635,-87.0781 24.0313,-82.099 24.0313,-76.7656 C24.0313,-72.0781 25.2031,-65.7604 27.5469,-57.8125 C32.2344,-63.4792 35.75,-68.7188 38.0938,-73.5313 C40.5625,-78.6146 41.7969,-83.9219 41.7969,-89.4531 C41.7969,-93.6198 41.1458,-97.8177 39.8438,-102.047"/>
<path class="Clef" transform="matrix(0.907087,0,0,0.907087,156.246,572.598)" d="M36.7188,-25.5938 C36.7188,-25.5938 36.9167,-25.5938 37.3125,-25.5938 C37.5729,-25.6563 37.7969,-25.6875 37.9844,-25.6875 C45.276,-25.6875 51.2656,-23.1146 55.9531,-17.9688 C60.6406,-12.8958 62.9844,-6.97396 62.9844,-0.203125 C62.9844,8.20313 59.5052,15.0417 52.5469,20.3125 C50.724,21.75 48.3438,22.9219 45.4063,23.8281 C45.7396,28.0573 45.9063,31.474 45.9063,34.0781 C45.9063,34.599 45.8385,36.4896 45.7031,39.75 C45.4427,45.8021 43.3594,51.0417 39.4531,55.4688 C35.6823,59.8333 30.9948,62.0156 25.3906,62.0156 C20.1198,62.0156 15.6302,60.1615 11.9219,56.4531 C8.20313,52.6719 6.34375,48.1146 6.34375,42.7813 C6.34375,39.9792 7.42188,37.599 9.57813,35.6406 C11.7865,33.6927 14.3542,32.7188 17.2813,32.7188 C19.8854,32.7188 22.0677,33.7292 23.8281,35.75 C25.651,37.6354 26.5625,39.9792 26.5625,42.7813 C26.5625,45.3125 25.651,47.4896 23.8281,49.3125 C22.0052,51.1354 19.8229,52.0469 17.2813,52.0469 C16.2396,52.0469 15.2344,51.8542 14.2656,51.4688 C17.1302,55.6979 20.9375,57.8125 25.6875,57.8125 C30.1771,57.8125 33.8542,55.9896 36.7188,52.3438 C39.7188,48.5729 41.349,44.1771 41.6094,39.1563 C41.7344,36.0313 41.7969,34.2448 41.7969,33.7969 C41.7969,30.151 41.6667,27.1563 41.4063,24.8125 C38.1563,25.3333 35.2604,25.5938 32.7188,25.5938 C23.6667,25.5938 15.9531,22.0104 9.57813,14.8438 C3.32813,7.61458 0.203125,-0.979167 0.203125,-10.9375 C0.203125,-13.0208 0.395833,-15.1354 0.78125,-17.2813 C1.17708,-19.0417 1.66667,-20.9635 2.25,-23.0469 C2.57292,-24.224 3.45313,-26.1146 4.89063,-28.7188 C5.41146,-29.5 5.9974,-30.4766 6.64844,-31.6484 C7.29948,-32.8203 7.75521,-33.599 8.01563,-33.9844 C8.66146,-35.2865 9.92708,-37.0469 11.8125,-39.2656 C12.3333,-39.849 12.8724,-40.4974 13.4297,-41.2109 C13.987,-41.9245 14.4609,-42.5104 14.8516,-42.9688 C15.2422,-43.4271 15.5339,-43.7865 15.7266,-44.0469 C15.9193,-44.3073 17.3854,-46.0313 20.125,-49.2188 C20.7708,-49.875 21.4036,-50.5755 22.0234,-51.3203 C22.6432,-52.0651 23.1484,-52.651 23.5391,-53.0781 C23.9297,-53.5052 24.224,-53.8125 24.4219,-54 C22.0781,-61.75 20.6094,-67.9375 20.0156,-72.5625 C19.5677,-76.2708 19.3438,-81.349 19.3438,-87.7969 C19.3438,-93.4635 20.6458,-98.7708 23.25,-103.719 C25.7813,-108.854 29.3281,-113.052 33.8906,-116.313 C34.151,-116.51 34.474,-116.609 34.8594,-116.609 C35.3177,-116.609 35.6458,-116.51 35.8438,-116.313 C39.3542,-112.083 42.3802,-106.583 44.9219,-99.8125 C47.526,-93.0417 48.8281,-86.8854 48.8281,-81.3438 C48.8281,-75.0938 47.3333,-69.2344 44.3438,-63.7656 C40.9583,-57.974 36.5938,-51.9844 31.25,-45.7969 C32.6146,-41.5052 34.4375,-34.7708 36.7188,-25.5938 M45.0156,19.8281 C48.401,18.5885 51.0417,16.474 52.9375,13.4844 C55.0208,10.6198 56.0625,7.39583 56.0625,3.8125 C56.0625,-0.8125 54.5,-4.91667 51.375,-8.5 C48.1771,-12.2083 44.1042,-14.2917 39.1563,-14.75 C41.9583,-1.01042 43.9115,10.5156 45.0156,19.8281 M7.23438,-2.73438 C7.23438,3.71354 9.83854,9.38021 15.0469,14.2656 C20.3802,19.0156 26.3698,21.3906 33.0156,21.3906 C35.7448,21.3906 38.4115,21.1927 41.0156,20.7969 C39.974,10.901 37.9219,-0.947917 34.8594,-14.75 C31.151,-14.3542 28.1927,-13.0521 25.9844,-10.8438 C23.8281,-8.5625 22.75,-5.98958 22.75,-3.125 C22.75,1.82292 25.3906,5.82813 30.6719,8.89063 C31.1198,9.34896 31.3438,9.83854 31.3438,10.3594 C31.3438,10.8802 31.1198,11.3646 30.6719,11.8125 C30.276,12.2708 29.7865,12.5 29.2031,12.5 C29.1406,12.5 28.849,12.4375 28.3281,12.3125 C24.6094,10.2917 21.7448,7.6875 19.7344,4.5 C17.8385,1.10417 16.8906,-2.31771 16.8906,-5.76563 C16.8906,-10.2552 18.2917,-14.3229 21.0938,-17.9688 C24.0208,-21.6146 27.8281,-23.9583 32.5156,-25 C30.6927,-32.2917 29.1979,-37.9896 28.0313,-42.0938 C26.9896,-40.9167 25.737,-39.5 24.2734,-37.8438 C22.8099,-36.1875 21.9479,-35.1927 21.6875,-34.8594 C19.3438,-31.8073 17.5521,-29.4323 16.3125,-27.7344 C14.0938,-24.6719 12.4635,-22.0365 11.4219,-19.8281 C10.3177,-17.349 9.34375,-14.6458 8.5,-11.7188 C7.65625,-8.91667 7.23438,-5.92188 7.23438,-2.73438 M39.8438,-102.047 C34.9583,-99.6406 31.1198,-96.1927 28.3281,-91.7031 C25.4635,-87.0781 24.0313,-82.099 24.0313,-76.7656 C24.0313,-72.0781 25.2031,-65.7604 27.5469,-57.8125 C32.2344,-63.4792 35.75,-68.7188 38.0938,-73.5313 C40.5625,-78.6146 41.7969,-83.9219 41.7969,-89.4531 C41.7969,-93.6198 41.1458,-97.8177 39.8438,-102.047"/>
<path class="KeySig" transform="matrix(0.907087,0,0,0.907087,236.013,1139.53)" d="M21.5781,31.1563 C21.5781,32.3958 20.9609,33.0156 19.7266,33.0156 C18.4922,33.0156 17.875,32.3958 17.875,31.1563 L17.875,16.7031 L9.57813,19.8281 L9.57813,35.6406 C9.57813,36.8802 8.95833,37.5 7.71875,37.5 C6.47917,37.5 5.85938,36.8802 5.85938,35.6406 L5.85938,21.0938 L2.73438,22.2656 C2.67188,22.3281 2.41146,22.3594 1.95313,22.3594 C1.43229,22.3594 0.976563,22.1641 0.585938,21.7734 C0.195313,21.3828 0,20.9271 0,20.4063 L0,14.3594 C0,13.3802 0.421875,12.7604 1.26563,12.5 L5.85938,10.9375 L5.85938,-5.07813 L2.73438,-4 C2.67188,-3.9375 2.41146,-3.90625 1.95313,-3.90625 C1.43229,-3.90625 0.976563,-4.10156 0.585938,-4.49219 C0.195313,-4.88281 0,-5.33854 0,-5.85938 L0,-11.9219 C0,-12.8281 0.421875,-13.4115 1.26563,-13.6719 L5.85938,-15.4375 L5.85938,-31.1563 C5.85938,-32.3958 6.47917,-33.0156 7.71875,-33.0156 C8.95833,-33.0156 9.57813,-32.3958 9.57813,-31.1563 L9.57813,-16.7031 L17.875,-19.8281 L17.875,-35.6406 C17.875,-36.8802 18.4922,-37.5 19.7266,-37.5 C20.9609,-37.5 21.5781,-36.8802 21.5781,-35.6406 L21.5781,-21.0938 L24.8125,-22.2656 C24.875,-22.3281 25.099,-22.3594 25.4844,-22.3594 C25.9427,-22.3594 26.4323,-22.1667 26.9531,-21.7813 C27.349,-21.3854 27.5469,-20.9271 27.5469,-20.4063 L27.5469,-14.3594 C27.5469,-13.4427 27.0885,-12.8229 26.1719,-12.5 L21.5781,-10.9375 L21.5781,5.07813 L24.8125,4 C24.875,3.9375 25.099,3.90625 25.4844,3.90625 C25.9427,3.90625 26.4323,4.10417 26.9531,4.5 C27.349,4.88542 27.5469,5.33854 27.5469,5.85938 L27.5469,11.9219 C27.5469,12.7656 27.0885,13.349 26.1719,13.6719 L21.5781,15.4375 L21.5781,31.1563 M17.875,-9.46875 L9.57813,-6.54688 L9.57813,9.46875 L17.875,6.54688 L17.875,-9.46875 "/>
<path class="KeySig" transform="matrix(0.907087,0,0,0.907087,236.013,822.047)" d="M21.5781,31.1563 C21.5781,32.3958 20.9609,33.0156 19.7266,33.0156 C18.4922,33.0156 17.875,32.3958 17.875,31.1563 L17.875,16.7031 L9.57813,19.8281 L9.57813,35.6406 C9.57813,36.8802 8.95833,37.5 7.71875,37.5 C6.47917,37.5 5.85938,36.8802 5.85938,35.6406 L5.85938,21.0938 L2.73438,22.2656 C2.67188,22.3281 2.41146,22.3594 1.95313,22.3594 C1.43229,22.3594 0.976563,22.1641 0.585938,21.7734 C0.195313,21.3828 0,20.9271 0,20.4063 L0,14.3594 C0,13.3802 0.421875,12.7604 1.26563,12.5 L5.85938,10.9375 L5.85938,-5.07813 L2.73438,-4 C2.67188,-3.9375 2.41146,-3.90625 1.95313,-3.90625 C1.43229,-3.90625 0.976563,-4.10156 0.585938,-4.49219 C0.195313,-4.88281 0,-5.33854 0,-5.85938 L0,-11.9219 C0,-12.8281 0.421875,-13.4115 1.26563,-13.6719 L5.85938,-15.4375 L5.85938,-31.1563 C5.85938,-32.3958 6.47917,-33.0156 7.71875,-33.0156 C8.95833,-33.0156 9.57813,-32.3958 9.57813,-31.1563 L9.57813,-16.7031 L17.875,-19.8281 L17.875,-35.6406 C17.875,-36.8802 18.4922,-37.5 19.7266,-37.5 C20.9609,-37.5 21.5781,-36.8802 21.5781,-35.6406 L21.5781,-21.0938 L24.8125,-22.2656 C24.875,-22.3281 25.099,-22.3594 25.4844,-22.3594 C25.9427,-22.3594 26.4323,-22.1667 26.9531,-21.7813 C27.349,-21.3854 27.5469,-20.9271 27.5469,-20.4063 L27.5469,-14.3594 C27.5469,-13.4427 27.0885,-12.8229 26.1719,-12.5 L21.5781,-10.9375 L21.5781,5.07813 L24.8125,4 C24.875,3.9375 25.099,3.90625 25.4844,3.90625 C25.9427,3.90625 26.4323,4.10417 26.9531,4.5 C27.349,4.88542 27.5469,5.33854 27.5469,5.85938 L27.5469,11.9219 C27.5469,12.7656 27.0885,13.349 26.1719,13.6719 L21.5781,15.4375 L21.5781,31.1563 M17.875,-9.46875 L9.57813,-6.54688 L9.57813,9.46875 L17.875,6.54688 L17.875,-9.46875 "/>
<path class="KeySig" transform="matrix(0.907087,0,0,0.907087,236.013,504.567)" d="M21.5781,31.1563 C21.5781,32.3958 20.9609,33.0156 19.7266,33.0156 C18.4922,33.0156 17.875,32.3958 17.875,31.1563 L17.875,16.7031 L9.57813,19.8281 L9.57813,35.6406 C9.57813,36.8802 8.95833,37.5 7.71875,37.5 C6.47917,37.5 5.85938,36.8802 5.85938,35.6406 L5.85938,21.0938 L2.73438,22.2656 C2.67188,22.3281 2.41146,22.3594 1.95313,22.3594 C1.43229,22.3594 0.976563,22.1641 0.585938,21.7734 C0.195313,21.3828 0,20.9271 0,20.4063 L0,14.3594 C0,13.3802 0.421875,12.7604 1.26563,12.5 L5.85938,10.9375 L5.85938,-5.07813 L2.73438,-4 C2.67188,-3.9375 2.41146,-3.90625 1.95313,-3.90625 C1.43229,-3.90625 0.976563,-4.10156 0.585938,-4.49219 C0.195313,-4.88281 0,-5.33854 0,-5.85938 L0,-11.9219 C0,-12.8281 0.421875,-13.4115 1.26563,-13.6719 L5.85938,-15.4375 L5.85938,-31.1563 C5.85938,-32.3958 6.47917,-33.0156 7.71875,-33.0156 C8.95833,-33.0156 9.57813,-32.3958 9.57813,-31.1563 L9.57813,-16.7031 L17.875,-19.8281 L17.875,-35.6406 C17.875,-36.8802 18.4922,-37.5 19.7266,-37.5 C20.9609,-37.5 21.5781,-36.8802 21.5781,-35.6406 L21.5781,-21.0938 L24.8125,-22.2656 C24.875,-22.3281 25.099,-22.3594 25.4844,-22.3594 C25.9427,-22.3594 26.4323,-22.1667 26.9531,-21.7813 C27.349,-21.3854 27.5469,-20.9271 27.5469,-20.4063 L27.5469,-14.3594 C27.5469,-13.4427 27.0885,-12.8229 26.1719,-12.5 L21.5781,-10.9375 L21.5781,5.07813 L24.8125,4 C24.875,3.9375 25.099,3.90625 25.4844,3.90625 C25.9427,3.90625 26.4323,4.10417 26.9531,4.5 C27.349,4.88542 27.5469,5.33854 27.5469,5.85938 L27.5469,11.9219 C27.5469,12.7656 27.0885,13.349 26.1719,13.6719 L21.5781,15.4375 L21.5781,31.1563 M17.875,-9.46875 L9.57813,-6.54688 L9.57813,9.46875 L17.875,6.54688 L17.875,-9.46875 "/>
<path class="TimeSig" transform="matrix(0.907087,0,0,0.907087,285.598,527.244)" d="M22.8594,25 C20.901,25 19.1406,24.6432 17.5781,23.9297 C16.0156,23.2161 14.9115,22.4688 14.2656,21.6875 C13.4115,20.7083 12.5625,19.9583 11.7188,19.4375 C10.6771,18.7188 9.60417,18.3594 8.5,18.3594 C6.80208,18.3594 5.40104,18.8802 4.29688,19.9219 C3.13021,20.901 2.47917,22.2344 2.34375,23.9219 C2.21875,24.6406 1.82813,25 1.17188,25 C0.390625,25 0,24.6406 0,23.9219 C0,21.3906 0.588542,19.1146 1.76563,17.0938 C2.93229,15.0104 4.36458,13.2865 6.0625,11.9219 C7.48958,10.6823 9.375,9.18229 11.7188,7.42188 C12.1146,7.09896 12.9453,6.41667 14.2109,5.375 C15.4766,4.33333 16.5365,3.45313 17.3906,2.73438 C19.0781,1.30729 20.5417,-0.583333 21.7813,-2.9375 C22.9479,-5.28125 23.5313,-7.81771 23.5313,-10.5469 C23.5313,-13.8698 22.9792,-16.7344 21.875,-19.1406 C20.7083,-21.4844 18.9167,-22.6563 16.5,-22.6563 C15.0104,-22.6563 13.8073,-22.3333 12.8906,-21.6875 C11.9115,-21.0313 11.4219,-20.151 11.4219,-19.0469 C11.4219,-18.1302 12.0078,-16.9896 13.1797,-15.625 C14.3516,-14.2604 14.9375,-13.1198 14.9375,-12.2031 C14.9375,-10.2552 14.2552,-8.59896 12.8906,-7.23438 C11.5885,-5.93229 9.99479,-5.28125 8.10938,-5.28125 C6.15104,-5.28125 4.48958,-5.96354 3.125,-7.32813 C1.82292,-8.75521 1.17188,-10.3802 1.17188,-12.2031 C1.17188,-15.9219 2.66927,-18.9844 5.66406,-21.3906 C8.65885,-23.7969 12.2708,-25 16.5,-25 C21.5208,-25 25.8854,-23.6354 29.5938,-20.9063 C33.3021,-18.3021 35.1563,-14.849 35.1563,-10.5469 C35.1563,-7.61979 34.6354,-5.11458 33.5938,-3.03125 C32.6146,-0.8125 31.151,0.916667 29.2031,2.15625 C26.9844,3.58333 25.0625,4.6875 23.4375,5.46875 C21.1563,6.51042 18.8802,7.48958 16.6094,8.40625 C13.8698,9.51042 11.75,10.5521 10.25,11.5313 C11.1042,11.3333 11.9844,11.2344 12.8906,11.2344 C15.8906,11.2344 19.0156,12.2083 22.2656,14.1563 C25.5885,16.1146 28.1615,17.0938 29.9844,17.0938 C31.0885,17.0938 31.9688,16.8958 32.625,16.5 C33.2708,16.1146 33.6927,15.6927 33.8906,15.2344 C34.151,14.5885 34.3802,14.1354 34.5781,13.875 C34.8385,13.4792 35.1615,13.2813 35.5469,13.2813 C36.3281,13.2813 36.7188,13.6719 36.7188,14.4531 C36.7188,16.276 35.4167,18.4896 32.8125,21.0938 C30.2708,23.6979 26.9531,25 22.8594,25"/>
<path class="TimeSig" transform="matrix(0.907087,0,0,0.907087,283.968,572.676)" d="M22.4688,-23.7344 C24.4167,-23.7344 26.0755,-23.9609 27.4453,-24.4141 C28.8151,-24.8672 29.6927,-25.0938 30.0781,-25.0938 C30.5365,-25.0938 30.8958,-24.9635 31.1563,-24.7031 C31.3542,-24.5156 31.4844,-24.2917 31.5469,-24.0313 C31.5469,-23.8958 31.4792,-23.6979 31.3438,-23.4375 L2.9375,9.57813 L19.625,9.57813 L19.625,-3.51563 C19.625,-4.35938 19.8542,-5.07813 20.3125,-5.67188 C21.0938,-6.31771 21.7448,-6.70833 22.2656,-6.84375 C23.1094,-7.22917 24.151,-8.14063 25.3906,-9.57813 C26.4323,-10.7448 27.6719,-12.7917 29.1094,-15.7188 C29.2969,-16.1146 29.5885,-16.3125 29.9844,-16.3125 C30.7656,-16.3125 31.2188,-15.8542 31.3438,-14.9375 L31.3438,9.57813 L38.4844,9.57813 C39.3906,9.57813 39.9115,10.0625 40.0469,11.0313 C40.0469,12.0104 39.526,12.5 38.4844,12.5 L31.3438,12.5 L31.3438,13.2813 C31.3438,15.8854 31.9948,18.099 33.2969,19.9219 C34.7969,21.7448 36.5573,22.6563 38.5781,22.6563 C39.3594,22.6563 39.75,23.0469 39.75,23.8281 C39.75,24.6094 39.3594,25 38.5781,25 C37.2135,25 35,24.8073 31.9375,24.4219 C29.1354,23.9635 26.9531,23.7344 25.3906,23.7344 C23.7656,23.7344 21.5833,23.9635 18.8438,24.4219 C15.9167,24.8073 13.7396,25 12.3125,25 C11.5313,25 11.1406,24.6094 11.1406,23.8281 C11.1406,23.0469 11.5313,22.6563 12.3125,22.6563 C14.3229,22.6563 16.0781,21.7448 17.5781,19.9219 C18.9427,18.0365 19.625,15.8229 19.625,13.2813 L19.625,12.5 L2.9375,12.5 C1.82292,12.5 1.04167,12.2396 0.59375,11.7188 C0.0625,11.3333 -0.203125,10.8125 -0.203125,10.1563 C-0.203125,9.95833 0.286458,9.27604 1.26563,8.10938 C2.38021,6.80729 3.55208,5.21354 4.78125,3.32813 C6.21875,1.10938 7.58854,-1.17188 8.89063,-3.51563 C10.3177,-6.18229 11.4583,-9.24479 12.3125,-12.7031 C13.2813,-16.2135 13.7656,-19.7917 13.7656,-23.4375 C13.7656,-24.4792 14.224,-25 15.1406,-25 C15.3385,-25 15.7604,-24.901 16.4063,-24.7031 C16.6042,-24.6406 17.013,-24.5443 17.6328,-24.4141 C18.2526,-24.2839 18.7552,-24.1563 19.1406,-24.0313 C20.3177,-23.8333 21.4271,-23.7344 22.4688,-23.7344"/>
<path class="Articulation" transform="matrix(0.907087,0,0,0.907087,1826.07,781.228)" d="M46.5781,-17.0938 C46.974,-17.6771 47.5313,-17.9688 48.25,-17.9688 C48.7708,-17.9688 49.2266,-17.7734 49.6172,-17.3828 C50.0078,-16.9922 50.2031,-16.5365 50.2031,-16.0156 C50.2031,-15.6302 50.1042,-15.2708 49.9063,-14.9375 L40.625,-0.875 C40.2396,-0.291667 39.6563,0 38.875,0 C38.2813,0 37.7917,-0.229167 37.4063,-0.6875 L27.6406,-12.5938 L19.8281,-0.875 C19.4323,-0.291667 18.8438,0 18.0625,0 C17.4792,0 16.9948,-0.229167 16.6094,-0.6875 L6.73438,-12.5938 L3.60938,-7.90625 C3.22396,-7.32292 2.67188,-7.03125 1.95313,-7.03125 C1.43229,-7.03125 0.976563,-7.22656 0.585938,-7.61719 C0.195313,-8.00781 0,-8.46354 0,-8.98438 C0,-9.38021 0.0989583,-9.73958 0.296875,-10.0625 L9.57813,-24.125 C9.96354,-24.7083 10.5469,-25 11.3281,-25 C11.9115,-25 12.401,-24.7708 12.7969,-24.3125 L22.5625,-12.4063 L30.375,-24.125 C30.7604,-24.7083 31.3438,-25 32.125,-25 C32.7188,-25 33.2083,-24.7708 33.5938,-24.3125 L43.4531,-12.4063 L46.5781,-17.0938 "/>
<path class="Beam" fill-rule="evenodd" d="M2427.4,1127.98 L2516.89,1133.85 L2516.89,1145.21 L2427.4,1139.35 L2427.4,1127.98 "/>
<path class="Beam" fill-rule="evenodd" d="M2267.77,1111.01 L2376.25,1116.84 L2376.25,1128.2 L2267.77,1122.37 L2267.77,1111.01 "/>
<path class="Beam" fill-rule="evenodd" d="M2376.25,1133.85 L2346.32,1132.24 L2346.32,1143.6 L2376.25,1145.2 L2376.25,1133.85 "/>
<path class="Beam" fill-rule="evenodd" d="M2085.35,1127.95 L2164.09,1133.84 L2164.09,1145.21 L2085.35,1139.32 L2085.35,1127.95 "/>
<path class="Beam" fill-rule="evenodd" d="M1933.77,1110.94 L2012.51,1116.83 L2012.51,1128.2 L1933.77,1122.31 L1933.77,1110.94 "/>
<path class="Beam" fill-rule="evenodd" d="M1727.34,1224.55 L1804.63,1230.44 L1804.63,1241.82 L1727.34,1235.92 L1727.34,1224.55 "/>
<path class="Beam" fill-rule="evenodd" d="M1452.88,1127.95 L1531.62,1133.84 L1531.62,1145.21 L1452.88,1139.32 L1452.88,1127.95 "/>
<path class="Beam" fill-rule="evenodd" d="M1301.3,1110.94 L1380.04,1116.83 L1380.04,1128.2 L1301.3,1122.31 L1301.3,1110.94 "/>
<path class="Beam" fill-rule="evenodd" d="M1094.86,1224.55 L1172.15,1230.44 L1172.15,1241.82 L1094.86,1235.92 L1094.86,1224.55 "/>
<path class="Beam" fill-rule="evenodd" d="M756.785,1224.49 L895.489,1247.66 L895.489,1259.15 L756.785,1235.98 L756.785,1224.49 "/>
<path class="Beam" fill-rule="evenodd" d="M840.327,1221.44 L895.489,1230.65 L895.489,1242.15 L840.327,1232.93 L840.327,1221.44 "/>
<path class="Beam" fill-rule="evenodd" d="M317.686,1224.55 L402.13,1218.68 L402.13,1230.04 L317.686,1235.92 L317.686,1224.55 "/>
<path class="Beam" fill-rule="evenodd" d="M1602.65,907.08 L1721.22,912.894 L1721.22,924.246 L1602.65,918.432 L1602.65,907.08 "/>
<path class="Beam" fill-rule="evenodd" d="M317.686,907.081 L443.414,901.275 L443.414,912.626 L317.686,918.431 L317.686,907.081 "/>
<path class="Beam" fill-rule="evenodd" d="M1036.77,606.611 L1207.74,612.38 L1207.74,623.725 L1036.77,617.956 L1036.77,606.611 "/>
<path class="Beam" fill-rule="evenodd" d="M685.723,589.606 L848.773,589.606 L848.773,600.945 L685.723,600.945 L685.723,589.606 "/>
<path class="Beam" fill-rule="evenodd" d="M392.428,499.259 L555.478,476.164 L555.478,487.616 L392.428,510.71 L392.428,499.259 "/>
<path class="NoteDot" transform="matrix(0.907087,0,0,0.907087,2278.66,1173.54)" d="M1.66406,4.00781 C0.554688,2.89844 0,1.5625 0,0 C0,-1.5625 0.554688,-2.89844 1.66406,-4.00781 C2.77344,-5.11719 4.10938,-5.67188 5.67188,-5.67188 C7.23438,-5.67188 8.56771,-5.11719 9.67188,-4.00781 C10.776,-2.89844 11.3281,-1.5625 11.3281,0 C11.3281,1.5625 10.776,2.89844 9.67188,4.00781 C8.56771,5.11719 7.23438,5.67188 5.67188,5.67188 C4.10938,5.67188 2.77344,5.11719 1.66406,4.00781"/>
</svg>
