<?xml version="1.0" encoding="UTF-8" standalone="no"?>
<svg width="2977.2px" height="4208.4px" viewBox="0 0 2977.2 4208.4"
 xmlns="http://www.w3.org/2000/svg" xmlns:xlink="http://www.w3.org/1999/xlink" version="1.2" baseProfile="tiny">
<title>Mars_Tort</title>
<desc>Generated by MuseScore 3.0.2</desc>
<polyline class="StaffLines" fill="none" stroke="#000000" stroke-width="2.00" stroke-linejoin="bevel" points="141.732,566.733 2835.47,566.733"/>
<polyline class="StaffLines" fill="none" stroke="#000000" stroke-width="2.00" stroke-linejoin="bevel" points="141.732,591.733 2835.47,591.733"/>
<polyline class="StaffLines" fill="none" stroke="#000000" stroke-width="2.00" stroke-linejoin="bevel" points="141.732,616.733 2835.47,616.733"/>
<polyline class="StaffLines" fill="none" stroke="#000000" stroke-width="2.00" stroke-linejoin="bevel" points="141.732,641.733 2835.47,641.733"/>
<polyline class="StaffLines" fill="none" stroke="#000000" stroke-width="2.00" stroke-linejoin="bevel" points="141.732,666.733 2835.47,666.733"/>
<polyline class="StaffLines" fill="none" stroke="#000000" stroke-width="2.00" stroke-linejoin="bevel" points="141.732,1041.73 2835.47,1041.73"/>
<polyline class="StaffLines" fill="none" stroke="#000000" stroke-width="2.00" stroke-linejoin="bevel" points="141.732,1066.73 2835.47,1066.73"/>
<polyline class="StaffLines" fill="none" stroke="#000000" stroke-width="2.00" stroke-linejoin="bevel" points="141.732,1091.73 2835.47,1091.73"/>
<polyline class="StaffLines" fill="none" stroke="#000000" stroke-width="2.00" stroke-linejoin="bevel" points="141.732,1116.73 2835.47,1116.73"/>
<polyline class="StaffLines" fill="none" stroke="#000000" stroke-width="2.00" stroke-linejoin="bevel" points="141.732,1141.73 2835.47,1141.73"/>
<polyline class="StaffLines" fill="none" stroke="#000000" stroke-width="2.00" stroke-linejoin="bevel" points="141.732,1516.73 2835.47,1516.73"/>
<polyline class="StaffLines" fill="none" stroke="#000000" stroke-width="2.00" stroke-linejoin="bevel" points="141.732,1541.73 2835.47,1541.73"/>
<polyline class="StaffLines" fill="none" stroke="#000000" stroke-width="2.00" stroke-linejoin="bevel" points="141.732,1566.73 2835.47,1566.73"/>
<polyline class="StaffLines" fill="none" stroke="#000000" stroke-width="2.00" stroke-linejoin="bevel" points="141.732,1591.73 2835.47,1591.73"/>
<polyline class="StaffLines" fill="none" stroke="#000000" stroke-width="2.00" stroke-linejoin="bevel" points="141.732,1616.73 2835.47,1616.73"/>
<polyline class="StaffLines" fill="none" stroke="#000000" stroke-width="2.00" stroke-linejoin="bevel" points="141.732,1991.73 2835.47,1991.73"/>
<polyline class="StaffLines" fill="none" stroke="#000000" stroke-width="2.00" stroke-linejoin="bevel" points="141.732,2016.73 2835.47,2016.73"/>
<polyline class="StaffLines" fill="none" stroke="#000000" stroke-width="2.00" stroke-linejoin="bevel" points="141.732,2041.73 2835.47,2041.73"/>
<polyline class="StaffLines" fill="none" stroke="#000000" stroke-width="2.00" stroke-linejoin="bevel" points="141.732,2066.73 2835.47,2066.73"/>
<polyline class="StaffLines" fill="none" stroke="#000000" stroke-width="2.00" stroke-linejoin="bevel" points="141.732,2091.73 2835.47,2091.73"/>
<path class="Text" d="M1329.33,152.982 L1298.61,221.732 L1296.94,221.732 L1266.81,155.732 L1266.81,204.092 C1266.81,210.175 1267.53,214.196 1268.97,216.154 C1270.42,218.112 1273.46,219.211 1278.09,219.451 L1278.09,221.732 L1249.89,221.732 L1249.89,219.451 C1254.85,219.128 1258.03,218.027 1259.43,216.146 C1260.83,214.266 1261.53,210.248 1261.53,204.092 L1261.53,155.373 C1261.53,150.977 1260.87,148.159 1259.55,146.92 C1258.23,145.68 1255.1,144.899 1250.14,144.576 L1250.14,142.295 L1273.89,142.295 L1301.61,202.888 L1328.12,142.295 L1352.01,142.295 L1352.01,144.576 C1347.53,144.972 1344.67,145.81 1343.43,147.092 C1342.18,148.373 1341.56,151.133 1341.56,155.373 L1341.56,208.654 C1341.56,212.894 1342.2,215.672 1343.48,216.99 C1344.76,218.308 1347.61,219.128 1352.01,219.451 L1352.01,221.732 L1318.4,221.732 L1318.4,219.451 C1323.12,219.128 1326.12,218.269 1327.4,216.873 C1328.69,215.477 1329.33,212.295 1329.33,207.326 L1329.33,152.982 M1357.09,209.888 C1357.09,208.451 1357.25,207.115 1357.57,205.881 C1357.89,204.646 1358.45,203.493 1359.25,202.42 C1360.05,201.347 1360.81,200.373 1361.53,199.498 C1362.25,198.623 1363.33,197.727 1364.77,196.81 C1366.21,195.894 1367.41,195.138 1368.37,194.545 C1369.33,193.951 1370.79,193.235 1372.75,192.396 C1374.71,191.558 1376.21,190.92 1377.25,190.482 C1378.29,190.045 1379.93,189.388 1382.17,188.513 C1384.41,187.638 1386.05,187.003 1387.09,186.607 L1387.09,179.326 C1387.09,172.722 1384.05,169.42 1377.97,169.42 C1375.57,169.42 1373.53,169.998 1371.85,171.154 C1370.17,172.31 1369.33,173.691 1369.33,175.295 C1369.33,175.93 1369.43,176.808 1369.63,177.928 C1369.83,179.047 1369.94,179.769 1369.94,180.092 C1369.94,181.456 1369.39,182.638 1368.31,183.638 C1367.23,184.638 1365.97,185.138 1364.53,185.138 C1363.17,185.138 1361.98,184.618 1360.94,183.576 C1359.89,182.534 1359.37,181.331 1359.37,179.967 C1359.37,176.217 1361.31,173.04 1365.19,170.435 C1369.07,167.831 1373.85,166.529 1379.53,166.529 C1386.09,166.529 1390.61,168.102 1393.09,171.248 C1395.57,174.394 1396.81,179.196 1396.81,185.654 L1396.81,208.935 C1396.81,211.56 1397.07,213.37 1397.59,214.365 C1398.11,215.36 1399.05,215.857 1400.4,215.857 C1402.09,215.857 1403.85,215.102 1405.69,213.592 L1405.69,216.732 C1403.61,219.128 1401.79,220.761 1400.23,221.631 C1398.67,222.5 1396.89,222.935 1394.89,222.935 C1392.41,222.935 1390.59,222.237 1389.43,220.842 C1388.27,219.446 1387.53,217.144 1387.22,213.935 C1380.33,219.935 1374.49,222.935 1369.69,222.935 C1366.01,222.935 1362.99,221.714 1360.63,219.271 C1358.27,216.829 1357.09,213.701 1357.09,209.888 M1387.09,206.779 L1387.09,189.467 C1379.89,192.092 1374.85,194.638 1371.97,197.107 C1369.09,199.576 1367.65,202.56 1367.65,206.06 C1367.65,209.321 1368.45,211.748 1370.05,213.342 C1371.65,214.935 1373.37,215.732 1375.22,215.732 C1377.94,215.732 1380.85,214.816 1383.97,212.982 C1385.25,212.274 1386.09,211.521 1386.49,210.724 C1386.89,209.928 1387.09,208.612 1387.09,206.779 M1442.22,178.295 C1441.01,178.295 1439.52,177.594 1437.76,176.193 C1436,174.792 1434.85,174.092 1434.29,174.092 C1432.69,174.092 1430.89,175.253 1428.89,177.576 C1426.89,179.899 1425.89,182.019 1425.89,183.935 L1425.89,210.935 C1425.89,214.373 1426.57,216.691 1427.93,217.888 C1429.29,219.086 1432.01,219.769 1436.09,219.935 L1436.09,221.732 L1407.29,221.732 L1407.29,219.935 C1411.13,219.217 1413.51,218.417 1414.43,217.537 C1415.35,216.657 1415.81,214.696 1415.81,211.654 L1415.81,181.654 C1415.81,179.019 1415.51,177.159 1414.91,176.076 C1414.31,174.993 1413.25,174.451 1411.73,174.451 C1410.45,174.451 1409.05,174.612 1407.53,174.935 L1407.53,173.013 C1413.94,170.93 1419.86,168.769 1425.29,166.529 L1425.89,166.779 L1425.89,177.81 C1428.85,173.571 1431.37,170.631 1433.45,168.99 C1435.53,167.349 1437.82,166.529 1440.29,166.529 C1442.37,166.529 1443.98,167.089 1445.15,168.209 C1446.31,169.329 1446.89,170.888 1446.89,172.888 C1446.89,174.576 1446.47,175.899 1445.63,176.857 C1444.79,177.816 1443.65,178.295 1442.22,178.295 M1479.25,168.935 C1479.33,168.935 1479.97,168.534 1481.17,167.732 L1482.5,167.732 L1482.97,184.06 L1481.17,184.06 C1479.81,178.696 1478.12,174.894 1476.12,172.654 C1474.12,170.415 1471.4,169.295 1467.97,169.295 C1465.25,169.295 1463.03,170.055 1461.31,171.576 C1459.59,173.097 1458.73,175.055 1458.73,177.451 C1458.73,180.888 1460.45,183.607 1463.89,185.607 L1476.86,193.295 C1480.45,195.451 1483.03,197.631 1484.59,199.834 C1486.15,202.037 1486.94,204.618 1486.94,207.576 C1486.94,211.732 1485.27,215.331 1481.95,218.373 C1478.63,221.415 1474.65,222.935 1470.01,222.935 C1468.01,222.935 1465.33,222.576 1461.97,221.857 C1458.62,221.138 1456.53,220.779 1455.73,220.779 C1454.53,220.779 1453.61,221.258 1452.97,222.217 L1451.4,222.217 L1451.4,203.498 L1453.33,203.498 C1454.61,209.092 1456.13,213.05 1457.89,215.373 C1460.45,218.654 1464.01,220.295 1468.58,220.295 C1471.61,220.295 1474.02,219.513 1475.83,217.951 C1477.63,216.388 1478.53,214.29 1478.53,211.654 C1478.53,208.05 1476.45,205.05 1472.29,202.654 L1465.33,198.685 C1460.21,195.81 1456.59,193.053 1454.47,190.412 C1452.35,187.771 1451.29,184.774 1451.29,181.42 C1451.29,177.097 1452.83,173.555 1455.91,170.795 C1458.99,168.034 1462.89,166.654 1467.61,166.654 C1470.25,166.654 1472.73,167.034 1475.05,167.795 C1477.37,168.555 1478.77,168.935 1479.25,168.935 M1551.33,147.576 L1544.86,147.576 C1538.13,147.576 1533.63,148.482 1531.35,150.295 C1529.07,152.107 1527.22,156.243 1525.78,162.701 L1522.89,162.701 L1523.61,142.295 L1591.29,142.295 L1592.01,162.701 L1589.12,162.701 C1587.77,156.159 1585.95,152.003 1583.67,150.232 C1581.39,148.461 1576.85,147.576 1570.04,147.576 L1563.58,147.576 L1563.58,208.685 C1563.58,213.071 1564.26,215.902 1565.62,217.178 C1566.97,218.454 1570.13,219.211 1575.09,219.451 L1575.09,221.732 L1540.04,221.732 L1540.04,219.451 C1545.01,219.128 1548.14,218.31 1549.41,216.998 C1550.69,215.685 1551.33,212.477 1551.33,207.373 L1551.33,147.576 M1623.61,166.529 C1631.28,166.529 1637.6,169.092 1642.57,174.217 C1647.53,179.342 1650.01,185.826 1650.01,193.67 C1650.01,201.982 1647.45,208.938 1642.33,214.537 C1637.21,220.136 1630.89,222.935 1623.37,222.935 C1615.85,222.935 1609.59,220.235 1604.59,214.834 C1599.59,209.433 1597.09,202.696 1597.09,194.623 C1597.09,186.383 1599.55,179.641 1604.47,174.396 C1609.4,169.152 1615.77,166.529 1623.61,166.529 M1607.89,188.795 C1607.89,197.274 1609.45,204.482 1612.57,210.42 C1615.69,216.357 1619.77,219.326 1624.81,219.326 C1629.29,219.326 1632.81,217.425 1635.37,213.623 C1637.94,209.821 1639.22,204.555 1639.22,197.826 C1639.22,189.659 1637.62,183.003 1634.41,177.857 C1631.21,172.711 1627.09,170.138 1622.04,170.138 C1617.81,170.138 1614.39,171.842 1611.79,175.248 C1609.19,178.654 1607.89,183.17 1607.89,188.795 M1689.22,178.295 C1688.01,178.295 1686.52,177.594 1684.76,176.193 C1683,174.792 1681.85,174.092 1681.29,174.092 C1679.69,174.092 1677.89,175.253 1675.89,177.576 C1673.89,179.899 1672.89,182.019 1672.89,183.935 L1672.89,210.935 C1672.89,214.373 1673.57,216.691 1674.93,217.888 C1676.29,219.086 1679.01,219.769 1683.09,219.935 L1683.09,221.732 L1654.29,221.732 L1654.29,219.935 C1658.13,219.217 1660.51,218.417 1661.43,217.537 C1662.35,216.657 1662.81,214.696 1662.81,211.654 L1662.81,181.654 C1662.81,179.019 1662.51,177.159 1661.91,176.076 C1661.31,174.993 1660.25,174.451 1658.73,174.451 C1657.45,174.451 1656.05,174.612 1654.53,174.935 L1654.53,173.013 C1660.94,170.93 1666.86,168.769 1672.29,166.529 L1672.89,166.779 L1672.89,177.81 C1675.85,173.571 1678.37,170.631 1680.45,168.99 C1682.53,167.349 1684.82,166.529 1687.29,166.529 C1689.37,166.529 1690.98,167.089 1692.15,168.209 C1693.31,169.329 1693.89,170.888 1693.89,172.888 C1693.89,174.576 1693.47,175.899 1692.63,176.857 C1691.79,177.816 1690.65,178.295 1689.22,178.295 M1725.17,167.732 L1725.17,171.342 L1713.04,171.342 L1713.04,205.654 C1713.04,209.415 1713.53,212.154 1714.49,213.873 C1715.45,215.592 1717.06,216.451 1719.29,216.451 C1721.77,216.451 1724.17,215.05 1726.5,212.248 L1728.04,213.576 C1724.21,219.816 1719.41,222.935 1713.65,222.935 C1706.53,222.935 1702.97,217.831 1702.97,207.623 L1702.97,171.342 L1696.61,171.342 C1696.29,171.112 1696.14,170.847 1696.14,170.545 C1696.14,170.17 1696.26,169.87 1696.5,169.646 C1696.74,169.422 1697.2,169.105 1697.87,168.693 C1698.55,168.282 1699.37,167.691 1700.33,166.92 C1701.3,166.149 1702.62,164.75 1704.29,162.724 C1705.97,160.698 1707.81,158.263 1709.81,155.42 C1711.09,153.555 1711.89,152.42 1712.22,152.013 C1712.77,152.013 1713.04,152.54 1713.04,153.592 L1713.04,167.732 L1725.17,167.732 "/>
<path class="MeasureNumber" d="M123.467,1922.66 C123.602,1922.04 123.737,1921.51 123.873,1921.06 C124.008,1920.61 124.295,1919.96 124.732,1919.09 C125.17,1918.23 125.662,1917.51 126.209,1916.94 C126.756,1916.38 127.516,1915.87 128.49,1915.41 C129.464,1914.96 130.566,1914.73 131.795,1914.73 C133.868,1914.73 135.618,1915.41 137.045,1916.76 C138.472,1918.12 139.185,1919.79 139.185,1921.78 C139.185,1924.79 137.482,1928.08 134.076,1931.66 L127.357,1938.69 L136.904,1938.69 C137.81,1938.69 138.485,1938.54 138.928,1938.23 C139.37,1937.93 139.967,1937.21 140.717,1936.06 L141.232,1936.25 L139.029,1941.73 L123.435,1941.73 L123.435,1941.25 L130.545,1933.7 C134.013,1930.01 135.748,1926.55 135.748,1923.3 C135.748,1921.62 135.227,1920.26 134.185,1919.22 C133.144,1918.18 131.784,1917.66 130.107,1917.66 C128.722,1917.66 127.61,1918.04 126.771,1918.8 C125.933,1919.56 125.112,1920.91 124.31,1922.86 L123.467,1922.66 M156.513,1933.95 C156.513,1932.54 156.198,1931.28 155.568,1930.19 C154.938,1929.11 154.178,1928.26 153.287,1927.66 C152.396,1927.06 151.399,1926.57 150.295,1926.19 C149.191,1925.8 148.23,1925.55 147.412,1925.43 C146.594,1925.31 145.883,1925.25 145.279,1925.25 C144.956,1925.25 144.795,1925.14 144.795,1924.92 C144.795,1924.85 144.805,1924.78 144.826,1924.72 L149.185,1915.26 L157.545,1915.26 C157.972,1915.26 158.313,1915.2 158.568,1915.06 C158.823,1914.93 159.097,1914.64 159.388,1914.22 L159.748,1914.5 L158.232,1918.06 C158.128,1918.3 157.821,1918.42 157.31,1918.42 L149.467,1918.42 L147.795,1921.81 C151.68,1922.5 154.571,1923.62 156.467,1925.18 C158.362,1926.74 159.31,1929.02 159.31,1932.03 C159.31,1933.6 159.063,1935 158.568,1936.23 C158.073,1937.46 157.446,1938.45 156.685,1939.2 C155.925,1939.95 155.045,1940.57 154.045,1941.05 C153.045,1941.53 152.086,1941.85 151.17,1942.03 C150.253,1942.21 149.326,1942.3 148.388,1942.3 C146.899,1942.3 145.714,1942.07 144.834,1941.63 C143.954,1941.19 143.513,1940.58 143.513,1939.81 C143.513,1938.82 144.086,1938.33 145.232,1938.33 C145.982,1938.33 146.948,1938.74 148.131,1939.55 C149.313,1940.37 150.253,1940.78 150.951,1940.78 C152.524,1940.78 153.844,1940.12 154.912,1938.8 C155.98,1937.49 156.513,1935.87 156.513,1933.95"/>
<path class="MeasureNumber" d="M127.545,1443.01 C127.066,1443.01 126.107,1443.31 124.67,1443.89 L124.67,1443.34 L131.873,1439.7 L132.185,1439.78 L132.185,1463.78 C132.185,1464.74 132.425,1465.36 132.904,1465.65 C133.383,1465.95 134.409,1466.11 135.982,1466.14 L135.982,1466.73 L124.951,1466.73 L124.951,1466.14 C126.441,1466.08 127.446,1465.85 127.967,1465.47 C128.487,1465.08 128.748,1464.26 128.748,1463.01 L128.748,1444.89 C128.748,1443.64 128.347,1443.01 127.545,1443.01 M141.467,1447.65 C141.602,1447.04 141.737,1446.51 141.873,1446.06 C142.008,1445.61 142.295,1444.96 142.732,1444.09 C143.17,1443.23 143.662,1442.51 144.209,1441.94 C144.756,1441.38 145.516,1440.87 146.49,1440.41 C147.464,1439.96 148.566,1439.73 149.795,1439.73 C151.868,1439.73 153.618,1440.41 155.045,1441.76 C156.472,1443.12 157.185,1444.79 157.185,1446.78 C157.185,1449.79 155.482,1453.08 152.076,1456.65 L145.357,1463.69 L154.904,1463.69 C155.81,1463.69 156.485,1463.54 156.928,1463.23 C157.37,1462.93 157.967,1462.21 158.717,1461.06 L159.232,1461.25 L157.029,1466.73 L141.435,1466.73 L141.435,1466.25 L148.545,1458.7 C152.013,1455.01 153.748,1451.55 153.748,1448.3 C153.748,1446.62 153.227,1445.26 152.185,1444.22 C151.144,1443.18 149.784,1442.65 148.107,1442.65 C146.722,1442.65 145.61,1443.04 144.771,1443.8 C143.933,1444.56 143.112,1445.91 142.31,1447.86 L141.467,1447.65 "/>
<path class="MeasureNumber" d="M150.685,965.264 L150.685,965.889 L142.217,992.045 L139.607,992.045 L147.529,968.17 L138.857,968.17 C137.763,968.17 136.93,968.371 136.357,968.772 C135.784,969.173 135.071,970.056 134.217,971.42 L133.529,971.108 L135.888,965.264 L150.685,965.264 "/>
<polyline class="BarLine" fill="none" stroke="#000000" stroke-width="4.00" stroke-linejoin="bevel" points="2812.97,1990.73 2812.97,2092.73"/>
<polyline class="BarLine" fill="none" stroke="#000000" stroke-width="12.50" stroke-linejoin="bevel" points="2829.22,1990.73 2829.22,2092.73"/>
<polyline class="BarLine" fill="none" stroke="#000000" stroke-width="4.00" stroke-linejoin="bevel" points="2507.12,1990.73 2507.12,2092.73"/>
<polyline class="BarLine" fill="none" stroke="#000000" stroke-width="4.00" stroke-linejoin="bevel" points="2180.77,1990.73 2180.77,2092.73"/>
<polyline class="BarLine" fill="none" stroke="#000000" stroke-width="4.00" stroke-linejoin="bevel" points="1854.42,1990.73 1854.42,2092.73"/>
<polyline class="BarLine" fill="none" stroke="#000000" stroke-width="4.00" stroke-linejoin="bevel" points="1528.07,1990.73 1528.07,2092.73"/>
<polyline class="BarLine" fill="none" stroke="#000000" stroke-width="4.00" stroke-linejoin="bevel" points="1201.72,1990.73 1201.72,2092.73"/>
<polyline class="BarLine" fill="none" stroke="#000000" stroke-width="4.00" stroke-linejoin="bevel" points="875.369,1990.73 875.369,2092.73"/>
<polyline class="BarLine" fill="none" stroke="#000000" stroke-width="4.00" stroke-linejoin="bevel" points="549.02,1990.73 549.02,2092.73"/>
<polyline class="BarLine" fill="none" stroke="#000000" stroke-width="4.00" stroke-linejoin="bevel" points="2833.47,1515.73 2833.47,1617.73"/>
<polyline class="BarLine" fill="none" stroke="#000000" stroke-width="4.00" stroke-linejoin="bevel" points="2691.32,1515.73 2691.32,1617.73"/>
<polyline class="BarLine" fill="none" stroke="#000000" stroke-width="4.00" stroke-linejoin="bevel" points="2549.18,1515.73 2549.18,1617.73"/>
<polyline class="BarLine" fill="none" stroke="#000000" stroke-width="4.00" stroke-linejoin="bevel" points="2407.03,1515.73 2407.03,1617.73"/>
<polyline class="BarLine" fill="none" stroke="#000000" stroke-width="4.00" stroke-linejoin="bevel" points="2264.89,1515.73 2264.89,1617.73"/>
<polyline class="BarLine" fill="none" stroke="#000000" stroke-width="4.00" stroke-linejoin="bevel" points="2122.75,1515.73 2122.75,1617.73"/>
<polyline class="BarLine" fill="none" stroke="#000000" stroke-width="4.00" stroke-linejoin="bevel" points="1980.6,1515.73 1980.6,1617.73"/>
<polyline class="BarLine" fill="none" stroke="#000000" stroke-width="4.00" stroke-linejoin="bevel" points="1838.46,1515.73 1838.46,1617.73"/>
<polyline class="BarLine" fill="none" stroke="#000000" stroke-width="4.00" stroke-linejoin="bevel" points="1589.32,1515.73 1589.32,1617.73"/>
<polyline class="BarLine" fill="none" stroke="#000000" stroke-width="4.00" stroke-linejoin="bevel" points="1340.19,1515.73 1340.19,1617.73"/>
<polyline class="BarLine" fill="none" stroke="#000000" stroke-width="4.00" stroke-linejoin="bevel" points="1091.06,1515.73 1091.06,1617.73"/>
<polyline class="BarLine" fill="none" stroke="#000000" stroke-width="4.00" stroke-linejoin="bevel" points="795.681,1515.73 795.681,1617.73"/>
<polyline class="BarLine" fill="none" stroke="#000000" stroke-width="4.00" stroke-linejoin="bevel" points="500.302,1515.73 500.302,1617.73"/>
<polyline class="BarLine" fill="none" stroke="#000000" stroke-width="4.00" stroke-linejoin="bevel" points="2833.47,1040.73 2833.47,1142.73"/>
<polyline class="BarLine" fill="none" stroke="#000000" stroke-width="4.00" stroke-linejoin="bevel" points="2289.26,1040.73 2289.26,1142.73"/>
<polyline class="BarLine" fill="none" stroke="#000000" stroke-width="4.00" stroke-linejoin="bevel" points="1745.05,1040.73 1745.05,1142.73"/>
<polyline class="BarLine" fill="none" stroke="#000000" stroke-width="4.00" stroke-linejoin="bevel" points="1247.09,1040.73 1247.09,1142.73"/>
<polyline class="BarLine" fill="none" stroke="#000000" stroke-width="4.00" stroke-linejoin="bevel" points="749.131,1040.73 749.131,1142.73"/>
<polyline class="BarLine" fill="none" stroke="#000000" stroke-width="4.00" stroke-linejoin="bevel" points="2833.47,565.733 2833.47,667.733"/>
<polyline class="BarLine" fill="none" stroke="#000000" stroke-width="4.00" stroke-linejoin="bevel" points="2453.09,565.733 2453.09,667.733"/>
<polyline class="BarLine" fill="none" stroke="#000000" stroke-width="4.00" stroke-linejoin="bevel" points="1991.4,565.733 1991.4,667.733"/>
<polyline class="BarLine" fill="none" stroke="#000000" stroke-width="4.00" stroke-linejoin="bevel" points="1569.53,565.733 1569.53,667.733"/>
<polyline class="BarLine" fill="none" stroke="#000000" stroke-width="4.00" stroke-linejoin="bevel" points="1147.65,565.733 1147.65,667.733"/>
<polyline class="BarLine" fill="none" stroke="#000000" stroke-width="4.00" stroke-linejoin="bevel" points="725.779,565.733 725.779,667.733"/>
<path class="Accidental" d="M893.923,1585.39 C893.923,1586.63 893.306,1587.25 892.072,1587.25 C890.837,1587.25 890.22,1586.63 890.22,1585.39 L890.22,1570.94 L881.923,1574.06 L881.923,1589.87 C881.923,1591.11 881.303,1591.73 880.064,1591.73 C878.824,1591.73 878.204,1591.11 878.204,1589.87 L878.204,1575.33 L875.079,1576.5 C875.017,1576.56 874.756,1576.59 874.298,1576.59 C873.777,1576.59 873.322,1576.4 872.931,1576.01 C872.54,1575.62 872.345,1575.16 872.345,1574.64 L872.345,1568.59 C872.345,1567.61 872.767,1566.99 873.611,1566.73 L878.204,1565.17 L878.204,1549.16 L875.079,1550.23 C875.017,1550.3 874.756,1550.33 874.298,1550.33 C873.777,1550.33 873.322,1550.13 872.931,1549.74 C872.54,1549.35 872.345,1548.89 872.345,1548.37 L872.345,1542.31 C872.345,1541.41 872.767,1540.82 873.611,1540.56 L878.204,1538.8 L878.204,1523.08 C878.204,1521.84 878.824,1521.22 880.064,1521.22 C881.303,1521.22 881.923,1521.84 881.923,1523.08 L881.923,1537.53 L890.22,1534.41 L890.22,1518.59 C890.22,1517.35 890.837,1516.73 892.072,1516.73 C893.306,1516.73 893.923,1517.35 893.923,1518.59 L893.923,1533.14 L897.158,1531.97 C897.22,1531.91 897.444,1531.87 897.829,1531.87 C898.288,1531.87 898.777,1532.07 899.298,1532.45 C899.694,1532.85 899.892,1533.31 899.892,1533.83 L899.892,1539.87 C899.892,1540.79 899.434,1541.41 898.517,1541.73 L893.923,1543.3 L893.923,1559.31 L897.158,1558.23 C897.22,1558.17 897.444,1558.14 897.829,1558.14 C898.288,1558.14 898.777,1558.34 899.298,1558.73 C899.694,1559.12 899.892,1559.57 899.892,1560.09 L899.892,1566.16 C899.892,1567 899.434,1567.58 898.517,1567.91 L893.923,1569.67 L893.923,1585.39 M890.22,1544.76 L881.923,1547.69 L881.923,1563.7 L890.22,1560.78 L890.22,1544.76 "/>
<path class="Accidental" d="M659.769,1547.89 C659.769,1549.13 659.152,1549.75 657.918,1549.75 C656.683,1549.75 656.066,1549.13 656.066,1547.89 L656.066,1533.44 L647.769,1536.56 L647.769,1552.37 C647.769,1553.61 647.15,1554.23 645.91,1554.23 C644.67,1554.23 644.051,1553.61 644.051,1552.37 L644.051,1537.83 L640.926,1539 C640.863,1539.06 640.603,1539.09 640.144,1539.09 C639.624,1539.09 639.168,1538.9 638.777,1538.51 C638.387,1538.12 638.191,1537.66 638.191,1537.14 L638.191,1531.09 C638.191,1530.11 638.613,1529.49 639.457,1529.23 L644.051,1527.67 L644.051,1511.65 L640.926,1512.73 C640.863,1512.8 640.603,1512.83 640.144,1512.83 C639.624,1512.83 639.168,1512.63 638.777,1512.24 C638.387,1511.85 638.191,1511.39 638.191,1510.87 L638.191,1504.81 C638.191,1503.9 638.613,1503.32 639.457,1503.06 L644.051,1501.3 L644.051,1485.58 C644.051,1484.34 644.67,1483.72 645.91,1483.72 C647.15,1483.72 647.769,1484.34 647.769,1485.58 L647.769,1500.03 L656.066,1496.9 L656.066,1481.09 C656.066,1479.85 656.683,1479.23 657.918,1479.23 C659.152,1479.23 659.769,1479.85 659.769,1481.09 L659.769,1495.64 L663.004,1494.47 C663.066,1494.4 663.29,1494.37 663.676,1494.37 C664.134,1494.37 664.624,1494.57 665.144,1494.95 C665.54,1495.35 665.738,1495.81 665.738,1496.33 L665.738,1502.37 C665.738,1503.29 665.28,1503.91 664.363,1504.23 L659.769,1505.8 L659.769,1521.81 L663.004,1520.73 C663.066,1520.67 663.29,1520.64 663.676,1520.64 C664.134,1520.64 664.624,1520.84 665.144,1521.23 C665.54,1521.62 665.738,1522.07 665.738,1522.59 L665.738,1528.65 C665.738,1529.5 665.28,1530.08 664.363,1530.4 L659.769,1532.17 L659.769,1547.89 M656.066,1507.26 L647.769,1510.19 L647.769,1526.2 L656.066,1523.28 L656.066,1507.26 "/>
<path class="Accidental" d="M2564.9,1160.39 C2564.9,1161.63 2564.29,1162.25 2563.05,1162.25 C2561.82,1162.25 2561.2,1161.63 2561.2,1160.39 L2561.2,1145.94 L2552.9,1149.06 L2552.9,1164.87 C2552.9,1166.11 2552.28,1166.73 2551.04,1166.73 C2549.8,1166.73 2549.18,1166.11 2549.18,1164.87 L2549.18,1150.33 L2546.06,1151.5 C2546,1151.56 2545.74,1151.59 2545.28,1151.59 C2544.76,1151.59 2544.3,1151.4 2543.91,1151.01 C2543.52,1150.62 2543.32,1150.16 2543.32,1149.64 L2543.32,1143.59 C2543.32,1142.61 2543.75,1141.99 2544.59,1141.73 L2549.18,1140.17 L2549.18,1124.15 L2546.06,1125.23 C2546,1125.3 2545.74,1125.33 2545.28,1125.33 C2544.76,1125.33 2544.3,1125.13 2543.91,1124.74 C2543.52,1124.35 2543.32,1123.89 2543.32,1123.37 L2543.32,1117.31 C2543.32,1116.4 2543.75,1115.82 2544.59,1115.56 L2549.18,1113.8 L2549.18,1098.08 C2549.18,1096.84 2549.8,1096.22 2551.04,1096.22 C2552.28,1096.22 2552.9,1096.84 2552.9,1098.08 L2552.9,1112.53 L2561.2,1109.4 L2561.2,1093.59 C2561.2,1092.35 2561.82,1091.73 2563.05,1091.73 C2564.29,1091.73 2564.9,1092.35 2564.9,1093.59 L2564.9,1108.14 L2568.14,1106.97 C2568.2,1106.9 2568.42,1106.87 2568.81,1106.87 C2569.27,1106.87 2569.76,1107.07 2570.28,1107.45 C2570.67,1107.85 2570.87,1108.31 2570.87,1108.83 L2570.87,1114.87 C2570.87,1115.79 2570.41,1116.41 2569.5,1116.73 L2564.9,1118.3 L2564.9,1134.31 L2568.14,1133.23 C2568.2,1133.17 2568.42,1133.14 2568.81,1133.14 C2569.27,1133.14 2569.76,1133.34 2570.28,1133.73 C2570.67,1134.12 2570.87,1134.57 2570.87,1135.09 L2570.87,1141.15 C2570.87,1142 2570.41,1142.58 2569.5,1142.9 L2564.9,1144.67 L2564.9,1160.39 M2561.2,1119.76 L2552.9,1122.69 L2552.9,1138.7 L2561.2,1135.78 L2561.2,1119.76 "/>
<path class="Accidental" d="M2020.7,1160.39 C2020.7,1161.63 2020.08,1162.25 2018.84,1162.25 C2017.61,1162.25 2016.99,1161.63 2016.99,1160.39 L2016.99,1145.94 L2008.7,1149.06 L2008.7,1164.87 C2008.7,1166.11 2008.08,1166.73 2006.84,1166.73 C2005.6,1166.73 2004.98,1166.11 2004.98,1164.87 L2004.98,1150.33 L2001.85,1151.5 C2001.79,1151.56 2001.53,1151.59 2001.07,1151.59 C2000.55,1151.59 2000.09,1151.4 1999.7,1151.01 C1999.31,1150.62 1999.12,1150.16 1999.12,1149.64 L1999.12,1143.59 C1999.12,1142.61 1999.54,1141.99 2000.38,1141.73 L2004.98,1140.17 L2004.98,1124.15 L2001.85,1125.23 C2001.79,1125.3 2001.53,1125.33 2001.07,1125.33 C2000.55,1125.33 2000.09,1125.13 1999.7,1124.74 C1999.31,1124.35 1999.12,1123.89 1999.12,1123.37 L1999.12,1117.31 C1999.12,1116.4 1999.54,1115.82 2000.38,1115.56 L2004.98,1113.8 L2004.98,1098.08 C2004.98,1096.84 2005.6,1096.22 2006.84,1096.22 C2008.08,1096.22 2008.7,1096.84 2008.7,1098.08 L2008.7,1112.53 L2016.99,1109.4 L2016.99,1093.59 C2016.99,1092.35 2017.61,1091.73 2018.84,1091.73 C2020.08,1091.73 2020.7,1092.35 2020.7,1093.59 L2020.7,1108.14 L2023.93,1106.97 C2023.99,1106.9 2024.22,1106.87 2024.6,1106.87 C2025.06,1106.87 2025.55,1107.07 2026.07,1107.45 C2026.47,1107.85 2026.66,1108.31 2026.66,1108.83 L2026.66,1114.87 C2026.66,1115.79 2026.21,1116.41 2025.29,1116.73 L2020.7,1118.3 L2020.7,1134.31 L2023.93,1133.23 C2023.99,1133.17 2024.22,1133.14 2024.6,1133.14 C2025.06,1133.14 2025.55,1133.34 2026.07,1133.73 C2026.47,1134.12 2026.66,1134.57 2026.66,1135.09 L2026.66,1141.15 C2026.66,1142 2026.21,1142.58 2025.29,1142.9 L2020.7,1144.67 L2020.7,1160.39 M2016.99,1119.76 L2008.7,1122.69 L2008.7,1138.7 L2016.99,1135.78 L2016.99,1119.76 "/>
<path class="Accidental" d="M2214.17,612.623 L2214.17,620.342 C2214.17,623.082 2214.3,625.264 2214.56,626.889 C2216.7,625.066 2218.24,623.701 2219.15,622.795 C2220.19,621.753 2221.24,620.318 2222.28,618.49 C2223.32,616.662 2223.84,614.837 2223.84,613.014 C2223.84,611.191 2223.45,609.628 2222.67,608.326 C2221.89,607.024 2220.84,606.373 2219.54,606.373 C2217.98,606.373 2216.68,606.962 2215.64,608.139 C2214.66,609.441 2214.17,610.936 2214.17,612.623 M2210.06,630.498 L2208.79,571.029 C2209.71,570.509 2210.62,570.248 2211.53,570.248 C2212.45,570.248 2213.35,570.509 2214.26,571.029 L2213.48,605.498 C2216.15,603.217 2219.21,602.076 2222.67,602.076 C2225.2,602.076 2227.31,603.118 2229,605.201 C2230.7,607.285 2231.54,609.665 2231.54,612.342 C2231.54,614.029 2230.99,615.821 2229.89,617.717 C2228.84,619.467 2227.74,620.832 2226.57,621.811 C2225.92,622.332 2224.26,623.634 2221.59,625.717 C2220.81,626.3 2219.88,626.983 2218.81,627.764 C2217.74,628.545 2217.07,629.035 2216.81,629.233 C2216.35,629.493 2215.92,630.014 2215.53,630.795 C2215.08,631.451 2214.56,632.003 2213.96,632.451 C2213.52,632.847 2212.97,633.045 2212.32,633.045 C2211.66,633.045 2211.14,632.816 2210.75,632.358 C2210.29,631.899 2210.06,631.279 2210.06,630.498"/>
<polyline class="Stem" fill="none" stroke="#000000" stroke-width="3.25" stroke-linecap="round" stroke-linejoin="bevel" points="1809.83,1587.04 1809.83,1507.36"/>
<polyline class="Stem" fill="none" stroke="#000000" stroke-width="3.25" stroke-linecap="round" stroke-linejoin="bevel" points="1757.43,1574.54 1757.43,1497.98"/>
<polyline class="Stem" fill="none" stroke="#000000" stroke-width="3.25" stroke-linecap="round" stroke-linejoin="bevel" points="1675.36,1558.93 1675.36,1635.48"/>
<polyline class="Stem" fill="none" stroke="#000000" stroke-width="3.25" stroke-linecap="round" stroke-linejoin="bevel" points="1622.95,1546.43 1622.95,1626.11"/>
<polyline class="Stem" fill="none" stroke="#000000" stroke-width="3.25" stroke-linecap="round" stroke-linejoin="bevel" points="1531.03,1571.43 1531.03,1644.86"/>
<polyline class="Stem" fill="none" stroke="#000000" stroke-width="3.25" stroke-linecap="round" stroke-linejoin="bevel" points="1508.29,1574.54 1508.29,1497.98"/>
<polyline class="Stem" fill="none" stroke="#000000" stroke-width="3.25" stroke-linecap="round" stroke-linejoin="bevel" points="1426.22,1571.43 1426.22,1644.86"/>
<polyline class="Stem" fill="none" stroke="#000000" stroke-width="3.25" stroke-linecap="round" stroke-linejoin="bevel" points="1403.48,1574.54 1403.48,1497.98"/>
<polyline class="Stem" fill="none" stroke="#000000" stroke-width="3.25" stroke-linecap="round" stroke-linejoin="bevel" points="1311.57,1587.04 1311.57,1507.36"/>
<polyline class="Stem" fill="none" stroke="#000000" stroke-width="3.25" stroke-linecap="round" stroke-linejoin="bevel" points="1259.16,1574.54 1259.16,1497.98"/>
<polyline class="Stem" fill="none" stroke="#000000" stroke-width="3.25" stroke-linecap="round" stroke-linejoin="bevel" points="1206.75,1574.54 1206.75,1497.98"/>
<polyline class="Stem" fill="none" stroke="#000000" stroke-width="3.25" stroke-linecap="round" stroke-linejoin="bevel" points="1154.35,1574.54 1154.35,1497.98"/>
<polyline class="Stem" fill="none" stroke="#000000" stroke-width="3.25" stroke-linecap="round" stroke-linejoin="bevel" points="1029.46,1533.93 1029.46,1616.73"/>
<polyline class="Stem" fill="none" stroke="#000000" stroke-width="3.25" stroke-linecap="round" stroke-linejoin="bevel" points="968.234,1546.43 968.234,1626.11"/>
<polyline class="Stem" fill="none" stroke="#000000" stroke-width="3.25" stroke-linecap="round" stroke-linejoin="bevel" points="907.009,1558.93 907.009,1635.48"/>
<polyline class="Stem" fill="none" stroke="#000000" stroke-width="3.25" stroke-linecap="round" stroke-linejoin="bevel" points="829.306,1546.43 829.306,1626.11"/>
<polyline class="Stem" fill="none" stroke="#000000" stroke-width="3.25" stroke-linecap="round" stroke-linejoin="bevel" points="734.081,1533.93 734.081,1616.73"/>
<polyline class="Stem" fill="none" stroke="#000000" stroke-width="3.25" stroke-linecap="round" stroke-linejoin="bevel" points="672.855,1521.43 672.855,1604.23"/>
<polyline class="Stem" fill="none" stroke="#000000" stroke-width="3.25" stroke-linecap="round" stroke-linejoin="bevel" points="595.152,1508.93 595.152,1591.73"/>
<polyline class="Stem" fill="none" stroke="#000000" stroke-width="3.25" stroke-linecap="round" stroke-linejoin="bevel" points="533.927,1508.93 533.927,1591.73"/>
<polyline class="Stem" fill="none" stroke="#000000" stroke-width="3.25" stroke-linecap="round" stroke-linejoin="bevel" points="442.013,1508.93 442.013,1591.73"/>
<polyline class="Stem" fill="none" stroke="#000000" stroke-width="3.25" stroke-linecap="round" stroke-linejoin="bevel" points="389.607,1546.43 389.607,1626.11"/>
<polyline class="Stem" fill="none" stroke="#000000" stroke-width="3.25" stroke-linecap="round" stroke-linejoin="bevel" points="337.201,1571.43 337.201,1644.86"/>
<polyline class="Stem" fill="none" stroke="#000000" stroke-width="3.25" stroke-linecap="round" stroke-linejoin="bevel" points="314.459,1587.04 314.459,1507.36"/>
<polyline class="Stem" fill="none" stroke="#000000" stroke-width="3.25" stroke-linecap="round" stroke-linejoin="bevel" points="2735.2,1112.04 2735.2,1032.36"/>
<polyline class="Stem" fill="none" stroke="#000000" stroke-width="3.25" stroke-linecap="round" stroke-linejoin="bevel" points="2607.65,1124.54 2607.65,1041.73"/>
<polyline class="Stem" fill="none" stroke="#000000" stroke-width="3.25" stroke-linecap="round" stroke-linejoin="bevel" points="2480.1,1137.04 2480.1,1054.23"/>
<polyline class="Stem" fill="none" stroke="#000000" stroke-width="3.25" stroke-linecap="round" stroke-linejoin="bevel" points="2352.55,1099.54 2352.55,1022.98"/>
<polyline class="Stem" fill="none" stroke="#000000" stroke-width="3.25" stroke-linecap="round" stroke-linejoin="bevel" points="2191,1112.04 2191,1032.36"/>
<polyline class="Stem" fill="none" stroke="#000000" stroke-width="3.25" stroke-linecap="round" stroke-linejoin="bevel" points="2063.45,1124.54 2063.45,1041.73"/>
<polyline class="Stem" fill="none" stroke="#000000" stroke-width="3.25" stroke-linecap="round" stroke-linejoin="bevel" points="1935.89,1112.04 1935.89,1032.36"/>
<polyline class="Stem" fill="none" stroke="#000000" stroke-width="3.25" stroke-linecap="round" stroke-linejoin="bevel" points="1808.34,1099.54 1808.34,1022.98"/>
<polyline class="Stem" fill="none" stroke="#000000" stroke-width="3.25" stroke-linecap="round" stroke-linejoin="bevel" points="1628.69,1096.43 1628.69,1169.86"/>
<polyline class="Stem" fill="none" stroke="#000000" stroke-width="3.25" stroke-linecap="round" stroke-linejoin="bevel" points="1542.36,1099.54 1542.36,1022.98"/>
<polyline class="Stem" fill="none" stroke="#000000" stroke-width="3.25" stroke-linecap="round" stroke-linejoin="bevel" points="1396.71,1096.43 1396.71,1169.86"/>
<polyline class="Stem" fill="none" stroke="#000000" stroke-width="3.25" stroke-linecap="round" stroke-linejoin="bevel" points="1310.38,1149.54 1310.38,1066.73"/>
<polyline class="Stem" fill="none" stroke="#000000" stroke-width="3.25" stroke-linecap="round" stroke-linejoin="bevel" points="1160.39,1149.54 1160.39,1066.73"/>
<polyline class="Stem" fill="none" stroke="#000000" stroke-width="3.25" stroke-linecap="round" stroke-linejoin="bevel" points="1044.4,1149.54 1044.4,1066.73"/>
<polyline class="Stem" fill="none" stroke="#000000" stroke-width="3.25" stroke-linecap="round" stroke-linejoin="bevel" points="898.746,1096.43 898.746,1169.86"/>
<polyline class="Stem" fill="none" stroke="#000000" stroke-width="3.25" stroke-linecap="round" stroke-linejoin="bevel" points="782.756,1083.93 782.756,1160.48"/>
<polyline class="Stem" fill="none" stroke="#000000" stroke-width="3.25" stroke-linecap="round" stroke-linejoin="bevel" points="662.43,1149.54 662.43,1066.73"/>
<polyline class="Stem" fill="none" stroke="#000000" stroke-width="3.25" stroke-linecap="round" stroke-linejoin="bevel" points="546.439,1149.54 546.439,1066.73"/>
<polyline class="Stem" fill="none" stroke="#000000" stroke-width="3.25" stroke-linecap="round" stroke-linejoin="bevel" points="430.449,1149.54 430.449,1066.73"/>
<polyline class="Stem" fill="none" stroke="#000000" stroke-width="3.25" stroke-linecap="round" stroke-linejoin="bevel" points="284.795,1083.93 284.795,1160.48"/>
<polyline class="Stem" fill="none" stroke="#000000" stroke-width="3.25" stroke-linecap="round" stroke-linejoin="bevel" points="2582.93,596.428 2582.93,676.108"/>
<polyline class="Stem" fill="none" stroke="#000000" stroke-width="3.25" stroke-linecap="round" stroke-linejoin="bevel" points="2486.71,583.928 2486.71,666.733"/>
<polyline class="Stem" fill="none" stroke="#000000" stroke-width="3.25" stroke-linecap="round" stroke-linejoin="bevel" points="2345.79,621.428 2345.79,694.858"/>
<polyline class="Stem" fill="none" stroke="#000000" stroke-width="3.25" stroke-linecap="round" stroke-linejoin="bevel" points="2238.87,621.428 2238.87,694.858"/>
<polyline class="Stem" fill="none" stroke="#000000" stroke-width="3.25" stroke-linecap="round" stroke-linejoin="bevel" points="2131.95,621.428 2131.95,694.858"/>
<polyline class="Stem" fill="none" stroke="#000000" stroke-width="3.25" stroke-linecap="round" stroke-linejoin="bevel" points="2025.03,621.428 2025.03,694.858"/>
<polyline class="Stem" fill="none" stroke="#000000" stroke-width="3.25" stroke-linecap="round" stroke-linejoin="bevel" points="1894.06,621.428 1894.06,694.858"/>
<polyline class="Stem" fill="none" stroke="#000000" stroke-width="3.25" stroke-linecap="round" stroke-linejoin="bevel" points="1797.09,621.428 1797.09,694.858"/>
<polyline class="Stem" fill="none" stroke="#000000" stroke-width="3.25" stroke-linecap="round" stroke-linejoin="bevel" points="1729.79,624.537 1729.79,547.983"/>
<polyline class="Stem" fill="none" stroke="#000000" stroke-width="3.25" stroke-linecap="round" stroke-linejoin="bevel" points="1632.82,637.037 1632.82,557.358"/>
<polyline class="Stem" fill="none" stroke="#000000" stroke-width="3.25" stroke-linecap="round" stroke-linejoin="bevel" points="1472.19,621.428 1472.19,694.858"/>
<polyline class="Stem" fill="none" stroke="#000000" stroke-width="3.25" stroke-linecap="round" stroke-linejoin="bevel" points="1375.22,621.428 1375.22,694.858"/>
<polyline class="Stem" fill="none" stroke="#000000" stroke-width="3.25" stroke-linecap="round" stroke-linejoin="bevel" points="1278.25,621.428 1278.25,694.858"/>
<polyline class="Stem" fill="none" stroke="#000000" stroke-width="3.25" stroke-linecap="round" stroke-linejoin="bevel" points="1181.28,621.428 1181.28,694.858"/>
<polyline class="Stem" fill="none" stroke="#000000" stroke-width="3.25" stroke-linecap="round" stroke-linejoin="bevel" points="1079.97,624.537 1079.97,547.983"/>
<polyline class="Stem" fill="none" stroke="#000000" stroke-width="3.25" stroke-linecap="round" stroke-linejoin="bevel" points="983.006,637.037 983.006,557.358"/>
<polyline class="Stem" fill="none" stroke="#000000" stroke-width="3.25" stroke-linecap="round" stroke-linejoin="bevel" points="856.373,621.428 856.373,694.858"/>
<polyline class="Stem" fill="none" stroke="#000000" stroke-width="3.25" stroke-linecap="round" stroke-linejoin="bevel" points="759.404,621.428 759.404,694.858"/>
<polyline class="Stem" fill="none" stroke="#000000" stroke-width="3.25" stroke-linecap="round" stroke-linejoin="bevel" points="628.436,621.428 628.436,694.858"/>
<polyline class="Stem" fill="none" stroke="#000000" stroke-width="3.25" stroke-linecap="round" stroke-linejoin="bevel" points="531.467,621.428 531.467,694.858"/>
<polyline class="Stem" fill="none" stroke="#000000" stroke-width="3.25" stroke-linecap="round" stroke-linejoin="bevel" points="464.162,624.537 464.162,547.983"/>
<polyline class="Stem" fill="none" stroke="#000000" stroke-width="3.25" stroke-linecap="round" stroke-linejoin="bevel" points="367.193,637.037 367.193,557.358"/>
<path class="Note" d="M1800.51,1577.97 C1803.64,1577.97 1806.28,1578.78 1808.43,1580.41 C1810.44,1582.17 1811.45,1584.38 1811.45,1587.05 C1811.45,1591.54 1809.14,1595.73 1804.53,1599.64 C1799.84,1603.55 1794.82,1605.5 1789.48,1605.5 C1786.35,1605.5 1783.72,1604.69 1781.57,1603.06 C1779.55,1601.3 1778.54,1599.09 1778.54,1596.42 C1778.54,1591.93 1780.89,1587.73 1785.57,1583.83 C1790.14,1579.92 1795.11,1577.97 1800.51,1577.97"/>
<path class="Note" d="M1748.1,1565.47 C1751.23,1565.47 1753.87,1566.28 1756.03,1567.91 C1758.04,1569.67 1759.04,1571.88 1759.04,1574.55 C1759.04,1579.04 1756.74,1583.23 1752.12,1587.14 C1747.43,1591.05 1742.42,1593 1737.07,1593 C1733.95,1593 1731.31,1592.19 1729.17,1590.56 C1727.15,1588.8 1726.14,1586.59 1726.14,1583.92 C1726.14,1579.43 1728.48,1575.23 1733.17,1571.33 C1737.73,1567.42 1742.71,1565.47 1748.1,1565.47"/>
<path class="Note" d="M1695.7,1540.47 C1698.82,1540.47 1701.46,1541.28 1703.62,1542.91 C1705.63,1544.67 1706.64,1546.88 1706.64,1549.55 C1706.64,1554.04 1704.33,1558.23 1699.71,1562.14 C1695.03,1566.05 1690.01,1568 1684.67,1568 C1681.54,1568 1678.91,1567.19 1676.76,1565.56 C1674.74,1563.8 1673.73,1561.59 1673.73,1558.92 C1673.73,1554.43 1676.07,1550.23 1680.76,1546.33 C1685.32,1542.42 1690.3,1540.47 1695.7,1540.47"/>
<path class="Note" d="M1643.29,1527.97 C1646.42,1527.97 1649.06,1528.78 1651.21,1530.41 C1653.23,1532.17 1654.23,1534.38 1654.23,1537.05 C1654.23,1541.54 1651.92,1545.73 1647.31,1549.64 C1642.62,1553.55 1637.61,1555.5 1632.26,1555.5 C1629.14,1555.5 1626.5,1554.69 1624.36,1553.06 C1622.33,1551.3 1621.32,1549.09 1621.32,1546.42 C1621.32,1541.93 1623.67,1537.73 1628.36,1533.83 C1632.92,1529.92 1637.9,1527.97 1643.29,1527.97"/>
<path class="Note" d="M1551.38,1552.97 C1554.5,1552.97 1557.14,1553.78 1559.3,1555.41 C1561.31,1557.17 1562.32,1559.38 1562.32,1562.05 C1562.32,1566.54 1560.01,1570.73 1555.39,1574.64 C1550.71,1578.55 1545.69,1580.5 1540.35,1580.5 C1537.22,1580.5 1534.59,1579.69 1532.44,1578.06 C1530.42,1576.3 1529.41,1574.09 1529.41,1571.42 C1529.41,1566.93 1531.75,1562.73 1536.44,1558.83 C1541,1554.92 1545.98,1552.97 1551.38,1552.97"/>
<path class="Note" d="M1498.97,1565.47 C1502.1,1565.47 1504.74,1566.28 1506.89,1567.91 C1508.91,1569.67 1509.91,1571.88 1509.91,1574.55 C1509.91,1579.04 1507.6,1583.23 1502.99,1587.14 C1498.3,1591.05 1493.29,1593 1487.94,1593 C1484.82,1593 1482.18,1592.19 1480.04,1590.56 C1478.01,1588.8 1477,1586.59 1477,1583.92 C1477,1579.43 1479.35,1575.23 1484.04,1571.33 C1488.6,1567.42 1493.58,1565.47 1498.97,1565.47"/>
<path class="Note" d="M1446.57,1552.97 C1449.69,1552.97 1452.33,1553.78 1454.49,1555.41 C1456.5,1557.17 1457.5,1559.38 1457.5,1562.05 C1457.5,1566.54 1455.2,1570.73 1450.58,1574.64 C1445.89,1578.55 1440.88,1580.5 1435.54,1580.5 C1432.41,1580.5 1429.78,1579.69 1427.63,1578.06 C1425.61,1576.3 1424.6,1574.09 1424.6,1571.42 C1424.6,1566.93 1426.94,1562.73 1431.63,1558.83 C1436.19,1554.92 1441.17,1552.97 1446.57,1552.97"/>
<path class="Note" d="M1394.16,1565.47 C1397.29,1565.47 1399.93,1566.28 1402.08,1567.91 C1404.09,1569.67 1405.1,1571.88 1405.1,1574.55 C1405.1,1579.04 1402.79,1583.23 1398.18,1587.14 C1393.49,1591.05 1388.47,1593 1383.13,1593 C1380,1593 1377.37,1592.19 1375.22,1590.56 C1373.2,1588.8 1372.19,1586.59 1372.19,1583.92 C1372.19,1579.43 1374.54,1575.23 1379.22,1571.33 C1383.79,1567.42 1388.76,1565.47 1394.16,1565.47"/>
<path class="Note" d="M1302.25,1577.97 C1305.37,1577.97 1308.01,1578.78 1310.17,1580.41 C1312.18,1582.17 1313.18,1584.38 1313.18,1587.05 C1313.18,1591.54 1310.88,1595.73 1306.26,1599.64 C1301.57,1603.55 1296.56,1605.5 1291.22,1605.5 C1288.09,1605.5 1285.45,1604.69 1283.31,1603.06 C1281.29,1601.3 1280.28,1599.09 1280.28,1596.42 C1280.28,1591.93 1282.62,1587.73 1287.31,1583.83 C1291.87,1579.92 1296.85,1577.97 1302.25,1577.97"/>
<path class="Note" d="M1249.84,1565.47 C1252.97,1565.47 1255.61,1566.28 1257.76,1567.91 C1259.77,1569.67 1260.78,1571.88 1260.78,1574.55 C1260.78,1579.04 1258.47,1583.23 1253.86,1587.14 C1249.17,1591.05 1244.15,1593 1238.81,1593 C1235.68,1593 1233.05,1592.19 1230.9,1590.56 C1228.88,1588.8 1227.87,1586.59 1227.87,1583.92 C1227.87,1579.43 1230.22,1575.23 1234.9,1571.33 C1239.47,1567.42 1244.44,1565.47 1249.84,1565.47"/>
<path class="Note" d="M1197.43,1565.47 C1200.56,1565.47 1203.2,1566.28 1205.36,1567.91 C1207.37,1569.67 1208.37,1571.88 1208.37,1574.55 C1208.37,1579.04 1206.06,1583.23 1201.45,1587.14 C1196.76,1591.05 1191.75,1593 1186.4,1593 C1183.28,1593 1180.64,1592.19 1178.5,1590.56 C1176.48,1588.8 1175.47,1586.59 1175.47,1583.92 C1175.47,1579.43 1177.81,1575.23 1182.5,1571.33 C1187.06,1567.42 1192.04,1565.47 1197.43,1565.47"/>
<path class="Note" d="M1145.03,1565.47 C1148.15,1565.47 1150.79,1566.28 1152.95,1567.91 C1154.96,1569.67 1155.97,1571.88 1155.97,1574.55 C1155.97,1579.04 1153.66,1583.23 1149.04,1587.14 C1144.36,1591.05 1139.34,1593 1134,1593 C1130.87,1593 1128.24,1592.19 1126.09,1590.56 C1124.07,1588.8 1123.06,1586.59 1123.06,1583.92 C1123.06,1579.43 1125.4,1575.23 1130.09,1571.33 C1134.65,1567.42 1139.63,1565.47 1145.03,1565.47"/>
<path class="Note" d="M1049.8,1515.47 C1052.93,1515.47 1055.57,1516.28 1057.73,1517.9 C1059.74,1519.67 1060.74,1521.88 1060.74,1524.55 C1060.74,1529.04 1058.43,1533.23 1053.82,1537.14 C1049.13,1541.05 1044.12,1543 1038.77,1543 C1035.65,1543 1033.01,1542.19 1030.87,1540.56 C1028.85,1538.8 1027.83,1536.59 1027.83,1533.92 C1027.83,1529.43 1030.18,1525.23 1034.87,1521.33 C1039.43,1517.42 1044.41,1515.47 1049.8,1515.47"/>
<path class="Note" d="M988.578,1527.97 C991.703,1527.97 994.344,1528.78 996.5,1530.41 C998.51,1532.17 999.516,1534.38 999.516,1537.05 C999.516,1541.54 997.208,1545.73 992.594,1549.64 C987.906,1553.55 982.891,1555.5 977.547,1555.5 C974.422,1555.5 971.786,1554.69 969.641,1553.06 C967.62,1551.3 966.609,1549.09 966.609,1546.42 C966.609,1541.93 968.953,1537.73 973.641,1533.83 C978.203,1529.92 983.182,1527.97 988.578,1527.97"/>
<path class="Note" d="M927.353,1540.47 C930.478,1540.47 933.118,1541.28 935.275,1542.91 C937.285,1544.67 938.29,1546.88 938.29,1549.55 C938.29,1554.04 935.983,1558.23 931.368,1562.14 C926.681,1566.05 921.665,1568 916.322,1568 C913.197,1568 910.561,1567.19 908.415,1565.56 C906.395,1563.8 905.384,1561.59 905.384,1558.92 C905.384,1554.43 907.728,1550.23 912.415,1546.33 C916.978,1542.42 921.957,1540.47 927.353,1540.47"/>
<path class="Note" d="M849.65,1527.97 C852.775,1527.97 855.415,1528.78 857.572,1530.41 C859.582,1532.17 860.587,1534.38 860.587,1537.05 C860.587,1541.54 858.28,1545.73 853.665,1549.64 C848.978,1553.55 843.962,1555.5 838.618,1555.5 C835.493,1555.5 832.858,1554.69 830.712,1553.06 C828.691,1551.3 827.681,1549.09 827.681,1546.42 C827.681,1541.93 830.025,1537.73 834.712,1533.83 C839.275,1529.92 844.254,1527.97 849.65,1527.97"/>
<path class="Note" d="M754.424,1515.47 C757.549,1515.47 760.19,1516.28 762.346,1517.9 C764.357,1519.67 765.362,1521.88 765.362,1524.55 C765.362,1529.04 763.055,1533.23 758.44,1537.14 C753.753,1541.05 748.737,1543 743.393,1543 C740.268,1543 737.633,1542.19 735.487,1540.56 C733.466,1538.8 732.456,1536.59 732.456,1533.92 C732.456,1529.43 734.799,1525.23 739.487,1521.33 C744.049,1517.42 749.029,1515.47 754.424,1515.47"/>
<path class="Note" d="M693.199,1502.97 C696.324,1502.97 698.965,1503.78 701.121,1505.4 C703.131,1507.17 704.137,1509.38 704.137,1512.05 C704.137,1516.54 701.829,1520.73 697.215,1524.64 C692.527,1528.55 687.512,1530.5 682.168,1530.5 C679.043,1530.5 676.407,1529.69 674.262,1528.06 C672.241,1526.3 671.23,1524.09 671.23,1521.42 C671.23,1516.93 673.574,1512.73 678.262,1508.83 C682.824,1504.92 687.803,1502.97 693.199,1502.97"/>
<path class="Note" d="M615.496,1490.47 C618.621,1490.47 621.262,1491.28 623.418,1492.9 C625.428,1494.67 626.433,1496.88 626.433,1499.55 C626.433,1504.04 624.126,1508.23 619.512,1512.14 C614.824,1516.05 609.808,1518 604.465,1518 C601.34,1518 598.704,1517.19 596.558,1515.56 C594.538,1513.8 593.527,1511.59 593.527,1508.92 C593.527,1504.43 595.871,1500.23 600.558,1496.33 C605.121,1492.42 610.1,1490.47 615.496,1490.47"/>
<path class="Note" d="M554.271,1490.47 C557.396,1490.47 560.036,1491.28 562.193,1492.9 C564.203,1494.67 565.208,1496.88 565.208,1499.55 C565.208,1504.04 562.901,1508.23 558.286,1512.14 C553.599,1516.05 548.583,1518 543.239,1518 C540.114,1518 537.479,1517.19 535.333,1515.56 C533.312,1513.8 532.302,1511.59 532.302,1508.92 C532.302,1504.43 534.646,1500.23 539.333,1496.33 C543.896,1492.42 548.875,1490.47 554.271,1490.47"/>
<path class="Note" d="M462.357,1490.47 C465.482,1490.47 468.122,1491.28 470.278,1492.9 C472.289,1494.67 473.294,1496.88 473.294,1499.55 C473.294,1504.04 470.987,1508.23 466.372,1512.14 C461.685,1516.05 456.669,1518 451.325,1518 C448.2,1518 445.565,1517.19 443.419,1515.56 C441.398,1513.8 440.388,1511.59 440.388,1508.92 C440.388,1504.43 442.732,1500.23 447.419,1496.33 C451.982,1492.42 456.961,1490.47 462.357,1490.47"/>
<path class="Note" d="M409.951,1527.97 C413.076,1527.97 415.716,1528.78 417.872,1530.41 C419.883,1532.17 420.888,1534.38 420.888,1537.05 C420.888,1541.54 418.581,1545.73 413.966,1549.64 C409.279,1553.55 404.263,1555.5 398.919,1555.5 C395.794,1555.5 393.159,1554.69 391.013,1553.06 C388.992,1551.3 387.982,1549.09 387.982,1546.42 C387.982,1541.93 390.326,1537.73 395.013,1533.83 C399.576,1529.92 404.555,1527.97 409.951,1527.97"/>
<path class="Note" d="M357.545,1552.97 C360.67,1552.97 363.31,1553.78 365.466,1555.41 C367.477,1557.17 368.482,1559.38 368.482,1562.05 C368.482,1566.54 366.175,1570.73 361.56,1574.64 C356.873,1578.55 351.857,1580.5 346.513,1580.5 C343.388,1580.5 340.753,1579.69 338.607,1578.06 C336.586,1576.3 335.576,1574.09 335.576,1571.42 C335.576,1566.93 337.92,1562.73 342.607,1558.83 C347.17,1554.92 352.149,1552.97 357.545,1552.97"/>
<path class="Note" d="M305.139,1577.97 C308.264,1577.97 310.904,1578.78 313.06,1580.41 C315.071,1582.17 316.076,1584.38 316.076,1587.05 C316.076,1591.54 313.769,1595.73 309.154,1599.64 C304.467,1603.55 299.451,1605.5 294.107,1605.5 C290.982,1605.5 288.347,1604.69 286.201,1603.06 C284.18,1601.3 283.17,1599.09 283.17,1596.42 C283.17,1591.93 285.514,1587.73 290.201,1583.83 C294.764,1579.92 299.743,1577.97 305.139,1577.97"/>
<path class="Note" d="M2725.88,1102.97 C2729.01,1102.97 2731.65,1103.78 2733.81,1105.4 C2735.82,1107.17 2736.82,1109.38 2736.82,1112.05 C2736.82,1116.53 2734.51,1120.73 2729.9,1124.64 C2725.21,1128.55 2720.2,1130.5 2714.85,1130.5 C2711.73,1130.5 2709.09,1129.69 2706.95,1128.06 C2704.93,1126.3 2703.92,1124.09 2703.92,1121.42 C2703.92,1116.93 2706.26,1112.73 2710.95,1108.83 C2715.51,1104.92 2720.49,1102.97 2725.88,1102.97"/>
<path class="Note" d="M2598.33,1115.47 C2601.46,1115.47 2604.1,1116.28 2606.25,1117.9 C2608.26,1119.67 2609.27,1121.88 2609.27,1124.55 C2609.27,1129.03 2606.96,1133.23 2602.35,1137.14 C2597.66,1141.05 2592.65,1143 2587.3,1143 C2584.18,1143 2581.54,1142.19 2579.4,1140.56 C2577.37,1138.8 2576.36,1136.59 2576.36,1133.92 C2576.36,1129.43 2578.71,1125.23 2583.4,1121.33 C2587.96,1117.42 2592.94,1115.47 2598.33,1115.47"/>
<path class="Note" d="M2470.78,1127.97 C2473.91,1127.97 2476.55,1128.78 2478.7,1130.4 C2480.71,1132.17 2481.72,1134.38 2481.72,1137.05 C2481.72,1141.53 2479.41,1145.73 2474.8,1149.64 C2470.11,1153.55 2465.09,1155.5 2459.75,1155.5 C2456.62,1155.5 2453.99,1154.69 2451.84,1153.06 C2449.82,1151.3 2448.81,1149.09 2448.81,1146.42 C2448.81,1141.93 2451.16,1137.73 2455.84,1133.83 C2460.41,1129.92 2465.38,1127.97 2470.78,1127.97"/>
<path class="Note" d="M2343.23,1090.47 C2346.35,1090.47 2348.99,1091.28 2351.15,1092.9 C2353.16,1094.67 2354.17,1096.88 2354.17,1099.55 C2354.17,1104.03 2351.86,1108.23 2347.24,1112.14 C2342.56,1116.05 2337.54,1118 2332.2,1118 C2329.07,1118 2326.44,1117.19 2324.29,1115.56 C2322.27,1113.8 2321.26,1111.59 2321.26,1108.92 C2321.26,1104.43 2323.6,1100.23 2328.29,1096.33 C2332.85,1092.42 2337.83,1090.47 2343.23,1090.47"/>
<path class="Note" d="M2181.68,1102.97 C2184.8,1102.97 2187.44,1103.78 2189.6,1105.4 C2191.61,1107.17 2192.61,1109.38 2192.61,1112.05 C2192.61,1116.53 2190.31,1120.73 2185.69,1124.64 C2181,1128.55 2175.99,1130.5 2170.65,1130.5 C2167.52,1130.5 2164.89,1129.69 2162.74,1128.06 C2160.72,1126.3 2159.71,1124.09 2159.71,1121.42 C2159.71,1116.93 2162.05,1112.73 2166.74,1108.83 C2171.3,1104.92 2176.28,1102.97 2181.68,1102.97"/>
<path class="Note" d="M2054.12,1115.47 C2057.25,1115.47 2059.89,1116.28 2062.05,1117.9 C2064.06,1119.67 2065.06,1121.88 2065.06,1124.55 C2065.06,1129.03 2062.76,1133.23 2058.14,1137.14 C2053.45,1141.05 2048.44,1143 2043.09,1143 C2039.97,1143 2037.33,1142.19 2035.19,1140.56 C2033.17,1138.8 2032.16,1136.59 2032.16,1133.92 C2032.16,1129.43 2034.5,1125.23 2039.19,1121.33 C2043.75,1117.42 2048.73,1115.47 2054.12,1115.47"/>
<path class="Note" d="M1926.57,1102.97 C1929.7,1102.97 1932.34,1103.78 1934.49,1105.4 C1936.51,1107.17 1937.51,1109.38 1937.51,1112.05 C1937.51,1116.53 1935.2,1120.73 1930.59,1124.64 C1925.9,1128.55 1920.89,1130.5 1915.54,1130.5 C1912.42,1130.5 1909.78,1129.69 1907.64,1128.06 C1905.61,1126.3 1904.6,1124.09 1904.6,1121.42 C1904.6,1116.93 1906.95,1112.73 1911.64,1108.83 C1916.2,1104.92 1921.18,1102.97 1926.57,1102.97"/>
<path class="Note" d="M1799.02,1090.47 C1802.15,1090.47 1804.79,1091.28 1806.94,1092.9 C1808.95,1094.67 1809.96,1096.88 1809.96,1099.55 C1809.96,1104.03 1807.65,1108.23 1803.04,1112.14 C1798.35,1116.05 1793.33,1118 1787.99,1118 C1784.86,1118 1782.23,1117.19 1780.08,1115.56 C1778.06,1113.8 1777.05,1111.59 1777.05,1108.92 C1777.05,1104.43 1779.4,1100.23 1784.08,1096.33 C1788.65,1092.42 1793.63,1090.47 1799.02,1090.47"/>
<path class="Note" d="M1649.03,1077.97 C1652.16,1077.97 1654.8,1078.78 1656.95,1080.4 C1658.96,1082.17 1659.97,1084.38 1659.97,1087.05 C1659.97,1091.53 1657.66,1095.73 1653.05,1099.64 C1648.36,1103.55 1643.34,1105.5 1638,1105.5 C1634.87,1105.5 1632.24,1104.69 1630.09,1103.06 C1628.07,1101.3 1627.06,1099.09 1627.06,1096.42 C1627.06,1091.93 1629.41,1087.73 1634.09,1083.83 C1638.66,1079.92 1643.64,1077.97 1649.03,1077.97"/>
<path class="Note" d="M1533.04,1090.47 C1536.17,1090.47 1538.81,1091.28 1540.96,1092.9 C1542.97,1094.67 1543.98,1096.88 1543.98,1099.55 C1543.98,1104.03 1541.67,1108.23 1537.06,1112.14 C1532.37,1116.05 1527.35,1118 1522.01,1118 C1518.88,1118 1516.25,1117.19 1514.1,1115.56 C1512.08,1113.8 1511.07,1111.59 1511.07,1108.92 C1511.07,1104.43 1513.42,1100.23 1518.1,1096.33 C1522.67,1092.42 1527.64,1090.47 1533.04,1090.47"/>
<path class="Note" d="M1417.05,1077.97 C1420.18,1077.97 1422.82,1078.78 1424.97,1080.4 C1426.98,1082.17 1427.99,1084.38 1427.99,1087.05 C1427.99,1091.53 1425.68,1095.73 1421.07,1099.64 C1416.38,1103.55 1411.36,1105.5 1406.02,1105.5 C1402.89,1105.5 1400.26,1104.69 1398.11,1103.06 C1396.09,1101.3 1395.08,1099.09 1395.08,1096.42 C1395.08,1091.93 1397.43,1087.73 1402.11,1083.83 C1406.68,1079.92 1411.65,1077.97 1417.05,1077.97"/>
<path class="Note" d="M1301.06,1140.47 C1304.19,1140.47 1306.83,1141.28 1308.98,1142.9 C1310.99,1144.67 1312,1146.88 1312,1149.55 C1312,1154.03 1309.69,1158.23 1305.08,1162.14 C1300.39,1166.05 1295.37,1168 1290.03,1168 C1286.9,1168 1284.27,1167.19 1282.12,1165.56 C1280.1,1163.8 1279.09,1161.59 1279.09,1158.92 C1279.09,1154.43 1281.44,1150.23 1286.12,1146.33 C1290.69,1142.42 1295.66,1140.47 1301.06,1140.47"/>
<path class="Note" d="M1151.07,1140.47 C1154.2,1140.47 1156.84,1141.28 1158.99,1142.9 C1161,1144.67 1162.01,1146.88 1162.01,1149.55 C1162.01,1154.03 1159.7,1158.23 1155.09,1162.14 C1150.4,1166.05 1145.38,1168 1140.04,1168 C1136.91,1168 1134.28,1167.19 1132.13,1165.56 C1130.11,1163.8 1129.1,1161.59 1129.1,1158.92 C1129.1,1154.43 1131.45,1150.23 1136.13,1146.33 C1140.7,1142.42 1145.67,1140.47 1151.07,1140.47"/>
<path class="Note" d="M1035.08,1140.47 C1038.2,1140.47 1040.85,1141.28 1043,1142.9 C1045.01,1144.67 1046.02,1146.88 1046.02,1149.55 C1046.02,1154.03 1043.71,1158.23 1039.1,1162.14 C1034.41,1166.05 1029.39,1168 1024.05,1168 C1020.92,1168 1018.29,1167.19 1016.14,1165.56 C1014.12,1163.8 1013.11,1161.59 1013.11,1158.92 C1013.11,1154.43 1015.45,1150.23 1020.14,1146.33 C1024.7,1142.42 1029.68,1140.47 1035.08,1140.47"/>
<path class="Note" d="M919.09,1077.97 C922.215,1077.97 924.855,1078.78 927.011,1080.4 C929.022,1082.17 930.027,1084.38 930.027,1087.05 C930.027,1091.53 927.72,1095.73 923.105,1099.64 C918.418,1103.55 913.402,1105.5 908.058,1105.5 C904.933,1105.5 902.298,1104.69 900.152,1103.06 C898.131,1101.3 897.121,1099.09 897.121,1096.42 C897.121,1091.93 899.465,1087.73 904.152,1083.83 C908.715,1079.92 913.694,1077.97 919.09,1077.97"/>
<path class="Note" d="M803.099,1065.47 C806.224,1065.47 808.865,1066.28 811.021,1067.9 C813.032,1069.67 814.037,1071.88 814.037,1074.55 C814.037,1079.03 811.73,1083.23 807.115,1087.14 C802.428,1091.05 797.412,1093 792.068,1093 C788.943,1093 786.308,1092.19 784.162,1090.56 C782.141,1088.8 781.131,1086.59 781.131,1083.92 C781.131,1079.43 783.474,1075.23 788.162,1071.33 C792.724,1067.42 797.704,1065.47 803.099,1065.47"/>
<path class="Note" d="M653.109,1140.47 C656.234,1140.47 658.875,1141.28 661.031,1142.9 C663.041,1144.67 664.047,1146.88 664.047,1149.55 C664.047,1154.03 661.739,1158.23 657.125,1162.14 C652.437,1166.05 647.422,1168 642.078,1168 C638.953,1168 636.318,1167.19 634.172,1165.56 C632.151,1163.8 631.14,1161.59 631.14,1158.92 C631.14,1154.43 633.484,1150.23 638.172,1146.33 C642.734,1142.42 647.713,1140.47 653.109,1140.47"/>
<path class="Note" d="M537.119,1140.47 C540.244,1140.47 542.885,1141.28 545.041,1142.9 C547.051,1144.67 548.056,1146.88 548.056,1149.55 C548.056,1154.03 545.749,1158.23 541.135,1162.14 C536.447,1166.05 531.431,1168 526.088,1168 C522.963,1168 520.327,1167.19 518.181,1165.56 C516.161,1163.8 515.15,1161.59 515.15,1158.92 C515.15,1154.43 517.494,1150.23 522.181,1146.33 C526.744,1142.42 531.723,1140.47 537.119,1140.47"/>
<path class="Note" d="M421.129,1140.47 C424.254,1140.47 426.894,1141.28 429.051,1142.9 C431.061,1144.67 432.066,1146.88 432.066,1149.55 C432.066,1154.03 429.759,1158.23 425.144,1162.14 C420.457,1166.05 415.441,1168 410.098,1168 C406.973,1168 404.337,1167.19 402.191,1165.56 C400.17,1163.8 399.16,1161.59 399.16,1158.92 C399.16,1154.43 401.504,1150.23 406.191,1146.33 C410.754,1142.42 415.733,1140.47 421.129,1140.47"/>
<path class="Note" d="M305.139,1065.47 C308.264,1065.47 310.904,1066.28 313.06,1067.9 C315.071,1069.67 316.076,1071.88 316.076,1074.55 C316.076,1079.03 313.769,1083.23 309.154,1087.14 C304.467,1091.05 299.451,1093 294.107,1093 C290.982,1093 288.347,1092.19 286.201,1090.56 C284.18,1088.8 283.17,1086.59 283.17,1083.92 C283.17,1079.43 285.514,1075.23 290.201,1071.33 C294.764,1067.42 299.743,1065.47 305.139,1065.47"/>
<path class="Note" d="M2603.27,577.967 C2606.4,577.967 2609.04,578.779 2611.19,580.404 C2613.2,582.165 2614.21,584.378 2614.21,587.045 C2614.21,591.535 2611.9,595.733 2607.29,599.639 C2602.6,603.545 2597.58,605.498 2592.24,605.498 C2589.12,605.498 2586.48,604.686 2584.33,603.061 C2582.31,601.3 2581.3,599.087 2581.3,596.42 C2581.3,591.93 2583.65,587.733 2588.33,583.826 C2592.9,579.92 2597.88,577.967 2603.27,577.967"/>
<path class="Note" d="M2507.06,565.467 C2510.18,565.467 2512.82,566.279 2514.98,567.904 C2516.99,569.665 2517.99,571.878 2517.99,574.545 C2517.99,579.035 2515.69,583.233 2511.07,587.139 C2506.38,591.045 2501.37,592.998 2496.02,592.998 C2492.9,592.998 2490.26,592.186 2488.12,590.561 C2486.1,588.8 2485.09,586.587 2485.09,583.92 C2485.09,579.43 2487.43,575.233 2492.12,571.326 C2496.68,567.42 2501.66,565.467 2507.06,565.467"/>
<path class="Note" d="M2366.13,602.967 C2369.26,602.967 2371.9,603.779 2374.06,605.404 C2376.07,607.165 2377.07,609.378 2377.07,612.045 C2377.07,616.535 2374.76,620.733 2370.15,624.639 C2365.46,628.545 2360.45,630.498 2355.1,630.498 C2351.98,630.498 2349.34,629.686 2347.2,628.061 C2345.18,626.3 2344.17,624.087 2344.17,621.42 C2344.17,616.93 2346.51,612.733 2351.2,608.826 C2355.76,604.92 2360.74,602.967 2366.13,602.967"/>
<path class="Note" d="M2259.21,602.967 C2262.34,602.967 2264.98,603.779 2267.14,605.404 C2269.15,607.165 2270.15,609.378 2270.15,612.045 C2270.15,616.535 2267.84,620.733 2263.23,624.639 C2258.54,628.545 2253.53,630.498 2248.18,630.498 C2245.06,630.498 2242.42,629.686 2240.28,628.061 C2238.26,626.3 2237.25,624.087 2237.25,621.42 C2237.25,616.93 2239.59,612.733 2244.28,608.826 C2248.84,604.92 2253.82,602.967 2259.21,602.967"/>
<path class="Note" d="M2152.29,602.967 C2155.42,602.967 2158.06,603.779 2160.22,605.404 C2162.23,607.165 2163.23,609.378 2163.23,612.045 C2163.23,616.535 2160.92,620.733 2156.31,624.639 C2151.62,628.545 2146.61,630.498 2141.26,630.498 C2138.14,630.498 2135.5,629.686 2133.36,628.061 C2131.34,626.3 2130.33,624.087 2130.33,621.42 C2130.33,616.93 2132.67,612.733 2137.36,608.826 C2141.92,604.92 2146.9,602.967 2152.29,602.967"/>
<path class="Note" d="M2045.37,602.967 C2048.5,602.967 2051.14,603.779 2053.3,605.404 C2055.31,607.165 2056.31,609.378 2056.31,612.045 C2056.31,616.535 2054,620.733 2049.39,624.639 C2044.7,628.545 2039.69,630.498 2034.34,630.498 C2031.22,630.498 2028.58,629.686 2026.44,628.061 C2024.42,626.3 2023.4,624.087 2023.4,621.42 C2023.4,616.93 2025.75,612.733 2030.44,608.826 C2035,604.92 2039.98,602.967 2045.37,602.967"/>
<path class="Note" d="M1914.4,602.967 C1917.53,602.967 1920.17,603.779 1922.33,605.404 C1924.34,607.165 1925.34,609.378 1925.34,612.045 C1925.34,616.535 1923.04,620.733 1918.42,624.639 C1913.73,628.545 1908.72,630.498 1903.37,630.498 C1900.25,630.498 1897.61,629.686 1895.47,628.061 C1893.45,626.3 1892.44,624.087 1892.44,621.42 C1892.44,616.93 1894.78,612.733 1899.47,608.826 C1904.03,604.92 1909.01,602.967 1914.4,602.967"/>
<path class="Note" d="M1817.44,602.967 C1820.56,602.967 1823.2,603.779 1825.36,605.404 C1827.37,607.165 1828.37,609.378 1828.37,612.045 C1828.37,616.535 1826.07,620.733 1821.45,624.639 C1816.76,628.545 1811.75,630.498 1806.4,630.498 C1803.28,630.498 1800.64,629.686 1798.5,628.061 C1796.48,626.3 1795.47,624.087 1795.47,621.42 C1795.47,616.93 1797.81,612.733 1802.5,608.826 C1807.06,604.92 1812.04,602.967 1817.44,602.967"/>
<path class="Note" d="M1720.47,615.467 C1723.59,615.467 1726.23,616.279 1728.39,617.904 C1730.4,619.665 1731.4,621.878 1731.4,624.545 C1731.4,629.035 1729.1,633.233 1724.48,637.139 C1719.8,641.045 1714.78,642.998 1709.44,642.998 C1706.31,642.998 1703.68,642.186 1701.53,640.561 C1699.51,638.8 1698.5,636.587 1698.5,633.92 C1698.5,629.43 1700.84,625.233 1705.53,621.326 C1710.09,617.42 1715.07,615.467 1720.47,615.467"/>
<path class="Note" d="M1623.5,627.967 C1626.62,627.967 1629.26,628.779 1631.42,630.404 C1633.43,632.165 1634.44,634.378 1634.44,637.045 C1634.44,641.535 1632.13,645.733 1627.51,649.639 C1622.83,653.545 1617.81,655.498 1612.47,655.498 C1609.34,655.498 1606.71,654.686 1604.56,653.061 C1602.54,651.3 1601.53,649.087 1601.53,646.42 C1601.53,641.93 1603.87,637.733 1608.56,633.826 C1613.12,629.92 1618.1,627.967 1623.5,627.967"/>
<path class="Note" d="M1492.53,602.967 C1495.65,602.967 1498.3,603.779 1500.45,605.404 C1502.46,607.165 1503.47,609.378 1503.47,612.045 C1503.47,616.535 1501.16,620.733 1496.55,624.639 C1491.86,628.545 1486.84,630.498 1481.5,630.498 C1478.37,630.498 1475.74,629.686 1473.59,628.061 C1471.57,626.3 1470.56,624.087 1470.56,621.42 C1470.56,616.93 1472.9,612.733 1477.59,608.826 C1482.15,604.92 1487.13,602.967 1492.53,602.967"/>
<path class="Note" d="M1395.56,602.967 C1398.69,602.967 1401.33,603.779 1403.48,605.404 C1405.49,607.165 1406.5,609.378 1406.5,612.045 C1406.5,616.535 1404.19,620.733 1399.58,624.639 C1394.89,628.545 1389.87,630.498 1384.53,630.498 C1381.4,630.498 1378.77,629.686 1376.62,628.061 C1374.6,626.3 1373.59,624.087 1373.59,621.42 C1373.59,616.93 1375.94,612.733 1380.62,608.826 C1385.19,604.92 1390.17,602.967 1395.56,602.967"/>
<path class="Note" d="M1298.59,602.967 C1301.72,602.967 1304.36,603.779 1306.51,605.404 C1308.52,607.165 1309.53,609.378 1309.53,612.045 C1309.53,616.535 1307.22,620.733 1302.61,624.639 C1297.92,628.545 1292.9,630.498 1287.56,630.498 C1284.44,630.498 1281.8,629.686 1279.65,628.061 C1277.63,626.3 1276.62,624.087 1276.62,621.42 C1276.62,616.93 1278.97,612.733 1283.65,608.826 C1288.22,604.92 1293.2,602.967 1298.59,602.967"/>
<path class="Note" d="M1201.62,602.967 C1204.75,602.967 1207.39,603.779 1209.55,605.404 C1211.56,607.165 1212.56,609.378 1212.56,612.045 C1212.56,616.535 1210.25,620.733 1205.64,624.639 C1200.95,628.545 1195.94,630.498 1190.59,630.498 C1187.47,630.498 1184.83,629.686 1182.69,628.061 C1180.67,626.3 1179.65,624.087 1179.65,621.42 C1179.65,616.93 1182,612.733 1186.69,608.826 C1191.25,604.92 1196.23,602.967 1201.62,602.967"/>
<path class="Note" d="M1070.65,615.467 C1073.78,615.467 1076.42,616.279 1078.58,617.904 C1080.59,619.665 1081.59,621.878 1081.59,624.545 C1081.59,629.035 1079.28,633.233 1074.67,637.139 C1069.98,641.045 1064.97,642.998 1059.62,642.998 C1056.5,642.998 1053.86,642.186 1051.72,640.561 C1049.7,638.8 1048.69,636.587 1048.69,633.92 C1048.69,629.43 1051.03,625.233 1055.72,621.326 C1060.28,617.42 1065.26,615.467 1070.65,615.467"/>
<path class="Note" d="M973.686,627.967 C976.811,627.967 979.451,628.779 981.608,630.404 C983.618,632.165 984.623,634.378 984.623,637.045 C984.623,641.535 982.316,645.733 977.701,649.639 C973.014,653.545 967.998,655.498 962.654,655.498 C959.529,655.498 956.894,654.686 954.748,653.061 C952.727,651.3 951.717,649.087 951.717,646.42 C951.717,641.93 954.061,637.733 958.748,633.826 C963.311,629.92 968.29,627.967 973.686,627.967"/>
<path class="Note" d="M876.717,602.967 C879.842,602.967 882.483,603.779 884.639,605.404 C886.649,607.165 887.654,609.378 887.654,612.045 C887.654,616.535 885.347,620.733 880.733,624.639 C876.045,628.545 871.029,630.498 865.686,630.498 C862.561,630.498 859.925,629.686 857.779,628.061 C855.759,626.3 854.748,624.087 854.748,621.42 C854.748,616.93 857.092,612.733 861.779,608.826 C866.342,604.92 871.321,602.967 876.717,602.967"/>
<path class="Note" d="M779.748,602.967 C782.873,602.967 785.514,603.779 787.67,605.404 C789.68,607.165 790.686,609.378 790.686,612.045 C790.686,616.535 788.378,620.733 783.764,624.639 C779.076,628.545 774.061,630.498 768.717,630.498 C765.592,630.498 762.957,629.686 760.811,628.061 C758.79,626.3 757.779,624.087 757.779,621.42 C757.779,616.93 760.123,612.733 764.811,608.826 C769.373,604.92 774.352,602.967 779.748,602.967"/>
<path class="Note" d="M648.779,602.967 C651.904,602.967 654.545,603.779 656.701,605.404 C658.712,607.165 659.717,609.378 659.717,612.045 C659.717,616.535 657.41,620.733 652.795,624.639 C648.107,628.545 643.092,630.498 637.748,630.498 C634.623,630.498 631.988,629.686 629.842,628.061 C627.821,626.3 626.811,624.087 626.811,621.42 C626.811,616.93 629.154,612.733 633.842,608.826 C638.404,604.92 643.384,602.967 648.779,602.967"/>
<path class="Note" d="M551.811,602.967 C554.936,602.967 557.576,603.779 559.732,605.404 C561.743,607.165 562.748,609.378 562.748,612.045 C562.748,616.535 560.441,620.733 555.826,624.639 C551.139,628.545 546.123,630.498 540.779,630.498 C537.654,630.498 535.019,629.686 532.873,628.061 C530.852,626.3 529.842,624.087 529.842,621.42 C529.842,616.93 532.186,612.733 536.873,608.826 C541.436,604.92 546.415,602.967 551.811,602.967"/>
<path class="Note" d="M454.842,615.467 C457.967,615.467 460.607,616.279 462.764,617.904 C464.774,619.665 465.779,621.878 465.779,624.545 C465.779,629.035 463.472,633.233 458.857,637.139 C454.17,641.045 449.154,642.998 443.811,642.998 C440.686,642.998 438.05,642.186 435.904,640.561 C433.883,638.8 432.873,636.587 432.873,633.92 C432.873,629.43 435.217,625.233 439.904,621.326 C444.467,617.42 449.446,615.467 454.842,615.467"/>
<path class="Note" d="M357.873,627.967 C360.998,627.967 363.639,628.779 365.795,630.404 C367.805,632.165 368.81,634.378 368.81,637.045 C368.81,641.535 366.503,645.733 361.889,649.639 C357.201,653.545 352.185,655.498 346.842,655.498 C343.717,655.498 341.081,654.686 338.935,653.061 C336.915,651.3 335.904,649.087 335.904,646.42 C335.904,641.93 338.248,637.733 342.935,633.826 C347.498,629.92 352.477,627.967 357.873,627.967"/>
<path class="Clef" d="M194.451,2041.14 C194.451,2041.14 194.649,2041.14 195.045,2041.14 C195.305,2041.08 195.529,2041.05 195.717,2041.05 C203.008,2041.05 208.998,2043.62 213.685,2048.76 C218.373,2053.84 220.717,2059.76 220.717,2066.53 C220.717,2074.94 217.237,2081.78 210.279,2087.05 C208.456,2088.48 206.076,2089.66 203.139,2090.56 C203.472,2094.79 203.639,2098.21 203.639,2100.81 C203.639,2101.33 203.571,2103.22 203.435,2106.48 C203.175,2112.54 201.092,2117.78 197.185,2122.2 C193.415,2126.57 188.727,2128.75 183.123,2128.75 C177.852,2128.75 173.362,2126.89 169.654,2123.19 C165.935,2119.41 164.076,2114.85 164.076,2109.51 C164.076,2106.71 165.154,2104.33 167.31,2102.37 C169.519,2100.43 172.086,2099.45 175.014,2099.45 C177.618,2099.45 179.8,2100.46 181.56,2102.48 C183.383,2104.37 184.295,2106.71 184.295,2109.51 C184.295,2112.05 183.383,2114.22 181.56,2116.05 C179.737,2117.87 177.555,2118.78 175.014,2118.78 C173.972,2118.78 172.967,2118.59 171.998,2118.2 C174.862,2122.43 178.67,2124.55 183.42,2124.55 C187.909,2124.55 191.586,2122.72 194.451,2119.08 C197.451,2115.31 199.081,2110.91 199.342,2105.89 C199.467,2102.76 199.529,2100.98 199.529,2100.53 C199.529,2096.88 199.399,2093.89 199.139,2091.55 C195.889,2092.07 192.993,2092.33 190.451,2092.33 C181.399,2092.33 173.685,2088.74 167.31,2081.58 C161.06,2074.35 157.935,2065.75 157.935,2055.8 C157.935,2053.71 158.128,2051.6 158.514,2049.45 C158.909,2047.69 159.399,2045.77 159.982,2043.69 C160.305,2042.51 161.185,2040.62 162.623,2038.01 C163.144,2037.23 163.73,2036.26 164.381,2035.09 C165.032,2033.91 165.487,2033.13 165.748,2032.75 C166.394,2031.45 167.659,2029.69 169.545,2027.47 C170.066,2026.88 170.605,2026.24 171.162,2025.52 C171.719,2024.81 172.193,2024.22 172.584,2023.76 C172.974,2023.31 173.266,2022.95 173.459,2022.69 C173.652,2022.43 175.118,2020.7 177.857,2017.51 C178.503,2016.86 179.136,2016.16 179.756,2015.41 C180.375,2014.67 180.881,2014.08 181.271,2013.66 C181.662,2013.23 181.956,2012.92 182.154,2012.73 C179.81,2004.98 178.342,1998.8 177.748,1994.17 C177.3,1990.46 177.076,1985.38 177.076,1978.94 C177.076,1973.27 178.378,1967.96 180.982,1963.01 C183.514,1957.88 187.06,1953.68 191.623,1950.42 C191.883,1950.22 192.206,1950.12 192.592,1950.12 C193.05,1950.12 193.378,1950.22 193.576,1950.42 C197.086,1954.65 200.112,1960.15 202.654,1966.92 C205.258,1973.69 206.56,1979.85 206.56,1985.39 C206.56,1991.64 205.066,1997.5 202.076,2002.97 C198.691,2008.76 194.326,2014.75 188.982,2020.94 C190.347,2025.23 192.17,2031.96 194.451,2041.14 M202.748,2086.56 C206.133,2085.32 208.774,2083.21 210.67,2080.22 C212.753,2077.35 213.795,2074.13 213.795,2070.55 C213.795,2065.92 212.232,2061.82 209.107,2058.23 C205.909,2054.53 201.836,2052.44 196.889,2051.98 C199.691,2065.72 201.644,2077.25 202.748,2086.56 M164.967,2064 C164.967,2070.45 167.571,2076.11 172.779,2081 C178.112,2085.75 184.102,2088.12 190.748,2088.12 C193.477,2088.12 196.144,2087.93 198.748,2087.53 C197.706,2077.63 195.654,2065.79 192.592,2051.98 C188.883,2052.38 185.925,2053.68 183.717,2055.89 C181.56,2058.17 180.482,2060.74 180.482,2063.61 C180.482,2068.56 183.123,2072.56 188.404,2075.62 C188.852,2076.08 189.076,2076.57 189.076,2077.09 C189.076,2077.61 188.852,2078.1 188.404,2078.55 C188.008,2079 187.519,2079.23 186.935,2079.23 C186.873,2079.23 186.581,2079.17 186.06,2079.05 C182.342,2077.03 179.477,2074.42 177.467,2071.23 C175.571,2067.84 174.623,2064.42 174.623,2060.97 C174.623,2056.48 176.024,2052.41 178.826,2048.76 C181.753,2045.12 185.56,2042.78 190.248,2041.73 C188.425,2034.44 186.93,2028.74 185.764,2024.64 C184.722,2025.82 183.469,2027.23 182.006,2028.89 C180.542,2030.55 179.68,2031.54 179.42,2031.87 C177.076,2034.93 175.284,2037.3 174.045,2039 C171.826,2042.06 170.196,2044.7 169.154,2046.91 C168.05,2049.38 167.076,2052.09 166.232,2055.01 C165.389,2057.82 164.967,2060.81 164.967,2064 M197.576,1964.69 C192.691,1967.09 188.852,1970.54 186.06,1975.03 C183.196,1979.66 181.764,1984.63 181.764,1989.97 C181.764,1994.66 182.935,2000.97 185.279,2008.92 C189.967,2003.25 193.482,1998.01 195.826,1993.2 C198.295,1988.12 199.529,1982.81 199.529,1977.28 C199.529,1973.11 198.878,1968.92 197.576,1964.69"/>
<path class="Clef" d="M194.451,1566.14 C194.451,1566.14 194.649,1566.14 195.045,1566.14 C195.305,1566.08 195.529,1566.05 195.717,1566.05 C203.008,1566.05 208.998,1568.62 213.685,1573.76 C218.373,1578.84 220.717,1584.76 220.717,1591.53 C220.717,1599.94 217.237,1606.77 210.279,1612.05 C208.456,1613.48 206.076,1614.66 203.139,1615.56 C203.472,1619.79 203.639,1623.21 203.639,1625.81 C203.639,1626.33 203.571,1628.22 203.435,1631.48 C203.175,1637.54 201.092,1642.77 197.185,1647.2 C193.415,1651.57 188.727,1653.75 183.123,1653.75 C177.852,1653.75 173.362,1651.89 169.654,1648.19 C165.935,1644.41 164.076,1639.85 164.076,1634.51 C164.076,1631.71 165.154,1629.33 167.31,1627.37 C169.519,1625.43 172.086,1624.45 175.014,1624.45 C177.618,1624.45 179.8,1625.46 181.56,1627.48 C183.383,1629.37 184.295,1631.71 184.295,1634.51 C184.295,1637.05 183.383,1639.22 181.56,1641.05 C179.737,1642.87 177.555,1643.78 175.014,1643.78 C173.972,1643.78 172.967,1643.59 171.998,1643.2 C174.862,1647.43 178.67,1649.55 183.42,1649.55 C187.909,1649.55 191.586,1647.72 194.451,1644.08 C197.451,1640.31 199.081,1635.91 199.342,1630.89 C199.467,1627.76 199.529,1625.98 199.529,1625.53 C199.529,1621.88 199.399,1618.89 199.139,1616.55 C195.889,1617.07 192.993,1617.33 190.451,1617.33 C181.399,1617.33 173.685,1613.74 167.31,1606.58 C161.06,1599.35 157.935,1590.75 157.935,1580.8 C157.935,1578.71 158.128,1576.6 158.514,1574.45 C158.909,1572.69 159.399,1570.77 159.982,1568.69 C160.305,1567.51 161.185,1565.62 162.623,1563.01 C163.144,1562.23 163.73,1561.26 164.381,1560.08 C165.032,1558.91 165.487,1558.13 165.748,1557.75 C166.394,1556.45 167.659,1554.69 169.545,1552.47 C170.066,1551.88 170.605,1551.24 171.162,1550.52 C171.719,1549.81 172.193,1549.22 172.584,1548.76 C172.974,1548.31 173.266,1547.95 173.459,1547.69 C173.652,1547.43 175.118,1545.7 177.857,1542.51 C178.503,1541.86 179.136,1541.16 179.756,1540.41 C180.375,1539.67 180.881,1539.08 181.271,1538.66 C181.662,1538.23 181.956,1537.92 182.154,1537.73 C179.81,1529.98 178.342,1523.8 177.748,1519.17 C177.3,1515.46 177.076,1510.38 177.076,1503.94 C177.076,1498.27 178.378,1492.96 180.982,1488.01 C183.514,1482.88 187.06,1478.68 191.623,1475.42 C191.883,1475.22 192.206,1475.12 192.592,1475.12 C193.05,1475.12 193.378,1475.22 193.576,1475.42 C197.086,1479.65 200.112,1485.15 202.654,1491.92 C205.258,1498.69 206.56,1504.85 206.56,1510.39 C206.56,1516.64 205.066,1522.5 202.076,1527.97 C198.691,1533.76 194.326,1539.75 188.982,1545.94 C190.347,1550.23 192.17,1556.96 194.451,1566.14 M202.748,1611.56 C206.133,1610.32 208.774,1608.21 210.67,1605.22 C212.753,1602.35 213.795,1599.13 213.795,1595.55 C213.795,1590.92 212.232,1586.82 209.107,1583.23 C205.909,1579.52 201.836,1577.44 196.889,1576.98 C199.691,1590.72 201.644,1602.25 202.748,1611.56 M164.967,1589 C164.967,1595.45 167.571,1601.11 172.779,1606 C178.112,1610.75 184.102,1613.12 190.748,1613.12 C193.477,1613.12 196.144,1612.93 198.748,1612.53 C197.706,1602.63 195.654,1590.79 192.592,1576.98 C188.883,1577.38 185.925,1578.68 183.717,1580.89 C181.56,1583.17 180.482,1585.74 180.482,1588.61 C180.482,1593.56 183.123,1597.56 188.404,1600.62 C188.852,1601.08 189.076,1601.57 189.076,1602.09 C189.076,1602.61 188.852,1603.1 188.404,1603.55 C188.008,1604 187.519,1604.23 186.935,1604.23 C186.873,1604.23 186.581,1604.17 186.06,1604.05 C182.342,1602.02 179.477,1599.42 177.467,1596.23 C175.571,1592.84 174.623,1589.42 174.623,1585.97 C174.623,1581.48 176.024,1577.41 178.826,1573.76 C181.753,1570.12 185.56,1567.77 190.248,1566.73 C188.425,1559.44 186.93,1553.74 185.764,1549.64 C184.722,1550.82 183.469,1552.23 182.006,1553.89 C180.542,1555.55 179.68,1556.54 179.42,1556.87 C177.076,1559.93 175.284,1562.3 174.045,1564 C171.826,1567.06 170.196,1569.7 169.154,1571.91 C168.05,1574.38 167.076,1577.09 166.232,1580.01 C165.389,1582.82 164.967,1585.81 164.967,1589 M197.576,1489.69 C192.691,1492.09 188.852,1495.54 186.06,1500.03 C183.196,1504.66 181.764,1509.63 181.764,1514.97 C181.764,1519.66 182.935,1525.97 185.279,1533.92 C189.967,1528.25 193.482,1523.01 195.826,1518.2 C198.295,1513.12 199.529,1507.81 199.529,1502.28 C199.529,1498.11 198.878,1493.92 197.576,1489.69"/>
<path class="Clef" d="M194.451,1091.14 C194.451,1091.14 194.649,1091.14 195.045,1091.14 C195.305,1091.08 195.529,1091.05 195.717,1091.05 C203.008,1091.05 208.998,1093.62 213.685,1098.76 C218.373,1103.84 220.717,1109.76 220.717,1116.53 C220.717,1124.94 217.237,1131.77 210.279,1137.05 C208.456,1138.48 206.076,1139.65 203.139,1140.56 C203.472,1144.79 203.639,1148.21 203.639,1150.81 C203.639,1151.33 203.571,1153.22 203.435,1156.48 C203.175,1162.53 201.092,1167.77 197.185,1172.2 C193.415,1176.57 188.727,1178.75 183.123,1178.75 C177.852,1178.75 173.362,1176.89 169.654,1173.19 C165.935,1169.4 164.076,1164.85 164.076,1159.51 C164.076,1156.71 165.154,1154.33 167.31,1152.37 C169.519,1150.43 172.086,1149.45 175.014,1149.45 C177.618,1149.45 179.8,1150.46 181.56,1152.48 C183.383,1154.37 184.295,1156.71 184.295,1159.51 C184.295,1162.05 183.383,1164.22 181.56,1166.05 C179.737,1167.87 177.555,1168.78 175.014,1168.78 C173.972,1168.78 172.967,1168.59 171.998,1168.2 C174.862,1172.43 178.67,1174.55 183.42,1174.55 C187.909,1174.55 191.586,1172.72 194.451,1169.08 C197.451,1165.31 199.081,1160.91 199.342,1155.89 C199.467,1152.76 199.529,1150.98 199.529,1150.53 C199.529,1146.88 199.399,1143.89 199.139,1141.55 C195.889,1142.07 192.993,1142.33 190.451,1142.33 C181.399,1142.33 173.685,1138.74 167.31,1131.58 C161.06,1124.35 157.935,1115.75 157.935,1105.8 C157.935,1103.71 158.128,1101.6 158.514,1099.45 C158.909,1097.69 159.399,1095.77 159.982,1093.69 C160.305,1092.51 161.185,1090.62 162.623,1088.01 C163.144,1087.23 163.73,1086.26 164.381,1085.08 C165.032,1083.91 165.487,1083.13 165.748,1082.75 C166.394,1081.45 167.659,1079.69 169.545,1077.47 C170.066,1076.88 170.605,1076.24 171.162,1075.52 C171.719,1074.81 172.193,1074.22 172.584,1073.76 C172.974,1073.31 173.266,1072.95 173.459,1072.69 C173.652,1072.43 175.118,1070.7 177.857,1067.51 C178.503,1066.86 179.136,1066.16 179.756,1065.41 C180.375,1064.67 180.881,1064.08 181.271,1063.65 C181.662,1063.23 181.956,1062.92 182.154,1062.73 C179.81,1054.98 178.342,1048.8 177.748,1044.17 C177.3,1040.46 177.076,1035.38 177.076,1028.94 C177.076,1023.27 178.378,1017.96 180.982,1013.01 C183.514,1007.88 187.06,1003.68 191.623,1000.42 C191.883,1000.22 192.206,1000.12 192.592,1000.12 C193.05,1000.12 193.378,1000.22 193.576,1000.42 C197.086,1004.65 200.112,1010.15 202.654,1016.92 C205.258,1023.69 206.56,1029.85 206.56,1035.39 C206.56,1041.64 205.066,1047.5 202.076,1052.97 C198.691,1058.76 194.326,1064.75 188.982,1070.94 C190.347,1075.23 192.17,1081.96 194.451,1091.14 M202.748,1136.56 C206.133,1135.32 208.774,1133.21 210.67,1130.22 C212.753,1127.35 213.795,1124.13 213.795,1120.55 C213.795,1115.92 212.232,1111.82 209.107,1108.23 C205.909,1104.52 201.836,1102.44 196.889,1101.98 C199.691,1115.72 201.644,1127.25 202.748,1136.56 M164.967,1114 C164.967,1120.45 167.571,1126.11 172.779,1131 C178.112,1135.75 184.102,1138.12 190.748,1138.12 C193.477,1138.12 196.144,1137.93 198.748,1137.53 C197.706,1127.63 195.654,1115.78 192.592,1101.98 C188.883,1102.38 185.925,1103.68 183.717,1105.89 C181.56,1108.17 180.482,1110.74 180.482,1113.61 C180.482,1118.56 183.123,1122.56 188.404,1125.62 C188.852,1126.08 189.076,1126.57 189.076,1127.09 C189.076,1127.61 188.852,1128.1 188.404,1128.55 C188.008,1129 187.519,1129.23 186.935,1129.23 C186.873,1129.23 186.581,1129.17 186.06,1129.05 C182.342,1127.02 179.477,1124.42 177.467,1121.23 C175.571,1117.84 174.623,1114.42 174.623,1110.97 C174.623,1106.48 176.024,1102.41 178.826,1098.76 C181.753,1095.12 185.56,1092.77 190.248,1091.73 C188.425,1084.44 186.93,1078.74 185.764,1074.64 C184.722,1075.82 183.469,1077.23 182.006,1078.89 C180.542,1080.55 179.68,1081.54 179.42,1081.87 C177.076,1084.93 175.284,1087.3 174.045,1089 C171.826,1092.06 170.196,1094.7 169.154,1096.9 C168.05,1099.38 167.076,1102.09 166.232,1105.01 C165.389,1107.82 164.967,1110.81 164.967,1114 M197.576,1014.69 C192.691,1017.09 188.852,1020.54 186.06,1025.03 C183.196,1029.65 181.764,1034.63 181.764,1039.97 C181.764,1044.65 182.935,1050.97 185.279,1058.92 C189.967,1053.25 193.482,1048.01 195.826,1043.2 C198.295,1038.12 199.529,1032.81 199.529,1027.28 C199.529,1023.11 198.878,1018.92 197.576,1014.69"/>
<path class="Clef" d="M194.451,616.139 C194.451,616.139 194.649,616.139 195.045,616.139 C195.305,616.076 195.529,616.045 195.717,616.045 C203.008,616.045 208.998,618.618 213.685,623.764 C218.373,628.837 220.717,634.759 220.717,641.529 C220.717,649.936 217.237,656.774 210.279,662.045 C208.456,663.483 206.076,664.654 203.139,665.561 C203.472,669.79 203.639,673.207 203.639,675.811 C203.639,676.332 203.571,678.222 203.435,681.483 C203.175,687.535 201.092,692.774 197.185,697.201 C193.415,701.566 188.727,703.748 183.123,703.748 C177.852,703.748 173.362,701.894 169.654,698.186 C165.935,694.404 164.076,689.847 164.076,684.514 C164.076,681.712 165.154,679.332 167.31,677.373 C169.519,675.425 172.086,674.451 175.014,674.451 C177.618,674.451 179.8,675.462 181.56,677.483 C183.383,679.368 184.295,681.712 184.295,684.514 C184.295,687.045 183.383,689.222 181.56,691.045 C179.737,692.868 177.555,693.779 175.014,693.779 C173.972,693.779 172.967,693.587 171.998,693.201 C174.862,697.43 178.67,699.545 183.42,699.545 C187.909,699.545 191.586,697.722 194.451,694.076 C197.451,690.305 199.081,685.91 199.342,680.889 C199.467,677.764 199.529,675.977 199.529,675.529 C199.529,671.884 199.399,668.889 199.139,666.545 C195.889,667.066 192.993,667.326 190.451,667.326 C181.399,667.326 173.685,663.743 167.31,656.576 C161.06,649.347 157.935,640.753 157.935,630.795 C157.935,628.712 158.128,626.597 158.514,624.451 C158.909,622.691 159.399,620.769 159.982,618.686 C160.305,617.509 161.185,615.618 162.623,613.014 C163.144,612.233 163.73,611.256 164.381,610.084 C165.032,608.912 165.487,608.134 165.748,607.748 C166.394,606.446 167.659,604.686 169.545,602.467 C170.066,601.884 170.605,601.235 171.162,600.522 C171.719,599.808 172.193,599.222 172.584,598.764 C172.974,598.305 173.266,597.946 173.459,597.686 C173.652,597.425 175.118,595.701 177.857,592.514 C178.503,591.858 179.136,591.157 179.756,590.412 C180.375,589.667 180.881,589.082 181.271,588.654 C181.662,588.227 181.956,587.92 182.154,587.733 C179.81,579.983 178.342,573.795 177.748,569.17 C177.3,565.462 177.076,560.384 177.076,553.936 C177.076,548.269 178.378,542.962 180.982,538.014 C183.514,532.878 187.06,528.68 191.623,525.42 C191.883,525.222 192.206,525.123 192.592,525.123 C193.05,525.123 193.378,525.222 193.576,525.42 C197.086,529.649 200.112,535.149 202.654,541.92 C205.258,548.691 206.56,554.847 206.56,560.389 C206.56,566.639 205.066,572.498 202.076,577.967 C198.691,583.759 194.326,589.748 188.982,595.936 C190.347,600.227 192.17,606.962 194.451,616.139 M202.748,661.561 C206.133,660.321 208.774,658.207 210.67,655.217 C212.753,652.352 213.795,649.128 213.795,645.545 C213.795,640.92 212.232,636.816 209.107,633.233 C205.909,629.524 201.836,627.441 196.889,626.983 C199.691,640.722 201.644,652.248 202.748,661.561 M164.967,638.998 C164.967,645.446 167.571,651.113 172.779,655.998 C178.112,660.748 184.102,663.123 190.748,663.123 C193.477,663.123 196.144,662.925 198.748,662.529 C197.706,652.634 195.654,640.785 192.592,626.983 C188.883,627.378 185.925,628.68 183.717,630.889 C181.56,633.17 180.482,635.743 180.482,638.608 C180.482,643.555 183.123,647.561 188.404,650.623 C188.852,651.082 189.076,651.571 189.076,652.092 C189.076,652.613 188.852,653.097 188.404,653.545 C188.008,654.003 187.519,654.233 186.935,654.233 C186.873,654.233 186.581,654.17 186.06,654.045 C182.342,652.024 179.477,649.42 177.467,646.233 C175.571,642.837 174.623,639.415 174.623,635.967 C174.623,631.477 176.024,627.41 178.826,623.764 C181.753,620.118 185.56,617.774 190.248,616.733 C188.425,609.441 186.93,603.743 185.764,599.639 C184.722,600.816 183.469,602.233 182.006,603.889 C180.542,605.545 179.68,606.54 179.42,606.873 C177.076,609.925 175.284,612.3 174.045,613.998 C171.826,617.061 170.196,619.696 169.154,621.904 C168.05,624.384 167.076,627.087 166.232,630.014 C165.389,632.816 164.967,635.811 164.967,638.998 M197.576,539.686 C192.691,542.092 188.852,545.54 186.06,550.029 C183.196,554.654 181.764,559.634 181.764,564.967 C181.764,569.654 182.935,575.972 185.279,583.92 C189.967,578.253 193.482,573.014 195.826,568.201 C198.295,563.118 199.529,557.811 199.529,552.279 C199.529,548.113 198.878,543.915 197.576,539.686"/>
<path class="TimeSig" d="M268.467,567.912 C270.415,567.912 272.073,567.686 273.443,567.233 C274.813,566.779 275.691,566.553 276.076,566.553 C276.534,566.553 276.894,566.683 277.154,566.943 C277.352,567.131 277.482,567.355 277.545,567.615 C277.545,567.751 277.477,567.949 277.342,568.209 L248.935,601.225 L265.623,601.225 L265.623,588.131 C265.623,587.287 265.852,586.568 266.31,585.975 C267.092,585.329 267.743,584.938 268.264,584.803 C269.107,584.417 270.149,583.506 271.389,582.068 C272.43,580.902 273.67,578.855 275.107,575.928 C275.295,575.532 275.586,575.334 275.982,575.334 C276.764,575.334 277.217,575.792 277.342,576.709 L277.342,601.225 L284.482,601.225 C285.389,601.225 285.909,601.709 286.045,602.678 C286.045,603.657 285.524,604.147 284.482,604.147 L277.342,604.147 L277.342,604.928 C277.342,607.532 277.993,609.746 279.295,611.568 C280.795,613.391 282.555,614.303 284.576,614.303 C285.357,614.303 285.748,614.693 285.748,615.475 C285.748,616.256 285.357,616.647 284.576,616.647 C283.211,616.647 280.998,616.454 277.935,616.068 C275.133,615.61 272.951,615.381 271.389,615.381 C269.764,615.381 267.581,615.61 264.842,616.068 C261.915,616.454 259.738,616.647 258.31,616.647 C257.529,616.647 257.139,616.256 257.139,615.475 C257.139,614.693 257.529,614.303 258.31,614.303 C260.321,614.303 262.076,613.391 263.576,611.568 C264.941,609.683 265.623,607.47 265.623,604.928 L265.623,604.147 L248.935,604.147 C247.821,604.147 247.04,603.886 246.592,603.365 C246.06,602.98 245.795,602.459 245.795,601.803 C245.795,601.605 246.284,600.923 247.264,599.756 C248.378,598.454 249.55,596.86 250.779,594.975 C252.217,592.756 253.586,590.475 254.889,588.131 C256.316,585.464 257.456,582.402 258.31,578.943 C259.279,575.433 259.764,571.855 259.764,568.209 C259.764,567.167 260.222,566.647 261.139,566.647 C261.336,566.647 261.758,566.746 262.404,566.943 C262.602,567.006 263.011,567.102 263.631,567.233 C264.251,567.363 264.753,567.49 265.139,567.615 C266.316,567.813 267.425,567.912 268.467,567.912"/>
<path class="TimeSig" d="M268.467,618.084 C270.415,618.084 272.073,617.858 273.443,617.404 C274.813,616.951 275.691,616.725 276.076,616.725 C276.534,616.725 276.894,616.855 277.154,617.115 C277.352,617.303 277.482,617.527 277.545,617.787 C277.545,617.923 277.477,618.121 277.342,618.381 L248.935,651.397 L265.623,651.397 L265.623,638.303 C265.623,637.459 265.852,636.74 266.31,636.147 C267.092,635.501 267.743,635.11 268.264,634.975 C269.107,634.589 270.149,633.678 271.389,632.24 C272.43,631.074 273.67,629.027 275.107,626.1 C275.295,625.704 275.586,625.506 275.982,625.506 C276.764,625.506 277.217,625.964 277.342,626.881 L277.342,651.397 L284.482,651.397 C285.389,651.397 285.909,651.881 286.045,652.85 C286.045,653.829 285.524,654.319 284.482,654.319 L277.342,654.319 L277.342,655.1 C277.342,657.704 277.993,659.917 279.295,661.74 C280.795,663.563 282.555,664.475 284.576,664.475 C285.357,664.475 285.748,664.865 285.748,665.647 C285.748,666.428 285.357,666.819 284.576,666.819 C283.211,666.819 280.998,666.626 277.935,666.24 C275.133,665.782 272.951,665.553 271.389,665.553 C269.764,665.553 267.581,665.782 264.842,666.24 C261.915,666.626 259.738,666.819 258.31,666.819 C257.529,666.819 257.139,666.428 257.139,665.647 C257.139,664.865 257.529,664.475 258.31,664.475 C260.321,664.475 262.076,663.563 263.576,661.74 C264.941,659.855 265.623,657.641 265.623,655.1 L265.623,654.319 L248.935,654.319 C247.821,654.319 247.04,654.058 246.592,653.537 C246.06,653.152 245.795,652.631 245.795,651.975 C245.795,651.777 246.284,651.095 247.264,649.928 C248.378,648.626 249.55,647.032 250.779,645.147 C252.217,642.928 253.586,640.647 254.889,638.303 C256.316,635.636 257.456,632.574 258.31,629.115 C259.279,625.605 259.764,622.027 259.764,618.381 C259.764,617.339 260.222,616.819 261.139,616.819 C261.336,616.819 261.758,616.917 262.404,617.115 C262.602,617.178 263.011,617.274 263.631,617.404 C264.251,617.535 264.753,617.662 265.139,617.787 C266.316,617.985 267.425,618.084 268.467,618.084"/>
<path class="Rest" d="M2677.82,2032.36 L2642.28,2032.36 C2641.62,2032.36 2641.29,2032.04 2641.29,2031.39 L2641.29,2017.72 C2641.29,2017.06 2641.62,2016.73 2642.28,2016.73 L2677.82,2016.73 C2678.47,2016.73 2678.79,2017.06 2678.79,2017.72 L2678.79,2031.39 C2678.79,2032.04 2678.47,2032.36 2677.82,2032.36"/>
<path class="Rest" d="M2361.72,2032.36 L2326.18,2032.36 C2325.52,2032.36 2325.19,2032.04 2325.19,2031.39 L2325.19,2017.72 C2325.19,2017.06 2325.52,2016.73 2326.18,2016.73 L2361.72,2016.73 C2362.37,2016.73 2362.69,2017.06 2362.69,2017.72 L2362.69,2031.39 C2362.69,2032.04 2362.37,2032.36 2361.72,2032.36"/>
<path class="Rest" d="M2035.37,2032.36 L1999.83,2032.36 C1999.17,2032.36 1998.84,2032.04 1998.84,2031.39 L1998.84,2017.72 C1998.84,2017.06 1999.17,2016.73 1999.83,2016.73 L2035.37,2016.73 C2036.02,2016.73 2036.34,2017.06 2036.34,2017.72 L2036.34,2031.39 C2036.34,2032.04 2036.02,2032.36 2035.37,2032.36"/>
<path class="Rest" d="M1709.02,2032.36 L1673.48,2032.36 C1672.82,2032.36 1672.49,2032.04 1672.49,2031.39 L1672.49,2017.72 C1672.49,2017.06 1672.82,2016.73 1673.48,2016.73 L1709.02,2016.73 C1709.67,2016.73 1709.99,2017.06 1709.99,2017.72 L1709.99,2031.39 C1709.99,2032.04 1709.67,2032.36 1709.02,2032.36"/>
<path class="Rest" d="M1382.68,2032.36 L1347.13,2032.36 C1346.47,2032.36 1346.14,2032.04 1346.14,2031.39 L1346.14,2017.72 C1346.14,2017.06 1346.47,2016.73 1347.13,2016.73 L1382.68,2016.73 C1383.32,2016.73 1383.64,2017.06 1383.64,2017.72 L1383.64,2031.39 C1383.64,2032.04 1383.32,2032.36 1382.68,2032.36"/>
<path class="Rest" d="M1056.33,2032.36 L1020.78,2032.36 C1020.12,2032.36 1019.79,2032.04 1019.79,2031.39 L1019.79,2017.72 C1019.79,2017.06 1020.12,2016.73 1020.78,2016.73 L1056.33,2016.73 C1056.97,2016.73 1057.29,2017.06 1057.29,2017.72 L1057.29,2031.39 C1057.29,2032.04 1056.97,2032.36 1056.33,2032.36"/>
<path class="Rest" d="M729.976,2032.36 L694.429,2032.36 C693.773,2032.36 693.444,2032.04 693.444,2031.39 L693.444,2017.72 C693.444,2017.06 693.773,2016.73 694.429,2016.73 L729.976,2016.73 C730.621,2016.73 730.944,2017.06 730.944,2017.72 L730.944,2031.39 C730.944,2032.04 730.621,2032.36 729.976,2032.36"/>
<path class="Rest" d="M401.626,2032.36 L366.079,2032.36 C365.423,2032.36 365.095,2032.04 365.095,2031.39 L365.095,2017.72 C365.095,2017.06 365.423,2016.73 366.079,2016.73 L401.626,2016.73 C402.272,2016.73 402.595,2017.06 402.595,2017.72 L402.595,2031.39 C402.595,2032.04 402.272,2032.36 401.626,2032.36"/>
<path class="Rest" d="M2780.18,1557.36 L2744.63,1557.36 C2743.97,1557.36 2743.65,1557.04 2743.65,1556.39 L2743.65,1542.72 C2743.65,1542.06 2743.97,1541.73 2744.63,1541.73 L2780.18,1541.73 C2780.82,1541.73 2781.15,1542.06 2781.15,1542.72 L2781.15,1556.39 C2781.15,1557.04 2780.82,1557.36 2780.18,1557.36"/>
<path class="Rest" d="M2638.03,1557.36 L2602.49,1557.36 C2601.83,1557.36 2601.5,1557.04 2601.5,1556.39 L2601.5,1542.72 C2601.5,1542.06 2601.83,1541.73 2602.49,1541.73 L2638.03,1541.73 C2638.68,1541.73 2639,1542.06 2639,1542.72 L2639,1556.39 C2639,1557.04 2638.68,1557.36 2638.03,1557.36"/>
<path class="Rest" d="M2495.89,1557.36 L2460.34,1557.36 C2459.68,1557.36 2459.36,1557.04 2459.36,1556.39 L2459.36,1542.72 C2459.36,1542.06 2459.68,1541.73 2460.34,1541.73 L2495.89,1541.73 C2496.53,1541.73 2496.86,1542.06 2496.86,1542.72 L2496.86,1556.39 C2496.86,1557.04 2496.53,1557.36 2495.89,1557.36"/>
<path class="Rest" d="M2353.74,1557.36 L2318.2,1557.36 C2317.54,1557.36 2317.21,1557.04 2317.21,1556.39 L2317.21,1542.72 C2317.21,1542.06 2317.54,1541.73 2318.2,1541.73 L2353.74,1541.73 C2354.39,1541.73 2354.71,1542.06 2354.71,1542.72 L2354.71,1556.39 C2354.71,1557.04 2354.39,1557.36 2353.74,1557.36"/>
<path class="Rest" d="M2211.6,1557.36 L2176.05,1557.36 C2175.4,1557.36 2175.07,1557.04 2175.07,1556.39 L2175.07,1542.72 C2175.07,1542.06 2175.4,1541.73 2176.05,1541.73 L2211.6,1541.73 C2212.24,1541.73 2212.57,1542.06 2212.57,1542.72 L2212.57,1556.39 C2212.57,1557.04 2212.24,1557.36 2211.6,1557.36"/>
<path class="Rest" d="M2069.45,1557.36 L2033.91,1557.36 C2033.25,1557.36 2032.92,1557.04 2032.92,1556.39 L2032.92,1542.72 C2032.92,1542.06 2033.25,1541.73 2033.91,1541.73 L2069.45,1541.73 C2070.1,1541.73 2070.42,1542.06 2070.42,1542.72 L2070.42,1556.39 C2070.42,1557.04 2070.1,1557.36 2069.45,1557.36"/>
<path class="Rest" d="M1927.31,1557.36 L1891.76,1557.36 C1891.11,1557.36 1890.78,1557.04 1890.78,1556.39 L1890.78,1542.72 C1890.78,1542.06 1891.11,1541.73 1891.76,1541.73 L1927.31,1541.73 C1927.96,1541.73 1928.28,1542.06 1928.28,1542.72 L1928.28,1556.39 C1928.28,1557.04 1927.96,1557.36 1927.31,1557.36"/>
<path class="Rest" d="M2714.05,616.733 L2678.5,616.733 C2677.85,616.733 2677.52,616.404 2677.52,615.748 L2677.52,602.076 C2677.52,601.43 2677.85,601.108 2678.5,601.108 L2714.05,601.108 C2714.7,601.108 2715.02,601.43 2715.02,602.076 L2715.02,615.748 C2715.02,616.404 2714.7,616.733 2714.05,616.733"/>
<path class="VoltaSegment" d="M1605.53,1462.87 C1608.32,1455.39 1612.35,1451.65 1617.62,1451.65 C1620.59,1451.65 1623.03,1452.6 1624.94,1454.48 C1626.85,1456.37 1627.81,1458.78 1627.81,1461.72 C1627.81,1465.75 1625.71,1469.74 1621.53,1473.7 L1612.62,1482.17 L1620.93,1482.17 C1623.76,1482.17 1625.57,1481.95 1626.37,1481.51 C1627.17,1481.06 1627.98,1479.85 1628.79,1477.87 L1630.11,1477.87 L1627.64,1489.48 L1604.76,1489.48 L1604.76,1488.22 C1611.03,1481.54 1615.19,1476.62 1617.25,1473.45 C1619.3,1470.29 1620.32,1467.44 1620.32,1464.9 C1620.32,1463.03 1619.72,1461.4 1618.51,1460.01 C1617.3,1458.62 1615.73,1457.92 1613.78,1457.92 C1610.95,1457.92 1608.72,1459.57 1607.07,1462.87 L1605.53,1462.87 M1638.7,1480.9 C1639.98,1480.9 1641.08,1481.37 1642,1482.3 C1642.91,1483.24 1643.37,1484.35 1643.37,1485.63 C1643.37,1486.92 1642.91,1488 1642,1488.88 C1641.08,1489.76 1639.96,1490.2 1638.64,1490.2 C1637.36,1490.2 1636.27,1489.75 1635.39,1488.85 C1634.51,1487.95 1634.07,1486.84 1634.07,1485.53 C1634.07,1484.28 1634.53,1483.2 1635.45,1482.28 C1636.37,1481.36 1637.45,1480.9 1638.7,1480.9"/>
<polyline class="VoltaSegment" fill="none" stroke="#000000" stroke-width="2.50" stroke-linecap="square" stroke-linejoin="bevel" points="1591.32,1489.48 1591.32,1441.98"/>
<polyline class="VoltaSegment" fill="none" stroke="#000000" stroke-width="2.50" stroke-linecap="square" stroke-linejoin="bevel" points="1591.32,1441.98 1935.96,1441.98"/>
<polyline class="VoltaSegment" fill="none" stroke="#000000" stroke-width="2.50" stroke-linecap="square" stroke-linejoin="bevel" points="1935.96,1441.98 1935.96,1489.48"/>
<path class="VoltaSegment" d="M1110.81,1457.45 C1110.37,1457.45 1109.85,1457.54 1109.25,1457.73 C1108.64,1457.91 1108,1458.13 1107.32,1458.38 C1106.64,1458.64 1106.24,1458.79 1106.14,1458.83 L1106.14,1457.39 L1120,1451.4 L1120.93,1451.4 L1120.93,1482.75 C1120.93,1484.87 1121.3,1486.26 1122.03,1486.9 C1122.76,1487.54 1124.37,1487.88 1126.87,1487.92 L1126.87,1489.23 L1106.25,1489.23 L1106.25,1487.92 C1108.96,1487.88 1110.72,1487.52 1111.55,1486.84 C1112.38,1486.17 1112.79,1484.69 1112.79,1482.42 L1112.79,1461.25 C1112.79,1458.72 1112.13,1457.45 1110.81,1457.45 M1137.43,1480.65 C1138.72,1480.65 1139.82,1481.12 1140.73,1482.05 C1141.65,1482.99 1142.11,1484.1 1142.11,1485.38 C1142.11,1486.67 1141.65,1487.75 1140.73,1488.63 C1139.82,1489.51 1138.7,1489.95 1137.37,1489.95 C1136.09,1489.95 1135.01,1489.5 1134.13,1488.6 C1133.25,1487.7 1132.81,1486.59 1132.81,1485.28 C1132.81,1484.03 1133.27,1482.95 1134.18,1482.03 C1135.1,1481.11 1136.18,1480.65 1137.43,1480.65"/>
<polyline class="VoltaSegment" fill="none" stroke="#000000" stroke-width="2.50" stroke-linecap="square" stroke-linejoin="bevel" points="1093.06,1489.23 1093.06,1441.73"/>
<polyline class="VoltaSegment" fill="none" stroke="#000000" stroke-width="2.50" stroke-linecap="square" stroke-linejoin="bevel" points="1093.06,1441.73 1452.69,1441.73"/>
<polyline class="VoltaSegment" fill="none" stroke="#000000" stroke-width="2.50" stroke-linecap="square" stroke-linejoin="bevel" points="1452.69,1441.73 1452.69,1489.23"/>
<path class="VoltaSegment" d="M2305.46,987.873 C2308.25,980.394 2312.29,976.655 2317.56,976.655 C2320.53,976.655 2322.97,977.597 2324.88,979.483 C2326.79,981.368 2327.74,983.78 2327.74,986.717 C2327.74,990.748 2325.65,994.743 2321.46,998.702 L2312.56,1007.17 L2320.87,1007.17 C2323.69,1007.17 2325.5,1006.95 2326.31,1006.51 C2327.11,1006.06 2327.92,1004.85 2328.73,1002.87 L2330.04,1002.87 L2327.57,1014.48 L2304.7,1014.48 L2304.7,1013.22 C2310.97,1006.54 2315.13,1001.62 2317.18,998.452 C2319.23,995.285 2320.26,992.436 2320.26,989.905 C2320.26,988.03 2319.66,986.397 2318.45,985.006 C2317.24,983.616 2315.66,982.92 2313.71,982.92 C2310.89,982.92 2308.66,984.571 2307.01,987.873 L2305.46,987.873 M2338.64,1005.9 C2339.92,1005.9 2341.02,1006.37 2341.93,1007.3 C2342.85,1008.24 2343.31,1009.34 2343.31,1010.63 C2343.31,1011.92 2342.85,1013 2341.93,1013.88 C2341.02,1014.76 2339.9,1015.2 2338.57,1015.2 C2337.29,1015.2 2336.21,1014.75 2335.33,1013.85 C2334.45,1012.95 2334.01,1011.84 2334.01,1010.53 C2334.01,1009.28 2334.47,1008.2 2335.39,1007.28 C2336.3,1006.36 2337.39,1005.9 2338.64,1005.9"/>
<polyline class="VoltaSegment" fill="none" stroke="#000000" stroke-width="2.50" stroke-linecap="square" stroke-linejoin="bevel" points="2291.26,1014.48 2291.26,966.983"/>
<polyline class="VoltaSegment" fill="none" stroke="#000000" stroke-width="2.50" stroke-linecap="square" stroke-linejoin="bevel" points="2291.26,966.983 2645.97,966.983"/>
<polyline class="VoltaSegment" fill="none" stroke="#000000" stroke-width="2.50" stroke-linecap="square" stroke-linejoin="bevel" points="2645.97,966.983 2645.97,1014.48"/>
<path class="VoltaSegment" d="M2309.01,1061.2 C2308.57,1061.2 2308.05,1061.29 2307.45,1061.48 C2306.84,1061.66 2306.2,1061.88 2305.52,1062.13 C2304.84,1062.39 2304.44,1062.53 2304.34,1062.58 L2304.34,1061.14 L2318.2,1055.15 L2319.14,1055.15 L2319.14,1086.5 C2319.14,1088.62 2319.5,1090.01 2320.23,1090.65 C2320.96,1091.29 2322.57,1091.63 2325.07,1091.67 L2325.07,1092.98 L2304.45,1092.98 L2304.45,1091.67 C2307.16,1091.63 2308.92,1091.27 2309.75,1090.59 C2310.58,1089.92 2310.99,1088.44 2310.99,1086.17 L2310.99,1065 C2310.99,1062.47 2310.33,1061.2 2309.01,1061.2 M2335.64,1084.4 C2336.92,1084.4 2338.02,1084.87 2338.93,1085.8 C2339.85,1086.74 2340.31,1087.84 2340.31,1089.13 C2340.31,1090.42 2339.85,1091.5 2338.93,1092.38 C2338.02,1093.26 2336.9,1093.7 2335.57,1093.7 C2334.29,1093.7 2333.21,1093.25 2332.33,1092.35 C2331.45,1091.45 2331.01,1090.34 2331.01,1089.03 C2331.01,1087.78 2331.47,1086.7 2332.39,1085.78 C2333.3,1084.86 2334.39,1084.4 2335.64,1084.4"/>
<polyline class="VoltaSegment" fill="none" stroke="#000000" stroke-width="2.50" stroke-linecap="square" stroke-linejoin="bevel" points="2291.26,1092.98 2291.26,1045.48"/>
<polyline class="VoltaSegment" fill="none" stroke="#000000" stroke-width="2.50" stroke-linecap="square" stroke-linejoin="bevel" points="2291.26,1045.48 2593.47,1045.48"/>
<polyline class="VoltaSegment" fill="none" stroke="#000000" stroke-width="2.50" stroke-linecap="square" stroke-linejoin="bevel" points="2593.47,1045.48 2593.47,1092.98"/>
</svg>
