<?xml version="1.0" encoding="UTF-8" standalone="no"?>
<svg width="2977.2px" height="4208.4px" viewBox="0 0 2977.2 4208.4"
 xmlns="http://www.w3.org/2000/svg" xmlns:xlink="http://www.w3.org/1999/xlink" version="1.2" baseProfile="tiny">
<title>Mocanita</title>
<desc>Generated by MuseScore 3.0.2</desc>
<polyline class="StaffLines" fill="none" stroke="#000000" stroke-width="2.00" stroke-linejoin="bevel" points="141.732,566.733 2835.47,566.733"/>
<polyline class="StaffLines" fill="none" stroke="#000000" stroke-width="2.00" stroke-linejoin="bevel" points="141.732,591.733 2835.47,591.733"/>
<polyline class="StaffLines" fill="none" stroke="#000000" stroke-width="2.00" stroke-linejoin="bevel" points="141.732,616.733 2835.47,616.733"/>
<polyline class="StaffLines" fill="none" stroke="#000000" stroke-width="2.00" stroke-linejoin="bevel" points="141.732,641.733 2835.47,641.733"/>
<polyline class="StaffLines" fill="none" stroke="#000000" stroke-width="2.00" stroke-linejoin="bevel" points="141.732,666.733 2835.47,666.733"/>
<polyline class="StaffLines" fill="none" stroke="#000000" stroke-width="2.00" stroke-linejoin="bevel" points="141.732,1041.73 2835.47,1041.73"/>
<polyline class="StaffLines" fill="none" stroke="#000000" stroke-width="2.00" stroke-linejoin="bevel" points="141.732,1066.73 2835.47,1066.73"/>
<polyline class="StaffLines" fill="none" stroke="#000000" stroke-width="2.00" stroke-linejoin="bevel" points="141.732,1091.73 2835.47,1091.73"/>
<polyline class="StaffLines" fill="none" stroke="#000000" stroke-width="2.00" stroke-linejoin="bevel" points="141.732,1116.73 2835.47,1116.73"/>
<polyline class="StaffLines" fill="none" stroke="#000000" stroke-width="2.00" stroke-linejoin="bevel" points="141.732,1141.73 2835.47,1141.73"/>
<path class="Text" d="M1310.2,296.598 L1279.5,229.739 L1279.5,282.833 C1279.5,287.708 1280.02,290.755 1281.08,291.973 C1282.52,293.609 1284.81,294.427 1287.94,294.427 L1290.75,294.427 L1290.75,296.598 L1263.09,296.598 L1263.09,294.427 L1265.9,294.427 C1269.26,294.427 1271.64,293.411 1273.04,291.38 C1273.91,290.13 1274.34,287.281 1274.34,282.833 L1274.34,230.911 C1274.34,227.401 1273.95,224.864 1273.17,223.302 C1272.62,222.166 1271.61,221.218 1270.15,220.458 C1268.68,219.697 1266.33,219.317 1263.09,219.317 L1263.09,217.145 L1285.59,217.145 L1314.42,279.317 L1342.78,217.145 L1365.28,217.145 L1365.28,219.317 L1362.51,219.317 C1359.12,219.317 1356.72,220.333 1355.31,222.364 C1354.46,223.614 1354.03,226.463 1354.03,230.911 L1354.03,282.833 C1354.03,287.708 1354.58,290.755 1355.67,291.973 C1357.11,293.609 1359.39,294.427 1362.51,294.427 L1365.28,294.427 L1365.28,296.598 L1331.53,296.598 L1331.53,294.427 L1334.34,294.427 C1337.74,294.427 1340.12,293.411 1341.48,291.38 C1342.35,290.13 1342.78,287.281 1342.78,282.833 L1342.78,229.739 L1312.12,296.598 L1310.2,296.598 M1398.09,241.348 C1406.22,241.348 1412.74,244.432 1417.67,250.598 C1421.85,255.869 1423.94,261.927 1423.94,268.77 C1423.94,273.572 1422.78,278.434 1420.47,283.356 C1418.17,288.278 1414.99,291.989 1410.95,294.489 C1406.91,296.989 1402.41,298.239 1397.45,298.239 C1389.37,298.239 1382.94,295.015 1378.17,288.567 C1374.15,283.14 1372.14,277.046 1372.14,270.286 C1372.14,265.369 1373.36,260.479 1375.8,255.614 C1378.25,250.749 1381.46,247.156 1385.44,244.833 C1389.43,242.51 1393.64,241.348 1398.09,241.348 M1396.28,245.145 C1394.21,245.145 1392.13,245.762 1390.04,246.997 C1387.95,248.231 1386.26,250.39 1384.97,253.473 C1383.67,256.557 1383.03,260.52 1383.03,265.364 C1383.03,273.177 1384.58,279.916 1387.69,285.583 C1390.8,291.249 1394.89,294.083 1399.97,294.083 C1403.76,294.083 1406.88,292.52 1409.34,289.395 C1411.8,286.27 1413.03,280.895 1413.03,273.27 C1413.03,263.739 1410.98,256.239 1406.89,250.77 C1404.11,247.02 1400.57,245.145 1396.28,245.145 M1477.44,276.208 C1475.99,283.281 1473.15,288.721 1468.94,292.528 C1464.72,296.335 1460.05,298.239 1454.94,298.239 C1448.84,298.239 1443.53,295.679 1439,290.559 C1434.47,285.44 1432.2,278.526 1432.2,269.817 C1432.2,261.38 1434.71,254.526 1439.72,249.255 C1444.74,243.984 1450.76,241.348 1457.79,241.348 C1463.08,241.348 1467.41,242.744 1470.81,245.536 C1474.21,248.328 1475.9,251.229 1475.9,254.239 C1475.9,255.718 1475.42,256.916 1474.47,257.833 C1473.51,258.749 1472.17,259.208 1470.45,259.208 C1468.15,259.208 1466.41,258.468 1465.25,256.989 C1464.58,256.166 1464.14,254.604 1463.93,252.302 C1463.71,249.999 1462.92,248.239 1461.54,247.02 C1460.18,245.854 1458.29,245.27 1455.87,245.27 C1451.97,245.27 1448.82,246.713 1446.44,249.598 C1443.27,253.432 1441.69,258.494 1441.69,264.786 C1441.69,271.192 1443.26,276.846 1446.4,281.747 C1449.55,286.648 1453.8,289.098 1459.15,289.098 C1462.98,289.098 1466.41,287.791 1469.47,285.177 C1471.61,283.374 1473.7,280.109 1475.73,275.38 L1477.44,276.208 M1515.25,288.864 C1509.75,293.124 1506.29,295.583 1504.89,296.239 C1502.77,297.218 1500.52,297.708 1498.14,297.708 C1494.43,297.708 1491.38,296.44 1488.97,293.903 C1486.57,291.367 1485.37,288.026 1485.37,283.88 C1485.37,281.265 1485.96,278.999 1487.12,277.083 C1488.73,274.427 1491.51,271.927 1495.47,269.583 C1499.44,267.239 1506.03,264.39 1515.25,261.036 L1515.25,258.927 C1515.25,253.572 1514.4,249.898 1512.7,247.903 C1511,245.908 1508.53,244.911 1505.29,244.911 C1502.84,244.911 1500.88,245.578 1499.44,246.911 C1497.95,248.234 1497.2,249.755 1497.2,251.473 L1497.33,254.88 C1497.33,256.671 1496.87,258.057 1495.95,259.036 C1495.03,260.015 1493.83,260.505 1492.34,260.505 C1490.89,260.505 1489.71,259.997 1488.79,258.981 C1487.88,257.966 1487.42,256.578 1487.42,254.817 C1487.42,251.463 1489.14,248.38 1492.58,245.567 C1496.01,242.755 1500.84,241.348 1507.04,241.348 C1511.82,241.348 1515.72,242.145 1518.76,243.739 C1521.08,244.958 1522.78,246.854 1523.87,249.427 C1524.57,251.104 1524.92,254.541 1524.92,259.739 L1524.92,277.958 C1524.92,283.083 1525.02,286.221 1525.22,287.372 C1525.41,288.523 1525.74,289.294 1526.19,289.684 C1526.63,290.075 1527.15,290.27 1527.73,290.27 C1528.36,290.27 1528.9,290.135 1529.37,289.864 C1530.2,289.354 1531.78,287.927 1534.12,285.583 L1534.12,288.864 C1529.75,294.729 1525.57,297.661 1521.58,297.661 C1519.67,297.661 1518.15,296.994 1517.01,295.661 C1515.88,294.328 1515.29,292.062 1515.25,288.864 M1515.25,285.052 L1515.25,264.598 C1509.35,266.942 1505.54,268.604 1503.83,269.583 C1500.74,271.302 1498.54,273.098 1497.21,274.973 C1495.88,276.848 1495.22,278.901 1495.22,281.13 C1495.22,283.942 1496.06,286.276 1497.73,288.13 C1499.41,289.984 1501.34,290.911 1503.53,290.911 C1506.5,290.911 1510.4,288.958 1515.25,285.052 M1553.48,252.708 C1559.77,245.135 1565.77,241.348 1571.48,241.348 C1574.41,241.348 1576.93,242.08 1579.04,243.544 C1581.15,245.007 1582.83,247.416 1584.08,250.77 C1584.93,253.114 1585.36,256.708 1585.36,261.552 L1585.36,284.473 C1585.36,287.869 1585.63,290.171 1586.19,291.38 C1586.61,292.359 1587.31,293.122 1588.26,293.669 C1589.22,294.216 1590.99,294.489 1593.56,294.489 L1593.56,296.598 L1567.03,296.598 L1567.03,294.489 L1568.14,294.489 C1570.64,294.489 1572.39,294.109 1573.38,293.348 C1574.38,292.588 1575.07,291.463 1575.47,289.973 C1575.62,289.39 1575.7,287.557 1575.7,284.473 L1575.7,262.489 C1575.7,257.614 1575.07,254.072 1573.79,251.864 C1572.52,249.656 1570.38,248.552 1567.37,248.552 C1562.73,248.552 1558.1,251.088 1553.48,256.161 L1553.48,284.473 C1553.48,288.098 1553.7,290.343 1554.14,291.208 C1554.68,292.343 1555.43,293.174 1556.39,293.7 C1557.35,294.226 1559.29,294.489 1562.22,294.489 L1562.22,296.598 L1535.67,296.598 L1535.67,294.489 L1536.84,294.489 C1539.58,294.489 1541.43,293.796 1542.39,292.411 C1543.35,291.026 1543.83,288.38 1543.83,284.473 L1543.83,264.552 C1543.83,258.104 1543.68,254.177 1543.38,252.77 C1543.08,251.364 1542.63,250.406 1542.03,249.895 C1541.42,249.385 1540.62,249.13 1539.61,249.13 C1538.51,249.13 1537.2,249.427 1535.67,250.02 L1534.79,247.911 L1550.97,241.348 L1553.48,241.348 L1553.48,252.708 M1611.5,213.27 C1613.13,213.27 1614.53,213.848 1615.69,215.005 C1616.84,216.161 1617.42,217.557 1617.42,219.192 C1617.42,220.838 1616.84,222.247 1615.69,223.419 C1614.53,224.591 1613.13,225.177 1611.5,225.177 C1609.85,225.177 1608.44,224.591 1607.27,223.419 C1606.1,222.247 1605.51,220.838 1605.51,219.192 C1605.51,217.557 1606.09,216.161 1607.25,215.005 C1608.4,213.848 1609.82,213.27 1611.5,213.27 M1616.36,241.348 L1616.36,284.473 C1616.36,287.828 1616.6,290.062 1617.09,291.177 C1617.58,292.291 1618.31,293.122 1619.26,293.669 C1620.22,294.216 1621.97,294.489 1624.5,294.489 L1624.5,296.598 L1598.44,296.598 L1598.44,294.489 C1601.05,294.489 1602.81,294.234 1603.7,293.723 C1604.6,293.213 1605.31,292.372 1605.84,291.2 C1606.37,290.028 1606.64,287.786 1606.64,284.473 L1606.64,263.786 C1606.64,257.963 1606.46,254.192 1606.11,252.473 C1605.84,251.223 1605.41,250.354 1604.82,249.864 C1604.23,249.374 1603.43,249.13 1602.42,249.13 C1601.33,249.13 1600,249.427 1598.44,250.02 L1597.61,247.911 L1613.78,241.348 L1616.36,241.348 M1646.44,225.286 L1646.44,242.927 L1658.97,242.927 L1658.97,247.02 L1646.44,247.02 L1646.44,281.833 C1646.44,285.312 1646.93,287.656 1647.93,288.864 C1648.92,290.072 1650.2,290.677 1651.76,290.677 C1653.06,290.677 1654.31,290.276 1655.51,289.473 C1656.72,288.671 1657.66,287.489 1658.33,285.927 L1660.61,285.927 C1659.24,289.76 1657.31,292.643 1654.81,294.575 C1652.31,296.507 1649.73,297.473 1647.08,297.473 C1645.27,297.473 1643.51,296.976 1641.79,295.981 C1640.08,294.986 1638.81,293.562 1637.99,291.708 C1637.17,289.854 1636.76,286.989 1636.76,283.114 L1636.76,247.02 L1628.26,247.02 L1628.26,245.098 C1630.41,244.234 1632.61,242.776 1634.86,240.723 C1637.11,238.671 1639.11,236.239 1640.86,233.427 C1641.76,231.947 1643.01,229.234 1644.61,225.286 L1646.44,225.286 M1694.25,288.864 C1688.75,293.124 1685.29,295.583 1683.89,296.239 C1681.77,297.218 1679.52,297.708 1677.14,297.708 C1673.43,297.708 1670.38,296.44 1667.97,293.903 C1665.57,291.367 1664.37,288.026 1664.37,283.88 C1664.37,281.265 1664.96,278.999 1666.12,277.083 C1667.73,274.427 1670.51,271.927 1674.47,269.583 C1678.44,267.239 1685.03,264.39 1694.25,261.036 L1694.25,258.927 C1694.25,253.572 1693.4,249.898 1691.7,247.903 C1690,245.908 1687.53,244.911 1684.29,244.911 C1681.84,244.911 1679.88,245.578 1678.44,246.911 C1676.95,248.234 1676.2,249.755 1676.2,251.473 L1676.33,254.88 C1676.33,256.671 1675.87,258.057 1674.95,259.036 C1674.03,260.015 1672.83,260.505 1671.34,260.505 C1669.89,260.505 1668.71,259.997 1667.79,258.981 C1666.88,257.966 1666.42,256.578 1666.42,254.817 C1666.42,251.463 1668.14,248.38 1671.58,245.567 C1675.01,242.755 1679.84,241.348 1686.04,241.348 C1690.82,241.348 1694.72,242.145 1697.76,243.739 C1700.08,244.958 1701.78,246.854 1702.87,249.427 C1703.57,251.104 1703.92,254.541 1703.92,259.739 L1703.92,277.958 C1703.92,283.083 1704.02,286.221 1704.22,287.372 C1704.41,288.523 1704.74,289.294 1705.19,289.684 C1705.63,290.075 1706.15,290.27 1706.73,290.27 C1707.36,290.27 1707.9,290.135 1708.37,289.864 C1709.2,289.354 1710.78,287.927 1713.12,285.583 L1713.12,288.864 C1708.75,294.729 1704.57,297.661 1700.58,297.661 C1698.67,297.661 1697.15,296.994 1696.01,295.661 C1694.88,294.328 1694.29,292.062 1694.25,288.864 M1694.25,285.052 L1694.25,264.598 C1688.35,266.942 1684.54,268.604 1682.83,269.583 C1679.74,271.302 1677.54,273.098 1676.21,274.973 C1674.88,276.848 1674.22,278.901 1674.22,281.13 C1674.22,283.942 1675.06,286.276 1676.73,288.13 C1678.41,289.984 1680.34,290.911 1682.53,290.911 C1685.5,290.911 1689.4,288.958 1694.25,285.052"/>
<path class="MeasureNumber" d="M134.092,992.608 L133.967,991.811 C137.008,991.28 139.589,989.983 141.709,987.92 C143.829,985.858 145.3,983.196 146.123,979.936 C144.154,981.478 142.159,982.248 140.139,982.248 C137.972,982.248 136.23,981.501 134.912,980.006 C133.594,978.511 132.935,976.545 132.935,974.108 C132.935,971.399 133.727,969.142 135.31,967.334 C136.894,965.527 138.873,964.623 141.248,964.623 C143.831,964.623 145.951,965.681 147.607,967.795 C149.264,969.91 150.092,972.629 150.092,975.952 C150.092,977.014 149.998,978.108 149.81,979.233 C149.623,980.358 149.188,981.689 148.506,983.225 C147.823,984.761 146.938,986.136 145.849,987.35 C144.761,988.564 143.204,989.665 141.178,990.655 C139.152,991.644 136.79,992.295 134.092,992.608 M141.576,980.498 C142.076,980.498 142.646,980.426 143.287,980.28 C143.928,980.134 144.576,979.814 145.232,979.319 C145.889,978.824 146.217,978.217 146.217,977.498 L146.217,975.952 C146.217,969.191 144.456,965.811 140.935,965.811 C140.102,965.811 139.394,966.032 138.81,966.475 C138.227,966.918 137.782,967.496 137.474,968.209 C137.167,968.923 136.946,969.652 136.81,970.397 C136.675,971.142 136.607,971.931 136.607,972.764 C136.607,975.129 137.055,977.009 137.951,978.405 C138.847,979.801 140.055,980.498 141.576,980.498"/>
<path class="SlurSegment" stroke="#000000" stroke-width="1.75" stroke-linecap="round" stroke-linejoin="round" fill-rule="evenodd" d="M2399.86,994.233 C2421.77,967.539 2465.61,967.539 2487.52,994.233 C2465.61,971.539 2421.77,971.539 2399.86,994.233"/>
<path class="SlurSegment" stroke="#000000" stroke-width="1.75" stroke-linecap="round" stroke-linejoin="round" fill-rule="evenodd" d="M1696.4,994.233 C1754.68,949.896 1912.29,967.896 1959.08,1024.23 C1911.84,971.871 1754.23,953.871 1696.4,994.233"/>
<path class="SlurSegment" stroke="#000000" stroke-width="1.75" stroke-linecap="round" stroke-linejoin="round" fill-rule="evenodd" d="M1113.89,981.733 C1136.5,954.365 1181.71,954.365 1204.32,981.733 C1181.71,958.365 1136.5,958.365 1113.89,981.733"/>
<path class="SlurSegment" stroke="#000000" stroke-width="1.75" stroke-linecap="round" stroke-linejoin="round" fill-rule="evenodd" d="M407.666,994.233 C466.663,950.696 624.271,970.946 670.346,1027.98 C623.761,974.913 466.153,954.663 407.666,994.233"/>
<path class="SlurSegment" stroke="#000000" stroke-width="1.75" stroke-linecap="round" stroke-linejoin="round" fill-rule="evenodd" d="M2397.08,569.233 C2415.68,546.108 2452.87,546.108 2471.46,569.233 C2452.87,550.108 2415.68,550.108 2397.08,569.233"/>
<path class="SlurSegment" stroke="#000000" stroke-width="1.75" stroke-linecap="round" stroke-linejoin="round" fill-rule="evenodd" d="M2024.03,556.733 C2043.72,532.364 2083.1,532.364 2102.79,556.733 C2083.1,536.364 2043.72,536.364 2024.03,556.733"/>
<path class="SlurSegment" stroke="#000000" stroke-width="1.75" stroke-linecap="round" stroke-linejoin="round" fill-rule="evenodd" d="M1363.14,531.733 C1398.03,500.368 1460.98,506.618 1489.03,544.233 C1460.59,510.599 1397.64,504.349 1363.14,531.733"/>
<polyline class="BarLine" stroke="#000000" stroke-width="4.00" stroke-linejoin="bevel" points="2821.72,1040.73 2821.72,1142.73"/>
<polyline class="BarLine" stroke="#000000" stroke-width="12.50" stroke-linejoin="bevel" points="2829.22,1040.73 2829.22,1142.73"/>
<polyline class="BarLine" stroke="#000000" stroke-width="4.00" stroke-linejoin="bevel" points="2648.4,1040.73 2648.4,1142.73"/>
<polyline class="BarLine" stroke="#000000" stroke-width="4.00" stroke-linejoin="bevel" points="2254.73,1040.73 2254.73,1142.73"/>
<polyline class="BarLine" stroke="#000000" stroke-width="4.00" stroke-linejoin="bevel" points="2023.92,1040.73 2023.92,1142.73"/>
<polyline class="BarLine" stroke="#000000" stroke-width="4.00" stroke-linejoin="bevel" points="1638.94,1040.73 1638.94,1142.73"/>
<polyline class="BarLine" stroke="#000000" stroke-width="4.00" stroke-linejoin="bevel" points="1399.13,1040.73 1399.13,1142.73"/>
<polyline class="BarLine" stroke="#000000" stroke-width="4.00" stroke-linejoin="bevel" points="966,1040.73 966,1142.73"/>
<polyline class="BarLine" stroke="#000000" stroke-width="4.00" stroke-linejoin="bevel" points="735.185,1040.73 735.185,1142.73"/>
<path class="BarLine" d="M2801.97,608.233 C2800.86,607.128 2800.3,605.795 2800.3,604.233 C2800.3,602.67 2800.86,601.334 2801.97,600.225 C2803.08,599.115 2804.41,598.561 2805.98,598.561 C2807.54,598.561 2808.87,599.115 2809.98,600.225 C2811.08,601.334 2811.63,602.67 2811.63,604.233 C2811.63,605.795 2811.08,607.128 2809.98,608.233 C2808.87,609.337 2807.54,609.889 2805.98,609.889 C2804.41,609.889 2803.08,609.337 2801.97,608.233"/>
<path class="BarLine" d="M2801.97,633.233 C2800.86,632.128 2800.3,630.795 2800.3,629.233 C2800.3,627.67 2800.86,626.334 2801.97,625.225 C2803.08,624.115 2804.41,623.561 2805.98,623.561 C2807.54,623.561 2808.87,624.115 2809.98,625.225 C2811.08,626.334 2811.63,627.67 2811.63,629.233 C2811.63,630.795 2811.08,632.128 2809.98,633.233 C2808.87,634.337 2807.54,634.889 2805.98,634.889 C2804.41,634.889 2803.08,634.337 2801.97,633.233"/>
<polyline class="BarLine" stroke="#000000" stroke-width="4.00" stroke-linejoin="bevel" points="2821.72,565.733 2821.72,667.733"/>
<polyline class="BarLine" stroke="#000000" stroke-width="12.50" stroke-linejoin="bevel" points="2829.22,565.733 2829.22,667.733"/>
<polyline class="BarLine" stroke="#000000" stroke-width="4.00" stroke-linejoin="bevel" points="2605.77,565.733 2605.77,667.733"/>
<polyline class="BarLine" stroke="#000000" stroke-width="4.00" stroke-linejoin="bevel" points="2274.24,565.733 2274.24,667.733"/>
<polyline class="BarLine" stroke="#000000" stroke-width="4.00" stroke-linejoin="bevel" points="1896.8,565.733 1896.8,667.733"/>
<polyline class="BarLine" stroke="#000000" stroke-width="4.00" stroke-linejoin="bevel" points="1589.71,565.733 1589.71,667.733"/>
<polyline class="BarLine" stroke="#000000" stroke-width="4.00" stroke-linejoin="bevel" points="1214.12,565.733 1214.12,667.733"/>
<polyline class="BarLine" stroke="#000000" stroke-width="4.00" stroke-linejoin="bevel" points="952.947,565.733 952.947,667.733"/>
<polyline class="BarLine" stroke="#000000" stroke-width="4.00" stroke-linejoin="bevel" points="691.777,565.733 691.777,667.733"/>
<polyline class="BarLine" stroke="#000000" stroke-width="12.50" stroke-linejoin="bevel" points="403.693,565.733 403.693,667.733"/>
<polyline class="BarLine" stroke="#000000" stroke-width="4.00" stroke-linejoin="bevel" points="411.193,565.733 411.193,667.733"/>
<path class="BarLine" d="M422.936,608.233 C421.826,607.128 421.272,605.795 421.272,604.233 C421.272,602.67 421.826,601.334 422.936,600.225 C424.045,599.115 425.381,598.561 426.943,598.561 C428.506,598.561 429.839,599.115 430.943,600.225 C432.048,601.334 432.6,602.67 432.6,604.233 C432.6,605.795 432.048,607.128 430.943,608.233 C429.839,609.337 428.506,609.889 426.943,609.889 C425.381,609.889 424.045,609.337 422.936,608.233"/>
<path class="BarLine" d="M422.936,633.233 C421.826,632.128 421.272,630.795 421.272,629.233 C421.272,627.67 421.826,626.334 422.936,625.225 C424.045,624.115 425.381,623.561 426.943,623.561 C428.506,623.561 429.839,624.115 430.943,625.225 C432.048,626.334 432.6,627.67 432.6,629.233 C432.6,630.795 432.048,632.128 430.943,633.233 C429.839,634.337 428.506,634.889 426.943,634.889 C425.381,634.889 424.045,634.337 422.936,633.233"/>
<path class="Accidental" d="M2547.27,1060.39 C2547.27,1061.63 2546.66,1062.25 2545.42,1062.25 C2544.19,1062.25 2543.57,1061.63 2543.57,1060.39 L2543.57,1045.94 L2535.27,1049.06 L2535.27,1064.87 C2535.27,1066.11 2534.65,1066.73 2533.41,1066.73 C2532.17,1066.73 2531.55,1066.11 2531.55,1064.87 L2531.55,1050.33 L2528.43,1051.5 C2528.37,1051.56 2528.11,1051.59 2527.65,1051.59 C2527.13,1051.59 2526.67,1051.4 2526.28,1051.01 C2525.89,1050.62 2525.7,1050.16 2525.7,1049.64 L2525.7,1043.59 C2525.7,1042.61 2526.12,1041.99 2526.96,1041.73 L2531.55,1040.17 L2531.55,1024.15 L2528.43,1025.23 C2528.37,1025.3 2528.11,1025.33 2527.65,1025.33 C2527.13,1025.33 2526.67,1025.13 2526.28,1024.74 C2525.89,1024.35 2525.7,1023.89 2525.7,1023.37 L2525.7,1017.31 C2525.7,1016.4 2526.12,1015.82 2526.96,1015.56 L2531.55,1013.8 L2531.55,998.077 C2531.55,996.837 2532.17,996.217 2533.41,996.217 C2534.65,996.217 2535.27,996.837 2535.27,998.077 L2535.27,1012.53 L2543.57,1009.4 L2543.57,993.592 C2543.57,992.353 2544.19,991.733 2545.42,991.733 C2546.66,991.733 2547.27,992.353 2547.27,993.592 L2547.27,1008.14 L2550.51,1006.97 C2550.57,1006.9 2550.79,1006.87 2551.18,1006.87 C2551.64,1006.87 2552.13,1007.07 2552.65,1007.45 C2553.04,1007.85 2553.24,1008.31 2553.24,1008.83 L2553.24,1014.87 C2553.24,1015.79 2552.78,1016.41 2551.87,1016.73 L2547.27,1018.3 L2547.27,1034.31 L2550.51,1033.23 C2550.57,1033.17 2550.79,1033.14 2551.18,1033.14 C2551.64,1033.14 2552.13,1033.34 2552.65,1033.73 C2553.04,1034.12 2553.24,1034.57 2553.24,1035.09 L2553.24,1041.15 C2553.24,1042 2552.78,1042.58 2551.87,1042.9 L2547.27,1044.67 L2547.27,1060.39 M2543.57,1019.76 L2535.27,1022.69 L2535.27,1038.7 L2543.57,1035.78 L2543.57,1019.76 "/>
<path class="Accidental" d="M1323.01,516.733 C1323.85,516.274 1324.7,516.045 1325.55,516.045 C1326.39,516.045 1327.24,516.274 1328.08,516.733 L1327.79,534.998 L1338.44,533.045 L1338.83,533.045 C1340,533.045 1340.58,533.597 1340.58,534.701 L1341.27,591.733 C1340.43,592.191 1339.58,592.42 1338.73,592.42 C1337.88,592.42 1337.04,592.191 1336.19,591.733 L1336.49,573.467 L1325.94,575.42 L1325.55,575.42 C1324.38,575.42 1323.79,574.868 1323.79,573.764 L1323.01,516.733 M1336.58,563.701 L1336.88,542.998 L1327.69,544.764 L1327.4,565.467 L1336.58,563.701 "/>
<polyline class="LedgerLine" stroke="#000000" stroke-width="3.00" stroke-linecap="square" stroke-linejoin="bevel" points="2681.9,1016.73 2731.62,1016.73"/>
<polyline class="LedgerLine" stroke="#000000" stroke-width="3.00" stroke-linecap="square" stroke-linejoin="bevel" points="2463.57,1016.73 2511.48,1016.73"/>
<polyline class="LedgerLine" stroke="#000000" stroke-width="3.00" stroke-linecap="square" stroke-linejoin="bevel" points="2375.9,1016.73 2423.81,1016.73"/>
<polyline class="LedgerLine" stroke="#000000" stroke-width="3.00" stroke-linecap="square" stroke-linejoin="bevel" points="2288.23,1016.73 2336.15,1016.73"/>
<polyline class="LedgerLine" stroke="#000000" stroke-width="3.00" stroke-linecap="square" stroke-linejoin="bevel" points="2178.54,1016.73 2226.45,1016.73"/>
<polyline class="LedgerLine" stroke="#000000" stroke-width="3.00" stroke-linecap="square" stroke-linejoin="bevel" points="1792.62,1016.73 1840.54,1016.73"/>
<polyline class="LedgerLine" stroke="#000000" stroke-width="3.00" stroke-linecap="square" stroke-linejoin="bevel" points="1672.44,1016.73 1720.36,1016.73"/>
<polyline class="LedgerLine" stroke="#000000" stroke-width="3.00" stroke-linecap="square" stroke-linejoin="bevel" points="1432.63,1016.73 1480.54,1016.73"/>
<polyline class="LedgerLine" stroke="#000000" stroke-width="3.00" stroke-linecap="square" stroke-linejoin="bevel" points="1331.71,1016.73 1379.63,1016.73"/>
<polyline class="LedgerLine" stroke="#000000" stroke-width="3.00" stroke-linecap="square" stroke-linejoin="bevel" points="1270.8,1016.73 1318.71,1016.73"/>
<polyline class="LedgerLine" stroke="#000000" stroke-width="3.00" stroke-linecap="square" stroke-linejoin="bevel" points="1180.37,1016.73 1228.28,1016.73"/>
<polyline class="LedgerLine" stroke="#000000" stroke-width="3.00" stroke-linecap="square" stroke-linejoin="bevel" points="1089.93,1016.73 1137.85,1016.73"/>
<polyline class="LedgerLine" stroke="#000000" stroke-width="3.00" stroke-linecap="square" stroke-linejoin="bevel" points="999.5,1016.73 1047.41,1016.73"/>
<polyline class="LedgerLine" stroke="#000000" stroke-width="3.00" stroke-linecap="square" stroke-linejoin="bevel" points="503.889,1016.73 551.803,1016.73"/>
<polyline class="LedgerLine" stroke="#000000" stroke-width="3.00" stroke-linecap="square" stroke-linejoin="bevel" points="383.709,1016.73 431.623,1016.73"/>
<polyline class="LedgerLine" stroke="#000000" stroke-width="3.00" stroke-linecap="square" stroke-linejoin="bevel" points="1247.62,541.733 1295.53,541.733"/>
<polyline class="Stem" stroke="#000000" stroke-width="3.25" stroke-linecap="round" stroke-linejoin="bevel" points="2691.03,1020.65 2691.03,1104.23"/>
<polyline class="Stem" stroke="#000000" stroke-width="3.25" stroke-linecap="round" stroke-linejoin="bevel" points="2560.36,1033.93 2560.36,1097.98"/>
<polyline class="Stem" stroke="#000000" stroke-width="3.25" stroke-linecap="round" stroke-linejoin="bevel" points="2472.69,1021.43 2472.69,1091.73"/>
<polyline class="Stem" stroke="#000000" stroke-width="3.25" stroke-linecap="round" stroke-linejoin="bevel" points="2385.02,1021.43 2385.02,1091.73"/>
<polyline class="Stem" stroke="#000000" stroke-width="3.25" stroke-linecap="round" stroke-linejoin="bevel" points="2297.36,1008.93 2297.36,1085.48"/>
<polyline class="Stem" stroke="#000000" stroke-width="3.25" stroke-linecap="round" stroke-linejoin="bevel" points="2187.66,1008.93 2187.66,1091.73"/>
<polyline class="Stem" stroke="#000000" stroke-width="3.25" stroke-linecap="round" stroke-linejoin="bevel" points="2057.54,1046.43 2057.54,1129.23"/>
<polyline class="Stem" stroke="#000000" stroke-width="3.25" stroke-linecap="round" stroke-linejoin="bevel" points="1965.63,1058.93 1965.63,1135.48"/>
<polyline class="Stem" stroke="#000000" stroke-width="3.25" stroke-linecap="round" stroke-linejoin="bevel" points="1911,1046.43 1911,1127.15"/>
<polyline class="Stem" stroke="#000000" stroke-width="3.25" stroke-linecap="round" stroke-linejoin="bevel" points="1856.37,1033.93 1856.37,1118.82"/>
<polyline class="Stem" stroke="#000000" stroke-width="3.25" stroke-linecap="round" stroke-linejoin="bevel" points="1801.75,1021.43 1801.75,1110.48"/>
<polyline class="Stem" stroke="#000000" stroke-width="3.25" stroke-linecap="round" stroke-linejoin="bevel" points="1681.57,1021.43 1681.57,1104.23"/>
<polyline class="Stem" stroke="#000000" stroke-width="3.25" stroke-linecap="round" stroke-linejoin="bevel" points="1508.45,1058.93 1508.45,1141.73"/>
<polyline class="Stem" stroke="#000000" stroke-width="3.25" stroke-linecap="round" stroke-linejoin="bevel" points="1441.75,1021.43 1441.75,1104.23"/>
<polyline class="Stem" stroke="#000000" stroke-width="3.25" stroke-linecap="round" stroke-linejoin="bevel" points="1340.84,1008.93 1340.84,1091.73"/>
<polyline class="Stem" stroke="#000000" stroke-width="3.25" stroke-linecap="round" stroke-linejoin="bevel" points="1279.92,1021.43 1279.92,1091.73"/>
<polyline class="Stem" stroke="#000000" stroke-width="3.25" stroke-linecap="round" stroke-linejoin="bevel" points="1189.49,1008.93 1189.49,1091.73"/>
<polyline class="Stem" stroke="#000000" stroke-width="3.25" stroke-linecap="round" stroke-linejoin="bevel" points="1099.06,1008.93 1099.06,1085.48"/>
<polyline class="Stem" stroke="#000000" stroke-width="3.25" stroke-linecap="round" stroke-linejoin="bevel" points="1008.63,1021.43 1008.63,1091.73"/>
<polyline class="Stem" stroke="#000000" stroke-width="3.25" stroke-linecap="round" stroke-linejoin="bevel" points="898.93,1033.93 898.93,1116.73"/>
<polyline class="Stem" stroke="#000000" stroke-width="3.25" stroke-linecap="round" stroke-linejoin="bevel" points="768.81,1046.43 768.81,1129.23"/>
<polyline class="Stem" stroke="#000000" stroke-width="3.25" stroke-linecap="round" stroke-linejoin="bevel" points="676.896,1058.93 676.896,1135.48"/>
<polyline class="Stem" stroke="#000000" stroke-width="3.25" stroke-linecap="round" stroke-linejoin="bevel" points="622.268,1046.43 622.268,1127.15"/>
<polyline class="Stem" stroke="#000000" stroke-width="3.25" stroke-linecap="round" stroke-linejoin="bevel" points="567.641,1033.93 567.641,1118.82"/>
<polyline class="Stem" stroke="#000000" stroke-width="3.25" stroke-linecap="round" stroke-linejoin="bevel" points="513.014,1021.43 513.014,1110.48"/>
<polyline class="Stem" stroke="#000000" stroke-width="3.25" stroke-linecap="round" stroke-linejoin="bevel" points="392.834,1021.43 392.834,1104.23"/>
<polyline class="Stem" stroke="#000000" stroke-width="3.25" stroke-linecap="round" stroke-linejoin="bevel" points="2640.29,595.653 2640.29,676.108"/>
<polyline class="Stem" stroke="#000000" stroke-width="3.25" stroke-linecap="round" stroke-linejoin="bevel" points="2531.01,608.928 2531.01,672.983"/>
<polyline class="Stem" stroke="#000000" stroke-width="3.25" stroke-linecap="round" stroke-linejoin="bevel" points="2456.63,596.428 2456.63,666.733"/>
<polyline class="Stem" stroke="#000000" stroke-width="3.25" stroke-linecap="round" stroke-linejoin="bevel" points="2382.25,596.428 2382.25,666.733"/>
<polyline class="Stem" stroke="#000000" stroke-width="3.25" stroke-linecap="round" stroke-linejoin="bevel" points="2307.87,571.428 2307.87,641.733"/>
<polyline class="Stem" stroke="#000000" stroke-width="3.25" stroke-linecap="round" stroke-linejoin="bevel" points="2215.95,583.928 2215.95,666.733"/>
<polyline class="Stem" stroke="#000000" stroke-width="3.25" stroke-linecap="round" stroke-linejoin="bevel" points="2166.73,596.428 2166.73,666.733"/>
<polyline class="Stem" stroke="#000000" stroke-width="3.25" stroke-linecap="round" stroke-linejoin="bevel" points="2087.96,583.928 2087.96,666.733"/>
<polyline class="Stem" stroke="#000000" stroke-width="3.25" stroke-linecap="round" stroke-linejoin="bevel" points="2009.19,583.928 2009.19,660.483"/>
<polyline class="Stem" stroke="#000000" stroke-width="3.25" stroke-linecap="round" stroke-linejoin="bevel" points="1930.43,596.428 1930.43,666.733"/>
<polyline class="Stem" stroke="#000000" stroke-width="3.25" stroke-linecap="round" stroke-linejoin="bevel" points="1836.42,596.428 1836.42,666.733"/>
<polyline class="Stem" stroke="#000000" stroke-width="3.25" stroke-linecap="round" stroke-linejoin="bevel" points="1776.41,583.928 1776.41,660.483"/>
<polyline class="Stem" stroke="#000000" stroke-width="3.25" stroke-linecap="round" stroke-linejoin="bevel" points="1623.34,571.428 1623.34,654.233"/>
<polyline class="Stem" stroke="#000000" stroke-width="3.25" stroke-linecap="round" stroke-linejoin="bevel" points="1531.43,583.928 1531.43,666.733"/>
<polyline class="Stem" stroke="#000000" stroke-width="3.25" stroke-linecap="round" stroke-linejoin="bevel" points="1474.2,571.428 1474.2,660.483"/>
<polyline class="Stem" stroke="#000000" stroke-width="3.25" stroke-linecap="round" stroke-linejoin="bevel" points="1348.3,558.928 1348.3,641.733"/>
<polyline class="Stem" stroke="#000000" stroke-width="3.25" stroke-linecap="round" stroke-linejoin="bevel" points="1256.74,546.428 1256.74,629.233"/>
<polyline class="Stem" stroke="#000000" stroke-width="3.25" stroke-linecap="round" stroke-linejoin="bevel" points="1136.76,571.428 1136.76,654.233"/>
<polyline class="Stem" stroke="#000000" stroke-width="3.25" stroke-linecap="round" stroke-linejoin="bevel" points="986.572,596.428 986.572,676.108"/>
<polyline class="Stem" stroke="#000000" stroke-width="3.25" stroke-linecap="round" stroke-linejoin="bevel" points="832.047,624.537 832.047,547.983"/>
<polyline class="Stem" stroke="#000000" stroke-width="3.25" stroke-linecap="round" stroke-linejoin="bevel" points="725.402,596.428 725.402,679.233"/>
<polyline class="Stem" stroke="#000000" stroke-width="3.25" stroke-linecap="round" stroke-linejoin="bevel" points="614.421,583.928 614.421,666.733"/>
<polyline class="Stem" stroke="#000000" stroke-width="3.25" stroke-linecap="round" stroke-linejoin="bevel" points="464.232,571.428 464.232,654.233"/>
<path class="Note" d="M2720.95,1010.19 C2720.95,1009.08 2720.53,1008.14 2719.68,1007.36 C2718.83,1006.51 2717.85,1006.09 2716.75,1006.09 C2714.8,1006.09 2710.86,1008.05 2704.93,1011.95 C2698.81,1015.92 2695.06,1018.75 2693.7,1020.45 C2692.98,1021.36 2692.62,1022.3 2692.62,1023.28 C2692.62,1024.38 2693.05,1025.33 2693.9,1026.11 C2694.68,1026.95 2695.66,1027.37 2696.82,1027.37 C2698.71,1027.37 2702.68,1025.42 2708.75,1021.51 C2714.74,1017.61 2718.44,1014.77 2719.87,1013.01 C2720.59,1012.17 2720.95,1011.23 2720.95,1010.19 M2715.78,1002.97 C2721.37,1002.97 2724.17,1005.37 2724.17,1010.19 C2724.17,1012.53 2723.49,1015.26 2722.12,1018.39 C2720.76,1021.45 2718.93,1023.8 2716.65,1025.42 C2711.64,1028.81 2705.36,1030.5 2697.81,1030.5 C2692.2,1030.5 2689.4,1028.09 2689.4,1023.28 C2689.4,1021.13 2690.08,1018.43 2691.45,1015.17 C2692.75,1012.05 2694.57,1009.67 2696.92,1008.05 C2701.94,1004.66 2708.22,1002.97 2715.78,1002.97"/>
<path class="Note" d="M2580.7,1015.47 C2583.83,1015.47 2586.47,1016.28 2588.63,1017.9 C2590.64,1019.67 2591.64,1021.88 2591.64,1024.55 C2591.64,1029.03 2589.33,1033.23 2584.72,1037.14 C2580.03,1041.05 2575.02,1043 2569.67,1043 C2566.55,1043 2563.91,1042.19 2561.77,1040.56 C2559.74,1038.8 2558.73,1036.59 2558.73,1033.92 C2558.73,1029.43 2561.08,1025.23 2565.77,1021.33 C2570.33,1017.42 2575.31,1015.47 2580.7,1015.47"/>
<path class="Note" d="M2493.04,1002.97 C2496.16,1002.97 2498.8,1003.78 2500.96,1005.4 C2502.97,1007.17 2503.97,1009.38 2503.97,1012.05 C2503.97,1016.53 2501.67,1020.73 2497.05,1024.64 C2492.36,1028.55 2487.35,1030.5 2482,1030.5 C2478.88,1030.5 2476.24,1029.69 2474.1,1028.06 C2472.08,1026.3 2471.07,1024.09 2471.07,1021.42 C2471.07,1016.93 2473.41,1012.73 2478.1,1008.83 C2482.66,1004.92 2487.64,1002.97 2493.04,1002.97"/>
<path class="Note" d="M2405.37,1002.97 C2408.49,1002.97 2411.13,1003.78 2413.29,1005.4 C2415.3,1007.17 2416.31,1009.38 2416.31,1012.05 C2416.31,1016.53 2414,1020.73 2409.38,1024.64 C2404.7,1028.55 2399.68,1030.5 2394.34,1030.5 C2391.21,1030.5 2388.58,1029.69 2386.43,1028.06 C2384.41,1026.3 2383.4,1024.09 2383.4,1021.42 C2383.4,1016.93 2385.74,1012.73 2390.43,1008.83 C2394.99,1004.92 2399.97,1002.97 2405.37,1002.97"/>
<path class="Note" d="M2317.7,990.467 C2320.83,990.467 2323.47,991.28 2325.62,992.905 C2327.63,994.665 2328.64,996.879 2328.64,999.545 C2328.64,1004.03 2326.33,1008.23 2321.72,1012.14 C2317.03,1016.05 2312.01,1018 2306.67,1018 C2303.54,1018 2300.91,1017.19 2298.76,1015.56 C2296.74,1013.8 2295.73,1011.59 2295.73,1008.92 C2295.73,1004.43 2298.08,1000.23 2302.76,996.327 C2307.33,992.42 2312.31,990.467 2317.7,990.467"/>
<path class="Note" d="M2208.01,990.467 C2211.13,990.467 2213.77,991.28 2215.93,992.905 C2217.94,994.665 2218.94,996.879 2218.94,999.545 C2218.94,1004.03 2216.64,1008.23 2212.02,1012.14 C2207.33,1016.05 2202.32,1018 2196.97,1018 C2193.85,1018 2191.21,1017.19 2189.07,1015.56 C2187.05,1013.8 2186.04,1011.59 2186.04,1008.92 C2186.04,1004.43 2188.38,1000.23 2193.07,996.327 C2197.63,992.42 2202.61,990.467 2208.01,990.467"/>
<path class="Note" d="M2077.89,1027.97 C2081.01,1027.97 2083.65,1028.78 2085.81,1030.4 C2087.82,1032.17 2088.82,1034.38 2088.82,1037.05 C2088.82,1041.53 2086.52,1045.73 2081.9,1049.64 C2077.21,1053.55 2072.2,1055.5 2066.85,1055.5 C2063.73,1055.5 2061.09,1054.69 2058.95,1053.06 C2056.93,1051.3 2055.92,1049.09 2055.92,1046.42 C2055.92,1041.93 2058.26,1037.73 2062.95,1033.83 C2067.51,1029.92 2072.49,1027.97 2077.89,1027.97"/>
<path class="Note" d="M1985.97,1040.47 C1989.1,1040.47 1991.74,1041.28 1993.89,1042.9 C1995.9,1044.67 1996.91,1046.88 1996.91,1049.55 C1996.91,1054.03 1994.6,1058.23 1989.99,1062.14 C1985.3,1066.05 1980.28,1068 1974.94,1068 C1971.82,1068 1969.18,1067.19 1967.03,1065.56 C1965.01,1063.8 1964,1061.59 1964,1058.92 C1964,1054.43 1966.35,1050.23 1971.03,1046.33 C1975.6,1042.42 1980.58,1040.47 1985.97,1040.47"/>
<path class="Note" d="M1931.34,1027.97 C1934.47,1027.97 1937.11,1028.78 1939.27,1030.4 C1941.28,1032.17 1942.28,1034.38 1942.28,1037.05 C1942.28,1041.53 1939.97,1045.73 1935.36,1049.64 C1930.67,1053.55 1925.66,1055.5 1920.31,1055.5 C1917.19,1055.5 1914.55,1054.69 1912.41,1053.06 C1910.39,1051.3 1909.38,1049.09 1909.38,1046.42 C1909.38,1041.93 1911.72,1037.73 1916.41,1033.83 C1920.97,1029.92 1925.95,1027.97 1931.34,1027.97"/>
<path class="Note" d="M1876.72,1015.47 C1879.84,1015.47 1882.48,1016.28 1884.64,1017.9 C1886.65,1019.67 1887.65,1021.88 1887.65,1024.55 C1887.65,1029.03 1885.35,1033.23 1880.73,1037.14 C1876.05,1041.05 1871.03,1043 1865.69,1043 C1862.56,1043 1859.93,1042.19 1857.78,1040.56 C1855.76,1038.8 1854.75,1036.59 1854.75,1033.92 C1854.75,1029.43 1857.09,1025.23 1861.78,1021.33 C1866.34,1017.42 1871.32,1015.47 1876.72,1015.47"/>
<path class="Note" d="M1822.09,1002.97 C1825.21,1002.97 1827.86,1003.78 1830.01,1005.4 C1832.02,1007.17 1833.03,1009.38 1833.03,1012.05 C1833.03,1016.53 1830.72,1020.73 1826.11,1024.64 C1821.42,1028.55 1816.4,1030.5 1811.06,1030.5 C1807.93,1030.5 1805.3,1029.69 1803.15,1028.06 C1801.13,1026.3 1800.12,1024.09 1800.12,1021.42 C1800.12,1016.93 1802.46,1012.73 1807.15,1008.83 C1811.71,1004.92 1816.69,1002.97 1822.09,1002.97"/>
<path class="Note" d="M1701.91,1002.97 C1705.03,1002.97 1707.68,1003.78 1709.83,1005.4 C1711.84,1007.17 1712.85,1009.38 1712.85,1012.05 C1712.85,1016.53 1710.54,1020.73 1705.93,1024.64 C1701.24,1028.55 1696.22,1030.5 1690.88,1030.5 C1687.75,1030.5 1685.12,1029.69 1682.97,1028.06 C1680.95,1026.3 1679.94,1024.09 1679.94,1021.42 C1679.94,1016.93 1682.28,1012.73 1686.97,1008.83 C1691.53,1004.92 1696.51,1002.97 1701.91,1002.97"/>
<path class="Note" d="M1528.79,1040.47 C1531.91,1040.47 1534.56,1041.28 1536.71,1042.9 C1538.72,1044.67 1539.73,1046.88 1539.73,1049.55 C1539.73,1054.03 1537.42,1058.23 1532.81,1062.14 C1528.12,1066.05 1523.1,1068 1517.76,1068 C1514.63,1068 1512,1067.19 1509.85,1065.56 C1507.83,1063.8 1506.82,1061.59 1506.82,1058.92 C1506.82,1054.43 1509.16,1050.23 1513.85,1046.33 C1518.41,1042.42 1523.39,1040.47 1528.79,1040.47"/>
<path class="Note" d="M1462.09,1002.97 C1465.22,1002.97 1467.86,1003.78 1470.02,1005.4 C1472.03,1007.17 1473.03,1009.38 1473.03,1012.05 C1473.03,1016.53 1470.72,1020.73 1466.11,1024.64 C1461.42,1028.55 1456.41,1030.5 1451.06,1030.5 C1447.94,1030.5 1445.3,1029.69 1443.16,1028.06 C1441.14,1026.3 1440.13,1024.09 1440.13,1021.42 C1440.13,1016.93 1442.47,1012.73 1447.16,1008.83 C1451.72,1004.92 1456.7,1002.97 1462.09,1002.97"/>
<path class="Note" d="M1361.18,990.467 C1364.31,990.467 1366.95,991.28 1369.1,992.905 C1371.11,994.665 1372.12,996.879 1372.12,999.545 C1372.12,1004.03 1369.81,1008.23 1365.2,1012.14 C1360.51,1016.05 1355.49,1018 1350.15,1018 C1347.02,1018 1344.39,1017.19 1342.24,1015.56 C1340.22,1013.8 1339.21,1011.59 1339.21,1008.92 C1339.21,1004.43 1341.56,1000.23 1346.24,996.327 C1350.81,992.42 1355.78,990.467 1361.18,990.467"/>
<path class="Note" d="M1300.27,1002.97 C1303.39,1002.97 1306.03,1003.78 1308.19,1005.4 C1310.2,1007.17 1311.2,1009.38 1311.2,1012.05 C1311.2,1016.53 1308.9,1020.73 1304.28,1024.64 C1299.59,1028.55 1294.58,1030.5 1289.24,1030.5 C1286.11,1030.5 1283.47,1029.69 1281.33,1028.06 C1279.31,1026.3 1278.3,1024.09 1278.3,1021.42 C1278.3,1016.93 1280.64,1012.73 1285.33,1008.83 C1289.89,1004.92 1294.87,1002.97 1300.27,1002.97"/>
<path class="Note" d="M1209.83,990.467 C1212.96,990.467 1215.6,991.28 1217.76,992.905 C1219.77,994.665 1220.77,996.879 1220.77,999.545 C1220.77,1004.03 1218.46,1008.23 1213.85,1012.14 C1209.16,1016.05 1204.15,1018 1198.8,1018 C1195.68,1018 1193.04,1017.19 1190.9,1015.56 C1188.88,1013.8 1187.87,1011.59 1187.87,1008.92 C1187.87,1004.43 1190.21,1000.23 1194.9,996.327 C1199.46,992.42 1204.44,990.467 1209.83,990.467"/>
<path class="Note" d="M1119.4,990.467 C1122.53,990.467 1125.17,991.28 1127.32,992.905 C1129.33,994.665 1130.34,996.879 1130.34,999.545 C1130.34,1004.03 1128.03,1008.23 1123.42,1012.14 C1118.73,1016.05 1113.71,1018 1108.37,1018 C1105.25,1018 1102.61,1017.19 1100.46,1015.56 C1098.44,1013.8 1097.43,1011.59 1097.43,1008.92 C1097.43,1004.43 1099.78,1000.23 1104.46,996.327 C1109.03,992.42 1114.01,990.467 1119.4,990.467"/>
<path class="Note" d="M1028.97,1002.97 C1032.09,1002.97 1034.73,1003.78 1036.89,1005.4 C1038.9,1007.17 1039.91,1009.38 1039.91,1012.05 C1039.91,1016.53 1037.6,1020.73 1032.98,1024.64 C1028.3,1028.55 1023.28,1030.5 1017.94,1030.5 C1014.81,1030.5 1012.18,1029.69 1010.03,1028.06 C1008.01,1026.3 1007,1024.09 1007,1021.42 C1007,1016.93 1009.34,1012.73 1014.03,1008.83 C1018.59,1004.92 1023.57,1002.97 1028.97,1002.97"/>
<path class="Note" d="M919.274,1015.47 C922.399,1015.47 925.04,1016.28 927.196,1017.9 C929.206,1019.67 930.211,1021.88 930.211,1024.55 C930.211,1029.03 927.904,1033.23 923.29,1037.14 C918.602,1041.05 913.586,1043 908.243,1043 C905.118,1043 902.482,1042.19 900.336,1040.56 C898.316,1038.8 897.305,1036.59 897.305,1033.92 C897.305,1029.43 899.649,1025.23 904.336,1021.33 C908.899,1017.42 913.878,1015.47 919.274,1015.47"/>
<path class="Note" d="M789.154,1027.97 C792.279,1027.97 794.919,1028.78 797.075,1030.4 C799.086,1032.17 800.091,1034.38 800.091,1037.05 C800.091,1041.53 797.784,1045.73 793.169,1049.64 C788.482,1053.55 783.466,1055.5 778.122,1055.5 C774.997,1055.5 772.362,1054.69 770.216,1053.06 C768.195,1051.3 767.185,1049.09 767.185,1046.42 C767.185,1041.93 769.529,1037.73 774.216,1033.83 C778.779,1029.92 783.758,1027.97 789.154,1027.97"/>
<path class="Note" d="M697.239,1040.47 C700.364,1040.47 703.005,1041.28 705.161,1042.9 C707.172,1044.67 708.177,1046.88 708.177,1049.55 C708.177,1054.03 705.87,1058.23 701.255,1062.14 C696.568,1066.05 691.552,1068 686.208,1068 C683.083,1068 680.448,1067.19 678.302,1065.56 C676.281,1063.8 675.271,1061.59 675.271,1058.92 C675.271,1054.43 677.614,1050.23 682.302,1046.33 C686.864,1042.42 691.844,1040.47 697.239,1040.47"/>
<path class="Note" d="M642.612,1027.97 C645.737,1027.97 648.378,1028.78 650.534,1030.4 C652.545,1032.17 653.55,1034.38 653.55,1037.05 C653.55,1041.53 651.242,1045.73 646.628,1049.64 C641.94,1053.55 636.925,1055.5 631.581,1055.5 C628.456,1055.5 625.821,1054.69 623.675,1053.06 C621.654,1051.3 620.643,1049.09 620.643,1046.42 C620.643,1041.93 622.987,1037.73 627.675,1033.83 C632.237,1029.92 637.216,1027.97 642.612,1027.97"/>
<path class="Note" d="M587.985,1015.47 C591.11,1015.47 593.751,1016.28 595.907,1017.9 C597.917,1019.67 598.922,1021.88 598.922,1024.55 C598.922,1029.03 596.615,1033.23 592.001,1037.14 C587.313,1041.05 582.297,1043 576.954,1043 C573.829,1043 571.193,1042.19 569.047,1040.56 C567.027,1038.8 566.016,1036.59 566.016,1033.92 C566.016,1029.43 568.36,1025.23 573.047,1021.33 C577.61,1017.42 582.589,1015.47 587.985,1015.47"/>
<path class="Note" d="M533.358,1002.97 C536.483,1002.97 539.123,1003.78 541.28,1005.4 C543.29,1007.17 544.295,1009.38 544.295,1012.05 C544.295,1016.53 541.988,1020.73 537.373,1024.64 C532.686,1028.55 527.67,1030.5 522.326,1030.5 C519.201,1030.5 516.566,1029.69 514.42,1028.06 C512.399,1026.3 511.389,1024.09 511.389,1021.42 C511.389,1016.93 513.733,1012.73 518.42,1008.83 C522.983,1004.92 527.962,1002.97 533.358,1002.97"/>
<path class="Note" d="M413.178,1002.97 C416.303,1002.97 418.943,1003.78 421.1,1005.4 C423.11,1007.17 424.115,1009.38 424.115,1012.05 C424.115,1016.53 421.808,1020.73 417.193,1024.64 C412.506,1028.55 407.49,1030.5 402.147,1030.5 C399.022,1030.5 396.386,1029.69 394.24,1028.06 C392.219,1026.3 391.209,1024.09 391.209,1021.42 C391.209,1016.93 393.553,1012.73 398.24,1008.83 C402.803,1004.92 407.782,1002.97 413.178,1002.97"/>
<path class="Note" d="M2670.21,585.186 C2670.21,584.082 2669.79,583.139 2668.95,582.358 C2668.09,581.514 2667.12,581.092 2666.01,581.092 C2664.06,581.092 2660.13,583.045 2654.2,586.951 C2648.07,590.92 2644.33,593.753 2642.96,595.451 C2642.25,596.358 2641.89,597.3 2641.89,598.279 C2641.89,599.384 2642.31,600.326 2643.17,601.108 C2643.95,601.951 2644.92,602.373 2646.09,602.373 C2647.98,602.373 2651.95,600.42 2658.01,596.514 C2664,592.608 2667.71,589.774 2669.14,588.014 C2669.86,587.17 2670.21,586.227 2670.21,585.186 M2665.04,577.967 C2670.64,577.967 2673.43,580.373 2673.43,585.186 C2673.43,587.529 2672.75,590.264 2671.39,593.389 C2670.02,596.451 2668.2,598.795 2665.92,600.42 C2660.91,603.805 2654.63,605.498 2647.07,605.498 C2641.47,605.498 2638.67,603.092 2638.67,598.279 C2638.67,596.134 2639.35,593.43 2640.71,590.17 C2642.02,587.045 2643.84,584.67 2646.18,583.045 C2651.2,579.66 2657.49,577.967 2665.04,577.967"/>
<path class="Note" d="M2551.35,590.467 C2554.48,590.467 2557.12,591.279 2559.28,592.904 C2561.29,594.665 2562.29,596.878 2562.29,599.545 C2562.29,604.035 2559.98,608.233 2555.37,612.139 C2550.68,616.045 2545.67,617.998 2540.32,617.998 C2537.2,617.998 2534.56,617.186 2532.42,615.561 C2530.4,613.8 2529.38,611.587 2529.38,608.92 C2529.38,604.43 2531.73,600.233 2536.42,596.326 C2540.98,592.42 2545.96,590.467 2551.35,590.467"/>
<path class="Note" d="M2476.97,577.967 C2480.1,577.967 2482.74,578.779 2484.89,580.404 C2486.91,582.165 2487.91,584.378 2487.91,587.045 C2487.91,591.535 2485.6,595.733 2480.99,599.639 C2476.3,603.545 2471.29,605.498 2465.94,605.498 C2462.82,605.498 2460.18,604.686 2458.04,603.061 C2456.01,601.3 2455,599.087 2455,596.42 C2455,591.93 2457.35,587.733 2462.04,583.826 C2466.6,579.92 2471.58,577.967 2476.97,577.967"/>
<path class="Note" d="M2402.59,577.967 C2405.72,577.967 2408.36,578.779 2410.51,580.404 C2412.52,582.165 2413.53,584.378 2413.53,587.045 C2413.53,591.535 2411.22,595.733 2406.61,599.639 C2401.92,603.545 2396.9,605.498 2391.56,605.498 C2388.44,605.498 2385.8,604.686 2383.65,603.061 C2381.63,601.3 2380.62,599.087 2380.62,596.42 C2380.62,591.93 2382.97,587.733 2387.65,583.826 C2392.22,579.92 2397.2,577.967 2402.59,577.967"/>
<path class="Note" d="M2328.21,552.967 C2331.34,552.967 2333.98,553.779 2336.13,555.404 C2338.14,557.165 2339.15,559.378 2339.15,562.045 C2339.15,566.535 2336.84,570.733 2332.23,574.639 C2327.54,578.545 2322.52,580.498 2317.18,580.498 C2314.06,580.498 2311.42,579.686 2309.27,578.061 C2307.25,576.3 2306.24,574.087 2306.24,571.42 C2306.24,566.93 2308.59,562.733 2313.27,558.826 C2317.84,554.92 2322.82,552.967 2328.21,552.967"/>
<path class="Note" d="M2236.3,565.467 C2239.42,565.467 2242.06,566.279 2244.22,567.904 C2246.23,569.665 2247.24,571.878 2247.24,574.545 C2247.24,579.035 2244.93,583.233 2240.31,587.139 C2235.63,591.045 2230.61,592.998 2225.27,592.998 C2222.14,592.998 2219.51,592.186 2217.36,590.561 C2215.34,588.8 2214.33,586.587 2214.33,583.92 C2214.33,579.43 2216.67,575.233 2221.36,571.326 C2225.92,567.42 2230.9,565.467 2236.3,565.467"/>
<path class="Note" d="M2187.07,577.967 C2190.19,577.967 2192.83,578.779 2194.99,580.404 C2197,582.165 2198.01,584.378 2198.01,587.045 C2198.01,591.535 2195.7,595.733 2191.08,599.639 C2186.4,603.545 2181.38,605.498 2176.04,605.498 C2172.91,605.498 2170.28,604.686 2168.13,603.061 C2166.11,601.3 2165.1,599.087 2165.1,596.42 C2165.1,591.93 2167.44,587.733 2172.13,583.826 C2176.69,579.92 2181.67,577.967 2187.07,577.967"/>
<path class="Note" d="M2108.3,565.467 C2111.43,565.467 2114.07,566.279 2116.23,567.904 C2118.24,569.665 2119.24,571.878 2119.24,574.545 C2119.24,579.035 2116.93,583.233 2112.32,587.139 C2107.63,591.045 2102.62,592.998 2097.27,592.998 C2094.15,592.998 2091.51,592.186 2089.37,590.561 C2087.34,588.8 2086.33,586.587 2086.33,583.92 C2086.33,579.43 2088.68,575.233 2093.37,571.326 C2097.93,567.42 2102.91,565.467 2108.3,565.467"/>
<path class="Note" d="M2029.54,565.467 C2032.66,565.467 2035.3,566.279 2037.46,567.904 C2039.47,569.665 2040.47,571.878 2040.47,574.545 C2040.47,579.035 2038.17,583.233 2033.55,587.139 C2028.87,591.045 2023.85,592.998 2018.51,592.998 C2015.38,592.998 2012.75,592.186 2010.6,590.561 C2008.58,588.8 2007.57,586.587 2007.57,583.92 C2007.57,579.43 2009.91,575.233 2014.6,571.326 C2019.16,567.42 2024.14,565.467 2029.54,565.467"/>
<path class="Note" d="M1950.77,577.967 C1953.9,577.967 1956.54,578.779 1958.69,580.404 C1960.7,582.165 1961.71,584.378 1961.71,587.045 C1961.71,591.535 1959.4,595.733 1954.79,599.639 C1950.1,603.545 1945.08,605.498 1939.74,605.498 C1936.62,605.498 1933.98,604.686 1931.83,603.061 C1929.81,601.3 1928.8,599.087 1928.8,596.42 C1928.8,591.93 1931.15,587.733 1935.83,583.826 C1940.4,579.92 1945.38,577.967 1950.77,577.967"/>
<path class="Note" d="M1856.77,577.967 C1859.89,577.967 1862.53,578.779 1864.69,580.404 C1866.7,582.165 1867.7,584.378 1867.7,587.045 C1867.7,591.535 1865.4,595.733 1860.78,599.639 C1856.09,603.545 1851.08,605.498 1845.73,605.498 C1842.61,605.498 1839.97,604.686 1837.83,603.061 C1835.81,601.3 1834.8,599.087 1834.8,596.42 C1834.8,591.93 1837.14,587.733 1841.83,583.826 C1846.39,579.92 1851.37,577.967 1856.77,577.967"/>
<path class="Note" d="M1796.76,565.467 C1799.88,565.467 1802.52,566.279 1804.68,567.904 C1806.69,569.665 1807.7,571.878 1807.7,574.545 C1807.7,579.035 1805.39,583.233 1800.77,587.139 C1796.09,591.045 1791.07,592.998 1785.73,592.998 C1782.6,592.998 1779.97,592.186 1777.82,590.561 C1775.8,588.8 1774.79,586.587 1774.79,583.92 C1774.79,579.43 1777.13,575.233 1781.82,571.326 C1786.38,567.42 1791.36,565.467 1796.76,565.467"/>
<path class="Note" d="M1643.68,552.967 C1646.81,552.967 1649.45,553.779 1651.61,555.404 C1653.62,557.165 1654.62,559.378 1654.62,562.045 C1654.62,566.535 1652.31,570.733 1647.7,574.639 C1643.01,578.545 1638,580.498 1632.65,580.498 C1629.53,580.498 1626.89,579.686 1624.75,578.061 C1622.73,576.3 1621.71,574.087 1621.71,571.42 C1621.71,566.93 1624.06,562.733 1628.75,558.826 C1633.31,554.92 1638.29,552.967 1643.68,552.967"/>
<path class="Note" d="M1551.77,565.467 C1554.89,565.467 1557.54,566.279 1559.69,567.904 C1561.7,569.665 1562.71,571.878 1562.71,574.545 C1562.71,579.035 1560.4,583.233 1555.79,587.139 C1551.1,591.045 1546.08,592.998 1540.74,592.998 C1537.61,592.998 1534.98,592.186 1532.83,590.561 C1530.81,588.8 1529.8,586.587 1529.8,583.92 C1529.8,579.43 1532.14,575.233 1536.83,571.326 C1541.39,567.42 1546.37,565.467 1551.77,565.467"/>
<path class="Note" d="M1494.54,552.967 C1497.67,552.967 1500.31,553.779 1502.47,555.404 C1504.48,557.165 1505.48,559.378 1505.48,562.045 C1505.48,566.535 1503.17,570.733 1498.56,574.639 C1493.87,578.545 1488.86,580.498 1483.51,580.498 C1480.39,580.498 1477.75,579.686 1475.61,578.061 C1473.59,576.3 1472.57,574.087 1472.57,571.42 C1472.57,566.93 1474.92,562.733 1479.61,558.826 C1484.17,554.92 1489.15,552.967 1494.54,552.967"/>
<path class="Note" d="M1368.65,540.467 C1371.77,540.467 1374.41,541.279 1376.57,542.904 C1378.58,544.665 1379.58,546.878 1379.58,549.545 C1379.58,554.035 1377.28,558.233 1372.66,562.139 C1367.97,566.045 1362.96,567.998 1357.62,567.998 C1354.49,567.998 1351.86,567.186 1349.71,565.561 C1347.69,563.8 1346.68,561.587 1346.68,558.92 C1346.68,554.43 1349.02,550.233 1353.71,546.326 C1358.27,542.42 1363.25,540.467 1368.65,540.467"/>
<path class="Note" d="M1277.09,527.967 C1280.21,527.967 1282.85,528.779 1285.01,530.404 C1287.02,532.165 1288.02,534.378 1288.02,537.045 C1288.02,541.535 1285.72,545.733 1281.1,549.639 C1276.41,553.545 1271.4,555.498 1266.05,555.498 C1262.93,555.498 1260.29,554.686 1258.15,553.061 C1256.13,551.3 1255.12,549.087 1255.12,546.42 C1255.12,541.93 1257.46,537.733 1262.15,533.826 C1266.71,529.92 1271.69,527.967 1277.09,527.967"/>
<path class="Note" d="M1157.1,552.967 C1160.23,552.967 1162.87,553.779 1165.03,555.404 C1167.04,557.165 1168.04,559.378 1168.04,562.045 C1168.04,566.535 1165.73,570.733 1161.12,574.639 C1156.43,578.545 1151.42,580.498 1146.07,580.498 C1142.95,580.498 1140.31,579.686 1138.17,578.061 C1136.15,576.3 1135.14,574.087 1135.14,571.42 C1135.14,566.93 1137.48,562.733 1142.17,558.826 C1146.73,554.92 1151.71,552.967 1157.1,552.967"/>
<path class="Note" d="M1006.92,577.967 C1010.04,577.967 1012.68,578.779 1014.84,580.404 C1016.85,582.165 1017.85,584.378 1017.85,587.045 C1017.85,591.535 1015.55,595.733 1010.93,599.639 C1006.24,603.545 1001.23,605.498 995.884,605.498 C992.759,605.498 990.124,604.686 987.978,603.061 C985.957,601.3 984.947,599.087 984.947,596.42 C984.947,591.93 987.291,587.733 991.978,583.826 C996.541,579.92 1001.52,577.967 1006.92,577.967"/>
<path class="Note" d="M822.727,615.467 C825.852,615.467 828.493,616.279 830.649,617.904 C832.659,619.665 833.665,621.878 833.665,624.545 C833.665,629.035 831.357,633.233 826.743,637.139 C822.055,641.045 817.04,642.998 811.696,642.998 C808.571,642.998 805.935,642.186 803.79,640.561 C801.769,638.8 800.758,636.587 800.758,633.92 C800.758,629.431 803.102,625.233 807.79,621.326 C812.352,617.42 817.331,615.467 822.727,615.467"/>
<path class="Note" d="M745.746,577.967 C748.871,577.967 751.512,578.779 753.668,580.404 C755.678,582.165 756.683,584.378 756.683,587.045 C756.683,591.535 754.376,595.733 749.762,599.639 C745.074,603.545 740.058,605.498 734.715,605.498 C731.59,605.498 728.954,604.686 726.808,603.061 C724.788,601.3 723.777,599.087 723.777,596.42 C723.777,591.93 726.121,587.733 730.808,583.826 C735.371,579.92 740.35,577.967 745.746,577.967"/>
<path class="Note" d="M634.765,565.467 C637.89,565.467 640.53,566.279 642.687,567.904 C644.697,569.665 645.702,571.878 645.702,574.545 C645.702,579.035 643.395,583.233 638.78,587.139 C634.093,591.045 629.077,592.998 623.734,592.998 C620.609,592.998 617.973,592.186 615.827,590.561 C613.806,588.8 612.796,586.587 612.796,583.92 C612.796,579.43 615.14,575.233 619.827,571.326 C624.39,567.42 629.369,565.467 634.765,565.467"/>
<path class="Note" d="M484.576,552.967 C487.701,552.967 490.342,553.779 492.498,555.404 C494.509,557.165 495.514,559.378 495.514,562.045 C495.514,566.535 493.206,570.733 488.592,574.639 C483.904,578.545 478.889,580.498 473.545,580.498 C470.42,580.498 467.785,579.686 465.639,578.061 C463.618,576.3 462.607,574.087 462.607,571.42 C462.607,566.93 464.951,562.733 469.639,558.826 C474.201,554.92 479.18,552.967 484.576,552.967"/>
<path class="Clef" d="M190.951,1091.14 C190.951,1091.14 191.149,1091.14 191.545,1091.14 C191.805,1091.08 192.029,1091.05 192.217,1091.05 C199.508,1091.05 205.498,1093.62 210.185,1098.76 C214.873,1103.84 217.217,1109.76 217.217,1116.53 C217.217,1124.94 213.737,1131.77 206.779,1137.05 C204.956,1138.48 202.576,1139.65 199.639,1140.56 C199.972,1144.79 200.139,1148.21 200.139,1150.81 C200.139,1151.33 200.071,1153.22 199.935,1156.48 C199.675,1162.53 197.592,1167.77 193.685,1172.2 C189.915,1176.57 185.227,1178.75 179.623,1178.75 C174.352,1178.75 169.862,1176.89 166.154,1173.19 C162.435,1169.4 160.576,1164.85 160.576,1159.51 C160.576,1156.71 161.654,1154.33 163.81,1152.37 C166.019,1150.43 168.586,1149.45 171.514,1149.45 C174.118,1149.45 176.3,1150.46 178.06,1152.48 C179.883,1154.37 180.795,1156.71 180.795,1159.51 C180.795,1162.05 179.883,1164.22 178.06,1166.05 C176.237,1167.87 174.055,1168.78 171.514,1168.78 C170.472,1168.78 169.467,1168.59 168.498,1168.2 C171.362,1172.43 175.17,1174.55 179.92,1174.55 C184.409,1174.55 188.086,1172.72 190.951,1169.08 C193.951,1165.31 195.581,1160.91 195.842,1155.89 C195.967,1152.76 196.029,1150.98 196.029,1150.53 C196.029,1146.88 195.899,1143.89 195.639,1141.55 C192.389,1142.07 189.493,1142.33 186.951,1142.33 C177.899,1142.33 170.185,1138.74 163.81,1131.58 C157.56,1124.35 154.435,1115.75 154.435,1105.8 C154.435,1103.71 154.628,1101.6 155.014,1099.45 C155.409,1097.69 155.899,1095.77 156.482,1093.69 C156.805,1092.51 157.685,1090.62 159.123,1088.01 C159.644,1087.23 160.23,1086.26 160.881,1085.08 C161.532,1083.91 161.987,1083.13 162.248,1082.75 C162.894,1081.45 164.159,1079.69 166.045,1077.47 C166.566,1076.88 167.105,1076.24 167.662,1075.52 C168.219,1074.81 168.693,1074.22 169.084,1073.76 C169.474,1073.31 169.766,1072.95 169.959,1072.69 C170.152,1072.43 171.618,1070.7 174.357,1067.51 C175.003,1066.86 175.636,1066.16 176.256,1065.41 C176.876,1064.67 177.381,1064.08 177.771,1063.65 C178.162,1063.23 178.456,1062.92 178.654,1062.73 C176.31,1054.98 174.842,1048.8 174.248,1044.17 C173.8,1040.46 173.576,1035.38 173.576,1028.94 C173.576,1023.27 174.878,1017.96 177.482,1013.01 C180.014,1007.88 183.56,1003.68 188.123,1000.42 C188.383,1000.22 188.706,1000.12 189.092,1000.12 C189.55,1000.12 189.878,1000.22 190.076,1000.42 C193.586,1004.65 196.612,1010.15 199.154,1016.92 C201.758,1023.69 203.06,1029.85 203.06,1035.39 C203.06,1041.64 201.566,1047.5 198.576,1052.97 C195.191,1058.76 190.826,1064.75 185.482,1070.94 C186.847,1075.23 188.67,1081.96 190.951,1091.14 M199.248,1136.56 C202.633,1135.32 205.274,1133.21 207.17,1130.22 C209.253,1127.35 210.295,1124.13 210.295,1120.55 C210.295,1115.92 208.732,1111.82 205.607,1108.23 C202.409,1104.52 198.336,1102.44 193.389,1101.98 C196.191,1115.72 198.144,1127.25 199.248,1136.56 M161.467,1114 C161.467,1120.45 164.071,1126.11 169.279,1131 C174.612,1135.75 180.602,1138.12 187.248,1138.12 C189.977,1138.12 192.644,1137.93 195.248,1137.53 C194.206,1127.63 192.154,1115.78 189.092,1101.98 C185.383,1102.38 182.425,1103.68 180.217,1105.89 C178.06,1108.17 176.982,1110.74 176.982,1113.61 C176.982,1118.56 179.623,1122.56 184.904,1125.62 C185.352,1126.08 185.576,1126.57 185.576,1127.09 C185.576,1127.61 185.352,1128.1 184.904,1128.55 C184.508,1129 184.019,1129.23 183.435,1129.23 C183.373,1129.23 183.081,1129.17 182.56,1129.05 C178.842,1127.02 175.977,1124.42 173.967,1121.23 C172.071,1117.84 171.123,1114.42 171.123,1110.97 C171.123,1106.48 172.524,1102.41 175.326,1098.76 C178.253,1095.12 182.06,1092.77 186.748,1091.73 C184.925,1084.44 183.43,1078.74 182.264,1074.64 C181.222,1075.82 179.969,1077.23 178.506,1078.89 C177.042,1080.55 176.18,1081.54 175.92,1081.87 C173.576,1084.93 171.784,1087.3 170.545,1089 C168.326,1092.06 166.696,1094.7 165.654,1096.9 C164.55,1099.38 163.576,1102.09 162.732,1105.01 C161.889,1107.82 161.467,1110.81 161.467,1114 M194.076,1014.69 C189.191,1017.09 185.352,1020.54 182.56,1025.03 C179.696,1029.65 178.264,1034.63 178.264,1039.97 C178.264,1044.65 179.435,1050.97 181.779,1058.92 C186.467,1053.25 189.982,1048.01 192.326,1043.2 C194.795,1038.12 196.029,1032.81 196.029,1027.28 C196.029,1023.11 195.378,1018.92 194.076,1014.69"/>
<path class="Clef" d="M190.951,616.139 C190.951,616.139 191.149,616.139 191.545,616.139 C191.805,616.076 192.029,616.045 192.217,616.045 C199.508,616.045 205.498,618.618 210.185,623.764 C214.873,628.837 217.217,634.759 217.217,641.529 C217.217,649.936 213.737,656.774 206.779,662.045 C204.956,663.483 202.576,664.654 199.639,665.561 C199.972,669.79 200.139,673.207 200.139,675.811 C200.139,676.332 200.071,678.222 199.935,681.483 C199.675,687.535 197.592,692.774 193.685,697.201 C189.915,701.566 185.227,703.748 179.623,703.748 C174.352,703.748 169.862,701.894 166.154,698.186 C162.435,694.404 160.576,689.847 160.576,684.514 C160.576,681.712 161.654,679.332 163.81,677.373 C166.019,675.425 168.586,674.451 171.514,674.451 C174.118,674.451 176.3,675.462 178.06,677.483 C179.883,679.368 180.795,681.712 180.795,684.514 C180.795,687.045 179.883,689.222 178.06,691.045 C176.237,692.868 174.055,693.779 171.514,693.779 C170.472,693.779 169.467,693.587 168.498,693.201 C171.362,697.431 175.17,699.545 179.92,699.545 C184.409,699.545 188.086,697.722 190.951,694.076 C193.951,690.306 195.581,685.91 195.842,680.889 C195.967,677.764 196.029,675.977 196.029,675.529 C196.029,671.884 195.899,668.889 195.639,666.545 C192.389,667.066 189.493,667.326 186.951,667.326 C177.899,667.326 170.185,663.743 163.81,656.576 C157.56,649.347 154.435,640.753 154.435,630.795 C154.435,628.712 154.628,626.597 155.014,624.451 C155.409,622.691 155.899,620.769 156.482,618.686 C156.805,617.509 157.685,615.618 159.123,613.014 C159.644,612.233 160.23,611.256 160.881,610.084 C161.532,608.912 161.987,608.134 162.248,607.748 C162.894,606.446 164.159,604.686 166.045,602.467 C166.566,601.884 167.105,601.235 167.662,600.522 C168.219,599.808 168.693,599.222 169.084,598.764 C169.474,598.306 169.766,597.946 169.959,597.686 C170.152,597.425 171.618,595.701 174.357,592.514 C175.003,591.858 175.636,591.157 176.256,590.412 C176.876,589.667 177.381,589.082 177.771,588.654 C178.162,588.227 178.456,587.92 178.654,587.733 C176.31,579.983 174.842,573.795 174.248,569.17 C173.8,565.462 173.576,560.384 173.576,553.936 C173.576,548.269 174.878,542.962 177.482,538.014 C180.014,532.878 183.56,528.681 188.123,525.42 C188.383,525.222 188.706,525.123 189.092,525.123 C189.55,525.123 189.878,525.222 190.076,525.42 C193.586,529.649 196.612,535.149 199.154,541.92 C201.758,548.691 203.06,554.847 203.06,560.389 C203.06,566.639 201.566,572.498 198.576,577.967 C195.191,583.759 190.826,589.748 185.482,595.936 C186.847,600.227 188.67,606.962 190.951,616.139 M199.248,661.561 C202.633,660.321 205.274,658.207 207.17,655.217 C209.253,652.352 210.295,649.128 210.295,645.545 C210.295,640.92 208.732,636.816 205.607,633.233 C202.409,629.524 198.336,627.441 193.389,626.983 C196.191,640.722 198.144,652.248 199.248,661.561 M161.467,638.998 C161.467,645.446 164.071,651.113 169.279,655.998 C174.612,660.748 180.602,663.123 187.248,663.123 C189.977,663.123 192.644,662.925 195.248,662.529 C194.206,652.634 192.154,640.785 189.092,626.983 C185.383,627.378 182.425,628.681 180.217,630.889 C178.06,633.17 176.982,635.743 176.982,638.608 C176.982,643.556 179.623,647.561 184.904,650.623 C185.352,651.082 185.576,651.571 185.576,652.092 C185.576,652.613 185.352,653.097 184.904,653.545 C184.508,654.003 184.019,654.233 183.435,654.233 C183.373,654.233 183.081,654.17 182.56,654.045 C178.842,652.024 175.977,649.42 173.967,646.233 C172.071,642.837 171.123,639.415 171.123,635.967 C171.123,631.477 172.524,627.41 175.326,623.764 C178.253,620.118 182.06,617.774 186.748,616.733 C184.925,609.441 183.43,603.743 182.264,599.639 C181.222,600.816 179.969,602.233 178.506,603.889 C177.042,605.545 176.18,606.54 175.92,606.873 C173.576,609.925 171.784,612.3 170.545,613.998 C168.326,617.061 166.696,619.696 165.654,621.904 C164.55,624.384 163.576,627.087 162.732,630.014 C161.889,632.816 161.467,635.811 161.467,638.998 M194.076,539.686 C189.191,542.092 185.352,545.54 182.56,550.029 C179.696,554.654 178.264,559.634 178.264,564.967 C178.264,569.654 179.435,575.972 181.779,583.92 C186.467,578.253 189.982,573.014 192.326,568.201 C194.795,563.118 196.029,557.811 196.029,552.279 C196.029,548.113 195.378,543.915 194.076,539.686"/>
<path class="KeySig" d="M313.748,1060.39 C313.748,1061.63 313.131,1062.25 311.896,1062.25 C310.662,1062.25 310.045,1061.63 310.045,1060.39 L310.045,1045.94 L301.748,1049.06 L301.748,1064.87 C301.748,1066.11 301.128,1066.73 299.889,1066.73 C298.649,1066.73 298.029,1066.11 298.029,1064.87 L298.029,1050.33 L294.904,1051.5 C294.842,1051.56 294.581,1051.59 294.123,1051.59 C293.602,1051.59 293.146,1051.4 292.756,1051.01 C292.365,1050.62 292.17,1050.16 292.17,1049.64 L292.17,1043.59 C292.17,1042.61 292.592,1041.99 293.436,1041.73 L298.029,1040.17 L298.029,1024.15 L294.904,1025.23 C294.842,1025.3 294.581,1025.33 294.123,1025.33 C293.602,1025.33 293.146,1025.13 292.756,1024.74 C292.365,1024.35 292.17,1023.89 292.17,1023.37 L292.17,1017.31 C292.17,1016.4 292.592,1015.82 293.436,1015.56 L298.029,1013.8 L298.029,998.077 C298.029,996.837 298.649,996.217 299.889,996.217 C301.128,996.217 301.748,996.837 301.748,998.077 L301.748,1012.53 L310.045,1009.4 L310.045,993.592 C310.045,992.353 310.662,991.733 311.896,991.733 C313.131,991.733 313.748,992.353 313.748,993.592 L313.748,1008.14 L316.982,1006.97 C317.045,1006.9 317.269,1006.87 317.654,1006.87 C318.113,1006.87 318.602,1007.07 319.123,1007.45 C319.519,1007.85 319.717,1008.31 319.717,1008.83 L319.717,1014.87 C319.717,1015.79 319.258,1016.41 318.342,1016.73 L313.748,1018.3 L313.748,1034.31 L316.982,1033.23 C317.045,1033.17 317.269,1033.14 317.654,1033.14 C318.113,1033.14 318.602,1033.34 319.123,1033.73 C319.519,1034.12 319.717,1034.57 319.717,1035.09 L319.717,1041.15 C319.717,1042 319.258,1042.58 318.342,1042.9 L313.748,1044.67 L313.748,1060.39 M310.045,1019.76 L301.748,1022.69 L301.748,1038.7 L310.045,1035.78 L310.045,1019.76 "/>
<path class="KeySig" d="M288.748,1110.39 C288.748,1111.63 288.131,1112.25 286.896,1112.25 C285.662,1112.25 285.045,1111.63 285.045,1110.39 L285.045,1095.94 L276.748,1099.06 L276.748,1114.87 C276.748,1116.11 276.128,1116.73 274.889,1116.73 C273.649,1116.73 273.029,1116.11 273.029,1114.87 L273.029,1100.33 L269.904,1101.5 C269.842,1101.56 269.581,1101.59 269.123,1101.59 C268.602,1101.59 268.146,1101.4 267.756,1101.01 C267.365,1100.62 267.17,1100.16 267.17,1099.64 L267.17,1093.59 C267.17,1092.61 267.592,1091.99 268.435,1091.73 L273.029,1090.17 L273.029,1074.15 L269.904,1075.23 C269.842,1075.3 269.581,1075.33 269.123,1075.33 C268.602,1075.33 268.146,1075.13 267.756,1074.74 C267.365,1074.35 267.17,1073.89 267.17,1073.37 L267.17,1067.31 C267.17,1066.4 267.592,1065.82 268.435,1065.56 L273.029,1063.8 L273.029,1048.08 C273.029,1046.84 273.649,1046.22 274.889,1046.22 C276.128,1046.22 276.748,1046.84 276.748,1048.08 L276.748,1062.53 L285.045,1059.4 L285.045,1043.59 C285.045,1042.35 285.662,1041.73 286.896,1041.73 C288.131,1041.73 288.748,1042.35 288.748,1043.59 L288.748,1058.14 L291.982,1056.97 C292.045,1056.9 292.269,1056.87 292.654,1056.87 C293.113,1056.87 293.602,1057.07 294.123,1057.45 C294.519,1057.85 294.717,1058.31 294.717,1058.83 L294.717,1064.87 C294.717,1065.79 294.258,1066.41 293.342,1066.73 L288.748,1068.3 L288.748,1084.31 L291.982,1083.23 C292.045,1083.17 292.269,1083.14 292.654,1083.14 C293.113,1083.14 293.602,1083.34 294.123,1083.73 C294.519,1084.12 294.717,1084.57 294.717,1085.09 L294.717,1091.15 C294.717,1092 294.258,1092.58 293.342,1092.9 L288.748,1094.67 L288.748,1110.39 M285.045,1069.76 L276.748,1072.69 L276.748,1088.7 L285.045,1085.78 L285.045,1069.76 "/>
<path class="KeySig" d="M263.748,1072.89 C263.748,1074.13 263.131,1074.75 261.896,1074.75 C260.662,1074.75 260.045,1074.13 260.045,1072.89 L260.045,1058.44 L251.748,1061.56 L251.748,1077.37 C251.748,1078.61 251.128,1079.23 249.889,1079.23 C248.649,1079.23 248.029,1078.61 248.029,1077.37 L248.029,1062.83 L244.904,1064 C244.842,1064.06 244.581,1064.09 244.123,1064.09 C243.602,1064.09 243.146,1063.9 242.756,1063.51 C242.365,1063.12 242.17,1062.66 242.17,1062.14 L242.17,1056.09 C242.17,1055.11 242.592,1054.49 243.435,1054.23 L248.029,1052.67 L248.029,1036.65 L244.904,1037.73 C244.842,1037.8 244.581,1037.83 244.123,1037.83 C243.602,1037.83 243.146,1037.63 242.756,1037.24 C242.365,1036.85 242.17,1036.39 242.17,1035.87 L242.17,1029.81 C242.17,1028.9 242.592,1028.32 243.435,1028.06 L248.029,1026.3 L248.029,1010.58 C248.029,1009.34 248.649,1008.72 249.889,1008.72 C251.128,1008.72 251.748,1009.34 251.748,1010.58 L251.748,1025.03 L260.045,1021.9 L260.045,1006.09 C260.045,1004.85 260.662,1004.23 261.896,1004.23 C263.131,1004.23 263.748,1004.85 263.748,1006.09 L263.748,1020.64 L266.982,1019.47 C267.045,1019.4 267.269,1019.37 267.654,1019.37 C268.113,1019.37 268.602,1019.57 269.123,1019.95 C269.519,1020.35 269.717,1020.81 269.717,1021.33 L269.717,1027.37 C269.717,1028.29 269.258,1028.91 268.342,1029.23 L263.748,1030.8 L263.748,1046.81 L266.982,1045.73 C267.045,1045.67 267.269,1045.64 267.654,1045.64 C268.113,1045.64 268.602,1045.84 269.123,1046.23 C269.519,1046.62 269.717,1047.07 269.717,1047.59 L269.717,1053.65 C269.717,1054.5 269.258,1055.08 268.342,1055.4 L263.748,1057.17 L263.748,1072.89 M260.045,1032.26 L251.748,1035.19 L251.748,1051.2 L260.045,1048.28 L260.045,1032.26 "/>
<path class="KeySig" d="M313.748,585.389 C313.748,586.628 313.131,587.248 311.896,587.248 C310.662,587.248 310.045,586.628 310.045,585.389 L310.045,570.936 L301.748,574.061 L301.748,589.873 C301.748,591.113 301.128,591.733 299.889,591.733 C298.649,591.733 298.029,591.113 298.029,589.873 L298.029,575.326 L294.904,576.498 C294.842,576.561 294.581,576.592 294.123,576.592 C293.602,576.592 293.146,576.397 292.756,576.006 C292.365,575.615 292.17,575.16 292.17,574.639 L292.17,568.592 C292.17,567.613 292.592,566.993 293.436,566.733 L298.029,565.17 L298.029,549.154 L294.904,550.233 C294.842,550.295 294.581,550.326 294.123,550.326 C293.602,550.326 293.146,550.131 292.756,549.74 C292.365,549.35 292.17,548.894 292.17,548.373 L292.17,542.311 C292.17,541.404 292.592,540.821 293.436,540.561 L298.029,538.795 L298.029,523.076 C298.029,521.837 298.649,521.217 299.889,521.217 C301.128,521.217 301.748,521.837 301.748,523.076 L301.748,537.529 L310.045,534.404 L310.045,518.592 C310.045,517.352 310.662,516.733 311.896,516.733 C313.131,516.733 313.748,517.352 313.748,518.592 L313.748,533.139 L316.982,531.967 C317.045,531.904 317.269,531.873 317.654,531.873 C318.113,531.873 318.602,532.066 319.123,532.451 C319.519,532.847 319.717,533.305 319.717,533.826 L319.717,539.873 C319.717,540.79 319.258,541.41 318.342,541.733 L313.748,543.295 L313.748,559.311 L316.982,558.233 C317.045,558.17 317.269,558.139 317.654,558.139 C318.113,558.139 318.602,558.337 319.123,558.733 C319.519,559.118 319.717,559.571 319.717,560.092 L319.717,566.154 C319.717,566.998 319.258,567.582 318.342,567.904 L313.748,569.67 L313.748,585.389 M310.045,544.764 L301.748,547.686 L301.748,563.701 L310.045,560.779 L310.045,544.764 "/>
<path class="KeySig" d="M288.748,635.389 C288.748,636.628 288.131,637.248 286.896,637.248 C285.662,637.248 285.045,636.628 285.045,635.389 L285.045,620.936 L276.748,624.061 L276.748,639.873 C276.748,641.113 276.128,641.733 274.889,641.733 C273.649,641.733 273.029,641.113 273.029,639.873 L273.029,625.326 L269.904,626.498 C269.842,626.561 269.581,626.592 269.123,626.592 C268.602,626.592 268.146,626.397 267.756,626.006 C267.365,625.615 267.17,625.16 267.17,624.639 L267.17,618.592 C267.17,617.613 267.592,616.993 268.435,616.733 L273.029,615.17 L273.029,599.154 L269.904,600.233 C269.842,600.295 269.581,600.326 269.123,600.326 C268.602,600.326 268.146,600.131 267.756,599.74 C267.365,599.35 267.17,598.894 267.17,598.373 L267.17,592.311 C267.17,591.404 267.592,590.821 268.435,590.561 L273.029,588.795 L273.029,573.076 C273.029,571.837 273.649,571.217 274.889,571.217 C276.128,571.217 276.748,571.837 276.748,573.076 L276.748,587.529 L285.045,584.404 L285.045,568.592 C285.045,567.352 285.662,566.733 286.896,566.733 C288.131,566.733 288.748,567.352 288.748,568.592 L288.748,583.139 L291.982,581.967 C292.045,581.904 292.269,581.873 292.654,581.873 C293.113,581.873 293.602,582.066 294.123,582.451 C294.519,582.847 294.717,583.305 294.717,583.826 L294.717,589.873 C294.717,590.79 294.258,591.41 293.342,591.733 L288.748,593.295 L288.748,609.311 L291.982,608.233 C292.045,608.17 292.269,608.139 292.654,608.139 C293.113,608.139 293.602,608.337 294.123,608.733 C294.519,609.118 294.717,609.571 294.717,610.092 L294.717,616.154 C294.717,616.998 294.258,617.582 293.342,617.904 L288.748,619.67 L288.748,635.389 M285.045,594.764 L276.748,597.686 L276.748,613.701 L285.045,610.779 L285.045,594.764 "/>
<path class="KeySig" d="M263.748,597.889 C263.748,599.128 263.131,599.748 261.896,599.748 C260.662,599.748 260.045,599.128 260.045,597.889 L260.045,583.436 L251.748,586.561 L251.748,602.373 C251.748,603.613 251.128,604.233 249.889,604.233 C248.649,604.233 248.029,603.613 248.029,602.373 L248.029,587.826 L244.904,588.998 C244.842,589.061 244.581,589.092 244.123,589.092 C243.602,589.092 243.146,588.897 242.756,588.506 C242.365,588.115 242.17,587.66 242.17,587.139 L242.17,581.092 C242.17,580.113 242.592,579.493 243.435,579.233 L248.029,577.67 L248.029,561.654 L244.904,562.733 C244.842,562.795 244.581,562.826 244.123,562.826 C243.602,562.826 243.146,562.631 242.756,562.24 C242.365,561.85 242.17,561.394 242.17,560.873 L242.17,554.811 C242.17,553.904 242.592,553.321 243.435,553.061 L248.029,551.295 L248.029,535.576 C248.029,534.337 248.649,533.717 249.889,533.717 C251.128,533.717 251.748,534.337 251.748,535.576 L251.748,550.029 L260.045,546.904 L260.045,531.092 C260.045,529.852 260.662,529.233 261.896,529.233 C263.131,529.233 263.748,529.852 263.748,531.092 L263.748,545.639 L266.982,544.467 C267.045,544.404 267.269,544.373 267.654,544.373 C268.113,544.373 268.602,544.566 269.123,544.951 C269.519,545.347 269.717,545.805 269.717,546.326 L269.717,552.373 C269.717,553.29 269.258,553.91 268.342,554.233 L263.748,555.795 L263.748,571.811 L266.982,570.733 C267.045,570.67 267.269,570.639 267.654,570.639 C268.113,570.639 268.602,570.837 269.123,571.233 C269.519,571.618 269.717,572.071 269.717,572.592 L269.717,578.654 C269.717,579.498 269.258,580.082 268.342,580.404 L263.748,582.17 L263.748,597.889 M260.045,557.264 L251.748,560.186 L251.748,576.201 L260.045,573.279 L260.045,557.264 "/>
<path class="TimeSig" d="M369.693,616.733 C367.735,616.733 365.975,616.376 364.412,615.662 C362.85,614.949 361.745,614.201 361.1,613.42 C360.245,612.441 359.396,611.691 358.553,611.17 C357.511,610.451 356.438,610.092 355.334,610.092 C353.636,610.092 352.235,610.613 351.131,611.654 C349.964,612.634 349.313,613.967 349.178,615.654 C349.053,616.373 348.662,616.733 348.006,616.733 C347.225,616.733 346.834,616.373 346.834,615.654 C346.834,613.123 347.423,610.847 348.6,608.826 C349.766,606.743 351.199,605.019 352.896,603.654 C354.324,602.415 356.209,600.915 358.553,599.154 C358.949,598.832 359.779,598.149 361.045,597.108 C362.311,596.066 363.37,595.186 364.225,594.467 C365.912,593.04 367.376,591.149 368.615,588.795 C369.782,586.451 370.365,583.915 370.365,581.186 C370.365,577.863 369.813,574.998 368.709,572.592 C367.542,570.248 365.751,569.076 363.334,569.076 C361.844,569.076 360.641,569.399 359.725,570.045 C358.745,570.701 358.256,571.582 358.256,572.686 C358.256,573.602 358.842,574.743 360.014,576.108 C361.186,577.472 361.771,578.613 361.771,579.529 C361.771,581.477 361.089,583.134 359.725,584.498 C358.423,585.8 356.829,586.451 354.943,586.451 C352.985,586.451 351.324,585.769 349.959,584.404 C348.657,582.977 348.006,581.352 348.006,579.529 C348.006,575.811 349.503,572.748 352.498,570.342 C355.493,567.936 359.105,566.733 363.334,566.733 C368.355,566.733 372.719,568.097 376.428,570.826 C380.136,573.43 381.99,576.884 381.99,581.186 C381.99,584.113 381.469,586.618 380.428,588.701 C379.449,590.92 377.985,592.649 376.037,593.889 C373.818,595.316 371.896,596.42 370.271,597.201 C367.99,598.243 365.714,599.222 363.443,600.139 C360.704,601.243 358.584,602.285 357.084,603.264 C357.938,603.066 358.818,602.967 359.725,602.967 C362.725,602.967 365.85,603.941 369.1,605.889 C372.423,607.847 374.995,608.826 376.818,608.826 C377.923,608.826 378.803,608.628 379.459,608.233 C380.105,607.847 380.527,607.425 380.725,606.967 C380.985,606.321 381.214,605.868 381.412,605.608 C381.673,605.212 381.995,605.014 382.381,605.014 C383.162,605.014 383.553,605.404 383.553,606.186 C383.553,608.009 382.251,610.222 379.646,612.826 C377.105,615.43 373.787,616.733 369.693,616.733"/>
<path class="TimeSig" d="M367.506,618.084 C369.454,618.084 371.113,617.858 372.482,617.404 C373.852,616.951 374.73,616.725 375.115,616.725 C375.574,616.725 375.933,616.855 376.193,617.115 C376.391,617.303 376.521,617.527 376.584,617.787 C376.584,617.923 376.516,618.121 376.381,618.381 L347.975,651.397 L364.662,651.397 L364.662,638.303 C364.662,637.459 364.891,636.74 365.35,636.147 C366.131,635.501 366.782,635.11 367.303,634.975 C368.146,634.589 369.188,633.678 370.428,632.24 C371.469,631.074 372.709,629.027 374.146,626.1 C374.334,625.704 374.626,625.506 375.021,625.506 C375.803,625.506 376.256,625.964 376.381,626.881 L376.381,651.397 L383.521,651.397 C384.428,651.397 384.949,651.881 385.084,652.85 C385.084,653.829 384.563,654.319 383.521,654.319 L376.381,654.319 L376.381,655.1 C376.381,657.704 377.032,659.917 378.334,661.74 C379.834,663.563 381.594,664.475 383.615,664.475 C384.396,664.475 384.787,664.865 384.787,665.647 C384.787,666.428 384.396,666.819 383.615,666.819 C382.251,666.819 380.037,666.626 376.975,666.24 C374.173,665.782 371.99,665.553 370.428,665.553 C368.803,665.553 366.62,665.782 363.881,666.24 C360.954,666.626 358.777,666.819 357.35,666.819 C356.568,666.819 356.178,666.428 356.178,665.647 C356.178,664.865 356.568,664.475 357.35,664.475 C359.36,664.475 361.115,663.563 362.615,661.74 C363.98,659.855 364.662,657.641 364.662,655.1 L364.662,654.319 L347.975,654.319 C346.86,654.319 346.079,654.058 345.631,653.537 C345.1,653.152 344.834,652.631 344.834,651.975 C344.834,651.777 345.324,651.095 346.303,649.928 C347.417,648.626 348.589,647.032 349.818,645.147 C351.256,642.928 352.626,640.647 353.928,638.303 C355.355,635.636 356.495,632.574 357.35,629.115 C358.318,625.605 358.803,622.027 358.803,618.381 C358.803,617.339 359.261,616.819 360.178,616.819 C360.376,616.819 360.798,616.917 361.443,617.115 C361.641,617.178 362.05,617.274 362.67,617.404 C363.29,617.535 363.792,617.662 364.178,617.787 C365.355,617.985 366.464,618.084 367.506,618.084"/>
<path class="Articulation" d="M761.719,512.139 C762.114,511.555 762.672,511.264 763.39,511.264 C763.911,511.264 764.367,511.459 764.758,511.85 C765.148,512.24 765.344,512.696 765.344,513.217 C765.344,513.602 765.245,513.962 765.047,514.295 L755.765,528.358 C755.38,528.941 754.797,529.233 754.015,529.233 C753.422,529.233 752.932,529.003 752.547,528.545 L742.781,516.639 L734.969,528.358 C734.573,528.941 733.984,529.233 733.203,529.233 C732.62,529.233 732.135,529.003 731.75,528.545 L721.875,516.639 L718.75,521.326 C718.364,521.91 717.812,522.201 717.094,522.201 C716.573,522.201 716.117,522.006 715.726,521.615 C715.336,521.225 715.14,520.769 715.14,520.248 C715.14,519.852 715.239,519.493 715.437,519.17 L724.719,505.108 C725.104,504.524 725.687,504.233 726.469,504.233 C727.052,504.233 727.542,504.462 727.937,504.92 L737.703,516.826 L745.515,505.108 C745.901,504.524 746.484,504.233 747.265,504.233 C747.859,504.233 748.349,504.462 748.734,504.92 L758.594,516.826 L761.719,512.139 "/>
<path class="Fermata" d="M2039.05,1164.26 C2037.74,1162.96 2037.09,1161.37 2037.09,1159.48 C2037.09,1157.58 2037.74,1155.99 2039.05,1154.69 C2040.35,1153.38 2041.94,1152.73 2043.83,1152.73 C2045.71,1152.73 2047.31,1153.38 2048.61,1154.69 C2049.91,1155.99 2050.56,1157.58 2050.56,1159.48 C2050.56,1161.37 2049.91,1162.96 2048.61,1164.26 C2047.31,1165.57 2045.71,1166.22 2043.83,1166.22 C2041.94,1166.22 2040.35,1165.57 2039.05,1164.26 M2055.15,1188.28 C2051.77,1189.98 2047.99,1190.83 2043.83,1190.83 C2039.66,1190.83 2035.88,1189.98 2032.5,1188.28 C2028.91,1186.72 2025.99,1184.6 2023.72,1181.94 C2021.3,1179.2 2019.25,1176.43 2017.56,1173.64 C2015.8,1170.77 2014.43,1167.87 2013.45,1164.94 C2012.61,1162.53 2011.89,1160.19 2011.31,1157.9 C2010.85,1156.15 2010.62,1154.92 2010.62,1154.2 C2010.62,1153.88 2010.82,1153.52 2011.22,1153.12 C2011.74,1152.86 2012.16,1152.73 2012.48,1152.73 C2013.46,1152.73 2014.11,1153.32 2014.44,1154.5 C2015.68,1161.85 2019.06,1168.1 2024.59,1173.25 C2030.12,1178.2 2036.53,1180.67 2043.83,1180.67 C2051.12,1180.67 2057.53,1178.2 2063.06,1173.25 C2068.6,1168.1 2071.99,1161.85 2073.22,1154.5 C2073.41,1153.32 2074.07,1152.73 2075.17,1152.73 C2075.5,1152.73 2075.93,1152.86 2076.45,1153.12 C2076.84,1153.52 2077.03,1153.88 2077.03,1154.2 C2077.03,1154.92 2076.8,1156.15 2076.34,1157.9 C2075.76,1160.19 2075.05,1162.53 2074.2,1164.94 C2073.22,1167.87 2071.85,1170.77 2070.09,1173.64 C2068.4,1176.43 2066.36,1179.2 2063.95,1181.94 C2061.8,1184.48 2058.86,1186.59 2055.15,1188.28"/>
<path class="Fermata" d="M765.313,1164.26 C764.011,1162.96 763.36,1161.37 763.36,1159.48 C763.36,1157.58 764.011,1155.99 765.313,1154.69 C766.615,1153.38 768.209,1152.73 770.094,1152.73 C771.98,1152.73 773.573,1153.38 774.875,1154.69 C776.177,1155.99 776.828,1157.58 776.828,1159.48 C776.828,1161.37 776.177,1162.96 774.875,1164.26 C773.573,1165.57 771.98,1166.22 770.094,1166.22 C768.209,1166.22 766.615,1165.57 765.313,1164.26 M781.422,1188.28 C778.037,1189.98 774.261,1190.83 770.094,1190.83 C765.927,1190.83 762.151,1189.98 758.766,1188.28 C755.183,1186.72 752.256,1184.6 749.985,1181.94 C747.568,1179.2 745.516,1176.43 743.828,1173.64 C742.068,1170.77 740.698,1167.87 739.719,1164.94 C738.875,1162.53 738.162,1160.19 737.578,1157.9 C737.12,1156.15 736.891,1154.92 736.891,1154.2 C736.891,1153.88 737.089,1153.52 737.485,1153.12 C738.006,1152.86 738.427,1152.73 738.75,1152.73 C739.73,1152.73 740.381,1153.32 740.703,1154.5 C741.943,1161.85 745.328,1168.1 750.86,1173.25 C756.391,1178.2 762.802,1180.67 770.094,1180.67 C777.386,1180.67 783.797,1178.2 789.328,1173.25 C794.87,1168.1 798.256,1161.85 799.485,1154.5 C799.683,1153.32 800.334,1152.73 801.438,1152.73 C801.771,1152.73 802.198,1152.86 802.719,1153.12 C803.105,1153.52 803.297,1153.88 803.297,1154.2 C803.297,1154.92 803.068,1156.15 802.61,1157.9 C802.026,1160.19 801.313,1162.53 800.469,1164.94 C799.49,1167.87 798.12,1170.77 796.36,1173.64 C794.672,1176.43 792.625,1179.2 790.219,1181.94 C788.063,1184.48 785.131,1186.59 781.422,1188.28"/>
<path class="Fermata" d="M2293.12,689.264 C2291.82,687.962 2291.17,686.365 2291.17,684.475 C2291.17,682.584 2291.82,680.988 2293.12,679.686 C2294.42,678.384 2296.02,677.733 2297.9,677.733 C2299.79,677.733 2301.38,678.384 2302.68,679.686 C2303.99,680.988 2304.64,682.584 2304.64,684.475 C2304.64,686.365 2303.99,687.962 2302.68,689.264 C2301.38,690.566 2299.79,691.217 2297.9,691.217 C2296.02,691.217 2294.42,690.566 2293.12,689.264 M2309.23,713.279 C2305.85,714.977 2302.07,715.826 2297.9,715.826 C2293.74,715.826 2289.96,714.977 2286.57,713.279 C2282.99,711.717 2280.06,709.602 2277.79,706.936 C2275.38,704.196 2273.32,701.431 2271.64,698.639 C2269.88,695.774 2268.51,692.873 2267.53,689.936 C2266.68,687.529 2265.97,685.186 2265.39,682.904 C2264.93,681.154 2264.7,679.92 2264.7,679.201 C2264.7,678.878 2264.9,678.519 2265.29,678.123 C2265.81,677.863 2266.24,677.733 2266.56,677.733 C2267.54,677.733 2268.19,678.321 2268.51,679.498 C2269.75,686.852 2273.14,693.102 2278.67,698.248 C2284.2,703.196 2290.61,705.67 2297.9,705.67 C2305.19,705.67 2311.61,703.196 2317.14,698.248 C2322.68,693.102 2326.06,686.852 2327.29,679.498 C2327.49,678.321 2328.14,677.733 2329.25,677.733 C2329.58,677.733 2330.01,677.863 2330.53,678.123 C2330.91,678.519 2331.11,678.878 2331.11,679.201 C2331.11,679.92 2330.88,681.154 2330.42,682.904 C2329.83,685.186 2329.12,687.529 2328.28,689.936 C2327.3,692.873 2325.93,695.774 2324.17,698.639 C2322.48,701.431 2320.43,704.196 2318.03,706.936 C2315.87,709.477 2312.94,711.592 2309.23,713.279"/>
<path class="Fermata" d="M1623.59,689.264 C1622.29,687.962 1621.64,686.365 1621.64,684.475 C1621.64,682.584 1622.29,680.988 1623.59,679.686 C1624.9,678.384 1626.49,677.733 1628.37,677.733 C1630.26,677.733 1631.85,678.384 1633.16,679.686 C1634.46,680.988 1635.11,682.584 1635.11,684.475 C1635.11,686.365 1634.46,687.962 1633.16,689.264 C1631.85,690.566 1630.26,691.217 1628.37,691.217 C1626.49,691.217 1624.9,690.566 1623.59,689.264 M1639.7,713.279 C1636.32,714.977 1632.54,715.826 1628.37,715.826 C1624.21,715.826 1620.43,714.977 1617.05,713.279 C1613.46,711.717 1610.54,709.602 1608.26,706.936 C1605.85,704.196 1603.8,701.431 1602.11,698.639 C1600.35,695.774 1598.98,692.873 1598,689.936 C1597.16,687.529 1596.44,685.186 1595.86,682.904 C1595.4,681.154 1595.17,679.92 1595.17,679.201 C1595.17,678.878 1595.37,678.519 1595.76,678.123 C1596.29,677.863 1596.71,677.733 1597.03,677.733 C1598.01,677.733 1598.66,678.321 1598.98,679.498 C1600.22,686.852 1603.61,693.102 1609.14,698.248 C1614.67,703.196 1621.08,705.67 1628.37,705.67 C1635.67,705.67 1642.08,703.196 1647.61,698.248 C1653.15,693.102 1656.54,686.852 1657.76,679.498 C1657.96,678.321 1658.61,677.733 1659.72,677.733 C1660.05,677.733 1660.48,677.863 1661,678.123 C1661.38,678.519 1661.58,678.878 1661.58,679.201 C1661.58,679.92 1661.35,681.154 1660.89,682.904 C1660.31,685.186 1659.59,687.529 1658.75,689.936 C1657.77,692.873 1656.4,695.774 1654.64,698.639 C1652.95,701.431 1650.91,704.196 1648.5,706.936 C1646.34,709.477 1643.41,711.592 1639.7,713.279"/>
<path class="Fermata" d="M975.575,699.264 C974.273,697.962 973.622,696.365 973.622,694.475 C973.622,692.584 974.273,690.988 975.575,689.686 C976.877,688.384 978.471,687.733 980.356,687.733 C982.242,687.733 983.835,688.384 985.137,689.686 C986.44,690.988 987.091,692.584 987.091,694.475 C987.091,696.365 986.44,697.962 985.137,699.264 C983.835,700.566 982.242,701.217 980.356,701.217 C978.471,701.217 976.877,700.566 975.575,699.264 M991.684,723.28 C988.299,724.977 984.523,725.826 980.356,725.826 C976.19,725.826 972.413,724.977 969.028,723.28 C965.445,721.717 962.518,719.602 960.247,716.936 C957.83,714.196 955.778,711.431 954.091,708.639 C952.33,705.774 950.96,702.873 949.981,699.936 C949.137,697.53 948.424,695.186 947.841,692.905 C947.382,691.155 947.153,689.92 947.153,689.201 C947.153,688.878 947.351,688.519 947.747,688.123 C948.268,687.863 948.69,687.733 949.012,687.733 C949.992,687.733 950.643,688.321 950.966,689.498 C952.205,696.852 955.591,703.102 961.122,708.248 C966.653,713.196 973.065,715.67 980.356,715.67 C987.648,715.67 994.059,713.196 999.591,708.248 C1005.13,703.102 1008.52,696.852 1009.75,689.498 C1009.94,688.321 1010.6,687.733 1011.7,687.733 C1012.03,687.733 1012.46,687.863 1012.98,688.123 C1013.37,688.519 1013.56,688.878 1013.56,689.201 C1013.56,689.92 1013.33,691.155 1012.87,692.905 C1012.29,695.186 1011.57,697.53 1010.73,699.936 C1009.75,702.873 1008.38,705.774 1006.62,708.639 C1004.93,711.431 1002.89,714.196 1000.48,716.936 C998.325,719.477 995.393,721.592 991.684,723.28"/>
<path class="Fermata" d="M449.485,689.264 C448.183,687.962 447.532,686.365 447.532,684.475 C447.532,682.584 448.183,680.988 449.485,679.686 C450.788,678.384 452.381,677.733 454.267,677.733 C456.152,677.733 457.746,678.384 459.048,679.686 C460.35,680.988 461.001,682.584 461.001,684.475 C461.001,686.365 460.35,687.962 459.048,689.264 C457.746,690.566 456.152,691.217 454.267,691.217 C452.381,691.217 450.788,690.566 449.485,689.264 M465.595,713.279 C462.209,714.977 458.433,715.826 454.267,715.826 C450.1,715.826 446.324,714.977 442.939,713.279 C439.355,711.717 436.428,709.602 434.157,706.936 C431.741,704.196 429.689,701.431 428.001,698.639 C426.241,695.774 424.871,692.873 423.892,689.936 C423.048,687.529 422.334,685.186 421.751,682.904 C421.293,681.154 421.064,679.92 421.064,679.201 C421.064,678.878 421.262,678.519 421.657,678.123 C422.178,677.863 422.6,677.733 422.923,677.733 C423.902,677.733 424.553,678.321 424.876,679.498 C426.116,686.852 429.501,693.102 435.032,698.248 C440.564,703.196 446.975,705.67 454.267,705.67 C461.558,705.67 467.97,703.196 473.501,698.248 C479.043,693.102 482.428,686.852 483.657,679.498 C483.855,678.321 484.506,677.733 485.61,677.733 C485.944,677.733 486.371,677.863 486.892,678.123 C487.277,678.519 487.47,678.878 487.47,679.201 C487.47,679.92 487.241,681.154 486.782,682.904 C486.199,685.186 485.485,687.529 484.642,689.936 C483.663,692.873 482.293,695.774 480.532,698.639 C478.845,701.431 476.798,704.196 474.392,706.936 C472.235,709.477 469.303,711.592 465.595,713.279"/>
<path class="Beam" fill-rule="evenodd" d="M2471.07,1085.72 L2561.98,1092.2 L2561.98,1104.23 L2471.07,1097.75 L2471.07,1085.72 "/>
<path class="Beam" fill-rule="evenodd" d="M2295.73,1079.47 L2386.65,1085.95 L2386.65,1097.98 L2295.73,1091.5 L2295.73,1079.47 "/>
<path class="Beam" fill-rule="evenodd" d="M1800.12,1104.41 L1967.25,1129.91 L1967.25,1142.05 L1800.12,1116.55 L1800.12,1104.41 "/>
<path class="Beam" fill-rule="evenodd" d="M1800.12,1086.41 L1967.25,1111.91 L1967.25,1124.05 L1800.12,1098.55 L1800.12,1086.41 "/>
<path class="Beam" fill-rule="evenodd" d="M1187.87,1085.73 L1342.46,1085.73 L1342.46,1097.73 L1187.87,1097.73 L1187.87,1085.73 "/>
<path class="Beam" fill-rule="evenodd" d="M1278.3,1067.73 L1342.46,1067.73 L1342.46,1079.73 L1278.3,1079.73 L1278.3,1067.73 "/>
<path class="Beam" fill-rule="evenodd" d="M1007,1085.72 L1100.68,1079.24 L1100.68,1091.27 L1007,1097.75 L1007,1085.72 "/>
<path class="Beam" fill-rule="evenodd" d="M511.389,1104.41 L678.521,1129.91 L678.521,1142.05 L511.389,1116.55 L511.389,1104.41 "/>
<path class="Beam" fill-rule="evenodd" d="M511.389,1086.41 L678.521,1111.91 L678.521,1124.05 L511.389,1098.55 L511.389,1086.41 "/>
<path class="Beam" fill-rule="evenodd" d="M2455,660.711 L2532.63,667.235 L2532.63,679.277 L2455,672.754 L2455,660.711 "/>
<path class="Beam" fill-rule="evenodd" d="M2306.24,635.403 L2383.87,661.495 L2383.87,674.155 L2306.24,648.062 L2306.24,635.403 "/>
<path class="Beam" fill-rule="evenodd" d="M2086.33,660.733 L2217.58,660.733 L2217.58,672.733 L2086.33,672.733 L2086.33,660.733 "/>
<path class="Beam" fill-rule="evenodd" d="M2165.1,642.733 L2217.58,642.733 L2217.58,654.733 L2165.1,654.733 L2165.1,642.733 "/>
<path class="Beam" fill-rule="evenodd" d="M1928.8,660.714 L2010.82,654.206 L2010.82,666.244 L1928.8,672.751 L1928.8,660.714 "/>
<path class="Beam" fill-rule="evenodd" d="M1774.79,654.45 L1838.05,661.039 L1838.05,673.104 L1774.79,666.515 L1774.79,654.45 "/>
<path class="Beam" fill-rule="evenodd" d="M1774.79,636.45 L1838.05,643.039 L1838.05,655.104 L1774.79,648.515 L1774.79,636.45 "/>
<path class="Beam" fill-rule="evenodd" d="M1472.57,654.447 L1533.05,661.052 L1533.05,673.123 L1472.57,666.518 L1472.57,654.447 "/>
<path class="Beam" fill-rule="evenodd" d="M1472.57,636.447 L1533.05,643.052 L1533.05,655.123 L1472.57,648.518 L1472.57,636.447 "/>
<path class="Hook" d="M2208.79,1019.37 C2210.29,1019.37 2211.89,1021.81 2213.58,1026.69 C2215.21,1031.51 2216.02,1036.1 2216.02,1040.47 C2216.02,1044.18 2215.11,1047.85 2213.29,1051.5 C2211.4,1055.4 2209.16,1058.79 2206.55,1061.65 L2198.54,1070.64 C2196.07,1073.5 2193.86,1076.82 2191.9,1080.59 C2190.07,1084.24 2189.16,1087.95 2189.16,1091.73 L2186.04,1091.73 L2186.04,1066.73 L2189.16,1066.73 C2190.92,1065.63 2193.53,1063.87 2196.97,1061.45 C2198.54,1060.28 2200.88,1058.33 2204.01,1055.59 C2206.55,1053.25 2208.47,1050.84 2209.77,1048.37 C2211.14,1045.77 2211.82,1043.13 2211.82,1040.47 C2211.82,1034.28 2210.03,1028.12 2206.44,1022 C2206.44,1022 2206.44,1021.87 2206.44,1021.61 C2206.44,1021.02 2206.64,1020.54 2207.04,1020.15 C2207.56,1019.63 2208.14,1019.37 2208.79,1019.37"/>
<path class="Hook" d="M1462.88,1031.87 C1464.38,1031.87 1465.97,1034.31 1467.67,1039.19 C1469.3,1044.01 1470.11,1048.6 1470.11,1052.97 C1470.11,1056.68 1469.2,1060.35 1467.38,1064 C1465.49,1067.9 1463.25,1071.29 1460.64,1074.15 L1452.63,1083.14 C1450.16,1086 1447.94,1089.32 1445.99,1093.09 C1444.16,1096.74 1443.25,1100.45 1443.25,1104.23 L1440.13,1104.23 L1440.13,1079.23 L1443.25,1079.23 C1445.01,1078.13 1447.62,1076.37 1451.06,1073.95 C1452.63,1072.78 1454.97,1070.83 1458.09,1068.09 C1460.64,1065.75 1462.56,1063.34 1463.86,1060.87 C1465.22,1058.27 1465.91,1055.63 1465.91,1052.97 C1465.91,1046.78 1464.12,1040.62 1460.53,1034.5 C1460.53,1034.5 1460.53,1034.37 1460.53,1034.11 C1460.53,1033.52 1460.73,1033.04 1461.13,1032.65 C1461.65,1032.13 1462.23,1031.87 1462.88,1031.87"/>
<path class="Hook" d="M920.055,1044.37 C921.555,1044.37 923.154,1046.81 924.852,1051.69 C926.477,1056.51 927.29,1061.1 927.29,1065.47 C927.29,1069.18 926.378,1072.85 924.555,1076.5 C922.67,1080.4 920.425,1083.79 917.821,1086.65 L909.805,1095.64 C907.336,1098.5 905.123,1101.82 903.165,1105.59 C901.342,1109.24 900.43,1112.95 900.43,1116.73 L897.305,1116.73 L897.305,1091.73 L900.43,1091.73 C902.191,1090.63 904.795,1088.87 908.243,1086.45 C909.805,1085.28 912.149,1083.33 915.274,1080.59 C917.816,1078.25 919.737,1075.84 921.04,1073.37 C922.404,1070.77 923.086,1068.13 923.086,1065.47 C923.086,1059.28 921.295,1053.12 917.711,1047 C917.711,1047 917.711,1046.87 917.711,1046.61 C917.711,1046.02 917.909,1045.54 918.305,1045.15 C918.826,1044.63 919.409,1044.37 920.055,1044.37"/>
<path class="Hook" d="M1277.87,556.873 C1279.37,556.873 1280.97,559.311 1282.66,564.186 C1284.29,569.009 1285.1,573.602 1285.1,577.967 C1285.1,581.675 1284.19,585.352 1282.37,588.998 C1280.48,592.904 1278.24,596.29 1275.63,599.154 L1267.62,608.139 C1265.15,611.003 1262.93,614.321 1260.98,618.092 C1259.15,621.738 1258.24,625.451 1258.24,629.233 L1255.12,629.233 L1255.12,604.233 L1258.24,604.233 C1260,603.128 1262.61,601.368 1266.05,598.951 C1267.62,597.785 1269.96,595.832 1273.09,593.092 C1275.63,590.748 1277.55,588.342 1278.85,585.873 C1280.22,583.269 1280.9,580.634 1280.9,577.967 C1280.9,571.779 1279.11,565.623 1275.52,559.498 C1275.52,559.498 1275.52,559.368 1275.52,559.108 C1275.52,558.524 1275.72,558.04 1276.12,557.654 C1276.64,557.134 1277.22,556.873 1277.87,556.873"/>
<path class="Hook" d="M1157.89,581.873 C1159.39,581.873 1160.98,584.311 1162.68,589.186 C1164.31,594.009 1165.12,598.602 1165.12,602.967 C1165.12,606.675 1164.21,610.352 1162.39,613.998 C1160.5,617.904 1158.26,621.29 1155.65,624.154 L1147.64,633.139 C1145.17,636.003 1142.95,639.321 1140.99,643.092 C1139.17,646.738 1138.26,650.451 1138.26,654.233 L1135.14,654.233 L1135.14,629.233 L1138.26,629.233 C1140.02,628.128 1142.63,626.368 1146.07,623.951 C1147.64,622.785 1149.98,620.832 1153.1,618.092 C1155.65,615.748 1157.57,613.342 1158.87,610.873 C1160.23,608.269 1160.92,605.634 1160.92,602.967 C1160.92,596.779 1159.13,590.623 1155.54,584.498 C1155.54,584.498 1155.54,584.368 1155.54,584.108 C1155.54,583.524 1155.74,583.04 1156.14,582.654 C1156.66,582.134 1157.24,581.873 1157.89,581.873"/>
<path class="Hook" d="M746.527,606.873 C748.027,606.873 749.626,609.311 751.324,614.186 C752.949,619.009 753.762,623.602 753.762,627.967 C753.762,631.675 752.85,635.352 751.027,638.998 C749.142,642.904 746.897,646.29 744.293,649.154 L736.277,658.139 C733.808,661.003 731.595,664.321 729.637,668.092 C727.814,671.738 726.902,675.451 726.902,679.233 L723.777,679.233 L723.777,654.233 L726.902,654.233 C728.663,653.128 731.267,651.368 734.715,648.951 C736.277,647.785 738.621,645.832 741.746,643.092 C744.288,640.748 746.21,638.342 747.512,635.873 C748.876,633.269 749.558,630.634 749.558,627.967 C749.558,621.779 747.767,615.623 744.183,609.498 C744.183,609.498 744.183,609.368 744.183,609.108 C744.183,608.524 744.381,608.04 744.777,607.654 C745.298,607.134 745.881,606.873 746.527,606.873"/>
<path class="Hook" d="M635.546,594.373 C637.046,594.373 638.645,596.811 640.343,601.686 C641.968,606.509 642.78,611.102 642.78,615.467 C642.78,619.175 641.869,622.852 640.046,626.498 C638.161,630.404 635.916,633.79 633.312,636.654 L625.296,645.639 C622.827,648.503 620.614,651.821 618.655,655.592 C616.832,659.238 615.921,662.951 615.921,666.733 L612.796,666.733 L612.796,641.733 L615.921,641.733 C617.681,640.628 620.286,638.868 623.734,636.451 C625.296,635.285 627.64,633.332 630.765,630.592 C633.306,628.248 635.228,625.842 636.53,623.373 C637.895,620.769 638.577,618.134 638.577,615.467 C638.577,609.279 636.786,603.123 633.202,596.998 C633.202,596.998 633.202,596.868 633.202,596.608 C633.202,596.024 633.4,595.54 633.796,595.154 C634.317,594.634 634.9,594.373 635.546,594.373"/>
<path class="NoteDot" d="M2099.25,1033.24 C2098.14,1032.13 2097.58,1030.8 2097.58,1029.23 C2097.58,1027.67 2098.14,1026.33 2099.25,1025.23 C2100.35,1024.12 2101.69,1023.56 2103.25,1023.56 C2104.82,1023.56 2106.15,1024.12 2107.25,1025.23 C2108.36,1026.33 2108.91,1027.67 2108.91,1029.23 C2108.91,1030.8 2108.36,1032.13 2107.25,1033.24 C2106.15,1034.35 2104.82,1034.9 2103.25,1034.9 C2101.69,1034.9 2100.35,1034.35 2099.25,1033.24"/>
<path class="NoteDot" d="M1550.15,1058.24 C1549.04,1057.13 1548.48,1055.8 1548.48,1054.23 C1548.48,1052.67 1549.04,1051.33 1550.15,1050.23 C1551.26,1049.12 1552.59,1048.56 1554.16,1048.56 C1555.72,1048.56 1557.05,1049.12 1558.16,1050.23 C1559.26,1051.33 1559.81,1052.67 1559.81,1054.23 C1559.81,1055.8 1559.26,1057.13 1558.16,1058.24 C1557.05,1059.35 1555.72,1059.9 1554.16,1059.9 C1552.59,1059.9 1551.26,1059.35 1550.15,1058.24"/>
<path class="NoteDot" d="M810.513,1033.24 C809.404,1032.13 808.849,1030.8 808.849,1029.23 C808.849,1027.67 809.404,1026.33 810.513,1025.23 C811.622,1024.12 812.958,1023.56 814.521,1023.56 C816.083,1023.56 817.417,1024.12 818.521,1025.23 C819.625,1026.33 820.177,1027.67 820.177,1029.23 C820.177,1030.8 819.625,1032.13 818.521,1033.24 C817.417,1034.35 816.083,1034.9 814.521,1034.9 C812.958,1034.9 811.622,1034.35 810.513,1033.24"/>
<path class="NoteDot" d="M1665.04,558.24 C1663.93,557.131 1663.38,555.795 1663.38,554.233 C1663.38,552.67 1663.93,551.334 1665.04,550.225 C1666.15,549.115 1667.49,548.561 1669.05,548.561 C1670.61,548.561 1671.95,549.115 1673.05,550.225 C1674.16,551.334 1674.71,552.67 1674.71,554.233 C1674.71,555.795 1674.16,557.131 1673.05,558.24 C1671.95,559.35 1670.61,559.904 1669.05,559.904 C1667.49,559.904 1666.15,559.35 1665.04,558.24"/>
<path class="NoteDot" d="M1028.28,583.24 C1027.17,582.131 1026.61,580.795 1026.61,579.233 C1026.61,577.67 1027.17,576.334 1028.28,575.225 C1029.38,574.115 1030.72,573.561 1032.28,573.561 C1033.85,573.561 1035.18,574.115 1036.28,575.225 C1037.39,576.334 1037.94,577.67 1037.94,579.233 C1037.94,580.795 1037.39,582.131 1036.28,583.24 C1035.18,584.35 1033.85,584.904 1032.28,584.904 C1030.72,584.904 1029.38,584.35 1028.28,583.24"/>
<path class="NoteDot" d="M844.087,633.24 C842.977,632.131 842.422,630.795 842.422,629.233 C842.422,627.67 842.977,626.334 844.087,625.225 C845.196,624.115 846.532,623.561 848.094,623.561 C849.657,623.561 850.99,624.115 852.094,625.225 C853.199,626.334 853.751,627.67 853.751,629.233 C853.751,630.795 853.199,632.131 852.094,633.24 C850.99,634.35 849.657,634.904 848.094,634.904 C846.532,634.904 845.196,634.35 844.087,633.24"/>
<path class="NoteDot" d="M505.936,558.24 C504.826,557.131 504.272,555.795 504.272,554.233 C504.272,552.67 504.826,551.334 505.936,550.225 C507.045,549.115 508.381,548.561 509.943,548.561 C511.506,548.561 512.839,549.115 513.943,550.225 C515.048,551.334 515.6,552.67 515.6,554.233 C515.6,555.795 515.048,557.131 513.943,558.24 C512.839,559.35 511.506,559.904 509.943,559.904 C508.381,559.904 507.045,559.35 505.936,558.24"/>
</svg>
