<?xml version="1.0" encoding="UTF-8" standalone="no"?>
<svg width="2976.38px" height="4209.45px" viewBox="0 0 2976.38 4209.45"
 xmlns="http://www.w3.org/2000/svg" xmlns:xlink="http://www.w3.org/1999/xlink" version="1.2" baseProfile="tiny">
<title>Mos_Craciun_cu_plete_dalbe</title>
<desc>Generated by MuseScore 3.0.2</desc>
<polyline class="StaffLines" fill="none" stroke="#000000" stroke-width="2.00" stroke-linejoin="bevel" points="141.732,591.761 2834.64,591.761"/>
<polyline class="StaffLines" fill="none" stroke="#000000" stroke-width="2.00" stroke-linejoin="bevel" points="141.732,616.762 2834.64,616.762"/>
<polyline class="StaffLines" fill="none" stroke="#000000" stroke-width="2.00" stroke-linejoin="bevel" points="141.732,641.764 2834.64,641.764"/>
<polyline class="StaffLines" fill="none" stroke="#000000" stroke-width="2.00" stroke-linejoin="bevel" points="141.732,666.765 2834.64,666.765"/>
<polyline class="StaffLines" fill="none" stroke="#000000" stroke-width="2.00" stroke-linejoin="bevel" points="141.732,691.767 2834.64,691.767"/>
<polyline class="StaffLines" fill="none" stroke="#000000" stroke-width="2.00" stroke-linejoin="bevel" points="141.732,1066.79 2834.64,1066.79"/>
<polyline class="StaffLines" fill="none" stroke="#000000" stroke-width="2.00" stroke-linejoin="bevel" points="141.732,1091.79 2834.64,1091.79"/>
<polyline class="StaffLines" fill="none" stroke="#000000" stroke-width="2.00" stroke-linejoin="bevel" points="141.732,1116.79 2834.64,1116.79"/>
<polyline class="StaffLines" fill="none" stroke="#000000" stroke-width="2.00" stroke-linejoin="bevel" points="141.732,1141.8 2834.64,1141.8"/>
<polyline class="StaffLines" fill="none" stroke="#000000" stroke-width="2.00" stroke-linejoin="bevel" points="141.732,1166.8 2834.64,1166.8"/>
<path class="Text" d="M879.295,225.732 L848.592,158.873 L848.592,211.967 C848.592,216.842 849.118,219.888 850.17,221.107 C851.618,222.743 853.904,223.56 857.029,223.56 L859.842,223.56 L859.842,225.732 L832.185,225.732 L832.185,223.56 L834.998,223.56 C838.352,223.56 840.732,222.545 842.139,220.513 C843.003,219.263 843.435,216.415 843.435,211.967 L843.435,160.045 C843.435,156.534 843.045,153.998 842.264,152.435 C841.711,151.3 840.704,150.352 839.24,149.592 C837.777,148.831 835.425,148.451 832.185,148.451 L832.185,146.279 L854.685,146.279 L883.514,208.451 L911.873,146.279 L934.373,146.279 L934.373,148.451 L931.607,148.451 C928.211,148.451 925.81,149.467 924.404,151.498 C923.55,152.748 923.123,155.597 923.123,160.045 L923.123,211.967 C923.123,216.842 923.67,219.888 924.764,221.107 C926.201,222.743 928.482,223.56 931.607,223.56 L934.373,223.56 L934.373,225.732 L900.623,225.732 L900.623,223.56 L903.435,223.56 C906.831,223.56 909.211,222.545 910.576,220.513 C911.441,219.263 911.873,216.415 911.873,211.967 L911.873,158.873 L881.217,225.732 L879.295,225.732 M967.185,170.482 C975.31,170.482 981.836,173.566 986.764,179.732 C990.941,185.003 993.029,191.06 993.029,197.904 C993.029,202.706 991.875,207.568 989.568,212.49 C987.261,217.412 984.086,221.123 980.045,223.623 C976.003,226.123 971.503,227.373 966.545,227.373 C958.461,227.373 952.034,224.149 947.264,217.701 C943.243,212.274 941.232,206.18 941.232,199.42 C941.232,194.503 942.454,189.612 944.896,184.748 C947.339,179.883 950.553,176.29 954.537,173.967 C958.521,171.644 962.737,170.482 967.185,170.482 M965.373,174.279 C963.3,174.279 961.219,174.896 959.131,176.131 C957.042,177.365 955.352,179.524 954.06,182.607 C952.769,185.691 952.123,189.654 952.123,194.498 C952.123,202.31 953.678,209.05 956.787,214.717 C959.896,220.383 963.987,223.217 969.06,223.217 C972.852,223.217 975.977,221.654 978.435,218.529 C980.894,215.404 982.123,210.029 982.123,202.404 C982.123,192.873 980.076,185.373 975.982,179.904 C973.201,176.154 969.665,174.279 965.373,174.279 M1035.62,170.482 L1035.62,188.763 L1033.69,188.763 C1032.21,183.013 1030.31,179.105 1027.98,177.037 C1025.66,174.969 1022.7,173.935 1019.11,173.935 C1016.37,173.935 1014.16,174.657 1012.48,176.099 C1010.81,177.542 1009.97,179.144 1009.97,180.904 C1009.97,183.092 1010.59,184.967 1011.84,186.529 C1013.05,188.133 1015.51,189.831 1019.22,191.623 L1027.78,195.795 C1035.71,199.659 1039.67,204.753 1039.67,211.076 C1039.67,215.961 1037.82,219.899 1034.13,222.888 C1030.44,225.878 1026.31,227.373 1021.73,227.373 C1018.45,227.373 1014.7,226.784 1010.48,225.607 C1009.2,225.222 1008.15,225.029 1007.33,225.029 C1006.43,225.029 1005.73,225.54 1005.22,226.56 L1003.28,226.56 L1003.28,207.388 L1005.22,207.388 C1006.31,212.857 1008.4,216.98 1011.48,219.756 C1014.57,222.532 1018.02,223.92 1021.86,223.92 C1024.56,223.92 1026.75,223.128 1028.45,221.545 C1030.15,219.961 1031,218.055 1031,215.826 C1031,213.128 1030.05,210.862 1028.15,209.029 C1026.26,207.196 1022.48,204.873 1016.82,202.06 C1011.16,199.248 1007.45,196.706 1005.69,194.435 C1003.92,192.217 1003.04,189.404 1003.04,185.998 C1003.04,181.592 1004.56,177.904 1007.58,174.935 C1010.61,171.967 1014.53,170.482 1019.34,170.482 C1021.45,170.482 1024,170.93 1027.01,171.826 C1029,172.409 1030.33,172.701 1031,172.701 C1031.62,172.701 1032.11,172.566 1032.46,172.295 C1032.81,172.024 1033.22,171.42 1033.69,170.482 L1035.62,170.482 M1146.44,144.467 L1148.25,171.467 L1146.44,171.467 C1144.01,163.383 1140.55,157.566 1136.06,154.013 C1131.57,150.461 1126.18,148.685 1119.89,148.685 C1114.62,148.685 1109.85,150.021 1105.59,152.693 C1101.33,155.365 1097.98,159.631 1095.54,165.49 C1093.11,171.349 1091.89,178.638 1091.89,187.357 C1091.89,194.545 1093.04,200.774 1095.34,206.045 C1097.64,211.316 1101.11,215.357 1105.74,218.17 C1110.37,220.982 1115.65,222.388 1121.59,222.388 C1126.75,222.388 1131.3,221.284 1135.24,219.076 C1139.18,216.868 1143.52,212.482 1148.25,205.92 L1150.06,207.092 C1146.08,214.165 1141.44,219.342 1136.12,222.623 C1130.81,225.904 1124.5,227.545 1117.2,227.545 C1104.03,227.545 1093.84,222.665 1086.61,212.904 C1081.22,205.633 1078.53,197.076 1078.53,187.232 C1078.53,179.305 1080.31,172.021 1083.86,165.381 C1087.41,158.74 1092.3,153.594 1098.53,149.943 C1104.76,146.292 1111.57,144.467 1118.95,144.467 C1124.69,144.467 1130.36,145.873 1135.95,148.685 C1137.59,149.54 1138.76,149.967 1139.47,149.967 C1140.52,149.967 1141.44,149.597 1142.22,148.857 C1143.23,147.805 1143.95,146.342 1144.39,144.467 L1146.44,144.467 M1173.64,170.482 L1173.64,182.545 C1178.13,174.503 1182.74,170.482 1187.47,170.482 C1189.61,170.482 1191.39,171.136 1192.79,172.443 C1194.2,173.75 1194.9,175.263 1194.9,176.982 C1194.9,178.503 1194.4,179.792 1193.38,180.849 C1192.37,181.907 1191.15,182.435 1189.75,182.435 C1188.38,182.435 1186.85,181.761 1185.15,180.412 C1183.46,179.063 1182.2,178.388 1181.37,178.388 C1180.67,178.388 1179.91,178.779 1179.09,179.56 C1177.33,181.165 1175.51,183.8 1173.64,187.467 L1173.64,213.185 C1173.64,216.154 1174.01,218.404 1174.75,219.935 C1175.26,220.987 1176.16,221.865 1177.45,222.568 C1178.74,223.271 1180.6,223.623 1183.01,223.623 L1183.01,225.732 L1155.53,225.732 L1155.53,223.623 C1158.27,223.623 1160.3,223.191 1161.62,222.326 C1162.6,221.701 1163.29,220.706 1163.69,219.342 C1163.87,218.675 1163.97,216.779 1163.97,213.654 L1163.97,192.857 C1163.97,186.607 1163.84,182.886 1163.59,181.693 C1163.34,180.5 1162.87,179.631 1162.19,179.084 C1161.5,178.537 1160.65,178.263 1159.64,178.263 C1158.43,178.263 1157.06,178.56 1155.53,179.154 L1154.95,177.045 L1171.19,170.482 L1173.64,170.482 M1228.34,217.998 C1222.84,222.258 1219.39,224.717 1217.98,225.373 C1215.87,226.352 1213.62,226.842 1211.23,226.842 C1207.52,226.842 1204.47,225.573 1202.07,223.037 C1199.67,220.5 1198.47,217.159 1198.47,213.013 C1198.47,210.399 1199.05,208.133 1200.22,206.217 C1201.82,203.56 1204.6,201.06 1208.57,198.717 C1212.53,196.373 1219.12,193.524 1228.34,190.17 L1228.34,188.06 C1228.34,182.706 1227.49,179.032 1225.79,177.037 C1224.1,175.042 1221.63,174.045 1218.39,174.045 C1215.93,174.045 1213.98,174.711 1212.53,176.045 C1211.04,177.368 1210.29,178.888 1210.29,180.607 L1210.42,184.013 C1210.42,185.805 1209.96,187.191 1209.04,188.17 C1208.13,189.149 1206.92,189.638 1205.44,189.638 C1203.99,189.638 1202.81,189.131 1201.89,188.115 C1200.97,187.099 1200.51,185.711 1200.51,183.951 C1200.51,180.597 1202.23,177.513 1205.67,174.701 C1209.11,171.888 1213.93,170.482 1220.14,170.482 C1224.91,170.482 1228.82,171.279 1231.86,172.873 C1234.17,174.092 1235.87,175.987 1236.97,178.56 C1237.66,180.237 1238.01,183.675 1238.01,188.873 L1238.01,207.092 C1238.01,212.217 1238.11,215.355 1238.31,216.506 C1238.51,217.657 1238.83,218.428 1239.28,218.818 C1239.73,219.209 1240.24,219.404 1240.83,219.404 C1241.45,219.404 1242,219.269 1242.47,218.998 C1243.29,218.487 1244.87,217.06 1247.22,214.717 L1247.22,217.998 C1242.84,223.862 1238.66,226.795 1234.67,226.795 C1232.76,226.795 1231.24,226.128 1230.11,224.795 C1228.97,223.461 1228.38,221.196 1228.34,217.998 M1228.34,214.185 L1228.34,193.732 C1222.45,196.076 1218.64,197.737 1216.92,198.717 C1213.84,200.435 1211.63,202.232 1210.3,204.107 C1208.97,205.982 1208.31,208.034 1208.31,210.263 C1208.31,213.076 1209.15,215.409 1210.83,217.263 C1212.5,219.118 1214.44,220.045 1216.62,220.045 C1219.59,220.045 1223.5,218.092 1228.34,214.185 M1296.53,205.342 C1295.08,212.415 1292.25,217.855 1288.03,221.662 C1283.81,225.469 1279.14,227.373 1274.03,227.373 C1267.94,227.373 1262.62,224.813 1258.09,219.693 C1253.56,214.573 1251.29,207.659 1251.29,198.951 C1251.29,190.513 1253.8,183.659 1258.82,178.388 C1263.83,173.118 1269.86,170.482 1276.89,170.482 C1282.17,170.482 1286.51,171.878 1289.9,174.67 C1293.3,177.461 1295,180.362 1295,183.373 C1295,184.852 1294.52,186.05 1293.56,186.967 C1292.6,187.883 1291.26,188.342 1289.54,188.342 C1287.24,188.342 1285.51,187.602 1284.34,186.123 C1283.67,185.3 1283.23,183.737 1283.02,181.435 C1282.81,179.133 1282.01,177.373 1280.64,176.154 C1279.27,174.987 1277.38,174.404 1274.97,174.404 C1271.06,174.404 1267.91,175.847 1265.53,178.732 C1262.36,182.566 1260.78,187.628 1260.78,193.92 C1260.78,200.326 1262.35,205.98 1265.5,210.881 C1268.64,215.782 1272.89,218.232 1278.25,218.232 C1282.07,218.232 1285.51,216.925 1288.56,214.31 C1290.71,212.508 1292.79,209.243 1294.83,204.513 L1296.53,205.342 M1317.59,142.404 C1319.23,142.404 1320.62,142.982 1321.78,144.138 C1322.94,145.295 1323.51,146.691 1323.51,148.326 C1323.51,149.972 1322.94,151.381 1321.78,152.553 C1320.62,153.724 1319.23,154.31 1317.59,154.31 C1315.95,154.31 1314.54,153.724 1313.37,152.553 C1312.19,151.381 1311.61,149.972 1311.61,148.326 C1311.61,146.691 1312.19,145.295 1313.34,144.138 C1314.5,142.982 1315.91,142.404 1317.59,142.404 M1322.45,170.482 L1322.45,213.607 C1322.45,216.961 1322.7,219.196 1323.19,220.31 C1323.67,221.425 1324.4,222.256 1325.36,222.803 C1326.32,223.349 1328.06,223.623 1330.59,223.623 L1330.59,225.732 L1304.53,225.732 L1304.53,223.623 C1307.14,223.623 1308.9,223.368 1309.79,222.857 C1310.69,222.347 1311.4,221.506 1311.94,220.334 C1312.47,219.162 1312.73,216.92 1312.73,213.607 L1312.73,192.92 C1312.73,187.097 1312.56,183.326 1312.2,181.607 C1311.93,180.357 1311.5,179.487 1310.91,178.998 C1310.32,178.508 1309.52,178.263 1308.51,178.263 C1307.42,178.263 1306.09,178.56 1304.53,179.154 L1303.7,177.045 L1319.87,170.482 L1322.45,170.482 M1383.98,172.06 L1383.98,204.576 C1383.98,210.784 1384.13,214.584 1384.43,215.974 C1384.72,217.365 1385.19,218.334 1385.83,218.881 C1386.47,219.428 1387.23,219.701 1388.09,219.701 C1389.3,219.701 1390.66,219.368 1392.19,218.701 L1393.01,220.748 L1376.95,227.373 L1374.33,227.373 L1374.33,215.998 C1369.71,220.998 1366.19,224.144 1363.77,225.435 C1361.35,226.727 1358.79,227.373 1356.09,227.373 C1353.09,227.373 1350.49,226.503 1348.28,224.763 C1346.07,223.024 1344.54,220.787 1343.68,218.053 C1342.82,215.318 1342.39,211.451 1342.39,206.451 L1342.39,182.482 C1342.39,179.951 1342.12,178.196 1341.57,177.217 C1341.02,176.237 1340.21,175.485 1339.14,174.959 C1338.07,174.433 1336.12,174.191 1333.31,174.232 L1333.31,172.06 L1352.11,172.06 L1352.11,207.982 C1352.11,212.982 1352.98,216.263 1354.72,217.826 C1356.46,219.388 1358.56,220.17 1361.01,220.17 C1362.7,220.17 1364.61,219.641 1366.73,218.584 C1368.86,217.527 1371.39,215.513 1374.33,212.545 L1374.33,182.138 C1374.33,179.086 1373.77,177.024 1372.65,175.951 C1371.54,174.878 1369.22,174.305 1365.7,174.232 L1365.7,172.06 L1383.98,172.06 M1412.58,181.842 C1418.87,174.269 1424.87,170.482 1430.58,170.482 C1433.5,170.482 1436.02,171.214 1438.13,172.678 C1440.24,174.141 1441.92,176.55 1443.17,179.904 C1444.02,182.248 1444.45,185.842 1444.45,190.685 L1444.45,213.607 C1444.45,217.003 1444.73,219.305 1445.28,220.513 C1445.71,221.493 1446.4,222.256 1447.36,222.803 C1448.32,223.349 1450.08,223.623 1452.65,223.623 L1452.65,225.732 L1426.12,225.732 L1426.12,223.623 L1427.23,223.623 C1429.73,223.623 1431.48,223.243 1432.47,222.482 C1433.47,221.722 1434.16,220.597 1434.56,219.107 C1434.72,218.524 1434.79,216.691 1434.79,213.607 L1434.79,191.623 C1434.79,186.748 1434.16,183.206 1432.89,180.998 C1431.62,178.79 1429.48,177.685 1426.47,177.685 C1421.82,177.685 1417.19,180.222 1412.58,185.295 L1412.58,213.607 C1412.58,217.232 1412.79,219.477 1413.23,220.342 C1413.77,221.477 1414.52,222.308 1415.48,222.834 C1416.44,223.36 1418.38,223.623 1421.31,223.623 L1421.31,225.732 L1394.76,225.732 L1394.76,223.623 L1395.94,223.623 C1398.67,223.623 1400.52,222.93 1401.48,221.545 C1402.44,220.159 1402.92,217.513 1402.92,213.607 L1402.92,193.685 C1402.92,187.237 1402.77,183.31 1402.47,181.904 C1402.18,180.498 1401.73,179.54 1401.12,179.029 C1400.52,178.519 1399.71,178.263 1398.7,178.263 C1397.61,178.263 1396.29,178.56 1394.76,179.154 L1393.89,177.045 L1410.06,170.482 L1412.58,170.482 L1412.58,181.842 M1532.53,205.342 C1531.08,212.415 1528.25,217.855 1524.03,221.662 C1519.81,225.469 1515.14,227.373 1510.03,227.373 C1503.94,227.373 1498.62,224.813 1494.09,219.693 C1489.56,214.573 1487.29,207.659 1487.29,198.951 C1487.29,190.513 1489.8,183.659 1494.82,178.388 C1499.83,173.118 1505.86,170.482 1512.89,170.482 C1518.17,170.482 1522.51,171.878 1525.9,174.67 C1529.3,177.461 1531,180.362 1531,183.373 C1531,184.852 1530.52,186.05 1529.56,186.967 C1528.6,187.883 1527.26,188.342 1525.54,188.342 C1523.24,188.342 1521.51,187.602 1520.34,186.123 C1519.67,185.3 1519.23,183.737 1519.02,181.435 C1518.81,179.133 1518.01,177.373 1516.64,176.154 C1515.27,174.987 1513.38,174.404 1510.97,174.404 C1507.06,174.404 1503.91,175.847 1501.53,178.732 C1498.36,182.566 1496.78,187.628 1496.78,193.92 C1496.78,200.326 1498.35,205.98 1501.5,210.881 C1504.64,215.782 1508.89,218.232 1514.25,218.232 C1518.07,218.232 1521.51,216.925 1524.56,214.31 C1526.71,212.508 1528.79,209.243 1530.83,204.513 L1532.53,205.342 M1586.98,172.06 L1586.98,204.576 C1586.98,210.784 1587.13,214.584 1587.43,215.974 C1587.72,217.365 1588.19,218.334 1588.83,218.881 C1589.47,219.428 1590.23,219.701 1591.09,219.701 C1592.3,219.701 1593.66,219.368 1595.19,218.701 L1596.01,220.748 L1579.95,227.373 L1577.33,227.373 L1577.33,215.998 C1572.71,220.998 1569.19,224.144 1566.77,225.435 C1564.35,226.727 1561.79,227.373 1559.09,227.373 C1556.09,227.373 1553.49,226.503 1551.28,224.763 C1549.07,223.024 1547.54,220.787 1546.68,218.053 C1545.82,215.318 1545.39,211.451 1545.39,206.451 L1545.39,182.482 C1545.39,179.951 1545.12,178.196 1544.57,177.217 C1544.02,176.237 1543.21,175.485 1542.14,174.959 C1541.07,174.433 1539.12,174.191 1536.31,174.232 L1536.31,172.06 L1555.11,172.06 L1555.11,207.982 C1555.11,212.982 1555.98,216.263 1557.72,217.826 C1559.46,219.388 1561.56,220.17 1564.01,220.17 C1565.7,220.17 1567.61,219.641 1569.73,218.584 C1571.86,217.527 1574.39,215.513 1577.33,212.545 L1577.33,182.138 C1577.33,179.086 1576.77,177.024 1575.65,175.951 C1574.54,174.878 1572.22,174.305 1568.7,174.232 L1568.7,172.06 L1586.98,172.06 M1626.06,177.388 L1642.59,170.717 L1644.83,170.717 L1644.83,183.248 C1647.6,178.519 1650.38,175.209 1653.17,173.318 C1655.96,171.428 1658.9,170.482 1661.98,170.482 C1667.38,170.482 1671.87,172.592 1675.47,176.81 C1679.88,181.967 1682.09,188.685 1682.09,196.967 C1682.09,206.217 1679.44,213.873 1674.12,219.935 C1669.75,224.894 1664.24,227.373 1657.59,227.373 C1654.71,227.373 1652.21,226.961 1650.09,226.138 C1648.53,225.555 1646.77,224.383 1644.83,222.623 L1644.83,238.982 C1644.83,242.649 1645.05,244.98 1645.5,245.974 C1645.95,246.969 1646.73,247.761 1647.84,248.349 C1648.96,248.938 1650.98,249.232 1653.9,249.232 L1653.9,251.404 L1625.78,251.404 L1625.78,249.232 L1627.25,249.232 C1629.39,249.274 1631.23,248.862 1632.75,247.998 C1633.49,247.571 1634.06,246.878 1634.47,245.92 C1634.89,244.961 1635.09,242.529 1635.09,238.623 L1635.09,187.873 C1635.09,184.404 1634.94,182.201 1634.62,181.263 C1634.31,180.326 1633.81,179.623 1633.13,179.154 C1632.45,178.685 1631.52,178.451 1630.34,178.451 C1629.4,178.451 1628.22,178.722 1626.78,179.263 L1626.06,177.388 M1644.83,186.701 L1644.83,206.748 C1644.83,211.081 1645,213.93 1645.34,215.295 C1645.89,217.566 1647.23,219.56 1649.37,221.279 C1651.5,222.998 1654.18,223.857 1657.42,223.857 C1661.33,223.857 1664.49,222.331 1666.9,219.279 C1670.07,215.3 1671.65,209.696 1671.65,202.467 C1671.65,194.269 1669.86,187.961 1666.26,183.545 C1663.76,180.493 1660.79,178.967 1657.36,178.967 C1655.48,178.967 1653.63,179.435 1651.79,180.373 C1650.39,181.081 1648.07,183.191 1644.83,186.701 M1708.39,142.404 L1708.39,213.607 C1708.39,216.961 1708.63,219.185 1709.12,220.279 C1709.61,221.373 1710.37,222.204 1711.38,222.771 C1712.4,223.339 1714.29,223.623 1717.06,223.623 L1717.06,225.732 L1690.76,225.732 L1690.76,223.623 C1693.22,223.623 1694.9,223.368 1695.79,222.857 C1696.69,222.347 1697.39,221.506 1697.9,220.334 C1698.41,219.162 1698.67,216.92 1698.67,213.607 L1698.67,164.857 C1698.67,158.795 1698.53,155.071 1698.26,153.685 C1697.98,152.3 1697.54,151.355 1696.94,150.849 C1696.33,150.344 1695.56,150.092 1694.62,150.092 C1693.61,150.092 1692.33,150.404 1690.76,151.029 L1689.76,148.967 L1705.76,142.404 L1708.39,142.404 M1731.97,192.279 C1731.92,200.248 1733.86,206.498 1737.76,211.029 C1741.67,215.56 1746.26,217.826 1751.53,217.826 C1755.05,217.826 1758.11,216.857 1760.7,214.92 C1763.29,212.982 1765.47,209.67 1767.23,204.982 L1769.04,206.154 C1768.23,211.508 1765.85,216.383 1761.9,220.779 C1757.96,225.175 1753.01,227.373 1747.08,227.373 C1740.63,227.373 1735.11,224.862 1730.52,219.842 C1725.93,214.821 1723.64,208.071 1723.64,199.592 C1723.64,190.415 1725.99,183.258 1730.7,178.123 C1735.41,172.987 1741.32,170.42 1748.42,170.42 C1754.44,170.42 1759.38,172.402 1763.25,176.365 C1767.11,180.329 1769.04,185.633 1769.04,192.279 L1731.97,192.279 M1731.97,188.873 L1756.81,188.873 C1756.61,185.435 1756.2,183.013 1755.58,181.607 C1754.6,179.42 1753.14,177.701 1751.21,176.451 C1749.28,175.201 1747.25,174.576 1745.14,174.576 C1741.9,174.576 1739,175.836 1736.44,178.357 C1733.89,180.878 1732.39,184.383 1731.97,188.873 M1791.53,154.42 L1791.53,172.06 L1804.06,172.06 L1804.06,176.154 L1791.53,176.154 L1791.53,210.967 C1791.53,214.446 1792.03,216.79 1793.02,217.998 C1794.02,219.206 1795.29,219.81 1796.86,219.81 C1798.15,219.81 1799.4,219.409 1800.61,218.607 C1801.82,217.805 1802.75,216.623 1803.42,215.06 L1805.7,215.06 C1804.34,218.894 1802.4,221.777 1799.9,223.709 C1797.4,225.641 1794.83,226.607 1792.17,226.607 C1790.37,226.607 1788.61,226.11 1786.89,225.115 C1785.17,224.12 1783.9,222.696 1783.08,220.842 C1782.27,218.987 1781.86,216.123 1781.86,212.248 L1781.86,176.154 L1773.36,176.154 L1773.36,174.232 C1775.5,173.368 1777.7,171.909 1779.95,169.857 C1782.2,167.805 1784.2,165.373 1785.95,162.56 C1786.86,161.081 1788.11,158.368 1789.7,154.42 L1791.53,154.42 M1817.97,192.279 C1817.92,200.248 1819.86,206.498 1823.76,211.029 C1827.67,215.56 1832.26,217.826 1837.53,217.826 C1841.05,217.826 1844.11,216.857 1846.7,214.92 C1849.29,212.982 1851.47,209.67 1853.23,204.982 L1855.04,206.154 C1854.23,211.508 1851.85,216.383 1847.9,220.779 C1843.96,225.175 1839.01,227.373 1833.08,227.373 C1826.63,227.373 1821.11,224.862 1816.52,219.842 C1811.93,214.821 1809.64,208.071 1809.64,199.592 C1809.64,190.415 1811.99,183.258 1816.7,178.123 C1821.41,172.987 1827.32,170.42 1834.42,170.42 C1840.44,170.42 1845.38,172.402 1849.25,176.365 C1853.11,180.329 1855.04,185.633 1855.04,192.279 L1817.97,192.279 M1817.97,188.873 L1842.81,188.873 C1842.61,185.435 1842.2,183.013 1841.58,181.607 C1840.6,179.42 1839.14,177.701 1837.21,176.451 C1835.28,175.201 1833.25,174.576 1831.14,174.576 C1827.9,174.576 1825,175.836 1822.44,178.357 C1819.89,180.878 1818.39,184.383 1817.97,188.873 M1929.84,219.701 C1927.23,222.43 1924.67,224.391 1922.17,225.584 C1919.67,226.777 1916.98,227.373 1914.09,227.373 C1908.23,227.373 1903.11,224.922 1898.73,220.021 C1894.36,215.12 1892.17,208.821 1892.17,201.123 C1892.17,193.425 1894.59,186.383 1899.44,179.998 C1904.28,173.612 1910.51,170.42 1918.12,170.42 C1922.85,170.42 1926.76,171.925 1929.84,174.935 L1929.84,165.029 C1929.84,158.894 1929.7,155.123 1929.4,153.717 C1929.11,152.31 1928.65,151.355 1928.03,150.849 C1927.4,150.344 1926.62,150.092 1925.69,150.092 C1924.67,150.092 1923.33,150.404 1921.64,151.029 L1920.89,148.967 L1936.87,142.404 L1939.51,142.404 L1939.51,204.467 C1939.51,210.748 1939.66,214.584 1939.95,215.974 C1940.24,217.365 1940.71,218.334 1941.36,218.881 C1942,219.428 1942.76,219.701 1943.62,219.701 C1944.67,219.701 1946.08,219.368 1947.84,218.701 L1948.48,220.748 L1932.54,227.373 L1929.84,227.373 L1929.84,219.701 M1929.84,215.592 L1929.84,187.935 C1929.61,185.279 1928.91,182.857 1927.74,180.67 C1926.57,178.482 1925.02,176.831 1923.08,175.717 C1921.15,174.602 1919.26,174.045 1917.42,174.045 C1913.98,174.045 1910.92,175.592 1908.23,178.685 C1904.67,182.748 1902.89,188.685 1902.89,196.498 C1902.89,204.383 1904.61,210.425 1908.04,214.623 C1911.48,218.821 1915.31,220.92 1919.53,220.92 C1923.09,220.92 1926.53,219.144 1929.84,215.592 M1982.34,217.998 C1976.84,222.258 1973.39,224.717 1971.98,225.373 C1969.87,226.352 1967.62,226.842 1965.23,226.842 C1961.52,226.842 1958.47,225.573 1956.07,223.037 C1953.67,220.5 1952.47,217.159 1952.47,213.013 C1952.47,210.399 1953.05,208.133 1954.22,206.217 C1955.82,203.56 1958.6,201.06 1962.57,198.717 C1966.53,196.373 1973.12,193.524 1982.34,190.17 L1982.34,188.06 C1982.34,182.706 1981.49,179.032 1979.79,177.037 C1978.1,175.042 1975.63,174.045 1972.39,174.045 C1969.93,174.045 1967.98,174.711 1966.53,176.045 C1965.04,177.368 1964.29,178.888 1964.29,180.607 L1964.42,184.013 C1964.42,185.805 1963.96,187.191 1963.04,188.17 C1962.13,189.149 1960.92,189.638 1959.44,189.638 C1957.99,189.638 1956.81,189.131 1955.89,188.115 C1954.97,187.099 1954.51,185.711 1954.51,183.951 C1954.51,180.597 1956.23,177.513 1959.67,174.701 C1963.11,171.888 1967.93,170.482 1974.14,170.482 C1978.91,170.482 1982.82,171.279 1985.86,172.873 C1988.17,174.092 1989.87,175.987 1990.97,178.56 C1991.66,180.237 1992.01,183.675 1992.01,188.873 L1992.01,207.092 C1992.01,212.217 1992.11,215.355 1992.31,216.506 C1992.51,217.657 1992.83,218.428 1993.28,218.818 C1993.73,219.209 1994.24,219.404 1994.83,219.404 C1995.45,219.404 1996,219.269 1996.47,218.998 C1997.29,218.487 1998.87,217.06 2001.22,214.717 L2001.22,217.998 C1996.84,223.862 1992.66,226.795 1988.67,226.795 C1986.76,226.795 1985.24,226.128 1984.11,224.795 C1982.97,223.461 1982.38,221.196 1982.34,217.998 M1982.34,214.185 L1982.34,193.732 C1976.45,196.076 1972.64,197.737 1970.92,198.717 C1967.84,200.435 1965.63,202.232 1964.3,204.107 C1962.97,205.982 1962.31,208.034 1962.31,210.263 C1962.31,213.076 1963.15,215.409 1964.83,217.263 C1966.5,219.118 1968.44,220.045 1970.62,220.045 C1973.59,220.045 1977.5,218.092 1982.34,214.185 M2023.39,142.404 L2023.39,213.607 C2023.39,216.961 2023.63,219.185 2024.12,220.279 C2024.61,221.373 2025.37,222.204 2026.38,222.771 C2027.4,223.339 2029.29,223.623 2032.06,223.623 L2032.06,225.732 L2005.76,225.732 L2005.76,223.623 C2008.22,223.623 2009.9,223.368 2010.79,222.857 C2011.69,222.347 2012.39,221.506 2012.9,220.334 C2013.41,219.162 2013.67,216.92 2013.67,213.607 L2013.67,164.857 C2013.67,158.795 2013.53,155.071 2013.26,153.685 C2012.98,152.3 2012.54,151.355 2011.94,150.849 C2011.33,150.344 2010.56,150.092 2009.62,150.092 C2008.61,150.092 2007.33,150.404 2005.76,151.029 L2004.76,148.967 L2020.76,142.404 L2023.39,142.404 M2052.64,181.31 C2057.84,174.092 2063.45,170.482 2069.47,170.482 C2074.97,170.482 2079.77,172.834 2083.87,177.537 C2087.98,182.24 2090.03,188.675 2090.03,196.842 C2090.03,206.373 2086.86,214.05 2080.53,219.873 C2075.1,224.873 2069.05,227.373 2062.37,227.373 C2059.25,227.373 2056.07,226.805 2052.85,225.67 C2049.63,224.534 2046.34,222.836 2042.98,220.576 L2042.98,164.967 C2042.98,158.873 2042.83,155.123 2042.54,153.717 C2042.24,152.31 2041.78,151.355 2041.15,150.849 C2040.53,150.344 2039.75,150.092 2038.81,150.092 C2037.72,150.092 2036.35,150.404 2034.72,151.029 L2033.89,148.967 L2050.01,142.404 L2052.64,142.404 L2052.64,181.31 M2052.64,185.06 L2052.64,217.17 C2054.64,219.128 2056.7,220.605 2058.83,221.599 C2060.95,222.594 2063.13,223.092 2065.36,223.092 C2068.91,223.092 2072.22,221.138 2075.29,217.232 C2078.35,213.326 2079.89,207.644 2079.89,200.185 C2079.89,193.31 2078.35,188.027 2075.29,184.334 C2072.22,180.641 2068.73,178.795 2064.83,178.795 C2062.76,178.795 2060.7,179.321 2058.62,180.373 C2057.06,181.154 2055.07,182.717 2052.64,185.06 M2106.97,192.279 C2106.92,200.248 2108.86,206.498 2112.76,211.029 C2116.67,215.56 2121.26,217.826 2126.53,217.826 C2130.05,217.826 2133.11,216.857 2135.7,214.92 C2138.29,212.982 2140.47,209.67 2142.23,204.982 L2144.04,206.154 C2143.23,211.508 2140.85,216.383 2136.9,220.779 C2132.96,225.175 2128.01,227.373 2122.08,227.373 C2115.63,227.373 2110.11,224.862 2105.52,219.842 C2100.93,214.821 2098.64,208.071 2098.64,199.592 C2098.64,190.415 2100.99,183.258 2105.7,178.123 C2110.41,172.987 2116.32,170.42 2123.42,170.42 C2129.44,170.42 2134.38,172.402 2138.25,176.365 C2142.11,180.329 2144.04,185.633 2144.04,192.279 L2106.97,192.279 M2106.97,188.873 L2131.81,188.873 C2131.61,185.435 2131.2,183.013 2130.58,181.607 C2129.6,179.42 2128.14,177.701 2126.21,176.451 C2124.28,175.201 2122.25,174.576 2120.14,174.576 C2116.9,174.576 2114,175.836 2111.44,178.357 C2108.89,180.878 2107.39,184.383 2106.97,188.873"/>
<path class="TieSegment" stroke="#000000" stroke-width="1.75" stroke-linecap="round" stroke-linejoin="round" fill-rule="evenodd" d="M2241.49,1152.21 C2298.85,1182.71 2470.92,1182.71 2528.27,1152.21 C2470.92,1186.71 2298.85,1186.71 2241.49,1152.21"/>
<path class="TieSegment" stroke="#000000" stroke-width="1.75" stroke-linecap="round" stroke-linejoin="round" fill-rule="evenodd" d="M969.947,1085.54 C1033.83,1051.04 1225.48,1051.04 1289.36,1085.54 C1225.48,1055.04 1033.83,1055.04 969.947,1085.54"/>
<path class="TieSegment" stroke="#000000" stroke-width="1.75" stroke-linecap="round" stroke-linejoin="round" fill-rule="evenodd" d="M2241.49,1152.21 C2298.85,1182.71 2470.92,1182.71 2528.27,1152.21 C2470.92,1186.71 2298.85,1186.71 2241.49,1152.21"/>
<path class="TieSegment" stroke="#000000" stroke-width="1.75" stroke-linecap="round" stroke-linejoin="round" fill-rule="evenodd" d="M969.947,1085.54 C1033.83,1051.04 1225.48,1051.04 1289.36,1085.54 C1225.48,1055.04 1033.83,1055.04 969.947,1085.54"/>
<polyline class="BarLine" stroke="#000000" stroke-width="4.00" stroke-linejoin="bevel" points="2804.39,1065.79 2804.39,1167.8"/>
<polyline class="BarLine" stroke="#000000" stroke-width="12.50" stroke-linejoin="bevel" points="2828.39,1065.79 2828.39,1167.8"/>
<polyline class="BarLine" stroke="#000000" stroke-width="4.00" stroke-linejoin="bevel" points="2487.93,1065.79 2487.93,1167.8"/>
<polyline class="BarLine" stroke="#000000" stroke-width="4.00" stroke-linejoin="bevel" points="2169.7,1065.79 2169.7,1167.8"/>
<polyline class="BarLine" stroke="#000000" stroke-width="4.00" stroke-linejoin="bevel" points="1859.4,1065.79 1859.4,1167.8"/>
<polyline class="BarLine" stroke="#000000" stroke-width="4.00" stroke-linejoin="bevel" points="1549.16,1065.79 1549.16,1167.8"/>
<polyline class="BarLine" stroke="#000000" stroke-width="4.00" stroke-linejoin="bevel" points="1232.71,1065.79 1232.71,1167.8"/>
<polyline class="BarLine" stroke="#000000" stroke-width="4.00" stroke-linejoin="bevel" points="914.474,1065.79 914.474,1167.8"/>
<polyline class="BarLine" stroke="#000000" stroke-width="4.00" stroke-linejoin="bevel" points="604.174,1065.79 604.174,1167.8"/>
<path class="BarLine" d="M2784.64,633.264 C2783.53,632.16 2782.98,630.826 2782.98,629.264 C2782.98,627.701 2783.53,626.365 2784.64,625.256 C2785.75,624.147 2787.09,623.592 2788.65,623.592 C2790.21,623.592 2791.54,624.147 2792.65,625.256 C2793.75,626.365 2794.3,627.701 2794.3,629.264 C2794.3,630.826 2793.75,632.16 2792.65,633.264 C2791.54,634.368 2790.21,634.92 2788.65,634.92 C2787.09,634.92 2785.75,634.368 2784.64,633.264"/>
<path class="BarLine" d="M2784.64,658.265 C2783.53,657.161 2782.98,655.828 2782.98,654.265 C2782.98,652.703 2783.53,651.367 2784.64,650.258 C2785.75,649.148 2787.09,648.593 2788.65,648.593 C2790.21,648.593 2791.54,649.148 2792.65,650.258 C2793.75,651.367 2794.3,652.703 2794.3,654.265 C2794.3,655.828 2793.75,657.161 2792.65,658.265 C2791.54,659.369 2790.21,659.922 2788.65,659.922 C2787.09,659.922 2785.75,659.369 2784.64,658.265"/>
<polyline class="BarLine" stroke="#000000" stroke-width="4.00" stroke-linejoin="bevel" points="2804.39,590.761 2804.39,692.767"/>
<polyline class="BarLine" stroke="#000000" stroke-width="12.50" stroke-linejoin="bevel" points="2828.39,590.761 2828.39,692.767"/>
<polyline class="BarLine" stroke="#000000" stroke-width="4.00" stroke-linejoin="bevel" points="2528.16,590.761 2528.16,692.767"/>
<polyline class="BarLine" stroke="#000000" stroke-width="4.00" stroke-linejoin="bevel" points="2228.25,590.761 2228.25,692.767"/>
<polyline class="BarLine" stroke="#000000" stroke-width="4.00" stroke-linejoin="bevel" points="1881.16,590.761 1881.16,692.767"/>
<polyline class="BarLine" stroke="#000000" stroke-width="4.00" stroke-linejoin="bevel" points="1578.91,590.761 1578.91,692.767"/>
<polyline class="BarLine" stroke="#000000" stroke-width="4.00" stroke-linejoin="bevel" points="1276.5,590.761 1276.5,692.767"/>
<polyline class="BarLine" stroke="#000000" stroke-width="4.00" stroke-linejoin="bevel" points="976.594,590.761 976.594,692.767"/>
<polyline class="BarLine" stroke="#000000" stroke-width="4.00" stroke-linejoin="bevel" points="655.205,590.761 655.205,692.767"/>
<polyline class="Stem" stroke="#000000" stroke-width="3.25" stroke-linecap="round" stroke-linejoin="bevel" points="2534.06,1145.72 2534.06,1213.67"/>
<polyline class="Stem" stroke="#000000" stroke-width="3.25" stroke-linecap="round" stroke-linejoin="bevel" points="2204.23,1145.72 2204.23,1213.67"/>
<polyline class="Stem" stroke="#000000" stroke-width="3.25" stroke-linecap="round" stroke-linejoin="bevel" points="1924.5,1125.45 1924.5,1048.04"/>
<polyline class="Stem" stroke="#000000" stroke-width="3.25" stroke-linecap="round" stroke-linejoin="bevel" points="1583.69,1120.71 1583.69,1194.92"/>
<polyline class="Stem" stroke="#000000" stroke-width="3.25" stroke-linecap="round" stroke-linejoin="bevel" points="1278.84,1108.21 1278.84,1185.55"/>
<polyline class="Stem" stroke="#000000" stroke-width="3.25" stroke-linecap="round" stroke-linejoin="bevel" points="949.004,1108.21 949.004,1185.55"/>
<polyline class="Stem" stroke="#000000" stroke-width="3.25" stroke-linecap="round" stroke-linejoin="bevel" points="669.272,1137.96 669.272,1057.41"/>
<polyline class="Stem" stroke="#000000" stroke-width="3.25" stroke-linecap="round" stroke-linejoin="bevel" points="333.846,1120.71 333.846,1194.92"/>
<polyline class="Stem" stroke="#000000" stroke-width="3.25" stroke-linecap="round" stroke-linejoin="bevel" points="2593.26,662.925 2593.26,582.385"/>
<polyline class="Stem" stroke="#000000" stroke-width="3.25" stroke-linecap="round" stroke-linejoin="bevel" points="2424.5,649.569 2424.5,573.009"/>
<polyline class="Stem" stroke="#000000" stroke-width="3.25" stroke-linecap="round" stroke-linejoin="bevel" points="2291.55,649.569 2291.55,573.009"/>
<polyline class="Stem" stroke="#000000" stroke-width="3.25" stroke-linecap="round" stroke-linejoin="bevel" points="2151.45,662.07 2151.45,582.385"/>
<polyline class="Stem" stroke="#000000" stroke-width="3.25" stroke-linecap="round" stroke-linejoin="bevel" points="1914.79,646.459 1914.79,719.894"/>
<polyline class="Stem" stroke="#000000" stroke-width="3.25" stroke-linecap="round" stroke-linejoin="bevel" points="1777.5,624.567 1777.5,554.258"/>
<polyline class="Stem" stroke="#000000" stroke-width="3.25" stroke-linecap="round" stroke-linejoin="bevel" points="1614.88,708.963 1614.88,766.772"/>
<polyline class="Stem" stroke="#000000" stroke-width="3.25" stroke-linecap="round" stroke-linejoin="bevel" points="1444.33,708.963 1444.33,766.772"/>
<polyline class="Stem" stroke="#000000" stroke-width="3.25" stroke-linecap="round" stroke-linejoin="bevel" points="1339.79,662.07 1339.79,582.385"/>
<polyline class="Stem" stroke="#000000" stroke-width="3.25" stroke-linecap="round" stroke-linejoin="bevel" points="1172.84,674.57 1172.84,591.761"/>
<polyline class="Stem" stroke="#000000" stroke-width="3.25" stroke-linecap="round" stroke-linejoin="bevel" points="1039.89,687.071 1039.89,604.261"/>
<polyline class="Stem" stroke="#000000" stroke-width="3.25" stroke-linecap="round" stroke-linejoin="bevel" points="878.832,708.963 878.832,791.773"/>
<polyline class="Stem" stroke="#000000" stroke-width="3.25" stroke-linecap="round" stroke-linejoin="bevel" points="718.498,674.57 718.498,591.761"/>
<polyline class="Stem" stroke="#000000" stroke-width="3.25" stroke-linecap="round" stroke-linejoin="bevel" points="551.545,662.07 551.545,582.385"/>
<polyline class="Stem" stroke="#000000" stroke-width="3.25" stroke-linecap="round" stroke-linejoin="bevel" points="388.928,708.963 388.928,766.772"/>
<path class="Note" d="M2563.98,1135.25 C2563.98,1134.14 2563.56,1133.2 2562.72,1132.42 C2561.86,1131.58 2560.89,1131.15 2559.78,1131.15 C2557.83,1131.15 2553.9,1133.11 2547.97,1137.01 C2541.84,1140.98 2538.1,1143.82 2536.73,1145.51 C2536.02,1146.42 2535.66,1147.36 2535.66,1148.34 C2535.66,1149.45 2536.08,1150.39 2536.94,1151.17 C2537.72,1152.01 2538.69,1152.44 2539.86,1152.44 C2541.74,1152.44 2545.72,1150.48 2551.78,1146.58 C2557.77,1142.67 2561.48,1139.84 2562.91,1138.08 C2563.63,1137.23 2563.98,1136.29 2563.98,1135.25 M2558.81,1128.03 C2564.41,1128.03 2567.2,1130.44 2567.2,1135.25 C2567.2,1137.59 2566.52,1140.33 2565.16,1143.45 C2563.79,1146.51 2561.97,1148.86 2559.69,1150.48 C2554.68,1153.87 2548.4,1155.56 2540.84,1155.56 C2535.24,1155.56 2532.44,1153.15 2532.44,1148.34 C2532.44,1146.2 2533.12,1143.49 2534.48,1140.23 C2535.79,1137.11 2537.61,1134.73 2539.95,1133.11 C2544.97,1129.72 2551.26,1128.03 2558.81,1128.03"/>
<path class="Note" d="M2234.15,1135.25 C2234.15,1134.14 2233.73,1133.2 2232.89,1132.42 C2232.03,1131.58 2231.05,1131.15 2229.95,1131.15 C2228,1131.15 2224.06,1133.11 2218.14,1137.01 C2212.01,1140.98 2208.27,1143.82 2206.9,1145.51 C2206.18,1146.42 2205.82,1147.36 2205.82,1148.34 C2205.82,1149.45 2206.25,1150.39 2207.11,1151.17 C2207.89,1152.01 2208.86,1152.44 2210.03,1152.44 C2211.91,1152.44 2215.89,1150.48 2221.95,1146.58 C2227.94,1142.67 2231.65,1139.84 2233.07,1138.08 C2233.79,1137.23 2234.15,1136.29 2234.15,1135.25 M2228.98,1128.03 C2234.57,1128.03 2237.37,1130.44 2237.37,1135.25 C2237.37,1137.59 2236.69,1140.33 2235.32,1143.45 C2233.96,1146.51 2232.14,1148.86 2229.86,1150.48 C2224.85,1153.87 2218.56,1155.56 2211.01,1155.56 C2205.41,1155.56 2202.61,1153.15 2202.61,1148.34 C2202.61,1146.2 2203.29,1143.49 2204.65,1140.23 C2205.95,1137.11 2207.78,1134.73 2210.12,1133.11 C2215.14,1129.72 2221.43,1128.03 2228.98,1128.03"/>
<path class="Note" d="M1922.95,1122.75 C1922.95,1121.64 1922.53,1120.7 1921.68,1119.92 C1920.83,1119.08 1919.85,1118.65 1918.75,1118.65 C1916.8,1118.65 1912.86,1120.61 1906.93,1124.51 C1900.81,1128.48 1897.06,1131.32 1895.7,1133.01 C1894.98,1133.92 1894.62,1134.86 1894.62,1135.84 C1894.62,1136.95 1895.05,1137.89 1895.9,1138.67 C1896.68,1139.51 1897.66,1139.94 1898.82,1139.94 C1900.71,1139.94 1904.68,1137.98 1910.75,1134.08 C1916.74,1130.17 1920.44,1127.34 1921.87,1125.58 C1922.59,1124.73 1922.95,1123.79 1922.95,1122.75 M1917.78,1115.53 C1923.37,1115.53 1926.17,1117.94 1926.17,1122.75 C1926.17,1125.09 1925.49,1127.83 1924.12,1130.95 C1922.76,1134.01 1920.93,1136.36 1918.65,1137.98 C1913.64,1141.37 1907.36,1143.06 1899.81,1143.06 C1894.21,1143.06 1891.4,1140.65 1891.4,1135.84 C1891.4,1133.7 1892.09,1130.99 1893.45,1127.73 C1894.75,1124.61 1896.57,1122.23 1898.92,1120.61 C1903.94,1117.22 1910.23,1115.53 1917.78,1115.53"/>
<path class="Note" d="M1613.62,1110.25 C1613.62,1109.14 1613.19,1108.2 1612.35,1107.42 C1611.5,1106.57 1610.52,1106.15 1609.41,1106.15 C1607.46,1106.15 1603.53,1108.11 1597.6,1112.01 C1591.47,1115.98 1587.73,1118.81 1586.37,1120.51 C1585.65,1121.42 1585.29,1122.36 1585.29,1123.34 C1585.29,1124.44 1585.71,1125.39 1586.57,1126.17 C1587.35,1127.01 1588.32,1127.43 1589.49,1127.43 C1591.38,1127.43 1595.35,1125.48 1601.41,1121.57 C1607.4,1117.67 1611.11,1114.84 1612.54,1113.07 C1613.26,1112.23 1613.62,1111.29 1613.62,1110.25 M1608.44,1103.03 C1614.04,1103.03 1616.83,1105.43 1616.83,1110.25 C1616.83,1112.59 1616.15,1115.32 1614.79,1118.45 C1613.42,1121.51 1611.6,1123.86 1609.32,1125.48 C1604.31,1128.87 1598.03,1130.56 1590.47,1130.56 C1584.87,1130.56 1582.07,1128.15 1582.07,1123.34 C1582.07,1121.19 1582.75,1118.49 1584.12,1115.23 C1585.42,1112.11 1587.24,1109.73 1589.58,1108.11 C1594.6,1104.72 1600.89,1103.03 1608.44,1103.03"/>
<path class="Note" d="M1308.76,1097.75 C1308.76,1096.64 1308.34,1095.7 1307.49,1094.92 C1306.64,1094.07 1305.66,1093.65 1304.55,1093.65 C1302.61,1093.65 1298.67,1095.61 1292.74,1099.51 C1286.62,1103.48 1282.87,1106.31 1281.51,1108.01 C1280.79,1108.92 1280.43,1109.86 1280.43,1110.84 C1280.43,1111.94 1280.86,1112.89 1281.71,1113.67 C1282.49,1114.51 1283.47,1114.93 1284.63,1114.93 C1286.52,1114.93 1290.49,1112.98 1296.55,1109.07 C1302.54,1105.17 1306.25,1102.33 1307.68,1100.57 C1308.4,1099.73 1308.76,1098.79 1308.76,1097.75 M1303.59,1090.53 C1309.18,1090.53 1311.98,1092.93 1311.98,1097.75 C1311.98,1100.09 1311.29,1102.82 1309.93,1105.95 C1308.56,1109.01 1306.74,1111.36 1304.46,1112.98 C1299.45,1116.37 1293.17,1118.06 1285.62,1118.06 C1280.01,1118.06 1277.21,1115.65 1277.21,1110.84 C1277.21,1108.69 1277.89,1105.99 1279.26,1102.73 C1280.56,1099.61 1282.38,1097.23 1284.73,1095.61 C1289.75,1092.22 1296.03,1090.53 1303.59,1090.53"/>
<path class="Note" d="M978.926,1097.75 C978.926,1096.64 978.504,1095.7 977.66,1094.92 C976.806,1094.07 975.827,1093.65 974.722,1093.65 C972.775,1093.65 968.837,1095.61 962.91,1099.51 C956.785,1103.48 953.04,1106.31 951.676,1108.01 C950.957,1108.92 950.597,1109.86 950.597,1110.84 C950.597,1111.94 951.025,1112.89 951.879,1113.67 C952.66,1114.51 953.634,1114.93 954.801,1114.93 C956.686,1114.93 960.66,1112.98 966.722,1109.07 C972.712,1105.17 976.42,1102.33 977.847,1100.57 C978.566,1099.73 978.926,1098.79 978.926,1097.75 M973.754,1090.53 C979.347,1090.53 982.144,1092.93 982.144,1097.75 C982.144,1100.09 981.462,1102.82 980.097,1105.95 C978.733,1109.01 976.91,1111.36 974.629,1112.98 C969.618,1116.37 963.337,1118.06 955.785,1118.06 C950.181,1118.06 947.379,1115.65 947.379,1110.84 C947.379,1108.69 948.061,1105.99 949.426,1102.73 C950.728,1099.61 952.551,1097.23 954.894,1095.61 C959.915,1092.22 966.202,1090.53 973.754,1090.53"/>
<path class="Note" d="M667.723,1135.25 C667.723,1134.14 667.301,1133.2 666.457,1132.42 C665.603,1131.58 664.624,1131.15 663.52,1131.15 C661.572,1131.15 657.634,1133.11 651.707,1137.01 C645.582,1140.98 641.838,1143.82 640.473,1145.51 C639.754,1146.42 639.395,1147.36 639.395,1148.34 C639.395,1149.45 639.822,1150.39 640.676,1151.17 C641.457,1152.01 642.431,1152.44 643.598,1152.44 C645.483,1152.44 649.457,1150.48 655.52,1146.58 C661.509,1142.67 665.218,1139.84 666.645,1138.08 C667.364,1137.23 667.723,1136.29 667.723,1135.25 M662.551,1128.03 C668.145,1128.03 670.942,1130.44 670.942,1135.25 C670.942,1137.59 670.259,1140.33 668.895,1143.45 C667.53,1146.51 665.707,1148.86 663.426,1150.48 C658.416,1153.87 652.134,1155.56 644.582,1155.56 C638.978,1155.56 636.176,1153.15 636.176,1148.34 C636.176,1146.2 636.858,1143.49 638.223,1140.23 C639.525,1137.11 641.348,1134.73 643.692,1133.11 C648.713,1129.72 654.999,1128.03 662.551,1128.03"/>
<path class="Note" d="M363.768,1110.25 C363.768,1109.14 363.346,1108.2 362.502,1107.42 C361.648,1106.57 360.669,1106.15 359.565,1106.15 C357.617,1106.15 353.679,1108.11 347.752,1112.01 C341.627,1115.98 337.882,1118.81 336.518,1120.51 C335.799,1121.42 335.44,1122.36 335.44,1123.34 C335.44,1124.44 335.867,1125.39 336.721,1126.17 C337.502,1127.01 338.476,1127.43 339.643,1127.43 C341.528,1127.43 345.502,1125.48 351.565,1121.57 C357.554,1117.67 361.262,1114.84 362.69,1113.07 C363.408,1112.23 363.768,1111.29 363.768,1110.25 M358.596,1103.03 C364.19,1103.03 366.986,1105.43 366.986,1110.25 C366.986,1112.59 366.304,1115.32 364.94,1118.45 C363.575,1121.51 361.752,1123.86 359.471,1125.48 C354.46,1128.87 348.179,1130.56 340.627,1130.56 C335.023,1130.56 332.221,1128.15 332.221,1123.34 C332.221,1121.19 332.903,1118.49 334.268,1115.23 C335.57,1112.11 337.393,1109.73 339.736,1108.11 C344.757,1104.72 351.044,1103.03 358.596,1103.03"/>
<path class="Note" d="M2591.71,660.218 C2591.71,659.114 2591.29,658.172 2590.44,657.39 C2589.59,656.547 2588.61,656.125 2587.5,656.125 C2585.56,656.125 2581.62,658.078 2575.69,661.984 C2569.57,665.953 2565.82,668.786 2564.46,670.484 C2563.74,671.39 2563.38,672.333 2563.38,673.312 C2563.38,674.416 2563.81,675.359 2564.66,676.14 C2565.44,676.984 2566.42,677.406 2567.58,677.406 C2569.47,677.406 2573.44,675.453 2579.5,671.547 C2585.49,667.64 2589.2,664.807 2590.63,663.047 C2591.35,662.203 2591.71,661.26 2591.71,660.218 M2586.54,653 C2592.13,653 2594.93,655.406 2594.93,660.218 C2594.93,662.562 2594.24,665.297 2592.88,668.422 C2591.52,671.484 2589.69,673.828 2587.41,675.453 C2582.4,678.838 2576.12,680.531 2568.57,680.531 C2562.96,680.531 2560.16,678.125 2560.16,673.312 C2560.16,671.166 2560.84,668.463 2562.21,665.203 C2563.51,662.078 2565.33,659.703 2567.68,658.078 C2572.7,654.692 2578.98,653 2586.54,653"/>
<path class="Note" d="M2415.18,640.499 C2418.3,640.499 2420.94,641.311 2423.1,642.936 C2425.11,644.697 2426.11,646.91 2426.11,649.577 C2426.11,654.067 2423.81,658.265 2419.19,662.171 C2414.5,666.077 2409.49,668.03 2404.15,668.03 C2401.02,668.03 2398.38,667.218 2396.24,665.593 C2394.22,663.832 2393.21,661.619 2393.21,658.952 C2393.21,654.462 2395.55,650.265 2400.24,646.358 C2404.8,642.452 2409.78,640.499 2415.18,640.499"/>
<path class="Note" d="M2282.23,640.499 C2285.35,640.499 2287.99,641.311 2290.15,642.936 C2292.16,644.697 2293.16,646.91 2293.16,649.577 C2293.16,654.067 2290.86,658.265 2286.24,662.171 C2281.55,666.077 2276.54,668.03 2271.19,668.03 C2268.07,668.03 2265.43,667.218 2263.29,665.593 C2261.27,663.832 2260.26,661.619 2260.26,658.952 C2260.26,654.462 2262.6,650.265 2267.29,646.358 C2271.85,642.452 2276.83,640.499 2282.23,640.499"/>
<path class="Note" d="M2142.12,653 C2145.25,653 2147.89,653.812 2150.05,655.437 C2152.06,657.198 2153.06,659.411 2153.06,662.078 C2153.06,666.567 2150.76,670.765 2146.14,674.672 C2141.45,678.578 2136.44,680.531 2131.09,680.531 C2127.97,680.531 2125.33,679.718 2123.19,678.093 C2121.17,676.333 2120.16,674.119 2120.16,671.453 C2120.16,666.963 2122.5,662.765 2127.19,658.859 C2131.75,654.953 2136.73,653 2142.12,653"/>
<path class="Note" d="M1935.13,627.998 C1938.25,627.998 1940.9,628.811 1943.05,630.436 C1945.06,632.196 1946.07,634.41 1946.07,637.076 C1946.07,641.566 1943.76,645.764 1939.15,649.67 C1934.46,653.576 1929.44,655.529 1924.1,655.529 C1920.97,655.529 1918.34,654.717 1916.19,653.092 C1914.17,651.331 1913.16,649.118 1913.16,646.451 C1913.16,641.962 1915.5,637.764 1920.19,633.857 C1924.75,629.951 1929.73,627.998 1935.13,627.998"/>
<path class="Note" d="M1768.18,615.497 C1771.3,615.497 1773.94,616.31 1776.1,617.935 C1778.11,619.695 1779.11,621.909 1779.11,624.575 C1779.11,629.065 1776.81,633.263 1772.19,637.169 C1767.5,641.075 1762.49,643.029 1757.15,643.029 C1754.02,643.029 1751.38,642.216 1749.24,640.591 C1747.22,638.831 1746.21,636.617 1746.21,633.95 C1746.21,629.461 1748.55,625.263 1753.24,621.357 C1757.8,617.45 1762.78,615.497 1768.18,615.497"/>
<path class="Note" d="M1635.23,690.502 C1638.35,690.502 1640.99,691.315 1643.15,692.94 C1645.16,694.7 1646.16,696.914 1646.16,699.58 C1646.16,704.07 1643.86,708.268 1639.24,712.174 C1634.55,716.08 1629.54,718.033 1624.19,718.033 C1621.07,718.033 1618.43,717.221 1616.29,715.596 C1614.27,713.835 1613.26,711.622 1613.26,708.955 C1613.26,704.466 1615.6,700.268 1620.29,696.361 C1624.85,692.455 1629.83,690.502 1635.23,690.502"/>
<path class="Note" d="M1464.67,690.502 C1467.8,690.502 1470.44,691.315 1472.6,692.94 C1474.61,694.7 1475.61,696.914 1475.61,699.58 C1475.61,704.07 1473.3,708.268 1468.69,712.174 C1464,716.08 1458.99,718.033 1453.64,718.033 C1450.52,718.033 1447.88,717.221 1445.74,715.596 C1443.72,713.835 1442.71,711.622 1442.71,708.955 C1442.71,704.466 1445.05,700.268 1449.74,696.361 C1454.3,692.455 1459.28,690.502 1464.67,690.502"/>
<path class="Note" d="M1330.47,653 C1333.59,653 1336.23,653.812 1338.39,655.437 C1340.4,657.198 1341.41,659.411 1341.41,662.078 C1341.41,666.567 1339.1,670.765 1334.48,674.672 C1329.8,678.578 1324.78,680.531 1319.44,680.531 C1316.31,680.531 1313.68,679.718 1311.53,678.093 C1309.51,676.333 1308.5,674.119 1308.5,671.453 C1308.5,666.963 1310.84,662.765 1315.53,658.859 C1320.09,654.953 1325.07,653 1330.47,653"/>
<path class="Note" d="M1163.52,665.5 C1166.64,665.5 1169.28,666.313 1171.44,667.938 C1173.45,669.698 1174.45,671.912 1174.45,674.579 C1174.45,679.068 1172.15,683.266 1167.53,687.172 C1162.84,691.079 1157.83,693.032 1152.48,693.032 C1149.36,693.032 1146.72,692.219 1144.58,690.594 C1142.56,688.834 1141.55,686.62 1141.55,683.954 C1141.55,679.464 1143.89,675.266 1148.58,671.36 C1153.14,667.454 1158.12,665.5 1163.52,665.5"/>
<path class="Note" d="M1030.56,678.001 C1033.69,678.001 1036.33,678.814 1038.49,680.439 C1040.5,682.199 1041.5,684.413 1041.5,687.079 C1041.5,691.569 1039.19,695.767 1034.58,699.673 C1029.89,703.579 1024.88,705.533 1019.53,705.533 C1016.41,705.533 1013.77,704.72 1011.63,703.095 C1009.61,701.335 1008.6,699.121 1008.6,696.454 C1008.6,691.965 1010.94,687.767 1015.63,683.861 C1020.19,679.954 1025.17,678.001 1030.56,678.001"/>
<path class="Note" d="M899.175,690.502 C902.3,690.502 904.941,691.315 907.097,692.94 C909.108,694.7 910.113,696.914 910.113,699.58 C910.113,704.07 907.806,708.268 903.191,712.174 C898.504,716.08 893.488,718.033 888.144,718.033 C885.019,718.033 882.384,717.221 880.238,715.596 C878.217,713.835 877.207,711.622 877.207,708.955 C877.207,704.466 879.55,700.268 884.238,696.361 C888.8,692.455 893.78,690.502 899.175,690.502"/>
<path class="Note" d="M709.175,665.5 C712.3,665.5 714.941,666.313 717.097,667.938 C719.108,669.698 720.113,671.912 720.113,674.579 C720.113,679.068 717.806,683.266 713.191,687.172 C708.504,691.079 703.488,693.032 698.144,693.032 C695.019,693.032 692.384,692.219 690.238,690.594 C688.217,688.834 687.207,686.62 687.207,683.954 C687.207,679.464 689.55,675.266 694.238,671.36 C698.8,667.454 703.78,665.5 709.175,665.5"/>
<path class="Note" d="M542.222,653 C545.347,653 547.988,653.812 550.144,655.437 C552.155,657.198 553.16,659.411 553.16,662.078 C553.16,666.567 550.852,670.765 546.238,674.672 C541.55,678.578 536.535,680.531 531.191,680.531 C528.066,680.531 525.431,679.718 523.285,678.093 C521.264,676.333 520.253,674.119 520.253,671.453 C520.253,666.963 522.597,662.765 527.285,658.859 C531.847,654.953 536.826,653 542.222,653"/>
<path class="Note" d="M409.271,690.502 C412.396,690.502 415.037,691.315 417.193,692.94 C419.203,694.7 420.209,696.914 420.209,699.58 C420.209,704.07 417.901,708.268 413.287,712.174 C408.599,716.08 403.584,718.033 398.24,718.033 C395.115,718.033 392.479,717.221 390.334,715.596 C388.313,713.835 387.302,711.622 387.302,708.955 C387.302,704.466 389.646,700.268 394.334,696.361 C398.896,692.455 403.875,690.502 409.271,690.502"/>
<path class="Clef" d="M190.952,1116.2 C190.952,1116.2 191.15,1116.2 191.546,1116.2 C191.806,1116.14 192.03,1116.11 192.217,1116.11 C199.509,1116.11 205.499,1118.68 210.186,1123.83 C214.874,1128.9 217.217,1134.82 217.217,1141.59 C217.217,1150 213.738,1156.84 206.78,1162.11 C204.957,1163.55 202.577,1164.72 199.639,1165.62 C199.973,1169.85 200.139,1173.27 200.139,1175.87 C200.139,1176.39 200.072,1178.28 199.936,1181.55 C199.676,1187.6 197.592,1192.84 193.686,1197.26 C189.915,1201.63 185.228,1203.81 179.624,1203.81 C174.353,1203.81 169.863,1201.96 166.155,1198.25 C162.436,1194.47 160.577,1189.91 160.577,1184.58 C160.577,1181.77 161.655,1179.39 163.811,1177.44 C166.019,1175.49 168.587,1174.51 171.514,1174.51 C174.118,1174.51 176.301,1175.52 178.061,1177.55 C179.884,1179.43 180.796,1181.77 180.796,1184.58 C180.796,1187.11 179.884,1189.28 178.061,1191.11 C176.238,1192.93 174.056,1193.84 171.514,1193.84 C170.473,1193.84 169.467,1193.65 168.499,1193.26 C171.363,1197.49 175.171,1199.61 179.921,1199.61 C184.41,1199.61 188.087,1197.78 190.952,1194.14 C193.952,1190.37 195.582,1185.97 195.842,1180.95 C195.967,1177.83 196.03,1176.04 196.03,1175.59 C196.03,1171.95 195.9,1168.95 195.639,1166.61 C192.389,1167.13 189.493,1167.39 186.952,1167.39 C177.9,1167.39 170.186,1163.81 163.811,1156.64 C157.561,1149.41 154.436,1140.82 154.436,1130.86 C154.436,1128.77 154.629,1126.66 155.014,1124.51 C155.41,1122.75 155.9,1120.83 156.483,1118.75 C156.806,1117.57 157.686,1115.68 159.124,1113.08 C159.644,1112.3 160.23,1111.32 160.881,1110.15 C161.533,1108.97 161.988,1108.2 162.249,1107.81 C162.894,1106.51 164.16,1104.75 166.046,1102.53 C166.566,1101.95 167.105,1101.3 167.663,1100.58 C168.22,1099.87 168.694,1099.28 169.085,1098.83 C169.475,1098.37 169.767,1098.01 169.96,1097.75 C170.152,1097.49 171.618,1095.76 174.358,1092.58 C175.004,1091.92 175.637,1091.22 176.256,1090.47 C176.876,1089.73 177.381,1089.14 177.772,1088.72 C178.163,1088.29 178.457,1087.98 178.655,1087.8 C176.311,1080.05 174.842,1073.86 174.249,1069.23 C173.801,1065.52 173.577,1060.45 173.577,1054 C173.577,1048.33 174.879,1043.02 177.483,1038.08 C180.014,1032.94 183.561,1028.74 188.124,1025.48 C188.384,1025.28 188.707,1025.19 189.092,1025.19 C189.551,1025.19 189.879,1025.28 190.077,1025.48 C193.587,1029.71 196.613,1035.21 199.155,1041.98 C201.759,1048.75 203.061,1054.91 203.061,1060.45 C203.061,1066.7 201.566,1072.56 198.577,1078.03 C195.191,1083.82 190.827,1089.81 185.483,1096 C186.848,1100.29 188.671,1107.02 190.952,1116.2 M199.249,1161.62 C202.634,1160.38 205.275,1158.27 207.171,1155.28 C209.254,1152.42 210.296,1149.19 210.296,1145.61 C210.296,1140.98 208.733,1136.88 205.608,1133.3 C202.41,1129.59 198.337,1127.5 193.389,1127.05 C196.191,1140.78 198.144,1152.31 199.249,1161.62 M161.467,1139.06 C161.467,1145.51 164.072,1151.18 169.28,1156.06 C174.613,1160.81 180.603,1163.19 187.249,1163.19 C189.978,1163.19 192.644,1162.99 195.249,1162.59 C194.207,1152.7 192.155,1140.85 189.092,1127.05 C185.384,1127.44 182.426,1128.74 180.217,1130.95 C178.061,1133.23 176.983,1135.81 176.983,1138.67 C176.983,1143.62 179.624,1147.62 184.905,1150.69 C185.353,1151.14 185.577,1151.63 185.577,1152.15 C185.577,1152.68 185.353,1153.16 184.905,1153.61 C184.509,1154.07 184.019,1154.3 183.436,1154.3 C183.374,1154.3 183.082,1154.23 182.561,1154.11 C178.842,1152.09 175.978,1149.48 173.967,1146.3 C172.072,1142.9 171.124,1139.48 171.124,1136.03 C171.124,1131.54 172.525,1127.47 175.327,1123.83 C178.254,1120.18 182.061,1117.84 186.749,1116.8 C184.926,1109.5 183.431,1103.81 182.264,1099.7 C181.223,1100.88 179.97,1102.3 178.506,1103.95 C177.043,1105.61 176.181,1106.6 175.921,1106.94 C173.577,1109.99 171.785,1112.36 170.546,1114.06 C168.327,1117.12 166.697,1119.76 165.655,1121.97 C164.551,1124.45 163.577,1127.15 162.733,1130.08 C161.889,1132.88 161.467,1135.87 161.467,1139.06 M194.077,1039.75 C189.191,1042.15 185.353,1045.6 182.561,1050.09 C179.697,1054.72 178.264,1059.7 178.264,1065.03 C178.264,1069.72 179.436,1076.03 181.78,1083.98 C186.467,1078.32 189.983,1073.08 192.327,1068.26 C194.796,1063.18 196.03,1057.87 196.03,1052.34 C196.03,1048.18 195.379,1043.98 194.077,1039.75"/>
<path class="Clef" d="M190.952,641.172 C190.952,641.172 191.15,641.172 191.546,641.172 C191.806,641.109 192.03,641.078 192.217,641.078 C199.509,641.078 205.499,643.651 210.186,648.797 C214.874,653.869 217.217,659.791 217.217,666.562 C217.217,674.968 213.738,681.807 206.78,687.078 C204.957,688.515 202.577,689.687 199.639,690.593 C199.973,694.823 200.139,698.239 200.139,700.843 C200.139,701.364 200.072,703.255 199.936,706.515 C199.676,712.567 197.592,717.807 193.686,722.234 C189.915,726.599 185.228,728.781 179.624,728.781 C174.353,728.781 169.863,726.927 166.155,723.218 C162.436,719.437 160.577,714.88 160.577,709.547 C160.577,706.744 161.655,704.364 163.811,702.406 C166.019,700.458 168.587,699.484 171.514,699.484 C174.118,699.484 176.301,700.494 178.061,702.515 C179.884,704.401 180.796,706.744 180.796,709.547 C180.796,712.078 179.884,714.255 178.061,716.078 C176.238,717.901 174.056,718.812 171.514,718.812 C170.473,718.812 169.467,718.619 168.499,718.234 C171.363,722.463 175.171,724.578 179.921,724.578 C184.41,724.578 188.087,722.755 190.952,719.109 C193.952,715.338 195.582,710.942 195.842,705.922 C195.967,702.797 196.03,701.01 196.03,700.562 C196.03,696.916 195.9,693.922 195.639,691.578 C192.389,692.099 189.493,692.359 186.952,692.359 C177.9,692.359 170.186,688.776 163.811,681.609 C157.561,674.38 154.436,665.786 154.436,655.828 C154.436,653.744 154.629,651.63 155.014,649.484 C155.41,647.724 155.9,645.802 156.483,643.718 C156.806,642.541 157.686,640.651 159.124,638.047 C159.644,637.265 160.23,636.289 160.881,635.117 C161.533,633.945 161.988,633.166 162.249,632.781 C162.894,631.479 164.16,629.718 166.046,627.5 C166.566,626.916 167.105,626.268 167.663,625.554 C168.22,624.841 168.694,624.255 169.085,623.797 C169.475,623.338 169.767,622.979 169.96,622.718 C170.152,622.458 171.618,620.734 174.358,617.547 C175.004,616.89 175.637,616.19 176.256,615.445 C176.876,614.7 177.381,614.114 177.772,613.687 C178.163,613.26 178.457,612.953 178.655,612.765 C176.311,605.015 174.842,598.828 174.249,594.203 C173.801,590.494 173.577,585.416 173.577,578.968 C173.577,573.302 174.879,567.994 177.483,563.047 C180.014,557.911 183.561,553.713 188.124,550.453 C188.384,550.255 188.707,550.156 189.092,550.156 C189.551,550.156 189.879,550.255 190.077,550.453 C193.587,554.682 196.613,560.182 199.155,566.953 C201.759,573.724 203.061,579.88 203.061,585.422 C203.061,591.672 201.566,597.531 198.577,603 C195.191,608.791 190.827,614.781 185.483,620.968 C186.848,625.26 188.671,631.994 190.952,641.172 M199.249,686.593 C202.634,685.354 205.275,683.239 207.171,680.25 C209.254,677.385 210.296,674.161 210.296,670.578 C210.296,665.953 208.733,661.849 205.608,658.265 C202.41,654.557 198.337,652.474 193.389,652.015 C196.191,665.755 198.144,677.281 199.249,686.593 M161.467,664.031 C161.467,670.479 164.072,676.146 169.28,681.031 C174.613,685.781 180.603,688.156 187.249,688.156 C189.978,688.156 192.644,687.958 195.249,687.562 C194.207,677.666 192.155,665.817 189.092,652.015 C185.384,652.411 182.426,653.713 180.217,655.922 C178.061,658.203 176.983,660.776 176.983,663.64 C176.983,668.588 179.624,672.593 184.905,675.656 C185.353,676.114 185.577,676.604 185.577,677.125 C185.577,677.646 185.353,678.13 184.905,678.578 C184.509,679.036 184.019,679.265 183.436,679.265 C183.374,679.265 183.082,679.203 182.561,679.078 C178.842,677.057 175.978,674.453 173.967,671.265 C172.072,667.869 171.124,664.448 171.124,661 C171.124,656.51 172.525,652.442 175.327,648.797 C178.254,645.151 182.061,642.807 186.749,641.765 C184.926,634.474 183.431,628.776 182.264,624.672 C181.223,625.849 179.97,627.265 178.506,628.922 C177.043,630.578 176.181,631.573 175.921,631.906 C173.577,634.958 171.785,637.333 170.546,639.031 C168.327,642.093 166.697,644.729 165.655,646.937 C164.551,649.416 163.577,652.119 162.733,655.047 C161.889,657.849 161.467,660.843 161.467,664.031 M194.077,564.718 C189.191,567.125 185.353,570.573 182.561,575.062 C179.697,579.687 178.264,584.666 178.264,590 C178.264,594.687 179.436,601.005 181.78,608.953 C186.467,603.286 189.983,598.047 192.327,593.234 C194.796,588.151 196.03,582.843 196.03,577.312 C196.03,573.146 195.379,568.948 194.077,564.718"/>
<path class="KeySig" d="M263.754,1097.95 C263.754,1099.19 263.137,1099.81 261.903,1099.81 C260.668,1099.81 260.051,1099.19 260.051,1097.95 L260.051,1083.49 L251.754,1086.62 L251.754,1102.43 C251.754,1103.67 251.134,1104.29 249.895,1104.29 C248.655,1104.29 248.035,1103.67 248.035,1102.43 L248.035,1087.88 L244.91,1089.06 C244.848,1089.12 244.588,1089.15 244.129,1089.15 C243.608,1089.15 243.153,1088.95 242.762,1088.56 C242.371,1088.17 242.176,1087.72 242.176,1087.2 L242.176,1081.15 C242.176,1080.17 242.598,1079.55 243.442,1079.29 L248.035,1077.73 L248.035,1061.71 L244.91,1062.79 C244.848,1062.85 244.588,1062.88 244.129,1062.88 C243.608,1062.88 243.153,1062.69 242.762,1062.3 C242.371,1061.91 242.176,1061.45 242.176,1060.93 L242.176,1054.87 C242.176,1053.96 242.598,1053.38 243.442,1053.12 L248.035,1051.35 L248.035,1035.63 C248.035,1034.39 248.655,1033.77 249.895,1033.77 C251.134,1033.77 251.754,1034.39 251.754,1035.63 L251.754,1050.09 L260.051,1046.96 L260.051,1031.15 C260.051,1029.91 260.668,1029.29 261.903,1029.29 C263.137,1029.29 263.754,1029.91 263.754,1031.15 L263.754,1045.7 L266.989,1044.52 C267.051,1044.46 267.275,1044.43 267.66,1044.43 C268.119,1044.43 268.608,1044.62 269.129,1045.01 C269.525,1045.41 269.723,1045.86 269.723,1046.38 L269.723,1052.43 C269.723,1053.35 269.265,1053.97 268.348,1054.29 L263.754,1055.85 L263.754,1071.87 L266.989,1070.79 C267.051,1070.73 267.275,1070.7 267.66,1070.7 C268.119,1070.7 268.608,1070.89 269.129,1071.29 C269.525,1071.68 269.723,1072.13 269.723,1072.65 L269.723,1078.71 C269.723,1079.56 269.265,1080.14 268.348,1080.46 L263.754,1082.23 L263.754,1097.95 M260.051,1057.32 L251.754,1060.24 L251.754,1076.26 L260.051,1073.34 L260.051,1057.32 "/>
<path class="KeySig" d="M263.754,622.917 C263.754,624.156 263.137,624.776 261.903,624.776 C260.668,624.776 260.051,624.156 260.051,622.917 L260.051,608.464 L251.754,611.589 L251.754,627.401 C251.754,628.641 251.134,629.261 249.895,629.261 C248.655,629.261 248.035,628.641 248.035,627.401 L248.035,612.854 L244.91,614.026 C244.848,614.089 244.588,614.12 244.129,614.12 C243.608,614.12 243.153,613.925 242.762,613.534 C242.371,613.143 242.176,612.688 242.176,612.167 L242.176,606.12 C242.176,605.141 242.598,604.521 243.442,604.261 L248.035,602.698 L248.035,586.682 L244.91,587.761 C244.848,587.823 244.588,587.854 244.129,587.854 C243.608,587.854 243.153,587.659 242.762,587.268 C242.371,586.878 242.176,586.422 242.176,585.901 L242.176,579.839 C242.176,578.932 242.598,578.349 243.442,578.089 L248.035,576.323 L248.035,560.604 C248.035,559.365 248.655,558.745 249.895,558.745 C251.134,558.745 251.754,559.365 251.754,560.604 L251.754,575.057 L260.051,571.932 L260.051,556.12 C260.051,554.88 260.668,554.261 261.903,554.261 C263.137,554.261 263.754,554.88 263.754,556.12 L263.754,570.667 L266.989,569.495 C267.051,569.432 267.275,569.401 267.66,569.401 C268.119,569.401 268.608,569.594 269.129,569.979 C269.525,570.375 269.723,570.834 269.723,571.354 L269.723,577.401 C269.723,578.318 269.265,578.938 268.348,579.261 L263.754,580.823 L263.754,596.839 L266.989,595.761 C267.051,595.698 267.275,595.667 267.66,595.667 C268.119,595.667 268.608,595.865 269.129,596.261 C269.525,596.646 269.723,597.099 269.723,597.62 L269.723,603.682 C269.723,604.526 269.265,605.11 268.348,605.432 L263.754,607.198 L263.754,622.917 M260.051,582.292 L251.754,585.214 L251.754,601.229 L260.051,598.307 L260.051,582.292 "/>
<path class="TimeSig" d="M319.703,641.762 C317.745,641.762 315.984,641.405 314.422,640.692 C312.859,639.978 311.755,639.231 311.109,638.45 C310.255,637.471 309.406,636.721 308.562,636.2 C307.521,635.481 306.448,635.122 305.344,635.122 C303.646,635.122 302.245,635.642 301.14,636.684 C299.974,637.663 299.323,638.997 299.187,640.684 C299.062,641.403 298.672,641.762 298.015,641.762 C297.234,641.762 296.844,641.403 296.844,640.684 C296.844,638.153 297.432,635.877 298.609,633.856 C299.776,631.773 301.208,630.049 302.906,628.684 C304.333,627.444 306.219,625.944 308.562,624.184 C308.958,623.861 309.789,623.179 311.055,622.137 C312.32,621.096 313.38,620.215 314.234,619.497 C315.922,618.069 317.385,616.179 318.625,613.825 C319.791,611.481 320.375,608.944 320.375,606.215 C320.375,602.892 319.823,600.028 318.719,597.622 C317.552,595.278 315.76,594.106 313.344,594.106 C311.854,594.106 310.651,594.429 309.734,595.075 C308.755,595.731 308.265,596.611 308.265,597.715 C308.265,598.632 308.851,599.773 310.023,601.137 C311.195,602.502 311.781,603.642 311.781,604.559 C311.781,606.507 311.099,608.163 309.734,609.528 C308.432,610.83 306.838,611.481 304.953,611.481 C302.995,611.481 301.333,610.799 299.969,609.434 C298.666,608.007 298.015,606.382 298.015,604.559 C298.015,600.84 299.513,597.778 302.508,595.372 C305.502,592.965 309.114,591.762 313.344,591.762 C318.364,591.762 322.729,593.127 326.437,595.856 C330.146,598.46 332,601.913 332,606.215 C332,609.142 331.479,611.648 330.437,613.731 C329.458,615.95 327.995,617.679 326.047,618.918 C323.828,620.346 321.906,621.45 320.281,622.231 C318,623.273 315.724,624.252 313.453,625.168 C310.713,626.273 308.594,627.314 307.094,628.293 C307.948,628.096 308.828,627.997 309.734,627.997 C312.734,627.997 315.859,628.971 319.109,630.918 C322.432,632.877 325.005,633.856 326.828,633.856 C327.932,633.856 328.812,633.658 329.469,633.262 C330.114,632.877 330.536,632.455 330.734,631.997 C330.995,631.351 331.224,630.898 331.422,630.637 C331.682,630.241 332.005,630.043 332.39,630.043 C333.172,630.043 333.562,630.434 333.562,631.215 C333.562,633.038 332.26,635.252 329.656,637.856 C327.114,640.46 323.797,641.762 319.703,641.762"/>
<path class="TimeSig" d="M317.515,643.117 C319.463,643.117 321.122,642.89 322.492,642.437 C323.862,641.984 324.739,641.758 325.125,641.758 C325.583,641.758 325.942,641.888 326.203,642.148 C326.401,642.336 326.531,642.56 326.593,642.82 C326.593,642.955 326.526,643.153 326.39,643.414 L297.984,676.429 L314.672,676.429 L314.672,663.336 C314.672,662.492 314.901,661.773 315.359,661.179 C316.14,660.534 316.791,660.143 317.312,660.008 C318.156,659.622 319.198,658.711 320.437,657.273 C321.479,656.106 322.718,654.06 324.156,651.133 C324.343,650.737 324.635,650.539 325.031,650.539 C325.812,650.539 326.265,650.997 326.39,651.914 L326.39,676.429 L333.531,676.429 C334.437,676.429 334.958,676.914 335.093,677.883 C335.093,678.862 334.573,679.351 333.531,679.351 L326.39,679.351 L326.39,680.133 C326.39,682.737 327.041,684.95 328.343,686.773 C329.843,688.596 331.604,689.508 333.625,689.508 C334.406,689.508 334.797,689.898 334.797,690.679 C334.797,691.461 334.406,691.851 333.625,691.851 C332.26,691.851 330.047,691.659 326.984,691.273 C324.182,690.815 322,690.586 320.437,690.586 C318.812,690.586 316.63,690.815 313.89,691.273 C310.963,691.659 308.786,691.851 307.359,691.851 C306.578,691.851 306.187,691.461 306.187,690.679 C306.187,689.898 306.578,689.508 307.359,689.508 C309.37,689.508 311.125,688.596 312.625,686.773 C313.989,684.888 314.672,682.674 314.672,680.133 L314.672,679.351 L297.984,679.351 C296.87,679.351 296.088,679.091 295.64,678.57 C295.109,678.185 294.843,677.664 294.843,677.008 C294.843,676.81 295.333,676.127 296.312,674.961 C297.427,673.659 298.599,672.065 299.828,670.179 C301.265,667.961 302.635,665.679 303.937,663.336 C305.364,660.669 306.505,657.606 307.359,654.148 C308.328,650.638 308.812,647.06 308.812,643.414 C308.812,642.372 309.271,641.851 310.187,641.851 C310.385,641.851 310.807,641.95 311.453,642.148 C311.651,642.211 312.06,642.307 312.679,642.437 C313.299,642.567 313.802,642.695 314.187,642.82 C315.364,643.018 316.474,643.117 317.515,643.117"/>
<path class="Hook" d="M2149.82,607.385 L2149.82,582.385 L2152.95,582.385 C2152.95,586.093 2153.67,589.807 2155.1,593.526 C2156.67,597.557 2158.39,601.073 2160.28,604.073 C2161.64,606.218 2163.69,609.505 2166.43,613.932 C2168.51,617.317 2170.27,620.864 2171.7,624.573 C2173.14,628.281 2173.85,631.994 2173.85,635.713 C2173.85,642.484 2172.45,649.385 2169.65,656.416 C2169.13,657.198 2168.51,657.588 2167.79,657.588 C2167.15,657.588 2166.56,657.328 2166.04,656.807 C2165.65,656.411 2165.45,655.921 2165.45,655.338 L2165.45,654.854 C2168.25,648.406 2169.65,642.026 2169.65,635.713 C2169.65,632.453 2168.67,628.937 2166.71,625.166 C2164.76,621.323 2162.78,618.26 2160.76,615.979 C2158.48,613.312 2155.87,610.448 2152.95,607.385 L2149.82,607.385 "/>
<path class="Hook" d="M899.957,719.414 C901.457,719.414 903.056,721.851 904.754,726.726 C906.379,731.549 907.191,736.143 907.191,740.508 C907.191,744.216 906.28,747.893 904.457,751.539 C902.571,755.445 900.327,758.83 897.722,761.695 L889.707,770.679 C887.238,773.544 885.024,776.862 883.066,780.633 C881.243,784.278 880.332,787.992 880.332,791.773 L877.207,791.773 L877.207,766.773 L880.332,766.773 C882.092,765.669 884.696,763.909 888.144,761.492 C889.707,760.325 892.05,758.372 895.175,755.633 C897.717,753.289 899.639,750.883 900.941,748.414 C902.306,745.81 902.988,743.174 902.988,740.508 C902.988,734.32 901.196,728.164 897.613,722.039 C897.613,722.039 897.613,721.909 897.613,721.648 C897.613,721.065 897.811,720.58 898.207,720.195 C898.728,719.674 899.311,719.414 899.957,719.414"/>
<path class="NoteDot" d="M1956.49,633.271 C1955.38,632.161 1954.83,630.825 1954.83,629.263 C1954.83,627.7 1955.38,626.365 1956.49,625.255 C1957.6,624.146 1958.94,623.591 1960.5,623.591 C1962.06,623.591 1963.4,624.146 1964.5,625.255 C1965.6,626.365 1966.16,627.7 1966.16,629.263 C1966.16,630.825 1965.6,632.161 1964.5,633.271 C1963.4,634.38 1962.06,634.935 1960.5,634.935 C1958.94,634.935 1957.6,634.38 1956.49,633.271"/>
<path class="NoteDot" d="M730.537,683.274 C729.428,682.165 728.873,680.829 728.873,679.266 C728.873,677.704 729.428,676.368 730.537,675.258 C731.647,674.149 732.983,673.594 734.545,673.594 C736.108,673.594 737.441,674.149 738.545,675.258 C739.649,676.368 740.202,677.704 740.202,679.266 C740.202,680.829 739.649,682.165 738.545,683.274 C737.441,684.383 736.108,684.938 734.545,684.938 C732.983,684.938 731.647,684.383 730.537,683.274"/>
</svg>
