<?xml version="1.0" encoding="UTF-8" standalone="no"?>
<svg width="2977.23px" height="4208.44px" viewBox="0 0 2977.23 4208.44"
 xmlns="http://www.w3.org/2000/svg" xmlns:xlink="http://www.w3.org/1999/xlink" version="1.2" baseProfile="tiny">
<title>Mugur_Mugurel_cu_pian</title>
<desc>Generated by MuseScore 3.0.2</desc>
<polyline class="StaffLines" fill="none" stroke="#000000" stroke-width="1.77" stroke-linejoin="bevel" points="141.732,695.906 2835.49,695.906"/>
<polyline class="StaffLines" fill="none" stroke="#000000" stroke-width="1.77" stroke-linejoin="bevel" points="141.732,718.073 2835.49,718.073"/>
<polyline class="StaffLines" fill="none" stroke="#000000" stroke-width="1.77" stroke-linejoin="bevel" points="141.732,740.239 2835.49,740.239"/>
<polyline class="StaffLines" fill="none" stroke="#000000" stroke-width="1.77" stroke-linejoin="bevel" points="141.732,762.406 2835.49,762.406"/>
<polyline class="StaffLines" fill="none" stroke="#000000" stroke-width="1.77" stroke-linejoin="bevel" points="141.732,784.573 2835.49,784.573"/>
<polyline class="StaffLines" fill="none" stroke="#000000" stroke-width="1.77" stroke-linejoin="bevel" points="141.732,1117.08 2835.49,1117.08"/>
<polyline class="StaffLines" fill="none" stroke="#000000" stroke-width="1.77" stroke-linejoin="bevel" points="141.732,1139.24 2835.49,1139.24"/>
<polyline class="StaffLines" fill="none" stroke="#000000" stroke-width="1.77" stroke-linejoin="bevel" points="141.732,1161.41 2835.49,1161.41"/>
<polyline class="StaffLines" fill="none" stroke="#000000" stroke-width="1.77" stroke-linejoin="bevel" points="141.732,1183.58 2835.49,1183.58"/>
<polyline class="StaffLines" fill="none" stroke="#000000" stroke-width="1.77" stroke-linejoin="bevel" points="141.732,1205.74 2835.49,1205.74"/>
<path class="Text" d="M1226.72,307.567 L1226.72,244.473 C1226.72,239.463 1226.52,234.825 1226.13,230.559 C1225.74,226.294 1224.93,222.958 1223.69,220.551 C1222.38,217.947 1220.53,216.028 1218.12,214.794 C1215.72,213.559 1212.46,212.942 1208.36,212.942 C1204.59,212.942 1200.53,214.096 1196.2,216.403 C1191.87,218.71 1187.39,222.046 1182.78,226.411 C1182.84,227.515 1182.92,228.833 1183.02,230.364 C1183.12,231.895 1183.17,233.702 1183.17,235.786 L1183.17,307.567 L1164.81,307.567 L1164.81,244.473 C1164.81,239.463 1164.62,234.825 1164.22,230.559 C1163.83,226.294 1163.02,222.958 1161.78,220.551 C1160.48,217.947 1158.62,216.028 1156.21,214.794 C1153.8,213.559 1150.54,212.942 1146.45,212.942 C1142.47,212.942 1138.3,214.179 1133.94,216.653 C1129.58,219.127 1125.35,222.281 1121.25,226.114 L1121.25,307.567 L1102.89,307.567 L1102.89,198.489 L1121.25,198.489 L1121.25,210.598 C1126.07,205.775 1130.84,202.046 1135.56,199.411 C1140.28,196.775 1145.47,195.458 1151.14,195.458 C1157.58,195.458 1163.29,196.921 1168.27,199.848 C1173.26,202.775 1177.05,207.593 1179.65,214.301 C1185.19,208.114 1190.59,203.426 1195.86,200.239 C1201.13,197.051 1206.86,195.458 1213.04,195.458 C1217.73,195.458 1222,196.189 1225.84,197.653 C1229.69,199.116 1233.04,201.478 1235.9,204.739 C1238.83,208.051 1241.09,212.182 1242.69,217.13 C1244.28,222.077 1245.08,228.296 1245.08,235.786 L1245.08,307.567 L1226.72,307.567 M1355.86,307.567 L1337.5,307.567 L1337.5,295.458 C1331.83,300.406 1326.46,304.166 1321.38,306.739 C1316.3,309.312 1310.64,310.598 1304.39,310.598 C1299.64,310.598 1295.16,309.817 1290.96,308.255 C1286.76,306.692 1283.09,304.218 1279.97,300.833 C1276.84,297.447 1274.42,293.182 1272.69,288.036 C1270.97,282.89 1270.11,276.64 1270.11,269.286 L1270.11,198.489 L1288.47,198.489 L1288.47,260.598 C1288.47,266.39 1288.68,271.189 1289.1,274.997 C1289.52,278.804 1290.48,282.14 1291.98,285.005 C1293.48,287.807 1295.52,289.859 1298.09,291.161 C1300.66,292.463 1304.36,293.114 1309.17,293.114 C1313.66,293.114 1318.44,291.843 1323.52,289.301 C1328.6,286.76 1333.26,283.635 1337.5,279.926 L1337.5,198.489 L1355.86,198.489 L1355.86,307.567 M1440.7,218.208 L1439.73,218.208 C1438.36,217.822 1436.91,217.58 1435.38,217.481 C1433.85,217.382 1432.01,217.333 1429.86,217.333 C1424.91,217.333 1420,218.406 1415.12,220.551 C1410.23,222.697 1405.61,225.89 1401.25,230.13 L1401.25,307.567 L1382.89,307.567 L1382.89,198.489 L1401.25,198.489 L1401.25,214.692 C1407.96,208.765 1413.8,204.583 1418.78,202.145 C1423.76,199.708 1428.59,198.489 1433.28,198.489 C1435.16,198.489 1436.58,198.536 1437.53,198.63 C1438.48,198.723 1439.53,198.869 1440.7,199.067 L1440.7,218.208 M1520.51,277.973 L1520.51,218.114 C1515.96,215.895 1511.75,214.314 1507.87,213.372 C1504,212.429 1500.14,211.958 1496.29,211.958 C1486.98,211.958 1479.66,215.377 1474.32,222.215 C1468.98,229.054 1466.31,238.853 1466.31,251.614 C1466.31,263.718 1468.35,272.929 1472.42,279.247 C1476.49,285.564 1483.09,288.723 1492.2,288.723 C1496.95,288.723 1501.85,287.778 1506.9,285.887 C1511.94,283.997 1516.48,281.359 1520.51,277.973 M1458.79,325.051 C1460.03,325.572 1461.86,326.273 1464.26,327.153 C1466.67,328.033 1469.4,328.864 1472.47,329.645 C1475.85,330.489 1478.98,331.171 1481.84,331.692 C1484.71,332.213 1487.83,332.473 1491.22,332.473 C1496.88,332.473 1501.69,331.723 1505.62,330.223 C1509.56,328.723 1512.64,326.64 1514.86,323.973 C1516.94,321.307 1518.4,318.215 1519.25,314.7 C1520.09,311.184 1520.51,307.176 1520.51,302.676 L1520.51,293.114 C1515.57,297.406 1510.72,300.577 1505.97,302.63 C1501.22,304.682 1495.26,305.708 1488.09,305.708 C1475.65,305.708 1465.76,301.085 1458.4,291.84 C1451.05,282.596 1447.37,269.317 1447.37,252.005 C1447.37,242.952 1448.64,234.926 1451.18,227.926 C1453.71,220.926 1457.13,214.984 1461.44,210.098 C1465.54,205.411 1470.39,201.799 1475.99,199.262 C1481.59,196.726 1487.38,195.458 1493.37,195.458 C1499.03,195.458 1503.93,196.124 1508.06,197.458 C1512.2,198.791 1516.35,200.697 1520.51,203.176 L1521.59,198.489 L1538.87,198.489 L1538.87,295.161 C1538.87,313.65 1534.84,327.226 1526.76,335.887 C1518.69,344.549 1506.35,348.88 1489.75,348.88 C1484.41,348.88 1478.96,348.455 1473.4,347.606 C1467.83,346.757 1462.64,345.619 1457.83,344.192 L1457.83,325.051 L1458.79,325.051 M1650.86,307.567 L1632.5,307.567 L1632.5,295.458 C1626.83,300.406 1621.46,304.166 1616.38,306.739 C1611.3,309.312 1605.64,310.598 1599.39,310.598 C1594.64,310.598 1590.16,309.817 1585.96,308.255 C1581.76,306.692 1578.09,304.218 1574.97,300.833 C1571.84,297.447 1569.42,293.182 1567.69,288.036 C1565.97,282.89 1565.11,276.64 1565.11,269.286 L1565.11,198.489 L1583.47,198.489 L1583.47,260.598 C1583.47,266.39 1583.68,271.189 1584.1,274.997 C1584.52,278.804 1585.48,282.14 1586.98,285.005 C1588.48,287.807 1590.52,289.859 1593.09,291.161 C1595.66,292.463 1599.36,293.114 1604.17,293.114 C1608.66,293.114 1613.44,291.843 1618.52,289.301 C1623.6,286.76 1628.26,283.635 1632.5,279.926 L1632.5,198.489 L1650.86,198.489 L1650.86,307.567 M1735.7,218.208 L1734.73,218.208 C1733.36,217.822 1731.91,217.58 1730.38,217.481 C1728.85,217.382 1727.01,217.333 1724.86,217.333 C1719.91,217.333 1715,218.406 1710.12,220.551 C1705.23,222.697 1700.61,225.89 1696.25,230.13 L1696.25,307.567 L1677.89,307.567 L1677.89,198.489 L1696.25,198.489 L1696.25,214.692 C1702.96,208.765 1708.8,204.583 1713.78,202.145 C1718.76,199.708 1723.59,198.489 1728.28,198.489 C1730.16,198.489 1731.58,198.536 1732.53,198.63 C1733.48,198.723 1734.53,198.869 1735.7,199.067 L1735.7,218.208 M1797.25,310.114 C1779.87,310.114 1766.38,305.213 1756.78,295.411 C1747.18,285.609 1742.37,271.692 1742.37,253.661 C1742.37,235.89 1747.03,221.747 1756.33,211.231 C1765.64,200.715 1777.82,195.458 1792.86,195.458 C1799.63,195.458 1805.62,196.434 1810.83,198.387 C1816.03,200.34 1820.59,203.4 1824.5,207.567 C1828.4,211.734 1831.4,216.827 1833.48,222.848 C1835.57,228.869 1836.61,236.244 1836.61,244.973 L1836.61,254.926 L1761.03,254.926 C1761.03,267.624 1764.22,277.325 1770.6,284.028 C1776.98,290.731 1785.8,294.083 1797.06,294.083 C1801.09,294.083 1805.04,293.627 1808.92,292.715 C1812.79,291.804 1816.29,290.635 1819.42,289.208 C1822.74,287.708 1825.54,286.257 1827.82,284.856 C1830.09,283.455 1831.98,282.14 1833.48,280.911 L1834.56,280.911 L1834.56,300.926 C1832.41,301.77 1829.75,302.827 1826.55,304.098 C1823.36,305.369 1820.49,306.364 1817.95,307.083 C1814.38,308.062 1811.14,308.812 1808.24,309.333 C1805.34,309.853 1801.68,310.114 1797.25,310.114 M1818.73,240.864 C1818.61,235.916 1818.02,231.653 1816.98,228.075 C1815.94,224.497 1814.44,221.468 1812.48,218.989 C1810.34,216.26 1807.59,214.179 1804.23,212.747 C1800.88,211.314 1796.73,210.598 1791.78,210.598 C1786.9,210.598 1782.76,211.33 1779.33,212.794 C1775.91,214.257 1772.81,216.39 1770.01,219.192 C1767.27,222.057 1765.19,225.228 1763.76,228.708 C1762.32,232.187 1761.41,236.239 1761.03,240.864 L1818.73,240.864 M1873.64,307.567 L1855.28,307.567 L1855.28,155.614 L1873.64,155.614 L1873.64,307.567 "/>
<path class="MeasureNumber" d="M145.732,1065.93 C145.732,1064.69 145.456,1063.59 144.904,1062.64 C144.352,1061.69 143.685,1060.95 142.904,1060.42 C142.123,1059.9 141.248,1059.46 140.279,1059.13 C139.31,1058.79 138.472,1058.57 137.764,1058.46 C137.055,1058.36 136.43,1058.31 135.889,1058.31 C135.607,1058.31 135.467,1058.21 135.467,1058.02 C135.467,1057.96 135.482,1057.9 135.514,1057.85 L139.326,1049.57 L146.639,1049.57 C147.014,1049.57 147.31,1049.51 147.529,1049.4 C147.748,1049.29 147.988,1049.04 148.248,1048.67 L148.56,1048.9 L147.232,1052.02 C147.139,1052.23 146.873,1052.34 146.435,1052.34 L139.56,1052.34 L138.092,1055.31 C141.498,1055.91 144.032,1056.89 145.693,1058.26 C147.355,1059.62 148.185,1061.62 148.185,1064.24 C148.185,1065.63 147.969,1066.86 147.537,1067.94 C147.105,1069.02 146.555,1069.88 145.889,1070.53 C145.222,1071.18 144.451,1071.72 143.576,1072.14 C142.701,1072.56 141.86,1072.85 141.053,1073 C140.245,1073.15 139.435,1073.23 138.623,1073.23 C137.321,1073.23 136.284,1073.04 135.514,1072.65 C134.743,1072.26 134.357,1071.73 134.357,1071.06 C134.357,1070.2 134.857,1069.77 135.857,1069.77 C136.514,1069.77 137.36,1070.13 138.396,1070.84 C139.433,1071.55 140.253,1071.9 140.857,1071.9 C142.243,1071.9 143.402,1071.32 144.334,1070.17 C145.266,1069.02 145.732,1067.61 145.732,1065.93"/>
<path class="TieSegment" stroke="#000000" stroke-width="1.55" stroke-linecap="round" stroke-linejoin="round" fill-rule="evenodd" d="M2422.4,1222.37 C2461.68,1249.41 2579.53,1249.41 2618.81,1222.37 C2579.53,1252.96 2461.68,1252.96 2422.4,1222.37"/>
<path class="TieSegment" stroke="#000000" stroke-width="1.55" stroke-linecap="round" stroke-linejoin="round" fill-rule="evenodd" d="M1945.87,1222.37 C1985.16,1249.41 2103.01,1249.41 2142.29,1222.37 C2103.01,1252.96 1985.16,1252.96 1945.87,1222.37"/>
<path class="TieSegment" stroke="#000000" stroke-width="1.55" stroke-linecap="round" stroke-linejoin="round" fill-rule="evenodd" d="M2422.4,1222.37 C2461.68,1249.41 2579.53,1249.41 2618.81,1222.37 C2579.53,1252.96 2461.68,1252.96 2422.4,1222.37"/>
<path class="TieSegment" stroke="#000000" stroke-width="1.55" stroke-linecap="round" stroke-linejoin="round" fill-rule="evenodd" d="M1945.87,1222.37 C1985.16,1249.41 2103.01,1249.41 2142.29,1222.37 C2103.01,1252.96 1985.16,1252.96 1945.87,1222.37"/>
<polyline class="BarLine" stroke="#000000" stroke-width="3.55" stroke-linejoin="bevel" points="2815.54,1116.19 2815.54,1206.63"/>
<polyline class="BarLine" stroke="#000000" stroke-width="11.08" stroke-linejoin="bevel" points="2829.95,1116.19 2829.95,1206.63"/>
<path class="BarLine" transform="matrix(0.886677,0,0,0.886677,2337.25,1161.41)" d="M1.66406,-8.5 C0.554688,-9.60417 0,-10.9375 0,-12.5 C0,-14.0625 0.554688,-15.3984 1.66406,-16.5078 C2.77344,-17.6172 4.10938,-18.1719 5.67188,-18.1719 C7.23438,-18.1719 8.56771,-17.6172 9.67188,-16.5078 C10.776,-15.3984 11.3281,-14.0625 11.3281,-12.5 C11.3281,-10.9375 10.776,-9.60417 9.67188,-8.5 C8.56771,-7.39583 7.23438,-6.84375 5.67188,-6.84375 C4.10938,-6.84375 2.77344,-7.39583 1.66406,-8.5"/>
<path class="BarLine" transform="matrix(0.886677,0,0,0.886677,2337.25,1183.58)" d="M1.66406,-8.5 C0.554688,-9.60417 0,-10.9375 0,-12.5 C0,-14.0625 0.554688,-15.3984 1.66406,-16.5078 C2.77344,-17.6172 4.10938,-18.1719 5.67188,-18.1719 C7.23438,-18.1719 8.56771,-17.6172 9.67188,-16.5078 C10.776,-15.3984 11.3281,-14.0625 11.3281,-12.5 C11.3281,-10.9375 10.776,-9.60417 9.67188,-8.5 C8.56771,-7.39583 7.23438,-6.84375 5.67188,-6.84375 C4.10938,-6.84375 2.77344,-7.39583 1.66406,-8.5"/>
<polyline class="BarLine" stroke="#000000" stroke-width="3.55" stroke-linejoin="bevel" points="2356.23,1116.19 2356.23,1206.63"/>
<polyline class="BarLine" stroke="#000000" stroke-width="11.08" stroke-linejoin="bevel" points="2370.64,1116.19 2370.64,1206.63"/>
<polyline class="BarLine" stroke="#000000" stroke-width="3.55" stroke-linejoin="bevel" points="1898.53,1116.19 1898.53,1206.63"/>
<polyline class="BarLine" stroke="#000000" stroke-width="3.55" stroke-linejoin="bevel" points="1353.92,1116.19 1353.92,1206.63"/>
<polyline class="BarLine" stroke="#000000" stroke-width="3.55" stroke-linejoin="bevel" points="838.263,1116.19 838.263,1206.63"/>
<polyline class="BarLine" stroke="#000000" stroke-width="11.08" stroke-linejoin="bevel" points="286.018,1116.19 286.018,1206.63"/>
<polyline class="BarLine" stroke="#000000" stroke-width="3.55" stroke-linejoin="bevel" points="300.427,1116.19 300.427,1206.63"/>
<path class="BarLine" transform="matrix(0.886677,0,0,0.886677,309.363,1161.41)" d="M1.66406,-8.5 C0.554688,-9.60417 0,-10.9375 0,-12.5 C0,-14.0625 0.554688,-15.3984 1.66406,-16.5078 C2.77344,-17.6172 4.10938,-18.1719 5.67188,-18.1719 C7.23438,-18.1719 8.56771,-17.6172 9.67188,-16.5078 C10.776,-15.3984 11.3281,-14.0625 11.3281,-12.5 C11.3281,-10.9375 10.776,-9.60417 9.67188,-8.5 C8.56771,-7.39583 7.23438,-6.84375 5.67188,-6.84375 C4.10938,-6.84375 2.77344,-7.39583 1.66406,-8.5"/>
<path class="BarLine" transform="matrix(0.886677,0,0,0.886677,309.363,1183.58)" d="M1.66406,-8.5 C0.554688,-9.60417 0,-10.9375 0,-12.5 C0,-14.0625 0.554688,-15.3984 1.66406,-16.5078 C2.77344,-17.6172 4.10938,-18.1719 5.67188,-18.1719 C7.23438,-18.1719 8.56771,-17.6172 9.67188,-16.5078 C10.776,-15.3984 11.3281,-14.0625 11.3281,-12.5 C11.3281,-10.9375 10.776,-9.60417 9.67188,-8.5 C8.56771,-7.39583 7.23438,-6.84375 5.67188,-6.84375 C4.10938,-6.84375 2.77344,-7.39583 1.66406,-8.5"/>
<polyline class="BarLine" stroke="#000000" stroke-width="3.55" stroke-linejoin="bevel" points="2833.72,695.019 2833.72,785.46"/>
<polyline class="BarLine" stroke="#000000" stroke-width="3.55" stroke-linejoin="bevel" points="2260.79,695.019 2260.79,785.46"/>
<polyline class="BarLine" stroke="#000000" stroke-width="3.55" stroke-linejoin="bevel" points="1619.98,695.019 1619.98,785.46"/>
<polyline class="BarLine" stroke="#000000" stroke-width="3.55" stroke-linejoin="bevel" points="966.544,695.019 966.544,785.46"/>
<path class="Accidental" transform="matrix(0.886677,0,0,0.886677,1718.16,1194.66)" d="M-0.78125,-37.5 C0.0625,-37.9583 0.908854,-38.1875 1.75781,-38.1875 C2.60677,-38.1875 3.45313,-37.9583 4.29688,-37.5 L4,-19.2344 L14.6563,-21.1875 L15.0469,-21.1875 C16.2135,-21.1875 16.7969,-20.6354 16.7969,-19.5313 L17.4844,37.5 C16.6406,37.9583 15.7943,38.1875 14.9453,38.1875 C14.0964,38.1875 13.25,37.9583 12.4063,37.5 L12.7031,19.2344 L2.15625,21.1875 L1.76563,21.1875 C0.588542,21.1875 0,20.6354 0,19.5313 L-0.78125,-37.5 M12.7969,9.46875 L13.0938,-11.2344 L3.90625,-9.46875 L3.60938,11.2344 L12.7969,9.46875 "/>
<path class="Accidental" transform="matrix(0.886677,0,0,0.886677,2531.26,718.073)" d="M21.5781,31.1563 C21.5781,32.3958 20.9609,33.0156 19.7266,33.0156 C18.4922,33.0156 17.875,32.3958 17.875,31.1563 L17.875,16.7031 L9.57813,19.8281 L9.57813,35.6406 C9.57813,36.8802 8.95833,37.5 7.71875,37.5 C6.47917,37.5 5.85938,36.8802 5.85938,35.6406 L5.85938,21.0938 L2.73438,22.2656 C2.67188,22.3281 2.41146,22.3594 1.95313,22.3594 C1.43229,22.3594 0.976563,22.1641 0.585938,21.7734 C0.195313,21.3828 0,20.9271 0,20.4063 L0,14.3594 C0,13.3802 0.421875,12.7604 1.26563,12.5 L5.85938,10.9375 L5.85938,-5.07813 L2.73438,-4 C2.67188,-3.9375 2.41146,-3.90625 1.95313,-3.90625 C1.43229,-3.90625 0.976563,-4.10156 0.585938,-4.49219 C0.195313,-4.88281 0,-5.33854 0,-5.85938 L0,-11.9219 C0,-12.8281 0.421875,-13.4115 1.26563,-13.6719 L5.85938,-15.4375 L5.85938,-31.1563 C5.85938,-32.3958 6.47917,-33.0156 7.71875,-33.0156 C8.95833,-33.0156 9.57813,-32.3958 9.57813,-31.1563 L9.57813,-16.7031 L17.875,-19.8281 L17.875,-35.6406 C17.875,-36.8802 18.4922,-37.5 19.7266,-37.5 C20.9609,-37.5 21.5781,-36.8802 21.5781,-35.6406 L21.5781,-21.0938 L24.8125,-22.2656 C24.875,-22.3281 25.099,-22.3594 25.4844,-22.3594 C25.9427,-22.3594 26.4323,-22.1667 26.9531,-21.7813 C27.349,-21.3854 27.5469,-20.9271 27.5469,-20.4063 L27.5469,-14.3594 C27.5469,-13.4427 27.0885,-12.8229 26.1719,-12.5 L21.5781,-10.9375 L21.5781,5.07813 L24.8125,4 C24.875,3.9375 25.099,3.90625 25.4844,3.90625 C25.9427,3.90625 26.4323,4.10417 26.9531,4.5 C27.349,4.88542 27.5469,5.33854 27.5469,5.85938 L27.5469,11.9219 C27.5469,12.7656 27.0885,13.349 26.1719,13.6719 L21.5781,15.4375 L21.5781,31.1563 M17.875,-9.46875 L9.57813,-6.54688 L9.57813,9.46875 L17.875,6.54688 L17.875,-9.46875 "/>
<path class="Accidental" transform="matrix(0.886677,0,0,0.886677,2050.82,729.156)" d="M-0.78125,-37.5 C0.0625,-37.9583 0.908854,-38.1875 1.75781,-38.1875 C2.60677,-38.1875 3.45313,-37.9583 4.29688,-37.5 L4,-19.2344 L14.6563,-21.1875 L15.0469,-21.1875 C16.2135,-21.1875 16.7969,-20.6354 16.7969,-19.5313 L17.4844,37.5 C16.6406,37.9583 15.7943,38.1875 14.9453,38.1875 C14.0964,38.1875 13.25,37.9583 12.4063,37.5 L12.7031,19.2344 L2.15625,21.1875 L1.76563,21.1875 C0.588542,21.1875 0,20.6354 0,19.5313 L-0.78125,-37.5 M12.7969,9.46875 L13.0938,-11.2344 L3.90625,-9.46875 L3.60938,11.2344 L12.7969,9.46875 "/>
<path class="Accidental" transform="matrix(0.886677,0,0,0.886677,1806.96,729.156)" d="M21.5781,31.1563 C21.5781,32.3958 20.9609,33.0156 19.7266,33.0156 C18.4922,33.0156 17.875,32.3958 17.875,31.1563 L17.875,16.7031 L9.57813,19.8281 L9.57813,35.6406 C9.57813,36.8802 8.95833,37.5 7.71875,37.5 C6.47917,37.5 5.85938,36.8802 5.85938,35.6406 L5.85938,21.0938 L2.73438,22.2656 C2.67188,22.3281 2.41146,22.3594 1.95313,22.3594 C1.43229,22.3594 0.976563,22.1641 0.585938,21.7734 C0.195313,21.3828 0,20.9271 0,20.4063 L0,14.3594 C0,13.3802 0.421875,12.7604 1.26563,12.5 L5.85938,10.9375 L5.85938,-5.07813 L2.73438,-4 C2.67188,-3.9375 2.41146,-3.90625 1.95313,-3.90625 C1.43229,-3.90625 0.976563,-4.10156 0.585938,-4.49219 C0.195313,-4.88281 0,-5.33854 0,-5.85938 L0,-11.9219 C0,-12.8281 0.421875,-13.4115 1.26563,-13.6719 L5.85938,-15.4375 L5.85938,-31.1563 C5.85938,-32.3958 6.47917,-33.0156 7.71875,-33.0156 C8.95833,-33.0156 9.57813,-32.3958 9.57813,-31.1563 L9.57813,-16.7031 L17.875,-19.8281 L17.875,-35.6406 C17.875,-36.8802 18.4922,-37.5 19.7266,-37.5 C20.9609,-37.5 21.5781,-36.8802 21.5781,-35.6406 L21.5781,-21.0938 L24.8125,-22.2656 C24.875,-22.3281 25.099,-22.3594 25.4844,-22.3594 C25.9427,-22.3594 26.4323,-22.1667 26.9531,-21.7813 C27.349,-21.3854 27.5469,-20.9271 27.5469,-20.4063 L27.5469,-14.3594 C27.5469,-13.4427 27.0885,-12.8229 26.1719,-12.5 L21.5781,-10.9375 L21.5781,5.07813 L24.8125,4 C24.875,3.9375 25.099,3.90625 25.4844,3.90625 C25.9427,3.90625 26.4323,4.10417 26.9531,4.5 C27.349,4.88542 27.5469,5.33854 27.5469,5.85938 L27.5469,11.9219 C27.5469,12.7656 27.0885,13.349 26.1719,13.6719 L21.5781,15.4375 L21.5781,31.1563 M17.875,-9.46875 L9.57813,-6.54688 L9.57813,9.46875 L17.875,6.54688 L17.875,-9.46875 "/>
<polyline class="Stem" stroke="#000000" stroke-width="2.88" stroke-linecap="round" stroke-linejoin="bevel" points="2636.34,1201.58 2636.34,1128.16"/>
<polyline class="Stem" stroke="#000000" stroke-width="2.88" stroke-linecap="round" stroke-linejoin="bevel" points="2431.17,1201.58 2431.17,1128.16"/>
<polyline class="Stem" stroke="#000000" stroke-width="2.88" stroke-linecap="round" stroke-linejoin="bevel" points="2159.82,1201.58 2159.82,1128.16"/>
<polyline class="Stem" stroke="#000000" stroke-width="2.88" stroke-linecap="round" stroke-linejoin="bevel" points="1954.65,1201.58 1954.65,1128.16"/>
<polyline class="Stem" stroke="#000000" stroke-width="2.88" stroke-linecap="round" stroke-linejoin="bevel" points="1766.2,1190.5 1766.2,1117.08"/>
<polyline class="Stem" stroke="#000000" stroke-width="2.88" stroke-linecap="round" stroke-linejoin="bevel" points="1667.27,1168.33 1667.27,1100.45"/>
<polyline class="Stem" stroke="#000000" stroke-width="2.88" stroke-linecap="round" stroke-linejoin="bevel" points="1568.33,1190.5 1568.33,1117.08"/>
<polyline class="Stem" stroke="#000000" stroke-width="2.88" stroke-linecap="round" stroke-linejoin="bevel" points="1410.04,1179.41 1410.04,1108.76"/>
<polyline class="Stem" stroke="#000000" stroke-width="2.88" stroke-linecap="round" stroke-linejoin="bevel" points="1286.52,1212.67 1286.52,1139.24"/>
<polyline class="Stem" stroke="#000000" stroke-width="2.88" stroke-linecap="round" stroke-linejoin="bevel" points="1137.14,1190.5 1137.14,1117.08"/>
<polyline class="Stem" stroke="#000000" stroke-width="2.88" stroke-linecap="round" stroke-linejoin="bevel" points="1043.77,1179.41 1043.77,1108.76"/>
<polyline class="Stem" stroke="#000000" stroke-width="2.88" stroke-linecap="round" stroke-linejoin="bevel" points="868.077,1165.57 868.077,1230.68"/>
<polyline class="Stem" stroke="#000000" stroke-width="2.88" stroke-linecap="round" stroke-linejoin="bevel" points="775.576,1168.33 775.576,1100.45"/>
<polyline class="Stem" stroke="#000000" stroke-width="2.88" stroke-linecap="round" stroke-linejoin="bevel" points="607.422,1154.49 607.422,1222.37"/>
<polyline class="Stem" stroke="#000000" stroke-width="2.88" stroke-linecap="round" stroke-linejoin="bevel" points="518.765,1165.57 518.765,1239"/>
<polyline class="Stem" stroke="#000000" stroke-width="2.88" stroke-linecap="round" stroke-linejoin="bevel" points="376.914,1132.32 376.914,1205.74"/>
<polyline class="Stem" stroke="#000000" stroke-width="2.88" stroke-linecap="round" stroke-linejoin="bevel" points="2562,722.236 2562,792.886"/>
<polyline class="Stem" stroke="#000000" stroke-width="2.88" stroke-linecap="round" stroke-linejoin="bevel" points="2290.6,744.403 2290.6,809.511"/>
<polyline class="Stem" stroke="#000000" stroke-width="2.88" stroke-linecap="round" stroke-linejoin="bevel" points="2072.56,733.319 2072.56,801.199"/>
<polyline class="Stem" stroke="#000000" stroke-width="2.88" stroke-linecap="round" stroke-linejoin="bevel" points="1955.13,711.152 1955.13,784.573"/>
<polyline class="Stem" stroke="#000000" stroke-width="2.88" stroke-linecap="round" stroke-linejoin="bevel" points="1837.69,733.319 1837.69,806.74"/>
<polyline class="Stem" stroke="#000000" stroke-width="2.88" stroke-linecap="round" stroke-linejoin="bevel" points="1649.8,722.236 1649.8,792.886"/>
<polyline class="Stem" stroke="#000000" stroke-width="2.88" stroke-linecap="round" stroke-linejoin="bevel" points="1407.71,744.403 1407.71,809.511"/>
<polyline class="Stem" stroke="#000000" stroke-width="2.88" stroke-linecap="round" stroke-linejoin="bevel" points="1350.92,747.16 1350.92,673.739"/>
<polyline class="Stem" stroke="#000000" stroke-width="2.88" stroke-linecap="round" stroke-linejoin="bevel" points="1267.84,758.243 1267.84,673.739"/>
<polyline class="Stem" stroke="#000000" stroke-width="2.88" stroke-linecap="round" stroke-linejoin="bevel" points="1184.76,736.076 1184.76,673.739"/>
<polyline class="Stem" stroke="#000000" stroke-width="2.88" stroke-linecap="round" stroke-linejoin="bevel" points="1022.66,747.16 1022.66,673.739"/>
<polyline class="Stem" stroke="#000000" stroke-width="2.88" stroke-linecap="round" stroke-linejoin="bevel" points="884.15,780.41 884.15,706.989"/>
<polyline class="Stem" stroke="#000000" stroke-width="2.88" stroke-linecap="round" stroke-linejoin="bevel" points="710.766,780.41 710.766,706.989"/>
<polyline class="Stem" stroke="#000000" stroke-width="2.88" stroke-linecap="round" stroke-linejoin="bevel" points="602.402,780.41 602.402,723.614"/>
<polyline class="Stem" stroke="#000000" stroke-width="2.88" stroke-linecap="round" stroke-linejoin="bevel" points="494.037,780.41 494.037,723.614"/>
<polyline class="Stem" stroke="#000000" stroke-width="2.88" stroke-linecap="round" stroke-linejoin="bevel" points="385.672,791.494 385.672,723.614"/>
<path class="Note" transform="matrix(0.886677,0,0,0.886677,2608.6,1205.74)" d="M21.9688,-13.7656 C25.0938,-13.7656 27.7344,-12.9531 29.8906,-11.3281 C31.901,-9.56771 32.9063,-7.35417 32.9063,-4.6875 C32.9063,-0.197917 30.599,4 25.9844,7.90625 C21.2969,11.8125 16.2813,13.7656 10.9375,13.7656 C7.8125,13.7656 5.17708,12.9531 3.03125,11.3281 C1.01042,9.56771 0,7.35417 0,4.6875 C0,0.197917 2.34375,-4 7.03125,-7.90625 C11.5938,-11.8125 16.5729,-13.7656 21.9688,-13.7656"/>
<path class="Note" transform="matrix(0.886677,0,0,0.886677,2403.43,1205.74)" d="M21.9688,-13.7656 C25.0938,-13.7656 27.7344,-12.9531 29.8906,-11.3281 C31.901,-9.56771 32.9063,-7.35417 32.9063,-4.6875 C32.9063,-0.197917 30.599,4 25.9844,7.90625 C21.2969,11.8125 16.2813,13.7656 10.9375,13.7656 C7.8125,13.7656 5.17708,12.9531 3.03125,11.3281 C1.01042,9.56771 0,7.35417 0,4.6875 C0,0.197917 2.34375,-4 7.03125,-7.90625 C11.5938,-11.8125 16.5729,-13.7656 21.9688,-13.7656"/>
<path class="Note" transform="matrix(0.886677,0,0,0.886677,2132.08,1205.74)" d="M21.9688,-13.7656 C25.0938,-13.7656 27.7344,-12.9531 29.8906,-11.3281 C31.901,-9.56771 32.9063,-7.35417 32.9063,-4.6875 C32.9063,-0.197917 30.599,4 25.9844,7.90625 C21.2969,11.8125 16.2813,13.7656 10.9375,13.7656 C7.8125,13.7656 5.17708,12.9531 3.03125,11.3281 C1.01042,9.56771 0,7.35417 0,4.6875 C0,0.197917 2.34375,-4 7.03125,-7.90625 C11.5938,-11.8125 16.5729,-13.7656 21.9688,-13.7656"/>
<path class="Note" transform="matrix(0.886677,0,0,0.886677,1926.9,1205.74)" d="M21.9688,-13.7656 C25.0938,-13.7656 27.7344,-12.9531 29.8906,-11.3281 C31.901,-9.56771 32.9063,-7.35417 32.9063,-4.6875 C32.9063,-0.197917 30.599,4 25.9844,7.90625 C21.2969,11.8125 16.2813,13.7656 10.9375,13.7656 C7.8125,13.7656 5.17708,12.9531 3.03125,11.3281 C1.01042,9.56771 0,7.35417 0,4.6875 C0,0.197917 2.34375,-4 7.03125,-7.90625 C11.5938,-11.8125 16.5729,-13.7656 21.9688,-13.7656"/>
<path class="Note" transform="matrix(0.886677,0,0,0.886677,1738.46,1194.66)" d="M21.9688,-13.7656 C25.0938,-13.7656 27.7344,-12.9531 29.8906,-11.3281 C31.901,-9.56771 32.9063,-7.35417 32.9063,-4.6875 C32.9063,-0.197917 30.599,4 25.9844,7.90625 C21.2969,11.8125 16.2813,13.7656 10.9375,13.7656 C7.8125,13.7656 5.17708,12.9531 3.03125,11.3281 C1.01042,9.56771 0,7.35417 0,4.6875 C0,0.197917 2.34375,-4 7.03125,-7.90625 C11.5938,-11.8125 16.5729,-13.7656 21.9688,-13.7656"/>
<path class="Note" transform="matrix(0.886677,0,0,0.886677,1639.53,1172.49)" d="M21.9688,-13.7656 C25.0938,-13.7656 27.7344,-12.9531 29.8906,-11.3281 C31.901,-9.56771 32.9063,-7.35417 32.9063,-4.6875 C32.9063,-0.197917 30.599,4 25.9844,7.90625 C21.2969,11.8125 16.2813,13.7656 10.9375,13.7656 C7.8125,13.7656 5.17708,12.9531 3.03125,11.3281 C1.01042,9.56771 0,7.35417 0,4.6875 C0,0.197917 2.34375,-4 7.03125,-7.90625 C11.5938,-11.8125 16.5729,-13.7656 21.9688,-13.7656"/>
<path class="Note" transform="matrix(0.886677,0,0,0.886677,1540.59,1194.66)" d="M21.9688,-13.7656 C25.0938,-13.7656 27.7344,-12.9531 29.8906,-11.3281 C31.901,-9.56771 32.9063,-7.35417 32.9063,-4.6875 C32.9063,-0.197917 30.599,4 25.9844,7.90625 C21.2969,11.8125 16.2813,13.7656 10.9375,13.7656 C7.8125,13.7656 5.17708,12.9531 3.03125,11.3281 C1.01042,9.56771 0,7.35417 0,4.6875 C0,0.197917 2.34375,-4 7.03125,-7.90625 C11.5938,-11.8125 16.5729,-13.7656 21.9688,-13.7656"/>
<path class="Note" transform="matrix(0.886677,0,0,0.886677,1382.3,1183.58)" d="M21.9688,-13.7656 C25.0938,-13.7656 27.7344,-12.9531 29.8906,-11.3281 C31.901,-9.56771 32.9063,-7.35417 32.9063,-4.6875 C32.9063,-0.197917 30.599,4 25.9844,7.90625 C21.2969,11.8125 16.2813,13.7656 10.9375,13.7656 C7.8125,13.7656 5.17708,12.9531 3.03125,11.3281 C1.01042,9.56771 0,7.35417 0,4.6875 C0,0.197917 2.34375,-4 7.03125,-7.90625 C11.5938,-11.8125 16.5729,-13.7656 21.9688,-13.7656"/>
<path class="Note" transform="matrix(0.886677,0,0,0.886677,1258.78,1216.83)" d="M21.9688,-13.7656 C25.0938,-13.7656 27.7344,-12.9531 29.8906,-11.3281 C31.901,-9.56771 32.9063,-7.35417 32.9063,-4.6875 C32.9063,-0.197917 30.599,4 25.9844,7.90625 C21.2969,11.8125 16.2813,13.7656 10.9375,13.7656 C7.8125,13.7656 5.17708,12.9531 3.03125,11.3281 C1.01042,9.56771 0,7.35417 0,4.6875 C0,0.197917 2.34375,-4 7.03125,-7.90625 C11.5938,-11.8125 16.5729,-13.7656 21.9688,-13.7656"/>
<path class="Note" transform="matrix(0.886677,0,0,0.886677,1109.39,1194.66)" d="M21.9688,-13.7656 C25.0938,-13.7656 27.7344,-12.9531 29.8906,-11.3281 C31.901,-9.56771 32.9063,-7.35417 32.9063,-4.6875 C32.9063,-0.197917 30.599,4 25.9844,7.90625 C21.2969,11.8125 16.2813,13.7656 10.9375,13.7656 C7.8125,13.7656 5.17708,12.9531 3.03125,11.3281 C1.01042,9.56771 0,7.35417 0,4.6875 C0,0.197917 2.34375,-4 7.03125,-7.90625 C11.5938,-11.8125 16.5729,-13.7656 21.9688,-13.7656"/>
<path class="Note" transform="matrix(0.886677,0,0,0.886677,1016.02,1183.58)" d="M21.9688,-13.7656 C25.0938,-13.7656 27.7344,-12.9531 29.8906,-11.3281 C31.901,-9.56771 32.9063,-7.35417 32.9063,-4.6875 C32.9063,-0.197917 30.599,4 25.9844,7.90625 C21.2969,11.8125 16.2813,13.7656 10.9375,13.7656 C7.8125,13.7656 5.17708,12.9531 3.03125,11.3281 C1.01042,9.56771 0,7.35417 0,4.6875 C0,0.197917 2.34375,-4 7.03125,-7.90625 C11.5938,-11.8125 16.5729,-13.7656 21.9688,-13.7656"/>
<path class="Note" transform="matrix(0.886677,0,0,0.886677,866.636,1161.41)" d="M21.9688,-13.7656 C25.0938,-13.7656 27.7344,-12.9531 29.8906,-11.3281 C31.901,-9.56771 32.9063,-7.35417 32.9063,-4.6875 C32.9063,-0.197917 30.599,4 25.9844,7.90625 C21.2969,11.8125 16.2813,13.7656 10.9375,13.7656 C7.8125,13.7656 5.17708,12.9531 3.03125,11.3281 C1.01042,9.56771 0,7.35417 0,4.6875 C0,0.197917 2.34375,-4 7.03125,-7.90625 C11.5938,-11.8125 16.5729,-13.7656 21.9688,-13.7656"/>
<path class="Note" transform="matrix(0.886677,0,0,0.886677,747.833,1172.49)" d="M21.9688,-13.7656 C25.0938,-13.7656 27.7344,-12.9531 29.8906,-11.3281 C31.901,-9.56771 32.9063,-7.35417 32.9063,-4.6875 C32.9063,-0.197917 30.599,4 25.9844,7.90625 C21.2969,11.8125 16.2813,13.7656 10.9375,13.7656 C7.8125,13.7656 5.17708,12.9531 3.03125,11.3281 C1.01042,9.56771 0,7.35417 0,4.6875 C0,0.197917 2.34375,-4 7.03125,-7.90625 C11.5938,-11.8125 16.5729,-13.7656 21.9688,-13.7656"/>
<path class="Note" transform="matrix(0.886677,0,0,0.886677,605.981,1150.33)" d="M21.9688,-13.7656 C25.0938,-13.7656 27.7344,-12.9531 29.8906,-11.3281 C31.901,-9.56771 32.9063,-7.35417 32.9063,-4.6875 C32.9063,-0.197917 30.599,4 25.9844,7.90625 C21.2969,11.8125 16.2813,13.7656 10.9375,13.7656 C7.8125,13.7656 5.17708,12.9531 3.03125,11.3281 C1.01042,9.56771 0,7.35417 0,4.6875 C0,0.197917 2.34375,-4 7.03125,-7.90625 C11.5938,-11.8125 16.5729,-13.7656 21.9688,-13.7656"/>
<path class="Note" transform="matrix(0.886677,0,0,0.886677,517.324,1161.41)" d="M21.9688,-13.7656 C25.0938,-13.7656 27.7344,-12.9531 29.8906,-11.3281 C31.901,-9.56771 32.9063,-7.35417 32.9063,-4.6875 C32.9063,-0.197917 30.599,4 25.9844,7.90625 C21.2969,11.8125 16.2813,13.7656 10.9375,13.7656 C7.8125,13.7656 5.17708,12.9531 3.03125,11.3281 C1.01042,9.56771 0,7.35417 0,4.6875 C0,0.197917 2.34375,-4 7.03125,-7.90625 C11.5938,-11.8125 16.5729,-13.7656 21.9688,-13.7656"/>
<path class="Note" transform="matrix(0.886677,0,0,0.886677,375.473,1128.16)" d="M21.9688,-13.7656 C25.0938,-13.7656 27.7344,-12.9531 29.8906,-11.3281 C31.901,-9.56771 32.9063,-7.35417 32.9063,-4.6875 C32.9063,-0.197917 30.599,4 25.9844,7.90625 C21.2969,11.8125 16.2813,13.7656 10.9375,13.7656 C7.8125,13.7656 5.17708,12.9531 3.03125,11.3281 C1.01042,9.56771 0,7.35417 0,4.6875 C0,0.197917 2.34375,-4 7.03125,-7.90625 C11.5938,-11.8125 16.5729,-13.7656 21.9688,-13.7656"/>
<path class="Note" transform="matrix(0.886677,0,0,0.886677,2560.55,718.073)" d="M21.9688,-13.7656 C25.0938,-13.7656 27.7344,-12.9531 29.8906,-11.3281 C31.901,-9.56771 32.9063,-7.35417 32.9063,-4.6875 C32.9063,-0.197917 30.599,4 25.9844,7.90625 C21.2969,11.8125 16.2813,13.7656 10.9375,13.7656 C7.8125,13.7656 5.17708,12.9531 3.03125,11.3281 C1.01042,9.56771 0,7.35417 0,4.6875 C0,0.197917 2.34375,-4 7.03125,-7.90625 C11.5938,-11.8125 16.5729,-13.7656 21.9688,-13.7656"/>
<path class="Note" transform="matrix(0.886677,0,0,0.886677,2289.16,740.239)" d="M21.9688,-13.7656 C25.0938,-13.7656 27.7344,-12.9531 29.8906,-11.3281 C31.901,-9.56771 32.9063,-7.35417 32.9063,-4.6875 C32.9063,-0.197917 30.599,4 25.9844,7.90625 C21.2969,11.8125 16.2813,13.7656 10.9375,13.7656 C7.8125,13.7656 5.17708,12.9531 3.03125,11.3281 C1.01042,9.56771 0,7.35417 0,4.6875 C0,0.197917 2.34375,-4 7.03125,-7.90625 C11.5938,-11.8125 16.5729,-13.7656 21.9688,-13.7656"/>
<path class="Note" transform="matrix(0.886677,0,0,0.886677,2071.12,729.156)" d="M21.9688,-13.7656 C25.0938,-13.7656 27.7344,-12.9531 29.8906,-11.3281 C31.901,-9.56771 32.9063,-7.35417 32.9063,-4.6875 C32.9063,-0.197917 30.599,4 25.9844,7.90625 C21.2969,11.8125 16.2813,13.7656 10.9375,13.7656 C7.8125,13.7656 5.17708,12.9531 3.03125,11.3281 C1.01042,9.56771 0,7.35417 0,4.6875 C0,0.197917 2.34375,-4 7.03125,-7.90625 C11.5938,-11.8125 16.5729,-13.7656 21.9688,-13.7656"/>
<path class="Note" transform="matrix(0.886677,0,0,0.886677,1953.69,706.989)" d="M21.9688,-13.7656 C25.0938,-13.7656 27.7344,-12.9531 29.8906,-11.3281 C31.901,-9.56771 32.9063,-7.35417 32.9063,-4.6875 C32.9063,-0.197917 30.599,4 25.9844,7.90625 C21.2969,11.8125 16.2813,13.7656 10.9375,13.7656 C7.8125,13.7656 5.17708,12.9531 3.03125,11.3281 C1.01042,9.56771 0,7.35417 0,4.6875 C0,0.197917 2.34375,-4 7.03125,-7.90625 C11.5938,-11.8125 16.5729,-13.7656 21.9688,-13.7656"/>
<path class="Note" transform="matrix(0.886677,0,0,0.886677,1836.25,729.156)" d="M21.9688,-13.7656 C25.0938,-13.7656 27.7344,-12.9531 29.8906,-11.3281 C31.901,-9.56771 32.9063,-7.35417 32.9063,-4.6875 C32.9063,-0.197917 30.599,4 25.9844,7.90625 C21.2969,11.8125 16.2813,13.7656 10.9375,13.7656 C7.8125,13.7656 5.17708,12.9531 3.03125,11.3281 C1.01042,9.56771 0,7.35417 0,4.6875 C0,0.197917 2.34375,-4 7.03125,-7.90625 C11.5938,-11.8125 16.5729,-13.7656 21.9688,-13.7656"/>
<path class="Note" transform="matrix(0.886677,0,0,0.886677,1648.36,718.073)" d="M21.9688,-13.7656 C25.0938,-13.7656 27.7344,-12.9531 29.8906,-11.3281 C31.901,-9.56771 32.9063,-7.35417 32.9063,-4.6875 C32.9063,-0.197917 30.599,4 25.9844,7.90625 C21.2969,11.8125 16.2813,13.7656 10.9375,13.7656 C7.8125,13.7656 5.17708,12.9531 3.03125,11.3281 C1.01042,9.56771 0,7.35417 0,4.6875 C0,0.197917 2.34375,-4 7.03125,-7.90625 C11.5938,-11.8125 16.5729,-13.7656 21.9688,-13.7656"/>
<path class="Note" transform="matrix(0.886677,0,0,0.886677,1406.26,740.239)" d="M21.9688,-13.7656 C25.0938,-13.7656 27.7344,-12.9531 29.8906,-11.3281 C31.901,-9.56771 32.9063,-7.35417 32.9063,-4.6875 C32.9063,-0.197917 30.599,4 25.9844,7.90625 C21.2969,11.8125 16.2813,13.7656 10.9375,13.7656 C7.8125,13.7656 5.17708,12.9531 3.03125,11.3281 C1.01042,9.56771 0,7.35417 0,4.6875 C0,0.197917 2.34375,-4 7.03125,-7.90625 C11.5938,-11.8125 16.5729,-13.7656 21.9688,-13.7656"/>
<path class="Note" transform="matrix(0.886677,0,0,0.886677,1323.18,751.323)" d="M21.9688,-13.7656 C25.0938,-13.7656 27.7344,-12.9531 29.8906,-11.3281 C31.901,-9.56771 32.9063,-7.35417 32.9063,-4.6875 C32.9063,-0.197917 30.599,4 25.9844,7.90625 C21.2969,11.8125 16.2813,13.7656 10.9375,13.7656 C7.8125,13.7656 5.17708,12.9531 3.03125,11.3281 C1.01042,9.56771 0,7.35417 0,4.6875 C0,0.197917 2.34375,-4 7.03125,-7.90625 C11.5938,-11.8125 16.5729,-13.7656 21.9688,-13.7656"/>
<path class="Note" transform="matrix(0.886677,0,0,0.886677,1240.1,762.406)" d="M21.9688,-13.7656 C25.0938,-13.7656 27.7344,-12.9531 29.8906,-11.3281 C31.901,-9.56771 32.9063,-7.35417 32.9063,-4.6875 C32.9063,-0.197917 30.599,4 25.9844,7.90625 C21.2969,11.8125 16.2813,13.7656 10.9375,13.7656 C7.8125,13.7656 5.17708,12.9531 3.03125,11.3281 C1.01042,9.56771 0,7.35417 0,4.6875 C0,0.197917 2.34375,-4 7.03125,-7.90625 C11.5938,-11.8125 16.5729,-13.7656 21.9688,-13.7656"/>
<path class="Note" transform="matrix(0.886677,0,0,0.886677,1157.01,740.239)" d="M21.9688,-13.7656 C25.0938,-13.7656 27.7344,-12.9531 29.8906,-11.3281 C31.901,-9.56771 32.9063,-7.35417 32.9063,-4.6875 C32.9063,-0.197917 30.599,4 25.9844,7.90625 C21.2969,11.8125 16.2813,13.7656 10.9375,13.7656 C7.8125,13.7656 5.17708,12.9531 3.03125,11.3281 C1.01042,9.56771 0,7.35417 0,4.6875 C0,0.197917 2.34375,-4 7.03125,-7.90625 C11.5938,-11.8125 16.5729,-13.7656 21.9688,-13.7656"/>
<path class="Note" transform="matrix(0.886677,0,0,0.886677,994.918,751.323)" d="M21.9688,-13.7656 C25.0938,-13.7656 27.7344,-12.9531 29.8906,-11.3281 C31.901,-9.56771 32.9063,-7.35417 32.9063,-4.6875 C32.9063,-0.197917 30.599,4 25.9844,7.90625 C21.2969,11.8125 16.2813,13.7656 10.9375,13.7656 C7.8125,13.7656 5.17708,12.9531 3.03125,11.3281 C1.01042,9.56771 0,7.35417 0,4.6875 C0,0.197917 2.34375,-4 7.03125,-7.90625 C11.5938,-11.8125 16.5729,-13.7656 21.9688,-13.7656"/>
<path class="Note" transform="matrix(0.886677,0,0,0.886677,856.406,784.573)" d="M21.9688,-13.7656 C25.0938,-13.7656 27.7344,-12.9531 29.8906,-11.3281 C31.901,-9.56771 32.9063,-7.35417 32.9063,-4.6875 C32.9063,-0.197917 30.599,4 25.9844,7.90625 C21.2969,11.8125 16.2813,13.7656 10.9375,13.7656 C7.8125,13.7656 5.17708,12.9531 3.03125,11.3281 C1.01042,9.56771 0,7.35417 0,4.6875 C0,0.197917 2.34375,-4 7.03125,-7.90625 C11.5938,-11.8125 16.5729,-13.7656 21.9688,-13.7656"/>
<path class="Note" transform="matrix(0.886677,0,0,0.886677,683.023,784.573)" d="M21.9688,-13.7656 C25.0938,-13.7656 27.7344,-12.9531 29.8906,-11.3281 C31.901,-9.56771 32.9063,-7.35417 32.9063,-4.6875 C32.9063,-0.197917 30.599,4 25.9844,7.90625 C21.2969,11.8125 16.2813,13.7656 10.9375,13.7656 C7.8125,13.7656 5.17708,12.9531 3.03125,11.3281 C1.01042,9.56771 0,7.35417 0,4.6875 C0,0.197917 2.34375,-4 7.03125,-7.90625 C11.5938,-11.8125 16.5729,-13.7656 21.9688,-13.7656"/>
<path class="Note" transform="matrix(0.886677,0,0,0.886677,574.658,784.573)" d="M21.9688,-13.7656 C25.0938,-13.7656 27.7344,-12.9531 29.8906,-11.3281 C31.901,-9.56771 32.9063,-7.35417 32.9063,-4.6875 C32.9063,-0.197917 30.599,4 25.9844,7.90625 C21.2969,11.8125 16.2813,13.7656 10.9375,13.7656 C7.8125,13.7656 5.17708,12.9531 3.03125,11.3281 C1.01042,9.56771 0,7.35417 0,4.6875 C0,0.197917 2.34375,-4 7.03125,-7.90625 C11.5938,-11.8125 16.5729,-13.7656 21.9688,-13.7656"/>
<path class="Note" transform="matrix(0.886677,0,0,0.886677,466.294,784.573)" d="M21.9688,-13.7656 C25.0938,-13.7656 27.7344,-12.9531 29.8906,-11.3281 C31.901,-9.56771 32.9063,-7.35417 32.9063,-4.6875 C32.9063,-0.197917 30.599,4 25.9844,7.90625 C21.2969,11.8125 16.2813,13.7656 10.9375,13.7656 C7.8125,13.7656 5.17708,12.9531 3.03125,11.3281 C1.01042,9.56771 0,7.35417 0,4.6875 C0,0.197917 2.34375,-4 7.03125,-7.90625 C11.5938,-11.8125 16.5729,-13.7656 21.9688,-13.7656"/>
<path class="Note" transform="matrix(0.886677,0,0,0.886677,357.929,795.657)" d="M21.9688,-13.7656 C25.0938,-13.7656 27.7344,-12.9531 29.8906,-11.3281 C31.901,-9.56771 32.9063,-7.35417 32.9063,-4.6875 C32.9063,-0.197917 30.599,4 25.9844,7.90625 C21.2969,11.8125 16.2813,13.7656 10.9375,13.7656 C7.8125,13.7656 5.17708,12.9531 3.03125,11.3281 C1.01042,9.56771 0,7.35417 0,4.6875 C0,0.197917 2.34375,-4 7.03125,-7.90625 C11.5938,-11.8125 16.5729,-13.7656 21.9688,-13.7656"/>
<path class="Clef" transform="matrix(0.886677,0,0,0.886677,155.919,1183.58)" d="M36.7188,-25.5938 C36.7188,-25.5938 36.9167,-25.5938 37.3125,-25.5938 C37.5729,-25.6563 37.7969,-25.6875 37.9844,-25.6875 C45.276,-25.6875 51.2656,-23.1146 55.9531,-17.9688 C60.6406,-12.8958 62.9844,-6.97396 62.9844,-0.203125 C62.9844,8.20313 59.5052,15.0417 52.5469,20.3125 C50.724,21.75 48.3438,22.9219 45.4063,23.8281 C45.7396,28.0573 45.9063,31.474 45.9063,34.0781 C45.9063,34.599 45.8385,36.4896 45.7031,39.75 C45.4427,45.8021 43.3594,51.0417 39.4531,55.4688 C35.6823,59.8333 30.9948,62.0156 25.3906,62.0156 C20.1198,62.0156 15.6302,60.1615 11.9219,56.4531 C8.20313,52.6719 6.34375,48.1146 6.34375,42.7813 C6.34375,39.9792 7.42188,37.599 9.57813,35.6406 C11.7865,33.6927 14.3542,32.7188 17.2813,32.7188 C19.8854,32.7188 22.0677,33.7292 23.8281,35.75 C25.651,37.6354 26.5625,39.9792 26.5625,42.7813 C26.5625,45.3125 25.651,47.4896 23.8281,49.3125 C22.0052,51.1354 19.8229,52.0469 17.2813,52.0469 C16.2396,52.0469 15.2344,51.8542 14.2656,51.4688 C17.1302,55.6979 20.9375,57.8125 25.6875,57.8125 C30.1771,57.8125 33.8542,55.9896 36.7188,52.3438 C39.7188,48.5729 41.349,44.1771 41.6094,39.1563 C41.7344,36.0313 41.7969,34.2448 41.7969,33.7969 C41.7969,30.151 41.6667,27.1563 41.4063,24.8125 C38.1563,25.3333 35.2604,25.5938 32.7188,25.5938 C23.6667,25.5938 15.9531,22.0104 9.57813,14.8438 C3.32813,7.61458 0.203125,-0.979167 0.203125,-10.9375 C0.203125,-13.0208 0.395833,-15.1354 0.78125,-17.2813 C1.17708,-19.0417 1.66667,-20.9635 2.25,-23.0469 C2.57292,-24.224 3.45313,-26.1146 4.89063,-28.7188 C5.41146,-29.5 5.9974,-30.4766 6.64844,-31.6484 C7.29948,-32.8203 7.75521,-33.599 8.01563,-33.9844 C8.66146,-35.2865 9.92708,-37.0469 11.8125,-39.2656 C12.3333,-39.849 12.8724,-40.4974 13.4297,-41.2109 C13.987,-41.9245 14.4609,-42.5104 14.8516,-42.9688 C15.2422,-43.4271 15.5339,-43.7865 15.7266,-44.0469 C15.9193,-44.3073 17.3854,-46.0313 20.125,-49.2188 C20.7708,-49.875 21.4036,-50.5755 22.0234,-51.3203 C22.6432,-52.0651 23.1484,-52.651 23.5391,-53.0781 C23.9297,-53.5052 24.224,-53.8125 24.4219,-54 C22.0781,-61.75 20.6094,-67.9375 20.0156,-72.5625 C19.5677,-76.2708 19.3438,-81.349 19.3438,-87.7969 C19.3438,-93.4635 20.6458,-98.7708 23.25,-103.719 C25.7813,-108.854 29.3281,-113.052 33.8906,-116.313 C34.151,-116.51 34.474,-116.609 34.8594,-116.609 C35.3177,-116.609 35.6458,-116.51 35.8438,-116.313 C39.3542,-112.083 42.3802,-106.583 44.9219,-99.8125 C47.526,-93.0417 48.8281,-86.8854 48.8281,-81.3438 C48.8281,-75.0938 47.3333,-69.2344 44.3438,-63.7656 C40.9583,-57.974 36.5938,-51.9844 31.25,-45.7969 C32.6146,-41.5052 34.4375,-34.7708 36.7188,-25.5938 M45.0156,19.8281 C48.401,18.5885 51.0417,16.474 52.9375,13.4844 C55.0208,10.6198 56.0625,7.39583 56.0625,3.8125 C56.0625,-0.8125 54.5,-4.91667 51.375,-8.5 C48.1771,-12.2083 44.1042,-14.2917 39.1563,-14.75 C41.9583,-1.01042 43.9115,10.5156 45.0156,19.8281 M7.23438,-2.73438 C7.23438,3.71354 9.83854,9.38021 15.0469,14.2656 C20.3802,19.0156 26.3698,21.3906 33.0156,21.3906 C35.7448,21.3906 38.4115,21.1927 41.0156,20.7969 C39.974,10.901 37.9219,-0.947917 34.8594,-14.75 C31.151,-14.3542 28.1927,-13.0521 25.9844,-10.8438 C23.8281,-8.5625 22.75,-5.98958 22.75,-3.125 C22.75,1.82292 25.3906,5.82813 30.6719,8.89063 C31.1198,9.34896 31.3438,9.83854 31.3438,10.3594 C31.3438,10.8802 31.1198,11.3646 30.6719,11.8125 C30.276,12.2708 29.7865,12.5 29.2031,12.5 C29.1406,12.5 28.849,12.4375 28.3281,12.3125 C24.6094,10.2917 21.7448,7.6875 19.7344,4.5 C17.8385,1.10417 16.8906,-2.31771 16.8906,-5.76563 C16.8906,-10.2552 18.2917,-14.3229 21.0938,-17.9688 C24.0208,-21.6146 27.8281,-23.9583 32.5156,-25 C30.6927,-32.2917 29.1979,-37.9896 28.0313,-42.0938 C26.9896,-40.9167 25.737,-39.5 24.2734,-37.8438 C22.8099,-36.1875 21.9479,-35.1927 21.6875,-34.8594 C19.3438,-31.8073 17.5521,-29.4323 16.3125,-27.7344 C14.0938,-24.6719 12.4635,-22.0365 11.4219,-19.8281 C10.3177,-17.349 9.34375,-14.6458 8.5,-11.7188 C7.65625,-8.91667 7.23438,-5.92188 7.23438,-2.73438 M39.8438,-102.047 C34.9583,-99.6406 31.1198,-96.1927 28.3281,-91.7031 C25.4635,-87.0781 24.0313,-82.099 24.0313,-76.7656 C24.0313,-72.0781 25.2031,-65.7604 27.5469,-57.8125 C32.2344,-63.4792 35.75,-68.7188 38.0938,-73.5313 C40.5625,-78.6146 41.7969,-83.9219 41.7969,-89.4531 C41.7969,-93.6198 41.1458,-97.8177 39.8438,-102.047"/>
<path class="Clef" transform="matrix(0.886677,0,0,0.886677,155.919,762.406)" d="M36.7188,-25.5938 C36.7188,-25.5938 36.9167,-25.5938 37.3125,-25.5938 C37.5729,-25.6563 37.7969,-25.6875 37.9844,-25.6875 C45.276,-25.6875 51.2656,-23.1146 55.9531,-17.9688 C60.6406,-12.8958 62.9844,-6.97396 62.9844,-0.203125 C62.9844,8.20313 59.5052,15.0417 52.5469,20.3125 C50.724,21.75 48.3438,22.9219 45.4063,23.8281 C45.7396,28.0573 45.9063,31.474 45.9063,34.0781 C45.9063,34.599 45.8385,36.4896 45.7031,39.75 C45.4427,45.8021 43.3594,51.0417 39.4531,55.4688 C35.6823,59.8333 30.9948,62.0156 25.3906,62.0156 C20.1198,62.0156 15.6302,60.1615 11.9219,56.4531 C8.20313,52.6719 6.34375,48.1146 6.34375,42.7813 C6.34375,39.9792 7.42188,37.599 9.57813,35.6406 C11.7865,33.6927 14.3542,32.7188 17.2813,32.7188 C19.8854,32.7188 22.0677,33.7292 23.8281,35.75 C25.651,37.6354 26.5625,39.9792 26.5625,42.7813 C26.5625,45.3125 25.651,47.4896 23.8281,49.3125 C22.0052,51.1354 19.8229,52.0469 17.2813,52.0469 C16.2396,52.0469 15.2344,51.8542 14.2656,51.4688 C17.1302,55.6979 20.9375,57.8125 25.6875,57.8125 C30.1771,57.8125 33.8542,55.9896 36.7188,52.3438 C39.7188,48.5729 41.349,44.1771 41.6094,39.1563 C41.7344,36.0313 41.7969,34.2448 41.7969,33.7969 C41.7969,30.151 41.6667,27.1563 41.4063,24.8125 C38.1563,25.3333 35.2604,25.5938 32.7188,25.5938 C23.6667,25.5938 15.9531,22.0104 9.57813,14.8438 C3.32813,7.61458 0.203125,-0.979167 0.203125,-10.9375 C0.203125,-13.0208 0.395833,-15.1354 0.78125,-17.2813 C1.17708,-19.0417 1.66667,-20.9635 2.25,-23.0469 C2.57292,-24.224 3.45313,-26.1146 4.89063,-28.7188 C5.41146,-29.5 5.9974,-30.4766 6.64844,-31.6484 C7.29948,-32.8203 7.75521,-33.599 8.01563,-33.9844 C8.66146,-35.2865 9.92708,-37.0469 11.8125,-39.2656 C12.3333,-39.849 12.8724,-40.4974 13.4297,-41.2109 C13.987,-41.9245 14.4609,-42.5104 14.8516,-42.9688 C15.2422,-43.4271 15.5339,-43.7865 15.7266,-44.0469 C15.9193,-44.3073 17.3854,-46.0313 20.125,-49.2188 C20.7708,-49.875 21.4036,-50.5755 22.0234,-51.3203 C22.6432,-52.0651 23.1484,-52.651 23.5391,-53.0781 C23.9297,-53.5052 24.224,-53.8125 24.4219,-54 C22.0781,-61.75 20.6094,-67.9375 20.0156,-72.5625 C19.5677,-76.2708 19.3438,-81.349 19.3438,-87.7969 C19.3438,-93.4635 20.6458,-98.7708 23.25,-103.719 C25.7813,-108.854 29.3281,-113.052 33.8906,-116.313 C34.151,-116.51 34.474,-116.609 34.8594,-116.609 C35.3177,-116.609 35.6458,-116.51 35.8438,-116.313 C39.3542,-112.083 42.3802,-106.583 44.9219,-99.8125 C47.526,-93.0417 48.8281,-86.8854 48.8281,-81.3438 C48.8281,-75.0938 47.3333,-69.2344 44.3438,-63.7656 C40.9583,-57.974 36.5938,-51.9844 31.25,-45.7969 C32.6146,-41.5052 34.4375,-34.7708 36.7188,-25.5938 M45.0156,19.8281 C48.401,18.5885 51.0417,16.474 52.9375,13.4844 C55.0208,10.6198 56.0625,7.39583 56.0625,3.8125 C56.0625,-0.8125 54.5,-4.91667 51.375,-8.5 C48.1771,-12.2083 44.1042,-14.2917 39.1563,-14.75 C41.9583,-1.01042 43.9115,10.5156 45.0156,19.8281 M7.23438,-2.73438 C7.23438,3.71354 9.83854,9.38021 15.0469,14.2656 C20.3802,19.0156 26.3698,21.3906 33.0156,21.3906 C35.7448,21.3906 38.4115,21.1927 41.0156,20.7969 C39.974,10.901 37.9219,-0.947917 34.8594,-14.75 C31.151,-14.3542 28.1927,-13.0521 25.9844,-10.8438 C23.8281,-8.5625 22.75,-5.98958 22.75,-3.125 C22.75,1.82292 25.3906,5.82813 30.6719,8.89063 C31.1198,9.34896 31.3438,9.83854 31.3438,10.3594 C31.3438,10.8802 31.1198,11.3646 30.6719,11.8125 C30.276,12.2708 29.7865,12.5 29.2031,12.5 C29.1406,12.5 28.849,12.4375 28.3281,12.3125 C24.6094,10.2917 21.7448,7.6875 19.7344,4.5 C17.8385,1.10417 16.8906,-2.31771 16.8906,-5.76563 C16.8906,-10.2552 18.2917,-14.3229 21.0938,-17.9688 C24.0208,-21.6146 27.8281,-23.9583 32.5156,-25 C30.6927,-32.2917 29.1979,-37.9896 28.0313,-42.0938 C26.9896,-40.9167 25.737,-39.5 24.2734,-37.8438 C22.8099,-36.1875 21.9479,-35.1927 21.6875,-34.8594 C19.3438,-31.8073 17.5521,-29.4323 16.3125,-27.7344 C14.0938,-24.6719 12.4635,-22.0365 11.4219,-19.8281 C10.3177,-17.349 9.34375,-14.6458 8.5,-11.7188 C7.65625,-8.91667 7.23438,-5.92188 7.23438,-2.73438 M39.8438,-102.047 C34.9583,-99.6406 31.1198,-96.1927 28.3281,-91.7031 C25.4635,-87.0781 24.0313,-82.099 24.0313,-76.7656 C24.0313,-72.0781 25.2031,-65.7604 27.5469,-57.8125 C32.2344,-63.4792 35.75,-68.7188 38.0938,-73.5313 C40.5625,-78.6146 41.7969,-83.9219 41.7969,-89.4531 C41.7969,-93.6198 41.1458,-97.8177 39.8438,-102.047"/>
<path class="KeySig" transform="matrix(0.886677,0,0,0.886677,233.891,1117.08)" d="M21.5781,31.1563 C21.5781,32.3958 20.9609,33.0156 19.7266,33.0156 C18.4922,33.0156 17.875,32.3958 17.875,31.1563 L17.875,16.7031 L9.57813,19.8281 L9.57813,35.6406 C9.57813,36.8802 8.95833,37.5 7.71875,37.5 C6.47917,37.5 5.85938,36.8802 5.85938,35.6406 L5.85938,21.0938 L2.73438,22.2656 C2.67188,22.3281 2.41146,22.3594 1.95313,22.3594 C1.43229,22.3594 0.976563,22.1641 0.585938,21.7734 C0.195313,21.3828 0,20.9271 0,20.4063 L0,14.3594 C0,13.3802 0.421875,12.7604 1.26563,12.5 L5.85938,10.9375 L5.85938,-5.07813 L2.73438,-4 C2.67188,-3.9375 2.41146,-3.90625 1.95313,-3.90625 C1.43229,-3.90625 0.976563,-4.10156 0.585938,-4.49219 C0.195313,-4.88281 0,-5.33854 0,-5.85938 L0,-11.9219 C0,-12.8281 0.421875,-13.4115 1.26563,-13.6719 L5.85938,-15.4375 L5.85938,-31.1563 C5.85938,-32.3958 6.47917,-33.0156 7.71875,-33.0156 C8.95833,-33.0156 9.57813,-32.3958 9.57813,-31.1563 L9.57813,-16.7031 L17.875,-19.8281 L17.875,-35.6406 C17.875,-36.8802 18.4922,-37.5 19.7266,-37.5 C20.9609,-37.5 21.5781,-36.8802 21.5781,-35.6406 L21.5781,-21.0938 L24.8125,-22.2656 C24.875,-22.3281 25.099,-22.3594 25.4844,-22.3594 C25.9427,-22.3594 26.4323,-22.1667 26.9531,-21.7813 C27.349,-21.3854 27.5469,-20.9271 27.5469,-20.4063 L27.5469,-14.3594 C27.5469,-13.4427 27.0885,-12.8229 26.1719,-12.5 L21.5781,-10.9375 L21.5781,5.07813 L24.8125,4 C24.875,3.9375 25.099,3.90625 25.4844,3.90625 C25.9427,3.90625 26.4323,4.10417 26.9531,4.5 C27.349,4.88542 27.5469,5.33854 27.5469,5.85938 L27.5469,11.9219 C27.5469,12.7656 27.0885,13.349 26.1719,13.6719 L21.5781,15.4375 L21.5781,31.1563 M17.875,-9.46875 L9.57813,-6.54688 L9.57813,9.46875 L17.875,6.54688 L17.875,-9.46875 "/>
<path class="KeySig" transform="matrix(0.886677,0,0,0.886677,233.891,695.906)" d="M21.5781,31.1563 C21.5781,32.3958 20.9609,33.0156 19.7266,33.0156 C18.4922,33.0156 17.875,32.3958 17.875,31.1563 L17.875,16.7031 L9.57813,19.8281 L9.57813,35.6406 C9.57813,36.8802 8.95833,37.5 7.71875,37.5 C6.47917,37.5 5.85938,36.8802 5.85938,35.6406 L5.85938,21.0938 L2.73438,22.2656 C2.67188,22.3281 2.41146,22.3594 1.95313,22.3594 C1.43229,22.3594 0.976563,22.1641 0.585938,21.7734 C0.195313,21.3828 0,20.9271 0,20.4063 L0,14.3594 C0,13.3802 0.421875,12.7604 1.26563,12.5 L5.85938,10.9375 L5.85938,-5.07813 L2.73438,-4 C2.67188,-3.9375 2.41146,-3.90625 1.95313,-3.90625 C1.43229,-3.90625 0.976563,-4.10156 0.585938,-4.49219 C0.195313,-4.88281 0,-5.33854 0,-5.85938 L0,-11.9219 C0,-12.8281 0.421875,-13.4115 1.26563,-13.6719 L5.85938,-15.4375 L5.85938,-31.1563 C5.85938,-32.3958 6.47917,-33.0156 7.71875,-33.0156 C8.95833,-33.0156 9.57813,-32.3958 9.57813,-31.1563 L9.57813,-16.7031 L17.875,-19.8281 L17.875,-35.6406 C17.875,-36.8802 18.4922,-37.5 19.7266,-37.5 C20.9609,-37.5 21.5781,-36.8802 21.5781,-35.6406 L21.5781,-21.0938 L24.8125,-22.2656 C24.875,-22.3281 25.099,-22.3594 25.4844,-22.3594 C25.9427,-22.3594 26.4323,-22.1667 26.9531,-21.7813 C27.349,-21.3854 27.5469,-20.9271 27.5469,-20.4063 L27.5469,-14.3594 C27.5469,-13.4427 27.0885,-12.8229 26.1719,-12.5 L21.5781,-10.9375 L21.5781,5.07813 L24.8125,4 C24.875,3.9375 25.099,3.90625 25.4844,3.90625 C25.9427,3.90625 26.4323,4.10417 26.9531,4.5 C27.349,4.88542 27.5469,5.33854 27.5469,5.85938 L27.5469,11.9219 C27.5469,12.7656 27.0885,13.349 26.1719,13.6719 L21.5781,15.4375 L21.5781,31.1563 M17.875,-9.46875 L9.57813,-6.54688 L9.57813,9.46875 L17.875,6.54688 L17.875,-9.46875 "/>
<path class="TimeSig" transform="matrix(0.886677,0,0,0.886677,281.959,718.073)" d="M17,-0.59375 C14.5208,-0.59375 12.9896,0.385417 12.4063,2.34375 C11.9479,3.78125 11.7188,6.19271 11.7188,9.57813 L11.7188,12.5 C11.7188,15.8854 11.9479,18.2969 12.4063,19.7344 C12.9896,21.6823 14.5208,22.6563 17,22.6563 C19.7292,22.6563 21.4531,21.5156 22.1719,19.2344 C22.8177,17.0885 23.1406,14.3542 23.1406,11.0313 C23.1406,7.19792 22.7865,4.30208 22.0781,2.34375 C21.2969,0.385417 19.6042,-0.59375 17,-0.59375 M11.7188,-1.5625 C13.6771,-2.34375 15.4375,-2.80208 17,-2.9375 C22.2083,-2.9375 26.375,-1.76042 29.5,0.59375 C32.4896,3 33.9844,6.44792 33.9844,10.9375 C33.9844,15.5 32.4531,19.0156 29.3906,21.4844 C26.3385,23.8281 22.2083,25 17,25 C11.6563,25 7.48698,22.526 4.49219,17.5781 C1.4974,12.6302 0,6.77083 0,0 C0,-6.64583 1.76042,-12.5052 5.28125,-17.5781 C8.85417,-22.526 13.4427,-25 19.0469,-25 C22.6927,-25 25.9167,-24.0573 28.7188,-22.1719 C31.4479,-20.2865 32.8125,-17.8125 32.8125,-14.75 C32.8125,-12.8646 32.1615,-11.3021 30.8594,-10.0625 C29.6927,-8.76042 28.1979,-8.10938 26.375,-8.10938 C24.5521,-8.10938 22.9896,-8.76042 21.6875,-10.0625 C20.3854,-11.3646 19.7344,-12.9271 19.7344,-14.75 C19.7344,-15.4688 20.3854,-16.2813 21.6875,-17.1875 C22.9896,-17.9688 23.6406,-18.7813 23.6406,-19.625 C23.6406,-20.5417 23.1823,-21.2917 22.2656,-21.875 C21.224,-22.3958 20.151,-22.6563 19.0469,-22.6563 C16.0469,-22.6563 14.0625,-21.4531 13.0938,-19.0469 C12.0521,-16.7031 11.5313,-13.2865 11.5313,-8.79688 C11.5313,-7.49479 11.5625,-6.28906 11.625,-5.17969 C11.6875,-4.07031 11.7188,-2.86458 11.7188,-1.5625"/>
<path class="TimeSig" transform="matrix(0.886677,0,0,0.886677,280.477,762.406)" d="M25.875,-3.8125 C29.1354,-7.39583 30.7656,-10.7813 30.7656,-13.9688 C30.7656,-16.6354 29.625,-18.75 27.3438,-20.3125 C25.1354,-21.875 22.401,-22.6563 19.1406,-22.6563 C16.8594,-22.6563 15.0365,-21.9401 13.6719,-20.5078 C12.3073,-19.0755 11.625,-17.4479 11.625,-15.625 C11.625,-13.3438 12.6354,-11.5885 14.6563,-10.3594 L25.875,-3.8125 M28.9063,-2.15625 C34.4375,1.04167 37.2031,5.30729 37.2031,10.6406 C37.2031,14.6198 35.5469,17.974 32.2344,20.7031 C28.9115,23.5677 24.2552,25 18.2656,25 C13.1823,25 8.91667,23.6979 5.46875,21.0938 C1.82292,18.4896 0,15.1354 0,11.0313 C0,9.54167 0.458333,7.94792 1.375,6.25 C2.21875,4.75 3.0625,3.57813 3.90625,2.73438 C4.30208,2.21354 5.54167,0.973958 7.625,-0.984375 C3.58333,-3.84896 1.53125,-7.39583 1.46875,-11.625 C1.46875,-15.2083 3.0625,-18.3646 6.25,-21.0938 C9.4375,-23.6979 13.7344,-25 19.1406,-25 C23.4427,-25 27.2188,-24.026 30.4688,-22.0781 C33.5938,-20.1198 35.1563,-17.4167 35.1563,-13.9688 C35.0313,-10.4479 32.9479,-6.51042 28.9063,-2.15625 M10.6406,0.78125 C6.60938,4.36458 4.52604,7.78125 4.39063,11.0313 C4.39063,14.3542 5.79167,17.125 8.59375,19.3438 C11.2604,21.5521 14.4844,22.6563 18.2656,22.6563 C20.9323,22.6563 23.0156,21.8125 24.5156,20.125 C26.0781,18.5625 26.8594,16.6406 26.8594,14.3594 C26.8594,11.5573 25.7188,9.50521 23.4375,8.20313 L10.6406,0.78125 "/>
<path class="Beam" fill-rule="evenodd" d="M1021.22,668.197 L1352.36,668.197 L1352.36,679.28 L1021.22,679.28 L1021.22,668.197 "/>
<path class="Beam" fill-rule="evenodd" d="M1183.32,684.822 L1352.36,684.822 L1352.36,695.906 L1183.32,695.906 L1183.32,684.822 "/>
<path class="Beam" fill-rule="evenodd" d="M384.232,718.073 L603.843,718.073 L603.843,729.156 L384.232,729.156 L384.232,718.073 "/>
<path class="Hook" transform="matrix(0.886677,0,0,0.886677,1665.83,1100.45)" d="M0,25 L0,0 L3.125,0 C3.125,3.70833 3.84375,7.42188 5.28125,11.1406 C6.84375,15.1719 8.56771,18.6875 10.4531,21.6875 C11.8177,23.8333 13.8698,27.1198 16.6094,31.5469 C18.6927,34.9323 20.4505,38.4792 21.8828,42.1875 C23.3151,45.8958 24.0313,49.6094 24.0313,53.3281 C24.0313,60.099 22.6302,67 19.8281,74.0313 C19.3073,74.8125 18.6875,75.2031 17.9688,75.2031 C17.3229,75.2031 16.7396,74.9427 16.2188,74.4219 C15.8229,74.026 15.625,73.5365 15.625,72.9531 L15.625,72.4688 C18.4271,66.0208 19.8281,59.6406 19.8281,53.3281 C19.8281,50.0677 18.849,46.5521 16.8906,42.7813 C14.9427,38.9375 12.9583,35.875 10.9375,33.5938 C8.65625,30.9271 6.05208,28.0625 3.125,25 L0,25 "/>
<path class="Hook" transform="matrix(0.886677,0,0,0.886677,1566.89,1117.08)" d="M0,25 L0,0 L3.125,0 C3.125,3.70833 3.84375,7.42188 5.28125,11.1406 C6.84375,15.1719 8.56771,18.6875 10.4531,21.6875 C11.8177,23.8333 13.8698,27.1198 16.6094,31.5469 C18.6927,34.9323 20.4505,38.4792 21.8828,42.1875 C23.3151,45.8958 24.0313,49.6094 24.0313,53.3281 C24.0313,60.099 22.6302,67 19.8281,74.0313 C19.3073,74.8125 18.6875,75.2031 17.9688,75.2031 C17.3229,75.2031 16.7396,74.9427 16.2188,74.4219 C15.8229,74.026 15.625,73.5365 15.625,72.9531 L15.625,72.4688 C18.4271,66.0208 19.8281,59.6406 19.8281,53.3281 C19.8281,50.0677 18.849,46.5521 16.8906,42.7813 C14.9427,38.9375 12.9583,35.875 10.9375,33.5938 C8.65625,30.9271 6.05208,28.0625 3.125,25 L0,25 "/>
<path class="Hook" transform="matrix(0.886677,0,0,0.886677,1285.08,1139.24)" d="M0,25 L0,0 L3.125,0 C3.125,3.70833 3.84375,7.42188 5.28125,11.1406 C6.84375,15.1719 8.56771,18.6875 10.4531,21.6875 C11.8177,23.8333 13.8698,27.1198 16.6094,31.5469 C18.6927,34.9323 20.4505,38.4792 21.8828,42.1875 C23.3151,45.8958 24.0313,49.6094 24.0313,53.3281 C24.0313,60.099 22.6302,67 19.8281,74.0313 C19.3073,74.8125 18.6875,75.2031 17.9688,75.2031 C17.3229,75.2031 16.7396,74.9427 16.2188,74.4219 C15.8229,74.026 15.625,73.5365 15.625,72.9531 L15.625,72.4688 C18.4271,66.0208 19.8281,59.6406 19.8281,53.3281 C19.8281,50.0677 18.849,46.5521 16.8906,42.7813 C14.9427,38.9375 12.9583,35.875 10.9375,33.5938 C8.65625,30.9271 6.05208,28.0625 3.125,25 L0,25 "/>
<path class="Hook" transform="matrix(0.886677,0,0,0.886677,1042.33,1108.76)" d="M0,25 L0,0 L3.125,0 C3.125,3.70833 3.84375,7.42188 5.28125,11.1406 C6.84375,15.1719 8.56771,18.6875 10.4531,21.6875 C11.8177,23.8333 13.8698,27.1198 16.6094,31.5469 C18.6927,34.9323 20.4505,38.4792 21.8828,42.1875 C23.3151,45.8958 24.0313,49.6094 24.0313,53.3281 C24.0313,60.099 22.6302,67 19.8281,74.0313 C19.3073,74.8125 18.6875,75.2031 17.9688,75.2031 C17.3229,75.2031 16.7396,74.9427 16.2188,74.4219 C15.8229,74.026 15.625,73.5365 15.625,72.9531 L15.625,72.4688 C18.4271,66.0208 19.8281,59.6406 19.8281,53.3281 C19.8281,50.0677 18.849,46.5521 16.8906,42.7813 C14.9427,38.9375 12.9583,35.875 10.9375,33.5938 C8.65625,30.9271 6.05208,28.0625 3.125,25 L0,25 "/>
<path class="Hook" transform="matrix(0.886677,0,0,0.886677,774.135,1100.45)" d="M0,25 L0,0 L3.125,0 C3.125,3.70833 3.84375,7.42188 5.28125,11.1406 C6.84375,15.1719 8.56771,18.6875 10.4531,21.6875 C11.8177,23.8333 13.8698,27.1198 16.6094,31.5469 C18.6927,34.9323 20.4505,38.4792 21.8828,42.1875 C23.3151,45.8958 24.0313,49.6094 24.0313,53.3281 C24.0313,60.099 22.6302,67 19.8281,74.0313 C19.3073,74.8125 18.6875,75.2031 17.9688,75.2031 C17.3229,75.2031 16.7396,74.9427 16.2188,74.4219 C15.8229,74.026 15.625,73.5365 15.625,72.9531 L15.625,72.4688 C18.4271,66.0208 19.8281,59.6406 19.8281,53.3281 C19.8281,50.0677 18.849,46.5521 16.8906,42.7813 C14.9427,38.9375 12.9583,35.875 10.9375,33.5938 C8.65625,30.9271 6.05208,28.0625 3.125,25 L0,25 "/>
<path class="Hook" transform="matrix(0.886677,0,0,0.886677,517.324,1239)" d="M22.75,-72.3594 C24.25,-72.3594 25.849,-69.9219 27.5469,-65.0469 C29.1719,-60.224 29.9844,-55.6302 29.9844,-51.2656 C29.9844,-47.5573 29.0729,-43.8802 27.25,-40.2344 C25.3646,-36.3281 23.1198,-32.9427 20.5156,-30.0781 L12.5,-21.0938 C10.0313,-18.2292 7.81771,-14.9115 5.85938,-11.1406 C4.03646,-7.49479 3.125,-3.78125 3.125,0 L0,0 L0,-25 L3.125,-25 C4.88542,-26.1042 7.48958,-27.8646 10.9375,-30.2813 C12.5,-31.4479 14.8438,-33.401 17.9688,-36.1406 C20.5104,-38.4844 22.4323,-40.8906 23.7344,-43.3594 C25.099,-45.9635 25.7813,-48.599 25.7813,-51.2656 C25.7813,-57.4531 23.9896,-63.6094 20.4063,-69.7344 C20.4063,-69.7344 20.4063,-69.8646 20.4063,-70.125 C20.4063,-70.7083 20.6042,-71.1927 21,-71.5781 C21.5208,-72.099 22.1042,-72.3594 22.75,-72.3594"/>
<path class="Hook" transform="matrix(0.886677,0,0,0.886677,1953.69,784.573)" d="M22.75,-72.3594 C24.25,-72.3594 25.849,-69.9219 27.5469,-65.0469 C29.1719,-60.224 29.9844,-55.6302 29.9844,-51.2656 C29.9844,-47.5573 29.0729,-43.8802 27.25,-40.2344 C25.3646,-36.3281 23.1198,-32.9427 20.5156,-30.0781 L12.5,-21.0938 C10.0313,-18.2292 7.81771,-14.9115 5.85938,-11.1406 C4.03646,-7.49479 3.125,-3.78125 3.125,0 L0,0 L0,-25 L3.125,-25 C4.88542,-26.1042 7.48958,-27.8646 10.9375,-30.2813 C12.5,-31.4479 14.8438,-33.401 17.9688,-36.1406 C20.5104,-38.4844 22.4323,-40.8906 23.7344,-43.3594 C25.099,-45.9635 25.7813,-48.599 25.7813,-51.2656 C25.7813,-57.4531 23.9896,-63.6094 20.4063,-69.7344 C20.4063,-69.7344 20.4063,-69.8646 20.4063,-70.125 C20.4063,-70.7083 20.6042,-71.1927 21,-71.5781 C21.5208,-72.099 22.1042,-72.3594 22.75,-72.3594"/>
<path class="Hook" transform="matrix(0.886677,0,0,0.886677,1836.25,806.74)" d="M22.75,-72.3594 C24.25,-72.3594 25.849,-69.9219 27.5469,-65.0469 C29.1719,-60.224 29.9844,-55.6302 29.9844,-51.2656 C29.9844,-47.5573 29.0729,-43.8802 27.25,-40.2344 C25.3646,-36.3281 23.1198,-32.9427 20.5156,-30.0781 L12.5,-21.0938 C10.0313,-18.2292 7.81771,-14.9115 5.85938,-11.1406 C4.03646,-7.49479 3.125,-3.78125 3.125,0 L0,0 L0,-25 L3.125,-25 C4.88542,-26.1042 7.48958,-27.8646 10.9375,-30.2813 C12.5,-31.4479 14.8438,-33.401 17.9688,-36.1406 C20.5104,-38.4844 22.4323,-40.8906 23.7344,-43.3594 C25.099,-45.9635 25.7813,-48.599 25.7813,-51.2656 C25.7813,-57.4531 23.9896,-63.6094 20.4063,-69.7344 C20.4063,-69.7344 20.4063,-69.8646 20.4063,-70.125 C20.4063,-70.7083 20.6042,-71.1927 21,-71.5781 C21.5208,-72.099 22.1042,-72.3594 22.75,-72.3594"/>
<path class="Hook" transform="matrix(0.886677,0,0,0.886677,882.709,706.989)" d="M0,25 L0,0 L3.125,0 C3.125,3.70833 3.84375,7.42188 5.28125,11.1406 C6.84375,15.1719 8.56771,18.6875 10.4531,21.6875 C11.8177,23.8333 13.8698,27.1198 16.6094,31.5469 C18.6927,34.9323 20.4505,38.4792 21.8828,42.1875 C23.3151,45.8958 24.0313,49.6094 24.0313,53.3281 C24.0313,60.099 22.6302,67 19.8281,74.0313 C19.3073,74.8125 18.6875,75.2031 17.9688,75.2031 C17.3229,75.2031 16.7396,74.9427 16.2188,74.4219 C15.8229,74.026 15.625,73.5365 15.625,72.9531 L15.625,72.4688 C18.4271,66.0208 19.8281,59.6406 19.8281,53.3281 C19.8281,50.0677 18.849,46.5521 16.8906,42.7813 C14.9427,38.9375 12.9583,35.875 10.9375,33.5938 C8.65625,30.9271 6.05208,28.0625 3.125,25 L0,25 "/>
<path class="VoltaSegment" d="M2389.43,1045.48 C2391.92,1038.82 2395.51,1035.49 2400.21,1035.49 C2402.85,1035.49 2405.02,1036.33 2406.72,1038.01 C2408.42,1039.7 2409.27,1041.84 2409.27,1044.44 C2409.27,1048.04 2407.41,1051.6 2403.69,1055.13 L2395.75,1062.68 L2403.14,1062.68 C2405.67,1062.68 2407.29,1062.48 2408,1062.09 C2408.72,1061.7 2409.44,1060.62 2410.16,1058.85 L2411.33,1058.85 L2409.13,1069.19 L2388.74,1069.19 L2388.74,1068.07 C2394.33,1062.12 2398.04,1057.74 2399.87,1054.91 C2401.7,1052.09 2402.61,1049.55 2402.61,1047.29 C2402.61,1045.62 2402.07,1044.17 2401,1042.93 C2399.92,1041.69 2398.51,1041.07 2396.79,1041.07 C2394.26,1041.07 2392.27,1042.54 2390.8,1045.48 L2389.43,1045.48 M2419.04,1061.55 C2420.18,1061.55 2421.16,1061.97 2421.98,1062.8 C2422.8,1063.64 2423.21,1064.62 2423.21,1065.76 C2423.21,1066.91 2422.8,1067.87 2421.98,1068.66 C2421.16,1069.44 2420.17,1069.84 2418.99,1069.84 C2417.84,1069.84 2416.88,1069.43 2416.1,1068.63 C2415.32,1067.83 2414.93,1066.84 2414.93,1065.66 C2414.93,1064.56 2415.33,1063.6 2416.14,1062.78 C2416.96,1061.96 2417.92,1061.55 2419.04,1061.55"/>
<polyline class="VoltaSegment" fill="none" stroke="#000000" stroke-width="2.22" stroke-linecap="square" stroke-linejoin="bevel" points="2376.83,1069.19 2376.83,1027.08"/>
<polyline class="VoltaSegment" fill="none" stroke="#000000" stroke-width="2.22" stroke-linecap="square" stroke-linejoin="bevel" points="2376.83,1027.08 2815.54,1027.08"/>
<path class="VoltaSegment" d="M1915.73,1044.22 C1915.35,1044.22 1914.88,1044.3 1914.34,1044.46 C1913.8,1044.62 1913.23,1044.81 1912.62,1045.04 C1912.02,1045.27 1911.67,1045.4 1911.58,1045.43 L1911.58,1044.15 L1923.92,1038.82 L1924.75,1038.82 L1924.75,1066.75 C1924.75,1068.64 1925.08,1069.88 1925.73,1070.45 C1926.39,1071.02 1927.83,1071.32 1930.04,1071.36 L1930.04,1072.53 L1911.67,1072.53 L1911.67,1071.36 C1914.09,1071.32 1915.66,1071.01 1916.4,1070.4 C1917.13,1069.8 1917.5,1068.48 1917.5,1066.45 L1917.5,1047.59 C1917.5,1045.34 1916.91,1044.22 1915.73,1044.22 M1939.51,1064.89 C1940.66,1064.89 1941.64,1065.3 1942.46,1066.14 C1943.28,1066.97 1943.68,1067.96 1943.68,1069.1 C1943.68,1070.24 1943.28,1071.2 1942.46,1071.99 C1941.64,1072.78 1940.64,1073.17 1939.47,1073.17 C1938.32,1073.17 1937.36,1072.77 1936.58,1071.97 C1935.79,1071.16 1935.4,1070.17 1935.4,1069 C1935.4,1067.89 1935.81,1066.93 1936.62,1066.11 C1937.43,1065.3 1938.4,1064.89 1939.51,1064.89"/>
<polyline class="VoltaSegment" fill="none" stroke="#000000" stroke-width="2.22" stroke-linecap="square" stroke-linejoin="bevel" points="1900.3,1072.53 1900.3,1030.41"/>
<polyline class="VoltaSegment" fill="none" stroke="#000000" stroke-width="2.22" stroke-linecap="square" stroke-linejoin="bevel" points="1900.3,1030.41 2363.47,1030.41"/>
<polyline class="VoltaSegment" fill="none" stroke="#000000" stroke-width="2.22" stroke-linecap="square" stroke-linejoin="bevel" points="2363.47,1030.41 2363.47,1072.53"/>
<path class="NoteDot" transform="matrix(0.886677,0,0,0.886677,2645.54,1194.66)" d="M1.66406,4.00781 C0.554688,2.89844 0,1.5625 0,0 C0,-1.5625 0.554688,-2.89844 1.66406,-4.00781 C2.77344,-5.11719 4.10938,-5.67188 5.67188,-5.67188 C7.23438,-5.67188 8.56771,-5.11719 9.67188,-4.00781 C10.776,-2.89844 11.3281,-1.5625 11.3281,0 C11.3281,1.5625 10.776,2.89844 9.67188,4.00781 C8.56771,5.11719 7.23438,5.67188 5.67188,5.67188 C4.10938,5.67188 2.77344,5.11719 1.66406,4.00781"/>
<path class="NoteDot" transform="matrix(0.886677,0,0,0.886677,2440.37,1194.66)" d="M1.66406,4.00781 C0.554688,2.89844 0,1.5625 0,0 C0,-1.5625 0.554688,-2.89844 1.66406,-4.00781 C2.77344,-5.11719 4.10938,-5.67188 5.67188,-5.67188 C7.23438,-5.67188 8.56771,-5.11719 9.67188,-4.00781 C10.776,-2.89844 11.3281,-1.5625 11.3281,0 C11.3281,1.5625 10.776,2.89844 9.67188,4.00781 C8.56771,5.11719 7.23438,5.67188 5.67188,5.67188 C4.10938,5.67188 2.77344,5.11719 1.66406,4.00781"/>
<path class="NoteDot" transform="matrix(0.886677,0,0,0.886677,2169.02,1194.66)" d="M1.66406,4.00781 C0.554688,2.89844 0,1.5625 0,0 C0,-1.5625 0.554688,-2.89844 1.66406,-4.00781 C2.77344,-5.11719 4.10938,-5.67188 5.67188,-5.67188 C7.23438,-5.67188 8.56771,-5.11719 9.67188,-4.00781 C10.776,-2.89844 11.3281,-1.5625 11.3281,0 C11.3281,1.5625 10.776,2.89844 9.67188,4.00781 C8.56771,5.11719 7.23438,5.67188 5.67188,5.67188 C4.10938,5.67188 2.77344,5.11719 1.66406,4.00781"/>
<path class="NoteDot" transform="matrix(0.886677,0,0,0.886677,1963.85,1194.66)" d="M1.66406,4.00781 C0.554688,2.89844 0,1.5625 0,0 C0,-1.5625 0.554688,-2.89844 1.66406,-4.00781 C2.77344,-5.11719 4.10938,-5.67188 5.67188,-5.67188 C7.23438,-5.67188 8.56771,-5.11719 9.67188,-4.00781 C10.776,-2.89844 11.3281,-1.5625 11.3281,0 C11.3281,1.5625 10.776,2.89844 9.67188,4.00781 C8.56771,5.11719 7.23438,5.67188 5.67188,5.67188 C4.10938,5.67188 2.77344,5.11719 1.66406,4.00781"/>
<path class="NoteDot" transform="matrix(0.886677,0,0,0.886677,2597.5,706.989)" d="M1.66406,4.00781 C0.554688,2.89844 0,1.5625 0,0 C0,-1.5625 0.554688,-2.89844 1.66406,-4.00781 C2.77344,-5.11719 4.10938,-5.67188 5.67188,-5.67188 C7.23438,-5.67188 8.56771,-5.11719 9.67188,-4.00781 C10.776,-2.89844 11.3281,-1.5625 11.3281,0 C11.3281,1.5625 10.776,2.89844 9.67188,4.00781 C8.56771,5.11719 7.23438,5.67188 5.67188,5.67188 C4.10938,5.67188 2.77344,5.11719 1.66406,4.00781"/>
<path class="NoteDot" transform="matrix(0.886677,0,0,0.886677,2326.1,729.156)" d="M1.66406,4.00781 C0.554688,2.89844 0,1.5625 0,0 C0,-1.5625 0.554688,-2.89844 1.66406,-4.00781 C2.77344,-5.11719 4.10938,-5.67188 5.67188,-5.67188 C7.23438,-5.67188 8.56771,-5.11719 9.67188,-4.00781 C10.776,-2.89844 11.3281,-1.5625 11.3281,0 C11.3281,1.5625 10.776,2.89844 9.67188,4.00781 C8.56771,5.11719 7.23438,5.67188 5.67188,5.67188 C4.10938,5.67188 2.77344,5.11719 1.66406,4.00781"/>
<path class="NoteDot" transform="matrix(0.886677,0,0,0.886677,1443.21,729.156)" d="M1.66406,4.00781 C0.554688,2.89844 0,1.5625 0,0 C0,-1.5625 0.554688,-2.89844 1.66406,-4.00781 C2.77344,-5.11719 4.10938,-5.67188 5.67188,-5.67188 C7.23438,-5.67188 8.56771,-5.11719 9.67188,-4.00781 C10.776,-2.89844 11.3281,-1.5625 11.3281,0 C11.3281,1.5625 10.776,2.89844 9.67188,4.00781 C8.56771,5.11719 7.23438,5.67188 5.67188,5.67188 C4.10938,5.67188 2.77344,5.11719 1.66406,4.00781"/>
<path class="NoteDot" transform="matrix(0.886677,0,0,0.886677,1031.86,751.323)" d="M1.66406,4.00781 C0.554688,2.89844 0,1.5625 0,0 C0,-1.5625 0.554688,-2.89844 1.66406,-4.00781 C2.77344,-5.11719 4.10938,-5.67188 5.67188,-5.67188 C7.23438,-5.67188 8.56771,-5.11719 9.67188,-4.00781 C10.776,-2.89844 11.3281,-1.5625 11.3281,0 C11.3281,1.5625 10.776,2.89844 9.67188,4.00781 C8.56771,5.11719 7.23438,5.67188 5.67188,5.67188 C4.10938,5.67188 2.77344,5.11719 1.66406,4.00781"/>
</svg>
