<?xml version="1.0" encoding="UTF-8" standalone="no"?>
<svg width="2974.68px" height="4209.45px" viewBox="0 0 2974.68 4209.45"
 xmlns="http://www.w3.org/2000/svg" xmlns:xlink="http://www.w3.org/1999/xlink" version="1.2" baseProfile="tiny">
<title>Nane_cocha_nane_gad (2)</title>
<desc>Generated by MuseScore 3.0.2</desc>
<polyline class="StaffLines" fill="none" stroke="#000000" stroke-width="1.81" stroke-linejoin="bevel" points="140.315,503.15 2834.36,503.15"/>
<polyline class="StaffLines" fill="none" stroke="#000000" stroke-width="1.81" stroke-linejoin="bevel" points="140.315,525.827 2834.36,525.827"/>
<polyline class="StaffLines" fill="none" stroke="#000000" stroke-width="1.81" stroke-linejoin="bevel" points="140.315,548.504 2834.36,548.504"/>
<polyline class="StaffLines" fill="none" stroke="#000000" stroke-width="1.81" stroke-linejoin="bevel" points="140.315,571.181 2834.36,571.181"/>
<polyline class="StaffLines" fill="none" stroke="#000000" stroke-width="1.81" stroke-linejoin="bevel" points="140.315,593.858 2834.36,593.858"/>
<polyline class="StaffLines" fill="none" stroke="#000000" stroke-width="1.81" stroke-linejoin="bevel" points="140.315,820.63 1502.29,820.63"/>
<polyline class="StaffLines" fill="none" stroke="#000000" stroke-width="1.81" stroke-linejoin="bevel" points="140.315,843.307 1502.29,843.307"/>
<polyline class="StaffLines" fill="none" stroke="#000000" stroke-width="1.81" stroke-linejoin="bevel" points="140.315,865.984 1502.29,865.984"/>
<polyline class="StaffLines" fill="none" stroke="#000000" stroke-width="1.81" stroke-linejoin="bevel" points="140.315,888.661 1502.29,888.661"/>
<polyline class="StaffLines" fill="none" stroke="#000000" stroke-width="1.81" stroke-linejoin="bevel" points="140.315,911.339 1502.29,911.339"/>
<path class="MeasureNumber" d="M127.909,753.932 C127.471,753.932 126.607,754.198 125.315,754.729 L125.315,754.213 L131.784,750.948 L132.081,751.01 L132.081,772.619 C132.081,773.474 132.297,774.033 132.729,774.299 C133.161,774.565 134.086,774.708 135.502,774.729 L135.502,775.276 L125.565,775.276 L125.565,774.729 C126.909,774.687 127.815,774.492 128.284,774.143 C128.752,773.794 128.987,773.057 128.987,771.932 L128.987,755.619 C128.987,754.494 128.627,753.932 127.909,753.932 M142.237,772.463 C142.789,772.463 143.609,772.789 144.698,773.44 C145.786,774.091 146.742,774.416 147.565,774.416 C148.877,774.416 149.989,773.903 150.901,772.877 C151.812,771.851 152.268,770.588 152.268,769.088 C152.268,768.151 152.107,767.325 151.784,766.612 C151.461,765.898 151.047,765.346 150.542,764.955 C150.036,764.565 149.437,764.244 148.745,763.994 C148.052,763.744 147.398,763.583 146.784,763.51 C146.169,763.437 145.513,763.401 144.815,763.401 L144.815,762.932 C145.638,762.64 146.344,762.356 146.932,762.08 C147.521,761.804 148.138,761.432 148.784,760.963 C149.43,760.494 149.927,759.924 150.276,759.252 C150.625,758.58 150.799,757.812 150.799,756.948 C150.799,755.823 150.432,754.901 149.698,754.182 C148.963,753.463 148.008,753.104 146.831,753.104 C145.706,753.104 144.719,753.408 143.87,754.018 C143.021,754.627 142.221,755.593 141.471,756.916 L140.94,756.776 C141.565,755.067 142.411,753.669 143.479,752.58 C144.547,751.492 146.06,750.948 148.018,750.948 C149.674,750.948 151.026,751.403 152.073,752.315 C153.12,753.226 153.643,754.411 153.643,755.869 C153.643,756.859 153.391,757.726 152.885,758.471 C152.38,759.216 151.502,760.005 150.252,760.838 C151.7,761.463 152.831,762.26 153.643,763.229 C154.456,764.198 154.862,765.578 154.862,767.369 C154.862,769.921 153.922,771.961 152.042,773.487 C150.161,775.013 147.789,775.776 144.924,775.776 C143.685,775.776 142.698,775.591 141.963,775.221 C141.229,774.851 140.862,774.354 140.862,773.729 C140.862,773.343 140.987,773.036 141.237,772.807 C141.487,772.578 141.82,772.463 142.237,772.463"/>
<path class="MeasureNumber" d="M133.44,458.592 L133.331,457.873 C136.07,457.384 138.393,456.212 140.299,454.358 C142.206,452.504 143.529,450.108 144.268,447.17 C142.497,448.566 140.7,449.264 138.877,449.264 C136.93,449.264 135.362,448.59 134.174,447.241 C132.987,445.892 132.393,444.123 132.393,441.936 C132.393,439.498 133.107,437.465 134.534,435.834 C135.961,434.204 137.742,433.389 139.877,433.389 C142.211,433.389 144.12,434.342 145.604,436.248 C147.088,438.155 147.831,440.603 147.831,443.592 C147.831,444.551 147.747,445.535 147.581,446.545 C147.414,447.556 147.026,448.751 146.417,450.131 C145.807,451.511 145.01,452.748 144.026,453.842 C143.042,454.936 141.638,455.928 139.815,456.819 C137.992,457.709 135.867,458.301 133.44,458.592 M140.174,447.686 C140.622,447.686 141.135,447.618 141.713,447.483 C142.292,447.347 142.875,447.058 143.463,446.616 C144.052,446.173 144.346,445.629 144.346,444.983 L144.346,443.592 C144.346,437.509 142.763,434.467 139.596,434.467 C138.846,434.467 138.208,434.665 137.682,435.061 C137.156,435.457 136.755,435.978 136.479,436.623 C136.203,437.269 136.005,437.928 135.885,438.6 C135.766,439.272 135.706,439.978 135.706,440.717 C135.706,442.842 136.107,444.535 136.909,445.795 C137.711,447.056 138.799,447.686 140.174,447.686"/>
<path class="SlurSegment" stroke="#000000" stroke-width="1.59" stroke-linecap="round" stroke-linejoin="round" fill-rule="evenodd" d="M2233.38,494.079 C2305.58,445.654 2511.67,459.261 2576.87,516.756 C2511.43,462.881 2305.34,449.275 2233.38,494.079"/>
<path class="SlurSegment" stroke="#000000" stroke-width="1.59" stroke-linecap="round" stroke-linejoin="round" fill-rule="evenodd" d="M1876.86,494.079 C1920.24,458.628 2001.66,464.297 2039.7,505.417 C2001.41,467.917 1919.99,462.247 1876.86,494.079"/>
<path class="SlurSegment" stroke="#000000" stroke-width="1.59" stroke-linecap="round" stroke-linejoin="round" fill-rule="evenodd" d="M1551.19,494.079 C1589.23,452.958 1670.65,447.289 1714.02,482.74 C1670.9,450.909 1589.48,456.578 1551.19,494.079"/>
<polyline class="BarLine" stroke="#000000" stroke-width="3.63" stroke-linejoin="bevel" points="1481.88,819.723 1481.88,912.246"/>
<polyline class="BarLine" stroke="#000000" stroke-width="11.34" stroke-linejoin="bevel" points="1496.62,819.723 1496.62,912.246"/>
<polyline class="BarLine" stroke="#000000" stroke-width="3.63" stroke-linejoin="bevel" points="1211.42,819.723 1211.42,912.246"/>
<polyline class="BarLine" stroke="#000000" stroke-width="3.63" stroke-linejoin="bevel" points="875.019,819.723 875.019,912.246"/>
<polyline class="BarLine" stroke="#000000" stroke-width="3.63" stroke-linejoin="bevel" points="577.067,819.723 577.067,912.246"/>
<polyline class="BarLine" stroke="#000000" stroke-width="3.63" stroke-linejoin="bevel" points="2832.55,502.243 2832.55,594.765"/>
<polyline class="BarLine" stroke="#000000" stroke-width="3.63" stroke-linejoin="bevel" points="2189.43,502.243 2189.43,594.765"/>
<polyline class="BarLine" stroke="#000000" stroke-width="3.63" stroke-linejoin="bevel" points="1507.23,502.243 1507.23,594.765"/>
<polyline class="BarLine" stroke="#000000" stroke-width="3.63" stroke-linejoin="bevel" points="883.156,502.243 883.156,594.765"/>
<path class="Accidental" transform="matrix(0.907087,0,0,0.907087,1026.86,888.661)" d="M21.5781,31.1563 C21.5781,32.3958 20.9609,33.0156 19.7266,33.0156 C18.4922,33.0156 17.875,32.3958 17.875,31.1563 L17.875,16.7031 L9.57813,19.8281 L9.57813,35.6406 C9.57813,36.8802 8.95833,37.5 7.71875,37.5 C6.47917,37.5 5.85938,36.8802 5.85938,35.6406 L5.85938,21.0938 L2.73438,22.2656 C2.67188,22.3281 2.41146,22.3594 1.95313,22.3594 C1.43229,22.3594 0.976563,22.1641 0.585938,21.7734 C0.195313,21.3828 0,20.9271 0,20.4063 L0,14.3594 C0,13.3802 0.421875,12.7604 1.26563,12.5 L5.85938,10.9375 L5.85938,-5.07813 L2.73438,-4 C2.67188,-3.9375 2.41146,-3.90625 1.95313,-3.90625 C1.43229,-3.90625 0.976563,-4.10156 0.585938,-4.49219 C0.195313,-4.88281 0,-5.33854 0,-5.85938 L0,-11.9219 C0,-12.8281 0.421875,-13.4115 1.26563,-13.6719 L5.85938,-15.4375 L5.85938,-31.1563 C5.85938,-32.3958 6.47917,-33.0156 7.71875,-33.0156 C8.95833,-33.0156 9.57813,-32.3958 9.57813,-31.1563 L9.57813,-16.7031 L17.875,-19.8281 L17.875,-35.6406 C17.875,-36.8802 18.4922,-37.5 19.7266,-37.5 C20.9609,-37.5 21.5781,-36.8802 21.5781,-35.6406 L21.5781,-21.0938 L24.8125,-22.2656 C24.875,-22.3281 25.099,-22.3594 25.4844,-22.3594 C25.9427,-22.3594 26.4323,-22.1667 26.9531,-21.7813 C27.349,-21.3854 27.5469,-20.9271 27.5469,-20.4063 L27.5469,-14.3594 C27.5469,-13.4427 27.0885,-12.8229 26.1719,-12.5 L21.5781,-10.9375 L21.5781,5.07813 L24.8125,4 C24.875,3.9375 25.099,3.90625 25.4844,3.90625 C25.9427,3.90625 26.4323,4.10417 26.9531,4.5 C27.349,4.88542 27.5469,5.33854 27.5469,5.85938 L27.5469,11.9219 C27.5469,12.7656 27.0885,13.349 26.1719,13.6719 L21.5781,15.4375 L21.5781,31.1563 M17.875,-9.46875 L9.57813,-6.54688 L9.57813,9.46875 L17.875,6.54688 L17.875,-9.46875 "/>
<polyline class="Stem" stroke="#000000" stroke-width="2.95" stroke-linecap="round" stroke-linejoin="bevel" points="1270.47,873.84 1270.47,803.622"/>
<polyline class="Stem" stroke="#000000" stroke-width="2.95" stroke-linecap="round" stroke-linejoin="bevel" points="1085.21,884.402 1085.21,812.126"/>
<polyline class="Stem" stroke="#000000" stroke-width="2.95" stroke-linecap="round" stroke-linejoin="bevel" points="932.428,873.064 932.428,803.622"/>
<polyline class="Stem" stroke="#000000" stroke-width="2.95" stroke-linecap="round" stroke-linejoin="bevel" points="741.123,847.566 741.123,919.843"/>
<polyline class="Stem" stroke="#000000" stroke-width="2.95" stroke-linecap="round" stroke-linejoin="bevel" points="607.568,836.228 607.568,911.339"/>
<polyline class="Stem" stroke="#000000" stroke-width="2.95" stroke-linecap="round" stroke-linejoin="bevel" points="491.675,824.889 491.675,900"/>
<polyline class="Stem" stroke="#000000" stroke-width="2.95" stroke-linecap="round" stroke-linejoin="bevel" points="355.591,813.55 355.591,888.661"/>
<polyline class="Stem" stroke="#000000" stroke-width="2.95" stroke-linecap="round" stroke-linejoin="bevel" points="2560.08,541.424 2560.08,610.866"/>
<polyline class="Stem" stroke="#000000" stroke-width="2.95" stroke-linecap="round" stroke-linejoin="bevel" points="2390.01,530.086 2390.01,593.858"/>
<polyline class="Stem" stroke="#000000" stroke-width="2.95" stroke-linecap="round" stroke-linejoin="bevel" points="2219.93,518.747 2219.93,588.189"/>
<polyline class="Stem" stroke="#000000" stroke-width="2.95" stroke-linecap="round" stroke-linejoin="bevel" points="2026.25,530.086 2026.25,593.858"/>
<polyline class="Stem" stroke="#000000" stroke-width="2.95" stroke-linecap="round" stroke-linejoin="bevel" points="1863.41,518.747 1863.41,588.189"/>
<polyline class="Stem" stroke="#000000" stroke-width="2.95" stroke-linecap="round" stroke-linejoin="bevel" points="1700.57,507.409 1700.57,571.181"/>
<polyline class="Stem" stroke="#000000" stroke-width="2.95" stroke-linecap="round" stroke-linejoin="bevel" points="1537.73,518.747 1537.73,576.85"/>
<polyline class="Stem" stroke="#000000" stroke-width="2.95" stroke-linecap="round" stroke-linejoin="bevel" points="1305.86,507.409 1305.86,582.52"/>
<polyline class="Stem" stroke="#000000" stroke-width="2.95" stroke-linecap="round" stroke-linejoin="bevel" points="913.657,496.07 913.657,571.181"/>
<polyline class="Stem" stroke="#000000" stroke-width="2.95" stroke-linecap="round" stroke-linejoin="bevel" points="712.739,507.409 712.739,582.52"/>
<polyline class="Stem" stroke="#000000" stroke-width="2.95" stroke-linecap="round" stroke-linejoin="bevel" points="440.616,507.409 440.616,582.52"/>
<path class="Note" transform="matrix(0.907087,0,0,0.907087,1240.45,877.323)" d="M31.5469,-6.54688 C31.5469,-7.65104 31.125,-8.59375 30.2813,-9.375 C29.4271,-10.2188 28.4479,-10.6406 27.3438,-10.6406 C25.3958,-10.6406 21.4583,-8.6875 15.5313,-4.78125 C9.40625,-0.8125 5.66146,2.02083 4.29688,3.71875 C3.57813,4.625 3.21875,5.56771 3.21875,6.54688 C3.21875,7.65104 3.64583,8.59375 4.5,9.375 C5.28125,10.2188 6.25521,10.6406 7.42188,10.6406 C9.30729,10.6406 13.2813,8.6875 19.3438,4.78125 C25.3333,0.875 29.0417,-1.95833 30.4688,-3.71875 C31.1875,-4.5625 31.5469,-5.50521 31.5469,-6.54688 M26.375,-13.7656 C31.9688,-13.7656 34.7656,-11.3594 34.7656,-6.54688 C34.7656,-4.20313 34.0833,-1.46875 32.7188,1.65625 C31.3542,4.71875 29.5313,7.0625 27.25,8.6875 C22.2396,12.0729 15.9583,13.7656 8.40625,13.7656 C2.80208,13.7656 0,11.3594 0,6.54688 C0,4.40104 0.682292,1.69792 2.04688,-1.5625 C3.34896,-4.6875 5.17188,-7.0625 7.51563,-8.6875 C12.5365,-12.0729 18.8229,-13.7656 26.375,-13.7656"/>
<path class="Note" transform="matrix(0.907087,0,0,0.907087,1056.83,888.661)" d="M21.9688,-13.7656 C25.0938,-13.7656 27.7344,-12.9531 29.8906,-11.3281 C31.901,-9.56771 32.9063,-7.35417 32.9063,-4.6875 C32.9063,-0.197917 30.599,4 25.9844,7.90625 C21.2969,11.8125 16.2813,13.7656 10.9375,13.7656 C7.8125,13.7656 5.17708,12.9531 3.03125,11.3281 C1.01042,9.56771 0,7.35417 0,4.6875 C0,0.197917 2.34375,-4 7.03125,-7.90625 C11.5938,-11.8125 16.5729,-13.7656 21.9688,-13.7656"/>
<path class="Note" transform="matrix(0.907087,0,0,0.907087,904.046,877.323)" d="M21.9688,-13.7656 C25.0938,-13.7656 27.7344,-12.9531 29.8906,-11.3281 C31.901,-9.56771 32.9063,-7.35417 32.9063,-4.6875 C32.9063,-0.197917 30.599,4 25.9844,7.90625 C21.2969,11.8125 16.2813,13.7656 10.9375,13.7656 C7.8125,13.7656 5.17708,12.9531 3.03125,11.3281 C1.01042,9.56771 0,7.35417 0,4.6875 C0,0.197917 2.34375,-4 7.03125,-7.90625 C11.5938,-11.8125 16.5729,-13.7656 21.9688,-13.7656"/>
<path class="Note" transform="matrix(0.907087,0,0,0.907087,739.649,843.307)" d="M21.9688,-13.7656 C25.0938,-13.7656 27.7344,-12.9531 29.8906,-11.3281 C31.901,-9.56771 32.9063,-7.35417 32.9063,-4.6875 C32.9063,-0.197917 30.599,4 25.9844,7.90625 C21.2969,11.8125 16.2813,13.7656 10.9375,13.7656 C7.8125,13.7656 5.17708,12.9531 3.03125,11.3281 C1.01042,9.56771 0,7.35417 0,4.6875 C0,0.197917 2.34375,-4 7.03125,-7.90625 C11.5938,-11.8125 16.5729,-13.7656 21.9688,-13.7656"/>
<path class="Note" transform="matrix(0.907087,0,0,0.907087,606.094,831.969)" d="M21.9688,-13.7656 C25.0938,-13.7656 27.7344,-12.9531 29.8906,-11.3281 C31.901,-9.56771 32.9063,-7.35417 32.9063,-4.6875 C32.9063,-0.197917 30.599,4 25.9844,7.90625 C21.2969,11.8125 16.2813,13.7656 10.9375,13.7656 C7.8125,13.7656 5.17708,12.9531 3.03125,11.3281 C1.01042,9.56771 0,7.35417 0,4.6875 C0,0.197917 2.34375,-4 7.03125,-7.90625 C11.5938,-11.8125 16.5729,-13.7656 21.9688,-13.7656"/>
<path class="Note" transform="matrix(0.907087,0,0,0.907087,490.201,820.63)" d="M21.9688,-13.7656 C25.0938,-13.7656 27.7344,-12.9531 29.8906,-11.3281 C31.901,-9.56771 32.9063,-7.35417 32.9063,-4.6875 C32.9063,-0.197917 30.599,4 25.9844,7.90625 C21.2969,11.8125 16.2813,13.7656 10.9375,13.7656 C7.8125,13.7656 5.17708,12.9531 3.03125,11.3281 C1.01042,9.56771 0,7.35417 0,4.6875 C0,0.197917 2.34375,-4 7.03125,-7.90625 C11.5938,-11.8125 16.5729,-13.7656 21.9688,-13.7656"/>
<path class="Note" transform="matrix(0.907087,0,0,0.907087,354.117,809.291)" d="M21.9688,-13.7656 C25.0938,-13.7656 27.7344,-12.9531 29.8906,-11.3281 C31.901,-9.56771 32.9063,-7.35417 32.9063,-4.6875 C32.9063,-0.197917 30.599,4 25.9844,7.90625 C21.2969,11.8125 16.2813,13.7656 10.9375,13.7656 C7.8125,13.7656 5.17708,12.9531 3.03125,11.3281 C1.01042,9.56771 0,7.35417 0,4.6875 C0,0.197917 2.34375,-4 7.03125,-7.90625 C11.5938,-11.8125 16.5729,-13.7656 21.9688,-13.7656"/>
<path class="Note" transform="matrix(0.907087,0,0,0.907087,2558.61,537.165)" d="M21.9688,-13.7656 C25.0938,-13.7656 27.7344,-12.9531 29.8906,-11.3281 C31.901,-9.56771 32.9063,-7.35417 32.9063,-4.6875 C32.9063,-0.197917 30.599,4 25.9844,7.90625 C21.2969,11.8125 16.2813,13.7656 10.9375,13.7656 C7.8125,13.7656 5.17708,12.9531 3.03125,11.3281 C1.01042,9.56771 0,7.35417 0,4.6875 C0,0.197917 2.34375,-4 7.03125,-7.90625 C11.5938,-11.8125 16.5729,-13.7656 21.9688,-13.7656"/>
<path class="Note" transform="matrix(0.907087,0,0,0.907087,2388.53,525.827)" d="M21.9688,-13.7656 C25.0938,-13.7656 27.7344,-12.9531 29.8906,-11.3281 C31.901,-9.56771 32.9063,-7.35417 32.9063,-4.6875 C32.9063,-0.197917 30.599,4 25.9844,7.90625 C21.2969,11.8125 16.2813,13.7656 10.9375,13.7656 C7.8125,13.7656 5.17708,12.9531 3.03125,11.3281 C1.01042,9.56771 0,7.35417 0,4.6875 C0,0.197917 2.34375,-4 7.03125,-7.90625 C11.5938,-11.8125 16.5729,-13.7656 21.9688,-13.7656"/>
<path class="Note" transform="matrix(0.907087,0,0,0.907087,2218.45,514.488)" d="M21.9688,-13.7656 C25.0938,-13.7656 27.7344,-12.9531 29.8906,-11.3281 C31.901,-9.56771 32.9063,-7.35417 32.9063,-4.6875 C32.9063,-0.197917 30.599,4 25.9844,7.90625 C21.2969,11.8125 16.2813,13.7656 10.9375,13.7656 C7.8125,13.7656 5.17708,12.9531 3.03125,11.3281 C1.01042,9.56771 0,7.35417 0,4.6875 C0,0.197917 2.34375,-4 7.03125,-7.90625 C11.5938,-11.8125 16.5729,-13.7656 21.9688,-13.7656"/>
<path class="Note" transform="matrix(0.907087,0,0,0.907087,2024.77,525.827)" d="M21.9688,-13.7656 C25.0938,-13.7656 27.7344,-12.9531 29.8906,-11.3281 C31.901,-9.56771 32.9063,-7.35417 32.9063,-4.6875 C32.9063,-0.197917 30.599,4 25.9844,7.90625 C21.2969,11.8125 16.2813,13.7656 10.9375,13.7656 C7.8125,13.7656 5.17708,12.9531 3.03125,11.3281 C1.01042,9.56771 0,7.35417 0,4.6875 C0,0.197917 2.34375,-4 7.03125,-7.90625 C11.5938,-11.8125 16.5729,-13.7656 21.9688,-13.7656"/>
<path class="Note" transform="matrix(0.907087,0,0,0.907087,1861.94,514.488)" d="M21.9688,-13.7656 C25.0938,-13.7656 27.7344,-12.9531 29.8906,-11.3281 C31.901,-9.56771 32.9063,-7.35417 32.9063,-4.6875 C32.9063,-0.197917 30.599,4 25.9844,7.90625 C21.2969,11.8125 16.2813,13.7656 10.9375,13.7656 C7.8125,13.7656 5.17708,12.9531 3.03125,11.3281 C1.01042,9.56771 0,7.35417 0,4.6875 C0,0.197917 2.34375,-4 7.03125,-7.90625 C11.5938,-11.8125 16.5729,-13.7656 21.9688,-13.7656"/>
<path class="Note" transform="matrix(0.907087,0,0,0.907087,1699.1,503.15)" d="M21.9688,-13.7656 C25.0938,-13.7656 27.7344,-12.9531 29.8906,-11.3281 C31.901,-9.56771 32.9063,-7.35417 32.9063,-4.6875 C32.9063,-0.197917 30.599,4 25.9844,7.90625 C21.2969,11.8125 16.2813,13.7656 10.9375,13.7656 C7.8125,13.7656 5.17708,12.9531 3.03125,11.3281 C1.01042,9.56771 0,7.35417 0,4.6875 C0,0.197917 2.34375,-4 7.03125,-7.90625 C11.5938,-11.8125 16.5729,-13.7656 21.9688,-13.7656"/>
<path class="Note" transform="matrix(0.907087,0,0,0.907087,1536.26,514.488)" d="M21.9688,-13.7656 C25.0938,-13.7656 27.7344,-12.9531 29.8906,-11.3281 C31.901,-9.56771 32.9063,-7.35417 32.9063,-4.6875 C32.9063,-0.197917 30.599,4 25.9844,7.90625 C21.2969,11.8125 16.2813,13.7656 10.9375,13.7656 C7.8125,13.7656 5.17708,12.9531 3.03125,11.3281 C1.01042,9.56771 0,7.35417 0,4.6875 C0,0.197917 2.34375,-4 7.03125,-7.90625 C11.5938,-11.8125 16.5729,-13.7656 21.9688,-13.7656"/>
<path class="Note" transform="matrix(0.907087,0,0,0.907087,1304.39,503.15)" d="M21.9688,-13.7656 C25.0938,-13.7656 27.7344,-12.9531 29.8906,-11.3281 C31.901,-9.56771 32.9063,-7.35417 32.9063,-4.6875 C32.9063,-0.197917 30.599,4 25.9844,7.90625 C21.2969,11.8125 16.2813,13.7656 10.9375,13.7656 C7.8125,13.7656 5.17708,12.9531 3.03125,11.3281 C1.01042,9.56771 0,7.35417 0,4.6875 C0,0.197917 2.34375,-4 7.03125,-7.90625 C11.5938,-11.8125 16.5729,-13.7656 21.9688,-13.7656"/>
<path class="Note" transform="matrix(0.907087,0,0,0.907087,912.183,491.811)" d="M21.9688,-13.7656 C25.0938,-13.7656 27.7344,-12.9531 29.8906,-11.3281 C31.901,-9.56771 32.9063,-7.35417 32.9063,-4.6875 C32.9063,-0.197917 30.599,4 25.9844,7.90625 C21.2969,11.8125 16.2813,13.7656 10.9375,13.7656 C7.8125,13.7656 5.17708,12.9531 3.03125,11.3281 C1.01042,9.56771 0,7.35417 0,4.6875 C0,0.197917 2.34375,-4 7.03125,-7.90625 C11.5938,-11.8125 16.5729,-13.7656 21.9688,-13.7656"/>
<path class="Note" transform="matrix(0.907087,0,0,0.907087,711.265,503.15)" d="M21.9688,-13.7656 C25.0938,-13.7656 27.7344,-12.9531 29.8906,-11.3281 C31.901,-9.56771 32.9063,-7.35417 32.9063,-4.6875 C32.9063,-0.197917 30.599,4 25.9844,7.90625 C21.2969,11.8125 16.2813,13.7656 10.9375,13.7656 C7.8125,13.7656 5.17708,12.9531 3.03125,11.3281 C1.01042,9.56771 0,7.35417 0,4.6875 C0,0.197917 2.34375,-4 7.03125,-7.90625 C11.5938,-11.8125 16.5729,-13.7656 21.9688,-13.7656"/>
<path class="Note" transform="matrix(0.907087,0,0,0.907087,439.142,503.15)" d="M21.9688,-13.7656 C25.0938,-13.7656 27.7344,-12.9531 29.8906,-11.3281 C31.901,-9.56771 32.9063,-7.35417 32.9063,-4.6875 C32.9063,-0.197917 30.599,4 25.9844,7.90625 C21.2969,11.8125 16.2813,13.7656 10.9375,13.7656 C7.8125,13.7656 5.17708,12.9531 3.03125,11.3281 C1.01042,9.56771 0,7.35417 0,4.6875 C0,0.197917 2.34375,-4 7.03125,-7.90625 C11.5938,-11.8125 16.5729,-13.7656 21.9688,-13.7656"/>
<path class="Clef" transform="matrix(0.907087,0,0,0.907087,154.828,888.661)" d="M36.7188,-25.5938 C36.7188,-25.5938 36.9167,-25.5938 37.3125,-25.5938 C37.5729,-25.6563 37.7969,-25.6875 37.9844,-25.6875 C45.276,-25.6875 51.2656,-23.1146 55.9531,-17.9688 C60.6406,-12.8958 62.9844,-6.97396 62.9844,-0.203125 C62.9844,8.20313 59.5052,15.0417 52.5469,20.3125 C50.724,21.75 48.3438,22.9219 45.4063,23.8281 C45.7396,28.0573 45.9063,31.474 45.9063,34.0781 C45.9063,34.599 45.8385,36.4896 45.7031,39.75 C45.4427,45.8021 43.3594,51.0417 39.4531,55.4688 C35.6823,59.8333 30.9948,62.0156 25.3906,62.0156 C20.1198,62.0156 15.6302,60.1615 11.9219,56.4531 C8.20313,52.6719 6.34375,48.1146 6.34375,42.7813 C6.34375,39.9792 7.42188,37.599 9.57813,35.6406 C11.7865,33.6927 14.3542,32.7188 17.2813,32.7188 C19.8854,32.7188 22.0677,33.7292 23.8281,35.75 C25.651,37.6354 26.5625,39.9792 26.5625,42.7813 C26.5625,45.3125 25.651,47.4896 23.8281,49.3125 C22.0052,51.1354 19.8229,52.0469 17.2813,52.0469 C16.2396,52.0469 15.2344,51.8542 14.2656,51.4688 C17.1302,55.6979 20.9375,57.8125 25.6875,57.8125 C30.1771,57.8125 33.8542,55.9896 36.7188,52.3438 C39.7188,48.5729 41.349,44.1771 41.6094,39.1563 C41.7344,36.0313 41.7969,34.2448 41.7969,33.7969 C41.7969,30.151 41.6667,27.1563 41.4063,24.8125 C38.1563,25.3333 35.2604,25.5938 32.7188,25.5938 C23.6667,25.5938 15.9531,22.0104 9.57813,14.8438 C3.32813,7.61458 0.203125,-0.979167 0.203125,-10.9375 C0.203125,-13.0208 0.395833,-15.1354 0.78125,-17.2813 C1.17708,-19.0417 1.66667,-20.9635 2.25,-23.0469 C2.57292,-24.224 3.45313,-26.1146 4.89063,-28.7188 C5.41146,-29.5 5.9974,-30.4766 6.64844,-31.6484 C7.29948,-32.8203 7.75521,-33.599 8.01563,-33.9844 C8.66146,-35.2865 9.92708,-37.0469 11.8125,-39.2656 C12.3333,-39.849 12.8724,-40.4974 13.4297,-41.2109 C13.987,-41.9245 14.4609,-42.5104 14.8516,-42.9688 C15.2422,-43.4271 15.5339,-43.7865 15.7266,-44.0469 C15.9193,-44.3073 17.3854,-46.0313 20.125,-49.2188 C20.7708,-49.875 21.4036,-50.5755 22.0234,-51.3203 C22.6432,-52.0651 23.1484,-52.651 23.5391,-53.0781 C23.9297,-53.5052 24.224,-53.8125 24.4219,-54 C22.0781,-61.75 20.6094,-67.9375 20.0156,-72.5625 C19.5677,-76.2708 19.3438,-81.349 19.3438,-87.7969 C19.3438,-93.4635 20.6458,-98.7708 23.25,-103.719 C25.7813,-108.854 29.3281,-113.052 33.8906,-116.313 C34.151,-116.51 34.474,-116.609 34.8594,-116.609 C35.3177,-116.609 35.6458,-116.51 35.8438,-116.313 C39.3542,-112.083 42.3802,-106.583 44.9219,-99.8125 C47.526,-93.0417 48.8281,-86.8854 48.8281,-81.3438 C48.8281,-75.0938 47.3333,-69.2344 44.3438,-63.7656 C40.9583,-57.974 36.5938,-51.9844 31.25,-45.7969 C32.6146,-41.5052 34.4375,-34.7708 36.7188,-25.5938 M45.0156,19.8281 C48.401,18.5885 51.0417,16.474 52.9375,13.4844 C55.0208,10.6198 56.0625,7.39583 56.0625,3.8125 C56.0625,-0.8125 54.5,-4.91667 51.375,-8.5 C48.1771,-12.2083 44.1042,-14.2917 39.1563,-14.75 C41.9583,-1.01042 43.9115,10.5156 45.0156,19.8281 M7.23438,-2.73438 C7.23438,3.71354 9.83854,9.38021 15.0469,14.2656 C20.3802,19.0156 26.3698,21.3906 33.0156,21.3906 C35.7448,21.3906 38.4115,21.1927 41.0156,20.7969 C39.974,10.901 37.9219,-0.947917 34.8594,-14.75 C31.151,-14.3542 28.1927,-13.0521 25.9844,-10.8438 C23.8281,-8.5625 22.75,-5.98958 22.75,-3.125 C22.75,1.82292 25.3906,5.82813 30.6719,8.89063 C31.1198,9.34896 31.3438,9.83854 31.3438,10.3594 C31.3438,10.8802 31.1198,11.3646 30.6719,11.8125 C30.276,12.2708 29.7865,12.5 29.2031,12.5 C29.1406,12.5 28.849,12.4375 28.3281,12.3125 C24.6094,10.2917 21.7448,7.6875 19.7344,4.5 C17.8385,1.10417 16.8906,-2.31771 16.8906,-5.76563 C16.8906,-10.2552 18.2917,-14.3229 21.0938,-17.9688 C24.0208,-21.6146 27.8281,-23.9583 32.5156,-25 C30.6927,-32.2917 29.1979,-37.9896 28.0313,-42.0938 C26.9896,-40.9167 25.737,-39.5 24.2734,-37.8438 C22.8099,-36.1875 21.9479,-35.1927 21.6875,-34.8594 C19.3438,-31.8073 17.5521,-29.4323 16.3125,-27.7344 C14.0938,-24.6719 12.4635,-22.0365 11.4219,-19.8281 C10.3177,-17.349 9.34375,-14.6458 8.5,-11.7188 C7.65625,-8.91667 7.23438,-5.92188 7.23438,-2.73438 M39.8438,-102.047 C34.9583,-99.6406 31.1198,-96.1927 28.3281,-91.7031 C25.4635,-87.0781 24.0313,-82.099 24.0313,-76.7656 C24.0313,-72.0781 25.2031,-65.7604 27.5469,-57.8125 C32.2344,-63.4792 35.75,-68.7188 38.0938,-73.5313 C40.5625,-78.6146 41.7969,-83.9219 41.7969,-89.4531 C41.7969,-93.6198 41.1458,-97.8177 39.8438,-102.047"/>
<path class="Clef" transform="matrix(0.907087,0,0,0.907087,154.828,571.181)" d="M36.7188,-25.5938 C36.7188,-25.5938 36.9167,-25.5938 37.3125,-25.5938 C37.5729,-25.6563 37.7969,-25.6875 37.9844,-25.6875 C45.276,-25.6875 51.2656,-23.1146 55.9531,-17.9688 C60.6406,-12.8958 62.9844,-6.97396 62.9844,-0.203125 C62.9844,8.20313 59.5052,15.0417 52.5469,20.3125 C50.724,21.75 48.3438,22.9219 45.4063,23.8281 C45.7396,28.0573 45.9063,31.474 45.9063,34.0781 C45.9063,34.599 45.8385,36.4896 45.7031,39.75 C45.4427,45.8021 43.3594,51.0417 39.4531,55.4688 C35.6823,59.8333 30.9948,62.0156 25.3906,62.0156 C20.1198,62.0156 15.6302,60.1615 11.9219,56.4531 C8.20313,52.6719 6.34375,48.1146 6.34375,42.7813 C6.34375,39.9792 7.42188,37.599 9.57813,35.6406 C11.7865,33.6927 14.3542,32.7188 17.2813,32.7188 C19.8854,32.7188 22.0677,33.7292 23.8281,35.75 C25.651,37.6354 26.5625,39.9792 26.5625,42.7813 C26.5625,45.3125 25.651,47.4896 23.8281,49.3125 C22.0052,51.1354 19.8229,52.0469 17.2813,52.0469 C16.2396,52.0469 15.2344,51.8542 14.2656,51.4688 C17.1302,55.6979 20.9375,57.8125 25.6875,57.8125 C30.1771,57.8125 33.8542,55.9896 36.7188,52.3438 C39.7188,48.5729 41.349,44.1771 41.6094,39.1563 C41.7344,36.0313 41.7969,34.2448 41.7969,33.7969 C41.7969,30.151 41.6667,27.1563 41.4063,24.8125 C38.1563,25.3333 35.2604,25.5938 32.7188,25.5938 C23.6667,25.5938 15.9531,22.0104 9.57813,14.8438 C3.32813,7.61458 0.203125,-0.979167 0.203125,-10.9375 C0.203125,-13.0208 0.395833,-15.1354 0.78125,-17.2813 C1.17708,-19.0417 1.66667,-20.9635 2.25,-23.0469 C2.57292,-24.224 3.45313,-26.1146 4.89063,-28.7188 C5.41146,-29.5 5.9974,-30.4766 6.64844,-31.6484 C7.29948,-32.8203 7.75521,-33.599 8.01563,-33.9844 C8.66146,-35.2865 9.92708,-37.0469 11.8125,-39.2656 C12.3333,-39.849 12.8724,-40.4974 13.4297,-41.2109 C13.987,-41.9245 14.4609,-42.5104 14.8516,-42.9688 C15.2422,-43.4271 15.5339,-43.7865 15.7266,-44.0469 C15.9193,-44.3073 17.3854,-46.0313 20.125,-49.2188 C20.7708,-49.875 21.4036,-50.5755 22.0234,-51.3203 C22.6432,-52.0651 23.1484,-52.651 23.5391,-53.0781 C23.9297,-53.5052 24.224,-53.8125 24.4219,-54 C22.0781,-61.75 20.6094,-67.9375 20.0156,-72.5625 C19.5677,-76.2708 19.3438,-81.349 19.3438,-87.7969 C19.3438,-93.4635 20.6458,-98.7708 23.25,-103.719 C25.7813,-108.854 29.3281,-113.052 33.8906,-116.313 C34.151,-116.51 34.474,-116.609 34.8594,-116.609 C35.3177,-116.609 35.6458,-116.51 35.8438,-116.313 C39.3542,-112.083 42.3802,-106.583 44.9219,-99.8125 C47.526,-93.0417 48.8281,-86.8854 48.8281,-81.3438 C48.8281,-75.0938 47.3333,-69.2344 44.3438,-63.7656 C40.9583,-57.974 36.5938,-51.9844 31.25,-45.7969 C32.6146,-41.5052 34.4375,-34.7708 36.7188,-25.5938 M45.0156,19.8281 C48.401,18.5885 51.0417,16.474 52.9375,13.4844 C55.0208,10.6198 56.0625,7.39583 56.0625,3.8125 C56.0625,-0.8125 54.5,-4.91667 51.375,-8.5 C48.1771,-12.2083 44.1042,-14.2917 39.1563,-14.75 C41.9583,-1.01042 43.9115,10.5156 45.0156,19.8281 M7.23438,-2.73438 C7.23438,3.71354 9.83854,9.38021 15.0469,14.2656 C20.3802,19.0156 26.3698,21.3906 33.0156,21.3906 C35.7448,21.3906 38.4115,21.1927 41.0156,20.7969 C39.974,10.901 37.9219,-0.947917 34.8594,-14.75 C31.151,-14.3542 28.1927,-13.0521 25.9844,-10.8438 C23.8281,-8.5625 22.75,-5.98958 22.75,-3.125 C22.75,1.82292 25.3906,5.82813 30.6719,8.89063 C31.1198,9.34896 31.3438,9.83854 31.3438,10.3594 C31.3438,10.8802 31.1198,11.3646 30.6719,11.8125 C30.276,12.2708 29.7865,12.5 29.2031,12.5 C29.1406,12.5 28.849,12.4375 28.3281,12.3125 C24.6094,10.2917 21.7448,7.6875 19.7344,4.5 C17.8385,1.10417 16.8906,-2.31771 16.8906,-5.76563 C16.8906,-10.2552 18.2917,-14.3229 21.0938,-17.9688 C24.0208,-21.6146 27.8281,-23.9583 32.5156,-25 C30.6927,-32.2917 29.1979,-37.9896 28.0313,-42.0938 C26.9896,-40.9167 25.737,-39.5 24.2734,-37.8438 C22.8099,-36.1875 21.9479,-35.1927 21.6875,-34.8594 C19.3438,-31.8073 17.5521,-29.4323 16.3125,-27.7344 C14.0938,-24.6719 12.4635,-22.0365 11.4219,-19.8281 C10.3177,-17.349 9.34375,-14.6458 8.5,-11.7188 C7.65625,-8.91667 7.23438,-5.92188 7.23438,-2.73438 M39.8438,-102.047 C34.9583,-99.6406 31.1198,-96.1927 28.3281,-91.7031 C25.4635,-87.0781 24.0313,-82.099 24.0313,-76.7656 C24.0313,-72.0781 25.2031,-65.7604 27.5469,-57.8125 C32.2344,-63.4792 35.75,-68.7188 38.0938,-73.5313 C40.5625,-78.6146 41.7969,-83.9219 41.7969,-89.4531 C41.7969,-93.6198 41.1458,-97.8177 39.8438,-102.047"/>
<path class="Rest" transform="matrix(0.907087,0,0,0.907087,269.065,865.984)" d="M7.03125,-20.5156 C8.91667,-20.5156 10.349,-19.9948 11.3281,-18.9531 C12.3073,-17.776 12.8281,-16.6667 12.8906,-15.625 C13.026,-14.6458 13.3542,-13.5417 13.875,-12.3125 C14.4583,-11.2708 15.2031,-10.75 16.1094,-10.75 C16.8281,-10.75 17.9063,-11.5625 19.3438,-13.1875 C20.6458,-14.6146 21.5885,-15.8854 22.1719,-17 C22.4948,-17.6458 22.9479,-17.9688 23.5313,-17.9688 L23.6406,-17.9688 C24.2865,-17.9063 24.7396,-17.5833 25,-17 L12.7031,25 C12.0469,25.6563 11.1328,25.9844 9.96094,25.9844 C8.78906,25.9844 7.88021,25.6563 7.23438,25 L18.9531,-7.625 C14.7865,-6.125 11.2708,-5.375 8.40625,-5.375 C6.0625,-5.375 4.04167,-6.125 2.34375,-7.625 C0.583333,-9.05208 -0.296875,-10.9375 -0.296875,-13.2813 C-0.296875,-15.3021 0.421875,-16.9948 1.85938,-18.3594 C3.28646,-19.7969 5.01042,-20.5156 7.03125,-20.5156"/>
<path class="Rest" transform="matrix(0.907087,0,0,0.907087,269.065,548.504)" d="M7.03125,-20.5156 C8.91667,-20.5156 10.349,-19.9948 11.3281,-18.9531 C12.3073,-17.776 12.8281,-16.6667 12.8906,-15.625 C13.026,-14.6458 13.3542,-13.5417 13.875,-12.3125 C14.4583,-11.2708 15.2031,-10.75 16.1094,-10.75 C16.8281,-10.75 17.9063,-11.5625 19.3438,-13.1875 C20.6458,-14.6146 21.5885,-15.8854 22.1719,-17 C22.4948,-17.6458 22.9479,-17.9688 23.5313,-17.9688 L23.6406,-17.9688 C24.2865,-17.9063 24.7396,-17.5833 25,-17 L12.7031,25 C12.0469,25.6563 11.1328,25.9844 9.96094,25.9844 C8.78906,25.9844 7.88021,25.6563 7.23438,25 L18.9531,-7.625 C14.7865,-6.125 11.2708,-5.375 8.40625,-5.375 C6.0625,-5.375 4.04167,-6.125 2.34375,-7.625 C0.583333,-9.05208 -0.296875,-10.9375 -0.296875,-13.2813 C-0.296875,-15.3021 0.421875,-16.9948 1.85938,-18.3594 C3.28646,-19.7969 5.01042,-20.5156 7.03125,-20.5156"/>
<path class="Beam" fill-rule="evenodd" d="M2218.45,582.517 L2391.48,588.284 L2391.48,599.629 L2218.45,593.861 L2218.45,582.517 "/>
<path class="Beam" fill-rule="evenodd" d="M1861.94,582.516 L2027.72,588.288 L2027.72,599.634 L1861.94,593.862 L1861.94,582.516 "/>
<path class="Beam" fill-rule="evenodd" d="M1536.26,571.178 L1702.04,565.406 L1702.04,576.751 L1536.26,582.523 L1536.26,571.178 "/>
<path class="Hook" transform="matrix(0.907087,0,0,0.907087,490.201,900)" d="M22.75,-72.3594 C24.25,-72.3594 25.849,-69.9219 27.5469,-65.0469 C29.1719,-60.224 29.9844,-55.6302 29.9844,-51.2656 C29.9844,-47.5573 29.0729,-43.8802 27.25,-40.2344 C25.3646,-36.3281 23.1198,-32.9427 20.5156,-30.0781 L12.5,-21.0938 C10.0313,-18.2292 7.81771,-14.9115 5.85938,-11.1406 C4.03646,-7.49479 3.125,-3.78125 3.125,0 L0,0 L0,-25 L3.125,-25 C4.88542,-26.1042 7.48958,-27.8646 10.9375,-30.2813 C12.5,-31.4479 14.8438,-33.401 17.9688,-36.1406 C20.5104,-38.4844 22.4323,-40.8906 23.7344,-43.3594 C25.099,-45.9635 25.7813,-48.599 25.7813,-51.2656 C25.7813,-57.4531 23.9896,-63.6094 20.4063,-69.7344 C20.4063,-69.7344 20.4063,-69.8646 20.4063,-70.125 C20.4063,-70.7083 20.6042,-71.1927 21,-71.5781 C21.5208,-72.099 22.1042,-72.3594 22.75,-72.3594"/>
<path class="Hook" transform="matrix(0.907087,0,0,0.907087,1304.39,582.52)" d="M22.75,-72.3594 C24.25,-72.3594 25.849,-69.9219 27.5469,-65.0469 C29.1719,-60.224 29.9844,-55.6302 29.9844,-51.2656 C29.9844,-47.5573 29.0729,-43.8802 27.25,-40.2344 C25.3646,-36.3281 23.1198,-32.9427 20.5156,-30.0781 L12.5,-21.0938 C10.0313,-18.2292 7.81771,-14.9115 5.85938,-11.1406 C4.03646,-7.49479 3.125,-3.78125 3.125,0 L0,0 L0,-25 L3.125,-25 C4.88542,-26.1042 7.48958,-27.8646 10.9375,-30.2813 C12.5,-31.4479 14.8438,-33.401 17.9688,-36.1406 C20.5104,-38.4844 22.4323,-40.8906 23.7344,-43.3594 C25.099,-45.9635 25.7813,-48.599 25.7813,-51.2656 C25.7813,-57.4531 23.9896,-63.6094 20.4063,-69.7344 C20.4063,-69.7344 20.4063,-69.8646 20.4063,-70.125 C20.4063,-70.7083 20.6042,-71.1927 21,-71.5781 C21.5208,-72.099 22.1042,-72.3594 22.75,-72.3594"/>
<path class="Hook" transform="matrix(0.907087,0,0,0.907087,711.265,582.52)" d="M22.75,-72.3594 C24.25,-72.3594 25.849,-69.9219 27.5469,-65.0469 C29.1719,-60.224 29.9844,-55.6302 29.9844,-51.2656 C29.9844,-47.5573 29.0729,-43.8802 27.25,-40.2344 C25.3646,-36.3281 23.1198,-32.9427 20.5156,-30.0781 L12.5,-21.0938 C10.0313,-18.2292 7.81771,-14.9115 5.85938,-11.1406 C4.03646,-7.49479 3.125,-3.78125 3.125,0 L0,0 L0,-25 L3.125,-25 C4.88542,-26.1042 7.48958,-27.8646 10.9375,-30.2813 C12.5,-31.4479 14.8438,-33.401 17.9688,-36.1406 C20.5104,-38.4844 22.4323,-40.8906 23.7344,-43.3594 C25.099,-45.9635 25.7813,-48.599 25.7813,-51.2656 C25.7813,-57.4531 23.9896,-63.6094 20.4063,-69.7344 C20.4063,-69.7344 20.4063,-69.8646 20.4063,-70.125 C20.4063,-70.7083 20.6042,-71.1927 21,-71.5781 C21.5208,-72.099 22.1042,-72.3594 22.75,-72.3594"/>
<path class="NoteDot" transform="matrix(0.907087,0,0,0.907087,949.976,491.811)" d="M1.66406,4.00781 C0.554688,2.89844 0,1.5625 0,0 C0,-1.5625 0.554688,-2.89844 1.66406,-4.00781 C2.77344,-5.11719 4.10938,-5.67188 5.67188,-5.67188 C7.23438,-5.67188 8.56771,-5.11719 9.67188,-4.00781 C10.776,-2.89844 11.3281,-1.5625 11.3281,0 C11.3281,1.5625 10.776,2.89844 9.67188,4.00781 C8.56771,5.11719 7.23438,5.67188 5.67188,5.67188 C4.10938,5.67188 2.77344,5.11719 1.66406,4.00781"/>
<path class="Page" d="M140.547,4050.06 C140.682,4049.44 140.818,4048.91 140.953,4048.46 C141.089,4048.02 141.375,4047.36 141.813,4046.49 C142.25,4045.63 142.742,4044.91 143.289,4044.35 C143.836,4043.78 144.596,4043.27 145.57,4042.81 C146.544,4042.36 147.646,4042.13 148.875,4042.13 C150.948,4042.13 152.698,4042.81 154.125,4044.17 C155.552,4045.52 156.266,4047.19 156.266,4049.18 C156.266,4052.19 154.563,4055.48 151.156,4059.06 L144.438,4066.09 L153.984,4066.09 C154.891,4066.09 155.565,4065.94 156.008,4065.63 C156.451,4065.33 157.047,4064.61 157.797,4063.46 L158.313,4063.65 L156.109,4069.13 L140.516,4069.13 L140.516,4068.65 L147.625,4061.1 C151.094,4057.42 152.828,4053.95 152.828,4050.7 C152.828,4049.02 152.307,4047.66 151.266,4046.62 C150.224,4045.58 148.865,4045.06 147.188,4045.06 C145.802,4045.06 144.69,4045.44 143.852,4046.2 C143.013,4046.96 142.193,4048.31 141.391,4050.26 L140.547,4050.06 "/>
</svg>
