<?xml version="1.0" encoding="UTF-8" standalone="no"?>
<svg width="2974.68px" height="4209.45px" viewBox="0 0 2974.68 4209.45"
 xmlns="http://www.w3.org/2000/svg" xmlns:xlink="http://www.w3.org/1999/xlink" version="1.2" baseProfile="tiny">
<title>Nane_cocha_nane_gad (1)</title>
<desc>Generated by MuseScore 3.0.2</desc>
<polyline class="StaffLines" fill="none" stroke="#000000" stroke-width="1.81" stroke-linejoin="bevel" points="140.315,503.15 2834.36,503.15"/>
<polyline class="StaffLines" fill="none" stroke="#000000" stroke-width="1.81" stroke-linejoin="bevel" points="140.315,525.827 2834.36,525.827"/>
<polyline class="StaffLines" fill="none" stroke="#000000" stroke-width="1.81" stroke-linejoin="bevel" points="140.315,548.504 2834.36,548.504"/>
<polyline class="StaffLines" fill="none" stroke="#000000" stroke-width="1.81" stroke-linejoin="bevel" points="140.315,571.181 2834.36,571.181"/>
<polyline class="StaffLines" fill="none" stroke="#000000" stroke-width="1.81" stroke-linejoin="bevel" points="140.315,593.858 2834.36,593.858"/>
<polyline class="StaffLines" fill="none" stroke="#000000" stroke-width="1.81" stroke-linejoin="bevel" points="140.315,820.63 2834.36,820.63"/>
<polyline class="StaffLines" fill="none" stroke="#000000" stroke-width="1.81" stroke-linejoin="bevel" points="140.315,843.307 2834.36,843.307"/>
<polyline class="StaffLines" fill="none" stroke="#000000" stroke-width="1.81" stroke-linejoin="bevel" points="140.315,865.984 2834.36,865.984"/>
<polyline class="StaffLines" fill="none" stroke="#000000" stroke-width="1.81" stroke-linejoin="bevel" points="140.315,888.661 2834.36,888.661"/>
<polyline class="StaffLines" fill="none" stroke="#000000" stroke-width="1.81" stroke-linejoin="bevel" points="140.315,911.339 2834.36,911.339"/>
<path class="Text" d="M1118.71,320.701 L1099.19,320.701 L1041.36,207.841 L1041.36,320.701 L1025.1,320.701 L1025.1,189.826 L1049.8,189.826 L1102.44,293.451 L1102.44,189.826 L1118.71,189.826 L1118.71,320.701 M1198.63,296.529 L1198.63,269.279 C1194.7,269.633 1189.73,270.117 1183.73,270.732 C1177.72,271.347 1172.88,272.211 1169.19,273.326 C1164.79,274.67 1161.16,276.735 1158.29,279.521 C1155.42,282.308 1153.99,286.19 1153.99,291.17 C1153.99,296.795 1155.57,301.042 1158.73,303.912 C1161.89,306.782 1166.52,308.216 1172.61,308.216 C1177.83,308.216 1182.55,307.089 1186.77,304.834 C1190.99,302.578 1194.94,299.81 1198.63,296.529 M1198.63,310.248 C1197.28,311.237 1195.48,312.625 1193.23,314.412 C1190.97,316.198 1188.79,317.623 1186.67,318.685 C1183.75,320.206 1180.92,321.375 1178.2,322.193 C1175.47,323.011 1171.65,323.42 1166.72,323.42 C1162.68,323.42 1158.84,322.659 1155.21,321.138 C1151.58,319.617 1148.39,317.477 1145.63,314.716 C1142.99,312.029 1140.88,308.706 1139.3,304.748 C1137.72,300.789 1136.92,296.612 1136.92,292.216 C1136.92,285.425 1138.36,279.641 1141.24,274.865 C1144.11,270.089 1148.65,266.295 1154.86,263.482 C1160.37,260.961 1166.88,259.219 1174.38,258.256 C1181.88,257.292 1189.96,256.576 1198.63,256.107 L1198.63,252.935 C1198.63,249.071 1198.04,245.951 1196.87,243.576 C1195.7,241.201 1194.06,239.367 1191.96,238.076 C1189.84,236.732 1187.26,235.841 1184.21,235.404 C1181.17,234.966 1178.03,234.748 1174.82,234.748 C1171,234.748 1166.52,235.318 1161.36,236.459 C1156.21,237.599 1151.05,239.253 1145.89,241.42 L1144.92,241.42 L1144.92,224.638 C1147.98,223.753 1152.34,222.784 1158.03,221.732 C1163.71,220.68 1169.33,220.154 1174.89,220.154 C1181.63,220.154 1187.32,220.68 1191.95,221.732 C1196.58,222.784 1200.74,224.69 1204.42,227.451 C1208,230.149 1210.66,233.636 1212.42,237.912 C1214.18,242.188 1215.07,247.399 1215.07,253.545 L1215.07,320.701 L1198.63,320.701 L1198.63,310.248 M1314.96,320.701 L1298.42,320.701 L1298.42,264.795 C1298.42,260.284 1298.21,256.081 1297.77,252.185 C1297.33,248.289 1296.5,245.17 1295.27,242.826 C1293.91,240.367 1292.04,238.537 1289.64,237.334 C1287.23,236.131 1283.96,235.529 1279.8,235.529 C1275.7,235.529 1271.46,236.628 1267.1,238.826 C1262.73,241.024 1258.47,243.883 1254.32,247.404 L1254.32,320.701 L1237.78,320.701 L1237.78,222.529 L1254.32,222.529 L1254.32,233.42 C1259.23,229.024 1264.09,225.654 1268.9,223.31 C1273.71,220.966 1278.77,219.795 1284.1,219.795 C1293.77,219.795 1301.34,222.974 1306.78,229.334 C1312.23,235.693 1314.96,244.909 1314.96,256.982 L1314.96,320.701 M1380.41,322.982 C1364.76,322.982 1352.62,318.573 1343.98,309.756 C1335.34,300.938 1331.02,288.414 1331.02,272.185 C1331.02,256.185 1335.21,243.453 1343.59,233.99 C1351.97,224.526 1362.92,219.795 1376.46,219.795 C1382.55,219.795 1387.94,220.675 1392.63,222.435 C1397.32,224.196 1401.42,226.951 1404.94,230.701 C1408.45,234.451 1411.14,239.037 1413.02,244.459 C1414.89,249.881 1415.83,256.513 1415.83,264.357 L1415.83,273.326 L1347.8,273.326 C1347.8,284.753 1350.67,293.485 1356.42,299.521 C1362.16,305.558 1370.1,308.576 1380.24,308.576 C1383.87,308.576 1387.43,308.164 1390.92,307.341 C1394.4,306.519 1397.55,305.461 1400.36,304.17 C1403.35,302.826 1405.87,301.524 1407.92,300.263 C1409.98,299.003 1411.67,297.815 1413.02,296.701 L1413.99,296.701 L1413.99,314.716 C1412.05,315.487 1409.65,316.443 1406.78,317.584 C1403.91,318.724 1401.33,319.617 1399.05,320.263 C1395.82,321.138 1392.9,321.81 1390.3,322.279 C1387.7,322.748 1384.4,322.982 1380.41,322.982 M1399.75,260.67 C1399.63,256.222 1399.1,252.386 1398.16,249.162 C1397.22,245.938 1395.88,243.211 1394.13,240.982 C1392.19,238.524 1389.71,236.649 1386.7,235.357 C1383.68,234.065 1379.95,233.42 1375.49,233.42 C1371.09,233.42 1367.36,234.078 1364.28,235.396 C1361.21,236.714 1358.41,238.633 1355.89,241.154 C1353.43,243.737 1351.56,246.597 1350.27,249.732 C1348.98,252.867 1348.15,256.513 1347.8,260.67 L1399.75,260.67 M1541.25,323.076 C1532.7,323.076 1524.84,321.641 1517.66,318.771 C1510.48,315.901 1504.28,311.623 1499.07,305.935 C1493.86,300.248 1489.82,293.157 1486.94,284.662 C1484.07,276.167 1482.63,266.414 1482.63,255.404 C1482.63,244.446 1484.02,234.894 1486.81,226.748 C1489.59,218.602 1493.65,211.513 1498.99,205.482 C1504.2,199.617 1510.37,195.146 1517.53,192.068 C1524.68,188.99 1532.67,187.451 1541.52,187.451 C1545.91,187.451 1550.03,187.774 1553.87,188.42 C1557.71,189.065 1561.27,189.888 1564.55,190.888 C1567.36,191.763 1570.25,192.86 1573.21,194.177 C1576.16,195.495 1579.08,196.946 1581.96,198.529 L1581.96,219.545 L1580.55,219.545 C1579.02,218.138 1577.05,216.438 1574.65,214.443 C1572.25,212.448 1569.32,210.482 1565.86,208.545 C1562.53,206.732 1558.9,205.24 1554.97,204.068 C1551.04,202.896 1546.5,202.31 1541.35,202.31 C1535.77,202.31 1530.5,203.453 1525.52,205.74 C1520.54,208.026 1516.17,211.394 1512.42,215.841 C1508.74,220.3 1505.87,225.899 1503.82,232.638 C1501.76,239.378 1500.74,246.966 1500.74,255.404 C1500.74,264.362 1501.82,272.078 1503.99,278.552 C1506.15,285.026 1509.11,290.492 1512.86,294.951 C1516.5,299.284 1520.78,302.55 1525.7,304.748 C1530.62,306.946 1535.84,308.045 1541.35,308.045 C1546.39,308.045 1551.05,307.43 1555.32,306.201 C1559.6,304.972 1563.4,303.42 1566.74,301.545 C1569.97,299.722 1572.75,297.86 1575.1,295.959 C1577.44,294.058 1579.28,292.43 1580.63,291.076 L1581.96,291.076 L1581.96,311.826 C1579.08,313.17 1576.37,314.456 1573.82,315.685 C1571.28,316.914 1568.18,318.117 1564.55,319.295 C1560.74,320.524 1557.21,321.461 1553.96,322.107 C1550.71,322.753 1546.47,323.076 1541.25,323.076 M1677.55,271.654 C1677.55,288.175 1673.57,300.933 1665.6,309.927 C1657.63,318.922 1647.02,323.42 1633.78,323.42 C1620.14,323.42 1609.4,318.776 1601.58,309.49 C1593.76,300.203 1589.85,287.591 1589.85,271.654 C1589.85,255.248 1593.87,242.503 1601.93,233.42 C1609.99,224.336 1620.61,219.795 1633.78,219.795 C1647.02,219.795 1657.63,224.323 1665.6,233.381 C1673.57,242.438 1677.55,255.196 1677.55,271.654 M1660.5,271.654 C1660.5,258.946 1658.19,249.5 1653.56,243.318 C1648.93,237.136 1642.34,234.045 1633.78,234.045 C1625.17,234.045 1618.53,237.136 1613.88,243.318 C1609.22,249.5 1606.89,258.946 1606.89,271.654 C1606.89,283.956 1609.22,293.287 1613.88,299.646 C1618.53,306.006 1625.17,309.185 1633.78,309.185 C1642.28,309.185 1648.86,306.065 1653.52,299.826 C1658.17,293.586 1660.5,284.196 1660.5,271.654 M1733.82,322.904 C1727.08,322.904 1720.89,321.862 1715.27,319.779 C1709.64,317.696 1704.81,314.545 1700.77,310.326 C1696.72,306.107 1693.58,300.789 1691.35,294.373 C1689.13,287.956 1688.02,280.414 1688.02,271.748 C1688.02,263.133 1689.17,255.69 1691.49,249.42 C1693.8,243.149 1696.89,237.878 1700.77,233.607 C1704.63,229.326 1709.45,226.029 1715.22,223.716 C1720.99,221.404 1727.19,220.248 1733.82,220.248 C1739.2,220.248 1744.4,221.008 1749.41,222.529 C1754.42,224.05 1758.89,225.805 1762.82,227.795 L1762.82,246.341 L1761.85,246.341 C1760.67,245.352 1759.16,244.211 1757.32,242.92 C1755.47,241.628 1753.23,240.31 1750.6,238.966 C1748.32,237.789 1745.62,236.761 1742.51,235.881 C1739.4,235 1736.41,234.56 1733.55,234.56 C1724.99,234.56 1718.11,237.8 1712.93,244.279 C1707.75,250.758 1705.16,259.914 1705.16,271.748 C1705.16,283.352 1707.66,292.391 1712.67,298.865 C1717.68,305.339 1724.64,308.576 1733.55,308.576 C1738.93,308.576 1744.06,307.461 1748.92,305.232 C1753.79,303.003 1758.1,300.133 1761.85,296.623 L1762.82,296.623 L1762.82,315.17 C1761.17,315.93 1759.12,316.852 1756.66,317.935 C1754.2,319.019 1751.98,319.821 1749.99,320.341 C1747.17,321.164 1744.65,321.797 1742.42,322.24 C1740.2,322.683 1737.33,322.904 1733.82,322.904 M1854.96,320.701 L1838.42,320.701 L1838.42,264.795 C1838.42,260.284 1838.21,256.081 1837.77,252.185 C1837.33,248.289 1836.5,245.17 1835.27,242.826 C1833.91,240.367 1832.04,238.537 1829.64,237.334 C1827.23,236.131 1823.96,235.529 1819.8,235.529 C1815.7,235.529 1811.46,236.628 1807.1,238.826 C1802.73,241.024 1798.47,243.883 1794.32,247.404 L1794.32,320.701 L1777.78,320.701 L1777.78,183.935 L1794.32,183.935 L1794.32,233.42 C1799.23,229.024 1804.09,225.654 1808.9,223.31 C1813.71,220.966 1818.77,219.795 1824.1,219.795 C1833.77,219.795 1841.34,222.974 1846.78,229.334 C1852.23,235.693 1854.96,244.909 1854.96,256.982 L1854.96,320.701 M1932.63,296.529 L1932.63,269.279 C1928.7,269.633 1923.73,270.117 1917.73,270.732 C1911.72,271.347 1906.88,272.211 1903.19,273.326 C1898.79,274.67 1895.16,276.735 1892.29,279.521 C1889.42,282.308 1887.99,286.19 1887.99,291.17 C1887.99,296.795 1889.57,301.042 1892.73,303.912 C1895.89,306.782 1900.52,308.216 1906.61,308.216 C1911.83,308.216 1916.55,307.089 1920.77,304.834 C1924.99,302.578 1928.94,299.81 1932.63,296.529 M1932.63,310.248 C1931.28,311.237 1929.48,312.625 1927.23,314.412 C1924.97,316.198 1922.79,317.623 1920.67,318.685 C1917.75,320.206 1914.92,321.375 1912.2,322.193 C1909.47,323.011 1905.65,323.42 1900.72,323.42 C1896.68,323.42 1892.84,322.659 1889.21,321.138 C1885.58,319.617 1882.39,317.477 1879.63,314.716 C1876.99,312.029 1874.88,308.706 1873.3,304.748 C1871.72,300.789 1870.92,296.612 1870.92,292.216 C1870.92,285.425 1872.36,279.641 1875.24,274.865 C1878.11,270.089 1882.65,266.295 1888.86,263.482 C1894.37,260.961 1900.88,259.219 1908.38,258.256 C1915.88,257.292 1923.96,256.576 1932.63,256.107 L1932.63,252.935 C1932.63,249.071 1932.04,245.951 1930.87,243.576 C1929.7,241.201 1928.06,239.367 1925.96,238.076 C1923.84,236.732 1921.26,235.841 1918.21,235.404 C1915.17,234.966 1912.03,234.748 1908.82,234.748 C1905,234.748 1900.52,235.318 1895.36,236.459 C1890.21,237.599 1885.05,239.253 1879.89,241.42 L1878.92,241.42 L1878.92,224.638 C1881.98,223.753 1886.34,222.784 1892.03,221.732 C1897.71,220.68 1903.33,220.154 1908.89,220.154 C1915.63,220.154 1921.32,220.68 1925.95,221.732 C1930.58,222.784 1934.74,224.69 1938.42,227.451 C1942,230.149 1944.66,233.636 1946.42,237.912 C1948.18,242.188 1949.07,247.399 1949.07,253.545 L1949.07,320.701 L1932.63,320.701 L1932.63,310.248 "/>
<path class="MeasureNumber" d="M144.659,768.26 C144.659,767 144.377,765.877 143.815,764.893 C143.252,763.908 142.57,763.148 141.768,762.612 C140.966,762.075 140.068,761.632 139.073,761.283 C138.078,760.934 137.213,760.705 136.479,760.596 C135.745,760.487 135.101,760.432 134.549,760.432 C134.258,760.432 134.112,760.338 134.112,760.151 C134.112,760.078 134.127,760.015 134.159,759.963 L138.081,751.448 L145.596,751.448 C145.982,751.448 146.289,751.388 146.518,751.268 C146.747,751.148 146.992,750.895 147.252,750.51 L147.581,750.76 L146.206,753.963 C146.112,754.182 145.836,754.291 145.377,754.291 L138.331,754.291 L136.815,757.338 C140.325,757.963 142.932,758.976 144.635,760.377 C146.338,761.778 147.19,763.833 147.19,766.541 C147.19,767.958 146.966,769.221 146.518,770.33 C146.07,771.44 145.505,772.33 144.823,773.002 C144.141,773.674 143.349,774.226 142.448,774.658 C141.547,775.091 140.682,775.385 139.854,775.541 C139.026,775.698 138.195,775.776 137.362,775.776 C136.018,775.776 134.95,775.578 134.159,775.182 C133.367,774.786 132.971,774.239 132.971,773.541 C132.971,772.656 133.487,772.213 134.518,772.213 C135.185,772.213 136.052,772.58 137.12,773.315 C138.187,774.049 139.034,774.416 139.659,774.416 C141.075,774.416 142.263,773.823 143.221,772.635 C144.18,771.448 144.659,769.989 144.659,768.26"/>
<path class="SlurSegment" stroke="#000000" stroke-width="1.59" stroke-linecap="round" stroke-linejoin="round" fill-rule="evenodd" d="M1618.45,505.417 C1659.07,463.121 1745.49,457.451 1791.28,494.079 C1745.72,461.072 1659.3,466.741 1618.45,505.417"/>
<path class="SlurSegment" stroke="#000000" stroke-width="1.59" stroke-linecap="round" stroke-linejoin="round" fill-rule="evenodd" d="M965.388,516.756 C1011.19,480.129 1097.61,485.798 1138.23,528.095 C1097.37,489.418 1010.95,483.749 965.388,516.756"/>
<polyline class="BarLine" stroke="#000000" stroke-width="3.63" stroke-linejoin="bevel" points="2832.55,819.723 2832.55,912.246"/>
<polyline class="BarLine" stroke="#000000" stroke-width="3.63" stroke-linejoin="bevel" points="2208.24,819.723 2208.24,912.246"/>
<polyline class="BarLine" stroke="#000000" stroke-width="3.63" stroke-linejoin="bevel" points="1555.29,819.723 1555.29,912.246"/>
<polyline class="BarLine" stroke="#000000" stroke-width="3.63" stroke-linejoin="bevel" points="912.896,819.723 912.896,912.246"/>
<polyline class="BarLine" stroke="#000000" stroke-width="3.63" stroke-linejoin="bevel" points="2832.55,502.243 2832.55,594.765"/>
<polyline class="BarLine" stroke="#000000" stroke-width="3.63" stroke-linejoin="bevel" points="2227.55,502.243 2227.55,594.765"/>
<polyline class="BarLine" stroke="#000000" stroke-width="3.63" stroke-linejoin="bevel" points="1574.49,502.243 1574.49,594.765"/>
<polyline class="BarLine" stroke="#000000" stroke-width="3.63" stroke-linejoin="bevel" points="921.433,502.243 921.433,594.765"/>
<polyline class="LedgerLine" stroke="#000000" stroke-width="3.63" stroke-linecap="square" stroke-linejoin="bevel" points="2527.2,797.953 2570.66,797.953"/>
<polyline class="LedgerLine" stroke="#000000" stroke-width="3.63" stroke-linecap="square" stroke-linejoin="bevel" points="1586.13,797.953 1629.6,797.953"/>
<polyline class="LedgerLine" stroke="#000000" stroke-width="3.63" stroke-linecap="square" stroke-linejoin="bevel" points="1245.21,797.953 1288.67,797.953"/>
<polyline class="LedgerLine" stroke="#000000" stroke-width="3.63" stroke-linecap="square" stroke-linejoin="bevel" points="943.736,797.953 987.199,797.953"/>
<polyline class="LedgerLine" stroke="#000000" stroke-width="3.63" stroke-linecap="square" stroke-linejoin="bevel" points="725.94,797.953 769.402,797.953"/>
<polyline class="LedgerLine" stroke="#000000" stroke-width="3.63" stroke-linecap="square" stroke-linejoin="bevel" points="440.599,797.953 484.062,797.953"/>
<polyline class="Stem" stroke="#000000" stroke-width="2.95" stroke-linecap="round" stroke-linejoin="bevel" points="2535.48,802.212 2535.48,877.323"/>
<polyline class="Stem" stroke="#000000" stroke-width="2.95" stroke-linecap="round" stroke-linejoin="bevel" points="2238.75,813.55 2238.75,888.661"/>
<polyline class="Stem" stroke="#000000" stroke-width="2.95" stroke-linecap="round" stroke-linejoin="bevel" points="1802.31,813.55 1802.31,888.661"/>
<polyline class="Stem" stroke="#000000" stroke-width="2.95" stroke-linecap="round" stroke-linejoin="bevel" points="1594.41,802.212 1594.41,877.323"/>
<polyline class="Stem" stroke="#000000" stroke-width="2.95" stroke-linecap="round" stroke-linejoin="bevel" points="1253.48,802.212 1253.48,877.323"/>
<polyline class="Stem" stroke="#000000" stroke-width="2.95" stroke-linecap="round" stroke-linejoin="bevel" points="952.014,802.212 952.014,877.323"/>
<polyline class="Stem" stroke="#000000" stroke-width="2.95" stroke-linecap="round" stroke-linejoin="bevel" points="734.217,802.212 734.217,877.323"/>
<polyline class="Stem" stroke="#000000" stroke-width="2.95" stroke-linecap="round" stroke-linejoin="bevel" points="448.877,802.212 448.877,877.323"/>
<polyline class="Stem" stroke="#000000" stroke-width="2.95" stroke-linecap="round" stroke-linejoin="bevel" points="2258.87,540.721 2258.87,610.866"/>
<polyline class="Stem" stroke="#000000" stroke-width="2.95" stroke-linecap="round" stroke-linejoin="bevel" points="1950.67,530.086 1950.67,602.362"/>
<polyline class="Stem" stroke="#000000" stroke-width="2.95" stroke-linecap="round" stroke-linejoin="bevel" points="1777.83,518.747 1777.83,588.189"/>
<polyline class="Stem" stroke="#000000" stroke-width="2.95" stroke-linecap="round" stroke-linejoin="bevel" points="1604.99,530.086 1604.99,593.858"/>
<polyline class="Stem" stroke="#000000" stroke-width="2.95" stroke-linecap="round" stroke-linejoin="bevel" points="1297.61,541.424 1297.61,610.866"/>
<polyline class="Stem" stroke="#000000" stroke-width="2.95" stroke-linecap="round" stroke-linejoin="bevel" points="1124.77,552.763 1124.77,616.535"/>
<polyline class="Stem" stroke="#000000" stroke-width="2.95" stroke-linecap="round" stroke-linejoin="bevel" points="951.934,541.424 951.934,610.866"/>
<polyline class="Stem" stroke="#000000" stroke-width="2.95" stroke-linecap="round" stroke-linejoin="bevel" points="716.695,552.763 716.695,627.874"/>
<polyline class="Stem" stroke="#000000" stroke-width="2.95" stroke-linecap="round" stroke-linejoin="bevel" points="344.828,555.583 344.828,486.142"/>
<path class="Note" transform="matrix(0.907087,0,0,0.907087,2534,797.953)" d="M21.9688,-13.7656 C25.0938,-13.7656 27.7344,-12.9531 29.8906,-11.3281 C31.901,-9.56771 32.9063,-7.35417 32.9063,-4.6875 C32.9063,-0.197917 30.599,4 25.9844,7.90625 C21.2969,11.8125 16.2813,13.7656 10.9375,13.7656 C7.8125,13.7656 5.17708,12.9531 3.03125,11.3281 C1.01042,9.56771 0,7.35417 0,4.6875 C0,0.197917 2.34375,-4 7.03125,-7.90625 C11.5938,-11.8125 16.5729,-13.7656 21.9688,-13.7656"/>
<path class="Note" transform="matrix(0.907087,0,0,0.907087,2237.27,809.291)" d="M21.9688,-13.7656 C25.0938,-13.7656 27.7344,-12.9531 29.8906,-11.3281 C31.901,-9.56771 32.9063,-7.35417 32.9063,-4.6875 C32.9063,-0.197917 30.599,4 25.9844,7.90625 C21.2969,11.8125 16.2813,13.7656 10.9375,13.7656 C7.8125,13.7656 5.17708,12.9531 3.03125,11.3281 C1.01042,9.56771 0,7.35417 0,4.6875 C0,0.197917 2.34375,-4 7.03125,-7.90625 C11.5938,-11.8125 16.5729,-13.7656 21.9688,-13.7656"/>
<path class="Note" transform="matrix(0.907087,0,0,0.907087,1800.83,809.291)" d="M21.9688,-13.7656 C25.0938,-13.7656 27.7344,-12.9531 29.8906,-11.3281 C31.901,-9.56771 32.9063,-7.35417 32.9063,-4.6875 C32.9063,-0.197917 30.599,4 25.9844,7.90625 C21.2969,11.8125 16.2813,13.7656 10.9375,13.7656 C7.8125,13.7656 5.17708,12.9531 3.03125,11.3281 C1.01042,9.56771 0,7.35417 0,4.6875 C0,0.197917 2.34375,-4 7.03125,-7.90625 C11.5938,-11.8125 16.5729,-13.7656 21.9688,-13.7656"/>
<path class="Note" transform="matrix(0.907087,0,0,0.907087,1592.94,797.953)" d="M21.9688,-13.7656 C25.0938,-13.7656 27.7344,-12.9531 29.8906,-11.3281 C31.901,-9.56771 32.9063,-7.35417 32.9063,-4.6875 C32.9063,-0.197917 30.599,4 25.9844,7.90625 C21.2969,11.8125 16.2813,13.7656 10.9375,13.7656 C7.8125,13.7656 5.17708,12.9531 3.03125,11.3281 C1.01042,9.56771 0,7.35417 0,4.6875 C0,0.197917 2.34375,-4 7.03125,-7.90625 C11.5938,-11.8125 16.5729,-13.7656 21.9688,-13.7656"/>
<path class="Note" transform="matrix(0.907087,0,0,0.907087,1252.01,797.953)" d="M21.9688,-13.7656 C25.0938,-13.7656 27.7344,-12.9531 29.8906,-11.3281 C31.901,-9.56771 32.9063,-7.35417 32.9063,-4.6875 C32.9063,-0.197917 30.599,4 25.9844,7.90625 C21.2969,11.8125 16.2813,13.7656 10.9375,13.7656 C7.8125,13.7656 5.17708,12.9531 3.03125,11.3281 C1.01042,9.56771 0,7.35417 0,4.6875 C0,0.197917 2.34375,-4 7.03125,-7.90625 C11.5938,-11.8125 16.5729,-13.7656 21.9688,-13.7656"/>
<path class="Note" transform="matrix(0.907087,0,0,0.907087,950.54,797.953)" d="M21.9688,-13.7656 C25.0938,-13.7656 27.7344,-12.9531 29.8906,-11.3281 C31.901,-9.56771 32.9063,-7.35417 32.9063,-4.6875 C32.9063,-0.197917 30.599,4 25.9844,7.90625 C21.2969,11.8125 16.2813,13.7656 10.9375,13.7656 C7.8125,13.7656 5.17708,12.9531 3.03125,11.3281 C1.01042,9.56771 0,7.35417 0,4.6875 C0,0.197917 2.34375,-4 7.03125,-7.90625 C11.5938,-11.8125 16.5729,-13.7656 21.9688,-13.7656"/>
<path class="Note" transform="matrix(0.907087,0,0,0.907087,732.743,797.953)" d="M21.9688,-13.7656 C25.0938,-13.7656 27.7344,-12.9531 29.8906,-11.3281 C31.901,-9.56771 32.9063,-7.35417 32.9063,-4.6875 C32.9063,-0.197917 30.599,4 25.9844,7.90625 C21.2969,11.8125 16.2813,13.7656 10.9375,13.7656 C7.8125,13.7656 5.17708,12.9531 3.03125,11.3281 C1.01042,9.56771 0,7.35417 0,4.6875 C0,0.197917 2.34375,-4 7.03125,-7.90625 C11.5938,-11.8125 16.5729,-13.7656 21.9688,-13.7656"/>
<path class="Note" transform="matrix(0.907087,0,0,0.907087,447.403,797.953)" d="M21.9688,-13.7656 C25.0938,-13.7656 27.7344,-12.9531 29.8906,-11.3281 C31.901,-9.56771 32.9063,-7.35417 32.9063,-4.6875 C32.9063,-0.197917 30.599,4 25.9844,7.90625 C21.2969,11.8125 16.2813,13.7656 10.9375,13.7656 C7.8125,13.7656 5.17708,12.9531 3.03125,11.3281 C1.01042,9.56771 0,7.35417 0,4.6875 C0,0.197917 2.34375,-4 7.03125,-7.90625 C11.5938,-11.8125 16.5729,-13.7656 21.9688,-13.7656"/>
<path class="Note" transform="matrix(0.907087,0,0,0.907087,2257.39,537.165)" d="M31.5469,-6.54688 C31.5469,-7.65104 31.125,-8.59375 30.2813,-9.375 C29.4271,-10.2188 28.4479,-10.6406 27.3438,-10.6406 C25.3958,-10.6406 21.4583,-8.6875 15.5313,-4.78125 C9.40625,-0.8125 5.66146,2.02083 4.29688,3.71875 C3.57813,4.625 3.21875,5.56771 3.21875,6.54688 C3.21875,7.65104 3.64583,8.59375 4.5,9.375 C5.28125,10.2188 6.25521,10.6406 7.42188,10.6406 C9.30729,10.6406 13.2813,8.6875 19.3438,4.78125 C25.3333,0.875 29.0417,-1.95833 30.4688,-3.71875 C31.1875,-4.5625 31.5469,-5.50521 31.5469,-6.54688 M26.375,-13.7656 C31.9688,-13.7656 34.7656,-11.3594 34.7656,-6.54688 C34.7656,-4.20313 34.0833,-1.46875 32.7188,1.65625 C31.3542,4.71875 29.5313,7.0625 27.25,8.6875 C22.2396,12.0729 15.9583,13.7656 8.40625,13.7656 C2.80208,13.7656 0,11.3594 0,6.54688 C0,4.40104 0.682292,1.69792 2.04688,-1.5625 C3.34896,-4.6875 5.17188,-7.0625 7.51563,-8.6875 C12.5365,-12.0729 18.8229,-13.7656 26.375,-13.7656"/>
<path class="Note" transform="matrix(0.907087,0,0,0.907087,1949.19,525.827)" d="M21.9688,-13.7656 C25.0938,-13.7656 27.7344,-12.9531 29.8906,-11.3281 C31.901,-9.56771 32.9063,-7.35417 32.9063,-4.6875 C32.9063,-0.197917 30.599,4 25.9844,7.90625 C21.2969,11.8125 16.2813,13.7656 10.9375,13.7656 C7.8125,13.7656 5.17708,12.9531 3.03125,11.3281 C1.01042,9.56771 0,7.35417 0,4.6875 C0,0.197917 2.34375,-4 7.03125,-7.90625 C11.5938,-11.8125 16.5729,-13.7656 21.9688,-13.7656"/>
<path class="Note" transform="matrix(0.907087,0,0,0.907087,1776.36,514.488)" d="M21.9688,-13.7656 C25.0938,-13.7656 27.7344,-12.9531 29.8906,-11.3281 C31.901,-9.56771 32.9063,-7.35417 32.9063,-4.6875 C32.9063,-0.197917 30.599,4 25.9844,7.90625 C21.2969,11.8125 16.2813,13.7656 10.9375,13.7656 C7.8125,13.7656 5.17708,12.9531 3.03125,11.3281 C1.01042,9.56771 0,7.35417 0,4.6875 C0,0.197917 2.34375,-4 7.03125,-7.90625 C11.5938,-11.8125 16.5729,-13.7656 21.9688,-13.7656"/>
<path class="Note" transform="matrix(0.907087,0,0,0.907087,1603.52,525.827)" d="M21.9688,-13.7656 C25.0938,-13.7656 27.7344,-12.9531 29.8906,-11.3281 C31.901,-9.56771 32.9063,-7.35417 32.9063,-4.6875 C32.9063,-0.197917 30.599,4 25.9844,7.90625 C21.2969,11.8125 16.2813,13.7656 10.9375,13.7656 C7.8125,13.7656 5.17708,12.9531 3.03125,11.3281 C1.01042,9.56771 0,7.35417 0,4.6875 C0,0.197917 2.34375,-4 7.03125,-7.90625 C11.5938,-11.8125 16.5729,-13.7656 21.9688,-13.7656"/>
<path class="Note" transform="matrix(0.907087,0,0,0.907087,1296.14,537.165)" d="M21.9688,-13.7656 C25.0938,-13.7656 27.7344,-12.9531 29.8906,-11.3281 C31.901,-9.56771 32.9063,-7.35417 32.9063,-4.6875 C32.9063,-0.197917 30.599,4 25.9844,7.90625 C21.2969,11.8125 16.2813,13.7656 10.9375,13.7656 C7.8125,13.7656 5.17708,12.9531 3.03125,11.3281 C1.01042,9.56771 0,7.35417 0,4.6875 C0,0.197917 2.34375,-4 7.03125,-7.90625 C11.5938,-11.8125 16.5729,-13.7656 21.9688,-13.7656"/>
<path class="Note" transform="matrix(0.907087,0,0,0.907087,1123.3,548.504)" d="M21.9688,-13.7656 C25.0938,-13.7656 27.7344,-12.9531 29.8906,-11.3281 C31.901,-9.56771 32.9063,-7.35417 32.9063,-4.6875 C32.9063,-0.197917 30.599,4 25.9844,7.90625 C21.2969,11.8125 16.2813,13.7656 10.9375,13.7656 C7.8125,13.7656 5.17708,12.9531 3.03125,11.3281 C1.01042,9.56771 0,7.35417 0,4.6875 C0,0.197917 2.34375,-4 7.03125,-7.90625 C11.5938,-11.8125 16.5729,-13.7656 21.9688,-13.7656"/>
<path class="Note" transform="matrix(0.907087,0,0,0.907087,950.46,537.165)" d="M21.9688,-13.7656 C25.0938,-13.7656 27.7344,-12.9531 29.8906,-11.3281 C31.901,-9.56771 32.9063,-7.35417 32.9063,-4.6875 C32.9063,-0.197917 30.599,4 25.9844,7.90625 C21.2969,11.8125 16.2813,13.7656 10.9375,13.7656 C7.8125,13.7656 5.17708,12.9531 3.03125,11.3281 C1.01042,9.56771 0,7.35417 0,4.6875 C0,0.197917 2.34375,-4 7.03125,-7.90625 C11.5938,-11.8125 16.5729,-13.7656 21.9688,-13.7656"/>
<path class="Note" transform="matrix(0.907087,0,0,0.907087,715.221,548.504)" d="M21.9688,-13.7656 C25.0938,-13.7656 27.7344,-12.9531 29.8906,-11.3281 C31.901,-9.56771 32.9063,-7.35417 32.9063,-4.6875 C32.9063,-0.197917 30.599,4 25.9844,7.90625 C21.2969,11.8125 16.2813,13.7656 10.9375,13.7656 C7.8125,13.7656 5.17708,12.9531 3.03125,11.3281 C1.01042,9.56771 0,7.35417 0,4.6875 C0,0.197917 2.34375,-4 7.03125,-7.90625 C11.5938,-11.8125 16.5729,-13.7656 21.9688,-13.7656"/>
<path class="Note" transform="matrix(0.907087,0,0,0.907087,316.446,559.843)" d="M21.9688,-13.7656 C25.0938,-13.7656 27.7344,-12.9531 29.8906,-11.3281 C31.901,-9.56771 32.9063,-7.35417 32.9063,-4.6875 C32.9063,-0.197917 30.599,4 25.9844,7.90625 C21.2969,11.8125 16.2813,13.7656 10.9375,13.7656 C7.8125,13.7656 5.17708,12.9531 3.03125,11.3281 C1.01042,9.56771 0,7.35417 0,4.6875 C0,0.197917 2.34375,-4 7.03125,-7.90625 C11.5938,-11.8125 16.5729,-13.7656 21.9688,-13.7656"/>
<path class="Clef" transform="matrix(0.907087,0,0,0.907087,154.828,888.661)" d="M36.7188,-25.5938 C36.7188,-25.5938 36.9167,-25.5938 37.3125,-25.5938 C37.5729,-25.6563 37.7969,-25.6875 37.9844,-25.6875 C45.276,-25.6875 51.2656,-23.1146 55.9531,-17.9688 C60.6406,-12.8958 62.9844,-6.97396 62.9844,-0.203125 C62.9844,8.20313 59.5052,15.0417 52.5469,20.3125 C50.724,21.75 48.3438,22.9219 45.4063,23.8281 C45.7396,28.0573 45.9063,31.474 45.9063,34.0781 C45.9063,34.599 45.8385,36.4896 45.7031,39.75 C45.4427,45.8021 43.3594,51.0417 39.4531,55.4688 C35.6823,59.8333 30.9948,62.0156 25.3906,62.0156 C20.1198,62.0156 15.6302,60.1615 11.9219,56.4531 C8.20313,52.6719 6.34375,48.1146 6.34375,42.7813 C6.34375,39.9792 7.42188,37.599 9.57813,35.6406 C11.7865,33.6927 14.3542,32.7188 17.2813,32.7188 C19.8854,32.7188 22.0677,33.7292 23.8281,35.75 C25.651,37.6354 26.5625,39.9792 26.5625,42.7813 C26.5625,45.3125 25.651,47.4896 23.8281,49.3125 C22.0052,51.1354 19.8229,52.0469 17.2813,52.0469 C16.2396,52.0469 15.2344,51.8542 14.2656,51.4688 C17.1302,55.6979 20.9375,57.8125 25.6875,57.8125 C30.1771,57.8125 33.8542,55.9896 36.7188,52.3438 C39.7188,48.5729 41.349,44.1771 41.6094,39.1563 C41.7344,36.0313 41.7969,34.2448 41.7969,33.7969 C41.7969,30.151 41.6667,27.1563 41.4063,24.8125 C38.1563,25.3333 35.2604,25.5938 32.7188,25.5938 C23.6667,25.5938 15.9531,22.0104 9.57813,14.8438 C3.32813,7.61458 0.203125,-0.979167 0.203125,-10.9375 C0.203125,-13.0208 0.395833,-15.1354 0.78125,-17.2813 C1.17708,-19.0417 1.66667,-20.9635 2.25,-23.0469 C2.57292,-24.224 3.45313,-26.1146 4.89063,-28.7188 C5.41146,-29.5 5.9974,-30.4766 6.64844,-31.6484 C7.29948,-32.8203 7.75521,-33.599 8.01563,-33.9844 C8.66146,-35.2865 9.92708,-37.0469 11.8125,-39.2656 C12.3333,-39.849 12.8724,-40.4974 13.4297,-41.2109 C13.987,-41.9245 14.4609,-42.5104 14.8516,-42.9688 C15.2422,-43.4271 15.5339,-43.7865 15.7266,-44.0469 C15.9193,-44.3073 17.3854,-46.0313 20.125,-49.2188 C20.7708,-49.875 21.4036,-50.5755 22.0234,-51.3203 C22.6432,-52.0651 23.1484,-52.651 23.5391,-53.0781 C23.9297,-53.5052 24.224,-53.8125 24.4219,-54 C22.0781,-61.75 20.6094,-67.9375 20.0156,-72.5625 C19.5677,-76.2708 19.3438,-81.349 19.3438,-87.7969 C19.3438,-93.4635 20.6458,-98.7708 23.25,-103.719 C25.7813,-108.854 29.3281,-113.052 33.8906,-116.313 C34.151,-116.51 34.474,-116.609 34.8594,-116.609 C35.3177,-116.609 35.6458,-116.51 35.8438,-116.313 C39.3542,-112.083 42.3802,-106.583 44.9219,-99.8125 C47.526,-93.0417 48.8281,-86.8854 48.8281,-81.3438 C48.8281,-75.0938 47.3333,-69.2344 44.3438,-63.7656 C40.9583,-57.974 36.5938,-51.9844 31.25,-45.7969 C32.6146,-41.5052 34.4375,-34.7708 36.7188,-25.5938 M45.0156,19.8281 C48.401,18.5885 51.0417,16.474 52.9375,13.4844 C55.0208,10.6198 56.0625,7.39583 56.0625,3.8125 C56.0625,-0.8125 54.5,-4.91667 51.375,-8.5 C48.1771,-12.2083 44.1042,-14.2917 39.1563,-14.75 C41.9583,-1.01042 43.9115,10.5156 45.0156,19.8281 M7.23438,-2.73438 C7.23438,3.71354 9.83854,9.38021 15.0469,14.2656 C20.3802,19.0156 26.3698,21.3906 33.0156,21.3906 C35.7448,21.3906 38.4115,21.1927 41.0156,20.7969 C39.974,10.901 37.9219,-0.947917 34.8594,-14.75 C31.151,-14.3542 28.1927,-13.0521 25.9844,-10.8438 C23.8281,-8.5625 22.75,-5.98958 22.75,-3.125 C22.75,1.82292 25.3906,5.82813 30.6719,8.89063 C31.1198,9.34896 31.3438,9.83854 31.3438,10.3594 C31.3438,10.8802 31.1198,11.3646 30.6719,11.8125 C30.276,12.2708 29.7865,12.5 29.2031,12.5 C29.1406,12.5 28.849,12.4375 28.3281,12.3125 C24.6094,10.2917 21.7448,7.6875 19.7344,4.5 C17.8385,1.10417 16.8906,-2.31771 16.8906,-5.76563 C16.8906,-10.2552 18.2917,-14.3229 21.0938,-17.9688 C24.0208,-21.6146 27.8281,-23.9583 32.5156,-25 C30.6927,-32.2917 29.1979,-37.9896 28.0313,-42.0938 C26.9896,-40.9167 25.737,-39.5 24.2734,-37.8438 C22.8099,-36.1875 21.9479,-35.1927 21.6875,-34.8594 C19.3438,-31.8073 17.5521,-29.4323 16.3125,-27.7344 C14.0938,-24.6719 12.4635,-22.0365 11.4219,-19.8281 C10.3177,-17.349 9.34375,-14.6458 8.5,-11.7188 C7.65625,-8.91667 7.23438,-5.92188 7.23438,-2.73438 M39.8438,-102.047 C34.9583,-99.6406 31.1198,-96.1927 28.3281,-91.7031 C25.4635,-87.0781 24.0313,-82.099 24.0313,-76.7656 C24.0313,-72.0781 25.2031,-65.7604 27.5469,-57.8125 C32.2344,-63.4792 35.75,-68.7188 38.0938,-73.5313 C40.5625,-78.6146 41.7969,-83.9219 41.7969,-89.4531 C41.7969,-93.6198 41.1458,-97.8177 39.8438,-102.047"/>
<path class="Clef" transform="matrix(0.907087,0,0,0.907087,154.828,571.181)" d="M36.7188,-25.5938 C36.7188,-25.5938 36.9167,-25.5938 37.3125,-25.5938 C37.5729,-25.6563 37.7969,-25.6875 37.9844,-25.6875 C45.276,-25.6875 51.2656,-23.1146 55.9531,-17.9688 C60.6406,-12.8958 62.9844,-6.97396 62.9844,-0.203125 C62.9844,8.20313 59.5052,15.0417 52.5469,20.3125 C50.724,21.75 48.3438,22.9219 45.4063,23.8281 C45.7396,28.0573 45.9063,31.474 45.9063,34.0781 C45.9063,34.599 45.8385,36.4896 45.7031,39.75 C45.4427,45.8021 43.3594,51.0417 39.4531,55.4688 C35.6823,59.8333 30.9948,62.0156 25.3906,62.0156 C20.1198,62.0156 15.6302,60.1615 11.9219,56.4531 C8.20313,52.6719 6.34375,48.1146 6.34375,42.7813 C6.34375,39.9792 7.42188,37.599 9.57813,35.6406 C11.7865,33.6927 14.3542,32.7188 17.2813,32.7188 C19.8854,32.7188 22.0677,33.7292 23.8281,35.75 C25.651,37.6354 26.5625,39.9792 26.5625,42.7813 C26.5625,45.3125 25.651,47.4896 23.8281,49.3125 C22.0052,51.1354 19.8229,52.0469 17.2813,52.0469 C16.2396,52.0469 15.2344,51.8542 14.2656,51.4688 C17.1302,55.6979 20.9375,57.8125 25.6875,57.8125 C30.1771,57.8125 33.8542,55.9896 36.7188,52.3438 C39.7188,48.5729 41.349,44.1771 41.6094,39.1563 C41.7344,36.0313 41.7969,34.2448 41.7969,33.7969 C41.7969,30.151 41.6667,27.1563 41.4063,24.8125 C38.1563,25.3333 35.2604,25.5938 32.7188,25.5938 C23.6667,25.5938 15.9531,22.0104 9.57813,14.8438 C3.32813,7.61458 0.203125,-0.979167 0.203125,-10.9375 C0.203125,-13.0208 0.395833,-15.1354 0.78125,-17.2813 C1.17708,-19.0417 1.66667,-20.9635 2.25,-23.0469 C2.57292,-24.224 3.45313,-26.1146 4.89063,-28.7188 C5.41146,-29.5 5.9974,-30.4766 6.64844,-31.6484 C7.29948,-32.8203 7.75521,-33.599 8.01563,-33.9844 C8.66146,-35.2865 9.92708,-37.0469 11.8125,-39.2656 C12.3333,-39.849 12.8724,-40.4974 13.4297,-41.2109 C13.987,-41.9245 14.4609,-42.5104 14.8516,-42.9688 C15.2422,-43.4271 15.5339,-43.7865 15.7266,-44.0469 C15.9193,-44.3073 17.3854,-46.0313 20.125,-49.2188 C20.7708,-49.875 21.4036,-50.5755 22.0234,-51.3203 C22.6432,-52.0651 23.1484,-52.651 23.5391,-53.0781 C23.9297,-53.5052 24.224,-53.8125 24.4219,-54 C22.0781,-61.75 20.6094,-67.9375 20.0156,-72.5625 C19.5677,-76.2708 19.3438,-81.349 19.3438,-87.7969 C19.3438,-93.4635 20.6458,-98.7708 23.25,-103.719 C25.7813,-108.854 29.3281,-113.052 33.8906,-116.313 C34.151,-116.51 34.474,-116.609 34.8594,-116.609 C35.3177,-116.609 35.6458,-116.51 35.8438,-116.313 C39.3542,-112.083 42.3802,-106.583 44.9219,-99.8125 C47.526,-93.0417 48.8281,-86.8854 48.8281,-81.3438 C48.8281,-75.0938 47.3333,-69.2344 44.3438,-63.7656 C40.9583,-57.974 36.5938,-51.9844 31.25,-45.7969 C32.6146,-41.5052 34.4375,-34.7708 36.7188,-25.5938 M45.0156,19.8281 C48.401,18.5885 51.0417,16.474 52.9375,13.4844 C55.0208,10.6198 56.0625,7.39583 56.0625,3.8125 C56.0625,-0.8125 54.5,-4.91667 51.375,-8.5 C48.1771,-12.2083 44.1042,-14.2917 39.1563,-14.75 C41.9583,-1.01042 43.9115,10.5156 45.0156,19.8281 M7.23438,-2.73438 C7.23438,3.71354 9.83854,9.38021 15.0469,14.2656 C20.3802,19.0156 26.3698,21.3906 33.0156,21.3906 C35.7448,21.3906 38.4115,21.1927 41.0156,20.7969 C39.974,10.901 37.9219,-0.947917 34.8594,-14.75 C31.151,-14.3542 28.1927,-13.0521 25.9844,-10.8438 C23.8281,-8.5625 22.75,-5.98958 22.75,-3.125 C22.75,1.82292 25.3906,5.82813 30.6719,8.89063 C31.1198,9.34896 31.3438,9.83854 31.3438,10.3594 C31.3438,10.8802 31.1198,11.3646 30.6719,11.8125 C30.276,12.2708 29.7865,12.5 29.2031,12.5 C29.1406,12.5 28.849,12.4375 28.3281,12.3125 C24.6094,10.2917 21.7448,7.6875 19.7344,4.5 C17.8385,1.10417 16.8906,-2.31771 16.8906,-5.76563 C16.8906,-10.2552 18.2917,-14.3229 21.0938,-17.9688 C24.0208,-21.6146 27.8281,-23.9583 32.5156,-25 C30.6927,-32.2917 29.1979,-37.9896 28.0313,-42.0938 C26.9896,-40.9167 25.737,-39.5 24.2734,-37.8438 C22.8099,-36.1875 21.9479,-35.1927 21.6875,-34.8594 C19.3438,-31.8073 17.5521,-29.4323 16.3125,-27.7344 C14.0938,-24.6719 12.4635,-22.0365 11.4219,-19.8281 C10.3177,-17.349 9.34375,-14.6458 8.5,-11.7188 C7.65625,-8.91667 7.23438,-5.92188 7.23438,-2.73438 M39.8438,-102.047 C34.9583,-99.6406 31.1198,-96.1927 28.3281,-91.7031 C25.4635,-87.0781 24.0313,-82.099 24.0313,-76.7656 C24.0313,-72.0781 25.2031,-65.7604 27.5469,-57.8125 C32.2344,-63.4792 35.75,-68.7188 38.0938,-73.5313 C40.5625,-78.6146 41.7969,-83.9219 41.7969,-89.4531 C41.7969,-93.6198 41.1458,-97.8177 39.8438,-102.047"/>
<path class="TimeSig" transform="matrix(0.907087,0,0,0.907087,236.523,525.827)" d="M22.8594,25 C20.901,25 19.1406,24.6432 17.5781,23.9297 C16.0156,23.2161 14.9115,22.4688 14.2656,21.6875 C13.4115,20.7083 12.5625,19.9583 11.7188,19.4375 C10.6771,18.7188 9.60417,18.3594 8.5,18.3594 C6.80208,18.3594 5.40104,18.8802 4.29688,19.9219 C3.13021,20.901 2.47917,22.2344 2.34375,23.9219 C2.21875,24.6406 1.82813,25 1.17188,25 C0.390625,25 0,24.6406 0,23.9219 C0,21.3906 0.588542,19.1146 1.76563,17.0938 C2.93229,15.0104 4.36458,13.2865 6.0625,11.9219 C7.48958,10.6823 9.375,9.18229 11.7188,7.42188 C12.1146,7.09896 12.9453,6.41667 14.2109,5.375 C15.4766,4.33333 16.5365,3.45313 17.3906,2.73438 C19.0781,1.30729 20.5417,-0.583333 21.7813,-2.9375 C22.9479,-5.28125 23.5313,-7.81771 23.5313,-10.5469 C23.5313,-13.8698 22.9792,-16.7344 21.875,-19.1406 C20.7083,-21.4844 18.9167,-22.6563 16.5,-22.6563 C15.0104,-22.6563 13.8073,-22.3333 12.8906,-21.6875 C11.9115,-21.0313 11.4219,-20.151 11.4219,-19.0469 C11.4219,-18.1302 12.0078,-16.9896 13.1797,-15.625 C14.3516,-14.2604 14.9375,-13.1198 14.9375,-12.2031 C14.9375,-10.2552 14.2552,-8.59896 12.8906,-7.23438 C11.5885,-5.93229 9.99479,-5.28125 8.10938,-5.28125 C6.15104,-5.28125 4.48958,-5.96354 3.125,-7.32813 C1.82292,-8.75521 1.17188,-10.3802 1.17188,-12.2031 C1.17188,-15.9219 2.66927,-18.9844 5.66406,-21.3906 C8.65885,-23.7969 12.2708,-25 16.5,-25 C21.5208,-25 25.8854,-23.6354 29.5938,-20.9063 C33.3021,-18.3021 35.1563,-14.849 35.1563,-10.5469 C35.1563,-7.61979 34.6354,-5.11458 33.5938,-3.03125 C32.6146,-0.8125 31.151,0.916667 29.2031,2.15625 C26.9844,3.58333 25.0625,4.6875 23.4375,5.46875 C21.1563,6.51042 18.8802,7.48958 16.6094,8.40625 C13.8698,9.51042 11.75,10.5521 10.25,11.5313 C11.1042,11.3333 11.9844,11.2344 12.8906,11.2344 C15.8906,11.2344 19.0156,12.2083 22.2656,14.1563 C25.5885,16.1146 28.1615,17.0938 29.9844,17.0938 C31.0885,17.0938 31.9688,16.8958 32.625,16.5 C33.2708,16.1146 33.6927,15.6927 33.8906,15.2344 C34.151,14.5885 34.3802,14.1354 34.5781,13.875 C34.8385,13.4792 35.1615,13.2813 35.5469,13.2813 C36.3281,13.2813 36.7188,13.6719 36.7188,14.4531 C36.7188,16.276 35.4167,18.4896 32.8125,21.0938 C30.2708,23.6979 26.9531,25 22.8594,25"/>
<path class="TimeSig" transform="matrix(0.907087,0,0,0.907087,234.893,571.259)" d="M22.4688,-23.7344 C24.4167,-23.7344 26.0755,-23.9609 27.4453,-24.4141 C28.8151,-24.8672 29.6927,-25.0938 30.0781,-25.0938 C30.5365,-25.0938 30.8958,-24.9635 31.1563,-24.7031 C31.3542,-24.5156 31.4844,-24.2917 31.5469,-24.0313 C31.5469,-23.8958 31.4792,-23.6979 31.3438,-23.4375 L2.9375,9.57813 L19.625,9.57813 L19.625,-3.51563 C19.625,-4.35938 19.8542,-5.07813 20.3125,-5.67188 C21.0938,-6.31771 21.7448,-6.70833 22.2656,-6.84375 C23.1094,-7.22917 24.151,-8.14063 25.3906,-9.57813 C26.4323,-10.7448 27.6719,-12.7917 29.1094,-15.7188 C29.2969,-16.1146 29.5885,-16.3125 29.9844,-16.3125 C30.7656,-16.3125 31.2188,-15.8542 31.3438,-14.9375 L31.3438,9.57813 L38.4844,9.57813 C39.3906,9.57813 39.9115,10.0625 40.0469,11.0313 C40.0469,12.0104 39.526,12.5 38.4844,12.5 L31.3438,12.5 L31.3438,13.2813 C31.3438,15.8854 31.9948,18.099 33.2969,19.9219 C34.7969,21.7448 36.5573,22.6563 38.5781,22.6563 C39.3594,22.6563 39.75,23.0469 39.75,23.8281 C39.75,24.6094 39.3594,25 38.5781,25 C37.2135,25 35,24.8073 31.9375,24.4219 C29.1354,23.9635 26.9531,23.7344 25.3906,23.7344 C23.7656,23.7344 21.5833,23.9635 18.8438,24.4219 C15.9167,24.8073 13.7396,25 12.3125,25 C11.5313,25 11.1406,24.6094 11.1406,23.8281 C11.1406,23.0469 11.5313,22.6563 12.3125,22.6563 C14.3229,22.6563 16.0781,21.7448 17.5781,19.9219 C18.9427,18.0365 19.625,15.8229 19.625,13.2813 L19.625,12.5 L2.9375,12.5 C1.82292,12.5 1.04167,12.2396 0.59375,11.7188 C0.0625,11.3333 -0.203125,10.8125 -0.203125,10.1563 C-0.203125,9.95833 0.286458,9.27604 1.26563,8.10938 C2.38021,6.80729 3.55208,5.21354 4.78125,3.32813 C6.21875,1.10938 7.58854,-1.17188 8.89063,-3.51563 C10.3177,-6.18229 11.4583,-9.24479 12.3125,-12.7031 C13.2813,-16.2135 13.7656,-19.7917 13.7656,-23.4375 C13.7656,-24.4792 14.224,-25 15.1406,-25 C15.3385,-25 15.7604,-24.901 16.4063,-24.7031 C16.6042,-24.6406 17.013,-24.5443 17.6328,-24.4141 C18.2526,-24.2839 18.7552,-24.1563 19.1406,-24.0313 C20.3177,-23.8333 21.4271,-23.7344 22.4688,-23.7344"/>
<path class="Rest" transform="matrix(0.907087,0,0,0.907087,269.065,865.984)" d="M7.03125,-20.5156 C8.91667,-20.5156 10.349,-19.9948 11.3281,-18.9531 C12.3073,-17.776 12.8281,-16.6667 12.8906,-15.625 C13.026,-14.6458 13.3542,-13.5417 13.875,-12.3125 C14.4583,-11.2708 15.2031,-10.75 16.1094,-10.75 C16.8281,-10.75 17.9063,-11.5625 19.3438,-13.1875 C20.6458,-14.6146 21.5885,-15.8854 22.1719,-17 C22.4948,-17.6458 22.9479,-17.9688 23.5313,-17.9688 L23.6406,-17.9688 C24.2865,-17.9063 24.7396,-17.5833 25,-17 L12.7031,25 C12.0469,25.6563 11.1328,25.9844 9.96094,25.9844 C8.78906,25.9844 7.88021,25.6563 7.23438,25 L18.9531,-7.625 C14.7865,-6.125 11.2708,-5.375 8.40625,-5.375 C6.0625,-5.375 4.04167,-6.125 2.34375,-7.625 C0.583333,-9.05208 -0.296875,-10.9375 -0.296875,-13.2813 C-0.296875,-15.3021 0.421875,-16.9948 1.85938,-18.3594 C3.28646,-19.7969 5.01042,-20.5156 7.03125,-20.5156"/>
<path class="Beam" fill-rule="evenodd" d="M1603.52,588.186 L1779.3,582.42 L1779.3,593.765 L1603.52,599.531 L1603.52,588.186 "/>
<path class="Beam" fill-rule="evenodd" d="M950.46,605.194 L1126.25,610.96 L1126.25,622.305 L950.46,616.539 L950.46,605.194 "/>
<path class="Hook" transform="matrix(0.907087,0,0,0.907087,1592.94,877.323)" d="M22.75,-72.3594 C24.25,-72.3594 25.849,-69.9219 27.5469,-65.0469 C29.1719,-60.224 29.9844,-55.6302 29.9844,-51.2656 C29.9844,-47.5573 29.0729,-43.8802 27.25,-40.2344 C25.3646,-36.3281 23.1198,-32.9427 20.5156,-30.0781 L12.5,-21.0938 C10.0313,-18.2292 7.81771,-14.9115 5.85938,-11.1406 C4.03646,-7.49479 3.125,-3.78125 3.125,0 L0,0 L0,-25 L3.125,-25 C4.88542,-26.1042 7.48958,-27.8646 10.9375,-30.2813 C12.5,-31.4479 14.8438,-33.401 17.9688,-36.1406 C20.5104,-38.4844 22.4323,-40.8906 23.7344,-43.3594 C25.099,-45.9635 25.7813,-48.599 25.7813,-51.2656 C25.7813,-57.4531 23.9896,-63.6094 20.4063,-69.7344 C20.4063,-69.7344 20.4063,-69.8646 20.4063,-70.125 C20.4063,-70.7083 20.6042,-71.1927 21,-71.5781 C21.5208,-72.099 22.1042,-72.3594 22.75,-72.3594"/>
<path class="Hook" transform="matrix(0.907087,0,0,0.907087,732.743,877.323)" d="M22.75,-72.3594 C24.25,-72.3594 25.849,-69.9219 27.5469,-65.0469 C29.1719,-60.224 29.9844,-55.6302 29.9844,-51.2656 C29.9844,-47.5573 29.0729,-43.8802 27.25,-40.2344 C25.3646,-36.3281 23.1198,-32.9427 20.5156,-30.0781 L12.5,-21.0938 C10.0313,-18.2292 7.81771,-14.9115 5.85938,-11.1406 C4.03646,-7.49479 3.125,-3.78125 3.125,0 L0,0 L0,-25 L3.125,-25 C4.88542,-26.1042 7.48958,-27.8646 10.9375,-30.2813 C12.5,-31.4479 14.8438,-33.401 17.9688,-36.1406 C20.5104,-38.4844 22.4323,-40.8906 23.7344,-43.3594 C25.099,-45.9635 25.7813,-48.599 25.7813,-51.2656 C25.7813,-57.4531 23.9896,-63.6094 20.4063,-69.7344 C20.4063,-69.7344 20.4063,-69.8646 20.4063,-70.125 C20.4063,-70.7083 20.6042,-71.1927 21,-71.5781 C21.5208,-72.099 22.1042,-72.3594 22.75,-72.3594"/>
<path class="Hook" transform="matrix(0.907087,0,0,0.907087,715.221,627.874)" d="M22.75,-72.3594 C24.25,-72.3594 25.849,-69.9219 27.5469,-65.0469 C29.1719,-60.224 29.9844,-55.6302 29.9844,-51.2656 C29.9844,-47.5573 29.0729,-43.8802 27.25,-40.2344 C25.3646,-36.3281 23.1198,-32.9427 20.5156,-30.0781 L12.5,-21.0938 C10.0313,-18.2292 7.81771,-14.9115 5.85938,-11.1406 C4.03646,-7.49479 3.125,-3.78125 3.125,0 L0,0 L0,-25 L3.125,-25 C4.88542,-26.1042 7.48958,-27.8646 10.9375,-30.2813 C12.5,-31.4479 14.8438,-33.401 17.9688,-36.1406 C20.5104,-38.4844 22.4323,-40.8906 23.7344,-43.3594 C25.099,-45.9635 25.7813,-48.599 25.7813,-51.2656 C25.7813,-57.4531 23.9896,-63.6094 20.4063,-69.7344 C20.4063,-69.7344 20.4063,-69.8646 20.4063,-70.125 C20.4063,-70.7083 20.6042,-71.1927 21,-71.5781 C21.5208,-72.099 22.1042,-72.3594 22.75,-72.3594"/>
<path class="NoteDot" transform="matrix(0.907087,0,0,0.907087,1838.62,809.291)" d="M1.66406,4.00781 C0.554688,2.89844 0,1.5625 0,0 C0,-1.5625 0.554688,-2.89844 1.66406,-4.00781 C2.77344,-5.11719 4.10938,-5.67188 5.67188,-5.67188 C7.23438,-5.67188 8.56771,-5.11719 9.67188,-4.00781 C10.776,-2.89844 11.3281,-1.5625 11.3281,0 C11.3281,1.5625 10.776,2.89844 9.67188,4.00781 C8.56771,5.11719 7.23438,5.67188 5.67188,5.67188 C4.10938,5.67188 2.77344,5.11719 1.66406,4.00781"/>
<path class="NoteDot" transform="matrix(0.907087,0,0,0.907087,354.239,559.843)" d="M1.66406,4.00781 C0.554688,2.89844 0,1.5625 0,0 C0,-1.5625 0.554688,-2.89844 1.66406,-4.00781 C2.77344,-5.11719 4.10938,-5.67188 5.67188,-5.67188 C7.23438,-5.67188 8.56771,-5.11719 9.67188,-4.00781 C10.776,-2.89844 11.3281,-1.5625 11.3281,0 C11.3281,1.5625 10.776,2.89844 9.67188,4.00781 C8.56771,5.11719 7.23438,5.67188 5.67188,5.67188 C4.10938,5.67188 2.77344,5.11719 1.66406,4.00781"/>
</svg>
