<?xml version="1.0" encoding="UTF-8" standalone="no"?>
<svg width="3060px" height="3960px" viewBox="0 0 3060 3960"
 xmlns="http://www.w3.org/2000/svg" xmlns:xlink="http://www.w3.org/1999/xlink" version="1.2" baseProfile="tiny">
<title>O_batrana_intr-o_gara</title>
<desc>Generated by MuseScore 3.0.2</desc>
<polyline class="StaffLines" fill="none" stroke="#000000" stroke-width="2.00" stroke-linejoin="bevel" points="141.732,566.733 2918.27,566.733"/>
<polyline class="StaffLines" fill="none" stroke="#000000" stroke-width="2.00" stroke-linejoin="bevel" points="141.732,591.733 2918.27,591.733"/>
<polyline class="StaffLines" fill="none" stroke="#000000" stroke-width="2.00" stroke-linejoin="bevel" points="141.732,616.733 2918.27,616.733"/>
<polyline class="StaffLines" fill="none" stroke="#000000" stroke-width="2.00" stroke-linejoin="bevel" points="141.732,641.733 2918.27,641.733"/>
<polyline class="StaffLines" fill="none" stroke="#000000" stroke-width="2.00" stroke-linejoin="bevel" points="141.732,666.733 2918.27,666.733"/>
<polyline class="StaffLines" fill="none" stroke="#000000" stroke-width="2.00" stroke-linejoin="bevel" points="141.732,1041.73 2918.27,1041.73"/>
<polyline class="StaffLines" fill="none" stroke="#000000" stroke-width="2.00" stroke-linejoin="bevel" points="141.732,1066.73 2918.27,1066.73"/>
<polyline class="StaffLines" fill="none" stroke="#000000" stroke-width="2.00" stroke-linejoin="bevel" points="141.732,1091.73 2918.27,1091.73"/>
<polyline class="StaffLines" fill="none" stroke="#000000" stroke-width="2.00" stroke-linejoin="bevel" points="141.732,1116.73 2918.27,1116.73"/>
<polyline class="StaffLines" fill="none" stroke="#000000" stroke-width="2.00" stroke-linejoin="bevel" points="141.732,1141.73 2918.27,1141.73"/>
<path class="Text" d="M1419.25,315.293 L1417.64,315.293 C1417.21,312.449 1416.53,310.618 1415.6,309.8 C1414.67,308.983 1412.78,308.574 1409.94,308.574 L1399.78,308.574 L1399.78,323.136 C1399.78,325.98 1400.16,327.821 1400.94,328.66 C1401.71,329.498 1403.45,329.991 1406.15,330.136 L1406.15,331.465 L1386.54,331.465 L1386.54,330.136 C1389.21,329.949 1390.89,329.446 1391.59,328.629 C1392.29,327.811 1392.64,325.954 1392.64,323.058 L1392.64,292.746 C1392.64,290.277 1392.27,288.657 1391.52,287.886 C1390.78,287.116 1389.12,286.636 1386.54,286.449 L1386.54,285.121 L1423.72,285.121 L1423.94,295.136 L1422.19,295.136 C1421.58,292.001 1420.65,289.991 1419.39,289.105 C1418.13,288.22 1415.51,287.777 1411.54,287.777 L1402.01,287.777 C1401.09,287.777 1400.48,287.928 1400.2,288.23 C1399.92,288.532 1399.78,289.178 1399.78,290.168 L1399.78,305.699 L1409.94,305.699 C1412.74,305.699 1414.62,305.29 1415.57,304.472 C1416.52,303.655 1417.21,301.85 1417.64,299.058 L1419.25,299.058 L1419.25,315.293 M1426.25,324.558 C1426.25,323.715 1426.34,322.933 1426.53,322.215 C1426.72,321.496 1427.04,320.824 1427.51,320.199 C1427.97,319.574 1428.41,319.006 1428.83,318.496 C1429.26,317.985 1429.89,317.462 1430.72,316.925 C1431.56,316.389 1432.26,315.946 1432.83,315.597 C1433.39,315.248 1434.24,314.832 1435.38,314.347 C1436.52,313.863 1437.4,313.493 1438.01,313.238 C1438.62,312.983 1439.57,312.6 1440.88,312.09 C1442.19,311.579 1443.14,311.204 1443.75,310.965 L1443.75,306.73 C1443.75,302.876 1441.98,300.949 1438.44,300.949 C1437.03,300.949 1435.84,301.285 1434.86,301.957 C1433.88,302.629 1433.39,303.433 1433.39,304.371 C1433.39,304.746 1433.45,305.259 1433.56,305.91 C1433.67,306.561 1433.73,306.98 1433.73,307.168 C1433.73,307.959 1433.42,308.647 1432.79,309.23 C1432.16,309.813 1431.42,310.105 1430.59,310.105 C1429.8,310.105 1429.1,309.803 1428.49,309.199 C1427.88,308.595 1427.58,307.897 1427.58,307.105 C1427.58,304.907 1428.71,303.05 1430.97,301.535 C1433.24,300.019 1436.03,299.261 1439.34,299.261 C1443.16,299.261 1445.8,300.178 1447.25,302.011 C1448.7,303.845 1449.42,306.647 1449.42,310.418 L1449.42,323.996 C1449.42,325.527 1449.57,326.582 1449.87,327.16 C1450.17,327.738 1450.72,328.027 1451.51,328.027 C1452.5,328.027 1453.53,327.59 1454.61,326.715 L1454.61,328.543 C1453.39,329.938 1452.32,330.892 1451.41,331.402 C1450.5,331.912 1449.46,332.168 1448.29,332.168 C1446.85,332.168 1445.79,331.759 1445.12,330.941 C1444.44,330.123 1444.01,328.782 1443.83,326.918 C1439.81,330.418 1436.39,332.168 1433.59,332.168 C1431.45,332.168 1429.69,331.457 1428.31,330.035 C1426.94,328.613 1426.25,326.787 1426.25,324.558 M1443.75,322.746 L1443.75,312.636 C1439.55,314.168 1436.61,315.655 1434.93,317.097 C1433.25,318.54 1432.4,320.282 1432.4,322.324 C1432.4,324.23 1432.87,325.647 1433.81,326.574 C1434.75,327.501 1435.75,327.965 1436.83,327.965 C1438.41,327.965 1440.11,327.428 1441.94,326.355 C1442.67,325.938 1443.16,325.498 1443.4,325.035 C1443.63,324.571 1443.75,323.808 1443.75,322.746 M1475.58,306.121 C1474.87,306.121 1474,305.712 1472.97,304.894 C1471.95,304.077 1471.27,303.668 1470.95,303.668 C1470.01,303.668 1468.96,304.345 1467.79,305.699 C1466.63,307.053 1466.04,308.293 1466.04,309.418 L1466.04,325.168 C1466.04,327.168 1466.44,328.519 1467.24,329.222 C1468.04,329.925 1469.62,330.324 1472,330.418 L1472,331.465 L1455.2,331.465 L1455.2,330.418 C1457.44,329.991 1458.83,329.522 1459.37,329.011 C1459.9,328.501 1460.17,327.36 1460.17,325.59 L1460.17,308.09 C1460.17,306.548 1460,305.462 1459.65,304.832 C1459.3,304.202 1458.68,303.886 1457.79,303.886 C1457.04,303.886 1456.23,303.98 1455.34,304.168 L1455.34,303.043 C1459.07,301.824 1462.52,300.563 1465.7,299.261 L1466.04,299.402 L1466.04,305.84 C1467.77,303.371 1469.25,301.657 1470.46,300.699 C1471.67,299.741 1473,299.261 1474.45,299.261 C1475.66,299.261 1476.6,299.587 1477.28,300.238 C1477.96,300.889 1478.29,301.798 1478.29,302.965 C1478.29,303.954 1478.05,304.728 1477.56,305.285 C1477.07,305.842 1476.41,306.121 1475.58,306.121 M1480.25,324.558 C1480.25,323.715 1480.34,322.933 1480.53,322.215 C1480.72,321.496 1481.04,320.824 1481.51,320.199 C1481.97,319.574 1482.41,319.006 1482.83,318.496 C1483.26,317.985 1483.89,317.462 1484.72,316.925 C1485.56,316.389 1486.26,315.946 1486.83,315.597 C1487.39,315.248 1488.24,314.832 1489.38,314.347 C1490.52,313.863 1491.4,313.493 1492.01,313.238 C1492.62,312.983 1493.57,312.6 1494.88,312.09 C1496.19,311.579 1497.14,311.204 1497.75,310.965 L1497.75,306.73 C1497.75,302.876 1495.98,300.949 1492.44,300.949 C1491.03,300.949 1489.84,301.285 1488.86,301.957 C1487.88,302.629 1487.39,303.433 1487.39,304.371 C1487.39,304.746 1487.45,305.259 1487.56,305.91 C1487.67,306.561 1487.73,306.98 1487.73,307.168 C1487.73,307.959 1487.42,308.647 1486.79,309.23 C1486.16,309.813 1485.42,310.105 1484.59,310.105 C1483.8,310.105 1483.1,309.803 1482.49,309.199 C1481.88,308.595 1481.58,307.897 1481.58,307.105 C1481.58,304.907 1482.71,303.05 1484.97,301.535 C1487.24,300.019 1490.03,299.261 1493.34,299.261 C1497.16,299.261 1499.8,300.178 1501.25,302.011 C1502.7,303.845 1503.42,306.647 1503.42,310.418 L1503.42,323.996 C1503.42,325.527 1503.57,326.582 1503.87,327.16 C1504.17,327.738 1504.72,328.027 1505.51,328.027 C1506.5,328.027 1507.53,327.59 1508.61,326.715 L1508.61,328.543 C1507.39,329.938 1506.32,330.892 1505.41,331.402 C1504.5,331.912 1503.46,332.168 1502.29,332.168 C1500.85,332.168 1499.79,331.759 1499.12,330.941 C1498.44,330.123 1498.01,328.782 1497.83,326.918 C1493.81,330.418 1490.39,332.168 1487.59,332.168 C1485.45,332.168 1483.69,331.457 1482.31,330.035 C1480.94,328.613 1480.25,326.787 1480.25,324.558 M1497.75,322.746 L1497.75,312.636 C1493.55,314.168 1490.61,315.655 1488.93,317.097 C1487.25,318.54 1486.4,320.282 1486.4,322.324 C1486.4,324.23 1486.87,325.647 1487.81,326.574 C1488.75,327.501 1489.75,327.965 1490.83,327.965 C1492.41,327.965 1494.11,327.428 1495.94,326.355 C1496.67,325.938 1497.16,325.498 1497.4,325.035 C1497.63,324.571 1497.75,323.808 1497.75,322.746 M1544.62,299.965 L1544.62,302.058 L1537.56,302.058 L1537.56,322.09 C1537.56,324.277 1537.84,325.873 1538.4,326.879 C1538.95,327.884 1539.89,328.386 1541.2,328.386 C1542.65,328.386 1544.05,327.569 1545.4,325.933 L1546.31,326.699 C1544.07,330.345 1541.27,332.168 1537.9,332.168 C1533.76,332.168 1531.69,329.188 1531.69,323.23 L1531.69,302.058 L1527.97,302.058 C1527.78,301.933 1527.69,301.782 1527.69,301.605 C1527.69,301.386 1527.76,301.212 1527.9,301.082 C1528.04,300.952 1528.31,300.764 1528.7,300.519 C1529.1,300.274 1529.58,299.928 1530.14,299.48 C1530.7,299.032 1531.47,298.217 1532.45,297.035 C1533.43,295.853 1534.5,294.433 1535.67,292.777 C1536.42,291.694 1536.89,291.032 1537.08,290.793 C1537.4,290.793 1537.56,291.1 1537.56,291.715 L1537.56,299.965 L1544.62,299.965 M1550.84,303.949 C1549.81,303.949 1548.83,304.022 1547.9,304.168 L1547.9,303.105 C1551.16,302.178 1554.78,300.897 1558.75,299.261 L1559.03,299.465 L1559.03,324.324 C1559.03,326.845 1559.32,328.444 1559.9,329.121 C1560.49,329.798 1561.92,330.23 1564.22,330.418 L1564.22,331.465 L1547.62,331.465 L1547.62,330.418 C1550.05,330.272 1551.58,329.85 1552.21,329.152 C1552.84,328.454 1553.15,326.845 1553.15,324.324 L1553.15,308.09 C1553.15,306.548 1552.98,305.472 1552.62,304.863 C1552.27,304.254 1551.67,303.949 1550.84,303.949 M1555.47,283.652 C1556.49,283.652 1557.35,284.001 1558.04,284.699 C1558.74,285.397 1559.09,286.235 1559.09,287.215 C1559.09,288.246 1558.74,289.1 1558.04,289.777 C1557.35,290.454 1556.49,290.793 1555.47,290.793 C1554.48,290.793 1553.64,290.441 1552.97,289.738 C1552.29,289.035 1551.95,288.194 1551.95,287.215 C1551.95,286.235 1552.3,285.397 1553.01,284.699 C1553.71,284.001 1554.53,283.652 1555.47,283.652 M1566.4,303.746 L1566.4,302.558 C1569.77,301.579 1573.04,300.48 1576.22,299.261 L1576.7,299.402 L1576.7,304.793 C1579.6,302.543 1581.74,301.058 1583.14,300.34 C1584.53,299.621 1586,299.261 1587.54,299.261 C1591.23,299.261 1593.71,301.267 1594.97,305.277 C1598.61,301.267 1602.42,299.261 1606.39,299.261 C1611.79,299.261 1614.5,303.449 1614.5,311.824 L1614.5,326.168 C1614.5,328.772 1615.5,330.142 1617.51,330.277 L1619.33,330.418 L1619.33,331.465 L1604,331.465 L1604,330.418 C1606.05,330.188 1607.33,329.793 1607.85,329.23 C1608.37,328.668 1608.62,327.392 1608.62,325.402 L1608.62,310.699 C1608.62,307.824 1608.25,305.829 1607.51,304.715 C1606.76,303.6 1605.38,303.043 1603.37,303.043 C1600.29,303.043 1597.75,304.459 1595.75,307.293 L1595.75,324.84 C1595.75,327.027 1596.08,328.491 1596.76,329.23 C1597.43,329.97 1598.77,330.366 1600.78,330.418 L1600.78,331.465 L1585.11,331.465 L1585.11,330.418 C1587.11,330.272 1588.4,329.897 1588.98,329.293 C1589.57,328.688 1589.86,327.412 1589.86,325.465 L1589.86,310.355 C1589.86,305.48 1588.32,303.043 1585.23,303.043 C1583.93,303.043 1582.47,303.368 1580.87,304.019 C1579.26,304.67 1577.96,305.715 1576.98,307.152 L1576.98,326.793 C1576.98,328.136 1577.31,329.053 1577.96,329.543 C1578.61,330.032 1579.87,330.324 1581.73,330.418 L1581.73,331.465 L1566.2,331.465 L1566.2,330.418 C1568.16,330.366 1569.46,330.017 1570.12,329.371 C1570.77,328.725 1571.09,327.449 1571.09,325.543 L1571.09,307.918 C1571.09,306.251 1570.92,305.092 1570.57,304.441 C1570.22,303.79 1569.58,303.465 1568.65,303.465 C1567.95,303.465 1567.2,303.558 1566.4,303.746 M1621.48,303.949 L1621.48,302.824 C1624.42,301.938 1627.78,300.751 1631.56,299.261 L1631.98,299.402 L1631.98,304.793 C1634.97,301.105 1638.33,299.261 1642.06,299.261 C1645.47,299.261 1648.27,300.668 1650.46,303.48 C1652.65,306.293 1653.75,309.876 1653.75,314.23 C1653.75,319.303 1652.34,323.561 1649.51,327.004 C1646.69,330.446 1643.2,332.168 1639.04,332.168 C1637.56,332.168 1636.31,331.967 1635.3,331.566 C1634.3,331.165 1633.19,330.407 1631.98,329.293 L1631.98,340.183 C1631.98,342.36 1632.35,343.761 1633.1,344.386 C1633.84,345.011 1635.52,345.35 1638.14,345.402 L1638.14,346.652 L1621.2,346.652 L1621.2,345.465 C1623.25,345.277 1624.58,344.881 1625.19,344.277 C1625.79,343.673 1626.09,342.459 1626.09,340.636 L1626.09,307.871 C1626.09,306.235 1625.91,305.162 1625.54,304.652 C1625.17,304.142 1624.4,303.886 1623.23,303.886 C1622.48,303.886 1621.9,303.907 1621.48,303.949 M1631.98,308.105 L1631.98,325.418 C1631.98,326.449 1632.79,327.48 1634.4,328.511 C1636.01,329.543 1637.63,330.058 1639.26,330.058 C1641.78,330.058 1643.83,328.85 1645.39,326.433 C1646.95,324.017 1647.73,320.866 1647.73,316.98 C1647.73,312.897 1646.95,309.623 1645.39,307.16 C1643.83,304.696 1641.74,303.465 1639.12,303.465 C1637.49,303.465 1635.89,303.98 1634.33,305.011 C1632.76,306.043 1631.98,307.074 1631.98,308.105 M1659.84,303.949 C1658.81,303.949 1657.83,304.022 1656.9,304.168 L1656.9,303.105 C1660.16,302.178 1663.78,300.897 1667.75,299.261 L1668.03,299.465 L1668.03,324.324 C1668.03,326.845 1668.32,328.444 1668.9,329.121 C1669.49,329.798 1670.92,330.23 1673.22,330.418 L1673.22,331.465 L1656.62,331.465 L1656.62,330.418 C1659.05,330.272 1660.58,329.85 1661.21,329.152 C1661.84,328.454 1662.15,326.845 1662.15,324.324 L1662.15,308.09 C1662.15,306.548 1661.98,305.472 1661.62,304.863 C1661.27,304.254 1660.67,303.949 1659.84,303.949 M1664.47,283.652 C1665.49,283.652 1666.35,284.001 1667.04,284.699 C1667.74,285.397 1668.09,286.235 1668.09,287.215 C1668.09,288.246 1667.74,289.1 1667.04,289.777 C1666.35,290.454 1665.49,290.793 1664.47,290.793 C1663.48,290.793 1662.64,290.441 1661.97,289.738 C1661.29,289.035 1660.95,288.194 1660.95,287.215 C1660.95,286.235 1661.3,285.397 1662.01,284.699 C1662.71,284.001 1663.53,283.652 1664.47,283.652"/>
<path class="Text" d="M1073.72,225.42 C1062.91,225.42 1053.79,221.586 1046.36,213.92 C1038.92,206.253 1035.2,196.243 1035.2,183.888 C1035.2,171.774 1038.88,161.826 1046.24,154.045 C1053.6,146.263 1063,142.373 1074.44,142.373 C1085.96,142.373 1095.38,146.245 1102.69,153.99 C1110.01,161.735 1113.67,171.862 1113.67,184.373 C1113.67,196.487 1109.97,206.357 1102.58,213.982 C1095.18,221.607 1085.56,225.42 1073.72,225.42 M1100,184.248 C1100,178.508 1099.44,173.407 1098.32,168.943 C1097.2,164.48 1095.78,160.891 1094.06,158.178 C1092.34,155.464 1090.32,153.232 1088,151.482 C1085.67,149.732 1083.41,148.537 1081.22,147.896 C1079.02,147.256 1076.76,146.935 1074.44,146.935 C1070.52,146.935 1067,147.771 1063.88,149.443 C1060.76,151.115 1058.3,153.209 1056.5,155.724 C1054.7,158.24 1053.2,161.211 1052,164.638 C1050.8,168.066 1049.98,171.355 1049.54,174.506 C1049.09,177.657 1048.87,180.868 1048.87,184.138 C1048.87,188.201 1049.27,192.185 1050.08,196.092 C1050.88,199.998 1052.16,203.904 1053.92,207.81 C1055.68,211.717 1058.3,214.868 1061.78,217.263 C1065.26,219.659 1069.4,220.857 1074.2,220.857 C1079.08,220.857 1083.29,219.659 1086.86,217.263 C1090.42,214.868 1093.1,211.717 1094.9,207.81 C1096.69,203.904 1097.99,199.998 1098.79,196.092 C1099.6,192.185 1100,188.237 1100,184.248 M1167.2,142.013 L1167.2,178.748 C1168.4,175.79 1170.56,173.347 1173.68,171.42 C1176.8,169.493 1180.2,168.529 1183.87,168.529 C1189.87,168.529 1194.89,171.04 1198.94,176.06 C1202.98,181.081 1205,187.284 1205,194.67 C1205,203.201 1202.3,210.378 1196.9,216.201 C1191.5,222.024 1184.84,224.935 1176.92,224.935 C1172.12,224.935 1167.62,224.138 1163.42,222.545 C1159.22,220.951 1157.12,219.258 1157.12,217.467 L1157.12,154.982 C1157.12,152.493 1156.74,150.849 1155.98,150.053 C1155.22,149.256 1153.64,148.857 1151.23,148.857 C1150.36,148.857 1149.68,148.899 1149.2,148.982 L1149.2,147.06 C1155.36,145.54 1161.15,143.779 1166.59,141.779 L1167.2,142.013 M1167.2,185.138 L1167.2,215.545 C1167.2,217.066 1168.36,218.409 1170.68,219.576 C1173,220.743 1175.72,221.326 1178.84,221.326 C1183.8,221.326 1187.64,219.477 1190.36,215.779 C1193.08,212.081 1194.44,206.894 1194.44,200.217 C1194.44,192.904 1193.06,187.055 1190.29,182.67 C1187.53,178.284 1183.79,176.092 1179.08,176.092 C1175.96,176.092 1173.2,177.016 1170.8,178.865 C1168.4,180.714 1167.2,182.805 1167.2,185.138 M1211,211.888 C1211,210.451 1211.16,209.115 1211.47,207.881 C1211.79,206.646 1212.35,205.493 1213.15,204.42 C1213.96,203.347 1214.72,202.373 1215.44,201.498 C1216.15,200.623 1217.23,199.727 1218.68,198.81 C1220.12,197.894 1221.32,197.138 1222.28,196.545 C1223.24,195.951 1224.7,195.235 1226.65,194.396 C1228.61,193.558 1230.11,192.92 1231.15,192.482 C1232.2,192.045 1233.84,191.388 1236.08,190.513 C1238.32,189.638 1239.96,189.003 1241,188.607 L1241,181.326 C1241,174.722 1237.96,171.42 1231.87,171.42 C1229.48,171.42 1227.44,171.998 1225.76,173.154 C1224.07,174.31 1223.23,175.691 1223.23,177.295 C1223.23,177.93 1223.33,178.808 1223.54,179.928 C1223.74,181.047 1223.84,181.769 1223.84,182.092 C1223.84,183.456 1223.3,184.638 1222.22,185.638 C1221.13,186.638 1219.87,187.138 1218.44,187.138 C1217.08,187.138 1215.88,186.618 1214.84,185.576 C1213.8,184.534 1213.28,183.331 1213.28,181.967 C1213.28,178.217 1215.22,175.04 1219.1,172.435 C1222.98,169.831 1227.76,168.529 1233.44,168.529 C1240,168.529 1244.52,170.102 1247,173.248 C1249.48,176.394 1250.72,181.196 1250.72,187.654 L1250.72,210.935 C1250.72,213.56 1250.98,215.37 1251.5,216.365 C1252.02,217.36 1252.96,217.857 1254.31,217.857 C1256,217.857 1257.76,217.102 1259.59,215.592 L1259.59,218.732 C1257.52,221.128 1255.7,222.761 1254.14,223.631 C1252.58,224.5 1250.79,224.935 1248.79,224.935 C1246.32,224.935 1244.5,224.237 1243.33,222.842 C1242.17,221.446 1241.44,219.144 1241.12,215.935 C1234.24,221.935 1228.39,224.935 1223.59,224.935 C1219.91,224.935 1216.9,223.714 1214.54,221.271 C1212.18,218.829 1211,215.701 1211,211.888 M1241,208.779 L1241,191.467 C1233.8,194.092 1228.76,196.638 1225.88,199.107 C1223,201.576 1221.56,204.56 1221.56,208.06 C1221.56,211.321 1222.36,213.748 1223.96,215.342 C1225.56,216.935 1227.28,217.732 1229.12,217.732 C1231.84,217.732 1234.76,216.816 1237.87,214.982 C1239.15,214.274 1240,213.521 1240.4,212.724 C1240.8,211.928 1241,210.612 1241,208.779 M1291.08,169.732 L1291.08,173.342 L1278.95,173.342 L1278.95,207.654 C1278.95,211.415 1279.43,214.154 1280.4,215.873 C1281.36,217.592 1282.96,218.451 1285.2,218.451 C1287.68,218.451 1290.08,217.05 1292.4,214.248 L1293.95,215.576 C1290.12,221.816 1285.32,224.935 1279.56,224.935 C1272.44,224.935 1268.87,219.831 1268.87,209.623 L1268.87,173.342 L1262.51,173.342 C1262.2,173.112 1262.04,172.847 1262.04,172.545 C1262.04,172.17 1262.16,171.87 1262.4,171.646 C1262.64,171.422 1263.1,171.105 1263.78,170.693 C1264.46,170.282 1265.28,169.691 1266.24,168.92 C1267.2,168.149 1268.52,166.75 1270.2,164.724 C1271.88,162.698 1273.72,160.263 1275.72,157.42 C1277,155.555 1277.8,154.42 1278.12,154.013 C1278.67,154.013 1278.95,154.54 1278.95,155.592 L1278.95,169.732 L1291.08,169.732 M1330.12,180.295 C1328.91,180.295 1327.43,179.594 1325.67,178.193 C1323.91,176.792 1322.75,176.092 1322.2,176.092 C1320.6,176.092 1318.79,177.253 1316.79,179.576 C1314.79,181.899 1313.79,184.019 1313.79,185.935 L1313.79,212.935 C1313.79,216.373 1314.47,218.691 1315.83,219.888 C1317.19,221.086 1319.91,221.769 1324,221.935 L1324,223.732 L1295.2,223.732 L1295.2,221.935 C1299.03,221.217 1301.41,220.417 1302.33,219.537 C1303.26,218.657 1303.72,216.696 1303.72,213.654 L1303.72,183.654 C1303.72,181.019 1303.42,179.159 1302.82,178.076 C1302.22,176.993 1301.16,176.451 1299.64,176.451 C1298.36,176.451 1296.96,176.612 1295.44,176.935 L1295.44,175.013 C1301.84,172.93 1307.76,170.769 1313.2,168.529 L1313.79,168.779 L1313.79,179.81 C1316.75,175.571 1319.27,172.631 1321.36,170.99 C1323.44,169.349 1325.72,168.529 1328.2,168.529 C1330.27,168.529 1331.89,169.089 1333.05,170.209 C1334.21,171.329 1334.79,172.888 1334.79,174.888 C1334.79,176.576 1334.38,177.899 1333.54,178.857 C1332.7,179.816 1331.56,180.295 1330.12,180.295 M1338,211.888 C1338,210.451 1338.16,209.115 1338.47,207.881 C1338.79,206.646 1339.35,205.493 1340.15,204.42 C1340.96,203.347 1341.72,202.373 1342.44,201.498 C1343.15,200.623 1344.23,199.727 1345.68,198.81 C1347.12,197.894 1348.32,197.138 1349.28,196.545 C1350.24,195.951 1351.7,195.235 1353.65,194.396 C1355.61,193.558 1357.11,192.92 1358.15,192.482 C1359.2,192.045 1360.84,191.388 1363.08,190.513 C1365.32,189.638 1366.96,189.003 1368,188.607 L1368,181.326 C1368,174.722 1364.96,171.42 1358.87,171.42 C1356.48,171.42 1354.44,171.998 1352.76,173.154 C1351.07,174.31 1350.23,175.691 1350.23,177.295 C1350.23,177.93 1350.33,178.808 1350.54,179.928 C1350.74,181.047 1350.84,181.769 1350.84,182.092 C1350.84,183.456 1350.3,184.638 1349.22,185.638 C1348.13,186.638 1346.87,187.138 1345.44,187.138 C1344.08,187.138 1342.88,186.618 1341.84,185.576 C1340.8,184.534 1340.28,183.331 1340.28,181.967 C1340.28,178.217 1342.22,175.04 1346.1,172.435 C1349.98,169.831 1354.76,168.529 1360.44,168.529 C1367,168.529 1371.52,170.102 1374,173.248 C1376.48,176.394 1377.72,181.196 1377.72,187.654 L1377.72,210.935 C1377.72,213.56 1377.98,215.37 1378.5,216.365 C1379.02,217.36 1379.96,217.857 1381.31,217.857 C1383,217.857 1384.76,217.102 1386.59,215.592 L1386.59,218.732 C1384.52,221.128 1382.7,222.761 1381.14,223.631 C1379.58,224.5 1377.79,224.935 1375.79,224.935 C1373.32,224.935 1371.5,224.237 1370.33,222.842 C1369.17,221.446 1368.44,219.144 1368.12,215.935 C1361.24,221.935 1355.39,224.935 1350.59,224.935 C1346.91,224.935 1343.9,223.714 1341.54,221.271 C1339.18,218.829 1338,215.701 1338,211.888 M1368,208.779 L1368,191.467 C1360.8,194.092 1355.76,196.638 1352.88,199.107 C1350,201.576 1348.56,204.56 1348.56,208.06 C1348.56,211.321 1349.36,213.748 1350.96,215.342 C1352.56,216.935 1354.28,217.732 1356.12,217.732 C1358.84,217.732 1361.76,216.816 1364.87,214.982 C1366.15,214.274 1367,213.521 1367.4,212.724 C1367.8,211.928 1368,210.612 1368,208.779 M1388.2,175.857 L1388.2,173.81 C1394.12,172.092 1399.64,170.331 1404.76,168.529 L1405.59,168.763 L1405.59,178.138 C1409.67,174.347 1412.9,171.797 1415.26,170.49 C1417.62,169.183 1420.2,168.529 1423,168.529 C1427.39,168.529 1430.85,170.102 1433.37,173.248 C1435.89,176.394 1437.15,180.79 1437.15,186.435 L1437.15,213.998 C1437.15,216.956 1437.63,218.938 1438.59,219.943 C1439.55,220.948 1441.51,221.612 1444.48,221.935 L1444.48,223.732 L1419.51,223.732 L1419.51,221.935 C1422.56,221.696 1424.58,220.894 1425.58,219.529 C1426.58,218.165 1427.08,215.597 1427.08,211.826 L1427.08,186.685 C1427.08,178.904 1424.15,175.013 1418.31,175.013 C1416.31,175.013 1414.47,175.474 1412.79,176.396 C1411.12,177.318 1408.84,179.144 1405.95,181.873 L1405.95,215.67 C1405.95,217.836 1406.51,219.362 1407.63,220.248 C1408.75,221.133 1410.83,221.696 1413.87,221.935 L1413.87,223.732 L1388.44,223.732 L1388.44,221.935 C1391.48,221.696 1393.48,220.993 1394.44,219.826 C1395.39,218.659 1395.87,216.352 1395.87,212.904 L1395.87,183.076 C1395.87,180.107 1395.55,178.081 1394.91,176.998 C1394.27,175.915 1393.11,175.373 1391.44,175.373 C1389.91,175.373 1388.84,175.534 1388.2,175.857 M1449,211.888 C1449,210.451 1449.16,209.115 1449.47,207.881 C1449.79,206.646 1450.35,205.493 1451.15,204.42 C1451.96,203.347 1452.72,202.373 1453.44,201.498 C1454.15,200.623 1455.23,199.727 1456.68,198.81 C1458.12,197.894 1459.32,197.138 1460.28,196.545 C1461.24,195.951 1462.7,195.235 1464.65,194.396 C1466.61,193.558 1468.11,192.92 1469.15,192.482 C1470.2,192.045 1471.84,191.388 1474.08,190.513 C1476.32,189.638 1477.96,189.003 1479,188.607 L1479,181.326 C1479,174.722 1475.96,171.42 1469.87,171.42 C1467.48,171.42 1465.44,171.998 1463.76,173.154 C1462.07,174.31 1461.23,175.691 1461.23,177.295 C1461.23,177.93 1461.33,178.808 1461.54,179.928 C1461.74,181.047 1461.84,181.769 1461.84,182.092 C1461.84,183.456 1461.3,184.638 1460.22,185.638 C1459.13,186.638 1457.87,187.138 1456.44,187.138 C1455.08,187.138 1453.88,186.618 1452.84,185.576 C1451.8,184.534 1451.28,183.331 1451.28,181.967 C1451.28,178.217 1453.22,175.04 1457.1,172.435 C1460.98,169.831 1465.76,168.529 1471.44,168.529 C1478,168.529 1482.52,170.102 1485,173.248 C1487.48,176.394 1488.72,181.196 1488.72,187.654 L1488.72,210.935 C1488.72,213.56 1488.98,215.37 1489.5,216.365 C1490.02,217.36 1490.96,217.857 1492.31,217.857 C1494,217.857 1495.76,217.102 1497.59,215.592 L1497.59,218.732 C1495.52,221.128 1493.7,222.761 1492.14,223.631 C1490.58,224.5 1488.79,224.935 1486.79,224.935 C1484.32,224.935 1482.5,224.237 1481.33,222.842 C1480.17,221.446 1479.44,219.144 1479.12,215.935 C1472.24,221.935 1466.39,224.935 1461.59,224.935 C1457.91,224.935 1454.9,223.714 1452.54,221.271 C1450.18,218.829 1449,215.701 1449,211.888 M1479,208.779 L1479,191.467 C1471.8,194.092 1466.76,196.638 1463.88,199.107 C1461,201.576 1459.56,204.56 1459.56,208.06 C1459.56,211.321 1460.36,213.748 1461.96,215.342 C1463.56,216.935 1465.28,217.732 1467.12,217.732 C1469.84,217.732 1472.76,216.816 1475.87,214.982 C1477.15,214.274 1478,213.521 1478.4,212.724 C1478.8,211.928 1479,210.612 1479,208.779 M1535.44,176.576 C1533.67,176.576 1532,176.696 1530.4,176.935 L1530.4,175.138 C1536,173.534 1542.2,171.331 1549,168.529 L1549.48,168.888 L1549.48,211.498 C1549.48,215.81 1549.98,218.547 1550.98,219.709 C1551.98,220.87 1554.44,221.612 1558.36,221.935 L1558.36,223.732 L1529.92,223.732 L1529.92,221.935 C1534.08,221.696 1536.7,220.974 1537.78,219.771 C1538.86,218.568 1539.4,215.81 1539.4,211.498 L1539.4,183.654 C1539.4,181.019 1539.1,179.18 1538.5,178.138 C1537.89,177.097 1536.87,176.576 1535.44,176.576 M1543.36,141.779 C1545.12,141.779 1546.6,142.378 1547.79,143.576 C1548.99,144.774 1549.59,146.211 1549.59,147.888 C1549.59,149.649 1548.99,151.11 1547.79,152.271 C1546.6,153.433 1545.12,154.013 1543.36,154.013 C1541.68,154.013 1540.26,153.415 1539.1,152.217 C1537.94,151.019 1537.36,149.579 1537.36,147.896 C1537.36,146.214 1537.96,144.774 1539.15,143.576 C1540.35,142.378 1541.75,141.779 1543.36,141.779 M1562.2,175.857 L1562.2,173.81 C1568.12,172.092 1573.64,170.331 1578.76,168.529 L1579.59,168.763 L1579.59,178.138 C1583.67,174.347 1586.9,171.797 1589.26,170.49 C1591.62,169.183 1594.2,168.529 1597,168.529 C1601.39,168.529 1604.85,170.102 1607.37,173.248 C1609.89,176.394 1611.15,180.79 1611.15,186.435 L1611.15,213.998 C1611.15,216.956 1611.63,218.938 1612.59,219.943 C1613.55,220.948 1615.51,221.612 1618.48,221.935 L1618.48,223.732 L1593.51,223.732 L1593.51,221.935 C1596.56,221.696 1598.58,220.894 1599.58,219.529 C1600.58,218.165 1601.08,215.597 1601.08,211.826 L1601.08,186.685 C1601.08,178.904 1598.15,175.013 1592.31,175.013 C1590.31,175.013 1588.47,175.474 1586.79,176.396 C1585.12,177.318 1582.84,179.144 1579.95,181.873 L1579.95,215.67 C1579.95,217.836 1580.51,219.362 1581.63,220.248 C1582.75,221.133 1584.83,221.696 1587.87,221.935 L1587.87,223.732 L1562.44,223.732 L1562.44,221.935 C1565.48,221.696 1567.48,220.993 1568.44,219.826 C1569.39,218.659 1569.87,216.352 1569.87,212.904 L1569.87,183.076 C1569.87,180.107 1569.55,178.081 1568.91,176.998 C1568.27,175.915 1567.11,175.373 1565.44,175.373 C1563.91,175.373 1562.84,175.534 1562.2,175.857 M1651.08,169.732 L1651.08,173.342 L1638.95,173.342 L1638.95,207.654 C1638.95,211.415 1639.43,214.154 1640.4,215.873 C1641.36,217.592 1642.96,218.451 1645.2,218.451 C1647.68,218.451 1650.08,217.05 1652.4,214.248 L1653.95,215.576 C1650.12,221.816 1645.32,224.935 1639.56,224.935 C1632.44,224.935 1628.87,219.831 1628.87,209.623 L1628.87,173.342 L1622.51,173.342 C1622.2,173.112 1622.04,172.847 1622.04,172.545 C1622.04,172.17 1622.16,171.87 1622.4,171.646 C1622.64,171.422 1623.1,171.105 1623.78,170.693 C1624.46,170.282 1625.28,169.691 1626.24,168.92 C1627.2,168.149 1628.52,166.75 1630.2,164.724 C1631.88,162.698 1633.72,160.263 1635.72,157.42 C1637,155.555 1637.8,154.42 1638.12,154.013 C1638.67,154.013 1638.95,154.54 1638.95,155.592 L1638.95,169.732 L1651.08,169.732 M1690.12,180.295 C1688.91,180.295 1687.43,179.594 1685.67,178.193 C1683.91,176.792 1682.75,176.092 1682.2,176.092 C1680.6,176.092 1678.79,177.253 1676.79,179.576 C1674.79,181.899 1673.79,184.019 1673.79,185.935 L1673.79,212.935 C1673.79,216.373 1674.47,218.691 1675.83,219.888 C1677.19,221.086 1679.91,221.769 1684,221.935 L1684,223.732 L1655.2,223.732 L1655.2,221.935 C1659.03,221.217 1661.41,220.417 1662.33,219.537 C1663.26,218.657 1663.72,216.696 1663.72,213.654 L1663.72,183.654 C1663.72,181.019 1663.42,179.159 1662.82,178.076 C1662.22,176.993 1661.16,176.451 1659.64,176.451 C1658.36,176.451 1656.96,176.612 1655.44,176.935 L1655.44,175.013 C1661.84,172.93 1667.76,170.769 1673.2,168.529 L1673.79,168.779 L1673.79,179.81 C1676.75,175.571 1679.27,172.631 1681.36,170.99 C1683.44,169.349 1685.72,168.529 1688.2,168.529 C1690.27,168.529 1691.89,169.089 1693.05,170.209 C1694.21,171.329 1694.79,172.888 1694.79,174.888 C1694.79,176.576 1694.38,177.899 1693.54,178.857 C1692.7,179.816 1691.56,180.295 1690.12,180.295 M1699.69,192.888 L1729.2,192.888 L1729.2,200.451 L1699.69,200.451 L1699.69,192.888 M1764.51,168.529 C1772.19,168.529 1778.51,171.092 1783.47,176.217 C1788.44,181.342 1790.92,187.826 1790.92,195.67 C1790.92,203.982 1788.36,210.938 1783.24,216.537 C1778.12,222.136 1771.8,224.935 1764.28,224.935 C1756.76,224.935 1750.5,222.235 1745.5,216.834 C1740.5,211.433 1738,204.696 1738,196.623 C1738,188.383 1740.46,181.641 1745.38,176.396 C1750.3,171.152 1756.68,168.529 1764.51,168.529 M1748.79,190.795 C1748.79,199.274 1750.35,206.482 1753.47,212.42 C1756.59,218.357 1760.67,221.326 1765.72,221.326 C1770.2,221.326 1773.72,219.425 1776.28,215.623 C1778.84,211.821 1780.12,206.555 1780.12,199.826 C1780.12,191.659 1778.52,185.003 1775.32,179.857 C1772.12,174.711 1767.99,172.138 1762.95,172.138 C1758.71,172.138 1755.29,173.842 1752.69,177.248 C1750.09,180.654 1748.79,185.17 1748.79,190.795 M1831.2,217.248 C1831.2,215.727 1831.74,214.329 1832.82,213.053 C1833.9,211.777 1836.91,208.816 1841.87,204.17 C1837.87,202.159 1835.01,199.909 1833.29,197.42 C1831.58,194.93 1830.72,191.8 1830.72,188.029 C1830.72,182.602 1832.66,177.995 1836.54,174.209 C1840.42,170.422 1845.16,168.529 1850.76,168.529 C1853.88,168.529 1857.22,169.191 1860.78,170.513 C1864.34,171.836 1867.28,172.498 1869.59,172.498 L1878.84,172.498 L1878.84,177.06 L1868.87,177.06 C1870.39,180.508 1871.15,183.883 1871.15,187.185 C1871.15,192.727 1869.29,197.224 1865.58,200.678 C1861.86,204.131 1857.48,205.857 1852.44,205.857 C1851.48,205.857 1849.2,205.654 1845.59,205.248 C1844,205.727 1842.4,206.808 1840.8,208.49 C1839.2,210.172 1838.4,211.612 1838.4,212.81 C1838.4,214.727 1841.52,215.805 1847.76,216.045 L1863.23,216.779 C1867.64,216.935 1871.16,218.172 1873.8,220.49 C1876.44,222.808 1877.76,225.847 1877.76,229.607 C1877.76,235.368 1874.46,240.188 1867.86,244.068 C1861.25,247.948 1854.15,249.888 1846.56,249.888 C1840.88,249.888 1836,248.748 1831.92,246.467 C1827.84,244.185 1825.79,241.446 1825.79,238.248 C1825.79,236.008 1826.7,233.79 1828.5,231.592 C1830.3,229.394 1833.32,226.732 1837.56,223.607 C1835.08,222.409 1833.4,221.37 1832.52,220.49 C1831.64,219.61 1831.2,218.529 1831.2,217.248 M1840.08,223.967 C1837.6,226.935 1836,229.058 1835.28,230.334 C1834.56,231.61 1834.2,232.93 1834.2,234.295 C1834.2,236.93 1835.8,239.047 1839,240.646 C1842.2,242.245 1846.44,243.045 1851.72,243.045 C1858.52,243.045 1864,241.967 1868.15,239.81 C1872.31,237.654 1874.39,234.857 1874.39,231.42 C1874.39,229.253 1873.27,227.73 1871.03,226.849 C1868.79,225.969 1864.95,225.529 1859.51,225.529 C1851.44,225.529 1844.96,225.008 1840.08,223.967 M1861.92,191.888 C1861.92,190.545 1861.76,188.928 1861.44,187.037 C1861.11,185.146 1860.55,182.998 1859.76,180.592 C1858.96,178.185 1857.68,176.175 1855.92,174.56 C1854.16,172.946 1852.04,172.138 1849.56,172.138 C1846.76,172.138 1844.58,173.107 1843.01,175.045 C1841.45,176.982 1840.67,179.659 1840.67,183.076 C1840.67,189.993 1841.95,195.019 1844.51,198.154 C1847.08,201.29 1849.88,202.857 1852.92,202.857 C1855.72,202.857 1857.92,201.873 1859.52,199.904 C1861.12,197.935 1861.92,195.263 1861.92,191.888 M1883,211.888 C1883,210.451 1883.16,209.115 1883.47,207.881 C1883.79,206.646 1884.35,205.493 1885.15,204.42 C1885.96,203.347 1886.72,202.373 1887.44,201.498 C1888.15,200.623 1889.23,199.727 1890.68,198.81 C1892.12,197.894 1893.32,197.138 1894.28,196.545 C1895.24,195.951 1896.7,195.235 1898.65,194.396 C1900.61,193.558 1902.11,192.92 1903.15,192.482 C1904.2,192.045 1905.84,191.388 1908.08,190.513 C1910.32,189.638 1911.96,189.003 1913,188.607 L1913,181.326 C1913,174.722 1909.96,171.42 1903.87,171.42 C1901.48,171.42 1899.44,171.998 1897.76,173.154 C1896.07,174.31 1895.23,175.691 1895.23,177.295 C1895.23,177.93 1895.33,178.808 1895.54,179.928 C1895.74,181.047 1895.84,181.769 1895.84,182.092 C1895.84,183.456 1895.3,184.638 1894.22,185.638 C1893.13,186.638 1891.87,187.138 1890.44,187.138 C1889.08,187.138 1887.88,186.618 1886.84,185.576 C1885.8,184.534 1885.28,183.331 1885.28,181.967 C1885.28,178.217 1887.22,175.04 1891.1,172.435 C1894.98,169.831 1899.76,168.529 1905.44,168.529 C1912,168.529 1916.52,170.102 1919,173.248 C1921.48,176.394 1922.72,181.196 1922.72,187.654 L1922.72,210.935 C1922.72,213.56 1922.98,215.37 1923.5,216.365 C1924.02,217.36 1924.96,217.857 1926.31,217.857 C1928,217.857 1929.76,217.102 1931.59,215.592 L1931.59,218.732 C1929.52,221.128 1927.7,222.761 1926.14,223.631 C1924.58,224.5 1922.79,224.935 1920.79,224.935 C1918.32,224.935 1916.5,224.237 1915.33,222.842 C1914.17,221.446 1913.44,219.144 1913.12,215.935 C1906.24,221.935 1900.39,224.935 1895.59,224.935 C1891.91,224.935 1888.9,223.714 1886.54,221.271 C1884.18,218.829 1883,215.701 1883,211.888 M1913,208.779 L1913,191.467 C1905.8,194.092 1900.76,196.638 1897.88,199.107 C1895,201.576 1893.56,204.56 1893.56,208.06 C1893.56,211.321 1894.36,213.748 1895.96,215.342 C1897.56,216.935 1899.28,217.732 1901.12,217.732 C1903.84,217.732 1906.76,216.816 1909.87,214.982 C1911.15,214.274 1912,213.521 1912.4,212.724 C1912.8,211.928 1913,210.612 1913,208.779 M1968.12,180.295 C1966.91,180.295 1965.43,179.594 1963.67,178.193 C1961.91,176.792 1960.75,176.092 1960.2,176.092 C1958.6,176.092 1956.79,177.253 1954.79,179.576 C1952.79,181.899 1951.79,184.019 1951.79,185.935 L1951.79,212.935 C1951.79,216.373 1952.47,218.691 1953.83,219.888 C1955.19,221.086 1957.91,221.769 1962,221.935 L1962,223.732 L1933.2,223.732 L1933.2,221.935 C1937.03,221.217 1939.41,220.417 1940.33,219.537 C1941.26,218.657 1941.72,216.696 1941.72,213.654 L1941.72,183.654 C1941.72,181.019 1941.42,179.159 1940.82,178.076 C1940.22,176.993 1939.16,176.451 1937.64,176.451 C1936.36,176.451 1934.96,176.612 1933.44,176.935 L1933.44,175.013 C1939.84,172.93 1945.76,170.769 1951.2,168.529 L1951.79,168.779 L1951.79,179.81 C1954.75,175.571 1957.27,172.631 1959.36,170.99 C1961.44,169.349 1963.72,168.529 1966.2,168.529 C1968.27,168.529 1969.89,169.089 1971.05,170.209 C1972.21,171.329 1972.79,172.888 1972.79,174.888 C1972.79,176.576 1972.38,177.899 1971.54,178.857 C1970.7,179.816 1969.56,180.295 1968.12,180.295 M1976,211.888 C1976,210.451 1976.16,209.115 1976.47,207.881 C1976.79,206.646 1977.35,205.493 1978.15,204.42 C1978.96,203.347 1979.72,202.373 1980.44,201.498 C1981.15,200.623 1982.23,199.727 1983.68,198.81 C1985.12,197.894 1986.32,197.138 1987.28,196.545 C1988.24,195.951 1989.7,195.235 1991.65,194.396 C1993.61,193.558 1995.11,192.92 1996.15,192.482 C1997.2,192.045 1998.84,191.388 2001.08,190.513 C2003.32,189.638 2004.96,189.003 2006,188.607 L2006,181.326 C2006,174.722 2002.96,171.42 1996.87,171.42 C1994.48,171.42 1992.44,171.998 1990.76,173.154 C1989.07,174.31 1988.23,175.691 1988.23,177.295 C1988.23,177.93 1988.33,178.808 1988.54,179.928 C1988.74,181.047 1988.84,181.769 1988.84,182.092 C1988.84,183.456 1988.3,184.638 1987.22,185.638 C1986.13,186.638 1984.87,187.138 1983.44,187.138 C1982.08,187.138 1980.88,186.618 1979.84,185.576 C1978.8,184.534 1978.28,183.331 1978.28,181.967 C1978.28,178.217 1980.22,175.04 1984.1,172.435 C1987.98,169.831 1992.76,168.529 1998.44,168.529 C2005,168.529 2009.52,170.102 2012,173.248 C2014.48,176.394 2015.72,181.196 2015.72,187.654 L2015.72,210.935 C2015.72,213.56 2015.98,215.37 2016.5,216.365 C2017.02,217.36 2017.96,217.857 2019.31,217.857 C2021,217.857 2022.76,217.102 2024.59,215.592 L2024.59,218.732 C2022.52,221.128 2020.7,222.761 2019.14,223.631 C2017.58,224.5 2015.79,224.935 2013.79,224.935 C2011.32,224.935 2009.5,224.237 2008.33,222.842 C2007.17,221.446 2006.44,219.144 2006.12,215.935 C1999.24,221.935 1993.39,224.935 1988.59,224.935 C1984.91,224.935 1981.9,223.714 1979.54,221.271 C1977.18,218.829 1976,215.701 1976,211.888 M2006,208.779 L2006,191.467 C1998.8,194.092 1993.76,196.638 1990.88,199.107 C1988,201.576 1986.56,204.56 1986.56,208.06 C1986.56,211.321 1987.36,213.748 1988.96,215.342 C1990.56,216.935 1992.28,217.732 1994.12,217.732 C1996.84,217.732 1999.76,216.816 2002.87,214.982 C2004.15,214.274 2005,213.521 2005.4,212.724 C2005.8,211.928 2006,210.612 2006,208.779"/>
<path class="MeasureNumber" d="M146.513,983.952 C146.513,982.535 146.198,981.282 145.568,980.194 C144.938,979.105 144.178,978.261 143.287,977.662 C142.396,977.064 141.399,976.571 140.295,976.186 C139.191,975.8 138.23,975.548 137.412,975.428 C136.594,975.308 135.883,975.248 135.279,975.248 C134.956,975.248 134.795,975.139 134.795,974.92 C134.795,974.847 134.805,974.78 134.826,974.717 L139.185,965.264 L147.545,965.264 C147.972,965.264 148.313,965.196 148.568,965.061 C148.823,964.925 149.097,964.644 149.388,964.217 L149.748,964.498 L148.232,968.061 C148.128,968.3 147.821,968.42 147.31,968.42 L139.467,968.42 L137.795,971.811 C141.68,972.498 144.571,973.621 146.467,975.178 C148.362,976.735 149.31,979.019 149.31,982.03 C149.31,983.603 149.063,985.004 148.568,986.233 C148.073,987.462 147.446,988.452 146.685,989.202 C145.925,989.952 145.045,990.566 144.045,991.045 C143.045,991.524 142.086,991.853 141.17,992.03 C140.253,992.207 139.326,992.295 138.388,992.295 C136.899,992.295 135.714,992.074 134.834,991.631 C133.954,991.189 133.513,990.582 133.513,989.811 C133.513,988.821 134.086,988.327 135.232,988.327 C135.982,988.327 136.948,988.735 138.131,989.553 C139.313,990.371 140.253,990.78 140.951,990.78 C142.524,990.78 143.844,990.121 144.912,988.803 C145.98,987.485 146.513,985.868 146.513,983.952"/>
<polyline class="BarLine" fill="none" stroke="#000000" stroke-width="4.00" stroke-linejoin="bevel" points="2895.77,1040.73 2895.77,1142.73"/>
<polyline class="BarLine" fill="none" stroke="#000000" stroke-width="12.50" stroke-linejoin="bevel" points="2912.02,1040.73 2912.02,1142.73"/>
<polyline class="BarLine" fill="none" stroke="#000000" stroke-width="4.00" stroke-linejoin="bevel" points="2607.1,1040.73 2607.1,1142.73"/>
<polyline class="BarLine" fill="none" stroke="#000000" stroke-width="4.00" stroke-linejoin="bevel" points="2321.24,1040.73 2321.24,1142.73"/>
<polyline class="BarLine" fill="none" stroke="#000000" stroke-width="4.00" stroke-linejoin="bevel" points="2035.38,1040.73 2035.38,1142.73"/>
<polyline class="BarLine" fill="none" stroke="#000000" stroke-width="4.00" stroke-linejoin="bevel" points="1749.52,1040.73 1749.52,1142.73"/>
<polyline class="BarLine" fill="none" stroke="#000000" stroke-width="4.00" stroke-linejoin="bevel" points="1463.66,1040.73 1463.66,1142.73"/>
<polyline class="BarLine" fill="none" stroke="#000000" stroke-width="4.00" stroke-linejoin="bevel" points="1177.8,1040.73 1177.8,1142.73"/>
<polyline class="BarLine" fill="none" stroke="#000000" stroke-width="4.00" stroke-linejoin="bevel" points="869.136,1040.73 869.136,1142.73"/>
<polyline class="BarLine" fill="none" stroke="#000000" stroke-width="4.00" stroke-linejoin="bevel" points="583.277,1040.73 583.277,1142.73"/>
<polyline class="BarLine" fill="none" stroke="#000000" stroke-width="4.00" stroke-linejoin="bevel" points="2916.27,565.733 2916.27,667.733"/>
<polyline class="BarLine" fill="none" stroke="#000000" stroke-width="4.00" stroke-linejoin="bevel" points="2305.42,565.733 2305.42,667.733"/>
<polyline class="BarLine" fill="none" stroke="#000000" stroke-width="4.00" stroke-linejoin="bevel" points="1605.78,565.733 1605.78,667.733"/>
<polyline class="BarLine" fill="none" stroke="#000000" stroke-width="4.00" stroke-linejoin="bevel" points="953.435,565.733 953.435,667.733"/>
<path class="Accidental" d="M422.88,1147.89 C422.88,1149.13 422.263,1149.75 421.028,1149.75 C419.794,1149.75 419.177,1149.13 419.177,1147.89 L419.177,1133.44 L410.88,1136.56 L410.88,1152.37 C410.88,1153.61 410.26,1154.23 409.021,1154.23 C407.781,1154.23 407.161,1153.61 407.161,1152.37 L407.161,1137.83 L404.036,1139 C403.974,1139.06 403.713,1139.09 403.255,1139.09 C402.734,1139.09 402.278,1138.9 401.888,1138.51 C401.497,1138.12 401.302,1137.66 401.302,1137.14 L401.302,1131.09 C401.302,1130.11 401.724,1129.49 402.567,1129.23 L407.161,1127.67 L407.161,1111.65 L404.036,1112.73 C403.974,1112.8 403.713,1112.83 403.255,1112.83 C402.734,1112.83 402.278,1112.63 401.888,1112.24 C401.497,1111.85 401.302,1111.39 401.302,1110.87 L401.302,1104.81 C401.302,1103.9 401.724,1103.32 402.567,1103.06 L407.161,1101.3 L407.161,1085.58 C407.161,1084.34 407.781,1083.72 409.021,1083.72 C410.26,1083.72 410.88,1084.34 410.88,1085.58 L410.88,1100.03 L419.177,1096.9 L419.177,1081.09 C419.177,1079.85 419.794,1079.23 421.028,1079.23 C422.263,1079.23 422.88,1079.85 422.88,1081.09 L422.88,1095.64 L426.114,1094.47 C426.177,1094.4 426.401,1094.37 426.786,1094.37 C427.244,1094.37 427.734,1094.57 428.255,1094.95 C428.651,1095.35 428.849,1095.81 428.849,1096.33 L428.849,1102.37 C428.849,1103.29 428.39,1103.91 427.474,1104.23 L422.88,1105.8 L422.88,1121.81 L426.114,1120.73 C426.177,1120.67 426.401,1120.64 426.786,1120.64 C427.244,1120.64 427.734,1120.84 428.255,1121.23 C428.651,1121.62 428.849,1122.07 428.849,1122.59 L428.849,1128.65 C428.849,1129.5 428.39,1130.08 427.474,1130.4 L422.88,1132.17 L422.88,1147.89 M419.177,1107.26 L410.88,1110.19 L410.88,1126.2 L419.177,1123.28 L419.177,1107.26 "/>
<path class="Accidental" d="M1954.95,554.233 C1955.79,553.774 1956.64,553.545 1957.49,553.545 C1958.33,553.545 1959.18,553.774 1960.02,554.233 L1959.73,572.498 L1970.38,570.545 L1970.77,570.545 C1971.94,570.545 1972.52,571.097 1972.52,572.201 L1973.21,629.233 C1972.37,629.691 1971.52,629.92 1970.67,629.92 C1969.82,629.92 1968.98,629.691 1968.13,629.233 L1968.43,610.967 L1957.88,612.92 L1957.49,612.92 C1956.32,612.92 1955.73,612.368 1955.73,611.264 L1954.95,554.233 M1968.52,601.201 L1968.82,580.498 L1959.63,582.264 L1959.34,602.967 L1968.52,601.201 "/>
<path class="Accidental" d="M1642.36,622.889 C1642.36,624.128 1641.74,624.748 1640.51,624.748 C1639.27,624.748 1638.65,624.128 1638.65,622.889 L1638.65,608.436 L1630.36,611.561 L1630.36,627.373 C1630.36,628.613 1629.74,629.233 1628.5,629.233 C1627.26,629.233 1626.64,628.613 1626.64,627.373 L1626.64,612.826 L1623.51,613.998 C1623.45,614.061 1623.19,614.092 1622.73,614.092 C1622.21,614.092 1621.76,613.897 1621.36,613.506 C1620.97,613.115 1620.78,612.66 1620.78,612.139 L1620.78,606.092 C1620.78,605.113 1621.2,604.493 1622.04,604.233 L1626.64,602.67 L1626.64,586.654 L1623.51,587.733 C1623.45,587.795 1623.19,587.826 1622.73,587.826 C1622.21,587.826 1621.76,587.631 1621.36,587.24 C1620.97,586.85 1620.78,586.394 1620.78,585.873 L1620.78,579.811 C1620.78,578.904 1621.2,578.321 1622.04,578.061 L1626.64,576.295 L1626.64,560.576 C1626.64,559.337 1627.26,558.717 1628.5,558.717 C1629.74,558.717 1630.36,559.337 1630.36,560.576 L1630.36,575.029 L1638.65,571.904 L1638.65,556.092 C1638.65,554.852 1639.27,554.233 1640.51,554.233 C1641.74,554.233 1642.36,554.852 1642.36,556.092 L1642.36,570.639 L1645.59,569.467 C1645.65,569.404 1645.88,569.373 1646.26,569.373 C1646.72,569.373 1647.21,569.566 1647.73,569.951 C1648.13,570.347 1648.33,570.805 1648.33,571.326 L1648.33,577.373 C1648.33,578.29 1647.87,578.91 1646.95,579.233 L1642.36,580.795 L1642.36,596.811 L1645.59,595.733 C1645.65,595.67 1645.88,595.639 1646.26,595.639 C1646.72,595.639 1647.21,595.837 1647.73,596.233 C1648.13,596.618 1648.33,597.071 1648.33,597.592 L1648.33,603.654 C1648.33,604.498 1647.87,605.081 1646.95,605.404 L1642.36,607.17 L1642.36,622.889 M1638.65,582.264 L1630.36,585.186 L1630.36,601.201 L1638.65,598.279 L1638.65,582.264 "/>
<polyline class="LedgerLine" fill="none" stroke="#000000" stroke-width="4.00" stroke-linecap="square" stroke-linejoin="bevel" points="1099.63,1016.73 1147.55,1016.73"/>
<polyline class="LedgerLine" fill="none" stroke="#000000" stroke-width="4.00" stroke-linecap="square" stroke-linejoin="bevel" points="1030.97,1016.73 1078.88,1016.73"/>
<polyline class="Stem" fill="none" stroke="#000000" stroke-width="3.25" stroke-linecap="round" stroke-linejoin="bevel" points="2768.06,1058.93 2768.06,1141.73"/>
<polyline class="Stem" fill="none" stroke="#000000" stroke-width="3.25" stroke-linecap="round" stroke-linejoin="bevel" points="2704.39,1071.43 2704.39,1151.11"/>
<polyline class="Stem" fill="none" stroke="#000000" stroke-width="3.25" stroke-linecap="round" stroke-linejoin="bevel" points="2640.72,1083.93 2640.72,1160.48"/>
<polyline class="Stem" fill="none" stroke="#000000" stroke-width="3.25" stroke-linecap="round" stroke-linejoin="bevel" points="2543.76,1071.43 2543.76,1151.11"/>
<polyline class="Stem" fill="none" stroke="#000000" stroke-width="3.25" stroke-linecap="round" stroke-linejoin="bevel" points="2480.79,1058.93 2480.79,1141.73"/>
<polyline class="Stem" fill="none" stroke="#000000" stroke-width="3.25" stroke-linecap="round" stroke-linejoin="bevel" points="2417.83,1046.43 2417.83,1129.23"/>
<polyline class="Stem" fill="none" stroke="#000000" stroke-width="3.25" stroke-linecap="round" stroke-linejoin="bevel" points="2354.86,1058.93 2354.86,1141.73"/>
<polyline class="Stem" fill="none" stroke="#000000" stroke-width="3.25" stroke-linecap="round" stroke-linejoin="bevel" points="2287.56,1099.54 2287.56,1022.98"/>
<polyline class="Stem" fill="none" stroke="#000000" stroke-width="3.25" stroke-linecap="round" stroke-linejoin="bevel" points="2194.93,1096.43 2194.93,1169.86"/>
<polyline class="Stem" fill="none" stroke="#000000" stroke-width="3.25" stroke-linecap="round" stroke-linejoin="bevel" points="2131.97,1083.93 2131.97,1160.48"/>
<polyline class="Stem" fill="none" stroke="#000000" stroke-width="3.25" stroke-linecap="round" stroke-linejoin="bevel" points="2069,1071.43 2069,1151.11"/>
<polyline class="Stem" fill="none" stroke="#000000" stroke-width="3.25" stroke-linecap="round" stroke-linejoin="bevel" points="1972.04,1058.93 1972.04,1141.73"/>
<polyline class="Stem" fill="none" stroke="#000000" stroke-width="3.25" stroke-linecap="round" stroke-linejoin="bevel" points="1909.07,1046.43 1909.07,1129.23"/>
<polyline class="Stem" fill="none" stroke="#000000" stroke-width="3.25" stroke-linecap="round" stroke-linejoin="bevel" points="1846.11,1033.93 1846.11,1116.73"/>
<polyline class="Stem" fill="none" stroke="#000000" stroke-width="3.25" stroke-linecap="round" stroke-linejoin="bevel" points="1783.14,1046.43 1783.14,1129.23"/>
<polyline class="Stem" fill="none" stroke="#000000" stroke-width="3.25" stroke-linecap="round" stroke-linejoin="bevel" points="1686.18,1058.93 1686.18,1141.73"/>
<polyline class="Stem" fill="none" stroke="#000000" stroke-width="3.25" stroke-linecap="round" stroke-linejoin="bevel" points="1623.21,1071.43 1623.21,1151.11"/>
<polyline class="Stem" fill="none" stroke="#000000" stroke-width="3.25" stroke-linecap="round" stroke-linejoin="bevel" points="1560.25,1071.43 1560.25,1151.11"/>
<polyline class="Stem" fill="none" stroke="#000000" stroke-width="3.25" stroke-linecap="round" stroke-linejoin="bevel" points="1497.28,1058.93 1497.28,1141.73"/>
<polyline class="Stem" fill="none" stroke="#000000" stroke-width="3.25" stroke-linecap="round" stroke-linejoin="bevel" points="1400.32,1046.43 1400.32,1129.23"/>
<polyline class="Stem" fill="none" stroke="#000000" stroke-width="3.25" stroke-linecap="round" stroke-linejoin="bevel" points="1337.35,1046.43 1337.35,1129.23"/>
<polyline class="Stem" fill="none" stroke="#000000" stroke-width="3.25" stroke-linecap="round" stroke-linejoin="bevel" points="1274.39,1033.93 1274.39,1116.73"/>
<polyline class="Stem" fill="none" stroke="#000000" stroke-width="3.25" stroke-linecap="round" stroke-linejoin="bevel" points="1211.42,1033.93 1211.42,1116.73"/>
<polyline class="Stem" fill="none" stroke="#000000" stroke-width="3.25" stroke-linecap="round" stroke-linejoin="bevel" points="1108.76,1021.43 1108.76,1104.23"/>
<polyline class="Stem" fill="none" stroke="#000000" stroke-width="3.25" stroke-linecap="round" stroke-linejoin="bevel" points="1040.09,1021.43 1040.09,1104.23"/>
<polyline class="Stem" fill="none" stroke="#000000" stroke-width="3.25" stroke-linecap="round" stroke-linejoin="bevel" points="971.426,1058.93 971.426,1141.73"/>
<polyline class="Stem" fill="none" stroke="#000000" stroke-width="3.25" stroke-linecap="round" stroke-linejoin="bevel" points="902.761,1046.43 902.761,1129.23"/>
<polyline class="Stem" fill="none" stroke="#000000" stroke-width="3.25" stroke-linecap="round" stroke-linejoin="bevel" points="805.796,1058.93 805.796,1141.73"/>
<polyline class="Stem" fill="none" stroke="#000000" stroke-width="3.25" stroke-linecap="round" stroke-linejoin="bevel" points="742.831,1071.43 742.831,1151.11"/>
<polyline class="Stem" fill="none" stroke="#000000" stroke-width="3.25" stroke-linecap="round" stroke-linejoin="bevel" points="679.867,1083.93 679.867,1160.48"/>
<polyline class="Stem" fill="none" stroke="#000000" stroke-width="3.25" stroke-linecap="round" stroke-linejoin="bevel" points="616.902,1096.43 616.902,1169.86"/>
<polyline class="Stem" fill="none" stroke="#000000" stroke-width="3.25" stroke-linecap="round" stroke-linejoin="bevel" points="539.098,1099.54 539.098,1022.98"/>
<polyline class="Stem" fill="none" stroke="#000000" stroke-width="3.25" stroke-linecap="round" stroke-linejoin="bevel" points="465.63,1112.04 465.63,1032.36"/>
<polyline class="Stem" fill="none" stroke="#000000" stroke-width="3.25" stroke-linecap="round" stroke-linejoin="bevel" points="387.927,1137.04 387.927,1054.23"/>
<polyline class="Stem" fill="none" stroke="#000000" stroke-width="3.25" stroke-linecap="round" stroke-linejoin="bevel" points="314.459,1149.54 314.459,1066.73"/>
<polyline class="Stem" fill="none" stroke="#000000" stroke-width="3.25" stroke-linecap="round" stroke-linejoin="bevel" points="2339.04,621.428 2339.04,694.858"/>
<polyline class="Stem" fill="none" stroke="#000000" stroke-width="3.25" stroke-linecap="round" stroke-linejoin="bevel" points="2142.64,608.928 2142.64,685.483"/>
<polyline class="Stem" fill="none" stroke="#000000" stroke-width="3.25" stroke-linecap="round" stroke-linejoin="bevel" points="1980.24,596.428 1980.24,676.108"/>
<polyline class="Stem" fill="none" stroke="#000000" stroke-width="3.25" stroke-linecap="round" stroke-linejoin="bevel" points="1817.84,583.928 1817.84,666.733"/>
<polyline class="Stem" fill="none" stroke="#000000" stroke-width="3.25" stroke-linecap="round" stroke-linejoin="bevel" points="1655.44,596.428 1655.44,676.108"/>
<polyline class="Stem" fill="none" stroke="#000000" stroke-width="3.25" stroke-linecap="round" stroke-linejoin="bevel" points="1296.23,621.428 1296.23,694.858"/>
<polyline class="Stem" fill="none" stroke="#000000" stroke-width="3.25" stroke-linecap="round" stroke-linejoin="bevel" points="1141.65,608.928 1141.65,685.483"/>
<polyline class="Stem" fill="none" stroke="#000000" stroke-width="3.25" stroke-linecap="round" stroke-linejoin="bevel" points="987.06,596.428 987.06,676.108"/>
<polyline class="Stem" fill="none" stroke="#000000" stroke-width="3.25" stroke-linecap="round" stroke-linejoin="bevel" points="799.178,608.928 799.178,685.483"/>
<polyline class="Stem" fill="none" stroke="#000000" stroke-width="3.25" stroke-linecap="round" stroke-linejoin="bevel" points="674.959,624.537 674.959,547.983"/>
<polyline class="Stem" fill="none" stroke="#000000" stroke-width="3.25" stroke-linecap="round" stroke-linejoin="bevel" points="521.076,662.037 521.076,579.233"/>
<polyline class="Stem" fill="none" stroke="#000000" stroke-width="3.25" stroke-linecap="round" stroke-linejoin="bevel" points="367.193,624.537 367.193,547.983"/>
<path class="Note" d="M2788.4,1040.47 C2791.53,1040.47 2794.17,1041.28 2796.32,1042.9 C2798.33,1044.67 2799.34,1046.88 2799.34,1049.55 C2799.34,1054.03 2797.03,1058.23 2792.42,1062.14 C2787.73,1066.05 2782.71,1068 2777.37,1068 C2774.24,1068 2771.61,1067.19 2769.46,1065.56 C2767.44,1063.8 2766.43,1061.59 2766.43,1058.92 C2766.43,1054.43 2768.78,1050.23 2773.46,1046.33 C2778.03,1042.42 2783,1040.47 2788.4,1040.47"/>
<path class="Note" d="M2724.73,1052.97 C2727.86,1052.97 2730.5,1053.78 2732.65,1055.4 C2734.66,1057.17 2735.67,1059.38 2735.67,1062.05 C2735.67,1066.53 2733.36,1070.73 2728.75,1074.64 C2724.06,1078.55 2719.04,1080.5 2713.7,1080.5 C2710.58,1080.5 2707.94,1079.69 2705.79,1078.06 C2703.77,1076.3 2702.76,1074.09 2702.76,1071.42 C2702.76,1066.93 2705.11,1062.73 2709.79,1058.83 C2714.36,1054.92 2719.34,1052.97 2724.73,1052.97"/>
<path class="Note" d="M2661.06,1065.47 C2664.19,1065.47 2666.83,1066.28 2668.99,1067.9 C2671,1069.67 2672,1071.88 2672,1074.55 C2672,1079.03 2669.69,1083.23 2665.08,1087.14 C2660.39,1091.05 2655.38,1093 2650.03,1093 C2646.91,1093 2644.27,1092.19 2642.13,1090.56 C2640.11,1088.8 2639.1,1086.59 2639.1,1083.92 C2639.1,1079.43 2641.44,1075.23 2646.13,1071.33 C2650.69,1067.42 2655.67,1065.47 2661.06,1065.47"/>
<path class="Note" d="M2564.1,1052.97 C2567.22,1052.97 2569.86,1053.78 2572.02,1055.4 C2574.03,1057.17 2575.04,1059.38 2575.04,1062.05 C2575.04,1066.53 2572.73,1070.73 2568.11,1074.64 C2563.43,1078.55 2558.41,1080.5 2553.07,1080.5 C2549.94,1080.5 2547.31,1079.69 2545.16,1078.06 C2543.14,1076.3 2542.13,1074.09 2542.13,1071.42 C2542.13,1066.93 2544.47,1062.73 2549.16,1058.83 C2553.72,1054.92 2558.7,1052.97 2564.1,1052.97"/>
<path class="Note" d="M2501.13,1040.47 C2504.26,1040.47 2506.9,1041.28 2509.06,1042.9 C2511.07,1044.67 2512.07,1046.88 2512.07,1049.55 C2512.07,1054.03 2509.76,1058.23 2505.15,1062.14 C2500.46,1066.05 2495.45,1068 2490.1,1068 C2486.98,1068 2484.34,1067.19 2482.2,1065.56 C2480.18,1063.8 2479.17,1061.59 2479.17,1058.92 C2479.17,1054.43 2481.51,1050.23 2486.2,1046.33 C2490.76,1042.42 2495.74,1040.47 2501.13,1040.47"/>
<path class="Note" d="M2438.17,1027.97 C2441.29,1027.97 2443.93,1028.78 2446.09,1030.4 C2448.1,1032.17 2449.11,1034.38 2449.11,1037.05 C2449.11,1041.53 2446.8,1045.73 2442.18,1049.64 C2437.5,1053.55 2432.48,1055.5 2427.14,1055.5 C2424.01,1055.5 2421.38,1054.69 2419.23,1053.06 C2417.21,1051.3 2416.2,1049.09 2416.2,1046.42 C2416.2,1041.93 2418.54,1037.73 2423.23,1033.83 C2427.79,1029.92 2432.77,1027.97 2438.17,1027.97"/>
<path class="Note" d="M2375.2,1040.47 C2378.33,1040.47 2380.97,1041.28 2383.13,1042.9 C2385.14,1044.67 2386.14,1046.88 2386.14,1049.55 C2386.14,1054.03 2383.83,1058.23 2379.22,1062.14 C2374.53,1066.05 2369.52,1068 2364.17,1068 C2361.05,1068 2358.41,1067.19 2356.27,1065.56 C2354.25,1063.8 2353.24,1061.59 2353.24,1058.92 C2353.24,1054.43 2355.58,1050.23 2360.27,1046.33 C2364.83,1042.42 2369.81,1040.47 2375.2,1040.47"/>
<path class="Note" d="M2278.24,1090.47 C2281.36,1090.47 2284,1091.28 2286.16,1092.9 C2288.17,1094.67 2289.18,1096.88 2289.18,1099.55 C2289.18,1104.03 2286.87,1108.23 2282.25,1112.14 C2277.57,1116.05 2272.55,1118 2267.21,1118 C2264.08,1118 2261.45,1117.19 2259.3,1115.56 C2257.28,1113.8 2256.27,1111.59 2256.27,1108.92 C2256.27,1104.43 2258.61,1100.23 2263.3,1096.33 C2267.86,1092.42 2272.84,1090.47 2278.24,1090.47"/>
<path class="Note" d="M2215.27,1077.97 C2218.4,1077.97 2221.04,1078.78 2223.2,1080.4 C2225.21,1082.17 2226.21,1084.38 2226.21,1087.05 C2226.21,1091.53 2223.9,1095.73 2219.29,1099.64 C2214.6,1103.55 2209.59,1105.5 2204.24,1105.5 C2201.12,1105.5 2198.48,1104.69 2196.34,1103.06 C2194.32,1101.3 2193.31,1099.09 2193.31,1096.42 C2193.31,1091.93 2195.65,1087.73 2200.34,1083.83 C2204.9,1079.92 2209.88,1077.97 2215.27,1077.97"/>
<path class="Note" d="M2152.31,1065.47 C2155.43,1065.47 2158.08,1066.28 2160.23,1067.9 C2162.24,1069.67 2163.25,1071.88 2163.25,1074.55 C2163.25,1079.03 2160.94,1083.23 2156.33,1087.14 C2151.64,1091.05 2146.62,1093 2141.28,1093 C2138.15,1093 2135.52,1092.19 2133.37,1090.56 C2131.35,1088.8 2130.34,1086.59 2130.34,1083.92 C2130.34,1079.43 2132.68,1075.23 2137.37,1071.33 C2141.93,1067.42 2146.91,1065.47 2152.31,1065.47"/>
<path class="Note" d="M2089.34,1052.97 C2092.47,1052.97 2095.11,1053.78 2097.27,1055.4 C2099.28,1057.17 2100.28,1059.38 2100.28,1062.05 C2100.28,1066.53 2097.97,1070.73 2093.36,1074.64 C2088.67,1078.55 2083.66,1080.5 2078.31,1080.5 C2075.19,1080.5 2072.55,1079.69 2070.41,1078.06 C2068.39,1076.3 2067.38,1074.09 2067.38,1071.42 C2067.38,1066.93 2069.72,1062.73 2074.41,1058.83 C2078.97,1054.92 2083.95,1052.97 2089.34,1052.97"/>
<path class="Note" d="M1992.38,1040.47 C1995.5,1040.47 1998.15,1041.28 2000.3,1042.9 C2002.31,1044.67 2003.32,1046.88 2003.32,1049.55 C2003.32,1054.03 2001.01,1058.23 1996.4,1062.14 C1991.71,1066.05 1986.69,1068 1981.35,1068 C1978.22,1068 1975.59,1067.19 1973.44,1065.56 C1971.42,1063.8 1970.41,1061.59 1970.41,1058.92 C1970.41,1054.43 1972.75,1050.23 1977.44,1046.33 C1982,1042.42 1986.98,1040.47 1992.38,1040.47"/>
<path class="Note" d="M1929.41,1027.97 C1932.54,1027.97 1935.18,1028.78 1937.34,1030.4 C1939.35,1032.17 1940.35,1034.38 1940.35,1037.05 C1940.35,1041.53 1938.04,1045.73 1933.43,1049.64 C1928.74,1053.55 1923.73,1055.5 1918.38,1055.5 C1915.26,1055.5 1912.62,1054.69 1910.48,1053.06 C1908.46,1051.3 1907.45,1049.09 1907.45,1046.42 C1907.45,1041.93 1909.79,1037.73 1914.48,1033.83 C1919.04,1029.92 1924.02,1027.97 1929.41,1027.97"/>
<path class="Note" d="M1866.45,1015.47 C1869.57,1015.47 1872.22,1016.28 1874.37,1017.9 C1876.38,1019.67 1877.39,1021.88 1877.39,1024.55 C1877.39,1029.03 1875.08,1033.23 1870.47,1037.14 C1865.78,1041.05 1860.76,1043 1855.42,1043 C1852.29,1043 1849.66,1042.19 1847.51,1040.56 C1845.49,1038.8 1844.48,1036.59 1844.48,1033.92 C1844.48,1029.43 1846.82,1025.23 1851.51,1021.33 C1856.07,1017.42 1861.05,1015.47 1866.45,1015.47"/>
<path class="Note" d="M1803.48,1027.97 C1806.61,1027.97 1809.25,1028.78 1811.41,1030.4 C1813.42,1032.17 1814.42,1034.38 1814.42,1037.05 C1814.42,1041.53 1812.11,1045.73 1807.5,1049.64 C1802.81,1053.55 1797.8,1055.5 1792.45,1055.5 C1789.33,1055.5 1786.69,1054.69 1784.55,1053.06 C1782.53,1051.3 1781.52,1049.09 1781.52,1046.42 C1781.52,1041.93 1783.86,1037.73 1788.55,1033.83 C1793.11,1029.92 1798.09,1027.97 1803.48,1027.97"/>
<path class="Note" d="M1706.52,1040.47 C1709.64,1040.47 1712.29,1041.28 1714.44,1042.9 C1716.45,1044.67 1717.46,1046.88 1717.46,1049.55 C1717.46,1054.03 1715.15,1058.23 1710.54,1062.14 C1705.85,1066.05 1700.83,1068 1695.49,1068 C1692.36,1068 1689.73,1067.19 1687.58,1065.56 C1685.56,1063.8 1684.55,1061.59 1684.55,1058.92 C1684.55,1054.43 1686.89,1050.23 1691.58,1046.33 C1696.14,1042.42 1701.12,1040.47 1706.52,1040.47"/>
<path class="Note" d="M1643.55,1052.97 C1646.68,1052.97 1649.32,1053.78 1651.48,1055.4 C1653.49,1057.17 1654.49,1059.38 1654.49,1062.05 C1654.49,1066.53 1652.18,1070.73 1647.57,1074.64 C1642.88,1078.55 1637.87,1080.5 1632.52,1080.5 C1629.4,1080.5 1626.76,1079.69 1624.62,1078.06 C1622.6,1076.3 1621.59,1074.09 1621.59,1071.42 C1621.59,1066.93 1623.93,1062.73 1628.62,1058.83 C1633.18,1054.92 1638.16,1052.97 1643.55,1052.97"/>
<path class="Note" d="M1580.59,1052.97 C1583.71,1052.97 1586.36,1053.78 1588.51,1055.4 C1590.52,1057.17 1591.53,1059.38 1591.53,1062.05 C1591.53,1066.53 1589.22,1070.73 1584.61,1074.64 C1579.92,1078.55 1574.9,1080.5 1569.56,1080.5 C1566.43,1080.5 1563.8,1079.69 1561.65,1078.06 C1559.63,1076.3 1558.62,1074.09 1558.62,1071.42 C1558.62,1066.93 1560.96,1062.73 1565.65,1058.83 C1570.21,1054.92 1575.19,1052.97 1580.59,1052.97"/>
<path class="Note" d="M1517.62,1040.47 C1520.75,1040.47 1523.39,1041.28 1525.55,1042.9 C1527.56,1044.67 1528.56,1046.88 1528.56,1049.55 C1528.56,1054.03 1526.26,1058.23 1521.64,1062.14 C1516.95,1066.05 1511.94,1068 1506.59,1068 C1503.47,1068 1500.83,1067.19 1498.69,1065.56 C1496.67,1063.8 1495.66,1061.59 1495.66,1058.92 C1495.66,1054.43 1498,1050.23 1502.69,1046.33 C1507.25,1042.42 1512.23,1040.47 1517.62,1040.47"/>
<path class="Note" d="M1420.66,1027.97 C1423.78,1027.97 1426.43,1028.78 1428.58,1030.4 C1430.59,1032.17 1431.6,1034.38 1431.6,1037.05 C1431.6,1041.53 1429.29,1045.73 1424.68,1049.64 C1419.99,1053.55 1414.97,1055.5 1409.63,1055.5 C1406.5,1055.5 1403.87,1054.69 1401.72,1053.06 C1399.7,1051.3 1398.69,1049.09 1398.69,1046.42 C1398.69,1041.93 1401.03,1037.73 1405.72,1033.83 C1410.28,1029.92 1415.26,1027.97 1420.66,1027.97"/>
<path class="Note" d="M1357.69,1027.97 C1360.82,1027.97 1363.46,1028.78 1365.62,1030.4 C1367.63,1032.17 1368.63,1034.38 1368.63,1037.05 C1368.63,1041.53 1366.33,1045.73 1361.71,1049.64 C1357.02,1053.55 1352.01,1055.5 1346.66,1055.5 C1343.54,1055.5 1340.9,1054.69 1338.76,1053.06 C1336.74,1051.3 1335.73,1049.09 1335.73,1046.42 C1335.73,1041.93 1338.07,1037.73 1342.76,1033.83 C1347.32,1029.92 1352.3,1027.97 1357.69,1027.97"/>
<path class="Note" d="M1294.73,1015.47 C1297.85,1015.47 1300.5,1016.28 1302.65,1017.9 C1304.66,1019.67 1305.67,1021.88 1305.67,1024.55 C1305.67,1029.03 1303.36,1033.23 1298.75,1037.14 C1294.06,1041.05 1289.04,1043 1283.7,1043 C1280.57,1043 1277.94,1042.19 1275.79,1040.56 C1273.77,1038.8 1272.76,1036.59 1272.76,1033.92 C1272.76,1029.43 1275.1,1025.23 1279.79,1021.33 C1284.35,1017.42 1289.33,1015.47 1294.73,1015.47"/>
<path class="Note" d="M1231.77,1015.47 C1234.89,1015.47 1237.53,1016.28 1239.69,1017.9 C1241.7,1019.67 1242.7,1021.88 1242.7,1024.55 C1242.7,1029.03 1240.4,1033.23 1235.78,1037.14 C1231.09,1041.05 1226.08,1043 1220.73,1043 C1217.61,1043 1214.97,1042.19 1212.83,1040.56 C1210.81,1038.8 1209.8,1036.59 1209.8,1033.92 C1209.8,1029.43 1212.14,1025.23 1216.83,1021.33 C1221.39,1017.42 1226.37,1015.47 1231.77,1015.47"/>
<path class="Note" d="M1129.1,1002.97 C1132.23,1002.97 1134.87,1003.78 1137.02,1005.4 C1139.03,1007.17 1140.04,1009.38 1140.04,1012.05 C1140.04,1016.53 1137.73,1020.73 1133.12,1024.64 C1128.43,1028.55 1123.41,1030.5 1118.07,1030.5 C1114.94,1030.5 1112.31,1029.69 1110.16,1028.06 C1108.14,1026.3 1107.13,1024.09 1107.13,1021.42 C1107.13,1016.93 1109.48,1012.73 1114.16,1008.83 C1118.73,1004.92 1123.7,1002.97 1129.1,1002.97"/>
<path class="Note" d="M1060.44,1002.97 C1063.56,1002.97 1066.2,1003.78 1068.36,1005.4 C1070.37,1007.17 1071.37,1009.38 1071.37,1012.05 C1071.37,1016.53 1069.07,1020.73 1064.45,1024.64 C1059.76,1028.55 1054.75,1030.5 1049.4,1030.5 C1046.28,1030.5 1043.64,1029.69 1041.5,1028.06 C1039.48,1026.3 1038.47,1024.09 1038.47,1021.42 C1038.47,1016.93 1040.81,1012.73 1045.5,1008.83 C1050.06,1004.92 1055.04,1002.97 1060.44,1002.97"/>
<path class="Note" d="M991.77,1040.47 C994.895,1040.47 997.536,1041.28 999.692,1042.9 C1001.7,1044.67 1002.71,1046.88 1002.71,1049.55 C1002.71,1054.03 1000.4,1058.23 995.786,1062.14 C991.098,1066.05 986.083,1068 980.739,1068 C977.614,1068 974.978,1067.19 972.833,1065.56 C970.812,1063.8 969.801,1061.59 969.801,1058.92 C969.801,1054.43 972.145,1050.23 976.833,1046.33 C981.395,1042.42 986.374,1040.47 991.77,1040.47"/>
<path class="Note" d="M923.105,1027.97 C926.23,1027.97 928.871,1028.78 931.027,1030.4 C933.037,1032.17 934.043,1034.38 934.043,1037.05 C934.043,1041.53 931.735,1045.73 927.121,1049.64 C922.433,1053.55 917.418,1055.5 912.074,1055.5 C908.949,1055.5 906.313,1054.69 904.168,1053.06 C902.147,1051.3 901.136,1049.09 901.136,1046.42 C901.136,1041.93 903.48,1037.73 908.168,1033.83 C912.73,1029.92 917.709,1027.97 923.105,1027.97"/>
<path class="Note" d="M826.14,1040.47 C829.265,1040.47 831.906,1041.28 834.062,1042.9 C836.072,1044.67 837.078,1046.88 837.078,1049.55 C837.078,1054.03 834.77,1058.23 830.156,1062.14 C825.468,1066.05 820.453,1068 815.109,1068 C811.984,1068 809.349,1067.19 807.203,1065.56 C805.182,1063.8 804.171,1061.59 804.171,1058.92 C804.171,1054.43 806.515,1050.23 811.203,1046.33 C815.765,1042.42 820.744,1040.47 826.14,1040.47"/>
<path class="Note" d="M763.175,1052.97 C766.3,1052.97 768.941,1053.78 771.097,1055.4 C773.108,1057.17 774.113,1059.38 774.113,1062.05 C774.113,1066.53 771.805,1070.73 767.191,1074.64 C762.503,1078.55 757.488,1080.5 752.144,1080.5 C749.019,1080.5 746.384,1079.69 744.238,1078.06 C742.217,1076.3 741.206,1074.09 741.206,1071.42 C741.206,1066.93 743.55,1062.73 748.238,1058.83 C752.8,1054.92 757.779,1052.97 763.175,1052.97"/>
<path class="Note" d="M700.21,1065.47 C703.335,1065.47 705.976,1066.28 708.132,1067.9 C710.143,1069.67 711.148,1071.88 711.148,1074.55 C711.148,1079.03 708.84,1083.23 704.226,1087.14 C699.538,1091.05 694.523,1093 689.179,1093 C686.054,1093 683.419,1092.19 681.273,1090.56 C679.252,1088.8 678.242,1086.59 678.242,1083.92 C678.242,1079.43 680.585,1075.23 685.273,1071.33 C689.835,1067.42 694.814,1065.47 700.21,1065.47"/>
<path class="Note" d="M637.245,1077.97 C640.37,1077.97 643.011,1078.78 645.167,1080.4 C647.178,1082.17 648.183,1084.38 648.183,1087.05 C648.183,1091.53 645.876,1095.73 641.261,1099.64 C636.573,1103.55 631.558,1105.5 626.214,1105.5 C623.089,1105.5 620.454,1104.69 618.308,1103.06 C616.287,1101.3 615.277,1099.09 615.277,1096.42 C615.277,1091.93 617.62,1087.73 622.308,1083.83 C626.87,1079.92 631.849,1077.97 637.245,1077.97"/>
<path class="Note" d="M529.777,1090.47 C532.902,1090.47 535.543,1091.28 537.699,1092.9 C539.71,1094.67 540.715,1096.88 540.715,1099.55 C540.715,1104.03 538.408,1108.23 533.793,1112.14 C529.106,1116.05 524.09,1118 518.746,1118 C515.621,1118 512.986,1117.19 510.84,1115.56 C508.819,1113.8 507.809,1111.59 507.809,1108.92 C507.809,1104.43 510.152,1100.23 514.84,1096.33 C519.402,1092.42 524.382,1090.47 529.777,1090.47"/>
<path class="Note" d="M456.31,1102.97 C459.435,1102.97 462.075,1103.78 464.231,1105.4 C466.242,1107.17 467.247,1109.38 467.247,1112.05 C467.247,1116.53 464.94,1120.73 460.325,1124.64 C455.638,1128.55 450.622,1130.5 445.278,1130.5 C442.153,1130.5 439.518,1129.69 437.372,1128.06 C435.351,1126.3 434.341,1124.09 434.341,1121.42 C434.341,1116.93 436.685,1112.73 441.372,1108.83 C445.935,1104.92 450.914,1102.97 456.31,1102.97"/>
<path class="Note" d="M378.606,1127.97 C381.731,1127.97 384.372,1128.78 386.528,1130.4 C388.539,1132.17 389.544,1134.38 389.544,1137.05 C389.544,1141.53 387.237,1145.73 382.622,1149.64 C377.935,1153.55 372.919,1155.5 367.575,1155.5 C364.45,1155.5 361.815,1154.69 359.669,1153.06 C357.648,1151.3 356.638,1149.09 356.638,1146.42 C356.638,1141.93 358.981,1137.73 363.669,1133.83 C368.231,1129.92 373.211,1127.97 378.606,1127.97"/>
<path class="Note" d="M305.139,1140.47 C308.264,1140.47 310.904,1141.28 313.06,1142.9 C315.071,1144.67 316.076,1146.88 316.076,1149.55 C316.076,1154.03 313.769,1158.23 309.154,1162.14 C304.467,1166.05 299.451,1168 294.107,1168 C290.982,1168 288.347,1167.19 286.201,1165.56 C284.18,1163.8 283.17,1161.59 283.17,1158.92 C283.17,1154.43 285.514,1150.23 290.201,1146.33 C294.764,1142.42 299.743,1140.47 305.139,1140.47"/>
<path class="Note" d="M2359.39,602.967 C2362.51,602.967 2365.15,603.779 2367.31,605.404 C2369.32,607.165 2370.32,609.378 2370.32,612.045 C2370.32,616.535 2368.02,620.733 2363.4,624.639 C2358.71,628.545 2353.7,630.498 2348.36,630.498 C2345.23,630.498 2342.6,629.686 2340.45,628.061 C2338.43,626.3 2337.42,624.087 2337.42,621.42 C2337.42,616.93 2339.76,612.733 2344.45,608.826 C2349.01,604.92 2353.99,602.967 2359.39,602.967"/>
<path class="Note" d="M2162.99,590.467 C2166.11,590.467 2168.75,591.279 2170.91,592.904 C2172.92,594.665 2173.92,596.878 2173.92,599.545 C2173.92,604.035 2171.62,608.233 2167,612.139 C2162.31,616.045 2157.3,617.998 2151.96,617.998 C2148.83,617.998 2146.2,617.186 2144.05,615.561 C2142.03,613.8 2141.02,611.587 2141.02,608.92 C2141.02,604.43 2143.36,600.233 2148.05,596.326 C2152.61,592.42 2157.59,590.467 2162.99,590.467"/>
<path class="Note" d="M2000.59,577.967 C2003.71,577.967 2006.35,578.779 2008.51,580.404 C2010.52,582.165 2011.52,584.378 2011.52,587.045 C2011.52,591.535 2009.22,595.733 2004.6,599.639 C1999.91,603.545 1994.9,605.498 1989.56,605.498 C1986.43,605.498 1983.8,604.686 1981.65,603.061 C1979.63,601.3 1978.62,599.087 1978.62,596.42 C1978.62,591.93 1980.96,587.733 1985.65,583.826 C1990.21,579.92 1995.19,577.967 2000.59,577.967"/>
<path class="Note" d="M1838.19,565.467 C1841.31,565.467 1843.95,566.279 1846.11,567.904 C1848.12,569.665 1849.12,571.878 1849.12,574.545 C1849.12,579.035 1846.82,583.233 1842.2,587.139 C1837.51,591.045 1832.5,592.998 1827.16,592.998 C1824.03,592.998 1821.4,592.186 1819.25,590.561 C1817.23,588.8 1816.22,586.587 1816.22,583.92 C1816.22,579.43 1818.56,575.233 1823.25,571.326 C1827.81,567.42 1832.79,565.467 1838.19,565.467"/>
<path class="Note" d="M1675.79,577.967 C1678.91,577.967 1681.55,578.779 1683.71,580.404 C1685.72,582.165 1686.72,584.378 1686.72,587.045 C1686.72,591.535 1684.42,595.733 1679.8,599.639 C1675.11,603.545 1670.1,605.498 1664.76,605.498 C1661.63,605.498 1659,604.686 1656.85,603.061 C1654.83,601.3 1653.82,599.087 1653.82,596.42 C1653.82,591.93 1656.16,587.733 1660.85,583.826 C1665.41,579.92 1670.39,577.967 1675.79,577.967"/>
<path class="Note" d="M1316.58,602.967 C1319.7,602.967 1322.34,603.779 1324.5,605.404 C1326.51,607.165 1327.51,609.378 1327.51,612.045 C1327.51,616.535 1325.21,620.733 1320.59,624.639 C1315.9,628.545 1310.89,630.498 1305.54,630.498 C1302.42,630.498 1299.78,629.686 1297.64,628.061 C1295.62,626.3 1294.61,624.087 1294.61,621.42 C1294.61,616.93 1296.95,612.733 1301.64,608.826 C1306.2,604.92 1311.18,602.967 1316.58,602.967"/>
<path class="Note" d="M1161.99,590.467 C1165.12,590.467 1167.76,591.279 1169.91,592.904 C1171.92,594.665 1172.93,596.878 1172.93,599.545 C1172.93,604.035 1170.62,608.233 1166.01,612.139 C1161.32,616.045 1156.3,617.998 1150.96,617.998 C1147.83,617.998 1145.2,617.186 1143.05,615.561 C1141.03,613.8 1140.02,611.587 1140.02,608.92 C1140.02,604.43 1142.37,600.233 1147.05,596.326 C1151.62,592.42 1156.59,590.467 1161.99,590.467"/>
<path class="Note" d="M1007.4,577.967 C1010.53,577.967 1013.17,578.779 1015.33,580.404 C1017.34,582.165 1018.34,584.378 1018.34,587.045 C1018.34,591.535 1016.03,595.733 1011.42,599.639 C1006.73,603.545 1001.72,605.498 996.373,605.498 C993.248,605.498 990.612,604.686 988.467,603.061 C986.446,601.3 985.435,599.087 985.435,596.42 C985.435,591.93 987.779,587.733 992.467,583.826 C997.029,579.92 1002.01,577.967 1007.4,577.967"/>
<path class="Note" d="M819.521,590.467 C822.646,590.467 825.287,591.279 827.443,592.904 C829.454,594.665 830.459,596.878 830.459,599.545 C830.459,604.035 828.152,608.233 823.537,612.139 C818.849,616.045 813.834,617.998 808.49,617.998 C805.365,617.998 802.73,617.186 800.584,615.561 C798.563,613.8 797.553,611.587 797.553,608.92 C797.553,604.43 799.896,600.233 804.584,596.326 C809.146,592.42 814.125,590.467 819.521,590.467"/>
<path class="Note" d="M665.639,615.467 C668.764,615.467 671.404,616.279 673.56,617.904 C675.571,619.665 676.576,621.878 676.576,624.545 C676.576,629.035 674.269,633.233 669.654,637.139 C664.967,641.045 659.951,642.998 654.607,642.998 C651.482,642.998 648.847,642.186 646.701,640.561 C644.68,638.8 643.67,636.587 643.67,633.92 C643.67,629.43 646.014,625.233 650.701,621.326 C655.264,617.42 660.243,615.467 665.639,615.467"/>
<path class="Note" d="M511.756,652.967 C514.881,652.967 517.521,653.779 519.678,655.404 C521.688,657.165 522.693,659.378 522.693,662.045 C522.693,666.535 520.386,670.733 515.771,674.639 C511.084,678.545 506.068,680.498 500.725,680.498 C497.6,680.498 494.964,679.686 492.818,678.061 C490.797,676.3 489.787,674.087 489.787,671.42 C489.787,666.93 492.131,662.733 496.818,658.826 C501.381,654.92 506.36,652.967 511.756,652.967"/>
<path class="Note" d="M357.873,615.467 C360.998,615.467 363.639,616.279 365.795,617.904 C367.805,619.665 368.81,621.878 368.81,624.545 C368.81,629.035 366.503,633.233 361.889,637.139 C357.201,641.045 352.185,642.998 346.842,642.998 C343.717,642.998 341.081,642.186 338.935,640.561 C336.915,638.8 335.904,636.587 335.904,633.92 C335.904,629.43 338.248,625.233 342.935,621.326 C347.498,617.42 352.477,615.467 357.873,615.467"/>
<path class="Clef" d="M194.451,1091.14 C194.451,1091.14 194.649,1091.14 195.045,1091.14 C195.305,1091.08 195.529,1091.05 195.717,1091.05 C203.008,1091.05 208.998,1093.62 213.685,1098.76 C218.373,1103.84 220.717,1109.76 220.717,1116.53 C220.717,1124.94 217.237,1131.77 210.279,1137.05 C208.456,1138.48 206.076,1139.65 203.139,1140.56 C203.472,1144.79 203.639,1148.21 203.639,1150.81 C203.639,1151.33 203.571,1153.22 203.435,1156.48 C203.175,1162.53 201.092,1167.77 197.185,1172.2 C193.415,1176.57 188.727,1178.75 183.123,1178.75 C177.852,1178.75 173.362,1176.89 169.654,1173.19 C165.935,1169.4 164.076,1164.85 164.076,1159.51 C164.076,1156.71 165.154,1154.33 167.31,1152.37 C169.519,1150.43 172.086,1149.45 175.014,1149.45 C177.618,1149.45 179.8,1150.46 181.56,1152.48 C183.383,1154.37 184.295,1156.71 184.295,1159.51 C184.295,1162.05 183.383,1164.22 181.56,1166.05 C179.737,1167.87 177.555,1168.78 175.014,1168.78 C173.972,1168.78 172.967,1168.59 171.998,1168.2 C174.862,1172.43 178.67,1174.55 183.42,1174.55 C187.909,1174.55 191.586,1172.72 194.451,1169.08 C197.451,1165.31 199.081,1160.91 199.342,1155.89 C199.467,1152.76 199.529,1150.98 199.529,1150.53 C199.529,1146.88 199.399,1143.89 199.139,1141.55 C195.889,1142.07 192.993,1142.33 190.451,1142.33 C181.399,1142.33 173.685,1138.74 167.31,1131.58 C161.06,1124.35 157.935,1115.75 157.935,1105.8 C157.935,1103.71 158.128,1101.6 158.514,1099.45 C158.909,1097.69 159.399,1095.77 159.982,1093.69 C160.305,1092.51 161.185,1090.62 162.623,1088.01 C163.144,1087.23 163.73,1086.26 164.381,1085.08 C165.032,1083.91 165.487,1083.13 165.748,1082.75 C166.394,1081.45 167.659,1079.69 169.545,1077.47 C170.066,1076.88 170.605,1076.24 171.162,1075.52 C171.719,1074.81 172.193,1074.22 172.584,1073.76 C172.974,1073.31 173.266,1072.95 173.459,1072.69 C173.652,1072.43 175.118,1070.7 177.857,1067.51 C178.503,1066.86 179.136,1066.16 179.756,1065.41 C180.375,1064.67 180.881,1064.08 181.271,1063.65 C181.662,1063.23 181.956,1062.92 182.154,1062.73 C179.81,1054.98 178.342,1048.8 177.748,1044.17 C177.3,1040.46 177.076,1035.38 177.076,1028.94 C177.076,1023.27 178.378,1017.96 180.982,1013.01 C183.514,1007.88 187.06,1003.68 191.623,1000.42 C191.883,1000.22 192.206,1000.12 192.592,1000.12 C193.05,1000.12 193.378,1000.22 193.576,1000.42 C197.086,1004.65 200.112,1010.15 202.654,1016.92 C205.258,1023.69 206.56,1029.85 206.56,1035.39 C206.56,1041.64 205.066,1047.5 202.076,1052.97 C198.691,1058.76 194.326,1064.75 188.982,1070.94 C190.347,1075.23 192.17,1081.96 194.451,1091.14 M202.748,1136.56 C206.133,1135.32 208.774,1133.21 210.67,1130.22 C212.753,1127.35 213.795,1124.13 213.795,1120.55 C213.795,1115.92 212.232,1111.82 209.107,1108.23 C205.909,1104.52 201.836,1102.44 196.889,1101.98 C199.691,1115.72 201.644,1127.25 202.748,1136.56 M164.967,1114 C164.967,1120.45 167.571,1126.11 172.779,1131 C178.112,1135.75 184.102,1138.12 190.748,1138.12 C193.477,1138.12 196.144,1137.93 198.748,1137.53 C197.706,1127.63 195.654,1115.78 192.592,1101.98 C188.883,1102.38 185.925,1103.68 183.717,1105.89 C181.56,1108.17 180.482,1110.74 180.482,1113.61 C180.482,1118.56 183.123,1122.56 188.404,1125.62 C188.852,1126.08 189.076,1126.57 189.076,1127.09 C189.076,1127.61 188.852,1128.1 188.404,1128.55 C188.008,1129 187.519,1129.23 186.935,1129.23 C186.873,1129.23 186.581,1129.17 186.06,1129.05 C182.342,1127.02 179.477,1124.42 177.467,1121.23 C175.571,1117.84 174.623,1114.42 174.623,1110.97 C174.623,1106.48 176.024,1102.41 178.826,1098.76 C181.753,1095.12 185.56,1092.77 190.248,1091.73 C188.425,1084.44 186.93,1078.74 185.764,1074.64 C184.722,1075.82 183.469,1077.23 182.006,1078.89 C180.542,1080.55 179.68,1081.54 179.42,1081.87 C177.076,1084.93 175.284,1087.3 174.045,1089 C171.826,1092.06 170.196,1094.7 169.154,1096.9 C168.05,1099.38 167.076,1102.09 166.232,1105.01 C165.389,1107.82 164.967,1110.81 164.967,1114 M197.576,1014.69 C192.691,1017.09 188.852,1020.54 186.06,1025.03 C183.196,1029.65 181.764,1034.63 181.764,1039.97 C181.764,1044.65 182.935,1050.97 185.279,1058.92 C189.967,1053.25 193.482,1048.01 195.826,1043.2 C198.295,1038.12 199.529,1032.81 199.529,1027.28 C199.529,1023.11 198.878,1018.92 197.576,1014.69"/>
<path class="Clef" d="M194.451,616.139 C194.451,616.139 194.649,616.139 195.045,616.139 C195.305,616.076 195.529,616.045 195.717,616.045 C203.008,616.045 208.998,618.618 213.685,623.764 C218.373,628.837 220.717,634.759 220.717,641.529 C220.717,649.936 217.237,656.774 210.279,662.045 C208.456,663.483 206.076,664.654 203.139,665.561 C203.472,669.79 203.639,673.207 203.639,675.811 C203.639,676.332 203.571,678.222 203.435,681.483 C203.175,687.535 201.092,692.774 197.185,697.201 C193.415,701.566 188.727,703.748 183.123,703.748 C177.852,703.748 173.362,701.894 169.654,698.186 C165.935,694.404 164.076,689.847 164.076,684.514 C164.076,681.712 165.154,679.332 167.31,677.373 C169.519,675.425 172.086,674.451 175.014,674.451 C177.618,674.451 179.8,675.462 181.56,677.483 C183.383,679.368 184.295,681.712 184.295,684.514 C184.295,687.045 183.383,689.222 181.56,691.045 C179.737,692.868 177.555,693.779 175.014,693.779 C173.972,693.779 172.967,693.587 171.998,693.201 C174.862,697.43 178.67,699.545 183.42,699.545 C187.909,699.545 191.586,697.722 194.451,694.076 C197.451,690.305 199.081,685.91 199.342,680.889 C199.467,677.764 199.529,675.977 199.529,675.529 C199.529,671.884 199.399,668.889 199.139,666.545 C195.889,667.066 192.993,667.326 190.451,667.326 C181.399,667.326 173.685,663.743 167.31,656.576 C161.06,649.347 157.935,640.753 157.935,630.795 C157.935,628.712 158.128,626.597 158.514,624.451 C158.909,622.691 159.399,620.769 159.982,618.686 C160.305,617.509 161.185,615.618 162.623,613.014 C163.144,612.233 163.73,611.256 164.381,610.084 C165.032,608.912 165.487,608.134 165.748,607.748 C166.394,606.446 167.659,604.686 169.545,602.467 C170.066,601.884 170.605,601.235 171.162,600.522 C171.719,599.808 172.193,599.222 172.584,598.764 C172.974,598.305 173.266,597.946 173.459,597.686 C173.652,597.425 175.118,595.701 177.857,592.514 C178.503,591.858 179.136,591.157 179.756,590.412 C180.375,589.667 180.881,589.082 181.271,588.654 C181.662,588.227 181.956,587.92 182.154,587.733 C179.81,579.983 178.342,573.795 177.748,569.17 C177.3,565.462 177.076,560.384 177.076,553.936 C177.076,548.269 178.378,542.962 180.982,538.014 C183.514,532.878 187.06,528.68 191.623,525.42 C191.883,525.222 192.206,525.123 192.592,525.123 C193.05,525.123 193.378,525.222 193.576,525.42 C197.086,529.649 200.112,535.149 202.654,541.92 C205.258,548.691 206.56,554.847 206.56,560.389 C206.56,566.639 205.066,572.498 202.076,577.967 C198.691,583.759 194.326,589.748 188.982,595.936 C190.347,600.227 192.17,606.962 194.451,616.139 M202.748,661.561 C206.133,660.321 208.774,658.207 210.67,655.217 C212.753,652.352 213.795,649.128 213.795,645.545 C213.795,640.92 212.232,636.816 209.107,633.233 C205.909,629.524 201.836,627.441 196.889,626.983 C199.691,640.722 201.644,652.248 202.748,661.561 M164.967,638.998 C164.967,645.446 167.571,651.113 172.779,655.998 C178.112,660.748 184.102,663.123 190.748,663.123 C193.477,663.123 196.144,662.925 198.748,662.529 C197.706,652.634 195.654,640.785 192.592,626.983 C188.883,627.378 185.925,628.68 183.717,630.889 C181.56,633.17 180.482,635.743 180.482,638.608 C180.482,643.555 183.123,647.561 188.404,650.623 C188.852,651.082 189.076,651.571 189.076,652.092 C189.076,652.613 188.852,653.097 188.404,653.545 C188.008,654.003 187.519,654.233 186.935,654.233 C186.873,654.233 186.581,654.17 186.06,654.045 C182.342,652.024 179.477,649.42 177.467,646.233 C175.571,642.837 174.623,639.415 174.623,635.967 C174.623,631.477 176.024,627.41 178.826,623.764 C181.753,620.118 185.56,617.774 190.248,616.733 C188.425,609.441 186.93,603.743 185.764,599.639 C184.722,600.816 183.469,602.233 182.006,603.889 C180.542,605.545 179.68,606.54 179.42,606.873 C177.076,609.925 175.284,612.3 174.045,613.998 C171.826,617.061 170.196,619.696 169.154,621.904 C168.05,624.384 167.076,627.087 166.232,630.014 C165.389,632.816 164.967,635.811 164.967,638.998 M197.576,539.686 C192.691,542.092 188.852,545.54 186.06,550.029 C183.196,554.654 181.764,559.634 181.764,564.967 C181.764,569.654 182.935,575.972 185.279,583.92 C189.967,578.253 193.482,573.014 195.826,568.201 C198.295,563.118 199.529,557.811 199.529,552.279 C199.529,548.113 198.878,543.915 197.576,539.686"/>
<path class="TimeSig" d="M268.467,567.912 C270.415,567.912 272.073,567.686 273.443,567.233 C274.813,566.779 275.691,566.553 276.076,566.553 C276.534,566.553 276.894,566.683 277.154,566.943 C277.352,567.131 277.482,567.355 277.545,567.615 C277.545,567.751 277.477,567.949 277.342,568.209 L248.935,601.225 L265.623,601.225 L265.623,588.131 C265.623,587.287 265.852,586.568 266.31,585.975 C267.092,585.329 267.743,584.938 268.264,584.803 C269.107,584.417 270.149,583.506 271.389,582.068 C272.43,580.902 273.67,578.855 275.107,575.928 C275.295,575.532 275.586,575.334 275.982,575.334 C276.764,575.334 277.217,575.792 277.342,576.709 L277.342,601.225 L284.482,601.225 C285.389,601.225 285.909,601.709 286.045,602.678 C286.045,603.657 285.524,604.147 284.482,604.147 L277.342,604.147 L277.342,604.928 C277.342,607.532 277.993,609.746 279.295,611.568 C280.795,613.391 282.555,614.303 284.576,614.303 C285.357,614.303 285.748,614.693 285.748,615.475 C285.748,616.256 285.357,616.647 284.576,616.647 C283.211,616.647 280.998,616.454 277.935,616.068 C275.133,615.61 272.951,615.381 271.389,615.381 C269.764,615.381 267.581,615.61 264.842,616.068 C261.915,616.454 259.738,616.647 258.31,616.647 C257.529,616.647 257.139,616.256 257.139,615.475 C257.139,614.693 257.529,614.303 258.31,614.303 C260.321,614.303 262.076,613.391 263.576,611.568 C264.941,609.683 265.623,607.47 265.623,604.928 L265.623,604.147 L248.935,604.147 C247.821,604.147 247.04,603.886 246.592,603.365 C246.06,602.98 245.795,602.459 245.795,601.803 C245.795,601.605 246.284,600.923 247.264,599.756 C248.378,598.454 249.55,596.86 250.779,594.975 C252.217,592.756 253.586,590.475 254.889,588.131 C256.316,585.464 257.456,582.402 258.31,578.943 C259.279,575.433 259.764,571.855 259.764,568.209 C259.764,567.167 260.222,566.647 261.139,566.647 C261.336,566.647 261.758,566.746 262.404,566.943 C262.602,567.006 263.011,567.102 263.631,567.233 C264.251,567.363 264.753,567.49 265.139,567.615 C266.316,567.813 267.425,567.912 268.467,567.912"/>
<path class="TimeSig" d="M268.467,618.084 C270.415,618.084 272.073,617.858 273.443,617.404 C274.813,616.951 275.691,616.725 276.076,616.725 C276.534,616.725 276.894,616.855 277.154,617.115 C277.352,617.303 277.482,617.527 277.545,617.787 C277.545,617.923 277.477,618.121 277.342,618.381 L248.935,651.397 L265.623,651.397 L265.623,638.303 C265.623,637.459 265.852,636.74 266.31,636.147 C267.092,635.501 267.743,635.11 268.264,634.975 C269.107,634.589 270.149,633.678 271.389,632.24 C272.43,631.074 273.67,629.027 275.107,626.1 C275.295,625.704 275.586,625.506 275.982,625.506 C276.764,625.506 277.217,625.964 277.342,626.881 L277.342,651.397 L284.482,651.397 C285.389,651.397 285.909,651.881 286.045,652.85 C286.045,653.829 285.524,654.319 284.482,654.319 L277.342,654.319 L277.342,655.1 C277.342,657.704 277.993,659.917 279.295,661.74 C280.795,663.563 282.555,664.475 284.576,664.475 C285.357,664.475 285.748,664.865 285.748,665.647 C285.748,666.428 285.357,666.819 284.576,666.819 C283.211,666.819 280.998,666.626 277.935,666.24 C275.133,665.782 272.951,665.553 271.389,665.553 C269.764,665.553 267.581,665.782 264.842,666.24 C261.915,666.626 259.738,666.819 258.31,666.819 C257.529,666.819 257.139,666.428 257.139,665.647 C257.139,664.865 257.529,664.475 258.31,664.475 C260.321,664.475 262.076,663.563 263.576,661.74 C264.941,659.855 265.623,657.641 265.623,655.1 L265.623,654.319 L248.935,654.319 C247.821,654.319 247.04,654.058 246.592,653.537 C246.06,653.152 245.795,652.631 245.795,651.975 C245.795,651.777 246.284,651.095 247.264,649.928 C248.378,648.626 249.55,647.032 250.779,645.147 C252.217,642.928 253.586,640.647 254.889,638.303 C256.316,635.636 257.456,632.574 258.31,629.115 C259.279,625.605 259.764,622.027 259.764,618.381 C259.764,617.339 260.222,616.819 261.139,616.819 C261.336,616.819 261.758,616.917 262.404,617.115 C262.602,617.178 263.011,617.274 263.631,617.404 C264.251,617.535 264.753,617.662 265.139,617.787 C266.316,617.985 267.425,618.084 268.467,618.084"/>
<path class="Rest" d="M2829.51,1083.92 C2829.51,1082.74 2830.16,1081.44 2831.47,1080.01 C2832.44,1078.97 2833.88,1077.73 2835.77,1076.3 C2837.2,1075.33 2838.59,1073.86 2839.96,1071.9 C2841.26,1070.02 2841.91,1067.97 2841.91,1065.75 C2841.91,1063.14 2841.07,1060.84 2839.38,1058.83 L2835.87,1054.62 C2835.6,1054.36 2835.47,1054.04 2835.47,1053.65 C2835.47,1053.26 2835.67,1052.9 2836.05,1052.58 C2836.51,1052.24 2836.9,1052.08 2837.22,1052.08 C2837.68,1052.08 2838.04,1052.27 2838.3,1052.67 L2853.44,1070.64 C2854.09,1071.48 2854.41,1072.33 2854.41,1073.17 C2854.41,1074.35 2853.76,1075.65 2852.46,1077.08 C2851.62,1077.99 2850.22,1079.23 2848.27,1080.8 C2846.77,1081.7 2845.34,1083.17 2843.97,1085.19 C2842.67,1087.07 2842.02,1089.12 2842.02,1091.34 C2842.02,1094.08 2842.8,1096.39 2844.37,1098.28 L2852.76,1108.14 C2852.95,1108.34 2853.12,1108.67 2853.24,1109.12 C2853.24,1109.57 2853.08,1109.96 2852.76,1110.3 C2852.3,1110.62 2851.91,1110.78 2851.58,1110.78 C2851.46,1110.78 2850.94,1110.42 2850.02,1109.7 C2849.04,1108.92 2847.74,1108.17 2846.12,1107.45 C2844.29,1106.74 2842.5,1106.39 2840.74,1106.39 C2839.12,1106.39 2837.78,1106.84 2836.74,1107.75 C2835.83,1108.67 2835.38,1110.43 2835.38,1113.03 C2835.38,1117 2836.32,1120.12 2838.21,1122.4 C2838.41,1122.67 2838.44,1122.99 2838.3,1123.37 C2838.18,1123.63 2837.95,1123.76 2837.62,1123.76 C2837.17,1123.76 2836.16,1122.59 2834.6,1120.25 C2832.96,1117.78 2831.43,1114.95 2830.01,1111.75 C2828.51,1108.36 2827.76,1105.57 2827.76,1103.36 C2827.76,1100.56 2829.09,1099.15 2831.76,1099.15 C2834.82,1099.15 2838.79,1100.2 2843.68,1102.28 L2830.49,1086.45 C2829.83,1085.61 2829.51,1084.76 2829.51,1083.92"/>
<path class="Rest" d="M2694.42,616.733 L2658.87,616.733 C2658.22,616.733 2657.89,616.404 2657.89,615.748 L2657.89,602.076 C2657.89,601.43 2658.22,601.108 2658.87,601.108 L2694.42,601.108 C2695.07,601.108 2695.39,601.43 2695.39,602.076 L2695.39,615.748 C2695.39,616.404 2695.07,616.733 2694.42,616.733"/>
<path class="Rest" d="M2497.06,608.92 C2497.06,607.743 2497.72,606.441 2499.03,605.014 C2500,603.972 2501.43,602.733 2503.33,601.295 C2504.75,600.326 2506.15,598.863 2507.51,596.904 C2508.82,595.019 2509.47,592.967 2509.47,590.748 C2509.47,588.144 2508.62,585.837 2506.94,583.826 L2503.42,579.623 C2503.16,579.363 2503.03,579.037 2503.03,578.647 C2503.03,578.256 2503.22,577.899 2503.61,577.576 C2504.07,577.243 2504.46,577.076 2504.78,577.076 C2505.24,577.076 2505.6,577.274 2505.86,577.67 L2521,595.639 C2521.64,596.483 2521.97,597.326 2521.97,598.17 C2521.97,599.347 2521.32,600.649 2520.01,602.076 C2519.17,602.993 2517.77,604.233 2515.83,605.795 C2514.33,606.701 2512.89,608.165 2511.53,610.186 C2510.23,612.071 2509.58,614.123 2509.58,616.342 C2509.58,619.082 2510.36,621.394 2511.92,623.279 L2520.31,633.139 C2520.51,633.337 2520.67,633.665 2520.79,634.123 C2520.79,634.571 2520.63,634.962 2520.31,635.295 C2519.85,635.618 2519.46,635.779 2519.14,635.779 C2519.01,635.779 2518.49,635.42 2517.58,634.701 C2516.6,633.92 2515.29,633.17 2513.67,632.451 C2511.85,631.743 2510.06,631.389 2508.29,631.389 C2506.67,631.389 2505.34,631.842 2504.29,632.748 C2503.39,633.665 2502.94,635.425 2502.94,638.029 C2502.94,641.998 2503.88,645.123 2505.76,647.404 C2505.96,647.665 2505.99,647.988 2505.86,648.373 C2505.73,648.634 2505.5,648.764 2505.17,648.764 C2504.72,648.764 2503.72,647.592 2502.15,645.248 C2500.52,642.779 2498.99,639.946 2497.56,636.748 C2496.06,633.363 2495.31,630.566 2495.31,628.358 C2495.31,625.555 2496.64,624.154 2499.31,624.154 C2502.37,624.154 2506.35,625.196 2511.23,627.279 L2498.04,611.451 C2497.39,610.608 2497.06,609.764 2497.06,608.92"/>
<path class="Rest" d="M1448.6,608.92 C1448.6,607.743 1449.26,606.441 1450.57,605.014 C1451.54,603.972 1452.97,602.733 1454.86,601.295 C1456.29,600.326 1457.69,598.863 1459.05,596.904 C1460.35,595.019 1461.01,592.967 1461.01,590.748 C1461.01,588.144 1460.16,585.837 1458.47,583.826 L1454.96,579.623 C1454.7,579.363 1454.57,579.037 1454.57,578.647 C1454.57,578.256 1454.76,577.899 1455.15,577.576 C1455.6,577.243 1456,577.076 1456.32,577.076 C1456.78,577.076 1457.14,577.274 1457.4,577.67 L1472.54,595.639 C1473.18,596.483 1473.51,597.326 1473.51,598.17 C1473.51,599.347 1472.85,600.649 1471.55,602.076 C1470.71,602.993 1469.31,604.233 1467.36,605.795 C1465.86,606.701 1464.43,608.165 1463.07,610.186 C1461.77,612.071 1461.11,614.123 1461.11,616.342 C1461.11,619.082 1461.9,621.394 1463.46,623.279 L1471.85,633.139 C1472.05,633.337 1472.21,633.665 1472.33,634.123 C1472.33,634.571 1472.17,634.962 1471.85,635.295 C1471.39,635.618 1471,635.779 1470.68,635.779 C1470.55,635.779 1470.03,635.42 1469.11,634.701 C1468.14,633.92 1466.83,633.17 1465.21,632.451 C1463.39,631.743 1461.59,631.389 1459.83,631.389 C1458.21,631.389 1456.88,631.842 1455.83,632.748 C1454.93,633.665 1454.47,635.425 1454.47,638.029 C1454.47,641.998 1455.42,645.123 1457.3,647.404 C1457.5,647.665 1457.53,647.988 1457.4,648.373 C1457.27,648.634 1457.04,648.764 1456.71,648.764 C1456.26,648.764 1455.26,647.592 1453.69,645.248 C1452.06,642.779 1450.53,639.946 1449.1,636.748 C1447.6,633.363 1446.85,630.566 1446.85,628.358 C1446.85,625.555 1448.18,624.154 1450.85,624.154 C1453.91,624.154 1457.89,625.196 1462.77,627.279 L1449.58,611.451 C1448.93,610.608 1448.6,609.764 1448.6,608.92"/>
</svg>
