<?xml version="1.0" encoding="UTF-8" standalone="no"?>
<svg width="2977.2px" height="4208.4px" viewBox="0 0 2977.2 4208.4"
 xmlns="http://www.w3.org/2000/svg" xmlns:xlink="http://www.w3.org/1999/xlink" version="1.2" baseProfile="tiny">
<title>Omule_care_are_noroc</title>
<desc>Generated by MuseScore 3.0.2</desc>
<polyline class="StaffLines" fill="none" stroke="#000000" stroke-width="2.00" stroke-linejoin="bevel" points="141.732,566.733 2835.47,566.733"/>
<polyline class="StaffLines" fill="none" stroke="#000000" stroke-width="2.00" stroke-linejoin="bevel" points="141.732,591.733 2835.47,591.733"/>
<polyline class="StaffLines" fill="none" stroke="#000000" stroke-width="2.00" stroke-linejoin="bevel" points="141.732,616.733 2835.47,616.733"/>
<polyline class="StaffLines" fill="none" stroke="#000000" stroke-width="2.00" stroke-linejoin="bevel" points="141.732,641.733 2835.47,641.733"/>
<polyline class="StaffLines" fill="none" stroke="#000000" stroke-width="2.00" stroke-linejoin="bevel" points="141.732,666.733 2835.47,666.733"/>
<polyline class="StaffLines" fill="none" stroke="#000000" stroke-width="2.00" stroke-linejoin="bevel" points="141.732,1041.73 2835.47,1041.73"/>
<polyline class="StaffLines" fill="none" stroke="#000000" stroke-width="2.00" stroke-linejoin="bevel" points="141.732,1066.73 2835.47,1066.73"/>
<polyline class="StaffLines" fill="none" stroke="#000000" stroke-width="2.00" stroke-linejoin="bevel" points="141.732,1091.73 2835.47,1091.73"/>
<polyline class="StaffLines" fill="none" stroke="#000000" stroke-width="2.00" stroke-linejoin="bevel" points="141.732,1116.73 2835.47,1116.73"/>
<polyline class="StaffLines" fill="none" stroke="#000000" stroke-width="2.00" stroke-linejoin="bevel" points="141.732,1141.73 2835.47,1141.73"/>
<path class="Text" d="M1042.81,225.42 C1032.01,225.42 1022.89,221.586 1015.45,213.92 C1008.01,206.253 1004.29,196.243 1004.29,183.888 C1004.29,171.774 1007.97,161.826 1015.33,154.045 C1022.69,146.263 1032.09,142.373 1043.53,142.373 C1055.05,142.373 1064.47,146.245 1071.79,153.99 C1079.1,161.735 1082.76,171.862 1082.76,184.373 C1082.76,196.487 1079.07,206.357 1071.67,213.982 C1064.27,221.607 1054.65,225.42 1042.81,225.42 M1069.09,184.248 C1069.09,178.508 1068.53,173.407 1067.41,168.943 C1066.29,164.48 1064.87,160.891 1063.15,158.178 C1061.44,155.464 1059.41,153.232 1057.09,151.482 C1054.77,149.732 1052.51,148.537 1050.31,147.896 C1048.11,147.256 1045.85,146.935 1043.53,146.935 C1039.61,146.935 1036.09,147.771 1032.97,149.443 C1029.85,151.115 1027.39,153.209 1025.59,155.724 C1023.79,158.24 1022.29,161.211 1021.09,164.638 C1019.89,168.066 1019.07,171.355 1018.63,174.506 C1018.19,177.657 1017.97,180.868 1017.97,184.138 C1017.97,188.201 1018.37,192.185 1019.17,196.092 C1019.97,199.998 1021.25,203.904 1023.01,207.81 C1024.77,211.717 1027.39,214.868 1030.87,217.263 C1034.35,219.659 1038.49,220.857 1043.29,220.857 C1048.17,220.857 1052.39,219.659 1055.95,217.263 C1059.51,214.868 1062.19,211.717 1063.99,207.81 C1065.79,203.904 1067.09,199.998 1067.89,196.092 C1068.69,192.185 1069.09,188.237 1069.09,184.248 M1088.65,176.217 L1088.65,174.17 C1094.41,172.503 1100.01,170.623 1105.45,168.529 L1106.29,168.779 L1106.29,177.998 C1111.25,174.144 1114.93,171.602 1117.33,170.373 C1119.73,169.144 1122.25,168.529 1124.89,168.529 C1131.21,168.529 1135.45,171.967 1137.61,178.842 C1143.85,171.967 1150.37,168.529 1157.17,168.529 C1166.45,168.529 1171.09,175.706 1171.09,190.06 L1171.09,214.654 C1171.09,219.112 1172.81,221.461 1176.25,221.701 L1179.37,221.935 L1179.37,223.732 L1153.09,223.732 L1153.09,221.935 C1156.61,221.54 1158.81,220.862 1159.69,219.904 C1160.57,218.946 1161.01,216.758 1161.01,213.342 L1161.01,188.138 C1161.01,183.211 1160.37,179.792 1159.09,177.881 C1157.81,175.969 1155.45,175.013 1152.01,175.013 C1146.73,175.013 1142.37,177.441 1138.94,182.295 L1138.94,212.388 C1138.94,216.128 1139.51,218.633 1140.67,219.904 C1141.83,221.175 1144.13,221.852 1147.58,221.935 L1147.58,223.732 L1120.69,223.732 L1120.69,221.935 C1124.13,221.696 1126.36,221.058 1127.36,220.021 C1128.36,218.985 1128.86,216.795 1128.86,213.451 L1128.86,187.545 C1128.86,179.191 1126.22,175.013 1120.94,175.013 C1118.7,175.013 1116.2,175.571 1113.44,176.685 C1110.67,177.8 1108.45,179.592 1106.76,182.06 L1106.76,215.732 C1106.76,218.034 1107.33,219.605 1108.45,220.443 C1109.58,221.282 1111.74,221.779 1114.94,221.935 L1114.94,223.732 L1088.29,223.732 L1088.29,221.935 C1091.65,221.852 1093.89,221.253 1095.01,220.138 C1096.13,219.024 1096.69,216.836 1096.69,213.576 L1096.69,183.373 C1096.69,180.508 1096.39,178.519 1095.79,177.404 C1095.19,176.29 1094.09,175.732 1092.5,175.732 C1091.29,175.732 1090.01,175.894 1088.65,176.217 M1237.69,217.498 L1237.69,219.17 C1231.45,220.93 1225.97,222.81 1221.25,224.81 L1220.76,224.56 L1220.76,214.388 C1220.52,214.628 1219.83,215.344 1218.67,216.537 C1217.51,217.73 1216.7,218.555 1216.22,219.013 C1215.74,219.472 1214.92,220.178 1213.76,221.131 C1212.59,222.084 1211.57,222.769 1210.69,223.185 C1209.81,223.602 1208.69,223.998 1207.33,224.373 C1205.97,224.748 1204.61,224.935 1203.25,224.935 C1198.85,224.935 1195.33,223.498 1192.69,220.623 C1190.05,217.748 1188.73,213.92 1188.73,209.138 L1188.73,179.06 C1188.73,176.269 1188.21,174.336 1187.17,173.263 C1186.13,172.191 1184.17,171.576 1181.29,171.42 L1181.29,169.732 L1198.81,169.732 L1198.81,208.654 C1198.81,211.123 1199.65,213.253 1201.33,215.045 C1203.02,216.836 1205.01,217.732 1207.33,217.732 C1208.21,217.732 1209.25,217.612 1210.45,217.373 C1211.65,217.133 1213.03,216.675 1214.59,215.998 C1216.15,215.321 1217.47,214.248 1218.55,212.779 C1219.63,211.31 1220.17,209.498 1220.17,207.342 L1220.17,179.295 C1220.17,176.347 1219.63,174.396 1218.55,173.443 C1217.47,172.49 1215.06,171.935 1211.29,171.779 L1211.29,169.732 L1230.25,169.732 L1230.25,210.685 C1230.25,213.477 1230.69,215.31 1231.57,216.185 C1232.45,217.06 1234.29,217.498 1237.09,217.498 L1237.69,217.498 M1240.29,148.982 L1240.29,147.06 C1248.21,145.133 1254.57,143.373 1259.37,141.779 L1259.86,142.013 L1259.86,213.654 C1259.86,216.935 1260.4,219.076 1261.47,220.076 C1262.55,221.076 1265.01,221.696 1268.86,221.935 L1268.86,223.732 L1240.53,223.732 L1240.53,221.935 C1244.29,221.612 1246.77,220.891 1247.97,219.771 C1249.16,218.652 1249.76,216.493 1249.76,213.295 L1249.76,156.06 C1249.76,153.258 1249.4,151.336 1248.69,150.295 C1247.97,149.253 1246.65,148.732 1244.73,148.732 C1243.13,148.732 1241.65,148.816 1240.29,148.982 M1303.09,198.154 C1303.09,189.279 1305.71,182.123 1310.95,176.685 C1316.19,171.248 1322.33,168.529 1329.37,168.529 C1334.41,168.529 1338.76,169.75 1342.4,172.193 C1346.04,174.636 1347.86,177.534 1347.86,180.888 C1347.86,182.253 1347.29,183.435 1346.17,184.435 C1345.04,185.435 1343.69,185.935 1342.09,185.935 C1339.37,185.935 1337.49,184.112 1336.45,180.467 L1335.73,177.842 C1335.09,175.623 1334.28,174.118 1333.33,173.326 C1332.37,172.534 1330.81,172.138 1328.65,172.138 C1323.77,172.138 1319.83,174.068 1316.83,177.928 C1313.83,181.787 1312.33,186.779 1312.33,192.904 C1312.33,199.748 1314.07,205.336 1317.54,209.67 C1321.02,214.003 1325.49,216.17 1330.94,216.17 C1334.37,216.17 1337.33,215.334 1339.81,213.662 C1342.29,211.99 1344.97,209.086 1347.86,204.951 L1349.53,206.029 C1348.73,207.633 1348.03,208.956 1347.43,209.998 C1346.83,211.04 1345.75,212.605 1344.19,214.693 C1342.64,216.782 1341.1,218.469 1339.58,219.756 C1338.06,221.042 1336.06,222.227 1333.58,223.31 C1331.1,224.394 1328.53,224.935 1325.89,224.935 C1319.25,224.935 1313.79,222.433 1309.51,217.428 C1305.23,212.422 1303.09,205.998 1303.09,198.154 M1356.09,211.888 C1356.09,210.451 1356.25,209.115 1356.57,207.881 C1356.89,206.646 1357.45,205.493 1358.25,204.42 C1359.05,203.347 1359.81,202.373 1360.53,201.498 C1361.25,200.623 1362.33,199.727 1363.77,198.81 C1365.21,197.894 1366.41,197.138 1367.37,196.545 C1368.33,195.951 1369.79,195.235 1371.75,194.396 C1373.71,193.558 1375.21,192.92 1376.25,192.482 C1377.29,192.045 1378.93,191.388 1381.17,190.513 C1383.41,189.638 1385.05,189.003 1386.09,188.607 L1386.09,181.326 C1386.09,174.722 1383.05,171.42 1376.97,171.42 C1374.57,171.42 1372.53,171.998 1370.85,173.154 C1369.17,174.31 1368.33,175.691 1368.33,177.295 C1368.33,177.93 1368.43,178.808 1368.63,179.928 C1368.83,181.047 1368.94,181.769 1368.94,182.092 C1368.94,183.456 1368.39,184.638 1367.31,185.638 C1366.23,186.638 1364.97,187.138 1363.53,187.138 C1362.17,187.138 1360.98,186.618 1359.94,185.576 C1358.89,184.534 1358.37,183.331 1358.37,181.967 C1358.37,178.217 1360.31,175.04 1364.19,172.435 C1368.07,169.831 1372.85,168.529 1378.53,168.529 C1385.09,168.529 1389.61,170.102 1392.09,173.248 C1394.57,176.394 1395.81,181.196 1395.81,187.654 L1395.81,210.935 C1395.81,213.56 1396.07,215.37 1396.59,216.365 C1397.11,217.36 1398.05,217.857 1399.4,217.857 C1401.09,217.857 1402.85,217.102 1404.69,215.592 L1404.69,218.732 C1402.61,221.128 1400.79,222.761 1399.23,223.631 C1397.67,224.5 1395.89,224.935 1393.89,224.935 C1391.41,224.935 1389.59,224.237 1388.43,222.842 C1387.27,221.446 1386.53,219.144 1386.22,215.935 C1379.33,221.935 1373.49,224.935 1368.69,224.935 C1365.01,224.935 1361.99,223.714 1359.63,221.271 C1357.27,218.829 1356.09,215.701 1356.09,211.888 M1386.09,208.779 L1386.09,191.467 C1378.89,194.092 1373.85,196.638 1370.97,199.107 C1368.09,201.576 1366.65,204.56 1366.65,208.06 C1366.65,211.321 1367.45,213.748 1369.05,215.342 C1370.65,216.935 1372.37,217.732 1374.22,217.732 C1376.94,217.732 1379.85,216.816 1382.97,214.982 C1384.25,214.274 1385.09,213.521 1385.49,212.724 C1385.89,211.928 1386.09,210.612 1386.09,208.779 M1441.22,180.295 C1440.01,180.295 1438.52,179.594 1436.76,178.193 C1435,176.792 1433.85,176.092 1433.29,176.092 C1431.69,176.092 1429.89,177.253 1427.89,179.576 C1425.89,181.899 1424.89,184.019 1424.89,185.935 L1424.89,212.935 C1424.89,216.373 1425.57,218.691 1426.93,219.888 C1428.29,221.086 1431.01,221.769 1435.09,221.935 L1435.09,223.732 L1406.29,223.732 L1406.29,221.935 C1410.13,221.217 1412.51,220.417 1413.43,219.537 C1414.35,218.657 1414.81,216.696 1414.81,213.654 L1414.81,183.654 C1414.81,181.019 1414.51,179.159 1413.91,178.076 C1413.31,176.993 1412.25,176.451 1410.73,176.451 C1409.45,176.451 1408.05,176.612 1406.53,176.935 L1406.53,175.013 C1412.94,172.93 1418.86,170.769 1424.29,168.529 L1424.89,168.779 L1424.89,179.81 C1427.85,175.571 1430.37,172.631 1432.45,170.99 C1434.53,169.349 1436.82,168.529 1439.29,168.529 C1441.37,168.529 1442.98,169.089 1444.15,170.209 C1445.31,171.329 1445.89,172.888 1445.89,174.888 C1445.89,176.576 1445.47,177.899 1444.63,178.857 C1443.79,179.816 1442.65,180.295 1441.22,180.295 M1457.73,190.498 C1457.89,195.54 1458.57,199.878 1459.77,203.513 C1460.97,207.149 1462.53,209.868 1464.45,211.67 C1466.37,213.472 1468.31,214.753 1470.27,215.513 C1472.23,216.274 1474.29,216.654 1476.45,216.654 C1480.29,216.654 1483.64,215.693 1486.47,213.771 C1489.31,211.849 1492.17,208.612 1495.04,204.06 L1496.97,204.888 C1494.49,211.368 1491.05,216.329 1486.65,219.771 C1482.25,223.214 1477.21,224.935 1471.53,224.935 C1464.65,224.935 1459.2,222.516 1455.15,217.678 C1451.11,212.839 1449.09,206.3 1449.09,198.06 C1449.09,189.175 1451.43,182.032 1456.12,176.631 C1460.8,171.23 1466.82,168.529 1474.17,168.529 C1480.25,168.529 1484.97,170.349 1488.33,173.99 C1491.69,177.631 1493.81,183.133 1494.69,190.498 L1457.73,190.498 M1457.97,186.888 L1482.45,186.888 C1481.65,181.691 1480.41,178.092 1478.73,176.092 C1477.06,174.092 1474.37,173.092 1470.69,173.092 C1463.49,173.092 1459.25,177.691 1457.97,186.888 M1532.09,211.888 C1532.09,210.451 1532.25,209.115 1532.57,207.881 C1532.89,206.646 1533.45,205.493 1534.25,204.42 C1535.05,203.347 1535.81,202.373 1536.53,201.498 C1537.25,200.623 1538.33,199.727 1539.77,198.81 C1541.21,197.894 1542.41,197.138 1543.37,196.545 C1544.33,195.951 1545.79,195.235 1547.75,194.396 C1549.71,193.558 1551.21,192.92 1552.25,192.482 C1553.29,192.045 1554.93,191.388 1557.17,190.513 C1559.41,189.638 1561.05,189.003 1562.09,188.607 L1562.09,181.326 C1562.09,174.722 1559.05,171.42 1552.97,171.42 C1550.57,171.42 1548.53,171.998 1546.85,173.154 C1545.17,174.31 1544.33,175.691 1544.33,177.295 C1544.33,177.93 1544.43,178.808 1544.63,179.928 C1544.83,181.047 1544.94,181.769 1544.94,182.092 C1544.94,183.456 1544.39,184.638 1543.31,185.638 C1542.23,186.638 1540.97,187.138 1539.53,187.138 C1538.17,187.138 1536.98,186.618 1535.94,185.576 C1534.89,184.534 1534.37,183.331 1534.37,181.967 C1534.37,178.217 1536.31,175.04 1540.19,172.435 C1544.07,169.831 1548.85,168.529 1554.53,168.529 C1561.09,168.529 1565.61,170.102 1568.09,173.248 C1570.57,176.394 1571.81,181.196 1571.81,187.654 L1571.81,210.935 C1571.81,213.56 1572.07,215.37 1572.59,216.365 C1573.11,217.36 1574.05,217.857 1575.4,217.857 C1577.09,217.857 1578.85,217.102 1580.69,215.592 L1580.69,218.732 C1578.61,221.128 1576.79,222.761 1575.23,223.631 C1573.67,224.5 1571.89,224.935 1569.89,224.935 C1567.41,224.935 1565.59,224.237 1564.43,222.842 C1563.27,221.446 1562.53,219.144 1562.22,215.935 C1555.33,221.935 1549.49,224.935 1544.69,224.935 C1541.01,224.935 1537.99,223.714 1535.63,221.271 C1533.27,218.829 1532.09,215.701 1532.09,211.888 M1562.09,208.779 L1562.09,191.467 C1554.89,194.092 1549.85,196.638 1546.97,199.107 C1544.09,201.576 1542.65,204.56 1542.65,208.06 C1542.65,211.321 1543.45,213.748 1545.05,215.342 C1546.65,216.935 1548.37,217.732 1550.22,217.732 C1552.94,217.732 1555.85,216.816 1558.97,214.982 C1560.25,214.274 1561.09,213.521 1561.49,212.724 C1561.89,211.928 1562.09,210.612 1562.09,208.779 M1617.22,180.295 C1616.01,180.295 1614.52,179.594 1612.76,178.193 C1611,176.792 1609.85,176.092 1609.29,176.092 C1607.69,176.092 1605.89,177.253 1603.89,179.576 C1601.89,181.899 1600.89,184.019 1600.89,185.935 L1600.89,212.935 C1600.89,216.373 1601.57,218.691 1602.93,219.888 C1604.29,221.086 1607.01,221.769 1611.09,221.935 L1611.09,223.732 L1582.29,223.732 L1582.29,221.935 C1586.13,221.217 1588.51,220.417 1589.43,219.537 C1590.35,218.657 1590.81,216.696 1590.81,213.654 L1590.81,183.654 C1590.81,181.019 1590.51,179.159 1589.91,178.076 C1589.31,176.993 1588.25,176.451 1586.73,176.451 C1585.45,176.451 1584.05,176.612 1582.53,176.935 L1582.53,175.013 C1588.94,172.93 1594.86,170.769 1600.29,168.529 L1600.89,168.779 L1600.89,179.81 C1603.85,175.571 1606.37,172.631 1608.45,170.99 C1610.53,169.349 1612.82,168.529 1615.29,168.529 C1617.37,168.529 1618.98,169.089 1620.15,170.209 C1621.31,171.329 1621.89,172.888 1621.89,174.888 C1621.89,176.576 1621.47,177.899 1620.63,178.857 C1619.79,179.816 1618.65,180.295 1617.22,180.295 M1633.73,190.498 C1633.89,195.54 1634.57,199.878 1635.77,203.513 C1636.97,207.149 1638.53,209.868 1640.45,211.67 C1642.37,213.472 1644.31,214.753 1646.27,215.513 C1648.23,216.274 1650.29,216.654 1652.45,216.654 C1656.29,216.654 1659.64,215.693 1662.47,213.771 C1665.31,211.849 1668.17,208.612 1671.04,204.06 L1672.97,204.888 C1670.49,211.368 1667.05,216.329 1662.65,219.771 C1658.25,223.214 1653.21,224.935 1647.53,224.935 C1640.65,224.935 1635.2,222.516 1631.15,217.678 C1627.11,212.839 1625.09,206.3 1625.09,198.06 C1625.09,189.175 1627.43,182.032 1632.12,176.631 C1636.8,171.23 1642.82,168.529 1650.17,168.529 C1656.25,168.529 1660.97,170.349 1664.33,173.99 C1667.69,177.631 1669.81,183.133 1670.69,190.498 L1633.73,190.498 M1633.97,186.888 L1658.45,186.888 C1657.65,181.691 1656.41,178.092 1654.73,176.092 C1653.06,174.092 1650.37,173.092 1646.69,173.092 C1639.49,173.092 1635.25,177.691 1633.97,186.888 M1706.29,175.857 L1706.29,173.81 C1712.21,172.092 1717.73,170.331 1722.86,168.529 L1723.69,168.763 L1723.69,178.138 C1727.77,174.347 1730.99,171.797 1733.35,170.49 C1735.71,169.183 1738.29,168.529 1741.09,168.529 C1745.49,168.529 1748.95,170.102 1751.47,173.248 C1753.99,176.394 1755.25,180.79 1755.25,186.435 L1755.25,213.998 C1755.25,216.956 1755.73,218.938 1756.69,219.943 C1757.64,220.948 1759.61,221.612 1762.58,221.935 L1762.58,223.732 L1737.61,223.732 L1737.61,221.935 C1740.65,221.696 1742.67,220.894 1743.67,219.529 C1744.67,218.165 1745.17,215.597 1745.17,211.826 L1745.17,186.685 C1745.17,178.904 1742.25,175.013 1736.4,175.013 C1734.4,175.013 1732.57,175.474 1730.89,176.396 C1729.21,177.318 1726.93,179.144 1724.04,181.873 L1724.04,215.67 C1724.04,217.836 1724.6,219.362 1725.72,220.248 C1726.84,221.133 1728.92,221.696 1731.97,221.935 L1731.97,223.732 L1706.53,223.732 L1706.53,221.935 C1709.57,221.696 1711.57,220.993 1712.53,219.826 C1713.49,218.659 1713.97,216.352 1713.97,212.904 L1713.97,183.076 C1713.97,180.107 1713.65,178.081 1713.01,176.998 C1712.37,175.915 1711.21,175.373 1709.53,175.373 C1708.01,175.373 1706.93,175.534 1706.29,175.857 M1793.61,168.529 C1801.28,168.529 1807.6,171.092 1812.57,176.217 C1817.53,181.342 1820.01,187.826 1820.01,195.67 C1820.01,203.982 1817.45,210.938 1812.33,216.537 C1807.21,222.136 1800.89,224.935 1793.37,224.935 C1785.85,224.935 1779.59,222.235 1774.59,216.834 C1769.59,211.433 1767.09,204.696 1767.09,196.623 C1767.09,188.383 1769.55,181.641 1774.47,176.396 C1779.4,171.152 1785.77,168.529 1793.61,168.529 M1777.89,190.795 C1777.89,199.274 1779.45,206.482 1782.57,212.42 C1785.69,218.357 1789.77,221.326 1794.81,221.326 C1799.29,221.326 1802.81,219.425 1805.37,215.623 C1807.94,211.821 1809.22,206.555 1809.22,199.826 C1809.22,191.659 1807.62,185.003 1804.41,179.857 C1801.21,174.711 1797.09,172.138 1792.04,172.138 C1787.81,172.138 1784.39,173.842 1781.79,177.248 C1779.19,180.654 1777.89,185.17 1777.89,190.795 M1859.22,180.295 C1858.01,180.295 1856.52,179.594 1854.76,178.193 C1853,176.792 1851.85,176.092 1851.29,176.092 C1849.69,176.092 1847.89,177.253 1845.89,179.576 C1843.89,181.899 1842.89,184.019 1842.89,185.935 L1842.89,212.935 C1842.89,216.373 1843.57,218.691 1844.93,219.888 C1846.29,221.086 1849.01,221.769 1853.09,221.935 L1853.09,223.732 L1824.29,223.732 L1824.29,221.935 C1828.13,221.217 1830.51,220.417 1831.43,219.537 C1832.35,218.657 1832.81,216.696 1832.81,213.654 L1832.81,183.654 C1832.81,181.019 1832.51,179.159 1831.91,178.076 C1831.31,176.993 1830.25,176.451 1828.73,176.451 C1827.45,176.451 1826.05,176.612 1824.53,176.935 L1824.53,175.013 C1830.94,172.93 1836.86,170.769 1842.29,168.529 L1842.89,168.779 L1842.89,179.81 C1845.85,175.571 1848.37,172.631 1850.45,170.99 C1852.53,169.349 1854.82,168.529 1857.29,168.529 C1859.37,168.529 1860.98,169.089 1862.15,170.209 C1863.31,171.329 1863.89,172.888 1863.89,174.888 C1863.89,176.576 1863.47,177.899 1862.63,178.857 C1861.79,179.816 1860.65,180.295 1859.22,180.295 M1893.61,168.529 C1901.28,168.529 1907.6,171.092 1912.57,176.217 C1917.53,181.342 1920.01,187.826 1920.01,195.67 C1920.01,203.982 1917.45,210.938 1912.33,216.537 C1907.21,222.136 1900.89,224.935 1893.37,224.935 C1885.85,224.935 1879.59,222.235 1874.59,216.834 C1869.59,211.433 1867.09,204.696 1867.09,196.623 C1867.09,188.383 1869.55,181.641 1874.47,176.396 C1879.4,171.152 1885.77,168.529 1893.61,168.529 M1877.89,190.795 C1877.89,199.274 1879.45,206.482 1882.57,212.42 C1885.69,218.357 1889.77,221.326 1894.81,221.326 C1899.29,221.326 1902.81,219.425 1905.37,215.623 C1907.94,211.821 1909.22,206.555 1909.22,199.826 C1909.22,191.659 1907.62,185.003 1904.41,179.857 C1901.21,174.711 1897.09,172.138 1892.04,172.138 C1887.81,172.138 1884.39,173.842 1881.79,177.248 C1879.19,180.654 1877.89,185.17 1877.89,190.795 M1926.09,198.154 C1926.09,189.279 1928.71,182.123 1933.95,176.685 C1939.19,171.248 1945.33,168.529 1952.37,168.529 C1957.41,168.529 1961.76,169.75 1965.4,172.193 C1969.04,174.636 1970.86,177.534 1970.86,180.888 C1970.86,182.253 1970.29,183.435 1969.17,184.435 C1968.04,185.435 1966.69,185.935 1965.09,185.935 C1962.37,185.935 1960.49,184.112 1959.45,180.467 L1958.73,177.842 C1958.09,175.623 1957.28,174.118 1956.33,173.326 C1955.37,172.534 1953.81,172.138 1951.65,172.138 C1946.77,172.138 1942.83,174.068 1939.83,177.928 C1936.83,181.787 1935.33,186.779 1935.33,192.904 C1935.33,199.748 1937.07,205.336 1940.54,209.67 C1944.02,214.003 1948.49,216.17 1953.94,216.17 C1957.37,216.17 1960.33,215.334 1962.81,213.662 C1965.29,211.99 1967.97,209.086 1970.86,204.951 L1972.53,206.029 C1971.73,207.633 1971.03,208.956 1970.43,209.998 C1969.83,211.04 1968.75,212.605 1967.19,214.693 C1965.64,216.782 1964.1,218.469 1962.58,219.756 C1961.06,221.042 1959.06,222.227 1956.58,223.31 C1954.1,224.394 1951.53,224.935 1948.89,224.935 C1942.25,224.935 1936.79,222.433 1932.51,217.428 C1928.23,212.422 1926.09,205.998 1926.09,198.154"/>
<path class="MeasureNumber" d="M146.513,983.952 C146.513,982.535 146.198,981.282 145.568,980.194 C144.938,979.105 144.178,978.261 143.287,977.662 C142.396,977.064 141.399,976.571 140.295,976.186 C139.191,975.8 138.23,975.548 137.412,975.428 C136.594,975.308 135.883,975.248 135.279,975.248 C134.956,975.248 134.795,975.139 134.795,974.92 C134.795,974.847 134.805,974.78 134.826,974.717 L139.185,965.264 L147.545,965.264 C147.972,965.264 148.313,965.196 148.568,965.061 C148.823,964.925 149.097,964.644 149.388,964.217 L149.748,964.498 L148.232,968.061 C148.128,968.3 147.821,968.42 147.31,968.42 L139.467,968.42 L137.795,971.811 C141.68,972.498 144.571,973.621 146.467,975.178 C148.362,976.735 149.31,979.019 149.31,982.03 C149.31,983.603 149.063,985.004 148.568,986.233 C148.073,987.462 147.446,988.452 146.685,989.202 C145.925,989.952 145.045,990.566 144.045,991.045 C143.045,991.524 142.086,991.853 141.17,992.03 C140.253,992.207 139.326,992.295 138.388,992.295 C136.899,992.295 135.714,992.074 134.834,991.631 C133.954,991.189 133.513,990.582 133.513,989.811 C133.513,988.821 134.086,988.327 135.232,988.327 C135.982,988.327 136.948,988.735 138.131,989.553 C139.313,990.371 140.253,990.78 140.951,990.78 C142.524,990.78 143.844,990.121 144.912,988.803 C145.98,987.485 146.513,985.868 146.513,983.952"/>
<path class="SlurSegment" stroke="#000000" stroke-width="1.75" stroke-linecap="round" stroke-linejoin="round" fill-rule="evenodd" d="M1118.05,1044.23 C1143.19,1008.64 1200.55,1002.39 1232.77,1031.73 C1200.98,1006.36 1143.62,1012.61 1118.05,1044.23"/>
<polyline class="BarLine" stroke="#000000" stroke-width="4.00" stroke-linejoin="bevel" points="2812.97,1040.73 2812.97,1142.73"/>
<polyline class="BarLine" stroke="#000000" stroke-width="12.50" stroke-linejoin="bevel" points="2829.22,1040.73 2829.22,1142.73"/>
<path class="BarLine" d="M2318.99,1083.23 C2317.88,1082.13 2317.32,1080.8 2317.32,1079.23 C2317.32,1077.67 2317.88,1076.33 2318.99,1075.23 C2320.1,1074.12 2321.43,1073.56 2323,1073.56 C2324.56,1073.56 2325.89,1074.12 2327,1075.23 C2328.1,1076.33 2328.65,1077.67 2328.65,1079.23 C2328.65,1080.8 2328.1,1082.13 2327,1083.23 C2325.89,1084.34 2324.56,1084.89 2323,1084.89 C2321.43,1084.89 2320.1,1084.34 2318.99,1083.23"/>
<path class="BarLine" d="M2318.99,1108.23 C2317.88,1107.13 2317.32,1105.8 2317.32,1104.23 C2317.32,1102.67 2317.88,1101.33 2318.99,1100.23 C2320.1,1099.12 2321.43,1098.56 2323,1098.56 C2324.56,1098.56 2325.89,1099.12 2327,1100.23 C2328.1,1101.33 2328.65,1102.67 2328.65,1104.23 C2328.65,1105.8 2328.1,1107.13 2327,1108.23 C2325.89,1109.34 2324.56,1109.89 2323,1109.89 C2321.43,1109.89 2320.1,1109.34 2318.99,1108.23"/>
<polyline class="BarLine" stroke="#000000" stroke-width="4.00" stroke-linejoin="bevel" points="2338.74,1040.73 2338.74,1142.73"/>
<polyline class="BarLine" stroke="#000000" stroke-width="12.50" stroke-linejoin="bevel" points="2354.99,1040.73 2354.99,1142.73"/>
<polyline class="BarLine" stroke="#000000" stroke-width="4.00" stroke-linejoin="bevel" points="1865.59,1040.73 1865.59,1142.73"/>
<polyline class="BarLine" stroke="#000000" stroke-width="4.00" stroke-linejoin="bevel" points="1333.04,1040.73 1333.04,1142.73"/>
<polyline class="BarLine" stroke="#000000" stroke-width="4.00" stroke-linejoin="bevel" points="840.142,1040.73 840.142,1142.73"/>
<polyline class="BarLine" stroke="#000000" stroke-width="12.50" stroke-linejoin="bevel" points="239.42,1040.73 239.42,1142.73"/>
<polyline class="BarLine" stroke="#000000" stroke-width="4.00" stroke-linejoin="bevel" points="255.67,1040.73 255.67,1142.73"/>
<path class="BarLine" d="M267.412,1083.23 C266.303,1082.13 265.748,1080.8 265.748,1079.23 C265.748,1077.67 266.303,1076.33 267.412,1075.23 C268.521,1074.12 269.857,1073.56 271.42,1073.56 C272.982,1073.56 274.316,1074.12 275.42,1075.23 C276.524,1076.33 277.076,1077.67 277.076,1079.23 C277.076,1080.8 276.524,1082.13 275.42,1083.23 C274.316,1084.34 272.982,1084.89 271.42,1084.89 C269.857,1084.89 268.521,1084.34 267.412,1083.23"/>
<path class="BarLine" d="M267.412,1108.23 C266.303,1107.13 265.748,1105.8 265.748,1104.23 C265.748,1102.67 266.303,1101.33 267.412,1100.23 C268.521,1099.12 269.857,1098.56 271.42,1098.56 C272.982,1098.56 274.316,1099.12 275.42,1100.23 C276.524,1101.33 277.076,1102.67 277.076,1104.23 C277.076,1105.8 276.524,1107.13 275.42,1108.23 C274.316,1109.34 272.982,1109.89 271.42,1109.89 C269.857,1109.89 268.521,1109.34 267.412,1108.23"/>
<polyline class="BarLine" stroke="#000000" stroke-width="4.00" stroke-linejoin="bevel" points="2833.47,565.733 2833.47,667.733"/>
<polyline class="BarLine" stroke="#000000" stroke-width="4.00" stroke-linejoin="bevel" points="2198.28,565.733 2198.28,667.733"/>
<polyline class="BarLine" stroke="#000000" stroke-width="4.00" stroke-linejoin="bevel" points="1568.69,565.733 1568.69,667.733"/>
<polyline class="BarLine" stroke="#000000" stroke-width="4.00" stroke-linejoin="bevel" points="933.502,565.733 933.502,667.733"/>
<path class="Accidental" d="M2217.88,537.623 L2217.88,545.342 C2217.88,548.081 2218.01,550.264 2218.27,551.889 C2220.41,550.066 2221.95,548.701 2222.86,547.795 C2223.9,546.753 2224.95,545.318 2225.99,543.49 C2227.03,541.662 2227.55,539.837 2227.55,538.014 C2227.55,536.191 2227.16,534.628 2226.38,533.326 C2225.6,532.024 2224.55,531.373 2223.25,531.373 C2221.69,531.373 2220.39,531.962 2219.35,533.139 C2218.37,534.441 2217.88,535.936 2217.88,537.623 M2213.77,555.498 L2212.5,496.029 C2213.42,495.509 2214.33,495.248 2215.24,495.248 C2216.16,495.248 2217.07,495.509 2217.97,496.029 L2217.19,530.498 C2219.86,528.217 2222.92,527.076 2226.38,527.076 C2228.91,527.076 2231.02,528.118 2232.71,530.201 C2234.41,532.285 2235.25,534.665 2235.25,537.342 C2235.25,539.029 2234.7,540.821 2233.6,542.717 C2232.55,544.467 2231.45,545.831 2230.28,546.811 C2229.63,547.331 2227.97,548.634 2225.3,550.717 C2224.52,551.3 2223.59,551.983 2222.52,552.764 C2221.45,553.545 2220.78,554.035 2220.52,554.233 C2220.06,554.493 2219.63,555.014 2219.24,555.795 C2218.79,556.451 2218.27,557.003 2217.67,557.451 C2217.23,557.847 2216.68,558.045 2216.03,558.045 C2215.38,558.045 2214.85,557.816 2214.46,557.358 C2214,556.899 2213.77,556.279 2213.77,555.498"/>
<path class="Accidental" d="M953.096,537.623 L953.096,545.342 C953.096,548.081 953.226,550.264 953.487,551.889 C955.632,550.066 957.164,548.701 958.08,547.795 C959.122,546.753 960.164,545.318 961.205,543.49 C962.247,541.662 962.768,539.837 962.768,538.014 C962.768,536.191 962.377,534.628 961.596,533.326 C960.815,532.024 959.773,531.373 958.471,531.373 C956.908,531.373 955.606,531.962 954.565,533.139 C953.585,534.441 953.096,535.936 953.096,537.623 M948.987,555.498 L947.721,496.029 C948.638,495.509 949.552,495.248 950.463,495.248 C951.375,495.248 952.283,495.509 953.19,496.029 L952.408,530.498 C955.075,528.217 958.138,527.076 961.596,527.076 C964.127,527.076 966.239,528.118 967.932,530.201 C969.625,532.285 970.471,534.665 970.471,537.342 C970.471,539.029 969.919,540.821 968.815,542.717 C967.773,544.467 966.669,545.831 965.502,546.811 C964.846,547.331 963.184,548.634 960.518,550.717 C959.737,551.3 958.809,551.983 957.737,552.764 C956.664,553.545 955.997,554.035 955.737,554.233 C955.278,554.493 954.851,555.014 954.455,555.795 C954.007,556.451 953.487,557.003 952.893,557.451 C952.445,557.847 951.895,558.045 951.244,558.045 C950.593,558.045 950.07,557.816 949.674,557.358 C949.216,556.899 948.987,556.279 948.987,555.498"/>
<polyline class="LedgerLine" stroke="#000000" stroke-width="4.00" stroke-linecap="square" stroke-linejoin="bevel" points="2238.46,541.733 2286.37,541.733"/>
<polyline class="LedgerLine" stroke="#000000" stroke-width="4.00" stroke-linecap="square" stroke-linejoin="bevel" points="973.674,541.733 1021.59,541.733"/>
<polyline class="Stem" stroke="#000000" stroke-width="3.25" stroke-linecap="round" stroke-linejoin="bevel" points="2626.05,1083.93 2626.05,1160.48"/>
<polyline class="Stem" stroke="#000000" stroke-width="3.25" stroke-linecap="round" stroke-linejoin="bevel" points="2509.45,1083.93 2509.45,1147.98"/>
<polyline class="Stem" stroke="#000000" stroke-width="3.25" stroke-linecap="round" stroke-linejoin="bevel" points="2392.86,1071.43 2392.86,1141.73"/>
<polyline class="Stem" stroke="#000000" stroke-width="3.25" stroke-linecap="round" stroke-linejoin="bevel" points="2132.4,1083.93 2132.4,1160.48"/>
<polyline class="Stem" stroke="#000000" stroke-width="3.25" stroke-linecap="round" stroke-linejoin="bevel" points="2015.81,1083.93 2015.81,1147.98"/>
<polyline class="Stem" stroke="#000000" stroke-width="3.25" stroke-linecap="round" stroke-linejoin="bevel" points="1899.22,1071.43 1899.22,1141.73"/>
<polyline class="Stem" stroke="#000000" stroke-width="3.25" stroke-linecap="round" stroke-linejoin="bevel" points="1748.03,1058.93 1748.03,1135.48"/>
<polyline class="Stem" stroke="#000000" stroke-width="3.25" stroke-linecap="round" stroke-linejoin="bevel" points="1630.84,1071.43 1630.84,1141.73"/>
<polyline class="Stem" stroke="#000000" stroke-width="3.25" stroke-linecap="round" stroke-linejoin="bevel" points="1557.59,1058.93 1557.59,1141.73"/>
<polyline class="Stem" stroke="#000000" stroke-width="3.25" stroke-linecap="round" stroke-linejoin="bevel" points="1484.35,1046.43 1484.35,1135.48"/>
<polyline class="Stem" stroke="#000000" stroke-width="3.25" stroke-linecap="round" stroke-linejoin="bevel" points="1217.94,1058.93 1217.94,1135.48"/>
<polyline class="Stem" stroke="#000000" stroke-width="3.25" stroke-linecap="round" stroke-linejoin="bevel" points="1103.21,1071.43 1103.21,1141.73"/>
<polyline class="Stem" stroke="#000000" stroke-width="3.25" stroke-linecap="round" stroke-linejoin="bevel" points="988.49,1083.93 988.49,1147.98"/>
<polyline class="Stem" stroke="#000000" stroke-width="3.25" stroke-linecap="round" stroke-linejoin="bevel" points="873.767,1071.43 873.767,1141.73"/>
<polyline class="Stem" stroke="#000000" stroke-width="3.25" stroke-linecap="round" stroke-linejoin="bevel" points="722.577,1058.93 722.577,1135.48"/>
<polyline class="Stem" stroke="#000000" stroke-width="3.25" stroke-linecap="round" stroke-linejoin="bevel" points="605.387,1071.43 605.387,1141.73"/>
<polyline class="Stem" stroke="#000000" stroke-width="3.25" stroke-linecap="round" stroke-linejoin="bevel" points="532.143,1058.93 532.143,1141.73"/>
<polyline class="Stem" stroke="#000000" stroke-width="3.25" stroke-linecap="round" stroke-linejoin="bevel" points="458.899,1046.43 458.899,1135.48"/>
<polyline class="Stem" stroke="#000000" stroke-width="3.25" stroke-linecap="round" stroke-linejoin="bevel" points="2647.38,583.928 2647.38,666.733"/>
<polyline class="Stem" stroke="#000000" stroke-width="3.25" stroke-linecap="round" stroke-linejoin="bevel" points="2552.19,571.428 2552.19,660.483"/>
<polyline class="Stem" stroke="#000000" stroke-width="3.25" stroke-linecap="round" stroke-linejoin="bevel" points="2399.88,558.928 2399.88,622.983"/>
<polyline class="Stem" stroke="#000000" stroke-width="3.25" stroke-linecap="round" stroke-linejoin="bevel" points="2247.58,546.428 2247.58,616.733"/>
<polyline class="Stem" stroke="#000000" stroke-width="3.25" stroke-linecap="round" stroke-linejoin="bevel" points="2057.89,558.928 2057.89,635.483"/>
<polyline class="Stem" stroke="#000000" stroke-width="3.25" stroke-linecap="round" stroke-linejoin="bevel" points="1917.86,558.928 1917.86,635.483"/>
<polyline class="Stem" stroke="#000000" stroke-width="3.25" stroke-linecap="round" stroke-linejoin="bevel" points="1830.35,571.428 1830.35,660.483"/>
<polyline class="Stem" stroke="#000000" stroke-width="3.25" stroke-linecap="round" stroke-linejoin="bevel" points="1742.83,583.928 1742.83,666.733"/>
<polyline class="Stem" stroke="#000000" stroke-width="3.25" stroke-linecap="round" stroke-linejoin="bevel" points="1382.6,583.928 1382.6,666.733"/>
<polyline class="Stem" stroke="#000000" stroke-width="3.25" stroke-linecap="round" stroke-linejoin="bevel" points="1287.41,571.428 1287.41,660.483"/>
<polyline class="Stem" stroke="#000000" stroke-width="3.25" stroke-linecap="round" stroke-linejoin="bevel" points="1135.1,558.928 1135.1,622.983"/>
<polyline class="Stem" stroke="#000000" stroke-width="3.25" stroke-linecap="round" stroke-linejoin="bevel" points="982.799,546.428 982.799,616.733"/>
<polyline class="Stem" stroke="#000000" stroke-width="3.25" stroke-linecap="round" stroke-linejoin="bevel" points="793.104,558.928 793.104,635.483"/>
<polyline class="Stem" stroke="#000000" stroke-width="3.25" stroke-linecap="round" stroke-linejoin="bevel" points="653.081,558.928 653.081,635.483"/>
<polyline class="Stem" stroke="#000000" stroke-width="3.25" stroke-linecap="round" stroke-linejoin="bevel" points="565.567,571.428 565.567,660.483"/>
<polyline class="Stem" stroke="#000000" stroke-width="3.25" stroke-linecap="round" stroke-linejoin="bevel" points="478.052,583.928 478.052,666.733"/>
<path class="Note" d="M2646.39,1065.47 C2649.51,1065.47 2652.16,1066.28 2654.31,1067.9 C2656.32,1069.67 2657.33,1071.88 2657.33,1074.55 C2657.33,1079.03 2655.02,1083.23 2650.41,1087.14 C2645.72,1091.05 2640.7,1093 2635.36,1093 C2632.23,1093 2629.6,1092.19 2627.45,1090.56 C2625.43,1088.8 2624.42,1086.59 2624.42,1083.92 C2624.42,1079.43 2626.76,1075.23 2631.45,1071.33 C2636.01,1067.42 2640.99,1065.47 2646.39,1065.47"/>
<path class="Note" d="M2529.8,1065.47 C2532.92,1065.47 2535.56,1066.28 2537.72,1067.9 C2539.73,1069.67 2540.74,1071.88 2540.74,1074.55 C2540.74,1079.03 2538.43,1083.23 2533.81,1087.14 C2529.13,1091.05 2524.11,1093 2518.77,1093 C2515.64,1093 2513.01,1092.19 2510.86,1090.56 C2508.84,1088.8 2507.83,1086.59 2507.83,1083.92 C2507.83,1079.43 2510.17,1075.23 2514.86,1071.33 C2519.42,1067.42 2524.4,1065.47 2529.8,1065.47"/>
<path class="Note" d="M2413.21,1052.97 C2416.33,1052.97 2418.97,1053.78 2421.13,1055.4 C2423.14,1057.17 2424.14,1059.38 2424.14,1062.05 C2424.14,1066.53 2421.84,1070.73 2417.22,1074.64 C2412.53,1078.55 2407.52,1080.5 2402.18,1080.5 C2399.05,1080.5 2396.41,1079.69 2394.27,1078.06 C2392.25,1076.3 2391.24,1074.09 2391.24,1071.42 C2391.24,1066.93 2393.58,1062.73 2398.27,1058.83 C2402.83,1054.92 2407.81,1052.97 2413.21,1052.97"/>
<path class="Note" d="M2152.75,1065.47 C2155.87,1065.47 2158.51,1066.28 2160.67,1067.9 C2162.68,1069.67 2163.68,1071.88 2163.68,1074.55 C2163.68,1079.03 2161.38,1083.23 2156.76,1087.14 C2152.07,1091.05 2147.06,1093 2141.71,1093 C2138.59,1093 2135.95,1092.19 2133.81,1090.56 C2131.79,1088.8 2130.78,1086.59 2130.78,1083.92 C2130.78,1079.43 2133.12,1075.23 2137.81,1071.33 C2142.37,1067.42 2147.35,1065.47 2152.75,1065.47"/>
<path class="Note" d="M2036.15,1065.47 C2039.28,1065.47 2041.92,1066.28 2044.08,1067.9 C2046.09,1069.67 2047.09,1071.88 2047.09,1074.55 C2047.09,1079.03 2044.78,1083.23 2040.17,1087.14 C2035.48,1091.05 2030.47,1093 2025.12,1093 C2022,1093 2019.36,1092.19 2017.22,1090.56 C2015.2,1088.8 2014.19,1086.59 2014.19,1083.92 C2014.19,1079.43 2016.53,1075.23 2021.22,1071.33 C2025.78,1067.42 2030.76,1065.47 2036.15,1065.47"/>
<path class="Note" d="M1919.56,1052.97 C1922.69,1052.97 1925.33,1053.78 1927.48,1055.4 C1929.49,1057.17 1930.5,1059.38 1930.5,1062.05 C1930.5,1066.53 1928.19,1070.73 1923.58,1074.64 C1918.89,1078.55 1913.88,1080.5 1908.53,1080.5 C1905.41,1080.5 1902.77,1079.69 1900.63,1078.06 C1898.6,1076.3 1897.59,1074.09 1897.59,1071.42 C1897.59,1066.93 1899.94,1062.73 1904.63,1058.83 C1909.19,1054.92 1914.17,1052.97 1919.56,1052.97"/>
<path class="Note" d="M1768.37,1040.47 C1771.5,1040.47 1774.14,1041.28 1776.29,1042.9 C1778.3,1044.67 1779.31,1046.88 1779.31,1049.55 C1779.31,1054.03 1777,1058.23 1772.39,1062.14 C1767.7,1066.05 1762.69,1068 1757.34,1068 C1754.22,1068 1751.58,1067.19 1749.44,1065.56 C1747.41,1063.8 1746.4,1061.59 1746.4,1058.92 C1746.4,1054.43 1748.75,1050.23 1753.44,1046.33 C1758,1042.42 1762.98,1040.47 1768.37,1040.47"/>
<path class="Note" d="M1651.18,1052.97 C1654.31,1052.97 1656.95,1053.78 1659.1,1055.4 C1661.11,1057.17 1662.12,1059.38 1662.12,1062.05 C1662.12,1066.53 1659.81,1070.73 1655.2,1074.64 C1650.51,1078.55 1645.49,1080.5 1640.15,1080.5 C1637.03,1080.5 1634.39,1079.69 1632.24,1078.06 C1630.22,1076.3 1629.21,1074.09 1629.21,1071.42 C1629.21,1066.93 1631.56,1062.73 1636.24,1058.83 C1640.81,1054.92 1645.79,1052.97 1651.18,1052.97"/>
<path class="Note" d="M1577.94,1040.47 C1581.06,1040.47 1583.7,1041.28 1585.86,1042.9 C1587.87,1044.67 1588.88,1046.88 1588.88,1049.55 C1588.88,1054.03 1586.57,1058.23 1581.95,1062.14 C1577.27,1066.05 1572.25,1068 1566.91,1068 C1563.78,1068 1561.15,1067.19 1559,1065.56 C1556.98,1063.8 1555.97,1061.59 1555.97,1058.92 C1555.97,1054.43 1558.31,1050.23 1563,1046.33 C1567.56,1042.42 1572.54,1040.47 1577.94,1040.47"/>
<path class="Note" d="M1504.69,1027.97 C1507.82,1027.97 1510.46,1028.78 1512.62,1030.4 C1514.63,1032.17 1515.63,1034.38 1515.63,1037.05 C1515.63,1041.53 1513.32,1045.73 1508.71,1049.64 C1504.02,1053.55 1499.01,1055.5 1493.66,1055.5 C1490.54,1055.5 1487.9,1054.69 1485.76,1053.06 C1483.74,1051.3 1482.73,1049.09 1482.73,1046.42 C1482.73,1041.93 1485.07,1037.73 1489.76,1033.83 C1494.32,1029.92 1499.3,1027.97 1504.69,1027.97"/>
<path class="Note" d="M1238.28,1040.47 C1241.41,1040.47 1244.05,1041.28 1246.2,1042.9 C1248.21,1044.67 1249.22,1046.88 1249.22,1049.55 C1249.22,1054.03 1246.91,1058.23 1242.3,1062.14 C1237.61,1066.05 1232.59,1068 1227.25,1068 C1224.12,1068 1221.49,1067.19 1219.34,1065.56 C1217.32,1063.8 1216.31,1061.59 1216.31,1058.92 C1216.31,1054.43 1218.66,1050.23 1223.34,1046.33 C1227.91,1042.42 1232.89,1040.47 1238.28,1040.47"/>
<path class="Note" d="M1123.56,1052.97 C1126.68,1052.97 1129.32,1053.78 1131.48,1055.4 C1133.49,1057.17 1134.5,1059.38 1134.5,1062.05 C1134.5,1066.53 1132.19,1070.73 1127.57,1074.64 C1122.89,1078.55 1117.87,1080.5 1112.53,1080.5 C1109.4,1080.5 1106.77,1079.69 1104.62,1078.06 C1102.6,1076.3 1101.59,1074.09 1101.59,1071.42 C1101.59,1066.93 1103.93,1062.73 1108.62,1058.83 C1113.18,1054.92 1118.16,1052.97 1123.56,1052.97"/>
<path class="Note" d="M1008.83,1065.47 C1011.96,1065.47 1014.6,1066.28 1016.76,1067.9 C1018.77,1069.67 1019.77,1071.88 1019.77,1074.55 C1019.77,1079.03 1017.46,1083.23 1012.85,1087.14 C1008.16,1091.05 1003.15,1093 997.803,1093 C994.678,1093 992.043,1092.19 989.897,1090.56 C987.876,1088.8 986.865,1086.59 986.865,1083.92 C986.865,1079.43 989.209,1075.23 993.897,1071.33 C998.459,1067.42 1003.44,1065.47 1008.83,1065.47"/>
<path class="Note" d="M894.111,1052.97 C897.236,1052.97 899.876,1053.78 902.033,1055.4 C904.043,1057.17 905.048,1059.38 905.048,1062.05 C905.048,1066.53 902.741,1070.73 898.126,1074.64 C893.439,1078.55 888.423,1080.5 883.079,1080.5 C879.954,1080.5 877.319,1079.69 875.173,1078.06 C873.152,1076.3 872.142,1074.09 872.142,1071.42 C872.142,1066.93 874.486,1062.73 879.173,1058.83 C883.736,1054.92 888.715,1052.97 894.111,1052.97"/>
<path class="Note" d="M742.921,1040.47 C746.046,1040.47 748.686,1041.28 750.842,1042.9 C752.853,1044.67 753.858,1046.88 753.858,1049.55 C753.858,1054.03 751.551,1058.23 746.936,1062.14 C742.249,1066.05 737.233,1068 731.889,1068 C728.764,1068 726.129,1067.19 723.983,1065.56 C721.962,1063.8 720.952,1061.59 720.952,1058.92 C720.952,1054.43 723.296,1050.23 727.983,1046.33 C732.546,1042.42 737.525,1040.47 742.921,1040.47"/>
<path class="Note" d="M625.73,1052.97 C628.855,1052.97 631.496,1053.78 633.652,1055.4 C635.663,1057.17 636.668,1059.38 636.668,1062.05 C636.668,1066.53 634.361,1070.73 629.746,1074.64 C625.059,1078.55 620.043,1080.5 614.699,1080.5 C611.574,1080.5 608.939,1079.69 606.793,1078.06 C604.772,1076.3 603.762,1074.09 603.762,1071.42 C603.762,1066.93 606.105,1062.73 610.793,1058.83 C615.355,1054.92 620.335,1052.97 625.73,1052.97"/>
<path class="Note" d="M552.487,1040.47 C555.612,1040.47 558.252,1041.28 560.409,1042.9 C562.419,1044.67 563.424,1046.88 563.424,1049.55 C563.424,1054.03 561.117,1058.23 556.502,1062.14 C551.815,1066.05 546.799,1068 541.455,1068 C538.33,1068 535.695,1067.19 533.549,1065.56 C531.528,1063.8 530.518,1061.59 530.518,1058.92 C530.518,1054.43 532.862,1050.23 537.549,1046.33 C542.112,1042.42 547.091,1040.47 552.487,1040.47"/>
<path class="Note" d="M479.243,1027.97 C482.368,1027.97 485.008,1028.78 487.165,1030.4 C489.175,1032.17 490.18,1034.38 490.18,1037.05 C490.18,1041.53 487.873,1045.73 483.258,1049.64 C478.571,1053.55 473.555,1055.5 468.212,1055.5 C465.087,1055.5 462.451,1054.69 460.305,1053.06 C458.284,1051.3 457.274,1049.09 457.274,1046.42 C457.274,1041.93 459.618,1037.73 464.305,1033.83 C468.868,1029.92 473.847,1027.97 479.243,1027.97"/>
<path class="Note" d="M2667.72,565.467 C2670.85,565.467 2673.49,566.279 2675.64,567.904 C2677.66,569.665 2678.66,571.878 2678.66,574.545 C2678.66,579.035 2676.35,583.233 2671.74,587.139 C2667.05,591.045 2662.04,592.998 2656.69,592.998 C2653.57,592.998 2650.93,592.186 2648.79,590.561 C2646.76,588.8 2645.75,586.587 2645.75,583.92 C2645.75,579.43 2648.1,575.233 2652.79,571.326 C2657.35,567.42 2662.33,565.467 2667.72,565.467"/>
<path class="Note" d="M2572.53,552.967 C2575.66,552.967 2578.3,553.779 2580.45,555.404 C2582.47,557.165 2583.47,559.378 2583.47,562.045 C2583.47,566.535 2581.16,570.733 2576.55,574.639 C2571.86,578.545 2566.85,580.498 2561.5,580.498 C2558.38,580.498 2555.74,579.686 2553.6,578.061 C2551.57,576.3 2550.56,574.087 2550.56,571.42 C2550.56,566.93 2552.91,562.733 2557.6,558.826 C2562.16,554.92 2567.14,552.967 2572.53,552.967"/>
<path class="Note" d="M2420.23,540.467 C2423.35,540.467 2425.99,541.279 2428.15,542.904 C2430.16,544.665 2431.17,546.878 2431.17,549.545 C2431.17,554.035 2428.86,558.233 2424.24,562.139 C2419.56,566.045 2414.54,567.998 2409.2,567.998 C2406.07,567.998 2403.44,567.186 2401.29,565.561 C2399.27,563.8 2398.26,561.587 2398.26,558.92 C2398.26,554.43 2400.6,550.233 2405.29,546.326 C2409.85,542.42 2414.83,540.467 2420.23,540.467"/>
<path class="Note" d="M2267.92,527.967 C2271.05,527.967 2273.69,528.779 2275.85,530.404 C2277.86,532.165 2278.86,534.378 2278.86,537.045 C2278.86,541.535 2276.55,545.733 2271.94,549.639 C2267.25,553.545 2262.24,555.498 2256.89,555.498 C2253.77,555.498 2251.13,554.686 2248.99,553.061 C2246.97,551.3 2245.96,549.087 2245.96,546.42 C2245.96,541.93 2248.3,537.733 2252.99,533.826 C2257.55,529.92 2262.53,527.967 2267.92,527.967"/>
<path class="Note" d="M2078.23,540.467 C2081.35,540.467 2084,541.279 2086.15,542.904 C2088.16,544.665 2089.17,546.878 2089.17,549.545 C2089.17,554.035 2086.86,558.233 2082.25,562.139 C2077.56,566.045 2072.54,567.998 2067.2,567.998 C2064.07,567.998 2061.44,567.186 2059.29,565.561 C2057.27,563.8 2056.26,561.587 2056.26,558.92 C2056.26,554.43 2058.6,550.233 2063.29,546.326 C2067.85,542.42 2072.83,540.467 2078.23,540.467"/>
<path class="Note" d="M1938.21,540.467 C1941.33,540.467 1943.97,541.279 1946.13,542.904 C1948.14,544.665 1949.14,546.878 1949.14,549.545 C1949.14,554.035 1946.84,558.233 1942.22,562.139 C1937.53,566.045 1932.52,567.998 1927.18,567.998 C1924.05,567.998 1921.41,567.186 1919.27,565.561 C1917.25,563.8 1916.24,561.587 1916.24,558.92 C1916.24,554.43 1918.58,550.233 1923.27,546.326 C1927.83,542.42 1932.81,540.467 1938.21,540.467"/>
<path class="Note" d="M1850.69,552.967 C1853.82,552.967 1856.46,553.779 1858.61,555.404 C1860.62,557.165 1861.63,559.378 1861.63,562.045 C1861.63,566.535 1859.32,570.733 1854.71,574.639 C1850.02,578.545 1845,580.498 1839.66,580.498 C1836.54,580.498 1833.9,579.686 1831.75,578.061 C1829.73,576.3 1828.72,574.087 1828.72,571.42 C1828.72,566.93 1831.07,562.733 1835.75,558.826 C1840.32,554.92 1845.3,552.967 1850.69,552.967"/>
<path class="Note" d="M1763.18,565.467 C1766.3,565.467 1768.94,566.279 1771.1,567.904 C1773.11,569.665 1774.12,571.878 1774.12,574.545 C1774.12,579.035 1771.81,583.233 1767.19,587.139 C1762.51,591.045 1757.49,592.998 1752.15,592.998 C1749.02,592.998 1746.39,592.186 1744.24,590.561 C1742.22,588.8 1741.21,586.587 1741.21,583.92 C1741.21,579.43 1743.55,575.233 1748.24,571.326 C1752.8,567.42 1757.78,565.467 1763.18,565.467"/>
<path class="Note" d="M1402.94,565.467 C1406.07,565.467 1408.71,566.279 1410.86,567.904 C1412.87,569.665 1413.88,571.878 1413.88,574.545 C1413.88,579.035 1411.57,583.233 1406.96,587.139 C1402.27,591.045 1397.25,592.998 1391.91,592.998 C1388.78,592.998 1386.15,592.186 1384,590.561 C1381.98,588.8 1380.97,586.587 1380.97,583.92 C1380.97,579.43 1383.32,575.233 1388,571.326 C1392.57,567.42 1397.55,565.467 1402.94,565.467"/>
<path class="Note" d="M1307.75,552.967 C1310.88,552.967 1313.52,553.779 1315.67,555.404 C1317.68,557.165 1318.69,559.378 1318.69,562.045 C1318.69,566.535 1316.38,570.733 1311.77,574.639 C1307.08,578.545 1302.06,580.498 1296.72,580.498 C1293.59,580.498 1290.96,579.686 1288.81,578.061 C1286.79,576.3 1285.78,574.087 1285.78,571.42 C1285.78,566.93 1288.13,562.733 1292.81,558.826 C1297.38,554.92 1302.36,552.967 1307.75,552.967"/>
<path class="Note" d="M1155.45,540.467 C1158.57,540.467 1161.21,541.279 1163.37,542.904 C1165.38,544.665 1166.38,546.878 1166.38,549.545 C1166.38,554.035 1164.08,558.233 1159.46,562.139 C1154.78,566.045 1149.76,567.998 1144.42,567.998 C1141.29,567.998 1138.66,567.186 1136.51,565.561 C1134.49,563.8 1133.48,561.587 1133.48,558.92 C1133.48,554.43 1135.82,550.233 1140.51,546.326 C1145.07,542.42 1150.05,540.467 1155.45,540.467"/>
<path class="Note" d="M1003.14,527.967 C1006.27,527.967 1008.91,528.779 1011.06,530.404 C1013.08,532.165 1014.08,534.378 1014.08,537.045 C1014.08,541.535 1011.77,545.733 1007.16,549.639 C1002.47,553.545 997.455,555.498 992.112,555.498 C988.987,555.498 986.351,554.686 984.205,553.061 C982.184,551.3 981.174,549.087 981.174,546.42 C981.174,541.93 983.518,537.733 988.205,533.826 C992.768,529.92 997.747,527.967 1003.14,527.967"/>
<path class="Note" d="M813.448,540.467 C816.573,540.467 819.213,541.279 821.37,542.904 C823.38,544.665 824.385,546.878 824.385,549.545 C824.385,554.035 822.078,558.233 817.463,562.139 C812.776,566.045 807.76,567.998 802.417,567.998 C799.292,567.998 796.656,567.186 794.51,565.561 C792.49,563.8 791.479,561.587 791.479,558.92 C791.479,554.43 793.823,550.233 798.51,546.326 C803.073,542.42 808.052,540.467 813.448,540.467"/>
<path class="Note" d="M673.425,540.467 C676.55,540.467 679.19,541.279 681.347,542.904 C683.357,544.665 684.362,546.878 684.362,549.545 C684.362,554.035 682.055,558.233 677.44,562.139 C672.753,566.045 667.737,567.998 662.394,567.998 C659.269,567.998 656.633,567.186 654.487,565.561 C652.466,563.8 651.456,561.587 651.456,558.92 C651.456,554.43 653.8,550.233 658.487,546.326 C663.05,542.42 668.029,540.467 673.425,540.467"/>
<path class="Note" d="M585.91,552.967 C589.035,552.967 591.676,553.779 593.832,555.404 C595.843,557.165 596.848,559.378 596.848,562.045 C596.848,566.535 594.541,570.733 589.926,574.639 C585.239,578.545 580.223,580.498 574.879,580.498 C571.754,580.498 569.119,579.686 566.973,578.061 C564.952,576.3 563.942,574.087 563.942,571.42 C563.942,566.93 566.285,562.733 570.973,558.826 C575.535,554.92 580.515,552.967 585.91,552.967"/>
<path class="Note" d="M498.396,565.467 C501.521,565.467 504.162,566.279 506.318,567.904 C508.328,569.665 509.334,571.878 509.334,574.545 C509.334,579.035 507.026,583.233 502.412,587.139 C497.724,591.045 492.709,592.998 487.365,592.998 C484.24,592.998 481.604,592.186 479.459,590.561 C477.438,588.8 476.427,586.587 476.427,583.92 C476.427,579.43 478.771,575.233 483.459,571.326 C488.021,567.42 493,565.467 498.396,565.467"/>
<path class="Clef" d="M194.451,1091.14 C194.451,1091.14 194.649,1091.14 195.045,1091.14 C195.305,1091.08 195.529,1091.05 195.717,1091.05 C203.008,1091.05 208.998,1093.62 213.685,1098.76 C218.373,1103.84 220.717,1109.76 220.717,1116.53 C220.717,1124.94 217.237,1131.77 210.279,1137.05 C208.456,1138.48 206.076,1139.65 203.139,1140.56 C203.472,1144.79 203.639,1148.21 203.639,1150.81 C203.639,1151.33 203.571,1153.22 203.435,1156.48 C203.175,1162.53 201.092,1167.77 197.185,1172.2 C193.415,1176.57 188.727,1178.75 183.123,1178.75 C177.852,1178.75 173.362,1176.89 169.654,1173.19 C165.935,1169.4 164.076,1164.85 164.076,1159.51 C164.076,1156.71 165.154,1154.33 167.31,1152.37 C169.519,1150.43 172.086,1149.45 175.014,1149.45 C177.618,1149.45 179.8,1150.46 181.56,1152.48 C183.383,1154.37 184.295,1156.71 184.295,1159.51 C184.295,1162.05 183.383,1164.22 181.56,1166.05 C179.737,1167.87 177.555,1168.78 175.014,1168.78 C173.972,1168.78 172.967,1168.59 171.998,1168.2 C174.862,1172.43 178.67,1174.55 183.42,1174.55 C187.909,1174.55 191.586,1172.72 194.451,1169.08 C197.451,1165.31 199.081,1160.91 199.342,1155.89 C199.467,1152.76 199.529,1150.98 199.529,1150.53 C199.529,1146.88 199.399,1143.89 199.139,1141.55 C195.889,1142.07 192.993,1142.33 190.451,1142.33 C181.399,1142.33 173.685,1138.74 167.31,1131.58 C161.06,1124.35 157.935,1115.75 157.935,1105.8 C157.935,1103.71 158.128,1101.6 158.514,1099.45 C158.909,1097.69 159.399,1095.77 159.982,1093.69 C160.305,1092.51 161.185,1090.62 162.623,1088.01 C163.144,1087.23 163.73,1086.26 164.381,1085.08 C165.032,1083.91 165.487,1083.13 165.748,1082.75 C166.394,1081.45 167.659,1079.69 169.545,1077.47 C170.066,1076.88 170.605,1076.24 171.162,1075.52 C171.719,1074.81 172.193,1074.22 172.584,1073.76 C172.974,1073.31 173.266,1072.95 173.459,1072.69 C173.652,1072.43 175.118,1070.7 177.857,1067.51 C178.503,1066.86 179.136,1066.16 179.756,1065.41 C180.375,1064.67 180.881,1064.08 181.271,1063.65 C181.662,1063.23 181.956,1062.92 182.154,1062.73 C179.81,1054.98 178.342,1048.8 177.748,1044.17 C177.3,1040.46 177.076,1035.38 177.076,1028.94 C177.076,1023.27 178.378,1017.96 180.982,1013.01 C183.514,1007.88 187.06,1003.68 191.623,1000.42 C191.883,1000.22 192.206,1000.12 192.592,1000.12 C193.05,1000.12 193.378,1000.22 193.576,1000.42 C197.086,1004.65 200.112,1010.15 202.654,1016.92 C205.258,1023.69 206.56,1029.85 206.56,1035.39 C206.56,1041.64 205.066,1047.5 202.076,1052.97 C198.691,1058.76 194.326,1064.75 188.982,1070.94 C190.347,1075.23 192.17,1081.96 194.451,1091.14 M202.748,1136.56 C206.133,1135.32 208.774,1133.21 210.67,1130.22 C212.753,1127.35 213.795,1124.13 213.795,1120.55 C213.795,1115.92 212.232,1111.82 209.107,1108.23 C205.909,1104.52 201.836,1102.44 196.889,1101.98 C199.691,1115.72 201.644,1127.25 202.748,1136.56 M164.967,1114 C164.967,1120.45 167.571,1126.11 172.779,1131 C178.112,1135.75 184.102,1138.12 190.748,1138.12 C193.477,1138.12 196.144,1137.93 198.748,1137.53 C197.706,1127.63 195.654,1115.78 192.592,1101.98 C188.883,1102.38 185.925,1103.68 183.717,1105.89 C181.56,1108.17 180.482,1110.74 180.482,1113.61 C180.482,1118.56 183.123,1122.56 188.404,1125.62 C188.852,1126.08 189.076,1126.57 189.076,1127.09 C189.076,1127.61 188.852,1128.1 188.404,1128.55 C188.008,1129 187.519,1129.23 186.935,1129.23 C186.873,1129.23 186.581,1129.17 186.06,1129.05 C182.342,1127.02 179.477,1124.42 177.467,1121.23 C175.571,1117.84 174.623,1114.42 174.623,1110.97 C174.623,1106.48 176.024,1102.41 178.826,1098.76 C181.753,1095.12 185.56,1092.77 190.248,1091.73 C188.425,1084.44 186.93,1078.74 185.764,1074.64 C184.722,1075.82 183.469,1077.23 182.006,1078.89 C180.542,1080.55 179.68,1081.54 179.42,1081.87 C177.076,1084.93 175.284,1087.3 174.045,1089 C171.826,1092.06 170.196,1094.7 169.154,1096.9 C168.05,1099.38 167.076,1102.09 166.232,1105.01 C165.389,1107.82 164.967,1110.81 164.967,1114 M197.576,1014.69 C192.691,1017.09 188.852,1020.54 186.06,1025.03 C183.196,1029.65 181.764,1034.63 181.764,1039.97 C181.764,1044.65 182.935,1050.97 185.279,1058.92 C189.967,1053.25 193.482,1048.01 195.826,1043.2 C198.295,1038.12 199.529,1032.81 199.529,1027.28 C199.529,1023.11 198.878,1018.92 197.576,1014.69"/>
<path class="Clef" d="M194.451,616.139 C194.451,616.139 194.649,616.139 195.045,616.139 C195.305,616.076 195.529,616.045 195.717,616.045 C203.008,616.045 208.998,618.618 213.685,623.764 C218.373,628.837 220.717,634.759 220.717,641.529 C220.717,649.936 217.237,656.774 210.279,662.045 C208.456,663.483 206.076,664.654 203.139,665.561 C203.472,669.79 203.639,673.207 203.639,675.811 C203.639,676.332 203.571,678.222 203.435,681.483 C203.175,687.535 201.092,692.774 197.185,697.201 C193.415,701.566 188.727,703.748 183.123,703.748 C177.852,703.748 173.362,701.894 169.654,698.186 C165.935,694.404 164.076,689.847 164.076,684.514 C164.076,681.712 165.154,679.332 167.31,677.373 C169.519,675.425 172.086,674.451 175.014,674.451 C177.618,674.451 179.8,675.462 181.56,677.483 C183.383,679.368 184.295,681.712 184.295,684.514 C184.295,687.045 183.383,689.222 181.56,691.045 C179.737,692.868 177.555,693.779 175.014,693.779 C173.972,693.779 172.967,693.587 171.998,693.201 C174.862,697.43 178.67,699.545 183.42,699.545 C187.909,699.545 191.586,697.722 194.451,694.076 C197.451,690.305 199.081,685.91 199.342,680.889 C199.467,677.764 199.529,675.977 199.529,675.529 C199.529,671.884 199.399,668.889 199.139,666.545 C195.889,667.066 192.993,667.326 190.451,667.326 C181.399,667.326 173.685,663.743 167.31,656.576 C161.06,649.347 157.935,640.753 157.935,630.795 C157.935,628.712 158.128,626.597 158.514,624.451 C158.909,622.691 159.399,620.769 159.982,618.686 C160.305,617.509 161.185,615.618 162.623,613.014 C163.144,612.233 163.73,611.256 164.381,610.084 C165.032,608.912 165.487,608.134 165.748,607.748 C166.394,606.446 167.659,604.686 169.545,602.467 C170.066,601.884 170.605,601.235 171.162,600.522 C171.719,599.808 172.193,599.222 172.584,598.764 C172.974,598.305 173.266,597.946 173.459,597.686 C173.652,597.425 175.118,595.701 177.857,592.514 C178.503,591.858 179.136,591.157 179.756,590.412 C180.375,589.667 180.881,589.082 181.271,588.654 C181.662,588.227 181.956,587.92 182.154,587.733 C179.81,579.983 178.342,573.795 177.748,569.17 C177.3,565.462 177.076,560.384 177.076,553.936 C177.076,548.269 178.378,542.962 180.982,538.014 C183.514,532.878 187.06,528.68 191.623,525.42 C191.883,525.222 192.206,525.123 192.592,525.123 C193.05,525.123 193.378,525.222 193.576,525.42 C197.086,529.649 200.112,535.149 202.654,541.92 C205.258,548.691 206.56,554.847 206.56,560.389 C206.56,566.639 205.066,572.498 202.076,577.967 C198.691,583.759 194.326,589.748 188.982,595.936 C190.347,600.227 192.17,606.962 194.451,616.139 M202.748,661.561 C206.133,660.321 208.774,658.207 210.67,655.217 C212.753,652.352 213.795,649.128 213.795,645.545 C213.795,640.92 212.232,636.816 209.107,633.233 C205.909,629.524 201.836,627.441 196.889,626.983 C199.691,640.722 201.644,652.248 202.748,661.561 M164.967,638.998 C164.967,645.446 167.571,651.113 172.779,655.998 C178.112,660.748 184.102,663.123 190.748,663.123 C193.477,663.123 196.144,662.925 198.748,662.529 C197.706,652.634 195.654,640.785 192.592,626.983 C188.883,627.378 185.925,628.68 183.717,630.889 C181.56,633.17 180.482,635.743 180.482,638.608 C180.482,643.555 183.123,647.561 188.404,650.623 C188.852,651.082 189.076,651.571 189.076,652.092 C189.076,652.613 188.852,653.097 188.404,653.545 C188.008,654.003 187.519,654.233 186.935,654.233 C186.873,654.233 186.581,654.17 186.06,654.045 C182.342,652.024 179.477,649.42 177.467,646.233 C175.571,642.837 174.623,639.415 174.623,635.967 C174.623,631.477 176.024,627.41 178.826,623.764 C181.753,620.118 185.56,617.774 190.248,616.733 C188.425,609.441 186.93,603.743 185.764,599.639 C184.722,600.816 183.469,602.233 182.006,603.889 C180.542,605.545 179.68,606.54 179.42,606.873 C177.076,609.925 175.284,612.3 174.045,613.998 C171.826,617.061 170.196,619.696 169.154,621.904 C168.05,624.384 167.076,627.087 166.232,630.014 C165.389,632.816 164.967,635.811 164.967,638.998 M197.576,539.686 C192.691,542.092 188.852,545.54 186.06,550.029 C183.196,554.654 181.764,559.634 181.764,564.967 C181.764,569.654 182.935,575.972 185.279,583.92 C189.967,578.253 193.482,573.014 195.826,568.201 C198.295,563.118 199.529,557.811 199.529,552.279 C199.529,548.113 198.878,543.915 197.576,539.686"/>
<path class="TimeSig" d="M270.654,616.733 C268.696,616.733 266.935,616.376 265.373,615.662 C263.81,614.949 262.706,614.201 262.06,613.42 C261.206,612.441 260.357,611.691 259.514,611.17 C258.472,610.451 257.399,610.092 256.295,610.092 C254.597,610.092 253.196,610.613 252.092,611.654 C250.925,612.634 250.274,613.967 250.139,615.654 C250.014,616.373 249.623,616.733 248.967,616.733 C248.185,616.733 247.795,616.373 247.795,615.654 C247.795,613.123 248.383,610.847 249.56,608.826 C250.727,606.743 252.159,605.019 253.857,603.654 C255.284,602.415 257.17,600.915 259.514,599.154 C259.909,598.831 260.74,598.149 262.006,597.108 C263.271,596.066 264.331,595.186 265.185,594.467 C266.873,593.04 268.336,591.149 269.576,588.795 C270.743,586.451 271.326,583.915 271.326,581.186 C271.326,577.863 270.774,574.998 269.67,572.592 C268.503,570.248 266.711,569.076 264.295,569.076 C262.805,569.076 261.602,569.399 260.685,570.045 C259.706,570.701 259.217,571.581 259.217,572.686 C259.217,573.602 259.803,574.743 260.975,576.108 C262.146,577.472 262.732,578.613 262.732,579.529 C262.732,581.477 262.05,583.134 260.685,584.498 C259.383,585.8 257.79,586.451 255.904,586.451 C253.946,586.451 252.284,585.769 250.92,584.404 C249.618,582.977 248.967,581.352 248.967,579.529 C248.967,575.811 250.464,572.748 253.459,570.342 C256.454,567.936 260.066,566.733 264.295,566.733 C269.316,566.733 273.68,568.097 277.389,570.826 C281.097,573.43 282.951,576.884 282.951,581.186 C282.951,584.113 282.43,586.618 281.389,588.701 C280.409,590.92 278.946,592.649 276.998,593.889 C274.779,595.316 272.857,596.42 271.232,597.201 C268.951,598.243 266.675,599.222 264.404,600.139 C261.665,601.243 259.545,602.285 258.045,603.264 C258.899,603.066 259.779,602.967 260.685,602.967 C263.685,602.967 266.81,603.941 270.06,605.889 C273.383,607.847 275.956,608.826 277.779,608.826 C278.883,608.826 279.764,608.628 280.42,608.233 C281.066,607.847 281.488,607.425 281.685,606.967 C281.946,606.321 282.175,605.868 282.373,605.608 C282.633,605.212 282.956,605.014 283.342,605.014 C284.123,605.014 284.514,605.404 284.514,606.186 C284.514,608.009 283.211,610.222 280.607,612.826 C278.066,615.43 274.748,616.733 270.654,616.733"/>
<path class="TimeSig" d="M268.467,618.084 C270.415,618.084 272.073,617.858 273.443,617.404 C274.813,616.951 275.691,616.725 276.076,616.725 C276.534,616.725 276.894,616.855 277.154,617.115 C277.352,617.303 277.482,617.527 277.545,617.787 C277.545,617.923 277.477,618.121 277.342,618.381 L248.935,651.397 L265.623,651.397 L265.623,638.303 C265.623,637.459 265.852,636.74 266.31,636.147 C267.092,635.501 267.743,635.11 268.264,634.975 C269.107,634.589 270.149,633.678 271.389,632.24 C272.43,631.074 273.67,629.027 275.107,626.1 C275.295,625.704 275.586,625.506 275.982,625.506 C276.764,625.506 277.217,625.964 277.342,626.881 L277.342,651.397 L284.482,651.397 C285.389,651.397 285.909,651.881 286.045,652.85 C286.045,653.829 285.524,654.319 284.482,654.319 L277.342,654.319 L277.342,655.1 C277.342,657.704 277.993,659.917 279.295,661.74 C280.795,663.563 282.555,664.475 284.576,664.475 C285.357,664.475 285.748,664.865 285.748,665.647 C285.748,666.428 285.357,666.819 284.576,666.819 C283.211,666.819 280.998,666.626 277.935,666.24 C275.133,665.782 272.951,665.553 271.389,665.553 C269.764,665.553 267.581,665.782 264.842,666.24 C261.915,666.626 259.738,666.819 258.31,666.819 C257.529,666.819 257.139,666.428 257.139,665.647 C257.139,664.865 257.529,664.475 258.31,664.475 C260.321,664.475 262.076,663.563 263.576,661.74 C264.941,659.855 265.623,657.641 265.623,655.1 L265.623,654.319 L248.935,654.319 C247.821,654.319 247.04,654.058 246.592,653.537 C246.06,653.152 245.795,652.631 245.795,651.975 C245.795,651.777 246.284,651.095 247.264,649.928 C248.378,648.626 249.55,647.032 250.779,645.147 C252.217,642.928 253.586,640.647 254.889,638.303 C256.316,635.636 257.456,632.574 258.31,629.115 C259.279,625.605 259.764,622.027 259.764,618.381 C259.764,617.339 260.222,616.819 261.139,616.819 C261.336,616.819 261.758,616.917 262.404,617.115 C262.602,617.178 263.011,617.274 263.631,617.404 C264.251,617.535 264.753,617.662 265.139,617.787 C266.316,617.985 267.425,618.084 268.467,618.084"/>
<path class="Rest" d="M1372.57,1071.22 C1374.45,1071.22 1375.88,1071.74 1376.86,1072.78 C1377.84,1073.96 1378.36,1075.07 1378.43,1076.11 C1378.56,1077.09 1378.89,1078.19 1379.41,1079.42 C1379.99,1080.46 1380.74,1080.98 1381.65,1080.98 C1382.36,1080.98 1383.44,1080.17 1384.88,1078.55 C1386.18,1077.12 1387.12,1075.85 1387.71,1074.73 C1388.03,1074.09 1388.48,1073.76 1389.07,1073.76 L1389.18,1073.76 C1389.82,1073.83 1390.28,1074.15 1390.54,1074.73 L1378.24,1116.73 C1377.58,1117.39 1376.67,1117.72 1375.5,1117.72 C1374.32,1117.72 1373.42,1117.39 1372.77,1116.73 L1384.49,1084.11 C1380.32,1085.61 1376.81,1086.36 1373.94,1086.36 C1371.6,1086.36 1369.58,1085.61 1367.88,1084.11 C1366.12,1082.68 1365.24,1080.8 1365.24,1078.45 C1365.24,1076.43 1365.96,1074.74 1367.4,1073.37 C1368.82,1071.94 1370.55,1071.22 1372.57,1071.22"/>
<path class="Rest" d="M347.115,1071.22 C349.001,1071.22 350.433,1071.74 351.412,1072.78 C352.391,1073.96 352.912,1075.07 352.975,1076.11 C353.11,1077.09 353.438,1078.19 353.959,1079.42 C354.542,1080.46 355.287,1080.98 356.193,1080.98 C356.912,1080.98 357.99,1080.17 359.428,1078.55 C360.73,1077.12 361.672,1075.85 362.256,1074.73 C362.579,1074.09 363.032,1073.76 363.615,1073.76 L363.725,1073.76 C364.37,1073.83 364.824,1074.15 365.084,1074.73 L352.787,1116.73 C352.131,1117.39 351.217,1117.72 350.045,1117.72 C348.873,1117.72 347.964,1117.39 347.318,1116.73 L359.037,1084.11 C354.87,1085.61 351.355,1086.36 348.49,1086.36 C346.146,1086.36 344.126,1085.61 342.428,1084.11 C340.667,1082.68 339.787,1080.8 339.787,1078.45 C339.787,1076.43 340.506,1074.74 341.943,1073.37 C343.37,1071.94 345.094,1071.22 347.115,1071.22"/>
<path class="Rest" d="M1608.22,596.217 C1610.1,596.217 1611.53,596.738 1612.51,597.779 C1613.49,598.957 1614.01,600.066 1614.08,601.108 C1614.21,602.087 1614.54,603.191 1615.06,604.42 C1615.64,605.462 1616.39,605.983 1617.3,605.983 C1618.01,605.983 1619.09,605.17 1620.53,603.545 C1621.83,602.118 1622.77,600.847 1623.36,599.733 C1623.68,599.087 1624.13,598.764 1624.72,598.764 L1624.83,598.764 C1625.47,598.826 1625.93,599.149 1626.19,599.733 L1613.89,641.733 C1613.23,642.389 1612.32,642.717 1611.15,642.717 C1609.98,642.717 1609.07,642.389 1608.42,641.733 L1620.14,609.108 C1615.97,610.608 1612.46,611.358 1609.59,611.358 C1607.25,611.358 1605.23,610.608 1603.53,609.108 C1601.77,607.68 1600.89,605.795 1600.89,603.451 C1600.89,601.43 1601.61,599.738 1603.05,598.373 C1604.47,596.936 1606.2,596.217 1608.22,596.217"/>
<path class="Rest" d="M343.435,596.217 C345.321,596.217 346.753,596.738 347.732,597.779 C348.712,598.957 349.232,600.066 349.295,601.108 C349.43,602.087 349.758,603.191 350.279,604.42 C350.863,605.462 351.607,605.983 352.514,605.983 C353.232,605.983 354.31,605.17 355.748,603.545 C357.05,602.118 357.993,600.847 358.576,599.733 C358.899,599.087 359.352,598.764 359.935,598.764 L360.045,598.764 C360.691,598.826 361.144,599.149 361.404,599.733 L349.107,641.733 C348.451,642.389 347.537,642.717 346.365,642.717 C345.193,642.717 344.284,642.389 343.639,641.733 L355.357,609.108 C351.191,610.608 347.675,611.358 344.81,611.358 C342.467,611.358 340.446,610.608 338.748,609.108 C336.988,607.68 336.107,605.795 336.107,603.451 C336.107,601.43 336.826,599.738 338.264,598.373 C339.691,596.936 341.415,596.217 343.435,596.217"/>
<path class="Articulation" d="M2637.38,1057.74 C2636.4,1056.77 2635.91,1055.59 2635.91,1054.23 C2635.91,1052.86 2636.4,1051.69 2637.38,1050.71 C2638.36,1049.73 2639.53,1049.24 2640.89,1049.24 C2642.26,1049.24 2643.43,1049.73 2644.41,1050.71 C2645.39,1051.69 2645.88,1052.86 2645.88,1054.23 C2645.88,1055.59 2645.39,1056.77 2644.41,1057.74 C2643.43,1058.72 2642.26,1059.21 2640.89,1059.21 C2639.53,1059.21 2638.36,1058.72 2637.38,1057.74"/>
<path class="Articulation" d="M2445.64,959.639 C2446.03,959.056 2446.59,958.764 2447.31,958.764 C2447.83,958.764 2448.28,958.959 2448.68,959.35 C2449.07,959.741 2449.26,960.196 2449.26,960.717 C2449.26,961.103 2449.16,961.462 2448.96,961.795 L2439.68,975.858 C2439.3,976.441 2438.71,976.733 2437.93,976.733 C2437.34,976.733 2436.85,976.504 2436.46,976.045 L2426.7,964.139 L2418.89,975.858 C2418.49,976.441 2417.9,976.733 2417.12,976.733 C2416.54,976.733 2416.05,976.504 2415.67,976.045 L2405.79,964.139 L2402.67,968.827 C2402.28,969.41 2401.73,969.702 2401.01,969.702 C2400.49,969.702 2400.03,969.506 2399.64,969.116 C2399.25,968.725 2399.06,968.269 2399.06,967.748 C2399.06,967.353 2399.16,966.993 2399.36,966.67 L2408.64,952.608 C2409.02,952.024 2409.61,951.733 2410.39,951.733 C2410.97,951.733 2411.46,951.962 2411.86,952.42 L2421.62,964.327 L2429.43,952.608 C2429.82,952.024 2430.4,951.733 2431.18,951.733 C2431.78,951.733 2432.27,951.962 2432.65,952.42 L2442.51,964.327 L2445.64,959.639 "/>
<path class="Articulation" d="M2143.73,1057.74 C2142.76,1056.77 2142.27,1055.59 2142.27,1054.23 C2142.27,1052.86 2142.76,1051.69 2143.73,1050.71 C2144.71,1049.73 2145.89,1049.24 2147.25,1049.24 C2148.61,1049.24 2149.79,1049.73 2150.77,1050.71 C2151.74,1051.69 2152.23,1052.86 2152.23,1054.23 C2152.23,1055.59 2151.74,1056.77 2150.77,1057.74 C2149.79,1058.72 2148.61,1059.21 2147.25,1059.21 C2145.89,1059.21 2144.71,1058.72 2143.73,1057.74"/>
<path class="Articulation" d="M1951.99,959.639 C1952.39,959.056 1952.95,958.764 1953.66,958.764 C1954.19,958.764 1954.64,958.959 1955.03,959.35 C1955.42,959.741 1955.62,960.196 1955.62,960.717 C1955.62,961.103 1955.52,961.462 1955.32,961.795 L1946.04,975.858 C1945.65,976.441 1945.07,976.733 1944.29,976.733 C1943.7,976.733 1943.21,976.504 1942.82,976.045 L1933.05,964.139 L1925.24,975.858 C1924.85,976.441 1924.26,976.733 1923.48,976.733 C1922.89,976.733 1922.41,976.504 1922.02,976.045 L1912.15,964.139 L1909.02,968.827 C1908.64,969.41 1908.09,969.702 1907.37,969.702 C1906.85,969.702 1906.39,969.506 1906,969.116 C1905.61,968.725 1905.41,968.269 1905.41,967.748 C1905.41,967.353 1905.51,966.993 1905.71,966.67 L1914.99,952.608 C1915.38,952.024 1915.96,951.733 1916.74,951.733 C1917.33,951.733 1917.82,951.962 1918.21,952.42 L1927.98,964.327 L1935.79,952.608 C1936.17,952.024 1936.76,951.733 1937.54,951.733 C1938.13,951.733 1938.62,951.962 1939.01,952.42 L1948.87,964.327 L1951.99,959.639 "/>
<path class="Articulation" d="M926.54,959.639 C926.936,959.056 927.494,958.764 928.212,958.764 C928.733,958.764 929.189,958.959 929.579,959.35 C929.97,959.741 930.165,960.196 930.165,960.717 C930.165,961.103 930.066,961.462 929.869,961.795 L920.587,975.858 C920.202,976.441 919.619,976.733 918.837,976.733 C918.244,976.733 917.754,976.504 917.369,976.045 L907.603,964.139 L899.79,975.858 C899.395,976.441 898.806,976.733 898.025,976.733 C897.441,976.733 896.957,976.504 896.572,976.045 L886.697,964.139 L883.572,968.827 C883.186,969.41 882.634,969.702 881.915,969.702 C881.395,969.702 880.939,969.506 880.548,969.116 C880.158,968.725 879.962,968.269 879.962,967.748 C879.962,967.353 880.061,966.993 880.259,966.67 L889.54,952.608 C889.926,952.024 890.509,951.733 891.29,951.733 C891.874,951.733 892.363,951.962 892.759,952.42 L902.525,964.327 L910.337,952.608 C910.723,952.024 911.306,951.733 912.087,951.733 C912.681,951.733 913.171,951.962 913.556,952.42 L923.415,964.327 L926.54,959.639 "/>
<path class="Articulation" d="M2604.96,459.639 C2605.36,459.055 2605.92,458.764 2606.63,458.764 C2607.16,458.764 2607.61,458.959 2608,459.35 C2608.39,459.74 2608.59,460.196 2608.59,460.717 C2608.59,461.102 2608.49,461.462 2608.29,461.795 L2599.01,475.857 C2598.62,476.441 2598.04,476.732 2597.26,476.732 C2596.67,476.732 2596.18,476.503 2595.79,476.045 L2586.02,464.139 L2578.21,475.857 C2577.82,476.441 2577.23,476.732 2576.45,476.732 C2575.86,476.732 2575.38,476.503 2574.99,476.045 L2565.12,464.139 L2561.99,468.826 C2561.61,469.41 2561.06,469.701 2560.34,469.701 C2559.82,469.701 2559.36,469.506 2558.97,469.115 C2558.58,468.725 2558.38,468.269 2558.38,467.748 C2558.38,467.352 2558.48,466.993 2558.68,466.67 L2567.96,452.607 C2568.35,452.024 2568.93,451.732 2569.71,451.732 C2570.3,451.732 2570.79,451.962 2571.18,452.42 L2580.95,464.326 L2588.76,452.607 C2589.14,452.024 2589.73,451.732 2590.51,451.732 C2591.1,451.732 2591.59,451.962 2591.98,452.42 L2601.84,464.326 L2604.96,459.639 "/>
<path class="Articulation" d="M1340.18,462.139 C1340.58,461.555 1341.13,461.264 1341.85,461.264 C1342.37,461.264 1342.83,461.459 1343.22,461.85 C1343.61,462.24 1343.81,462.696 1343.81,463.217 C1343.81,463.602 1343.71,463.962 1343.51,464.295 L1334.23,478.357 C1333.84,478.941 1333.26,479.232 1332.48,479.232 C1331.88,479.232 1331.39,479.003 1331.01,478.545 L1321.24,466.639 L1313.43,478.357 C1313.03,478.941 1312.45,479.232 1311.67,479.232 C1311.08,479.232 1310.6,479.003 1310.21,478.545 L1300.34,466.639 L1297.21,471.326 C1296.83,471.91 1296.27,472.201 1295.56,472.201 C1295.03,472.201 1294.58,472.006 1294.19,471.615 C1293.8,471.225 1293.6,470.769 1293.6,470.248 C1293.6,469.852 1293.7,469.493 1293.9,469.17 L1303.18,455.107 C1303.57,454.524 1304.15,454.232 1304.93,454.232 C1305.51,454.232 1306,454.462 1306.4,454.92 L1316.17,466.826 L1323.98,455.107 C1324.36,454.524 1324.95,454.232 1325.73,454.232 C1326.32,454.232 1326.81,454.462 1327.2,454.92 L1337.06,466.826 L1340.18,462.139 "/>
<path class="Beam" fill-rule="evenodd" d="M2391.24,1135.47 L2511.08,1141.9 L2511.08,1154.42 L2391.24,1147.99 L2391.24,1135.47 "/>
<path class="Beam" fill-rule="evenodd" d="M1897.59,1135.47 L2017.44,1141.9 L2017.44,1154.42 L1897.59,1147.99 L1897.59,1135.47 "/>
<path class="Beam" fill-rule="evenodd" d="M1629.21,1135.47 L1749.65,1129.05 L1749.65,1141.57 L1629.21,1147.99 L1629.21,1135.47 "/>
<path class="Beam" fill-rule="evenodd" d="M1482.73,1129.21 L1559.22,1135.74 L1559.22,1148.28 L1482.73,1141.76 L1482.73,1129.21 "/>
<path class="Beam" fill-rule="evenodd" d="M1482.73,1110.46 L1559.22,1116.99 L1559.22,1129.53 L1482.73,1123.01 L1482.73,1110.46 "/>
<path class="Beam" fill-rule="evenodd" d="M1101.59,1135.47 L1219.56,1129.05 L1219.56,1141.57 L1101.59,1147.99 L1101.59,1135.47 "/>
<path class="Beam" fill-rule="evenodd" d="M872.142,1135.47 L990.115,1141.9 L990.115,1154.42 L872.142,1147.99 L872.142,1135.47 "/>
<path class="Beam" fill-rule="evenodd" d="M603.762,1135.47 L724.202,1129.05 L724.202,1141.57 L603.762,1147.99 L603.762,1135.47 "/>
<path class="Beam" fill-rule="evenodd" d="M457.274,1129.21 L533.768,1135.74 L533.768,1148.28 L457.274,1141.76 L457.274,1129.21 "/>
<path class="Beam" fill-rule="evenodd" d="M457.274,1110.46 L533.768,1116.99 L533.768,1129.53 L457.274,1123.01 L457.274,1110.46 "/>
<path class="Beam" fill-rule="evenodd" d="M2550.56,654.219 L2649,660.683 L2649,673.209 L2550.56,666.746 L2550.56,654.219 "/>
<path class="Beam" fill-rule="evenodd" d="M2550.56,635.469 L2583.56,637.636 L2583.56,650.163 L2550.56,647.996 L2550.56,635.469 "/>
<path class="Beam" fill-rule="evenodd" d="M2245.96,610.477 L2401.51,616.861 L2401.51,629.371 L2245.96,622.988 L2245.96,610.477 "/>
<path class="Beam" fill-rule="evenodd" d="M1916.24,629.233 L2059.51,629.233 L2059.51,641.733 L1916.24,641.733 L1916.24,629.233 "/>
<path class="Beam" fill-rule="evenodd" d="M1741.21,660.467 L1831.97,653.985 L1831.97,666.516 L1741.21,672.999 L1741.21,660.467 "/>
<path class="Beam" fill-rule="evenodd" d="M1741.21,641.717 L1831.97,635.235 L1831.97,647.766 L1741.21,654.248 L1741.21,641.717 "/>
<path class="Beam" fill-rule="evenodd" d="M1285.78,654.219 L1384.22,660.683 L1384.22,673.209 L1285.78,666.746 L1285.78,654.219 "/>
<path class="Beam" fill-rule="evenodd" d="M1285.78,635.469 L1318.78,637.636 L1318.78,650.163 L1285.78,647.996 L1285.78,635.469 "/>
<path class="Beam" fill-rule="evenodd" d="M981.174,610.477 L1136.73,616.861 L1136.73,629.371 L981.174,622.988 L981.174,610.477 "/>
<path class="Beam" fill-rule="evenodd" d="M651.456,629.233 L794.729,629.233 L794.729,641.733 L651.456,641.733 L651.456,629.233 "/>
<path class="Beam" fill-rule="evenodd" d="M476.427,660.467 L567.192,653.985 L567.192,666.516 L476.427,672.999 L476.427,660.467 "/>
<path class="Beam" fill-rule="evenodd" d="M476.427,641.717 L567.192,635.235 L567.192,647.766 L476.427,654.248 L476.427,641.717 "/>
<path class="VoltaSegment" d="M2375.44,896.311 C2378.23,888.832 2382.26,885.092 2387.53,885.092 C2390.5,885.092 2392.94,886.035 2394.86,887.92 C2396.77,889.806 2397.72,892.217 2397.72,895.155 C2397.72,899.186 2395.63,903.181 2391.44,907.139 L2382.53,915.608 L2390.85,915.608 C2393.67,915.608 2395.48,915.386 2396.28,914.944 C2397.09,914.501 2397.89,913.29 2398.71,911.311 L2400.02,911.311 L2397.55,922.92 L2374.68,922.92 L2374.68,921.655 C2380.95,914.978 2385.11,910.056 2387.16,906.889 C2389.21,903.722 2390.24,900.873 2390.24,898.342 C2390.24,896.467 2389.63,894.834 2388.43,893.444 C2387.22,892.053 2385.64,891.358 2383.69,891.358 C2380.87,891.358 2378.63,893.009 2376.99,896.311 L2375.44,896.311 M2408.61,914.342 C2409.89,914.342 2410.99,914.808 2411.91,915.741 C2412.83,916.673 2413.28,917.782 2413.28,919.069 C2413.28,920.355 2412.83,921.438 2411.91,922.319 C2410.99,923.199 2409.87,923.639 2408.55,923.639 C2407.27,923.639 2406.19,923.188 2405.31,922.287 C2404.43,921.386 2403.99,920.28 2403.99,918.967 C2403.99,917.717 2404.45,916.634 2405.36,915.717 C2406.28,914.8 2407.36,914.342 2408.61,914.342"/>
<polyline class="VoltaSegment" fill="none" stroke="#000000" stroke-width="2.50" stroke-linecap="square" stroke-linejoin="bevel" points="2361.24,922.92 2361.24,875.42"/>
<polyline class="VoltaSegment" fill="none" stroke="#000000" stroke-width="2.50" stroke-linecap="square" stroke-linejoin="bevel" points="2361.24,875.42 2812.97,875.42"/>
<path class="VoltaSegment" d="M1885.34,893.951 C1884.91,893.951 1884.39,894.043 1883.78,894.225 C1883.18,894.407 1882.53,894.626 1881.85,894.881 C1881.17,895.136 1880.78,895.285 1880.67,895.326 L1880.67,893.889 L1894.53,887.905 L1895.47,887.905 L1895.47,919.248 C1895.47,921.373 1895.83,922.756 1896.56,923.397 C1897.29,924.037 1898.91,924.379 1901.41,924.42 L1901.41,925.733 L1880.78,925.733 L1880.78,924.42 C1883.49,924.379 1885.26,924.019 1886.09,923.342 C1886.91,922.665 1887.33,921.191 1887.33,918.92 L1887.33,897.748 C1887.33,895.217 1886.67,893.951 1885.34,893.951 M1911.97,917.155 C1913.25,917.155 1914.35,917.621 1915.27,918.553 C1916.18,919.485 1916.64,920.595 1916.64,921.881 C1916.64,923.168 1916.18,924.251 1915.27,925.131 C1914.35,926.011 1913.23,926.451 1911.91,926.451 C1910.63,926.451 1909.54,926.001 1908.66,925.1 C1907.78,924.199 1907.34,923.092 1907.34,921.78 C1907.34,920.53 1907.8,919.446 1908.72,918.53 C1909.64,917.613 1910.72,917.155 1911.97,917.155"/>
<polyline class="VoltaSegment" fill="none" stroke="#000000" stroke-width="2.50" stroke-linecap="square" stroke-linejoin="bevel" points="1867.59,925.733 1867.59,878.233"/>
<polyline class="VoltaSegment" fill="none" stroke="#000000" stroke-width="2.50" stroke-linecap="square" stroke-linejoin="bevel" points="1867.59,878.233 2346.9,878.233"/>
<polyline class="VoltaSegment" fill="none" stroke="#000000" stroke-width="2.50" stroke-linecap="square" stroke-linejoin="bevel" points="2346.9,878.233 2346.9,925.733"/>
<path class="NoteDot" d="M2689.08,583.24 C2687.97,582.131 2687.42,580.795 2687.42,579.233 C2687.42,577.67 2687.97,576.334 2689.08,575.225 C2690.19,574.115 2691.53,573.561 2693.09,573.561 C2694.65,573.561 2695.99,574.115 2697.09,575.225 C2698.19,576.334 2698.75,577.67 2698.75,579.233 C2698.75,580.795 2698.19,582.131 2697.09,583.24 C2695.99,584.35 2694.65,584.904 2693.09,584.904 C2691.53,584.904 2690.19,584.35 2689.08,583.24"/>
<path class="NoteDot" d="M1424.3,583.24 C1423.19,582.131 1422.64,580.795 1422.64,579.233 C1422.64,577.67 1423.19,576.334 1424.3,575.225 C1425.41,574.115 1426.75,573.561 1428.31,573.561 C1429.87,573.561 1431.2,574.115 1432.31,575.225 C1433.41,576.334 1433.96,577.67 1433.96,579.233 C1433.96,580.795 1433.41,582.131 1432.31,583.24 C1431.2,584.35 1429.87,584.904 1428.31,584.904 C1426.75,584.904 1425.41,584.35 1424.3,583.24"/>
</svg>
