<?xml version="1.0" encoding="UTF-8" standalone="no"?>
<svg width="2977.2px" height="4208.4px" viewBox="0 0 2977.2 4208.4"
 xmlns="http://www.w3.org/2000/svg" xmlns:xlink="http://www.w3.org/1999/xlink" version="1.2" baseProfile="tiny">
<title>Pe_sub_deal_pe_sub_padure</title>
<desc>Generated by MuseScore 3.0.2</desc>
<polyline class="StaffLines" fill="none" stroke="#000000" stroke-width="2.00" stroke-linejoin="bevel" points="141.732,566.733 2835.47,566.733"/>
<polyline class="StaffLines" fill="none" stroke="#000000" stroke-width="2.00" stroke-linejoin="bevel" points="141.732,591.733 2835.47,591.733"/>
<polyline class="StaffLines" fill="none" stroke="#000000" stroke-width="2.00" stroke-linejoin="bevel" points="141.732,616.733 2835.47,616.733"/>
<polyline class="StaffLines" fill="none" stroke="#000000" stroke-width="2.00" stroke-linejoin="bevel" points="141.732,641.733 2835.47,641.733"/>
<polyline class="StaffLines" fill="none" stroke="#000000" stroke-width="2.00" stroke-linejoin="bevel" points="141.732,666.733 2835.47,666.733"/>
<polyline class="StaffLines" fill="none" stroke="#000000" stroke-width="2.00" stroke-linejoin="bevel" points="141.732,1041.73 2835.47,1041.73"/>
<polyline class="StaffLines" fill="none" stroke="#000000" stroke-width="2.00" stroke-linejoin="bevel" points="141.732,1066.73 2835.47,1066.73"/>
<polyline class="StaffLines" fill="none" stroke="#000000" stroke-width="2.00" stroke-linejoin="bevel" points="141.732,1091.73 2835.47,1091.73"/>
<polyline class="StaffLines" fill="none" stroke="#000000" stroke-width="2.00" stroke-linejoin="bevel" points="141.732,1116.73 2835.47,1116.73"/>
<polyline class="StaffLines" fill="none" stroke="#000000" stroke-width="2.00" stroke-linejoin="bevel" points="141.732,1141.73 2835.47,1141.73"/>
<path class="Text" d="M892.701,259.395 L892.701,282.536 C892.701,287.536 893.248,290.64 894.342,291.848 C895.831,293.567 898.076,294.427 901.076,294.427 L904.123,294.427 L904.123,296.598 L870.092,296.598 L870.092,294.427 L873.076,294.427 C876.43,294.427 878.831,293.333 880.279,291.145 C881.06,289.937 881.451,287.067 881.451,282.536 L881.451,231.208 C881.451,226.208 880.925,223.104 879.873,221.895 C878.352,220.177 876.086,219.317 873.076,219.317 L870.092,219.317 L870.092,217.145 L899.201,217.145 C906.316,217.145 911.922,217.877 916.021,219.341 C920.12,220.804 923.576,223.276 926.389,226.755 C929.201,230.234 930.607,234.354 930.607,239.114 C930.607,245.604 928.469,250.88 924.193,254.942 C919.917,259.005 913.873,261.036 906.06,261.036 C904.144,261.036 902.073,260.898 899.849,260.622 C897.626,260.346 895.243,259.937 892.701,259.395 M892.701,256.052 C894.774,256.437 896.61,256.729 898.209,256.927 C899.808,257.124 901.175,257.223 902.31,257.223 C906.373,257.223 909.878,255.651 912.826,252.505 C915.774,249.359 917.248,245.286 917.248,240.286 C917.248,236.848 916.545,233.656 915.139,230.708 C913.732,227.76 911.74,225.554 909.162,224.091 C906.584,222.627 903.654,221.895 900.373,221.895 C898.383,221.895 895.826,222.265 892.701,223.005 L892.701,256.052 M947.873,263.145 C947.831,271.114 949.764,277.364 953.67,281.895 C957.576,286.427 962.165,288.692 967.435,288.692 C970.956,288.692 974.014,287.723 976.607,285.786 C979.201,283.848 981.378,280.536 983.139,275.848 L984.951,277.02 C984.139,282.374 981.758,287.249 977.81,291.645 C973.862,296.041 968.92,298.239 962.982,298.239 C956.534,298.239 951.016,295.729 946.428,290.708 C941.839,285.687 939.545,278.937 939.545,270.458 C939.545,261.281 941.899,254.124 946.607,248.989 C951.316,243.854 957.222,241.286 964.326,241.286 C970.347,241.286 975.29,243.268 979.154,247.231 C983.019,251.195 984.951,256.499 984.951,263.145 L947.873,263.145 M947.873,259.739 L972.717,259.739 C972.519,256.302 972.107,253.88 971.482,252.473 C970.503,250.286 969.047,248.567 967.115,247.317 C965.183,246.067 963.159,245.442 961.045,245.442 C957.805,245.442 954.907,246.703 952.349,249.223 C949.792,251.744 948.3,255.249 947.873,259.739 M1056.53,241.348 L1056.53,259.63 L1054.59,259.63 C1053.11,253.88 1051.21,249.971 1048.89,247.903 C1046.57,245.835 1043.61,244.802 1040.01,244.802 C1037.27,244.802 1035.07,245.523 1033.39,246.966 C1031.71,248.408 1030.87,250.01 1030.87,251.77 C1030.87,253.958 1031.5,255.833 1032.75,257.395 C1033.96,258.999 1036.41,260.697 1040.12,262.489 L1048.69,266.661 C1056.61,270.526 1060.58,275.619 1060.58,281.942 C1060.58,286.828 1058.73,290.765 1055.04,293.755 C1051.34,296.744 1047.21,298.239 1042.64,298.239 C1039.36,298.239 1035.61,297.651 1031.39,296.473 C1030.11,296.088 1029.06,295.895 1028.23,295.895 C1027.34,295.895 1026.63,296.406 1026.12,297.427 L1024.19,297.427 L1024.19,278.255 L1026.12,278.255 C1027.22,283.723 1029.31,287.846 1032.39,290.622 C1035.47,293.398 1038.93,294.786 1042.76,294.786 C1045.46,294.786 1047.66,293.994 1049.36,292.411 C1051.06,290.828 1051.9,288.921 1051.9,286.692 C1051.9,283.994 1050.96,281.729 1049.06,279.895 C1047.16,278.062 1043.39,275.739 1037.72,272.927 C1032.06,270.114 1028.35,267.572 1026.59,265.302 C1024.83,263.083 1023.95,260.27 1023.95,256.864 C1023.95,252.458 1025.46,248.77 1028.49,245.802 C1031.52,242.833 1035.44,241.348 1040.25,241.348 C1042.35,241.348 1044.91,241.796 1047.92,242.692 C1049.91,243.276 1051.24,243.567 1051.9,243.567 C1052.53,243.567 1053.02,243.432 1053.37,243.161 C1053.71,242.89 1054.12,242.286 1054.59,241.348 L1056.53,241.348 M1115.89,242.927 L1115.89,275.442 C1115.89,281.651 1116.04,285.45 1116.33,286.841 C1116.63,288.231 1117.1,289.2 1117.74,289.747 C1118.38,290.294 1119.13,290.567 1120,290.567 C1121.21,290.567 1122.57,290.234 1124.09,289.567 L1124.92,291.614 L1108.86,298.239 L1106.23,298.239 L1106.23,286.864 C1101.62,291.864 1098.1,295.01 1095.68,296.302 C1093.26,297.593 1090.7,298.239 1088,298.239 C1085,298.239 1082.39,297.369 1080.19,295.63 C1077.98,293.89 1076.44,291.653 1075.58,288.919 C1074.72,286.184 1074.29,282.317 1074.29,277.317 L1074.29,253.348 C1074.29,250.817 1074.02,249.062 1073.47,248.083 C1072.93,247.104 1072.12,246.351 1071.04,245.825 C1069.97,245.299 1068.03,245.057 1065.22,245.098 L1065.22,242.927 L1084.01,242.927 L1084.01,278.848 C1084.01,283.848 1084.88,287.13 1086.62,288.692 C1088.36,290.255 1090.46,291.036 1092.92,291.036 C1094.61,291.036 1096.51,290.507 1098.64,289.45 C1100.76,288.393 1103.29,286.38 1106.23,283.411 L1106.23,253.005 C1106.23,249.953 1105.67,247.89 1104.56,246.817 C1103.45,245.744 1101.13,245.171 1097.61,245.098 L1097.61,242.927 L1115.89,242.927 M1143.54,252.177 C1148.74,244.958 1154.35,241.348 1160.37,241.348 C1165.87,241.348 1170.67,243.7 1174.78,248.403 C1178.88,253.106 1180.94,259.541 1180.94,267.708 C1180.94,277.239 1177.77,284.916 1171.44,290.739 C1166.01,295.739 1159.96,298.239 1153.28,298.239 C1150.15,298.239 1146.98,297.671 1143.76,296.536 C1140.53,295.401 1137.24,293.703 1133.89,291.442 L1133.89,235.833 C1133.89,229.739 1133.74,225.989 1133.44,224.583 C1133.15,223.177 1132.69,222.221 1132.06,221.716 C1131.44,221.21 1130.65,220.958 1129.72,220.958 C1128.62,220.958 1127.26,221.27 1125.62,221.895 L1124.79,219.833 L1140.92,213.27 L1143.54,213.27 L1143.54,252.177 M1143.54,255.927 L1143.54,288.036 C1145.54,289.994 1147.61,291.471 1149.73,292.466 C1151.86,293.46 1154.03,293.958 1156.26,293.958 C1159.82,293.958 1163.13,292.005 1166.19,288.098 C1169.26,284.192 1170.79,278.51 1170.79,271.052 C1170.79,264.177 1169.26,258.893 1166.19,255.2 C1163.13,251.507 1159.64,249.661 1155.73,249.661 C1153.67,249.661 1151.6,250.187 1149.53,251.239 C1147.97,252.02 1145.97,253.583 1143.54,255.927 M1256.75,290.567 C1254.13,293.296 1251.58,295.257 1249.08,296.45 C1246.58,297.643 1243.88,298.239 1241,298.239 C1235.13,298.239 1230.01,295.789 1225.64,290.887 C1221.26,285.986 1219.08,279.687 1219.08,271.989 C1219.08,264.291 1221.5,257.249 1226.34,250.864 C1231.19,244.479 1237.41,241.286 1245.03,241.286 C1249.76,241.286 1253.66,242.791 1256.75,245.802 L1256.75,235.895 C1256.75,229.76 1256.6,225.989 1256.31,224.583 C1256.02,223.177 1255.56,222.221 1254.94,221.716 C1254.31,221.21 1253.53,220.958 1252.59,220.958 C1251.58,220.958 1250.23,221.27 1248.54,221.895 L1247.79,219.833 L1263.78,213.27 L1266.42,213.27 L1266.42,275.333 C1266.42,281.614 1266.57,285.45 1266.86,286.841 C1267.15,288.231 1267.62,289.2 1268.26,289.747 C1268.91,290.294 1269.66,290.567 1270.53,290.567 C1271.58,290.567 1272.99,290.234 1274.75,289.567 L1275.39,291.614 L1259.45,298.239 L1256.75,298.239 L1256.75,290.567 M1256.75,286.458 L1256.75,258.802 C1256.52,256.145 1255.82,253.723 1254.65,251.536 C1253.47,249.348 1251.92,247.697 1249.99,246.583 C1248.06,245.468 1246.17,244.911 1244.33,244.911 C1240.89,244.911 1237.83,246.458 1235.14,249.552 C1231.58,253.614 1229.79,259.552 1229.79,267.364 C1229.79,275.249 1231.51,281.291 1234.95,285.489 C1238.39,289.687 1242.22,291.786 1246.44,291.786 C1250,291.786 1253.44,290.01 1256.75,286.458 M1287.87,263.145 C1287.83,271.114 1289.76,277.364 1293.67,281.895 C1297.58,286.427 1302.16,288.692 1307.44,288.692 C1310.96,288.692 1314.01,287.723 1316.61,285.786 C1319.2,283.848 1321.38,280.536 1323.14,275.848 L1324.95,277.02 C1324.14,282.374 1321.76,287.249 1317.81,291.645 C1313.86,296.041 1308.92,298.239 1302.98,298.239 C1296.53,298.239 1291.02,295.729 1286.43,290.708 C1281.84,285.687 1279.54,278.937 1279.54,270.458 C1279.54,261.281 1281.9,254.124 1286.61,248.989 C1291.32,243.854 1297.22,241.286 1304.33,241.286 C1310.35,241.286 1315.29,243.268 1319.15,247.231 C1323.02,251.195 1324.95,256.499 1324.95,263.145 L1287.87,263.145 M1287.87,259.739 L1312.72,259.739 C1312.52,256.302 1312.11,253.88 1311.48,252.473 C1310.5,250.286 1309.05,248.567 1307.12,247.317 C1305.18,246.067 1303.16,245.442 1301.04,245.442 C1297.81,245.442 1294.91,246.703 1292.35,249.223 C1289.79,251.744 1288.3,255.249 1287.87,259.739 M1362.25,288.864 C1356.75,293.124 1353.29,295.583 1351.89,296.239 C1349.77,297.218 1347.52,297.708 1345.14,297.708 C1341.43,297.708 1338.38,296.44 1335.97,293.903 C1333.57,291.367 1332.37,288.026 1332.37,283.88 C1332.37,281.265 1332.96,278.999 1334.12,277.083 C1335.73,274.427 1338.51,271.927 1342.47,269.583 C1346.44,267.239 1353.03,264.39 1362.25,261.036 L1362.25,258.927 C1362.25,253.572 1361.4,249.898 1359.7,247.903 C1358,245.908 1355.53,244.911 1352.29,244.911 C1349.84,244.911 1347.88,245.578 1346.44,246.911 C1344.95,248.234 1344.2,249.755 1344.2,251.473 L1344.33,254.88 C1344.33,256.671 1343.87,258.057 1342.95,259.036 C1342.03,260.015 1340.83,260.505 1339.34,260.505 C1337.89,260.505 1336.71,259.997 1335.79,258.981 C1334.88,257.966 1334.42,256.578 1334.42,254.817 C1334.42,251.463 1336.14,248.38 1339.58,245.567 C1343.01,242.755 1347.84,241.348 1354.04,241.348 C1358.82,241.348 1362.72,242.145 1365.76,243.739 C1368.08,244.958 1369.78,246.854 1370.87,249.427 C1371.57,251.104 1371.92,254.541 1371.92,259.739 L1371.92,277.958 C1371.92,283.083 1372.02,286.221 1372.22,287.372 C1372.41,288.523 1372.74,289.294 1373.19,289.684 C1373.63,290.075 1374.15,290.27 1374.73,290.27 C1375.36,290.27 1375.9,290.135 1376.37,289.864 C1377.2,289.354 1378.78,287.927 1381.12,285.583 L1381.12,288.864 C1376.75,294.729 1372.57,297.661 1368.58,297.661 C1366.67,297.661 1365.15,296.994 1364.01,295.661 C1362.88,294.328 1362.29,292.062 1362.25,288.864 M1362.25,285.052 L1362.25,264.598 C1356.35,266.942 1352.54,268.604 1350.83,269.583 C1347.74,271.302 1345.54,273.098 1344.21,274.973 C1342.88,276.848 1342.22,278.901 1342.22,281.13 C1342.22,283.942 1343.06,286.276 1344.73,288.13 C1346.41,289.984 1348.34,290.911 1350.53,290.911 C1353.5,290.911 1357.4,288.958 1362.25,285.052 M1403.29,213.27 L1403.29,284.473 C1403.29,287.828 1403.54,290.052 1404.03,291.145 C1404.52,292.239 1405.27,293.07 1406.29,293.637 C1407.3,294.205 1409.2,294.489 1411.97,294.489 L1411.97,296.598 L1385.67,296.598 L1385.67,294.489 C1388.13,294.489 1389.81,294.234 1390.7,293.723 C1391.6,293.213 1392.3,292.372 1392.81,291.2 C1393.32,290.028 1393.58,287.786 1393.58,284.473 L1393.58,235.723 C1393.58,229.661 1393.44,225.937 1393.16,224.552 C1392.89,223.166 1392.45,222.221 1391.84,221.716 C1391.24,221.21 1390.47,220.958 1389.53,220.958 C1388.52,220.958 1387.23,221.27 1385.67,221.895 L1384.67,219.833 L1400.67,213.27 L1403.29,213.27 M1443.97,248.255 L1460.5,241.583 L1462.73,241.583 L1462.73,254.114 C1465.5,249.385 1468.28,246.075 1471.08,244.184 C1473.87,242.294 1476.81,241.348 1479.89,241.348 C1485.28,241.348 1489.78,243.458 1493.37,247.677 C1497.79,252.833 1500,259.552 1500,267.833 C1500,277.083 1497.34,284.739 1492.03,290.802 C1487.65,295.76 1482.14,298.239 1475.5,298.239 C1472.61,298.239 1470.11,297.828 1468,297.005 C1466.44,296.421 1464.68,295.249 1462.73,293.489 L1462.73,309.848 C1462.73,313.515 1462.96,315.846 1463.4,316.841 C1463.85,317.835 1464.63,318.627 1465.75,319.216 C1466.86,319.804 1468.88,320.098 1471.81,320.098 L1471.81,322.27 L1443.69,322.27 L1443.69,320.098 L1445.15,320.098 C1447.3,320.14 1449.13,319.729 1450.65,318.864 C1451.39,318.437 1451.97,317.744 1452.38,316.786 C1452.79,315.828 1453,313.395 1453,309.489 L1453,258.739 C1453,255.27 1452.84,253.067 1452.53,252.13 C1452.22,251.192 1451.72,250.489 1451.04,250.02 C1450.35,249.552 1449.42,249.317 1448.25,249.317 C1447.31,249.317 1446.12,249.588 1444.69,250.13 L1443.97,248.255 M1462.73,257.567 L1462.73,277.614 C1462.73,281.947 1462.9,284.796 1463.25,286.161 C1463.8,288.432 1465.14,290.427 1467.27,292.145 C1469.4,293.864 1472.09,294.723 1475.33,294.723 C1479.23,294.723 1482.39,293.197 1484.81,290.145 C1487.98,286.166 1489.56,280.562 1489.56,273.333 C1489.56,265.135 1487.76,258.828 1484.17,254.411 C1481.67,251.359 1478.7,249.833 1475.26,249.833 C1473.39,249.833 1471.53,250.302 1469.7,251.239 C1468.29,251.947 1465.97,254.057 1462.73,257.567 M1516.87,263.145 C1516.83,271.114 1518.76,277.364 1522.67,281.895 C1526.58,286.427 1531.16,288.692 1536.44,288.692 C1539.96,288.692 1543.01,287.723 1545.61,285.786 C1548.2,283.848 1550.38,280.536 1552.14,275.848 L1553.95,277.02 C1553.14,282.374 1550.76,287.249 1546.81,291.645 C1542.86,296.041 1537.92,298.239 1531.98,298.239 C1525.53,298.239 1520.02,295.729 1515.43,290.708 C1510.84,285.687 1508.54,278.937 1508.54,270.458 C1508.54,261.281 1510.9,254.124 1515.61,248.989 C1520.32,243.854 1526.22,241.286 1533.33,241.286 C1539.35,241.286 1544.29,243.268 1548.15,247.231 C1552.02,251.195 1553.95,256.499 1553.95,263.145 L1516.87,263.145 M1516.87,259.739 L1541.72,259.739 C1541.52,256.302 1541.11,253.88 1540.48,252.473 C1539.5,250.286 1538.05,248.567 1536.12,247.317 C1534.18,246.067 1532.16,245.442 1530.04,245.442 C1526.81,245.442 1523.91,246.703 1521.35,249.223 C1518.79,251.744 1517.3,255.249 1516.87,259.739 M1625.53,241.348 L1625.53,259.63 L1623.59,259.63 C1622.11,253.88 1620.21,249.971 1617.89,247.903 C1615.57,245.835 1612.61,244.802 1609.01,244.802 C1606.27,244.802 1604.07,245.523 1602.39,246.966 C1600.71,248.408 1599.87,250.01 1599.87,251.77 C1599.87,253.958 1600.5,255.833 1601.75,257.395 C1602.96,258.999 1605.41,260.697 1609.12,262.489 L1617.69,266.661 C1625.61,270.526 1629.58,275.619 1629.58,281.942 C1629.58,286.828 1627.73,290.765 1624.04,293.755 C1620.34,296.744 1616.21,298.239 1611.64,298.239 C1608.36,298.239 1604.61,297.651 1600.39,296.473 C1599.11,296.088 1598.06,295.895 1597.23,295.895 C1596.34,295.895 1595.63,296.406 1595.12,297.427 L1593.19,297.427 L1593.19,278.255 L1595.12,278.255 C1596.22,283.723 1598.31,287.846 1601.39,290.622 C1604.47,293.398 1607.93,294.786 1611.76,294.786 C1614.46,294.786 1616.66,293.994 1618.36,292.411 C1620.06,290.828 1620.9,288.921 1620.9,286.692 C1620.9,283.994 1619.96,281.729 1618.06,279.895 C1616.16,278.062 1612.39,275.739 1606.72,272.927 C1601.06,270.114 1597.35,267.572 1595.59,265.302 C1593.83,263.083 1592.95,260.27 1592.95,256.864 C1592.95,252.458 1594.46,248.77 1597.49,245.802 C1600.52,242.833 1604.44,241.348 1609.25,241.348 C1611.35,241.348 1613.91,241.796 1616.92,242.692 C1618.91,243.276 1620.24,243.567 1620.9,243.567 C1621.53,243.567 1622.02,243.432 1622.37,243.161 C1622.71,242.89 1623.12,242.286 1623.59,241.348 L1625.53,241.348 M1684.89,242.927 L1684.89,275.442 C1684.89,281.651 1685.04,285.45 1685.33,286.841 C1685.63,288.231 1686.1,289.2 1686.74,289.747 C1687.38,290.294 1688.13,290.567 1689,290.567 C1690.21,290.567 1691.57,290.234 1693.09,289.567 L1693.92,291.614 L1677.86,298.239 L1675.23,298.239 L1675.23,286.864 C1670.62,291.864 1667.1,295.01 1664.68,296.302 C1662.26,297.593 1659.7,298.239 1657,298.239 C1654,298.239 1651.39,297.369 1649.19,295.63 C1646.98,293.89 1645.44,291.653 1644.58,288.919 C1643.72,286.184 1643.29,282.317 1643.29,277.317 L1643.29,253.348 C1643.29,250.817 1643.02,249.062 1642.47,248.083 C1641.93,247.104 1641.12,246.351 1640.04,245.825 C1638.97,245.299 1637.03,245.057 1634.22,245.098 L1634.22,242.927 L1653.01,242.927 L1653.01,278.848 C1653.01,283.848 1653.88,287.13 1655.62,288.692 C1657.36,290.255 1659.46,291.036 1661.92,291.036 C1663.61,291.036 1665.51,290.507 1667.64,289.45 C1669.76,288.393 1672.29,286.38 1675.23,283.411 L1675.23,253.005 C1675.23,249.953 1674.67,247.89 1673.56,246.817 C1672.45,245.744 1670.13,245.171 1666.61,245.098 L1666.61,242.927 L1684.89,242.927 M1712.54,252.177 C1717.74,244.958 1723.35,241.348 1729.37,241.348 C1734.87,241.348 1739.67,243.7 1743.78,248.403 C1747.88,253.106 1749.94,259.541 1749.94,267.708 C1749.94,277.239 1746.77,284.916 1740.44,290.739 C1735.01,295.739 1728.96,298.239 1722.28,298.239 C1719.15,298.239 1715.98,297.671 1712.76,296.536 C1709.53,295.401 1706.24,293.703 1702.89,291.442 L1702.89,235.833 C1702.89,229.739 1702.74,225.989 1702.44,224.583 C1702.15,223.177 1701.69,222.221 1701.06,221.716 C1700.44,221.21 1699.65,220.958 1698.72,220.958 C1697.62,220.958 1696.26,221.27 1694.62,221.895 L1693.79,219.833 L1709.92,213.27 L1712.54,213.27 L1712.54,252.177 M1712.54,255.927 L1712.54,288.036 C1714.54,289.994 1716.61,291.471 1718.73,292.466 C1720.86,293.46 1723.03,293.958 1725.26,293.958 C1728.82,293.958 1732.13,292.005 1735.19,288.098 C1738.26,284.192 1739.79,278.51 1739.79,271.052 C1739.79,264.177 1738.26,258.893 1735.19,255.2 C1732.13,251.507 1728.64,249.661 1724.73,249.661 C1722.67,249.661 1720.6,250.187 1718.53,251.239 C1716.97,252.02 1714.97,253.583 1712.54,255.927 M1783.97,248.255 L1800.5,241.583 L1802.73,241.583 L1802.73,254.114 C1805.5,249.385 1808.28,246.075 1811.08,244.184 C1813.87,242.294 1816.81,241.348 1819.89,241.348 C1825.28,241.348 1829.78,243.458 1833.37,247.677 C1837.79,252.833 1840,259.552 1840,267.833 C1840,277.083 1837.34,284.739 1832.03,290.802 C1827.65,295.76 1822.14,298.239 1815.5,298.239 C1812.61,298.239 1810.11,297.828 1808,297.005 C1806.44,296.421 1804.68,295.249 1802.73,293.489 L1802.73,309.848 C1802.73,313.515 1802.96,315.846 1803.4,316.841 C1803.85,317.835 1804.63,318.627 1805.75,319.216 C1806.86,319.804 1808.88,320.098 1811.81,320.098 L1811.81,322.27 L1783.69,322.27 L1783.69,320.098 L1785.15,320.098 C1787.3,320.14 1789.13,319.729 1790.65,318.864 C1791.39,318.437 1791.97,317.744 1792.38,316.786 C1792.79,315.828 1793,313.395 1793,309.489 L1793,258.739 C1793,255.27 1792.84,253.067 1792.53,252.13 C1792.22,251.192 1791.72,250.489 1791.04,250.02 C1790.35,249.552 1789.42,249.317 1788.25,249.317 C1787.31,249.317 1786.12,249.588 1784.69,250.13 L1783.97,248.255 M1802.73,257.567 L1802.73,277.614 C1802.73,281.947 1802.9,284.796 1803.25,286.161 C1803.8,288.432 1805.14,290.427 1807.27,292.145 C1809.4,293.864 1812.09,294.723 1815.33,294.723 C1819.23,294.723 1822.39,293.197 1824.81,290.145 C1827.98,286.166 1829.56,280.562 1829.56,273.333 C1829.56,265.135 1827.76,258.828 1824.17,254.411 C1821.67,251.359 1818.7,249.833 1815.26,249.833 C1813.39,249.833 1811.53,250.302 1809.7,251.239 C1808.29,251.947 1805.97,254.057 1802.73,257.567 M1878.25,288.864 C1872.75,293.124 1869.29,295.583 1867.89,296.239 C1865.77,297.218 1863.52,297.708 1861.14,297.708 C1857.43,297.708 1854.38,296.44 1851.97,293.903 C1849.57,291.367 1848.37,288.026 1848.37,283.88 C1848.37,281.265 1848.96,278.999 1850.12,277.083 C1851.73,274.427 1854.51,271.927 1858.47,269.583 C1862.44,267.239 1869.03,264.39 1878.25,261.036 L1878.25,258.927 C1878.25,253.572 1877.4,249.898 1875.7,247.903 C1874,245.908 1871.53,244.911 1868.29,244.911 C1865.84,244.911 1863.88,245.578 1862.44,246.911 C1860.95,248.234 1860.2,249.755 1860.2,251.473 L1860.33,254.88 C1860.33,256.671 1859.87,258.057 1858.95,259.036 C1858.03,260.015 1856.83,260.505 1855.34,260.505 C1853.89,260.505 1852.71,259.997 1851.79,258.981 C1850.88,257.966 1850.42,256.578 1850.42,254.817 C1850.42,251.463 1852.14,248.38 1855.58,245.567 C1859.01,242.755 1863.84,241.348 1870.04,241.348 C1874.82,241.348 1878.72,242.145 1881.76,243.739 C1884.08,244.958 1885.78,246.854 1886.87,249.427 C1887.57,251.104 1887.92,254.541 1887.92,259.739 L1887.92,277.958 C1887.92,283.083 1888.02,286.221 1888.22,287.372 C1888.41,288.523 1888.74,289.294 1889.19,289.684 C1889.63,290.075 1890.15,290.27 1890.73,290.27 C1891.36,290.27 1891.9,290.135 1892.37,289.864 C1893.2,289.354 1894.78,287.927 1897.12,285.583 L1897.12,288.864 C1892.75,294.729 1888.57,297.661 1884.58,297.661 C1882.67,297.661 1881.15,296.994 1880.01,295.661 C1878.88,294.328 1878.29,292.062 1878.25,288.864 M1878.25,285.052 L1878.25,264.598 C1872.35,266.942 1868.54,268.604 1866.83,269.583 C1863.74,271.302 1861.54,273.098 1860.21,274.973 C1858.88,276.848 1858.22,278.901 1858.22,281.13 C1858.22,283.942 1859.06,286.276 1860.73,288.13 C1862.41,289.984 1864.34,290.911 1866.53,290.911 C1869.5,290.911 1873.4,288.958 1878.25,285.052 M1938.75,290.567 C1936.13,293.296 1933.58,295.257 1931.08,296.45 C1928.58,297.643 1925.88,298.239 1923,298.239 C1917.13,298.239 1912.01,295.789 1907.64,290.887 C1903.26,285.986 1901.08,279.687 1901.08,271.989 C1901.08,264.291 1903.5,257.249 1908.34,250.864 C1913.19,244.479 1919.41,241.286 1927.03,241.286 C1931.76,241.286 1935.66,242.791 1938.75,245.802 L1938.75,235.895 C1938.75,229.76 1938.6,225.989 1938.31,224.583 C1938.02,223.177 1937.56,222.221 1936.94,221.716 C1936.31,221.21 1935.53,220.958 1934.59,220.958 C1933.58,220.958 1932.23,221.27 1930.54,221.895 L1929.79,219.833 L1945.78,213.27 L1948.42,213.27 L1948.42,275.333 C1948.42,281.614 1948.57,285.45 1948.86,286.841 C1949.15,288.231 1949.62,289.2 1950.26,289.747 C1950.91,290.294 1951.66,290.567 1952.53,290.567 C1953.58,290.567 1954.99,290.234 1956.75,289.567 L1957.39,291.614 L1941.45,298.239 L1938.75,298.239 L1938.75,290.567 M1938.75,286.458 L1938.75,258.802 C1938.52,256.145 1937.82,253.723 1936.65,251.536 C1935.47,249.348 1933.92,247.697 1931.99,246.583 C1930.06,245.468 1928.17,244.911 1926.33,244.911 C1922.89,244.911 1919.83,246.458 1917.14,249.552 C1913.58,253.614 1911.79,259.552 1911.79,267.364 C1911.79,275.249 1913.51,281.291 1916.95,285.489 C1920.39,289.687 1924.22,291.786 1928.44,291.786 C1932,291.786 1935.44,290.01 1938.75,286.458 M2007.89,242.927 L2007.89,275.442 C2007.89,281.651 2008.04,285.45 2008.33,286.841 C2008.63,288.231 2009.1,289.2 2009.74,289.747 C2010.38,290.294 2011.13,290.567 2012,290.567 C2013.21,290.567 2014.57,290.234 2016.09,289.567 L2016.92,291.614 L2000.86,298.239 L1998.23,298.239 L1998.23,286.864 C1993.62,291.864 1990.1,295.01 1987.68,296.302 C1985.26,297.593 1982.7,298.239 1980,298.239 C1977,298.239 1974.39,297.369 1972.19,295.63 C1969.98,293.89 1968.44,291.653 1967.58,288.919 C1966.72,286.184 1966.29,282.317 1966.29,277.317 L1966.29,253.348 C1966.29,250.817 1966.02,249.062 1965.47,248.083 C1964.93,247.104 1964.12,246.351 1963.04,245.825 C1961.97,245.299 1960.03,245.057 1957.22,245.098 L1957.22,242.927 L1976.01,242.927 L1976.01,278.848 C1976.01,283.848 1976.88,287.13 1978.62,288.692 C1980.36,290.255 1982.46,291.036 1984.92,291.036 C1986.61,291.036 1988.51,290.507 1990.64,289.45 C1992.76,288.393 1995.29,286.38 1998.23,283.411 L1998.23,253.005 C1998.23,249.953 1997.67,247.89 1996.56,246.817 C1995.45,245.744 1993.13,245.171 1989.61,245.098 L1989.61,242.927 L2007.89,242.927 M2036.54,241.348 L2036.54,253.411 C2041.03,245.369 2045.64,241.348 2050.37,241.348 C2052.52,241.348 2054.29,242.002 2055.7,243.309 C2057.11,244.617 2057.81,246.13 2057.81,247.848 C2057.81,249.369 2057.3,250.658 2056.29,251.716 C2055.27,252.773 2054.06,253.302 2052.65,253.302 C2051.29,253.302 2049.76,252.627 2048.06,251.278 C2046.36,249.929 2045.1,249.255 2044.28,249.255 C2043.58,249.255 2042.82,249.645 2042,250.427 C2040.24,252.031 2038.42,254.666 2036.54,258.333 L2036.54,284.052 C2036.54,287.02 2036.91,289.27 2037.65,290.802 C2038.16,291.854 2039.07,292.731 2040.36,293.434 C2041.65,294.137 2043.5,294.489 2045.92,294.489 L2045.92,296.598 L2018.44,296.598 L2018.44,294.489 C2021.17,294.489 2023.21,294.057 2024.53,293.192 C2025.51,292.567 2026.2,291.572 2026.59,290.208 C2026.78,289.541 2026.87,287.645 2026.87,284.52 L2026.87,263.723 C2026.87,257.473 2026.75,253.752 2026.5,252.559 C2026.25,251.367 2025.78,250.497 2025.09,249.95 C2024.4,249.403 2023.56,249.13 2022.54,249.13 C2021.34,249.13 2019.97,249.427 2018.44,250.02 L2017.86,247.911 L2034.09,241.348 L2036.54,241.348 M2069.87,263.145 C2069.83,271.114 2071.76,277.364 2075.67,281.895 C2079.58,286.427 2084.16,288.692 2089.44,288.692 C2092.96,288.692 2096.01,287.723 2098.61,285.786 C2101.2,283.848 2103.38,280.536 2105.14,275.848 L2106.95,277.02 C2106.14,282.374 2103.76,287.249 2099.81,291.645 C2095.86,296.041 2090.92,298.239 2084.98,298.239 C2078.53,298.239 2073.02,295.729 2068.43,290.708 C2063.84,285.687 2061.54,278.937 2061.54,270.458 C2061.54,261.281 2063.9,254.124 2068.61,248.989 C2073.32,243.854 2079.22,241.286 2086.33,241.286 C2092.35,241.286 2097.29,243.268 2101.15,247.231 C2105.02,251.195 2106.95,256.499 2106.95,263.145 L2069.87,263.145 M2069.87,259.739 L2094.72,259.739 C2094.52,256.302 2094.11,253.88 2093.48,252.473 C2092.5,250.286 2091.05,248.567 2089.12,247.317 C2087.18,246.067 2085.16,245.442 2083.04,245.442 C2079.81,245.442 2076.91,246.703 2074.35,249.223 C2071.79,251.744 2070.3,255.249 2069.87,259.739"/>
<path class="MeasureNumber" d="M128.045,968.014 C127.566,968.014 126.607,968.306 125.17,968.889 L125.17,968.342 L132.373,964.702 L132.685,964.78 L132.685,988.78 C132.685,989.738 132.925,990.363 133.404,990.655 C133.883,990.946 134.909,991.108 136.482,991.139 L136.482,991.733 L125.451,991.733 L125.451,991.139 C126.941,991.077 127.946,990.853 128.467,990.467 C128.987,990.082 129.248,989.264 129.248,988.014 L129.248,969.889 C129.248,968.639 128.847,968.014 128.045,968.014 M158.685,965.264 L158.685,965.889 L150.217,992.045 L147.607,992.045 L155.529,968.17 L146.857,968.17 C145.764,968.17 144.93,968.371 144.357,968.772 C143.784,969.173 143.071,970.056 142.217,971.42 L141.529,971.108 L143.889,965.264 L158.685,965.264 "/>
<polyline class="BarLine" fill="none" stroke="#000000" stroke-width="4.00" stroke-linejoin="bevel" points="2821.72,1040.73 2821.72,1142.73"/>
<polyline class="BarLine" fill="none" stroke="#000000" stroke-width="12.50" stroke-linejoin="bevel" points="2829.22,1040.73 2829.22,1142.73"/>
<polyline class="BarLine" fill="none" stroke="#000000" stroke-width="4.00" stroke-linejoin="bevel" points="2663.9,1040.73 2663.9,1142.73"/>
<polyline class="BarLine" fill="none" stroke="#000000" stroke-width="4.00" stroke-linejoin="bevel" points="2502.59,1040.73 2502.59,1142.73"/>
<polyline class="BarLine" fill="none" stroke="#000000" stroke-width="4.00" stroke-linejoin="bevel" points="2341.27,1040.73 2341.27,1142.73"/>
<polyline class="BarLine" fill="none" stroke="#000000" stroke-width="4.00" stroke-linejoin="bevel" points="2179.96,1040.73 2179.96,1142.73"/>
<polyline class="BarLine" fill="none" stroke="#000000" stroke-width="4.00" stroke-linejoin="bevel" points="2018.64,1040.73 2018.64,1142.73"/>
<polyline class="BarLine" fill="none" stroke="#000000" stroke-width="4.00" stroke-linejoin="bevel" points="1857.32,1040.73 1857.32,1142.73"/>
<polyline class="BarLine" fill="none" stroke="#000000" stroke-width="4.00" stroke-linejoin="bevel" points="1696.01,1040.73 1696.01,1142.73"/>
<polyline class="BarLine" fill="none" stroke="#000000" stroke-width="4.00" stroke-linejoin="bevel" points="1534.69,1040.73 1534.69,1142.73"/>
<polyline class="BarLine" fill="none" stroke="#000000" stroke-width="4.00" stroke-linejoin="bevel" points="1373.38,1040.73 1373.38,1142.73"/>
<polyline class="BarLine" fill="none" stroke="#000000" stroke-width="4.00" stroke-linejoin="bevel" points="1212.06,1040.73 1212.06,1142.73"/>
<polyline class="BarLine" fill="none" stroke="#000000" stroke-width="4.00" stroke-linejoin="bevel" points="1050.75,1040.73 1050.75,1142.73"/>
<polyline class="BarLine" fill="none" stroke="#000000" stroke-width="4.00" stroke-linejoin="bevel" points="889.432,1040.73 889.432,1142.73"/>
<polyline class="BarLine" fill="none" stroke="#000000" stroke-width="4.00" stroke-linejoin="bevel" points="728.116,1040.73 728.116,1142.73"/>
<polyline class="BarLine" fill="none" stroke="#000000" stroke-width="4.00" stroke-linejoin="bevel" points="566.801,1040.73 566.801,1142.73"/>
<polyline class="BarLine" fill="none" stroke="#000000" stroke-width="4.00" stroke-linejoin="bevel" points="405.485,1040.73 405.485,1142.73"/>
<polyline class="BarLine" fill="none" stroke="#000000" stroke-width="4.00" stroke-linejoin="bevel" points="2833.47,565.733 2833.47,667.733"/>
<polyline class="BarLine" fill="none" stroke="#000000" stroke-width="4.00" stroke-linejoin="bevel" points="2727.62,565.733 2727.62,667.733"/>
<polyline class="BarLine" fill="none" stroke="#000000" stroke-width="4.00" stroke-linejoin="bevel" points="2621.78,565.733 2621.78,667.733"/>
<polyline class="BarLine" fill="none" stroke="#000000" stroke-width="4.00" stroke-linejoin="bevel" points="2515.94,565.733 2515.94,667.733"/>
<polyline class="BarLine" fill="none" stroke="#000000" stroke-width="4.00" stroke-linejoin="bevel" points="2410.09,565.733 2410.09,667.733"/>
<polyline class="BarLine" fill="none" stroke="#000000" stroke-width="4.00" stroke-linejoin="bevel" points="2304.25,565.733 2304.25,667.733"/>
<polyline class="BarLine" fill="none" stroke="#000000" stroke-width="4.00" stroke-linejoin="bevel" points="2198.4,565.733 2198.4,667.733"/>
<polyline class="BarLine" fill="none" stroke="#000000" stroke-width="4.00" stroke-linejoin="bevel" points="2092.56,565.733 2092.56,667.733"/>
<path class="BarLine" d="M1955.22,608.233 C1954.11,607.128 1953.55,605.795 1953.55,604.233 C1953.55,602.67 1954.11,601.334 1955.22,600.225 C1956.33,599.115 1957.66,598.561 1959.22,598.561 C1960.79,598.561 1962.12,599.115 1963.22,600.225 C1964.33,601.334 1964.88,602.67 1964.88,604.233 C1964.88,605.795 1964.33,607.128 1963.22,608.233 C1962.12,609.337 1960.79,609.889 1959.22,609.889 C1957.66,609.889 1956.33,609.337 1955.22,608.233"/>
<path class="BarLine" d="M1955.22,633.233 C1954.11,632.128 1953.55,630.795 1953.55,629.233 C1953.55,627.67 1954.11,626.334 1955.22,625.225 C1956.33,624.115 1957.66,623.561 1959.22,623.561 C1960.79,623.561 1962.12,624.115 1963.22,625.225 C1964.33,626.334 1964.88,627.67 1964.88,629.233 C1964.88,630.795 1964.33,632.128 1963.22,633.233 C1962.12,634.337 1960.79,634.889 1959.22,634.889 C1957.66,634.889 1956.33,634.337 1955.22,633.233"/>
<polyline class="BarLine" fill="none" stroke="#000000" stroke-width="4.00" stroke-linejoin="bevel" points="1974.97,565.733 1974.97,667.733"/>
<polyline class="BarLine" fill="none" stroke="#000000" stroke-width="12.50" stroke-linejoin="bevel" points="1982.47,565.733 1982.47,667.733"/>
<polyline class="BarLine" fill="none" stroke="#000000" stroke-width="4.00" stroke-linejoin="bevel" points="1846.28,565.733 1846.28,667.733"/>
<polyline class="BarLine" fill="none" stroke="#000000" stroke-width="4.00" stroke-linejoin="bevel" points="1611.09,565.733 1611.09,667.733"/>
<polyline class="BarLine" fill="none" stroke="#000000" stroke-width="4.00" stroke-linejoin="bevel" points="1375.9,565.733 1375.9,667.733"/>
<polyline class="BarLine" fill="none" stroke="#000000" stroke-width="4.00" stroke-linejoin="bevel" points="1140.71,565.733 1140.71,667.733"/>
<polyline class="BarLine" fill="none" stroke="#000000" stroke-width="4.00" stroke-linejoin="bevel" points="941.806,565.733 941.806,667.733"/>
<polyline class="BarLine" fill="none" stroke="#000000" stroke-width="4.00" stroke-linejoin="bevel" points="706.615,565.733 706.615,667.733"/>
<polyline class="BarLine" fill="none" stroke="#000000" stroke-width="4.00" stroke-linejoin="bevel" points="517.341,565.733 517.341,667.733"/>
<polyline class="BarLine" fill="none" stroke="#000000" stroke-width="12.50" stroke-linejoin="bevel" points="301.154,565.733 301.154,667.733"/>
<polyline class="BarLine" fill="none" stroke="#000000" stroke-width="4.00" stroke-linejoin="bevel" points="308.654,565.733 308.654,667.733"/>
<path class="BarLine" d="M320.396,608.233 C319.287,607.128 318.732,605.795 318.732,604.233 C318.732,602.67 319.287,601.334 320.396,600.225 C321.506,599.115 322.842,598.561 324.404,598.561 C325.967,598.561 327.3,599.115 328.404,600.225 C329.508,601.334 330.061,602.67 330.061,604.233 C330.061,605.795 329.508,607.128 328.404,608.233 C327.3,609.337 325.967,609.889 324.404,609.889 C322.842,609.889 321.506,609.337 320.396,608.233"/>
<path class="BarLine" d="M320.396,633.233 C319.287,632.128 318.732,630.795 318.732,629.233 C318.732,627.67 319.287,626.334 320.396,625.225 C321.506,624.115 322.842,623.561 324.404,623.561 C325.967,623.561 327.3,624.115 328.404,625.225 C329.508,626.334 330.061,627.67 330.061,629.233 C330.061,630.795 329.508,632.128 328.404,633.233 C327.3,634.337 325.967,634.889 324.404,634.889 C322.842,634.889 321.506,634.337 320.396,633.233"/>
<polyline class="LedgerLine" fill="none" stroke="#000000" stroke-width="3.00" stroke-linecap="square" stroke-linejoin="bevel" points="1879.78,691.733 1929.5,691.733"/>
<polyline class="LedgerLine" fill="none" stroke="#000000" stroke-width="3.00" stroke-linecap="square" stroke-linejoin="bevel" points="1061.68,691.733 1109.59,691.733"/>
<polyline class="Stem" fill="none" stroke="#000000" stroke-width="3.25" stroke-linecap="round" stroke-linejoin="bevel" points="1920.38,687.893 1920.38,604.233"/>
<polyline class="Stem" fill="none" stroke="#000000" stroke-width="3.25" stroke-linecap="round" stroke-linejoin="bevel" points="1817.66,674.537 1817.66,597.983"/>
<polyline class="Stem" fill="none" stroke="#000000" stroke-width="3.25" stroke-linecap="round" stroke-linejoin="bevel" points="1769.9,674.537 1769.9,597.983"/>
<polyline class="Stem" fill="none" stroke="#000000" stroke-width="3.25" stroke-linecap="round" stroke-linejoin="bevel" points="1722.14,662.037 1722.14,591.733"/>
<polyline class="Stem" fill="none" stroke="#000000" stroke-width="3.25" stroke-linecap="round" stroke-linejoin="bevel" points="1674.38,662.037 1674.38,591.733"/>
<polyline class="Stem" fill="none" stroke="#000000" stroke-width="3.25" stroke-linecap="round" stroke-linejoin="bevel" points="1582.47,649.537 1582.47,572.983"/>
<polyline class="Stem" fill="none" stroke="#000000" stroke-width="3.25" stroke-linecap="round" stroke-linejoin="bevel" points="1534.71,637.037 1534.71,566.733"/>
<polyline class="Stem" fill="none" stroke="#000000" stroke-width="3.25" stroke-linecap="round" stroke-linejoin="bevel" points="1486.95,674.537 1486.95,597.983"/>
<polyline class="Stem" fill="none" stroke="#000000" stroke-width="3.25" stroke-linecap="round" stroke-linejoin="bevel" points="1439.19,662.037 1439.19,591.733"/>
<polyline class="Stem" fill="none" stroke="#000000" stroke-width="3.25" stroke-linecap="round" stroke-linejoin="bevel" points="1347.27,649.537 1347.27,572.983"/>
<polyline class="Stem" fill="none" stroke="#000000" stroke-width="3.25" stroke-linecap="round" stroke-linejoin="bevel" points="1299.52,637.037 1299.52,566.733"/>
<polyline class="Stem" fill="none" stroke="#000000" stroke-width="3.25" stroke-linecap="round" stroke-linejoin="bevel" points="1251.76,624.537 1251.76,560.483"/>
<polyline class="Stem" fill="none" stroke="#000000" stroke-width="3.25" stroke-linecap="round" stroke-linejoin="bevel" points="1204,637.037 1204,566.733"/>
<polyline class="Stem" fill="none" stroke="#000000" stroke-width="3.25" stroke-linecap="round" stroke-linejoin="bevel" points="1100.47,687.037 1100.47,604.233"/>
<polyline class="Stem" fill="none" stroke="#000000" stroke-width="3.25" stroke-linecap="round" stroke-linejoin="bevel" points="1048.55,674.537 1048.55,597.983"/>
<polyline class="Stem" fill="none" stroke="#000000" stroke-width="3.25" stroke-linecap="round" stroke-linejoin="bevel" points="1005.09,662.037 1005.09,591.733"/>
<polyline class="Stem" fill="none" stroke="#000000" stroke-width="3.25" stroke-linecap="round" stroke-linejoin="bevel" points="913.181,649.537 913.181,572.983"/>
<polyline class="Stem" fill="none" stroke="#000000" stroke-width="3.25" stroke-linecap="round" stroke-linejoin="bevel" points="865.422,637.037 865.422,566.733"/>
<polyline class="Stem" fill="none" stroke="#000000" stroke-width="3.25" stroke-linecap="round" stroke-linejoin="bevel" points="817.663,624.537 817.663,560.483"/>
<polyline class="Stem" fill="none" stroke="#000000" stroke-width="3.25" stroke-linecap="round" stroke-linejoin="bevel" points="769.904,637.037 769.904,566.733"/>
<polyline class="Stem" fill="none" stroke="#000000" stroke-width="3.25" stroke-linecap="round" stroke-linejoin="bevel" points="666.893,624.537 666.893,547.983"/>
<polyline class="Stem" fill="none" stroke="#000000" stroke-width="3.25" stroke-linecap="round" stroke-linejoin="bevel" points="623.762,624.537 623.762,560.483"/>
<polyline class="Stem" fill="none" stroke="#000000" stroke-width="3.25" stroke-linecap="round" stroke-linejoin="bevel" points="580.631,637.037 580.631,566.733"/>
<polyline class="Stem" fill="none" stroke="#000000" stroke-width="3.25" stroke-linecap="round" stroke-linejoin="bevel" points="447.956,608.928 447.956,685.483"/>
<polyline class="Stem" fill="none" stroke="#000000" stroke-width="3.25" stroke-linecap="round" stroke-linejoin="bevel" points="434.489,599.537 434.489,535.483"/>
<polyline class="Stem" fill="none" stroke="#000000" stroke-width="3.25" stroke-linecap="round" stroke-linejoin="bevel" points="391.357,637.037 391.357,560.483"/>
<path class="Note" d="M1918.83,685.186 C1918.83,684.082 1918.41,683.139 1917.56,682.358 C1916.71,681.514 1915.73,681.092 1914.63,681.092 C1912.68,681.092 1908.74,683.045 1902.81,686.951 C1896.69,690.92 1892.94,693.753 1891.58,695.451 C1890.86,696.358 1890.5,697.3 1890.5,698.28 C1890.5,699.384 1890.93,700.326 1891.78,701.108 C1892.56,701.951 1893.54,702.373 1894.7,702.373 C1896.59,702.373 1900.56,700.42 1906.63,696.514 C1912.62,692.608 1916.32,689.774 1917.75,688.014 C1918.47,687.17 1918.83,686.227 1918.83,685.186 M1913.66,677.967 C1919.25,677.967 1922.05,680.373 1922.05,685.186 C1922.05,687.53 1921.37,690.264 1920,693.389 C1918.64,696.451 1916.81,698.795 1914.53,700.42 C1909.52,703.806 1903.24,705.498 1895.69,705.498 C1890.08,705.498 1887.28,703.092 1887.28,698.28 C1887.28,696.134 1887.96,693.431 1889.33,690.17 C1890.63,687.045 1892.45,684.67 1894.8,683.045 C1899.82,679.66 1906.11,677.967 1913.66,677.967"/>
<path class="Note" d="M1808.34,665.467 C1811.46,665.467 1814.1,666.279 1816.26,667.904 C1818.27,669.665 1819.27,671.878 1819.27,674.545 C1819.27,679.035 1816.97,683.233 1812.35,687.139 C1807.66,691.045 1802.65,692.998 1797.31,692.998 C1794.18,692.998 1791.55,692.186 1789.4,690.561 C1787.38,688.8 1786.37,686.587 1786.37,683.92 C1786.37,679.431 1788.71,675.233 1793.4,671.326 C1797.96,667.42 1802.94,665.467 1808.34,665.467"/>
<path class="Note" d="M1760.58,665.467 C1763.7,665.467 1766.34,666.279 1768.5,667.904 C1770.51,669.665 1771.52,671.878 1771.52,674.545 C1771.52,679.035 1769.21,683.233 1764.59,687.139 C1759.91,691.045 1754.89,692.998 1749.55,692.998 C1746.42,692.998 1743.79,692.186 1741.64,690.561 C1739.62,688.8 1738.61,686.587 1738.61,683.92 C1738.61,679.431 1740.95,675.233 1745.64,671.326 C1750.2,667.42 1755.18,665.467 1760.58,665.467"/>
<path class="Note" d="M1712.82,652.967 C1715.94,652.967 1718.58,653.779 1720.74,655.404 C1722.75,657.165 1723.76,659.378 1723.76,662.045 C1723.76,666.535 1721.45,670.733 1716.83,674.639 C1712.15,678.545 1707.13,680.498 1701.79,680.498 C1698.66,680.498 1696.03,679.686 1693.88,678.061 C1691.86,676.3 1690.85,674.087 1690.85,671.42 C1690.85,666.931 1693.19,662.733 1697.88,658.826 C1702.44,654.92 1707.42,652.967 1712.82,652.967"/>
<path class="Note" d="M1665.06,652.967 C1668.18,652.967 1670.83,653.779 1672.98,655.404 C1674.99,657.165 1676,659.378 1676,662.045 C1676,666.535 1673.69,670.733 1669.08,674.639 C1664.39,678.545 1659.37,680.498 1654.03,680.498 C1650.9,680.498 1648.27,679.686 1646.12,678.061 C1644.1,676.3 1643.09,674.087 1643.09,671.42 C1643.09,666.931 1645.43,662.733 1650.12,658.826 C1654.68,654.92 1659.66,652.967 1665.06,652.967"/>
<path class="Note" d="M1573.15,640.467 C1576.27,640.467 1578.91,641.279 1581.07,642.904 C1583.08,644.665 1584.08,646.878 1584.08,649.545 C1584.08,654.035 1581.78,658.233 1577.16,662.139 C1572.47,666.045 1567.46,667.998 1562.11,667.998 C1558.99,667.998 1556.35,667.186 1554.21,665.561 C1552.19,663.8 1551.18,661.587 1551.18,658.92 C1551.18,654.431 1553.52,650.233 1558.21,646.326 C1562.77,642.42 1567.75,640.467 1573.15,640.467"/>
<path class="Note" d="M1525.39,627.967 C1528.51,627.967 1531.15,628.779 1533.31,630.404 C1535.32,632.165 1536.32,634.378 1536.32,637.045 C1536.32,641.535 1534.02,645.733 1529.4,649.639 C1524.71,653.545 1519.7,655.498 1514.36,655.498 C1511.23,655.498 1508.6,654.686 1506.45,653.061 C1504.43,651.3 1503.42,649.087 1503.42,646.42 C1503.42,641.931 1505.76,637.733 1510.45,633.826 C1515.01,629.92 1519.99,627.967 1525.39,627.967"/>
<path class="Note" d="M1477.63,665.467 C1480.75,665.467 1483.39,666.279 1485.55,667.904 C1487.56,669.665 1488.57,671.878 1488.57,674.545 C1488.57,679.035 1486.26,683.233 1481.64,687.139 C1476.96,691.045 1471.94,692.998 1466.6,692.998 C1463.47,692.998 1460.84,692.186 1458.69,690.561 C1456.67,688.8 1455.66,686.587 1455.66,683.92 C1455.66,679.431 1458,675.233 1462.69,671.326 C1467.25,667.42 1472.23,665.467 1477.63,665.467"/>
<path class="Note" d="M1429.87,652.967 C1432.99,652.967 1435.63,653.779 1437.79,655.404 C1439.8,657.165 1440.81,659.378 1440.81,662.045 C1440.81,666.535 1438.5,670.733 1433.88,674.639 C1429.2,678.545 1424.18,680.498 1418.84,680.498 C1415.71,680.498 1413.08,679.686 1410.93,678.061 C1408.91,676.3 1407.9,674.087 1407.9,671.42 C1407.9,666.931 1410.24,662.733 1414.93,658.826 C1419.49,654.92 1424.47,652.967 1429.87,652.967"/>
<path class="Note" d="M1337.95,640.467 C1341.08,640.467 1343.72,641.279 1345.88,642.904 C1347.89,644.665 1348.89,646.878 1348.89,649.545 C1348.89,654.035 1346.58,658.233 1341.97,662.139 C1337.28,666.045 1332.27,667.998 1326.92,667.998 C1323.8,667.998 1321.16,667.186 1319.02,665.561 C1317,663.8 1315.99,661.587 1315.99,658.92 C1315.99,654.431 1318.33,650.233 1323.02,646.326 C1327.58,642.42 1332.56,640.467 1337.95,640.467"/>
<path class="Note" d="M1290.2,627.967 C1293.32,627.967 1295.96,628.779 1298.12,630.404 C1300.13,632.165 1301.13,634.378 1301.13,637.045 C1301.13,641.535 1298.83,645.733 1294.21,649.639 C1289.52,653.545 1284.51,655.498 1279.16,655.498 C1276.04,655.498 1273.4,654.686 1271.26,653.061 C1269.24,651.3 1268.23,649.087 1268.23,646.42 C1268.23,641.931 1270.57,637.733 1275.26,633.826 C1279.82,629.92 1284.8,627.967 1290.2,627.967"/>
<path class="Note" d="M1242.44,615.467 C1245.56,615.467 1248.2,616.279 1250.36,617.904 C1252.37,619.665 1253.37,621.878 1253.37,624.545 C1253.37,629.035 1251.07,633.233 1246.45,637.139 C1241.76,641.045 1236.75,642.998 1231.41,642.998 C1228.28,642.998 1225.64,642.186 1223.5,640.561 C1221.48,638.8 1220.47,636.587 1220.47,633.92 C1220.47,629.431 1222.81,625.233 1227.5,621.326 C1232.06,617.42 1237.04,615.467 1242.44,615.467"/>
<path class="Note" d="M1194.68,627.967 C1197.8,627.967 1200.44,628.779 1202.6,630.404 C1204.61,632.165 1205.62,634.378 1205.62,637.045 C1205.62,641.535 1203.31,645.733 1198.69,649.639 C1194.01,653.545 1188.99,655.498 1183.65,655.498 C1180.52,655.498 1177.89,654.686 1175.74,653.061 C1173.72,651.3 1172.71,649.087 1172.71,646.42 C1172.71,641.931 1175.05,637.733 1179.74,633.826 C1184.3,629.92 1189.28,627.967 1194.68,627.967"/>
<path class="Note" d="M1091.15,677.967 C1094.27,677.967 1096.91,678.78 1099.07,680.405 C1101.08,682.165 1102.08,684.378 1102.08,687.045 C1102.08,691.535 1099.78,695.733 1095.16,699.639 C1090.47,703.545 1085.46,705.498 1080.11,705.498 C1076.99,705.498 1074.35,704.686 1072.21,703.061 C1070.19,701.3 1069.18,699.087 1069.18,696.42 C1069.18,691.931 1071.52,687.733 1076.21,683.826 C1080.77,679.92 1085.75,677.967 1091.15,677.967"/>
<path class="Note" d="M1039.23,665.467 C1042.36,665.467 1045,666.279 1047.15,667.904 C1049.16,669.665 1050.17,671.878 1050.17,674.545 C1050.17,679.035 1047.86,683.233 1043.25,687.139 C1038.56,691.045 1033.54,692.998 1028.2,692.998 C1025.08,692.998 1022.44,692.186 1020.29,690.561 C1018.27,688.8 1017.26,686.587 1017.26,683.92 C1017.26,679.431 1019.61,675.233 1024.29,671.326 C1028.86,667.42 1033.84,665.467 1039.23,665.467"/>
<path class="Note" d="M995.774,652.967 C998.899,652.967 1001.54,653.779 1003.7,655.404 C1005.71,657.165 1006.71,659.378 1006.71,662.045 C1006.71,666.535 1004.4,670.733 999.79,674.639 C995.103,678.545 990.087,680.498 984.743,680.498 C981.618,680.498 978.983,679.686 976.837,678.061 C974.816,676.3 973.806,674.087 973.806,671.42 C973.806,666.931 976.149,662.733 980.837,658.826 C985.399,654.92 990.379,652.967 995.774,652.967"/>
<path class="Note" d="M903.86,640.467 C906.985,640.467 909.626,641.279 911.782,642.904 C913.793,644.665 914.798,646.878 914.798,649.545 C914.798,654.035 912.491,658.233 907.876,662.139 C903.188,666.045 898.173,667.998 892.829,667.998 C889.704,667.998 887.069,667.186 884.923,665.561 C882.902,663.8 881.892,661.587 881.892,658.92 C881.892,654.431 884.235,650.233 888.923,646.326 C893.485,642.42 898.464,640.467 903.86,640.467"/>
<path class="Note" d="M856.101,627.967 C859.226,627.967 861.867,628.779 864.023,630.404 C866.034,632.165 867.039,634.378 867.039,637.045 C867.039,641.535 864.732,645.733 860.117,649.639 C855.429,653.545 850.414,655.498 845.07,655.498 C841.945,655.498 839.31,654.686 837.164,653.061 C835.143,651.3 834.133,649.087 834.133,646.42 C834.133,641.931 836.476,637.733 841.164,633.826 C845.726,629.92 850.705,627.967 856.101,627.967"/>
<path class="Note" d="M808.342,615.467 C811.467,615.467 814.108,616.279 816.264,617.904 C818.275,619.665 819.28,621.878 819.28,624.545 C819.28,629.035 816.972,633.233 812.358,637.139 C807.67,641.045 802.655,642.998 797.311,642.998 C794.186,642.998 791.551,642.186 789.405,640.561 C787.384,638.8 786.374,636.587 786.374,633.92 C786.374,629.431 788.717,625.233 793.405,621.326 C797.967,617.42 802.946,615.467 808.342,615.467"/>
<path class="Note" d="M760.583,627.967 C763.708,627.967 766.349,628.779 768.505,630.404 C770.516,632.165 771.521,634.378 771.521,637.045 C771.521,641.535 769.213,645.733 764.599,649.639 C759.911,653.545 754.896,655.498 749.552,655.498 C746.427,655.498 743.792,654.686 741.646,653.061 C739.625,651.3 738.615,649.087 738.615,646.42 C738.615,641.931 740.958,637.733 745.646,633.826 C750.208,629.92 755.187,627.967 760.583,627.967"/>
<path class="Note" d="M657.573,615.467 C660.698,615.467 663.339,616.279 665.495,617.904 C667.505,619.665 668.51,621.878 668.51,624.545 C668.51,629.035 666.203,633.233 661.589,637.139 C656.901,641.045 651.885,642.998 646.542,642.998 C643.417,642.998 640.781,642.186 638.635,640.561 C636.615,638.8 635.604,636.587 635.604,633.92 C635.604,629.431 637.948,625.233 642.635,621.326 C647.198,617.42 652.177,615.467 657.573,615.467"/>
<path class="Note" d="M614.442,615.467 C617.567,615.467 620.207,616.279 622.363,617.904 C624.374,619.665 625.379,621.878 625.379,624.545 C625.379,629.035 623.072,633.233 618.457,637.139 C613.77,641.045 608.754,642.998 603.41,642.998 C600.285,642.998 597.65,642.186 595.504,640.561 C593.483,638.8 592.473,636.587 592.473,633.92 C592.473,629.431 594.817,625.233 599.504,621.326 C604.067,617.42 609.046,615.467 614.442,615.467"/>
<path class="Note" d="M571.31,627.967 C574.435,627.967 577.076,628.779 579.232,630.404 C581.242,632.165 582.248,634.378 582.248,637.045 C582.248,641.535 579.94,645.733 575.326,649.639 C570.638,653.545 565.623,655.498 560.279,655.498 C557.154,655.498 554.519,654.686 552.373,653.061 C550.352,651.3 549.341,649.087 549.341,646.42 C549.341,641.931 551.685,637.733 556.373,633.826 C560.935,629.92 565.914,627.967 571.31,627.967"/>
<path class="Note" d="M468.3,590.467 C471.425,590.467 474.066,591.279 476.222,592.904 C478.232,594.665 479.237,596.878 479.237,599.545 C479.237,604.035 476.93,608.233 472.316,612.139 C467.628,616.045 462.612,617.998 457.269,617.998 C454.144,617.998 451.508,617.186 449.362,615.561 C447.342,613.8 446.331,611.587 446.331,608.92 C446.331,604.43 448.675,600.233 453.362,596.326 C457.925,592.42 462.904,590.467 468.3,590.467"/>
<path class="Note" d="M425.169,590.467 C428.294,590.467 430.934,591.279 433.09,592.904 C435.101,594.665 436.106,596.878 436.106,599.545 C436.106,604.035 433.799,608.233 429.184,612.139 C424.497,616.045 419.481,617.998 414.137,617.998 C411.012,617.998 408.377,617.186 406.231,615.561 C404.21,613.8 403.2,611.587 403.2,608.92 C403.2,604.43 405.544,600.233 410.231,596.326 C414.794,592.42 419.773,590.467 425.169,590.467"/>
<path class="Note" d="M382.037,627.967 C385.162,627.967 387.803,628.779 389.959,630.404 C391.969,632.165 392.975,634.378 392.975,637.045 C392.975,641.535 390.667,645.733 386.053,649.639 C381.365,653.545 376.35,655.498 371.006,655.498 C367.881,655.498 365.245,654.686 363.1,653.061 C361.079,651.3 360.068,649.087 360.068,646.42 C360.068,641.931 362.412,637.733 367.1,633.826 C371.662,629.92 376.641,627.967 382.037,627.967"/>
<path class="Clef" d="M190.951,1091.14 C190.951,1091.14 191.149,1091.14 191.545,1091.14 C191.805,1091.08 192.029,1091.05 192.217,1091.05 C199.508,1091.05 205.498,1093.62 210.185,1098.76 C214.873,1103.84 217.217,1109.76 217.217,1116.53 C217.217,1124.94 213.737,1131.77 206.779,1137.05 C204.956,1138.48 202.576,1139.65 199.639,1140.56 C199.972,1144.79 200.139,1148.21 200.139,1150.81 C200.139,1151.33 200.071,1153.22 199.935,1156.48 C199.675,1162.53 197.592,1167.77 193.685,1172.2 C189.915,1176.57 185.227,1178.75 179.623,1178.75 C174.352,1178.75 169.862,1176.89 166.154,1173.19 C162.435,1169.4 160.576,1164.85 160.576,1159.51 C160.576,1156.71 161.654,1154.33 163.81,1152.37 C166.019,1150.43 168.586,1149.45 171.514,1149.45 C174.118,1149.45 176.3,1150.46 178.06,1152.48 C179.883,1154.37 180.795,1156.71 180.795,1159.51 C180.795,1162.05 179.883,1164.22 178.06,1166.05 C176.237,1167.87 174.055,1168.78 171.514,1168.78 C170.472,1168.78 169.467,1168.59 168.498,1168.2 C171.362,1172.43 175.17,1174.55 179.92,1174.55 C184.409,1174.55 188.086,1172.72 190.951,1169.08 C193.951,1165.31 195.581,1160.91 195.842,1155.89 C195.967,1152.76 196.029,1150.98 196.029,1150.53 C196.029,1146.88 195.899,1143.89 195.639,1141.55 C192.389,1142.07 189.493,1142.33 186.951,1142.33 C177.899,1142.33 170.185,1138.74 163.81,1131.58 C157.56,1124.35 154.435,1115.75 154.435,1105.8 C154.435,1103.71 154.628,1101.6 155.014,1099.45 C155.409,1097.69 155.899,1095.77 156.482,1093.69 C156.805,1092.51 157.685,1090.62 159.123,1088.01 C159.644,1087.23 160.23,1086.26 160.881,1085.08 C161.532,1083.91 161.987,1083.13 162.248,1082.75 C162.894,1081.45 164.159,1079.69 166.045,1077.47 C166.566,1076.88 167.105,1076.24 167.662,1075.52 C168.219,1074.81 168.693,1074.22 169.084,1073.76 C169.474,1073.31 169.766,1072.95 169.959,1072.69 C170.152,1072.43 171.618,1070.7 174.357,1067.51 C175.003,1066.86 175.636,1066.16 176.256,1065.41 C176.876,1064.67 177.381,1064.08 177.771,1063.65 C178.162,1063.23 178.456,1062.92 178.654,1062.73 C176.31,1054.98 174.842,1048.8 174.248,1044.17 C173.8,1040.46 173.576,1035.38 173.576,1028.94 C173.576,1023.27 174.878,1017.96 177.482,1013.01 C180.014,1007.88 183.56,1003.68 188.123,1000.42 C188.383,1000.22 188.706,1000.12 189.092,1000.12 C189.55,1000.12 189.878,1000.22 190.076,1000.42 C193.586,1004.65 196.612,1010.15 199.154,1016.92 C201.758,1023.69 203.06,1029.85 203.06,1035.39 C203.06,1041.64 201.566,1047.5 198.576,1052.97 C195.191,1058.76 190.826,1064.75 185.482,1070.94 C186.847,1075.23 188.67,1081.96 190.951,1091.14 M199.248,1136.56 C202.633,1135.32 205.274,1133.21 207.17,1130.22 C209.253,1127.35 210.295,1124.13 210.295,1120.55 C210.295,1115.92 208.732,1111.82 205.607,1108.23 C202.409,1104.52 198.336,1102.44 193.389,1101.98 C196.191,1115.72 198.144,1127.25 199.248,1136.56 M161.467,1114 C161.467,1120.45 164.071,1126.11 169.279,1131 C174.612,1135.75 180.602,1138.12 187.248,1138.12 C189.977,1138.12 192.644,1137.93 195.248,1137.53 C194.206,1127.63 192.154,1115.78 189.092,1101.98 C185.383,1102.38 182.425,1103.68 180.217,1105.89 C178.06,1108.17 176.982,1110.74 176.982,1113.61 C176.982,1118.56 179.623,1122.56 184.904,1125.62 C185.352,1126.08 185.576,1126.57 185.576,1127.09 C185.576,1127.61 185.352,1128.1 184.904,1128.55 C184.508,1129 184.019,1129.23 183.435,1129.23 C183.373,1129.23 183.081,1129.17 182.56,1129.05 C178.842,1127.02 175.977,1124.42 173.967,1121.23 C172.071,1117.84 171.123,1114.42 171.123,1110.97 C171.123,1106.48 172.524,1102.41 175.326,1098.76 C178.253,1095.12 182.06,1092.77 186.748,1091.73 C184.925,1084.44 183.43,1078.74 182.264,1074.64 C181.222,1075.82 179.969,1077.23 178.506,1078.89 C177.042,1080.55 176.18,1081.54 175.92,1081.87 C173.576,1084.93 171.784,1087.3 170.545,1089 C168.326,1092.06 166.696,1094.7 165.654,1096.9 C164.55,1099.38 163.576,1102.09 162.732,1105.01 C161.889,1107.82 161.467,1110.81 161.467,1114 M194.076,1014.69 C189.191,1017.09 185.352,1020.54 182.56,1025.03 C179.696,1029.65 178.264,1034.63 178.264,1039.97 C178.264,1044.65 179.435,1050.97 181.779,1058.92 C186.467,1053.25 189.982,1048.01 192.326,1043.2 C194.795,1038.12 196.029,1032.81 196.029,1027.28 C196.029,1023.11 195.378,1018.92 194.076,1014.69"/>
<path class="Clef" d="M190.951,616.139 C190.951,616.139 191.149,616.139 191.545,616.139 C191.805,616.076 192.029,616.045 192.217,616.045 C199.508,616.045 205.498,618.618 210.185,623.764 C214.873,628.837 217.217,634.759 217.217,641.529 C217.217,649.936 213.737,656.774 206.779,662.045 C204.956,663.483 202.576,664.654 199.639,665.561 C199.972,669.79 200.139,673.207 200.139,675.811 C200.139,676.332 200.071,678.222 199.935,681.483 C199.675,687.535 197.592,692.774 193.685,697.201 C189.915,701.566 185.227,703.748 179.623,703.748 C174.352,703.748 169.862,701.894 166.154,698.186 C162.435,694.404 160.576,689.847 160.576,684.514 C160.576,681.712 161.654,679.332 163.81,677.373 C166.019,675.425 168.586,674.451 171.514,674.451 C174.118,674.451 176.3,675.462 178.06,677.483 C179.883,679.368 180.795,681.712 180.795,684.514 C180.795,687.045 179.883,689.222 178.06,691.045 C176.237,692.868 174.055,693.779 171.514,693.779 C170.472,693.779 169.467,693.587 168.498,693.201 C171.362,697.431 175.17,699.545 179.92,699.545 C184.409,699.545 188.086,697.722 190.951,694.076 C193.951,690.306 195.581,685.91 195.842,680.889 C195.967,677.764 196.029,675.977 196.029,675.529 C196.029,671.884 195.899,668.889 195.639,666.545 C192.389,667.066 189.493,667.326 186.951,667.326 C177.899,667.326 170.185,663.743 163.81,656.576 C157.56,649.347 154.435,640.753 154.435,630.795 C154.435,628.712 154.628,626.597 155.014,624.451 C155.409,622.691 155.899,620.769 156.482,618.686 C156.805,617.509 157.685,615.618 159.123,613.014 C159.644,612.233 160.23,611.256 160.881,610.084 C161.532,608.912 161.987,608.134 162.248,607.748 C162.894,606.446 164.159,604.686 166.045,602.467 C166.566,601.884 167.105,601.235 167.662,600.522 C168.219,599.808 168.693,599.222 169.084,598.764 C169.474,598.306 169.766,597.946 169.959,597.686 C170.152,597.425 171.618,595.701 174.357,592.514 C175.003,591.858 175.636,591.157 176.256,590.412 C176.876,589.667 177.381,589.082 177.771,588.654 C178.162,588.227 178.456,587.92 178.654,587.733 C176.31,579.983 174.842,573.795 174.248,569.17 C173.8,565.462 173.576,560.384 173.576,553.936 C173.576,548.269 174.878,542.962 177.482,538.014 C180.014,532.878 183.56,528.681 188.123,525.42 C188.383,525.222 188.706,525.123 189.092,525.123 C189.55,525.123 189.878,525.222 190.076,525.42 C193.586,529.649 196.612,535.149 199.154,541.92 C201.758,548.691 203.06,554.847 203.06,560.389 C203.06,566.639 201.566,572.498 198.576,577.967 C195.191,583.759 190.826,589.748 185.482,595.936 C186.847,600.227 188.67,606.962 190.951,616.139 M199.248,661.561 C202.633,660.321 205.274,658.207 207.17,655.217 C209.253,652.352 210.295,649.128 210.295,645.545 C210.295,640.92 208.732,636.816 205.607,633.233 C202.409,629.524 198.336,627.441 193.389,626.983 C196.191,640.722 198.144,652.248 199.248,661.561 M161.467,638.998 C161.467,645.446 164.071,651.113 169.279,655.998 C174.612,660.748 180.602,663.123 187.248,663.123 C189.977,663.123 192.644,662.925 195.248,662.529 C194.206,652.634 192.154,640.785 189.092,626.983 C185.383,627.378 182.425,628.681 180.217,630.889 C178.06,633.17 176.982,635.743 176.982,638.608 C176.982,643.556 179.623,647.561 184.904,650.623 C185.352,651.082 185.576,651.571 185.576,652.092 C185.576,652.613 185.352,653.097 184.904,653.545 C184.508,654.003 184.019,654.233 183.435,654.233 C183.373,654.233 183.081,654.17 182.56,654.045 C178.842,652.024 175.977,649.42 173.967,646.233 C172.071,642.837 171.123,639.415 171.123,635.967 C171.123,631.477 172.524,627.41 175.326,623.764 C178.253,620.118 182.06,617.774 186.748,616.733 C184.925,609.441 183.43,603.743 182.264,599.639 C181.222,600.816 179.969,602.233 178.506,603.889 C177.042,605.545 176.18,606.54 175.92,606.873 C173.576,609.925 171.784,612.3 170.545,613.998 C168.326,617.061 166.696,619.696 165.654,621.904 C164.55,624.384 163.576,627.087 162.732,630.014 C161.889,632.816 161.467,635.811 161.467,638.998 M194.076,539.686 C189.191,542.092 185.352,545.54 182.56,550.029 C179.696,554.654 178.264,559.634 178.264,564.967 C178.264,569.654 179.435,575.972 181.779,583.92 C186.467,578.253 189.982,573.014 192.326,568.201 C194.795,563.118 196.029,557.811 196.029,552.279 C196.029,548.113 195.378,543.915 194.076,539.686"/>
<path class="TimeSig" d="M267.154,616.733 C265.196,616.733 263.435,616.376 261.873,615.662 C260.31,614.949 259.206,614.201 258.56,613.42 C257.706,612.441 256.857,611.691 256.014,611.17 C254.972,610.451 253.899,610.092 252.795,610.092 C251.097,610.092 249.696,610.613 248.592,611.654 C247.425,612.634 246.774,613.967 246.639,615.654 C246.514,616.373 246.123,616.733 245.467,616.733 C244.685,616.733 244.295,616.373 244.295,615.654 C244.295,613.123 244.883,610.847 246.06,608.826 C247.227,606.743 248.659,605.019 250.357,603.654 C251.784,602.415 253.67,600.915 256.014,599.154 C256.409,598.832 257.24,598.149 258.506,597.108 C259.771,596.066 260.831,595.186 261.685,594.467 C263.373,593.04 264.837,591.149 266.076,588.795 C267.243,586.451 267.826,583.915 267.826,581.186 C267.826,577.863 267.274,574.998 266.17,572.592 C265.003,570.248 263.212,569.076 260.795,569.076 C259.305,569.076 258.102,569.399 257.185,570.045 C256.206,570.701 255.717,571.582 255.717,572.686 C255.717,573.602 256.303,574.743 257.475,576.108 C258.646,577.472 259.232,578.613 259.232,579.529 C259.232,581.477 258.55,583.134 257.185,584.498 C255.883,585.8 254.29,586.451 252.404,586.451 C250.446,586.451 248.784,585.769 247.42,584.404 C246.118,582.977 245.467,581.352 245.467,579.529 C245.467,575.811 246.964,572.748 249.959,570.342 C252.954,567.936 256.566,566.733 260.795,566.733 C265.816,566.733 270.18,568.097 273.889,570.826 C277.597,573.43 279.451,576.884 279.451,581.186 C279.451,584.113 278.93,586.618 277.889,588.701 C276.909,590.92 275.446,592.649 273.498,593.889 C271.279,595.316 269.357,596.42 267.732,597.201 C265.451,598.243 263.175,599.222 260.904,600.139 C258.165,601.243 256.045,602.285 254.545,603.264 C255.399,603.066 256.279,602.967 257.185,602.967 C260.185,602.967 263.31,603.941 266.56,605.889 C269.883,607.847 272.456,608.826 274.279,608.826 C275.383,608.826 276.264,608.628 276.92,608.233 C277.566,607.847 277.988,607.425 278.185,606.967 C278.446,606.321 278.675,605.868 278.873,605.608 C279.133,605.212 279.456,605.014 279.842,605.014 C280.623,605.014 281.014,605.404 281.014,606.186 C281.014,608.009 279.712,610.222 277.107,612.826 C274.566,615.43 271.248,616.733 267.154,616.733"/>
<path class="TimeSig" d="M264.967,618.084 C266.915,618.084 268.573,617.858 269.943,617.404 C271.313,616.951 272.191,616.725 272.576,616.725 C273.034,616.725 273.394,616.855 273.654,617.115 C273.852,617.303 273.982,617.527 274.045,617.787 C274.045,617.923 273.977,618.121 273.842,618.381 L245.435,651.397 L262.123,651.397 L262.123,638.303 C262.123,637.459 262.352,636.74 262.81,636.147 C263.592,635.501 264.243,635.11 264.764,634.975 C265.607,634.589 266.649,633.678 267.889,632.24 C268.93,631.074 270.17,629.027 271.607,626.1 C271.795,625.704 272.087,625.506 272.482,625.506 C273.264,625.506 273.717,625.964 273.842,626.881 L273.842,651.397 L280.982,651.397 C281.889,651.397 282.409,651.881 282.545,652.85 C282.545,653.829 282.024,654.319 280.982,654.319 L273.842,654.319 L273.842,655.1 C273.842,657.704 274.493,659.917 275.795,661.74 C277.295,663.563 279.055,664.475 281.076,664.475 C281.857,664.475 282.248,664.865 282.248,665.647 C282.248,666.428 281.857,666.819 281.076,666.819 C279.712,666.819 277.498,666.626 274.435,666.24 C271.633,665.782 269.451,665.553 267.889,665.553 C266.264,665.553 264.081,665.782 261.342,666.24 C258.415,666.626 256.238,666.819 254.81,666.819 C254.029,666.819 253.639,666.428 253.639,665.647 C253.639,664.865 254.029,664.475 254.81,664.475 C256.821,664.475 258.576,663.563 260.076,661.74 C261.441,659.855 262.123,657.641 262.123,655.1 L262.123,654.319 L245.435,654.319 C244.321,654.319 243.54,654.058 243.092,653.537 C242.56,653.152 242.295,652.631 242.295,651.975 C242.295,651.777 242.784,651.095 243.764,649.928 C244.878,648.626 246.05,647.032 247.279,645.147 C248.717,642.928 250.087,640.647 251.389,638.303 C252.816,635.636 253.956,632.574 254.81,629.115 C255.779,625.605 256.264,622.027 256.264,618.381 C256.264,617.339 256.722,616.819 257.639,616.819 C257.837,616.819 258.258,616.917 258.904,617.115 C259.102,617.178 259.511,617.274 260.131,617.404 C260.751,617.535 261.253,617.662 261.639,617.787 C262.816,617.985 263.925,618.084 264.967,618.084"/>
<path class="Rest" d="M2760.59,1082.36 L2725.04,1082.36 C2724.39,1082.36 2724.06,1082.03 2724.06,1081.39 L2724.06,1067.72 C2724.06,1067.06 2724.39,1066.73 2725.04,1066.73 L2760.59,1066.73 C2761.24,1066.73 2761.56,1067.06 2761.56,1067.72 L2761.56,1081.39 C2761.56,1082.03 2761.24,1082.36 2760.59,1082.36"/>
<path class="Rest" d="M2601.03,1082.36 L2565.48,1082.36 C2564.82,1082.36 2564.49,1082.03 2564.49,1081.39 L2564.49,1067.72 C2564.49,1067.06 2564.82,1066.73 2565.48,1066.73 L2601.03,1066.73 C2601.67,1066.73 2601.99,1067.06 2601.99,1067.72 L2601.99,1081.39 C2601.99,1082.03 2601.67,1082.36 2601.03,1082.36"/>
<path class="Rest" d="M2439.71,1082.36 L2404.16,1082.36 C2403.51,1082.36 2403.18,1082.03 2403.18,1081.39 L2403.18,1067.72 C2403.18,1067.06 2403.51,1066.73 2404.16,1066.73 L2439.71,1066.73 C2440.36,1066.73 2440.68,1067.06 2440.68,1067.72 L2440.68,1081.39 C2440.68,1082.03 2440.36,1082.36 2439.71,1082.36"/>
<path class="Rest" d="M2278.39,1082.36 L2242.85,1082.36 C2242.19,1082.36 2241.86,1082.03 2241.86,1081.39 L2241.86,1067.72 C2241.86,1067.06 2242.19,1066.73 2242.85,1066.73 L2278.39,1066.73 C2279.04,1066.73 2279.36,1067.06 2279.36,1067.72 L2279.36,1081.39 C2279.36,1082.03 2279.04,1082.36 2278.39,1082.36"/>
<path class="Rest" d="M2117.08,1082.36 L2081.53,1082.36 C2080.88,1082.36 2080.55,1082.03 2080.55,1081.39 L2080.55,1067.72 C2080.55,1067.06 2080.88,1066.73 2081.53,1066.73 L2117.08,1066.73 C2117.73,1066.73 2118.05,1067.06 2118.05,1067.72 L2118.05,1081.39 C2118.05,1082.03 2117.73,1082.36 2117.08,1082.36"/>
<path class="Rest" d="M1955.76,1082.36 L1920.22,1082.36 C1919.56,1082.36 1919.23,1082.03 1919.23,1081.39 L1919.23,1067.72 C1919.23,1067.06 1919.56,1066.73 1920.22,1066.73 L1955.76,1066.73 C1956.41,1066.73 1956.73,1067.06 1956.73,1067.72 L1956.73,1081.39 C1956.73,1082.03 1956.41,1082.36 1955.76,1082.36"/>
<path class="Rest" d="M1794.45,1082.36 L1758.9,1082.36 C1758.25,1082.36 1757.92,1082.03 1757.92,1081.39 L1757.92,1067.72 C1757.92,1067.06 1758.25,1066.73 1758.9,1066.73 L1794.45,1066.73 C1795.09,1066.73 1795.42,1067.06 1795.42,1067.72 L1795.42,1081.39 C1795.42,1082.03 1795.09,1082.36 1794.45,1082.36"/>
<path class="Rest" d="M1633.13,1082.36 L1597.59,1082.36 C1596.93,1082.36 1596.6,1082.03 1596.6,1081.39 L1596.6,1067.72 C1596.6,1067.06 1596.93,1066.73 1597.59,1066.73 L1633.13,1066.73 C1633.78,1066.73 1634.1,1067.06 1634.1,1067.72 L1634.1,1081.39 C1634.1,1082.03 1633.78,1082.36 1633.13,1082.36"/>
<path class="Rest" d="M1471.82,1082.36 L1436.27,1082.36 C1435.61,1082.36 1435.29,1082.03 1435.29,1081.39 L1435.29,1067.72 C1435.29,1067.06 1435.61,1066.73 1436.27,1066.73 L1471.82,1066.73 C1472.46,1066.73 1472.79,1067.06 1472.79,1067.72 L1472.79,1081.39 C1472.79,1082.03 1472.46,1082.36 1471.82,1082.36"/>
<path class="Rest" d="M1310.5,1082.36 L1274.95,1082.36 C1274.3,1082.36 1273.97,1082.03 1273.97,1081.39 L1273.97,1067.72 C1273.97,1067.06 1274.3,1066.73 1274.95,1066.73 L1310.5,1066.73 C1311.15,1066.73 1311.47,1067.06 1311.47,1067.72 L1311.47,1081.39 C1311.47,1082.03 1311.15,1082.36 1310.5,1082.36"/>
<path class="Rest" d="M1149.19,1082.36 L1113.64,1082.36 C1112.98,1082.36 1112.66,1082.03 1112.66,1081.39 L1112.66,1067.72 C1112.66,1067.06 1112.98,1066.73 1113.64,1066.73 L1149.19,1066.73 C1149.83,1066.73 1150.16,1067.06 1150.16,1067.72 L1150.16,1081.39 C1150.16,1082.03 1149.83,1082.36 1149.19,1082.36"/>
<path class="Rest" d="M987.871,1082.36 L952.324,1082.36 C951.668,1082.36 951.34,1082.03 951.34,1081.39 L951.34,1067.72 C951.34,1067.06 951.668,1066.73 952.324,1066.73 L987.871,1066.73 C988.517,1066.73 988.84,1067.06 988.84,1067.72 L988.84,1081.39 C988.84,1082.03 988.517,1082.36 987.871,1082.36"/>
<path class="Rest" d="M826.555,1082.36 L791.008,1082.36 C790.352,1082.36 790.024,1082.03 790.024,1081.39 L790.024,1067.72 C790.024,1067.06 790.352,1066.73 791.008,1066.73 L826.555,1066.73 C827.201,1066.73 827.524,1067.06 827.524,1067.72 L827.524,1081.39 C827.524,1082.03 827.201,1082.36 826.555,1082.36"/>
<path class="Rest" d="M665.24,1082.36 L629.693,1082.36 C629.037,1082.36 628.709,1082.03 628.709,1081.39 L628.709,1067.72 C628.709,1067.06 629.037,1066.73 629.693,1066.73 L665.24,1066.73 C665.886,1066.73 666.209,1067.06 666.209,1067.72 L666.209,1081.39 C666.209,1082.03 665.886,1082.36 665.24,1082.36"/>
<path class="Rest" d="M503.924,1082.36 L468.377,1082.36 C467.721,1082.36 467.393,1082.03 467.393,1081.39 L467.393,1067.72 C467.393,1067.06 467.721,1066.73 468.377,1066.73 L503.924,1066.73 C504.57,1066.73 504.893,1067.06 504.893,1067.72 L504.893,1081.39 C504.893,1082.03 504.57,1082.36 503.924,1082.36"/>
<path class="Rest" d="M328.109,1082.36 L292.562,1082.36 C291.906,1082.36 291.578,1082.03 291.578,1081.39 L291.578,1067.72 C291.578,1067.06 291.906,1066.73 292.562,1066.73 L328.109,1066.73 C328.755,1066.73 329.078,1067.06 329.078,1067.72 L329.078,1081.39 C329.078,1082.03 328.755,1082.36 328.109,1082.36"/>
<path class="Rest" d="M2798.33,607.358 L2762.78,607.358 C2762.12,607.358 2761.8,607.035 2761.8,606.389 L2761.8,592.717 C2761.8,592.061 2762.12,591.733 2762.78,591.733 L2798.33,591.733 C2798.97,591.733 2799.3,592.061 2799.3,592.717 L2799.3,606.389 C2799.3,607.035 2798.97,607.358 2798.33,607.358"/>
<path class="Rest" d="M2692.48,607.358 L2656.94,607.358 C2656.28,607.358 2655.95,607.035 2655.95,606.389 L2655.95,592.717 C2655.95,592.061 2656.28,591.733 2656.94,591.733 L2692.48,591.733 C2693.13,591.733 2693.45,592.061 2693.45,592.717 L2693.45,606.389 C2693.45,607.035 2693.13,607.358 2692.48,607.358"/>
<path class="Rest" d="M2586.64,607.358 L2551.09,607.358 C2550.44,607.358 2550.11,607.035 2550.11,606.389 L2550.11,592.717 C2550.11,592.061 2550.44,591.733 2551.09,591.733 L2586.64,591.733 C2587.29,591.733 2587.61,592.061 2587.61,592.717 L2587.61,606.389 C2587.61,607.035 2587.29,607.358 2586.64,607.358"/>
<path class="Rest" d="M2480.8,607.358 L2445.25,607.358 C2444.59,607.358 2444.26,607.035 2444.26,606.389 L2444.26,592.717 C2444.26,592.061 2444.59,591.733 2445.25,591.733 L2480.8,591.733 C2481.44,591.733 2481.76,592.061 2481.76,592.717 L2481.76,606.389 C2481.76,607.035 2481.44,607.358 2480.8,607.358"/>
<path class="Rest" d="M2374.95,607.358 L2339.4,607.358 C2338.75,607.358 2338.42,607.035 2338.42,606.389 L2338.42,592.717 C2338.42,592.061 2338.75,591.733 2339.4,591.733 L2374.95,591.733 C2375.6,591.733 2375.92,592.061 2375.92,592.717 L2375.92,606.389 C2375.92,607.035 2375.6,607.358 2374.95,607.358"/>
<path class="Rest" d="M2269.11,607.358 L2233.56,607.358 C2232.9,607.358 2232.58,607.035 2232.58,606.389 L2232.58,592.717 C2232.58,592.061 2232.9,591.733 2233.56,591.733 L2269.11,591.733 C2269.75,591.733 2270.08,592.061 2270.08,592.717 L2270.08,606.389 C2270.08,607.035 2269.75,607.358 2269.11,607.358"/>
<path class="Rest" d="M2163.26,607.358 L2127.72,607.358 C2127.06,607.358 2126.73,607.035 2126.73,606.389 L2126.73,592.717 C2126.73,592.061 2127.06,591.733 2127.72,591.733 L2163.26,591.733 C2163.91,591.733 2164.23,592.061 2164.23,592.717 L2164.23,606.389 C2164.23,607.035 2163.91,607.358 2163.26,607.358"/>
<path class="Rest" d="M2057.42,607.358 L2021.87,607.358 C2021.22,607.358 2020.89,607.035 2020.89,606.389 L2020.89,592.717 C2020.89,592.061 2021.22,591.733 2021.87,591.733 L2057.42,591.733 C2058.07,591.733 2058.39,592.061 2058.39,592.717 L2058.39,606.389 C2058.39,607.035 2058.07,607.358 2057.42,607.358"/>
<path class="Beam" fill-rule="evenodd" d="M1768.27,591.983 L1819.28,591.983 L1819.28,603.983 L1768.27,603.983 L1768.27,591.983 "/>
<path class="Beam" fill-rule="evenodd" d="M1672.76,585.733 L1723.76,585.733 L1723.76,597.733 L1672.76,597.733 L1672.76,585.733 "/>
<path class="Beam" fill-rule="evenodd" d="M1533.08,560.256 L1584.09,566.931 L1584.09,579.034 L1533.08,572.358 L1533.08,560.256 "/>
<path class="Beam" fill-rule="evenodd" d="M1437.56,585.256 L1488.57,591.931 L1488.57,604.034 L1437.56,597.358 L1437.56,585.256 "/>
<path class="Beam" fill-rule="evenodd" d="M1297.89,560.256 L1348.9,566.931 L1348.9,579.034 L1297.89,572.358 L1297.89,560.256 "/>
<path class="Beam" fill-rule="evenodd" d="M1202.37,561.107 L1253.38,554.431 L1253.38,566.534 L1202.37,573.209 L1202.37,561.107 "/>
<path class="Beam" fill-rule="evenodd" d="M1003.47,585.203 L1050.18,591.921 L1050.18,604.044 L1003.47,597.327 L1003.47,585.203 "/>
<path class="Beam" fill-rule="evenodd" d="M863.797,560.256 L914.806,566.931 L914.806,579.034 L863.797,572.358 L863.797,560.256 "/>
<path class="Beam" fill-rule="evenodd" d="M768.279,561.107 L819.288,554.431 L819.288,566.534 L768.279,573.209 L768.279,561.107 "/>
<path class="Beam" fill-rule="evenodd" d="M579.006,561.141 L625.387,554.42 L625.387,566.545 L579.006,573.266 L579.006,561.141 "/>
<path class="Beam" fill-rule="evenodd" d="M389.732,555.431 L436.114,528.547 L436.114,542.418 L389.732,569.301 L389.732,555.431 "/>
</svg>
