<?xml version="1.0" encoding="UTF-8" standalone="no"?>
<svg width="2974.68px" height="4209.45px" viewBox="0 0 2974.68 4209.45"
 xmlns="http://www.w3.org/2000/svg" xmlns:xlink="http://www.w3.org/1999/xlink" version="1.2" baseProfile="tiny">
<title>Promoroaca_ (1)</title>
<desc>Generated by MuseScore 3.0.2</desc>
<polyline class="StaffLines" fill="none" stroke="#000000" stroke-width="1.81" stroke-linejoin="bevel" points="212.599,598.11 2762.08,598.11"/>
<polyline class="StaffLines" fill="none" stroke="#000000" stroke-width="1.81" stroke-linejoin="bevel" points="212.599,620.787 2762.08,620.787"/>
<polyline class="StaffLines" fill="none" stroke="#000000" stroke-width="1.81" stroke-linejoin="bevel" points="212.599,643.465 2762.08,643.465"/>
<polyline class="StaffLines" fill="none" stroke="#000000" stroke-width="1.81" stroke-linejoin="bevel" points="212.599,666.142 2762.08,666.142"/>
<polyline class="StaffLines" fill="none" stroke="#000000" stroke-width="1.81" stroke-linejoin="bevel" points="212.599,688.819 2762.08,688.819"/>
<polyline class="StaffLines" fill="none" stroke="#000000" stroke-width="1.81" stroke-linejoin="bevel" points="212.599,1028.98 2762.08,1028.98"/>
<polyline class="StaffLines" fill="none" stroke="#000000" stroke-width="1.81" stroke-linejoin="bevel" points="212.599,1051.65 2762.08,1051.65"/>
<polyline class="StaffLines" fill="none" stroke="#000000" stroke-width="1.81" stroke-linejoin="bevel" points="212.599,1074.33 2762.08,1074.33"/>
<polyline class="StaffLines" fill="none" stroke="#000000" stroke-width="1.81" stroke-linejoin="bevel" points="212.599,1097.01 2762.08,1097.01"/>
<polyline class="StaffLines" fill="none" stroke="#000000" stroke-width="1.81" stroke-linejoin="bevel" points="212.599,1119.69 2762.08,1119.69"/>
<path class="Text" d="M1111.54,295.391 C1111.54,298.807 1111.13,302.096 1110.33,305.258 C1109.53,308.419 1107.96,311.776 1105.63,315.328 C1103.3,318.88 1100.2,321.94 1096.33,324.508 C1092.47,327.075 1087.2,329.213 1080.54,330.922 C1073.87,332.63 1066.13,333.484 1057.33,333.484 C1053.33,333.484 1048.73,333.286 1043.54,332.891 L1043.54,369.547 C1043.54,376.932 1044.7,381.734 1047.04,383.953 C1049.37,386.172 1054.47,387.417 1062.33,387.687 L1062.33,391.484 L1006.33,391.484 L1006.33,387.687 C1013.94,387.021 1018.64,385.586 1020.43,383.383 C1022.23,381.18 1023.13,375.88 1023.13,367.484 L1023.13,280.891 C1023.13,273.693 1022.2,269.094 1020.33,267.094 C1018.47,265.094 1013.8,263.693 1006.33,262.891 L1006.33,259.094 L1059.13,259.094 C1065.13,259.094 1070.93,259.661 1076.53,260.797 C1082.13,261.932 1087.69,263.771 1093.23,266.312 C1098.77,268.854 1103.2,272.599 1106.54,277.547 C1109.87,282.495 1111.54,288.443 1111.54,295.391 M1043.54,273.469 L1043.54,325.281 C1048.2,325.687 1052,325.891 1054.93,325.891 C1078.13,325.891 1089.74,316.12 1089.74,296.578 C1089.74,286.349 1086.54,278.81 1080.14,273.961 C1073.74,269.112 1063.8,266.687 1050.33,266.687 C1047.67,266.687 1045.87,267.154 1044.93,268.086 C1044,269.018 1043.54,270.812 1043.54,273.469 M1178.54,319.078 C1176.54,319.078 1174.07,317.911 1171.14,315.578 C1168.21,313.245 1166.27,312.078 1165.33,312.078 C1162.67,312.078 1159.67,314.013 1156.33,317.883 C1153,321.753 1151.33,325.286 1151.33,328.484 L1151.33,373.484 C1151.33,379.213 1152.47,383.078 1154.73,385.078 C1157,387.078 1161.53,388.213 1168.33,388.484 L1168.33,391.484 L1120.33,391.484 L1120.33,388.484 C1126.73,387.286 1130.69,385.953 1132.23,384.484 C1133.77,383.016 1134.54,379.75 1134.54,374.687 L1134.54,324.687 C1134.54,320.281 1134.04,317.18 1133.04,315.383 C1132.04,313.586 1130.27,312.687 1127.74,312.687 C1125.6,312.687 1123.27,312.953 1120.74,313.484 L1120.74,310.281 C1131.41,306.812 1141.27,303.213 1150.33,299.484 L1151.33,299.891 L1151.33,318.281 C1156.27,311.219 1160.47,306.32 1163.93,303.586 C1167.4,300.852 1171.2,299.484 1175.33,299.484 C1178.8,299.484 1181.5,300.417 1183.43,302.281 C1185.37,304.146 1186.33,306.745 1186.33,310.078 C1186.33,312.88 1185.63,315.081 1184.23,316.68 C1182.83,318.279 1180.93,319.078 1178.54,319.078 M1236.54,299.484 C1249.34,299.484 1259.87,303.753 1268.14,312.289 C1276.4,320.825 1280.54,331.63 1280.54,344.703 C1280.54,358.568 1276.27,370.164 1267.73,379.492 C1259.19,388.82 1248.66,393.484 1236.13,393.484 C1223.6,393.484 1213.17,388.984 1204.83,379.984 C1196.5,370.984 1192.33,359.75 1192.33,346.281 C1192.33,332.552 1196.43,321.32 1204.63,312.586 C1212.83,303.852 1223.46,299.484 1236.54,299.484 M1210.33,336.578 C1210.33,350.713 1212.93,362.732 1218.13,372.633 C1223.33,382.534 1230.13,387.484 1238.54,387.484 C1246,387.484 1251.87,384.315 1256.14,377.977 C1260.4,371.638 1262.54,362.859 1262.54,351.641 C1262.54,338.036 1259.87,326.943 1254.54,318.359 C1249.2,309.776 1242.33,305.484 1233.93,305.484 C1226.86,305.484 1221.17,308.323 1216.83,314 C1212.5,319.677 1210.33,327.203 1210.33,336.578 M1287.93,312.281 L1287.93,308.891 C1297.53,306.099 1306.86,302.963 1315.93,299.484 L1317.33,299.891 L1317.33,315.266 C1325.6,308.849 1331.74,304.615 1335.74,302.562 C1339.74,300.51 1343.94,299.484 1348.33,299.484 C1358.86,299.484 1365.93,305.208 1369.54,316.656 C1379.93,305.208 1390.8,299.484 1402.13,299.484 C1417.6,299.484 1425.33,311.443 1425.33,335.359 L1425.33,376.344 C1425.33,383.771 1428.2,387.687 1433.93,388.094 L1439.13,388.484 L1439.13,391.484 L1395.33,391.484 L1395.33,388.484 C1401.2,387.818 1404.86,386.69 1406.33,385.102 C1407.8,383.513 1408.54,379.865 1408.54,374.156 L1408.54,332.172 C1408.54,323.943 1407.47,318.237 1405.33,315.055 C1403.2,311.872 1399.27,310.281 1393.54,310.281 C1384.73,310.281 1377.47,314.333 1371.74,322.437 L1371.74,372.562 C1371.74,378.802 1372.71,382.982 1374.64,385.102 C1376.57,387.221 1380.4,388.349 1386.13,388.484 L1386.13,391.484 L1341.33,391.484 L1341.33,388.484 C1347.06,388.088 1350.76,387.029 1352.43,385.305 C1354.09,383.581 1354.93,379.932 1354.93,374.359 L1354.93,331.172 C1354.93,317.245 1350.53,310.281 1341.74,310.281 C1338,310.281 1333.83,311.211 1329.23,313.07 C1324.63,314.93 1320.93,317.917 1318.13,322.031 L1318.13,378.141 C1318.13,381.984 1319.06,384.604 1320.93,386 C1322.8,387.396 1326.41,388.224 1331.74,388.484 L1331.74,391.484 L1287.33,391.484 L1287.33,388.484 C1292.94,388.349 1296.67,387.354 1298.54,385.5 C1300.4,383.646 1301.33,380 1301.33,374.562 L1301.33,324.219 C1301.33,319.448 1300.83,316.133 1299.83,314.273 C1298.83,312.414 1297,311.484 1294.33,311.484 C1292.33,311.484 1290.2,311.75 1287.93,312.281 M1490.54,299.484 C1503.34,299.484 1513.87,303.753 1522.14,312.289 C1530.4,320.825 1534.54,331.63 1534.54,344.703 C1534.54,358.568 1530.27,370.164 1521.73,379.492 C1513.19,388.82 1502.66,393.484 1490.13,393.484 C1477.6,393.484 1467.17,388.984 1458.83,379.984 C1450.5,370.984 1446.33,359.75 1446.33,346.281 C1446.33,332.552 1450.43,321.32 1458.63,312.586 C1466.83,303.852 1477.46,299.484 1490.54,299.484 M1464.33,336.578 C1464.33,350.713 1466.93,362.732 1472.13,372.633 C1477.33,382.534 1484.13,387.484 1492.54,387.484 C1500,387.484 1505.87,384.315 1510.14,377.977 C1514.4,371.638 1516.54,362.859 1516.54,351.641 C1516.54,338.036 1513.87,326.943 1508.54,318.359 C1503.2,309.776 1496.33,305.484 1487.93,305.484 C1480.86,305.484 1475.17,308.323 1470.83,314 C1466.5,319.677 1464.33,327.203 1464.33,336.578 M1599.54,319.078 C1597.54,319.078 1595.07,317.911 1592.14,315.578 C1589.21,313.245 1587.27,312.078 1586.33,312.078 C1583.67,312.078 1580.67,314.013 1577.33,317.883 C1574,321.753 1572.33,325.286 1572.33,328.484 L1572.33,373.484 C1572.33,379.213 1573.47,383.078 1575.73,385.078 C1578,387.078 1582.53,388.213 1589.33,388.484 L1589.33,391.484 L1541.33,391.484 L1541.33,388.484 C1547.73,387.286 1551.69,385.953 1553.23,384.484 C1554.77,383.016 1555.54,379.75 1555.54,374.687 L1555.54,324.687 C1555.54,320.281 1555.04,317.18 1554.04,315.383 C1553.04,313.586 1551.27,312.687 1548.74,312.687 C1546.6,312.687 1544.27,312.953 1541.74,313.484 L1541.74,310.281 C1552.41,306.812 1562.27,303.213 1571.33,299.484 L1572.33,299.891 L1572.33,318.281 C1577.27,311.219 1581.47,306.32 1584.93,303.586 C1588.4,300.852 1592.2,299.484 1596.33,299.484 C1599.8,299.484 1602.5,300.417 1604.43,302.281 C1606.37,304.146 1607.33,306.745 1607.33,310.078 C1607.33,312.88 1606.63,315.081 1605.23,316.68 C1603.83,318.279 1601.93,319.078 1599.54,319.078 M1657.54,299.484 C1670.34,299.484 1680.87,303.753 1689.14,312.289 C1697.4,320.825 1701.54,331.63 1701.54,344.703 C1701.54,358.568 1697.27,370.164 1688.73,379.492 C1680.19,388.82 1669.66,393.484 1657.13,393.484 C1644.6,393.484 1634.17,388.984 1625.83,379.984 C1617.5,370.984 1613.33,359.75 1613.33,346.281 C1613.33,332.552 1617.43,321.32 1625.63,312.586 C1633.83,303.852 1644.46,299.484 1657.54,299.484 M1631.33,336.578 C1631.33,350.713 1633.93,362.732 1639.13,372.633 C1644.33,382.534 1651.13,387.484 1659.54,387.484 C1667,387.484 1672.87,384.315 1677.14,377.977 C1681.4,371.638 1683.54,362.859 1683.54,351.641 C1683.54,338.036 1680.87,326.943 1675.54,318.359 C1670.2,309.776 1663.33,305.484 1654.93,305.484 C1647.86,305.484 1642.17,308.323 1637.83,314 C1633.5,319.677 1631.33,327.203 1631.33,336.578 M1711.33,371.734 C1711.33,369.349 1711.6,367.128 1712.13,365.07 C1712.66,363.013 1713.59,361.088 1714.93,359.297 C1716.26,357.505 1717.53,355.88 1718.73,354.422 C1719.93,352.963 1721.74,351.471 1724.14,349.945 C1726.54,348.419 1728.54,347.159 1730.14,346.164 C1731.74,345.169 1734.17,343.977 1737.43,342.586 C1740.7,341.195 1743.2,340.135 1744.93,339.406 C1746.67,338.677 1749.4,337.583 1753.14,336.125 C1756.87,334.667 1759.6,333.604 1761.33,332.937 L1761.33,320.797 C1761.33,309.786 1756.27,304.281 1746.13,304.281 C1742.13,304.281 1738.73,305.247 1735.93,307.18 C1733.14,309.112 1731.74,311.411 1731.74,314.078 C1731.74,315.151 1731.91,316.62 1732.24,318.484 C1732.57,320.349 1732.74,321.547 1732.74,322.078 C1732.74,324.349 1731.84,326.318 1730.04,327.984 C1728.23,329.651 1726.13,330.484 1723.74,330.484 C1721.47,330.484 1719.47,329.617 1717.73,327.883 C1716,326.148 1715.13,324.151 1715.13,321.891 C1715.13,315.62 1718.36,310.318 1724.83,305.984 C1731.3,301.651 1739.27,299.484 1748.74,299.484 C1759.67,299.484 1767.2,302.107 1771.33,307.352 C1775.47,312.596 1777.54,320.594 1777.54,331.344 L1777.54,370.141 C1777.54,374.516 1777.97,377.534 1778.83,379.195 C1779.7,380.857 1781.27,381.687 1783.54,381.687 C1786.34,381.687 1789.27,380.427 1792.33,377.906 L1792.33,383.141 C1788.86,387.141 1785.83,389.865 1783.23,391.312 C1780.63,392.76 1777.67,393.484 1774.33,393.484 C1770.2,393.484 1767.16,392.32 1765.23,389.992 C1763.3,387.664 1762.07,383.833 1761.54,378.5 C1750.07,388.49 1740.33,393.484 1732.33,393.484 C1726.2,393.484 1721.16,391.45 1717.23,387.383 C1713.3,383.315 1711.33,378.099 1711.33,371.734 M1761.33,366.562 L1761.33,337.719 C1749.33,342.094 1740.93,346.336 1736.13,350.445 C1731.33,354.555 1728.93,359.531 1728.93,365.375 C1728.93,370.812 1730.26,374.857 1732.93,377.508 C1735.59,380.159 1738.46,381.484 1741.54,381.484 C1746.07,381.484 1750.93,379.958 1756.13,376.906 C1758.27,375.719 1759.67,374.461 1760.33,373.133 C1761,371.805 1761.33,369.615 1761.33,366.562 M1798.33,348.844 C1798.33,334.052 1802.7,322.128 1811.43,313.07 C1820.17,304.013 1830.4,299.484 1842.13,299.484 C1850.54,299.484 1857.77,301.518 1863.83,305.586 C1869.9,309.654 1872.93,314.484 1872.93,320.078 C1872.93,322.349 1871.99,324.318 1870.13,325.984 C1868.27,327.651 1866,328.484 1863.33,328.484 C1858.8,328.484 1855.67,325.443 1853.93,319.359 L1852.74,315 C1851.67,311.302 1850.33,308.792 1848.73,307.469 C1847.13,306.146 1844.53,305.484 1840.93,305.484 C1832.8,305.484 1826.24,308.7 1821.24,315.133 C1816.24,321.565 1813.74,329.885 1813.74,340.094 C1813.74,351.5 1816.64,360.818 1822.43,368.047 C1828.23,375.276 1835.67,378.891 1844.74,378.891 C1850.47,378.891 1855.4,377.497 1859.54,374.711 C1863.67,371.924 1868.13,367.083 1872.93,360.187 L1875.74,361.969 C1874.41,364.646 1873.24,366.854 1872.24,368.594 C1871.24,370.333 1869.44,372.943 1866.83,376.422 C1864.23,379.901 1861.66,382.711 1859.13,384.852 C1856.6,386.992 1853.27,388.966 1849.13,390.773 C1844.99,392.581 1840.73,393.484 1836.33,393.484 C1825.27,393.484 1816.17,389.315 1809.04,380.977 C1801.9,372.638 1798.33,361.927 1798.33,348.844 M1887.33,371.734 C1887.33,369.349 1887.6,367.128 1888.13,365.07 C1888.66,363.013 1889.59,361.088 1890.93,359.297 C1892.26,357.505 1893.53,355.88 1894.73,354.422 C1895.93,352.963 1897.74,351.471 1900.14,349.945 C1902.54,348.419 1904.54,347.159 1906.14,346.164 C1907.74,345.169 1910.17,343.977 1913.43,342.586 C1916.7,341.195 1919.2,340.135 1920.93,339.406 C1922.67,338.677 1925.4,337.583 1929.14,336.125 C1932.87,334.667 1935.6,333.604 1937.33,332.937 L1937.33,320.797 C1937.33,309.786 1932.27,304.281 1922.13,304.281 C1918.13,304.281 1914.73,305.247 1911.93,307.18 C1909.14,309.112 1907.74,311.411 1907.74,314.078 C1907.74,315.151 1907.91,316.62 1908.24,318.484 C1908.57,320.349 1908.74,321.547 1908.74,322.078 C1908.74,324.349 1907.84,326.318 1906.04,327.984 C1904.23,329.651 1902.13,330.484 1899.74,330.484 C1897.47,330.484 1895.47,329.617 1893.73,327.883 C1892,326.148 1891.13,324.151 1891.13,321.891 C1891.13,315.62 1894.36,310.318 1900.83,305.984 C1907.3,301.651 1915.27,299.484 1924.74,299.484 C1935.67,299.484 1943.2,302.107 1947.33,307.352 C1951.47,312.596 1953.54,320.594 1953.54,331.344 L1953.54,370.141 C1953.54,374.516 1953.97,377.534 1954.83,379.195 C1955.7,380.857 1957.27,381.687 1959.54,381.687 C1962.34,381.687 1965.27,380.427 1968.33,377.906 L1968.33,383.141 C1964.86,387.141 1961.83,389.865 1959.23,391.312 C1956.63,392.76 1953.67,393.484 1950.33,393.484 C1946.2,393.484 1943.16,392.32 1941.23,389.992 C1939.3,387.664 1938.07,383.833 1937.54,378.5 C1926.07,388.49 1916.33,393.484 1908.33,393.484 C1902.2,393.484 1897.16,391.45 1893.23,387.383 C1889.3,383.315 1887.33,378.099 1887.33,371.734 M1937.33,366.562 L1937.33,337.719 C1925.33,342.094 1916.93,346.336 1912.13,350.445 C1907.33,354.555 1904.93,359.531 1904.93,365.375 C1904.93,370.812 1906.26,374.857 1908.93,377.508 C1911.59,380.159 1914.46,381.484 1917.54,381.484 C1922.07,381.484 1926.93,379.958 1932.13,376.906 C1934.27,375.719 1935.67,374.461 1936.33,373.133 C1937,371.805 1937.33,369.615 1937.33,366.562"/>
<path class="MeasureNumber" d="M216.942,976.606 C216.942,975.346 216.661,974.224 216.099,973.239 C215.536,972.255 214.854,971.495 214.052,970.958 C213.25,970.422 212.351,969.979 211.356,969.63 C210.362,969.281 209.497,969.052 208.763,968.942 C208.028,968.833 207.385,968.778 206.833,968.778 C206.541,968.778 206.395,968.685 206.395,968.497 C206.395,968.424 206.411,968.362 206.442,968.31 L210.364,959.794 L217.88,959.794 C218.265,959.794 218.572,959.734 218.802,959.614 C219.031,959.495 219.276,959.242 219.536,958.856 L219.864,959.106 L218.489,962.31 C218.395,962.528 218.119,962.638 217.661,962.638 L210.614,962.638 L209.099,965.685 C212.609,966.31 215.216,967.323 216.919,968.724 C218.622,970.125 219.474,972.179 219.474,974.888 C219.474,976.304 219.25,977.567 218.802,978.677 C218.354,979.786 217.789,980.677 217.106,981.349 C216.424,982.021 215.632,982.573 214.731,983.005 C213.83,983.437 212.966,983.731 212.138,983.888 C211.309,984.044 210.479,984.122 209.645,984.122 C208.302,984.122 207.234,983.924 206.442,983.528 C205.651,983.133 205.255,982.586 205.255,981.888 C205.255,981.002 205.77,980.56 206.802,980.56 C207.468,980.56 208.335,980.927 209.403,981.661 C210.471,982.396 211.317,982.763 211.942,982.763 C213.359,982.763 214.546,982.169 215.505,980.981 C216.463,979.794 216.942,978.336 216.942,976.606"/>
<path class="BarLine" transform="matrix(0.907087,0,0,0.907087,2721.72,1074.33)" d="M1.66406,-8.5 C0.554688,-9.60417 0,-10.9375 0,-12.5 C0,-14.0625 0.554688,-15.3984 1.66406,-16.5078 C2.77344,-17.6172 4.10938,-18.1719 5.67188,-18.1719 C7.23438,-18.1719 8.56771,-17.6172 9.67188,-16.5078 C10.776,-15.3984 11.3281,-14.0625 11.3281,-12.5 C11.3281,-10.9375 10.776,-9.60417 9.67188,-8.5 C8.56771,-7.39583 7.23438,-6.84375 5.67188,-6.84375 C4.10938,-6.84375 2.77344,-7.39583 1.66406,-8.5"/>
<path class="BarLine" transform="matrix(0.907087,0,0,0.907087,2721.72,1097.01)" d="M1.66406,-8.5 C0.554688,-9.60417 0,-10.9375 0,-12.5 C0,-14.0625 0.554688,-15.3984 1.66406,-16.5078 C2.77344,-17.6172 4.10938,-18.1719 5.67188,-18.1719 C7.23438,-18.1719 8.56771,-17.6172 9.67188,-16.5078 C10.776,-15.3984 11.3281,-14.0625 11.3281,-12.5 C11.3281,-10.9375 10.776,-9.60417 9.67188,-8.5 C8.56771,-7.39583 7.23438,-6.84375 5.67188,-6.84375 C4.10938,-6.84375 2.77344,-7.39583 1.66406,-8.5"/>
<polyline class="BarLine" fill="none" stroke="#000000" stroke-width="3.63" stroke-linejoin="bevel" points="2741.14,1028.07 2741.14,1120.59"/>
<polyline class="BarLine" fill="none" stroke="#000000" stroke-width="11.34" stroke-linejoin="bevel" points="2755.88,1028.07 2755.88,1120.59"/>
<polyline class="BarLine" fill="none" stroke="#000000" stroke-width="3.63" stroke-linejoin="bevel" points="2262.24,1028.07 2262.24,1120.59"/>
<polyline class="BarLine" fill="none" stroke="#000000" stroke-width="3.63" stroke-linejoin="bevel" points="1528.03,1028.07 1528.03,1120.59"/>
<polyline class="BarLine" fill="none" stroke="#000000" stroke-width="3.63" stroke-linejoin="bevel" points="890.392,1028.07 890.392,1120.59"/>
<polyline class="BarLine" fill="none" stroke="#000000" stroke-width="3.63" stroke-linejoin="bevel" points="2760.26,597.203 2760.26,689.726"/>
<polyline class="BarLine" fill="none" stroke="#000000" stroke-width="3.63" stroke-linejoin="bevel" points="2179.41,597.203 2179.41,689.726"/>
<polyline class="BarLine" fill="none" stroke="#000000" stroke-width="3.63" stroke-linejoin="bevel" points="1501.37,597.203 1501.37,689.726"/>
<polyline class="BarLine" fill="none" stroke="#000000" stroke-width="3.63" stroke-linejoin="bevel" points="920.517,597.203 920.517,689.726"/>
<path class="Accidental" transform="matrix(0.907087,0,0,0.907087,2142.53,1097.01)" d="M21.5781,31.1563 C21.5781,32.3958 20.9609,33.0156 19.7266,33.0156 C18.4922,33.0156 17.875,32.3958 17.875,31.1563 L17.875,16.7031 L9.57813,19.8281 L9.57813,35.6406 C9.57813,36.8802 8.95833,37.5 7.71875,37.5 C6.47917,37.5 5.85938,36.8802 5.85938,35.6406 L5.85938,21.0938 L2.73438,22.2656 C2.67188,22.3281 2.41146,22.3594 1.95313,22.3594 C1.43229,22.3594 0.976563,22.1641 0.585938,21.7734 C0.195313,21.3828 0,20.9271 0,20.4063 L0,14.3594 C0,13.3802 0.421875,12.7604 1.26563,12.5 L5.85938,10.9375 L5.85938,-5.07813 L2.73438,-4 C2.67188,-3.9375 2.41146,-3.90625 1.95313,-3.90625 C1.43229,-3.90625 0.976563,-4.10156 0.585938,-4.49219 C0.195313,-4.88281 0,-5.33854 0,-5.85938 L0,-11.9219 C0,-12.8281 0.421875,-13.4115 1.26563,-13.6719 L5.85938,-15.4375 L5.85938,-31.1563 C5.85938,-32.3958 6.47917,-33.0156 7.71875,-33.0156 C8.95833,-33.0156 9.57813,-32.3958 9.57813,-31.1563 L9.57813,-16.7031 L17.875,-19.8281 L17.875,-35.6406 C17.875,-36.8802 18.4922,-37.5 19.7266,-37.5 C20.9609,-37.5 21.5781,-36.8802 21.5781,-35.6406 L21.5781,-21.0938 L24.8125,-22.2656 C24.875,-22.3281 25.099,-22.3594 25.4844,-22.3594 C25.9427,-22.3594 26.4323,-22.1667 26.9531,-21.7813 C27.349,-21.3854 27.5469,-20.9271 27.5469,-20.4063 L27.5469,-14.3594 C27.5469,-13.4427 27.0885,-12.8229 26.1719,-12.5 L21.5781,-10.9375 L21.5781,5.07813 L24.8125,4 C24.875,3.9375 25.099,3.90625 25.4844,3.90625 C25.9427,3.90625 26.4323,4.10417 26.9531,4.5 C27.349,4.88542 27.5469,5.33854 27.5469,5.85938 L27.5469,11.9219 C27.5469,12.7656 27.0885,13.349 26.1719,13.6719 L21.5781,15.4375 L21.5781,31.1563 M17.875,-9.46875 L9.57813,-6.54688 L9.57813,9.46875 L17.875,6.54688 L17.875,-9.46875 "/>
<polyline class="Stem" fill="none" stroke="#000000" stroke-width="2.95" stroke-linecap="round" stroke-linejoin="bevel" points="2534.87,1081.41 2534.87,1011.97"/>
<polyline class="Stem" fill="none" stroke="#000000" stroke-width="2.95" stroke-linecap="round" stroke-linejoin="bevel" points="2319.65,1081.41 2319.65,1011.97"/>
<polyline class="Stem" fill="none" stroke="#000000" stroke-width="2.95" stroke-linecap="round" stroke-linejoin="bevel" points="2200.89,1092.75 2200.89,1011.97"/>
<polyline class="Stem" fill="none" stroke="#000000" stroke-width="2.95" stroke-linecap="round" stroke-linejoin="bevel" points="2112.96,1070.07 2112.96,1004.41"/>
<polyline class="Stem" fill="none" stroke="#000000" stroke-width="2.95" stroke-linecap="round" stroke-linejoin="bevel" points="2025.04,1081.41 2025.04,996.85"/>
<polyline class="Stem" fill="none" stroke="#000000" stroke-width="2.95" stroke-linecap="round" stroke-linejoin="bevel" points="1937.12,1058.73 1937.12,989.291"/>
<polyline class="Stem" fill="none" stroke="#000000" stroke-width="2.95" stroke-linecap="round" stroke-linejoin="bevel" points="1822.29,1078.59 1822.29,1165.04"/>
<polyline class="Stem" fill="none" stroke="#000000" stroke-width="2.95" stroke-linecap="round" stroke-linejoin="bevel" points="1734.37,1055.91 1734.37,1163.15"/>
<polyline class="Stem" fill="none" stroke="#000000" stroke-width="2.95" stroke-linecap="round" stroke-linejoin="bevel" points="1646.45,1078.59 1646.45,1161.26"/>
<polyline class="Stem" fill="none" stroke="#000000" stroke-width="2.95" stroke-linecap="round" stroke-linejoin="bevel" points="1558.53,1067.25 1558.53,1159.37"/>
<polyline class="Stem" fill="none" stroke="#000000" stroke-width="2.95" stroke-linecap="round" stroke-linejoin="bevel" points="1440.39,1078.59 1440.39,1159.37"/>
<polyline class="Stem" fill="none" stroke="#000000" stroke-width="2.95" stroke-linecap="round" stroke-linejoin="bevel" points="1353.1,1089.93 1353.1,1159.37"/>
<polyline class="Stem" fill="none" stroke="#000000" stroke-width="2.95" stroke-linecap="round" stroke-linejoin="bevel" points="1265.8,1078.59 1265.8,1159.37"/>
<polyline class="Stem" fill="none" stroke="#000000" stroke-width="2.95" stroke-linecap="round" stroke-linejoin="bevel" points="1178.5,1067.25 1178.5,1159.37"/>
<polyline class="Stem" fill="none" stroke="#000000" stroke-width="2.95" stroke-linecap="round" stroke-linejoin="bevel" points="1091.21,1055.91 1091.21,1119.69"/>
<polyline class="Stem" fill="none" stroke="#000000" stroke-width="2.95" stroke-linecap="round" stroke-linejoin="bevel" points="920.893,1044.57 920.893,1114.02"/>
<polyline class="Stem" fill="none" stroke="#000000" stroke-width="2.95" stroke-linecap="round" stroke-linejoin="bevel" points="761.185,1055.91 761.185,1119.69"/>
<polyline class="Stem" fill="none" stroke="#000000" stroke-width="2.95" stroke-linecap="round" stroke-linejoin="bevel" points="632.319,1055.91 632.319,1119.69"/>
<polyline class="Stem" fill="none" stroke="#000000" stroke-width="2.95" stroke-linecap="round" stroke-linejoin="bevel" points="503.452,1055.91 503.452,1119.69"/>
<polyline class="Stem" fill="none" stroke="#000000" stroke-width="2.95" stroke-linecap="round" stroke-linejoin="bevel" points="422.91,1067.25 422.91,1131.02"/>
<polyline class="Stem" fill="none" stroke="#000000" stroke-width="2.95" stroke-linecap="round" stroke-linejoin="bevel" points="342.369,1078.59 342.369,1142.36"/>
<polyline class="Stem" fill="none" stroke="#000000" stroke-width="2.95" stroke-linecap="round" stroke-linejoin="bevel" points="2625.59,659.062 2625.59,728.504"/>
<polyline class="Stem" fill="none" stroke="#000000" stroke-width="2.95" stroke-linecap="round" stroke-linejoin="bevel" points="2541.63,647.724 2541.63,720"/>
<polyline class="Stem" fill="none" stroke="#000000" stroke-width="2.95" stroke-linecap="round" stroke-linejoin="bevel" points="2457.67,636.385 2457.67,711.496"/>
<polyline class="Stem" fill="none" stroke="#000000" stroke-width="2.95" stroke-linecap="round" stroke-linejoin="bevel" points="2373.71,625.047 2373.71,688.819"/>
<polyline class="Stem" fill="none" stroke="#000000" stroke-width="2.95" stroke-linecap="round" stroke-linejoin="bevel" points="2209.91,613.708 2209.91,683.15"/>
<polyline class="Stem" fill="none" stroke="#000000" stroke-width="2.95" stroke-linecap="round" stroke-linejoin="bevel" points="2098.17,625.047 2098.17,711.496"/>
<polyline class="Stem" fill="none" stroke="#000000" stroke-width="2.95" stroke-linecap="round" stroke-linejoin="bevel" points="2017.27,636.385 2017.27,711.496"/>
<polyline class="Stem" fill="none" stroke="#000000" stroke-width="2.95" stroke-linecap="round" stroke-linejoin="bevel" points="1936.37,647.724 1936.37,711.496"/>
<polyline class="Stem" fill="none" stroke="#000000" stroke-width="2.95" stroke-linecap="round" stroke-linejoin="bevel" points="1855.47,636.385 1855.47,711.496"/>
<polyline class="Stem" fill="none" stroke="#000000" stroke-width="2.95" stroke-linecap="round" stroke-linejoin="bevel" points="1774.57,625.047 1774.57,705.827"/>
<polyline class="Stem" fill="none" stroke="#000000" stroke-width="2.95" stroke-linecap="round" stroke-linejoin="bevel" points="1693.67,613.708 1693.67,713.386"/>
<polyline class="Stem" fill="none" stroke="#000000" stroke-width="2.95" stroke-linecap="round" stroke-linejoin="bevel" points="1612.77,602.369 1612.77,720.945"/>
<polyline class="Stem" fill="none" stroke="#000000" stroke-width="2.95" stroke-linecap="round" stroke-linejoin="bevel" points="1531.87,659.062 1531.87,728.504"/>
<polyline class="Stem" fill="none" stroke="#000000" stroke-width="2.95" stroke-linecap="round" stroke-linejoin="bevel" points="1366.69,659.062 1366.69,728.504"/>
<polyline class="Stem" fill="none" stroke="#000000" stroke-width="2.95" stroke-linecap="round" stroke-linejoin="bevel" points="1282.73,647.724 1282.73,720"/>
<polyline class="Stem" fill="none" stroke="#000000" stroke-width="2.95" stroke-linecap="round" stroke-linejoin="bevel" points="1198.78,636.385 1198.78,711.496"/>
<polyline class="Stem" fill="none" stroke="#000000" stroke-width="2.95" stroke-linecap="round" stroke-linejoin="bevel" points="1114.82,625.047 1114.82,688.819"/>
<polyline class="Stem" fill="none" stroke="#000000" stroke-width="2.95" stroke-linecap="round" stroke-linejoin="bevel" points="951.018,613.708 951.018,683.15"/>
<polyline class="Stem" fill="none" stroke="#000000" stroke-width="2.95" stroke-linecap="round" stroke-linejoin="bevel" points="795.477,625.047 795.477,688.819"/>
<polyline class="Stem" fill="none" stroke="#000000" stroke-width="2.95" stroke-linecap="round" stroke-linejoin="bevel" points="670.778,625.047 670.778,688.819"/>
<polyline class="Stem" fill="none" stroke="#000000" stroke-width="2.95" stroke-linecap="round" stroke-linejoin="bevel" points="546.078,625.047 546.078,688.819"/>
<polyline class="Stem" fill="none" stroke="#000000" stroke-width="2.95" stroke-linecap="round" stroke-linejoin="bevel" points="468.141,636.385 468.141,700.158"/>
<polyline class="Stem" fill="none" stroke="#000000" stroke-width="2.95" stroke-linecap="round" stroke-linejoin="bevel" points="390.203,647.724 390.203,711.496"/>
<path class="Note" transform="matrix(0.907087,0,0,0.907087,2506.49,1085.67)" d="M21.9688,-13.7656 C25.0938,-13.7656 27.7344,-12.9531 29.8906,-11.3281 C31.901,-9.56771 32.9063,-7.35417 32.9063,-4.6875 C32.9063,-0.197917 30.599,4 25.9844,7.90625 C21.2969,11.8125 16.2813,13.7656 10.9375,13.7656 C7.8125,13.7656 5.17708,12.9531 3.03125,11.3281 C1.01042,9.56771 0,7.35417 0,4.6875 C0,0.197917 2.34375,-4 7.03125,-7.90625 C11.5938,-11.8125 16.5729,-13.7656 21.9688,-13.7656"/>
<path class="Note" transform="matrix(0.907087,0,0,0.907087,2291.27,1085.67)" d="M21.9688,-13.7656 C25.0938,-13.7656 27.7344,-12.9531 29.8906,-11.3281 C31.901,-9.56771 32.9063,-7.35417 32.9063,-4.6875 C32.9063,-0.197917 30.599,4 25.9844,7.90625 C21.2969,11.8125 16.2813,13.7656 10.9375,13.7656 C7.8125,13.7656 5.17708,12.9531 3.03125,11.3281 C1.01042,9.56771 0,7.35417 0,4.6875 C0,0.197917 2.34375,-4 7.03125,-7.90625 C11.5938,-11.8125 16.5729,-13.7656 21.9688,-13.7656"/>
<path class="Note" transform="matrix(0.907087,0,0,0.907087,2172.5,1097.01)" d="M21.9688,-13.7656 C25.0938,-13.7656 27.7344,-12.9531 29.8906,-11.3281 C31.901,-9.56771 32.9063,-7.35417 32.9063,-4.6875 C32.9063,-0.197917 30.599,4 25.9844,7.90625 C21.2969,11.8125 16.2813,13.7656 10.9375,13.7656 C7.8125,13.7656 5.17708,12.9531 3.03125,11.3281 C1.01042,9.56771 0,7.35417 0,4.6875 C0,0.197917 2.34375,-4 7.03125,-7.90625 C11.5938,-11.8125 16.5729,-13.7656 21.9688,-13.7656"/>
<path class="Note" transform="matrix(0.907087,0,0,0.907087,2084.58,1074.33)" d="M21.9688,-13.7656 C25.0938,-13.7656 27.7344,-12.9531 29.8906,-11.3281 C31.901,-9.56771 32.9063,-7.35417 32.9063,-4.6875 C32.9063,-0.197917 30.599,4 25.9844,7.90625 C21.2969,11.8125 16.2813,13.7656 10.9375,13.7656 C7.8125,13.7656 5.17708,12.9531 3.03125,11.3281 C1.01042,9.56771 0,7.35417 0,4.6875 C0,0.197917 2.34375,-4 7.03125,-7.90625 C11.5938,-11.8125 16.5729,-13.7656 21.9688,-13.7656"/>
<path class="Note" transform="matrix(0.907087,0,0,0.907087,1996.66,1085.67)" d="M21.9688,-13.7656 C25.0938,-13.7656 27.7344,-12.9531 29.8906,-11.3281 C31.901,-9.56771 32.9063,-7.35417 32.9063,-4.6875 C32.9063,-0.197917 30.599,4 25.9844,7.90625 C21.2969,11.8125 16.2813,13.7656 10.9375,13.7656 C7.8125,13.7656 5.17708,12.9531 3.03125,11.3281 C1.01042,9.56771 0,7.35417 0,4.6875 C0,0.197917 2.34375,-4 7.03125,-7.90625 C11.5938,-11.8125 16.5729,-13.7656 21.9688,-13.7656"/>
<path class="Note" transform="matrix(0.907087,0,0,0.907087,1908.74,1062.99)" d="M21.9688,-13.7656 C25.0938,-13.7656 27.7344,-12.9531 29.8906,-11.3281 C31.901,-9.56771 32.9063,-7.35417 32.9063,-4.6875 C32.9063,-0.197917 30.599,4 25.9844,7.90625 C21.2969,11.8125 16.2813,13.7656 10.9375,13.7656 C7.8125,13.7656 5.17708,12.9531 3.03125,11.3281 C1.01042,9.56771 0,7.35417 0,4.6875 C0,0.197917 2.34375,-4 7.03125,-7.90625 C11.5938,-11.8125 16.5729,-13.7656 21.9688,-13.7656"/>
<path class="Note" transform="matrix(0.907087,0,0,0.907087,1820.82,1074.33)" d="M21.9688,-13.7656 C25.0938,-13.7656 27.7344,-12.9531 29.8906,-11.3281 C31.901,-9.56771 32.9063,-7.35417 32.9063,-4.6875 C32.9063,-0.197917 30.599,4 25.9844,7.90625 C21.2969,11.8125 16.2813,13.7656 10.9375,13.7656 C7.8125,13.7656 5.17708,12.9531 3.03125,11.3281 C1.01042,9.56771 0,7.35417 0,4.6875 C0,0.197917 2.34375,-4 7.03125,-7.90625 C11.5938,-11.8125 16.5729,-13.7656 21.9688,-13.7656"/>
<path class="Note" transform="matrix(0.907087,0,0,0.907087,1732.9,1051.65)" d="M21.9688,-13.7656 C25.0938,-13.7656 27.7344,-12.9531 29.8906,-11.3281 C31.901,-9.56771 32.9063,-7.35417 32.9063,-4.6875 C32.9063,-0.197917 30.599,4 25.9844,7.90625 C21.2969,11.8125 16.2813,13.7656 10.9375,13.7656 C7.8125,13.7656 5.17708,12.9531 3.03125,11.3281 C1.01042,9.56771 0,7.35417 0,4.6875 C0,0.197917 2.34375,-4 7.03125,-7.90625 C11.5938,-11.8125 16.5729,-13.7656 21.9688,-13.7656"/>
<path class="Note" transform="matrix(0.907087,0,0,0.907087,1644.98,1074.33)" d="M21.9688,-13.7656 C25.0938,-13.7656 27.7344,-12.9531 29.8906,-11.3281 C31.901,-9.56771 32.9063,-7.35417 32.9063,-4.6875 C32.9063,-0.197917 30.599,4 25.9844,7.90625 C21.2969,11.8125 16.2813,13.7656 10.9375,13.7656 C7.8125,13.7656 5.17708,12.9531 3.03125,11.3281 C1.01042,9.56771 0,7.35417 0,4.6875 C0,0.197917 2.34375,-4 7.03125,-7.90625 C11.5938,-11.8125 16.5729,-13.7656 21.9688,-13.7656"/>
<path class="Note" transform="matrix(0.907087,0,0,0.907087,1557.05,1062.99)" d="M21.9688,-13.7656 C25.0938,-13.7656 27.7344,-12.9531 29.8906,-11.3281 C31.901,-9.56771 32.9063,-7.35417 32.9063,-4.6875 C32.9063,-0.197917 30.599,4 25.9844,7.90625 C21.2969,11.8125 16.2813,13.7656 10.9375,13.7656 C7.8125,13.7656 5.17708,12.9531 3.03125,11.3281 C1.01042,9.56771 0,7.35417 0,4.6875 C0,0.197917 2.34375,-4 7.03125,-7.90625 C11.5938,-11.8125 16.5729,-13.7656 21.9688,-13.7656"/>
<path class="Note" transform="matrix(0.907087,0,0,0.907087,1438.92,1074.33)" d="M21.9688,-13.7656 C25.0938,-13.7656 27.7344,-12.9531 29.8906,-11.3281 C31.901,-9.56771 32.9063,-7.35417 32.9063,-4.6875 C32.9063,-0.197917 30.599,4 25.9844,7.90625 C21.2969,11.8125 16.2813,13.7656 10.9375,13.7656 C7.8125,13.7656 5.17708,12.9531 3.03125,11.3281 C1.01042,9.56771 0,7.35417 0,4.6875 C0,0.197917 2.34375,-4 7.03125,-7.90625 C11.5938,-11.8125 16.5729,-13.7656 21.9688,-13.7656"/>
<path class="Note" transform="matrix(0.907087,0,0,0.907087,1351.62,1085.67)" d="M21.9688,-13.7656 C25.0938,-13.7656 27.7344,-12.9531 29.8906,-11.3281 C31.901,-9.56771 32.9063,-7.35417 32.9063,-4.6875 C32.9063,-0.197917 30.599,4 25.9844,7.90625 C21.2969,11.8125 16.2813,13.7656 10.9375,13.7656 C7.8125,13.7656 5.17708,12.9531 3.03125,11.3281 C1.01042,9.56771 0,7.35417 0,4.6875 C0,0.197917 2.34375,-4 7.03125,-7.90625 C11.5938,-11.8125 16.5729,-13.7656 21.9688,-13.7656"/>
<path class="Note" transform="matrix(0.907087,0,0,0.907087,1264.32,1074.33)" d="M21.9688,-13.7656 C25.0938,-13.7656 27.7344,-12.9531 29.8906,-11.3281 C31.901,-9.56771 32.9063,-7.35417 32.9063,-4.6875 C32.9063,-0.197917 30.599,4 25.9844,7.90625 C21.2969,11.8125 16.2813,13.7656 10.9375,13.7656 C7.8125,13.7656 5.17708,12.9531 3.03125,11.3281 C1.01042,9.56771 0,7.35417 0,4.6875 C0,0.197917 2.34375,-4 7.03125,-7.90625 C11.5938,-11.8125 16.5729,-13.7656 21.9688,-13.7656"/>
<path class="Note" transform="matrix(0.907087,0,0,0.907087,1177.03,1062.99)" d="M21.9688,-13.7656 C25.0938,-13.7656 27.7344,-12.9531 29.8906,-11.3281 C31.901,-9.56771 32.9063,-7.35417 32.9063,-4.6875 C32.9063,-0.197917 30.599,4 25.9844,7.90625 C21.2969,11.8125 16.2813,13.7656 10.9375,13.7656 C7.8125,13.7656 5.17708,12.9531 3.03125,11.3281 C1.01042,9.56771 0,7.35417 0,4.6875 C0,0.197917 2.34375,-4 7.03125,-7.90625 C11.5938,-11.8125 16.5729,-13.7656 21.9688,-13.7656"/>
<path class="Note" transform="matrix(0.907087,0,0,0.907087,1089.73,1051.65)" d="M21.9688,-13.7656 C25.0938,-13.7656 27.7344,-12.9531 29.8906,-11.3281 C31.901,-9.56771 32.9063,-7.35417 32.9063,-4.6875 C32.9063,-0.197917 30.599,4 25.9844,7.90625 C21.2969,11.8125 16.2813,13.7656 10.9375,13.7656 C7.8125,13.7656 5.17708,12.9531 3.03125,11.3281 C1.01042,9.56771 0,7.35417 0,4.6875 C0,0.197917 2.34375,-4 7.03125,-7.90625 C11.5938,-11.8125 16.5729,-13.7656 21.9688,-13.7656"/>
<path class="Note" transform="matrix(0.907087,0,0,0.907087,919.419,1040.32)" d="M21.9688,-13.7656 C25.0938,-13.7656 27.7344,-12.9531 29.8906,-11.3281 C31.901,-9.56771 32.9063,-7.35417 32.9063,-4.6875 C32.9063,-0.197917 30.599,4 25.9844,7.90625 C21.2969,11.8125 16.2813,13.7656 10.9375,13.7656 C7.8125,13.7656 5.17708,12.9531 3.03125,11.3281 C1.01042,9.56771 0,7.35417 0,4.6875 C0,0.197917 2.34375,-4 7.03125,-7.90625 C11.5938,-11.8125 16.5729,-13.7656 21.9688,-13.7656"/>
<path class="Note" transform="matrix(0.907087,0,0,0.907087,759.711,1051.65)" d="M21.9688,-13.7656 C25.0938,-13.7656 27.7344,-12.9531 29.8906,-11.3281 C31.901,-9.56771 32.9063,-7.35417 32.9063,-4.6875 C32.9063,-0.197917 30.599,4 25.9844,7.90625 C21.2969,11.8125 16.2813,13.7656 10.9375,13.7656 C7.8125,13.7656 5.17708,12.9531 3.03125,11.3281 C1.01042,9.56771 0,7.35417 0,4.6875 C0,0.197917 2.34375,-4 7.03125,-7.90625 C11.5938,-11.8125 16.5729,-13.7656 21.9688,-13.7656"/>
<path class="Note" transform="matrix(0.907087,0,0,0.907087,630.845,1051.65)" d="M21.9688,-13.7656 C25.0938,-13.7656 27.7344,-12.9531 29.8906,-11.3281 C31.901,-9.56771 32.9063,-7.35417 32.9063,-4.6875 C32.9063,-0.197917 30.599,4 25.9844,7.90625 C21.2969,11.8125 16.2813,13.7656 10.9375,13.7656 C7.8125,13.7656 5.17708,12.9531 3.03125,11.3281 C1.01042,9.56771 0,7.35417 0,4.6875 C0,0.197917 2.34375,-4 7.03125,-7.90625 C11.5938,-11.8125 16.5729,-13.7656 21.9688,-13.7656"/>
<path class="Note" transform="matrix(0.907087,0,0,0.907087,501.978,1051.65)" d="M21.9688,-13.7656 C25.0938,-13.7656 27.7344,-12.9531 29.8906,-11.3281 C31.901,-9.56771 32.9063,-7.35417 32.9063,-4.6875 C32.9063,-0.197917 30.599,4 25.9844,7.90625 C21.2969,11.8125 16.2813,13.7656 10.9375,13.7656 C7.8125,13.7656 5.17708,12.9531 3.03125,11.3281 C1.01042,9.56771 0,7.35417 0,4.6875 C0,0.197917 2.34375,-4 7.03125,-7.90625 C11.5938,-11.8125 16.5729,-13.7656 21.9688,-13.7656"/>
<path class="Note" transform="matrix(0.907087,0,0,0.907087,421.436,1062.99)" d="M21.9688,-13.7656 C25.0938,-13.7656 27.7344,-12.9531 29.8906,-11.3281 C31.901,-9.56771 32.9063,-7.35417 32.9063,-4.6875 C32.9063,-0.197917 30.599,4 25.9844,7.90625 C21.2969,11.8125 16.2813,13.7656 10.9375,13.7656 C7.8125,13.7656 5.17708,12.9531 3.03125,11.3281 C1.01042,9.56771 0,7.35417 0,4.6875 C0,0.197917 2.34375,-4 7.03125,-7.90625 C11.5938,-11.8125 16.5729,-13.7656 21.9688,-13.7656"/>
<path class="Note" transform="matrix(0.907087,0,0,0.907087,340.895,1074.33)" d="M21.9688,-13.7656 C25.0938,-13.7656 27.7344,-12.9531 29.8906,-11.3281 C31.901,-9.56771 32.9063,-7.35417 32.9063,-4.6875 C32.9063,-0.197917 30.599,4 25.9844,7.90625 C21.2969,11.8125 16.2813,13.7656 10.9375,13.7656 C7.8125,13.7656 5.17708,12.9531 3.03125,11.3281 C1.01042,9.56771 0,7.35417 0,4.6875 C0,0.197917 2.34375,-4 7.03125,-7.90625 C11.5938,-11.8125 16.5729,-13.7656 21.9688,-13.7656"/>
<path class="Note" transform="matrix(0.907087,0,0,0.907087,2624.12,654.803)" d="M21.9688,-13.7656 C25.0938,-13.7656 27.7344,-12.9531 29.8906,-11.3281 C31.901,-9.56771 32.9063,-7.35417 32.9063,-4.6875 C32.9063,-0.197917 30.599,4 25.9844,7.90625 C21.2969,11.8125 16.2813,13.7656 10.9375,13.7656 C7.8125,13.7656 5.17708,12.9531 3.03125,11.3281 C1.01042,9.56771 0,7.35417 0,4.6875 C0,0.197917 2.34375,-4 7.03125,-7.90625 C11.5938,-11.8125 16.5729,-13.7656 21.9688,-13.7656"/>
<path class="Note" transform="matrix(0.907087,0,0,0.907087,2540.16,643.465)" d="M21.9688,-13.7656 C25.0938,-13.7656 27.7344,-12.9531 29.8906,-11.3281 C31.901,-9.56771 32.9063,-7.35417 32.9063,-4.6875 C32.9063,-0.197917 30.599,4 25.9844,7.90625 C21.2969,11.8125 16.2813,13.7656 10.9375,13.7656 C7.8125,13.7656 5.17708,12.9531 3.03125,11.3281 C1.01042,9.56771 0,7.35417 0,4.6875 C0,0.197917 2.34375,-4 7.03125,-7.90625 C11.5938,-11.8125 16.5729,-13.7656 21.9688,-13.7656"/>
<path class="Note" transform="matrix(0.907087,0,0,0.907087,2456.2,632.126)" d="M21.9688,-13.7656 C25.0938,-13.7656 27.7344,-12.9531 29.8906,-11.3281 C31.901,-9.56771 32.9063,-7.35417 32.9063,-4.6875 C32.9063,-0.197917 30.599,4 25.9844,7.90625 C21.2969,11.8125 16.2813,13.7656 10.9375,13.7656 C7.8125,13.7656 5.17708,12.9531 3.03125,11.3281 C1.01042,9.56771 0,7.35417 0,4.6875 C0,0.197917 2.34375,-4 7.03125,-7.90625 C11.5938,-11.8125 16.5729,-13.7656 21.9688,-13.7656"/>
<path class="Note" transform="matrix(0.907087,0,0,0.907087,2372.24,620.787)" d="M21.9688,-13.7656 C25.0938,-13.7656 27.7344,-12.9531 29.8906,-11.3281 C31.901,-9.56771 32.9063,-7.35417 32.9063,-4.6875 C32.9063,-0.197917 30.599,4 25.9844,7.90625 C21.2969,11.8125 16.2813,13.7656 10.9375,13.7656 C7.8125,13.7656 5.17708,12.9531 3.03125,11.3281 C1.01042,9.56771 0,7.35417 0,4.6875 C0,0.197917 2.34375,-4 7.03125,-7.90625 C11.5938,-11.8125 16.5729,-13.7656 21.9688,-13.7656"/>
<path class="Note" transform="matrix(0.907087,0,0,0.907087,2208.44,609.449)" d="M21.9688,-13.7656 C25.0938,-13.7656 27.7344,-12.9531 29.8906,-11.3281 C31.901,-9.56771 32.9063,-7.35417 32.9063,-4.6875 C32.9063,-0.197917 30.599,4 25.9844,7.90625 C21.2969,11.8125 16.2813,13.7656 10.9375,13.7656 C7.8125,13.7656 5.17708,12.9531 3.03125,11.3281 C1.01042,9.56771 0,7.35417 0,4.6875 C0,0.197917 2.34375,-4 7.03125,-7.90625 C11.5938,-11.8125 16.5729,-13.7656 21.9688,-13.7656"/>
<path class="Note" transform="matrix(0.907087,0,0,0.907087,2096.7,620.787)" d="M21.9688,-13.7656 C25.0938,-13.7656 27.7344,-12.9531 29.8906,-11.3281 C31.901,-9.56771 32.9063,-7.35417 32.9063,-4.6875 C32.9063,-0.197917 30.599,4 25.9844,7.90625 C21.2969,11.8125 16.2813,13.7656 10.9375,13.7656 C7.8125,13.7656 5.17708,12.9531 3.03125,11.3281 C1.01042,9.56771 0,7.35417 0,4.6875 C0,0.197917 2.34375,-4 7.03125,-7.90625 C11.5938,-11.8125 16.5729,-13.7656 21.9688,-13.7656"/>
<path class="Note" transform="matrix(0.907087,0,0,0.907087,2015.8,632.126)" d="M21.9688,-13.7656 C25.0938,-13.7656 27.7344,-12.9531 29.8906,-11.3281 C31.901,-9.56771 32.9063,-7.35417 32.9063,-4.6875 C32.9063,-0.197917 30.599,4 25.9844,7.90625 C21.2969,11.8125 16.2813,13.7656 10.9375,13.7656 C7.8125,13.7656 5.17708,12.9531 3.03125,11.3281 C1.01042,9.56771 0,7.35417 0,4.6875 C0,0.197917 2.34375,-4 7.03125,-7.90625 C11.5938,-11.8125 16.5729,-13.7656 21.9688,-13.7656"/>
<path class="Note" transform="matrix(0.907087,0,0,0.907087,1934.9,643.465)" d="M21.9688,-13.7656 C25.0938,-13.7656 27.7344,-12.9531 29.8906,-11.3281 C31.901,-9.56771 32.9063,-7.35417 32.9063,-4.6875 C32.9063,-0.197917 30.599,4 25.9844,7.90625 C21.2969,11.8125 16.2813,13.7656 10.9375,13.7656 C7.8125,13.7656 5.17708,12.9531 3.03125,11.3281 C1.01042,9.56771 0,7.35417 0,4.6875 C0,0.197917 2.34375,-4 7.03125,-7.90625 C11.5938,-11.8125 16.5729,-13.7656 21.9688,-13.7656"/>
<path class="Note" transform="matrix(0.907087,0,0,0.907087,1854,632.126)" d="M21.9688,-13.7656 C25.0938,-13.7656 27.7344,-12.9531 29.8906,-11.3281 C31.901,-9.56771 32.9063,-7.35417 32.9063,-4.6875 C32.9063,-0.197917 30.599,4 25.9844,7.90625 C21.2969,11.8125 16.2813,13.7656 10.9375,13.7656 C7.8125,13.7656 5.17708,12.9531 3.03125,11.3281 C1.01042,9.56771 0,7.35417 0,4.6875 C0,0.197917 2.34375,-4 7.03125,-7.90625 C11.5938,-11.8125 16.5729,-13.7656 21.9688,-13.7656"/>
<path class="Note" transform="matrix(0.907087,0,0,0.907087,1773.1,620.787)" d="M21.9688,-13.7656 C25.0938,-13.7656 27.7344,-12.9531 29.8906,-11.3281 C31.901,-9.56771 32.9063,-7.35417 32.9063,-4.6875 C32.9063,-0.197917 30.599,4 25.9844,7.90625 C21.2969,11.8125 16.2813,13.7656 10.9375,13.7656 C7.8125,13.7656 5.17708,12.9531 3.03125,11.3281 C1.01042,9.56771 0,7.35417 0,4.6875 C0,0.197917 2.34375,-4 7.03125,-7.90625 C11.5938,-11.8125 16.5729,-13.7656 21.9688,-13.7656"/>
<path class="Note" transform="matrix(0.907087,0,0,0.907087,1692.19,609.449)" d="M21.9688,-13.7656 C25.0938,-13.7656 27.7344,-12.9531 29.8906,-11.3281 C31.901,-9.56771 32.9063,-7.35417 32.9063,-4.6875 C32.9063,-0.197917 30.599,4 25.9844,7.90625 C21.2969,11.8125 16.2813,13.7656 10.9375,13.7656 C7.8125,13.7656 5.17708,12.9531 3.03125,11.3281 C1.01042,9.56771 0,7.35417 0,4.6875 C0,0.197917 2.34375,-4 7.03125,-7.90625 C11.5938,-11.8125 16.5729,-13.7656 21.9688,-13.7656"/>
<path class="Note" transform="matrix(0.907087,0,0,0.907087,1611.29,598.11)" d="M21.9688,-13.7656 C25.0938,-13.7656 27.7344,-12.9531 29.8906,-11.3281 C31.901,-9.56771 32.9063,-7.35417 32.9063,-4.6875 C32.9063,-0.197917 30.599,4 25.9844,7.90625 C21.2969,11.8125 16.2813,13.7656 10.9375,13.7656 C7.8125,13.7656 5.17708,12.9531 3.03125,11.3281 C1.01042,9.56771 0,7.35417 0,4.6875 C0,0.197917 2.34375,-4 7.03125,-7.90625 C11.5938,-11.8125 16.5729,-13.7656 21.9688,-13.7656"/>
<path class="Note" transform="matrix(0.907087,0,0,0.907087,1530.39,654.803)" d="M21.9688,-13.7656 C25.0938,-13.7656 27.7344,-12.9531 29.8906,-11.3281 C31.901,-9.56771 32.9063,-7.35417 32.9063,-4.6875 C32.9063,-0.197917 30.599,4 25.9844,7.90625 C21.2969,11.8125 16.2813,13.7656 10.9375,13.7656 C7.8125,13.7656 5.17708,12.9531 3.03125,11.3281 C1.01042,9.56771 0,7.35417 0,4.6875 C0,0.197917 2.34375,-4 7.03125,-7.90625 C11.5938,-11.8125 16.5729,-13.7656 21.9688,-13.7656"/>
<path class="Note" transform="matrix(0.907087,0,0,0.907087,1365.22,654.803)" d="M21.9688,-13.7656 C25.0938,-13.7656 27.7344,-12.9531 29.8906,-11.3281 C31.901,-9.56771 32.9063,-7.35417 32.9063,-4.6875 C32.9063,-0.197917 30.599,4 25.9844,7.90625 C21.2969,11.8125 16.2813,13.7656 10.9375,13.7656 C7.8125,13.7656 5.17708,12.9531 3.03125,11.3281 C1.01042,9.56771 0,7.35417 0,4.6875 C0,0.197917 2.34375,-4 7.03125,-7.90625 C11.5938,-11.8125 16.5729,-13.7656 21.9688,-13.7656"/>
<path class="Note" transform="matrix(0.907087,0,0,0.907087,1281.26,643.465)" d="M21.9688,-13.7656 C25.0938,-13.7656 27.7344,-12.9531 29.8906,-11.3281 C31.901,-9.56771 32.9063,-7.35417 32.9063,-4.6875 C32.9063,-0.197917 30.599,4 25.9844,7.90625 C21.2969,11.8125 16.2813,13.7656 10.9375,13.7656 C7.8125,13.7656 5.17708,12.9531 3.03125,11.3281 C1.01042,9.56771 0,7.35417 0,4.6875 C0,0.197917 2.34375,-4 7.03125,-7.90625 C11.5938,-11.8125 16.5729,-13.7656 21.9688,-13.7656"/>
<path class="Note" transform="matrix(0.907087,0,0,0.907087,1197.3,632.126)" d="M21.9688,-13.7656 C25.0938,-13.7656 27.7344,-12.9531 29.8906,-11.3281 C31.901,-9.56771 32.9063,-7.35417 32.9063,-4.6875 C32.9063,-0.197917 30.599,4 25.9844,7.90625 C21.2969,11.8125 16.2813,13.7656 10.9375,13.7656 C7.8125,13.7656 5.17708,12.9531 3.03125,11.3281 C1.01042,9.56771 0,7.35417 0,4.6875 C0,0.197917 2.34375,-4 7.03125,-7.90625 C11.5938,-11.8125 16.5729,-13.7656 21.9688,-13.7656"/>
<path class="Note" transform="matrix(0.907087,0,0,0.907087,1113.34,620.787)" d="M21.9688,-13.7656 C25.0938,-13.7656 27.7344,-12.9531 29.8906,-11.3281 C31.901,-9.56771 32.9063,-7.35417 32.9063,-4.6875 C32.9063,-0.197917 30.599,4 25.9844,7.90625 C21.2969,11.8125 16.2813,13.7656 10.9375,13.7656 C7.8125,13.7656 5.17708,12.9531 3.03125,11.3281 C1.01042,9.56771 0,7.35417 0,4.6875 C0,0.197917 2.34375,-4 7.03125,-7.90625 C11.5938,-11.8125 16.5729,-13.7656 21.9688,-13.7656"/>
<path class="Note" transform="matrix(0.907087,0,0,0.907087,949.544,609.449)" d="M21.9688,-13.7656 C25.0938,-13.7656 27.7344,-12.9531 29.8906,-11.3281 C31.901,-9.56771 32.9063,-7.35417 32.9063,-4.6875 C32.9063,-0.197917 30.599,4 25.9844,7.90625 C21.2969,11.8125 16.2813,13.7656 10.9375,13.7656 C7.8125,13.7656 5.17708,12.9531 3.03125,11.3281 C1.01042,9.56771 0,7.35417 0,4.6875 C0,0.197917 2.34375,-4 7.03125,-7.90625 C11.5938,-11.8125 16.5729,-13.7656 21.9688,-13.7656"/>
<path class="Note" transform="matrix(0.907087,0,0,0.907087,794.003,620.787)" d="M21.9688,-13.7656 C25.0938,-13.7656 27.7344,-12.9531 29.8906,-11.3281 C31.901,-9.56771 32.9063,-7.35417 32.9063,-4.6875 C32.9063,-0.197917 30.599,4 25.9844,7.90625 C21.2969,11.8125 16.2813,13.7656 10.9375,13.7656 C7.8125,13.7656 5.17708,12.9531 3.03125,11.3281 C1.01042,9.56771 0,7.35417 0,4.6875 C0,0.197917 2.34375,-4 7.03125,-7.90625 C11.5938,-11.8125 16.5729,-13.7656 21.9688,-13.7656"/>
<path class="Note" transform="matrix(0.907087,0,0,0.907087,669.304,620.787)" d="M21.9688,-13.7656 C25.0938,-13.7656 27.7344,-12.9531 29.8906,-11.3281 C31.901,-9.56771 32.9063,-7.35417 32.9063,-4.6875 C32.9063,-0.197917 30.599,4 25.9844,7.90625 C21.2969,11.8125 16.2813,13.7656 10.9375,13.7656 C7.8125,13.7656 5.17708,12.9531 3.03125,11.3281 C1.01042,9.56771 0,7.35417 0,4.6875 C0,0.197917 2.34375,-4 7.03125,-7.90625 C11.5938,-11.8125 16.5729,-13.7656 21.9688,-13.7656"/>
<path class="Note" transform="matrix(0.907087,0,0,0.907087,544.604,620.787)" d="M21.9688,-13.7656 C25.0938,-13.7656 27.7344,-12.9531 29.8906,-11.3281 C31.901,-9.56771 32.9063,-7.35417 32.9063,-4.6875 C32.9063,-0.197917 30.599,4 25.9844,7.90625 C21.2969,11.8125 16.2813,13.7656 10.9375,13.7656 C7.8125,13.7656 5.17708,12.9531 3.03125,11.3281 C1.01042,9.56771 0,7.35417 0,4.6875 C0,0.197917 2.34375,-4 7.03125,-7.90625 C11.5938,-11.8125 16.5729,-13.7656 21.9688,-13.7656"/>
<path class="Note" transform="matrix(0.907087,0,0,0.907087,466.667,632.126)" d="M21.9688,-13.7656 C25.0938,-13.7656 27.7344,-12.9531 29.8906,-11.3281 C31.901,-9.56771 32.9063,-7.35417 32.9063,-4.6875 C32.9063,-0.197917 30.599,4 25.9844,7.90625 C21.2969,11.8125 16.2813,13.7656 10.9375,13.7656 C7.8125,13.7656 5.17708,12.9531 3.03125,11.3281 C1.01042,9.56771 0,7.35417 0,4.6875 C0,0.197917 2.34375,-4 7.03125,-7.90625 C11.5938,-11.8125 16.5729,-13.7656 21.9688,-13.7656"/>
<path class="Note" transform="matrix(0.907087,0,0,0.907087,388.729,643.465)" d="M21.9688,-13.7656 C25.0938,-13.7656 27.7344,-12.9531 29.8906,-11.3281 C31.901,-9.56771 32.9063,-7.35417 32.9063,-4.6875 C32.9063,-0.197917 30.599,4 25.9844,7.90625 C21.2969,11.8125 16.2813,13.7656 10.9375,13.7656 C7.8125,13.7656 5.17708,12.9531 3.03125,11.3281 C1.01042,9.56771 0,7.35417 0,4.6875 C0,0.197917 2.34375,-4 7.03125,-7.90625 C11.5938,-11.8125 16.5729,-13.7656 21.9688,-13.7656"/>
<path class="Clef" transform="matrix(0.907087,0,0,0.907087,227.112,1097.01)" d="M36.7188,-25.5938 C36.7188,-25.5938 36.9167,-25.5938 37.3125,-25.5938 C37.5729,-25.6563 37.7969,-25.6875 37.9844,-25.6875 C45.276,-25.6875 51.2656,-23.1146 55.9531,-17.9688 C60.6406,-12.8958 62.9844,-6.97396 62.9844,-0.203125 C62.9844,8.20313 59.5052,15.0417 52.5469,20.3125 C50.724,21.75 48.3438,22.9219 45.4063,23.8281 C45.7396,28.0573 45.9063,31.474 45.9063,34.0781 C45.9063,34.599 45.8385,36.4896 45.7031,39.75 C45.4427,45.8021 43.3594,51.0417 39.4531,55.4688 C35.6823,59.8333 30.9948,62.0156 25.3906,62.0156 C20.1198,62.0156 15.6302,60.1615 11.9219,56.4531 C8.20313,52.6719 6.34375,48.1146 6.34375,42.7813 C6.34375,39.9792 7.42188,37.599 9.57813,35.6406 C11.7865,33.6927 14.3542,32.7188 17.2813,32.7188 C19.8854,32.7188 22.0677,33.7292 23.8281,35.75 C25.651,37.6354 26.5625,39.9792 26.5625,42.7813 C26.5625,45.3125 25.651,47.4896 23.8281,49.3125 C22.0052,51.1354 19.8229,52.0469 17.2813,52.0469 C16.2396,52.0469 15.2344,51.8542 14.2656,51.4688 C17.1302,55.6979 20.9375,57.8125 25.6875,57.8125 C30.1771,57.8125 33.8542,55.9896 36.7188,52.3438 C39.7188,48.5729 41.349,44.1771 41.6094,39.1563 C41.7344,36.0313 41.7969,34.2448 41.7969,33.7969 C41.7969,30.151 41.6667,27.1563 41.4063,24.8125 C38.1563,25.3333 35.2604,25.5938 32.7188,25.5938 C23.6667,25.5938 15.9531,22.0104 9.57813,14.8438 C3.32813,7.61458 0.203125,-0.979167 0.203125,-10.9375 C0.203125,-13.0208 0.395833,-15.1354 0.78125,-17.2813 C1.17708,-19.0417 1.66667,-20.9635 2.25,-23.0469 C2.57292,-24.224 3.45313,-26.1146 4.89063,-28.7188 C5.41146,-29.5 5.9974,-30.4766 6.64844,-31.6484 C7.29948,-32.8203 7.75521,-33.599 8.01563,-33.9844 C8.66146,-35.2865 9.92708,-37.0469 11.8125,-39.2656 C12.3333,-39.849 12.8724,-40.4974 13.4297,-41.2109 C13.987,-41.9245 14.4609,-42.5104 14.8516,-42.9688 C15.2422,-43.4271 15.5339,-43.7865 15.7266,-44.0469 C15.9193,-44.3073 17.3854,-46.0313 20.125,-49.2188 C20.7708,-49.875 21.4036,-50.5755 22.0234,-51.3203 C22.6432,-52.0651 23.1484,-52.651 23.5391,-53.0781 C23.9297,-53.5052 24.224,-53.8125 24.4219,-54 C22.0781,-61.75 20.6094,-67.9375 20.0156,-72.5625 C19.5677,-76.2708 19.3438,-81.349 19.3438,-87.7969 C19.3438,-93.4635 20.6458,-98.7708 23.25,-103.719 C25.7813,-108.854 29.3281,-113.052 33.8906,-116.313 C34.151,-116.51 34.474,-116.609 34.8594,-116.609 C35.3177,-116.609 35.6458,-116.51 35.8438,-116.313 C39.3542,-112.083 42.3802,-106.583 44.9219,-99.8125 C47.526,-93.0417 48.8281,-86.8854 48.8281,-81.3438 C48.8281,-75.0938 47.3333,-69.2344 44.3438,-63.7656 C40.9583,-57.974 36.5938,-51.9844 31.25,-45.7969 C32.6146,-41.5052 34.4375,-34.7708 36.7188,-25.5938 M45.0156,19.8281 C48.401,18.5885 51.0417,16.474 52.9375,13.4844 C55.0208,10.6198 56.0625,7.39583 56.0625,3.8125 C56.0625,-0.8125 54.5,-4.91667 51.375,-8.5 C48.1771,-12.2083 44.1042,-14.2917 39.1563,-14.75 C41.9583,-1.01042 43.9115,10.5156 45.0156,19.8281 M7.23438,-2.73438 C7.23438,3.71354 9.83854,9.38021 15.0469,14.2656 C20.3802,19.0156 26.3698,21.3906 33.0156,21.3906 C35.7448,21.3906 38.4115,21.1927 41.0156,20.7969 C39.974,10.901 37.9219,-0.947917 34.8594,-14.75 C31.151,-14.3542 28.1927,-13.0521 25.9844,-10.8438 C23.8281,-8.5625 22.75,-5.98958 22.75,-3.125 C22.75,1.82292 25.3906,5.82813 30.6719,8.89063 C31.1198,9.34896 31.3438,9.83854 31.3438,10.3594 C31.3438,10.8802 31.1198,11.3646 30.6719,11.8125 C30.276,12.2708 29.7865,12.5 29.2031,12.5 C29.1406,12.5 28.849,12.4375 28.3281,12.3125 C24.6094,10.2917 21.7448,7.6875 19.7344,4.5 C17.8385,1.10417 16.8906,-2.31771 16.8906,-5.76563 C16.8906,-10.2552 18.2917,-14.3229 21.0938,-17.9688 C24.0208,-21.6146 27.8281,-23.9583 32.5156,-25 C30.6927,-32.2917 29.1979,-37.9896 28.0313,-42.0938 C26.9896,-40.9167 25.737,-39.5 24.2734,-37.8438 C22.8099,-36.1875 21.9479,-35.1927 21.6875,-34.8594 C19.3438,-31.8073 17.5521,-29.4323 16.3125,-27.7344 C14.0938,-24.6719 12.4635,-22.0365 11.4219,-19.8281 C10.3177,-17.349 9.34375,-14.6458 8.5,-11.7188 C7.65625,-8.91667 7.23438,-5.92188 7.23438,-2.73438 M39.8438,-102.047 C34.9583,-99.6406 31.1198,-96.1927 28.3281,-91.7031 C25.4635,-87.0781 24.0313,-82.099 24.0313,-76.7656 C24.0313,-72.0781 25.2031,-65.7604 27.5469,-57.8125 C32.2344,-63.4792 35.75,-68.7188 38.0938,-73.5313 C40.5625,-78.6146 41.7969,-83.9219 41.7969,-89.4531 C41.7969,-93.6198 41.1458,-97.8177 39.8438,-102.047"/>
<path class="Clef" transform="matrix(0.907087,0,0,0.907087,227.112,666.142)" d="M36.7188,-25.5938 C36.7188,-25.5938 36.9167,-25.5938 37.3125,-25.5938 C37.5729,-25.6563 37.7969,-25.6875 37.9844,-25.6875 C45.276,-25.6875 51.2656,-23.1146 55.9531,-17.9688 C60.6406,-12.8958 62.9844,-6.97396 62.9844,-0.203125 C62.9844,8.20313 59.5052,15.0417 52.5469,20.3125 C50.724,21.75 48.3438,22.9219 45.4063,23.8281 C45.7396,28.0573 45.9063,31.474 45.9063,34.0781 C45.9063,34.599 45.8385,36.4896 45.7031,39.75 C45.4427,45.8021 43.3594,51.0417 39.4531,55.4688 C35.6823,59.8333 30.9948,62.0156 25.3906,62.0156 C20.1198,62.0156 15.6302,60.1615 11.9219,56.4531 C8.20313,52.6719 6.34375,48.1146 6.34375,42.7813 C6.34375,39.9792 7.42188,37.599 9.57813,35.6406 C11.7865,33.6927 14.3542,32.7188 17.2813,32.7188 C19.8854,32.7188 22.0677,33.7292 23.8281,35.75 C25.651,37.6354 26.5625,39.9792 26.5625,42.7813 C26.5625,45.3125 25.651,47.4896 23.8281,49.3125 C22.0052,51.1354 19.8229,52.0469 17.2813,52.0469 C16.2396,52.0469 15.2344,51.8542 14.2656,51.4688 C17.1302,55.6979 20.9375,57.8125 25.6875,57.8125 C30.1771,57.8125 33.8542,55.9896 36.7188,52.3438 C39.7188,48.5729 41.349,44.1771 41.6094,39.1563 C41.7344,36.0313 41.7969,34.2448 41.7969,33.7969 C41.7969,30.151 41.6667,27.1563 41.4063,24.8125 C38.1563,25.3333 35.2604,25.5938 32.7188,25.5938 C23.6667,25.5938 15.9531,22.0104 9.57813,14.8438 C3.32813,7.61458 0.203125,-0.979167 0.203125,-10.9375 C0.203125,-13.0208 0.395833,-15.1354 0.78125,-17.2813 C1.17708,-19.0417 1.66667,-20.9635 2.25,-23.0469 C2.57292,-24.224 3.45313,-26.1146 4.89063,-28.7188 C5.41146,-29.5 5.9974,-30.4766 6.64844,-31.6484 C7.29948,-32.8203 7.75521,-33.599 8.01563,-33.9844 C8.66146,-35.2865 9.92708,-37.0469 11.8125,-39.2656 C12.3333,-39.849 12.8724,-40.4974 13.4297,-41.2109 C13.987,-41.9245 14.4609,-42.5104 14.8516,-42.9688 C15.2422,-43.4271 15.5339,-43.7865 15.7266,-44.0469 C15.9193,-44.3073 17.3854,-46.0313 20.125,-49.2188 C20.7708,-49.875 21.4036,-50.5755 22.0234,-51.3203 C22.6432,-52.0651 23.1484,-52.651 23.5391,-53.0781 C23.9297,-53.5052 24.224,-53.8125 24.4219,-54 C22.0781,-61.75 20.6094,-67.9375 20.0156,-72.5625 C19.5677,-76.2708 19.3438,-81.349 19.3438,-87.7969 C19.3438,-93.4635 20.6458,-98.7708 23.25,-103.719 C25.7813,-108.854 29.3281,-113.052 33.8906,-116.313 C34.151,-116.51 34.474,-116.609 34.8594,-116.609 C35.3177,-116.609 35.6458,-116.51 35.8438,-116.313 C39.3542,-112.083 42.3802,-106.583 44.9219,-99.8125 C47.526,-93.0417 48.8281,-86.8854 48.8281,-81.3438 C48.8281,-75.0938 47.3333,-69.2344 44.3438,-63.7656 C40.9583,-57.974 36.5938,-51.9844 31.25,-45.7969 C32.6146,-41.5052 34.4375,-34.7708 36.7188,-25.5938 M45.0156,19.8281 C48.401,18.5885 51.0417,16.474 52.9375,13.4844 C55.0208,10.6198 56.0625,7.39583 56.0625,3.8125 C56.0625,-0.8125 54.5,-4.91667 51.375,-8.5 C48.1771,-12.2083 44.1042,-14.2917 39.1563,-14.75 C41.9583,-1.01042 43.9115,10.5156 45.0156,19.8281 M7.23438,-2.73438 C7.23438,3.71354 9.83854,9.38021 15.0469,14.2656 C20.3802,19.0156 26.3698,21.3906 33.0156,21.3906 C35.7448,21.3906 38.4115,21.1927 41.0156,20.7969 C39.974,10.901 37.9219,-0.947917 34.8594,-14.75 C31.151,-14.3542 28.1927,-13.0521 25.9844,-10.8438 C23.8281,-8.5625 22.75,-5.98958 22.75,-3.125 C22.75,1.82292 25.3906,5.82813 30.6719,8.89063 C31.1198,9.34896 31.3438,9.83854 31.3438,10.3594 C31.3438,10.8802 31.1198,11.3646 30.6719,11.8125 C30.276,12.2708 29.7865,12.5 29.2031,12.5 C29.1406,12.5 28.849,12.4375 28.3281,12.3125 C24.6094,10.2917 21.7448,7.6875 19.7344,4.5 C17.8385,1.10417 16.8906,-2.31771 16.8906,-5.76563 C16.8906,-10.2552 18.2917,-14.3229 21.0938,-17.9688 C24.0208,-21.6146 27.8281,-23.9583 32.5156,-25 C30.6927,-32.2917 29.1979,-37.9896 28.0313,-42.0938 C26.9896,-40.9167 25.737,-39.5 24.2734,-37.8438 C22.8099,-36.1875 21.9479,-35.1927 21.6875,-34.8594 C19.3438,-31.8073 17.5521,-29.4323 16.3125,-27.7344 C14.0938,-24.6719 12.4635,-22.0365 11.4219,-19.8281 C10.3177,-17.349 9.34375,-14.6458 8.5,-11.7188 C7.65625,-8.91667 7.23438,-5.92188 7.23438,-2.73438 M39.8438,-102.047 C34.9583,-99.6406 31.1198,-96.1927 28.3281,-91.7031 C25.4635,-87.0781 24.0313,-82.099 24.0313,-76.7656 C24.0313,-72.0781 25.2031,-65.7604 27.5469,-57.8125 C32.2344,-63.4792 35.75,-68.7188 38.0938,-73.5313 C40.5625,-78.6146 41.7969,-83.9219 41.7969,-89.4531 C41.7969,-93.6198 41.1458,-97.8177 39.8438,-102.047"/>
<path class="TimeSig" transform="matrix(0.907087,0,0,0.907087,308.806,620.787)" d="M22.8594,25 C20.901,25 19.1406,24.6432 17.5781,23.9297 C16.0156,23.2161 14.9115,22.4688 14.2656,21.6875 C13.4115,20.7083 12.5625,19.9583 11.7188,19.4375 C10.6771,18.7188 9.60417,18.3594 8.5,18.3594 C6.80208,18.3594 5.40104,18.8802 4.29688,19.9219 C3.13021,20.901 2.47917,22.2344 2.34375,23.9219 C2.21875,24.6406 1.82813,25 1.17188,25 C0.390625,25 0,24.6406 0,23.9219 C0,21.3906 0.588542,19.1146 1.76563,17.0938 C2.93229,15.0104 4.36458,13.2865 6.0625,11.9219 C7.48958,10.6823 9.375,9.18229 11.7188,7.42188 C12.1146,7.09896 12.9453,6.41667 14.2109,5.375 C15.4766,4.33333 16.5365,3.45313 17.3906,2.73438 C19.0781,1.30729 20.5417,-0.583333 21.7813,-2.9375 C22.9479,-5.28125 23.5313,-7.81771 23.5313,-10.5469 C23.5313,-13.8698 22.9792,-16.7344 21.875,-19.1406 C20.7083,-21.4844 18.9167,-22.6563 16.5,-22.6563 C15.0104,-22.6563 13.8073,-22.3333 12.8906,-21.6875 C11.9115,-21.0313 11.4219,-20.151 11.4219,-19.0469 C11.4219,-18.1302 12.0078,-16.9896 13.1797,-15.625 C14.3516,-14.2604 14.9375,-13.1198 14.9375,-12.2031 C14.9375,-10.2552 14.2552,-8.59896 12.8906,-7.23438 C11.5885,-5.93229 9.99479,-5.28125 8.10938,-5.28125 C6.15104,-5.28125 4.48958,-5.96354 3.125,-7.32813 C1.82292,-8.75521 1.17188,-10.3802 1.17188,-12.2031 C1.17188,-15.9219 2.66927,-18.9844 5.66406,-21.3906 C8.65885,-23.7969 12.2708,-25 16.5,-25 C21.5208,-25 25.8854,-23.6354 29.5938,-20.9063 C33.3021,-18.3021 35.1563,-14.849 35.1563,-10.5469 C35.1563,-7.61979 34.6354,-5.11458 33.5938,-3.03125 C32.6146,-0.8125 31.151,0.916667 29.2031,2.15625 C26.9844,3.58333 25.0625,4.6875 23.4375,5.46875 C21.1563,6.51042 18.8802,7.48958 16.6094,8.40625 C13.8698,9.51042 11.75,10.5521 10.25,11.5313 C11.1042,11.3333 11.9844,11.2344 12.8906,11.2344 C15.8906,11.2344 19.0156,12.2083 22.2656,14.1563 C25.5885,16.1146 28.1615,17.0938 29.9844,17.0938 C31.0885,17.0938 31.9688,16.8958 32.625,16.5 C33.2708,16.1146 33.6927,15.6927 33.8906,15.2344 C34.151,14.5885 34.3802,14.1354 34.5781,13.875 C34.8385,13.4792 35.1615,13.2813 35.5469,13.2813 C36.3281,13.2813 36.7188,13.6719 36.7188,14.4531 C36.7188,16.276 35.4167,18.4896 32.8125,21.0938 C30.2708,23.6979 26.9531,25 22.8594,25"/>
<path class="TimeSig" transform="matrix(0.907087,0,0,0.907087,307.176,666.22)" d="M22.4688,-23.7344 C24.4167,-23.7344 26.0755,-23.9609 27.4453,-24.4141 C28.8151,-24.8672 29.6927,-25.0938 30.0781,-25.0938 C30.5365,-25.0938 30.8958,-24.9635 31.1563,-24.7031 C31.3542,-24.5156 31.4844,-24.2917 31.5469,-24.0313 C31.5469,-23.8958 31.4792,-23.6979 31.3438,-23.4375 L2.9375,9.57813 L19.625,9.57813 L19.625,-3.51563 C19.625,-4.35938 19.8542,-5.07813 20.3125,-5.67188 C21.0938,-6.31771 21.7448,-6.70833 22.2656,-6.84375 C23.1094,-7.22917 24.151,-8.14063 25.3906,-9.57813 C26.4323,-10.7448 27.6719,-12.7917 29.1094,-15.7188 C29.2969,-16.1146 29.5885,-16.3125 29.9844,-16.3125 C30.7656,-16.3125 31.2188,-15.8542 31.3438,-14.9375 L31.3438,9.57813 L38.4844,9.57813 C39.3906,9.57813 39.9115,10.0625 40.0469,11.0313 C40.0469,12.0104 39.526,12.5 38.4844,12.5 L31.3438,12.5 L31.3438,13.2813 C31.3438,15.8854 31.9948,18.099 33.2969,19.9219 C34.7969,21.7448 36.5573,22.6563 38.5781,22.6563 C39.3594,22.6563 39.75,23.0469 39.75,23.8281 C39.75,24.6094 39.3594,25 38.5781,25 C37.2135,25 35,24.8073 31.9375,24.4219 C29.1354,23.9635 26.9531,23.7344 25.3906,23.7344 C23.7656,23.7344 21.5833,23.9635 18.8438,24.4219 C15.9167,24.8073 13.7396,25 12.3125,25 C11.5313,25 11.1406,24.6094 11.1406,23.8281 C11.1406,23.0469 11.5313,22.6563 12.3125,22.6563 C14.3229,22.6563 16.0781,21.7448 17.5781,19.9219 C18.9427,18.0365 19.625,15.8229 19.625,13.2813 L19.625,12.5 L2.9375,12.5 C1.82292,12.5 1.04167,12.2396 0.59375,11.7188 C0.0625,11.3333 -0.203125,10.8125 -0.203125,10.1563 C-0.203125,9.95833 0.286458,9.27604 1.26563,8.10938 C2.38021,6.80729 3.55208,5.21354 4.78125,3.32813 C6.21875,1.10938 7.58854,-1.17188 8.89063,-3.51563 C10.3177,-6.18229 11.4583,-9.24479 12.3125,-12.7031 C13.2813,-16.2135 13.7656,-19.7917 13.7656,-23.4375 C13.7656,-24.4792 14.224,-25 15.1406,-25 C15.3385,-25 15.7604,-24.901 16.4063,-24.7031 C16.6042,-24.6406 17.013,-24.5443 17.6328,-24.4141 C18.2526,-24.2839 18.7552,-24.1563 19.1406,-24.0313 C20.3177,-23.8333 21.4271,-23.7344 22.4688,-23.7344"/>
<path class="Articulation" transform="matrix(0.907087,0,0,0.907087,2516.91,1103.83)" d="M1.46875,8.5 C0.489583,7.52083 0,6.34896 0,4.98438 C0,3.61979 0.489583,2.44792 1.46875,1.46875 C2.44792,0.489583 3.61979,0 4.98438,0 C6.34896,0 7.52083,0.489583 8.5,1.46875 C9.47917,2.44792 9.96875,3.61979 9.96875,4.98438 C9.96875,6.34896 9.47917,7.52083 8.5,8.5 C7.52083,9.47917 6.34896,9.96875 4.98438,9.96875 C3.61979,9.96875 2.44792,9.47917 1.46875,8.5"/>
<path class="Articulation" transform="matrix(0.907087,0,0,0.907087,2301.69,1103.83)" d="M1.46875,8.5 C0.489583,7.52083 0,6.34896 0,4.98438 C0,3.61979 0.489583,2.44792 1.46875,1.46875 C2.44792,0.489583 3.61979,0 4.98438,0 C6.34896,0 7.52083,0.489583 8.5,1.46875 C9.47917,2.44792 9.96875,3.61979 9.96875,4.98438 C9.96875,6.34896 9.47917,7.52083 8.5,8.5 C7.52083,9.47917 6.34896,9.96875 4.98438,9.96875 C3.61979,9.96875 2.44792,9.47917 1.46875,8.5"/>
<path class="Beam" fill-rule="evenodd" d="M1935.65,983.348 L2202.36,1006.28 L2202.36,1017.66 L1935.65,994.728 L1935.65,983.348 "/>
<path class="Beam" fill-rule="evenodd" d="M1935.65,1000.36 L2202.36,1023.29 L2202.36,1034.67 L1935.65,1011.74 L1935.65,1000.36 "/>
<path class="Beam" fill-rule="evenodd" d="M1557.05,1153.7 L1823.77,1159.43 L1823.77,1170.77 L1557.05,1165.04 L1557.05,1153.7 "/>
<path class="Beam" fill-rule="evenodd" d="M1557.05,1136.69 L1823.77,1142.42 L1823.77,1153.77 L1557.05,1148.03 L1557.05,1136.69 "/>
<path class="Beam" fill-rule="evenodd" d="M1177.03,1153.7 L1441.87,1153.7 L1441.87,1165.04 L1177.03,1165.04 L1177.03,1153.7 "/>
<path class="Beam" fill-rule="evenodd" d="M1177.03,1136.69 L1441.87,1136.69 L1441.87,1148.03 L1177.03,1148.03 L1177.03,1136.69 "/>
<path class="Beam" fill-rule="evenodd" d="M919.419,1108.34 L1092.68,1114.11 L1092.68,1125.46 L919.419,1119.69 L919.419,1108.34 "/>
<path class="Beam" fill-rule="evenodd" d="M1092.68,1097.1 L1062.75,1096.11 L1062.75,1107.45 L1092.68,1108.45 L1092.68,1097.1 "/>
<path class="Beam" fill-rule="evenodd" d="M630.845,1114.02 L762.659,1114.02 L762.659,1125.35 L630.845,1125.35 L630.845,1114.02 "/>
<path class="Beam" fill-rule="evenodd" d="M340.895,1136.64 L504.926,1113.54 L504.926,1125 L340.895,1148.09 L340.895,1136.64 "/>
<path class="Beam" fill-rule="evenodd" d="M340.895,1119.63 L424.384,1107.88 L424.384,1119.33 L340.895,1131.08 L340.895,1119.63 "/>
<path class="Beam" fill-rule="evenodd" d="M2456.2,705.798 L2627.06,723.104 L2627.06,734.501 L2456.2,717.194 L2456.2,705.798 "/>
<path class="Beam" fill-rule="evenodd" d="M2456.2,688.79 L2543.11,697.593 L2543.11,708.989 L2456.2,700.187 L2456.2,688.79 "/>
<path class="Beam" fill-rule="evenodd" d="M2208.44,677.477 L2375.19,683.248 L2375.19,694.594 L2208.44,688.822 L2208.44,677.477 "/>
<path class="Beam" fill-rule="evenodd" d="M2375.19,666.24 L2345.26,665.204 L2345.26,676.55 L2375.19,677.586 L2375.19,666.24 "/>
<path class="Beam" fill-rule="evenodd" d="M1854,705.827 L2099.65,705.827 L2099.65,717.165 L1854,717.165 L1854,705.827 "/>
<path class="Beam" fill-rule="evenodd" d="M1854,688.819 L2099.65,688.819 L2099.65,700.158 L1854,700.158 L1854,688.819 "/>
<path class="Beam" fill-rule="evenodd" d="M1530.39,722.81 L1776.04,699.857 L1776.04,711.245 L1530.39,734.198 L1530.39,722.81 "/>
<path class="Beam" fill-rule="evenodd" d="M1530.39,705.802 L1776.04,682.85 L1776.04,694.238 L1530.39,717.19 L1530.39,705.802 "/>
<path class="Beam" fill-rule="evenodd" d="M1197.3,705.798 L1368.17,723.104 L1368.17,734.501 L1197.3,717.194 L1197.3,705.798 "/>
<path class="Beam" fill-rule="evenodd" d="M1197.3,688.79 L1284.21,697.593 L1284.21,708.989 L1197.3,700.187 L1197.3,688.79 "/>
<path class="Beam" fill-rule="evenodd" d="M949.544,677.477 L1116.29,683.248 L1116.29,694.594 L949.544,688.822 L949.544,677.477 "/>
<path class="Beam" fill-rule="evenodd" d="M1116.29,666.24 L1086.36,665.204 L1086.36,676.55 L1116.29,677.586 L1116.29,666.24 "/>
<path class="Beam" fill-rule="evenodd" d="M669.304,683.15 L796.951,683.15 L796.951,694.488 L669.304,694.488 L669.304,683.15 "/>
<path class="Beam" fill-rule="evenodd" d="M388.729,705.767 L547.552,682.661 L547.552,694.119 L388.729,717.225 L388.729,705.767 "/>
<path class="Beam" fill-rule="evenodd" d="M388.729,688.759 L469.615,676.992 L469.615,688.45 L388.729,700.217 L388.729,688.759 "/>
<path class="NoteDot" transform="matrix(0.907087,0,0,0.907087,957.212,1040.32)" d="M1.66406,4.00781 C0.554688,2.89844 0,1.5625 0,0 C0,-1.5625 0.554688,-2.89844 1.66406,-4.00781 C2.77344,-5.11719 4.10938,-5.67188 5.67188,-5.67188 C7.23438,-5.67188 8.56771,-5.11719 9.67188,-4.00781 C10.776,-2.89844 11.3281,-1.5625 11.3281,0 C11.3281,1.5625 10.776,2.89844 9.67188,4.00781 C8.56771,5.11719 7.23438,5.67188 5.67188,5.67188 C4.10938,5.67188 2.77344,5.11719 1.66406,4.00781"/>
<path class="NoteDot" transform="matrix(0.907087,0,0,0.907087,2246.23,609.449)" d="M1.66406,4.00781 C0.554688,2.89844 0,1.5625 0,0 C0,-1.5625 0.554688,-2.89844 1.66406,-4.00781 C2.77344,-5.11719 4.10938,-5.67188 5.67188,-5.67188 C7.23438,-5.67188 8.56771,-5.11719 9.67188,-4.00781 C10.776,-2.89844 11.3281,-1.5625 11.3281,0 C11.3281,1.5625 10.776,2.89844 9.67188,4.00781 C8.56771,5.11719 7.23438,5.67188 5.67188,5.67188 C4.10938,5.67188 2.77344,5.11719 1.66406,4.00781"/>
<path class="NoteDot" transform="matrix(0.907087,0,0,0.907087,987.337,609.449)" d="M1.66406,4.00781 C0.554688,2.89844 0,1.5625 0,0 C0,-1.5625 0.554688,-2.89844 1.66406,-4.00781 C2.77344,-5.11719 4.10938,-5.67188 5.67188,-5.67188 C7.23438,-5.67188 8.56771,-5.11719 9.67188,-4.00781 C10.776,-2.89844 11.3281,-1.5625 11.3281,0 C11.3281,1.5625 10.776,2.89844 9.67188,4.00781 C8.56771,5.11719 7.23438,5.67188 5.67188,5.67188 C4.10938,5.67188 2.77344,5.11719 1.66406,4.00781"/>
</svg>
