<?xml version="1.0" encoding="UTF-8" standalone="no"?>
<svg width="2977.2px" height="4208.4px" viewBox="0 0 2977.2 4208.4"
 xmlns="http://www.w3.org/2000/svg" xmlns:xlink="http://www.w3.org/1999/xlink" version="1.2" baseProfile="tiny">
<title>Radu_mami</title>
<desc>Generated by MuseScore 3.0.2</desc>
<polyline class="StaffLines" fill="none" stroke="#000000" stroke-width="2.00" stroke-linejoin="bevel" points="141.732,566.733 2835.47,566.733"/>
<polyline class="StaffLines" fill="none" stroke="#000000" stroke-width="2.00" stroke-linejoin="bevel" points="141.732,591.733 2835.47,591.733"/>
<polyline class="StaffLines" fill="none" stroke="#000000" stroke-width="2.00" stroke-linejoin="bevel" points="141.732,616.733 2835.47,616.733"/>
<polyline class="StaffLines" fill="none" stroke="#000000" stroke-width="2.00" stroke-linejoin="bevel" points="141.732,641.733 2835.47,641.733"/>
<polyline class="StaffLines" fill="none" stroke="#000000" stroke-width="2.00" stroke-linejoin="bevel" points="141.732,666.733 2835.47,666.733"/>
<polyline class="StaffLines" fill="none" stroke="#000000" stroke-width="2.00" stroke-linejoin="bevel" points="141.732,1041.73 2835.47,1041.73"/>
<polyline class="StaffLines" fill="none" stroke="#000000" stroke-width="2.00" stroke-linejoin="bevel" points="141.732,1066.73 2835.47,1066.73"/>
<polyline class="StaffLines" fill="none" stroke="#000000" stroke-width="2.00" stroke-linejoin="bevel" points="141.732,1091.73 2835.47,1091.73"/>
<polyline class="StaffLines" fill="none" stroke="#000000" stroke-width="2.00" stroke-linejoin="bevel" points="141.732,1116.73 2835.47,1116.73"/>
<polyline class="StaffLines" fill="none" stroke="#000000" stroke-width="2.00" stroke-linejoin="bevel" points="141.732,1141.73 2835.47,1141.73"/>
<polyline class="StaffLines" fill="none" stroke="#000000" stroke-width="2.00" stroke-linejoin="bevel" points="141.732,1516.73 2835.47,1516.73"/>
<polyline class="StaffLines" fill="none" stroke="#000000" stroke-width="2.00" stroke-linejoin="bevel" points="141.732,1541.73 2835.47,1541.73"/>
<polyline class="StaffLines" fill="none" stroke="#000000" stroke-width="2.00" stroke-linejoin="bevel" points="141.732,1566.73 2835.47,1566.73"/>
<polyline class="StaffLines" fill="none" stroke="#000000" stroke-width="2.00" stroke-linejoin="bevel" points="141.732,1591.73 2835.47,1591.73"/>
<polyline class="StaffLines" fill="none" stroke="#000000" stroke-width="2.00" stroke-linejoin="bevel" points="141.732,1616.73 2835.47,1616.73"/>
<path class="Text" d="M1292.19,296.598 L1270.98,296.598 L1244.08,259.442 C1242.09,259.526 1240.47,259.567 1239.22,259.567 C1238.71,259.567 1238.16,259.557 1237.58,259.536 C1236.99,259.515 1236.39,259.484 1235.76,259.442 L1235.76,282.536 C1235.76,287.536 1236.31,290.64 1237.4,291.848 C1238.88,293.567 1241.11,294.427 1244.08,294.427 L1247.19,294.427 L1247.19,296.598 L1213.14,296.598 L1213.14,294.427 L1216.14,294.427 C1219.49,294.427 1221.89,293.333 1223.34,291.145 C1224.16,289.937 1224.58,287.067 1224.58,282.536 L1224.58,231.208 C1224.58,226.208 1224.03,223.104 1222.94,221.895 C1221.4,220.177 1219.14,219.317 1216.14,219.317 L1213.14,219.317 L1213.14,217.145 L1242.09,217.145 C1250.53,217.145 1256.75,217.76 1260.76,218.989 C1264.76,220.218 1268.16,222.484 1270.95,225.786 C1273.74,229.088 1275.14,233.026 1275.14,237.598 C1275.14,242.473 1273.55,246.708 1270.37,250.302 C1267.18,253.895 1262.25,256.437 1255.56,257.927 L1271.97,280.723 C1275.72,285.953 1278.94,289.427 1281.64,291.145 C1284.34,292.864 1287.85,293.958 1292.19,294.427 L1292.19,296.598 M1235.76,255.755 C1236.5,255.755 1237.15,255.765 1237.69,255.786 C1238.24,255.807 1238.69,255.817 1239.04,255.817 C1246.62,255.817 1252.33,254.177 1256.18,250.895 C1260.03,247.614 1261.95,243.432 1261.95,238.348 C1261.95,233.39 1260.4,229.359 1257.29,226.255 C1254.19,223.151 1250.08,221.598 1244.97,221.598 C1242.7,221.598 1239.63,221.968 1235.76,222.708 L1235.76,255.755 M1325.25,288.864 C1319.75,293.124 1316.29,295.583 1314.89,296.239 C1312.77,297.218 1310.52,297.708 1308.14,297.708 C1304.43,297.708 1301.38,296.44 1298.97,293.903 C1296.57,291.367 1295.37,288.026 1295.37,283.88 C1295.37,281.265 1295.96,278.999 1297.12,277.083 C1298.73,274.427 1301.51,271.927 1305.47,269.583 C1309.44,267.239 1316.03,264.39 1325.25,261.036 L1325.25,258.927 C1325.25,253.572 1324.4,249.898 1322.7,247.903 C1321,245.908 1318.53,244.911 1315.29,244.911 C1312.84,244.911 1310.88,245.578 1309.44,246.911 C1307.95,248.234 1307.2,249.755 1307.2,251.473 L1307.33,254.88 C1307.33,256.671 1306.87,258.057 1305.95,259.036 C1305.03,260.015 1303.83,260.505 1302.34,260.505 C1300.89,260.505 1299.71,259.997 1298.79,258.981 C1297.88,257.966 1297.42,256.578 1297.42,254.817 C1297.42,251.463 1299.14,248.38 1302.58,245.567 C1306.01,242.755 1310.84,241.348 1317.04,241.348 C1321.82,241.348 1325.72,242.145 1328.76,243.739 C1331.08,244.958 1332.78,246.854 1333.87,249.427 C1334.57,251.104 1334.92,254.541 1334.92,259.739 L1334.92,277.958 C1334.92,283.083 1335.02,286.221 1335.22,287.372 C1335.41,288.523 1335.74,289.294 1336.19,289.684 C1336.63,290.075 1337.15,290.27 1337.73,290.27 C1338.36,290.27 1338.9,290.135 1339.37,289.864 C1340.2,289.354 1341.78,287.927 1344.12,285.583 L1344.12,288.864 C1339.75,294.729 1335.57,297.661 1331.58,297.661 C1329.67,297.661 1328.15,296.994 1327.01,295.661 C1325.88,294.328 1325.29,292.062 1325.25,288.864 M1325.25,285.052 L1325.25,264.598 C1319.35,266.942 1315.54,268.604 1313.83,269.583 C1310.74,271.302 1308.54,273.098 1307.21,274.973 C1305.88,276.848 1305.22,278.901 1305.22,281.13 C1305.22,283.942 1306.06,286.276 1307.73,288.13 C1309.41,289.984 1311.34,290.911 1313.53,290.911 C1316.5,290.911 1320.4,288.958 1325.25,285.052 M1385.75,290.567 C1383.13,293.296 1380.58,295.257 1378.08,296.45 C1375.58,297.643 1372.88,298.239 1370,298.239 C1364.13,298.239 1359.01,295.789 1354.64,290.887 C1350.26,285.986 1348.08,279.687 1348.08,271.989 C1348.08,264.291 1350.5,257.249 1355.34,250.864 C1360.19,244.479 1366.41,241.286 1374.03,241.286 C1378.76,241.286 1382.66,242.791 1385.75,245.802 L1385.75,235.895 C1385.75,229.76 1385.6,225.989 1385.31,224.583 C1385.02,223.177 1384.56,222.221 1383.94,221.716 C1383.31,221.21 1382.53,220.958 1381.59,220.958 C1380.58,220.958 1379.23,221.27 1377.54,221.895 L1376.79,219.833 L1392.78,213.27 L1395.42,213.27 L1395.42,275.333 C1395.42,281.614 1395.57,285.45 1395.86,286.841 C1396.15,288.231 1396.62,289.2 1397.26,289.747 C1397.91,290.294 1398.66,290.567 1399.53,290.567 C1400.58,290.567 1401.99,290.234 1403.75,289.567 L1404.39,291.614 L1388.45,298.239 L1385.75,298.239 L1385.75,290.567 M1385.75,286.458 L1385.75,258.802 C1385.52,256.145 1384.82,253.723 1383.65,251.536 C1382.47,249.348 1380.92,247.697 1378.99,246.583 C1377.06,245.468 1375.17,244.911 1373.33,244.911 C1369.89,244.911 1366.83,246.458 1364.14,249.552 C1360.58,253.614 1358.79,259.552 1358.79,267.364 C1358.79,275.249 1360.51,281.291 1363.95,285.489 C1367.39,289.687 1371.22,291.786 1375.44,291.786 C1379,291.786 1382.44,290.01 1385.75,286.458 M1454.89,242.927 L1454.89,275.442 C1454.89,281.651 1455.04,285.45 1455.33,286.841 C1455.63,288.231 1456.1,289.2 1456.74,289.747 C1457.38,290.294 1458.13,290.567 1459,290.567 C1460.21,290.567 1461.57,290.234 1463.09,289.567 L1463.92,291.614 L1447.86,298.239 L1445.23,298.239 L1445.23,286.864 C1440.62,291.864 1437.1,295.01 1434.68,296.302 C1432.26,297.593 1429.7,298.239 1427,298.239 C1424,298.239 1421.39,297.369 1419.19,295.63 C1416.98,293.89 1415.44,291.653 1414.58,288.919 C1413.72,286.184 1413.29,282.317 1413.29,277.317 L1413.29,253.348 C1413.29,250.817 1413.02,249.062 1412.47,248.083 C1411.93,247.104 1411.12,246.351 1410.04,245.825 C1408.97,245.299 1407.03,245.057 1404.22,245.098 L1404.22,242.927 L1423.01,242.927 L1423.01,278.848 C1423.01,283.848 1423.88,287.13 1425.62,288.692 C1427.36,290.255 1429.46,291.036 1431.92,291.036 C1433.61,291.036 1435.51,290.507 1437.64,289.45 C1439.76,288.393 1442.29,286.38 1445.23,283.411 L1445.23,253.005 C1445.23,249.953 1444.67,247.89 1443.56,246.817 C1442.45,245.744 1440.13,245.171 1436.61,245.098 L1436.61,242.927 L1454.89,242.927 M1513.78,252.77 C1517.69,248.864 1519.99,246.619 1520.7,246.036 C1522.45,244.546 1524.34,243.393 1526.37,242.575 C1528.4,241.757 1530.42,241.348 1532.42,241.348 C1535.77,241.348 1538.66,242.325 1541.08,244.278 C1543.51,246.231 1545.13,249.062 1545.95,252.77 C1549.97,248.083 1553.37,245.007 1556.15,243.544 C1558.92,242.08 1561.77,241.348 1564.7,241.348 C1567.56,241.348 1570.08,242.08 1572.29,243.544 C1574.49,245.007 1576.24,247.401 1577.53,250.723 C1578.39,252.984 1578.83,256.536 1578.83,261.38 L1578.83,284.473 C1578.83,287.828 1579.08,290.13 1579.58,291.38 C1579.97,292.244 1580.7,292.979 1581.75,293.583 C1582.8,294.187 1584.52,294.489 1586.9,294.489 L1586.9,296.598 L1560.42,296.598 L1560.42,294.489 L1561.53,294.489 C1563.84,294.489 1565.64,294.041 1566.92,293.145 C1567.83,292.52 1568.47,291.52 1568.86,290.145 C1569.01,289.489 1569.09,287.598 1569.09,284.473 L1569.09,261.38 C1569.09,257.005 1568.57,253.921 1567.51,252.13 C1565.99,249.63 1563.55,248.38 1560.19,248.38 C1558.11,248.38 1556.03,248.895 1553.94,249.927 C1551.85,250.958 1549.33,252.88 1546.36,255.692 L1546.25,256.348 L1546.36,258.864 L1546.36,284.473 C1546.36,288.14 1546.56,290.424 1546.97,291.325 C1547.39,292.226 1548.16,292.979 1549.29,293.583 C1550.42,294.187 1552.35,294.489 1555.09,294.489 L1555.09,296.598 L1527.97,296.598 L1527.97,294.489 C1530.94,294.489 1532.97,294.137 1534.08,293.434 C1535.19,292.731 1535.97,291.677 1536.4,290.27 C1536.59,289.604 1536.69,287.671 1536.69,284.473 L1536.69,261.38 C1536.69,257.005 1536.04,253.859 1534.76,251.942 C1533.04,249.442 1530.64,248.192 1527.54,248.192 C1525.44,248.192 1523.35,248.76 1521.28,249.895 C1518.04,251.614 1515.54,253.546 1513.78,255.692 L1513.78,284.473 C1513.78,287.984 1514.02,290.268 1514.51,291.325 C1515,292.382 1515.73,293.174 1516.69,293.7 C1517.64,294.226 1519.59,294.489 1522.51,294.489 L1522.51,296.598 L1495.97,296.598 L1495.97,294.489 C1498.42,294.489 1500.14,294.226 1501.12,293.7 C1502.1,293.174 1502.84,292.333 1503.35,291.177 C1503.85,290.02 1504.11,287.786 1504.11,284.473 L1504.11,263.958 C1504.11,258.062 1503.94,254.255 1503.59,252.536 C1503.31,251.244 1502.88,250.354 1502.29,249.864 C1501.71,249.374 1500.91,249.13 1499.89,249.13 C1498.79,249.13 1497.49,249.427 1495.97,250.02 L1495.09,247.911 L1511.26,241.348 L1513.78,241.348 L1513.78,252.77 M1621.25,288.864 C1615.75,293.124 1612.29,295.583 1610.89,296.239 C1608.77,297.218 1606.52,297.708 1604.14,297.708 C1600.43,297.708 1597.38,296.44 1594.97,293.903 C1592.57,291.367 1591.37,288.026 1591.37,283.88 C1591.37,281.265 1591.96,278.999 1593.12,277.083 C1594.73,274.427 1597.51,271.927 1601.47,269.583 C1605.44,267.239 1612.03,264.39 1621.25,261.036 L1621.25,258.927 C1621.25,253.572 1620.4,249.898 1618.7,247.903 C1617,245.908 1614.53,244.911 1611.29,244.911 C1608.84,244.911 1606.88,245.578 1605.44,246.911 C1603.95,248.234 1603.2,249.755 1603.2,251.473 L1603.33,254.88 C1603.33,256.671 1602.87,258.057 1601.95,259.036 C1601.03,260.015 1599.83,260.505 1598.34,260.505 C1596.89,260.505 1595.71,259.997 1594.79,258.981 C1593.88,257.966 1593.42,256.578 1593.42,254.817 C1593.42,251.463 1595.14,248.38 1598.58,245.567 C1602.01,242.755 1606.84,241.348 1613.04,241.348 C1617.82,241.348 1621.72,242.145 1624.76,243.739 C1627.08,244.958 1628.78,246.854 1629.87,249.427 C1630.57,251.104 1630.92,254.541 1630.92,259.739 L1630.92,277.958 C1630.92,283.083 1631.02,286.221 1631.22,287.372 C1631.41,288.523 1631.74,289.294 1632.19,289.684 C1632.63,290.075 1633.15,290.27 1633.73,290.27 C1634.36,290.27 1634.9,290.135 1635.37,289.864 C1636.2,289.354 1637.78,287.927 1640.12,285.583 L1640.12,288.864 C1635.75,294.729 1631.57,297.661 1627.58,297.661 C1625.67,297.661 1624.15,296.994 1623.01,295.661 C1621.88,294.328 1621.29,292.062 1621.25,288.864 M1621.25,285.052 L1621.25,264.598 C1615.35,266.942 1611.54,268.604 1609.83,269.583 C1606.74,271.302 1604.54,273.098 1603.21,274.973 C1601.88,276.848 1601.22,278.901 1601.22,281.13 C1601.22,283.942 1602.06,286.276 1603.73,288.13 C1605.41,289.984 1607.34,290.911 1609.53,290.911 C1612.5,290.911 1616.4,288.958 1621.25,285.052 M1659.78,252.77 C1663.69,248.864 1665.99,246.619 1666.7,246.036 C1668.45,244.546 1670.34,243.393 1672.37,242.575 C1674.4,241.757 1676.42,241.348 1678.42,241.348 C1681.77,241.348 1684.66,242.325 1687.08,244.278 C1689.51,246.231 1691.13,249.062 1691.95,252.77 C1695.97,248.083 1699.37,245.007 1702.15,243.544 C1704.92,242.08 1707.77,241.348 1710.7,241.348 C1713.56,241.348 1716.08,242.08 1718.29,243.544 C1720.49,245.007 1722.24,247.401 1723.53,250.723 C1724.39,252.984 1724.83,256.536 1724.83,261.38 L1724.83,284.473 C1724.83,287.828 1725.08,290.13 1725.58,291.38 C1725.97,292.244 1726.7,292.979 1727.75,293.583 C1728.8,294.187 1730.52,294.489 1732.9,294.489 L1732.9,296.598 L1706.42,296.598 L1706.42,294.489 L1707.53,294.489 C1709.84,294.489 1711.64,294.041 1712.92,293.145 C1713.83,292.52 1714.47,291.52 1714.86,290.145 C1715.01,289.489 1715.09,287.598 1715.09,284.473 L1715.09,261.38 C1715.09,257.005 1714.57,253.921 1713.51,252.13 C1711.99,249.63 1709.55,248.38 1706.19,248.38 C1704.11,248.38 1702.03,248.895 1699.94,249.927 C1697.85,250.958 1695.33,252.88 1692.36,255.692 L1692.25,256.348 L1692.36,258.864 L1692.36,284.473 C1692.36,288.14 1692.56,290.424 1692.97,291.325 C1693.39,292.226 1694.16,292.979 1695.29,293.583 C1696.42,294.187 1698.35,294.489 1701.09,294.489 L1701.09,296.598 L1673.97,296.598 L1673.97,294.489 C1676.94,294.489 1678.97,294.137 1680.08,293.434 C1681.19,292.731 1681.97,291.677 1682.4,290.27 C1682.59,289.604 1682.69,287.671 1682.69,284.473 L1682.69,261.38 C1682.69,257.005 1682.04,253.859 1680.76,251.942 C1679.04,249.442 1676.64,248.192 1673.54,248.192 C1671.44,248.192 1669.35,248.76 1667.28,249.895 C1664.04,251.614 1661.54,253.546 1659.78,255.692 L1659.78,284.473 C1659.78,287.984 1660.02,290.268 1660.51,291.325 C1661,292.382 1661.73,293.174 1662.69,293.7 C1663.64,294.226 1665.59,294.489 1668.51,294.489 L1668.51,296.598 L1641.97,296.598 L1641.97,294.489 C1644.42,294.489 1646.14,294.226 1647.12,293.7 C1648.1,293.174 1648.84,292.333 1649.35,291.177 C1649.85,290.02 1650.11,287.786 1650.11,284.473 L1650.11,263.958 C1650.11,258.062 1649.94,254.255 1649.59,252.536 C1649.31,251.244 1648.88,250.354 1648.29,249.864 C1647.71,249.374 1646.91,249.13 1645.89,249.13 C1644.79,249.13 1643.49,249.427 1641.97,250.02 L1641.09,247.911 L1657.26,241.348 L1659.78,241.348 L1659.78,252.77 M1750.5,213.27 C1752.13,213.27 1753.53,213.848 1754.69,215.005 C1755.84,216.161 1756.42,217.557 1756.42,219.192 C1756.42,220.838 1755.84,222.247 1754.69,223.419 C1753.53,224.591 1752.13,225.177 1750.5,225.177 C1748.85,225.177 1747.44,224.591 1746.27,223.419 C1745.1,222.247 1744.51,220.838 1744.51,219.192 C1744.51,217.557 1745.09,216.161 1746.25,215.005 C1747.4,213.848 1748.82,213.27 1750.5,213.27 M1755.36,241.348 L1755.36,284.473 C1755.36,287.828 1755.6,290.062 1756.09,291.177 C1756.58,292.291 1757.31,293.122 1758.26,293.669 C1759.22,294.216 1760.97,294.489 1763.5,294.489 L1763.5,296.598 L1737.44,296.598 L1737.44,294.489 C1740.05,294.489 1741.81,294.234 1742.7,293.723 C1743.6,293.213 1744.31,292.372 1744.84,291.2 C1745.37,290.028 1745.64,287.786 1745.64,284.473 L1745.64,263.786 C1745.64,257.963 1745.46,254.192 1745.11,252.473 C1744.84,251.223 1744.41,250.354 1743.82,249.864 C1743.23,249.374 1742.43,249.13 1741.42,249.13 C1740.33,249.13 1739,249.427 1737.44,250.02 L1736.61,247.911 L1752.78,241.348 L1755.36,241.348 "/>
<path class="MeasureNumber" d="M127.545,1443.01 C127.066,1443.01 126.107,1443.31 124.67,1443.89 L124.67,1443.34 L131.873,1439.7 L132.185,1439.78 L132.185,1463.78 C132.185,1464.74 132.425,1465.36 132.904,1465.65 C133.383,1465.95 134.409,1466.11 135.982,1466.14 L135.982,1466.73 L124.951,1466.73 L124.951,1466.14 C126.441,1466.08 127.446,1465.85 127.967,1465.47 C128.487,1465.08 128.748,1464.26 128.748,1463.01 L128.748,1444.89 C128.748,1443.64 128.347,1443.01 127.545,1443.01 M159.107,1457.5 L159.107,1460.06 L155.029,1460.06 L155.029,1466.73 L151.951,1466.73 L151.951,1460.06 L140.717,1460.06 L140.717,1457.5 L153.264,1439.7 L155.029,1439.7 L155.029,1457.5 L159.107,1457.5 M151.904,1457.5 L151.904,1443.78 L142.31,1457.5 L151.904,1457.5 "/>
<path class="MeasureNumber" d="M134.092,992.608 L133.967,991.811 C137.008,991.28 139.589,989.983 141.709,987.92 C143.829,985.858 145.3,983.196 146.123,979.936 C144.154,981.478 142.159,982.248 140.139,982.248 C137.972,982.248 136.23,981.501 134.912,980.006 C133.594,978.511 132.935,976.545 132.935,974.108 C132.935,971.399 133.727,969.142 135.31,967.334 C136.894,965.527 138.873,964.623 141.248,964.623 C143.831,964.623 145.951,965.681 147.607,967.795 C149.264,969.91 150.092,972.629 150.092,975.952 C150.092,977.014 149.998,978.108 149.81,979.233 C149.623,980.358 149.188,981.689 148.506,983.225 C147.823,984.761 146.938,986.136 145.849,987.35 C144.761,988.564 143.204,989.665 141.178,990.655 C139.152,991.644 136.79,992.295 134.092,992.608 M141.576,980.498 C142.076,980.498 142.646,980.426 143.287,980.28 C143.928,980.134 144.576,979.814 145.232,979.319 C145.889,978.824 146.217,978.217 146.217,977.498 L146.217,975.952 C146.217,969.191 144.456,965.811 140.935,965.811 C140.102,965.811 139.394,966.032 138.81,966.475 C138.227,966.918 137.782,967.496 137.474,968.209 C137.167,968.923 136.946,969.652 136.81,970.397 C136.675,971.142 136.607,971.931 136.607,972.764 C136.607,975.129 137.055,977.009 137.951,978.405 C138.847,979.801 140.055,980.498 141.576,980.498"/>
<path class="SlurSegment" stroke="#000000" stroke-width="1.75" stroke-linecap="round" stroke-linejoin="round" fill-rule="evenodd" d="M2176.24,1614.23 C2205.1,1642.91 2262.83,1642.91 2291.69,1614.23 C2262.83,1646.91 2205.1,1646.91 2176.24,1614.23"/>
<path class="SlurSegment" stroke="#000000" stroke-width="1.75" stroke-linecap="round" stroke-linejoin="round" fill-rule="evenodd" d="M900.381,1544.23 C929.245,1511.56 986.972,1511.56 1015.84,1544.23 C986.972,1515.56 929.245,1515.56 900.381,1544.23"/>
<path class="SlurSegment" stroke="#000000" stroke-width="1.75" stroke-linecap="round" stroke-linejoin="round" fill-rule="evenodd" d="M2384.85,594.233 C2405.82,568.504 2447.75,568.504 2468.71,594.233 C2447.75,572.504 2405.82,572.504 2384.85,594.233"/>
<path class="TieSegment" stroke="#000000" stroke-width="1.75" stroke-linecap="round" stroke-linejoin="round" fill-rule="evenodd" d="M2296.63,1610.48 C2341.02,1640.98 2474.21,1640.98 2518.61,1610.48 C2474.21,1644.98 2341.02,1644.98 2296.63,1610.48"/>
<path class="TieSegment" stroke="#000000" stroke-width="1.75" stroke-linecap="round" stroke-linejoin="round" fill-rule="evenodd" d="M1020.77,1547.98 C1065.17,1513.48 1198.36,1513.48 1242.76,1547.98 C1198.36,1517.48 1065.17,1517.48 1020.77,1547.98"/>
<path class="TieSegment" stroke="#000000" stroke-width="1.75" stroke-linecap="round" stroke-linejoin="round" fill-rule="evenodd" d="M2296.63,1610.48 C2341.02,1640.98 2474.21,1640.98 2518.61,1610.48 C2474.21,1644.98 2341.02,1644.98 2296.63,1610.48"/>
<path class="TieSegment" stroke="#000000" stroke-width="1.75" stroke-linecap="round" stroke-linejoin="round" fill-rule="evenodd" d="M1020.77,1547.98 C1065.17,1513.48 1198.36,1513.48 1242.76,1547.98 C1198.36,1517.48 1065.17,1517.48 1020.77,1547.98"/>
<path class="TieSegment" stroke="#000000" stroke-width="1.75" stroke-linecap="round" stroke-linejoin="round" fill-rule="evenodd" d="M2473.65,597.983 C2507.93,569.925 2610.79,569.925 2645.08,597.983 C2610.79,573.925 2507.93,573.925 2473.65,597.983"/>
<path class="TieSegment" stroke="#000000" stroke-width="1.75" stroke-linecap="round" stroke-linejoin="round" fill-rule="evenodd" d="M1226.22,597.983 C1260.5,569.925 1363.36,569.925 1397.65,597.983 C1363.36,573.925 1260.5,573.925 1226.22,597.983"/>
<path class="TieSegment" stroke="#000000" stroke-width="1.75" stroke-linecap="round" stroke-linejoin="round" fill-rule="evenodd" d="M554.052,597.983 C588.211,570.021 690.689,570.021 724.849,597.983 C690.689,574.021 588.211,574.021 554.052,597.983"/>
<path class="TieSegment" stroke="#000000" stroke-width="1.75" stroke-linecap="round" stroke-linejoin="round" fill-rule="evenodd" d="M2473.65,597.983 C2507.93,569.925 2610.79,569.925 2645.08,597.983 C2610.79,573.925 2507.93,573.925 2473.65,597.983"/>
<path class="TieSegment" stroke="#000000" stroke-width="1.75" stroke-linecap="round" stroke-linejoin="round" fill-rule="evenodd" d="M1226.22,597.983 C1260.5,569.925 1363.36,569.925 1397.65,597.983 C1363.36,573.925 1260.5,573.925 1226.22,597.983"/>
<path class="TieSegment" stroke="#000000" stroke-width="1.75" stroke-linecap="round" stroke-linejoin="round" fill-rule="evenodd" d="M554.052,597.983 C588.211,570.021 690.689,570.021 724.849,597.983 C690.689,574.021 588.211,574.021 554.052,597.983"/>
<polyline class="BarLine" stroke="#000000" stroke-width="4.00" stroke-linejoin="bevel" points="2821.72,1515.73 2821.72,1617.73"/>
<polyline class="BarLine" stroke="#000000" stroke-width="12.50" stroke-linejoin="bevel" points="2829.22,1515.73 2829.22,1617.73"/>
<polyline class="BarLine" stroke="#000000" stroke-width="4.00" stroke-linejoin="bevel" points="2461.96,1515.73 2461.96,1617.73"/>
<polyline class="BarLine" stroke="#000000" stroke-width="4.00" stroke-linejoin="bevel" points="2012.32,1515.73 2012.32,1617.73"/>
<path class="BarLine" d="M1544.56,1558.23 C1543.45,1557.13 1542.9,1555.8 1542.9,1554.23 C1542.9,1552.67 1543.45,1551.33 1544.56,1550.23 C1545.67,1549.12 1547.01,1548.56 1548.57,1548.56 C1550.13,1548.56 1551.47,1549.12 1552.57,1550.23 C1553.67,1551.33 1554.23,1552.67 1554.23,1554.23 C1554.23,1555.8 1553.67,1557.13 1552.57,1558.23 C1551.47,1559.34 1550.13,1559.89 1548.57,1559.89 C1547.01,1559.89 1545.67,1559.34 1544.56,1558.23"/>
<path class="BarLine" d="M1544.56,1583.23 C1543.45,1582.13 1542.9,1580.8 1542.9,1579.23 C1542.9,1577.67 1543.45,1576.33 1544.56,1575.23 C1545.67,1574.12 1547.01,1573.56 1548.57,1573.56 C1550.13,1573.56 1551.47,1574.12 1552.57,1575.23 C1553.67,1576.33 1554.23,1577.67 1554.23,1579.23 C1554.23,1580.8 1553.67,1582.13 1552.57,1583.23 C1551.47,1584.34 1550.13,1584.89 1548.57,1584.89 C1547.01,1584.89 1545.67,1584.34 1544.56,1583.23"/>
<polyline class="BarLine" stroke="#000000" stroke-width="4.00" stroke-linejoin="bevel" points="1564.31,1515.73 1564.31,1617.73"/>
<polyline class="BarLine" stroke="#000000" stroke-width="12.50" stroke-linejoin="bevel" points="1571.81,1515.73 1571.81,1617.73"/>
<polyline class="BarLine" stroke="#000000" stroke-width="4.00" stroke-linejoin="bevel" points="1186.11,1515.73 1186.11,1617.73"/>
<polyline class="BarLine" stroke="#000000" stroke-width="4.00" stroke-linejoin="bevel" points="736.47,1515.73 736.47,1617.73"/>
<polyline class="BarLine" stroke="#000000" stroke-width="4.00" stroke-linejoin="bevel" points="2833.47,1040.73 2833.47,1142.73"/>
<polyline class="BarLine" stroke="#000000" stroke-width="4.00" stroke-linejoin="bevel" points="2338.85,1040.73 2338.85,1142.73"/>
<polyline class="BarLine" stroke="#000000" stroke-width="4.00" stroke-linejoin="bevel" points="1844.23,1040.73 1844.23,1142.73"/>
<polyline class="BarLine" stroke="#000000" stroke-width="4.00" stroke-linejoin="bevel" points="1349.61,1040.73 1349.61,1142.73"/>
<polyline class="BarLine" stroke="#000000" stroke-width="4.00" stroke-linejoin="bevel" points="854.992,1040.73 854.992,1142.73"/>
<polyline class="BarLine" stroke="#000000" stroke-width="12.50" stroke-linejoin="bevel" points="300.959,1040.73 300.959,1142.73"/>
<polyline class="BarLine" stroke="#000000" stroke-width="4.00" stroke-linejoin="bevel" points="308.459,1040.73 308.459,1142.73"/>
<path class="BarLine" d="M320.201,1083.23 C319.092,1082.13 318.537,1080.8 318.537,1079.23 C318.537,1077.67 319.092,1076.33 320.201,1075.23 C321.311,1074.12 322.646,1073.56 324.209,1073.56 C325.771,1073.56 327.105,1074.12 328.209,1075.23 C329.313,1076.33 329.865,1077.67 329.865,1079.23 C329.865,1080.8 329.313,1082.13 328.209,1083.23 C327.105,1084.34 325.771,1084.89 324.209,1084.89 C322.646,1084.89 321.311,1084.34 320.201,1083.23"/>
<path class="BarLine" d="M320.201,1108.23 C319.092,1107.13 318.537,1105.8 318.537,1104.23 C318.537,1102.67 319.092,1101.33 320.201,1100.23 C321.311,1099.12 322.646,1098.56 324.209,1098.56 C325.771,1098.56 327.105,1099.12 328.209,1100.23 C329.313,1101.33 329.865,1102.67 329.865,1104.23 C329.865,1105.8 329.313,1107.13 328.209,1108.23 C327.105,1109.34 325.771,1109.89 324.209,1109.89 C322.646,1109.89 321.311,1109.34 320.201,1108.23"/>
<polyline class="BarLine" stroke="#000000" stroke-width="4.00" stroke-linejoin="bevel" points="2833.47,565.733 2833.47,667.733"/>
<polyline class="BarLine" stroke="#000000" stroke-width="4.00" stroke-linejoin="bevel" points="2588.43,565.733 2588.43,667.733"/>
<polyline class="BarLine" stroke="#000000" stroke-width="4.00" stroke-linejoin="bevel" points="2252.54,565.733 2252.54,667.733"/>
<polyline class="BarLine" stroke="#000000" stroke-width="4.00" stroke-linejoin="bevel" points="1954.46,565.733 1954.46,667.733"/>
<polyline class="BarLine" stroke="#000000" stroke-width="4.00" stroke-linejoin="bevel" points="1586.04,565.733 1586.04,667.733"/>
<polyline class="BarLine" stroke="#000000" stroke-width="4.00" stroke-linejoin="bevel" points="1340.99,565.733 1340.99,667.733"/>
<polyline class="BarLine" stroke="#000000" stroke-width="4.00" stroke-linejoin="bevel" points="1005.11,565.733 1005.11,667.733"/>
<polyline class="BarLine" stroke="#000000" stroke-width="4.00" stroke-linejoin="bevel" points="668.829,565.733 668.829,667.733"/>
<polyline class="Stem" stroke="#000000" stroke-width="3.25" stroke-linecap="round" stroke-linejoin="bevel" points="2539.55,1587.89 2539.55,1507.36"/>
<polyline class="Stem" stroke="#000000" stroke-width="3.25" stroke-linecap="round" stroke-linejoin="bevel" points="2306.52,1587.04 2306.52,1507.36"/>
<polyline class="Stem" stroke="#000000" stroke-width="3.25" stroke-linecap="round" stroke-linejoin="bevel" points="2191.07,1587.04 2191.07,1516.73"/>
<polyline class="Stem" stroke="#000000" stroke-width="3.25" stroke-linecap="round" stroke-linejoin="bevel" points="2075.61,1574.54 2075.61,1510.48"/>
<polyline class="Stem" stroke="#000000" stroke-width="3.25" stroke-linecap="round" stroke-linejoin="bevel" points="1929.87,1574.54 1929.87,1497.98"/>
<polyline class="Stem" stroke="#000000" stroke-width="3.25" stroke-linecap="round" stroke-linejoin="bevel" points="1818.13,1562.04 1818.13,1491.73"/>
<polyline class="Stem" stroke="#000000" stroke-width="3.25" stroke-linecap="round" stroke-linejoin="bevel" points="1639.35,1574.54 1639.35,1497.98"/>
<polyline class="Stem" stroke="#000000" stroke-width="3.25" stroke-linecap="round" stroke-linejoin="bevel" points="1232.23,1570.65 1232.23,1644.86"/>
<polyline class="Stem" stroke="#000000" stroke-width="3.25" stroke-linecap="round" stroke-linejoin="bevel" points="1001,1571.43 1001,1644.86"/>
<polyline class="Stem" stroke="#000000" stroke-width="3.25" stroke-linecap="round" stroke-linejoin="bevel" points="885.549,1571.43 885.549,1641.73"/>
<polyline class="Stem" stroke="#000000" stroke-width="3.25" stroke-linecap="round" stroke-linejoin="bevel" points="770.095,1558.93 770.095,1635.48"/>
<polyline class="Stem" stroke="#000000" stroke-width="3.25" stroke-linecap="round" stroke-linejoin="bevel" points="624.356,1558.93 624.356,1622.98"/>
<polyline class="Stem" stroke="#000000" stroke-width="3.25" stroke-linecap="round" stroke-linejoin="bevel" points="512.617,1546.43 512.617,1616.73"/>
<polyline class="Stem" stroke="#000000" stroke-width="3.25" stroke-linecap="round" stroke-linejoin="bevel" points="363.498,1574.54 363.498,1497.98"/>
<polyline class="Stem" stroke="#000000" stroke-width="3.25" stroke-linecap="round" stroke-linejoin="bevel" points="2747.6,1112.04 2747.6,1041.73"/>
<polyline class="Stem" stroke="#000000" stroke-width="3.25" stroke-linecap="round" stroke-linejoin="bevel" points="2632.45,1112.04 2632.45,1041.73"/>
<polyline class="Stem" stroke="#000000" stroke-width="3.25" stroke-linecap="round" stroke-linejoin="bevel" points="2517.29,1149.54 2517.29,1072.98"/>
<polyline class="Stem" stroke="#000000" stroke-width="3.25" stroke-linecap="round" stroke-linejoin="bevel" points="2402.14,1149.54 2402.14,1072.98"/>
<polyline class="Stem" stroke="#000000" stroke-width="3.25" stroke-linecap="round" stroke-linejoin="bevel" points="2252.98,1112.04 2252.98,1041.73"/>
<polyline class="Stem" stroke="#000000" stroke-width="3.25" stroke-linecap="round" stroke-linejoin="bevel" points="2137.83,1099.54 2137.83,1035.48"/>
<polyline class="Stem" stroke="#000000" stroke-width="3.25" stroke-linecap="round" stroke-linejoin="bevel" points="2022.67,1099.54 2022.67,1022.98"/>
<polyline class="Stem" stroke="#000000" stroke-width="3.25" stroke-linecap="round" stroke-linejoin="bevel" points="1907.52,1087.04 1907.52,1016.73"/>
<polyline class="Stem" stroke="#000000" stroke-width="3.25" stroke-linecap="round" stroke-linejoin="bevel" points="1728.7,1083.93 1728.7,1147.98"/>
<polyline class="Stem" stroke="#000000" stroke-width="3.25" stroke-linecap="round" stroke-linejoin="bevel" points="1613.55,1071.43 1613.55,1141.73"/>
<polyline class="Stem" stroke="#000000" stroke-width="3.25" stroke-linecap="round" stroke-linejoin="bevel" points="1498.39,1058.93 1498.39,1135.48"/>
<polyline class="Stem" stroke="#000000" stroke-width="3.25" stroke-linecap="round" stroke-linejoin="bevel" points="1383.24,1071.43 1383.24,1141.73"/>
<polyline class="Stem" stroke="#000000" stroke-width="3.25" stroke-linecap="round" stroke-linejoin="bevel" points="1118.93,1058.93 1118.93,1141.73"/>
<polyline class="Stem" stroke="#000000" stroke-width="3.25" stroke-linecap="round" stroke-linejoin="bevel" points="1003.77,1071.43 1003.77,1141.73"/>
<polyline class="Stem" stroke="#000000" stroke-width="3.25" stroke-linecap="round" stroke-linejoin="bevel" points="888.617,1033.93 888.617,1116.73"/>
<polyline class="Stem" stroke="#000000" stroke-width="3.25" stroke-linecap="round" stroke-linejoin="bevel" points="739.462,1046.43 739.462,1116.73"/>
<polyline class="Stem" stroke="#000000" stroke-width="3.25" stroke-linecap="round" stroke-linejoin="bevel" points="624.308,1058.93 624.308,1122.98"/>
<polyline class="Stem" stroke="#000000" stroke-width="3.25" stroke-linecap="round" stroke-linejoin="bevel" points="509.153,1071.43 509.153,1141.73"/>
<polyline class="Stem" stroke="#000000" stroke-width="3.25" stroke-linecap="round" stroke-linejoin="bevel" points="393.998,1071.43 393.998,1141.73"/>
<polyline class="Stem" stroke="#000000" stroke-width="3.25" stroke-linecap="round" stroke-linejoin="bevel" points="2634.55,620.653 2634.55,694.858"/>
<polyline class="Stem" stroke="#000000" stroke-width="3.25" stroke-linecap="round" stroke-linejoin="bevel" points="2453.88,621.428 2453.88,694.858"/>
<polyline class="Stem" stroke="#000000" stroke-width="3.25" stroke-linecap="round" stroke-linejoin="bevel" points="2370.02,621.428 2370.02,691.733"/>
<polyline class="Stem" stroke="#000000" stroke-width="3.25" stroke-linecap="round" stroke-linejoin="bevel" points="2286.17,608.928 2286.17,685.483"/>
<polyline class="Stem" stroke="#000000" stroke-width="3.25" stroke-linecap="round" stroke-linejoin="bevel" points="2162.68,608.928 2162.68,691.733"/>
<polyline class="Stem" stroke="#000000" stroke-width="3.25" stroke-linecap="round" stroke-linejoin="bevel" points="1988.09,596.428 1988.09,676.108"/>
<polyline class="Stem" stroke="#000000" stroke-width="3.25" stroke-linecap="round" stroke-linejoin="bevel" points="1870.48,621.428 1870.48,691.733"/>
<polyline class="Stem" stroke="#000000" stroke-width="3.25" stroke-linecap="round" stroke-linejoin="bevel" points="1786.88,608.928 1786.88,685.483"/>
<polyline class="Stem" stroke="#000000" stroke-width="3.25" stroke-linecap="round" stroke-linejoin="bevel" points="1703.27,596.428 1703.27,666.733"/>
<polyline class="Stem" stroke="#000000" stroke-width="3.25" stroke-linecap="round" stroke-linejoin="bevel" points="1619.66,596.428 1619.66,666.733"/>
<polyline class="Stem" stroke="#000000" stroke-width="3.25" stroke-linecap="round" stroke-linejoin="bevel" points="1387.12,620.653 1387.12,694.858"/>
<polyline class="Stem" stroke="#000000" stroke-width="3.25" stroke-linecap="round" stroke-linejoin="bevel" points="1206.45,621.428 1206.45,694.858"/>
<polyline class="Stem" stroke="#000000" stroke-width="3.25" stroke-linecap="round" stroke-linejoin="bevel" points="1152.26,624.537 1152.26,560.483"/>
<polyline class="Stem" stroke="#000000" stroke-width="3.25" stroke-linecap="round" stroke-linejoin="bevel" points="1068.4,637.037 1068.4,566.733"/>
<polyline class="Stem" stroke="#000000" stroke-width="3.25" stroke-linecap="round" stroke-linejoin="bevel" points="936.2,674.537 936.2,591.733"/>
<polyline class="Stem" stroke="#000000" stroke-width="3.25" stroke-linecap="round" stroke-linejoin="bevel" points="714.954,621.428 714.954,694.858"/>
<polyline class="Stem" stroke="#000000" stroke-width="3.25" stroke-linecap="round" stroke-linejoin="bevel" points="534.282,621.428 534.282,694.858"/>
<polyline class="Stem" stroke="#000000" stroke-width="3.25" stroke-linecap="round" stroke-linejoin="bevel" points="480.089,624.537 480.089,560.483"/>
<polyline class="Stem" stroke="#000000" stroke-width="3.25" stroke-linecap="round" stroke-linejoin="bevel" points="396.232,637.037 396.232,566.733"/>
<path class="Note" d="M2538.01,1585.19 C2538.01,1584.08 2537.58,1583.14 2536.74,1582.36 C2535.89,1581.51 2534.91,1581.09 2533.8,1581.09 C2531.86,1581.09 2527.92,1583.05 2521.99,1586.95 C2515.87,1590.92 2512.12,1593.75 2510.76,1595.45 C2510.04,1596.36 2509.68,1597.3 2509.68,1598.28 C2509.68,1599.38 2510.11,1600.33 2510.96,1601.11 C2511.74,1601.95 2512.71,1602.37 2513.88,1602.37 C2515.77,1602.37 2519.74,1600.42 2525.8,1596.51 C2531.79,1592.61 2535.5,1589.77 2536.93,1588.01 C2537.65,1587.17 2538.01,1586.23 2538.01,1585.19 M2532.83,1577.97 C2538.43,1577.97 2541.23,1580.37 2541.23,1585.19 C2541.23,1587.53 2540.54,1590.26 2539.18,1593.39 C2537.81,1596.45 2535.99,1598.8 2533.71,1600.42 C2528.7,1603.81 2522.42,1605.5 2514.87,1605.5 C2509.26,1605.5 2506.46,1603.09 2506.46,1598.28 C2506.46,1596.13 2507.14,1593.43 2508.51,1590.17 C2509.81,1587.05 2511.63,1584.67 2513.98,1583.05 C2519,1579.66 2525.28,1577.97 2532.83,1577.97"/>
<path class="Note" d="M2297.2,1577.97 C2300.33,1577.97 2302.97,1578.78 2305.12,1580.41 C2307.13,1582.17 2308.14,1584.38 2308.14,1587.05 C2308.14,1591.54 2305.83,1595.73 2301.22,1599.64 C2296.53,1603.55 2291.51,1605.5 2286.17,1605.5 C2283.04,1605.5 2280.41,1604.69 2278.26,1603.06 C2276.24,1601.3 2275.23,1599.09 2275.23,1596.42 C2275.23,1591.93 2277.58,1587.73 2282.26,1583.83 C2286.83,1579.92 2291.81,1577.97 2297.2,1577.97"/>
<path class="Note" d="M2181.75,1577.97 C2184.87,1577.97 2187.51,1578.78 2189.67,1580.41 C2191.68,1582.17 2192.68,1584.38 2192.68,1587.05 C2192.68,1591.54 2190.38,1595.73 2185.76,1599.64 C2181.07,1603.55 2176.06,1605.5 2170.72,1605.5 C2167.59,1605.5 2164.96,1604.69 2162.81,1603.06 C2160.79,1601.3 2159.78,1599.09 2159.78,1596.42 C2159.78,1591.93 2162.12,1587.73 2166.81,1583.83 C2171.37,1579.92 2176.35,1577.97 2181.75,1577.97"/>
<path class="Note" d="M2066.29,1565.47 C2069.42,1565.47 2072.06,1566.28 2074.21,1567.91 C2076.22,1569.67 2077.23,1571.88 2077.23,1574.55 C2077.23,1579.04 2074.92,1583.23 2070.31,1587.14 C2065.62,1591.05 2060.6,1593 2055.26,1593 C2052.14,1593 2049.5,1592.19 2047.35,1590.56 C2045.33,1588.8 2044.32,1586.59 2044.32,1583.92 C2044.32,1579.43 2046.67,1575.23 2051.35,1571.33 C2055.92,1567.42 2060.9,1565.47 2066.29,1565.47"/>
<path class="Note" d="M1920.55,1565.47 C1923.68,1565.47 1926.32,1566.28 1928.48,1567.91 C1930.49,1569.67 1931.49,1571.88 1931.49,1574.55 C1931.49,1579.04 1929.18,1583.23 1924.57,1587.14 C1919.88,1591.05 1914.87,1593 1909.52,1593 C1906.4,1593 1903.76,1592.19 1901.62,1590.56 C1899.59,1588.8 1898.58,1586.59 1898.58,1583.92 C1898.58,1579.43 1900.93,1575.23 1905.62,1571.33 C1910.18,1567.42 1915.16,1565.47 1920.55,1565.47"/>
<path class="Note" d="M1808.81,1552.97 C1811.94,1552.97 1814.58,1553.78 1816.74,1555.41 C1818.75,1557.17 1819.75,1559.38 1819.75,1562.05 C1819.75,1566.54 1817.44,1570.73 1812.83,1574.64 C1808.14,1578.55 1803.13,1580.5 1797.78,1580.5 C1794.66,1580.5 1792.02,1579.69 1789.88,1578.06 C1787.86,1576.3 1786.85,1574.09 1786.85,1571.42 C1786.85,1566.93 1789.19,1562.73 1793.88,1558.83 C1798.44,1554.92 1803.42,1552.97 1808.81,1552.97"/>
<path class="Note" d="M1630.03,1565.47 C1633.16,1565.47 1635.8,1566.28 1637.95,1567.91 C1639.96,1569.67 1640.97,1571.88 1640.97,1574.55 C1640.97,1579.04 1638.66,1583.23 1634.05,1587.14 C1629.36,1591.05 1624.34,1593 1619,1593 C1615.88,1593 1613.24,1592.19 1611.09,1590.56 C1609.07,1588.8 1608.06,1586.59 1608.06,1583.92 C1608.06,1579.43 1610.41,1575.23 1615.09,1571.33 C1619.66,1567.42 1624.64,1565.47 1630.03,1565.47"/>
<path class="Note" d="M1262.15,1560.19 C1262.15,1559.08 1261.73,1558.14 1260.89,1557.36 C1260.03,1556.51 1259.05,1556.09 1257.95,1556.09 C1256,1556.09 1252.06,1558.05 1246.14,1561.95 C1240.01,1565.92 1236.27,1568.75 1234.9,1570.45 C1234.18,1571.36 1233.82,1572.3 1233.82,1573.28 C1233.82,1574.38 1234.25,1575.33 1235.11,1576.11 C1235.89,1576.95 1236.86,1577.37 1238.03,1577.37 C1239.91,1577.37 1243.89,1575.42 1249.95,1571.51 C1255.94,1567.61 1259.65,1564.77 1261.07,1563.01 C1261.79,1562.17 1262.15,1561.23 1262.15,1560.19 M1256.98,1552.97 C1262.57,1552.97 1265.37,1555.37 1265.37,1560.19 C1265.37,1562.53 1264.69,1565.26 1263.32,1568.39 C1261.96,1571.45 1260.14,1573.8 1257.86,1575.42 C1252.85,1578.81 1246.56,1580.5 1239.01,1580.5 C1233.41,1580.5 1230.61,1578.09 1230.61,1573.28 C1230.61,1571.13 1231.29,1568.43 1232.65,1565.17 C1233.95,1562.05 1235.78,1559.67 1238.12,1558.05 C1243.14,1554.66 1249.43,1552.97 1256.98,1552.97"/>
<path class="Note" d="M1021.35,1552.97 C1024.47,1552.97 1027.11,1553.78 1029.27,1555.41 C1031.28,1557.17 1032.29,1559.38 1032.29,1562.05 C1032.29,1566.54 1029.98,1570.73 1025.36,1574.64 C1020.68,1578.55 1015.66,1580.5 1010.32,1580.5 C1007.19,1580.5 1004.56,1579.69 1002.41,1578.06 C1000.39,1576.3 999.379,1574.09 999.379,1571.42 C999.379,1566.93 1001.72,1562.73 1006.41,1558.83 C1010.97,1554.92 1015.95,1552.97 1021.35,1552.97"/>
<path class="Note" d="M905.893,1552.97 C909.018,1552.97 911.659,1553.78 913.815,1555.41 C915.825,1557.17 916.831,1559.38 916.831,1562.05 C916.831,1566.54 914.523,1570.73 909.909,1574.64 C905.221,1578.55 900.206,1580.5 894.862,1580.5 C891.737,1580.5 889.101,1579.69 886.956,1578.06 C884.935,1576.3 883.924,1574.09 883.924,1571.42 C883.924,1566.93 886.268,1562.73 890.956,1558.83 C895.518,1554.92 900.497,1552.97 905.893,1552.97"/>
<path class="Note" d="M790.439,1540.47 C793.564,1540.47 796.204,1541.28 798.361,1542.91 C800.371,1544.67 801.376,1546.88 801.376,1549.55 C801.376,1554.04 799.069,1558.23 794.454,1562.14 C789.767,1566.05 784.751,1568 779.407,1568 C776.282,1568 773.647,1567.19 771.501,1565.56 C769.48,1563.8 768.47,1561.59 768.47,1558.92 C768.47,1554.43 770.814,1550.23 775.501,1546.33 C780.064,1542.42 785.043,1540.47 790.439,1540.47"/>
<path class="Note" d="M644.7,1540.47 C647.825,1540.47 650.465,1541.28 652.621,1542.91 C654.632,1544.67 655.637,1546.88 655.637,1549.55 C655.637,1554.04 653.33,1558.23 648.715,1562.14 C644.028,1566.05 639.012,1568 633.668,1568 C630.543,1568 627.908,1567.19 625.762,1565.56 C623.741,1563.8 622.731,1561.59 622.731,1558.92 C622.731,1554.43 625.075,1550.23 629.762,1546.33 C634.325,1542.42 639.304,1540.47 644.7,1540.47"/>
<path class="Note" d="M532.96,1527.97 C536.085,1527.97 538.726,1528.78 540.882,1530.41 C542.893,1532.17 543.898,1534.38 543.898,1537.05 C543.898,1541.54 541.591,1545.73 536.976,1549.64 C532.288,1553.55 527.273,1555.5 521.929,1555.5 C518.804,1555.5 516.169,1554.69 514.023,1553.06 C512.002,1551.3 510.992,1549.09 510.992,1546.42 C510.992,1541.93 513.335,1537.73 518.023,1533.83 C522.585,1529.92 527.565,1527.97 532.96,1527.97"/>
<path class="Note" d="M354.178,1565.47 C357.303,1565.47 359.943,1566.28 362.1,1567.91 C364.11,1569.67 365.115,1571.88 365.115,1574.55 C365.115,1579.04 362.808,1583.23 358.193,1587.14 C353.506,1591.05 348.49,1593 343.146,1593 C340.021,1593 337.386,1592.19 335.24,1590.56 C333.219,1588.8 332.209,1586.59 332.209,1583.92 C332.209,1579.43 334.553,1575.23 339.24,1571.33 C343.803,1567.42 348.782,1565.47 354.178,1565.47"/>
<path class="Note" d="M2738.28,1102.97 C2741.41,1102.97 2744.05,1103.78 2746.2,1105.4 C2748.21,1107.17 2749.22,1109.38 2749.22,1112.05 C2749.22,1116.53 2746.91,1120.73 2742.3,1124.64 C2737.61,1128.55 2732.59,1130.5 2727.25,1130.5 C2724.13,1130.5 2721.49,1129.69 2719.34,1128.06 C2717.32,1126.3 2716.31,1124.09 2716.31,1121.42 C2716.31,1116.93 2718.66,1112.73 2723.34,1108.83 C2727.91,1104.92 2732.89,1102.97 2738.28,1102.97"/>
<path class="Note" d="M2623.13,1102.97 C2626.25,1102.97 2628.89,1103.78 2631.05,1105.4 C2633.06,1107.17 2634.06,1109.38 2634.06,1112.05 C2634.06,1116.53 2631.76,1120.73 2627.14,1124.64 C2622.46,1128.55 2617.44,1130.5 2612.1,1130.5 C2608.97,1130.5 2606.34,1129.69 2604.19,1128.06 C2602.17,1126.3 2601.16,1124.09 2601.16,1121.42 C2601.16,1116.93 2603.5,1112.73 2608.19,1108.83 C2612.75,1104.92 2617.73,1102.97 2623.13,1102.97"/>
<path class="Note" d="M2507.97,1140.47 C2511.1,1140.47 2513.74,1141.28 2515.89,1142.9 C2517.9,1144.67 2518.91,1146.88 2518.91,1149.55 C2518.91,1154.04 2516.6,1158.23 2511.99,1162.14 C2507.3,1166.05 2502.28,1168 2496.94,1168 C2493.82,1168 2491.18,1167.19 2489.03,1165.56 C2487.01,1163.8 2486,1161.59 2486,1158.92 C2486,1154.43 2488.35,1150.23 2493.03,1146.33 C2497.6,1142.42 2502.58,1140.47 2507.97,1140.47"/>
<path class="Note" d="M2392.82,1140.47 C2395.94,1140.47 2398.58,1141.28 2400.74,1142.9 C2402.75,1144.67 2403.76,1146.88 2403.76,1149.55 C2403.76,1154.04 2401.45,1158.23 2396.83,1162.14 C2392.15,1166.05 2387.13,1168 2381.79,1168 C2378.66,1168 2376.03,1167.19 2373.88,1165.56 C2371.86,1163.8 2370.85,1161.59 2370.85,1158.92 C2370.85,1154.43 2373.19,1150.23 2377.88,1146.33 C2382.44,1142.42 2387.42,1140.47 2392.82,1140.47"/>
<path class="Note" d="M2243.66,1102.97 C2246.79,1102.97 2249.43,1103.78 2251.58,1105.4 C2253.6,1107.17 2254.6,1109.38 2254.6,1112.05 C2254.6,1116.53 2252.29,1120.73 2247.68,1124.64 C2242.99,1128.55 2237.98,1130.5 2232.63,1130.5 C2229.51,1130.5 2226.87,1129.69 2224.73,1128.06 C2222.7,1126.3 2221.69,1124.09 2221.69,1121.42 C2221.69,1116.93 2224.04,1112.73 2228.73,1108.83 C2233.29,1104.92 2238.27,1102.97 2243.66,1102.97"/>
<path class="Note" d="M2128.51,1090.47 C2131.63,1090.47 2134.27,1091.28 2136.43,1092.9 C2138.44,1094.67 2139.45,1096.88 2139.45,1099.55 C2139.45,1104.03 2137.14,1108.23 2132.52,1112.14 C2127.84,1116.05 2122.82,1118 2117.48,1118 C2114.35,1118 2111.72,1117.19 2109.57,1115.56 C2107.55,1113.8 2106.54,1111.59 2106.54,1108.92 C2106.54,1104.43 2108.88,1100.23 2113.57,1096.33 C2118.13,1092.42 2123.11,1090.47 2128.51,1090.47"/>
<path class="Note" d="M2013.35,1090.47 C2016.48,1090.47 2019.12,1091.28 2021.28,1092.9 C2023.29,1094.67 2024.29,1096.88 2024.29,1099.55 C2024.29,1104.03 2021.98,1108.23 2017.37,1112.14 C2012.68,1116.05 2007.67,1118 2002.32,1118 C1999.2,1118 1996.56,1117.19 1994.42,1115.56 C1992.4,1113.8 1991.38,1111.59 1991.38,1108.92 C1991.38,1104.43 1993.73,1100.23 1998.42,1096.33 C2002.98,1092.42 2007.96,1090.47 2013.35,1090.47"/>
<path class="Note" d="M1898.2,1077.97 C1901.32,1077.97 1903.96,1078.78 1906.12,1080.4 C1908.13,1082.17 1909.14,1084.38 1909.14,1087.05 C1909.14,1091.53 1906.83,1095.73 1902.21,1099.64 C1897.53,1103.55 1892.51,1105.5 1887.17,1105.5 C1884.04,1105.5 1881.41,1104.69 1879.26,1103.06 C1877.24,1101.3 1876.23,1099.09 1876.23,1096.42 C1876.23,1091.93 1878.57,1087.73 1883.26,1083.83 C1887.82,1079.92 1892.8,1077.97 1898.2,1077.97"/>
<path class="Note" d="M1749.04,1065.47 C1752.17,1065.47 1754.81,1066.28 1756.97,1067.9 C1758.98,1069.67 1759.98,1071.88 1759.98,1074.55 C1759.98,1079.03 1757.67,1083.23 1753.06,1087.14 C1748.37,1091.05 1743.36,1093 1738.01,1093 C1734.89,1093 1732.25,1092.19 1730.11,1090.56 C1728.09,1088.8 1727.08,1086.59 1727.08,1083.92 C1727.08,1079.43 1729.42,1075.23 1734.11,1071.33 C1738.67,1067.42 1743.65,1065.47 1749.04,1065.47"/>
<path class="Note" d="M1633.89,1052.97 C1637.01,1052.97 1639.65,1053.78 1641.81,1055.4 C1643.82,1057.17 1644.83,1059.38 1644.83,1062.05 C1644.83,1066.53 1642.52,1070.73 1637.9,1074.64 C1633.22,1078.55 1628.2,1080.5 1622.86,1080.5 C1619.73,1080.5 1617.1,1079.69 1614.95,1078.06 C1612.93,1076.3 1611.92,1074.09 1611.92,1071.42 C1611.92,1066.93 1614.26,1062.73 1618.95,1058.83 C1623.51,1054.92 1628.49,1052.97 1633.89,1052.97"/>
<path class="Note" d="M1518.73,1040.47 C1521.86,1040.47 1524.5,1041.28 1526.66,1042.9 C1528.67,1044.67 1529.67,1046.88 1529.67,1049.55 C1529.67,1054.03 1527.36,1058.23 1522.75,1062.14 C1518.06,1066.05 1513.05,1068 1507.7,1068 C1504.58,1068 1501.94,1067.19 1499.8,1065.56 C1497.78,1063.8 1496.77,1061.59 1496.77,1058.92 C1496.77,1054.43 1499.11,1050.23 1503.8,1046.33 C1508.36,1042.42 1513.34,1040.47 1518.73,1040.47"/>
<path class="Note" d="M1403.58,1052.97 C1406.7,1052.97 1409.35,1053.78 1411.5,1055.4 C1413.51,1057.17 1414.52,1059.38 1414.52,1062.05 C1414.52,1066.53 1412.21,1070.73 1407.6,1074.64 C1402.91,1078.55 1397.89,1080.5 1392.55,1080.5 C1389.42,1080.5 1386.79,1079.69 1384.64,1078.06 C1382.62,1076.3 1381.61,1074.09 1381.61,1071.42 C1381.61,1066.93 1383.95,1062.73 1388.64,1058.83 C1393.2,1054.92 1398.18,1052.97 1403.58,1052.97"/>
<path class="Note" d="M1139.27,1040.47 C1142.4,1040.47 1145.04,1041.28 1147.19,1042.9 C1149.2,1044.67 1150.21,1046.88 1150.21,1049.55 C1150.21,1054.03 1147.9,1058.23 1143.29,1062.14 C1138.6,1066.05 1133.58,1068 1128.24,1068 C1125.11,1068 1122.48,1067.19 1120.33,1065.56 C1118.31,1063.8 1117.3,1061.59 1117.3,1058.92 C1117.3,1054.43 1119.65,1050.23 1124.33,1046.33 C1128.9,1042.42 1133.87,1040.47 1139.27,1040.47"/>
<path class="Note" d="M1024.12,1052.97 C1027.24,1052.97 1029.88,1053.78 1032.04,1055.4 C1034.05,1057.17 1035.05,1059.38 1035.05,1062.05 C1035.05,1066.53 1032.75,1070.73 1028.13,1074.64 C1023.44,1078.55 1018.43,1080.5 1013.08,1080.5 C1009.96,1080.5 1007.32,1079.69 1005.18,1078.06 C1003.16,1076.3 1002.15,1074.09 1002.15,1071.42 C1002.15,1066.93 1004.49,1062.73 1009.18,1058.83 C1013.74,1054.92 1018.72,1052.97 1024.12,1052.97"/>
<path class="Note" d="M908.961,1015.47 C912.086,1015.47 914.726,1016.28 916.883,1017.9 C918.893,1019.67 919.898,1021.88 919.898,1024.55 C919.898,1029.03 917.591,1033.23 912.976,1037.14 C908.289,1041.05 903.273,1043 897.929,1043 C894.804,1043 892.169,1042.19 890.023,1040.56 C888.002,1038.8 886.992,1036.59 886.992,1033.92 C886.992,1029.43 889.336,1025.23 894.023,1021.33 C898.586,1017.42 903.565,1015.47 908.961,1015.47"/>
<path class="Note" d="M759.806,1027.97 C762.931,1027.97 765.572,1028.78 767.728,1030.4 C769.738,1032.17 770.743,1034.38 770.743,1037.05 C770.743,1041.53 768.436,1045.73 763.822,1049.64 C759.134,1053.55 754.118,1055.5 748.775,1055.5 C745.65,1055.5 743.014,1054.69 740.868,1053.06 C738.848,1051.3 737.837,1049.09 737.837,1046.42 C737.837,1041.93 740.181,1037.73 744.868,1033.83 C749.431,1029.92 754.41,1027.97 759.806,1027.97"/>
<path class="Note" d="M644.651,1040.47 C647.776,1040.47 650.417,1041.28 652.573,1042.9 C654.584,1044.67 655.589,1046.88 655.589,1049.55 C655.589,1054.03 653.281,1058.23 648.667,1062.14 C643.979,1066.05 638.964,1068 633.62,1068 C630.495,1068 627.86,1067.19 625.714,1065.56 C623.693,1063.8 622.683,1061.59 622.683,1058.92 C622.683,1054.43 625.026,1050.23 629.714,1046.33 C634.276,1042.42 639.255,1040.47 644.651,1040.47"/>
<path class="Note" d="M529.497,1052.97 C532.622,1052.97 535.262,1053.78 537.418,1055.4 C539.429,1057.17 540.434,1059.38 540.434,1062.05 C540.434,1066.53 538.127,1070.73 533.512,1074.64 C528.825,1078.55 523.809,1080.5 518.465,1080.5 C515.34,1080.5 512.705,1079.69 510.559,1078.06 C508.538,1076.3 507.528,1074.09 507.528,1071.42 C507.528,1066.93 509.872,1062.73 514.559,1058.83 C519.122,1054.92 524.101,1052.97 529.497,1052.97"/>
<path class="Note" d="M414.342,1052.97 C417.467,1052.97 420.107,1053.78 422.264,1055.4 C424.274,1057.17 425.279,1059.38 425.279,1062.05 C425.279,1066.53 422.972,1070.73 418.357,1074.64 C413.67,1078.55 408.654,1080.5 403.311,1080.5 C400.186,1080.5 397.55,1079.69 395.404,1078.06 C393.383,1076.3 392.373,1074.09 392.373,1071.42 C392.373,1066.93 394.717,1062.73 399.404,1058.83 C403.967,1054.92 408.946,1052.97 414.342,1052.97"/>
<path class="Note" d="M2664.47,610.186 C2664.47,609.082 2664.05,608.139 2663.21,607.358 C2662.35,606.514 2661.37,606.092 2660.27,606.092 C2658.32,606.092 2654.38,608.045 2648.46,611.951 C2642.33,615.92 2638.59,618.753 2637.22,620.451 C2636.5,621.358 2636.14,622.3 2636.14,623.279 C2636.14,624.384 2636.57,625.326 2637.43,626.108 C2638.21,626.951 2639.18,627.373 2640.35,627.373 C2642.23,627.373 2646.21,625.42 2652.27,621.514 C2658.26,617.608 2661.97,614.774 2663.39,613.014 C2664.11,612.17 2664.47,611.227 2664.47,610.186 M2659.3,602.967 C2664.89,602.967 2667.69,605.373 2667.69,610.186 C2667.69,612.529 2667.01,615.264 2665.64,618.389 C2664.28,621.451 2662.46,623.795 2660.18,625.42 C2655.17,628.805 2648.88,630.498 2641.33,630.498 C2635.73,630.498 2632.93,628.092 2632.93,623.279 C2632.93,621.134 2633.61,618.43 2634.97,615.17 C2636.27,612.045 2638.1,609.67 2640.44,608.045 C2645.46,604.66 2651.75,602.967 2659.3,602.967"/>
<path class="Note" d="M2474.22,602.967 C2477.35,602.967 2479.99,603.779 2482.15,605.404 C2484.16,607.165 2485.16,609.378 2485.16,612.045 C2485.16,616.535 2482.85,620.733 2478.24,624.639 C2473.55,628.545 2468.54,630.498 2463.19,630.498 C2460.07,630.498 2457.43,629.686 2455.29,628.061 C2453.27,626.3 2452.25,624.087 2452.25,621.42 C2452.25,616.93 2454.6,612.733 2459.29,608.826 C2463.85,604.92 2468.83,602.967 2474.22,602.967"/>
<path class="Note" d="M2390.37,602.967 C2393.49,602.967 2396.13,603.779 2398.29,605.404 C2400.3,607.165 2401.3,609.378 2401.3,612.045 C2401.3,616.535 2399,620.733 2394.38,624.639 C2389.69,628.545 2384.68,630.498 2379.34,630.498 C2376.21,630.498 2373.57,629.686 2371.43,628.061 C2369.41,626.3 2368.4,624.087 2368.4,621.42 C2368.4,616.93 2370.74,612.733 2375.43,608.826 C2379.99,604.92 2384.97,602.967 2390.37,602.967"/>
<path class="Note" d="M2306.51,590.467 C2309.63,590.467 2312.27,591.279 2314.43,592.904 C2316.44,594.665 2317.45,596.878 2317.45,599.545 C2317.45,604.035 2315.14,608.233 2310.52,612.139 C2305.84,616.045 2300.82,617.998 2295.48,617.998 C2292.35,617.998 2289.72,617.186 2287.57,615.561 C2285.55,613.8 2284.54,611.587 2284.54,608.92 C2284.54,604.43 2286.88,600.233 2291.57,596.326 C2296.13,592.42 2301.11,590.467 2306.51,590.467"/>
<path class="Note" d="M2183.02,590.467 C2186.15,590.467 2188.79,591.279 2190.94,592.904 C2192.95,594.665 2193.96,596.878 2193.96,599.545 C2193.96,604.035 2191.65,608.233 2187.04,612.139 C2182.35,616.045 2177.33,617.998 2171.99,617.998 C2168.87,617.998 2166.23,617.186 2164.08,615.561 C2162.06,613.8 2161.05,611.587 2161.05,608.92 C2161.05,604.43 2163.4,600.233 2168.08,596.326 C2172.65,592.42 2177.63,590.467 2183.02,590.467"/>
<path class="Note" d="M2008.43,577.967 C2011.56,577.967 2014.2,578.779 2016.36,580.404 C2018.37,582.165 2019.37,584.378 2019.37,587.045 C2019.37,591.535 2017.06,595.733 2012.45,599.639 C2007.76,603.545 2002.75,605.498 1997.4,605.498 C1994.28,605.498 1991.64,604.686 1989.5,603.061 C1987.48,601.3 1986.46,599.087 1986.46,596.42 C1986.46,591.93 1988.81,587.733 1993.5,583.826 C1998.06,579.92 2003.04,577.967 2008.43,577.967"/>
<path class="Note" d="M1890.83,602.967 C1893.95,602.967 1896.59,603.779 1898.75,605.404 C1900.76,607.165 1901.76,609.378 1901.76,612.045 C1901.76,616.535 1899.46,620.733 1894.84,624.639 C1890.15,628.545 1885.14,630.498 1879.8,630.498 C1876.67,630.498 1874.03,629.686 1871.89,628.061 C1869.87,626.3 1868.86,624.087 1868.86,621.42 C1868.86,616.93 1871.2,612.733 1875.89,608.826 C1880.45,604.92 1885.43,602.967 1890.83,602.967"/>
<path class="Note" d="M1807.22,590.467 C1810.34,590.467 1812.99,591.279 1815.14,592.904 C1817.15,594.665 1818.16,596.878 1818.16,599.545 C1818.16,604.035 1815.85,608.233 1811.24,612.139 C1806.55,616.045 1801.53,617.998 1796.19,617.998 C1793.06,617.998 1790.43,617.186 1788.28,615.561 C1786.26,613.8 1785.25,611.587 1785.25,608.92 C1785.25,604.43 1787.59,600.233 1792.28,596.326 C1796.84,592.42 1801.82,590.467 1807.22,590.467"/>
<path class="Note" d="M1723.61,577.967 C1726.74,577.967 1729.38,578.779 1731.53,580.404 C1733.54,582.165 1734.55,584.378 1734.55,587.045 C1734.55,591.535 1732.24,595.733 1727.63,599.639 C1722.94,603.545 1717.92,605.498 1712.58,605.498 C1709.46,605.498 1706.82,604.686 1704.67,603.061 C1702.65,601.3 1701.64,599.087 1701.64,596.42 C1701.64,591.93 1703.99,587.733 1708.67,583.826 C1713.24,579.92 1718.22,577.967 1723.61,577.967"/>
<path class="Note" d="M1640.01,577.967 C1643.13,577.967 1645.77,578.779 1647.93,580.404 C1649.94,582.165 1650.94,584.378 1650.94,587.045 C1650.94,591.535 1648.64,595.733 1644.02,599.639 C1639.33,603.545 1634.32,605.498 1628.97,605.498 C1625.85,605.498 1623.21,604.686 1621.07,603.061 C1619.05,601.3 1618.04,599.087 1618.04,596.42 C1618.04,591.93 1620.38,587.733 1625.07,583.826 C1629.63,579.92 1634.61,577.967 1640.01,577.967"/>
<path class="Note" d="M1417.04,610.186 C1417.04,609.082 1416.62,608.139 1415.78,607.358 C1414.92,606.514 1413.94,606.092 1412.84,606.092 C1410.89,606.092 1406.95,608.045 1401.03,611.951 C1394.9,615.92 1391.16,618.753 1389.79,620.451 C1389.07,621.358 1388.71,622.3 1388.71,623.279 C1388.71,624.384 1389.14,625.326 1389.99,626.108 C1390.78,626.951 1391.75,627.373 1392.92,627.373 C1394.8,627.373 1398.78,625.42 1404.84,621.514 C1410.83,617.608 1414.54,614.774 1415.96,613.014 C1416.68,612.17 1417.04,611.227 1417.04,610.186 M1411.87,602.967 C1417.46,602.967 1420.26,605.373 1420.26,610.186 C1420.26,612.529 1419.58,615.264 1418.21,618.389 C1416.85,621.451 1415.03,623.795 1412.74,625.42 C1407.73,628.805 1401.45,630.498 1393.9,630.498 C1388.3,630.498 1385.49,628.092 1385.49,623.279 C1385.49,621.134 1386.18,618.43 1387.54,615.17 C1388.84,612.045 1390.67,609.67 1393.01,608.045 C1398.03,604.66 1404.32,602.967 1411.87,602.967"/>
<path class="Note" d="M1226.79,602.967 C1229.92,602.967 1232.56,603.779 1234.71,605.404 C1236.72,607.165 1237.73,609.378 1237.73,612.045 C1237.73,616.535 1235.42,620.733 1230.81,624.639 C1226.12,628.545 1221.1,630.498 1215.76,630.498 C1212.64,630.498 1210,629.686 1207.85,628.061 C1205.83,626.3 1204.82,624.087 1204.82,621.42 C1204.82,616.93 1207.17,612.733 1211.85,608.826 C1216.42,604.92 1221.4,602.967 1226.79,602.967"/>
<path class="Note" d="M1142.94,615.467 C1146.06,615.467 1148.7,616.279 1150.86,617.904 C1152.87,619.665 1153.87,621.878 1153.87,624.545 C1153.87,629.035 1151.57,633.233 1146.95,637.139 C1142.26,641.045 1137.25,642.998 1131.9,642.998 C1128.78,642.998 1126.14,642.186 1124,640.561 C1121.98,638.8 1120.97,636.587 1120.97,633.92 C1120.97,629.431 1123.31,625.233 1128,621.326 C1132.56,617.42 1137.54,615.467 1142.94,615.467"/>
<path class="Note" d="M1059.08,627.967 C1062.2,627.967 1064.84,628.779 1067,630.404 C1069.01,632.165 1070.02,634.378 1070.02,637.045 C1070.02,641.535 1067.71,645.733 1063.09,649.639 C1058.41,653.545 1053.39,655.498 1048.05,655.498 C1044.92,655.498 1042.29,654.686 1040.14,653.061 C1038.12,651.3 1037.11,649.087 1037.11,646.42 C1037.11,641.931 1039.45,637.733 1044.14,633.826 C1048.7,629.92 1053.68,627.967 1059.08,627.967"/>
<path class="Note" d="M926.88,665.467 C930.005,665.467 932.646,666.279 934.802,667.904 C936.812,669.665 937.817,671.878 937.817,674.545 C937.817,679.035 935.51,683.233 930.896,687.139 C926.208,691.045 921.192,692.998 915.849,692.998 C912.724,692.998 910.088,692.186 907.942,690.561 C905.922,688.8 904.911,686.587 904.911,683.92 C904.911,679.431 907.255,675.233 911.942,671.326 C916.505,667.42 921.484,665.467 926.88,665.467"/>
<path class="Note" d="M735.297,602.967 C738.422,602.967 741.063,603.779 743.219,605.404 C745.23,607.165 746.235,609.378 746.235,612.045 C746.235,616.535 743.928,620.733 739.313,624.639 C734.625,628.545 729.61,630.498 724.266,630.498 C721.141,630.498 718.506,629.686 716.36,628.061 C714.339,626.3 713.329,624.087 713.329,621.42 C713.329,616.93 715.672,612.733 720.36,608.826 C724.922,604.92 729.902,602.967 735.297,602.967"/>
<path class="Note" d="M554.626,602.967 C557.751,602.967 560.392,603.779 562.548,605.404 C564.558,607.165 565.564,609.378 565.564,612.045 C565.564,616.535 563.256,620.733 558.642,624.639 C553.954,628.545 548.939,630.498 543.595,630.498 C540.47,630.498 537.834,629.686 535.689,628.061 C533.668,626.3 532.657,624.087 532.657,621.42 C532.657,616.93 535.001,612.733 539.689,608.826 C544.251,604.92 549.23,602.967 554.626,602.967"/>
<path class="Note" d="M470.769,615.467 C473.894,615.467 476.535,616.279 478.691,617.904 C480.701,619.665 481.707,621.878 481.707,624.545 C481.707,629.035 479.399,633.233 474.785,637.139 C470.097,641.045 465.082,642.998 459.738,642.998 C456.613,642.998 453.977,642.186 451.832,640.561 C449.811,638.8 448.8,636.587 448.8,633.92 C448.8,629.431 451.144,625.233 455.832,621.326 C460.394,617.42 465.373,615.467 470.769,615.467"/>
<path class="Note" d="M386.912,627.967 C390.037,627.967 392.678,628.779 394.834,630.404 C396.844,632.165 397.85,634.378 397.85,637.045 C397.85,641.535 395.542,645.733 390.928,649.639 C386.24,653.545 381.225,655.498 375.881,655.498 C372.756,655.498 370.12,654.686 367.975,653.061 C365.954,651.3 364.943,649.087 364.943,646.42 C364.943,641.931 367.287,637.733 371.975,633.826 C376.537,629.92 381.516,627.967 386.912,627.967"/>
<path class="Clef" d="M190.951,1566.14 C190.951,1566.14 191.149,1566.14 191.545,1566.14 C191.805,1566.08 192.029,1566.05 192.217,1566.05 C199.508,1566.05 205.498,1568.62 210.185,1573.76 C214.873,1578.84 217.217,1584.76 217.217,1591.53 C217.217,1599.94 213.737,1606.77 206.779,1612.05 C204.956,1613.48 202.576,1614.66 199.639,1615.56 C199.972,1619.79 200.139,1623.21 200.139,1625.81 C200.139,1626.33 200.071,1628.22 199.935,1631.48 C199.675,1637.54 197.592,1642.77 193.685,1647.2 C189.915,1651.57 185.227,1653.75 179.623,1653.75 C174.352,1653.75 169.862,1651.89 166.154,1648.19 C162.435,1644.41 160.576,1639.85 160.576,1634.51 C160.576,1631.71 161.654,1629.33 163.81,1627.37 C166.019,1625.43 168.586,1624.45 171.514,1624.45 C174.118,1624.45 176.3,1625.46 178.06,1627.48 C179.883,1629.37 180.795,1631.71 180.795,1634.51 C180.795,1637.05 179.883,1639.22 178.06,1641.05 C176.237,1642.87 174.055,1643.78 171.514,1643.78 C170.472,1643.78 169.467,1643.59 168.498,1643.2 C171.362,1647.43 175.17,1649.55 179.92,1649.55 C184.409,1649.55 188.086,1647.72 190.951,1644.08 C193.951,1640.31 195.581,1635.91 195.842,1630.89 C195.967,1627.76 196.029,1625.98 196.029,1625.53 C196.029,1621.88 195.899,1618.89 195.639,1616.55 C192.389,1617.07 189.493,1617.33 186.951,1617.33 C177.899,1617.33 170.185,1613.74 163.81,1606.58 C157.56,1599.35 154.435,1590.75 154.435,1580.8 C154.435,1578.71 154.628,1576.6 155.014,1574.45 C155.409,1572.69 155.899,1570.77 156.482,1568.69 C156.805,1567.51 157.685,1565.62 159.123,1563.01 C159.644,1562.23 160.23,1561.26 160.881,1560.08 C161.532,1558.91 161.987,1558.13 162.248,1557.75 C162.894,1556.45 164.159,1554.69 166.045,1552.47 C166.566,1551.88 167.105,1551.24 167.662,1550.52 C168.219,1549.81 168.693,1549.22 169.084,1548.76 C169.474,1548.31 169.766,1547.95 169.959,1547.69 C170.152,1547.43 171.618,1545.7 174.357,1542.51 C175.003,1541.86 175.636,1541.16 176.256,1540.41 C176.876,1539.67 177.381,1539.08 177.771,1538.66 C178.162,1538.23 178.456,1537.92 178.654,1537.73 C176.31,1529.98 174.842,1523.8 174.248,1519.17 C173.8,1515.46 173.576,1510.38 173.576,1503.94 C173.576,1498.27 174.878,1492.96 177.482,1488.01 C180.014,1482.88 183.56,1478.68 188.123,1475.42 C188.383,1475.22 188.706,1475.12 189.092,1475.12 C189.55,1475.12 189.878,1475.22 190.076,1475.42 C193.586,1479.65 196.612,1485.15 199.154,1491.92 C201.758,1498.69 203.06,1504.85 203.06,1510.39 C203.06,1516.64 201.566,1522.5 198.576,1527.97 C195.191,1533.76 190.826,1539.75 185.482,1545.94 C186.847,1550.23 188.67,1556.96 190.951,1566.14 M199.248,1611.56 C202.633,1610.32 205.274,1608.21 207.17,1605.22 C209.253,1602.35 210.295,1599.13 210.295,1595.55 C210.295,1590.92 208.732,1586.82 205.607,1583.23 C202.409,1579.52 198.336,1577.44 193.389,1576.98 C196.191,1590.72 198.144,1602.25 199.248,1611.56 M161.467,1589 C161.467,1595.45 164.071,1601.11 169.279,1606 C174.612,1610.75 180.602,1613.12 187.248,1613.12 C189.977,1613.12 192.644,1612.93 195.248,1612.53 C194.206,1602.63 192.154,1590.79 189.092,1576.98 C185.383,1577.38 182.425,1578.68 180.217,1580.89 C178.06,1583.17 176.982,1585.74 176.982,1588.61 C176.982,1593.56 179.623,1597.56 184.904,1600.62 C185.352,1601.08 185.576,1601.57 185.576,1602.09 C185.576,1602.61 185.352,1603.1 184.904,1603.55 C184.508,1604 184.019,1604.23 183.435,1604.23 C183.373,1604.23 183.081,1604.17 182.56,1604.05 C178.842,1602.02 175.977,1599.42 173.967,1596.23 C172.071,1592.84 171.123,1589.42 171.123,1585.97 C171.123,1581.48 172.524,1577.41 175.326,1573.76 C178.253,1570.12 182.06,1567.77 186.748,1566.73 C184.925,1559.44 183.43,1553.74 182.264,1549.64 C181.222,1550.82 179.969,1552.23 178.506,1553.89 C177.042,1555.55 176.18,1556.54 175.92,1556.87 C173.576,1559.93 171.784,1562.3 170.545,1564 C168.326,1567.06 166.696,1569.7 165.654,1571.91 C164.55,1574.38 163.576,1577.09 162.732,1580.01 C161.889,1582.82 161.467,1585.81 161.467,1589 M194.076,1489.69 C189.191,1492.09 185.352,1495.54 182.56,1500.03 C179.696,1504.66 178.264,1509.63 178.264,1514.97 C178.264,1519.66 179.435,1525.97 181.779,1533.92 C186.467,1528.25 189.982,1523.01 192.326,1518.2 C194.795,1513.12 196.029,1507.81 196.029,1502.28 C196.029,1498.11 195.378,1493.92 194.076,1489.69"/>
<path class="Clef" d="M190.951,1091.14 C190.951,1091.14 191.149,1091.14 191.545,1091.14 C191.805,1091.08 192.029,1091.05 192.217,1091.05 C199.508,1091.05 205.498,1093.62 210.185,1098.76 C214.873,1103.84 217.217,1109.76 217.217,1116.53 C217.217,1124.94 213.737,1131.77 206.779,1137.05 C204.956,1138.48 202.576,1139.65 199.639,1140.56 C199.972,1144.79 200.139,1148.21 200.139,1150.81 C200.139,1151.33 200.071,1153.22 199.935,1156.48 C199.675,1162.53 197.592,1167.77 193.685,1172.2 C189.915,1176.57 185.227,1178.75 179.623,1178.75 C174.352,1178.75 169.862,1176.89 166.154,1173.19 C162.435,1169.4 160.576,1164.85 160.576,1159.51 C160.576,1156.71 161.654,1154.33 163.81,1152.37 C166.019,1150.43 168.586,1149.45 171.514,1149.45 C174.118,1149.45 176.3,1150.46 178.06,1152.48 C179.883,1154.37 180.795,1156.71 180.795,1159.51 C180.795,1162.05 179.883,1164.22 178.06,1166.05 C176.237,1167.87 174.055,1168.78 171.514,1168.78 C170.472,1168.78 169.467,1168.59 168.498,1168.2 C171.362,1172.43 175.17,1174.55 179.92,1174.55 C184.409,1174.55 188.086,1172.72 190.951,1169.08 C193.951,1165.31 195.581,1160.91 195.842,1155.89 C195.967,1152.76 196.029,1150.98 196.029,1150.53 C196.029,1146.88 195.899,1143.89 195.639,1141.55 C192.389,1142.07 189.493,1142.33 186.951,1142.33 C177.899,1142.33 170.185,1138.74 163.81,1131.58 C157.56,1124.35 154.435,1115.75 154.435,1105.8 C154.435,1103.71 154.628,1101.6 155.014,1099.45 C155.409,1097.69 155.899,1095.77 156.482,1093.69 C156.805,1092.51 157.685,1090.62 159.123,1088.01 C159.644,1087.23 160.23,1086.26 160.881,1085.08 C161.532,1083.91 161.987,1083.13 162.248,1082.75 C162.894,1081.45 164.159,1079.69 166.045,1077.47 C166.566,1076.88 167.105,1076.24 167.662,1075.52 C168.219,1074.81 168.693,1074.22 169.084,1073.76 C169.474,1073.31 169.766,1072.95 169.959,1072.69 C170.152,1072.43 171.618,1070.7 174.357,1067.51 C175.003,1066.86 175.636,1066.16 176.256,1065.41 C176.876,1064.67 177.381,1064.08 177.771,1063.65 C178.162,1063.23 178.456,1062.92 178.654,1062.73 C176.31,1054.98 174.842,1048.8 174.248,1044.17 C173.8,1040.46 173.576,1035.38 173.576,1028.94 C173.576,1023.27 174.878,1017.96 177.482,1013.01 C180.014,1007.88 183.56,1003.68 188.123,1000.42 C188.383,1000.22 188.706,1000.12 189.092,1000.12 C189.55,1000.12 189.878,1000.22 190.076,1000.42 C193.586,1004.65 196.612,1010.15 199.154,1016.92 C201.758,1023.69 203.06,1029.85 203.06,1035.39 C203.06,1041.64 201.566,1047.5 198.576,1052.97 C195.191,1058.76 190.826,1064.75 185.482,1070.94 C186.847,1075.23 188.67,1081.96 190.951,1091.14 M199.248,1136.56 C202.633,1135.32 205.274,1133.21 207.17,1130.22 C209.253,1127.35 210.295,1124.13 210.295,1120.55 C210.295,1115.92 208.732,1111.82 205.607,1108.23 C202.409,1104.52 198.336,1102.44 193.389,1101.98 C196.191,1115.72 198.144,1127.25 199.248,1136.56 M161.467,1114 C161.467,1120.45 164.071,1126.11 169.279,1131 C174.612,1135.75 180.602,1138.12 187.248,1138.12 C189.977,1138.12 192.644,1137.93 195.248,1137.53 C194.206,1127.63 192.154,1115.78 189.092,1101.98 C185.383,1102.38 182.425,1103.68 180.217,1105.89 C178.06,1108.17 176.982,1110.74 176.982,1113.61 C176.982,1118.56 179.623,1122.56 184.904,1125.62 C185.352,1126.08 185.576,1126.57 185.576,1127.09 C185.576,1127.61 185.352,1128.1 184.904,1128.55 C184.508,1129 184.019,1129.23 183.435,1129.23 C183.373,1129.23 183.081,1129.17 182.56,1129.05 C178.842,1127.02 175.977,1124.42 173.967,1121.23 C172.071,1117.84 171.123,1114.42 171.123,1110.97 C171.123,1106.48 172.524,1102.41 175.326,1098.76 C178.253,1095.12 182.06,1092.77 186.748,1091.73 C184.925,1084.44 183.43,1078.74 182.264,1074.64 C181.222,1075.82 179.969,1077.23 178.506,1078.89 C177.042,1080.55 176.18,1081.54 175.92,1081.87 C173.576,1084.93 171.784,1087.3 170.545,1089 C168.326,1092.06 166.696,1094.7 165.654,1096.9 C164.55,1099.38 163.576,1102.09 162.732,1105.01 C161.889,1107.82 161.467,1110.81 161.467,1114 M194.076,1014.69 C189.191,1017.09 185.352,1020.54 182.56,1025.03 C179.696,1029.65 178.264,1034.63 178.264,1039.97 C178.264,1044.65 179.435,1050.97 181.779,1058.92 C186.467,1053.25 189.982,1048.01 192.326,1043.2 C194.795,1038.12 196.029,1032.81 196.029,1027.28 C196.029,1023.11 195.378,1018.92 194.076,1014.69"/>
<path class="Clef" d="M190.951,616.139 C190.951,616.139 191.149,616.139 191.545,616.139 C191.805,616.076 192.029,616.045 192.217,616.045 C199.508,616.045 205.498,618.618 210.185,623.764 C214.873,628.837 217.217,634.759 217.217,641.529 C217.217,649.936 213.737,656.774 206.779,662.045 C204.956,663.483 202.576,664.654 199.639,665.561 C199.972,669.79 200.139,673.207 200.139,675.811 C200.139,676.332 200.071,678.222 199.935,681.483 C199.675,687.535 197.592,692.774 193.685,697.201 C189.915,701.566 185.227,703.748 179.623,703.748 C174.352,703.748 169.862,701.894 166.154,698.186 C162.435,694.404 160.576,689.847 160.576,684.514 C160.576,681.712 161.654,679.332 163.81,677.373 C166.019,675.425 168.586,674.451 171.514,674.451 C174.118,674.451 176.3,675.462 178.06,677.483 C179.883,679.368 180.795,681.712 180.795,684.514 C180.795,687.045 179.883,689.222 178.06,691.045 C176.237,692.868 174.055,693.779 171.514,693.779 C170.472,693.779 169.467,693.587 168.498,693.201 C171.362,697.431 175.17,699.545 179.92,699.545 C184.409,699.545 188.086,697.722 190.951,694.076 C193.951,690.306 195.581,685.91 195.842,680.889 C195.967,677.764 196.029,675.977 196.029,675.529 C196.029,671.884 195.899,668.889 195.639,666.545 C192.389,667.066 189.493,667.326 186.951,667.326 C177.899,667.326 170.185,663.743 163.81,656.576 C157.56,649.347 154.435,640.753 154.435,630.795 C154.435,628.712 154.628,626.597 155.014,624.451 C155.409,622.691 155.899,620.769 156.482,618.686 C156.805,617.509 157.685,615.618 159.123,613.014 C159.644,612.233 160.23,611.256 160.881,610.084 C161.532,608.912 161.987,608.134 162.248,607.748 C162.894,606.446 164.159,604.686 166.045,602.467 C166.566,601.884 167.105,601.235 167.662,600.522 C168.219,599.808 168.693,599.222 169.084,598.764 C169.474,598.306 169.766,597.946 169.959,597.686 C170.152,597.425 171.618,595.701 174.357,592.514 C175.003,591.858 175.636,591.157 176.256,590.412 C176.876,589.667 177.381,589.082 177.771,588.654 C178.162,588.227 178.456,587.92 178.654,587.733 C176.31,579.983 174.842,573.795 174.248,569.17 C173.8,565.462 173.576,560.384 173.576,553.936 C173.576,548.269 174.878,542.962 177.482,538.014 C180.014,532.878 183.56,528.681 188.123,525.42 C188.383,525.222 188.706,525.123 189.092,525.123 C189.55,525.123 189.878,525.222 190.076,525.42 C193.586,529.649 196.612,535.149 199.154,541.92 C201.758,548.691 203.06,554.847 203.06,560.389 C203.06,566.639 201.566,572.498 198.576,577.967 C195.191,583.759 190.826,589.748 185.482,595.936 C186.847,600.227 188.67,606.962 190.951,616.139 M199.248,661.561 C202.633,660.321 205.274,658.207 207.17,655.217 C209.253,652.352 210.295,649.128 210.295,645.545 C210.295,640.92 208.732,636.816 205.607,633.233 C202.409,629.524 198.336,627.441 193.389,626.983 C196.191,640.722 198.144,652.248 199.248,661.561 M161.467,638.998 C161.467,645.446 164.071,651.113 169.279,655.998 C174.612,660.748 180.602,663.123 187.248,663.123 C189.977,663.123 192.644,662.925 195.248,662.529 C194.206,652.634 192.154,640.785 189.092,626.983 C185.383,627.378 182.425,628.681 180.217,630.889 C178.06,633.17 176.982,635.743 176.982,638.608 C176.982,643.556 179.623,647.561 184.904,650.623 C185.352,651.082 185.576,651.571 185.576,652.092 C185.576,652.613 185.352,653.097 184.904,653.545 C184.508,654.003 184.019,654.233 183.435,654.233 C183.373,654.233 183.081,654.17 182.56,654.045 C178.842,652.024 175.977,649.42 173.967,646.233 C172.071,642.837 171.123,639.415 171.123,635.967 C171.123,631.477 172.524,627.41 175.326,623.764 C178.253,620.118 182.06,617.774 186.748,616.733 C184.925,609.441 183.43,603.743 182.264,599.639 C181.222,600.816 179.969,602.233 178.506,603.889 C177.042,605.545 176.18,606.54 175.92,606.873 C173.576,609.925 171.784,612.3 170.545,613.998 C168.326,617.061 166.696,619.696 165.654,621.904 C164.55,624.384 163.576,627.087 162.732,630.014 C161.889,632.816 161.467,635.811 161.467,638.998 M194.076,539.686 C189.191,542.092 185.352,545.54 182.56,550.029 C179.696,554.654 178.264,559.634 178.264,564.967 C178.264,569.654 179.435,575.972 181.779,583.92 C186.467,578.253 189.982,573.014 192.326,568.201 C194.795,563.118 196.029,557.811 196.029,552.279 C196.029,548.113 195.378,543.915 194.076,539.686"/>
<path class="KeySig" d="M263.748,1547.89 C263.748,1549.13 263.131,1549.75 261.896,1549.75 C260.662,1549.75 260.045,1549.13 260.045,1547.89 L260.045,1533.44 L251.748,1536.56 L251.748,1552.37 C251.748,1553.61 251.128,1554.23 249.889,1554.23 C248.649,1554.23 248.029,1553.61 248.029,1552.37 L248.029,1537.83 L244.904,1539 C244.842,1539.06 244.581,1539.09 244.123,1539.09 C243.602,1539.09 243.146,1538.9 242.756,1538.51 C242.365,1538.12 242.17,1537.66 242.17,1537.14 L242.17,1531.09 C242.17,1530.11 242.592,1529.49 243.435,1529.23 L248.029,1527.67 L248.029,1511.66 L244.904,1512.73 C244.842,1512.8 244.581,1512.83 244.123,1512.83 C243.602,1512.83 243.146,1512.63 242.756,1512.24 C242.365,1511.85 242.17,1511.39 242.17,1510.87 L242.17,1504.81 C242.17,1503.91 242.592,1503.32 243.435,1503.06 L248.029,1501.3 L248.029,1485.58 C248.029,1484.34 248.649,1483.72 249.889,1483.72 C251.128,1483.72 251.748,1484.34 251.748,1485.58 L251.748,1500.03 L260.045,1496.91 L260.045,1481.09 C260.045,1479.85 260.662,1479.23 261.896,1479.23 C263.131,1479.23 263.748,1479.85 263.748,1481.09 L263.748,1495.64 L266.982,1494.47 C267.045,1494.41 267.269,1494.37 267.654,1494.37 C268.113,1494.37 268.602,1494.57 269.123,1494.95 C269.519,1495.35 269.717,1495.81 269.717,1496.33 L269.717,1502.37 C269.717,1503.29 269.258,1503.91 268.342,1504.23 L263.748,1505.8 L263.748,1521.81 L266.982,1520.73 C267.045,1520.67 267.269,1520.64 267.654,1520.64 C268.113,1520.64 268.602,1520.84 269.123,1521.23 C269.519,1521.62 269.717,1522.07 269.717,1522.59 L269.717,1528.66 C269.717,1529.5 269.258,1530.08 268.342,1530.41 L263.748,1532.17 L263.748,1547.89 M260.045,1507.26 L251.748,1510.19 L251.748,1526.2 L260.045,1523.28 L260.045,1507.26 "/>
<path class="KeySig" d="M263.748,1072.89 C263.748,1074.13 263.131,1074.75 261.896,1074.75 C260.662,1074.75 260.045,1074.13 260.045,1072.89 L260.045,1058.44 L251.748,1061.56 L251.748,1077.37 C251.748,1078.61 251.128,1079.23 249.889,1079.23 C248.649,1079.23 248.029,1078.61 248.029,1077.37 L248.029,1062.83 L244.904,1064 C244.842,1064.06 244.581,1064.09 244.123,1064.09 C243.602,1064.09 243.146,1063.9 242.756,1063.51 C242.365,1063.12 242.17,1062.66 242.17,1062.14 L242.17,1056.09 C242.17,1055.11 242.592,1054.49 243.435,1054.23 L248.029,1052.67 L248.029,1036.65 L244.904,1037.73 C244.842,1037.8 244.581,1037.83 244.123,1037.83 C243.602,1037.83 243.146,1037.63 242.756,1037.24 C242.365,1036.85 242.17,1036.39 242.17,1035.87 L242.17,1029.81 C242.17,1028.9 242.592,1028.32 243.435,1028.06 L248.029,1026.3 L248.029,1010.58 C248.029,1009.34 248.649,1008.72 249.889,1008.72 C251.128,1008.72 251.748,1009.34 251.748,1010.58 L251.748,1025.03 L260.045,1021.9 L260.045,1006.09 C260.045,1004.85 260.662,1004.23 261.896,1004.23 C263.131,1004.23 263.748,1004.85 263.748,1006.09 L263.748,1020.64 L266.982,1019.47 C267.045,1019.4 267.269,1019.37 267.654,1019.37 C268.113,1019.37 268.602,1019.57 269.123,1019.95 C269.519,1020.35 269.717,1020.81 269.717,1021.33 L269.717,1027.37 C269.717,1028.29 269.258,1028.91 268.342,1029.23 L263.748,1030.8 L263.748,1046.81 L266.982,1045.73 C267.045,1045.67 267.269,1045.64 267.654,1045.64 C268.113,1045.64 268.602,1045.84 269.123,1046.23 C269.519,1046.62 269.717,1047.07 269.717,1047.59 L269.717,1053.65 C269.717,1054.5 269.258,1055.08 268.342,1055.4 L263.748,1057.17 L263.748,1072.89 M260.045,1032.26 L251.748,1035.19 L251.748,1051.2 L260.045,1048.28 L260.045,1032.26 "/>
<path class="KeySig" d="M263.748,597.889 C263.748,599.128 263.131,599.748 261.896,599.748 C260.662,599.748 260.045,599.128 260.045,597.889 L260.045,583.436 L251.748,586.561 L251.748,602.373 C251.748,603.613 251.128,604.233 249.889,604.233 C248.649,604.233 248.029,603.613 248.029,602.373 L248.029,587.826 L244.904,588.998 C244.842,589.061 244.581,589.092 244.123,589.092 C243.602,589.092 243.146,588.897 242.756,588.506 C242.365,588.115 242.17,587.66 242.17,587.139 L242.17,581.092 C242.17,580.113 242.592,579.493 243.435,579.233 L248.029,577.67 L248.029,561.654 L244.904,562.733 C244.842,562.795 244.581,562.826 244.123,562.826 C243.602,562.826 243.146,562.631 242.756,562.24 C242.365,561.85 242.17,561.394 242.17,560.873 L242.17,554.811 C242.17,553.904 242.592,553.321 243.435,553.061 L248.029,551.295 L248.029,535.576 C248.029,534.337 248.649,533.717 249.889,533.717 C251.128,533.717 251.748,534.337 251.748,535.576 L251.748,550.029 L260.045,546.904 L260.045,531.092 C260.045,529.852 260.662,529.233 261.896,529.233 C263.131,529.233 263.748,529.852 263.748,531.092 L263.748,545.639 L266.982,544.467 C267.045,544.404 267.269,544.373 267.654,544.373 C268.113,544.373 268.602,544.566 269.123,544.951 C269.519,545.347 269.717,545.805 269.717,546.326 L269.717,552.373 C269.717,553.29 269.258,553.91 268.342,554.233 L263.748,555.795 L263.748,571.811 L266.982,570.733 C267.045,570.67 267.269,570.639 267.654,570.639 C268.113,570.639 268.602,570.837 269.123,571.233 C269.519,571.618 269.717,572.071 269.717,572.592 L269.717,578.654 C269.717,579.498 269.258,580.082 268.342,580.404 L263.748,582.17 L263.748,597.889 M260.045,557.264 L251.748,560.186 L251.748,576.201 L260.045,573.279 L260.045,557.264 "/>
<path class="TimeSig" d="M319.693,616.733 C317.735,616.733 315.975,616.376 314.412,615.662 C312.85,614.949 311.745,614.201 311.1,613.42 C310.245,612.441 309.396,611.691 308.553,611.17 C307.511,610.451 306.438,610.092 305.334,610.092 C303.636,610.092 302.235,610.613 301.131,611.654 C299.964,612.634 299.313,613.967 299.178,615.654 C299.053,616.373 298.662,616.733 298.006,616.733 C297.225,616.733 296.834,616.373 296.834,615.654 C296.834,613.123 297.422,610.847 298.6,608.826 C299.766,606.743 301.199,605.019 302.896,603.654 C304.324,602.415 306.209,600.915 308.553,599.154 C308.949,598.832 309.779,598.149 311.045,597.108 C312.311,596.066 313.37,595.186 314.225,594.467 C315.912,593.04 317.376,591.149 318.615,588.795 C319.782,586.451 320.365,583.915 320.365,581.186 C320.365,577.863 319.813,574.998 318.709,572.592 C317.542,570.248 315.751,569.076 313.334,569.076 C311.844,569.076 310.641,569.399 309.725,570.045 C308.745,570.701 308.256,571.582 308.256,572.686 C308.256,573.602 308.842,574.743 310.014,576.108 C311.186,577.472 311.771,578.613 311.771,579.529 C311.771,581.477 311.089,583.134 309.725,584.498 C308.422,585.8 306.829,586.451 304.943,586.451 C302.985,586.451 301.324,585.769 299.959,584.404 C298.657,582.977 298.006,581.352 298.006,579.529 C298.006,575.811 299.503,572.748 302.498,570.342 C305.493,567.936 309.105,566.733 313.334,566.733 C318.355,566.733 322.719,568.097 326.428,570.826 C330.136,573.43 331.99,576.884 331.99,581.186 C331.99,584.113 331.469,586.618 330.428,588.701 C329.449,590.92 327.985,592.649 326.037,593.889 C323.818,595.316 321.896,596.42 320.271,597.201 C317.99,598.243 315.714,599.222 313.443,600.139 C310.704,601.243 308.584,602.285 307.084,603.264 C307.938,603.066 308.818,602.967 309.725,602.967 C312.725,602.967 315.85,603.941 319.1,605.889 C322.422,607.847 324.995,608.826 326.818,608.826 C327.922,608.826 328.803,608.628 329.459,608.233 C330.105,607.847 330.527,607.425 330.725,606.967 C330.985,606.321 331.214,605.868 331.412,605.608 C331.672,605.212 331.995,605.014 332.381,605.014 C333.162,605.014 333.553,605.404 333.553,606.186 C333.553,608.009 332.251,610.222 329.646,612.826 C327.105,615.43 323.787,616.733 319.693,616.733"/>
<path class="TimeSig" d="M317.506,618.084 C319.454,618.084 321.113,617.858 322.482,617.404 C323.852,616.951 324.73,616.725 325.115,616.725 C325.574,616.725 325.933,616.855 326.193,617.115 C326.391,617.303 326.521,617.527 326.584,617.787 C326.584,617.923 326.516,618.121 326.381,618.381 L297.975,651.397 L314.662,651.397 L314.662,638.303 C314.662,637.459 314.891,636.74 315.35,636.147 C316.131,635.501 316.782,635.11 317.303,634.975 C318.146,634.589 319.188,633.678 320.428,632.24 C321.469,631.074 322.709,629.027 324.146,626.1 C324.334,625.704 324.626,625.506 325.021,625.506 C325.803,625.506 326.256,625.964 326.381,626.881 L326.381,651.397 L333.521,651.397 C334.428,651.397 334.949,651.881 335.084,652.85 C335.084,653.829 334.563,654.319 333.521,654.319 L326.381,654.319 L326.381,655.1 C326.381,657.704 327.032,659.917 328.334,661.74 C329.834,663.563 331.594,664.475 333.615,664.475 C334.396,664.475 334.787,664.865 334.787,665.647 C334.787,666.428 334.396,666.819 333.615,666.819 C332.251,666.819 330.037,666.626 326.975,666.24 C324.172,665.782 321.99,665.553 320.428,665.553 C318.803,665.553 316.62,665.782 313.881,666.24 C310.954,666.626 308.777,666.819 307.35,666.819 C306.568,666.819 306.178,666.428 306.178,665.647 C306.178,664.865 306.568,664.475 307.35,664.475 C309.36,664.475 311.115,663.563 312.615,661.74 C313.98,659.855 314.662,657.641 314.662,655.1 L314.662,654.319 L297.975,654.319 C296.86,654.319 296.079,654.058 295.631,653.537 C295.1,653.152 294.834,652.631 294.834,651.975 C294.834,651.777 295.324,651.095 296.303,649.928 C297.417,648.626 298.589,647.032 299.818,645.147 C301.256,642.928 302.626,640.647 303.928,638.303 C305.355,635.636 306.495,632.574 307.35,629.115 C308.318,625.605 308.803,622.027 308.803,618.381 C308.803,617.339 309.261,616.819 310.178,616.819 C310.376,616.819 310.797,616.917 311.443,617.115 C311.641,617.178 312.05,617.274 312.67,617.404 C313.29,617.535 313.792,617.662 314.178,617.787 C315.355,617.985 316.464,618.084 317.506,618.084"/>
<path class="Rest" d="M1239.49,1071.22 C1241.37,1071.22 1242.81,1071.74 1243.78,1072.78 C1244.76,1073.96 1245.28,1075.07 1245.35,1076.11 C1245.48,1077.09 1245.81,1078.19 1246.33,1079.42 C1246.91,1080.46 1247.66,1080.98 1248.57,1080.98 C1249.28,1080.98 1250.36,1080.17 1251.8,1078.55 C1253.1,1077.12 1254.04,1075.85 1254.63,1074.73 C1254.95,1074.09 1255.4,1073.76 1255.99,1073.76 L1256.1,1073.76 C1256.74,1073.83 1257.2,1074.15 1257.46,1074.73 L1245.16,1116.73 C1244.5,1117.39 1243.59,1117.72 1242.42,1117.72 C1241.25,1117.72 1240.34,1117.39 1239.69,1116.73 L1251.41,1084.11 C1247.24,1085.61 1243.73,1086.36 1240.86,1086.36 C1238.52,1086.36 1236.5,1085.61 1234.8,1084.11 C1233.04,1082.68 1232.16,1080.8 1232.16,1078.45 C1232.16,1076.43 1232.88,1074.74 1234.32,1073.37 C1235.74,1071.94 1237.47,1071.22 1239.49,1071.22"/>
<path class="Beam" fill-rule="evenodd" d="M2073.99,1504.3 L2192.69,1510.72 L2192.69,1522.74 L2073.99,1516.32 L2073.99,1504.3 "/>
<path class="Beam" fill-rule="evenodd" d="M1816.51,1485.54 L1931.5,1491.97 L1931.5,1503.99 L1816.51,1497.56 L1816.51,1485.54 "/>
<path class="Beam" fill-rule="evenodd" d="M768.47,1629.47 L887.174,1635.9 L887.174,1647.92 L768.47,1641.49 L768.47,1629.47 "/>
<path class="Beam" fill-rule="evenodd" d="M510.992,1610.72 L625.981,1617.16 L625.981,1629.17 L510.992,1622.74 L510.992,1610.72 "/>
<path class="Beam" fill-rule="evenodd" d="M2630.82,1035.73 L2749.23,1035.73 L2749.23,1047.73 L2630.82,1047.73 L2630.82,1035.73 "/>
<path class="Beam" fill-rule="evenodd" d="M2400.51,1066.98 L2518.92,1066.98 L2518.92,1078.98 L2400.51,1078.98 L2400.51,1066.98 "/>
<path class="Beam" fill-rule="evenodd" d="M2136.2,1029.3 L2254.61,1035.72 L2254.61,1047.74 L2136.2,1041.32 L2136.2,1029.3 "/>
<path class="Beam" fill-rule="evenodd" d="M1905.89,1010.55 L2024.3,1016.97 L2024.3,1028.99 L1905.89,1022.57 L1905.89,1010.55 "/>
<path class="Beam" fill-rule="evenodd" d="M1611.92,1135.72 L1730.33,1142.15 L1730.33,1154.17 L1611.92,1147.74 L1611.92,1135.72 "/>
<path class="Beam" fill-rule="evenodd" d="M1381.61,1135.72 L1500.02,1129.3 L1500.02,1141.32 L1381.61,1147.74 L1381.61,1135.72 "/>
<path class="Beam" fill-rule="evenodd" d="M886.992,1110.59 L1005.4,1136.3 L1005.4,1148.58 L886.992,1122.87 L886.992,1110.59 "/>
<path class="Beam" fill-rule="evenodd" d="M622.683,1116.97 L741.087,1110.55 L741.087,1122.57 L622.683,1128.99 L622.683,1116.97 "/>
<path class="Beam" fill-rule="evenodd" d="M392.373,1135.73 L510.778,1135.73 L510.778,1147.73 L392.373,1147.73 L392.373,1135.73 "/>
<path class="Beam" fill-rule="evenodd" d="M2284.54,679.466 L2371.65,685.958 L2371.65,697.992 L2284.54,691.499 L2284.54,679.466 "/>
<path class="Beam" fill-rule="evenodd" d="M1785.25,679.466 L1872.11,685.959 L1872.11,697.992 L1785.25,691.499 L1785.25,679.466 "/>
<path class="Beam" fill-rule="evenodd" d="M1618.04,660.733 L1704.89,660.733 L1704.89,672.733 L1618.04,672.733 L1618.04,660.733 "/>
<path class="Beam" fill-rule="evenodd" d="M1066.77,560.958 L1153.88,554.466 L1153.88,566.499 L1066.77,572.991 L1066.77,560.958 "/>
<path class="Beam" fill-rule="evenodd" d="M394.607,560.958 L481.714,554.466 L481.714,566.499 L394.607,572.991 L394.607,560.958 "/>
<path class="Hook" d="M1140.05,1069.37 C1141.55,1069.37 1143.15,1071.81 1144.85,1076.69 C1146.47,1081.51 1147.29,1086.1 1147.29,1090.47 C1147.29,1094.18 1146.37,1097.85 1144.55,1101.5 C1142.67,1105.4 1140.42,1108.79 1137.82,1111.65 L1129.8,1120.64 C1127.33,1123.5 1125.12,1126.82 1123.16,1130.59 C1121.34,1134.24 1120.43,1137.95 1120.43,1141.73 L1117.3,1141.73 L1117.3,1116.73 L1120.43,1116.73 C1122.19,1115.63 1124.79,1113.87 1128.24,1111.45 C1129.8,1110.28 1132.15,1108.33 1135.27,1105.59 C1137.81,1103.25 1139.73,1100.84 1141.04,1098.37 C1142.4,1095.77 1143.08,1093.13 1143.08,1090.47 C1143.08,1084.28 1141.29,1078.12 1137.71,1072 C1137.71,1072 1137.71,1071.87 1137.71,1071.61 C1137.71,1071.02 1137.91,1070.54 1138.3,1070.15 C1138.82,1069.63 1139.41,1069.37 1140.05,1069.37"/>
<path class="Hook" d="M2183.8,619.373 C2185.3,619.373 2186.9,621.811 2188.6,626.686 C2190.22,631.509 2191.04,636.102 2191.04,640.467 C2191.04,644.175 2190.13,647.852 2188.3,651.498 C2186.42,655.405 2184.17,658.79 2181.57,661.655 L2173.55,670.639 C2171.08,673.503 2168.87,676.821 2166.91,680.592 C2165.09,684.238 2164.18,687.951 2164.18,691.733 L2161.05,691.733 L2161.05,666.733 L2164.18,666.733 C2165.94,665.628 2168.54,663.868 2171.99,661.451 C2173.55,660.285 2175.9,658.332 2179.02,655.592 C2181.56,653.248 2183.49,650.842 2184.79,648.373 C2186.15,645.769 2186.83,643.134 2186.83,640.467 C2186.83,634.28 2185.04,628.123 2181.46,621.998 C2181.46,621.998 2181.46,621.868 2181.46,621.608 C2181.46,621.024 2181.66,620.54 2182.05,620.155 C2182.57,619.634 2183.16,619.373 2183.8,619.373"/>
<path class="Hook" d="M934.575,616.733 L934.575,591.733 L937.7,591.733 C937.7,595.441 938.419,599.154 939.856,602.873 C941.419,606.904 943.143,610.42 945.028,613.42 C946.393,615.566 948.445,618.852 951.185,623.279 C953.268,626.665 955.026,630.212 956.458,633.92 C957.89,637.628 958.606,641.342 958.606,645.061 C958.606,651.832 957.205,658.733 954.403,665.764 C953.883,666.545 953.263,666.936 952.544,666.936 C951.898,666.936 951.315,666.675 950.794,666.154 C950.398,665.759 950.2,665.269 950.2,664.686 L950.2,664.201 C953.002,657.753 954.403,651.373 954.403,645.061 C954.403,641.8 953.424,638.285 951.466,634.514 C949.518,630.67 947.534,627.608 945.513,625.326 C943.231,622.66 940.627,619.795 937.7,616.733 L934.575,616.733 "/>
<path class="VoltaSegment" d="M1612.34,1489.73 L1590.91,1489.73 L1590.91,1489.14 C1597.48,1481.32 1601.47,1476.05 1602.88,1473.35 C1604.28,1470.65 1604.98,1468.01 1604.98,1465.44 C1604.98,1463.55 1604.4,1461.99 1603.23,1460.74 C1602.07,1459.5 1600.65,1458.87 1598.97,1458.87 C1596.21,1458.87 1594.07,1460.25 1592.55,1463.01 L1591.55,1462.66 C1592.52,1459.22 1593.98,1456.68 1595.95,1455.03 C1597.92,1453.38 1600.2,1452.56 1602.78,1452.56 C1604.63,1452.56 1606.31,1452.99 1607.83,1453.85 C1609.35,1454.71 1610.54,1455.89 1611.4,1457.38 C1612.26,1458.88 1612.69,1460.28 1612.69,1461.59 C1612.69,1463.97 1612.03,1466.38 1610.7,1468.84 C1608.89,1472.16 1604.94,1476.77 1598.86,1482.7 L1606.72,1482.7 C1608.66,1482.7 1609.92,1482.62 1610.5,1482.46 C1611.08,1482.3 1611.56,1482.02 1611.94,1481.64 C1612.31,1481.25 1612.8,1480.44 1613.41,1479.2 L1614.38,1479.2 L1612.34,1489.73 M1624.44,1481.47 C1625.69,1481.47 1626.75,1481.91 1627.62,1482.78 C1628.49,1483.66 1628.92,1484.71 1628.92,1485.95 C1628.92,1487.18 1628.48,1488.23 1627.61,1489.1 C1626.73,1489.97 1625.68,1490.41 1624.44,1490.41 C1623.2,1490.41 1622.15,1489.97 1621.28,1489.1 C1620.42,1488.23 1619.98,1487.18 1619.98,1485.95 C1619.98,1484.71 1620.42,1483.66 1621.28,1482.78 C1622.15,1481.91 1623.2,1481.47 1624.44,1481.47"/>
<polyline class="VoltaSegment" fill="none" stroke="#000000" stroke-width="2.50" stroke-linecap="square" stroke-linejoin="bevel" points="1578.06,1489.73 1578.06,1442.23"/>
<polyline class="VoltaSegment" fill="none" stroke="#000000" stroke-width="2.50" stroke-linecap="square" stroke-linejoin="bevel" points="1578.06,1442.23 2814.82,1442.23"/>
<path class="VoltaSegment" d="M297.115,1452.56 L297.115,1482.34 C297.115,1484.58 297.214,1486.01 297.412,1486.63 C297.61,1487.25 298.024,1487.76 298.654,1488.15 C299.284,1488.54 300.287,1488.73 301.662,1488.73 L302.49,1488.73 L302.49,1489.73 L283.318,1489.73 L283.318,1488.73 L284.287,1488.73 C285.839,1488.73 286.949,1488.56 287.615,1488.2 C288.282,1487.85 288.73,1487.36 288.959,1486.73 C289.188,1486.1 289.303,1484.63 289.303,1482.34 L289.303,1463.47 C289.303,1461.78 289.222,1460.73 289.06,1460.31 C288.899,1459.89 288.6,1459.54 288.162,1459.24 C287.725,1458.94 287.219,1458.8 286.646,1458.8 C285.73,1458.8 284.62,1459.08 283.318,1459.66 L282.834,1458.69 L296.24,1452.56 L297.115,1452.56 M314.084,1481.47 C315.334,1481.47 316.394,1481.91 317.264,1482.78 C318.133,1483.66 318.568,1484.71 318.568,1485.95 C318.568,1487.18 318.131,1488.23 317.256,1489.1 C316.381,1489.97 315.324,1490.41 314.084,1490.41 C312.844,1490.41 311.792,1489.97 310.928,1489.1 C310.063,1488.23 309.631,1487.18 309.631,1485.95 C309.631,1484.71 310.063,1483.66 310.928,1482.78 C311.792,1481.91 312.844,1481.47 314.084,1481.47"/>
<polyline class="VoltaSegment" fill="none" stroke="#000000" stroke-width="2.50" stroke-linecap="square" stroke-linejoin="bevel" points="269.709,1489.73 269.709,1442.23"/>
<polyline class="VoltaSegment" fill="none" stroke="#000000" stroke-width="2.50" stroke-linecap="square" stroke-linejoin="bevel" points="269.709,1442.23 1415.22,1442.23"/>
<path class="NoteDot" d="M2029.79,583.24 C2028.68,582.131 2028.13,580.795 2028.13,579.233 C2028.13,577.67 2028.68,576.334 2029.79,575.225 C2030.9,574.115 2032.24,573.561 2033.8,573.561 C2035.36,573.561 2036.7,574.115 2037.8,575.225 C2038.9,576.334 2039.46,577.67 2039.46,579.233 C2039.46,580.795 2038.9,582.131 2037.8,583.24 C2036.7,584.35 2035.36,584.904 2033.8,584.904 C2032.24,584.904 2030.9,584.35 2029.79,583.24"/>
<path class="NoteDot" d="M756.657,608.24 C755.547,607.131 754.993,605.795 754.993,604.233 C754.993,602.67 755.547,601.334 756.657,600.225 C757.766,599.115 759.102,598.561 760.665,598.561 C762.227,598.561 763.56,599.115 764.665,600.225 C765.769,601.334 766.321,602.67 766.321,604.233 C766.321,605.795 765.769,607.131 764.665,608.24 C763.56,609.35 762.227,609.904 760.665,609.904 C759.102,609.904 757.766,609.35 756.657,608.24"/>
</svg>
