<?xml version="1.0" encoding="UTF-8" standalone="no"?>
<svg width="3060px" height="3960px" viewBox="0 0 3060 3960"
 xmlns="http://www.w3.org/2000/svg" xmlns:xlink="http://www.w3.org/1999/xlink" version="1.2" baseProfile="tiny">
<title>Rau_ma_dor_ochii_ma_dor</title>
<desc>Generated by MuseScore 3.0.2</desc>
<polyline class="StaffLines" fill="none" stroke="#000000" stroke-width="2.00" stroke-linejoin="bevel" points="141.732,566.733 2918.27,566.733"/>
<polyline class="StaffLines" fill="none" stroke="#000000" stroke-width="2.00" stroke-linejoin="bevel" points="141.732,591.733 2918.27,591.733"/>
<polyline class="StaffLines" fill="none" stroke="#000000" stroke-width="2.00" stroke-linejoin="bevel" points="141.732,616.733 2918.27,616.733"/>
<polyline class="StaffLines" fill="none" stroke="#000000" stroke-width="2.00" stroke-linejoin="bevel" points="141.732,641.733 2918.27,641.733"/>
<polyline class="StaffLines" fill="none" stroke="#000000" stroke-width="2.00" stroke-linejoin="bevel" points="141.732,666.733 2918.27,666.733"/>
<polyline class="StaffLines" fill="none" stroke="#000000" stroke-width="2.00" stroke-linejoin="bevel" points="141.732,1041.73 2918.27,1041.73"/>
<polyline class="StaffLines" fill="none" stroke="#000000" stroke-width="2.00" stroke-linejoin="bevel" points="141.732,1066.73 2918.27,1066.73"/>
<polyline class="StaffLines" fill="none" stroke="#000000" stroke-width="2.00" stroke-linejoin="bevel" points="141.732,1091.73 2918.27,1091.73"/>
<polyline class="StaffLines" fill="none" stroke="#000000" stroke-width="2.00" stroke-linejoin="bevel" points="141.732,1116.73 2918.27,1116.73"/>
<polyline class="StaffLines" fill="none" stroke="#000000" stroke-width="2.00" stroke-linejoin="bevel" points="141.732,1141.73 2918.27,1141.73"/>
<path class="Text" d="M1419.25,315.293 L1417.64,315.293 C1417.21,312.449 1416.53,310.618 1415.6,309.8 C1414.67,308.983 1412.78,308.574 1409.94,308.574 L1399.78,308.574 L1399.78,323.136 C1399.78,325.98 1400.16,327.821 1400.94,328.66 C1401.71,329.498 1403.45,329.991 1406.15,330.136 L1406.15,331.465 L1386.54,331.465 L1386.54,330.136 C1389.21,329.949 1390.89,329.446 1391.59,328.629 C1392.29,327.811 1392.64,325.954 1392.64,323.058 L1392.64,292.746 C1392.64,290.277 1392.27,288.657 1391.52,287.886 C1390.78,287.116 1389.12,286.636 1386.54,286.449 L1386.54,285.121 L1423.72,285.121 L1423.94,295.136 L1422.19,295.136 C1421.58,292.001 1420.65,289.991 1419.39,289.105 C1418.13,288.22 1415.51,287.777 1411.54,287.777 L1402.01,287.777 C1401.09,287.777 1400.48,287.928 1400.2,288.23 C1399.92,288.532 1399.78,289.178 1399.78,290.168 L1399.78,305.699 L1409.94,305.699 C1412.74,305.699 1414.62,305.29 1415.57,304.472 C1416.52,303.655 1417.21,301.85 1417.64,299.058 L1419.25,299.058 L1419.25,315.293 M1426.25,324.558 C1426.25,323.715 1426.34,322.933 1426.53,322.215 C1426.72,321.496 1427.04,320.824 1427.51,320.199 C1427.97,319.574 1428.41,319.006 1428.83,318.496 C1429.26,317.985 1429.89,317.462 1430.72,316.925 C1431.56,316.389 1432.26,315.946 1432.83,315.597 C1433.39,315.248 1434.24,314.832 1435.38,314.347 C1436.52,313.863 1437.4,313.493 1438.01,313.238 C1438.62,312.983 1439.57,312.6 1440.88,312.09 C1442.19,311.579 1443.14,311.204 1443.75,310.965 L1443.75,306.73 C1443.75,302.876 1441.98,300.949 1438.44,300.949 C1437.03,300.949 1435.84,301.285 1434.86,301.957 C1433.88,302.629 1433.39,303.433 1433.39,304.371 C1433.39,304.746 1433.45,305.259 1433.56,305.91 C1433.67,306.561 1433.73,306.98 1433.73,307.168 C1433.73,307.959 1433.42,308.647 1432.79,309.23 C1432.16,309.813 1431.42,310.105 1430.59,310.105 C1429.8,310.105 1429.1,309.803 1428.49,309.199 C1427.88,308.595 1427.58,307.897 1427.58,307.105 C1427.58,304.907 1428.71,303.05 1430.97,301.535 C1433.24,300.019 1436.03,299.261 1439.34,299.261 C1443.16,299.261 1445.8,300.178 1447.25,302.011 C1448.7,303.845 1449.42,306.647 1449.42,310.418 L1449.42,323.996 C1449.42,325.527 1449.57,326.582 1449.87,327.16 C1450.17,327.738 1450.72,328.027 1451.51,328.027 C1452.5,328.027 1453.53,327.59 1454.61,326.715 L1454.61,328.543 C1453.39,329.938 1452.32,330.892 1451.41,331.402 C1450.5,331.912 1449.46,332.168 1448.29,332.168 C1446.85,332.168 1445.79,331.759 1445.12,330.941 C1444.44,330.123 1444.01,328.782 1443.83,326.918 C1439.81,330.418 1436.39,332.168 1433.59,332.168 C1431.45,332.168 1429.69,331.457 1428.31,330.035 C1426.94,328.613 1426.25,326.787 1426.25,324.558 M1443.75,322.746 L1443.75,312.636 C1439.55,314.168 1436.61,315.655 1434.93,317.097 C1433.25,318.54 1432.4,320.282 1432.4,322.324 C1432.4,324.23 1432.87,325.647 1433.81,326.574 C1434.75,327.501 1435.75,327.965 1436.83,327.965 C1438.41,327.965 1440.11,327.428 1441.94,326.355 C1442.67,325.938 1443.16,325.498 1443.4,325.035 C1443.63,324.571 1443.75,323.808 1443.75,322.746 M1475.58,306.121 C1474.87,306.121 1474,305.712 1472.97,304.894 C1471.95,304.077 1471.27,303.668 1470.95,303.668 C1470.01,303.668 1468.96,304.345 1467.79,305.699 C1466.63,307.053 1466.04,308.293 1466.04,309.418 L1466.04,325.168 C1466.04,327.168 1466.44,328.519 1467.24,329.222 C1468.04,329.925 1469.62,330.324 1472,330.418 L1472,331.465 L1455.2,331.465 L1455.2,330.418 C1457.44,329.991 1458.83,329.522 1459.37,329.011 C1459.9,328.501 1460.17,327.36 1460.17,325.59 L1460.17,308.09 C1460.17,306.548 1460,305.462 1459.65,304.832 C1459.3,304.202 1458.68,303.886 1457.79,303.886 C1457.04,303.886 1456.23,303.98 1455.34,304.168 L1455.34,303.043 C1459.07,301.824 1462.52,300.563 1465.7,299.261 L1466.04,299.402 L1466.04,305.84 C1467.77,303.371 1469.25,301.657 1470.46,300.699 C1471.67,299.741 1473,299.261 1474.45,299.261 C1475.66,299.261 1476.6,299.587 1477.28,300.238 C1477.96,300.889 1478.29,301.798 1478.29,302.965 C1478.29,303.954 1478.05,304.728 1477.56,305.285 C1477.07,305.842 1476.41,306.121 1475.58,306.121 M1480.25,324.558 C1480.25,323.715 1480.34,322.933 1480.53,322.215 C1480.72,321.496 1481.04,320.824 1481.51,320.199 C1481.97,319.574 1482.41,319.006 1482.83,318.496 C1483.26,317.985 1483.89,317.462 1484.72,316.925 C1485.56,316.389 1486.26,315.946 1486.83,315.597 C1487.39,315.248 1488.24,314.832 1489.38,314.347 C1490.52,313.863 1491.4,313.493 1492.01,313.238 C1492.62,312.983 1493.57,312.6 1494.88,312.09 C1496.19,311.579 1497.14,311.204 1497.75,310.965 L1497.75,306.73 C1497.75,302.876 1495.98,300.949 1492.44,300.949 C1491.03,300.949 1489.84,301.285 1488.86,301.957 C1487.88,302.629 1487.39,303.433 1487.39,304.371 C1487.39,304.746 1487.45,305.259 1487.56,305.91 C1487.67,306.561 1487.73,306.98 1487.73,307.168 C1487.73,307.959 1487.42,308.647 1486.79,309.23 C1486.16,309.813 1485.42,310.105 1484.59,310.105 C1483.8,310.105 1483.1,309.803 1482.49,309.199 C1481.88,308.595 1481.58,307.897 1481.58,307.105 C1481.58,304.907 1482.71,303.05 1484.97,301.535 C1487.24,300.019 1490.03,299.261 1493.34,299.261 C1497.16,299.261 1499.8,300.178 1501.25,302.011 C1502.7,303.845 1503.42,306.647 1503.42,310.418 L1503.42,323.996 C1503.42,325.527 1503.57,326.582 1503.87,327.16 C1504.17,327.738 1504.72,328.027 1505.51,328.027 C1506.5,328.027 1507.53,327.59 1508.61,326.715 L1508.61,328.543 C1507.39,329.938 1506.32,330.892 1505.41,331.402 C1504.5,331.912 1503.46,332.168 1502.29,332.168 C1500.85,332.168 1499.79,331.759 1499.12,330.941 C1498.44,330.123 1498.01,328.782 1497.83,326.918 C1493.81,330.418 1490.39,332.168 1487.59,332.168 C1485.45,332.168 1483.69,331.457 1482.31,330.035 C1480.94,328.613 1480.25,326.787 1480.25,324.558 M1497.75,322.746 L1497.75,312.636 C1493.55,314.168 1490.61,315.655 1488.93,317.097 C1487.25,318.54 1486.4,320.282 1486.4,322.324 C1486.4,324.23 1486.87,325.647 1487.81,326.574 C1488.75,327.501 1489.75,327.965 1490.83,327.965 C1492.41,327.965 1494.11,327.428 1495.94,326.355 C1496.67,325.938 1497.16,325.498 1497.4,325.035 C1497.63,324.571 1497.75,323.808 1497.75,322.746 M1544.62,299.965 L1544.62,302.058 L1537.56,302.058 L1537.56,322.09 C1537.56,324.277 1537.84,325.873 1538.4,326.879 C1538.95,327.884 1539.89,328.386 1541.2,328.386 C1542.65,328.386 1544.05,327.569 1545.4,325.933 L1546.31,326.699 C1544.07,330.345 1541.27,332.168 1537.9,332.168 C1533.76,332.168 1531.69,329.188 1531.69,323.23 L1531.69,302.058 L1527.97,302.058 C1527.78,301.933 1527.69,301.782 1527.69,301.605 C1527.69,301.386 1527.76,301.212 1527.9,301.082 C1528.04,300.952 1528.31,300.764 1528.7,300.519 C1529.1,300.274 1529.58,299.928 1530.14,299.48 C1530.7,299.032 1531.47,298.217 1532.45,297.035 C1533.43,295.853 1534.5,294.433 1535.67,292.777 C1536.42,291.694 1536.89,291.032 1537.08,290.793 C1537.4,290.793 1537.56,291.1 1537.56,291.715 L1537.56,299.965 L1544.62,299.965 M1550.84,303.949 C1549.81,303.949 1548.83,304.022 1547.9,304.168 L1547.9,303.105 C1551.16,302.178 1554.78,300.897 1558.75,299.261 L1559.03,299.465 L1559.03,324.324 C1559.03,326.845 1559.32,328.444 1559.9,329.121 C1560.49,329.798 1561.92,330.23 1564.22,330.418 L1564.22,331.465 L1547.62,331.465 L1547.62,330.418 C1550.05,330.272 1551.58,329.85 1552.21,329.152 C1552.84,328.454 1553.15,326.845 1553.15,324.324 L1553.15,308.09 C1553.15,306.548 1552.98,305.472 1552.62,304.863 C1552.27,304.254 1551.67,303.949 1550.84,303.949 M1555.47,283.652 C1556.49,283.652 1557.35,284.001 1558.04,284.699 C1558.74,285.397 1559.09,286.235 1559.09,287.215 C1559.09,288.246 1558.74,289.1 1558.04,289.777 C1557.35,290.454 1556.49,290.793 1555.47,290.793 C1554.48,290.793 1553.64,290.441 1552.97,289.738 C1552.29,289.035 1551.95,288.194 1551.95,287.215 C1551.95,286.235 1552.3,285.397 1553.01,284.699 C1553.71,284.001 1554.53,283.652 1555.47,283.652 M1566.4,303.746 L1566.4,302.558 C1569.77,301.579 1573.04,300.48 1576.22,299.261 L1576.7,299.402 L1576.7,304.793 C1579.6,302.543 1581.74,301.058 1583.14,300.34 C1584.53,299.621 1586,299.261 1587.54,299.261 C1591.23,299.261 1593.71,301.267 1594.97,305.277 C1598.61,301.267 1602.42,299.261 1606.39,299.261 C1611.79,299.261 1614.5,303.449 1614.5,311.824 L1614.5,326.168 C1614.5,328.772 1615.5,330.142 1617.51,330.277 L1619.33,330.418 L1619.33,331.465 L1604,331.465 L1604,330.418 C1606.05,330.188 1607.33,329.793 1607.85,329.23 C1608.37,328.668 1608.62,327.392 1608.62,325.402 L1608.62,310.699 C1608.62,307.824 1608.25,305.829 1607.51,304.715 C1606.76,303.6 1605.38,303.043 1603.37,303.043 C1600.29,303.043 1597.75,304.459 1595.75,307.293 L1595.75,324.84 C1595.75,327.027 1596.08,328.491 1596.76,329.23 C1597.43,329.97 1598.77,330.366 1600.78,330.418 L1600.78,331.465 L1585.11,331.465 L1585.11,330.418 C1587.11,330.272 1588.4,329.897 1588.98,329.293 C1589.57,328.688 1589.86,327.412 1589.86,325.465 L1589.86,310.355 C1589.86,305.48 1588.32,303.043 1585.23,303.043 C1583.93,303.043 1582.47,303.368 1580.87,304.019 C1579.26,304.67 1577.96,305.715 1576.98,307.152 L1576.98,326.793 C1576.98,328.136 1577.31,329.053 1577.96,329.543 C1578.61,330.032 1579.87,330.324 1581.73,330.418 L1581.73,331.465 L1566.2,331.465 L1566.2,330.418 C1568.16,330.366 1569.46,330.017 1570.12,329.371 C1570.77,328.725 1571.09,327.449 1571.09,325.543 L1571.09,307.918 C1571.09,306.251 1570.92,305.092 1570.57,304.441 C1570.22,303.79 1569.58,303.465 1568.65,303.465 C1567.95,303.465 1567.2,303.558 1566.4,303.746 M1621.48,303.949 L1621.48,302.824 C1624.42,301.938 1627.78,300.751 1631.56,299.261 L1631.98,299.402 L1631.98,304.793 C1634.97,301.105 1638.33,299.261 1642.06,299.261 C1645.47,299.261 1648.27,300.668 1650.46,303.48 C1652.65,306.293 1653.75,309.876 1653.75,314.23 C1653.75,319.303 1652.34,323.561 1649.51,327.004 C1646.69,330.446 1643.2,332.168 1639.04,332.168 C1637.56,332.168 1636.31,331.967 1635.3,331.566 C1634.3,331.165 1633.19,330.407 1631.98,329.293 L1631.98,340.183 C1631.98,342.36 1632.35,343.761 1633.1,344.386 C1633.84,345.011 1635.52,345.35 1638.14,345.402 L1638.14,346.652 L1621.2,346.652 L1621.2,345.465 C1623.25,345.277 1624.58,344.881 1625.19,344.277 C1625.79,343.673 1626.09,342.459 1626.09,340.636 L1626.09,307.871 C1626.09,306.235 1625.91,305.162 1625.54,304.652 C1625.17,304.142 1624.4,303.886 1623.23,303.886 C1622.48,303.886 1621.9,303.907 1621.48,303.949 M1631.98,308.105 L1631.98,325.418 C1631.98,326.449 1632.79,327.48 1634.4,328.511 C1636.01,329.543 1637.63,330.058 1639.26,330.058 C1641.78,330.058 1643.83,328.85 1645.39,326.433 C1646.95,324.017 1647.73,320.866 1647.73,316.98 C1647.73,312.897 1646.95,309.623 1645.39,307.16 C1643.83,304.696 1641.74,303.465 1639.12,303.465 C1637.49,303.465 1635.89,303.98 1634.33,305.011 C1632.76,306.043 1631.98,307.074 1631.98,308.105 M1659.84,303.949 C1658.81,303.949 1657.83,304.022 1656.9,304.168 L1656.9,303.105 C1660.16,302.178 1663.78,300.897 1667.75,299.261 L1668.03,299.465 L1668.03,324.324 C1668.03,326.845 1668.32,328.444 1668.9,329.121 C1669.49,329.798 1670.92,330.23 1673.22,330.418 L1673.22,331.465 L1656.62,331.465 L1656.62,330.418 C1659.05,330.272 1660.58,329.85 1661.21,329.152 C1661.84,328.454 1662.15,326.845 1662.15,324.324 L1662.15,308.09 C1662.15,306.548 1661.98,305.472 1661.62,304.863 C1661.27,304.254 1660.67,303.949 1659.84,303.949 M1664.47,283.652 C1665.49,283.652 1666.35,284.001 1667.04,284.699 C1667.74,285.397 1668.09,286.235 1668.09,287.215 C1668.09,288.246 1667.74,289.1 1667.04,289.777 C1666.35,290.454 1665.49,290.793 1664.47,290.793 C1663.48,290.793 1662.64,290.441 1661.97,289.738 C1661.29,289.035 1660.95,288.194 1660.95,287.215 C1660.95,286.235 1661.3,285.397 1662.01,284.699 C1662.71,284.001 1663.53,283.652 1664.47,283.652"/>
<path class="Text" d="M969.92,144.295 C973.357,144.295 976.636,144.576 979.756,145.138 C982.875,145.701 986.094,146.683 989.412,148.084 C992.73,149.485 995.389,151.67 997.389,154.638 C999.389,157.607 1000.39,161.222 1000.39,165.482 C1000.39,176.086 993.352,182.701 979.279,185.326 C979.04,185.409 978.836,185.451 978.67,185.451 L1003.39,215.81 C1005.08,217.81 1006.66,219.211 1008.14,220.013 C1009.62,220.816 1011.52,221.295 1013.84,221.451 L1013.84,223.732 L994.514,223.732 L965.951,186.779 L959.232,187.013 L959.232,210.654 C959.232,214.977 959.873,217.777 961.154,219.053 C962.435,220.329 965.394,221.128 970.029,221.451 L970.029,223.732 L936.795,223.732 L936.795,221.451 C941.274,221.128 944.094,220.269 945.256,218.873 C946.417,217.477 946.998,214.295 946.998,209.326 L946.998,157.373 C946.998,153.133 946.417,150.394 945.256,149.154 C944.094,147.915 941.274,147.055 936.795,146.576 L936.795,144.295 L969.92,144.295 M959.232,182.576 C968.92,182.42 976.021,181.144 980.537,178.748 C985.053,176.352 987.31,171.847 987.31,165.232 C987.31,159.659 985.532,155.537 981.974,152.865 C978.417,150.193 972.878,148.857 965.357,148.857 C962.961,148.857 961.342,149.157 960.498,149.756 C959.654,150.355 959.232,151.487 959.232,153.154 L959.232,182.576 M1018,211.888 C1018,210.451 1018.16,209.115 1018.47,207.881 C1018.79,206.646 1019.35,205.493 1020.15,204.42 C1020.96,203.347 1021.72,202.373 1022.44,201.498 C1023.15,200.623 1024.23,199.727 1025.68,198.81 C1027.12,197.894 1028.32,197.138 1029.28,196.545 C1030.24,195.951 1031.7,195.235 1033.65,194.396 C1035.61,193.558 1037.11,192.92 1038.15,192.482 C1039.2,192.045 1040.84,191.388 1043.08,190.513 C1045.32,189.638 1046.96,189.003 1048,188.607 L1048,181.326 C1048,174.722 1044.96,171.42 1038.87,171.42 C1036.48,171.42 1034.44,171.998 1032.76,173.154 C1031.07,174.31 1030.23,175.691 1030.23,177.295 C1030.23,177.93 1030.33,178.808 1030.54,179.928 C1030.74,181.047 1030.84,181.769 1030.84,182.092 C1030.84,183.456 1030.3,184.638 1029.22,185.638 C1028.13,186.638 1026.87,187.138 1025.44,187.138 C1024.08,187.138 1022.88,186.618 1021.84,185.576 C1020.8,184.534 1020.28,183.331 1020.28,181.967 C1020.28,178.217 1022.22,175.04 1026.1,172.435 C1029.98,169.831 1034.76,168.529 1040.44,168.529 C1047,168.529 1051.52,170.102 1054,173.248 C1056.48,176.394 1057.72,181.196 1057.72,187.654 L1057.72,210.935 C1057.72,213.56 1057.98,215.37 1058.5,216.365 C1059.02,217.36 1059.96,217.857 1061.31,217.857 C1063,217.857 1064.76,217.102 1066.59,215.592 L1066.59,218.732 C1064.52,221.128 1062.7,222.761 1061.14,223.631 C1059.58,224.5 1057.79,224.935 1055.79,224.935 C1053.32,224.935 1051.5,224.237 1050.33,222.842 C1049.17,221.446 1048.44,219.144 1048.12,215.935 C1041.24,221.935 1035.39,224.935 1030.59,224.935 C1026.91,224.935 1023.9,223.714 1021.54,221.271 C1019.18,218.829 1018,215.701 1018,211.888 M1048,208.779 L1048,191.467 C1040.8,194.092 1035.76,196.638 1032.88,199.107 C1030,201.576 1028.56,204.56 1028.56,208.06 C1028.56,211.321 1029.36,213.748 1030.96,215.342 C1032.56,216.935 1034.28,217.732 1036.12,217.732 C1038.84,217.732 1041.76,216.816 1044.87,214.982 C1046.15,214.274 1047,213.521 1047.4,212.724 C1047.8,211.928 1048,210.612 1048,208.779 M1124.59,217.498 L1124.59,219.17 C1118.35,220.93 1112.87,222.81 1108.15,224.81 L1107.67,224.56 L1107.67,214.388 C1107.43,214.628 1106.73,215.344 1105.58,216.537 C1104.42,217.73 1103.6,218.555 1103.12,219.013 C1102.64,219.472 1101.82,220.178 1100.66,221.131 C1099.5,222.084 1098.48,222.769 1097.6,223.185 C1096.72,223.602 1095.6,223.998 1094.24,224.373 C1092.88,224.748 1091.52,224.935 1090.15,224.935 C1085.76,224.935 1082.24,223.498 1079.6,220.623 C1076.96,217.748 1075.64,213.92 1075.64,209.138 L1075.64,179.06 C1075.64,176.269 1075.12,174.336 1074.08,173.263 C1073.03,172.191 1071.08,171.576 1068.2,171.42 L1068.2,169.732 L1085.72,169.732 L1085.72,208.654 C1085.72,211.123 1086.56,213.253 1088.24,215.045 C1089.92,216.836 1091.92,217.732 1094.23,217.732 C1095.12,217.732 1096.16,217.612 1097.36,217.373 C1098.56,217.133 1099.94,216.675 1101.5,215.998 C1103.06,215.321 1104.38,214.248 1105.46,212.779 C1106.54,211.31 1107.08,209.498 1107.08,207.342 L1107.08,179.295 C1107.08,176.347 1106.54,174.396 1105.46,173.443 C1104.38,172.49 1101.96,171.935 1098.2,171.779 L1098.2,169.732 L1117.15,169.732 L1117.15,210.685 C1117.15,213.477 1117.59,215.31 1118.47,216.185 C1119.35,217.06 1121.2,217.498 1124,217.498 L1124.59,217.498 M1157.56,176.217 L1157.56,174.17 C1163.32,172.503 1168.92,170.623 1174.36,168.529 L1175.2,168.779 L1175.2,177.998 C1180.16,174.144 1183.84,171.602 1186.24,170.373 C1188.64,169.144 1191.16,168.529 1193.79,168.529 C1200.12,168.529 1204.36,171.967 1206.51,178.842 C1212.75,171.967 1219.27,168.529 1226.08,168.529 C1235.36,168.529 1240,175.706 1240,190.06 L1240,214.654 C1240,219.112 1241.72,221.461 1245.15,221.701 L1248.28,221.935 L1248.28,223.732 L1222,223.732 L1222,221.935 C1225.52,221.54 1227.72,220.862 1228.6,219.904 C1229.48,218.946 1229.92,216.758 1229.92,213.342 L1229.92,188.138 C1229.92,183.211 1229.28,179.792 1228,177.881 C1226.72,175.969 1224.36,175.013 1220.92,175.013 C1215.64,175.013 1211.28,177.441 1207.84,182.295 L1207.84,212.388 C1207.84,216.128 1208.42,218.633 1209.58,219.904 C1210.73,221.175 1213.03,221.852 1216.48,221.935 L1216.48,223.732 L1189.59,223.732 L1189.59,221.935 C1193.04,221.696 1195.26,221.058 1196.26,220.021 C1197.26,218.985 1197.76,216.795 1197.76,213.451 L1197.76,187.545 C1197.76,179.191 1195.12,175.013 1189.84,175.013 C1187.6,175.013 1185.1,175.571 1182.34,176.685 C1179.58,177.8 1177.36,179.592 1175.67,182.06 L1175.67,215.732 C1175.67,218.034 1176.23,219.605 1177.36,220.443 C1178.48,221.282 1180.64,221.779 1183.84,221.935 L1183.84,223.732 L1157.2,223.732 L1157.2,221.935 C1160.56,221.852 1162.79,221.253 1163.91,220.138 C1165.03,219.024 1165.59,216.836 1165.59,213.576 L1165.59,183.373 C1165.59,180.508 1165.29,178.519 1164.69,177.404 C1164.09,176.29 1163,175.732 1161.4,175.732 C1160.2,175.732 1158.91,175.894 1157.56,176.217 M1252,211.888 C1252,210.451 1252.16,209.115 1252.47,207.881 C1252.79,206.646 1253.35,205.493 1254.15,204.42 C1254.96,203.347 1255.72,202.373 1256.44,201.498 C1257.15,200.623 1258.23,199.727 1259.68,198.81 C1261.12,197.894 1262.32,197.138 1263.28,196.545 C1264.24,195.951 1265.7,195.235 1267.65,194.396 C1269.61,193.558 1271.11,192.92 1272.15,192.482 C1273.2,192.045 1274.84,191.388 1277.08,190.513 C1279.32,189.638 1280.96,189.003 1282,188.607 L1282,181.326 C1282,174.722 1278.96,171.42 1272.87,171.42 C1270.48,171.42 1268.44,171.998 1266.76,173.154 C1265.07,174.31 1264.23,175.691 1264.23,177.295 C1264.23,177.93 1264.33,178.808 1264.54,179.928 C1264.74,181.047 1264.84,181.769 1264.84,182.092 C1264.84,183.456 1264.3,184.638 1263.22,185.638 C1262.13,186.638 1260.87,187.138 1259.44,187.138 C1258.08,187.138 1256.88,186.618 1255.84,185.576 C1254.8,184.534 1254.28,183.331 1254.28,181.967 C1254.28,178.217 1256.22,175.04 1260.1,172.435 C1263.98,169.831 1268.76,168.529 1274.44,168.529 C1281,168.529 1285.52,170.102 1288,173.248 C1290.48,176.394 1291.72,181.196 1291.72,187.654 L1291.72,210.935 C1291.72,213.56 1291.98,215.37 1292.5,216.365 C1293.02,217.36 1293.96,217.857 1295.31,217.857 C1297,217.857 1298.76,217.102 1300.59,215.592 L1300.59,218.732 C1298.52,221.128 1296.7,222.761 1295.14,223.631 C1293.58,224.5 1291.79,224.935 1289.79,224.935 C1287.32,224.935 1285.5,224.237 1284.33,222.842 C1283.17,221.446 1282.44,219.144 1282.12,215.935 C1275.24,221.935 1269.39,224.935 1264.59,224.935 C1260.91,224.935 1257.9,223.714 1255.54,221.271 C1253.18,218.829 1252,215.701 1252,211.888 M1282,208.779 L1282,191.467 C1274.8,194.092 1269.76,196.638 1266.88,199.107 C1264,201.576 1262.56,204.56 1262.56,208.06 C1262.56,211.321 1263.36,213.748 1264.96,215.342 C1266.56,216.935 1268.28,217.732 1270.12,217.732 C1272.84,217.732 1275.76,216.816 1278.87,214.982 C1280.15,214.274 1281,213.521 1281.4,212.724 C1281.8,211.928 1282,210.612 1282,208.779 M1372.03,224.935 L1371.56,224.56 L1371.56,216.67 C1367.72,222.18 1362.6,224.935 1356.2,224.935 C1349.56,224.935 1344.19,222.55 1340.12,217.779 C1336.04,213.008 1334,206.779 1334,199.092 C1334,190.623 1336.44,183.412 1341.32,177.459 C1346.2,171.506 1352.08,168.529 1358.95,168.529 C1363.27,168.529 1367.48,170.326 1371.56,173.92 L1371.56,155.029 C1371.56,152.529 1371.2,150.875 1370.48,150.068 C1369.76,149.261 1368.28,148.857 1366.03,148.857 C1364.91,148.857 1364.04,148.899 1363.4,148.982 L1363.4,147.06 C1370.67,145.133 1376.55,143.373 1381.03,141.779 L1381.64,142.013 L1381.64,209.857 C1381.64,212.649 1381.98,214.482 1382.65,215.357 C1383.33,216.232 1384.75,216.67 1386.92,216.67 C1387.32,216.67 1388.23,216.633 1389.67,216.56 L1389.67,218.451 L1372.03,224.935 M1360.87,218.451 C1363.91,218.451 1366.46,217.599 1368.5,215.896 C1370.54,214.193 1371.56,212.67 1371.56,211.326 L1371.56,184.013 C1371.56,180.847 1370.32,178.076 1367.84,175.701 C1365.36,173.326 1362.52,172.138 1359.31,172.138 C1354.76,172.138 1351.12,174.157 1348.4,178.193 C1345.67,182.23 1344.31,187.612 1344.31,194.342 C1344.31,201.623 1345.83,207.461 1348.87,211.857 C1351.91,216.253 1355.91,218.451 1360.87,218.451 M1420.51,168.529 C1428.19,168.529 1434.51,171.092 1439.47,176.217 C1444.44,181.342 1446.92,187.826 1446.92,195.67 C1446.92,203.982 1444.36,210.938 1439.24,216.537 C1434.12,222.136 1427.8,224.935 1420.28,224.935 C1412.76,224.935 1406.5,222.235 1401.5,216.834 C1396.5,211.433 1394,204.696 1394,196.623 C1394,188.383 1396.46,181.641 1401.38,176.396 C1406.3,171.152 1412.68,168.529 1420.51,168.529 M1404.79,190.795 C1404.79,199.274 1406.35,206.482 1409.47,212.42 C1412.59,218.357 1416.67,221.326 1421.72,221.326 C1426.2,221.326 1429.72,219.425 1432.28,215.623 C1434.84,211.821 1436.12,206.555 1436.12,199.826 C1436.12,191.659 1434.52,185.003 1431.32,179.857 C1428.12,174.711 1423.99,172.138 1418.95,172.138 C1414.71,172.138 1411.29,173.842 1408.69,177.248 C1406.09,180.654 1404.79,185.17 1404.79,190.795 M1486.12,180.295 C1484.91,180.295 1483.43,179.594 1481.67,178.193 C1479.91,176.792 1478.75,176.092 1478.2,176.092 C1476.6,176.092 1474.79,177.253 1472.79,179.576 C1470.79,181.899 1469.79,184.019 1469.79,185.935 L1469.79,212.935 C1469.79,216.373 1470.47,218.691 1471.83,219.888 C1473.19,221.086 1475.91,221.769 1480,221.935 L1480,223.732 L1451.2,223.732 L1451.2,221.935 C1455.03,221.217 1457.41,220.417 1458.33,219.537 C1459.26,218.657 1459.72,216.696 1459.72,213.654 L1459.72,183.654 C1459.72,181.019 1459.42,179.159 1458.82,178.076 C1458.22,176.993 1457.16,176.451 1455.64,176.451 C1454.36,176.451 1452.96,176.612 1451.44,176.935 L1451.44,175.013 C1457.84,172.93 1463.76,170.769 1469.2,168.529 L1469.79,168.779 L1469.79,179.81 C1472.75,175.571 1475.27,172.631 1477.36,170.99 C1479.44,169.349 1481.72,168.529 1484.2,168.529 C1486.27,168.529 1487.89,169.089 1489.05,170.209 C1490.21,171.329 1490.79,172.888 1490.79,174.888 C1490.79,176.576 1490.38,177.899 1489.54,178.857 C1488.7,179.816 1487.56,180.295 1486.12,180.295 M1550.51,168.529 C1558.19,168.529 1564.51,171.092 1569.47,176.217 C1574.44,181.342 1576.92,187.826 1576.92,195.67 C1576.92,203.982 1574.36,210.938 1569.24,216.537 C1564.12,222.136 1557.8,224.935 1550.28,224.935 C1542.76,224.935 1536.5,222.235 1531.5,216.834 C1526.5,211.433 1524,204.696 1524,196.623 C1524,188.383 1526.46,181.641 1531.38,176.396 C1536.3,171.152 1542.68,168.529 1550.51,168.529 M1534.79,190.795 C1534.79,199.274 1536.35,206.482 1539.47,212.42 C1542.59,218.357 1546.67,221.326 1551.72,221.326 C1556.2,221.326 1559.72,219.425 1562.28,215.623 C1564.84,211.821 1566.12,206.555 1566.12,199.826 C1566.12,191.659 1564.52,185.003 1561.32,179.857 C1558.12,174.711 1553.99,172.138 1548.95,172.138 C1544.71,172.138 1541.29,173.842 1538.69,177.248 C1536.09,180.654 1534.79,185.17 1534.79,190.795 M1583,198.154 C1583,189.279 1585.62,182.123 1590.86,176.685 C1596.1,171.248 1602.24,168.529 1609.28,168.529 C1614.32,168.529 1618.66,169.75 1622.3,172.193 C1625.94,174.636 1627.76,177.534 1627.76,180.888 C1627.76,182.253 1627.2,183.435 1626.08,184.435 C1624.95,185.435 1623.59,185.935 1622,185.935 C1619.28,185.935 1617.4,184.112 1616.36,180.467 L1615.64,177.842 C1614.99,175.623 1614.19,174.118 1613.23,173.326 C1612.27,172.534 1610.72,172.138 1608.56,172.138 C1603.67,172.138 1599.73,174.068 1596.73,177.928 C1593.73,181.787 1592.23,186.779 1592.23,192.904 C1592.23,199.748 1593.97,205.336 1597.45,209.67 C1600.93,214.003 1605.39,216.17 1610.84,216.17 C1614.28,216.17 1617.24,215.334 1619.72,213.662 C1622.2,211.99 1624.88,209.086 1627.76,204.951 L1629.44,206.029 C1628.63,207.633 1627.93,208.956 1627.33,209.998 C1626.73,211.04 1625.66,212.605 1624.1,214.693 C1622.54,216.782 1621,218.469 1619.48,219.756 C1617.96,221.042 1615.96,222.227 1613.48,223.31 C1611,224.394 1608.44,224.935 1605.79,224.935 C1599.16,224.935 1593.7,222.433 1589.42,217.428 C1585.14,212.422 1583,205.998 1583,198.154 M1651.95,182.576 L1651.95,211.498 C1651.95,215.654 1652.43,218.331 1653.4,219.529 C1654.36,220.727 1656.6,221.529 1660.12,221.935 L1660.12,223.732 L1634.2,223.732 L1634.2,221.935 C1637.64,221.456 1639.78,220.657 1640.62,219.537 C1641.45,218.417 1641.87,215.737 1641.87,211.498 L1641.87,154.982 C1641.87,152.42 1641.53,150.737 1640.86,149.935 C1640.18,149.133 1638.68,148.732 1636.36,148.732 C1635.79,148.732 1635.11,148.816 1634.31,148.982 L1634.31,147.06 C1640,145.54 1645.68,143.779 1651.36,141.779 L1651.95,142.138 L1651.95,178.607 C1654.68,175.013 1657.42,172.435 1660.18,170.873 C1662.93,169.31 1666.07,168.529 1669.59,168.529 C1679.44,168.529 1684.36,174.888 1684.36,187.607 L1684.36,211.498 C1684.36,215.654 1684.74,218.271 1685.5,219.349 C1686.26,220.428 1688.28,221.29 1691.56,221.935 L1691.56,223.732 L1666.12,223.732 L1666.12,221.935 C1669.56,221.612 1671.78,220.81 1672.78,219.529 C1673.78,218.248 1674.28,215.571 1674.28,211.498 L1674.28,187.732 C1674.28,179.253 1671.28,175.013 1665.28,175.013 C1662.96,175.013 1660.77,175.594 1658.73,176.756 C1656.69,177.917 1654.43,179.857 1651.95,182.576 M1700.44,176.576 C1698.67,176.576 1697,176.696 1695.4,176.935 L1695.4,175.138 C1701,173.534 1707.2,171.331 1714,168.529 L1714.48,168.888 L1714.48,211.498 C1714.48,215.81 1714.98,218.547 1715.98,219.709 C1716.98,220.87 1719.44,221.612 1723.36,221.935 L1723.36,223.732 L1694.92,223.732 L1694.92,221.935 C1699.08,221.696 1701.7,220.974 1702.78,219.771 C1703.86,218.568 1704.4,215.81 1704.4,211.498 L1704.4,183.654 C1704.4,181.019 1704.1,179.18 1703.5,178.138 C1702.89,177.097 1701.87,176.576 1700.44,176.576 M1708.36,141.779 C1710.12,141.779 1711.6,142.378 1712.79,143.576 C1713.99,144.774 1714.59,146.211 1714.59,147.888 C1714.59,149.649 1713.99,151.11 1712.79,152.271 C1711.6,153.433 1710.12,154.013 1708.36,154.013 C1706.68,154.013 1705.26,153.415 1704.1,152.217 C1702.94,151.019 1702.36,149.579 1702.36,147.896 C1702.36,146.214 1702.96,144.774 1704.15,143.576 C1705.35,142.378 1706.75,141.779 1708.36,141.779 M1733.44,176.576 C1731.67,176.576 1730,176.696 1728.4,176.935 L1728.4,175.138 C1734,173.534 1740.2,171.331 1747,168.529 L1747.48,168.888 L1747.48,211.498 C1747.48,215.81 1747.98,218.547 1748.98,219.709 C1749.98,220.87 1752.44,221.612 1756.36,221.935 L1756.36,223.732 L1727.92,223.732 L1727.92,221.935 C1732.08,221.696 1734.7,220.974 1735.78,219.771 C1736.86,218.568 1737.4,215.81 1737.4,211.498 L1737.4,183.654 C1737.4,181.019 1737.1,179.18 1736.5,178.138 C1735.89,177.097 1734.87,176.576 1733.44,176.576 M1741.36,141.779 C1743.12,141.779 1744.6,142.378 1745.79,143.576 C1746.99,144.774 1747.59,146.211 1747.59,147.888 C1747.59,149.649 1746.99,151.11 1745.79,152.271 C1744.6,153.433 1743.12,154.013 1741.36,154.013 C1739.68,154.013 1738.26,153.415 1737.1,152.217 C1735.94,151.019 1735.36,149.579 1735.36,147.896 C1735.36,146.214 1735.96,144.774 1737.15,143.576 C1738.35,142.378 1739.75,141.779 1741.36,141.779 M1790.56,176.217 L1790.56,174.17 C1796.32,172.503 1801.92,170.623 1807.36,168.529 L1808.2,168.779 L1808.2,177.998 C1813.16,174.144 1816.84,171.602 1819.24,170.373 C1821.64,169.144 1824.16,168.529 1826.79,168.529 C1833.12,168.529 1837.36,171.967 1839.51,178.842 C1845.75,171.967 1852.27,168.529 1859.08,168.529 C1868.36,168.529 1873,175.706 1873,190.06 L1873,214.654 C1873,219.112 1874.72,221.461 1878.15,221.701 L1881.28,221.935 L1881.28,223.732 L1855,223.732 L1855,221.935 C1858.52,221.54 1860.72,220.862 1861.6,219.904 C1862.48,218.946 1862.92,216.758 1862.92,213.342 L1862.92,188.138 C1862.92,183.211 1862.28,179.792 1861,177.881 C1859.72,175.969 1857.36,175.013 1853.92,175.013 C1848.64,175.013 1844.28,177.441 1840.84,182.295 L1840.84,212.388 C1840.84,216.128 1841.42,218.633 1842.58,219.904 C1843.73,221.175 1846.03,221.852 1849.48,221.935 L1849.48,223.732 L1822.59,223.732 L1822.59,221.935 C1826.04,221.696 1828.26,221.058 1829.26,220.021 C1830.26,218.985 1830.76,216.795 1830.76,213.451 L1830.76,187.545 C1830.76,179.191 1828.12,175.013 1822.84,175.013 C1820.6,175.013 1818.1,175.571 1815.34,176.685 C1812.58,177.8 1810.36,179.592 1808.67,182.06 L1808.67,215.732 C1808.67,218.034 1809.23,219.605 1810.36,220.443 C1811.48,221.282 1813.64,221.779 1816.84,221.935 L1816.84,223.732 L1790.2,223.732 L1790.2,221.935 C1793.56,221.852 1795.79,221.253 1796.91,220.138 C1798.03,219.024 1798.59,216.836 1798.59,213.576 L1798.59,183.373 C1798.59,180.508 1798.29,178.519 1797.69,177.404 C1797.09,176.29 1796,175.732 1794.4,175.732 C1793.2,175.732 1791.91,175.894 1790.56,176.217 M1885,211.888 C1885,210.451 1885.16,209.115 1885.47,207.881 C1885.79,206.646 1886.35,205.493 1887.15,204.42 C1887.96,203.347 1888.72,202.373 1889.44,201.498 C1890.15,200.623 1891.23,199.727 1892.68,198.81 C1894.12,197.894 1895.32,197.138 1896.28,196.545 C1897.24,195.951 1898.7,195.235 1900.65,194.396 C1902.61,193.558 1904.11,192.92 1905.15,192.482 C1906.2,192.045 1907.84,191.388 1910.08,190.513 C1912.32,189.638 1913.96,189.003 1915,188.607 L1915,181.326 C1915,174.722 1911.96,171.42 1905.87,171.42 C1903.48,171.42 1901.44,171.998 1899.76,173.154 C1898.07,174.31 1897.23,175.691 1897.23,177.295 C1897.23,177.93 1897.33,178.808 1897.54,179.928 C1897.74,181.047 1897.84,181.769 1897.84,182.092 C1897.84,183.456 1897.3,184.638 1896.22,185.638 C1895.13,186.638 1893.87,187.138 1892.44,187.138 C1891.08,187.138 1889.88,186.618 1888.84,185.576 C1887.8,184.534 1887.28,183.331 1887.28,181.967 C1887.28,178.217 1889.22,175.04 1893.1,172.435 C1896.98,169.831 1901.76,168.529 1907.44,168.529 C1914,168.529 1918.52,170.102 1921,173.248 C1923.48,176.394 1924.72,181.196 1924.72,187.654 L1924.72,210.935 C1924.72,213.56 1924.98,215.37 1925.5,216.365 C1926.02,217.36 1926.96,217.857 1928.31,217.857 C1930,217.857 1931.76,217.102 1933.59,215.592 L1933.59,218.732 C1931.52,221.128 1929.7,222.761 1928.14,223.631 C1926.58,224.5 1924.79,224.935 1922.79,224.935 C1920.32,224.935 1918.5,224.237 1917.33,222.842 C1916.17,221.446 1915.44,219.144 1915.12,215.935 C1908.24,221.935 1902.39,224.935 1897.59,224.935 C1893.91,224.935 1890.9,223.714 1888.54,221.271 C1886.18,218.829 1885,215.701 1885,211.888 M1915,208.779 L1915,191.467 C1907.8,194.092 1902.76,196.638 1899.88,199.107 C1897,201.576 1895.56,204.56 1895.56,208.06 C1895.56,211.321 1896.36,213.748 1897.96,215.342 C1899.56,216.935 1901.28,217.732 1903.12,217.732 C1905.84,217.732 1908.76,216.816 1911.87,214.982 C1913.15,214.274 1914,213.521 1914.4,212.724 C1914.8,211.928 1915,210.612 1915,208.779 M2005.03,224.935 L2004.56,224.56 L2004.56,216.67 C2000.72,222.18 1995.6,224.935 1989.2,224.935 C1982.56,224.935 1977.19,222.55 1973.12,217.779 C1969.04,213.008 1967,206.779 1967,199.092 C1967,190.623 1969.44,183.412 1974.32,177.459 C1979.2,171.506 1985.08,168.529 1991.95,168.529 C1996.27,168.529 2000.48,170.326 2004.56,173.92 L2004.56,155.029 C2004.56,152.529 2004.2,150.875 2003.48,150.068 C2002.76,149.261 2001.28,148.857 1999.03,148.857 C1997.91,148.857 1997.04,148.899 1996.4,148.982 L1996.4,147.06 C2003.67,145.133 2009.55,143.373 2014.03,141.779 L2014.64,142.013 L2014.64,209.857 C2014.64,212.649 2014.98,214.482 2015.65,215.357 C2016.33,216.232 2017.75,216.67 2019.92,216.67 C2020.32,216.67 2021.23,216.633 2022.67,216.56 L2022.67,218.451 L2005.03,224.935 M1993.87,218.451 C1996.91,218.451 1999.46,217.599 2001.5,215.896 C2003.54,214.193 2004.56,212.67 2004.56,211.326 L2004.56,184.013 C2004.56,180.847 2003.32,178.076 2000.84,175.701 C1998.36,173.326 1995.52,172.138 1992.31,172.138 C1987.76,172.138 1984.12,174.157 1981.4,178.193 C1978.67,182.23 1977.31,187.612 1977.31,194.342 C1977.31,201.623 1978.83,207.461 1981.87,211.857 C1984.91,216.253 1988.91,218.451 1993.87,218.451 M2053.51,168.529 C2061.19,168.529 2067.51,171.092 2072.47,176.217 C2077.44,181.342 2079.92,187.826 2079.92,195.67 C2079.92,203.982 2077.36,210.938 2072.24,216.537 C2067.12,222.136 2060.8,224.935 2053.28,224.935 C2045.76,224.935 2039.5,222.235 2034.5,216.834 C2029.5,211.433 2027,204.696 2027,196.623 C2027,188.383 2029.46,181.641 2034.38,176.396 C2039.3,171.152 2045.68,168.529 2053.51,168.529 M2037.79,190.795 C2037.79,199.274 2039.35,206.482 2042.47,212.42 C2045.59,218.357 2049.67,221.326 2054.72,221.326 C2059.2,221.326 2062.72,219.425 2065.28,215.623 C2067.84,211.821 2069.12,206.555 2069.12,199.826 C2069.12,191.659 2067.52,185.003 2064.32,179.857 C2061.12,174.711 2056.99,172.138 2051.95,172.138 C2047.71,172.138 2044.29,173.842 2041.69,177.248 C2039.09,180.654 2037.79,185.17 2037.79,190.795 M2119.12,180.295 C2117.91,180.295 2116.43,179.594 2114.67,178.193 C2112.91,176.792 2111.75,176.092 2111.2,176.092 C2109.6,176.092 2107.79,177.253 2105.79,179.576 C2103.79,181.899 2102.79,184.019 2102.79,185.935 L2102.79,212.935 C2102.79,216.373 2103.47,218.691 2104.83,219.888 C2106.19,221.086 2108.91,221.769 2113,221.935 L2113,223.732 L2084.2,223.732 L2084.2,221.935 C2088.03,221.217 2090.41,220.417 2091.33,219.537 C2092.26,218.657 2092.72,216.696 2092.72,213.654 L2092.72,183.654 C2092.72,181.019 2092.42,179.159 2091.82,178.076 C2091.22,176.993 2090.16,176.451 2088.64,176.451 C2087.36,176.451 2085.96,176.612 2084.44,176.935 L2084.44,175.013 C2090.84,172.93 2096.76,170.769 2102.2,168.529 L2102.79,168.779 L2102.79,179.81 C2105.75,175.571 2108.27,172.631 2110.36,170.99 C2112.44,169.349 2114.72,168.529 2117.2,168.529 C2119.27,168.529 2120.89,169.089 2122.05,170.209 C2123.21,171.329 2123.79,172.888 2123.79,174.888 C2123.79,176.576 2123.38,177.899 2122.54,178.857 C2121.7,179.816 2120.56,180.295 2119.12,180.295"/>
<path class="MeasureNumber" d="M142.045,992.295 C139.357,992.295 137.193,991.22 135.553,989.069 C133.912,986.918 133.092,984.077 133.092,980.545 C133.092,979.462 133.198,978.34 133.412,977.178 C133.625,976.017 134.092,974.699 134.81,973.225 C135.529,971.751 136.461,970.428 137.607,969.256 C138.753,968.084 140.36,967.037 142.428,966.116 C144.495,965.194 146.878,964.613 149.576,964.373 L149.654,965.014 C146.508,965.524 143.881,966.8 141.771,968.842 C139.662,970.884 138.342,973.41 137.81,976.42 C139.06,975.702 140.006,975.235 140.646,975.022 C141.287,974.808 142.05,974.702 142.935,974.702 C145.227,974.702 147.053,975.444 148.412,976.928 C149.771,978.412 150.451,980.415 150.451,982.936 C150.451,985.696 149.67,987.946 148.107,989.686 C146.545,991.425 144.524,992.295 142.045,992.295 M141.404,976.452 C139.592,976.452 138.373,976.85 137.748,977.647 C137.123,978.444 136.81,979.623 136.81,981.186 C136.81,984.259 137.318,986.678 138.334,988.444 C139.349,990.209 140.737,991.092 142.498,991.092 C143.904,991.092 144.982,990.501 145.732,989.319 C146.482,988.136 146.857,986.462 146.857,984.295 C146.857,981.795 146.383,979.863 145.435,978.498 C144.487,977.134 143.144,976.452 141.404,976.452"/>
<polyline class="BarLine" fill="none" stroke="#000000" stroke-width="4.00" stroke-linejoin="bevel" points="2895.77,1040.73 2895.77,1142.73"/>
<polyline class="BarLine" fill="none" stroke="#000000" stroke-width="12.50" stroke-linejoin="bevel" points="2912.02,1040.73 2912.02,1142.73"/>
<polyline class="BarLine" fill="none" stroke="#000000" stroke-width="4.00" stroke-linejoin="bevel" points="2559.03,1040.73 2559.03,1142.73"/>
<polyline class="BarLine" fill="none" stroke="#000000" stroke-width="4.00" stroke-linejoin="bevel" points="2183.61,1040.73 2183.61,1142.73"/>
<polyline class="BarLine" fill="none" stroke="#000000" stroke-width="4.00" stroke-linejoin="bevel" points="1808.19,1040.73 1808.19,1142.73"/>
<polyline class="BarLine" fill="none" stroke="#000000" stroke-width="4.00" stroke-linejoin="bevel" points="1432.78,1040.73 1432.78,1142.73"/>
<polyline class="BarLine" fill="none" stroke="#000000" stroke-width="4.00" stroke-linejoin="bevel" points="1057.36,1040.73 1057.36,1142.73"/>
<polyline class="BarLine" fill="none" stroke="#000000" stroke-width="4.00" stroke-linejoin="bevel" points="681.94,1040.73 681.94,1142.73"/>
<polyline class="BarLine" fill="none" stroke="#000000" stroke-width="4.00" stroke-linejoin="bevel" points="2916.27,565.733 2916.27,667.733"/>
<polyline class="BarLine" fill="none" stroke="#000000" stroke-width="4.00" stroke-linejoin="bevel" points="2404.3,565.733 2404.3,667.733"/>
<polyline class="BarLine" fill="none" stroke="#000000" stroke-width="4.00" stroke-linejoin="bevel" points="1892.34,565.733 1892.34,667.733"/>
<polyline class="BarLine" fill="none" stroke="#000000" stroke-width="4.00" stroke-linejoin="bevel" points="1380.37,565.733 1380.37,667.733"/>
<polyline class="BarLine" fill="none" stroke="#000000" stroke-width="4.00" stroke-linejoin="bevel" points="868.408,565.733 868.408,667.733"/>
<polyline class="Stem" fill="none" stroke="#000000" stroke-width="3.25" stroke-linecap="round" stroke-linejoin="bevel" points="2622.32,1112.04 2622.32,1032.36"/>
<polyline class="Stem" fill="none" stroke="#000000" stroke-width="3.25" stroke-linecap="round" stroke-linejoin="bevel" points="2502.97,1099.54 2502.97,1022.98"/>
<polyline class="Stem" fill="none" stroke="#000000" stroke-width="3.25" stroke-linecap="round" stroke-linejoin="bevel" points="2387.95,1096.43 2387.95,1169.86"/>
<polyline class="Stem" fill="none" stroke="#000000" stroke-width="3.25" stroke-linecap="round" stroke-linejoin="bevel" points="2332.26,1099.54 2332.26,1022.98"/>
<polyline class="Stem" fill="none" stroke="#000000" stroke-width="3.25" stroke-linecap="round" stroke-linejoin="bevel" points="2246.9,1112.04 2246.9,1032.36"/>
<polyline class="Stem" fill="none" stroke="#000000" stroke-width="3.25" stroke-linecap="round" stroke-linejoin="bevel" points="2127.55,1099.54 2127.55,1022.98"/>
<polyline class="Stem" fill="none" stroke="#000000" stroke-width="3.25" stroke-linecap="round" stroke-linejoin="bevel" points="2012.53,1096.43 2012.53,1169.86"/>
<polyline class="Stem" fill="none" stroke="#000000" stroke-width="3.25" stroke-linecap="round" stroke-linejoin="bevel" points="1927.17,1083.93 1927.17,1160.48"/>
<polyline class="Stem" fill="none" stroke="#000000" stroke-width="3.25" stroke-linecap="round" stroke-linejoin="bevel" points="1841.82,1083.93 1841.82,1160.48"/>
<polyline class="Stem" fill="none" stroke="#000000" stroke-width="3.25" stroke-linecap="round" stroke-linejoin="bevel" points="1722.46,1096.43 1722.46,1169.86"/>
<polyline class="Stem" fill="none" stroke="#000000" stroke-width="3.25" stroke-linecap="round" stroke-linejoin="bevel" points="1666.77,1099.54 1666.77,1022.98"/>
<polyline class="Stem" fill="none" stroke="#000000" stroke-width="3.25" stroke-linecap="round" stroke-linejoin="bevel" points="1581.42,1112.04 1581.42,1032.36"/>
<polyline class="Stem" fill="none" stroke="#000000" stroke-width="3.25" stroke-linecap="round" stroke-linejoin="bevel" points="1496.07,1099.54 1496.07,1022.98"/>
<polyline class="Stem" fill="none" stroke="#000000" stroke-width="3.25" stroke-linecap="round" stroke-linejoin="bevel" points="1376.71,1099.54 1376.71,1022.98"/>
<polyline class="Stem" fill="none" stroke="#000000" stroke-width="3.25" stroke-linecap="round" stroke-linejoin="bevel" points="1291.36,1112.04 1291.36,1032.36"/>
<polyline class="Stem" fill="none" stroke="#000000" stroke-width="3.25" stroke-linecap="round" stroke-linejoin="bevel" points="1206,1124.54 1206,1041.73"/>
<polyline class="Stem" fill="none" stroke="#000000" stroke-width="3.25" stroke-linecap="round" stroke-linejoin="bevel" points="1120.65,1137.04 1120.65,1054.23"/>
<polyline class="Stem" fill="none" stroke="#000000" stroke-width="3.25" stroke-linecap="round" stroke-linejoin="bevel" points="1001.29,1149.54 1001.29,1066.73"/>
<polyline class="Stem" fill="none" stroke="#000000" stroke-width="3.25" stroke-linecap="round" stroke-linejoin="bevel" points="915.938,1137.04 915.938,1054.23"/>
<polyline class="Stem" fill="none" stroke="#000000" stroke-width="3.25" stroke-linecap="round" stroke-linejoin="bevel" points="830.583,1124.54 830.583,1041.73"/>
<polyline class="Stem" fill="none" stroke="#000000" stroke-width="3.25" stroke-linecap="round" stroke-linejoin="bevel" points="745.229,1112.04 745.229,1032.36"/>
<polyline class="Stem" fill="none" stroke="#000000" stroke-width="3.25" stroke-linecap="round" stroke-linejoin="bevel" points="539.113,1124.54 539.113,1041.73"/>
<polyline class="Stem" fill="none" stroke="#000000" stroke-width="3.25" stroke-linecap="round" stroke-linejoin="bevel" points="453.056,1137.04 453.056,1054.23"/>
<polyline class="Stem" fill="none" stroke="#000000" stroke-width="3.25" stroke-linecap="round" stroke-linejoin="bevel" points="366.998,1149.54 366.998,1066.73"/>
<polyline class="Stem" fill="none" stroke="#000000" stroke-width="3.25" stroke-linecap="round" stroke-linejoin="bevel" points="2826.07,637.037 2826.07,557.358"/>
<polyline class="Stem" fill="none" stroke="#000000" stroke-width="3.25" stroke-linecap="round" stroke-linejoin="bevel" points="2706.57,624.537 2706.57,547.983"/>
<polyline class="Stem" fill="none" stroke="#000000" stroke-width="3.25" stroke-linecap="round" stroke-linejoin="bevel" points="2557.42,621.428 2557.42,694.858"/>
<polyline class="Stem" fill="none" stroke="#000000" stroke-width="3.25" stroke-linecap="round" stroke-linejoin="bevel" points="2467.59,624.537 2467.59,547.983"/>
<polyline class="Stem" fill="none" stroke="#000000" stroke-width="3.25" stroke-linecap="round" stroke-linejoin="bevel" points="2314.1,637.037 2314.1,557.358"/>
<polyline class="Stem" fill="none" stroke="#000000" stroke-width="3.25" stroke-linecap="round" stroke-linejoin="bevel" points="2194.61,624.537 2194.61,547.983"/>
<polyline class="Stem" fill="none" stroke="#000000" stroke-width="3.25" stroke-linecap="round" stroke-linejoin="bevel" points="2045.45,621.428 2045.45,694.858"/>
<polyline class="Stem" fill="none" stroke="#000000" stroke-width="3.25" stroke-linecap="round" stroke-linejoin="bevel" points="1925.96,608.928 1925.96,685.483"/>
<polyline class="Stem" fill="none" stroke="#000000" stroke-width="3.25" stroke-linecap="round" stroke-linejoin="bevel" points="1772.47,608.928 1772.47,685.483"/>
<polyline class="Stem" fill="none" stroke="#000000" stroke-width="3.25" stroke-linecap="round" stroke-linejoin="bevel" points="1682.64,624.537 1682.64,547.983"/>
<polyline class="Stem" fill="none" stroke="#000000" stroke-width="3.25" stroke-linecap="round" stroke-linejoin="bevel" points="1563.15,637.037 1563.15,557.358"/>
<polyline class="Stem" fill="none" stroke="#000000" stroke-width="3.25" stroke-linecap="round" stroke-linejoin="bevel" points="1443.66,624.537 1443.66,547.983"/>
<polyline class="Stem" fill="none" stroke="#000000" stroke-width="3.25" stroke-linecap="round" stroke-linejoin="bevel" points="1260.51,621.428 1260.51,694.858"/>
<polyline class="Stem" fill="none" stroke="#000000" stroke-width="3.25" stroke-linecap="round" stroke-linejoin="bevel" points="1170.68,624.537 1170.68,547.983"/>
<polyline class="Stem" fill="none" stroke="#000000" stroke-width="3.25" stroke-linecap="round" stroke-linejoin="bevel" points="1051.19,637.037 1051.19,557.358"/>
<polyline class="Stem" fill="none" stroke="#000000" stroke-width="3.25" stroke-linecap="round" stroke-linejoin="bevel" points="931.697,624.537 931.697,547.983"/>
<polyline class="Stem" fill="none" stroke="#000000" stroke-width="3.25" stroke-linecap="round" stroke-linejoin="bevel" points="748.542,621.428 748.542,694.858"/>
<polyline class="Stem" fill="none" stroke="#000000" stroke-width="3.25" stroke-linecap="round" stroke-linejoin="bevel" points="629.051,621.428 629.051,694.858"/>
<polyline class="Stem" fill="none" stroke="#000000" stroke-width="3.25" stroke-linecap="round" stroke-linejoin="bevel" points="539.224,624.537 539.224,547.983"/>
<polyline class="Stem" fill="none" stroke="#000000" stroke-width="3.25" stroke-linecap="round" stroke-linejoin="bevel" points="419.732,637.037 419.732,557.358"/>
<path class="Note" d="M2613,1102.97 C2616.12,1102.97 2618.77,1103.78 2620.92,1105.4 C2622.93,1107.17 2623.94,1109.38 2623.94,1112.05 C2623.94,1116.53 2621.63,1120.73 2617.02,1124.64 C2612.33,1128.55 2607.31,1130.5 2601.97,1130.5 C2598.84,1130.5 2596.21,1129.69 2594.06,1128.06 C2592.04,1126.3 2591.03,1124.09 2591.03,1121.42 C2591.03,1116.93 2593.37,1112.73 2598.06,1108.83 C2602.62,1104.92 2607.6,1102.97 2613,1102.97"/>
<path class="Note" d="M2493.64,1090.47 C2496.77,1090.47 2499.41,1091.28 2501.57,1092.9 C2503.58,1094.67 2504.58,1096.88 2504.58,1099.55 C2504.58,1104.03 2502.28,1108.23 2497.66,1112.14 C2492.97,1116.05 2487.96,1118 2482.61,1118 C2479.49,1118 2476.85,1117.19 2474.71,1115.56 C2472.69,1113.8 2471.68,1111.59 2471.68,1108.92 C2471.68,1104.43 2474.02,1100.23 2478.71,1096.33 C2483.27,1092.42 2488.25,1090.47 2493.64,1090.47"/>
<path class="Note" d="M2408.29,1077.97 C2411.42,1077.97 2414.06,1078.78 2416.21,1080.4 C2418.22,1082.17 2419.23,1084.38 2419.23,1087.05 C2419.23,1091.53 2416.92,1095.73 2412.31,1099.64 C2407.62,1103.55 2402.6,1105.5 2397.26,1105.5 C2394.13,1105.5 2391.5,1104.69 2389.35,1103.06 C2387.33,1101.3 2386.32,1099.09 2386.32,1096.42 C2386.32,1091.93 2388.67,1087.73 2393.35,1083.83 C2397.92,1079.92 2402.89,1077.97 2408.29,1077.97"/>
<path class="Note" d="M2322.94,1090.47 C2326.06,1090.47 2328.7,1091.28 2330.86,1092.9 C2332.87,1094.67 2333.87,1096.88 2333.87,1099.55 C2333.87,1104.03 2331.57,1108.23 2326.95,1112.14 C2322.26,1116.05 2317.25,1118 2311.9,1118 C2308.78,1118 2306.14,1117.19 2304,1115.56 C2301.98,1113.8 2300.97,1111.59 2300.97,1108.92 C2300.97,1104.43 2303.31,1100.23 2308,1096.33 C2312.56,1092.42 2317.54,1090.47 2322.94,1090.47"/>
<path class="Note" d="M2237.58,1102.97 C2240.71,1102.97 2243.35,1103.78 2245.5,1105.4 C2247.51,1107.17 2248.52,1109.38 2248.52,1112.05 C2248.52,1116.53 2246.21,1120.73 2241.6,1124.64 C2236.91,1128.55 2231.89,1130.5 2226.55,1130.5 C2223.43,1130.5 2220.79,1129.69 2218.64,1128.06 C2216.62,1126.3 2215.61,1124.09 2215.61,1121.42 C2215.61,1116.93 2217.96,1112.73 2222.64,1108.83 C2227.21,1104.92 2232.19,1102.97 2237.58,1102.97"/>
<path class="Note" d="M2118.23,1090.47 C2121.35,1090.47 2123.99,1091.28 2126.15,1092.9 C2128.16,1094.67 2129.16,1096.88 2129.16,1099.55 C2129.16,1104.03 2126.86,1108.23 2122.24,1112.14 C2117.55,1116.05 2112.54,1118 2107.2,1118 C2104.07,1118 2101.44,1117.19 2099.29,1115.56 C2097.27,1113.8 2096.26,1111.59 2096.26,1108.92 C2096.26,1104.43 2098.6,1100.23 2103.29,1096.33 C2107.85,1092.42 2112.83,1090.47 2118.23,1090.47"/>
<path class="Note" d="M2032.87,1077.97 C2036,1077.97 2038.64,1078.78 2040.79,1080.4 C2042.8,1082.17 2043.81,1084.38 2043.81,1087.05 C2043.81,1091.53 2041.5,1095.73 2036.89,1099.64 C2032.2,1103.55 2027.18,1105.5 2021.84,1105.5 C2018.72,1105.5 2016.08,1104.69 2013.93,1103.06 C2011.91,1101.3 2010.9,1099.09 2010.9,1096.42 C2010.9,1091.93 2013.25,1087.73 2017.93,1083.83 C2022.5,1079.92 2027.48,1077.97 2032.87,1077.97"/>
<path class="Note" d="M1947.52,1065.47 C1950.64,1065.47 1953.28,1066.28 1955.44,1067.9 C1957.45,1069.67 1958.46,1071.88 1958.46,1074.55 C1958.46,1079.03 1956.15,1083.23 1951.53,1087.14 C1946.85,1091.05 1941.83,1093 1936.49,1093 C1933.36,1093 1930.73,1092.19 1928.58,1090.56 C1926.56,1088.8 1925.55,1086.59 1925.55,1083.92 C1925.55,1079.43 1927.89,1075.23 1932.58,1071.33 C1937.14,1067.42 1942.12,1065.47 1947.52,1065.47"/>
<path class="Note" d="M1862.16,1065.47 C1865.29,1065.47 1867.93,1066.28 1870.08,1067.9 C1872.1,1069.67 1873.1,1071.88 1873.1,1074.55 C1873.1,1079.03 1870.79,1083.23 1866.18,1087.14 C1861.49,1091.05 1856.48,1093 1851.13,1093 C1848.01,1093 1845.37,1092.19 1843.23,1090.56 C1841.2,1088.8 1840.19,1086.59 1840.19,1083.92 C1840.19,1079.43 1842.54,1075.23 1847.23,1071.33 C1851.79,1067.42 1856.77,1065.47 1862.16,1065.47"/>
<path class="Note" d="M1742.81,1077.97 C1745.93,1077.97 1748.57,1078.78 1750.73,1080.4 C1752.74,1082.17 1753.75,1084.38 1753.75,1087.05 C1753.75,1091.53 1751.44,1095.73 1746.82,1099.64 C1742.14,1103.55 1737.12,1105.5 1731.78,1105.5 C1728.65,1105.5 1726.02,1104.69 1723.87,1103.06 C1721.85,1101.3 1720.84,1099.09 1720.84,1096.42 C1720.84,1091.93 1723.18,1087.73 1727.87,1083.83 C1732.43,1079.92 1737.41,1077.97 1742.81,1077.97"/>
<path class="Note" d="M1657.45,1090.47 C1660.58,1090.47 1663.22,1091.28 1665.38,1092.9 C1667.39,1094.67 1668.39,1096.88 1668.39,1099.55 C1668.39,1104.03 1666.08,1108.23 1661.47,1112.14 C1656.78,1116.05 1651.77,1118 1646.42,1118 C1643.3,1118 1640.66,1117.19 1638.52,1115.56 C1636.5,1113.8 1635.49,1111.59 1635.49,1108.92 C1635.49,1104.43 1637.83,1100.23 1642.52,1096.33 C1647.08,1092.42 1652.06,1090.47 1657.45,1090.47"/>
<path class="Note" d="M1572.1,1102.97 C1575.22,1102.97 1577.87,1103.78 1580.02,1105.4 C1582.03,1107.17 1583.04,1109.38 1583.04,1112.05 C1583.04,1116.53 1580.73,1120.73 1576.12,1124.64 C1571.43,1128.55 1566.41,1130.5 1561.07,1130.5 C1557.94,1130.5 1555.31,1129.69 1553.16,1128.06 C1551.14,1126.3 1550.13,1124.09 1550.13,1121.42 C1550.13,1116.93 1552.47,1112.73 1557.16,1108.83 C1561.72,1104.92 1566.7,1102.97 1572.1,1102.97"/>
<path class="Note" d="M1486.74,1090.47 C1489.87,1090.47 1492.51,1091.28 1494.67,1092.9 C1496.68,1094.67 1497.68,1096.88 1497.68,1099.55 C1497.68,1104.03 1495.38,1108.23 1490.76,1112.14 C1486.07,1116.05 1481.06,1118 1475.71,1118 C1472.59,1118 1469.95,1117.19 1467.81,1115.56 C1465.79,1113.8 1464.78,1111.59 1464.78,1108.92 C1464.78,1104.43 1467.12,1100.23 1471.81,1096.33 C1476.37,1092.42 1481.35,1090.47 1486.74,1090.47"/>
<path class="Note" d="M1367.39,1090.47 C1370.52,1090.47 1373.16,1091.28 1375.31,1092.9 C1377.32,1094.67 1378.33,1096.88 1378.33,1099.55 C1378.33,1104.03 1376.02,1108.23 1371.41,1112.14 C1366.72,1116.05 1361.7,1118 1356.36,1118 C1353.23,1118 1350.6,1117.19 1348.45,1115.56 C1346.43,1113.8 1345.42,1111.59 1345.42,1108.92 C1345.42,1104.43 1347.77,1100.23 1352.45,1096.33 C1357.02,1092.42 1361.99,1090.47 1367.39,1090.47"/>
<path class="Note" d="M1282.04,1102.97 C1285.16,1102.97 1287.8,1103.78 1289.96,1105.4 C1291.97,1107.17 1292.97,1109.38 1292.97,1112.05 C1292.97,1116.53 1290.67,1120.73 1286.05,1124.64 C1281.36,1128.55 1276.35,1130.5 1271,1130.5 C1267.88,1130.5 1265.24,1129.69 1263.1,1128.06 C1261.08,1126.3 1260.07,1124.09 1260.07,1121.42 C1260.07,1116.93 1262.41,1112.73 1267.1,1108.83 C1271.66,1104.92 1276.64,1102.97 1282.04,1102.97"/>
<path class="Note" d="M1196.68,1115.47 C1199.81,1115.47 1202.45,1116.28 1204.6,1117.9 C1206.61,1119.67 1207.62,1121.88 1207.62,1124.55 C1207.62,1129.03 1205.31,1133.23 1200.7,1137.14 C1196.01,1141.05 1190.99,1143 1185.65,1143 C1182.52,1143 1179.89,1142.19 1177.74,1140.56 C1175.72,1138.8 1174.71,1136.59 1174.71,1133.92 C1174.71,1129.43 1177.06,1125.23 1181.74,1121.33 C1186.31,1117.42 1191.29,1115.47 1196.68,1115.47"/>
<path class="Note" d="M1111.33,1127.97 C1114.45,1127.97 1117.09,1128.78 1119.25,1130.4 C1121.26,1132.17 1122.26,1134.38 1122.26,1137.05 C1122.26,1141.53 1119.96,1145.73 1115.34,1149.64 C1110.65,1153.55 1105.64,1155.5 1100.3,1155.5 C1097.17,1155.5 1094.53,1154.69 1092.39,1153.06 C1090.37,1151.3 1089.36,1149.09 1089.36,1146.42 C1089.36,1141.93 1091.7,1137.73 1096.39,1133.83 C1100.95,1129.92 1105.93,1127.97 1111.33,1127.97"/>
<path class="Note" d="M991.972,1140.47 C995.097,1140.47 997.738,1141.28 999.894,1142.9 C1001.9,1144.67 1002.91,1146.88 1002.91,1149.55 C1002.91,1154.03 1000.6,1158.23 995.988,1162.14 C991.3,1166.05 986.285,1168 980.941,1168 C977.816,1168 975.18,1167.19 973.035,1165.56 C971.014,1163.8 970.003,1161.59 970.003,1158.92 C970.003,1154.43 972.347,1150.23 977.035,1146.33 C981.597,1142.42 986.576,1140.47 991.972,1140.47"/>
<path class="Note" d="M906.618,1127.97 C909.743,1127.97 912.383,1128.78 914.539,1130.4 C916.55,1132.17 917.555,1134.38 917.555,1137.05 C917.555,1141.53 915.248,1145.73 910.633,1149.64 C905.946,1153.55 900.93,1155.5 895.586,1155.5 C892.461,1155.5 889.826,1154.69 887.68,1153.06 C885.659,1151.3 884.649,1149.09 884.649,1146.42 C884.649,1141.93 886.993,1137.73 891.68,1133.83 C896.243,1129.92 901.222,1127.97 906.618,1127.97"/>
<path class="Note" d="M821.263,1115.47 C824.388,1115.47 827.029,1116.28 829.185,1117.9 C831.195,1119.67 832.2,1121.88 832.2,1124.55 C832.2,1129.03 829.893,1133.23 825.279,1137.14 C820.591,1141.05 815.575,1143 810.232,1143 C807.107,1143 804.471,1142.19 802.325,1140.56 C800.305,1138.8 799.294,1136.59 799.294,1133.92 C799.294,1129.43 801.638,1125.23 806.325,1121.33 C810.888,1117.42 815.867,1115.47 821.263,1115.47"/>
<path class="Note" d="M735.908,1102.97 C739.033,1102.97 741.674,1103.78 743.83,1105.4 C745.841,1107.17 746.846,1109.38 746.846,1112.05 C746.846,1116.53 744.539,1120.73 739.924,1124.64 C735.237,1128.55 730.221,1130.5 724.877,1130.5 C721.752,1130.5 719.117,1129.69 716.971,1128.06 C714.95,1126.3 713.94,1124.09 713.94,1121.42 C713.94,1116.93 716.283,1112.73 720.971,1108.83 C725.533,1104.92 730.513,1102.97 735.908,1102.97"/>
<path class="Note" d="M529.793,1115.47 C532.918,1115.47 535.559,1116.28 537.715,1117.9 C539.725,1119.67 540.731,1121.88 540.731,1124.55 C540.731,1129.03 538.423,1133.23 533.809,1137.14 C529.121,1141.05 524.106,1143 518.762,1143 C515.637,1143 513.001,1142.19 510.856,1140.56 C508.835,1138.8 507.824,1136.59 507.824,1133.92 C507.824,1129.43 510.168,1125.23 514.856,1121.33 C519.418,1117.42 524.397,1115.47 529.793,1115.47"/>
<path class="Note" d="M443.735,1127.97 C446.86,1127.97 449.501,1128.78 451.657,1130.4 C453.668,1132.17 454.673,1134.38 454.673,1137.05 C454.673,1141.53 452.366,1145.73 447.751,1149.64 C443.063,1153.55 438.048,1155.5 432.704,1155.5 C429.579,1155.5 426.944,1154.69 424.798,1153.06 C422.777,1151.3 421.767,1149.09 421.767,1146.42 C421.767,1141.93 424.11,1137.73 428.798,1133.83 C433.36,1129.92 438.34,1127.97 443.735,1127.97"/>
<path class="Note" d="M357.678,1140.47 C360.803,1140.47 363.443,1141.28 365.6,1142.9 C367.61,1144.67 368.615,1146.88 368.615,1149.55 C368.615,1154.03 366.308,1158.23 361.693,1162.14 C357.006,1166.05 351.99,1168 346.646,1168 C343.521,1168 340.886,1167.19 338.74,1165.56 C336.719,1163.8 335.709,1161.59 335.709,1158.92 C335.709,1154.43 338.053,1150.23 342.74,1146.33 C347.303,1142.42 352.282,1140.47 357.678,1140.47"/>
<path class="Note" d="M2816.75,627.967 C2819.87,627.967 2822.51,628.779 2824.67,630.404 C2826.68,632.165 2827.68,634.378 2827.68,637.045 C2827.68,641.535 2825.38,645.733 2820.76,649.639 C2816.07,653.545 2811.06,655.498 2805.71,655.498 C2802.59,655.498 2799.95,654.686 2797.81,653.061 C2795.79,651.3 2794.78,649.087 2794.78,646.42 C2794.78,641.93 2797.12,637.733 2801.81,633.826 C2806.37,629.92 2811.35,627.967 2816.75,627.967"/>
<path class="Note" d="M2697.25,615.467 C2700.38,615.467 2703.02,616.279 2705.18,617.904 C2707.19,619.665 2708.19,621.878 2708.19,624.545 C2708.19,629.035 2705.88,633.233 2701.27,637.139 C2696.58,641.045 2691.57,642.998 2686.22,642.998 C2683.1,642.998 2680.46,642.186 2678.32,640.561 C2676.3,638.8 2675.29,636.587 2675.29,633.92 C2675.29,629.43 2677.63,625.233 2682.32,621.326 C2686.88,617.42 2691.86,615.467 2697.25,615.467"/>
<path class="Note" d="M2577.76,602.967 C2580.89,602.967 2583.53,603.779 2585.68,605.404 C2587.7,607.165 2588.7,609.378 2588.7,612.045 C2588.7,616.535 2586.39,620.733 2581.78,624.639 C2577.09,628.545 2572.08,630.498 2566.73,630.498 C2563.61,630.498 2560.97,629.686 2558.83,628.061 C2556.8,626.3 2555.79,624.087 2555.79,621.42 C2555.79,616.93 2558.14,612.733 2562.83,608.826 C2567.39,604.92 2572.37,602.967 2577.76,602.967"/>
<path class="Note" d="M2458.27,615.467 C2461.4,615.467 2464.04,616.279 2466.19,617.904 C2468.2,619.665 2469.21,621.878 2469.21,624.545 C2469.21,629.035 2466.9,633.233 2462.29,637.139 C2457.6,641.045 2452.58,642.998 2447.24,642.998 C2444.12,642.998 2441.48,642.186 2439.33,640.561 C2437.31,638.8 2436.3,636.587 2436.3,633.92 C2436.3,629.43 2438.65,625.233 2443.33,621.326 C2447.9,617.42 2452.88,615.467 2458.27,615.467"/>
<path class="Note" d="M2304.78,627.967 C2307.91,627.967 2310.55,628.779 2312.7,630.404 C2314.71,632.165 2315.72,634.378 2315.72,637.045 C2315.72,641.535 2313.41,645.733 2308.8,649.639 C2304.11,653.545 2299.09,655.498 2293.75,655.498 C2290.62,655.498 2287.99,654.686 2285.84,653.061 C2283.82,651.3 2282.81,649.087 2282.81,646.42 C2282.81,641.93 2285.16,637.733 2289.84,633.826 C2294.41,629.92 2299.38,627.967 2304.78,627.967"/>
<path class="Note" d="M2185.29,615.467 C2188.41,615.467 2191.05,616.279 2193.21,617.904 C2195.22,619.665 2196.23,621.878 2196.23,624.545 C2196.23,629.035 2193.92,633.233 2189.3,637.139 C2184.62,641.045 2179.6,642.998 2174.26,642.998 C2171.13,642.998 2168.5,642.186 2166.35,640.561 C2164.33,638.8 2163.32,636.587 2163.32,633.92 C2163.32,629.43 2165.66,625.233 2170.35,621.326 C2174.91,617.42 2179.89,615.467 2185.29,615.467"/>
<path class="Note" d="M2065.8,602.967 C2068.92,602.967 2071.56,603.779 2073.72,605.404 C2075.73,607.165 2076.74,609.378 2076.74,612.045 C2076.74,616.535 2074.43,620.733 2069.81,624.639 C2065.13,628.545 2060.11,630.498 2054.77,630.498 C2051.64,630.498 2049.01,629.686 2046.86,628.061 C2044.84,626.3 2043.83,624.087 2043.83,621.42 C2043.83,616.93 2046.17,612.733 2050.86,608.826 C2055.42,604.92 2060.4,602.967 2065.8,602.967"/>
<path class="Note" d="M1946.31,590.467 C1949.43,590.467 1952.07,591.279 1954.23,592.904 C1956.24,594.665 1957.24,596.878 1957.24,599.545 C1957.24,604.035 1954.94,608.233 1950.32,612.139 C1945.63,616.045 1940.62,617.998 1935.28,617.998 C1932.15,617.998 1929.52,617.186 1927.37,615.561 C1925.35,613.8 1924.34,611.587 1924.34,608.92 C1924.34,604.43 1926.68,600.233 1931.37,596.326 C1935.93,592.42 1940.91,590.467 1946.31,590.467"/>
<path class="Note" d="M1792.82,590.467 C1795.94,590.467 1798.58,591.279 1800.74,592.904 C1802.75,594.665 1803.75,596.878 1803.75,599.545 C1803.75,604.035 1801.45,608.233 1796.83,612.139 C1792.14,616.045 1787.13,617.998 1781.78,617.998 C1778.66,617.998 1776.02,617.186 1773.88,615.561 C1771.86,613.8 1770.85,611.587 1770.85,608.92 C1770.85,604.43 1773.19,600.233 1777.88,596.326 C1782.44,592.42 1787.42,590.467 1792.82,590.467"/>
<path class="Note" d="M1673.32,615.467 C1676.45,615.467 1679.09,616.279 1681.25,617.904 C1683.26,619.665 1684.26,621.878 1684.26,624.545 C1684.26,629.035 1681.95,633.233 1677.34,637.139 C1672.65,641.045 1667.64,642.998 1662.29,642.998 C1659.17,642.998 1656.53,642.186 1654.39,640.561 C1652.37,638.8 1651.36,636.587 1651.36,633.92 C1651.36,629.43 1653.7,625.233 1658.39,621.326 C1662.95,617.42 1667.93,615.467 1673.32,615.467"/>
<path class="Note" d="M1553.83,627.967 C1556.96,627.967 1559.6,628.779 1561.75,630.404 C1563.77,632.165 1564.77,634.378 1564.77,637.045 C1564.77,641.535 1562.46,645.733 1557.85,649.639 C1553.16,653.545 1548.15,655.498 1542.8,655.498 C1539.68,655.498 1537.04,654.686 1534.9,653.061 C1532.87,651.3 1531.86,649.087 1531.86,646.42 C1531.86,641.93 1534.21,637.733 1538.9,633.826 C1543.46,629.92 1548.44,627.967 1553.83,627.967"/>
<path class="Note" d="M1434.34,615.467 C1437.47,615.467 1440.11,616.279 1442.26,617.904 C1444.27,619.665 1445.28,621.878 1445.28,624.545 C1445.28,629.035 1442.97,633.233 1438.36,637.139 C1433.67,641.045 1428.65,642.998 1423.31,642.998 C1420.19,642.998 1417.55,642.186 1415.4,640.561 C1413.38,638.8 1412.37,636.587 1412.37,633.92 C1412.37,629.43 1414.72,625.233 1419.4,621.326 C1423.97,617.42 1428.95,615.467 1434.34,615.467"/>
<path class="Note" d="M1280.85,602.967 C1283.98,602.967 1286.62,603.779 1288.77,605.404 C1290.78,607.165 1291.79,609.378 1291.79,612.045 C1291.79,616.535 1289.48,620.733 1284.87,624.639 C1280.18,628.545 1275.16,630.498 1269.82,630.498 C1266.69,630.498 1264.06,629.686 1261.91,628.061 C1259.89,626.3 1258.88,624.087 1258.88,621.42 C1258.88,616.93 1261.23,612.733 1265.91,608.826 C1270.48,604.92 1275.45,602.967 1280.85,602.967"/>
<path class="Note" d="M1161.36,615.467 C1164.48,615.467 1167.13,616.279 1169.28,617.904 C1171.29,619.665 1172.3,621.878 1172.3,624.545 C1172.3,629.035 1169.99,633.233 1165.38,637.139 C1160.69,641.045 1155.67,642.998 1150.33,642.998 C1147.2,642.998 1144.57,642.186 1142.42,640.561 C1140.4,638.8 1139.39,636.587 1139.39,633.92 C1139.39,629.43 1141.73,625.233 1146.42,621.326 C1150.98,617.42 1155.96,615.467 1161.36,615.467"/>
<path class="Note" d="M1041.87,627.967 C1044.99,627.967 1047.63,628.779 1049.79,630.404 C1051.8,632.165 1052.81,634.378 1052.81,637.045 C1052.81,641.535 1050.5,645.733 1045.88,649.639 C1041.2,653.545 1036.18,655.498 1030.84,655.498 C1027.71,655.498 1025.08,654.686 1022.93,653.061 C1020.91,651.3 1019.9,649.087 1019.9,646.42 C1019.9,641.93 1022.24,637.733 1026.93,633.826 C1031.49,629.92 1036.47,627.967 1041.87,627.967"/>
<path class="Note" d="M922.377,615.467 C925.502,615.467 928.143,616.279 930.299,617.904 C932.309,619.665 933.314,621.878 933.314,624.545 C933.314,629.035 931.007,633.233 926.393,637.139 C921.705,641.045 916.689,642.998 911.346,642.998 C908.221,642.998 905.585,642.186 903.439,640.561 C901.419,638.8 900.408,636.587 900.408,633.92 C900.408,629.43 902.752,625.233 907.439,621.326 C912.002,617.42 916.981,615.467 922.377,615.467"/>
<path class="Note" d="M768.886,602.967 C772.011,602.967 774.651,603.779 776.808,605.404 C778.818,607.165 779.823,609.378 779.823,612.045 C779.823,616.535 777.516,620.733 772.901,624.639 C768.214,628.545 763.198,630.498 757.854,630.498 C754.729,630.498 752.094,629.686 749.948,628.061 C747.927,626.3 746.917,624.087 746.917,621.42 C746.917,616.93 749.261,612.733 753.948,608.826 C758.511,604.92 763.49,602.967 768.886,602.967"/>
<path class="Note" d="M649.395,602.967 C652.52,602.967 655.16,603.779 657.316,605.404 C659.327,607.165 660.332,609.378 660.332,612.045 C660.332,616.535 658.025,620.733 653.41,624.639 C648.723,628.545 643.707,630.498 638.363,630.498 C635.238,630.498 632.603,629.686 630.457,628.061 C628.436,626.3 627.426,624.087 627.426,621.42 C627.426,616.93 629.77,612.733 634.457,608.826 C639.02,604.92 643.999,602.967 649.395,602.967"/>
<path class="Note" d="M529.903,615.467 C533.028,615.467 535.669,616.279 537.825,617.904 C539.836,619.665 540.841,621.878 540.841,624.545 C540.841,629.035 538.534,633.233 533.919,637.139 C529.231,641.045 524.216,642.998 518.872,642.998 C515.747,642.998 513.112,642.186 510.966,640.561 C508.945,638.8 507.935,636.587 507.935,633.92 C507.935,629.43 510.278,625.233 514.966,621.326 C519.528,617.42 524.507,615.467 529.903,615.467"/>
<path class="Note" d="M410.412,627.967 C413.537,627.967 416.178,628.779 418.334,630.404 C420.344,632.165 421.35,634.378 421.35,637.045 C421.35,641.535 419.042,645.733 414.428,649.639 C409.74,653.545 404.725,655.498 399.381,655.498 C396.256,655.498 393.62,654.686 391.475,653.061 C389.454,651.3 388.443,649.087 388.443,646.42 C388.443,641.93 390.787,637.733 395.475,633.826 C400.037,629.92 405.016,627.967 410.412,627.967"/>
<path class="Clef" d="M194.451,1091.14 C194.451,1091.14 194.649,1091.14 195.045,1091.14 C195.305,1091.08 195.529,1091.05 195.717,1091.05 C203.008,1091.05 208.998,1093.62 213.685,1098.76 C218.373,1103.84 220.717,1109.76 220.717,1116.53 C220.717,1124.94 217.237,1131.77 210.279,1137.05 C208.456,1138.48 206.076,1139.65 203.139,1140.56 C203.472,1144.79 203.639,1148.21 203.639,1150.81 C203.639,1151.33 203.571,1153.22 203.435,1156.48 C203.175,1162.53 201.092,1167.77 197.185,1172.2 C193.415,1176.57 188.727,1178.75 183.123,1178.75 C177.852,1178.75 173.362,1176.89 169.654,1173.19 C165.935,1169.4 164.076,1164.85 164.076,1159.51 C164.076,1156.71 165.154,1154.33 167.31,1152.37 C169.519,1150.43 172.086,1149.45 175.014,1149.45 C177.618,1149.45 179.8,1150.46 181.56,1152.48 C183.383,1154.37 184.295,1156.71 184.295,1159.51 C184.295,1162.05 183.383,1164.22 181.56,1166.05 C179.737,1167.87 177.555,1168.78 175.014,1168.78 C173.972,1168.78 172.967,1168.59 171.998,1168.2 C174.862,1172.43 178.67,1174.55 183.42,1174.55 C187.909,1174.55 191.586,1172.72 194.451,1169.08 C197.451,1165.31 199.081,1160.91 199.342,1155.89 C199.467,1152.76 199.529,1150.98 199.529,1150.53 C199.529,1146.88 199.399,1143.89 199.139,1141.55 C195.889,1142.07 192.993,1142.33 190.451,1142.33 C181.399,1142.33 173.685,1138.74 167.31,1131.58 C161.06,1124.35 157.935,1115.75 157.935,1105.8 C157.935,1103.71 158.128,1101.6 158.514,1099.45 C158.909,1097.69 159.399,1095.77 159.982,1093.69 C160.305,1092.51 161.185,1090.62 162.623,1088.01 C163.144,1087.23 163.73,1086.26 164.381,1085.08 C165.032,1083.91 165.487,1083.13 165.748,1082.75 C166.394,1081.45 167.659,1079.69 169.545,1077.47 C170.066,1076.88 170.605,1076.24 171.162,1075.52 C171.719,1074.81 172.193,1074.22 172.584,1073.76 C172.974,1073.31 173.266,1072.95 173.459,1072.69 C173.652,1072.43 175.118,1070.7 177.857,1067.51 C178.503,1066.86 179.136,1066.16 179.756,1065.41 C180.375,1064.67 180.881,1064.08 181.271,1063.65 C181.662,1063.23 181.956,1062.92 182.154,1062.73 C179.81,1054.98 178.342,1048.8 177.748,1044.17 C177.3,1040.46 177.076,1035.38 177.076,1028.94 C177.076,1023.27 178.378,1017.96 180.982,1013.01 C183.514,1007.88 187.06,1003.68 191.623,1000.42 C191.883,1000.22 192.206,1000.12 192.592,1000.12 C193.05,1000.12 193.378,1000.22 193.576,1000.42 C197.086,1004.65 200.112,1010.15 202.654,1016.92 C205.258,1023.69 206.56,1029.85 206.56,1035.39 C206.56,1041.64 205.066,1047.5 202.076,1052.97 C198.691,1058.76 194.326,1064.75 188.982,1070.94 C190.347,1075.23 192.17,1081.96 194.451,1091.14 M202.748,1136.56 C206.133,1135.32 208.774,1133.21 210.67,1130.22 C212.753,1127.35 213.795,1124.13 213.795,1120.55 C213.795,1115.92 212.232,1111.82 209.107,1108.23 C205.909,1104.52 201.836,1102.44 196.889,1101.98 C199.691,1115.72 201.644,1127.25 202.748,1136.56 M164.967,1114 C164.967,1120.45 167.571,1126.11 172.779,1131 C178.112,1135.75 184.102,1138.12 190.748,1138.12 C193.477,1138.12 196.144,1137.93 198.748,1137.53 C197.706,1127.63 195.654,1115.78 192.592,1101.98 C188.883,1102.38 185.925,1103.68 183.717,1105.89 C181.56,1108.17 180.482,1110.74 180.482,1113.61 C180.482,1118.56 183.123,1122.56 188.404,1125.62 C188.852,1126.08 189.076,1126.57 189.076,1127.09 C189.076,1127.61 188.852,1128.1 188.404,1128.55 C188.008,1129 187.519,1129.23 186.935,1129.23 C186.873,1129.23 186.581,1129.17 186.06,1129.05 C182.342,1127.02 179.477,1124.42 177.467,1121.23 C175.571,1117.84 174.623,1114.42 174.623,1110.97 C174.623,1106.48 176.024,1102.41 178.826,1098.76 C181.753,1095.12 185.56,1092.77 190.248,1091.73 C188.425,1084.44 186.93,1078.74 185.764,1074.64 C184.722,1075.82 183.469,1077.23 182.006,1078.89 C180.542,1080.55 179.68,1081.54 179.42,1081.87 C177.076,1084.93 175.284,1087.3 174.045,1089 C171.826,1092.06 170.196,1094.7 169.154,1096.9 C168.05,1099.38 167.076,1102.09 166.232,1105.01 C165.389,1107.82 164.967,1110.81 164.967,1114 M197.576,1014.69 C192.691,1017.09 188.852,1020.54 186.06,1025.03 C183.196,1029.65 181.764,1034.63 181.764,1039.97 C181.764,1044.65 182.935,1050.97 185.279,1058.92 C189.967,1053.25 193.482,1048.01 195.826,1043.2 C198.295,1038.12 199.529,1032.81 199.529,1027.28 C199.529,1023.11 198.878,1018.92 197.576,1014.69"/>
<path class="Clef" d="M194.451,616.139 C194.451,616.139 194.649,616.139 195.045,616.139 C195.305,616.076 195.529,616.045 195.717,616.045 C203.008,616.045 208.998,618.618 213.685,623.764 C218.373,628.837 220.717,634.759 220.717,641.529 C220.717,649.936 217.237,656.774 210.279,662.045 C208.456,663.483 206.076,664.654 203.139,665.561 C203.472,669.79 203.639,673.207 203.639,675.811 C203.639,676.332 203.571,678.222 203.435,681.483 C203.175,687.535 201.092,692.774 197.185,697.201 C193.415,701.566 188.727,703.748 183.123,703.748 C177.852,703.748 173.362,701.894 169.654,698.186 C165.935,694.404 164.076,689.847 164.076,684.514 C164.076,681.712 165.154,679.332 167.31,677.373 C169.519,675.425 172.086,674.451 175.014,674.451 C177.618,674.451 179.8,675.462 181.56,677.483 C183.383,679.368 184.295,681.712 184.295,684.514 C184.295,687.045 183.383,689.222 181.56,691.045 C179.737,692.868 177.555,693.779 175.014,693.779 C173.972,693.779 172.967,693.587 171.998,693.201 C174.862,697.43 178.67,699.545 183.42,699.545 C187.909,699.545 191.586,697.722 194.451,694.076 C197.451,690.305 199.081,685.91 199.342,680.889 C199.467,677.764 199.529,675.977 199.529,675.529 C199.529,671.884 199.399,668.889 199.139,666.545 C195.889,667.066 192.993,667.326 190.451,667.326 C181.399,667.326 173.685,663.743 167.31,656.576 C161.06,649.347 157.935,640.753 157.935,630.795 C157.935,628.712 158.128,626.597 158.514,624.451 C158.909,622.691 159.399,620.769 159.982,618.686 C160.305,617.509 161.185,615.618 162.623,613.014 C163.144,612.233 163.73,611.256 164.381,610.084 C165.032,608.912 165.487,608.134 165.748,607.748 C166.394,606.446 167.659,604.686 169.545,602.467 C170.066,601.884 170.605,601.235 171.162,600.522 C171.719,599.808 172.193,599.222 172.584,598.764 C172.974,598.305 173.266,597.946 173.459,597.686 C173.652,597.425 175.118,595.701 177.857,592.514 C178.503,591.858 179.136,591.157 179.756,590.412 C180.375,589.667 180.881,589.082 181.271,588.654 C181.662,588.227 181.956,587.92 182.154,587.733 C179.81,579.983 178.342,573.795 177.748,569.17 C177.3,565.462 177.076,560.384 177.076,553.936 C177.076,548.269 178.378,542.962 180.982,538.014 C183.514,532.878 187.06,528.68 191.623,525.42 C191.883,525.222 192.206,525.123 192.592,525.123 C193.05,525.123 193.378,525.222 193.576,525.42 C197.086,529.649 200.112,535.149 202.654,541.92 C205.258,548.691 206.56,554.847 206.56,560.389 C206.56,566.639 205.066,572.498 202.076,577.967 C198.691,583.759 194.326,589.748 188.982,595.936 C190.347,600.227 192.17,606.962 194.451,616.139 M202.748,661.561 C206.133,660.321 208.774,658.207 210.67,655.217 C212.753,652.352 213.795,649.128 213.795,645.545 C213.795,640.92 212.232,636.816 209.107,633.233 C205.909,629.524 201.836,627.441 196.889,626.983 C199.691,640.722 201.644,652.248 202.748,661.561 M164.967,638.998 C164.967,645.446 167.571,651.113 172.779,655.998 C178.112,660.748 184.102,663.123 190.748,663.123 C193.477,663.123 196.144,662.925 198.748,662.529 C197.706,652.634 195.654,640.785 192.592,626.983 C188.883,627.378 185.925,628.68 183.717,630.889 C181.56,633.17 180.482,635.743 180.482,638.608 C180.482,643.555 183.123,647.561 188.404,650.623 C188.852,651.082 189.076,651.571 189.076,652.092 C189.076,652.613 188.852,653.097 188.404,653.545 C188.008,654.003 187.519,654.233 186.935,654.233 C186.873,654.233 186.581,654.17 186.06,654.045 C182.342,652.024 179.477,649.42 177.467,646.233 C175.571,642.837 174.623,639.415 174.623,635.967 C174.623,631.477 176.024,627.41 178.826,623.764 C181.753,620.118 185.56,617.774 190.248,616.733 C188.425,609.441 186.93,603.743 185.764,599.639 C184.722,600.816 183.469,602.233 182.006,603.889 C180.542,605.545 179.68,606.54 179.42,606.873 C177.076,609.925 175.284,612.3 174.045,613.998 C171.826,617.061 170.196,619.696 169.154,621.904 C168.05,624.384 167.076,627.087 166.232,630.014 C165.389,632.816 164.967,635.811 164.967,638.998 M197.576,539.686 C192.691,542.092 188.852,545.54 186.06,550.029 C183.196,554.654 181.764,559.634 181.764,564.967 C181.764,569.654 182.935,575.972 185.279,583.92 C189.967,578.253 193.482,573.014 195.826,568.201 C198.295,563.118 199.529,557.811 199.529,552.279 C199.529,548.113 198.878,543.915 197.576,539.686"/>
<path class="KeySig" d="M267.248,1072.89 C267.248,1074.13 266.631,1074.75 265.396,1074.75 C264.162,1074.75 263.545,1074.13 263.545,1072.89 L263.545,1058.44 L255.248,1061.56 L255.248,1077.37 C255.248,1078.61 254.628,1079.23 253.389,1079.23 C252.149,1079.23 251.529,1078.61 251.529,1077.37 L251.529,1062.83 L248.404,1064 C248.342,1064.06 248.081,1064.09 247.623,1064.09 C247.102,1064.09 246.646,1063.9 246.256,1063.51 C245.865,1063.12 245.67,1062.66 245.67,1062.14 L245.67,1056.09 C245.67,1055.11 246.092,1054.49 246.935,1054.23 L251.529,1052.67 L251.529,1036.65 L248.404,1037.73 C248.342,1037.8 248.081,1037.83 247.623,1037.83 C247.102,1037.83 246.646,1037.63 246.256,1037.24 C245.865,1036.85 245.67,1036.39 245.67,1035.87 L245.67,1029.81 C245.67,1028.9 246.092,1028.32 246.935,1028.06 L251.529,1026.3 L251.529,1010.58 C251.529,1009.34 252.149,1008.72 253.389,1008.72 C254.628,1008.72 255.248,1009.34 255.248,1010.58 L255.248,1025.03 L263.545,1021.9 L263.545,1006.09 C263.545,1004.85 264.162,1004.23 265.396,1004.23 C266.631,1004.23 267.248,1004.85 267.248,1006.09 L267.248,1020.64 L270.482,1019.47 C270.545,1019.4 270.769,1019.37 271.154,1019.37 C271.613,1019.37 272.102,1019.57 272.623,1019.95 C273.019,1020.35 273.217,1020.81 273.217,1021.33 L273.217,1027.37 C273.217,1028.29 272.758,1028.91 271.842,1029.23 L267.248,1030.8 L267.248,1046.81 L270.482,1045.73 C270.545,1045.67 270.769,1045.64 271.154,1045.64 C271.613,1045.64 272.102,1045.84 272.623,1046.23 C273.019,1046.62 273.217,1047.07 273.217,1047.59 L273.217,1053.65 C273.217,1054.5 272.758,1055.08 271.842,1055.4 L267.248,1057.17 L267.248,1072.89 M263.545,1032.26 L255.248,1035.19 L255.248,1051.2 L263.545,1048.28 L263.545,1032.26 "/>
<path class="KeySig" d="M267.248,597.889 C267.248,599.128 266.631,599.748 265.396,599.748 C264.162,599.748 263.545,599.128 263.545,597.889 L263.545,583.436 L255.248,586.561 L255.248,602.373 C255.248,603.613 254.628,604.233 253.389,604.233 C252.149,604.233 251.529,603.613 251.529,602.373 L251.529,587.826 L248.404,588.998 C248.342,589.061 248.081,589.092 247.623,589.092 C247.102,589.092 246.646,588.897 246.256,588.506 C245.865,588.115 245.67,587.66 245.67,587.139 L245.67,581.092 C245.67,580.113 246.092,579.493 246.935,579.233 L251.529,577.67 L251.529,561.654 L248.404,562.733 C248.342,562.795 248.081,562.826 247.623,562.826 C247.102,562.826 246.646,562.631 246.256,562.24 C245.865,561.85 245.67,561.394 245.67,560.873 L245.67,554.811 C245.67,553.904 246.092,553.321 246.935,553.061 L251.529,551.295 L251.529,535.576 C251.529,534.337 252.149,533.717 253.389,533.717 C254.628,533.717 255.248,534.337 255.248,535.576 L255.248,550.029 L263.545,546.904 L263.545,531.092 C263.545,529.852 264.162,529.233 265.396,529.233 C266.631,529.233 267.248,529.852 267.248,531.092 L267.248,545.639 L270.482,544.467 C270.545,544.404 270.769,544.373 271.154,544.373 C271.613,544.373 272.102,544.566 272.623,544.951 C273.019,545.347 273.217,545.805 273.217,546.326 L273.217,552.373 C273.217,553.29 272.758,553.91 271.842,554.233 L267.248,555.795 L267.248,571.811 L270.482,570.733 C270.545,570.67 270.769,570.639 271.154,570.639 C271.613,570.639 272.102,570.837 272.623,571.233 C273.019,571.618 273.217,572.071 273.217,572.592 L273.217,578.654 C273.217,579.498 272.758,580.081 271.842,580.404 L267.248,582.17 L267.248,597.889 M263.545,557.264 L255.248,560.186 L255.248,576.201 L263.545,573.279 L263.545,557.264 "/>
<path class="TimeSig" d="M321.006,567.912 C322.954,567.912 324.613,567.686 325.982,567.233 C327.352,566.779 328.23,566.553 328.615,566.553 C329.073,566.553 329.433,566.683 329.693,566.943 C329.891,567.131 330.021,567.355 330.084,567.615 C330.084,567.751 330.016,567.949 329.881,568.209 L301.475,601.225 L318.162,601.225 L318.162,588.131 C318.162,587.287 318.391,586.568 318.85,585.975 C319.631,585.329 320.282,584.938 320.803,584.803 C321.646,584.417 322.688,583.506 323.928,582.068 C324.969,580.902 326.209,578.855 327.646,575.928 C327.834,575.532 328.126,575.334 328.521,575.334 C329.303,575.334 329.756,575.792 329.881,576.709 L329.881,601.225 L337.021,601.225 C337.928,601.225 338.448,601.709 338.584,602.678 C338.584,603.657 338.063,604.147 337.021,604.147 L329.881,604.147 L329.881,604.928 C329.881,607.532 330.532,609.746 331.834,611.568 C333.334,613.391 335.094,614.303 337.115,614.303 C337.896,614.303 338.287,614.693 338.287,615.475 C338.287,616.256 337.896,616.647 337.115,616.647 C335.751,616.647 333.537,616.454 330.475,616.068 C327.672,615.61 325.49,615.381 323.928,615.381 C322.303,615.381 320.12,615.61 317.381,616.068 C314.454,616.454 312.277,616.647 310.85,616.647 C310.068,616.647 309.678,616.256 309.678,615.475 C309.678,614.693 310.068,614.303 310.85,614.303 C312.86,614.303 314.615,613.391 316.115,611.568 C317.48,609.683 318.162,607.47 318.162,604.928 L318.162,604.147 L301.475,604.147 C300.36,604.147 299.579,603.886 299.131,603.365 C298.6,602.98 298.334,602.459 298.334,601.803 C298.334,601.605 298.823,600.923 299.803,599.756 C300.917,598.454 302.089,596.86 303.318,594.975 C304.756,592.756 306.126,590.475 307.428,588.131 C308.855,585.464 309.995,582.402 310.85,578.943 C311.818,575.433 312.303,571.855 312.303,568.209 C312.303,567.167 312.761,566.647 313.678,566.647 C313.876,566.647 314.297,566.746 314.943,566.943 C315.141,567.006 315.55,567.102 316.17,567.233 C316.79,567.363 317.292,567.49 317.678,567.615 C318.855,567.813 319.964,567.912 321.006,567.912"/>
<path class="TimeSig" d="M321.006,618.084 C322.954,618.084 324.613,617.858 325.982,617.404 C327.352,616.951 328.23,616.725 328.615,616.725 C329.073,616.725 329.433,616.855 329.693,617.115 C329.891,617.303 330.021,617.527 330.084,617.787 C330.084,617.923 330.016,618.121 329.881,618.381 L301.475,651.397 L318.162,651.397 L318.162,638.303 C318.162,637.459 318.391,636.74 318.85,636.147 C319.631,635.501 320.282,635.11 320.803,634.975 C321.646,634.589 322.688,633.678 323.928,632.24 C324.969,631.074 326.209,629.027 327.646,626.1 C327.834,625.704 328.126,625.506 328.521,625.506 C329.303,625.506 329.756,625.964 329.881,626.881 L329.881,651.397 L337.021,651.397 C337.928,651.397 338.448,651.881 338.584,652.85 C338.584,653.829 338.063,654.319 337.021,654.319 L329.881,654.319 L329.881,655.1 C329.881,657.704 330.532,659.917 331.834,661.74 C333.334,663.563 335.094,664.475 337.115,664.475 C337.896,664.475 338.287,664.865 338.287,665.647 C338.287,666.428 337.896,666.819 337.115,666.819 C335.751,666.819 333.537,666.626 330.475,666.24 C327.672,665.782 325.49,665.553 323.928,665.553 C322.303,665.553 320.12,665.782 317.381,666.24 C314.454,666.626 312.277,666.819 310.85,666.819 C310.068,666.819 309.678,666.428 309.678,665.647 C309.678,664.865 310.068,664.475 310.85,664.475 C312.86,664.475 314.615,663.563 316.115,661.74 C317.48,659.855 318.162,657.641 318.162,655.1 L318.162,654.319 L301.475,654.319 C300.36,654.319 299.579,654.058 299.131,653.537 C298.6,653.152 298.334,652.631 298.334,651.975 C298.334,651.777 298.823,651.095 299.803,649.928 C300.917,648.626 302.089,647.032 303.318,645.147 C304.756,642.928 306.126,640.647 307.428,638.303 C308.855,635.636 309.995,632.574 310.85,629.115 C311.818,625.605 312.303,622.027 312.303,618.381 C312.303,617.339 312.761,616.819 313.678,616.819 C313.876,616.819 314.297,616.917 314.943,617.115 C315.141,617.178 315.55,617.274 316.17,617.404 C316.79,617.535 317.292,617.662 317.678,617.787 C318.855,617.985 319.964,618.084 321.006,618.084"/>
<path class="Rest" d="M2795.75,1091.73 L2760.2,1091.73 C2759.55,1091.73 2759.22,1091.4 2759.22,1090.75 L2759.22,1077.08 C2759.22,1076.43 2759.55,1076.11 2760.2,1076.11 L2795.75,1076.11 C2796.4,1076.11 2796.72,1076.43 2796.72,1077.08 L2796.72,1090.75 C2796.72,1091.4 2796.4,1091.73 2795.75,1091.73"/>
<path class="Rest" d="M2674.53,1083.92 C2674.53,1082.74 2675.19,1081.44 2676.5,1080.01 C2677.47,1078.97 2678.9,1077.73 2680.8,1076.3 C2682.22,1075.33 2683.62,1073.86 2684.98,1071.9 C2686.29,1070.02 2686.94,1067.97 2686.94,1065.75 C2686.94,1063.14 2686.09,1060.84 2684.41,1058.83 L2680.89,1054.62 C2680.63,1054.36 2680.5,1054.04 2680.5,1053.65 C2680.5,1053.26 2680.69,1052.9 2681.08,1052.58 C2681.54,1052.24 2681.93,1052.08 2682.25,1052.08 C2682.71,1052.08 2683.07,1052.27 2683.33,1052.67 L2698.47,1070.64 C2699.11,1071.48 2699.44,1072.33 2699.44,1073.17 C2699.44,1074.35 2698.79,1075.65 2697.48,1077.08 C2696.64,1077.99 2695.24,1079.23 2693.3,1080.8 C2691.8,1081.7 2690.36,1083.17 2689,1085.19 C2687.7,1087.07 2687.05,1089.12 2687.05,1091.34 C2687.05,1094.08 2687.83,1096.39 2689.39,1098.28 L2697.78,1108.14 C2697.98,1108.34 2698.14,1108.67 2698.27,1109.12 C2698.27,1109.57 2698.1,1109.96 2697.78,1110.3 C2697.32,1110.62 2696.93,1110.78 2696.61,1110.78 C2696.48,1110.78 2695.96,1110.42 2695.05,1109.7 C2694.07,1108.92 2692.77,1108.17 2691.14,1107.45 C2689.32,1106.74 2687.53,1106.39 2685.77,1106.39 C2684.14,1106.39 2682.81,1106.84 2681.77,1107.75 C2680.86,1108.67 2680.41,1110.43 2680.41,1113.03 C2680.41,1117 2681.35,1120.12 2683.23,1122.4 C2683.43,1122.67 2683.46,1122.99 2683.33,1123.37 C2683.2,1123.63 2682.97,1123.76 2682.64,1123.76 C2682.19,1123.76 2681.19,1122.59 2679.62,1120.25 C2677.99,1117.78 2676.46,1114.95 2675.03,1111.75 C2673.53,1108.36 2672.78,1105.57 2672.78,1103.36 C2672.78,1100.56 2674.11,1099.15 2676.78,1099.15 C2679.84,1099.15 2683.82,1100.2 2688.7,1102.28 L2675.52,1086.45 C2674.86,1085.61 2674.53,1084.76 2674.53,1083.92"/>
<path class="Rest" d="M593.288,1083.92 C593.288,1082.74 593.944,1081.44 595.257,1080.01 C596.226,1078.97 597.658,1077.73 599.554,1076.3 C600.981,1075.33 602.377,1073.86 603.741,1071.9 C605.043,1070.02 605.694,1067.97 605.694,1065.75 C605.694,1063.14 604.851,1060.84 603.163,1058.83 L599.648,1054.62 C599.387,1054.36 599.257,1054.04 599.257,1053.65 C599.257,1053.26 599.45,1052.9 599.835,1052.58 C600.293,1052.24 600.684,1052.08 601.007,1052.08 C601.465,1052.08 601.825,1052.27 602.085,1052.67 L617.226,1070.64 C617.872,1071.48 618.194,1072.33 618.194,1073.17 C618.194,1074.35 617.543,1075.65 616.241,1077.08 C615.398,1077.99 614.002,1079.23 612.054,1080.8 C610.554,1081.7 609.122,1083.17 607.757,1085.19 C606.455,1087.07 605.804,1089.12 605.804,1091.34 C605.804,1094.08 606.585,1096.39 608.148,1098.28 L616.538,1108.14 C616.736,1108.34 616.898,1108.67 617.023,1109.12 C617.023,1109.57 616.861,1109.96 616.538,1110.3 C616.08,1110.62 615.689,1110.78 615.366,1110.78 C615.241,1110.78 614.721,1110.42 613.804,1109.7 C612.825,1108.92 611.523,1108.17 609.898,1107.45 C608.075,1106.74 606.283,1106.39 604.523,1106.39 C602.898,1106.39 601.564,1106.84 600.523,1107.75 C599.616,1108.67 599.163,1110.43 599.163,1113.03 C599.163,1117 600.106,1120.12 601.991,1122.4 C602.189,1122.67 602.221,1122.99 602.085,1123.37 C601.96,1123.63 601.731,1123.76 601.398,1123.76 C600.95,1123.76 599.944,1122.59 598.382,1120.25 C596.747,1117.78 595.215,1114.95 593.788,1111.75 C592.288,1108.36 591.538,1105.57 591.538,1103.36 C591.538,1100.56 592.872,1099.15 595.538,1099.15 C598.601,1099.15 602.575,1100.2 607.46,1102.28 L594.273,1086.45 C593.616,1085.61 593.288,1084.76 593.288,1083.92"/>
</svg>
