<?xml version="1.0" encoding="UTF-8" standalone="no"?>
<svg width="2977.2px" height="4208.4px" viewBox="0 0 2977.2 4208.4"
 xmlns="http://www.w3.org/2000/svg" xmlns:xlink="http://www.w3.org/1999/xlink" version="1.2" baseProfile="tiny">
<title>Sarba</title>
<desc>Generated by MuseScore 3.0.2</desc>
<polyline class="StaffLines" fill="none" stroke="#000000" stroke-width="2.00" stroke-linejoin="bevel" points="141.732,566.733 2835.47,566.733"/>
<polyline class="StaffLines" fill="none" stroke="#000000" stroke-width="2.00" stroke-linejoin="bevel" points="141.732,591.733 2835.47,591.733"/>
<polyline class="StaffLines" fill="none" stroke="#000000" stroke-width="2.00" stroke-linejoin="bevel" points="141.732,616.733 2835.47,616.733"/>
<polyline class="StaffLines" fill="none" stroke="#000000" stroke-width="2.00" stroke-linejoin="bevel" points="141.732,641.733 2835.47,641.733"/>
<polyline class="StaffLines" fill="none" stroke="#000000" stroke-width="2.00" stroke-linejoin="bevel" points="141.732,666.733 2835.47,666.733"/>
<polyline class="StaffLines" fill="none" stroke="#000000" stroke-width="2.00" stroke-linejoin="bevel" points="141.732,1041.73 2835.47,1041.73"/>
<polyline class="StaffLines" fill="none" stroke="#000000" stroke-width="2.00" stroke-linejoin="bevel" points="141.732,1066.73 2835.47,1066.73"/>
<polyline class="StaffLines" fill="none" stroke="#000000" stroke-width="2.00" stroke-linejoin="bevel" points="141.732,1091.73 2835.47,1091.73"/>
<polyline class="StaffLines" fill="none" stroke="#000000" stroke-width="2.00" stroke-linejoin="bevel" points="141.732,1116.73 2835.47,1116.73"/>
<polyline class="StaffLines" fill="none" stroke="#000000" stroke-width="2.00" stroke-linejoin="bevel" points="141.732,1141.73 2835.47,1141.73"/>
<polyline class="StaffLines" fill="none" stroke="#000000" stroke-width="2.00" stroke-linejoin="bevel" points="141.732,1516.73 2835.47,1516.73"/>
<polyline class="StaffLines" fill="none" stroke="#000000" stroke-width="2.00" stroke-linejoin="bevel" points="141.732,1541.73 2835.47,1541.73"/>
<polyline class="StaffLines" fill="none" stroke="#000000" stroke-width="2.00" stroke-linejoin="bevel" points="141.732,1566.73 2835.47,1566.73"/>
<polyline class="StaffLines" fill="none" stroke="#000000" stroke-width="2.00" stroke-linejoin="bevel" points="141.732,1591.73 2835.47,1591.73"/>
<polyline class="StaffLines" fill="none" stroke="#000000" stroke-width="2.00" stroke-linejoin="bevel" points="141.732,1616.73 2835.47,1616.73"/>
<path class="Text" d="M1337.19,306.732 C1337.19,300.461 1334.99,294.894 1330.59,290.029 C1326.2,285.165 1320.86,280.998 1314.59,277.529 C1308.32,274.06 1302.09,270.493 1295.89,266.826 C1289.69,263.159 1284.39,258.461 1279.99,252.732 C1275.59,247.003 1273.39,240.336 1273.39,232.732 C1273.39,222.597 1276.82,214.363 1283.69,208.029 C1290.56,201.696 1298.66,198.529 1308,198.529 C1313.59,198.529 1319.66,199.665 1326.19,201.935 C1332.73,204.206 1336.66,205.342 1338,205.342 C1341.46,205.342 1343.59,203.071 1344.39,198.529 L1348.59,198.529 L1353,241.139 L1348,241.139 C1344.79,229.399 1339.89,220.73 1333.29,215.131 C1326.69,209.532 1319.39,206.732 1311.39,206.732 C1305.25,206.732 1300.25,208.467 1296.39,211.935 C1292.52,215.404 1290.59,219.873 1290.59,225.342 C1290.59,230.665 1292.86,235.727 1297.39,240.529 C1301.92,245.331 1309.46,250.665 1320,256.529 C1333.2,263.602 1342.73,270.571 1348.59,277.435 C1354.46,284.3 1357.39,291.868 1357.39,300.139 C1357.39,310.399 1353.46,319.029 1345.59,326.029 C1337.73,333.029 1328.06,336.529 1316.59,336.529 C1309.92,336.529 1303.16,335.396 1296.29,333.131 C1289.43,330.865 1285.2,329.732 1283.59,329.732 C1282.12,329.732 1280.85,330.365 1279.79,331.631 C1278.72,332.896 1278.12,334.461 1278,336.326 L1273.59,336.326 L1267.59,293.935 L1272.19,293.935 C1277.12,306.071 1282.86,315.003 1289.39,320.732 C1295.92,326.461 1303.65,329.326 1312.59,329.326 C1319.92,329.326 1325.86,327.227 1330.39,323.029 C1334.92,318.831 1337.19,313.399 1337.19,306.732 M1439.19,232.326 L1432.39,232.326 L1408,211.732 L1383.79,232.326 L1377,232.326 L1401.79,198.935 L1414.19,198.935 L1439.19,232.326 M1372.59,313.982 C1372.59,311.597 1372.86,309.376 1373.39,307.318 C1373.92,305.261 1374.85,303.336 1376.19,301.545 C1377.52,299.753 1378.79,298.128 1379.99,296.67 C1381.19,295.211 1383,293.719 1385.4,292.193 C1387.8,290.667 1389.8,289.407 1391.4,288.412 C1393,287.417 1395.43,286.225 1398.69,284.834 C1401.96,283.443 1404.46,282.383 1406.19,281.654 C1407.93,280.925 1410.66,279.831 1414.4,278.373 C1418.13,276.915 1420.86,275.852 1422.59,275.185 L1422.59,263.045 C1422.59,252.034 1417.52,246.529 1407.39,246.529 C1403.39,246.529 1399.99,247.495 1397.19,249.428 C1394.4,251.36 1393,253.659 1393,256.326 C1393,257.399 1393.16,258.868 1393.5,260.732 C1393.83,262.597 1394,263.795 1394,264.326 C1394,266.597 1393.1,268.566 1391.29,270.232 C1389.49,271.899 1387.39,272.732 1385,272.732 C1382.73,272.732 1380.72,271.865 1378.99,270.131 C1377.26,268.396 1376.39,266.399 1376.39,264.139 C1376.39,257.868 1379.62,252.566 1386.09,248.232 C1392.56,243.899 1400.53,241.732 1410,241.732 C1420.92,241.732 1428.46,244.355 1432.59,249.6 C1436.73,254.844 1438.79,262.842 1438.79,273.592 L1438.79,312.389 C1438.79,316.764 1439.23,319.782 1440.09,321.443 C1440.96,323.105 1442.52,323.935 1444.79,323.935 C1447.6,323.935 1450.53,322.675 1453.59,320.154 L1453.59,325.389 C1450.12,329.389 1447.09,332.113 1444.49,333.56 C1441.89,335.008 1438.92,335.732 1435.59,335.732 C1431.46,335.732 1428.42,334.568 1426.49,332.24 C1424.56,329.912 1423.33,326.081 1422.79,320.748 C1411.33,330.738 1401.59,335.732 1393.59,335.732 C1387.46,335.732 1382.42,333.698 1378.49,329.631 C1374.56,325.563 1372.59,320.347 1372.59,313.982 M1422.59,308.81 L1422.59,279.967 C1410.59,284.342 1402.19,288.584 1397.39,292.693 C1392.59,296.803 1390.19,301.779 1390.19,307.623 C1390.19,313.06 1391.52,317.105 1394.19,319.756 C1396.85,322.407 1399.72,323.732 1402.79,323.732 C1407.33,323.732 1412.19,322.206 1417.39,319.154 C1419.52,317.967 1420.92,316.709 1421.59,315.381 C1422.26,314.053 1422.59,311.863 1422.59,308.81 M1514.79,261.326 C1512.79,261.326 1510.33,260.159 1507.4,257.826 C1504.46,255.493 1502.53,254.326 1501.59,254.326 C1498.92,254.326 1495.92,256.261 1492.59,260.131 C1489.26,264.001 1487.59,267.534 1487.59,270.732 L1487.59,315.732 C1487.59,321.461 1488.72,325.326 1490.99,327.326 C1493.26,329.326 1497.79,330.461 1504.59,330.732 L1504.59,333.732 L1456.59,333.732 L1456.59,330.732 C1462.99,329.534 1466.95,328.201 1468.49,326.732 C1470.03,325.264 1470.79,321.998 1470.79,316.935 L1470.79,266.935 C1470.79,262.529 1470.29,259.428 1469.29,257.631 C1468.29,255.834 1466.53,254.935 1464,254.935 C1461.86,254.935 1459.53,255.201 1457,255.732 L1457,252.529 C1467.66,249.06 1477.53,245.461 1486.59,241.732 L1487.59,242.139 L1487.59,260.529 C1492.53,253.467 1496.73,248.568 1500.19,245.834 C1503.66,243.1 1507.46,241.732 1511.59,241.732 C1515.06,241.732 1517.76,242.665 1519.69,244.529 C1521.63,246.394 1522.59,248.993 1522.59,252.326 C1522.59,255.128 1521.89,257.329 1520.49,258.928 C1519.09,260.527 1517.19,261.326 1514.79,261.326 M1555.59,197.529 L1555.59,258.764 C1557.59,253.816 1561.19,249.74 1566.39,246.537 C1571.59,243.334 1577.25,241.732 1583.39,241.732 C1593.39,241.732 1601.76,245.915 1608.49,254.279 C1615.22,262.644 1618.59,272.982 1618.59,285.295 C1618.59,299.514 1614.09,311.475 1605.09,321.178 C1596.09,330.881 1584.99,335.732 1571.79,335.732 C1563.79,335.732 1556.29,334.404 1549.29,331.748 C1542.29,329.092 1538.79,326.274 1538.79,323.295 L1538.79,219.139 C1538.79,215.003 1538.16,212.269 1536.9,210.935 C1535.63,209.602 1533,208.935 1529,208.935 C1527.53,208.935 1526.39,209.003 1525.59,209.139 L1525.59,205.935 C1535.86,203.404 1545.53,200.472 1554.59,197.139 L1555.59,197.529 M1555.59,269.42 L1555.59,320.076 C1555.59,322.628 1557.52,324.876 1561.39,326.818 C1565.25,328.761 1569.79,329.732 1575,329.732 C1583.26,329.732 1589.66,326.649 1594.19,320.482 C1598.73,314.316 1601,305.67 1601,294.545 C1601,282.347 1598.7,272.594 1594.09,265.287 C1589.49,257.98 1583.25,254.326 1575.39,254.326 C1570.19,254.326 1565.59,255.868 1561.59,258.951 C1557.59,262.034 1555.59,265.524 1555.59,269.42 M1628.59,313.982 C1628.59,311.597 1628.86,309.376 1629.39,307.318 C1629.92,305.261 1630.85,303.336 1632.19,301.545 C1633.52,299.753 1634.79,298.128 1635.99,296.67 C1637.19,295.211 1639,293.719 1641.4,292.193 C1643.8,290.667 1645.8,289.407 1647.4,288.412 C1649,287.417 1651.43,286.225 1654.69,284.834 C1657.96,283.443 1660.46,282.383 1662.19,281.654 C1663.93,280.925 1666.66,279.831 1670.4,278.373 C1674.13,276.915 1676.86,275.852 1678.59,275.185 L1678.59,263.045 C1678.59,252.034 1673.52,246.529 1663.39,246.529 C1659.39,246.529 1655.99,247.495 1653.19,249.428 C1650.4,251.36 1649,253.659 1649,256.326 C1649,257.399 1649.16,258.868 1649.5,260.732 C1649.83,262.597 1650,263.795 1650,264.326 C1650,266.597 1649.1,268.566 1647.29,270.232 C1645.49,271.899 1643.39,272.732 1641,272.732 C1638.73,272.732 1636.72,271.865 1634.99,270.131 C1633.26,268.396 1632.39,266.399 1632.39,264.139 C1632.39,257.868 1635.62,252.566 1642.09,248.232 C1648.56,243.899 1656.53,241.732 1666,241.732 C1676.92,241.732 1684.46,244.355 1688.59,249.6 C1692.73,254.844 1694.79,262.842 1694.79,273.592 L1694.79,312.389 C1694.79,316.764 1695.23,319.782 1696.09,321.443 C1696.96,323.105 1698.52,323.935 1700.79,323.935 C1703.6,323.935 1706.53,322.675 1709.59,320.154 L1709.59,325.389 C1706.12,329.389 1703.09,332.113 1700.49,333.56 C1697.89,335.008 1694.92,335.732 1691.59,335.732 C1687.46,335.732 1684.42,334.568 1682.49,332.24 C1680.56,329.912 1679.33,326.081 1678.79,320.748 C1667.33,330.738 1657.59,335.732 1649.59,335.732 C1643.46,335.732 1638.42,333.698 1634.49,329.631 C1630.56,325.563 1628.59,320.347 1628.59,313.982 M1678.59,308.81 L1678.59,279.967 C1666.59,284.342 1658.19,288.584 1653.39,292.693 C1648.59,296.803 1646.19,301.779 1646.19,307.623 C1646.19,313.06 1647.52,317.105 1650.19,319.756 C1652.85,322.407 1655.72,323.732 1658.79,323.732 C1663.33,323.732 1668.19,322.206 1673.39,319.154 C1675.52,317.967 1676.92,316.709 1677.59,315.381 C1678.26,314.053 1678.59,311.863 1678.59,308.81"/>
<path class="MeasureNumber" d="M127.045,1443.01 C126.566,1443.01 125.607,1443.31 124.17,1443.89 L124.17,1443.34 L131.373,1439.7 L131.685,1439.78 L131.685,1463.78 C131.685,1464.74 131.925,1465.36 132.404,1465.65 C132.883,1465.95 133.909,1466.11 135.482,1466.14 L135.482,1466.73 L124.451,1466.73 L124.451,1466.14 C125.941,1466.08 126.946,1465.85 127.467,1465.47 C127.987,1465.08 128.248,1464.26 128.248,1463.01 L128.248,1444.89 C128.248,1443.64 127.847,1443.01 127.045,1443.01 M156.287,1463.45 C154.636,1466.01 152.451,1467.3 149.732,1467.3 C147.013,1467.3 144.826,1465.99 143.17,1463.37 C141.513,1460.76 140.685,1457.4 140.685,1453.3 C140.685,1449.43 141.513,1446.2 143.17,1443.6 C144.826,1441 147.066,1439.7 149.888,1439.7 C152.503,1439.7 154.636,1440.98 156.287,1443.54 C157.938,1446.1 158.763,1449.43 158.763,1453.53 C158.763,1457.58 157.938,1460.89 156.287,1463.45 M149.763,1440.73 C146.274,1440.73 144.529,1445.04 144.529,1453.65 C144.529,1462.05 146.263,1466.25 149.732,1466.25 C153.201,1466.25 154.935,1462.04 154.935,1453.61 C154.935,1449.43 154.495,1446.24 153.615,1444.04 C152.735,1441.83 151.451,1440.73 149.763,1440.73"/>
<path class="MeasureNumber" d="M142.045,992.295 C139.357,992.295 137.193,991.22 135.553,989.069 C133.912,986.918 133.092,984.077 133.092,980.545 C133.092,979.462 133.198,978.34 133.412,977.178 C133.625,976.017 134.092,974.699 134.81,973.225 C135.529,971.751 136.461,970.428 137.607,969.256 C138.753,968.084 140.36,967.037 142.428,966.116 C144.495,965.194 146.878,964.613 149.576,964.373 L149.654,965.014 C146.508,965.524 143.881,966.8 141.771,968.842 C139.662,970.884 138.342,973.41 137.81,976.42 C139.06,975.702 140.006,975.235 140.646,975.022 C141.287,974.808 142.05,974.702 142.935,974.702 C145.227,974.702 147.053,975.444 148.412,976.928 C149.771,978.412 150.451,980.415 150.451,982.936 C150.451,985.696 149.67,987.946 148.107,989.686 C146.545,991.425 144.524,992.295 142.045,992.295 M141.404,976.452 C139.592,976.452 138.373,976.85 137.748,977.647 C137.123,978.444 136.81,979.623 136.81,981.186 C136.81,984.259 137.318,986.678 138.334,988.444 C139.349,990.209 140.737,991.092 142.498,991.092 C143.904,991.092 144.982,990.501 145.732,989.319 C146.482,988.136 146.857,986.462 146.857,984.295 C146.857,981.795 146.383,979.863 145.435,978.498 C144.487,977.134 143.144,976.452 141.404,976.452"/>
<polyline class="BarLine" fill="none" stroke="#000000" stroke-width="4.00" stroke-linejoin="bevel" points="2812.97,1515.73 2812.97,1617.73"/>
<polyline class="BarLine" fill="none" stroke="#000000" stroke-width="12.50" stroke-linejoin="bevel" points="2829.22,1515.73 2829.22,1617.73"/>
<path class="BarLine" d="M2370.87,1558.23 C2369.76,1557.13 2369.21,1555.8 2369.21,1554.23 C2369.21,1552.67 2369.76,1551.33 2370.87,1550.23 C2371.98,1549.12 2373.32,1548.56 2374.88,1548.56 C2376.44,1548.56 2377.78,1549.12 2378.88,1550.23 C2379.98,1551.33 2380.54,1552.67 2380.54,1554.23 C2380.54,1555.8 2379.98,1557.13 2378.88,1558.23 C2377.78,1559.34 2376.44,1559.89 2374.88,1559.89 C2373.32,1559.89 2371.98,1559.34 2370.87,1558.23"/>
<path class="BarLine" d="M2370.87,1583.23 C2369.76,1582.13 2369.21,1580.8 2369.21,1579.23 C2369.21,1577.67 2369.76,1576.33 2370.87,1575.23 C2371.98,1574.12 2373.32,1573.56 2374.88,1573.56 C2376.44,1573.56 2377.78,1574.12 2378.88,1575.23 C2379.98,1576.33 2380.54,1577.67 2380.54,1579.23 C2380.54,1580.8 2379.98,1582.13 2378.88,1583.23 C2377.78,1584.34 2376.44,1584.89 2374.88,1584.89 C2373.32,1584.89 2371.98,1584.34 2370.87,1583.23"/>
<polyline class="BarLine" fill="none" stroke="#000000" stroke-width="4.00" stroke-linejoin="bevel" points="2390.62,1515.73 2390.62,1617.73"/>
<polyline class="BarLine" fill="none" stroke="#000000" stroke-width="12.50" stroke-linejoin="bevel" points="2406.87,1515.73 2406.87,1617.73"/>
<polyline class="BarLine" fill="none" stroke="#000000" stroke-width="4.00" stroke-linejoin="bevel" points="1883.2,1515.73 1883.2,1617.73"/>
<polyline class="BarLine" fill="none" stroke="#000000" stroke-width="4.00" stroke-linejoin="bevel" points="1299.27,1515.73 1299.27,1617.73"/>
<polyline class="BarLine" fill="none" stroke="#000000" stroke-width="4.00" stroke-linejoin="bevel" points="795.591,1515.73 795.591,1617.73"/>
<polyline class="BarLine" fill="none" stroke="#000000" stroke-width="12.50" stroke-linejoin="bevel" points="239.42,1515.73 239.42,1617.73"/>
<polyline class="BarLine" fill="none" stroke="#000000" stroke-width="4.00" stroke-linejoin="bevel" points="255.67,1515.73 255.67,1617.73"/>
<path class="BarLine" d="M267.412,1558.23 C266.303,1557.13 265.748,1555.8 265.748,1554.23 C265.748,1552.67 266.303,1551.33 267.412,1550.23 C268.521,1549.12 269.857,1548.56 271.42,1548.56 C272.982,1548.56 274.316,1549.12 275.42,1550.23 C276.524,1551.33 277.076,1552.67 277.076,1554.23 C277.076,1555.8 276.524,1557.13 275.42,1558.23 C274.316,1559.34 272.982,1559.89 271.42,1559.89 C269.857,1559.89 268.521,1559.34 267.412,1558.23"/>
<path class="BarLine" d="M267.412,1583.23 C266.303,1582.13 265.748,1580.8 265.748,1579.23 C265.748,1577.67 266.303,1576.33 267.412,1575.23 C268.521,1574.12 269.857,1573.56 271.42,1573.56 C272.982,1573.56 274.316,1574.12 275.42,1575.23 C276.524,1576.33 277.076,1577.67 277.076,1579.23 C277.076,1580.8 276.524,1582.13 275.42,1583.23 C274.316,1584.34 272.982,1584.89 271.42,1584.89 C269.857,1584.89 268.521,1584.34 267.412,1583.23"/>
<path class="BarLine" d="M2793.22,1083.23 C2792.11,1082.13 2791.55,1080.8 2791.55,1079.23 C2791.55,1077.67 2792.11,1076.33 2793.22,1075.23 C2794.33,1074.12 2795.66,1073.56 2797.23,1073.56 C2798.79,1073.56 2800.12,1074.12 2801.23,1075.23 C2802.33,1076.33 2802.88,1077.67 2802.88,1079.23 C2802.88,1080.8 2802.33,1082.13 2801.23,1083.23 C2800.12,1084.34 2798.79,1084.89 2797.23,1084.89 C2795.66,1084.89 2794.33,1084.34 2793.22,1083.23"/>
<path class="BarLine" d="M2793.22,1108.23 C2792.11,1107.13 2791.55,1105.8 2791.55,1104.23 C2791.55,1102.67 2792.11,1101.33 2793.22,1100.23 C2794.33,1099.12 2795.66,1098.56 2797.23,1098.56 C2798.79,1098.56 2800.12,1099.12 2801.23,1100.23 C2802.33,1101.33 2802.88,1102.67 2802.88,1104.23 C2802.88,1105.8 2802.33,1107.13 2801.23,1108.23 C2800.12,1109.34 2798.79,1109.89 2797.23,1109.89 C2795.66,1109.89 2794.33,1109.34 2793.22,1108.23"/>
<polyline class="BarLine" fill="none" stroke="#000000" stroke-width="4.00" stroke-linejoin="bevel" points="2812.97,1040.73 2812.97,1142.73"/>
<polyline class="BarLine" fill="none" stroke="#000000" stroke-width="12.50" stroke-linejoin="bevel" points="2829.22,1040.73 2829.22,1142.73"/>
<polyline class="BarLine" fill="none" stroke="#000000" stroke-width="4.00" stroke-linejoin="bevel" points="2244,1040.73 2244,1142.73"/>
<polyline class="BarLine" fill="none" stroke="#000000" stroke-width="4.00" stroke-linejoin="bevel" points="1598.53,1040.73 1598.53,1142.73"/>
<polyline class="BarLine" fill="none" stroke="#000000" stroke-width="4.00" stroke-linejoin="bevel" points="953.057,1040.73 953.057,1142.73"/>
<polyline class="BarLine" fill="none" stroke="#000000" stroke-width="12.50" stroke-linejoin="bevel" points="239.42,1040.73 239.42,1142.73"/>
<polyline class="BarLine" fill="none" stroke="#000000" stroke-width="4.00" stroke-linejoin="bevel" points="255.67,1040.73 255.67,1142.73"/>
<path class="BarLine" d="M267.412,1083.23 C266.303,1082.13 265.748,1080.8 265.748,1079.23 C265.748,1077.67 266.303,1076.33 267.412,1075.23 C268.521,1074.12 269.857,1073.56 271.42,1073.56 C272.982,1073.56 274.316,1074.12 275.42,1075.23 C276.524,1076.33 277.076,1077.67 277.076,1079.23 C277.076,1080.8 276.524,1082.13 275.42,1083.23 C274.316,1084.34 272.982,1084.89 271.42,1084.89 C269.857,1084.89 268.521,1084.34 267.412,1083.23"/>
<path class="BarLine" d="M267.412,1108.23 C266.303,1107.13 265.748,1105.8 265.748,1104.23 C265.748,1102.67 266.303,1101.33 267.412,1100.23 C268.521,1099.12 269.857,1098.56 271.42,1098.56 C272.982,1098.56 274.316,1099.12 275.42,1100.23 C276.524,1101.33 277.076,1102.67 277.076,1104.23 C277.076,1105.8 276.524,1107.13 275.42,1108.23 C274.316,1109.34 272.982,1109.89 271.42,1109.89 C269.857,1109.89 268.521,1109.34 267.412,1108.23"/>
<polyline class="BarLine" fill="none" stroke="#000000" stroke-width="4.00" stroke-linejoin="bevel" points="2821.97,565.733 2821.97,667.733"/>
<polyline class="BarLine" fill="none" stroke="#000000" stroke-width="4.00" stroke-linejoin="bevel" points="2833.47,565.733 2833.47,667.733"/>
<path class="BarLine" d="M2346.4,608.233 C2345.29,607.128 2344.74,605.795 2344.74,604.233 C2344.74,602.67 2345.29,601.334 2346.4,600.225 C2347.51,599.115 2348.85,598.561 2350.41,598.561 C2351.97,598.561 2353.3,599.115 2354.41,600.225 C2355.51,601.334 2356.06,602.67 2356.06,604.233 C2356.06,605.795 2355.51,607.128 2354.41,608.233 C2353.3,609.337 2351.97,609.889 2350.41,609.889 C2348.85,609.889 2347.51,609.337 2346.4,608.233"/>
<path class="BarLine" d="M2346.4,633.233 C2345.29,632.128 2344.74,630.795 2344.74,629.233 C2344.74,627.67 2345.29,626.334 2346.4,625.225 C2347.51,624.115 2348.85,623.561 2350.41,623.561 C2351.97,623.561 2353.3,624.115 2354.41,625.225 C2355.51,626.334 2356.06,627.67 2356.06,629.233 C2356.06,630.795 2355.51,632.128 2354.41,633.233 C2353.3,634.337 2351.97,634.889 2350.41,634.889 C2348.85,634.889 2347.51,634.337 2346.4,633.233"/>
<polyline class="BarLine" fill="none" stroke="#000000" stroke-width="4.00" stroke-linejoin="bevel" points="2366.15,565.733 2366.15,667.733"/>
<polyline class="BarLine" fill="none" stroke="#000000" stroke-width="12.50" stroke-linejoin="bevel" points="2382.4,565.733 2382.4,667.733"/>
<polyline class="BarLine" fill="none" stroke="#000000" stroke-width="4.00" stroke-linejoin="bevel" points="1868.34,565.733 1868.34,667.733"/>
<polyline class="BarLine" fill="none" stroke="#000000" stroke-width="4.00" stroke-linejoin="bevel" points="1346.86,565.733 1346.86,667.733"/>
<polyline class="BarLine" fill="none" stroke="#000000" stroke-width="4.00" stroke-linejoin="bevel" points="825.382,565.733 825.382,667.733"/>
<path class="Accidental" d="M1578.6,1547.89 C1578.6,1549.13 1577.98,1549.75 1576.75,1549.75 C1575.51,1549.75 1574.9,1549.13 1574.9,1547.89 L1574.9,1533.44 L1566.6,1536.56 L1566.6,1552.37 C1566.6,1553.61 1565.98,1554.23 1564.74,1554.23 C1563.5,1554.23 1562.88,1553.61 1562.88,1552.37 L1562.88,1537.83 L1559.76,1539 C1559.69,1539.06 1559.43,1539.09 1558.97,1539.09 C1558.45,1539.09 1558,1538.9 1557.61,1538.51 C1557.22,1538.12 1557.02,1537.66 1557.02,1537.14 L1557.02,1531.09 C1557.02,1530.11 1557.44,1529.49 1558.29,1529.23 L1562.88,1527.67 L1562.88,1511.65 L1559.76,1512.73 C1559.69,1512.8 1559.43,1512.83 1558.97,1512.83 C1558.45,1512.83 1558,1512.63 1557.61,1512.24 C1557.22,1511.85 1557.02,1511.39 1557.02,1510.87 L1557.02,1504.81 C1557.02,1503.9 1557.44,1503.32 1558.29,1503.06 L1562.88,1501.3 L1562.88,1485.58 C1562.88,1484.34 1563.5,1483.72 1564.74,1483.72 C1565.98,1483.72 1566.6,1484.34 1566.6,1485.58 L1566.6,1500.03 L1574.9,1496.9 L1574.9,1481.09 C1574.9,1479.85 1575.51,1479.23 1576.75,1479.23 C1577.98,1479.23 1578.6,1479.85 1578.6,1481.09 L1578.6,1495.64 L1581.83,1494.47 C1581.9,1494.4 1582.12,1494.37 1582.51,1494.37 C1582.96,1494.37 1583.45,1494.57 1583.97,1494.95 C1584.37,1495.35 1584.57,1495.81 1584.57,1496.33 L1584.57,1502.37 C1584.57,1503.29 1584.11,1503.91 1583.19,1504.23 L1578.6,1505.8 L1578.6,1521.81 L1581.83,1520.73 C1581.9,1520.67 1582.12,1520.64 1582.51,1520.64 C1582.96,1520.64 1583.45,1520.84 1583.97,1521.23 C1584.37,1521.62 1584.57,1522.07 1584.57,1522.59 L1584.57,1528.65 C1584.57,1529.5 1584.11,1530.08 1583.19,1530.4 L1578.6,1532.17 L1578.6,1547.89 M1574.9,1507.26 L1566.6,1510.19 L1566.6,1526.2 L1574.9,1523.28 L1574.9,1507.26 "/>
<path class="Accidental" d="M815.185,1475.12 L815.185,1482.84 C815.185,1485.58 815.315,1487.76 815.575,1489.39 C817.721,1487.57 819.252,1486.2 820.169,1485.3 C821.211,1484.25 822.252,1482.82 823.294,1480.99 C824.336,1479.16 824.857,1477.34 824.857,1475.51 C824.857,1473.69 824.466,1472.13 823.685,1470.83 C822.903,1469.52 821.862,1468.87 820.56,1468.87 C818.997,1468.87 817.695,1469.46 816.653,1470.64 C815.674,1471.94 815.185,1473.44 815.185,1475.12 M811.075,1493 L809.81,1433.53 C810.726,1433.01 811.64,1432.75 812.552,1432.75 C813.463,1432.75 814.372,1433.01 815.278,1433.53 L814.497,1468 C817.164,1465.72 820.226,1464.58 823.685,1464.58 C826.216,1464.58 828.328,1465.62 830.021,1467.7 C831.713,1469.79 832.56,1472.17 832.56,1474.84 C832.56,1476.53 832.008,1478.32 830.903,1480.22 C829.862,1481.97 828.758,1483.33 827.591,1484.31 C826.935,1484.83 825.273,1486.13 822.607,1488.22 C821.825,1488.8 820.898,1489.48 819.825,1490.26 C818.752,1491.05 818.086,1491.54 817.825,1491.73 C817.367,1491.99 816.94,1492.51 816.544,1493.3 C816.096,1493.95 815.575,1494.5 814.982,1494.95 C814.534,1495.35 813.984,1495.55 813.333,1495.55 C812.682,1495.55 812.159,1495.32 811.763,1494.86 C811.305,1494.4 811.075,1493.78 811.075,1493"/>
<path class="Accidental" d="M1906.82,1072.89 C1906.82,1074.13 1906.2,1074.75 1904.97,1074.75 C1903.74,1074.75 1903.12,1074.13 1903.12,1072.89 L1903.12,1058.44 L1894.82,1061.56 L1894.82,1077.37 C1894.82,1078.61 1894.2,1079.23 1892.96,1079.23 C1891.72,1079.23 1891.1,1078.61 1891.1,1077.37 L1891.1,1062.83 L1887.98,1064 C1887.92,1064.06 1887.66,1064.09 1887.2,1064.09 C1886.68,1064.09 1886.22,1063.9 1885.83,1063.51 C1885.44,1063.12 1885.24,1062.66 1885.24,1062.14 L1885.24,1056.09 C1885.24,1055.11 1885.67,1054.49 1886.51,1054.23 L1891.1,1052.67 L1891.1,1036.65 L1887.98,1037.73 C1887.92,1037.8 1887.66,1037.83 1887.2,1037.83 C1886.68,1037.83 1886.22,1037.63 1885.83,1037.24 C1885.44,1036.85 1885.24,1036.39 1885.24,1035.87 L1885.24,1029.81 C1885.24,1028.9 1885.67,1028.32 1886.51,1028.06 L1891.1,1026.3 L1891.1,1010.58 C1891.1,1009.34 1891.72,1008.72 1892.96,1008.72 C1894.2,1008.72 1894.82,1009.34 1894.82,1010.58 L1894.82,1025.03 L1903.12,1021.9 L1903.12,1006.09 C1903.12,1004.85 1903.74,1004.23 1904.97,1004.23 C1906.2,1004.23 1906.82,1004.85 1906.82,1006.09 L1906.82,1020.64 L1910.06,1019.47 C1910.12,1019.4 1910.34,1019.37 1910.73,1019.37 C1911.19,1019.37 1911.68,1019.57 1912.2,1019.95 C1912.59,1020.35 1912.79,1020.81 1912.79,1021.33 L1912.79,1027.37 C1912.79,1028.29 1912.33,1028.91 1911.42,1029.23 L1906.82,1030.8 L1906.82,1046.81 L1910.06,1045.73 C1910.12,1045.67 1910.34,1045.64 1910.73,1045.64 C1911.19,1045.64 1911.68,1045.84 1912.2,1046.23 C1912.59,1046.62 1912.79,1047.07 1912.79,1047.59 L1912.79,1053.65 C1912.79,1054.5 1912.33,1055.08 1911.42,1055.4 L1906.82,1057.17 L1906.82,1072.89 M1903.12,1032.26 L1894.82,1035.19 L1894.82,1051.2 L1903.12,1048.28 L1903.12,1032.26 "/>
<path class="Accidental" d="M1261.35,1072.89 C1261.35,1074.13 1260.73,1074.75 1259.5,1074.75 C1258.26,1074.75 1257.65,1074.13 1257.65,1072.89 L1257.65,1058.44 L1249.35,1061.56 L1249.35,1077.37 C1249.35,1078.61 1248.73,1079.23 1247.49,1079.23 C1246.25,1079.23 1245.63,1078.61 1245.63,1077.37 L1245.63,1062.83 L1242.5,1064 C1242.44,1064.06 1242.18,1064.09 1241.72,1064.09 C1241.2,1064.09 1240.75,1063.9 1240.36,1063.51 C1239.97,1063.12 1239.77,1062.66 1239.77,1062.14 L1239.77,1056.09 C1239.77,1055.11 1240.19,1054.49 1241.04,1054.23 L1245.63,1052.67 L1245.63,1036.65 L1242.5,1037.73 C1242.44,1037.8 1242.18,1037.83 1241.72,1037.83 C1241.2,1037.83 1240.75,1037.63 1240.36,1037.24 C1239.97,1036.85 1239.77,1036.39 1239.77,1035.87 L1239.77,1029.81 C1239.77,1028.9 1240.19,1028.32 1241.04,1028.06 L1245.63,1026.3 L1245.63,1010.58 C1245.63,1009.34 1246.25,1008.72 1247.49,1008.72 C1248.73,1008.72 1249.35,1009.34 1249.35,1010.58 L1249.35,1025.03 L1257.65,1021.9 L1257.65,1006.09 C1257.65,1004.85 1258.26,1004.23 1259.5,1004.23 C1260.73,1004.23 1261.35,1004.85 1261.35,1006.09 L1261.35,1020.64 L1264.58,1019.47 C1264.65,1019.4 1264.87,1019.37 1265.25,1019.37 C1265.71,1019.37 1266.2,1019.57 1266.72,1019.95 C1267.12,1020.35 1267.32,1020.81 1267.32,1021.33 L1267.32,1027.37 C1267.32,1028.29 1266.86,1028.91 1265.94,1029.23 L1261.35,1030.8 L1261.35,1046.81 L1264.58,1045.73 C1264.65,1045.67 1264.87,1045.64 1265.25,1045.64 C1265.71,1045.64 1266.2,1045.84 1266.72,1046.23 C1267.12,1046.62 1267.32,1047.07 1267.32,1047.59 L1267.32,1053.65 C1267.32,1054.5 1266.86,1055.08 1265.94,1055.4 L1261.35,1057.17 L1261.35,1072.89 M1257.65,1032.26 L1249.35,1035.19 L1249.35,1051.2 L1257.65,1048.28 L1257.65,1032.26 "/>
<path class="Accidental" d="M615.875,1072.89 C615.875,1074.13 615.258,1074.75 614.024,1074.75 C612.789,1074.75 612.172,1074.13 612.172,1072.89 L612.172,1058.44 L603.875,1061.56 L603.875,1077.37 C603.875,1078.61 603.255,1079.23 602.016,1079.23 C600.776,1079.23 600.156,1078.61 600.156,1077.37 L600.156,1062.83 L597.031,1064 C596.969,1064.06 596.708,1064.09 596.25,1064.09 C595.729,1064.09 595.274,1063.9 594.883,1063.51 C594.492,1063.12 594.297,1062.66 594.297,1062.14 L594.297,1056.09 C594.297,1055.11 594.719,1054.49 595.563,1054.23 L600.156,1052.67 L600.156,1036.65 L597.031,1037.73 C596.969,1037.8 596.708,1037.83 596.25,1037.83 C595.729,1037.83 595.274,1037.63 594.883,1037.24 C594.492,1036.85 594.297,1036.39 594.297,1035.87 L594.297,1029.81 C594.297,1028.9 594.719,1028.32 595.563,1028.06 L600.156,1026.3 L600.156,1010.58 C600.156,1009.34 600.776,1008.72 602.016,1008.72 C603.255,1008.72 603.875,1009.34 603.875,1010.58 L603.875,1025.03 L612.172,1021.9 L612.172,1006.09 C612.172,1004.85 612.789,1004.23 614.024,1004.23 C615.258,1004.23 615.875,1004.85 615.875,1006.09 L615.875,1020.64 L619.109,1019.47 C619.172,1019.4 619.396,1019.37 619.781,1019.37 C620.24,1019.37 620.729,1019.57 621.25,1019.95 C621.646,1020.35 621.844,1020.81 621.844,1021.33 L621.844,1027.37 C621.844,1028.29 621.386,1028.91 620.469,1029.23 L615.875,1030.8 L615.875,1046.81 L619.109,1045.73 C619.172,1045.67 619.396,1045.64 619.781,1045.64 C620.24,1045.64 620.729,1045.84 621.25,1046.23 C621.646,1046.62 621.844,1047.07 621.844,1047.59 L621.844,1053.65 C621.844,1054.5 621.386,1055.08 620.469,1055.4 L615.875,1057.17 L615.875,1072.89 M612.172,1032.26 L603.875,1035.19 L603.875,1051.2 L612.172,1048.28 L612.172,1032.26 "/>
<polyline class="LedgerLine" fill="none" stroke="#000000" stroke-width="4.00" stroke-linecap="square" stroke-linejoin="bevel" points="1744.31,1491.73 1792.22,1491.73"/>
<polyline class="LedgerLine" fill="none" stroke="#000000" stroke-width="4.00" stroke-linecap="square" stroke-linejoin="bevel" points="1062.77,1491.73 1110.68,1491.73"/>
<polyline class="LedgerLine" fill="none" stroke="#000000" stroke-width="4.00" stroke-linecap="square" stroke-linejoin="bevel" points="835.763,1491.73 883.677,1491.73"/>
<polyline class="LedgerLine" fill="none" stroke="#000000" stroke-width="4.00" stroke-linecap="square" stroke-linejoin="bevel" points="559.087,1491.73 607.002,1491.73"/>
<polyline class="LedgerLine" fill="none" stroke="#000000" stroke-width="4.00" stroke-linecap="square" stroke-linejoin="bevel" points="2090.63,1016.73 2138.54,1016.73"/>
<polyline class="LedgerLine" fill="none" stroke="#000000" stroke-width="4.00" stroke-linecap="square" stroke-linejoin="bevel" points="1445.15,1016.73 1493.07,1016.73"/>
<polyline class="LedgerLine" fill="none" stroke="#000000" stroke-width="4.00" stroke-linecap="square" stroke-linejoin="bevel" points="799.681,1016.73 847.595,1016.73"/>
<polyline class="Stem" fill="none" stroke="#000000" stroke-width="3.25" stroke-linecap="round" stroke-linejoin="bevel" points="2444.75,1508.93 2444.75,1591.73"/>
<polyline class="Stem" fill="none" stroke="#000000" stroke-width="3.25" stroke-linecap="round" stroke-linejoin="bevel" points="2257.33,1558.93 2257.33,1622.98"/>
<polyline class="Stem" fill="none" stroke="#000000" stroke-width="3.25" stroke-linecap="round" stroke-linejoin="bevel" points="2143.83,1533.93 2143.83,1610.48"/>
<polyline class="Stem" fill="none" stroke="#000000" stroke-width="3.25" stroke-linecap="round" stroke-linejoin="bevel" points="2030.33,1558.93 2030.33,1622.98"/>
<polyline class="Stem" fill="none" stroke="#000000" stroke-width="3.25" stroke-linecap="round" stroke-linejoin="bevel" points="1916.83,1508.93 1916.83,1597.98"/>
<polyline class="Stem" fill="none" stroke="#000000" stroke-width="3.25" stroke-linecap="round" stroke-linejoin="bevel" points="1753.43,1496.43 1753.43,1566.73"/>
<polyline class="Stem" fill="none" stroke="#000000" stroke-width="3.25" stroke-linecap="round" stroke-linejoin="bevel" points="1672.56,1508.93 1672.56,1579.23"/>
<polyline class="Stem" fill="none" stroke="#000000" stroke-width="3.25" stroke-linecap="round" stroke-linejoin="bevel" points="1591.69,1521.43 1591.69,1591.73"/>
<polyline class="Stem" fill="none" stroke="#000000" stroke-width="3.25" stroke-linecap="round" stroke-linejoin="bevel" points="1462.29,1558.93 1462.29,1622.98"/>
<polyline class="Stem" fill="none" stroke="#000000" stroke-width="3.25" stroke-linecap="round" stroke-linejoin="bevel" points="1332.89,1508.93 1332.89,1597.98"/>
<polyline class="Stem" fill="none" stroke="#000000" stroke-width="3.25" stroke-linecap="round" stroke-linejoin="bevel" points="1185.39,1558.93 1185.39,1622.98"/>
<polyline class="Stem" fill="none" stroke="#000000" stroke-width="3.25" stroke-linecap="round" stroke-linejoin="bevel" points="1071.89,1496.43 1071.89,1597.98"/>
<polyline class="Stem" fill="none" stroke="#000000" stroke-width="3.25" stroke-linecap="round" stroke-linejoin="bevel" points="958.39,1558.93 958.39,1622.98"/>
<polyline class="Stem" fill="none" stroke="#000000" stroke-width="3.25" stroke-linecap="round" stroke-linejoin="bevel" points="844.888,1483.93 844.888,1597.98"/>
<polyline class="Stem" fill="none" stroke="#000000" stroke-width="3.25" stroke-linecap="round" stroke-linejoin="bevel" points="681.714,1558.93 681.714,1622.98"/>
<polyline class="Stem" fill="none" stroke="#000000" stroke-width="3.25" stroke-linecap="round" stroke-linejoin="bevel" points="568.212,1496.43 568.212,1597.98"/>
<polyline class="Stem" fill="none" stroke="#000000" stroke-width="3.25" stroke-linecap="round" stroke-linejoin="bevel" points="454.711,1558.93 454.711,1622.98"/>
<polyline class="Stem" fill="none" stroke="#000000" stroke-width="3.25" stroke-linecap="round" stroke-linejoin="bevel" points="341.209,1508.93 341.209,1597.98"/>
<polyline class="Stem" fill="none" stroke="#000000" stroke-width="3.25" stroke-linecap="round" stroke-linejoin="bevel" points="2664.29,1083.93 2664.29,1147.98"/>
<polyline class="Stem" fill="none" stroke="#000000" stroke-width="3.25" stroke-linecap="round" stroke-linejoin="bevel" points="2535.4,1058.93 2535.4,1135.48"/>
<polyline class="Stem" fill="none" stroke="#000000" stroke-width="3.25" stroke-linecap="round" stroke-linejoin="bevel" points="2406.52,1083.93 2406.52,1147.98"/>
<polyline class="Stem" fill="none" stroke="#000000" stroke-width="3.25" stroke-linecap="round" stroke-linejoin="bevel" points="2277.63,1033.93 2277.63,1122.98"/>
<polyline class="Stem" fill="none" stroke="#000000" stroke-width="3.25" stroke-linecap="round" stroke-linejoin="bevel" points="2099.75,1021.43 2099.75,1091.73"/>
<polyline class="Stem" fill="none" stroke="#000000" stroke-width="3.25" stroke-linecap="round" stroke-linejoin="bevel" points="2009.83,1033.93 2009.83,1104.23"/>
<polyline class="Stem" fill="none" stroke="#000000" stroke-width="3.25" stroke-linecap="round" stroke-linejoin="bevel" points="1919.91,1046.43 1919.91,1116.73"/>
<polyline class="Stem" fill="none" stroke="#000000" stroke-width="3.25" stroke-linecap="round" stroke-linejoin="bevel" points="1776.03,1083.93 1776.03,1147.98"/>
<polyline class="Stem" fill="none" stroke="#000000" stroke-width="3.25" stroke-linecap="round" stroke-linejoin="bevel" points="1632.16,1033.93 1632.16,1122.98"/>
<polyline class="Stem" fill="none" stroke="#000000" stroke-width="3.25" stroke-linecap="round" stroke-linejoin="bevel" points="1454.28,1021.43 1454.28,1091.73"/>
<polyline class="Stem" fill="none" stroke="#000000" stroke-width="3.25" stroke-linecap="round" stroke-linejoin="bevel" points="1364.36,1033.93 1364.36,1104.23"/>
<polyline class="Stem" fill="none" stroke="#000000" stroke-width="3.25" stroke-linecap="round" stroke-linejoin="bevel" points="1274.43,1046.43 1274.43,1116.73"/>
<polyline class="Stem" fill="none" stroke="#000000" stroke-width="3.25" stroke-linecap="round" stroke-linejoin="bevel" points="1130.56,1083.93 1130.56,1147.98"/>
<polyline class="Stem" fill="none" stroke="#000000" stroke-width="3.25" stroke-linecap="round" stroke-linejoin="bevel" points="986.682,1033.93 986.682,1122.98"/>
<polyline class="Stem" fill="none" stroke="#000000" stroke-width="3.25" stroke-linecap="round" stroke-linejoin="bevel" points="808.806,1021.43 808.806,1091.73"/>
<polyline class="Stem" fill="none" stroke="#000000" stroke-width="3.25" stroke-linecap="round" stroke-linejoin="bevel" points="718.884,1033.93 718.884,1104.23"/>
<polyline class="Stem" fill="none" stroke="#000000" stroke-width="3.25" stroke-linecap="round" stroke-linejoin="bevel" points="628.961,1046.43 628.961,1116.73"/>
<polyline class="Stem" fill="none" stroke="#000000" stroke-width="3.25" stroke-linecap="round" stroke-linejoin="bevel" points="485.085,1083.93 485.085,1147.98"/>
<polyline class="Stem" fill="none" stroke="#000000" stroke-width="3.25" stroke-linecap="round" stroke-linejoin="bevel" points="341.209,1033.93 341.209,1122.98"/>
<polyline class="Stem" fill="none" stroke="#000000" stroke-width="3.25" stroke-linecap="round" stroke-linejoin="bevel" points="2643.23,608.928 2643.23,685.483"/>
<polyline class="Stem" fill="none" stroke="#000000" stroke-width="3.25" stroke-linecap="round" stroke-linejoin="bevel" points="2531.75,608.928 2531.75,672.983"/>
<polyline class="Stem" fill="none" stroke="#000000" stroke-width="3.25" stroke-linecap="round" stroke-linejoin="bevel" points="2420.28,583.928 2420.28,660.483"/>
<polyline class="Stem" fill="none" stroke="#000000" stroke-width="3.25" stroke-linecap="round" stroke-linejoin="bevel" points="2235.26,608.928 2235.26,672.983"/>
<polyline class="Stem" fill="none" stroke="#000000" stroke-width="3.25" stroke-linecap="round" stroke-linejoin="bevel" points="2124.16,558.928 2124.16,647.983"/>
<polyline class="Stem" fill="none" stroke="#000000" stroke-width="3.25" stroke-linecap="round" stroke-linejoin="bevel" points="2013.06,608.928 2013.06,672.983"/>
<polyline class="Stem" fill="none" stroke="#000000" stroke-width="3.25" stroke-linecap="round" stroke-linejoin="bevel" points="1901.96,583.928 1901.96,660.483"/>
<polyline class="Stem" fill="none" stroke="#000000" stroke-width="3.25" stroke-linecap="round" stroke-linejoin="bevel" points="1753.26,571.428 1753.26,641.733"/>
<polyline class="Stem" fill="none" stroke="#000000" stroke-width="3.25" stroke-linecap="round" stroke-linejoin="bevel" points="1681.58,583.928 1681.58,654.233"/>
<polyline class="Stem" fill="none" stroke="#000000" stroke-width="3.25" stroke-linecap="round" stroke-linejoin="bevel" points="1609.89,596.428 1609.89,666.733"/>
<polyline class="Stem" fill="none" stroke="#000000" stroke-width="3.25" stroke-linecap="round" stroke-linejoin="bevel" points="1495.19,608.928 1495.19,672.983"/>
<polyline class="Stem" fill="none" stroke="#000000" stroke-width="3.25" stroke-linecap="round" stroke-linejoin="bevel" points="1380.49,583.928 1380.49,660.483"/>
<polyline class="Stem" fill="none" stroke="#000000" stroke-width="3.25" stroke-linecap="round" stroke-linejoin="bevel" points="1231.78,571.428 1231.78,641.733"/>
<polyline class="Stem" fill="none" stroke="#000000" stroke-width="3.25" stroke-linecap="round" stroke-linejoin="bevel" points="1160.1,583.928 1160.1,654.233"/>
<polyline class="Stem" fill="none" stroke="#000000" stroke-width="3.25" stroke-linecap="round" stroke-linejoin="bevel" points="1088.41,596.428 1088.41,666.733"/>
<polyline class="Stem" fill="none" stroke="#000000" stroke-width="3.25" stroke-linecap="round" stroke-linejoin="bevel" points="973.708,608.928 973.708,672.983"/>
<polyline class="Stem" fill="none" stroke="#000000" stroke-width="3.25" stroke-linecap="round" stroke-linejoin="bevel" points="859.007,583.928 859.007,660.483"/>
<polyline class="Stem" fill="none" stroke="#000000" stroke-width="3.25" stroke-linecap="round" stroke-linejoin="bevel" points="710.307,571.428 710.307,641.733"/>
<polyline class="Stem" fill="none" stroke="#000000" stroke-width="3.25" stroke-linecap="round" stroke-linejoin="bevel" points="638.619,583.928 638.619,654.233"/>
<polyline class="Stem" fill="none" stroke="#000000" stroke-width="3.25" stroke-linecap="round" stroke-linejoin="bevel" points="566.931,596.428 566.931,666.733"/>
<polyline class="Stem" fill="none" stroke="#000000" stroke-width="3.25" stroke-linecap="round" stroke-linejoin="bevel" points="452.23,608.928 452.23,672.983"/>
<polyline class="Stem" fill="none" stroke="#000000" stroke-width="3.25" stroke-linecap="round" stroke-linejoin="bevel" points="337.529,583.928 337.529,660.483"/>
<path class="Note" d="M2465.09,1490.47 C2468.22,1490.47 2470.86,1491.28 2473.01,1492.9 C2475.02,1494.67 2476.03,1496.88 2476.03,1499.55 C2476.03,1504.04 2473.72,1508.23 2469.11,1512.14 C2464.42,1516.05 2459.4,1518 2454.06,1518 C2450.93,1518 2448.3,1517.19 2446.15,1515.56 C2444.13,1513.8 2443.12,1511.59 2443.12,1508.92 C2443.12,1504.43 2445.47,1500.23 2450.15,1496.33 C2454.72,1492.42 2459.69,1490.47 2465.09,1490.47"/>
<path class="Note" d="M2277.67,1540.47 C2280.8,1540.47 2283.44,1541.28 2285.6,1542.91 C2287.61,1544.67 2288.61,1546.88 2288.61,1549.55 C2288.61,1554.04 2286.3,1558.23 2281.69,1562.14 C2277,1566.05 2271.99,1568 2266.64,1568 C2263.52,1568 2260.88,1567.19 2258.74,1565.56 C2256.72,1563.8 2255.71,1561.59 2255.71,1558.92 C2255.71,1554.43 2258.05,1550.23 2262.74,1546.33 C2267.3,1542.42 2272.28,1540.47 2277.67,1540.47"/>
<path class="Note" d="M2164.17,1515.47 C2167.3,1515.47 2169.94,1516.28 2172.09,1517.9 C2174.11,1519.67 2175.11,1521.88 2175.11,1524.55 C2175.11,1529.04 2172.8,1533.23 2168.19,1537.14 C2163.5,1541.05 2158.49,1543 2153.14,1543 C2150.02,1543 2147.38,1542.19 2145.24,1540.56 C2143.21,1538.8 2142.2,1536.59 2142.2,1533.92 C2142.2,1529.43 2144.55,1525.23 2149.24,1521.33 C2153.8,1517.42 2158.78,1515.47 2164.17,1515.47"/>
<path class="Note" d="M2050.67,1540.47 C2053.8,1540.47 2056.44,1541.28 2058.59,1542.91 C2060.6,1544.67 2061.61,1546.88 2061.61,1549.55 C2061.61,1554.04 2059.3,1558.23 2054.69,1562.14 C2050,1566.05 2044.98,1568 2039.64,1568 C2036.51,1568 2033.88,1567.19 2031.73,1565.56 C2029.71,1563.8 2028.7,1561.59 2028.7,1558.92 C2028.7,1554.43 2031.05,1550.23 2035.73,1546.33 C2040.3,1542.42 2045.28,1540.47 2050.67,1540.47"/>
<path class="Note" d="M1937.17,1490.47 C1940.29,1490.47 1942.93,1491.28 1945.09,1492.9 C1947.1,1494.67 1948.11,1496.88 1948.11,1499.55 C1948.11,1504.04 1945.8,1508.23 1941.18,1512.14 C1936.5,1516.05 1931.48,1518 1926.14,1518 C1923.01,1518 1920.38,1517.19 1918.23,1515.56 C1916.21,1513.8 1915.2,1511.59 1915.2,1508.92 C1915.2,1504.43 1917.54,1500.23 1922.23,1496.33 C1926.79,1492.42 1931.77,1490.47 1937.17,1490.47"/>
<path class="Note" d="M1773.77,1477.97 C1776.9,1477.97 1779.54,1478.78 1781.7,1480.4 C1783.71,1482.17 1784.71,1484.38 1784.71,1487.05 C1784.71,1491.54 1782.4,1495.73 1777.79,1499.64 C1773.1,1503.55 1768.09,1505.5 1762.74,1505.5 C1759.62,1505.5 1756.98,1504.69 1754.84,1503.06 C1752.82,1501.3 1751.81,1499.09 1751.81,1496.42 C1751.81,1491.93 1754.15,1487.73 1758.84,1483.83 C1763.4,1479.92 1768.38,1477.97 1773.77,1477.97"/>
<path class="Note" d="M1692.9,1490.47 C1696.03,1490.47 1698.67,1491.28 1700.82,1492.9 C1702.83,1494.67 1703.84,1496.88 1703.84,1499.55 C1703.84,1504.04 1701.53,1508.23 1696.92,1512.14 C1692.23,1516.05 1687.21,1518 1681.87,1518 C1678.75,1518 1676.11,1517.19 1673.96,1515.56 C1671.94,1513.8 1670.93,1511.59 1670.93,1508.92 C1670.93,1504.43 1673.28,1500.23 1677.96,1496.33 C1682.53,1492.42 1687.51,1490.47 1692.9,1490.47"/>
<path class="Note" d="M1612.03,1502.97 C1615.15,1502.97 1617.8,1503.78 1619.95,1505.4 C1621.96,1507.17 1622.97,1509.38 1622.97,1512.05 C1622.97,1516.54 1620.66,1520.73 1616.05,1524.64 C1611.36,1528.55 1606.34,1530.5 1601,1530.5 C1597.87,1530.5 1595.24,1529.69 1593.09,1528.06 C1591.07,1526.3 1590.06,1524.09 1590.06,1521.42 C1590.06,1516.93 1592.4,1512.73 1597.09,1508.83 C1601.65,1504.92 1606.63,1502.97 1612.03,1502.97"/>
<path class="Note" d="M1482.63,1540.47 C1485.76,1540.47 1488.4,1541.28 1490.56,1542.91 C1492.57,1544.67 1493.57,1546.88 1493.57,1549.55 C1493.57,1554.04 1491.26,1558.23 1486.65,1562.14 C1481.96,1566.05 1476.95,1568 1471.6,1568 C1468.48,1568 1465.84,1567.19 1463.7,1565.56 C1461.68,1563.8 1460.67,1561.59 1460.67,1558.92 C1460.67,1554.43 1463.01,1550.23 1467.7,1546.33 C1472.26,1542.42 1477.24,1540.47 1482.63,1540.47"/>
<path class="Note" d="M1353.24,1490.47 C1356.36,1490.47 1359,1491.28 1361.16,1492.9 C1363.17,1494.67 1364.18,1496.88 1364.18,1499.55 C1364.18,1504.04 1361.87,1508.23 1357.25,1512.14 C1352.57,1516.05 1347.55,1518 1342.21,1518 C1339.08,1518 1336.45,1517.19 1334.3,1515.56 C1332.28,1513.8 1331.27,1511.59 1331.27,1508.92 C1331.27,1504.43 1333.61,1500.23 1338.3,1496.33 C1342.86,1492.42 1347.84,1490.47 1353.24,1490.47"/>
<path class="Note" d="M1205.74,1540.47 C1208.86,1540.47 1211.5,1541.28 1213.66,1542.91 C1215.67,1544.67 1216.67,1546.88 1216.67,1549.55 C1216.67,1554.04 1214.37,1558.23 1209.75,1562.14 C1205.07,1566.05 1200.05,1568 1194.71,1568 C1191.58,1568 1188.95,1567.19 1186.8,1565.56 C1184.78,1563.8 1183.77,1561.59 1183.77,1558.92 C1183.77,1554.43 1186.11,1550.23 1190.8,1546.33 C1195.36,1542.42 1200.34,1540.47 1205.74,1540.47"/>
<path class="Note" d="M1092.24,1477.97 C1095.36,1477.97 1098,1478.78 1100.16,1480.4 C1102.17,1482.17 1103.17,1484.38 1103.17,1487.05 C1103.17,1491.54 1100.87,1495.73 1096.25,1499.64 C1091.56,1503.55 1086.55,1505.5 1081.2,1505.5 C1078.08,1505.5 1075.44,1504.69 1073.3,1503.06 C1071.28,1501.3 1070.27,1499.09 1070.27,1496.42 C1070.27,1491.93 1072.61,1487.73 1077.3,1483.83 C1081.86,1479.92 1086.84,1477.97 1092.24,1477.97"/>
<path class="Note" d="M978.733,1540.47 C981.858,1540.47 984.499,1541.28 986.655,1542.91 C988.666,1544.67 989.671,1546.88 989.671,1549.55 C989.671,1554.04 987.364,1558.23 982.749,1562.14 C978.062,1566.05 973.046,1568 967.702,1568 C964.577,1568 961.942,1567.19 959.796,1565.56 C957.775,1563.8 956.765,1561.59 956.765,1558.92 C956.765,1554.43 959.108,1550.23 963.796,1546.33 C968.358,1542.42 973.338,1540.47 978.733,1540.47"/>
<path class="Note" d="M865.232,1465.47 C868.357,1465.47 870.997,1466.28 873.154,1467.9 C875.164,1469.67 876.169,1471.88 876.169,1474.55 C876.169,1479.04 873.862,1483.23 869.247,1487.14 C864.56,1491.05 859.544,1493 854.2,1493 C851.075,1493 848.44,1492.19 846.294,1490.56 C844.273,1488.8 843.263,1486.59 843.263,1483.92 C843.263,1479.43 845.607,1475.23 850.294,1471.33 C854.857,1467.42 859.836,1465.47 865.232,1465.47"/>
<path class="Note" d="M702.058,1540.47 C705.183,1540.47 707.824,1541.28 709.98,1542.91 C711.99,1544.67 712.995,1546.88 712.995,1549.55 C712.995,1554.04 710.688,1558.23 706.074,1562.14 C701.386,1566.05 696.37,1568 691.027,1568 C687.902,1568 685.266,1567.19 683.12,1565.56 C681.1,1563.8 680.089,1561.59 680.089,1558.92 C680.089,1554.43 682.433,1550.23 687.12,1546.33 C691.683,1542.42 696.662,1540.47 702.058,1540.47"/>
<path class="Note" d="M588.556,1477.97 C591.681,1477.97 594.322,1478.78 596.478,1480.4 C598.488,1482.17 599.494,1484.38 599.494,1487.05 C599.494,1491.54 597.186,1495.73 592.572,1499.64 C587.884,1503.55 582.869,1505.5 577.525,1505.5 C574.4,1505.5 571.765,1504.69 569.619,1503.06 C567.598,1501.3 566.587,1499.09 566.587,1496.42 C566.587,1491.93 568.931,1487.73 573.619,1483.83 C578.181,1479.92 583.16,1477.97 588.556,1477.97"/>
<path class="Note" d="M475.054,1540.47 C478.179,1540.47 480.82,1541.28 482.976,1542.91 C484.987,1544.67 485.992,1546.88 485.992,1549.55 C485.992,1554.04 483.685,1558.23 479.07,1562.14 C474.383,1566.05 469.367,1568 464.023,1568 C460.898,1568 458.263,1567.19 456.117,1565.56 C454.096,1563.8 453.086,1561.59 453.086,1558.92 C453.086,1554.43 455.429,1550.23 460.117,1546.33 C464.679,1542.42 469.659,1540.47 475.054,1540.47"/>
<path class="Note" d="M361.553,1490.47 C364.678,1490.47 367.318,1491.28 369.475,1492.9 C371.485,1494.67 372.49,1496.88 372.49,1499.55 C372.49,1504.04 370.183,1508.23 365.568,1512.14 C360.881,1516.05 355.865,1518 350.521,1518 C347.396,1518 344.761,1517.19 342.615,1515.56 C340.594,1513.8 339.584,1511.59 339.584,1508.92 C339.584,1504.43 341.928,1500.23 346.615,1496.33 C351.178,1492.42 356.157,1490.47 361.553,1490.47"/>
<path class="Note" d="M2684.63,1065.47 C2687.76,1065.47 2690.4,1066.28 2692.56,1067.9 C2694.57,1069.67 2695.57,1071.88 2695.57,1074.55 C2695.57,1079.03 2693.27,1083.23 2688.65,1087.14 C2683.96,1091.05 2678.95,1093 2673.6,1093 C2670.48,1093 2667.84,1092.19 2665.7,1090.56 C2663.68,1088.8 2662.67,1086.59 2662.67,1083.92 C2662.67,1079.43 2665.01,1075.23 2669.7,1071.33 C2674.26,1067.42 2679.24,1065.47 2684.63,1065.47"/>
<path class="Note" d="M2555.75,1040.47 C2558.87,1040.47 2561.51,1041.28 2563.67,1042.9 C2565.68,1044.67 2566.69,1046.88 2566.69,1049.55 C2566.69,1054.03 2564.38,1058.23 2559.76,1062.14 C2555.08,1066.05 2550.06,1068 2544.72,1068 C2541.59,1068 2538.96,1067.19 2536.81,1065.56 C2534.79,1063.8 2533.78,1061.59 2533.78,1058.92 C2533.78,1054.43 2536.12,1050.23 2540.81,1046.33 C2545.37,1042.42 2550.35,1040.47 2555.75,1040.47"/>
<path class="Note" d="M2426.86,1065.47 C2429.99,1065.47 2432.63,1066.28 2434.78,1067.9 C2436.79,1069.67 2437.8,1071.88 2437.8,1074.55 C2437.8,1079.03 2435.49,1083.23 2430.88,1087.14 C2426.19,1091.05 2421.17,1093 2415.83,1093 C2412.7,1093 2410.07,1092.19 2407.92,1090.56 C2405.9,1088.8 2404.89,1086.59 2404.89,1083.92 C2404.89,1079.43 2407.24,1075.23 2411.92,1071.33 C2416.49,1067.42 2421.46,1065.47 2426.86,1065.47"/>
<path class="Note" d="M2297.97,1015.47 C2301.1,1015.47 2303.74,1016.28 2305.89,1017.9 C2307.9,1019.67 2308.91,1021.88 2308.91,1024.55 C2308.91,1029.03 2306.6,1033.23 2301.99,1037.14 C2297.3,1041.05 2292.29,1043 2286.94,1043 C2283.82,1043 2281.18,1042.19 2279.04,1040.56 C2277.01,1038.8 2276,1036.59 2276,1033.92 C2276,1029.43 2278.35,1025.23 2283.04,1021.33 C2287.6,1017.42 2292.58,1015.47 2297.97,1015.47"/>
<path class="Note" d="M2120.1,1002.97 C2123.22,1002.97 2125.86,1003.78 2128.02,1005.4 C2130.03,1007.17 2131.03,1009.38 2131.03,1012.05 C2131.03,1016.53 2128.73,1020.73 2124.11,1024.64 C2119.42,1028.55 2114.41,1030.5 2109.07,1030.5 C2105.94,1030.5 2103.3,1029.69 2101.16,1028.06 C2099.14,1026.3 2098.13,1024.09 2098.13,1021.42 C2098.13,1016.93 2100.47,1012.73 2105.16,1008.83 C2109.72,1004.92 2114.7,1002.97 2120.1,1002.97"/>
<path class="Note" d="M2030.17,1015.47 C2033.3,1015.47 2035.94,1016.28 2038.1,1017.9 C2040.11,1019.67 2041.11,1021.88 2041.11,1024.55 C2041.11,1029.03 2038.8,1033.23 2034.19,1037.14 C2029.5,1041.05 2024.49,1043 2019.14,1043 C2016.02,1043 2013.38,1042.19 2011.24,1040.56 C2009.22,1038.8 2008.21,1036.59 2008.21,1033.92 C2008.21,1029.43 2010.55,1025.23 2015.24,1021.33 C2019.8,1017.42 2024.78,1015.47 2030.17,1015.47"/>
<path class="Note" d="M1940.25,1027.97 C1943.38,1027.97 1946.02,1028.78 1948.17,1030.4 C1950.18,1032.17 1951.19,1034.38 1951.19,1037.05 C1951.19,1041.53 1948.88,1045.73 1944.27,1049.64 C1939.58,1053.55 1934.56,1055.5 1929.22,1055.5 C1926.1,1055.5 1923.46,1054.69 1921.31,1053.06 C1919.29,1051.3 1918.28,1049.09 1918.28,1046.42 C1918.28,1041.93 1920.63,1037.73 1925.31,1033.83 C1929.88,1029.92 1934.86,1027.97 1940.25,1027.97"/>
<path class="Note" d="M1796.38,1065.47 C1799.5,1065.47 1802.14,1066.28 1804.3,1067.9 C1806.31,1069.67 1807.31,1071.88 1807.31,1074.55 C1807.31,1079.03 1805.01,1083.23 1800.39,1087.14 C1795.7,1091.05 1790.69,1093 1785.34,1093 C1782.22,1093 1779.58,1092.19 1777.44,1090.56 C1775.42,1088.8 1774.41,1086.59 1774.41,1083.92 C1774.41,1079.43 1776.75,1075.23 1781.44,1071.33 C1786,1067.42 1790.98,1065.47 1796.38,1065.47"/>
<path class="Note" d="M1652.5,1015.47 C1655.62,1015.47 1658.26,1016.28 1660.42,1017.9 C1662.43,1019.67 1663.44,1021.88 1663.44,1024.55 C1663.44,1029.03 1661.13,1033.23 1656.51,1037.14 C1651.83,1041.05 1646.81,1043 1641.47,1043 C1638.34,1043 1635.71,1042.19 1633.56,1040.56 C1631.54,1038.8 1630.53,1036.59 1630.53,1033.92 C1630.53,1029.43 1632.87,1025.23 1637.56,1021.33 C1642.12,1017.42 1647.1,1015.47 1652.5,1015.47"/>
<path class="Note" d="M1474.62,1002.97 C1477.75,1002.97 1480.39,1003.78 1482.55,1005.4 C1484.56,1007.17 1485.56,1009.38 1485.56,1012.05 C1485.56,1016.53 1483.25,1020.73 1478.64,1024.64 C1473.95,1028.55 1468.94,1030.5 1463.59,1030.5 C1460.47,1030.5 1457.83,1029.69 1455.69,1028.06 C1453.66,1026.3 1452.65,1024.09 1452.65,1021.42 C1452.65,1016.93 1455,1012.73 1459.69,1008.83 C1464.25,1004.92 1469.23,1002.97 1474.62,1002.97"/>
<path class="Note" d="M1384.7,1015.47 C1387.83,1015.47 1390.47,1016.28 1392.62,1017.9 C1394.63,1019.67 1395.64,1021.88 1395.64,1024.55 C1395.64,1029.03 1393.33,1033.23 1388.72,1037.14 C1384.03,1041.05 1379.01,1043 1373.67,1043 C1370.54,1043 1367.91,1042.19 1365.76,1040.56 C1363.74,1038.8 1362.73,1036.59 1362.73,1033.92 C1362.73,1029.43 1365.08,1025.23 1369.76,1021.33 C1374.33,1017.42 1379.3,1015.47 1384.7,1015.47"/>
<path class="Note" d="M1294.78,1027.97 C1297.9,1027.97 1300.54,1028.78 1302.7,1030.4 C1304.71,1032.17 1305.72,1034.38 1305.72,1037.05 C1305.72,1041.53 1303.41,1045.73 1298.79,1049.64 C1294.11,1053.55 1289.09,1055.5 1283.75,1055.5 C1280.62,1055.5 1277.99,1054.69 1275.84,1053.06 C1273.82,1051.3 1272.81,1049.09 1272.81,1046.42 C1272.81,1041.93 1275.15,1037.73 1279.84,1033.83 C1284.4,1029.92 1289.38,1027.97 1294.78,1027.97"/>
<path class="Note" d="M1150.9,1065.47 C1154.03,1065.47 1156.67,1066.28 1158.82,1067.9 C1160.83,1069.67 1161.84,1071.88 1161.84,1074.55 C1161.84,1079.03 1159.53,1083.23 1154.92,1087.14 C1150.23,1091.05 1145.21,1093 1139.87,1093 C1136.75,1093 1134.11,1092.19 1131.96,1090.56 C1129.94,1088.8 1128.93,1086.59 1128.93,1083.92 C1128.93,1079.43 1131.28,1075.23 1135.96,1071.33 C1140.53,1067.42 1145.51,1065.47 1150.9,1065.47"/>
<path class="Note" d="M1007.03,1015.47 C1010.15,1015.47 1012.79,1016.28 1014.95,1017.9 C1016.96,1019.67 1017.96,1021.88 1017.96,1024.55 C1017.96,1029.03 1015.66,1033.23 1011.04,1037.14 C1006.35,1041.05 1001.34,1043 995.995,1043 C992.87,1043 990.234,1042.19 988.088,1040.56 C986.068,1038.8 985.057,1036.59 985.057,1033.92 C985.057,1029.43 987.401,1025.23 992.088,1021.33 C996.651,1017.42 1001.63,1015.47 1007.03,1015.47"/>
<path class="Note" d="M829.15,1002.97 C832.275,1002.97 834.916,1003.78 837.072,1005.4 C839.082,1007.17 840.087,1009.38 840.087,1012.05 C840.087,1016.53 837.78,1020.73 833.166,1024.64 C828.478,1028.55 823.462,1030.5 818.119,1030.5 C814.994,1030.5 812.358,1029.69 810.212,1028.06 C808.192,1026.3 807.181,1024.09 807.181,1021.42 C807.181,1016.93 809.525,1012.73 814.212,1008.83 C818.775,1004.92 823.754,1002.97 829.15,1002.97"/>
<path class="Note" d="M739.227,1015.47 C742.352,1015.47 744.993,1016.28 747.149,1017.9 C749.16,1019.67 750.165,1021.88 750.165,1024.55 C750.165,1029.03 747.858,1033.23 743.243,1037.14 C738.555,1041.05 733.54,1043 728.196,1043 C725.071,1043 722.436,1042.19 720.29,1040.56 C718.269,1038.8 717.259,1036.59 717.259,1033.92 C717.259,1029.43 719.602,1025.23 724.29,1021.33 C728.852,1017.42 733.832,1015.47 739.227,1015.47"/>
<path class="Note" d="M649.305,1027.97 C652.43,1027.97 655.07,1028.78 657.227,1030.4 C659.237,1032.17 660.242,1034.38 660.242,1037.05 C660.242,1041.53 657.935,1045.73 653.32,1049.64 C648.633,1053.55 643.617,1055.5 638.274,1055.5 C635.149,1055.5 632.513,1054.69 630.367,1053.06 C628.346,1051.3 627.336,1049.09 627.336,1046.42 C627.336,1041.93 629.68,1037.73 634.367,1033.83 C638.93,1029.92 643.909,1027.97 649.305,1027.97"/>
<path class="Note" d="M505.429,1065.47 C508.554,1065.47 511.194,1066.28 513.351,1067.9 C515.361,1069.67 516.366,1071.88 516.366,1074.55 C516.366,1079.03 514.059,1083.23 509.444,1087.14 C504.757,1091.05 499.741,1093 494.398,1093 C491.273,1093 488.637,1092.19 486.491,1090.56 C484.47,1088.8 483.46,1086.59 483.46,1083.92 C483.46,1079.43 485.804,1075.23 490.491,1071.33 C495.054,1067.42 500.033,1065.47 505.429,1065.47"/>
<path class="Note" d="M361.553,1015.47 C364.678,1015.47 367.318,1016.28 369.475,1017.9 C371.485,1019.67 372.49,1021.88 372.49,1024.55 C372.49,1029.03 370.183,1033.23 365.568,1037.14 C360.881,1041.05 355.865,1043 350.521,1043 C347.396,1043 344.761,1042.19 342.615,1040.56 C340.594,1038.8 339.584,1036.59 339.584,1033.92 C339.584,1029.43 341.928,1025.23 346.615,1021.33 C351.178,1017.42 356.157,1015.47 361.553,1015.47"/>
<path class="Note" d="M2663.57,590.467 C2666.7,590.467 2669.34,591.279 2671.5,592.904 C2673.51,594.665 2674.51,596.878 2674.51,599.545 C2674.51,604.035 2672.2,608.233 2667.59,612.139 C2662.9,616.045 2657.89,617.998 2652.54,617.998 C2649.42,617.998 2646.78,617.186 2644.64,615.561 C2642.61,613.8 2641.6,611.587 2641.6,608.92 C2641.6,604.43 2643.95,600.233 2648.64,596.326 C2653.2,592.42 2658.18,590.467 2663.57,590.467"/>
<path class="Note" d="M2552.1,590.467 C2555.22,590.467 2557.86,591.279 2560.02,592.904 C2562.03,594.665 2563.03,596.878 2563.03,599.545 C2563.03,604.035 2560.73,608.233 2556.11,612.139 C2551.42,616.045 2546.41,617.998 2541.07,617.998 C2537.94,617.998 2535.3,617.186 2533.16,615.561 C2531.14,613.8 2530.13,611.587 2530.13,608.92 C2530.13,604.43 2532.47,600.233 2537.16,596.326 C2541.72,592.42 2546.7,590.467 2552.1,590.467"/>
<path class="Note" d="M2440.62,565.467 C2443.74,565.467 2446.38,566.279 2448.54,567.904 C2450.55,569.665 2451.56,571.878 2451.56,574.545 C2451.56,579.035 2449.25,583.233 2444.63,587.139 C2439.95,591.045 2434.93,592.998 2429.59,592.998 C2426.46,592.998 2423.83,592.186 2421.68,590.561 C2419.66,588.8 2418.65,586.587 2418.65,583.92 C2418.65,579.43 2420.99,575.233 2425.68,571.326 C2430.24,567.42 2435.22,565.467 2440.62,565.467"/>
<path class="Note" d="M2255.61,590.467 C2258.73,590.467 2261.37,591.279 2263.53,592.904 C2265.54,594.665 2266.54,596.878 2266.54,599.545 C2266.54,604.035 2264.24,608.233 2259.62,612.139 C2254.93,616.045 2249.92,617.998 2244.57,617.998 C2241.45,617.998 2238.81,617.186 2236.67,615.561 C2234.65,613.8 2233.64,611.587 2233.64,608.92 C2233.64,604.43 2235.98,600.233 2240.67,596.326 C2245.23,592.42 2250.21,590.467 2255.61,590.467"/>
<path class="Note" d="M2144.51,540.467 C2147.63,540.467 2150.27,541.279 2152.43,542.904 C2154.44,544.665 2155.44,546.878 2155.44,549.545 C2155.44,554.035 2153.14,558.233 2148.52,562.139 C2143.83,566.045 2138.82,567.998 2133.48,567.998 C2130.35,567.998 2127.71,567.186 2125.57,565.561 C2123.55,563.8 2122.54,561.587 2122.54,558.92 C2122.54,554.43 2124.88,550.233 2129.57,546.326 C2134.13,542.42 2139.11,540.467 2144.51,540.467"/>
<path class="Note" d="M2033.41,590.467 C2036.53,590.467 2039.17,591.279 2041.33,592.904 C2043.34,594.665 2044.34,596.878 2044.34,599.545 C2044.34,604.035 2042.04,608.233 2037.42,612.139 C2032.74,616.045 2027.72,617.998 2022.38,617.998 C2019.25,617.998 2016.62,617.186 2014.47,615.561 C2012.45,613.8 2011.44,611.587 2011.44,608.92 C2011.44,604.43 2013.78,600.233 2018.47,596.326 C2023.03,592.42 2028.01,590.467 2033.41,590.467"/>
<path class="Note" d="M1922.31,565.467 C1925.43,565.467 1928.07,566.279 1930.23,567.904 C1932.24,569.665 1933.25,571.878 1933.25,574.545 C1933.25,579.035 1930.94,583.233 1926.32,587.139 C1921.64,591.045 1916.62,592.998 1911.28,592.998 C1908.15,592.998 1905.52,592.186 1903.37,590.561 C1901.35,588.8 1900.34,586.587 1900.34,583.92 C1900.34,579.43 1902.68,575.233 1907.37,571.326 C1911.93,567.42 1916.91,565.467 1922.31,565.467"/>
<path class="Note" d="M1773.61,552.967 C1776.73,552.967 1779.37,553.779 1781.53,555.404 C1783.54,557.165 1784.54,559.378 1784.54,562.045 C1784.54,566.535 1782.24,570.733 1777.62,574.639 C1772.93,578.545 1767.92,580.498 1762.58,580.498 C1759.45,580.498 1756.82,579.686 1754.67,578.061 C1752.65,576.3 1751.64,574.087 1751.64,571.42 C1751.64,566.93 1753.98,562.733 1758.67,558.826 C1763.23,554.92 1768.21,552.967 1773.61,552.967"/>
<path class="Note" d="M1701.92,565.467 C1705.04,565.467 1707.68,566.279 1709.84,567.904 C1711.85,569.665 1712.86,571.878 1712.86,574.545 C1712.86,579.035 1710.55,583.233 1705.93,587.139 C1701.25,591.045 1696.23,592.998 1690.89,592.998 C1687.76,592.998 1685.13,592.186 1682.98,590.561 C1680.96,588.8 1679.95,586.587 1679.95,583.92 C1679.95,579.43 1682.29,575.233 1686.98,571.326 C1691.54,567.42 1696.52,565.467 1701.92,565.467"/>
<path class="Note" d="M1630.23,577.967 C1633.36,577.967 1636,578.779 1638.15,580.404 C1640.16,582.165 1641.17,584.378 1641.17,587.045 C1641.17,591.535 1638.86,595.733 1634.25,599.639 C1629.56,603.545 1624.54,605.498 1619.2,605.498 C1616.07,605.498 1613.44,604.686 1611.29,603.061 C1609.27,601.3 1608.26,599.087 1608.26,596.42 C1608.26,591.93 1610.61,587.733 1615.29,583.826 C1619.86,579.92 1624.84,577.967 1630.23,577.967"/>
<path class="Note" d="M1515.53,590.467 C1518.66,590.467 1521.3,591.279 1523.45,592.904 C1525.46,594.665 1526.47,596.878 1526.47,599.545 C1526.47,604.035 1524.16,608.233 1519.55,612.139 C1514.86,616.045 1509.84,617.998 1504.5,617.998 C1501.37,617.998 1498.74,617.186 1496.59,615.561 C1494.57,613.8 1493.56,611.587 1493.56,608.92 C1493.56,604.43 1495.91,600.233 1500.59,596.326 C1505.16,592.42 1510.13,590.467 1515.53,590.467"/>
<path class="Note" d="M1400.83,565.467 C1403.95,565.467 1406.59,566.279 1408.75,567.904 C1410.76,569.665 1411.77,571.878 1411.77,574.545 C1411.77,579.035 1409.46,583.233 1404.84,587.139 C1400.16,591.045 1395.14,592.998 1389.8,592.998 C1386.67,592.998 1384.04,592.186 1381.89,590.561 C1379.87,588.8 1378.86,586.587 1378.86,583.92 C1378.86,579.43 1381.2,575.233 1385.89,571.326 C1390.45,567.42 1395.43,565.467 1400.83,565.467"/>
<path class="Note" d="M1252.13,552.967 C1255.25,552.967 1257.89,553.779 1260.05,555.404 C1262.06,557.165 1263.07,559.378 1263.07,562.045 C1263.07,566.535 1260.76,570.733 1256.14,574.639 C1251.46,578.545 1246.44,580.498 1241.1,580.498 C1237.97,580.498 1235.34,579.686 1233.19,578.061 C1231.17,576.3 1230.16,574.087 1230.16,571.42 C1230.16,566.93 1232.5,562.733 1237.19,558.826 C1241.75,554.92 1246.73,552.967 1252.13,552.967"/>
<path class="Note" d="M1180.44,565.467 C1183.57,565.467 1186.21,566.279 1188.36,567.904 C1190.37,569.665 1191.38,571.878 1191.38,574.545 C1191.38,579.035 1189.07,583.233 1184.46,587.139 C1179.77,591.045 1174.75,592.998 1169.41,592.998 C1166.28,592.998 1163.65,592.186 1161.5,590.561 C1159.48,588.8 1158.47,586.587 1158.47,583.92 C1158.47,579.43 1160.82,575.233 1165.5,571.326 C1170.07,567.42 1175.04,565.467 1180.44,565.467"/>
<path class="Note" d="M1108.75,577.967 C1111.88,577.967 1114.52,578.779 1116.67,580.404 C1118.68,582.165 1119.69,584.378 1119.69,587.045 C1119.69,591.535 1117.38,595.733 1112.77,599.639 C1108.08,603.545 1103.07,605.498 1097.72,605.498 C1094.6,605.498 1091.96,604.686 1089.82,603.061 C1087.79,601.3 1086.78,599.087 1086.78,596.42 C1086.78,591.93 1089.13,587.733 1093.82,583.826 C1098.38,579.92 1103.36,577.967 1108.75,577.967"/>
<path class="Note" d="M994.052,590.467 C997.177,590.467 999.818,591.279 1001.97,592.904 C1003.98,594.665 1004.99,596.878 1004.99,599.545 C1004.99,604.035 1002.68,608.233 998.068,612.139 C993.38,616.045 988.364,617.998 983.021,617.998 C979.896,617.998 977.26,617.186 975.114,615.561 C973.094,613.8 972.083,611.587 972.083,608.92 C972.083,604.43 974.427,600.233 979.114,596.326 C983.677,592.42 988.656,590.467 994.052,590.467"/>
<path class="Note" d="M879.351,565.467 C882.476,565.467 885.117,566.279 887.273,567.904 C889.283,569.665 890.289,571.878 890.289,574.545 C890.289,579.035 887.981,583.233 883.367,587.139 C878.679,591.045 873.664,592.998 868.32,592.998 C865.195,592.998 862.56,592.186 860.414,590.561 C858.393,588.8 857.382,586.587 857.382,583.92 C857.382,579.43 859.726,575.233 864.414,571.326 C868.976,567.42 873.955,565.467 879.351,565.467"/>
<path class="Note" d="M730.65,552.967 C733.775,552.967 736.416,553.779 738.572,555.404 C740.583,557.165 741.588,559.378 741.588,562.045 C741.588,566.535 739.281,570.733 734.666,574.639 C729.979,578.545 724.963,580.498 719.619,580.498 C716.494,580.498 713.859,579.686 711.713,578.061 C709.692,576.3 708.682,574.087 708.682,571.42 C708.682,566.93 711.025,562.733 715.713,558.826 C720.275,554.92 725.255,552.967 730.65,552.967"/>
<path class="Note" d="M658.962,565.467 C662.087,565.467 664.728,566.279 666.884,567.904 C668.895,569.665 669.9,571.878 669.9,574.545 C669.9,579.035 667.593,583.233 662.978,587.139 C658.291,591.045 653.275,592.998 647.931,592.998 C644.806,592.998 642.171,592.186 640.025,590.561 C638.004,588.8 636.994,586.587 636.994,583.92 C636.994,579.43 639.337,575.233 644.025,571.326 C648.587,567.42 653.567,565.467 658.962,565.467"/>
<path class="Note" d="M587.274,577.967 C590.399,577.967 593.04,578.779 595.196,580.404 C597.207,582.165 598.212,584.378 598.212,587.045 C598.212,591.535 595.905,595.733 591.29,599.639 C586.603,603.545 581.587,605.498 576.243,605.498 C573.118,605.498 570.483,604.686 568.337,603.061 C566.316,601.3 565.306,599.087 565.306,596.42 C565.306,591.93 567.649,587.733 572.337,583.826 C576.899,579.92 581.879,577.967 587.274,577.967"/>
<path class="Note" d="M472.574,590.467 C475.699,590.467 478.339,591.279 480.496,592.904 C482.506,594.665 483.511,596.878 483.511,599.545 C483.511,604.035 481.204,608.233 476.589,612.139 C471.902,616.045 466.886,617.998 461.542,617.998 C458.417,617.998 455.782,617.186 453.636,615.561 C451.615,613.8 450.605,611.587 450.605,608.92 C450.605,604.43 452.949,600.233 457.636,596.326 C462.199,592.42 467.178,590.467 472.574,590.467"/>
<path class="Note" d="M357.873,565.467 C360.998,565.467 363.639,566.279 365.795,567.904 C367.805,569.665 368.81,571.878 368.81,574.545 C368.81,579.035 366.503,583.233 361.889,587.139 C357.201,591.045 352.185,592.998 346.842,592.998 C343.717,592.998 341.081,592.186 338.935,590.561 C336.915,588.8 335.904,586.587 335.904,583.92 C335.904,579.43 338.248,575.233 342.935,571.326 C347.498,567.42 352.477,565.467 357.873,565.467"/>
<path class="Clef" d="M194.451,1566.14 C194.451,1566.14 194.649,1566.14 195.045,1566.14 C195.305,1566.08 195.529,1566.05 195.717,1566.05 C203.008,1566.05 208.998,1568.62 213.685,1573.76 C218.373,1578.84 220.717,1584.76 220.717,1591.53 C220.717,1599.94 217.237,1606.77 210.279,1612.05 C208.456,1613.48 206.076,1614.66 203.139,1615.56 C203.472,1619.79 203.639,1623.21 203.639,1625.81 C203.639,1626.33 203.571,1628.22 203.435,1631.48 C203.175,1637.54 201.092,1642.77 197.185,1647.2 C193.415,1651.57 188.727,1653.75 183.123,1653.75 C177.852,1653.75 173.362,1651.89 169.654,1648.19 C165.935,1644.41 164.076,1639.85 164.076,1634.51 C164.076,1631.71 165.154,1629.33 167.31,1627.37 C169.519,1625.43 172.086,1624.45 175.014,1624.45 C177.618,1624.45 179.8,1625.46 181.56,1627.48 C183.383,1629.37 184.295,1631.71 184.295,1634.51 C184.295,1637.05 183.383,1639.22 181.56,1641.05 C179.737,1642.87 177.555,1643.78 175.014,1643.78 C173.972,1643.78 172.967,1643.59 171.998,1643.2 C174.862,1647.43 178.67,1649.55 183.42,1649.55 C187.909,1649.55 191.586,1647.72 194.451,1644.08 C197.451,1640.31 199.081,1635.91 199.342,1630.89 C199.467,1627.76 199.529,1625.98 199.529,1625.53 C199.529,1621.88 199.399,1618.89 199.139,1616.55 C195.889,1617.07 192.993,1617.33 190.451,1617.33 C181.399,1617.33 173.685,1613.74 167.31,1606.58 C161.06,1599.35 157.935,1590.75 157.935,1580.8 C157.935,1578.71 158.128,1576.6 158.514,1574.45 C158.909,1572.69 159.399,1570.77 159.982,1568.69 C160.305,1567.51 161.185,1565.62 162.623,1563.01 C163.144,1562.23 163.73,1561.26 164.381,1560.08 C165.032,1558.91 165.487,1558.13 165.748,1557.75 C166.394,1556.45 167.659,1554.69 169.545,1552.47 C170.066,1551.88 170.605,1551.24 171.162,1550.52 C171.719,1549.81 172.193,1549.22 172.584,1548.76 C172.974,1548.31 173.266,1547.95 173.459,1547.69 C173.652,1547.43 175.118,1545.7 177.857,1542.51 C178.503,1541.86 179.136,1541.16 179.756,1540.41 C180.375,1539.67 180.881,1539.08 181.271,1538.66 C181.662,1538.23 181.956,1537.92 182.154,1537.73 C179.81,1529.98 178.342,1523.8 177.748,1519.17 C177.3,1515.46 177.076,1510.38 177.076,1503.94 C177.076,1498.27 178.378,1492.96 180.982,1488.01 C183.514,1482.88 187.06,1478.68 191.623,1475.42 C191.883,1475.22 192.206,1475.12 192.592,1475.12 C193.05,1475.12 193.378,1475.22 193.576,1475.42 C197.086,1479.65 200.112,1485.15 202.654,1491.92 C205.258,1498.69 206.56,1504.85 206.56,1510.39 C206.56,1516.64 205.066,1522.5 202.076,1527.97 C198.691,1533.76 194.326,1539.75 188.982,1545.94 C190.347,1550.23 192.17,1556.96 194.451,1566.14 M202.748,1611.56 C206.133,1610.32 208.774,1608.21 210.67,1605.22 C212.753,1602.35 213.795,1599.13 213.795,1595.55 C213.795,1590.92 212.232,1586.82 209.107,1583.23 C205.909,1579.52 201.836,1577.44 196.889,1576.98 C199.691,1590.72 201.644,1602.25 202.748,1611.56 M164.967,1589 C164.967,1595.45 167.571,1601.11 172.779,1606 C178.112,1610.75 184.102,1613.12 190.748,1613.12 C193.477,1613.12 196.144,1612.93 198.748,1612.53 C197.706,1602.63 195.654,1590.79 192.592,1576.98 C188.883,1577.38 185.925,1578.68 183.717,1580.89 C181.56,1583.17 180.482,1585.74 180.482,1588.61 C180.482,1593.56 183.123,1597.56 188.404,1600.62 C188.852,1601.08 189.076,1601.57 189.076,1602.09 C189.076,1602.61 188.852,1603.1 188.404,1603.55 C188.008,1604 187.519,1604.23 186.935,1604.23 C186.873,1604.23 186.581,1604.17 186.06,1604.05 C182.342,1602.02 179.477,1599.42 177.467,1596.23 C175.571,1592.84 174.623,1589.42 174.623,1585.97 C174.623,1581.48 176.024,1577.41 178.826,1573.76 C181.753,1570.12 185.56,1567.77 190.248,1566.73 C188.425,1559.44 186.93,1553.74 185.764,1549.64 C184.722,1550.82 183.469,1552.23 182.006,1553.89 C180.542,1555.55 179.68,1556.54 179.42,1556.87 C177.076,1559.93 175.284,1562.3 174.045,1564 C171.826,1567.06 170.196,1569.7 169.154,1571.91 C168.05,1574.38 167.076,1577.09 166.232,1580.01 C165.389,1582.82 164.967,1585.81 164.967,1589 M197.576,1489.69 C192.691,1492.09 188.852,1495.54 186.06,1500.03 C183.196,1504.66 181.764,1509.63 181.764,1514.97 C181.764,1519.66 182.935,1525.97 185.279,1533.92 C189.967,1528.25 193.482,1523.01 195.826,1518.2 C198.295,1513.12 199.529,1507.81 199.529,1502.28 C199.529,1498.11 198.878,1493.92 197.576,1489.69"/>
<path class="Clef" d="M194.451,1091.14 C194.451,1091.14 194.649,1091.14 195.045,1091.14 C195.305,1091.08 195.529,1091.05 195.717,1091.05 C203.008,1091.05 208.998,1093.62 213.685,1098.76 C218.373,1103.84 220.717,1109.76 220.717,1116.53 C220.717,1124.94 217.237,1131.77 210.279,1137.05 C208.456,1138.48 206.076,1139.65 203.139,1140.56 C203.472,1144.79 203.639,1148.21 203.639,1150.81 C203.639,1151.33 203.571,1153.22 203.435,1156.48 C203.175,1162.53 201.092,1167.77 197.185,1172.2 C193.415,1176.57 188.727,1178.75 183.123,1178.75 C177.852,1178.75 173.362,1176.89 169.654,1173.19 C165.935,1169.4 164.076,1164.85 164.076,1159.51 C164.076,1156.71 165.154,1154.33 167.31,1152.37 C169.519,1150.43 172.086,1149.45 175.014,1149.45 C177.618,1149.45 179.8,1150.46 181.56,1152.48 C183.383,1154.37 184.295,1156.71 184.295,1159.51 C184.295,1162.05 183.383,1164.22 181.56,1166.05 C179.737,1167.87 177.555,1168.78 175.014,1168.78 C173.972,1168.78 172.967,1168.59 171.998,1168.2 C174.862,1172.43 178.67,1174.55 183.42,1174.55 C187.909,1174.55 191.586,1172.72 194.451,1169.08 C197.451,1165.31 199.081,1160.91 199.342,1155.89 C199.467,1152.76 199.529,1150.98 199.529,1150.53 C199.529,1146.88 199.399,1143.89 199.139,1141.55 C195.889,1142.07 192.993,1142.33 190.451,1142.33 C181.399,1142.33 173.685,1138.74 167.31,1131.58 C161.06,1124.35 157.935,1115.75 157.935,1105.8 C157.935,1103.71 158.128,1101.6 158.514,1099.45 C158.909,1097.69 159.399,1095.77 159.982,1093.69 C160.305,1092.51 161.185,1090.62 162.623,1088.01 C163.144,1087.23 163.73,1086.26 164.381,1085.08 C165.032,1083.91 165.487,1083.13 165.748,1082.75 C166.394,1081.45 167.659,1079.69 169.545,1077.47 C170.066,1076.88 170.605,1076.24 171.162,1075.52 C171.719,1074.81 172.193,1074.22 172.584,1073.76 C172.974,1073.31 173.266,1072.95 173.459,1072.69 C173.652,1072.43 175.118,1070.7 177.857,1067.51 C178.503,1066.86 179.136,1066.16 179.756,1065.41 C180.375,1064.67 180.881,1064.08 181.271,1063.65 C181.662,1063.23 181.956,1062.92 182.154,1062.73 C179.81,1054.98 178.342,1048.8 177.748,1044.17 C177.3,1040.46 177.076,1035.38 177.076,1028.94 C177.076,1023.27 178.378,1017.96 180.982,1013.01 C183.514,1007.88 187.06,1003.68 191.623,1000.42 C191.883,1000.22 192.206,1000.12 192.592,1000.12 C193.05,1000.12 193.378,1000.22 193.576,1000.42 C197.086,1004.65 200.112,1010.15 202.654,1016.92 C205.258,1023.69 206.56,1029.85 206.56,1035.39 C206.56,1041.64 205.066,1047.5 202.076,1052.97 C198.691,1058.76 194.326,1064.75 188.982,1070.94 C190.347,1075.23 192.17,1081.96 194.451,1091.14 M202.748,1136.56 C206.133,1135.32 208.774,1133.21 210.67,1130.22 C212.753,1127.35 213.795,1124.13 213.795,1120.55 C213.795,1115.92 212.232,1111.82 209.107,1108.23 C205.909,1104.52 201.836,1102.44 196.889,1101.98 C199.691,1115.72 201.644,1127.25 202.748,1136.56 M164.967,1114 C164.967,1120.45 167.571,1126.11 172.779,1131 C178.112,1135.75 184.102,1138.12 190.748,1138.12 C193.477,1138.12 196.144,1137.93 198.748,1137.53 C197.706,1127.63 195.654,1115.78 192.592,1101.98 C188.883,1102.38 185.925,1103.68 183.717,1105.89 C181.56,1108.17 180.482,1110.74 180.482,1113.61 C180.482,1118.56 183.123,1122.56 188.404,1125.62 C188.852,1126.08 189.076,1126.57 189.076,1127.09 C189.076,1127.61 188.852,1128.1 188.404,1128.55 C188.008,1129 187.519,1129.23 186.935,1129.23 C186.873,1129.23 186.581,1129.17 186.06,1129.05 C182.342,1127.02 179.477,1124.42 177.467,1121.23 C175.571,1117.84 174.623,1114.42 174.623,1110.97 C174.623,1106.48 176.024,1102.41 178.826,1098.76 C181.753,1095.12 185.56,1092.77 190.248,1091.73 C188.425,1084.44 186.93,1078.74 185.764,1074.64 C184.722,1075.82 183.469,1077.23 182.006,1078.89 C180.542,1080.55 179.68,1081.54 179.42,1081.87 C177.076,1084.93 175.284,1087.3 174.045,1089 C171.826,1092.06 170.196,1094.7 169.154,1096.9 C168.05,1099.38 167.076,1102.09 166.232,1105.01 C165.389,1107.82 164.967,1110.81 164.967,1114 M197.576,1014.69 C192.691,1017.09 188.852,1020.54 186.06,1025.03 C183.196,1029.65 181.764,1034.63 181.764,1039.97 C181.764,1044.65 182.935,1050.97 185.279,1058.92 C189.967,1053.25 193.482,1048.01 195.826,1043.2 C198.295,1038.12 199.529,1032.81 199.529,1027.28 C199.529,1023.11 198.878,1018.92 197.576,1014.69"/>
<path class="Clef" d="M194.451,616.139 C194.451,616.139 194.649,616.139 195.045,616.139 C195.305,616.076 195.529,616.045 195.717,616.045 C203.008,616.045 208.998,618.618 213.685,623.764 C218.373,628.837 220.717,634.759 220.717,641.529 C220.717,649.936 217.237,656.774 210.279,662.045 C208.456,663.483 206.076,664.654 203.139,665.561 C203.472,669.79 203.639,673.207 203.639,675.811 C203.639,676.332 203.571,678.222 203.435,681.483 C203.175,687.535 201.092,692.774 197.185,697.201 C193.415,701.566 188.727,703.748 183.123,703.748 C177.852,703.748 173.362,701.894 169.654,698.186 C165.935,694.404 164.076,689.847 164.076,684.514 C164.076,681.712 165.154,679.332 167.31,677.373 C169.519,675.425 172.086,674.451 175.014,674.451 C177.618,674.451 179.8,675.462 181.56,677.483 C183.383,679.368 184.295,681.712 184.295,684.514 C184.295,687.045 183.383,689.222 181.56,691.045 C179.737,692.868 177.555,693.779 175.014,693.779 C173.972,693.779 172.967,693.587 171.998,693.201 C174.862,697.43 178.67,699.545 183.42,699.545 C187.909,699.545 191.586,697.722 194.451,694.076 C197.451,690.305 199.081,685.91 199.342,680.889 C199.467,677.764 199.529,675.977 199.529,675.529 C199.529,671.884 199.399,668.889 199.139,666.545 C195.889,667.066 192.993,667.326 190.451,667.326 C181.399,667.326 173.685,663.743 167.31,656.576 C161.06,649.347 157.935,640.753 157.935,630.795 C157.935,628.712 158.128,626.597 158.514,624.451 C158.909,622.691 159.399,620.769 159.982,618.686 C160.305,617.509 161.185,615.618 162.623,613.014 C163.144,612.233 163.73,611.256 164.381,610.084 C165.032,608.912 165.487,608.134 165.748,607.748 C166.394,606.446 167.659,604.686 169.545,602.467 C170.066,601.884 170.605,601.235 171.162,600.522 C171.719,599.808 172.193,599.222 172.584,598.764 C172.974,598.305 173.266,597.946 173.459,597.686 C173.652,597.425 175.118,595.701 177.857,592.514 C178.503,591.858 179.136,591.157 179.756,590.412 C180.375,589.667 180.881,589.082 181.271,588.654 C181.662,588.227 181.956,587.92 182.154,587.733 C179.81,579.983 178.342,573.795 177.748,569.17 C177.3,565.462 177.076,560.384 177.076,553.936 C177.076,548.269 178.378,542.962 180.982,538.014 C183.514,532.878 187.06,528.68 191.623,525.42 C191.883,525.222 192.206,525.123 192.592,525.123 C193.05,525.123 193.378,525.222 193.576,525.42 C197.086,529.649 200.112,535.149 202.654,541.92 C205.258,548.691 206.56,554.847 206.56,560.389 C206.56,566.639 205.066,572.498 202.076,577.967 C198.691,583.759 194.326,589.748 188.982,595.936 C190.347,600.227 192.17,606.962 194.451,616.139 M202.748,661.561 C206.133,660.321 208.774,658.207 210.67,655.217 C212.753,652.352 213.795,649.128 213.795,645.545 C213.795,640.92 212.232,636.816 209.107,633.233 C205.909,629.524 201.836,627.441 196.889,626.983 C199.691,640.722 201.644,652.248 202.748,661.561 M164.967,638.998 C164.967,645.446 167.571,651.113 172.779,655.998 C178.112,660.748 184.102,663.123 190.748,663.123 C193.477,663.123 196.144,662.925 198.748,662.529 C197.706,652.634 195.654,640.785 192.592,626.983 C188.883,627.378 185.925,628.68 183.717,630.889 C181.56,633.17 180.482,635.743 180.482,638.608 C180.482,643.555 183.123,647.561 188.404,650.623 C188.852,651.082 189.076,651.571 189.076,652.092 C189.076,652.613 188.852,653.097 188.404,653.545 C188.008,654.003 187.519,654.233 186.935,654.233 C186.873,654.233 186.581,654.17 186.06,654.045 C182.342,652.024 179.477,649.42 177.467,646.233 C175.571,642.837 174.623,639.415 174.623,635.967 C174.623,631.477 176.024,627.41 178.826,623.764 C181.753,620.118 185.56,617.774 190.248,616.733 C188.425,609.441 186.93,603.743 185.764,599.639 C184.722,600.816 183.469,602.233 182.006,603.889 C180.542,605.545 179.68,606.54 179.42,606.873 C177.076,609.925 175.284,612.3 174.045,613.998 C171.826,617.061 170.196,619.696 169.154,621.904 C168.05,624.384 167.076,627.087 166.232,630.014 C165.389,632.816 164.967,635.811 164.967,638.998 M197.576,539.686 C192.691,542.092 188.852,545.54 186.06,550.029 C183.196,554.654 181.764,559.634 181.764,564.967 C181.764,569.654 182.935,575.972 185.279,583.92 C189.967,578.253 193.482,573.014 195.826,568.201 C198.295,563.118 199.529,557.811 199.529,552.279 C199.529,548.113 198.878,543.915 197.576,539.686"/>
<path class="TimeSig" d="M270.654,616.733 C268.696,616.733 266.935,616.376 265.373,615.662 C263.81,614.949 262.706,614.201 262.06,613.42 C261.206,612.441 260.357,611.691 259.514,611.17 C258.472,610.451 257.399,610.092 256.295,610.092 C254.597,610.092 253.196,610.613 252.092,611.654 C250.925,612.634 250.274,613.967 250.139,615.654 C250.014,616.373 249.623,616.733 248.967,616.733 C248.185,616.733 247.795,616.373 247.795,615.654 C247.795,613.123 248.383,610.847 249.56,608.826 C250.727,606.743 252.159,605.019 253.857,603.654 C255.284,602.415 257.17,600.915 259.514,599.154 C259.909,598.831 260.74,598.149 262.006,597.108 C263.271,596.066 264.331,595.186 265.185,594.467 C266.873,593.04 268.336,591.149 269.576,588.795 C270.743,586.451 271.326,583.915 271.326,581.186 C271.326,577.863 270.774,574.998 269.67,572.592 C268.503,570.248 266.711,569.076 264.295,569.076 C262.805,569.076 261.602,569.399 260.685,570.045 C259.706,570.701 259.217,571.581 259.217,572.686 C259.217,573.602 259.803,574.743 260.975,576.108 C262.146,577.472 262.732,578.613 262.732,579.529 C262.732,581.477 262.05,583.134 260.685,584.498 C259.383,585.8 257.79,586.451 255.904,586.451 C253.946,586.451 252.284,585.769 250.92,584.404 C249.618,582.977 248.967,581.352 248.967,579.529 C248.967,575.811 250.464,572.748 253.459,570.342 C256.454,567.936 260.066,566.733 264.295,566.733 C269.316,566.733 273.68,568.097 277.389,570.826 C281.097,573.43 282.951,576.884 282.951,581.186 C282.951,584.113 282.43,586.618 281.389,588.701 C280.409,590.92 278.946,592.649 276.998,593.889 C274.779,595.316 272.857,596.42 271.232,597.201 C268.951,598.243 266.675,599.222 264.404,600.139 C261.665,601.243 259.545,602.285 258.045,603.264 C258.899,603.066 259.779,602.967 260.685,602.967 C263.685,602.967 266.81,603.941 270.06,605.889 C273.383,607.847 275.956,608.826 277.779,608.826 C278.883,608.826 279.764,608.628 280.42,608.233 C281.066,607.847 281.488,607.425 281.685,606.967 C281.946,606.321 282.175,605.868 282.373,605.608 C282.633,605.212 282.956,605.014 283.342,605.014 C284.123,605.014 284.514,605.404 284.514,606.186 C284.514,608.009 283.211,610.222 280.607,612.826 C278.066,615.43 274.748,616.733 270.654,616.733"/>
<path class="TimeSig" d="M268.467,618.084 C270.415,618.084 272.073,617.858 273.443,617.404 C274.813,616.951 275.691,616.725 276.076,616.725 C276.534,616.725 276.894,616.855 277.154,617.115 C277.352,617.303 277.482,617.527 277.545,617.787 C277.545,617.923 277.477,618.121 277.342,618.381 L248.935,651.397 L265.623,651.397 L265.623,638.303 C265.623,637.459 265.852,636.74 266.31,636.147 C267.092,635.501 267.743,635.11 268.264,634.975 C269.107,634.589 270.149,633.678 271.389,632.24 C272.43,631.074 273.67,629.027 275.107,626.1 C275.295,625.704 275.586,625.506 275.982,625.506 C276.764,625.506 277.217,625.964 277.342,626.881 L277.342,651.397 L284.482,651.397 C285.389,651.397 285.909,651.881 286.045,652.85 C286.045,653.829 285.524,654.319 284.482,654.319 L277.342,654.319 L277.342,655.1 C277.342,657.704 277.993,659.917 279.295,661.74 C280.795,663.563 282.555,664.475 284.576,664.475 C285.357,664.475 285.748,664.865 285.748,665.647 C285.748,666.428 285.357,666.819 284.576,666.819 C283.211,666.819 280.998,666.626 277.935,666.24 C275.133,665.782 272.951,665.553 271.389,665.553 C269.764,665.553 267.581,665.782 264.842,666.24 C261.915,666.626 259.738,666.819 258.31,666.819 C257.529,666.819 257.139,666.428 257.139,665.647 C257.139,664.865 257.529,664.475 258.31,664.475 C260.321,664.475 262.076,663.563 263.576,661.74 C264.941,659.855 265.623,657.641 265.623,655.1 L265.623,654.319 L248.935,654.319 C247.821,654.319 247.04,654.058 246.592,653.537 C246.06,653.152 245.795,652.631 245.795,651.975 C245.795,651.777 246.284,651.095 247.264,649.928 C248.378,648.626 249.55,647.032 250.779,645.147 C252.217,642.928 253.586,640.647 254.889,638.303 C256.316,635.636 257.456,632.574 258.31,629.115 C259.279,625.605 259.764,622.027 259.764,618.381 C259.764,617.339 260.222,616.819 261.139,616.819 C261.336,616.819 261.758,616.917 262.404,617.115 C262.602,617.178 263.011,617.274 263.631,617.404 C264.251,617.535 264.753,617.662 265.139,617.787 C266.316,617.985 267.425,618.084 268.467,618.084"/>
<path class="Rest" d="M2626.45,1558.92 C2626.45,1557.74 2627.11,1556.44 2628.42,1555.01 C2629.39,1553.97 2630.82,1552.73 2632.72,1551.3 C2634.14,1550.33 2635.54,1548.86 2636.9,1546.91 C2638.21,1545.02 2638.86,1542.97 2638.86,1540.75 C2638.86,1538.14 2638.01,1535.84 2636.33,1533.83 L2632.81,1529.62 C2632.55,1529.36 2632.42,1529.04 2632.42,1528.65 C2632.42,1528.26 2632.61,1527.9 2633,1527.58 C2633.46,1527.24 2633.85,1527.08 2634.17,1527.08 C2634.63,1527.08 2634.99,1527.27 2635.25,1527.67 L2650.39,1545.64 C2651.03,1546.48 2651.36,1547.33 2651.36,1548.17 C2651.36,1549.35 2650.71,1550.65 2649.4,1552.08 C2648.56,1552.99 2647.16,1554.23 2645.22,1555.8 C2643.72,1556.7 2642.28,1558.17 2640.92,1560.19 C2639.62,1562.07 2638.97,1564.12 2638.97,1566.34 C2638.97,1569.08 2639.75,1571.39 2641.31,1573.28 L2649.7,1583.14 C2649.9,1583.34 2650.06,1583.67 2650.19,1584.12 C2650.19,1584.57 2650.02,1584.96 2649.7,1585.3 C2649.24,1585.62 2648.85,1585.78 2648.53,1585.78 C2648.4,1585.78 2647.88,1585.42 2646.97,1584.7 C2645.99,1583.92 2644.69,1583.17 2643.06,1582.45 C2641.24,1581.74 2639.45,1581.39 2637.69,1581.39 C2636.06,1581.39 2634.73,1581.84 2633.69,1582.75 C2632.78,1583.67 2632.33,1585.43 2632.33,1588.03 C2632.33,1592 2633.27,1595.12 2635.15,1597.41 C2635.35,1597.67 2635.38,1597.99 2635.25,1598.37 C2635.12,1598.63 2634.89,1598.76 2634.56,1598.76 C2634.11,1598.76 2633.11,1597.59 2631.54,1595.25 C2629.91,1592.78 2628.38,1589.95 2626.95,1586.75 C2625.45,1583.36 2624.7,1580.57 2624.7,1578.36 C2624.7,1575.56 2626.03,1574.16 2628.7,1574.16 C2631.76,1574.16 2635.74,1575.2 2640.62,1577.28 L2627.44,1561.45 C2626.78,1560.61 2626.45,1559.76 2626.45,1558.92"/>
<path class="Articulation" d="M2456.08,1482.74 C2455.1,1481.77 2454.61,1480.59 2454.61,1479.23 C2454.61,1477.86 2455.1,1476.69 2456.08,1475.71 C2457.06,1474.73 2458.23,1474.24 2459.59,1474.24 C2460.96,1474.24 2462.13,1474.73 2463.11,1475.71 C2464.09,1476.69 2464.58,1477.86 2464.58,1479.23 C2464.58,1480.59 2464.09,1481.77 2463.11,1482.74 C2462.13,1483.72 2460.96,1484.21 2459.59,1484.21 C2458.23,1484.21 2457.06,1483.72 2456.08,1482.74"/>
<path class="Articulation" d="M2654.56,582.744 C2653.58,581.765 2653.09,580.593 2653.09,579.229 C2653.09,577.864 2653.58,576.692 2654.56,575.713 C2655.54,574.734 2656.71,574.244 2658.08,574.244 C2659.44,574.244 2660.61,574.734 2661.59,575.713 C2662.57,576.692 2663.06,577.864 2663.06,579.229 C2663.06,580.593 2662.57,581.765 2661.59,582.744 C2660.61,583.723 2659.44,584.213 2658.08,584.213 C2656.71,584.213 2655.54,583.723 2654.56,582.744"/>
<path class="Beam" fill-rule="evenodd" d="M2142.2,1604.2 L2258.96,1617.05 L2258.96,1629.63 L2142.2,1616.77 L2142.2,1604.2 "/>
<path class="Beam" fill-rule="evenodd" d="M1915.2,1591.58 L2031.95,1617.3 L2031.95,1630.1 L1915.2,1604.38 L1915.2,1591.58 "/>
<path class="Beam" fill-rule="evenodd" d="M1590.06,1585.41 L1755.06,1559.91 L1755.06,1572.56 L1590.06,1598.06 L1590.06,1585.41 "/>
<path class="Beam" fill-rule="evenodd" d="M1590.06,1566.66 L1674.18,1553.66 L1674.18,1566.31 L1590.06,1579.31 L1590.06,1566.66 "/>
<path class="Beam" fill-rule="evenodd" d="M1331.27,1591.62 L1463.92,1617.25 L1463.92,1629.98 L1331.27,1604.35 L1331.27,1591.62 "/>
<path class="Beam" fill-rule="evenodd" d="M1070.27,1591.58 L1187.02,1617.3 L1187.02,1630.1 L1070.27,1604.38 L1070.27,1591.58 "/>
<path class="Beam" fill-rule="evenodd" d="M843.263,1591.58 L960.015,1617.3 L960.015,1630.1 L843.263,1604.38 L843.263,1591.58 "/>
<path class="Beam" fill-rule="evenodd" d="M566.587,1591.58 L683.339,1617.3 L683.339,1630.1 L566.587,1604.38 L566.587,1591.58 "/>
<path class="Beam" fill-rule="evenodd" d="M339.584,1591.58 L456.336,1617.3 L456.336,1630.1 L339.584,1604.38 L339.584,1591.58 "/>
<path class="Beam" fill-rule="evenodd" d="M2533.78,1129.2 L2665.92,1142.02 L2665.92,1154.58 L2533.78,1141.76 L2533.78,1129.2 "/>
<path class="Beam" fill-rule="evenodd" d="M2276,1116.62 L2408.14,1142.25 L2408.14,1154.98 L2276,1129.35 L2276,1116.62 "/>
<path class="Beam" fill-rule="evenodd" d="M1918.28,1110.42 L2101.38,1084.97 L2101.38,1097.59 L1918.28,1123.04 L1918.28,1110.42 "/>
<path class="Beam" fill-rule="evenodd" d="M1918.28,1091.67 L2011.46,1078.72 L2011.46,1091.34 L1918.28,1104.29 L1918.28,1091.67 "/>
<path class="Beam" fill-rule="evenodd" d="M1630.53,1116.64 L1777.66,1142.2 L1777.66,1154.89 L1630.53,1129.33 L1630.53,1116.64 "/>
<path class="Beam" fill-rule="evenodd" d="M1272.81,1110.42 L1455.9,1084.97 L1455.9,1097.59 L1272.81,1123.04 L1272.81,1110.42 "/>
<path class="Beam" fill-rule="evenodd" d="M1272.81,1091.67 L1365.98,1078.72 L1365.98,1091.34 L1272.81,1104.29 L1272.81,1091.67 "/>
<path class="Beam" fill-rule="evenodd" d="M985.057,1116.64 L1132.18,1142.2 L1132.18,1154.89 L985.057,1129.33 L985.057,1116.64 "/>
<path class="Beam" fill-rule="evenodd" d="M627.336,1110.42 L810.431,1084.97 L810.431,1097.59 L627.336,1123.04 L627.336,1110.42 "/>
<path class="Beam" fill-rule="evenodd" d="M627.336,1091.67 L720.509,1078.72 L720.509,1091.34 L627.336,1104.29 L627.336,1091.67 "/>
<path class="Beam" fill-rule="evenodd" d="M339.584,1116.64 L486.71,1142.2 L486.71,1154.89 L339.584,1129.33 L339.584,1116.64 "/>
<path class="Beam" fill-rule="evenodd" d="M2418.65,654.193 L2533.38,667.058 L2533.38,679.636 L2418.65,666.772 L2418.65,654.193 "/>
<path class="Beam" fill-rule="evenodd" d="M2122.54,641.576 L2236.89,667.308 L2236.89,680.12 L2122.54,654.389 L2122.54,641.576 "/>
<path class="Beam" fill-rule="evenodd" d="M1900.34,654.193 L2014.69,667.059 L2014.69,679.638 L1900.34,666.772 L1900.34,654.193 "/>
<path class="Beam" fill-rule="evenodd" d="M1608.26,660.388 L1754.89,634.822 L1754.89,647.51 L1608.26,673.077 L1608.26,660.388 "/>
<path class="Beam" fill-rule="evenodd" d="M1608.26,641.638 L1683.2,628.572 L1683.2,641.26 L1608.26,654.327 L1608.26,641.638 "/>
<path class="Beam" fill-rule="evenodd" d="M1378.86,654.196 L1496.81,667.05 L1496.81,679.624 L1378.86,666.77 L1378.86,654.196 "/>
<path class="Beam" fill-rule="evenodd" d="M1086.78,660.388 L1233.41,634.822 L1233.41,647.51 L1086.78,673.077 L1086.78,660.388 "/>
<path class="Beam" fill-rule="evenodd" d="M1086.78,641.638 L1161.72,628.572 L1161.72,641.26 L1086.78,654.327 L1086.78,641.638 "/>
<path class="Beam" fill-rule="evenodd" d="M857.382,654.196 L975.333,667.05 L975.333,679.624 L857.382,666.77 L857.382,654.196 "/>
<path class="Beam" fill-rule="evenodd" d="M565.306,660.388 L711.932,634.822 L711.932,647.51 L565.306,673.077 L565.306,660.388 "/>
<path class="Beam" fill-rule="evenodd" d="M565.306,641.638 L640.244,628.572 L640.244,641.26 L565.306,654.327 L565.306,641.638 "/>
<path class="Beam" fill-rule="evenodd" d="M335.904,654.196 L453.855,667.05 L453.855,679.624 L335.904,666.77 L335.904,654.196 "/>
<path class="VoltaSegment" d="M2427.32,1421.64 C2430.12,1414.16 2434.15,1410.42 2439.42,1410.42 C2442.39,1410.42 2444.83,1411.37 2446.74,1413.25 C2448.65,1415.14 2449.61,1417.55 2449.61,1420.49 C2449.61,1424.52 2447.51,1428.51 2443.32,1432.47 L2434.42,1440.94 L2442.73,1440.94 C2445.55,1440.94 2447.37,1440.72 2448.17,1440.28 C2448.97,1439.83 2449.78,1438.62 2450.59,1436.64 L2451.9,1436.64 L2449.43,1448.25 L2426.56,1448.25 L2426.56,1446.99 C2432.83,1440.31 2436.99,1435.39 2439.04,1432.22 C2441.1,1429.05 2442.12,1426.21 2442.12,1423.67 C2442.12,1421.8 2441.52,1420.17 2440.31,1418.78 C2439.1,1417.39 2437.52,1416.69 2435.57,1416.69 C2432.75,1416.69 2430.52,1418.34 2428.87,1421.64 L2427.32,1421.64 M2460.5,1439.67 C2461.78,1439.67 2462.88,1440.14 2463.79,1441.07 C2464.71,1442.01 2465.17,1443.11 2465.17,1444.4 C2465.17,1445.69 2464.71,1446.77 2463.79,1447.65 C2462.88,1448.53 2461.76,1448.97 2460.43,1448.97 C2459.15,1448.97 2458.07,1448.52 2457.19,1447.62 C2456.31,1446.72 2455.87,1445.61 2455.87,1444.3 C2455.87,1443.05 2456.33,1441.97 2457.25,1441.05 C2458.16,1440.13 2459.25,1439.67 2460.5,1439.67"/>
<polyline class="VoltaSegment" fill="none" stroke="#000000" stroke-width="2.50" stroke-linecap="square" stroke-linejoin="bevel" points="2413.12,1448.25 2413.12,1400.75"/>
<polyline class="VoltaSegment" fill="none" stroke="#000000" stroke-width="2.50" stroke-linecap="square" stroke-linejoin="bevel" points="2413.12,1400.75 2812.97,1400.75"/>
<path class="VoltaSegment" d="M1902.95,1416.47 C1902.51,1416.47 1901.99,1416.56 1901.39,1416.74 C1900.78,1416.93 1900.14,1417.15 1899.46,1417.4 C1898.78,1417.66 1898.38,1417.8 1898.28,1417.85 L1898.28,1416.41 L1912.14,1410.42 L1913.08,1410.42 L1913.08,1441.77 C1913.08,1443.89 1913.44,1445.28 1914.17,1445.92 C1914.9,1446.56 1916.51,1446.9 1919.01,1446.94 L1919.01,1448.25 L1898.39,1448.25 L1898.39,1446.94 C1901.1,1446.9 1902.86,1446.54 1903.69,1445.86 C1904.52,1445.18 1904.93,1443.71 1904.93,1441.44 L1904.93,1420.27 C1904.93,1417.74 1904.27,1416.47 1902.95,1416.47 M1929.58,1439.67 C1930.86,1439.67 1931.96,1440.14 1932.87,1441.07 C1933.79,1442.01 1934.25,1443.11 1934.25,1444.4 C1934.25,1445.69 1933.79,1446.77 1932.87,1447.65 C1931.96,1448.53 1930.84,1448.97 1929.51,1448.97 C1928.23,1448.97 1927.15,1448.52 1926.27,1447.62 C1925.39,1446.72 1924.95,1445.61 1924.95,1444.3 C1924.95,1443.05 1925.41,1441.97 1926.33,1441.05 C1927.24,1440.13 1928.33,1439.67 1929.58,1439.67"/>
<polyline class="VoltaSegment" fill="none" stroke="#000000" stroke-width="2.50" stroke-linecap="square" stroke-linejoin="bevel" points="1885.2,1448.25 1885.2,1400.75"/>
<polyline class="VoltaSegment" fill="none" stroke="#000000" stroke-width="2.50" stroke-linecap="square" stroke-linejoin="bevel" points="1885.2,1400.75 2398.79,1400.75"/>
<polyline class="VoltaSegment" fill="none" stroke="#000000" stroke-width="2.50" stroke-linecap="square" stroke-linejoin="bevel" points="2398.79,1400.75 2398.79,1448.25"/>
<path class="VoltaSegment" d="M2402.85,500.123 C2405.65,492.644 2409.68,488.904 2414.95,488.904 C2417.92,488.904 2420.36,489.847 2422.27,491.732 C2424.18,493.618 2425.13,496.029 2425.13,498.967 C2425.13,502.998 2423.04,506.993 2418.85,510.951 L2409.95,519.42 L2418.26,519.42 C2421.08,519.42 2422.9,519.199 2423.7,518.756 C2424.5,518.313 2425.31,517.102 2426.12,515.123 L2427.43,515.123 L2424.96,526.732 L2402.09,526.732 L2402.09,525.467 C2408.36,518.79 2412.52,513.868 2414.57,510.701 C2416.62,507.535 2417.65,504.686 2417.65,502.154 C2417.65,500.279 2417.05,498.647 2415.84,497.256 C2414.63,495.865 2413.05,495.17 2411.1,495.17 C2408.28,495.17 2406.05,496.821 2404.4,500.123 L2402.85,500.123 M2436.03,518.154 C2437.31,518.154 2438.41,518.621 2439.32,519.553 C2440.24,520.485 2440.7,521.594 2440.7,522.881 C2440.7,524.167 2440.24,525.251 2439.32,526.131 C2438.41,527.011 2437.29,527.451 2435.96,527.451 C2434.68,527.451 2433.6,527.001 2432.72,526.1 C2431.84,525.199 2431.4,524.092 2431.4,522.779 C2431.4,521.529 2431.86,520.446 2432.78,519.529 C2433.69,518.613 2434.78,518.154 2436.03,518.154"/>
<polyline class="VoltaSegment" fill="none" stroke="#000000" stroke-width="2.50" stroke-linecap="square" stroke-linejoin="bevel" points="2388.65,526.732 2388.65,479.232"/>
<polyline class="VoltaSegment" fill="none" stroke="#000000" stroke-width="2.50" stroke-linecap="square" stroke-linejoin="bevel" points="2388.65,479.232 2821.97,479.232"/>
<path class="VoltaSegment" d="M1888.09,494.951 C1887.65,494.951 1887.13,495.042 1886.53,495.225 C1885.92,495.407 1885.28,495.626 1884.6,495.881 C1883.91,496.136 1883.52,496.285 1883.42,496.326 L1883.42,494.889 L1897.28,488.904 L1898.21,488.904 L1898.21,520.248 C1898.21,522.373 1898.58,523.756 1899.31,524.397 C1900.04,525.037 1901.65,525.378 1904.15,525.42 L1904.15,526.732 L1883.53,526.732 L1883.53,525.42 C1886.23,525.378 1888,525.019 1888.83,524.342 C1889.66,523.665 1890.07,522.191 1890.07,519.92 L1890.07,498.748 C1890.07,496.217 1889.41,494.951 1888.09,494.951 M1914.71,518.154 C1916,518.154 1917.09,518.621 1918.01,519.553 C1918.93,520.485 1919.39,521.594 1919.39,522.881 C1919.39,524.167 1918.93,525.251 1918.01,526.131 C1917.09,527.011 1915.97,527.451 1914.65,527.451 C1913.37,527.451 1912.29,527.001 1911.41,526.1 C1910.53,525.199 1910.09,524.092 1910.09,522.779 C1910.09,521.529 1910.55,520.446 1911.46,519.529 C1912.38,518.613 1913.46,518.154 1914.71,518.154"/>
<polyline class="VoltaSegment" fill="none" stroke="#000000" stroke-width="2.50" stroke-linecap="square" stroke-linejoin="bevel" points="1870.34,526.732 1870.34,479.232"/>
<polyline class="VoltaSegment" fill="none" stroke="#000000" stroke-width="2.50" stroke-linecap="square" stroke-linejoin="bevel" points="1870.34,479.232 2374.31,479.232"/>
<polyline class="VoltaSegment" fill="none" stroke="#000000" stroke-width="2.50" stroke-linecap="square" stroke-linejoin="bevel" points="2374.31,479.232 2374.31,526.732"/>
</svg>
