<?xml version="1.0" encoding="UTF-8" standalone="no"?>
<svg width="2977.2px" height="4208.4px" viewBox="0 0 2977.2 4208.4"
 xmlns="http://www.w3.org/2000/svg" xmlns:xlink="http://www.w3.org/1999/xlink" version="1.2" baseProfile="tiny">
<title>Sarba_studentilor</title>
<desc>Generated by MuseScore 3.0.2</desc>
<polyline class="StaffLines" fill="none" stroke="#000000" stroke-width="2.00" stroke-linejoin="bevel" points="141.732,566.733 2835.47,566.733"/>
<polyline class="StaffLines" fill="none" stroke="#000000" stroke-width="2.00" stroke-linejoin="bevel" points="141.732,591.733 2835.47,591.733"/>
<polyline class="StaffLines" fill="none" stroke="#000000" stroke-width="2.00" stroke-linejoin="bevel" points="141.732,616.733 2835.47,616.733"/>
<polyline class="StaffLines" fill="none" stroke="#000000" stroke-width="2.00" stroke-linejoin="bevel" points="141.732,641.733 2835.47,641.733"/>
<polyline class="StaffLines" fill="none" stroke="#000000" stroke-width="2.00" stroke-linejoin="bevel" points="141.732,666.733 2835.47,666.733"/>
<polyline class="StaffLines" fill="none" stroke="#000000" stroke-width="2.00" stroke-linejoin="bevel" points="141.732,1041.73 2835.47,1041.73"/>
<polyline class="StaffLines" fill="none" stroke="#000000" stroke-width="2.00" stroke-linejoin="bevel" points="141.732,1066.73 2835.47,1066.73"/>
<polyline class="StaffLines" fill="none" stroke="#000000" stroke-width="2.00" stroke-linejoin="bevel" points="141.732,1091.73 2835.47,1091.73"/>
<polyline class="StaffLines" fill="none" stroke="#000000" stroke-width="2.00" stroke-linejoin="bevel" points="141.732,1116.73 2835.47,1116.73"/>
<polyline class="StaffLines" fill="none" stroke="#000000" stroke-width="2.00" stroke-linejoin="bevel" points="141.732,1141.73 2835.47,1141.73"/>
<path class="Text" d="M1132.11,215.333 L1132.11,242.802 L1129.95,242.802 C1129.24,237.531 1127.98,233.333 1126.16,230.208 C1124.34,227.083 1121.76,224.604 1118.4,222.77 C1115.04,220.937 1111.56,220.02 1107.97,220.02 C1103.9,220.02 1100.54,221.26 1097.89,223.739 C1095.23,226.218 1093.9,229.041 1093.9,232.208 C1093.9,234.624 1094.75,236.828 1096.44,238.817 C1098.85,241.755 1104.61,245.661 1113.72,250.536 C1121.13,254.526 1126.2,257.585 1128.92,259.716 C1131.64,261.846 1133.73,264.356 1135.19,267.247 C1136.66,270.137 1137.39,273.161 1137.39,276.317 C1137.39,282.338 1135.06,287.526 1130.39,291.88 C1125.72,296.234 1119.72,298.411 1112.37,298.411 C1110.06,298.411 1107.89,298.239 1105.86,297.895 C1104.65,297.697 1102.14,296.981 1098.33,295.747 C1094.53,294.512 1092.11,293.895 1091.09,293.895 C1090.12,293.895 1089.35,294.19 1088.79,294.778 C1088.22,295.367 1087.8,296.578 1087.53,298.411 L1085.36,298.411 L1085.36,271.161 L1087.53,271.161 C1088.54,276.869 1089.9,281.14 1091.62,283.973 C1093.34,286.807 1095.97,289.161 1099.51,291.036 C1103.04,292.911 1106.92,293.848 1111.14,293.848 C1116.02,293.848 1119.88,292.559 1122.71,289.981 C1125.54,287.403 1126.95,284.354 1126.95,280.833 C1126.95,278.885 1126.41,276.914 1125.34,274.919 C1124.27,272.924 1122.6,271.067 1120.34,269.348 C1118.81,268.182 1114.65,265.692 1107.85,261.88 C1101.05,258.067 1096.22,255.028 1093.35,252.762 C1090.48,250.497 1088.3,247.997 1086.82,245.262 C1085.33,242.528 1084.59,239.52 1084.59,236.239 C1084.59,230.541 1086.78,225.632 1091.15,221.512 C1095.53,217.393 1101.1,215.333 1107.86,215.333 C1112.08,215.333 1116.55,216.364 1121.28,218.427 C1123.47,219.406 1125.01,219.895 1125.9,219.895 C1126.91,219.895 1127.74,219.593 1128.39,218.989 C1129.03,218.385 1129.56,217.166 1129.95,215.333 L1132.11,215.333 M1178.25,288.864 C1172.75,293.124 1169.29,295.583 1167.89,296.239 C1165.77,297.218 1163.52,297.708 1161.14,297.708 C1157.43,297.708 1154.38,296.44 1151.97,293.903 C1149.57,291.367 1148.37,288.026 1148.37,283.88 C1148.37,281.265 1148.96,278.999 1150.12,277.083 C1151.73,274.427 1154.51,271.927 1158.47,269.583 C1162.44,267.239 1169.03,264.39 1178.25,261.036 L1178.25,258.927 C1178.25,253.572 1177.4,249.898 1175.7,247.903 C1174,245.908 1171.53,244.911 1168.29,244.911 C1165.84,244.911 1163.88,245.578 1162.44,246.911 C1160.95,248.234 1160.2,249.755 1160.2,251.473 L1160.33,254.88 C1160.33,256.671 1159.87,258.057 1158.95,259.036 C1158.03,260.015 1156.83,260.505 1155.34,260.505 C1153.89,260.505 1152.71,259.997 1151.79,258.981 C1150.88,257.966 1150.42,256.578 1150.42,254.817 C1150.42,251.463 1152.14,248.38 1155.58,245.567 C1159.01,242.755 1163.84,241.348 1170.04,241.348 C1174.82,241.348 1178.72,242.145 1181.76,243.739 C1184.08,244.958 1185.78,246.854 1186.87,249.427 C1187.57,251.104 1187.92,254.541 1187.92,259.739 L1187.92,277.958 C1187.92,283.083 1188.02,286.221 1188.22,287.372 C1188.41,288.523 1188.74,289.294 1189.19,289.684 C1189.63,290.075 1190.15,290.27 1190.73,290.27 C1191.36,290.27 1191.9,290.135 1192.37,289.864 C1193.2,289.354 1194.78,287.927 1197.12,285.583 L1197.12,288.864 C1192.75,294.729 1188.57,297.661 1184.58,297.661 C1182.67,297.661 1181.15,296.994 1180.01,295.661 C1178.88,294.328 1178.29,292.062 1178.25,288.864 M1178.25,285.052 L1178.25,264.598 C1172.35,266.942 1168.54,268.604 1166.83,269.583 C1163.74,271.302 1161.54,273.098 1160.21,274.973 C1158.88,276.848 1158.22,278.901 1158.22,281.13 C1158.22,283.942 1159.06,286.276 1160.73,288.13 C1162.41,289.984 1164.34,290.911 1166.53,290.911 C1169.5,290.911 1173.4,288.958 1178.25,285.052 M1216.54,241.348 L1216.54,253.411 C1221.03,245.369 1225.64,241.348 1230.37,241.348 C1232.52,241.348 1234.29,242.002 1235.7,243.309 C1237.11,244.617 1237.81,246.13 1237.81,247.848 C1237.81,249.369 1237.3,250.658 1236.29,251.716 C1235.27,252.773 1234.06,253.302 1232.65,253.302 C1231.29,253.302 1229.76,252.627 1228.06,251.278 C1226.36,249.929 1225.1,249.255 1224.28,249.255 C1223.58,249.255 1222.82,249.645 1222,250.427 C1220.24,252.031 1218.42,254.666 1216.54,258.333 L1216.54,284.052 C1216.54,287.02 1216.91,289.27 1217.65,290.802 C1218.16,291.854 1219.07,292.731 1220.36,293.434 C1221.65,294.137 1223.5,294.489 1225.92,294.489 L1225.92,296.598 L1198.44,296.598 L1198.44,294.489 C1201.17,294.489 1203.21,294.057 1204.53,293.192 C1205.51,292.567 1206.2,291.572 1206.59,290.208 C1206.78,289.541 1206.87,287.645 1206.87,284.52 L1206.87,263.723 C1206.87,257.473 1206.75,253.752 1206.5,252.559 C1206.25,251.367 1205.78,250.497 1205.09,249.95 C1204.4,249.403 1203.56,249.13 1202.54,249.13 C1201.34,249.13 1199.97,249.427 1198.44,250.02 L1197.86,247.911 L1214.09,241.348 L1216.54,241.348 M1255.54,252.177 C1260.74,244.958 1266.35,241.348 1272.37,241.348 C1277.87,241.348 1282.67,243.7 1286.78,248.403 C1290.88,253.106 1292.94,259.541 1292.94,267.708 C1292.94,277.239 1289.77,284.916 1283.44,290.739 C1278.01,295.739 1271.96,298.239 1265.28,298.239 C1262.15,298.239 1258.98,297.671 1255.76,296.536 C1252.53,295.401 1249.24,293.703 1245.89,291.442 L1245.89,235.833 C1245.89,229.739 1245.74,225.989 1245.44,224.583 C1245.15,223.177 1244.69,222.221 1244.06,221.716 C1243.44,221.21 1242.65,220.958 1241.72,220.958 C1240.62,220.958 1239.26,221.27 1237.62,221.895 L1236.79,219.833 L1252.92,213.27 L1255.54,213.27 L1255.54,252.177 M1255.54,255.927 L1255.54,288.036 C1257.54,289.994 1259.61,291.471 1261.73,292.466 C1263.86,293.46 1266.03,293.958 1268.26,293.958 C1271.82,293.958 1275.13,292.005 1278.19,288.098 C1281.26,284.192 1282.79,278.51 1282.79,271.052 C1282.79,264.177 1281.26,258.893 1278.19,255.2 C1275.13,251.507 1271.64,249.661 1267.73,249.661 C1265.67,249.661 1263.6,250.187 1261.53,251.239 C1259.97,252.02 1257.97,253.583 1255.54,255.927 M1331.25,288.864 C1325.75,293.124 1322.29,295.583 1320.89,296.239 C1318.77,297.218 1316.52,297.708 1314.14,297.708 C1310.43,297.708 1307.38,296.44 1304.97,293.903 C1302.57,291.367 1301.37,288.026 1301.37,283.88 C1301.37,281.265 1301.96,278.999 1303.12,277.083 C1304.73,274.427 1307.51,271.927 1311.47,269.583 C1315.44,267.239 1322.03,264.39 1331.25,261.036 L1331.25,258.927 C1331.25,253.572 1330.4,249.898 1328.7,247.903 C1327,245.908 1324.53,244.911 1321.29,244.911 C1318.84,244.911 1316.88,245.578 1315.44,246.911 C1313.95,248.234 1313.2,249.755 1313.2,251.473 L1313.33,254.88 C1313.33,256.671 1312.87,258.057 1311.95,259.036 C1311.03,260.015 1309.83,260.505 1308.34,260.505 C1306.89,260.505 1305.71,259.997 1304.79,258.981 C1303.88,257.966 1303.42,256.578 1303.42,254.817 C1303.42,251.463 1305.14,248.38 1308.58,245.567 C1312.01,242.755 1316.84,241.348 1323.04,241.348 C1327.82,241.348 1331.72,242.145 1334.76,243.739 C1337.08,244.958 1338.78,246.854 1339.87,249.427 C1340.57,251.104 1340.92,254.541 1340.92,259.739 L1340.92,277.958 C1340.92,283.083 1341.02,286.221 1341.22,287.372 C1341.41,288.523 1341.74,289.294 1342.19,289.684 C1342.63,290.075 1343.15,290.27 1343.73,290.27 C1344.36,290.27 1344.9,290.135 1345.37,289.864 C1346.2,289.354 1347.78,287.927 1350.12,285.583 L1350.12,288.864 C1345.75,294.729 1341.57,297.661 1337.58,297.661 C1335.67,297.661 1334.15,296.994 1333.01,295.661 C1331.88,294.328 1331.29,292.062 1331.25,288.864 M1331.25,285.052 L1331.25,264.598 C1325.35,266.942 1321.54,268.604 1319.83,269.583 C1316.74,271.302 1314.54,273.098 1313.21,274.973 C1311.88,276.848 1311.22,278.901 1311.22,281.13 C1311.22,283.942 1312.06,286.276 1313.73,288.13 C1315.41,289.984 1317.34,290.911 1319.53,290.911 C1322.5,290.911 1326.4,288.958 1331.25,285.052 M1418.53,241.348 L1418.53,259.63 L1416.59,259.63 C1415.11,253.88 1413.21,249.971 1410.89,247.903 C1408.57,245.835 1405.61,244.802 1402.01,244.802 C1399.27,244.802 1397.07,245.523 1395.39,246.966 C1393.71,248.408 1392.87,250.01 1392.87,251.77 C1392.87,253.958 1393.5,255.833 1394.75,257.395 C1395.96,258.999 1398.41,260.697 1402.12,262.489 L1410.69,266.661 C1418.61,270.526 1422.58,275.619 1422.58,281.942 C1422.58,286.828 1420.73,290.765 1417.04,293.755 C1413.34,296.744 1409.21,298.239 1404.64,298.239 C1401.36,298.239 1397.61,297.651 1393.39,296.473 C1392.11,296.088 1391.06,295.895 1390.23,295.895 C1389.34,295.895 1388.63,296.406 1388.12,297.427 L1386.19,297.427 L1386.19,278.255 L1388.12,278.255 C1389.22,283.723 1391.31,287.846 1394.39,290.622 C1397.47,293.398 1400.93,294.786 1404.76,294.786 C1407.46,294.786 1409.66,293.994 1411.36,292.411 C1413.06,290.828 1413.9,288.921 1413.9,286.692 C1413.9,283.994 1412.96,281.729 1411.06,279.895 C1409.16,278.062 1405.39,275.739 1399.72,272.927 C1394.06,270.114 1390.35,267.572 1388.59,265.302 C1386.83,263.083 1385.95,260.27 1385.95,256.864 C1385.95,252.458 1387.46,248.77 1390.49,245.802 C1393.52,242.833 1397.44,241.348 1402.25,241.348 C1404.35,241.348 1406.91,241.796 1409.92,242.692 C1411.91,243.276 1413.24,243.567 1413.9,243.567 C1414.53,243.567 1415.02,243.432 1415.37,243.161 C1415.71,242.89 1416.12,242.286 1416.59,241.348 L1418.53,241.348 M1446.44,225.286 L1446.44,242.927 L1458.97,242.927 L1458.97,247.02 L1446.44,247.02 L1446.44,281.833 C1446.44,285.312 1446.93,287.656 1447.93,288.864 C1448.92,290.072 1450.2,290.677 1451.76,290.677 C1453.06,290.677 1454.31,290.276 1455.51,289.473 C1456.72,288.671 1457.66,287.489 1458.33,285.927 L1460.61,285.927 C1459.24,289.76 1457.31,292.643 1454.81,294.575 C1452.31,296.507 1449.73,297.473 1447.08,297.473 C1445.27,297.473 1443.51,296.976 1441.79,295.981 C1440.08,294.986 1438.81,293.562 1437.99,291.708 C1437.17,289.854 1436.76,286.989 1436.76,283.114 L1436.76,247.02 L1428.26,247.02 L1428.26,245.098 C1430.41,244.234 1432.61,242.776 1434.86,240.723 C1437.11,238.671 1439.11,236.239 1440.86,233.427 C1441.76,231.947 1443.01,229.234 1444.61,225.286 L1446.44,225.286 M1510.89,242.927 L1510.89,275.442 C1510.89,281.651 1511.04,285.45 1511.33,286.841 C1511.63,288.231 1512.1,289.2 1512.74,289.747 C1513.38,290.294 1514.13,290.567 1515,290.567 C1516.21,290.567 1517.57,290.234 1519.09,289.567 L1519.92,291.614 L1503.86,298.239 L1501.23,298.239 L1501.23,286.864 C1496.62,291.864 1493.1,295.01 1490.68,296.302 C1488.26,297.593 1485.7,298.239 1483,298.239 C1480,298.239 1477.39,297.369 1475.19,295.63 C1472.98,293.89 1471.44,291.653 1470.58,288.919 C1469.72,286.184 1469.29,282.317 1469.29,277.317 L1469.29,253.348 C1469.29,250.817 1469.02,249.062 1468.47,248.083 C1467.93,247.104 1467.12,246.351 1466.04,245.825 C1464.97,245.299 1463.03,245.057 1460.22,245.098 L1460.22,242.927 L1479.01,242.927 L1479.01,278.848 C1479.01,283.848 1479.88,287.13 1481.62,288.692 C1483.36,290.255 1485.46,291.036 1487.92,291.036 C1489.61,291.036 1491.51,290.507 1493.64,289.45 C1495.76,288.393 1498.29,286.38 1501.23,283.411 L1501.23,253.005 C1501.23,249.953 1500.67,247.89 1499.56,246.817 C1498.45,245.744 1496.13,245.171 1492.61,245.098 L1492.61,242.927 L1510.89,242.927 M1561.75,290.567 C1559.13,293.296 1556.58,295.257 1554.08,296.45 C1551.58,297.643 1548.88,298.239 1546,298.239 C1540.13,298.239 1535.01,295.789 1530.64,290.887 C1526.26,285.986 1524.08,279.687 1524.08,271.989 C1524.08,264.291 1526.5,257.249 1531.34,250.864 C1536.19,244.479 1542.41,241.286 1550.03,241.286 C1554.76,241.286 1558.66,242.791 1561.75,245.802 L1561.75,235.895 C1561.75,229.76 1561.6,225.989 1561.31,224.583 C1561.02,223.177 1560.56,222.221 1559.94,221.716 C1559.31,221.21 1558.53,220.958 1557.59,220.958 C1556.58,220.958 1555.23,221.27 1553.54,221.895 L1552.79,219.833 L1568.78,213.27 L1571.42,213.27 L1571.42,275.333 C1571.42,281.614 1571.57,285.45 1571.86,286.841 C1572.15,288.231 1572.62,289.2 1573.26,289.747 C1573.91,290.294 1574.66,290.567 1575.53,290.567 C1576.58,290.567 1577.99,290.234 1579.75,289.567 L1580.39,291.614 L1564.45,298.239 L1561.75,298.239 L1561.75,290.567 M1561.75,286.458 L1561.75,258.802 C1561.52,256.145 1560.82,253.723 1559.65,251.536 C1558.47,249.348 1556.92,247.697 1554.99,246.583 C1553.06,245.468 1551.17,244.911 1549.33,244.911 C1545.89,244.911 1542.83,246.458 1540.14,249.552 C1536.58,253.614 1534.79,259.552 1534.79,267.364 C1534.79,275.249 1536.51,281.291 1539.95,285.489 C1543.39,289.687 1547.22,291.786 1551.44,291.786 C1555,291.786 1558.44,290.01 1561.75,286.458 M1592.87,263.145 C1592.83,271.114 1594.76,277.364 1598.67,281.895 C1602.58,286.427 1607.16,288.692 1612.44,288.692 C1615.96,288.692 1619.01,287.723 1621.61,285.786 C1624.2,283.848 1626.38,280.536 1628.14,275.848 L1629.95,277.02 C1629.14,282.374 1626.76,287.249 1622.81,291.645 C1618.86,296.041 1613.92,298.239 1607.98,298.239 C1601.53,298.239 1596.02,295.729 1591.43,290.708 C1586.84,285.687 1584.54,278.937 1584.54,270.458 C1584.54,261.281 1586.9,254.124 1591.61,248.989 C1596.32,243.854 1602.22,241.286 1609.33,241.286 C1615.35,241.286 1620.29,243.268 1624.15,247.231 C1628.02,251.195 1629.95,256.499 1629.95,263.145 L1592.87,263.145 M1592.87,259.739 L1617.72,259.739 C1617.52,256.302 1617.11,253.88 1616.48,252.473 C1615.5,250.286 1614.05,248.567 1612.12,247.317 C1610.18,246.067 1608.16,245.442 1606.04,245.442 C1602.81,245.442 1599.91,246.703 1597.35,249.223 C1594.79,251.744 1593.3,255.249 1592.87,259.739 M1652.48,252.708 C1658.77,245.135 1664.77,241.348 1670.48,241.348 C1673.41,241.348 1675.93,242.08 1678.04,243.544 C1680.15,245.007 1681.83,247.416 1683.08,250.77 C1683.93,253.114 1684.36,256.708 1684.36,261.552 L1684.36,284.473 C1684.36,287.869 1684.63,290.171 1685.19,291.38 C1685.61,292.359 1686.31,293.122 1687.26,293.669 C1688.22,294.216 1689.99,294.489 1692.56,294.489 L1692.56,296.598 L1666.03,296.598 L1666.03,294.489 L1667.14,294.489 C1669.64,294.489 1671.39,294.109 1672.38,293.348 C1673.38,292.588 1674.07,291.463 1674.47,289.973 C1674.62,289.39 1674.7,287.557 1674.7,284.473 L1674.7,262.489 C1674.7,257.614 1674.07,254.072 1672.79,251.864 C1671.52,249.656 1669.38,248.552 1666.37,248.552 C1661.73,248.552 1657.1,251.088 1652.48,256.161 L1652.48,284.473 C1652.48,288.098 1652.7,290.343 1653.14,291.208 C1653.68,292.343 1654.43,293.174 1655.39,293.7 C1656.35,294.226 1658.29,294.489 1661.22,294.489 L1661.22,296.598 L1634.67,296.598 L1634.67,294.489 L1635.84,294.489 C1638.58,294.489 1640.43,293.796 1641.39,292.411 C1642.35,291.026 1642.83,288.38 1642.83,284.473 L1642.83,264.552 C1642.83,258.104 1642.68,254.177 1642.38,252.77 C1642.08,251.364 1641.63,250.406 1641.03,249.895 C1640.42,249.385 1639.62,249.13 1638.61,249.13 C1637.51,249.13 1636.2,249.427 1634.67,250.02 L1633.79,247.911 L1649.97,241.348 L1652.48,241.348 L1652.48,252.708 M1712.44,225.286 L1712.44,242.927 L1724.97,242.927 L1724.97,247.02 L1712.44,247.02 L1712.44,281.833 C1712.44,285.312 1712.93,287.656 1713.93,288.864 C1714.92,290.072 1716.2,290.677 1717.76,290.677 C1719.06,290.677 1720.31,290.276 1721.51,289.473 C1722.72,288.671 1723.66,287.489 1724.33,285.927 L1726.61,285.927 C1725.24,289.76 1723.31,292.643 1720.81,294.575 C1718.31,296.507 1715.73,297.473 1713.08,297.473 C1711.27,297.473 1709.51,296.976 1707.79,295.981 C1706.08,294.986 1704.81,293.562 1703.99,291.708 C1703.17,289.854 1702.76,286.989 1702.76,283.114 L1702.76,247.02 L1694.26,247.02 L1694.26,245.098 C1696.41,244.234 1698.61,242.776 1700.86,240.723 C1703.11,238.671 1705.11,236.239 1706.86,233.427 C1707.76,231.947 1709.01,229.234 1710.61,225.286 L1712.44,225.286 M1743.5,213.27 C1745.13,213.27 1746.53,213.848 1747.69,215.005 C1748.84,216.161 1749.42,217.557 1749.42,219.192 C1749.42,220.838 1748.84,222.247 1747.69,223.419 C1746.53,224.591 1745.13,225.177 1743.5,225.177 C1741.85,225.177 1740.44,224.591 1739.27,223.419 C1738.1,222.247 1737.51,220.838 1737.51,219.192 C1737.51,217.557 1738.09,216.161 1739.25,215.005 C1740.4,213.848 1741.82,213.27 1743.5,213.27 M1748.36,241.348 L1748.36,284.473 C1748.36,287.828 1748.6,290.062 1749.09,291.177 C1749.58,292.291 1750.31,293.122 1751.26,293.669 C1752.22,294.216 1753.97,294.489 1756.5,294.489 L1756.5,296.598 L1730.44,296.598 L1730.44,294.489 C1733.05,294.489 1734.81,294.234 1735.7,293.723 C1736.6,293.213 1737.31,292.372 1737.84,291.2 C1738.37,290.028 1738.64,287.786 1738.64,284.473 L1738.64,263.786 C1738.64,257.963 1738.46,254.192 1738.11,252.473 C1737.84,251.223 1737.41,250.354 1736.82,249.864 C1736.23,249.374 1735.43,249.13 1734.42,249.13 C1733.33,249.13 1732,249.427 1730.44,250.02 L1729.61,247.911 L1745.78,241.348 L1748.36,241.348 M1781.29,213.27 L1781.29,284.473 C1781.29,287.828 1781.54,290.052 1782.03,291.145 C1782.52,292.239 1783.27,293.07 1784.29,293.637 C1785.3,294.205 1787.2,294.489 1789.97,294.489 L1789.97,296.598 L1763.67,296.598 L1763.67,294.489 C1766.13,294.489 1767.81,294.234 1768.7,293.723 C1769.6,293.213 1770.3,292.372 1770.81,291.2 C1771.32,290.028 1771.58,287.786 1771.58,284.473 L1771.58,235.723 C1771.58,229.661 1771.44,225.937 1771.16,224.552 C1770.89,223.166 1770.45,222.221 1769.84,221.716 C1769.24,221.21 1768.47,220.958 1767.53,220.958 C1766.52,220.958 1765.23,221.27 1763.67,221.895 L1762.67,219.833 L1778.67,213.27 L1781.29,213.27 M1822.09,241.348 C1830.22,241.348 1836.74,244.432 1841.67,250.598 C1845.85,255.869 1847.94,261.927 1847.94,268.77 C1847.94,273.572 1846.78,278.434 1844.47,283.356 C1842.17,288.278 1838.99,291.989 1834.95,294.489 C1830.91,296.989 1826.41,298.239 1821.45,298.239 C1813.37,298.239 1806.94,295.015 1802.17,288.567 C1798.15,283.14 1796.14,277.046 1796.14,270.286 C1796.14,265.369 1797.36,260.479 1799.8,255.614 C1802.25,250.749 1805.46,247.156 1809.44,244.833 C1813.43,242.51 1817.64,241.348 1822.09,241.348 M1820.28,245.145 C1818.21,245.145 1816.13,245.762 1814.04,246.997 C1811.95,248.231 1810.26,250.39 1808.97,253.473 C1807.67,256.557 1807.03,260.52 1807.03,265.364 C1807.03,273.177 1808.58,279.916 1811.69,285.583 C1814.8,291.249 1818.89,294.083 1823.97,294.083 C1827.76,294.083 1830.88,292.52 1833.34,289.395 C1835.8,286.27 1837.03,280.895 1837.03,273.27 C1837.03,263.739 1834.98,256.239 1830.89,250.77 C1828.11,247.02 1824.57,245.145 1820.28,245.145 M1871.54,241.348 L1871.54,253.411 C1876.03,245.369 1880.64,241.348 1885.37,241.348 C1887.52,241.348 1889.29,242.002 1890.7,243.309 C1892.11,244.617 1892.81,246.13 1892.81,247.848 C1892.81,249.369 1892.3,250.658 1891.29,251.716 C1890.27,252.773 1889.06,253.302 1887.65,253.302 C1886.29,253.302 1884.76,252.627 1883.06,251.278 C1881.36,249.929 1880.1,249.255 1879.28,249.255 C1878.58,249.255 1877.82,249.645 1877,250.427 C1875.24,252.031 1873.42,254.666 1871.54,258.333 L1871.54,284.052 C1871.54,287.02 1871.91,289.27 1872.65,290.802 C1873.16,291.854 1874.07,292.731 1875.36,293.434 C1876.65,294.137 1878.5,294.489 1880.92,294.489 L1880.92,296.598 L1853.44,296.598 L1853.44,294.489 C1856.17,294.489 1858.21,294.057 1859.53,293.192 C1860.51,292.567 1861.2,291.572 1861.59,290.208 C1861.78,289.541 1861.87,287.645 1861.87,284.52 L1861.87,263.723 C1861.87,257.473 1861.75,253.752 1861.5,252.559 C1861.25,251.367 1860.78,250.497 1860.09,249.95 C1859.4,249.403 1858.56,249.13 1857.54,249.13 C1856.34,249.13 1854.97,249.427 1853.44,250.02 L1852.86,247.911 L1869.09,241.348 L1871.54,241.348 "/>
<path class="MeasureNumber" d="M142.045,992.295 C139.357,992.295 137.193,991.22 135.553,989.069 C133.912,986.918 133.092,984.077 133.092,980.545 C133.092,979.462 133.198,978.34 133.412,977.178 C133.626,976.017 134.092,974.699 134.81,973.225 C135.529,971.751 136.461,970.428 137.607,969.256 C138.753,968.084 140.36,967.038 142.428,966.116 C144.495,965.194 146.878,964.613 149.576,964.373 L149.654,965.014 C146.508,965.524 143.881,966.801 141.771,968.842 C139.662,970.884 138.342,973.41 137.81,976.42 C139.06,975.702 140.006,975.235 140.646,975.022 C141.287,974.808 142.05,974.702 142.935,974.702 C145.227,974.702 147.053,975.444 148.412,976.928 C149.771,978.413 150.451,980.415 150.451,982.936 C150.451,985.696 149.67,987.946 148.107,989.686 C146.545,991.426 144.524,992.295 142.045,992.295 M141.404,976.452 C139.592,976.452 138.373,976.85 137.748,977.647 C137.123,978.444 136.81,979.623 136.81,981.186 C136.81,984.259 137.318,986.678 138.334,988.444 C139.349,990.209 140.737,991.092 142.498,991.092 C143.904,991.092 144.982,990.501 145.732,989.319 C146.482,988.136 146.857,986.462 146.857,984.295 C146.857,981.795 146.383,979.863 145.435,978.498 C144.487,977.134 143.144,976.452 141.404,976.452"/>
<polyline class="BarLine" fill="none" stroke="#000000" stroke-width="4.00" stroke-linejoin="bevel" points="2821.72,1040.73 2821.72,1142.73"/>
<polyline class="BarLine" fill="none" stroke="#000000" stroke-width="12.50" stroke-linejoin="bevel" points="2829.22,1040.73 2829.22,1142.73"/>
<polyline class="BarLine" fill="none" stroke="#000000" stroke-width="4.00" stroke-linejoin="bevel" points="2550.24,1040.73 2550.24,1142.73"/>
<path class="BarLine" d="M2090.79,1083.23 C2089.68,1082.13 2089.13,1080.8 2089.13,1079.23 C2089.13,1077.67 2089.68,1076.33 2090.79,1075.23 C2091.9,1074.12 2093.24,1073.56 2094.8,1073.56 C2096.36,1073.56 2097.7,1074.12 2098.8,1075.23 C2099.91,1076.33 2100.46,1077.67 2100.46,1079.23 C2100.46,1080.8 2099.91,1082.13 2098.8,1083.23 C2097.7,1084.34 2096.36,1084.89 2094.8,1084.89 C2093.24,1084.89 2091.9,1084.34 2090.79,1083.23"/>
<path class="BarLine" d="M2090.79,1108.23 C2089.68,1107.13 2089.13,1105.8 2089.13,1104.23 C2089.13,1102.67 2089.68,1101.33 2090.79,1100.23 C2091.9,1099.12 2093.24,1098.56 2094.8,1098.56 C2096.36,1098.56 2097.7,1099.12 2098.8,1100.23 C2099.91,1101.33 2100.46,1102.67 2100.46,1104.23 C2100.46,1105.8 2099.91,1107.13 2098.8,1108.23 C2097.7,1109.34 2096.36,1109.89 2094.8,1109.89 C2093.24,1109.89 2091.9,1109.34 2090.79,1108.23"/>
<polyline class="BarLine" fill="none" stroke="#000000" stroke-width="4.00" stroke-linejoin="bevel" points="2110.54,1040.73 2110.54,1142.73"/>
<polyline class="BarLine" fill="none" stroke="#000000" stroke-width="12.50" stroke-linejoin="bevel" points="2118.04,1040.73 2118.04,1142.73"/>
<polyline class="BarLine" fill="none" stroke="#000000" stroke-width="4.00" stroke-linejoin="bevel" points="1819.65,1040.73 1819.65,1142.73"/>
<polyline class="BarLine" fill="none" stroke="#000000" stroke-width="4.00" stroke-linejoin="bevel" points="1328.99,1040.73 1328.99,1142.73"/>
<polyline class="BarLine" fill="none" stroke="#000000" stroke-width="4.00" stroke-linejoin="bevel" points="838.319,1040.73 838.319,1142.73"/>
<polyline class="BarLine" fill="none" stroke="#000000" stroke-width="12.50" stroke-linejoin="bevel" points="350.959,1040.73 350.959,1142.73"/>
<polyline class="BarLine" fill="none" stroke="#000000" stroke-width="4.00" stroke-linejoin="bevel" points="358.459,1040.73 358.459,1142.73"/>
<path class="BarLine" d="M370.201,1083.23 C369.092,1082.13 368.537,1080.8 368.537,1079.23 C368.537,1077.67 369.092,1076.33 370.201,1075.23 C371.311,1074.12 372.646,1073.56 374.209,1073.56 C375.771,1073.56 377.105,1074.12 378.209,1075.23 C379.313,1076.33 379.865,1077.67 379.865,1079.23 C379.865,1080.8 379.313,1082.13 378.209,1083.23 C377.105,1084.34 375.771,1084.89 374.209,1084.89 C372.646,1084.89 371.311,1084.34 370.201,1083.23"/>
<path class="BarLine" d="M370.201,1108.23 C369.092,1107.13 368.537,1105.8 368.537,1104.23 C368.537,1102.67 369.092,1101.33 370.201,1100.23 C371.311,1099.12 372.646,1098.56 374.209,1098.56 C375.771,1098.56 377.105,1099.12 378.209,1100.23 C379.313,1101.33 379.865,1102.67 379.865,1104.23 C379.865,1105.8 379.313,1107.13 378.209,1108.23 C377.105,1109.34 375.771,1109.89 374.209,1109.89 C372.646,1109.89 371.311,1109.34 370.201,1108.23"/>
<polyline class="BarLine" fill="none" stroke="#000000" stroke-width="4.00" stroke-linejoin="bevel" points="2833.47,565.733 2833.47,667.733"/>
<path class="BarLine" d="M2328.37,608.233 C2327.26,607.128 2326.71,605.795 2326.71,604.233 C2326.71,602.67 2327.26,601.334 2328.37,600.225 C2329.48,599.115 2330.82,598.561 2332.38,598.561 C2333.94,598.561 2335.28,599.115 2336.38,600.225 C2337.49,601.334 2338.04,602.67 2338.04,604.233 C2338.04,605.795 2337.49,607.128 2336.38,608.233 C2335.28,609.337 2333.94,609.889 2332.38,609.889 C2330.82,609.889 2329.48,609.337 2328.37,608.233"/>
<path class="BarLine" d="M2328.37,633.233 C2327.26,632.128 2326.71,630.795 2326.71,629.233 C2326.71,627.67 2327.26,626.334 2328.37,625.225 C2329.48,624.115 2330.82,623.561 2332.38,623.561 C2333.94,623.561 2335.28,624.115 2336.38,625.225 C2337.49,626.334 2338.04,627.67 2338.04,629.233 C2338.04,630.795 2337.49,632.128 2336.38,633.233 C2335.28,634.337 2333.94,634.889 2332.38,634.889 C2330.82,634.889 2329.48,634.337 2328.37,633.233"/>
<polyline class="BarLine" fill="none" stroke="#000000" stroke-width="4.00" stroke-linejoin="bevel" points="2348.12,565.733 2348.12,667.733"/>
<polyline class="BarLine" fill="none" stroke="#000000" stroke-width="12.50" stroke-linejoin="bevel" points="2355.62,565.733 2355.62,667.733"/>
<polyline class="BarLine" fill="none" stroke="#000000" stroke-width="4.00" stroke-linejoin="bevel" points="1845.49,565.733 1845.49,667.733"/>
<polyline class="BarLine" fill="none" stroke="#000000" stroke-width="4.00" stroke-linejoin="bevel" points="1396.33,565.733 1396.33,667.733"/>
<polyline class="BarLine" fill="none" stroke="#000000" stroke-width="4.00" stroke-linejoin="bevel" points="947.168,565.733 947.168,667.733"/>
<polyline class="BarLine" fill="none" stroke="#000000" stroke-width="12.50" stroke-linejoin="bevel" points="403.693,565.733 403.693,667.733"/>
<polyline class="BarLine" fill="none" stroke="#000000" stroke-width="4.00" stroke-linejoin="bevel" points="411.193,565.733 411.193,667.733"/>
<path class="BarLine" d="M422.936,608.233 C421.826,607.128 421.272,605.795 421.272,604.233 C421.272,602.67 421.826,601.334 422.936,600.225 C424.045,599.115 425.381,598.561 426.943,598.561 C428.506,598.561 429.839,599.115 430.943,600.225 C432.048,601.334 432.6,602.67 432.6,604.233 C432.6,605.795 432.048,607.128 430.943,608.233 C429.839,609.337 428.506,609.889 426.943,609.889 C425.381,609.889 424.045,609.337 422.936,608.233"/>
<path class="BarLine" d="M422.936,633.233 C421.826,632.128 421.272,630.795 421.272,629.233 C421.272,627.67 421.826,626.334 422.936,625.225 C424.045,624.115 425.381,623.561 426.943,623.561 C428.506,623.561 429.839,624.115 430.943,625.225 C432.048,626.334 432.6,627.67 432.6,629.233 C432.6,630.795 432.048,632.128 430.943,633.233 C429.839,634.337 428.506,634.889 426.943,634.889 C425.381,634.889 424.045,634.337 422.936,633.233"/>
<path class="Accidental" d="M1728.82,1097.89 C1728.82,1099.13 1728.2,1099.75 1726.96,1099.75 C1725.73,1099.75 1725.11,1099.13 1725.11,1097.89 L1725.11,1083.44 L1716.82,1086.56 L1716.82,1102.37 C1716.82,1103.61 1716.2,1104.23 1714.96,1104.23 C1713.72,1104.23 1713.1,1103.61 1713.1,1102.37 L1713.1,1087.83 L1709.97,1089 C1709.91,1089.06 1709.65,1089.09 1709.19,1089.09 C1708.67,1089.09 1708.21,1088.9 1707.82,1088.51 C1707.43,1088.12 1707.24,1087.66 1707.24,1087.14 L1707.24,1081.09 C1707.24,1080.11 1707.66,1079.49 1708.5,1079.23 L1713.1,1077.67 L1713.1,1061.65 L1709.97,1062.73 C1709.91,1062.8 1709.65,1062.83 1709.19,1062.83 C1708.67,1062.83 1708.21,1062.63 1707.82,1062.24 C1707.43,1061.85 1707.24,1061.39 1707.24,1060.87 L1707.24,1054.81 C1707.24,1053.9 1707.66,1053.32 1708.5,1053.06 L1713.1,1051.3 L1713.1,1035.58 C1713.1,1034.34 1713.72,1033.72 1714.96,1033.72 C1716.2,1033.72 1716.82,1034.34 1716.82,1035.58 L1716.82,1050.03 L1725.11,1046.9 L1725.11,1031.09 C1725.11,1029.85 1725.73,1029.23 1726.96,1029.23 C1728.2,1029.23 1728.82,1029.85 1728.82,1031.09 L1728.82,1045.64 L1732.05,1044.47 C1732.11,1044.4 1732.34,1044.37 1732.72,1044.37 C1733.18,1044.37 1733.67,1044.57 1734.19,1044.95 C1734.59,1045.35 1734.78,1045.81 1734.78,1046.33 L1734.78,1052.37 C1734.78,1053.29 1734.33,1053.91 1733.41,1054.23 L1728.82,1055.8 L1728.82,1071.81 L1732.05,1070.73 C1732.11,1070.67 1732.34,1070.64 1732.72,1070.64 C1733.18,1070.64 1733.67,1070.84 1734.19,1071.23 C1734.59,1071.62 1734.78,1072.07 1734.78,1072.59 L1734.78,1078.65 C1734.78,1079.5 1734.33,1080.08 1733.41,1080.4 L1728.82,1082.17 L1728.82,1097.89 M1725.11,1057.26 L1716.82,1060.19 L1716.82,1076.2 L1725.11,1073.28 L1725.11,1057.26 "/>
<path class="Accidental" d="M1009.82,1135.39 C1009.82,1136.63 1009.2,1137.25 1007.96,1137.25 C1006.73,1137.25 1006.11,1136.63 1006.11,1135.39 L1006.11,1120.94 L997.816,1124.06 L997.816,1139.87 C997.816,1141.11 997.196,1141.73 995.956,1141.73 C994.717,1141.73 994.097,1141.11 994.097,1139.87 L994.097,1125.33 L990.972,1126.5 C990.909,1126.56 990.649,1126.59 990.191,1126.59 C989.67,1126.59 989.214,1126.4 988.823,1126.01 C988.433,1125.62 988.238,1125.16 988.238,1124.64 L988.238,1118.59 C988.238,1117.61 988.659,1116.99 989.503,1116.73 L994.097,1115.17 L994.097,1099.15 L990.972,1100.23 C990.909,1100.3 990.649,1100.33 990.191,1100.33 C989.67,1100.33 989.214,1100.13 988.823,1099.74 C988.433,1099.35 988.238,1098.89 988.238,1098.37 L988.238,1092.31 C988.238,1091.4 988.659,1090.82 989.503,1090.56 L994.097,1088.8 L994.097,1073.08 C994.097,1071.84 994.717,1071.22 995.956,1071.22 C997.196,1071.22 997.816,1071.84 997.816,1073.08 L997.816,1087.53 L1006.11,1084.4 L1006.11,1068.59 C1006.11,1067.35 1006.73,1066.73 1007.96,1066.73 C1009.2,1066.73 1009.82,1067.35 1009.82,1068.59 L1009.82,1083.14 L1013.05,1081.97 C1013.11,1081.9 1013.34,1081.87 1013.72,1081.87 C1014.18,1081.87 1014.67,1082.07 1015.19,1082.45 C1015.59,1082.85 1015.78,1083.31 1015.78,1083.83 L1015.78,1089.87 C1015.78,1090.79 1015.33,1091.41 1014.41,1091.73 L1009.82,1093.3 L1009.82,1109.31 L1013.05,1108.23 C1013.11,1108.17 1013.34,1108.14 1013.72,1108.14 C1014.18,1108.14 1014.67,1108.34 1015.19,1108.73 C1015.59,1109.12 1015.78,1109.57 1015.78,1110.09 L1015.78,1116.15 C1015.78,1117 1015.33,1117.58 1014.41,1117.9 L1009.82,1119.67 L1009.82,1135.39 M1006.11,1094.76 L997.816,1097.69 L997.816,1113.7 L1006.11,1110.78 L1006.11,1094.76 "/>
<polyline class="LedgerLine" fill="none" stroke="#000000" stroke-width="3.00" stroke-linecap="square" stroke-linejoin="bevel" points="2206.9,541.733 2254.82,541.733"/>
<polyline class="Stem" fill="none" stroke="#000000" stroke-width="3.25" stroke-linecap="round" stroke-linejoin="bevel" points="2584.77,1095.65 2584.77,1169.86"/>
<polyline class="Stem" fill="none" stroke="#000000" stroke-width="3.25" stroke-linecap="round" stroke-linejoin="bevel" points="2447.39,1083.93 2447.39,1147.98"/>
<polyline class="Stem" fill="none" stroke="#000000" stroke-width="3.25" stroke-linecap="round" stroke-linejoin="bevel" points="2344.92,1058.93 2344.92,1135.48"/>
<polyline class="Stem" fill="none" stroke="#000000" stroke-width="3.25" stroke-linecap="round" stroke-linejoin="bevel" points="2280.87,1083.93 2280.87,1166.73"/>
<polyline class="Stem" fill="none" stroke="#000000" stroke-width="3.25" stroke-linecap="round" stroke-linejoin="bevel" points="2155.92,1071.43 2155.92,1160.48"/>
<polyline class="Stem" fill="none" stroke="#000000" stroke-width="3.25" stroke-linecap="round" stroke-linejoin="bevel" points="1854.18,1058.15 1854.18,1141.73"/>
<polyline class="Stem" fill="none" stroke="#000000" stroke-width="3.25" stroke-linecap="round" stroke-linejoin="bevel" points="1741.9,1071.43 1741.9,1141.73"/>
<polyline class="Stem" fill="none" stroke="#000000" stroke-width="3.25" stroke-linecap="round" stroke-linejoin="bevel" points="1590.94,1071.43 1590.94,1141.73"/>
<polyline class="Stem" fill="none" stroke="#000000" stroke-width="3.25" stroke-linecap="round" stroke-linejoin="bevel" points="1513.57,1083.93 1513.57,1166.73"/>
<polyline class="Stem" fill="none" stroke="#000000" stroke-width="3.25" stroke-linecap="round" stroke-linejoin="bevel" points="1362.61,1071.43 1362.61,1160.48"/>
<polyline class="Stem" fill="none" stroke="#000000" stroke-width="3.25" stroke-linecap="round" stroke-linejoin="bevel" points="1251.23,1083.93 1251.23,1160.48"/>
<polyline class="Stem" fill="none" stroke="#000000" stroke-width="3.25" stroke-linecap="round" stroke-linejoin="bevel" points="1100.28,1096.43 1100.28,1166.73"/>
<polyline class="Stem" fill="none" stroke="#000000" stroke-width="3.25" stroke-linecap="round" stroke-linejoin="bevel" points="1052.57,1099.54 1052.57,1022.98"/>
<polyline class="Stem" fill="none" stroke="#000000" stroke-width="3.25" stroke-linecap="round" stroke-linejoin="bevel" points="901.608,1087.04 901.608,1016.73"/>
<polyline class="Stem" fill="none" stroke="#000000" stroke-width="3.25" stroke-linecap="round" stroke-linejoin="bevel" points="735.47,1083.93 735.47,1147.98"/>
<polyline class="Stem" fill="none" stroke="#000000" stroke-width="3.25" stroke-linecap="round" stroke-linejoin="bevel" points="632.997,1058.93 632.997,1135.48"/>
<polyline class="Stem" fill="none" stroke="#000000" stroke-width="3.25" stroke-linecap="round" stroke-linejoin="bevel" points="568.95,1058.93 568.95,1135.48"/>
<polyline class="Stem" fill="none" stroke="#000000" stroke-width="3.25" stroke-linecap="round" stroke-linejoin="bevel" points="443.998,1058.93 443.998,1135.48"/>
<polyline class="Stem" fill="none" stroke="#000000" stroke-width="3.25" stroke-linecap="round" stroke-linejoin="bevel" points="2723.19,596.428 2723.19,666.733"/>
<polyline class="Stem" fill="none" stroke="#000000" stroke-width="3.25" stroke-linecap="round" stroke-linejoin="bevel" points="2613.3,583.928 2613.3,660.483"/>
<polyline class="Stem" fill="none" stroke="#000000" stroke-width="3.25" stroke-linecap="round" stroke-linejoin="bevel" points="2503.4,608.928 2503.4,672.983"/>
<polyline class="Stem" fill="none" stroke="#000000" stroke-width="3.25" stroke-linecap="round" stroke-linejoin="bevel" points="2393.5,596.428 2393.5,666.733"/>
<polyline class="Stem" fill="none" stroke="#000000" stroke-width="3.25" stroke-linecap="round" stroke-linejoin="bevel" points="2216.03,546.428 2216.03,616.733"/>
<polyline class="Stem" fill="none" stroke="#000000" stroke-width="3.25" stroke-linecap="round" stroke-linejoin="bevel" points="2103.72,558.928 2103.72,622.983"/>
<polyline class="Stem" fill="none" stroke="#000000" stroke-width="3.25" stroke-linecap="round" stroke-linejoin="bevel" points="1991.42,558.928 1991.42,635.483"/>
<polyline class="Stem" fill="none" stroke="#000000" stroke-width="3.25" stroke-linecap="round" stroke-linejoin="bevel" points="1879.11,571.428 1879.11,641.733"/>
<polyline class="Stem" fill="none" stroke="#000000" stroke-width="3.25" stroke-linecap="round" stroke-linejoin="bevel" points="1764.51,596.428 1764.51,666.733"/>
<polyline class="Stem" fill="none" stroke="#000000" stroke-width="3.25" stroke-linecap="round" stroke-linejoin="bevel" points="1607.27,583.928 1607.27,660.483"/>
<polyline class="Stem" fill="none" stroke="#000000" stroke-width="3.25" stroke-linecap="round" stroke-linejoin="bevel" points="1429.95,571.428 1429.95,654.233"/>
<polyline class="Stem" fill="none" stroke="#000000" stroke-width="3.25" stroke-linecap="round" stroke-linejoin="bevel" points="1315.35,596.428 1315.35,666.733"/>
<polyline class="Stem" fill="none" stroke="#000000" stroke-width="3.25" stroke-linecap="round" stroke-linejoin="bevel" points="1158.11,583.928 1158.11,660.483"/>
<polyline class="Stem" fill="none" stroke="#000000" stroke-width="3.25" stroke-linecap="round" stroke-linejoin="bevel" points="980.793,571.428 980.793,654.233"/>
<polyline class="Stem" fill="none" stroke="#000000" stroke-width="3.25" stroke-linecap="round" stroke-linejoin="bevel" points="865.03,558.928 865.03,635.483"/>
<polyline class="Stem" fill="none" stroke="#000000" stroke-width="3.25" stroke-linecap="round" stroke-linejoin="bevel" points="705.513,571.428 705.513,641.733"/>
<polyline class="Stem" fill="none" stroke="#000000" stroke-width="3.25" stroke-linecap="round" stroke-linejoin="bevel" points="623.75,558.928 623.75,691.733"/>
<polyline class="Stem" fill="none" stroke="#000000" stroke-width="3.25" stroke-linecap="round" stroke-linejoin="bevel" points="464.232,633.928 464.232,710.483"/>
<path class="Note" d="M2614.69,1085.19 C2614.69,1084.08 2614.27,1083.14 2613.42,1082.36 C2612.57,1081.51 2611.59,1081.09 2610.49,1081.09 C2608.54,1081.09 2604.6,1083.05 2598.67,1086.95 C2592.55,1090.92 2588.8,1093.75 2587.44,1095.45 C2586.72,1096.36 2586.36,1097.3 2586.36,1098.28 C2586.36,1099.38 2586.79,1100.33 2587.64,1101.11 C2588.42,1101.95 2589.4,1102.37 2590.56,1102.37 C2592.45,1102.37 2596.42,1100.42 2602.49,1096.51 C2608.48,1092.61 2612.18,1089.77 2613.61,1088.01 C2614.33,1087.17 2614.69,1086.23 2614.69,1085.19 M2609.52,1077.97 C2615.11,1077.97 2617.91,1080.37 2617.91,1085.19 C2617.91,1087.53 2617.23,1090.26 2615.86,1093.39 C2614.5,1096.45 2612.67,1098.8 2610.39,1100.42 C2605.38,1103.81 2599.1,1105.5 2591.55,1105.5 C2585.94,1105.5 2583.14,1103.09 2583.14,1098.28 C2583.14,1096.13 2583.82,1093.43 2585.19,1090.17 C2586.49,1087.05 2588.31,1084.67 2590.66,1083.05 C2595.68,1079.66 2601.96,1077.97 2609.52,1077.97"/>
<path class="Note" d="M2467.73,1065.47 C2470.86,1065.47 2473.5,1066.28 2475.66,1067.9 C2477.67,1069.67 2478.67,1071.88 2478.67,1074.55 C2478.67,1079.03 2476.36,1083.23 2471.75,1087.14 C2467.06,1091.05 2462.05,1093 2456.7,1093 C2453.58,1093 2450.94,1092.19 2448.8,1090.56 C2446.78,1088.8 2445.77,1086.59 2445.77,1083.92 C2445.77,1079.43 2448.11,1075.23 2452.8,1071.33 C2457.36,1067.42 2462.34,1065.47 2467.73,1065.47"/>
<path class="Note" d="M2365.26,1040.47 C2368.39,1040.47 2371.03,1041.28 2373.18,1042.9 C2375.19,1044.67 2376.2,1046.88 2376.2,1049.55 C2376.2,1054.03 2373.89,1058.23 2369.28,1062.14 C2364.59,1066.05 2359.57,1068 2354.23,1068 C2351.1,1068 2348.47,1067.19 2346.32,1065.56 C2344.3,1063.8 2343.29,1061.59 2343.29,1058.92 C2343.29,1054.43 2345.64,1050.23 2350.32,1046.33 C2354.89,1042.42 2359.87,1040.47 2365.26,1040.47"/>
<path class="Note" d="M2301.21,1065.47 C2304.34,1065.47 2306.98,1066.28 2309.14,1067.9 C2311.15,1069.67 2312.15,1071.88 2312.15,1074.55 C2312.15,1079.03 2309.85,1083.23 2305.23,1087.14 C2300.54,1091.05 2295.53,1093 2290.18,1093 C2287.06,1093 2284.42,1092.19 2282.28,1090.56 C2280.26,1088.8 2279.25,1086.59 2279.25,1083.92 C2279.25,1079.43 2281.59,1075.23 2286.28,1071.33 C2290.84,1067.42 2295.82,1065.47 2301.21,1065.47"/>
<path class="Note" d="M2176.26,1052.97 C2179.39,1052.97 2182.03,1053.78 2184.18,1055.4 C2186.19,1057.17 2187.2,1059.38 2187.2,1062.05 C2187.2,1066.53 2184.89,1070.73 2180.28,1074.64 C2175.59,1078.55 2170.57,1080.5 2165.23,1080.5 C2162.11,1080.5 2159.47,1079.69 2157.32,1078.06 C2155.3,1076.3 2154.29,1074.09 2154.29,1071.42 C2154.29,1066.93 2156.64,1062.73 2161.32,1058.83 C2165.89,1054.92 2170.87,1052.97 2176.26,1052.97"/>
<path class="Note" d="M1884.1,1047.69 C1884.1,1046.58 1883.68,1045.64 1882.84,1044.86 C1881.98,1044.01 1881,1043.59 1879.9,1043.59 C1877.95,1043.59 1874.01,1045.55 1868.09,1049.45 C1861.96,1053.42 1858.22,1056.25 1856.85,1057.95 C1856.13,1058.86 1855.77,1059.8 1855.77,1060.78 C1855.77,1061.88 1856.2,1062.83 1857.05,1063.61 C1857.84,1064.45 1858.81,1064.87 1859.98,1064.87 C1861.86,1064.87 1865.84,1062.92 1871.9,1059.01 C1877.89,1055.11 1881.6,1052.27 1883.02,1050.51 C1883.74,1049.67 1884.1,1048.73 1884.1,1047.69 M1878.93,1040.47 C1884.52,1040.47 1887.32,1042.87 1887.32,1047.69 C1887.32,1050.03 1886.64,1052.76 1885.27,1055.89 C1883.91,1058.95 1882.09,1061.3 1879.8,1062.92 C1874.79,1066.31 1868.51,1068 1860.96,1068 C1855.36,1068 1852.55,1065.59 1852.55,1060.78 C1852.55,1058.63 1853.24,1055.93 1854.6,1052.67 C1855.9,1049.55 1857.73,1047.17 1860.07,1045.55 C1865.09,1042.16 1871.38,1040.47 1878.93,1040.47"/>
<path class="Note" d="M1762.24,1052.97 C1765.37,1052.97 1768.01,1053.78 1770.17,1055.4 C1772.18,1057.17 1773.18,1059.38 1773.18,1062.05 C1773.18,1066.53 1770.87,1070.73 1766.26,1074.64 C1761.57,1078.55 1756.56,1080.5 1751.21,1080.5 C1748.09,1080.5 1745.45,1079.69 1743.31,1078.06 C1741.29,1076.3 1740.28,1074.09 1740.28,1071.42 C1740.28,1066.93 1742.62,1062.73 1747.31,1058.83 C1751.87,1054.92 1756.85,1052.97 1762.24,1052.97"/>
<path class="Note" d="M1611.29,1052.97 C1614.41,1052.97 1617.05,1053.78 1619.21,1055.4 C1621.22,1057.17 1622.22,1059.38 1622.22,1062.05 C1622.22,1066.53 1619.92,1070.73 1615.3,1074.64 C1610.62,1078.55 1605.6,1080.5 1600.26,1080.5 C1597.13,1080.5 1594.5,1079.69 1592.35,1078.06 C1590.33,1076.3 1589.32,1074.09 1589.32,1071.42 C1589.32,1066.93 1591.66,1062.73 1596.35,1058.83 C1600.91,1054.92 1605.89,1052.97 1611.29,1052.97"/>
<path class="Note" d="M1533.91,1065.47 C1537.04,1065.47 1539.68,1066.28 1541.83,1067.9 C1543.84,1069.67 1544.85,1071.88 1544.85,1074.55 C1544.85,1079.03 1542.54,1083.23 1537.93,1087.14 C1533.24,1091.05 1528.22,1093 1522.88,1093 C1519.76,1093 1517.12,1092.19 1514.97,1090.56 C1512.95,1088.8 1511.94,1086.59 1511.94,1083.92 C1511.94,1079.43 1514.29,1075.23 1518.97,1071.33 C1523.54,1067.42 1528.52,1065.47 1533.91,1065.47"/>
<path class="Note" d="M1382.95,1052.97 C1386.08,1052.97 1388.72,1053.78 1390.88,1055.4 C1392.89,1057.17 1393.89,1059.38 1393.89,1062.05 C1393.89,1066.53 1391.58,1070.73 1386.97,1074.64 C1382.28,1078.55 1377.27,1080.5 1371.92,1080.5 C1368.8,1080.5 1366.16,1079.69 1364.02,1078.06 C1362,1076.3 1360.99,1074.09 1360.99,1071.42 C1360.99,1066.93 1363.33,1062.73 1368.02,1058.83 C1372.58,1054.92 1377.56,1052.97 1382.95,1052.97"/>
<path class="Note" d="M1271.58,1065.47 C1274.7,1065.47 1277.34,1066.28 1279.5,1067.9 C1281.51,1069.67 1282.52,1071.88 1282.52,1074.55 C1282.52,1079.03 1280.21,1083.23 1275.59,1087.14 C1270.91,1091.05 1265.89,1093 1260.55,1093 C1257.42,1093 1254.79,1092.19 1252.64,1090.56 C1250.62,1088.8 1249.61,1086.59 1249.61,1083.92 C1249.61,1079.43 1251.95,1075.23 1256.64,1071.33 C1261.2,1067.42 1266.18,1065.47 1271.58,1065.47"/>
<path class="Note" d="M1120.62,1077.97 C1123.75,1077.97 1126.39,1078.78 1128.54,1080.4 C1130.55,1082.17 1131.56,1084.38 1131.56,1087.05 C1131.56,1091.53 1129.25,1095.73 1124.64,1099.64 C1119.95,1103.55 1114.93,1105.5 1109.59,1105.5 C1106.46,1105.5 1103.83,1104.69 1101.68,1103.06 C1099.66,1101.3 1098.65,1099.09 1098.65,1096.42 C1098.65,1091.93 1101,1087.73 1105.68,1083.83 C1110.25,1079.92 1115.22,1077.97 1120.62,1077.97"/>
<path class="Note" d="M1043.25,1090.47 C1046.37,1090.47 1049.01,1091.28 1051.17,1092.9 C1053.18,1094.67 1054.18,1096.88 1054.18,1099.55 C1054.18,1104.03 1051.88,1108.23 1047.26,1112.14 C1042.57,1116.05 1037.56,1118 1032.21,1118 C1029.09,1118 1026.45,1117.19 1024.31,1115.56 C1022.29,1113.8 1021.28,1111.59 1021.28,1108.92 C1021.28,1104.43 1023.62,1100.23 1028.31,1096.33 C1032.87,1092.42 1037.85,1090.47 1043.25,1090.47"/>
<path class="Note" d="M892.288,1077.97 C895.413,1077.97 898.053,1078.78 900.21,1080.4 C902.22,1082.17 903.225,1084.38 903.225,1087.05 C903.225,1091.53 900.918,1095.73 896.303,1099.64 C891.616,1103.55 886.6,1105.5 881.256,1105.5 C878.131,1105.5 875.496,1104.69 873.35,1103.06 C871.329,1101.3 870.319,1099.09 870.319,1096.42 C870.319,1091.93 872.663,1087.73 877.35,1083.83 C881.913,1079.92 886.892,1077.97 892.288,1077.97"/>
<path class="Note" d="M755.814,1065.47 C758.939,1065.47 761.58,1066.28 763.736,1067.9 C765.746,1069.67 766.751,1071.88 766.751,1074.55 C766.751,1079.03 764.444,1083.23 759.83,1087.14 C755.142,1091.05 750.126,1093 744.783,1093 C741.658,1093 739.022,1092.19 736.876,1090.56 C734.856,1088.8 733.845,1086.59 733.845,1083.92 C733.845,1079.43 736.189,1075.23 740.876,1071.33 C745.439,1067.42 750.418,1065.47 755.814,1065.47"/>
<path class="Note" d="M653.34,1040.47 C656.465,1040.47 659.106,1041.28 661.262,1042.9 C663.273,1044.67 664.278,1046.88 664.278,1049.55 C664.278,1054.03 661.971,1058.23 657.356,1062.14 C652.668,1066.05 647.653,1068 642.309,1068 C639.184,1068 636.549,1067.19 634.403,1065.56 C632.382,1063.8 631.372,1061.59 631.372,1058.92 C631.372,1054.43 633.715,1050.23 638.403,1046.33 C642.965,1042.42 647.944,1040.47 653.34,1040.47"/>
<path class="Note" d="M589.294,1040.47 C592.419,1040.47 595.06,1041.28 597.216,1042.9 C599.227,1044.67 600.232,1046.88 600.232,1049.55 C600.232,1054.03 597.924,1058.23 593.31,1062.14 C588.622,1066.05 583.607,1068 578.263,1068 C575.138,1068 572.503,1067.19 570.357,1065.56 C568.336,1063.8 567.325,1061.59 567.325,1058.92 C567.325,1054.43 569.669,1050.23 574.357,1046.33 C578.919,1042.42 583.898,1040.47 589.294,1040.47"/>
<path class="Note" d="M464.342,1040.47 C467.467,1040.47 470.107,1041.28 472.264,1042.9 C474.274,1044.67 475.279,1046.88 475.279,1049.55 C475.279,1054.03 472.972,1058.23 468.357,1062.14 C463.67,1066.05 458.654,1068 453.311,1068 C450.186,1068 447.55,1067.19 445.404,1065.56 C443.384,1063.8 442.373,1061.59 442.373,1058.92 C442.373,1054.43 444.717,1050.23 449.404,1046.33 C453.967,1042.42 458.946,1040.47 464.342,1040.47"/>
<path class="Note" d="M2743.54,577.967 C2746.66,577.967 2749.3,578.779 2751.46,580.404 C2753.47,582.165 2754.48,584.378 2754.48,587.045 C2754.48,591.535 2752.17,595.733 2747.55,599.639 C2742.87,603.545 2737.85,605.498 2732.51,605.498 C2729.38,605.498 2726.75,604.686 2724.6,603.061 C2722.58,601.3 2721.57,599.087 2721.57,596.42 C2721.57,591.93 2723.91,587.733 2728.6,583.826 C2733.16,579.92 2738.14,577.967 2743.54,577.967"/>
<path class="Note" d="M2633.64,565.467 C2636.76,565.467 2639.41,566.279 2641.56,567.904 C2643.57,569.665 2644.58,571.878 2644.58,574.545 C2644.58,579.035 2642.27,583.233 2637.66,587.139 C2632.97,591.045 2627.95,592.998 2622.61,592.998 C2619.48,592.998 2616.85,592.186 2614.7,590.561 C2612.68,588.8 2611.67,586.587 2611.67,583.92 C2611.67,579.43 2614.01,575.233 2618.7,571.326 C2623.26,567.42 2628.24,565.467 2633.64,565.467"/>
<path class="Note" d="M2523.74,590.467 C2526.87,590.467 2529.51,591.279 2531.66,592.904 C2533.67,594.665 2534.68,596.878 2534.68,599.545 C2534.68,604.035 2532.37,608.233 2527.76,612.139 C2523.07,616.045 2518.05,617.998 2512.71,617.998 C2509.59,617.998 2506.95,617.186 2504.8,615.561 C2502.78,613.8 2501.77,611.587 2501.77,608.92 C2501.77,604.43 2504.12,600.233 2508.8,596.326 C2513.37,592.42 2518.35,590.467 2523.74,590.467"/>
<path class="Note" d="M2413.84,577.967 C2416.97,577.967 2419.61,578.779 2421.76,580.404 C2423.78,582.165 2424.78,584.378 2424.78,587.045 C2424.78,591.535 2422.47,595.733 2417.86,599.639 C2413.17,603.545 2408.16,605.498 2402.81,605.498 C2399.69,605.498 2397.05,604.686 2394.91,603.061 C2392.88,601.3 2391.87,599.087 2391.87,596.42 C2391.87,591.93 2394.22,587.733 2398.91,583.826 C2403.47,579.92 2408.45,577.967 2413.84,577.967"/>
<path class="Note" d="M2236.37,527.967 C2239.5,527.967 2242.14,528.779 2244.29,530.404 C2246.31,532.165 2247.31,534.378 2247.31,537.045 C2247.31,541.535 2245,545.733 2240.39,549.639 C2235.7,553.545 2230.69,555.498 2225.34,555.498 C2222.22,555.498 2219.58,554.686 2217.44,553.061 C2215.41,551.3 2214.4,549.087 2214.4,546.42 C2214.4,541.93 2216.75,537.733 2221.44,533.826 C2226,529.92 2230.98,527.967 2236.37,527.967"/>
<path class="Note" d="M2124.07,540.467 C2127.19,540.467 2129.83,541.279 2131.99,542.904 C2134,544.665 2135,546.878 2135,549.545 C2135,554.035 2132.7,558.233 2128.08,562.139 C2123.4,566.045 2118.38,567.998 2113.04,567.998 C2109.91,567.998 2107.28,567.186 2105.13,565.561 C2103.11,563.8 2102.1,561.587 2102.1,558.92 C2102.1,554.43 2104.44,550.233 2109.13,546.326 C2113.69,542.42 2118.67,540.467 2124.07,540.467"/>
<path class="Note" d="M2011.76,540.467 C2014.89,540.467 2017.53,541.279 2019.68,542.904 C2021.69,544.665 2022.7,546.878 2022.7,549.545 C2022.7,554.035 2020.39,558.233 2015.78,562.139 C2011.09,566.045 2006.07,567.998 2000.73,567.998 C1997.6,567.998 1994.97,567.186 1992.82,565.561 C1990.8,563.8 1989.79,561.587 1989.79,558.92 C1989.79,554.43 1992.14,550.233 1996.82,546.326 C2001.39,542.42 2006.37,540.467 2011.76,540.467"/>
<path class="Note" d="M1899.46,552.967 C1902.58,552.967 1905.22,553.779 1907.38,555.404 C1909.39,557.165 1910.39,559.378 1910.39,562.045 C1910.39,566.535 1908.09,570.733 1903.47,574.639 C1898.78,578.545 1893.77,580.498 1888.42,580.498 C1885.3,580.498 1882.66,579.686 1880.52,578.061 C1878.5,576.3 1877.49,574.087 1877.49,571.42 C1877.49,566.93 1879.83,562.733 1884.52,558.826 C1889.08,554.92 1894.06,552.967 1899.46,552.967"/>
<path class="Note" d="M1784.86,577.967 C1787.98,577.967 1790.62,578.779 1792.78,580.404 C1794.79,582.165 1795.79,584.378 1795.79,587.045 C1795.79,591.535 1793.49,595.733 1788.87,599.639 C1784.19,603.545 1779.17,605.498 1773.83,605.498 C1770.7,605.498 1768.07,604.686 1765.92,603.061 C1763.9,601.3 1762.89,599.087 1762.89,596.42 C1762.89,591.93 1765.23,587.733 1769.92,583.826 C1774.48,579.92 1779.46,577.967 1784.86,577.967"/>
<path class="Note" d="M1627.61,565.467 C1630.74,565.467 1633.38,566.279 1635.53,567.904 C1637.54,569.665 1638.55,571.878 1638.55,574.545 C1638.55,579.035 1636.24,583.233 1631.63,587.139 C1626.94,591.045 1621.92,592.998 1616.58,592.998 C1613.46,592.998 1610.82,592.186 1608.67,590.561 C1606.65,588.8 1605.64,586.587 1605.64,583.92 C1605.64,579.43 1607.99,575.233 1612.67,571.326 C1617.24,567.42 1622.22,565.467 1627.61,565.467"/>
<path class="Note" d="M1450.3,552.967 C1453.42,552.967 1456.06,553.779 1458.22,555.404 C1460.23,557.165 1461.23,559.378 1461.23,562.045 C1461.23,566.535 1458.93,570.733 1454.31,574.639 C1449.62,578.545 1444.61,580.498 1439.26,580.498 C1436.14,580.498 1433.5,579.686 1431.36,578.061 C1429.34,576.3 1428.33,574.087 1428.33,571.42 C1428.33,566.93 1430.67,562.733 1435.36,558.826 C1439.92,554.92 1444.9,552.967 1450.3,552.967"/>
<path class="Note" d="M1335.7,577.967 C1338.82,577.967 1341.46,578.779 1343.62,580.404 C1345.63,582.165 1346.64,584.378 1346.64,587.045 C1346.64,591.535 1344.33,595.733 1339.71,599.639 C1335.03,603.545 1330.01,605.498 1324.67,605.498 C1321.54,605.498 1318.91,604.686 1316.76,603.061 C1314.74,601.3 1313.73,599.087 1313.73,596.42 C1313.73,591.93 1316.07,587.733 1320.76,583.826 C1325.32,579.92 1330.3,577.967 1335.7,577.967"/>
<path class="Note" d="M1178.45,565.467 C1181.58,565.467 1184.22,566.279 1186.37,567.904 C1188.39,569.665 1189.39,571.878 1189.39,574.545 C1189.39,579.035 1187.08,583.233 1182.47,587.139 C1177.78,591.045 1172.77,592.998 1167.42,592.998 C1164.3,592.998 1161.66,592.186 1159.52,590.561 C1157.49,588.8 1156.48,586.587 1156.48,583.92 C1156.48,579.43 1158.83,575.233 1163.52,571.326 C1168.08,567.42 1173.06,565.467 1178.45,565.467"/>
<path class="Note" d="M1001.14,552.967 C1004.26,552.967 1006.9,553.779 1009.06,555.404 C1011.07,557.165 1012.07,559.378 1012.07,562.045 C1012.07,566.535 1009.77,570.733 1005.15,574.639 C1000.47,578.545 995.45,580.498 990.106,580.498 C986.981,580.498 984.345,579.686 982.2,578.061 C980.179,576.3 979.168,574.087 979.168,571.42 C979.168,566.93 981.512,562.733 986.2,558.826 C990.762,554.92 995.741,552.967 1001.14,552.967"/>
<path class="Note" d="M885.374,540.467 C888.499,540.467 891.14,541.279 893.296,542.904 C895.306,544.665 896.312,546.878 896.312,549.545 C896.312,554.035 894.004,558.233 889.39,562.139 C884.702,566.045 879.687,567.998 874.343,567.998 C871.218,567.998 868.582,567.186 866.437,565.561 C864.416,563.8 863.405,561.587 863.405,558.92 C863.405,554.43 865.749,550.233 870.437,546.326 C874.999,542.42 879.978,540.467 885.374,540.467"/>
<path class="Note" d="M725.857,552.967 C728.982,552.967 731.622,553.779 733.778,555.404 C735.789,557.165 736.794,559.378 736.794,562.045 C736.794,566.535 734.487,570.733 729.872,574.639 C725.185,578.545 720.169,580.498 714.825,580.498 C711.7,580.498 709.065,579.686 706.919,578.061 C704.898,576.3 703.888,574.087 703.888,571.42 C703.888,566.93 706.232,562.733 710.919,558.826 C715.482,554.92 720.461,552.967 725.857,552.967"/>
<path class="Note" d="M644.094,540.467 C647.219,540.467 649.859,541.279 652.016,542.904 C654.026,544.665 655.031,546.878 655.031,549.545 C655.031,554.035 652.724,558.233 648.109,562.139 C643.422,566.045 638.406,567.998 633.062,567.998 C629.937,567.998 627.302,567.186 625.156,565.561 C623.135,563.8 622.125,561.587 622.125,558.92 C622.125,554.43 624.469,550.233 629.156,546.326 C633.719,542.42 638.698,540.467 644.094,540.467"/>
<path class="Note" d="M484.576,615.467 C487.701,615.467 490.342,616.279 492.498,617.904 C494.509,619.665 495.514,621.878 495.514,624.545 C495.514,629.035 493.206,633.233 488.592,637.139 C483.904,641.045 478.889,642.998 473.545,642.998 C470.42,642.998 467.785,642.186 465.639,640.561 C463.618,638.8 462.607,636.587 462.607,633.92 C462.607,629.431 464.951,625.233 469.639,621.326 C474.201,617.42 479.18,615.467 484.576,615.467"/>
<path class="Clef" d="M190.951,1091.14 C190.951,1091.14 191.149,1091.14 191.545,1091.14 C191.805,1091.08 192.029,1091.05 192.217,1091.05 C199.508,1091.05 205.498,1093.62 210.185,1098.76 C214.873,1103.84 217.217,1109.76 217.217,1116.53 C217.217,1124.94 213.737,1131.77 206.779,1137.05 C204.956,1138.48 202.576,1139.65 199.639,1140.56 C199.972,1144.79 200.139,1148.21 200.139,1150.81 C200.139,1151.33 200.071,1153.22 199.935,1156.48 C199.675,1162.53 197.592,1167.77 193.685,1172.2 C189.915,1176.57 185.227,1178.75 179.623,1178.75 C174.352,1178.75 169.862,1176.89 166.154,1173.19 C162.435,1169.4 160.576,1164.85 160.576,1159.51 C160.576,1156.71 161.654,1154.33 163.81,1152.37 C166.019,1150.43 168.586,1149.45 171.514,1149.45 C174.118,1149.45 176.3,1150.46 178.06,1152.48 C179.883,1154.37 180.795,1156.71 180.795,1159.51 C180.795,1162.05 179.883,1164.22 178.06,1166.05 C176.237,1167.87 174.055,1168.78 171.514,1168.78 C170.472,1168.78 169.467,1168.59 168.498,1168.2 C171.362,1172.43 175.17,1174.55 179.92,1174.55 C184.409,1174.55 188.086,1172.72 190.951,1169.08 C193.951,1165.31 195.581,1160.91 195.842,1155.89 C195.967,1152.76 196.029,1150.98 196.029,1150.53 C196.029,1146.88 195.899,1143.89 195.639,1141.55 C192.389,1142.07 189.493,1142.33 186.951,1142.33 C177.899,1142.33 170.185,1138.74 163.81,1131.58 C157.56,1124.35 154.435,1115.75 154.435,1105.8 C154.435,1103.71 154.628,1101.6 155.014,1099.45 C155.409,1097.69 155.899,1095.77 156.482,1093.69 C156.805,1092.51 157.685,1090.62 159.123,1088.01 C159.644,1087.23 160.23,1086.26 160.881,1085.08 C161.532,1083.91 161.987,1083.13 162.248,1082.75 C162.894,1081.45 164.159,1079.69 166.045,1077.47 C166.566,1076.88 167.105,1076.24 167.662,1075.52 C168.219,1074.81 168.693,1074.22 169.084,1073.76 C169.474,1073.31 169.766,1072.95 169.959,1072.69 C170.152,1072.43 171.618,1070.7 174.357,1067.51 C175.003,1066.86 175.636,1066.16 176.256,1065.41 C176.876,1064.67 177.381,1064.08 177.771,1063.65 C178.162,1063.23 178.456,1062.92 178.654,1062.73 C176.31,1054.98 174.842,1048.8 174.248,1044.17 C173.8,1040.46 173.576,1035.38 173.576,1028.94 C173.576,1023.27 174.878,1017.96 177.482,1013.01 C180.014,1007.88 183.56,1003.68 188.123,1000.42 C188.383,1000.22 188.706,1000.12 189.092,1000.12 C189.55,1000.12 189.878,1000.22 190.076,1000.42 C193.586,1004.65 196.612,1010.15 199.154,1016.92 C201.758,1023.69 203.06,1029.85 203.06,1035.39 C203.06,1041.64 201.566,1047.5 198.576,1052.97 C195.191,1058.76 190.826,1064.75 185.482,1070.94 C186.847,1075.23 188.67,1081.96 190.951,1091.14 M199.248,1136.56 C202.633,1135.32 205.274,1133.21 207.17,1130.22 C209.253,1127.35 210.295,1124.13 210.295,1120.55 C210.295,1115.92 208.732,1111.82 205.607,1108.23 C202.409,1104.52 198.336,1102.44 193.389,1101.98 C196.191,1115.72 198.144,1127.25 199.248,1136.56 M161.467,1114 C161.467,1120.45 164.071,1126.11 169.279,1131 C174.612,1135.75 180.602,1138.12 187.248,1138.12 C189.977,1138.12 192.644,1137.93 195.248,1137.53 C194.206,1127.63 192.154,1115.78 189.092,1101.98 C185.383,1102.38 182.425,1103.68 180.217,1105.89 C178.06,1108.17 176.982,1110.74 176.982,1113.61 C176.982,1118.56 179.623,1122.56 184.904,1125.62 C185.352,1126.08 185.576,1126.57 185.576,1127.09 C185.576,1127.61 185.352,1128.1 184.904,1128.55 C184.508,1129 184.019,1129.23 183.435,1129.23 C183.373,1129.23 183.081,1129.17 182.56,1129.05 C178.842,1127.02 175.977,1124.42 173.967,1121.23 C172.071,1117.84 171.123,1114.42 171.123,1110.97 C171.123,1106.48 172.524,1102.41 175.326,1098.76 C178.253,1095.12 182.06,1092.77 186.748,1091.73 C184.925,1084.44 183.43,1078.74 182.264,1074.64 C181.222,1075.82 179.969,1077.23 178.506,1078.89 C177.042,1080.55 176.18,1081.54 175.92,1081.87 C173.576,1084.93 171.784,1087.3 170.545,1089 C168.326,1092.06 166.696,1094.7 165.654,1096.9 C164.55,1099.38 163.576,1102.09 162.732,1105.01 C161.889,1107.82 161.467,1110.81 161.467,1114 M194.076,1014.69 C189.191,1017.09 185.352,1020.54 182.56,1025.03 C179.696,1029.65 178.264,1034.63 178.264,1039.97 C178.264,1044.65 179.435,1050.97 181.779,1058.92 C186.467,1053.25 189.982,1048.01 192.326,1043.2 C194.795,1038.12 196.029,1032.81 196.029,1027.28 C196.029,1023.11 195.378,1018.92 194.076,1014.69"/>
<path class="Clef" d="M190.951,616.139 C190.951,616.139 191.149,616.139 191.545,616.139 C191.805,616.076 192.029,616.045 192.217,616.045 C199.508,616.045 205.498,618.618 210.185,623.764 C214.873,628.837 217.217,634.759 217.217,641.529 C217.217,649.936 213.737,656.774 206.779,662.045 C204.956,663.483 202.576,664.654 199.639,665.561 C199.972,669.79 200.139,673.207 200.139,675.811 C200.139,676.332 200.071,678.222 199.935,681.483 C199.675,687.535 197.592,692.774 193.685,697.201 C189.915,701.566 185.227,703.748 179.623,703.748 C174.352,703.748 169.862,701.894 166.154,698.186 C162.435,694.404 160.576,689.847 160.576,684.514 C160.576,681.712 161.654,679.332 163.81,677.373 C166.019,675.425 168.586,674.451 171.514,674.451 C174.118,674.451 176.3,675.462 178.06,677.483 C179.883,679.368 180.795,681.712 180.795,684.514 C180.795,687.045 179.883,689.222 178.06,691.045 C176.237,692.868 174.055,693.779 171.514,693.779 C170.472,693.779 169.467,693.587 168.498,693.201 C171.362,697.431 175.17,699.545 179.92,699.545 C184.409,699.545 188.086,697.722 190.951,694.076 C193.951,690.306 195.581,685.91 195.842,680.889 C195.967,677.764 196.029,675.977 196.029,675.529 C196.029,671.884 195.899,668.889 195.639,666.545 C192.389,667.066 189.493,667.326 186.951,667.326 C177.899,667.326 170.185,663.743 163.81,656.576 C157.56,649.347 154.435,640.753 154.435,630.795 C154.435,628.712 154.628,626.597 155.014,624.451 C155.409,622.691 155.899,620.769 156.482,618.686 C156.805,617.509 157.685,615.618 159.123,613.014 C159.644,612.233 160.23,611.256 160.881,610.084 C161.532,608.912 161.987,608.134 162.248,607.748 C162.894,606.446 164.159,604.686 166.045,602.467 C166.566,601.884 167.105,601.235 167.662,600.522 C168.219,599.808 168.693,599.222 169.084,598.764 C169.474,598.306 169.766,597.946 169.959,597.686 C170.152,597.425 171.618,595.701 174.357,592.514 C175.003,591.858 175.636,591.157 176.256,590.412 C176.876,589.667 177.381,589.082 177.771,588.654 C178.162,588.227 178.456,587.92 178.654,587.733 C176.31,579.983 174.842,573.795 174.248,569.17 C173.8,565.462 173.576,560.384 173.576,553.936 C173.576,548.269 174.878,542.962 177.482,538.014 C180.014,532.878 183.56,528.681 188.123,525.42 C188.383,525.222 188.706,525.123 189.092,525.123 C189.55,525.123 189.878,525.222 190.076,525.42 C193.586,529.649 196.612,535.149 199.154,541.92 C201.758,548.691 203.06,554.847 203.06,560.389 C203.06,566.639 201.566,572.498 198.576,577.967 C195.191,583.759 190.826,589.748 185.482,595.936 C186.847,600.227 188.67,606.962 190.951,616.139 M199.248,661.561 C202.633,660.321 205.274,658.207 207.17,655.217 C209.253,652.352 210.295,649.128 210.295,645.545 C210.295,640.92 208.732,636.816 205.607,633.233 C202.409,629.524 198.336,627.441 193.389,626.983 C196.191,640.722 198.144,652.248 199.248,661.561 M161.467,638.998 C161.467,645.446 164.071,651.113 169.279,655.998 C174.612,660.748 180.602,663.123 187.248,663.123 C189.977,663.123 192.644,662.925 195.248,662.529 C194.206,652.634 192.154,640.785 189.092,626.983 C185.383,627.378 182.425,628.681 180.217,630.889 C178.06,633.17 176.982,635.743 176.982,638.608 C176.982,643.556 179.623,647.561 184.904,650.623 C185.352,651.082 185.576,651.571 185.576,652.092 C185.576,652.613 185.352,653.097 184.904,653.545 C184.508,654.003 184.019,654.233 183.435,654.233 C183.373,654.233 183.081,654.17 182.56,654.045 C178.842,652.024 175.977,649.42 173.967,646.233 C172.071,642.837 171.123,639.415 171.123,635.967 C171.123,631.477 172.524,627.41 175.326,623.764 C178.253,620.118 182.06,617.774 186.748,616.733 C184.925,609.441 183.43,603.743 182.264,599.639 C181.222,600.816 179.969,602.233 178.506,603.889 C177.042,605.545 176.18,606.54 175.92,606.873 C173.576,609.925 171.784,612.3 170.545,613.998 C168.326,617.061 166.696,619.696 165.654,621.904 C164.55,624.384 163.576,627.087 162.732,630.014 C161.889,632.816 161.467,635.811 161.467,638.998 M194.076,539.686 C189.191,542.092 185.352,545.54 182.56,550.029 C179.696,554.654 178.264,559.634 178.264,564.967 C178.264,569.654 179.435,575.972 181.779,583.92 C186.467,578.253 189.982,573.014 192.326,568.201 C194.795,563.118 196.029,557.811 196.029,552.279 C196.029,548.113 195.378,543.915 194.076,539.686"/>
<path class="KeySig" d="M313.748,1060.39 C313.748,1061.63 313.131,1062.25 311.896,1062.25 C310.662,1062.25 310.045,1061.63 310.045,1060.39 L310.045,1045.94 L301.748,1049.06 L301.748,1064.87 C301.748,1066.11 301.128,1066.73 299.889,1066.73 C298.649,1066.73 298.029,1066.11 298.029,1064.87 L298.029,1050.33 L294.904,1051.5 C294.842,1051.56 294.581,1051.59 294.123,1051.59 C293.602,1051.59 293.146,1051.4 292.756,1051.01 C292.365,1050.62 292.17,1050.16 292.17,1049.64 L292.17,1043.59 C292.17,1042.61 292.592,1041.99 293.436,1041.73 L298.029,1040.17 L298.029,1024.15 L294.904,1025.23 C294.842,1025.3 294.581,1025.33 294.123,1025.33 C293.602,1025.33 293.146,1025.13 292.756,1024.74 C292.365,1024.35 292.17,1023.89 292.17,1023.37 L292.17,1017.31 C292.17,1016.4 292.592,1015.82 293.436,1015.56 L298.029,1013.8 L298.029,998.077 C298.029,996.837 298.649,996.217 299.889,996.217 C301.128,996.217 301.748,996.837 301.748,998.077 L301.748,1012.53 L310.045,1009.4 L310.045,993.592 C310.045,992.353 310.662,991.733 311.896,991.733 C313.131,991.733 313.748,992.353 313.748,993.592 L313.748,1008.14 L316.982,1006.97 C317.045,1006.9 317.269,1006.87 317.654,1006.87 C318.113,1006.87 318.602,1007.07 319.123,1007.45 C319.519,1007.85 319.717,1008.31 319.717,1008.83 L319.717,1014.87 C319.717,1015.79 319.258,1016.41 318.342,1016.73 L313.748,1018.3 L313.748,1034.31 L316.982,1033.23 C317.045,1033.17 317.269,1033.14 317.654,1033.14 C318.113,1033.14 318.602,1033.34 319.123,1033.73 C319.519,1034.12 319.717,1034.57 319.717,1035.09 L319.717,1041.15 C319.717,1042 319.258,1042.58 318.342,1042.9 L313.748,1044.67 L313.748,1060.39 M310.045,1019.76 L301.748,1022.69 L301.748,1038.7 L310.045,1035.78 L310.045,1019.76 "/>
<path class="KeySig" d="M288.748,1110.39 C288.748,1111.63 288.131,1112.25 286.896,1112.25 C285.662,1112.25 285.045,1111.63 285.045,1110.39 L285.045,1095.94 L276.748,1099.06 L276.748,1114.87 C276.748,1116.11 276.128,1116.73 274.889,1116.73 C273.649,1116.73 273.029,1116.11 273.029,1114.87 L273.029,1100.33 L269.904,1101.5 C269.842,1101.56 269.581,1101.59 269.123,1101.59 C268.602,1101.59 268.146,1101.4 267.756,1101.01 C267.365,1100.62 267.17,1100.16 267.17,1099.64 L267.17,1093.59 C267.17,1092.61 267.592,1091.99 268.435,1091.73 L273.029,1090.17 L273.029,1074.15 L269.904,1075.23 C269.842,1075.3 269.581,1075.33 269.123,1075.33 C268.602,1075.33 268.146,1075.13 267.756,1074.74 C267.365,1074.35 267.17,1073.89 267.17,1073.37 L267.17,1067.31 C267.17,1066.4 267.592,1065.82 268.435,1065.56 L273.029,1063.8 L273.029,1048.08 C273.029,1046.84 273.649,1046.22 274.889,1046.22 C276.128,1046.22 276.748,1046.84 276.748,1048.08 L276.748,1062.53 L285.045,1059.4 L285.045,1043.59 C285.045,1042.35 285.662,1041.73 286.896,1041.73 C288.131,1041.73 288.748,1042.35 288.748,1043.59 L288.748,1058.14 L291.982,1056.97 C292.045,1056.9 292.269,1056.87 292.654,1056.87 C293.113,1056.87 293.602,1057.07 294.123,1057.45 C294.519,1057.85 294.717,1058.31 294.717,1058.83 L294.717,1064.87 C294.717,1065.79 294.258,1066.41 293.342,1066.73 L288.748,1068.3 L288.748,1084.31 L291.982,1083.23 C292.045,1083.17 292.269,1083.14 292.654,1083.14 C293.113,1083.14 293.602,1083.34 294.123,1083.73 C294.519,1084.12 294.717,1084.57 294.717,1085.09 L294.717,1091.15 C294.717,1092 294.258,1092.58 293.342,1092.9 L288.748,1094.67 L288.748,1110.39 M285.045,1069.76 L276.748,1072.69 L276.748,1088.7 L285.045,1085.78 L285.045,1069.76 "/>
<path class="KeySig" d="M263.748,1072.89 C263.748,1074.13 263.131,1074.75 261.896,1074.75 C260.662,1074.75 260.045,1074.13 260.045,1072.89 L260.045,1058.44 L251.748,1061.56 L251.748,1077.37 C251.748,1078.61 251.128,1079.23 249.889,1079.23 C248.649,1079.23 248.029,1078.61 248.029,1077.37 L248.029,1062.83 L244.904,1064 C244.842,1064.06 244.581,1064.09 244.123,1064.09 C243.602,1064.09 243.146,1063.9 242.756,1063.51 C242.365,1063.12 242.17,1062.66 242.17,1062.14 L242.17,1056.09 C242.17,1055.11 242.592,1054.49 243.435,1054.23 L248.029,1052.67 L248.029,1036.65 L244.904,1037.73 C244.842,1037.8 244.581,1037.83 244.123,1037.83 C243.602,1037.83 243.146,1037.63 242.756,1037.24 C242.365,1036.85 242.17,1036.39 242.17,1035.87 L242.17,1029.81 C242.17,1028.9 242.592,1028.32 243.435,1028.06 L248.029,1026.3 L248.029,1010.58 C248.029,1009.34 248.649,1008.72 249.889,1008.72 C251.128,1008.72 251.748,1009.34 251.748,1010.58 L251.748,1025.03 L260.045,1021.9 L260.045,1006.09 C260.045,1004.85 260.662,1004.23 261.896,1004.23 C263.131,1004.23 263.748,1004.85 263.748,1006.09 L263.748,1020.64 L266.982,1019.47 C267.045,1019.4 267.269,1019.37 267.654,1019.37 C268.113,1019.37 268.602,1019.57 269.123,1019.95 C269.519,1020.35 269.717,1020.81 269.717,1021.33 L269.717,1027.37 C269.717,1028.29 269.258,1028.91 268.342,1029.23 L263.748,1030.8 L263.748,1046.81 L266.982,1045.73 C267.045,1045.67 267.269,1045.64 267.654,1045.64 C268.113,1045.64 268.602,1045.84 269.123,1046.23 C269.519,1046.62 269.717,1047.07 269.717,1047.59 L269.717,1053.65 C269.717,1054.5 269.258,1055.08 268.342,1055.4 L263.748,1057.17 L263.748,1072.89 M260.045,1032.26 L251.748,1035.19 L251.748,1051.2 L260.045,1048.28 L260.045,1032.26 "/>
<path class="KeySig" d="M313.748,585.389 C313.748,586.628 313.131,587.248 311.896,587.248 C310.662,587.248 310.045,586.628 310.045,585.389 L310.045,570.936 L301.748,574.061 L301.748,589.873 C301.748,591.113 301.128,591.733 299.889,591.733 C298.649,591.733 298.029,591.113 298.029,589.873 L298.029,575.326 L294.904,576.498 C294.842,576.561 294.581,576.592 294.123,576.592 C293.602,576.592 293.146,576.397 292.756,576.006 C292.365,575.615 292.17,575.16 292.17,574.639 L292.17,568.592 C292.17,567.613 292.592,566.993 293.436,566.733 L298.029,565.17 L298.029,549.154 L294.904,550.233 C294.842,550.295 294.581,550.326 294.123,550.326 C293.602,550.326 293.146,550.131 292.756,549.74 C292.365,549.35 292.17,548.894 292.17,548.373 L292.17,542.311 C292.17,541.404 292.592,540.821 293.436,540.561 L298.029,538.795 L298.029,523.076 C298.029,521.837 298.649,521.217 299.889,521.217 C301.128,521.217 301.748,521.837 301.748,523.076 L301.748,537.529 L310.045,534.404 L310.045,518.592 C310.045,517.352 310.662,516.733 311.896,516.733 C313.131,516.733 313.748,517.352 313.748,518.592 L313.748,533.139 L316.982,531.967 C317.045,531.904 317.269,531.873 317.654,531.873 C318.113,531.873 318.602,532.066 319.123,532.451 C319.519,532.847 319.717,533.305 319.717,533.826 L319.717,539.873 C319.717,540.79 319.258,541.41 318.342,541.733 L313.748,543.295 L313.748,559.311 L316.982,558.233 C317.045,558.17 317.269,558.139 317.654,558.139 C318.113,558.139 318.602,558.337 319.123,558.733 C319.519,559.118 319.717,559.571 319.717,560.092 L319.717,566.154 C319.717,566.998 319.258,567.582 318.342,567.904 L313.748,569.67 L313.748,585.389 M310.045,544.764 L301.748,547.686 L301.748,563.701 L310.045,560.779 L310.045,544.764 "/>
<path class="KeySig" d="M288.748,635.389 C288.748,636.628 288.131,637.248 286.896,637.248 C285.662,637.248 285.045,636.628 285.045,635.389 L285.045,620.936 L276.748,624.061 L276.748,639.873 C276.748,641.113 276.128,641.733 274.889,641.733 C273.649,641.733 273.029,641.113 273.029,639.873 L273.029,625.326 L269.904,626.498 C269.842,626.561 269.581,626.592 269.123,626.592 C268.602,626.592 268.146,626.397 267.756,626.006 C267.365,625.615 267.17,625.16 267.17,624.639 L267.17,618.592 C267.17,617.613 267.592,616.993 268.435,616.733 L273.029,615.17 L273.029,599.154 L269.904,600.233 C269.842,600.295 269.581,600.326 269.123,600.326 C268.602,600.326 268.146,600.131 267.756,599.74 C267.365,599.35 267.17,598.894 267.17,598.373 L267.17,592.311 C267.17,591.404 267.592,590.821 268.435,590.561 L273.029,588.795 L273.029,573.076 C273.029,571.837 273.649,571.217 274.889,571.217 C276.128,571.217 276.748,571.837 276.748,573.076 L276.748,587.529 L285.045,584.404 L285.045,568.592 C285.045,567.352 285.662,566.733 286.896,566.733 C288.131,566.733 288.748,567.352 288.748,568.592 L288.748,583.139 L291.982,581.967 C292.045,581.904 292.269,581.873 292.654,581.873 C293.113,581.873 293.602,582.066 294.123,582.451 C294.519,582.847 294.717,583.305 294.717,583.826 L294.717,589.873 C294.717,590.79 294.258,591.41 293.342,591.733 L288.748,593.295 L288.748,609.311 L291.982,608.233 C292.045,608.17 292.269,608.139 292.654,608.139 C293.113,608.139 293.602,608.337 294.123,608.733 C294.519,609.118 294.717,609.571 294.717,610.092 L294.717,616.154 C294.717,616.998 294.258,617.582 293.342,617.904 L288.748,619.67 L288.748,635.389 M285.045,594.764 L276.748,597.686 L276.748,613.701 L285.045,610.779 L285.045,594.764 "/>
<path class="KeySig" d="M263.748,597.889 C263.748,599.128 263.131,599.748 261.896,599.748 C260.662,599.748 260.045,599.128 260.045,597.889 L260.045,583.436 L251.748,586.561 L251.748,602.373 C251.748,603.613 251.128,604.233 249.889,604.233 C248.649,604.233 248.029,603.613 248.029,602.373 L248.029,587.826 L244.904,588.998 C244.842,589.061 244.581,589.092 244.123,589.092 C243.602,589.092 243.146,588.897 242.756,588.506 C242.365,588.115 242.17,587.66 242.17,587.139 L242.17,581.092 C242.17,580.113 242.592,579.493 243.435,579.233 L248.029,577.67 L248.029,561.654 L244.904,562.733 C244.842,562.795 244.581,562.826 244.123,562.826 C243.602,562.826 243.146,562.631 242.756,562.24 C242.365,561.85 242.17,561.394 242.17,560.873 L242.17,554.811 C242.17,553.904 242.592,553.321 243.435,553.061 L248.029,551.295 L248.029,535.576 C248.029,534.337 248.649,533.717 249.889,533.717 C251.128,533.717 251.748,534.337 251.748,535.576 L251.748,550.029 L260.045,546.904 L260.045,531.092 C260.045,529.852 260.662,529.233 261.896,529.233 C263.131,529.233 263.748,529.852 263.748,531.092 L263.748,545.639 L266.982,544.467 C267.045,544.404 267.269,544.373 267.654,544.373 C268.113,544.373 268.602,544.566 269.123,544.951 C269.519,545.347 269.717,545.805 269.717,546.326 L269.717,552.373 C269.717,553.29 269.258,553.91 268.342,554.233 L263.748,555.795 L263.748,571.811 L266.982,570.733 C267.045,570.67 267.269,570.639 267.654,570.639 C268.113,570.639 268.602,570.837 269.123,571.233 C269.519,571.618 269.717,572.071 269.717,572.592 L269.717,578.654 C269.717,579.498 269.258,580.082 268.342,580.404 L263.748,582.17 L263.748,597.889 M260.045,557.264 L251.748,560.186 L251.748,576.201 L260.045,573.279 L260.045,557.264 "/>
<path class="TimeSig" d="M369.693,616.733 C367.735,616.733 365.975,616.376 364.412,615.662 C362.85,614.949 361.745,614.201 361.1,613.42 C360.245,612.441 359.396,611.691 358.553,611.17 C357.511,610.451 356.438,610.092 355.334,610.092 C353.636,610.092 352.235,610.613 351.131,611.654 C349.964,612.634 349.313,613.967 349.178,615.654 C349.053,616.373 348.662,616.733 348.006,616.733 C347.225,616.733 346.834,616.373 346.834,615.654 C346.834,613.123 347.423,610.847 348.6,608.826 C349.766,606.743 351.199,605.019 352.896,603.654 C354.324,602.415 356.209,600.915 358.553,599.154 C358.949,598.832 359.779,598.149 361.045,597.108 C362.311,596.066 363.37,595.186 364.225,594.467 C365.912,593.04 367.376,591.149 368.615,588.795 C369.782,586.451 370.365,583.915 370.365,581.186 C370.365,577.863 369.813,574.998 368.709,572.592 C367.542,570.248 365.751,569.076 363.334,569.076 C361.844,569.076 360.641,569.399 359.725,570.045 C358.745,570.701 358.256,571.582 358.256,572.686 C358.256,573.602 358.842,574.743 360.014,576.108 C361.186,577.472 361.771,578.613 361.771,579.529 C361.771,581.477 361.089,583.134 359.725,584.498 C358.423,585.8 356.829,586.451 354.943,586.451 C352.985,586.451 351.324,585.769 349.959,584.404 C348.657,582.977 348.006,581.352 348.006,579.529 C348.006,575.811 349.503,572.748 352.498,570.342 C355.493,567.936 359.105,566.733 363.334,566.733 C368.355,566.733 372.719,568.097 376.428,570.826 C380.136,573.43 381.99,576.884 381.99,581.186 C381.99,584.113 381.469,586.618 380.428,588.701 C379.449,590.92 377.985,592.649 376.037,593.889 C373.818,595.316 371.896,596.42 370.271,597.201 C367.99,598.243 365.714,599.222 363.443,600.139 C360.704,601.243 358.584,602.285 357.084,603.264 C357.938,603.066 358.818,602.967 359.725,602.967 C362.725,602.967 365.85,603.941 369.1,605.889 C372.423,607.847 374.995,608.826 376.818,608.826 C377.923,608.826 378.803,608.628 379.459,608.233 C380.105,607.847 380.527,607.425 380.725,606.967 C380.985,606.321 381.214,605.868 381.412,605.608 C381.673,605.212 381.995,605.014 382.381,605.014 C383.162,605.014 383.553,605.404 383.553,606.186 C383.553,608.009 382.251,610.222 379.646,612.826 C377.105,615.43 373.787,616.733 369.693,616.733"/>
<path class="TimeSig" d="M367.506,618.084 C369.454,618.084 371.113,617.858 372.482,617.404 C373.852,616.951 374.73,616.725 375.115,616.725 C375.574,616.725 375.933,616.855 376.193,617.115 C376.391,617.303 376.521,617.527 376.584,617.787 C376.584,617.923 376.516,618.121 376.381,618.381 L347.975,651.397 L364.662,651.397 L364.662,638.303 C364.662,637.459 364.891,636.74 365.35,636.147 C366.131,635.501 366.782,635.11 367.303,634.975 C368.146,634.589 369.188,633.678 370.428,632.24 C371.469,631.074 372.709,629.027 374.146,626.1 C374.334,625.704 374.626,625.506 375.021,625.506 C375.803,625.506 376.256,625.964 376.381,626.881 L376.381,651.397 L383.521,651.397 C384.428,651.397 384.949,651.881 385.084,652.85 C385.084,653.829 384.563,654.319 383.521,654.319 L376.381,654.319 L376.381,655.1 C376.381,657.704 377.032,659.917 378.334,661.74 C379.834,663.563 381.594,664.475 383.615,664.475 C384.396,664.475 384.787,664.865 384.787,665.647 C384.787,666.428 384.396,666.819 383.615,666.819 C382.251,666.819 380.037,666.626 376.975,666.24 C374.173,665.782 371.99,665.553 370.428,665.553 C368.803,665.553 366.62,665.782 363.881,666.24 C360.954,666.626 358.777,666.819 357.35,666.819 C356.568,666.819 356.178,666.428 356.178,665.647 C356.178,664.865 356.568,664.475 357.35,664.475 C359.36,664.475 361.115,663.563 362.615,661.74 C363.98,659.855 364.662,657.641 364.662,655.1 L364.662,654.319 L347.975,654.319 C346.86,654.319 346.079,654.058 345.631,653.537 C345.1,653.152 344.834,652.631 344.834,651.975 C344.834,651.777 345.324,651.095 346.303,649.928 C347.417,648.626 348.589,647.032 349.818,645.147 C351.256,642.928 352.626,640.647 353.928,638.303 C355.355,635.636 356.495,632.574 357.35,629.115 C358.318,625.605 358.803,622.027 358.803,618.381 C358.803,617.339 359.261,616.819 360.178,616.819 C360.376,616.819 360.798,616.917 361.443,617.115 C361.641,617.178 362.05,617.274 362.67,617.404 C363.29,617.535 363.792,617.662 364.178,617.787 C365.355,617.985 366.464,618.084 367.506,618.084"/>
<path class="Articulation" d="M2430.81,1011.72 L2431.11,1016.8 C2431.17,1017.44 2430.94,1018.02 2430.42,1018.55 C2429.96,1019 2429.38,1019.23 2428.66,1019.23 C2427.95,1019.23 2427.36,1019 2426.9,1018.55 C2426.38,1018.02 2426.15,1017.44 2426.22,1016.8 L2426.51,1011.72 L2426.51,1011.51 C2424.11,1010.93 2422.22,1009.47 2420.86,1007.12 C2419.42,1004.84 2418.7,1002.21 2418.7,999.217 C2418.7,995.759 2419.61,992.827 2421.44,990.42 C2423.32,987.952 2425.73,986.717 2428.66,986.717 C2431.59,986.717 2434,987.952 2435.89,990.42 C2437.71,992.827 2438.62,995.759 2438.62,999.217 C2438.62,1002.21 2437.91,1004.84 2436.48,1007.12 C2434.98,1009.47 2433.09,1010.93 2430.81,1011.51 L2430.81,1011.72 M2428.67,1008.69 C2431.86,1008.69 2433.45,1005.53 2433.45,999.209 C2433.45,992.892 2431.86,989.733 2428.67,989.733 C2425.55,989.733 2423.98,992.892 2423.98,999.209 C2423.98,1005.53 2425.55,1008.69 2428.67,1008.69"/>
<path class="Articulation" d="M920.963,853.889 C921.358,853.306 921.916,853.014 922.634,853.014 C923.155,853.014 923.611,853.209 924.002,853.6 C924.392,853.991 924.588,854.446 924.588,854.967 C924.588,855.353 924.489,855.712 924.291,856.045 L915.009,870.108 C914.624,870.691 914.041,870.983 913.259,870.983 C912.666,870.983 912.176,870.754 911.791,870.295 L902.025,858.389 L894.213,870.108 C893.817,870.691 893.228,870.983 892.447,870.983 C891.864,870.983 891.379,870.754 890.994,870.295 L881.119,858.389 L877.994,863.076 C877.608,863.66 877.056,863.951 876.338,863.951 C875.817,863.951 875.361,863.756 874.97,863.366 C874.58,862.975 874.384,862.519 874.384,861.998 C874.384,861.603 874.483,861.243 874.681,860.92 L883.963,846.858 C884.348,846.274 884.931,845.983 885.713,845.983 C886.296,845.983 886.785,846.212 887.181,846.67 L896.947,858.576 L904.759,846.858 C905.145,846.274 905.728,845.983 906.509,845.983 C907.103,845.983 907.593,846.212 907.978,846.67 L917.838,858.576 L920.963,853.889 "/>
<path class="Articulation" d="M715.14,1007.97 L715.437,1013.05 C715.5,1013.69 715.27,1014.27 714.75,1014.8 C714.291,1015.25 713.705,1015.48 712.992,1015.48 C712.278,1015.48 711.692,1015.25 711.234,1014.8 C710.713,1014.27 710.484,1013.69 710.546,1013.05 L710.843,1007.97 L710.843,1007.76 C708.437,1007.18 706.552,1005.72 705.187,1003.37 C703.75,1001.09 703.031,998.457 703.031,995.467 C703.031,992.009 703.942,989.077 705.765,986.67 C707.651,984.202 710.06,982.967 712.992,982.967 C715.924,982.967 718.333,984.202 720.218,986.67 C722.041,989.077 722.953,992.009 722.953,995.467 C722.953,998.457 722.239,1001.09 720.812,1003.37 C719.312,1005.72 717.421,1007.18 715.14,1007.76 L715.14,1007.97 M713,1004.94 C716.187,1004.94 717.781,1001.78 717.781,995.459 C717.781,989.142 716.187,985.983 713,985.983 C709.875,985.983 708.312,989.142 708.312,995.459 C708.312,1001.78 709.875,1004.94 713,1004.94"/>
<path class="Articulation" d="M1486.47,444.639 C1486.87,444.055 1487.42,443.764 1488.14,443.764 C1488.66,443.764 1489.12,443.959 1489.51,444.35 C1489.9,444.74 1490.1,445.196 1490.1,445.717 C1490.1,446.102 1490,446.462 1489.8,446.795 L1480.52,460.857 C1480.13,461.441 1479.55,461.732 1478.77,461.732 C1478.17,461.732 1477.68,461.503 1477.3,461.045 L1467.53,449.139 L1459.72,460.857 C1459.33,461.441 1458.74,461.732 1457.96,461.732 C1457.37,461.732 1456.89,461.503 1456.5,461.045 L1446.63,449.139 L1443.5,453.826 C1443.12,454.41 1442.56,454.701 1441.85,454.701 C1441.33,454.701 1440.87,454.506 1440.48,454.115 C1440.09,453.725 1439.89,453.269 1439.89,452.748 C1439.89,452.352 1439.99,451.993 1440.19,451.67 L1449.47,437.607 C1449.86,437.024 1450.44,436.732 1451.22,436.732 C1451.8,436.732 1452.29,436.962 1452.69,437.42 L1462.46,449.326 L1470.27,437.607 C1470.65,437.024 1471.24,436.732 1472.02,436.732 C1472.61,436.732 1473.1,436.962 1473.49,437.42 L1483.35,449.326 L1486.47,444.639 "/>
<path class="Articulation" d="M1037.31,440.889 C1037.71,440.305 1038.27,440.014 1038.98,440.014 C1039.5,440.014 1039.96,440.209 1040.35,440.6 C1040.74,440.99 1040.94,441.446 1040.94,441.967 C1040.94,442.352 1040.84,442.712 1040.64,443.045 L1031.36,457.107 C1030.97,457.691 1030.39,457.982 1029.61,457.982 C1029.02,457.982 1028.53,457.753 1028.14,457.295 L1018.37,445.389 L1010.56,457.107 C1010.17,457.691 1009.58,457.982 1008.8,457.982 C1008.21,457.982 1007.73,457.753 1007.34,457.295 L997.468,445.389 L994.343,450.076 C993.958,450.66 993.406,450.951 992.687,450.951 C992.166,450.951 991.71,450.756 991.32,450.365 C990.929,449.975 990.734,449.519 990.734,448.998 C990.734,448.602 990.833,448.243 991.031,447.92 L1000.31,433.857 C1000.7,433.274 1001.28,432.982 1002.06,432.982 C1002.65,432.982 1003.13,433.212 1003.53,433.67 L1013.3,445.576 L1021.11,433.857 C1021.49,433.274 1022.08,432.982 1022.86,432.982 C1023.45,432.982 1023.94,433.212 1024.33,433.67 L1034.19,445.576 L1037.31,440.889 "/>
<path class="Fermata" d="M1370.36,1014.78 C1369.06,1013.48 1368.41,1011.92 1368.41,1010.09 C1368.41,1008.27 1369.06,1006.71 1370.36,1005.4 C1371.67,1004.1 1373.23,1003.45 1375.05,1003.45 C1376.87,1003.45 1378.44,1004.1 1379.74,1005.4 C1381.04,1006.71 1381.69,1008.27 1381.69,1010.09 C1381.69,1011.92 1381.04,1013.48 1379.74,1014.78 C1378.44,1016.08 1376.87,1016.73 1375.05,1016.73 C1373.23,1016.73 1371.67,1016.08 1370.36,1014.78 M1354.35,1016.73 C1353.89,1016.73 1353.47,1016.54 1353.08,1016.15 C1352.68,1015.76 1352.49,1015.33 1352.49,1014.87 C1352.49,1014.61 1352.65,1014.09 1352.97,1013.31 L1375.83,962.827 C1376.16,962.108 1376.71,961.748 1377.49,961.748 C1378.27,961.748 1378.82,962.108 1379.15,962.827 L1402,1013.4 C1402.27,1013.86 1402.4,1014.39 1402.4,1014.98 C1402.4,1015.56 1402.23,1016.02 1401.91,1016.34 C1401.65,1016.6 1401.22,1016.73 1400.63,1016.73 L1395.66,1016.73 C1394.88,1016.73 1394.32,1016.37 1393.99,1015.65 L1374.96,973.858 L1356.1,1015.65 C1355.78,1016.37 1355.19,1016.73 1354.35,1016.73"/>
<path class="Beam" fill-rule="evenodd" d="M2343.29,1129.44 L2449.02,1142.33 L2449.02,1154.42 L2343.29,1141.53 L2343.29,1129.44 "/>
<path class="Beam" fill-rule="evenodd" d="M2154.29,1154.48 L2282.5,1160.89 L2282.5,1172.9 L2154.29,1166.49 L2154.29,1154.48 "/>
<path class="Beam" fill-rule="evenodd" d="M2282.5,1142.89 L2251.25,1141.32 L2251.25,1153.34 L2282.5,1154.9 L2282.5,1142.89 "/>
<path class="Beam" fill-rule="evenodd" d="M1589.32,1135.73 L1743.53,1135.73 L1743.53,1147.73 L1589.32,1147.73 L1589.32,1135.73 "/>
<path class="Beam" fill-rule="evenodd" d="M1743.53,1117.73 L1712.28,1117.73 L1712.28,1129.73 L1743.53,1129.73 L1743.53,1117.73 "/>
<path class="Beam" fill-rule="evenodd" d="M1360.99,1154.48 L1515.19,1160.86 L1515.19,1172.87 L1360.99,1166.49 L1360.99,1154.48 "/>
<path class="Beam" fill-rule="evenodd" d="M1515.19,1142.86 L1483.94,1141.57 L1483.94,1153.58 L1515.19,1154.87 L1515.19,1142.86 "/>
<path class="Beam" fill-rule="evenodd" d="M1098.65,1160.73 L1252.86,1154.34 L1252.86,1166.35 L1098.65,1172.74 L1098.65,1160.73 "/>
<path class="Beam" fill-rule="evenodd" d="M1252.86,1136.34 L1221.61,1137.64 L1221.61,1149.65 L1252.86,1148.35 L1252.86,1136.34 "/>
<path class="Beam" fill-rule="evenodd" d="M899.983,1010.59 L1054.19,1016.98 L1054.19,1028.99 L899.983,1022.6 L899.983,1010.59 "/>
<path class="Beam" fill-rule="evenodd" d="M1054.19,1034.98 L1022.94,1033.68 L1022.94,1045.69 L1054.19,1046.99 L1054.19,1034.98 "/>
<path class="Beam" fill-rule="evenodd" d="M631.372,1129.44 L737.095,1142.33 L737.095,1154.42 L631.372,1141.53 L631.372,1129.44 "/>
<path class="Beam" fill-rule="evenodd" d="M442.373,1129.48 L570.575,1129.48 L570.575,1141.48 L442.373,1141.48 L442.373,1129.48 "/>
<path class="Beam" fill-rule="evenodd" d="M570.575,1111.48 L539.325,1111.48 L539.325,1123.48 L570.575,1123.48 L570.575,1111.48 "/>
<path class="Beam" fill-rule="evenodd" d="M2611.67,654.473 L2724.82,660.908 L2724.82,672.927 L2611.67,666.492 L2611.67,654.473 "/>
<path class="Beam" fill-rule="evenodd" d="M2391.87,660.723 L2505.02,667.158 L2505.02,679.177 L2391.87,672.742 L2391.87,660.723 "/>
<path class="Beam" fill-rule="evenodd" d="M2102.1,616.973 L2217.65,610.542 L2217.65,622.561 L2102.1,628.992 L2102.1,616.973 "/>
<path class="Beam" fill-rule="evenodd" d="M1877.49,635.723 L1993.04,629.292 L1993.04,641.311 L1877.49,647.742 L1877.49,635.723 "/>
<path class="Beam" fill-rule="evenodd" d="M1605.64,654.478 L1766.14,660.857 L1766.14,672.867 L1605.64,666.487 L1605.64,654.478 "/>
<path class="Beam" fill-rule="evenodd" d="M1766.14,642.857 L1734.89,641.615 L1734.89,653.624 L1766.14,654.867 L1766.14,642.857 "/>
<path class="Beam" fill-rule="evenodd" d="M1156.48,654.478 L1316.98,660.857 L1316.98,672.867 L1156.48,666.487 L1156.48,654.478 "/>
<path class="Beam" fill-rule="evenodd" d="M1316.98,642.857 L1285.73,641.615 L1285.73,653.624 L1316.98,654.867 L1316.98,642.857 "/>
<path class="Beam" fill-rule="evenodd" d="M703.888,635.728 L866.655,629.351 L866.655,641.36 L703.888,647.737 L703.888,635.728 "/>
<path class="Beam" fill-rule="evenodd" d="M866.655,611.351 L835.405,612.575 L835.405,624.584 L866.655,623.36 L866.655,611.351 "/>
<path class="Beam" fill-rule="evenodd" d="M462.607,704.441 L625.375,685.309 L625.375,697.392 L462.607,716.524 L462.607,704.441 "/>
<path class="Beam" fill-rule="evenodd" d="M625.375,667.309 L594.125,670.982 L594.125,683.065 L625.375,679.392 L625.375,667.309 "/>
<path class="VoltaSegment" d="M2158.57,1007.96 L2137.14,1007.96 L2137.14,1007.37 C2143.71,999.543 2147.7,994.28 2149.11,991.577 C2150.51,988.873 2151.22,986.235 2151.22,983.663 C2151.22,981.777 2150.63,980.212 2149.47,978.967 C2148.3,977.722 2146.88,977.1 2145.2,977.1 C2142.44,977.1 2140.3,978.48 2138.78,981.241 L2137.78,980.881 C2138.75,977.444 2140.22,974.902 2142.18,973.256 C2144.15,971.61 2146.43,970.788 2149.01,970.788 C2150.86,970.788 2152.54,971.217 2154.06,972.077 C2155.58,972.936 2156.77,974.113 2157.63,975.608 C2158.49,977.103 2158.92,978.506 2158.92,979.819 C2158.92,982.194 2158.26,984.61 2156.93,987.069 C2155.12,990.381 2151.17,995.001 2145.09,1000.93 L2152.95,1000.93 C2154.89,1000.93 2156.15,1000.85 2156.73,1000.69 C2157.31,1000.52 2157.79,1000.25 2158.17,999.866 C2158.54,999.48 2159.03,998.668 2159.64,997.428 L2160.61,997.428 L2158.57,1007.96 M2170.67,999.694 C2171.92,999.694 2172.98,1000.13 2173.85,1001.01 C2174.72,1001.88 2175.15,1002.94 2175.15,1004.18 C2175.15,1005.41 2174.72,1006.46 2173.84,1007.33 C2172.97,1008.2 2171.91,1008.63 2170.67,1008.63 C2169.43,1008.63 2168.38,1008.2 2167.51,1007.33 C2166.65,1006.46 2166.22,1005.41 2166.22,1004.18 C2166.22,1002.94 2166.65,1001.88 2167.51,1001.01 C2168.38,1000.13 2169.43,999.694 2170.67,999.694"/>
<polyline class="VoltaSegment" fill="none" stroke="#000000" stroke-width="2.50" stroke-linecap="square" stroke-linejoin="bevel" points="2124.29,1007.96 2124.29,960.459"/>
<polyline class="VoltaSegment" fill="none" stroke="#000000" stroke-width="2.50" stroke-linecap="square" stroke-linejoin="bevel" points="2124.29,960.459 2850.24,960.459"/>
<path class="VoltaSegment" d="M1358.39,898.577 L1358.39,928.358 C1358.39,930.597 1358.49,932.027 1358.69,932.647 C1358.89,933.267 1359.3,933.772 1359.93,934.162 C1360.56,934.553 1361.56,934.748 1362.94,934.748 L1363.77,934.748 L1363.77,935.748 L1344.59,935.748 L1344.59,934.748 L1345.56,934.748 C1347.12,934.748 1348.22,934.571 1348.89,934.217 C1349.56,933.863 1350.01,933.371 1350.24,932.741 C1350.46,932.11 1350.58,930.649 1350.58,928.358 L1350.58,909.483 C1350.58,907.795 1350.5,906.743 1350.34,906.327 C1350.18,905.91 1349.88,905.553 1349.44,905.256 C1349,904.959 1348.5,904.811 1347.92,904.811 C1347.01,904.811 1345.9,905.097 1344.59,905.67 L1344.11,904.702 L1357.52,898.577 L1358.39,898.577 M1375.36,927.483 C1376.61,927.483 1377.67,927.92 1378.54,928.795 C1379.41,929.67 1379.84,930.728 1379.84,931.967 C1379.84,933.196 1379.41,934.246 1378.53,935.116 C1377.66,935.985 1376.6,936.42 1375.36,936.42 C1374.12,936.42 1373.07,935.985 1372.2,935.116 C1371.34,934.246 1370.91,933.196 1370.91,931.967 C1370.91,930.728 1371.34,929.67 1372.2,928.795 C1373.07,927.92 1374.12,927.483 1375.36,927.483"/>
<polyline class="VoltaSegment" fill="none" stroke="#000000" stroke-width="2.50" stroke-linecap="square" stroke-linejoin="bevel" points="1330.99,935.748 1330.99,888.248"/>
<polyline class="VoltaSegment" fill="none" stroke="#000000" stroke-width="2.50" stroke-linecap="square" stroke-linejoin="bevel" points="1330.99,888.248 2115.9,888.248"/>
<path class="VoltaSegment" d="M2396.16,527.186 L2374.72,527.186 L2374.72,526.592 C2381.29,518.769 2385.28,513.506 2386.69,510.803 C2388.09,508.1 2388.8,505.462 2388.8,502.889 C2388.8,501.003 2388.21,499.438 2387.05,498.193 C2385.88,496.949 2384.46,496.326 2382.78,496.326 C2380.02,496.326 2377.88,497.706 2376.36,500.467 L2375.36,500.108 C2376.33,496.67 2377.8,494.128 2379.76,492.483 C2381.73,490.837 2384.01,490.014 2386.59,490.014 C2388.44,490.014 2390.12,490.443 2391.64,491.303 C2393.16,492.162 2394.35,493.339 2395.21,494.834 C2396.07,496.329 2396.5,497.733 2396.5,499.045 C2396.5,501.42 2395.84,503.837 2394.51,506.295 C2392.7,509.608 2388.75,514.227 2382.67,520.154 L2390.53,520.154 C2392.47,520.154 2393.73,520.074 2394.31,519.912 C2394.89,519.751 2395.37,519.477 2395.75,519.092 C2396.12,518.706 2396.61,517.894 2397.22,516.654 L2398.19,516.654 L2396.16,527.186 M2408.25,518.92 C2409.5,518.92 2410.56,519.358 2411.43,520.233 C2412.3,521.108 2412.73,522.165 2412.73,523.404 C2412.73,524.634 2412.3,525.683 2411.42,526.553 C2410.55,527.423 2409.49,527.858 2408.25,527.858 C2407.01,527.858 2405.96,527.423 2405.09,526.553 C2404.23,525.683 2403.8,524.634 2403.8,523.404 C2403.8,522.165 2404.23,521.108 2405.09,520.233 C2405.96,519.358 2407.01,518.92 2408.25,518.92"/>
<polyline class="VoltaSegment" fill="none" stroke="#000000" stroke-width="2.50" stroke-linecap="square" stroke-linejoin="bevel" points="2361.87,527.186 2361.87,479.686"/>
<polyline class="VoltaSegment" fill="none" stroke="#000000" stroke-width="2.50" stroke-linecap="square" stroke-linejoin="bevel" points="2361.87,479.686 2833.47,479.686"/>
<path class="VoltaSegment" d="M1874.89,490.014 L1874.89,519.795 C1874.89,522.035 1874.99,523.464 1875.19,524.084 C1875.39,524.704 1875.8,525.209 1876.43,525.6 C1877.06,525.99 1878.06,526.186 1879.44,526.186 L1880.27,526.186 L1880.27,527.186 L1861.1,527.186 L1861.1,526.186 L1862.06,526.186 C1863.62,526.186 1864.73,526.009 1865.39,525.654 C1866.06,525.3 1866.51,524.808 1866.74,524.178 C1866.97,523.548 1867.08,522.087 1867.08,519.795 L1867.08,500.92 C1867.08,499.233 1867,498.18 1866.84,497.764 C1866.68,497.347 1866.38,496.99 1865.94,496.693 C1865.5,496.397 1865,496.248 1864.42,496.248 C1863.51,496.248 1862.4,496.535 1861.1,497.108 L1860.61,496.139 L1874.02,490.014 L1874.89,490.014 M1891.86,518.92 C1893.11,518.92 1894.17,519.358 1895.04,520.233 C1895.91,521.108 1896.35,522.165 1896.35,523.404 C1896.35,524.634 1895.91,525.683 1895.03,526.553 C1894.16,527.423 1893.1,527.858 1891.86,527.858 C1890.62,527.858 1889.57,527.423 1888.71,526.553 C1887.84,525.683 1887.41,524.634 1887.41,523.404 C1887.41,522.165 1887.84,521.108 1888.71,520.233 C1889.57,519.358 1890.62,518.92 1891.86,518.92"/>
<polyline class="VoltaSegment" fill="none" stroke="#000000" stroke-width="2.50" stroke-linecap="square" stroke-linejoin="bevel" points="1847.49,527.186 1847.49,479.686"/>
<polyline class="VoltaSegment" fill="none" stroke="#000000" stroke-width="2.50" stroke-linecap="square" stroke-linejoin="bevel" points="1847.49,479.686 2347.54,479.686"/>
<path class="NoteDot" d="M2197.62,1058.24 C2196.51,1057.13 2195.96,1055.8 2195.96,1054.23 C2195.96,1052.67 2196.51,1051.33 2197.62,1050.23 C2198.73,1049.12 2200.07,1048.56 2201.63,1048.56 C2203.19,1048.56 2204.53,1049.12 2205.63,1050.23 C2206.73,1051.33 2207.29,1052.67 2207.29,1054.23 C2207.29,1055.8 2206.73,1057.13 2205.63,1058.24 C2204.53,1059.35 2203.19,1059.9 2201.63,1059.9 C2200.07,1059.9 2198.73,1059.35 2197.62,1058.24"/>
<path class="NoteDot" d="M1632.65,1058.24 C1631.54,1057.13 1630.98,1055.8 1630.98,1054.23 C1630.98,1052.67 1631.54,1051.33 1632.65,1050.23 C1633.76,1049.12 1635.09,1048.56 1636.65,1048.56 C1638.22,1048.56 1639.55,1049.12 1640.65,1050.23 C1641.76,1051.33 1642.31,1052.67 1642.31,1054.23 C1642.31,1055.8 1641.76,1057.13 1640.65,1058.24 C1639.55,1059.35 1638.22,1059.9 1636.65,1059.9 C1635.09,1059.9 1633.76,1059.35 1632.65,1058.24"/>
<path class="NoteDot" d="M1404.31,1058.24 C1403.2,1057.13 1402.65,1055.8 1402.65,1054.23 C1402.65,1052.67 1403.2,1051.33 1404.31,1050.23 C1405.42,1049.12 1406.76,1048.56 1408.32,1048.56 C1409.88,1048.56 1411.22,1049.12 1412.32,1050.23 C1413.43,1051.33 1413.98,1052.67 1413.98,1054.23 C1413.98,1055.8 1413.43,1057.13 1412.32,1058.24 C1411.22,1059.35 1409.88,1059.9 1408.32,1059.9 C1406.76,1059.9 1405.42,1059.35 1404.31,1058.24"/>
<path class="NoteDot" d="M1141.98,1083.24 C1140.87,1082.13 1140.32,1080.8 1140.32,1079.23 C1140.32,1077.67 1140.87,1076.33 1141.98,1075.23 C1143.09,1074.12 1144.43,1073.56 1145.99,1073.56 C1147.55,1073.56 1148.88,1074.12 1149.99,1075.23 C1151.09,1076.33 1151.64,1077.67 1151.64,1079.23 C1151.64,1080.8 1151.09,1082.13 1149.99,1083.24 C1148.88,1084.35 1147.55,1084.9 1145.99,1084.9 C1144.43,1084.9 1143.09,1084.35 1141.98,1083.24"/>
<path class="NoteDot" d="M913.647,1083.24 C912.538,1082.13 911.983,1080.8 911.983,1079.23 C911.983,1077.67 912.538,1076.33 913.647,1075.23 C914.756,1074.12 916.092,1073.56 917.655,1073.56 C919.217,1073.56 920.551,1074.12 921.655,1075.23 C922.759,1076.33 923.311,1077.67 923.311,1079.23 C923.311,1080.8 922.759,1082.13 921.655,1083.24 C920.551,1084.35 919.217,1084.9 917.655,1084.9 C916.092,1084.9 914.756,1084.35 913.647,1083.24"/>
<path class="NoteDot" d="M485.701,1058.24 C484.592,1057.13 484.037,1055.8 484.037,1054.23 C484.037,1052.67 484.592,1051.33 485.701,1050.23 C486.811,1049.12 488.147,1048.56 489.709,1048.56 C491.272,1048.56 492.605,1049.12 493.709,1050.23 C494.813,1051.33 495.365,1052.67 495.365,1054.23 C495.365,1055.8 494.813,1057.13 493.709,1058.24 C492.605,1059.35 491.272,1059.9 489.709,1059.9 C488.147,1059.9 486.811,1059.35 485.701,1058.24"/>
<path class="NoteDot" d="M1648.97,583.24 C1647.86,582.131 1647.31,580.795 1647.31,579.233 C1647.31,577.67 1647.86,576.334 1648.97,575.225 C1650.08,574.115 1651.42,573.561 1652.98,573.561 C1654.54,573.561 1655.88,574.115 1656.98,575.225 C1658.08,576.334 1658.64,577.67 1658.64,579.233 C1658.64,580.795 1658.08,582.131 1656.98,583.24 C1655.88,584.35 1654.54,584.904 1652.98,584.904 C1651.42,584.904 1650.08,584.35 1648.97,583.24"/>
<path class="NoteDot" d="M1199.81,583.24 C1198.7,582.131 1198.15,580.795 1198.15,579.233 C1198.15,577.67 1198.7,576.334 1199.81,575.225 C1200.92,574.115 1202.26,573.561 1203.82,573.561 C1205.38,573.561 1206.72,574.115 1207.82,575.225 C1208.92,576.334 1209.48,577.67 1209.48,579.233 C1209.48,580.795 1208.92,582.131 1207.82,583.24 C1206.72,584.35 1205.38,584.904 1203.82,584.904 C1202.26,584.904 1200.92,584.35 1199.81,583.24"/>
<path class="NoteDot" d="M747.216,558.24 C746.107,557.131 745.552,555.795 745.552,554.233 C745.552,552.67 746.107,551.334 747.216,550.225 C748.325,549.115 749.661,548.561 751.224,548.561 C752.786,548.561 754.12,549.115 755.224,550.225 C756.328,551.334 756.88,552.67 756.88,554.233 C756.88,555.795 756.328,557.131 755.224,558.24 C754.12,559.35 752.786,559.904 751.224,559.904 C749.661,559.904 748.325,559.35 747.216,558.24"/>
<path class="NoteDot" d="M505.936,633.24 C504.826,632.131 504.272,630.795 504.272,629.233 C504.272,627.67 504.826,626.334 505.936,625.225 C507.045,624.115 508.381,623.561 509.943,623.561 C511.506,623.561 512.839,624.115 513.943,625.225 C515.048,626.334 515.6,627.67 515.6,629.233 C515.6,630.795 515.048,632.131 513.943,633.24 C512.839,634.35 511.506,634.904 509.943,634.904 C508.381,634.904 507.045,634.35 505.936,633.24"/>
</svg>
