<?xml version="1.0" encoding="UTF-8" standalone="no"?>
<svg width="2977.23px" height="4208.45px" viewBox="0 0 2977.23 4208.45"
 xmlns="http://www.w3.org/2000/svg" xmlns:xlink="http://www.w3.org/1999/xlink" version="1.2" baseProfile="tiny">
<title>Sti tu</title>
<desc>Generated by MuseScore 3.0.2</desc>
<polyline class="StaffLines" fill="none" stroke="#000000" stroke-width="1.47" stroke-linejoin="bevel" points="141.732,454.961 2835.49,454.961"/>
<polyline class="StaffLines" fill="none" stroke="#000000" stroke-width="1.47" stroke-linejoin="bevel" points="141.732,473.386 2835.49,473.386"/>
<polyline class="StaffLines" fill="none" stroke="#000000" stroke-width="1.47" stroke-linejoin="bevel" points="141.732,491.811 2835.49,491.811"/>
<polyline class="StaffLines" fill="none" stroke="#000000" stroke-width="1.47" stroke-linejoin="bevel" points="141.732,510.236 2835.49,510.236"/>
<polyline class="StaffLines" fill="none" stroke="#000000" stroke-width="1.47" stroke-linejoin="bevel" points="141.732,528.661 2835.49,528.661"/>
<polyline class="StaffLines" fill="none" stroke="#000000" stroke-width="1.47" stroke-linejoin="bevel" points="141.732,805.039 2835.49,805.039"/>
<polyline class="StaffLines" fill="none" stroke="#000000" stroke-width="1.47" stroke-linejoin="bevel" points="141.732,823.465 2835.49,823.465"/>
<polyline class="StaffLines" fill="none" stroke="#000000" stroke-width="1.47" stroke-linejoin="bevel" points="141.732,841.89 2835.49,841.89"/>
<polyline class="StaffLines" fill="none" stroke="#000000" stroke-width="1.47" stroke-linejoin="bevel" points="141.732,860.315 2835.49,860.315"/>
<polyline class="StaffLines" fill="none" stroke="#000000" stroke-width="1.47" stroke-linejoin="bevel" points="141.732,878.74 2835.49,878.74"/>
<polyline class="StaffLines" fill="none" stroke="#000000" stroke-width="1.47" stroke-linejoin="bevel" points="141.732,1155.12 2835.49,1155.12"/>
<polyline class="StaffLines" fill="none" stroke="#000000" stroke-width="1.47" stroke-linejoin="bevel" points="141.732,1173.54 2835.49,1173.54"/>
<polyline class="StaffLines" fill="none" stroke="#000000" stroke-width="1.47" stroke-linejoin="bevel" points="141.732,1191.97 2835.49,1191.97"/>
<polyline class="StaffLines" fill="none" stroke="#000000" stroke-width="1.47" stroke-linejoin="bevel" points="141.732,1210.39 2835.49,1210.39"/>
<polyline class="StaffLines" fill="none" stroke="#000000" stroke-width="1.47" stroke-linejoin="bevel" points="141.732,1228.82 2835.49,1228.82"/>
<path class="Text" d="M1364.81,263.608 C1364.81,258.91 1363.16,254.736 1359.86,251.085 C1356.56,247.434 1352.56,244.309 1347.86,241.71 C1343.16,239.111 1338.48,236.436 1333.83,233.686 C1329.18,230.936 1325.21,227.41 1321.9,223.108 C1318.6,218.806 1316.95,213.806 1316.95,208.108 C1316.95,200.514 1319.53,194.343 1324.68,189.593 C1329.83,184.843 1335.9,182.468 1342.9,182.468 C1347.1,182.468 1351.65,183.317 1356.55,185.014 C1361.45,186.712 1364.4,187.561 1365.4,187.561 C1368.01,187.561 1369.61,185.863 1370.2,182.468 L1373.36,182.468 L1376.65,214.405 L1372.9,214.405 C1370.51,205.613 1366.83,199.116 1361.88,194.913 C1356.93,190.71 1351.45,188.608 1345.45,188.608 C1340.86,188.608 1337.11,189.908 1334.21,192.507 C1331.31,195.106 1329.86,198.457 1329.86,202.561 C1329.86,206.561 1331.56,210.361 1334.96,213.96 C1338.36,217.559 1344.01,221.561 1351.9,225.968 C1361.8,231.259 1368.95,236.481 1373.35,241.632 C1377.75,246.783 1379.95,252.457 1379.95,258.655 C1379.95,266.353 1377,272.827 1371.1,278.077 C1365.2,283.327 1357.95,285.952 1349.36,285.952 C1344.36,285.952 1339.28,285.103 1334.13,283.405 C1328.98,281.707 1325.81,280.858 1324.61,280.858 C1323.5,280.858 1322.55,281.332 1321.76,282.28 C1320.96,283.228 1320.51,284.405 1320.4,285.811 L1317.11,285.811 L1312.61,254.014 L1316.06,254.014 C1319.76,263.108 1324.06,269.806 1328.96,274.108 C1333.86,278.41 1339.66,280.561 1346.36,280.561 C1351.86,280.561 1356.31,278.986 1359.71,275.835 C1363.11,272.684 1364.81,268.608 1364.81,263.608 M1425.95,216.358 L1425.95,220.858 L1410.81,220.858 L1410.81,263.764 C1410.81,268.462 1411.41,271.887 1412.61,274.038 C1413.81,276.189 1415.81,277.264 1418.61,277.264 C1421.71,277.264 1424.71,275.514 1427.61,272.014 L1429.56,273.655 C1424.76,281.457 1418.76,285.358 1411.56,285.358 C1402.65,285.358 1398.2,278.978 1398.2,266.218 L1398.2,220.858 L1390.26,220.858 C1389.86,220.577 1389.65,220.249 1389.65,219.874 C1389.65,219.405 1389.81,219.03 1390.11,218.749 C1390.41,218.468 1390.98,218.069 1391.83,217.554 C1392.68,217.038 1393.71,216.298 1394.9,215.335 C1396.1,214.371 1397.75,212.624 1399.86,210.093 C1401.96,207.561 1404.26,204.52 1406.76,200.968 C1408.36,198.634 1409.36,197.218 1409.76,196.718 C1410.46,196.718 1410.81,197.374 1410.81,198.686 L1410.81,216.358 L1425.95,216.358 M1438.4,224.905 C1436.21,224.905 1434.11,225.056 1432.11,225.358 L1432.11,223.108 C1439.11,221.108 1446.86,218.358 1455.36,214.858 L1455.95,215.311 L1455.95,268.561 C1455.95,273.957 1456.58,277.382 1457.83,278.835 C1459.08,280.288 1462.15,281.212 1467.06,281.608 L1467.06,283.858 L1431.51,283.858 L1431.51,281.608 C1436.71,281.306 1439.98,280.405 1441.33,278.905 C1442.68,277.405 1443.36,273.957 1443.36,268.561 L1443.36,233.764 C1443.36,230.462 1442.98,228.16 1442.23,226.858 C1441.48,225.556 1440.21,224.905 1438.4,224.905 M1448.31,181.405 C1450.51,181.405 1452.36,182.155 1453.86,183.655 C1455.36,185.155 1456.11,186.957 1456.11,189.061 C1456.11,191.259 1455.36,193.085 1453.86,194.538 C1452.36,195.991 1450.51,196.718 1448.31,196.718 C1446.21,196.718 1444.43,195.968 1442.98,194.468 C1441.53,192.968 1440.81,191.166 1440.81,189.061 C1440.81,186.957 1441.56,185.155 1443.06,183.655 C1444.56,182.155 1446.31,181.405 1448.31,181.405 M1480.4,224.905 C1478.21,224.905 1476.11,225.056 1474.11,225.358 L1474.11,223.108 C1481.11,221.108 1488.86,218.358 1497.36,214.858 L1497.95,215.311 L1497.95,268.561 C1497.95,273.957 1498.58,277.382 1499.83,278.835 C1501.08,280.288 1504.15,281.212 1509.06,281.608 L1509.06,283.858 L1473.51,283.858 L1473.51,281.608 C1478.71,281.306 1481.98,280.405 1483.33,278.905 C1484.68,277.405 1485.36,273.957 1485.36,268.561 L1485.36,233.764 C1485.36,230.462 1484.98,228.16 1484.23,226.858 C1483.48,225.556 1482.21,224.905 1480.4,224.905 M1490.31,181.405 C1492.51,181.405 1494.36,182.155 1495.86,183.655 C1497.36,185.155 1498.11,186.957 1498.11,189.061 C1498.11,191.259 1497.36,193.085 1495.86,194.538 C1494.36,195.991 1492.51,196.718 1490.31,196.718 C1488.21,196.718 1486.43,195.968 1484.98,194.468 C1483.53,192.968 1482.81,191.166 1482.81,189.061 C1482.81,186.957 1483.56,185.155 1485.06,183.655 C1486.56,182.155 1488.31,181.405 1490.31,181.405 M1589.95,216.358 L1589.95,220.858 L1574.81,220.858 L1574.81,263.764 C1574.81,268.462 1575.41,271.887 1576.61,274.038 C1577.81,276.189 1579.81,277.264 1582.61,277.264 C1585.71,277.264 1588.71,275.514 1591.61,272.014 L1593.56,273.655 C1588.76,281.457 1582.76,285.358 1575.56,285.358 C1566.65,285.358 1562.2,278.978 1562.2,266.218 L1562.2,220.858 L1554.26,220.858 C1553.86,220.577 1553.65,220.249 1553.65,219.874 C1553.65,219.405 1553.81,219.03 1554.11,218.749 C1554.41,218.468 1554.98,218.069 1555.83,217.554 C1556.68,217.038 1557.71,216.298 1558.9,215.335 C1560.1,214.371 1561.75,212.624 1563.86,210.093 C1565.96,207.561 1568.26,204.52 1570.76,200.968 C1572.36,198.634 1573.36,197.218 1573.76,196.718 C1574.46,196.718 1574.81,197.374 1574.81,198.686 L1574.81,216.358 L1589.95,216.358 M1665.11,276.061 L1665.11,278.155 C1657.31,280.353 1650.46,282.702 1644.56,285.202 L1643.95,284.905 L1643.95,272.186 C1643.65,272.478 1642.77,273.371 1641.33,274.866 C1639.88,276.361 1638.85,277.395 1638.26,277.968 C1637.66,278.541 1636.63,279.423 1635.18,280.616 C1633.72,281.809 1632.45,282.663 1631.35,283.179 C1630.25,283.694 1628.85,284.186 1627.15,284.655 C1625.46,285.124 1623.76,285.358 1622.06,285.358 C1616.56,285.358 1612.16,283.561 1608.86,279.968 C1605.56,276.374 1603.9,271.587 1603.9,265.608 L1603.9,228.014 C1603.9,224.525 1603.26,222.111 1601.96,220.772 C1600.66,219.434 1598.21,218.666 1594.61,218.468 L1594.61,216.358 L1616.51,216.358 L1616.51,265.014 C1616.51,268.098 1617.56,270.759 1619.66,272.999 C1621.76,275.238 1624.26,276.358 1627.15,276.358 C1628.26,276.358 1629.56,276.21 1631.06,275.913 C1632.56,275.616 1634.28,275.043 1636.23,274.194 C1638.18,273.345 1639.83,272.001 1641.18,270.163 C1642.53,268.324 1643.2,266.061 1643.2,263.374 L1643.2,228.311 C1643.2,224.634 1642.53,222.197 1641.18,220.999 C1639.83,219.801 1636.81,219.103 1632.11,218.905 L1632.11,216.358 L1655.81,216.358 L1655.81,267.546 C1655.81,271.035 1656.36,273.327 1657.46,274.421 C1658.56,275.514 1660.86,276.061 1664.36,276.061 L1665.11,276.061 "/>
<path class="MeasureNumber" d="M131.045,1101.06 C130.691,1101.06 129.993,1101.28 128.951,1101.71 L128.951,1101.3 L134.17,1098.66 L134.404,1098.72 L134.404,1116.13 C134.404,1116.81 134.579,1117.27 134.928,1117.48 C135.277,1117.69 136.019,1117.81 137.154,1117.83 L137.154,1118.27 L129.154,1118.27 L129.154,1117.83 C130.237,1117.79 130.967,1117.63 131.342,1117.35 C131.717,1117.08 131.904,1116.48 131.904,1115.56 L131.904,1102.42 C131.904,1101.52 131.618,1101.06 131.045,1101.06 M152.74,1115.89 C151.537,1117.75 149.951,1118.67 147.982,1118.67 C146.013,1118.67 144.43,1117.73 143.232,1115.83 C142.034,1113.93 141.435,1111.5 141.435,1108.52 C141.435,1105.72 142.034,1103.37 143.232,1101.49 C144.43,1099.6 146.055,1098.66 148.107,1098.66 C149.993,1098.66 151.537,1099.59 152.74,1101.44 C153.943,1103.29 154.545,1105.71 154.545,1108.69 C154.545,1111.64 153.943,1114.04 152.74,1115.89 M148.013,1099.41 C145.482,1099.41 144.217,1102.53 144.217,1108.78 C144.217,1114.88 145.472,1117.92 147.982,1117.92 C150.493,1117.92 151.748,1114.87 151.748,1108.75 C151.748,1105.72 151.43,1103.41 150.795,1101.81 C150.159,1100.21 149.232,1099.41 148.013,1099.41"/>
<path class="MeasureNumber" d="M142.217,768.595 C140.258,768.595 138.685,767.817 137.498,766.259 C136.31,764.702 135.717,762.642 135.717,760.08 C135.717,759.288 135.795,758.473 135.951,757.634 C136.107,756.796 136.446,755.84 136.967,754.767 C137.487,753.694 138.165,752.733 138.998,751.884 C139.831,751.035 140.995,750.277 142.49,749.611 C143.985,748.944 145.711,748.522 147.67,748.345 L147.732,748.814 C145.451,749.179 143.545,750.1 142.013,751.58 C140.482,753.059 139.524,754.892 139.138,757.08 C140.045,756.559 140.732,756.22 141.201,756.064 C141.67,755.908 142.222,755.83 142.857,755.83 C144.513,755.83 145.836,756.369 146.826,757.447 C147.816,758.525 148.31,759.981 148.31,761.814 C148.31,763.814 147.745,765.444 146.615,766.705 C145.485,767.965 144.019,768.595 142.217,768.595 M141.748,757.111 C140.435,757.111 139.553,757.4 139.099,757.978 C138.646,758.556 138.42,759.413 138.42,760.548 C138.42,762.777 138.787,764.53 139.521,765.806 C140.256,767.082 141.258,767.72 142.529,767.72 C143.56,767.72 144.347,767.293 144.888,766.439 C145.43,765.585 145.701,764.371 145.701,762.798 C145.701,760.986 145.357,759.585 144.67,758.595 C143.982,757.606 143.008,757.111 141.748,757.111"/>
<path class="SlurSegment" fill="none" stroke="#000000" stroke-dasharray="7.37008,3.68504" stroke-dashoffset="0" stroke-width="1.84" stroke-linecap="square" stroke-linejoin="bevel" fill-rule="evenodd" d="M720.445,1138.54 C748.175,1110.21 803.636,1110.21 831.366,1138.54"/>
<path class="SlurSegment" fill="none" stroke="#000000" stroke-dasharray="7.37008,3.68504" stroke-dashoffset="0" stroke-width="1.84" stroke-linecap="square" stroke-linejoin="bevel" fill-rule="evenodd" d="M799.297,797.669 C815.804,777.649 848.818,777.649 865.324,797.669"/>
<path class="TieSegment" stroke="#000000" stroke-width="1.29" stroke-linecap="round" stroke-linejoin="round" fill-rule="evenodd" d="M1676.47,1193.5 C1711.92,1168.08 1818.29,1168.08 1853.74,1193.5 C1818.29,1171.03 1711.92,1171.03 1676.47,1193.5"/>
<path class="TieSegment" stroke="#000000" stroke-width="1.29" stroke-linecap="round" stroke-linejoin="round" fill-rule="evenodd" d="M308.328,1122.87 C345.655,1097.45 457.637,1097.45 494.964,1122.87 C457.637,1100.4 345.655,1100.4 308.328,1122.87"/>
<path class="TieSegment" stroke="#000000" stroke-width="1.29" stroke-linecap="round" stroke-linejoin="round" fill-rule="evenodd" d="M1676.47,1193.5 C1711.92,1168.08 1818.29,1168.08 1853.74,1193.5 C1818.29,1171.03 1711.92,1171.03 1676.47,1193.5"/>
<path class="TieSegment" stroke="#000000" stroke-width="1.29" stroke-linecap="round" stroke-linejoin="round" fill-rule="evenodd" d="M308.328,1122.87 C345.655,1097.45 457.637,1097.45 494.964,1122.87 C457.637,1100.4 345.655,1100.4 308.328,1122.87"/>
<path class="TieSegment" stroke="#000000" stroke-width="1.29" stroke-linecap="round" stroke-linejoin="round" fill-rule="evenodd" d="M1601.78,818.858 C1643.22,793.431 1767.54,793.431 1808.98,818.858 C1767.54,796.379 1643.22,796.379 1601.78,818.858"/>
<path class="TieSegment" stroke="#000000" stroke-width="1.29" stroke-linecap="round" stroke-linejoin="round" fill-rule="evenodd" d="M301.327,800.433 C336.807,775.006 443.247,775.006 478.727,800.433 C443.247,777.954 336.807,777.954 301.327,800.433"/>
<path class="TieSegment" stroke="#000000" stroke-width="1.29" stroke-linecap="round" stroke-linejoin="round" fill-rule="evenodd" d="M1601.78,818.858 C1643.22,793.431 1767.54,793.431 1808.98,818.858 C1767.54,796.379 1643.22,796.379 1601.78,818.858"/>
<path class="TieSegment" stroke="#000000" stroke-width="1.29" stroke-linecap="round" stroke-linejoin="round" fill-rule="evenodd" d="M301.327,800.433 C336.807,775.006 443.247,775.006 478.727,800.433 C443.247,777.954 336.807,777.954 301.327,800.433"/>
<path class="TieSegment" stroke="#000000" stroke-width="1.29" stroke-linecap="round" stroke-linejoin="round" fill-rule="evenodd" d="M1694.79,493.347 C1729.84,467.92 1834.98,467.92 1870.03,493.347 C1834.98,470.868 1729.84,470.868 1694.79,493.347"/>
<path class="TieSegment" stroke="#000000" stroke-width="1.29" stroke-linecap="round" stroke-linejoin="round" fill-rule="evenodd" d="M1694.79,493.347 C1729.84,467.92 1834.98,467.92 1870.03,493.347 C1834.98,470.868 1729.84,470.868 1694.79,493.347"/>
<polyline class="BarLine" stroke="#000000" stroke-width="2.95" stroke-linejoin="bevel" points="2818.91,1154.38 2818.91,1229.56"/>
<polyline class="BarLine" stroke="#000000" stroke-width="9.21" stroke-linejoin="bevel" points="2830.89,1154.38 2830.89,1229.56"/>
<polyline class="BarLine" stroke="#000000" stroke-width="2.95" stroke-linejoin="bevel" points="2294.51,1154.38 2294.51,1229.56"/>
<polyline class="BarLine" stroke="#000000" stroke-width="2.95" stroke-linejoin="bevel" points="1624.23,1154.38 1624.23,1229.56"/>
<polyline class="BarLine" stroke="#000000" stroke-width="2.95" stroke-linejoin="bevel" points="959.363,1154.38 959.363,1229.56"/>
<polyline class="BarLine" stroke="#000000" stroke-width="2.95" stroke-linejoin="bevel" points="2834.02,804.302 2834.02,879.477"/>
<polyline class="BarLine" stroke="#000000" stroke-width="2.95" stroke-linejoin="bevel" points="2192.28,804.302 2192.28,879.477"/>
<polyline class="BarLine" stroke="#000000" stroke-width="2.95" stroke-linejoin="bevel" points="1560.9,804.302 1560.9,879.477"/>
<polyline class="BarLine" stroke="#000000" stroke-width="2.95" stroke-linejoin="bevel" points="920.697,804.302 920.697,879.477"/>
<polyline class="BarLine" stroke="#000000" stroke-width="2.95" stroke-linejoin="bevel" points="2834.02,454.224 2834.02,529.398"/>
<polyline class="BarLine" stroke="#000000" stroke-width="2.95" stroke-linejoin="bevel" points="2230.77,454.224 2230.77,529.398"/>
<polyline class="BarLine" stroke="#000000" stroke-width="2.95" stroke-linejoin="bevel" points="1642.55,454.224 1642.55,529.398"/>
<polyline class="BarLine" stroke="#000000" stroke-width="2.95" stroke-linejoin="bevel" points="1044.94,454.224 1044.94,529.398"/>
<polyline class="BarLine" stroke="#000000" stroke-width="2.95" stroke-linejoin="bevel" points="418.099,454.224 418.099,529.398"/>
<path class="Accidental" transform="matrix(0.737008,0,0,0.737008,2609.7,860.315)" d="M21.5781,31.1563 C21.5781,32.3958 20.9609,33.0156 19.7266,33.0156 C18.4922,33.0156 17.875,32.3958 17.875,31.1563 L17.875,16.7031 L9.57813,19.8281 L9.57813,35.6406 C9.57813,36.8802 8.95833,37.5 7.71875,37.5 C6.47917,37.5 5.85938,36.8802 5.85938,35.6406 L5.85938,21.0938 L2.73438,22.2656 C2.67188,22.3281 2.41146,22.3594 1.95313,22.3594 C1.43229,22.3594 0.976563,22.1641 0.585938,21.7734 C0.195313,21.3828 0,20.9271 0,20.4063 L0,14.3594 C0,13.3802 0.421875,12.7604 1.26563,12.5 L5.85938,10.9375 L5.85938,-5.07813 L2.73438,-4 C2.67188,-3.9375 2.41146,-3.90625 1.95313,-3.90625 C1.43229,-3.90625 0.976563,-4.10156 0.585938,-4.49219 C0.195313,-4.88281 0,-5.33854 0,-5.85938 L0,-11.9219 C0,-12.8281 0.421875,-13.4115 1.26563,-13.6719 L5.85938,-15.4375 L5.85938,-31.1563 C5.85938,-32.3958 6.47917,-33.0156 7.71875,-33.0156 C8.95833,-33.0156 9.57813,-32.3958 9.57813,-31.1563 L9.57813,-16.7031 L17.875,-19.8281 L17.875,-35.6406 C17.875,-36.8802 18.4922,-37.5 19.7266,-37.5 C20.9609,-37.5 21.5781,-36.8802 21.5781,-35.6406 L21.5781,-21.0938 L24.8125,-22.2656 C24.875,-22.3281 25.099,-22.3594 25.4844,-22.3594 C25.9427,-22.3594 26.4323,-22.1667 26.9531,-21.7813 C27.349,-21.3854 27.5469,-20.9271 27.5469,-20.4063 L27.5469,-14.3594 C27.5469,-13.4427 27.0885,-12.8229 26.1719,-12.5 L21.5781,-10.9375 L21.5781,5.07813 L24.8125,4 C24.875,3.9375 25.099,3.90625 25.4844,3.90625 C25.9427,3.90625 26.4323,4.10417 26.9531,4.5 C27.349,4.88542 27.5469,5.33854 27.5469,5.85938 L27.5469,11.9219 C27.5469,12.7656 27.0885,13.349 26.1719,13.6719 L21.5781,15.4375 L21.5781,31.1563 M17.875,-9.46875 L9.57813,-6.54688 L9.57813,9.46875 L17.875,6.54688 L17.875,-9.46875 "/>
<polyline class="LedgerLine" stroke="#000000" stroke-width="2.95" stroke-linecap="square" stroke-linejoin="bevel" points="480.946,1136.69 516.259,1136.69"/>
<polyline class="LedgerLine" stroke="#000000" stroke-width="2.95" stroke-linecap="square" stroke-linejoin="bevel" points="286.169,1136.69 322.812,1136.69"/>
<polyline class="Stem" stroke="#000000" stroke-width="2.40" stroke-linecap="round" stroke-linejoin="bevel" points="2342.48,1207.56 2342.48,1148.21"/>
<polyline class="Stem" stroke="#000000" stroke-width="2.40" stroke-linecap="round" stroke-linejoin="bevel" points="2244.08,1188.51 2244.08,1136.69"/>
<polyline class="Stem" stroke="#000000" stroke-width="2.40" stroke-linecap="round" stroke-linejoin="bevel" points="2103.59,1197.72 2103.59,1141.3"/>
<polyline class="Stem" stroke="#000000" stroke-width="2.40" stroke-linecap="round" stroke-linejoin="bevel" points="1966.51,1177 1966.51,1233.43"/>
<polyline class="Stem" stroke="#000000" stroke-width="2.40" stroke-linecap="round" stroke-linejoin="bevel" points="1851.3,1204.64 1851.3,1251.85"/>
<polyline class="Stem" stroke="#000000" stroke-width="2.40" stroke-linecap="round" stroke-linejoin="bevel" points="1672.2,1198.35 1672.2,1141.3"/>
<polyline class="Stem" stroke="#000000" stroke-width="2.40" stroke-linecap="round" stroke-linejoin="bevel" points="1535.09,1213.85 1535.09,1265.67"/>
<polyline class="Stem" stroke="#000000" stroke-width="2.40" stroke-linecap="round" stroke-linejoin="bevel" points="1446.23,1195.43 1446.23,1254.15"/>
<polyline class="Stem" stroke="#000000" stroke-width="2.40" stroke-linecap="round" stroke-linejoin="bevel" points="1357.36,1177 1357.36,1242.64"/>
<polyline class="Stem" stroke="#000000" stroke-width="2.40" stroke-linecap="round" stroke-linejoin="bevel" points="1126.32,1177 1126.32,1235.73"/>
<polyline class="Stem" stroke="#000000" stroke-width="2.40" stroke-linecap="round" stroke-linejoin="bevel" points="984.145,1167.79 984.145,1228.82"/>
<polyline class="Stem" stroke="#000000" stroke-width="2.40" stroke-linecap="round" stroke-linejoin="bevel" points="889.761,1167.79 889.761,1228.82"/>
<polyline class="Stem" stroke="#000000" stroke-width="2.40" stroke-linecap="round" stroke-linejoin="bevel" points="820.435,1158.58 820.435,1227.05"/>
<polyline class="Stem" stroke="#000000" stroke-width="2.40" stroke-linecap="round" stroke-linejoin="bevel" points="709.514,1158.58 709.514,1224.21"/>
<polyline class="Stem" stroke="#000000" stroke-width="2.40" stroke-linecap="round" stroke-linejoin="bevel" points="598.592,1149.37 598.592,1196.57"/>
<polyline class="Stem" stroke="#000000" stroke-width="2.40" stroke-linecap="round" stroke-linejoin="bevel" points="487.671,1140.15 487.671,1191.97"/>
<polyline class="Stem" stroke="#000000" stroke-width="2.40" stroke-linecap="round" stroke-linejoin="bevel" points="292.894,1139.58 292.894,1201.18"/>
<polyline class="Stem" stroke="#000000" stroke-width="2.40" stroke-linecap="round" stroke-linejoin="bevel" points="2756.36,847.642 2756.36,800.433"/>
<polyline class="Stem" stroke="#000000" stroke-width="2.40" stroke-linecap="round" stroke-linejoin="bevel" points="2657.11,856.854 2657.11,800.433"/>
<polyline class="Stem" stroke="#000000" stroke-width="2.40" stroke-linecap="round" stroke-linejoin="bevel" points="2557.86,847.642 2557.86,800.433"/>
<polyline class="Stem" stroke="#000000" stroke-width="2.40" stroke-linecap="round" stroke-linejoin="bevel" points="2217.73,826.354 2217.73,885.65"/>
<polyline class="Stem" stroke="#000000" stroke-width="2.40" stroke-linecap="round" stroke-linejoin="bevel" points="2094.43,817.712 2094.43,920.197"/>
<polyline class="Stem" stroke="#000000" stroke-width="2.40" stroke-linecap="round" stroke-linejoin="bevel" points="1996.85,872.988 1996.85,920.197"/>
<polyline class="Stem" stroke="#000000" stroke-width="2.40" stroke-linecap="round" stroke-linejoin="bevel" points="1899.27,836.138 1899.27,920.197"/>
<polyline class="Stem" stroke="#000000" stroke-width="2.40" stroke-linecap="round" stroke-linejoin="bevel" points="1801.69,836.138 1801.69,920.197"/>
<polyline class="Stem" stroke="#000000" stroke-width="2.40" stroke-linecap="round" stroke-linejoin="bevel" points="1586.34,835.566 1586.34,892.559"/>
<polyline class="Stem" stroke="#000000" stroke-width="2.40" stroke-linecap="round" stroke-linejoin="bevel" points="1475.18,826.925 1475.18,897.165"/>
<polyline class="Stem" stroke="#000000" stroke-width="2.40" stroke-linecap="round" stroke-linejoin="bevel" points="1389.75,845.35 1389.75,897.165"/>
<polyline class="Stem" stroke="#000000" stroke-width="2.40" stroke-linecap="round" stroke-linejoin="bevel" points="1304.31,826.925 1304.31,897.165"/>
<polyline class="Stem" stroke="#000000" stroke-width="2.40" stroke-linecap="round" stroke-linejoin="bevel" points="1082.18,826.925 1082.18,885.65"/>
<polyline class="Stem" stroke="#000000" stroke-width="2.40" stroke-linecap="round" stroke-linejoin="bevel" points="945.479,817.712 945.479,878.74"/>
<polyline class="Stem" stroke="#000000" stroke-width="2.40" stroke-linecap="round" stroke-linejoin="bevel" points="854.393,817.712 854.393,874.134"/>
<polyline class="Stem" stroke="#000000" stroke-width="2.40" stroke-linecap="round" stroke-linejoin="bevel" points="788.366,817.712 788.366,874.134"/>
<polyline class="Stem" stroke="#000000" stroke-width="2.40" stroke-linecap="round" stroke-linejoin="bevel" points="682.722,799.287 682.722,874.134"/>
<polyline class="Stem" stroke="#000000" stroke-width="2.40" stroke-linecap="round" stroke-linejoin="bevel" points="577.078,808.5 577.078,860.315"/>
<polyline class="Stem" stroke="#000000" stroke-width="2.40" stroke-linecap="round" stroke-linejoin="bevel" points="471.434,817.712 471.434,864.921"/>
<polyline class="Stem" stroke="#000000" stroke-width="2.40" stroke-linecap="round" stroke-linejoin="bevel" points="285.892,817.141 285.892,878.74"/>
<polyline class="Stem" stroke="#000000" stroke-width="2.40" stroke-linecap="round" stroke-linejoin="bevel" points="2791.16,506.776 2791.16,454.961"/>
<polyline class="Stem" stroke="#000000" stroke-width="2.40" stroke-linecap="round" stroke-linejoin="bevel" points="2665.43,506.776 2665.43,454.961"/>
<polyline class="Stem" stroke="#000000" stroke-width="2.40" stroke-linecap="round" stroke-linejoin="bevel" points="2562.31,506.776 2562.31,448.051"/>
<polyline class="Stem" stroke="#000000" stroke-width="2.40" stroke-linecap="round" stroke-linejoin="bevel" points="2256.22,494.7 2256.22,549.39"/>
<polyline class="Stem" stroke="#000000" stroke-width="2.40" stroke-linecap="round" stroke-linejoin="bevel" points="2139.77,476.846 2139.77,551.693"/>
<polyline class="Stem" stroke="#000000" stroke-width="2.40" stroke-linecap="round" stroke-linejoin="bevel" points="2049.04,504.484 2049.04,551.693"/>
<polyline class="Stem" stroke="#000000" stroke-width="2.40" stroke-linecap="round" stroke-linejoin="bevel" points="1958.32,476.846 1958.32,551.693"/>
<polyline class="Stem" stroke="#000000" stroke-width="2.40" stroke-linecap="round" stroke-linejoin="bevel" points="1867.59,504.484 1867.59,551.693"/>
<polyline class="Stem" stroke="#000000" stroke-width="2.40" stroke-linecap="round" stroke-linejoin="bevel" points="1690.52,498.193 1690.52,441.142"/>
<polyline class="Stem" stroke="#000000" stroke-width="2.40" stroke-linecap="round" stroke-linejoin="bevel" points="1584.61,506.776 1584.61,454.961"/>
<polyline class="Stem" stroke="#000000" stroke-width="2.40" stroke-linecap="round" stroke-linejoin="bevel" points="1505.09,497.563 1505.09,445.748"/>
<polyline class="Stem" stroke="#000000" stroke-width="2.40" stroke-linecap="round" stroke-linejoin="bevel" points="1425.57,488.35 1425.57,436.535"/>
<polyline class="Stem" stroke="#000000" stroke-width="2.40" stroke-linecap="round" stroke-linejoin="bevel" points="1196.95,495.272 1196.95,549.39"/>
<polyline class="Stem" stroke="#000000" stroke-width="2.40" stroke-linecap="round" stroke-linejoin="bevel" points="1069.72,476.846 1069.72,535.571"/>
<polyline class="Stem" stroke="#000000" stroke-width="2.40" stroke-linecap="round" stroke-linejoin="bevel" points="951.197,476.846 951.197,528.661"/>
<polyline class="Stem" stroke="#000000" stroke-width="2.40" stroke-linecap="round" stroke-linejoin="bevel" points="857.734,467.634 857.734,524.055"/>
<polyline class="Stem" stroke="#000000" stroke-width="2.40" stroke-linecap="round" stroke-linejoin="bevel" points="799.32,476.846 799.32,542.48"/>
<polyline class="Stem" stroke="#000000" stroke-width="2.40" stroke-linecap="round" stroke-linejoin="bevel" points="685.356,486.059 685.356,547.087"/>
<polyline class="Stem" stroke="#000000" stroke-width="2.40" stroke-linecap="round" stroke-linejoin="bevel" points="591.893,476.846 591.893,537.874"/>
<polyline class="Stem" stroke="#000000" stroke-width="2.40" stroke-linecap="round" stroke-linejoin="bevel" points="442.881,476.846 442.881,535.571"/>
<polyline class="Stem" stroke="#000000" stroke-width="2.40" stroke-linecap="round" stroke-linejoin="bevel" points="326.992,476.846 326.992,537.874"/>
<path class="Note" transform="matrix(0.737008,0,0,0.737008,2318.09,1210.39)" d="M31.5469,-6.54688 C31.5469,-7.65104 31.125,-8.59375 30.2813,-9.375 C29.4271,-10.2188 28.4479,-10.6406 27.3438,-10.6406 C25.3958,-10.6406 21.4583,-8.6875 15.5313,-4.78125 C9.40625,-0.8125 5.66146,2.02083 4.29688,3.71875 C3.57813,4.625 3.21875,5.56771 3.21875,6.54688 C3.21875,7.65104 3.64583,8.59375 4.5,9.375 C5.28125,10.2188 6.25521,10.6406 7.42188,10.6406 C9.30729,10.6406 13.2813,8.6875 19.3438,4.78125 C25.3333,0.875 29.0417,-1.95833 30.4688,-3.71875 C31.1875,-4.5625 31.5469,-5.50521 31.5469,-6.54688 M26.375,-13.7656 C31.9688,-13.7656 34.7656,-11.3594 34.7656,-6.54688 C34.7656,-4.20313 34.0833,-1.46875 32.7188,1.65625 C31.3542,4.71875 29.5313,7.0625 27.25,8.6875 C22.2396,12.0729 15.9583,13.7656 8.40625,13.7656 C2.80208,13.7656 0,11.3594 0,6.54688 C0,4.40104 0.682292,1.69792 2.04688,-1.5625 C3.34896,-4.6875 5.17188,-7.0625 7.51563,-8.6875 C12.5365,-12.0729 18.8229,-13.7656 26.375,-13.7656"/>
<path class="Note" transform="matrix(0.737008,0,0,0.737008,2221.02,1191.97)" d="M21.9688,-13.7656 C25.0938,-13.7656 27.7344,-12.9531 29.8906,-11.3281 C31.901,-9.56771 32.9063,-7.35417 32.9063,-4.6875 C32.9063,-0.197917 30.599,4 25.9844,7.90625 C21.2969,11.8125 16.2813,13.7656 10.9375,13.7656 C7.8125,13.7656 5.17708,12.9531 3.03125,11.3281 C1.01042,9.56771 0,7.35417 0,4.6875 C0,0.197917 2.34375,-4 7.03125,-7.90625 C11.5938,-11.8125 16.5729,-13.7656 21.9688,-13.7656"/>
<path class="Note" transform="matrix(0.737008,0,0,0.737008,2080.53,1201.18)" d="M21.9688,-13.7656 C25.0938,-13.7656 27.7344,-12.9531 29.8906,-11.3281 C31.901,-9.56771 32.9063,-7.35417 32.9063,-4.6875 C32.9063,-0.197917 30.599,4 25.9844,7.90625 C21.2969,11.8125 16.2813,13.7656 10.9375,13.7656 C7.8125,13.7656 5.17708,12.9531 3.03125,11.3281 C1.01042,9.56771 0,7.35417 0,4.6875 C0,0.197917 2.34375,-4 7.03125,-7.90625 C11.5938,-11.8125 16.5729,-13.7656 21.9688,-13.7656"/>
<path class="Note" transform="matrix(0.737008,0,0,0.737008,1965.32,1173.54)" d="M21.9688,-13.7656 C25.0938,-13.7656 27.7344,-12.9531 29.8906,-11.3281 C31.901,-9.56771 32.9063,-7.35417 32.9063,-4.6875 C32.9063,-0.197917 30.599,4 25.9844,7.90625 C21.2969,11.8125 16.2813,13.7656 10.9375,13.7656 C7.8125,13.7656 5.17708,12.9531 3.03125,11.3281 C1.01042,9.56771 0,7.35417 0,4.6875 C0,0.197917 2.34375,-4 7.03125,-7.90625 C11.5938,-11.8125 16.5729,-13.7656 21.9688,-13.7656"/>
<path class="Note" transform="matrix(0.737008,0,0,0.737008,1850.1,1201.18)" d="M21.9688,-13.7656 C25.0938,-13.7656 27.7344,-12.9531 29.8906,-11.3281 C31.901,-9.56771 32.9063,-7.35417 32.9063,-4.6875 C32.9063,-0.197917 30.599,4 25.9844,7.90625 C21.2969,11.8125 16.2813,13.7656 10.9375,13.7656 C7.8125,13.7656 5.17708,12.9531 3.03125,11.3281 C1.01042,9.56771 0,7.35417 0,4.6875 C0,0.197917 2.34375,-4 7.03125,-7.90625 C11.5938,-11.8125 16.5729,-13.7656 21.9688,-13.7656"/>
<path class="Note" transform="matrix(0.737008,0,0,0.737008,1647.81,1201.18)" d="M31.5469,-6.54688 C31.5469,-7.65104 31.125,-8.59375 30.2813,-9.375 C29.4271,-10.2188 28.4479,-10.6406 27.3438,-10.6406 C25.3958,-10.6406 21.4583,-8.6875 15.5313,-4.78125 C9.40625,-0.8125 5.66146,2.02083 4.29688,3.71875 C3.57813,4.625 3.21875,5.56771 3.21875,6.54688 C3.21875,7.65104 3.64583,8.59375 4.5,9.375 C5.28125,10.2188 6.25521,10.6406 7.42188,10.6406 C9.30729,10.6406 13.2813,8.6875 19.3438,4.78125 C25.3333,0.875 29.0417,-1.95833 30.4688,-3.71875 C31.1875,-4.5625 31.5469,-5.50521 31.5469,-6.54688 M26.375,-13.7656 C31.9688,-13.7656 34.7656,-11.3594 34.7656,-6.54688 C34.7656,-4.20313 34.0833,-1.46875 32.7188,1.65625 C31.3542,4.71875 29.5313,7.0625 27.25,8.6875 C22.2396,12.0729 15.9583,13.7656 8.40625,13.7656 C2.80208,13.7656 0,11.3594 0,6.54688 C0,4.40104 0.682292,1.69792 2.04688,-1.5625 C3.34896,-4.6875 5.17188,-7.0625 7.51563,-8.6875 C12.5365,-12.0729 18.8229,-13.7656 26.375,-13.7656"/>
<path class="Note" transform="matrix(0.737008,0,0,0.737008,1533.89,1210.39)" d="M21.9688,-13.7656 C25.0938,-13.7656 27.7344,-12.9531 29.8906,-11.3281 C31.901,-9.56771 32.9063,-7.35417 32.9063,-4.6875 C32.9063,-0.197917 30.599,4 25.9844,7.90625 C21.2969,11.8125 16.2813,13.7656 10.9375,13.7656 C7.8125,13.7656 5.17708,12.9531 3.03125,11.3281 C1.01042,9.56771 0,7.35417 0,4.6875 C0,0.197917 2.34375,-4 7.03125,-7.90625 C11.5938,-11.8125 16.5729,-13.7656 21.9688,-13.7656"/>
<path class="Note" transform="matrix(0.737008,0,0,0.737008,1445.03,1191.97)" d="M21.9688,-13.7656 C25.0938,-13.7656 27.7344,-12.9531 29.8906,-11.3281 C31.901,-9.56771 32.9063,-7.35417 32.9063,-4.6875 C32.9063,-0.197917 30.599,4 25.9844,7.90625 C21.2969,11.8125 16.2813,13.7656 10.9375,13.7656 C7.8125,13.7656 5.17708,12.9531 3.03125,11.3281 C1.01042,9.56771 0,7.35417 0,4.6875 C0,0.197917 2.34375,-4 7.03125,-7.90625 C11.5938,-11.8125 16.5729,-13.7656 21.9688,-13.7656"/>
<path class="Note" transform="matrix(0.737008,0,0,0.737008,1356.17,1173.54)" d="M21.9688,-13.7656 C25.0938,-13.7656 27.7344,-12.9531 29.8906,-11.3281 C31.901,-9.56771 32.9063,-7.35417 32.9063,-4.6875 C32.9063,-0.197917 30.599,4 25.9844,7.90625 C21.2969,11.8125 16.2813,13.7656 10.9375,13.7656 C7.8125,13.7656 5.17708,12.9531 3.03125,11.3281 C1.01042,9.56771 0,7.35417 0,4.6875 C0,0.197917 2.34375,-4 7.03125,-7.90625 C11.5938,-11.8125 16.5729,-13.7656 21.9688,-13.7656"/>
<path class="Note" transform="matrix(0.737008,0,0,0.737008,1125.13,1173.54)" d="M21.9688,-13.7656 C25.0938,-13.7656 27.7344,-12.9531 29.8906,-11.3281 C31.901,-9.56771 32.9063,-7.35417 32.9063,-4.6875 C32.9063,-0.197917 30.599,4 25.9844,7.90625 C21.2969,11.8125 16.2813,13.7656 10.9375,13.7656 C7.8125,13.7656 5.17708,12.9531 3.03125,11.3281 C1.01042,9.56771 0,7.35417 0,4.6875 C0,0.197917 2.34375,-4 7.03125,-7.90625 C11.5938,-11.8125 16.5729,-13.7656 21.9688,-13.7656"/>
<path class="Note" transform="matrix(0.737008,0,0,0.737008,982.947,1164.33)" d="M21.9688,-13.7656 C25.0938,-13.7656 27.7344,-12.9531 29.8906,-11.3281 C31.901,-9.56771 32.9063,-7.35417 32.9063,-4.6875 C32.9063,-0.197917 30.599,4 25.9844,7.90625 C21.2969,11.8125 16.2813,13.7656 10.9375,13.7656 C7.8125,13.7656 5.17708,12.9531 3.03125,11.3281 C1.01042,9.56771 0,7.35417 0,4.6875 C0,0.197917 2.34375,-4 7.03125,-7.90625 C11.5938,-11.8125 16.5729,-13.7656 21.9688,-13.7656"/>
<path class="Note" transform="matrix(0.737008,0,0,0.737008,888.563,1164.33)" d="M21.9688,-13.7656 C25.0938,-13.7656 27.7344,-12.9531 29.8906,-11.3281 C31.901,-9.56771 32.9063,-7.35417 32.9063,-4.6875 C32.9063,-0.197917 30.599,4 25.9844,7.90625 C21.2969,11.8125 16.2813,13.7656 10.9375,13.7656 C7.8125,13.7656 5.17708,12.9531 3.03125,11.3281 C1.01042,9.56771 0,7.35417 0,4.6875 C0,0.197917 2.34375,-4 7.03125,-7.90625 C11.5938,-11.8125 16.5729,-13.7656 21.9688,-13.7656"/>
<path class="Note" transform="matrix(0.737008,0,0,0.737008,819.237,1155.12)" d="M21.9688,-13.7656 C25.0938,-13.7656 27.7344,-12.9531 29.8906,-11.3281 C31.901,-9.56771 32.9063,-7.35417 32.9063,-4.6875 C32.9063,-0.197917 30.599,4 25.9844,7.90625 C21.2969,11.8125 16.2813,13.7656 10.9375,13.7656 C7.8125,13.7656 5.17708,12.9531 3.03125,11.3281 C1.01042,9.56771 0,7.35417 0,4.6875 C0,0.197917 2.34375,-4 7.03125,-7.90625 C11.5938,-11.8125 16.5729,-13.7656 21.9688,-13.7656"/>
<path class="Note" transform="matrix(0.737008,0,0,0.737008,708.316,1155.12)" d="M21.9688,-13.7656 C25.0938,-13.7656 27.7344,-12.9531 29.8906,-11.3281 C31.901,-9.56771 32.9063,-7.35417 32.9063,-4.6875 C32.9063,-0.197917 30.599,4 25.9844,7.90625 C21.2969,11.8125 16.2813,13.7656 10.9375,13.7656 C7.8125,13.7656 5.17708,12.9531 3.03125,11.3281 C1.01042,9.56771 0,7.35417 0,4.6875 C0,0.197917 2.34375,-4 7.03125,-7.90625 C11.5938,-11.8125 16.5729,-13.7656 21.9688,-13.7656"/>
<path class="Note" transform="matrix(0.737008,0,0,0.737008,597.395,1145.91)" d="M21.9688,-13.7656 C25.0938,-13.7656 27.7344,-12.9531 29.8906,-11.3281 C31.901,-9.56771 32.9063,-7.35417 32.9063,-4.6875 C32.9063,-0.197917 30.599,4 25.9844,7.90625 C21.2969,11.8125 16.2813,13.7656 10.9375,13.7656 C7.8125,13.7656 5.17708,12.9531 3.03125,11.3281 C1.01042,9.56771 0,7.35417 0,4.6875 C0,0.197917 2.34375,-4 7.03125,-7.90625 C11.5938,-11.8125 16.5729,-13.7656 21.9688,-13.7656"/>
<path class="Note" transform="matrix(0.737008,0,0,0.737008,486.473,1136.69)" d="M21.9688,-13.7656 C25.0938,-13.7656 27.7344,-12.9531 29.8906,-11.3281 C31.901,-9.56771 32.9063,-7.35417 32.9063,-4.6875 C32.9063,-0.197917 30.599,4 25.9844,7.90625 C21.2969,11.8125 16.2813,13.7656 10.9375,13.7656 C7.8125,13.7656 5.17708,12.9531 3.03125,11.3281 C1.01042,9.56771 0,7.35417 0,4.6875 C0,0.197917 2.34375,-4 7.03125,-7.90625 C11.5938,-11.8125 16.5729,-13.7656 21.9688,-13.7656"/>
<path class="Note" transform="matrix(0.737008,0,0,0.737008,291.696,1136.69)" d="M31.5469,-6.54688 C31.5469,-7.65104 31.125,-8.59375 30.2813,-9.375 C29.4271,-10.2188 28.4479,-10.6406 27.3438,-10.6406 C25.3958,-10.6406 21.4583,-8.6875 15.5313,-4.78125 C9.40625,-0.8125 5.66146,2.02083 4.29688,3.71875 C3.57813,4.625 3.21875,5.56771 3.21875,6.54688 C3.21875,7.65104 3.64583,8.59375 4.5,9.375 C5.28125,10.2188 6.25521,10.6406 7.42188,10.6406 C9.30729,10.6406 13.2813,8.6875 19.3438,4.78125 C25.3333,0.875 29.0417,-1.95833 30.4688,-3.71875 C31.1875,-4.5625 31.5469,-5.50521 31.5469,-6.54688 M26.375,-13.7656 C31.9688,-13.7656 34.7656,-11.3594 34.7656,-6.54688 C34.7656,-4.20313 34.0833,-1.46875 32.7188,1.65625 C31.3542,4.71875 29.5313,7.0625 27.25,8.6875 C22.2396,12.0729 15.9583,13.7656 8.40625,13.7656 C2.80208,13.7656 0,11.3594 0,6.54688 C0,4.40104 0.682292,1.69792 2.04688,-1.5625 C3.34896,-4.6875 5.17188,-7.0625 7.51563,-8.6875 C12.5365,-12.0729 18.8229,-13.7656 26.375,-13.7656"/>
<path class="Note" transform="matrix(0.737008,0,0,0.737008,2733.3,851.102)" d="M21.9688,-13.7656 C25.0938,-13.7656 27.7344,-12.9531 29.8906,-11.3281 C31.901,-9.56771 32.9063,-7.35417 32.9063,-4.6875 C32.9063,-0.197917 30.599,4 25.9844,7.90625 C21.2969,11.8125 16.2813,13.7656 10.9375,13.7656 C7.8125,13.7656 5.17708,12.9531 3.03125,11.3281 C1.01042,9.56771 0,7.35417 0,4.6875 C0,0.197917 2.34375,-4 7.03125,-7.90625 C11.5938,-11.8125 16.5729,-13.7656 21.9688,-13.7656"/>
<path class="Note" transform="matrix(0.737008,0,0,0.737008,2634.05,860.315)" d="M21.9688,-13.7656 C25.0938,-13.7656 27.7344,-12.9531 29.8906,-11.3281 C31.901,-9.56771 32.9063,-7.35417 32.9063,-4.6875 C32.9063,-0.197917 30.599,4 25.9844,7.90625 C21.2969,11.8125 16.2813,13.7656 10.9375,13.7656 C7.8125,13.7656 5.17708,12.9531 3.03125,11.3281 C1.01042,9.56771 0,7.35417 0,4.6875 C0,0.197917 2.34375,-4 7.03125,-7.90625 C11.5938,-11.8125 16.5729,-13.7656 21.9688,-13.7656"/>
<path class="Note" transform="matrix(0.737008,0,0,0.737008,2534.8,851.102)" d="M21.9688,-13.7656 C25.0938,-13.7656 27.7344,-12.9531 29.8906,-11.3281 C31.901,-9.56771 32.9063,-7.35417 32.9063,-4.6875 C32.9063,-0.197917 30.599,4 25.9844,7.90625 C21.2969,11.8125 16.2813,13.7656 10.9375,13.7656 C7.8125,13.7656 5.17708,12.9531 3.03125,11.3281 C1.01042,9.56771 0,7.35417 0,4.6875 C0,0.197917 2.34375,-4 7.03125,-7.90625 C11.5938,-11.8125 16.5729,-13.7656 21.9688,-13.7656"/>
<path class="Note" transform="matrix(0.737008,0,0,0.737008,2216.53,823.465)" d="M31.5469,-6.54688 C31.5469,-7.65104 31.125,-8.59375 30.2813,-9.375 C29.4271,-10.2188 28.4479,-10.6406 27.3438,-10.6406 C25.3958,-10.6406 21.4583,-8.6875 15.5313,-4.78125 C9.40625,-0.8125 5.66146,2.02083 4.29688,3.71875 C3.57813,4.625 3.21875,5.56771 3.21875,6.54688 C3.21875,7.65104 3.64583,8.59375 4.5,9.375 C5.28125,10.2188 6.25521,10.6406 7.42188,10.6406 C9.30729,10.6406 13.2813,8.6875 19.3438,4.78125 C25.3333,0.875 29.0417,-1.95833 30.4688,-3.71875 C31.1875,-4.5625 31.5469,-5.50521 31.5469,-6.54688 M26.375,-13.7656 C31.9688,-13.7656 34.7656,-11.3594 34.7656,-6.54688 C34.7656,-4.20313 34.0833,-1.46875 32.7188,1.65625 C31.3542,4.71875 29.5313,7.0625 27.25,8.6875 C22.2396,12.0729 15.9583,13.7656 8.40625,13.7656 C2.80208,13.7656 0,11.3594 0,6.54688 C0,4.40104 0.682292,1.69792 2.04688,-1.5625 C3.34896,-4.6875 5.17188,-7.0625 7.51563,-8.6875 C12.5365,-12.0729 18.8229,-13.7656 26.375,-13.7656"/>
<path class="Note" transform="matrix(0.737008,0,0,0.737008,2093.23,814.252)" d="M21.9688,-13.7656 C25.0938,-13.7656 27.7344,-12.9531 29.8906,-11.3281 C31.901,-9.56771 32.9063,-7.35417 32.9063,-4.6875 C32.9063,-0.197917 30.599,4 25.9844,7.90625 C21.2969,11.8125 16.2813,13.7656 10.9375,13.7656 C7.8125,13.7656 5.17708,12.9531 3.03125,11.3281 C1.01042,9.56771 0,7.35417 0,4.6875 C0,0.197917 2.34375,-4 7.03125,-7.90625 C11.5938,-11.8125 16.5729,-13.7656 21.9688,-13.7656"/>
<path class="Note" transform="matrix(0.737008,0,0,0.737008,1995.65,869.528)" d="M21.9688,-13.7656 C25.0938,-13.7656 27.7344,-12.9531 29.8906,-11.3281 C31.901,-9.56771 32.9063,-7.35417 32.9063,-4.6875 C32.9063,-0.197917 30.599,4 25.9844,7.90625 C21.2969,11.8125 16.2813,13.7656 10.9375,13.7656 C7.8125,13.7656 5.17708,12.9531 3.03125,11.3281 C1.01042,9.56771 0,7.35417 0,4.6875 C0,0.197917 2.34375,-4 7.03125,-7.90625 C11.5938,-11.8125 16.5729,-13.7656 21.9688,-13.7656"/>
<path class="Note" transform="matrix(0.737008,0,0,0.737008,1898.07,832.677)" d="M21.9688,-13.7656 C25.0938,-13.7656 27.7344,-12.9531 29.8906,-11.3281 C31.901,-9.56771 32.9063,-7.35417 32.9063,-4.6875 C32.9063,-0.197917 30.599,4 25.9844,7.90625 C21.2969,11.8125 16.2813,13.7656 10.9375,13.7656 C7.8125,13.7656 5.17708,12.9531 3.03125,11.3281 C1.01042,9.56771 0,7.35417 0,4.6875 C0,0.197917 2.34375,-4 7.03125,-7.90625 C11.5938,-11.8125 16.5729,-13.7656 21.9688,-13.7656"/>
<path class="Note" transform="matrix(0.737008,0,0,0.737008,1800.49,832.677)" d="M21.9688,-13.7656 C25.0938,-13.7656 27.7344,-12.9531 29.8906,-11.3281 C31.901,-9.56771 32.9063,-7.35417 32.9063,-4.6875 C32.9063,-0.197917 30.599,4 25.9844,7.90625 C21.2969,11.8125 16.2813,13.7656 10.9375,13.7656 C7.8125,13.7656 5.17708,12.9531 3.03125,11.3281 C1.01042,9.56771 0,7.35417 0,4.6875 C0,0.197917 2.34375,-4 7.03125,-7.90625 C11.5938,-11.8125 16.5729,-13.7656 21.9688,-13.7656"/>
<path class="Note" transform="matrix(0.737008,0,0,0.737008,1585.15,832.677)" d="M31.5469,-6.54688 C31.5469,-7.65104 31.125,-8.59375 30.2813,-9.375 C29.4271,-10.2188 28.4479,-10.6406 27.3438,-10.6406 C25.3958,-10.6406 21.4583,-8.6875 15.5313,-4.78125 C9.40625,-0.8125 5.66146,2.02083 4.29688,3.71875 C3.57813,4.625 3.21875,5.56771 3.21875,6.54688 C3.21875,7.65104 3.64583,8.59375 4.5,9.375 C5.28125,10.2188 6.25521,10.6406 7.42188,10.6406 C9.30729,10.6406 13.2813,8.6875 19.3438,4.78125 C25.3333,0.875 29.0417,-1.95833 30.4688,-3.71875 C31.1875,-4.5625 31.5469,-5.50521 31.5469,-6.54688 M26.375,-13.7656 C31.9688,-13.7656 34.7656,-11.3594 34.7656,-6.54688 C34.7656,-4.20313 34.0833,-1.46875 32.7188,1.65625 C31.3542,4.71875 29.5313,7.0625 27.25,8.6875 C22.2396,12.0729 15.9583,13.7656 8.40625,13.7656 C2.80208,13.7656 0,11.3594 0,6.54688 C0,4.40104 0.682292,1.69792 2.04688,-1.5625 C3.34896,-4.6875 5.17188,-7.0625 7.51563,-8.6875 C12.5365,-12.0729 18.8229,-13.7656 26.375,-13.7656"/>
<path class="Note" transform="matrix(0.737008,0,0,0.737008,1473.99,823.465)" d="M21.9688,-13.7656 C25.0938,-13.7656 27.7344,-12.9531 29.8906,-11.3281 C31.901,-9.56771 32.9063,-7.35417 32.9063,-4.6875 C32.9063,-0.197917 30.599,4 25.9844,7.90625 C21.2969,11.8125 16.2813,13.7656 10.9375,13.7656 C7.8125,13.7656 5.17708,12.9531 3.03125,11.3281 C1.01042,9.56771 0,7.35417 0,4.6875 C0,0.197917 2.34375,-4 7.03125,-7.90625 C11.5938,-11.8125 16.5729,-13.7656 21.9688,-13.7656"/>
<path class="Note" transform="matrix(0.737008,0,0,0.737008,1388.55,841.89)" d="M21.9688,-13.7656 C25.0938,-13.7656 27.7344,-12.9531 29.8906,-11.3281 C31.901,-9.56771 32.9063,-7.35417 32.9063,-4.6875 C32.9063,-0.197917 30.599,4 25.9844,7.90625 C21.2969,11.8125 16.2813,13.7656 10.9375,13.7656 C7.8125,13.7656 5.17708,12.9531 3.03125,11.3281 C1.01042,9.56771 0,7.35417 0,4.6875 C0,0.197917 2.34375,-4 7.03125,-7.90625 C11.5938,-11.8125 16.5729,-13.7656 21.9688,-13.7656"/>
<path class="Note" transform="matrix(0.737008,0,0,0.737008,1303.11,823.465)" d="M21.9688,-13.7656 C25.0938,-13.7656 27.7344,-12.9531 29.8906,-11.3281 C31.901,-9.56771 32.9063,-7.35417 32.9063,-4.6875 C32.9063,-0.197917 30.599,4 25.9844,7.90625 C21.2969,11.8125 16.2813,13.7656 10.9375,13.7656 C7.8125,13.7656 5.17708,12.9531 3.03125,11.3281 C1.01042,9.56771 0,7.35417 0,4.6875 C0,0.197917 2.34375,-4 7.03125,-7.90625 C11.5938,-11.8125 16.5729,-13.7656 21.9688,-13.7656"/>
<path class="Note" transform="matrix(0.737008,0,0,0.737008,1080.98,823.465)" d="M21.9688,-13.7656 C25.0938,-13.7656 27.7344,-12.9531 29.8906,-11.3281 C31.901,-9.56771 32.9063,-7.35417 32.9063,-4.6875 C32.9063,-0.197917 30.599,4 25.9844,7.90625 C21.2969,11.8125 16.2813,13.7656 10.9375,13.7656 C7.8125,13.7656 5.17708,12.9531 3.03125,11.3281 C1.01042,9.56771 0,7.35417 0,4.6875 C0,0.197917 2.34375,-4 7.03125,-7.90625 C11.5938,-11.8125 16.5729,-13.7656 21.9688,-13.7656"/>
<path class="Note" transform="matrix(0.737008,0,0,0.737008,944.281,814.252)" d="M21.9688,-13.7656 C25.0938,-13.7656 27.7344,-12.9531 29.8906,-11.3281 C31.901,-9.56771 32.9063,-7.35417 32.9063,-4.6875 C32.9063,-0.197917 30.599,4 25.9844,7.90625 C21.2969,11.8125 16.2813,13.7656 10.9375,13.7656 C7.8125,13.7656 5.17708,12.9531 3.03125,11.3281 C1.01042,9.56771 0,7.35417 0,4.6875 C0,0.197917 2.34375,-4 7.03125,-7.90625 C11.5938,-11.8125 16.5729,-13.7656 21.9688,-13.7656"/>
<path class="Note" transform="matrix(0.737008,0,0,0.737008,853.195,814.252)" d="M21.9688,-13.7656 C25.0938,-13.7656 27.7344,-12.9531 29.8906,-11.3281 C31.901,-9.56771 32.9063,-7.35417 32.9063,-4.6875 C32.9063,-0.197917 30.599,4 25.9844,7.90625 C21.2969,11.8125 16.2813,13.7656 10.9375,13.7656 C7.8125,13.7656 5.17708,12.9531 3.03125,11.3281 C1.01042,9.56771 0,7.35417 0,4.6875 C0,0.197917 2.34375,-4 7.03125,-7.90625 C11.5938,-11.8125 16.5729,-13.7656 21.9688,-13.7656"/>
<path class="Note" transform="matrix(0.737008,0,0,0.737008,787.168,814.252)" d="M21.9688,-13.7656 C25.0938,-13.7656 27.7344,-12.9531 29.8906,-11.3281 C31.901,-9.56771 32.9063,-7.35417 32.9063,-4.6875 C32.9063,-0.197917 30.599,4 25.9844,7.90625 C21.2969,11.8125 16.2813,13.7656 10.9375,13.7656 C7.8125,13.7656 5.17708,12.9531 3.03125,11.3281 C1.01042,9.56771 0,7.35417 0,4.6875 C0,0.197917 2.34375,-4 7.03125,-7.90625 C11.5938,-11.8125 16.5729,-13.7656 21.9688,-13.7656"/>
<path class="Note" transform="matrix(0.737008,0,0,0.737008,681.524,795.827)" d="M21.9688,-13.7656 C25.0938,-13.7656 27.7344,-12.9531 29.8906,-11.3281 C31.901,-9.56771 32.9063,-7.35417 32.9063,-4.6875 C32.9063,-0.197917 30.599,4 25.9844,7.90625 C21.2969,11.8125 16.2813,13.7656 10.9375,13.7656 C7.8125,13.7656 5.17708,12.9531 3.03125,11.3281 C1.01042,9.56771 0,7.35417 0,4.6875 C0,0.197917 2.34375,-4 7.03125,-7.90625 C11.5938,-11.8125 16.5729,-13.7656 21.9688,-13.7656"/>
<path class="Note" transform="matrix(0.737008,0,0,0.737008,575.88,805.039)" d="M21.9688,-13.7656 C25.0938,-13.7656 27.7344,-12.9531 29.8906,-11.3281 C31.901,-9.56771 32.9063,-7.35417 32.9063,-4.6875 C32.9063,-0.197917 30.599,4 25.9844,7.90625 C21.2969,11.8125 16.2813,13.7656 10.9375,13.7656 C7.8125,13.7656 5.17708,12.9531 3.03125,11.3281 C1.01042,9.56771 0,7.35417 0,4.6875 C0,0.197917 2.34375,-4 7.03125,-7.90625 C11.5938,-11.8125 16.5729,-13.7656 21.9688,-13.7656"/>
<path class="Note" transform="matrix(0.737008,0,0,0.737008,470.236,814.252)" d="M21.9688,-13.7656 C25.0938,-13.7656 27.7344,-12.9531 29.8906,-11.3281 C31.901,-9.56771 32.9063,-7.35417 32.9063,-4.6875 C32.9063,-0.197917 30.599,4 25.9844,7.90625 C21.2969,11.8125 16.2813,13.7656 10.9375,13.7656 C7.8125,13.7656 5.17708,12.9531 3.03125,11.3281 C1.01042,9.56771 0,7.35417 0,4.6875 C0,0.197917 2.34375,-4 7.03125,-7.90625 C11.5938,-11.8125 16.5729,-13.7656 21.9688,-13.7656"/>
<path class="Note" transform="matrix(0.737008,0,0,0.737008,284.695,814.252)" d="M31.5469,-6.54688 C31.5469,-7.65104 31.125,-8.59375 30.2813,-9.375 C29.4271,-10.2188 28.4479,-10.6406 27.3438,-10.6406 C25.3958,-10.6406 21.4583,-8.6875 15.5313,-4.78125 C9.40625,-0.8125 5.66146,2.02083 4.29688,3.71875 C3.57813,4.625 3.21875,5.56771 3.21875,6.54688 C3.21875,7.65104 3.64583,8.59375 4.5,9.375 C5.28125,10.2188 6.25521,10.6406 7.42188,10.6406 C9.30729,10.6406 13.2813,8.6875 19.3438,4.78125 C25.3333,0.875 29.0417,-1.95833 30.4688,-3.71875 C31.1875,-4.5625 31.5469,-5.50521 31.5469,-6.54688 M26.375,-13.7656 C31.9688,-13.7656 34.7656,-11.3594 34.7656,-6.54688 C34.7656,-4.20313 34.0833,-1.46875 32.7188,1.65625 C31.3542,4.71875 29.5313,7.0625 27.25,8.6875 C22.2396,12.0729 15.9583,13.7656 8.40625,13.7656 C2.80208,13.7656 0,11.3594 0,6.54688 C0,4.40104 0.682292,1.69792 2.04688,-1.5625 C3.34896,-4.6875 5.17188,-7.0625 7.51563,-8.6875 C12.5365,-12.0729 18.8229,-13.7656 26.375,-13.7656"/>
<path class="Note" transform="matrix(0.737008,0,0,0.737008,2768.1,510.236)" d="M21.9688,-13.7656 C25.0938,-13.7656 27.7344,-12.9531 29.8906,-11.3281 C31.901,-9.56771 32.9063,-7.35417 32.9063,-4.6875 C32.9063,-0.197917 30.599,4 25.9844,7.90625 C21.2969,11.8125 16.2813,13.7656 10.9375,13.7656 C7.8125,13.7656 5.17708,12.9531 3.03125,11.3281 C1.01042,9.56771 0,7.35417 0,4.6875 C0,0.197917 2.34375,-4 7.03125,-7.90625 C11.5938,-11.8125 16.5729,-13.7656 21.9688,-13.7656"/>
<path class="Note" transform="matrix(0.737008,0,0,0.737008,2642.37,510.236)" d="M21.9688,-13.7656 C25.0938,-13.7656 27.7344,-12.9531 29.8906,-11.3281 C31.901,-9.56771 32.9063,-7.35417 32.9063,-4.6875 C32.9063,-0.197917 30.599,4 25.9844,7.90625 C21.2969,11.8125 16.2813,13.7656 10.9375,13.7656 C7.8125,13.7656 5.17708,12.9531 3.03125,11.3281 C1.01042,9.56771 0,7.35417 0,4.6875 C0,0.197917 2.34375,-4 7.03125,-7.90625 C11.5938,-11.8125 16.5729,-13.7656 21.9688,-13.7656"/>
<path class="Note" transform="matrix(0.737008,0,0,0.737008,2539.25,510.236)" d="M21.9688,-13.7656 C25.0938,-13.7656 27.7344,-12.9531 29.8906,-11.3281 C31.901,-9.56771 32.9063,-7.35417 32.9063,-4.6875 C32.9063,-0.197917 30.599,4 25.9844,7.90625 C21.2969,11.8125 16.2813,13.7656 10.9375,13.7656 C7.8125,13.7656 5.17708,12.9531 3.03125,11.3281 C1.01042,9.56771 0,7.35417 0,4.6875 C0,0.197917 2.34375,-4 7.03125,-7.90625 C11.5938,-11.8125 16.5729,-13.7656 21.9688,-13.7656"/>
<path class="Note" transform="matrix(0.737008,0,0,0.737008,2255.02,491.811)" d="M31.5469,-6.54688 C31.5469,-7.65104 31.125,-8.59375 30.2813,-9.375 C29.4271,-10.2188 28.4479,-10.6406 27.3438,-10.6406 C25.3958,-10.6406 21.4583,-8.6875 15.5313,-4.78125 C9.40625,-0.8125 5.66146,2.02083 4.29688,3.71875 C3.57813,4.625 3.21875,5.56771 3.21875,6.54688 C3.21875,7.65104 3.64583,8.59375 4.5,9.375 C5.28125,10.2188 6.25521,10.6406 7.42188,10.6406 C9.30729,10.6406 13.2813,8.6875 19.3438,4.78125 C25.3333,0.875 29.0417,-1.95833 30.4688,-3.71875 C31.1875,-4.5625 31.5469,-5.50521 31.5469,-6.54688 M26.375,-13.7656 C31.9688,-13.7656 34.7656,-11.3594 34.7656,-6.54688 C34.7656,-4.20313 34.0833,-1.46875 32.7188,1.65625 C31.3542,4.71875 29.5313,7.0625 27.25,8.6875 C22.2396,12.0729 15.9583,13.7656 8.40625,13.7656 C2.80208,13.7656 0,11.3594 0,6.54688 C0,4.40104 0.682292,1.69792 2.04688,-1.5625 C3.34896,-4.6875 5.17188,-7.0625 7.51563,-8.6875 C12.5365,-12.0729 18.8229,-13.7656 26.375,-13.7656"/>
<path class="Note" transform="matrix(0.737008,0,0,0.737008,2138.57,473.386)" d="M21.9688,-13.7656 C25.0938,-13.7656 27.7344,-12.9531 29.8906,-11.3281 C31.901,-9.56771 32.9063,-7.35417 32.9063,-4.6875 C32.9063,-0.197917 30.599,4 25.9844,7.90625 C21.2969,11.8125 16.2813,13.7656 10.9375,13.7656 C7.8125,13.7656 5.17708,12.9531 3.03125,11.3281 C1.01042,9.56771 0,7.35417 0,4.6875 C0,0.197917 2.34375,-4 7.03125,-7.90625 C11.5938,-11.8125 16.5729,-13.7656 21.9688,-13.7656"/>
<path class="Note" transform="matrix(0.737008,0,0,0.737008,2047.85,501.024)" d="M21.9688,-13.7656 C25.0938,-13.7656 27.7344,-12.9531 29.8906,-11.3281 C31.901,-9.56771 32.9063,-7.35417 32.9063,-4.6875 C32.9063,-0.197917 30.599,4 25.9844,7.90625 C21.2969,11.8125 16.2813,13.7656 10.9375,13.7656 C7.8125,13.7656 5.17708,12.9531 3.03125,11.3281 C1.01042,9.56771 0,7.35417 0,4.6875 C0,0.197917 2.34375,-4 7.03125,-7.90625 C11.5938,-11.8125 16.5729,-13.7656 21.9688,-13.7656"/>
<path class="Note" transform="matrix(0.737008,0,0,0.737008,1957.12,473.386)" d="M21.9688,-13.7656 C25.0938,-13.7656 27.7344,-12.9531 29.8906,-11.3281 C31.901,-9.56771 32.9063,-7.35417 32.9063,-4.6875 C32.9063,-0.197917 30.599,4 25.9844,7.90625 C21.2969,11.8125 16.2813,13.7656 10.9375,13.7656 C7.8125,13.7656 5.17708,12.9531 3.03125,11.3281 C1.01042,9.56771 0,7.35417 0,4.6875 C0,0.197917 2.34375,-4 7.03125,-7.90625 C11.5938,-11.8125 16.5729,-13.7656 21.9688,-13.7656"/>
<path class="Note" transform="matrix(0.737008,0,0,0.737008,1866.39,501.024)" d="M21.9688,-13.7656 C25.0938,-13.7656 27.7344,-12.9531 29.8906,-11.3281 C31.901,-9.56771 32.9063,-7.35417 32.9063,-4.6875 C32.9063,-0.197917 30.599,4 25.9844,7.90625 C21.2969,11.8125 16.2813,13.7656 10.9375,13.7656 C7.8125,13.7656 5.17708,12.9531 3.03125,11.3281 C1.01042,9.56771 0,7.35417 0,4.6875 C0,0.197917 2.34375,-4 7.03125,-7.90625 C11.5938,-11.8125 16.5729,-13.7656 21.9688,-13.7656"/>
<path class="Note" transform="matrix(0.737008,0,0,0.737008,1666.13,501.024)" d="M31.5469,-6.54688 C31.5469,-7.65104 31.125,-8.59375 30.2813,-9.375 C29.4271,-10.2188 28.4479,-10.6406 27.3438,-10.6406 C25.3958,-10.6406 21.4583,-8.6875 15.5313,-4.78125 C9.40625,-0.8125 5.66146,2.02083 4.29688,3.71875 C3.57813,4.625 3.21875,5.56771 3.21875,6.54688 C3.21875,7.65104 3.64583,8.59375 4.5,9.375 C5.28125,10.2188 6.25521,10.6406 7.42188,10.6406 C9.30729,10.6406 13.2813,8.6875 19.3438,4.78125 C25.3333,0.875 29.0417,-1.95833 30.4688,-3.71875 C31.1875,-4.5625 31.5469,-5.50521 31.5469,-6.54688 M26.375,-13.7656 C31.9688,-13.7656 34.7656,-11.3594 34.7656,-6.54688 C34.7656,-4.20313 34.0833,-1.46875 32.7188,1.65625 C31.3542,4.71875 29.5313,7.0625 27.25,8.6875 C22.2396,12.0729 15.9583,13.7656 8.40625,13.7656 C2.80208,13.7656 0,11.3594 0,6.54688 C0,4.40104 0.682292,1.69792 2.04688,-1.5625 C3.34896,-4.6875 5.17188,-7.0625 7.51563,-8.6875 C12.5365,-12.0729 18.8229,-13.7656 26.375,-13.7656"/>
<path class="Note" transform="matrix(0.737008,0,0,0.737008,1561.55,510.236)" d="M21.9688,-13.7656 C25.0938,-13.7656 27.7344,-12.9531 29.8906,-11.3281 C31.901,-9.56771 32.9063,-7.35417 32.9063,-4.6875 C32.9063,-0.197917 30.599,4 25.9844,7.90625 C21.2969,11.8125 16.2813,13.7656 10.9375,13.7656 C7.8125,13.7656 5.17708,12.9531 3.03125,11.3281 C1.01042,9.56771 0,7.35417 0,4.6875 C0,0.197917 2.34375,-4 7.03125,-7.90625 C11.5938,-11.8125 16.5729,-13.7656 21.9688,-13.7656"/>
<path class="Note" transform="matrix(0.737008,0,0,0.737008,1482.03,501.024)" d="M21.9688,-13.7656 C25.0938,-13.7656 27.7344,-12.9531 29.8906,-11.3281 C31.901,-9.56771 32.9063,-7.35417 32.9063,-4.6875 C32.9063,-0.197917 30.599,4 25.9844,7.90625 C21.2969,11.8125 16.2813,13.7656 10.9375,13.7656 C7.8125,13.7656 5.17708,12.9531 3.03125,11.3281 C1.01042,9.56771 0,7.35417 0,4.6875 C0,0.197917 2.34375,-4 7.03125,-7.90625 C11.5938,-11.8125 16.5729,-13.7656 21.9688,-13.7656"/>
<path class="Note" transform="matrix(0.737008,0,0,0.737008,1402.51,491.811)" d="M21.9688,-13.7656 C25.0938,-13.7656 27.7344,-12.9531 29.8906,-11.3281 C31.901,-9.56771 32.9063,-7.35417 32.9063,-4.6875 C32.9063,-0.197917 30.599,4 25.9844,7.90625 C21.2969,11.8125 16.2813,13.7656 10.9375,13.7656 C7.8125,13.7656 5.17708,12.9531 3.03125,11.3281 C1.01042,9.56771 0,7.35417 0,4.6875 C0,0.197917 2.34375,-4 7.03125,-7.90625 C11.5938,-11.8125 16.5729,-13.7656 21.9688,-13.7656"/>
<path class="Note" transform="matrix(0.737008,0,0,0.737008,1195.75,491.811)" d="M21.9688,-13.7656 C25.0938,-13.7656 27.7344,-12.9531 29.8906,-11.3281 C31.901,-9.56771 32.9063,-7.35417 32.9063,-4.6875 C32.9063,-0.197917 30.599,4 25.9844,7.90625 C21.2969,11.8125 16.2813,13.7656 10.9375,13.7656 C7.8125,13.7656 5.17708,12.9531 3.03125,11.3281 C1.01042,9.56771 0,7.35417 0,4.6875 C0,0.197917 2.34375,-4 7.03125,-7.90625 C11.5938,-11.8125 16.5729,-13.7656 21.9688,-13.7656"/>
<path class="Note" transform="matrix(0.737008,0,0,0.737008,1068.52,473.386)" d="M21.9688,-13.7656 C25.0938,-13.7656 27.7344,-12.9531 29.8906,-11.3281 C31.901,-9.56771 32.9063,-7.35417 32.9063,-4.6875 C32.9063,-0.197917 30.599,4 25.9844,7.90625 C21.2969,11.8125 16.2813,13.7656 10.9375,13.7656 C7.8125,13.7656 5.17708,12.9531 3.03125,11.3281 C1.01042,9.56771 0,7.35417 0,4.6875 C0,0.197917 2.34375,-4 7.03125,-7.90625 C11.5938,-11.8125 16.5729,-13.7656 21.9688,-13.7656"/>
<path class="Note" transform="matrix(0.737008,0,0,0.737008,949.999,473.386)" d="M21.9688,-13.7656 C25.0938,-13.7656 27.7344,-12.9531 29.8906,-11.3281 C31.901,-9.56771 32.9063,-7.35417 32.9063,-4.6875 C32.9063,-0.197917 30.599,4 25.9844,7.90625 C21.2969,11.8125 16.2813,13.7656 10.9375,13.7656 C7.8125,13.7656 5.17708,12.9531 3.03125,11.3281 C1.01042,9.56771 0,7.35417 0,4.6875 C0,0.197917 2.34375,-4 7.03125,-7.90625 C11.5938,-11.8125 16.5729,-13.7656 21.9688,-13.7656"/>
<path class="Note" transform="matrix(0.737008,0,0,0.737008,856.537,464.173)" d="M21.9688,-13.7656 C25.0938,-13.7656 27.7344,-12.9531 29.8906,-11.3281 C31.901,-9.56771 32.9063,-7.35417 32.9063,-4.6875 C32.9063,-0.197917 30.599,4 25.9844,7.90625 C21.2969,11.8125 16.2813,13.7656 10.9375,13.7656 C7.8125,13.7656 5.17708,12.9531 3.03125,11.3281 C1.01042,9.56771 0,7.35417 0,4.6875 C0,0.197917 2.34375,-4 7.03125,-7.90625 C11.5938,-11.8125 16.5729,-13.7656 21.9688,-13.7656"/>
<path class="Note" transform="matrix(0.737008,0,0,0.737008,798.123,473.386)" d="M21.9688,-13.7656 C25.0938,-13.7656 27.7344,-12.9531 29.8906,-11.3281 C31.901,-9.56771 32.9063,-7.35417 32.9063,-4.6875 C32.9063,-0.197917 30.599,4 25.9844,7.90625 C21.2969,11.8125 16.2813,13.7656 10.9375,13.7656 C7.8125,13.7656 5.17708,12.9531 3.03125,11.3281 C1.01042,9.56771 0,7.35417 0,4.6875 C0,0.197917 2.34375,-4 7.03125,-7.90625 C11.5938,-11.8125 16.5729,-13.7656 21.9688,-13.7656"/>
<path class="Note" transform="matrix(0.737008,0,0,0.737008,684.158,482.598)" d="M21.9688,-13.7656 C25.0938,-13.7656 27.7344,-12.9531 29.8906,-11.3281 C31.901,-9.56771 32.9063,-7.35417 32.9063,-4.6875 C32.9063,-0.197917 30.599,4 25.9844,7.90625 C21.2969,11.8125 16.2813,13.7656 10.9375,13.7656 C7.8125,13.7656 5.17708,12.9531 3.03125,11.3281 C1.01042,9.56771 0,7.35417 0,4.6875 C0,0.197917 2.34375,-4 7.03125,-7.90625 C11.5938,-11.8125 16.5729,-13.7656 21.9688,-13.7656"/>
<path class="Note" transform="matrix(0.737008,0,0,0.737008,590.696,473.386)" d="M21.9688,-13.7656 C25.0938,-13.7656 27.7344,-12.9531 29.8906,-11.3281 C31.901,-9.56771 32.9063,-7.35417 32.9063,-4.6875 C32.9063,-0.197917 30.599,4 25.9844,7.90625 C21.2969,11.8125 16.2813,13.7656 10.9375,13.7656 C7.8125,13.7656 5.17708,12.9531 3.03125,11.3281 C1.01042,9.56771 0,7.35417 0,4.6875 C0,0.197917 2.34375,-4 7.03125,-7.90625 C11.5938,-11.8125 16.5729,-13.7656 21.9688,-13.7656"/>
<path class="Note" transform="matrix(0.737008,0,0,0.737008,441.683,473.386)" d="M21.9688,-13.7656 C25.0938,-13.7656 27.7344,-12.9531 29.8906,-11.3281 C31.901,-9.56771 32.9063,-7.35417 32.9063,-4.6875 C32.9063,-0.197917 30.599,4 25.9844,7.90625 C21.2969,11.8125 16.2813,13.7656 10.9375,13.7656 C7.8125,13.7656 5.17708,12.9531 3.03125,11.3281 C1.01042,9.56771 0,7.35417 0,4.6875 C0,0.197917 2.34375,-4 7.03125,-7.90625 C11.5938,-11.8125 16.5729,-13.7656 21.9688,-13.7656"/>
<path class="Note" transform="matrix(0.737008,0,0,0.737008,325.794,473.386)" d="M21.9688,-13.7656 C25.0938,-13.7656 27.7344,-12.9531 29.8906,-11.3281 C31.901,-9.56771 32.9063,-7.35417 32.9063,-4.6875 C32.9063,-0.197917 30.599,4 25.9844,7.90625 C21.2969,11.8125 16.2813,13.7656 10.9375,13.7656 C7.8125,13.7656 5.17708,12.9531 3.03125,11.3281 C1.01042,9.56771 0,7.35417 0,4.6875 C0,0.197917 2.34375,-4 7.03125,-7.90625 C11.5938,-11.8125 16.5729,-13.7656 21.9688,-13.7656"/>
<path class="Clef" transform="matrix(0.737008,0,0,0.737008,153.524,1210.39)" d="M38.875,-136.719 C40.5625,-138.542 41.4063,-140.234 41.4063,-141.797 C41.2813,-143.161 40.6979,-144.203 39.6563,-144.922 C38.4792,-145.703 37.1094,-146.094 35.5469,-146.094 C34.4427,-146.094 33.5313,-145.734 32.8125,-145.016 C32.1667,-144.37 31.8438,-143.557 31.8438,-142.578 C31.8438,-141.411 32.3281,-140.531 33.2969,-139.938 L38.875,-136.719 M40.4375,-135.844 C43.1667,-134.344 44.5313,-132.323 44.5313,-129.781 C44.5313,-129.781 44.5313,-129.688 44.5313,-129.5 C44.5313,-127.479 43.7188,-125.786 42.0938,-124.422 C40.4688,-122.984 38.1563,-122.266 35.1563,-122.266 C32.6875,-122.266 30.5417,-122.917 28.7188,-124.219 C26.8958,-125.458 25.9844,-127.151 25.9844,-129.297 C25.9844,-130.141 26.2083,-130.922 26.6563,-131.641 C27.1771,-132.484 27.6042,-133.073 27.9375,-133.406 C28,-133.469 28.1458,-133.615 28.375,-133.844 C28.6042,-134.073 28.8307,-134.299 29.0547,-134.523 C29.2786,-134.747 29.5208,-134.99 29.7813,-135.25 C27.7708,-136.625 26.7656,-138.417 26.7656,-140.625 C26.7656,-142.385 27.5469,-143.948 29.1094,-145.313 C30.7344,-146.615 32.8802,-147.266 35.5469,-147.266 C37.7656,-147.266 39.6563,-146.779 41.2188,-145.805 C42.7813,-144.831 43.5625,-143.495 43.5625,-141.797 C43.5625,-140.036 42.5208,-138.052 40.4375,-135.844 M31.25,-134.375 C29.3021,-132.615 28.2604,-130.922 28.125,-129.297 C28.125,-127.609 28.8411,-126.211 30.2734,-125.102 C31.7057,-123.992 33.3333,-123.438 35.1563,-123.438 C36.4583,-123.438 37.5,-123.859 38.2813,-124.703 C39.0625,-125.484 39.4531,-126.432 39.4531,-127.547 C39.3906,-128.974 38.8073,-130.016 37.7031,-130.672 L31.25,-134.375 M36.7188,-25.5938 C36.7188,-25.5938 36.9167,-25.5938 37.3125,-25.5938 C37.5729,-25.6563 37.7969,-25.6875 37.9844,-25.6875 C45.276,-25.6875 51.2656,-23.1146 55.9531,-17.9688 C60.6406,-12.8958 62.9844,-6.97396 62.9844,-0.203125 C62.9844,8.20313 59.5052,15.0417 52.5469,20.3125 C50.724,21.75 48.3438,22.9219 45.4063,23.8281 C45.7396,28.0573 45.9063,31.474 45.9063,34.0781 C45.9063,34.599 45.8385,36.4896 45.7031,39.75 C45.4427,45.8021 43.3594,51.0417 39.4531,55.4688 C35.6823,59.8333 30.9948,62.0156 25.3906,62.0156 C20.1198,62.0156 15.6302,60.1615 11.9219,56.4531 C8.20313,52.6719 6.34375,48.1146 6.34375,42.7813 C6.34375,39.9792 7.42188,37.599 9.57813,35.6406 C11.7865,33.6927 14.3542,32.7188 17.2813,32.7188 C19.8854,32.7188 22.0677,33.7292 23.8281,35.75 C25.651,37.6354 26.5625,39.9792 26.5625,42.7813 C26.5625,45.3125 25.651,47.4896 23.8281,49.3125 C22.0052,51.1354 19.8229,52.0469 17.2813,52.0469 C16.2396,52.0469 15.2344,51.8542 14.2656,51.4688 C17.1302,55.6979 20.9375,57.8125 25.6875,57.8125 C30.1771,57.8125 33.8542,55.9896 36.7188,52.3438 C39.7188,48.5729 41.349,44.1771 41.6094,39.1563 C41.7344,36.0313 41.7969,34.2448 41.7969,33.7969 C41.7969,30.151 41.6667,27.1563 41.4063,24.8125 C38.1563,25.3333 35.2604,25.5938 32.7188,25.5938 C23.6667,25.5938 15.9531,22.0104 9.57813,14.8438 C3.32813,7.61458 0.203125,-0.979167 0.203125,-10.9375 C0.203125,-13.0208 0.395833,-15.1354 0.78125,-17.2813 C1.17708,-19.0417 1.66667,-20.9635 2.25,-23.0469 C2.57292,-24.224 3.45313,-26.1146 4.89063,-28.7188 C5.41146,-29.5 5.9974,-30.4766 6.64844,-31.6484 C7.29948,-32.8203 7.75521,-33.599 8.01563,-33.9844 C8.66146,-35.2865 9.92708,-37.0469 11.8125,-39.2656 C12.3333,-39.849 12.8724,-40.4974 13.4297,-41.2109 C13.987,-41.9245 14.4609,-42.5104 14.8516,-42.9688 C15.2422,-43.4271 15.5339,-43.7865 15.7266,-44.0469 C15.9193,-44.3073 17.3854,-46.0313 20.125,-49.2188 C20.7708,-49.875 21.4036,-50.5755 22.0234,-51.3203 C22.6432,-52.0651 23.1484,-52.651 23.5391,-53.0781 C23.9297,-53.5052 24.224,-53.8125 24.4219,-54 C22.0781,-61.75 20.6094,-67.9375 20.0156,-72.5625 C19.5677,-76.2708 19.3438,-81.349 19.3438,-87.7969 C19.3438,-93.4635 20.6458,-98.7708 23.25,-103.719 C25.7813,-108.854 29.3281,-113.052 33.8906,-116.313 C34.151,-116.51 34.474,-116.609 34.8594,-116.609 C35.3177,-116.609 35.6458,-116.51 35.8438,-116.313 C39.3542,-112.083 42.3802,-106.583 44.9219,-99.8125 C47.526,-93.0417 48.8281,-86.8854 48.8281,-81.3438 C48.8281,-75.0938 47.3333,-69.2344 44.3438,-63.7656 C40.9583,-57.974 36.5938,-51.9844 31.25,-45.7969 C32.6146,-41.5052 34.4375,-34.7708 36.7188,-25.5938 M45.0156,19.8281 C48.401,18.5885 51.0417,16.474 52.9375,13.4844 C55.0208,10.6198 56.0625,7.39583 56.0625,3.8125 C56.0625,-0.8125 54.5,-4.91667 51.375,-8.5 C48.1771,-12.2083 44.1042,-14.2917 39.1563,-14.75 C41.9583,-1.01042 43.9115,10.5156 45.0156,19.8281 M7.23438,-2.73438 C7.23438,3.71354 9.83854,9.38021 15.0469,14.2656 C20.3802,19.0156 26.3698,21.3906 33.0156,21.3906 C35.7448,21.3906 38.4115,21.1927 41.0156,20.7969 C39.974,10.901 37.9219,-0.947917 34.8594,-14.75 C31.151,-14.3542 28.1927,-13.0521 25.9844,-10.8438 C23.8281,-8.5625 22.75,-5.98958 22.75,-3.125 C22.75,1.82292 25.3906,5.82813 30.6719,8.89063 C31.1198,9.34896 31.3438,9.83854 31.3438,10.3594 C31.3438,10.8802 31.1198,11.3646 30.6719,11.8125 C30.276,12.2708 29.7865,12.5 29.2031,12.5 C29.1406,12.5 28.849,12.4375 28.3281,12.3125 C24.6094,10.2917 21.7448,7.6875 19.7344,4.5 C17.8385,1.10417 16.8906,-2.31771 16.8906,-5.76563 C16.8906,-10.2552 18.2917,-14.3229 21.0938,-17.9688 C24.0208,-21.6146 27.8281,-23.9583 32.5156,-25 C30.6927,-32.2917 29.1979,-37.9896 28.0313,-42.0938 C26.9896,-40.9167 25.737,-39.5 24.2734,-37.8438 C22.8099,-36.1875 21.9479,-35.1927 21.6875,-34.8594 C19.3438,-31.8073 17.5521,-29.4323 16.3125,-27.7344 C14.0938,-24.6719 12.4635,-22.0365 11.4219,-19.8281 C10.3177,-17.349 9.34375,-14.6458 8.5,-11.7188 C7.65625,-8.91667 7.23438,-5.92188 7.23438,-2.73438 M39.8438,-102.047 C34.9583,-99.6406 31.1198,-96.1927 28.3281,-91.7031 C25.4635,-87.0781 24.0313,-82.099 24.0313,-76.7656 C24.0313,-72.0781 25.2031,-65.7604 27.5469,-57.8125 C32.2344,-63.4792 35.75,-68.7188 38.0938,-73.5313 C40.5625,-78.6146 41.7969,-83.9219 41.7969,-89.4531 C41.7969,-93.6198 41.1458,-97.8177 39.8438,-102.047"/>
<path class="Clef" transform="matrix(0.737008,0,0,0.737008,153.524,860.315)" d="M38.875,-136.719 C40.5625,-138.542 41.4063,-140.234 41.4063,-141.797 C41.2813,-143.161 40.6979,-144.203 39.6563,-144.922 C38.4792,-145.703 37.1094,-146.094 35.5469,-146.094 C34.4427,-146.094 33.5313,-145.734 32.8125,-145.016 C32.1667,-144.37 31.8438,-143.557 31.8438,-142.578 C31.8438,-141.411 32.3281,-140.531 33.2969,-139.938 L38.875,-136.719 M40.4375,-135.844 C43.1667,-134.344 44.5313,-132.323 44.5313,-129.781 C44.5313,-129.781 44.5313,-129.688 44.5313,-129.5 C44.5313,-127.479 43.7188,-125.786 42.0938,-124.422 C40.4688,-122.984 38.1563,-122.266 35.1563,-122.266 C32.6875,-122.266 30.5417,-122.917 28.7188,-124.219 C26.8958,-125.458 25.9844,-127.151 25.9844,-129.297 C25.9844,-130.141 26.2083,-130.922 26.6563,-131.641 C27.1771,-132.484 27.6042,-133.073 27.9375,-133.406 C28,-133.469 28.1458,-133.615 28.375,-133.844 C28.6042,-134.073 28.8307,-134.299 29.0547,-134.523 C29.2786,-134.747 29.5208,-134.99 29.7813,-135.25 C27.7708,-136.625 26.7656,-138.417 26.7656,-140.625 C26.7656,-142.385 27.5469,-143.948 29.1094,-145.313 C30.7344,-146.615 32.8802,-147.266 35.5469,-147.266 C37.7656,-147.266 39.6563,-146.779 41.2188,-145.805 C42.7813,-144.831 43.5625,-143.495 43.5625,-141.797 C43.5625,-140.036 42.5208,-138.052 40.4375,-135.844 M31.25,-134.375 C29.3021,-132.615 28.2604,-130.922 28.125,-129.297 C28.125,-127.609 28.8411,-126.211 30.2734,-125.102 C31.7057,-123.992 33.3333,-123.438 35.1563,-123.438 C36.4583,-123.438 37.5,-123.859 38.2813,-124.703 C39.0625,-125.484 39.4531,-126.432 39.4531,-127.547 C39.3906,-128.974 38.8073,-130.016 37.7031,-130.672 L31.25,-134.375 M36.7188,-25.5938 C36.7188,-25.5938 36.9167,-25.5938 37.3125,-25.5938 C37.5729,-25.6563 37.7969,-25.6875 37.9844,-25.6875 C45.276,-25.6875 51.2656,-23.1146 55.9531,-17.9688 C60.6406,-12.8958 62.9844,-6.97396 62.9844,-0.203125 C62.9844,8.20313 59.5052,15.0417 52.5469,20.3125 C50.724,21.75 48.3438,22.9219 45.4063,23.8281 C45.7396,28.0573 45.9063,31.474 45.9063,34.0781 C45.9063,34.599 45.8385,36.4896 45.7031,39.75 C45.4427,45.8021 43.3594,51.0417 39.4531,55.4688 C35.6823,59.8333 30.9948,62.0156 25.3906,62.0156 C20.1198,62.0156 15.6302,60.1615 11.9219,56.4531 C8.20313,52.6719 6.34375,48.1146 6.34375,42.7813 C6.34375,39.9792 7.42188,37.599 9.57813,35.6406 C11.7865,33.6927 14.3542,32.7188 17.2813,32.7188 C19.8854,32.7188 22.0677,33.7292 23.8281,35.75 C25.651,37.6354 26.5625,39.9792 26.5625,42.7813 C26.5625,45.3125 25.651,47.4896 23.8281,49.3125 C22.0052,51.1354 19.8229,52.0469 17.2813,52.0469 C16.2396,52.0469 15.2344,51.8542 14.2656,51.4688 C17.1302,55.6979 20.9375,57.8125 25.6875,57.8125 C30.1771,57.8125 33.8542,55.9896 36.7188,52.3438 C39.7188,48.5729 41.349,44.1771 41.6094,39.1563 C41.7344,36.0313 41.7969,34.2448 41.7969,33.7969 C41.7969,30.151 41.6667,27.1563 41.4063,24.8125 C38.1563,25.3333 35.2604,25.5938 32.7188,25.5938 C23.6667,25.5938 15.9531,22.0104 9.57813,14.8438 C3.32813,7.61458 0.203125,-0.979167 0.203125,-10.9375 C0.203125,-13.0208 0.395833,-15.1354 0.78125,-17.2813 C1.17708,-19.0417 1.66667,-20.9635 2.25,-23.0469 C2.57292,-24.224 3.45313,-26.1146 4.89063,-28.7188 C5.41146,-29.5 5.9974,-30.4766 6.64844,-31.6484 C7.29948,-32.8203 7.75521,-33.599 8.01563,-33.9844 C8.66146,-35.2865 9.92708,-37.0469 11.8125,-39.2656 C12.3333,-39.849 12.8724,-40.4974 13.4297,-41.2109 C13.987,-41.9245 14.4609,-42.5104 14.8516,-42.9688 C15.2422,-43.4271 15.5339,-43.7865 15.7266,-44.0469 C15.9193,-44.3073 17.3854,-46.0313 20.125,-49.2188 C20.7708,-49.875 21.4036,-50.5755 22.0234,-51.3203 C22.6432,-52.0651 23.1484,-52.651 23.5391,-53.0781 C23.9297,-53.5052 24.224,-53.8125 24.4219,-54 C22.0781,-61.75 20.6094,-67.9375 20.0156,-72.5625 C19.5677,-76.2708 19.3438,-81.349 19.3438,-87.7969 C19.3438,-93.4635 20.6458,-98.7708 23.25,-103.719 C25.7813,-108.854 29.3281,-113.052 33.8906,-116.313 C34.151,-116.51 34.474,-116.609 34.8594,-116.609 C35.3177,-116.609 35.6458,-116.51 35.8438,-116.313 C39.3542,-112.083 42.3802,-106.583 44.9219,-99.8125 C47.526,-93.0417 48.8281,-86.8854 48.8281,-81.3438 C48.8281,-75.0938 47.3333,-69.2344 44.3438,-63.7656 C40.9583,-57.974 36.5938,-51.9844 31.25,-45.7969 C32.6146,-41.5052 34.4375,-34.7708 36.7188,-25.5938 M45.0156,19.8281 C48.401,18.5885 51.0417,16.474 52.9375,13.4844 C55.0208,10.6198 56.0625,7.39583 56.0625,3.8125 C56.0625,-0.8125 54.5,-4.91667 51.375,-8.5 C48.1771,-12.2083 44.1042,-14.2917 39.1563,-14.75 C41.9583,-1.01042 43.9115,10.5156 45.0156,19.8281 M7.23438,-2.73438 C7.23438,3.71354 9.83854,9.38021 15.0469,14.2656 C20.3802,19.0156 26.3698,21.3906 33.0156,21.3906 C35.7448,21.3906 38.4115,21.1927 41.0156,20.7969 C39.974,10.901 37.9219,-0.947917 34.8594,-14.75 C31.151,-14.3542 28.1927,-13.0521 25.9844,-10.8438 C23.8281,-8.5625 22.75,-5.98958 22.75,-3.125 C22.75,1.82292 25.3906,5.82813 30.6719,8.89063 C31.1198,9.34896 31.3438,9.83854 31.3438,10.3594 C31.3438,10.8802 31.1198,11.3646 30.6719,11.8125 C30.276,12.2708 29.7865,12.5 29.2031,12.5 C29.1406,12.5 28.849,12.4375 28.3281,12.3125 C24.6094,10.2917 21.7448,7.6875 19.7344,4.5 C17.8385,1.10417 16.8906,-2.31771 16.8906,-5.76563 C16.8906,-10.2552 18.2917,-14.3229 21.0938,-17.9688 C24.0208,-21.6146 27.8281,-23.9583 32.5156,-25 C30.6927,-32.2917 29.1979,-37.9896 28.0313,-42.0938 C26.9896,-40.9167 25.737,-39.5 24.2734,-37.8438 C22.8099,-36.1875 21.9479,-35.1927 21.6875,-34.8594 C19.3438,-31.8073 17.5521,-29.4323 16.3125,-27.7344 C14.0938,-24.6719 12.4635,-22.0365 11.4219,-19.8281 C10.3177,-17.349 9.34375,-14.6458 8.5,-11.7188 C7.65625,-8.91667 7.23438,-5.92188 7.23438,-2.73438 M39.8438,-102.047 C34.9583,-99.6406 31.1198,-96.1927 28.3281,-91.7031 C25.4635,-87.0781 24.0313,-82.099 24.0313,-76.7656 C24.0313,-72.0781 25.2031,-65.7604 27.5469,-57.8125 C32.2344,-63.4792 35.75,-68.7188 38.0938,-73.5313 C40.5625,-78.6146 41.7969,-83.9219 41.7969,-89.4531 C41.7969,-93.6198 41.1458,-97.8177 39.8438,-102.047"/>
<path class="Clef" transform="matrix(0.737008,0,0,0.737008,153.524,510.236)" d="M38.875,-136.719 C40.5625,-138.542 41.4063,-140.234 41.4063,-141.797 C41.2813,-143.161 40.6979,-144.203 39.6563,-144.922 C38.4792,-145.703 37.1094,-146.094 35.5469,-146.094 C34.4427,-146.094 33.5313,-145.734 32.8125,-145.016 C32.1667,-144.37 31.8438,-143.557 31.8438,-142.578 C31.8438,-141.411 32.3281,-140.531 33.2969,-139.938 L38.875,-136.719 M40.4375,-135.844 C43.1667,-134.344 44.5313,-132.323 44.5313,-129.781 C44.5313,-129.781 44.5313,-129.688 44.5313,-129.5 C44.5313,-127.479 43.7188,-125.786 42.0938,-124.422 C40.4688,-122.984 38.1563,-122.266 35.1563,-122.266 C32.6875,-122.266 30.5417,-122.917 28.7188,-124.219 C26.8958,-125.458 25.9844,-127.151 25.9844,-129.297 C25.9844,-130.141 26.2083,-130.922 26.6563,-131.641 C27.1771,-132.484 27.6042,-133.073 27.9375,-133.406 C28,-133.469 28.1458,-133.615 28.375,-133.844 C28.6042,-134.073 28.8307,-134.299 29.0547,-134.523 C29.2786,-134.747 29.5208,-134.99 29.7813,-135.25 C27.7708,-136.625 26.7656,-138.417 26.7656,-140.625 C26.7656,-142.385 27.5469,-143.948 29.1094,-145.313 C30.7344,-146.615 32.8802,-147.266 35.5469,-147.266 C37.7656,-147.266 39.6563,-146.779 41.2188,-145.805 C42.7813,-144.831 43.5625,-143.495 43.5625,-141.797 C43.5625,-140.036 42.5208,-138.052 40.4375,-135.844 M31.25,-134.375 C29.3021,-132.615 28.2604,-130.922 28.125,-129.297 C28.125,-127.609 28.8411,-126.211 30.2734,-125.102 C31.7057,-123.992 33.3333,-123.438 35.1563,-123.438 C36.4583,-123.438 37.5,-123.859 38.2813,-124.703 C39.0625,-125.484 39.4531,-126.432 39.4531,-127.547 C39.3906,-128.974 38.8073,-130.016 37.7031,-130.672 L31.25,-134.375 M36.7188,-25.5938 C36.7188,-25.5938 36.9167,-25.5938 37.3125,-25.5938 C37.5729,-25.6563 37.7969,-25.6875 37.9844,-25.6875 C45.276,-25.6875 51.2656,-23.1146 55.9531,-17.9688 C60.6406,-12.8958 62.9844,-6.97396 62.9844,-0.203125 C62.9844,8.20313 59.5052,15.0417 52.5469,20.3125 C50.724,21.75 48.3438,22.9219 45.4063,23.8281 C45.7396,28.0573 45.9063,31.474 45.9063,34.0781 C45.9063,34.599 45.8385,36.4896 45.7031,39.75 C45.4427,45.8021 43.3594,51.0417 39.4531,55.4688 C35.6823,59.8333 30.9948,62.0156 25.3906,62.0156 C20.1198,62.0156 15.6302,60.1615 11.9219,56.4531 C8.20313,52.6719 6.34375,48.1146 6.34375,42.7813 C6.34375,39.9792 7.42188,37.599 9.57813,35.6406 C11.7865,33.6927 14.3542,32.7188 17.2813,32.7188 C19.8854,32.7188 22.0677,33.7292 23.8281,35.75 C25.651,37.6354 26.5625,39.9792 26.5625,42.7813 C26.5625,45.3125 25.651,47.4896 23.8281,49.3125 C22.0052,51.1354 19.8229,52.0469 17.2813,52.0469 C16.2396,52.0469 15.2344,51.8542 14.2656,51.4688 C17.1302,55.6979 20.9375,57.8125 25.6875,57.8125 C30.1771,57.8125 33.8542,55.9896 36.7188,52.3438 C39.7188,48.5729 41.349,44.1771 41.6094,39.1563 C41.7344,36.0313 41.7969,34.2448 41.7969,33.7969 C41.7969,30.151 41.6667,27.1563 41.4063,24.8125 C38.1563,25.3333 35.2604,25.5938 32.7188,25.5938 C23.6667,25.5938 15.9531,22.0104 9.57813,14.8438 C3.32813,7.61458 0.203125,-0.979167 0.203125,-10.9375 C0.203125,-13.0208 0.395833,-15.1354 0.78125,-17.2813 C1.17708,-19.0417 1.66667,-20.9635 2.25,-23.0469 C2.57292,-24.224 3.45313,-26.1146 4.89063,-28.7188 C5.41146,-29.5 5.9974,-30.4766 6.64844,-31.6484 C7.29948,-32.8203 7.75521,-33.599 8.01563,-33.9844 C8.66146,-35.2865 9.92708,-37.0469 11.8125,-39.2656 C12.3333,-39.849 12.8724,-40.4974 13.4297,-41.2109 C13.987,-41.9245 14.4609,-42.5104 14.8516,-42.9688 C15.2422,-43.4271 15.5339,-43.7865 15.7266,-44.0469 C15.9193,-44.3073 17.3854,-46.0313 20.125,-49.2188 C20.7708,-49.875 21.4036,-50.5755 22.0234,-51.3203 C22.6432,-52.0651 23.1484,-52.651 23.5391,-53.0781 C23.9297,-53.5052 24.224,-53.8125 24.4219,-54 C22.0781,-61.75 20.6094,-67.9375 20.0156,-72.5625 C19.5677,-76.2708 19.3438,-81.349 19.3438,-87.7969 C19.3438,-93.4635 20.6458,-98.7708 23.25,-103.719 C25.7813,-108.854 29.3281,-113.052 33.8906,-116.313 C34.151,-116.51 34.474,-116.609 34.8594,-116.609 C35.3177,-116.609 35.6458,-116.51 35.8438,-116.313 C39.3542,-112.083 42.3802,-106.583 44.9219,-99.8125 C47.526,-93.0417 48.8281,-86.8854 48.8281,-81.3438 C48.8281,-75.0938 47.3333,-69.2344 44.3438,-63.7656 C40.9583,-57.974 36.5938,-51.9844 31.25,-45.7969 C32.6146,-41.5052 34.4375,-34.7708 36.7188,-25.5938 M45.0156,19.8281 C48.401,18.5885 51.0417,16.474 52.9375,13.4844 C55.0208,10.6198 56.0625,7.39583 56.0625,3.8125 C56.0625,-0.8125 54.5,-4.91667 51.375,-8.5 C48.1771,-12.2083 44.1042,-14.2917 39.1563,-14.75 C41.9583,-1.01042 43.9115,10.5156 45.0156,19.8281 M7.23438,-2.73438 C7.23438,3.71354 9.83854,9.38021 15.0469,14.2656 C20.3802,19.0156 26.3698,21.3906 33.0156,21.3906 C35.7448,21.3906 38.4115,21.1927 41.0156,20.7969 C39.974,10.901 37.9219,-0.947917 34.8594,-14.75 C31.151,-14.3542 28.1927,-13.0521 25.9844,-10.8438 C23.8281,-8.5625 22.75,-5.98958 22.75,-3.125 C22.75,1.82292 25.3906,5.82813 30.6719,8.89063 C31.1198,9.34896 31.3438,9.83854 31.3438,10.3594 C31.3438,10.8802 31.1198,11.3646 30.6719,11.8125 C30.276,12.2708 29.7865,12.5 29.2031,12.5 C29.1406,12.5 28.849,12.4375 28.3281,12.3125 C24.6094,10.2917 21.7448,7.6875 19.7344,4.5 C17.8385,1.10417 16.8906,-2.31771 16.8906,-5.76563 C16.8906,-10.2552 18.2917,-14.3229 21.0938,-17.9688 C24.0208,-21.6146 27.8281,-23.9583 32.5156,-25 C30.6927,-32.2917 29.1979,-37.9896 28.0313,-42.0938 C26.9896,-40.9167 25.737,-39.5 24.2734,-37.8438 C22.8099,-36.1875 21.9479,-35.1927 21.6875,-34.8594 C19.3438,-31.8073 17.5521,-29.4323 16.3125,-27.7344 C14.0938,-24.6719 12.4635,-22.0365 11.4219,-19.8281 C10.3177,-17.349 9.34375,-14.6458 8.5,-11.7188 C7.65625,-8.91667 7.23438,-5.92188 7.23438,-2.73438 M39.8438,-102.047 C34.9583,-99.6406 31.1198,-96.1927 28.3281,-91.7031 C25.4635,-87.0781 24.0313,-82.099 24.0313,-76.7656 C24.0313,-72.0781 25.2031,-65.7604 27.5469,-57.8125 C32.2344,-63.4792 35.75,-68.7188 38.0938,-73.5313 C40.5625,-78.6146 41.7969,-83.9219 41.7969,-89.4531 C41.7969,-93.6198 41.1458,-97.8177 39.8438,-102.047"/>
<path class="KeySig" transform="matrix(0.737008,0,0,0.737008,218.335,1155.12)" d="M21.5781,31.1563 C21.5781,32.3958 20.9609,33.0156 19.7266,33.0156 C18.4922,33.0156 17.875,32.3958 17.875,31.1563 L17.875,16.7031 L9.57813,19.8281 L9.57813,35.6406 C9.57813,36.8802 8.95833,37.5 7.71875,37.5 C6.47917,37.5 5.85938,36.8802 5.85938,35.6406 L5.85938,21.0938 L2.73438,22.2656 C2.67188,22.3281 2.41146,22.3594 1.95313,22.3594 C1.43229,22.3594 0.976563,22.1641 0.585938,21.7734 C0.195313,21.3828 0,20.9271 0,20.4063 L0,14.3594 C0,13.3802 0.421875,12.7604 1.26563,12.5 L5.85938,10.9375 L5.85938,-5.07813 L2.73438,-4 C2.67188,-3.9375 2.41146,-3.90625 1.95313,-3.90625 C1.43229,-3.90625 0.976563,-4.10156 0.585938,-4.49219 C0.195313,-4.88281 0,-5.33854 0,-5.85938 L0,-11.9219 C0,-12.8281 0.421875,-13.4115 1.26563,-13.6719 L5.85938,-15.4375 L5.85938,-31.1563 C5.85938,-32.3958 6.47917,-33.0156 7.71875,-33.0156 C8.95833,-33.0156 9.57813,-32.3958 9.57813,-31.1563 L9.57813,-16.7031 L17.875,-19.8281 L17.875,-35.6406 C17.875,-36.8802 18.4922,-37.5 19.7266,-37.5 C20.9609,-37.5 21.5781,-36.8802 21.5781,-35.6406 L21.5781,-21.0938 L24.8125,-22.2656 C24.875,-22.3281 25.099,-22.3594 25.4844,-22.3594 C25.9427,-22.3594 26.4323,-22.1667 26.9531,-21.7813 C27.349,-21.3854 27.5469,-20.9271 27.5469,-20.4063 L27.5469,-14.3594 C27.5469,-13.4427 27.0885,-12.8229 26.1719,-12.5 L21.5781,-10.9375 L21.5781,5.07813 L24.8125,4 C24.875,3.9375 25.099,3.90625 25.4844,3.90625 C25.9427,3.90625 26.4323,4.10417 26.9531,4.5 C27.349,4.88542 27.5469,5.33854 27.5469,5.85938 L27.5469,11.9219 C27.5469,12.7656 27.0885,13.349 26.1719,13.6719 L21.5781,15.4375 L21.5781,31.1563 M17.875,-9.46875 L9.57813,-6.54688 L9.57813,9.46875 L17.875,6.54688 L17.875,-9.46875 "/>
<path class="KeySig" transform="matrix(0.737008,0,0,0.737008,218.335,805.039)" d="M21.5781,31.1563 C21.5781,32.3958 20.9609,33.0156 19.7266,33.0156 C18.4922,33.0156 17.875,32.3958 17.875,31.1563 L17.875,16.7031 L9.57813,19.8281 L9.57813,35.6406 C9.57813,36.8802 8.95833,37.5 7.71875,37.5 C6.47917,37.5 5.85938,36.8802 5.85938,35.6406 L5.85938,21.0938 L2.73438,22.2656 C2.67188,22.3281 2.41146,22.3594 1.95313,22.3594 C1.43229,22.3594 0.976563,22.1641 0.585938,21.7734 C0.195313,21.3828 0,20.9271 0,20.4063 L0,14.3594 C0,13.3802 0.421875,12.7604 1.26563,12.5 L5.85938,10.9375 L5.85938,-5.07813 L2.73438,-4 C2.67188,-3.9375 2.41146,-3.90625 1.95313,-3.90625 C1.43229,-3.90625 0.976563,-4.10156 0.585938,-4.49219 C0.195313,-4.88281 0,-5.33854 0,-5.85938 L0,-11.9219 C0,-12.8281 0.421875,-13.4115 1.26563,-13.6719 L5.85938,-15.4375 L5.85938,-31.1563 C5.85938,-32.3958 6.47917,-33.0156 7.71875,-33.0156 C8.95833,-33.0156 9.57813,-32.3958 9.57813,-31.1563 L9.57813,-16.7031 L17.875,-19.8281 L17.875,-35.6406 C17.875,-36.8802 18.4922,-37.5 19.7266,-37.5 C20.9609,-37.5 21.5781,-36.8802 21.5781,-35.6406 L21.5781,-21.0938 L24.8125,-22.2656 C24.875,-22.3281 25.099,-22.3594 25.4844,-22.3594 C25.9427,-22.3594 26.4323,-22.1667 26.9531,-21.7813 C27.349,-21.3854 27.5469,-20.9271 27.5469,-20.4063 L27.5469,-14.3594 C27.5469,-13.4427 27.0885,-12.8229 26.1719,-12.5 L21.5781,-10.9375 L21.5781,5.07813 L24.8125,4 C24.875,3.9375 25.099,3.90625 25.4844,3.90625 C25.9427,3.90625 26.4323,4.10417 26.9531,4.5 C27.349,4.88542 27.5469,5.33854 27.5469,5.85938 L27.5469,11.9219 C27.5469,12.7656 27.0885,13.349 26.1719,13.6719 L21.5781,15.4375 L21.5781,31.1563 M17.875,-9.46875 L9.57813,-6.54688 L9.57813,9.46875 L17.875,6.54688 L17.875,-9.46875 "/>
<path class="KeySig" transform="matrix(0.737008,0,0,0.737008,218.335,454.961)" d="M21.5781,31.1563 C21.5781,32.3958 20.9609,33.0156 19.7266,33.0156 C18.4922,33.0156 17.875,32.3958 17.875,31.1563 L17.875,16.7031 L9.57813,19.8281 L9.57813,35.6406 C9.57813,36.8802 8.95833,37.5 7.71875,37.5 C6.47917,37.5 5.85938,36.8802 5.85938,35.6406 L5.85938,21.0938 L2.73438,22.2656 C2.67188,22.3281 2.41146,22.3594 1.95313,22.3594 C1.43229,22.3594 0.976563,22.1641 0.585938,21.7734 C0.195313,21.3828 0,20.9271 0,20.4063 L0,14.3594 C0,13.3802 0.421875,12.7604 1.26563,12.5 L5.85938,10.9375 L5.85938,-5.07813 L2.73438,-4 C2.67188,-3.9375 2.41146,-3.90625 1.95313,-3.90625 C1.43229,-3.90625 0.976563,-4.10156 0.585938,-4.49219 C0.195313,-4.88281 0,-5.33854 0,-5.85938 L0,-11.9219 C0,-12.8281 0.421875,-13.4115 1.26563,-13.6719 L5.85938,-15.4375 L5.85938,-31.1563 C5.85938,-32.3958 6.47917,-33.0156 7.71875,-33.0156 C8.95833,-33.0156 9.57813,-32.3958 9.57813,-31.1563 L9.57813,-16.7031 L17.875,-19.8281 L17.875,-35.6406 C17.875,-36.8802 18.4922,-37.5 19.7266,-37.5 C20.9609,-37.5 21.5781,-36.8802 21.5781,-35.6406 L21.5781,-21.0938 L24.8125,-22.2656 C24.875,-22.3281 25.099,-22.3594 25.4844,-22.3594 C25.9427,-22.3594 26.4323,-22.1667 26.9531,-21.7813 C27.349,-21.3854 27.5469,-20.9271 27.5469,-20.4063 L27.5469,-14.3594 C27.5469,-13.4427 27.0885,-12.8229 26.1719,-12.5 L21.5781,-10.9375 L21.5781,5.07813 L24.8125,4 C24.875,3.9375 25.099,3.90625 25.4844,3.90625 C25.9427,3.90625 26.4323,4.10417 26.9531,4.5 C27.349,4.88542 27.5469,5.33854 27.5469,5.85938 L27.5469,11.9219 C27.5469,12.7656 27.0885,13.349 26.1719,13.6719 L21.5781,15.4375 L21.5781,31.1563 M17.875,-9.46875 L9.57813,-6.54688 L9.57813,9.46875 L17.875,6.54688 L17.875,-9.46875 "/>
<path class="TimeSig" transform="matrix(0.737008,0,0,0.737008,257.057,491.811)" d="M35.9375,-2.73438 C34.25,-2.73438 32.5573,-3.38542 30.8594,-4.6875 C29.2344,-5.92708 28.4219,-7.75 28.4219,-10.1563 C28.4219,-12.1771 29.1042,-13.9688 30.4688,-15.5313 C31.7708,-17.0938 33.4948,-17.875 35.6406,-17.875 C36.3594,-17.875 36.8177,-17.8438 37.0156,-17.7813 C34.0156,-21.6146 30.0104,-23.599 25,-23.7344 C21.2292,-23.7344 18.3646,-22.6615 16.4063,-20.5156 C15.7604,-19.6615 15.1771,-18.2917 14.6563,-16.4063 C14.1354,-14.5208 13.875,-12.8281 13.875,-11.3281 C13.7396,-10.2865 13.6719,-8.20313 13.6719,-5.07813 L13.6719,5.07813 C13.6719,8.20313 13.7396,10.3177 13.875,11.4219 C14.1354,15.6615 14.9792,18.6927 16.4063,20.5156 C18.4271,22.724 21.2917,23.8281 25,23.8281 C28.9063,23.8281 32.2292,22.3958 34.9688,19.5313 C37.7604,16.7292 39.7135,13.1146 40.8281,8.6875 C41.0156,8.04167 41.4063,7.71875 42,7.71875 C42.8438,7.71875 43.2656,8.10938 43.2656,8.89063 C43.2656,9.34896 43.0677,10.2292 42.6719,11.5313 C41.7656,14.4583 39.9792,17.5469 37.3125,20.7969 C34.1146,24.4427 30.0104,26.2656 25,26.2656 C22.0729,26.2656 19.0781,25.8438 16.0156,25 C13.026,23.9583 10.3906,22.526 8.10938,20.7031 C5.56771,18.6823 3.58333,15.9479 2.15625,12.5 C0.71875,8.72917 0,4.5625 0,0 C0,-7.94792 2.15104,-14.2656 6.45313,-18.9531 C10.6198,-23.7656 16.8021,-26.1719 25,-26.1719 C30.3438,-26.1719 34.5781,-24.349 37.7031,-20.7031 C40.9531,-17.0573 42.5781,-13.4427 42.5781,-9.85938 C42.5781,-7.77604 41.9271,-6.08333 40.625,-4.78125 C39.4583,-3.41667 37.8958,-2.73438 35.9375,-2.73438"/>
<path class="Rest" transform="matrix(0.737008,0,0,0.737008,2713.54,1191.97)" d="M7.03125,-20.5156 C8.91667,-20.5156 10.349,-19.9948 11.3281,-18.9531 C12.3073,-17.776 12.8281,-16.6667 12.8906,-15.625 C13.026,-14.6458 13.3542,-13.5417 13.875,-12.3125 C14.4583,-11.2708 15.2031,-10.75 16.1094,-10.75 C16.8281,-10.75 17.9063,-11.5625 19.3438,-13.1875 C20.6458,-14.6146 21.5885,-15.8854 22.1719,-17 C22.4948,-17.6458 22.9479,-17.9688 23.5313,-17.9688 L23.6406,-17.9688 C24.2865,-17.9063 24.7396,-17.5833 25,-17 L12.7031,25 C12.0469,25.6563 11.1328,25.9844 9.96094,25.9844 C8.78906,25.9844 7.88021,25.6563 7.23438,25 L18.9531,-7.625 C14.7865,-6.125 11.2708,-5.375 8.40625,-5.375 C6.0625,-5.375 4.04167,-6.125 2.34375,-7.625 C0.583333,-9.05208 -0.296875,-10.9375 -0.296875,-13.2813 C-0.296875,-15.3021 0.421875,-16.9948 1.85938,-18.3594 C3.28646,-19.7969 5.01042,-20.5156 7.03125,-20.5156"/>
<path class="Rest" transform="matrix(0.737008,0,0,0.737008,2547.32,1191.97)" d="M-0.59375,-7.8125 C-0.59375,-8.98958 0.0625,-10.2917 1.375,-11.7188 C2.34375,-12.7604 3.77604,-14 5.67188,-15.4375 C7.09896,-16.4063 8.49479,-17.8698 9.85938,-19.8281 C11.1615,-21.7135 11.8125,-23.7656 11.8125,-25.9844 C11.8125,-28.5885 10.9688,-30.8958 9.28125,-32.9063 L5.76563,-37.1094 C5.50521,-37.3698 5.375,-37.6953 5.375,-38.0859 C5.375,-38.4766 5.56771,-38.8333 5.95313,-39.1563 C6.41146,-39.4896 6.80208,-39.6563 7.125,-39.6563 C7.58333,-39.6563 7.94271,-39.4583 8.20313,-39.0625 L23.3438,-21.0938 C23.9896,-20.25 24.3125,-19.4063 24.3125,-18.5625 C24.3125,-17.3854 23.6615,-16.0833 22.3594,-14.6563 C21.5156,-13.7396 20.1198,-12.5 18.1719,-10.9375 C16.6719,-10.0313 15.2396,-8.56771 13.875,-6.54688 C12.5729,-4.66146 11.9219,-2.60938 11.9219,-0.390625 C11.9219,2.34896 12.7031,4.66146 14.2656,6.54688 L22.6563,16.4063 C22.8542,16.6042 23.0156,16.9323 23.1406,17.3906 C23.1406,17.8385 22.9792,18.2292 22.6563,18.5625 C22.1979,18.8854 21.8073,19.0469 21.4844,19.0469 C21.3594,19.0469 20.8385,18.6875 19.9219,17.9688 C18.9427,17.1875 17.6406,16.4375 16.0156,15.7188 C14.1927,15.0104 12.401,14.6563 10.6406,14.6563 C9.01563,14.6563 7.68229,15.1094 6.64063,16.0156 C5.73438,16.9323 5.28125,18.6927 5.28125,21.2969 C5.28125,25.2656 6.22396,28.3906 8.10938,30.6719 C8.30729,30.9323 8.33854,31.2552 8.20313,31.6406 C8.07813,31.901 7.84896,32.0313 7.51563,32.0313 C7.06771,32.0313 6.0625,30.8594 4.5,28.5156 C2.86458,26.0469 1.33333,23.2135 -0.09375,20.0156 C-1.59375,16.6302 -2.34375,13.8333 -2.34375,11.625 C-2.34375,8.82292 -1.01042,7.42188 1.65625,7.42188 C4.71875,7.42188 8.69271,8.46354 13.5781,10.5469 L0.390625,-5.28125 C-0.265625,-6.125 -0.59375,-6.96875 -0.59375,-7.8125"/>
<path class="Rest" transform="matrix(0.737008,0,0,0.737008,1267.3,1191.97)" d="M7.03125,-20.5156 C8.91667,-20.5156 10.349,-19.9948 11.3281,-18.9531 C12.3073,-17.776 12.8281,-16.6667 12.8906,-15.625 C13.026,-14.6458 13.3542,-13.5417 13.875,-12.3125 C14.4583,-11.2708 15.2031,-10.75 16.1094,-10.75 C16.8281,-10.75 17.9063,-11.5625 19.3438,-13.1875 C20.6458,-14.6146 21.5885,-15.8854 22.1719,-17 C22.4948,-17.6458 22.9479,-17.9688 23.5313,-17.9688 L23.6406,-17.9688 C24.2865,-17.9063 24.7396,-17.5833 25,-17 L12.7031,25 C12.0469,25.6563 11.1328,25.9844 9.96094,25.9844 C8.78906,25.9844 7.88021,25.6563 7.23438,25 L18.9531,-7.625 C14.7865,-6.125 11.2708,-5.375 8.40625,-5.375 C6.0625,-5.375 4.04167,-6.125 2.34375,-7.625 C0.583333,-9.05208 -0.296875,-10.9375 -0.296875,-13.2813 C-0.296875,-15.3021 0.421875,-16.9948 1.85938,-18.3594 C3.28646,-19.7969 5.01042,-20.5156 7.03125,-20.5156"/>
<path class="Rest" transform="matrix(0.737008,0,0,0.737008,2435.55,841.89)" d="M7.03125,-20.5156 C8.91667,-20.5156 10.349,-19.9948 11.3281,-18.9531 C12.3073,-17.776 12.8281,-16.6667 12.8906,-15.625 C13.026,-14.6458 13.3542,-13.5417 13.875,-12.3125 C14.4583,-11.2708 15.2031,-10.75 16.1094,-10.75 C16.8281,-10.75 17.9063,-11.5625 19.3438,-13.1875 C20.6458,-14.6146 21.5885,-15.8854 22.1719,-17 C22.4948,-17.6458 22.9479,-17.9688 23.5313,-17.9688 L23.6406,-17.9688 C24.2865,-17.9063 24.7396,-17.5833 25,-17 L12.7031,25 C12.0469,25.6563 11.1328,25.9844 9.96094,25.9844 C8.78906,25.9844 7.88021,25.6563 7.23438,25 L18.9531,-7.625 C14.7865,-6.125 11.2708,-5.375 8.40625,-5.375 C6.0625,-5.375 4.04167,-6.125 2.34375,-7.625 C0.583333,-9.05208 -0.296875,-10.9375 -0.296875,-13.2813 C-0.296875,-15.3021 0.421875,-16.9948 1.85938,-18.3594 C3.28646,-19.7969 5.01042,-20.5156 7.03125,-20.5156"/>
<path class="Rest" transform="matrix(0.737008,0,0,0.737008,1217.68,841.89)" d="M7.03125,-20.5156 C8.91667,-20.5156 10.349,-19.9948 11.3281,-18.9531 C12.3073,-17.776 12.8281,-16.6667 12.8906,-15.625 C13.026,-14.6458 13.3542,-13.5417 13.875,-12.3125 C14.4583,-11.2708 15.2031,-10.75 16.1094,-10.75 C16.8281,-10.75 17.9063,-11.5625 19.3438,-13.1875 C20.6458,-14.6146 21.5885,-15.8854 22.1719,-17 C22.4948,-17.6458 22.9479,-17.9688 23.5313,-17.9688 L23.6406,-17.9688 C24.2865,-17.9063 24.7396,-17.5833 25,-17 L12.7031,25 C12.0469,25.6563 11.1328,25.9844 9.96094,25.9844 C8.78906,25.9844 7.88021,25.6563 7.23438,25 L18.9531,-7.625 C14.7865,-6.125 11.2708,-5.375 8.40625,-5.375 C6.0625,-5.375 4.04167,-6.125 2.34375,-7.625 C0.583333,-9.05208 -0.296875,-10.9375 -0.296875,-13.2813 C-0.296875,-15.3021 0.421875,-16.9948 1.85938,-18.3594 C3.28646,-19.7969 5.01042,-20.5156 7.03125,-20.5156"/>
<path class="Rest" transform="matrix(0.737008,0,0,0.737008,2436.14,491.811)" d="M7.03125,-20.5156 C8.91667,-20.5156 10.349,-19.9948 11.3281,-18.9531 C12.3073,-17.776 12.8281,-16.6667 12.8906,-15.625 C13.026,-14.6458 13.3542,-13.5417 13.875,-12.3125 C14.4583,-11.2708 15.2031,-10.75 16.1094,-10.75 C16.8281,-10.75 17.9063,-11.5625 19.3438,-13.1875 C20.6458,-14.6146 21.5885,-15.8854 22.1719,-17 C22.4948,-17.6458 22.9479,-17.9688 23.5313,-17.9688 L23.6406,-17.9688 C24.2865,-17.9063 24.7396,-17.5833 25,-17 L12.7031,25 C12.0469,25.6563 11.1328,25.9844 9.96094,25.9844 C8.78906,25.9844 7.88021,25.6563 7.23438,25 L18.9531,-7.625 C14.7865,-6.125 11.2708,-5.375 8.40625,-5.375 C6.0625,-5.375 4.04167,-6.125 2.34375,-7.625 C0.583333,-9.05208 -0.296875,-10.9375 -0.296875,-13.2813 C-0.296875,-15.3021 0.421875,-16.9948 1.85938,-18.3594 C3.28646,-19.7969 5.01042,-20.5156 7.03125,-20.5156"/>
<path class="Rest" transform="matrix(0.737008,0,0,0.737008,1322.99,491.811)" d="M7.03125,-20.5156 C8.91667,-20.5156 10.349,-19.9948 11.3281,-18.9531 C12.3073,-17.776 12.8281,-16.6667 12.8906,-15.625 C13.026,-14.6458 13.3542,-13.5417 13.875,-12.3125 C14.4583,-11.2708 15.2031,-10.75 16.1094,-10.75 C16.8281,-10.75 17.9063,-11.5625 19.3438,-13.1875 C20.6458,-14.6146 21.5885,-15.8854 22.1719,-17 C22.4948,-17.6458 22.9479,-17.9688 23.5313,-17.9688 L23.6406,-17.9688 C24.2865,-17.9063 24.7396,-17.5833 25,-17 L12.7031,25 C12.0469,25.6563 11.1328,25.9844 9.96094,25.9844 C8.78906,25.9844 7.88021,25.6563 7.23438,25 L18.9531,-7.625 C14.7865,-6.125 11.2708,-5.375 8.40625,-5.375 C6.0625,-5.375 4.04167,-6.125 2.34375,-7.625 C0.583333,-9.05208 -0.296875,-10.9375 -0.296875,-13.2813 C-0.296875,-15.3021 0.421875,-16.9948 1.85938,-18.3594 C3.28646,-19.7969 5.01042,-20.5156 7.03125,-20.5156"/>
<path class="Beam" fill-rule="evenodd" d="M2102.4,1136.77 L2245.28,1132.08 L2245.28,1141.3 L2102.4,1145.99 L2102.4,1136.77 "/>
<path class="Beam" fill-rule="evenodd" d="M2245.28,1145.9 L2220.96,1146.7 L2220.96,1155.92 L2245.28,1155.12 L2245.28,1145.9 "/>
<path class="Beam" fill-rule="evenodd" d="M1850.1,1247.19 L1967.71,1228.38 L1967.71,1237.71 L1850.1,1256.52 L1850.1,1247.19 "/>
<path class="Beam" fill-rule="evenodd" d="M1356.17,1237.99 L1536.28,1261.33 L1536.28,1270.62 L1356.17,1247.28 L1356.17,1237.99 "/>
<path class="Beam" fill-rule="evenodd" d="M708.316,1219.6 L890.958,1224.27 L890.958,1233.49 L708.316,1228.82 L708.316,1219.6 "/>
<path class="Beam" fill-rule="evenodd" d="M819.237,1208.62 L890.958,1210.45 L890.958,1219.67 L819.237,1217.84 L819.237,1208.62 "/>
<path class="Beam" fill-rule="evenodd" d="M486.473,1187.36 L599.79,1192.06 L599.79,1201.28 L486.473,1196.58 L486.473,1187.36 "/>
<path class="Beam" fill-rule="evenodd" d="M2556.66,795.827 L2757.55,795.827 L2757.55,805.039 L2556.66,805.039 L2556.66,795.827 "/>
<path class="Beam" fill-rule="evenodd" d="M1800.49,915.591 L2095.63,915.591 L2095.63,924.803 L1800.49,924.803 L1800.49,915.591 "/>
<path class="Beam" fill-rule="evenodd" d="M1303.11,892.559 L1476.38,892.559 L1476.38,901.772 L1303.11,901.772 L1303.11,892.559 "/>
<path class="Beam" fill-rule="evenodd" d="M681.524,869.528 L855.591,869.528 L855.591,878.74 L681.524,878.74 L681.524,869.528 "/>
<path class="Beam" fill-rule="evenodd" d="M787.168,855.709 L855.591,855.709 L855.591,864.921 L787.168,864.921 L787.168,855.709 "/>
<path class="Beam" fill-rule="evenodd" d="M470.236,860.311 L578.276,855.6 L578.276,864.821 L470.236,869.532 L470.236,860.311 "/>
<path class="Beam" fill-rule="evenodd" d="M2664.23,450.354 L2792.36,450.354 L2792.36,459.567 L2664.23,459.567 L2664.23,450.354 "/>
<path class="Beam" fill-rule="evenodd" d="M2792.36,464.173 L2768.04,464.173 L2768.04,473.386 L2792.36,473.386 L2792.36,464.173 "/>
<path class="Beam" fill-rule="evenodd" d="M1866.39,547.087 L2140.97,547.087 L2140.97,556.299 L1866.39,556.299 L1866.39,547.087 "/>
<path class="Beam" fill-rule="evenodd" d="M1424.37,431.621 L1585.81,450.323 L1585.81,459.598 L1424.37,440.895 L1424.37,431.621 "/>
<path class="Beam" fill-rule="evenodd" d="M856.537,519.443 L952.394,524.168 L952.394,533.391 L856.537,528.667 L856.537,519.443 "/>
<path class="Beam" fill-rule="evenodd" d="M684.158,542.477 L800.518,537.773 L800.518,546.994 L684.158,551.697 L684.158,542.477 "/>
<path class="Beam" fill-rule="evenodd" d="M800.518,523.955 L776.197,524.938 L776.197,534.158 L800.518,533.175 L800.518,523.955 "/>
<path class="Hook" transform="matrix(0.737008,0,0,0.737008,2561.11,448.051)" d="M0,25 L0,0 L3.125,0 C3.125,3.70833 3.84375,7.42188 5.28125,11.1406 C6.84375,15.1719 8.56771,18.6875 10.4531,21.6875 C11.8177,23.8333 13.8698,27.1198 16.6094,31.5469 C18.6927,34.9323 20.4505,38.4792 21.8828,42.1875 C23.3151,45.8958 24.0313,49.6094 24.0313,53.3281 C24.0313,60.099 22.6302,67 19.8281,74.0313 C19.3073,74.8125 18.6875,75.2031 17.9688,75.2031 C17.3229,75.2031 16.7396,74.9427 16.2188,74.4219 C15.8229,74.026 15.625,73.5365 15.625,72.9531 L15.625,72.4688 C18.4271,66.0208 19.8281,59.6406 19.8281,53.3281 C19.8281,50.0677 18.849,46.5521 16.8906,42.7813 C14.9427,38.9375 12.9583,35.875 10.9375,33.5938 C8.65625,30.9271 6.05208,28.0625 3.125,25 L0,25 "/>
<path class="Hook" transform="matrix(0.737008,0,0,0.737008,590.696,537.874)" d="M22.75,-72.3594 C24.25,-72.3594 25.849,-69.9219 27.5469,-65.0469 C29.1719,-60.224 29.9844,-55.6302 29.9844,-51.2656 C29.9844,-47.5573 29.0729,-43.8802 27.25,-40.2344 C25.3646,-36.3281 23.1198,-32.9427 20.5156,-30.0781 L12.5,-21.0938 C10.0313,-18.2292 7.81771,-14.9115 5.85938,-11.1406 C4.03646,-7.49479 3.125,-3.78125 3.125,0 L0,0 L0,-25 L3.125,-25 C4.88542,-26.1042 7.48958,-27.8646 10.9375,-30.2813 C12.5,-31.4479 14.8438,-33.401 17.9688,-36.1406 C20.5104,-38.4844 22.4323,-40.8906 23.7344,-43.3594 C25.099,-45.9635 25.7813,-48.599 25.7813,-51.2656 C25.7813,-57.4531 23.9896,-63.6094 20.4063,-69.7344 C20.4063,-69.7344 20.4063,-69.8646 20.4063,-70.125 C20.4063,-70.7083 20.6042,-71.1927 21,-71.5781 C21.5208,-72.099 22.1042,-72.3594 22.75,-72.3594"/>
<path class="Hook" transform="matrix(0.737008,0,0,0.737008,325.794,537.874)" d="M22.75,-72.3594 C24.25,-72.3594 25.849,-69.9219 27.5469,-65.0469 C29.1719,-60.224 29.9844,-55.6302 29.9844,-51.2656 C29.9844,-47.5573 29.0729,-43.8802 27.25,-40.2344 C25.3646,-36.3281 23.1198,-32.9427 20.5156,-30.0781 L12.5,-21.0938 C10.0313,-18.2292 7.81771,-14.9115 5.85938,-11.1406 C4.03646,-7.49479 3.125,-3.78125 3.125,0 L0,0 L0,-25 L3.125,-25 C4.88542,-26.1042 7.48958,-27.8646 10.9375,-30.2813 C12.5,-31.4479 14.8438,-33.401 17.9688,-36.1406 C20.5104,-38.4844 22.4323,-40.8906 23.7344,-43.3594 C25.099,-45.9635 25.7813,-48.599 25.7813,-51.2656 C25.7813,-57.4531 23.9896,-63.6094 20.4063,-69.7344 C20.4063,-69.7344 20.4063,-69.8646 20.4063,-70.125 C20.4063,-70.7083 20.6042,-71.1927 21,-71.5781 C21.5208,-72.099 22.1042,-72.3594 22.75,-72.3594"/>
<path class="NoteDot" transform="matrix(0.737008,0,0,0.737008,2111.24,1201.18)" d="M1.66406,4.00781 C0.554688,2.89844 0,1.5625 0,0 C0,-1.5625 0.554688,-2.89844 1.66406,-4.00781 C2.77344,-5.11719 4.10938,-5.67188 5.67188,-5.67188 C7.23438,-5.67188 8.56771,-5.11719 9.67188,-4.00781 C10.776,-2.89844 11.3281,-1.5625 11.3281,0 C11.3281,1.5625 10.776,2.89844 9.67188,4.00781 C8.56771,5.11719 7.23438,5.67188 5.67188,5.67188 C4.10938,5.67188 2.77344,5.11719 1.66406,4.00781"/>
<path class="NoteDot" transform="matrix(0.737008,0,0,0.737008,2673.07,501.024)" d="M1.66406,4.00781 C0.554688,2.89844 0,1.5625 0,0 C0,-1.5625 0.554688,-2.89844 1.66406,-4.00781 C2.77344,-5.11719 4.10938,-5.67188 5.67188,-5.67188 C7.23438,-5.67188 8.56771,-5.11719 9.67188,-4.00781 C10.776,-2.89844 11.3281,-1.5625 11.3281,0 C11.3281,1.5625 10.776,2.89844 9.67188,4.00781 C8.56771,5.11719 7.23438,5.67188 5.67188,5.67188 C4.10938,5.67188 2.77344,5.11719 1.66406,4.00781"/>
<path class="NoteDot" transform="matrix(0.737008,0,0,0.737008,714.865,482.598)" d="M1.66406,4.00781 C0.554688,2.89844 0,1.5625 0,0 C0,-1.5625 0.554688,-2.89844 1.66406,-4.00781 C2.77344,-5.11719 4.10938,-5.67188 5.67188,-5.67188 C7.23438,-5.67188 8.56771,-5.11719 9.67188,-4.00781 C10.776,-2.89844 11.3281,-1.5625 11.3281,0 C11.3281,1.5625 10.776,2.89844 9.67188,4.00781 C8.56771,5.11719 7.23438,5.67188 5.67188,5.67188 C4.10938,5.67188 2.77344,5.11719 1.66406,4.00781"/>
<path class="NoteDot" transform="matrix(0.737008,0,0,0.737008,472.39,464.173)" d="M1.66406,4.00781 C0.554688,2.89844 0,1.5625 0,0 C0,-1.5625 0.554688,-2.89844 1.66406,-4.00781 C2.77344,-5.11719 4.10938,-5.67188 5.67188,-5.67188 C7.23438,-5.67188 8.56771,-5.11719 9.67188,-4.00781 C10.776,-2.89844 11.3281,-1.5625 11.3281,0 C11.3281,1.5625 10.776,2.89844 9.67188,4.00781 C8.56771,5.11719 7.23438,5.67188 5.67188,5.67188 C4.10938,5.67188 2.77344,5.11719 1.66406,4.00781"/>
</svg>
