<?xml version="1.0" encoding="UTF-8" standalone="no"?>
<svg width="2977.2px" height="4208.4px" viewBox="0 0 2977.2 4208.4"
 xmlns="http://www.w3.org/2000/svg" xmlns:xlink="http://www.w3.org/1999/xlink" version="1.2" baseProfile="tiny">
<title>Sti tu mandro</title>
<desc>Generated by MuseScore 3.0.2</desc>
<polyline class="StaffLines" fill="none" stroke="#000000" stroke-width="2.00" stroke-linejoin="bevel" points="141.732,566.733 2835.47,566.733"/>
<polyline class="StaffLines" fill="none" stroke="#000000" stroke-width="2.00" stroke-linejoin="bevel" points="141.732,591.733 2835.47,591.733"/>
<polyline class="StaffLines" fill="none" stroke="#000000" stroke-width="2.00" stroke-linejoin="bevel" points="141.732,616.733 2835.47,616.733"/>
<polyline class="StaffLines" fill="none" stroke="#000000" stroke-width="2.00" stroke-linejoin="bevel" points="141.732,641.733 2835.47,641.733"/>
<polyline class="StaffLines" fill="none" stroke="#000000" stroke-width="2.00" stroke-linejoin="bevel" points="141.732,666.733 2835.47,666.733"/>
<polyline class="StaffLines" fill="none" stroke="#000000" stroke-width="2.00" stroke-linejoin="bevel" points="141.732,1041.73 2835.47,1041.73"/>
<polyline class="StaffLines" fill="none" stroke="#000000" stroke-width="2.00" stroke-linejoin="bevel" points="141.732,1066.73 2835.47,1066.73"/>
<polyline class="StaffLines" fill="none" stroke="#000000" stroke-width="2.00" stroke-linejoin="bevel" points="141.732,1091.73 2835.47,1091.73"/>
<polyline class="StaffLines" fill="none" stroke="#000000" stroke-width="2.00" stroke-linejoin="bevel" points="141.732,1116.73 2835.47,1116.73"/>
<polyline class="StaffLines" fill="none" stroke="#000000" stroke-width="2.00" stroke-linejoin="bevel" points="141.732,1141.73 2835.47,1141.73"/>
<path class="Text" d="M1099.79,286.982 C1099.79,282.284 1098.14,278.11 1094.84,274.459 C1091.54,270.808 1087.54,267.683 1082.84,265.084 C1078.14,262.485 1073.47,259.81 1068.82,257.06 C1064.17,254.31 1060.19,250.784 1056.89,246.482 C1053.59,242.18 1051.94,237.18 1051.94,231.482 C1051.94,223.889 1054.51,217.717 1059.66,212.967 C1064.81,208.217 1070.89,205.842 1077.89,205.842 C1082.09,205.842 1086.64,206.691 1091.54,208.389 C1096.44,210.086 1099.39,210.935 1100.39,210.935 C1102.99,210.935 1104.59,209.238 1105.19,205.842 L1108.34,205.842 L1111.64,237.779 L1107.89,237.779 C1105.49,228.988 1101.82,222.49 1096.87,218.287 C1091.91,214.084 1086.44,211.982 1080.44,211.982 C1075.84,211.982 1072.09,213.282 1069.19,215.881 C1066.29,218.48 1064.84,221.831 1064.84,225.935 C1064.84,229.935 1066.54,233.735 1069.94,237.334 C1073.34,240.933 1078.99,244.935 1086.89,249.342 C1096.78,254.633 1103.93,259.855 1108.33,265.006 C1112.73,270.157 1114.94,275.831 1114.94,282.029 C1114.94,289.727 1111.98,296.201 1106.08,301.451 C1100.18,306.701 1092.94,309.326 1084.34,309.326 C1079.34,309.326 1074.27,308.477 1069.12,306.779 C1063.96,305.081 1060.79,304.232 1059.59,304.232 C1058.49,304.232 1057.54,304.706 1056.74,305.654 C1055.94,306.602 1055.49,307.779 1055.39,309.185 L1052.09,309.185 L1047.59,277.389 L1051.04,277.389 C1054.74,286.482 1059.04,293.18 1063.94,297.482 C1068.84,301.784 1074.64,303.935 1081.34,303.935 C1086.84,303.935 1091.29,302.36 1094.69,299.209 C1098.09,296.058 1099.79,291.982 1099.79,286.982 M1160.94,239.732 L1160.94,244.232 L1145.79,244.232 L1145.79,287.139 C1145.79,291.836 1146.39,295.261 1147.59,297.412 C1148.79,299.563 1150.79,300.639 1153.59,300.639 C1156.7,300.639 1159.7,298.889 1162.59,295.389 L1164.54,297.029 C1159.74,304.831 1153.74,308.732 1146.54,308.732 C1137.64,308.732 1133.19,302.352 1133.19,289.592 L1133.19,244.232 L1125.25,244.232 C1124.84,243.951 1124.64,243.623 1124.64,243.248 C1124.64,242.779 1124.79,242.404 1125.09,242.123 C1125.39,241.842 1125.97,241.443 1126.82,240.928 C1127.67,240.412 1128.69,239.672 1129.89,238.709 C1131.09,237.745 1132.74,235.998 1134.84,233.467 C1136.95,230.935 1139.25,227.894 1141.75,224.342 C1143.34,222.008 1144.34,220.592 1144.75,220.092 C1145.45,220.092 1145.79,220.748 1145.79,222.06 L1145.79,239.732 L1160.94,239.732 M1173.39,248.279 C1171.19,248.279 1169.09,248.43 1167.09,248.732 L1167.09,246.482 C1174.09,244.482 1181.84,241.732 1190.34,238.232 L1190.94,238.685 L1190.94,291.935 C1190.94,297.331 1191.56,300.756 1192.81,302.209 C1194.06,303.662 1197.14,304.586 1202.04,304.982 L1202.04,307.232 L1166.5,307.232 L1166.5,304.982 C1171.7,304.68 1174.97,303.779 1176.32,302.279 C1177.67,300.779 1178.34,297.331 1178.34,291.935 L1178.34,257.139 C1178.34,253.836 1177.97,251.534 1177.22,250.232 C1176.47,248.93 1175.19,248.279 1173.39,248.279 M1183.29,204.779 C1185.49,204.779 1187.34,205.529 1188.84,207.029 C1190.34,208.529 1191.09,210.331 1191.09,212.435 C1191.09,214.633 1190.34,216.459 1188.84,217.912 C1187.34,219.365 1185.49,220.092 1183.29,220.092 C1181.19,220.092 1179.41,219.342 1177.97,217.842 C1176.52,216.342 1175.79,214.54 1175.79,212.435 C1175.79,210.331 1176.54,208.529 1178.04,207.029 C1179.54,205.529 1181.29,204.779 1183.29,204.779 M1215.39,248.279 C1213.19,248.279 1211.09,248.43 1209.09,248.732 L1209.09,246.482 C1216.09,244.482 1223.84,241.732 1232.34,238.232 L1232.94,238.685 L1232.94,291.935 C1232.94,297.331 1233.56,300.756 1234.81,302.209 C1236.06,303.662 1239.14,304.586 1244.04,304.982 L1244.04,307.232 L1208.5,307.232 L1208.5,304.982 C1213.7,304.68 1216.97,303.779 1218.32,302.279 C1219.67,300.779 1220.34,297.331 1220.34,291.935 L1220.34,257.139 C1220.34,253.836 1219.97,251.534 1219.22,250.232 C1218.47,248.93 1217.19,248.279 1215.39,248.279 M1225.29,204.779 C1227.49,204.779 1229.34,205.529 1230.84,207.029 C1232.34,208.529 1233.09,210.331 1233.09,212.435 C1233.09,214.633 1232.34,216.459 1230.84,217.912 C1229.34,219.365 1227.49,220.092 1225.29,220.092 C1223.19,220.092 1221.41,219.342 1219.97,217.842 C1218.52,216.342 1217.79,214.54 1217.79,212.435 C1217.79,210.331 1218.54,208.529 1220.04,207.029 C1221.54,205.529 1223.29,204.779 1225.29,204.779 M1324.94,239.732 L1324.94,244.232 L1309.79,244.232 L1309.79,287.139 C1309.79,291.836 1310.39,295.261 1311.59,297.412 C1312.79,299.563 1314.79,300.639 1317.59,300.639 C1320.7,300.639 1323.7,298.889 1326.59,295.389 L1328.54,297.029 C1323.74,304.831 1317.74,308.732 1310.54,308.732 C1301.64,308.732 1297.19,302.352 1297.19,289.592 L1297.19,244.232 L1289.25,244.232 C1288.84,243.951 1288.64,243.623 1288.64,243.248 C1288.64,242.779 1288.79,242.404 1289.09,242.123 C1289.39,241.842 1289.97,241.443 1290.82,240.928 C1291.67,240.412 1292.69,239.672 1293.89,238.709 C1295.09,237.745 1296.74,235.998 1298.84,233.467 C1300.95,230.935 1303.25,227.894 1305.75,224.342 C1307.34,222.008 1308.34,220.592 1308.75,220.092 C1309.45,220.092 1309.79,220.748 1309.79,222.06 L1309.79,239.732 L1324.94,239.732 M1400.09,299.435 L1400.09,301.529 C1392.29,303.727 1385.44,306.076 1379.54,308.576 L1378.94,308.279 L1378.94,295.56 C1378.63,295.852 1377.76,296.745 1376.31,298.24 C1374.86,299.735 1373.84,300.769 1373.24,301.342 C1372.64,301.915 1371.62,302.797 1370.16,303.99 C1368.71,305.183 1367.43,306.037 1366.33,306.553 C1365.23,307.068 1363.84,307.56 1362.14,308.029 C1360.44,308.498 1358.74,308.732 1357.04,308.732 C1351.54,308.732 1347.14,306.935 1343.84,303.342 C1340.54,299.748 1338.89,294.961 1338.89,288.982 L1338.89,251.389 C1338.89,247.899 1338.24,245.485 1336.94,244.146 C1335.65,242.808 1333.2,242.04 1329.59,241.842 L1329.59,239.732 L1351.5,239.732 L1351.5,288.389 C1351.5,291.472 1352.55,294.133 1354.65,296.373 C1356.75,298.613 1359.24,299.732 1362.14,299.732 C1363.24,299.732 1364.54,299.584 1366.04,299.287 C1367.54,298.99 1369.27,298.417 1371.22,297.568 C1373.16,296.719 1374.81,295.376 1376.16,293.537 C1377.51,291.698 1378.19,289.435 1378.19,286.748 L1378.19,251.685 C1378.19,248.008 1377.51,245.571 1376.16,244.373 C1374.81,243.175 1371.79,242.477 1367.09,242.279 L1367.09,239.732 L1390.79,239.732 L1390.79,290.92 C1390.79,294.409 1391.34,296.701 1392.44,297.795 C1393.54,298.889 1395.84,299.435 1399.34,299.435 L1400.09,299.435 M1423.39,307.529 C1423.39,307.529 1422.99,307.628 1422.19,307.826 C1421.29,308.034 1420.34,308.139 1419.34,308.139 C1416.64,308.139 1414.5,307.461 1412.9,306.107 C1411.3,304.753 1410.5,302.878 1410.5,300.482 C1410.5,297.982 1411.32,295.933 1412.97,294.334 C1414.61,292.735 1416.74,291.935 1419.34,291.935 C1422.74,291.935 1425.59,293.209 1427.89,295.756 C1430.19,298.303 1431.34,301.477 1431.34,305.279 C1431.34,309.779 1429.79,314.131 1426.69,318.334 C1423.59,322.537 1419.54,325.889 1414.54,328.389 L1413.19,325.529 C1421.39,319.935 1425.5,314.639 1425.5,309.639 C1425.5,308.232 1424.79,307.529 1423.39,307.529 M1480.04,247.842 L1480.04,245.279 C1487.24,243.196 1494.24,240.847 1501.04,238.232 L1502.09,238.545 L1502.09,250.076 C1508.29,245.253 1512.89,242.073 1515.89,240.537 C1518.89,239.001 1522.04,238.232 1525.34,238.232 C1533.24,238.232 1538.53,242.529 1541.23,251.123 C1549.03,242.529 1557.19,238.232 1565.69,238.232 C1577.29,238.232 1583.09,247.201 1583.09,265.139 L1583.09,295.873 C1583.09,301.446 1585.24,304.383 1589.54,304.685 L1593.44,304.982 L1593.44,307.232 L1560.59,307.232 L1560.59,304.982 C1564.99,304.482 1567.73,303.636 1568.83,302.443 C1569.93,301.251 1570.48,298.514 1570.48,294.232 L1570.48,262.748 C1570.48,256.581 1569.68,252.305 1568.08,249.92 C1566.48,247.534 1563.53,246.342 1559.23,246.342 C1552.64,246.342 1547.19,249.378 1542.89,255.451 L1542.89,293.045 C1542.89,297.722 1543.61,300.855 1545.06,302.443 C1546.51,304.032 1549.38,304.878 1553.69,304.982 L1553.69,307.232 L1520.09,307.232 L1520.09,304.982 C1524.39,304.68 1527.17,303.883 1528.42,302.592 C1529.67,301.3 1530.29,298.566 1530.29,294.389 L1530.29,261.998 C1530.29,251.56 1526.99,246.342 1520.39,246.342 C1517.59,246.342 1514.46,247.037 1511.01,248.428 C1507.57,249.818 1504.79,252.06 1502.69,255.154 L1502.69,297.217 C1502.69,300.102 1503.39,302.068 1504.79,303.115 C1506.19,304.162 1508.89,304.784 1512.89,304.982 L1512.89,307.232 L1479.59,307.232 L1479.59,304.982 C1483.79,304.878 1486.59,304.131 1487.99,302.74 C1489.39,301.35 1490.09,298.613 1490.09,294.529 L1490.09,256.779 C1490.09,253.206 1489.72,250.722 1488.97,249.326 C1488.22,247.93 1486.84,247.232 1484.84,247.232 C1483.34,247.232 1481.74,247.435 1480.04,247.842 M1598.84,292.42 C1598.84,290.628 1599.04,288.961 1599.44,287.42 C1599.84,285.878 1600.54,284.435 1601.54,283.092 C1602.54,281.748 1603.5,280.529 1604.4,279.435 C1605.3,278.342 1606.65,277.222 1608.44,276.076 C1610.24,274.93 1611.74,273.985 1612.94,273.24 C1614.15,272.495 1615.97,271.602 1618.42,270.56 C1620.87,269.519 1622.74,268.725 1624.04,268.178 C1625.35,267.631 1627.4,266.81 1630.19,265.717 C1632.99,264.623 1635.04,263.826 1636.34,263.326 L1636.34,254.217 C1636.34,245.967 1632.54,241.842 1624.94,241.842 C1621.94,241.842 1619.39,242.566 1617.29,244.014 C1615.19,245.461 1614.14,247.185 1614.14,249.185 C1614.14,249.988 1614.26,251.089 1614.51,252.49 C1614.76,253.891 1614.89,254.79 1614.89,255.185 C1614.89,256.883 1614.21,258.357 1612.87,259.607 C1611.52,260.857 1609.94,261.482 1608.14,261.482 C1606.44,261.482 1604.94,260.834 1603.64,259.537 C1602.34,258.24 1601.69,256.738 1601.69,255.029 C1601.69,250.331 1604.11,246.357 1608.97,243.107 C1613.82,239.857 1619.79,238.232 1626.89,238.232 C1635.09,238.232 1640.73,240.198 1643.83,244.131 C1646.93,248.063 1648.48,254.06 1648.48,262.123 L1648.48,291.232 C1648.48,294.514 1648.81,296.777 1649.46,298.021 C1650.11,299.266 1651.28,299.889 1652.98,299.889 C1655.09,299.889 1657.29,298.941 1659.59,297.045 L1659.59,300.982 C1656.99,303.982 1654.71,306.024 1652.76,307.107 C1650.82,308.191 1648.59,308.732 1646.09,308.732 C1642.99,308.732 1640.71,307.86 1639.26,306.115 C1637.82,304.37 1636.89,301.498 1636.48,297.498 C1627.89,304.988 1620.59,308.732 1614.59,308.732 C1609.99,308.732 1606.21,307.209 1603.26,304.162 C1600.32,301.115 1598.84,297.201 1598.84,292.42 M1636.34,288.545 L1636.34,266.904 C1627.34,270.185 1621.04,273.368 1617.44,276.451 C1613.84,279.534 1612.04,283.269 1612.04,287.654 C1612.04,291.727 1613.04,294.758 1615.04,296.748 C1617.04,298.738 1619.2,299.732 1621.5,299.732 C1624.89,299.732 1628.54,298.586 1632.44,296.295 C1634.04,295.399 1635.09,294.454 1635.59,293.459 C1636.09,292.464 1636.34,290.826 1636.34,288.545 M1661.59,247.389 L1661.59,244.842 C1668.99,242.685 1675.89,240.482 1682.29,238.232 L1683.34,238.529 L1683.34,250.248 C1688.45,245.498 1692.47,242.308 1695.42,240.678 C1698.37,239.047 1701.59,238.232 1705.09,238.232 C1710.59,238.232 1714.92,240.198 1718.07,244.131 C1721.22,248.063 1722.79,253.56 1722.79,260.623 L1722.79,295.06 C1722.79,298.769 1723.39,301.248 1724.59,302.498 C1725.79,303.748 1728.24,304.576 1731.94,304.982 L1731.94,307.232 L1700.73,307.232 L1700.73,304.982 C1704.53,304.68 1707.06,303.678 1708.31,301.975 C1709.56,300.271 1710.19,297.066 1710.19,292.357 L1710.19,260.92 C1710.19,251.201 1706.53,246.342 1699.23,246.342 C1696.74,246.342 1694.45,246.917 1692.34,248.068 C1690.24,249.219 1687.39,251.498 1683.79,254.904 L1683.79,297.154 C1683.79,299.863 1684.5,301.769 1685.9,302.873 C1687.3,303.977 1689.89,304.68 1693.69,304.982 L1693.69,307.232 L1661.89,307.232 L1661.89,304.982 C1665.69,304.68 1668.19,303.803 1669.39,302.35 C1670.59,300.896 1671.19,298.014 1671.19,293.701 L1671.19,256.404 C1671.19,252.696 1670.79,250.165 1669.99,248.81 C1669.19,247.456 1667.74,246.779 1665.64,246.779 C1663.74,246.779 1662.39,246.982 1661.59,247.389 M1784.39,308.732 L1783.79,308.264 L1783.79,298.404 C1778.99,305.29 1772.59,308.732 1764.59,308.732 C1756.29,308.732 1749.59,305.753 1744.49,299.795 C1739.39,293.836 1736.84,286.05 1736.84,276.435 C1736.84,265.852 1739.89,256.839 1745.99,249.396 C1752.09,241.954 1759.44,238.232 1768.04,238.232 C1773.44,238.232 1778.69,240.477 1783.79,244.967 L1783.79,221.357 C1783.79,218.222 1783.34,216.152 1782.44,215.146 C1781.54,214.141 1779.69,213.639 1776.89,213.639 C1775.49,213.639 1774.39,213.685 1773.59,213.779 L1773.59,211.389 C1782.69,208.982 1790.03,206.779 1795.64,204.779 L1796.39,205.092 L1796.39,289.889 C1796.39,293.378 1796.81,295.67 1797.66,296.764 C1798.51,297.857 1800.28,298.404 1802.98,298.404 C1803.48,298.404 1804.63,298.357 1806.44,298.264 L1806.44,300.639 L1784.39,308.732 M1770.44,300.639 C1774.24,300.639 1777.41,299.573 1779.97,297.443 C1782.52,295.313 1783.79,293.404 1783.79,291.717 L1783.79,257.576 C1783.79,253.618 1782.24,250.154 1779.14,247.185 C1776.03,244.217 1772.49,242.732 1768.5,242.732 C1762.79,242.732 1758.24,245.256 1754.84,250.303 C1751.45,255.35 1749.75,262.081 1749.75,270.498 C1749.75,279.602 1751.65,286.902 1755.44,292.396 C1759.24,297.891 1764.24,300.639 1770.44,300.639 M1853.23,252.935 C1851.73,252.935 1849.88,252.06 1847.69,250.31 C1845.49,248.56 1844.04,247.685 1843.34,247.685 C1841.34,247.685 1839.09,249.136 1836.59,252.037 C1834.09,254.938 1832.84,257.586 1832.84,259.982 L1832.84,293.732 C1832.84,298.034 1833.69,300.935 1835.39,302.435 C1837.09,303.935 1840.49,304.784 1845.59,304.982 L1845.59,307.232 L1809.59,307.232 L1809.59,304.982 C1814.39,304.086 1817.37,303.086 1818.52,301.982 C1819.67,300.878 1820.25,298.43 1820.25,294.639 L1820.25,257.139 C1820.25,253.836 1819.87,251.511 1819.12,250.162 C1818.37,248.813 1817.04,248.139 1815.14,248.139 C1813.54,248.139 1811.79,248.336 1809.89,248.732 L1809.89,246.342 C1817.89,243.738 1825.29,241.034 1832.09,238.232 L1832.84,238.529 L1832.84,252.342 C1836.54,247.04 1839.69,243.363 1842.29,241.31 C1844.89,239.258 1847.74,238.232 1850.84,238.232 C1853.44,238.232 1855.46,238.933 1856.91,240.334 C1858.37,241.735 1859.09,243.685 1859.09,246.185 C1859.09,248.29 1858.57,249.941 1857.51,251.139 C1856.46,252.336 1855.03,252.935 1853.23,252.935 M1897,238.232 C1906.59,238.232 1914.49,241.433 1920.69,247.834 C1926.88,254.235 1929.98,262.342 1929.98,272.154 C1929.98,282.55 1926.78,291.245 1920.39,298.24 C1913.99,305.235 1906.09,308.732 1896.69,308.732 C1887.29,308.732 1879.47,305.357 1873.22,298.607 C1866.97,291.857 1863.84,283.435 1863.84,273.342 C1863.84,263.04 1866.92,254.613 1873.07,248.06 C1879.22,241.508 1887.2,238.232 1897,238.232 M1877.34,266.06 C1877.34,276.654 1879.29,285.665 1883.19,293.092 C1887.09,300.519 1892.2,304.232 1898.5,304.232 C1904.09,304.232 1908.49,301.855 1911.69,297.1 C1914.88,292.344 1916.48,285.758 1916.48,277.342 C1916.48,267.144 1914.48,258.826 1910.48,252.389 C1906.48,245.951 1901.34,242.732 1895.04,242.732 C1889.74,242.732 1885.47,244.863 1882.22,249.123 C1878.97,253.383 1877.34,259.029 1877.34,266.06"/>
<path class="MeasureNumber" d="M146.513,983.952 C146.513,982.535 146.198,981.282 145.568,980.194 C144.938,979.105 144.178,978.261 143.287,977.662 C142.396,977.064 141.399,976.571 140.295,976.186 C139.191,975.8 138.23,975.548 137.412,975.428 C136.594,975.308 135.883,975.248 135.279,975.248 C134.956,975.248 134.795,975.139 134.795,974.92 C134.795,974.847 134.805,974.78 134.826,974.717 L139.185,965.264 L147.545,965.264 C147.972,965.264 148.313,965.196 148.568,965.061 C148.823,964.925 149.097,964.644 149.388,964.217 L149.748,964.498 L148.232,968.061 C148.128,968.3 147.821,968.42 147.31,968.42 L139.467,968.42 L137.795,971.811 C141.68,972.498 144.571,973.621 146.467,975.178 C148.362,976.735 149.31,979.019 149.31,982.03 C149.31,983.603 149.063,985.004 148.568,986.233 C148.073,987.462 147.446,988.452 146.685,989.202 C145.925,989.952 145.045,990.566 144.045,991.045 C143.045,991.524 142.086,991.853 141.17,992.03 C140.253,992.207 139.326,992.295 138.388,992.295 C136.899,992.295 135.714,992.074 134.834,991.631 C133.954,991.189 133.513,990.582 133.513,989.811 C133.513,988.821 134.086,988.327 135.232,988.327 C135.982,988.327 136.948,988.735 138.131,989.553 C139.313,990.371 140.253,990.78 140.951,990.78 C142.524,990.78 143.844,990.121 144.912,988.803 C145.98,987.485 146.513,985.868 146.513,983.952"/>
<path class="SlurSegment" stroke="#000000" stroke-width="1.75" stroke-linecap="round" stroke-linejoin="round" fill-rule="evenodd" d="M1241.71,1069.23 C1245.09,1057.24 1265.63,1049.74 1275.94,1056.73 C1266.31,1051.62 1245.78,1059.12 1241.71,1069.23"/>
<path class="SlurSegment" stroke="#000000" stroke-width="1.75" stroke-linecap="round" stroke-linejoin="round" fill-rule="evenodd" d="M2505.98,581.733 C2509.35,569.736 2529.89,562.236 2540.2,569.233 C2530.58,564.115 2510.04,571.615 2505.98,581.733"/>
<path class="SlurSegment" stroke="#000000" stroke-width="1.75" stroke-linecap="round" stroke-linejoin="round" fill-rule="evenodd" d="M1267.47,569.233 C1270.84,557.236 1291.38,549.736 1301.69,556.733 C1292.06,551.615 1271.53,559.115 1267.47,569.233"/>
<polyline class="BarLine" stroke="#000000" stroke-width="4.00" stroke-linejoin="bevel" points="2812.97,1040.73 2812.97,1142.73"/>
<polyline class="BarLine" stroke="#000000" stroke-width="12.50" stroke-linejoin="bevel" points="2829.22,1040.73 2829.22,1142.73"/>
<polyline class="BarLine" stroke="#000000" stroke-width="4.00" stroke-linejoin="bevel" points="2214.1,1040.73 2214.1,1142.73"/>
<polyline class="BarLine" stroke="#000000" stroke-width="4.00" stroke-linejoin="bevel" points="1578.78,1040.73 1578.78,1142.73"/>
<polyline class="BarLine" stroke="#000000" stroke-width="4.00" stroke-linejoin="bevel" points="939.033,1040.73 939.033,1142.73"/>
<polyline class="BarLine" stroke="#000000" stroke-width="4.00" stroke-linejoin="bevel" points="2833.47,565.733 2833.47,667.733"/>
<polyline class="BarLine" stroke="#000000" stroke-width="4.00" stroke-linejoin="bevel" points="2212,565.733 2212,667.733"/>
<polyline class="BarLine" stroke="#000000" stroke-width="4.00" stroke-linejoin="bevel" points="1594.96,565.733 1594.96,667.733"/>
<polyline class="BarLine" stroke="#000000" stroke-width="4.00" stroke-linejoin="bevel" points="973.489,565.733 973.489,667.733"/>
<polyline class="StemSlash" stroke="#000000" stroke-width="3.25" stroke-linejoin="bevel" points="1250.68,1132.98 1218.42,1112.98"/>
<polyline class="StemSlash" stroke="#000000" stroke-width="3.25" stroke-linejoin="bevel" points="2514.95,645.483 2482.69,625.483"/>
<polyline class="StemSlash" stroke="#000000" stroke-width="3.25" stroke-linejoin="bevel" points="1276.43,632.983 1244.18,612.983"/>
<polyline class="Stem" stroke="#000000" stroke-width="3.25" stroke-linecap="round" stroke-linejoin="bevel" points="2547.28,1112.89 2547.28,1032.36"/>
<polyline class="Stem" stroke="#000000" stroke-width="3.25" stroke-linecap="round" stroke-linejoin="bevel" points="2411.88,1112.04 2411.88,1041.73"/>
<polyline class="Stem" stroke="#000000" stroke-width="3.25" stroke-linecap="round" stroke-linejoin="bevel" points="2277.39,1112.04 2277.39,1041.73"/>
<polyline class="Stem" stroke="#000000" stroke-width="3.25" stroke-linecap="round" stroke-linejoin="bevel" points="2058.37,1149.54 2058.37,1066.73"/>
<polyline class="Stem" stroke="#000000" stroke-width="3.25" stroke-linecap="round" stroke-linejoin="bevel" points="1873.34,1124.54 1873.34,1041.73"/>
<polyline class="Stem" stroke="#000000" stroke-width="3.25" stroke-linecap="round" stroke-linejoin="bevel" points="1757.71,1112.04 1757.71,1041.73"/>
<polyline class="Stem" stroke="#000000" stroke-width="3.25" stroke-linecap="round" stroke-linejoin="bevel" points="1642.07,1099.54 1642.07,1035.48"/>
<polyline class="Stem" stroke="#000000" stroke-width="2.28" stroke-linecap="round" stroke-linejoin="bevel" points="1230.92,1095.02 1230.92,1152.98"/>
<polyline class="Stem" stroke="#000000" stroke-width="3.25" stroke-linecap="round" stroke-linejoin="bevel" points="1260.21,1083.15 1260.21,1160.48"/>
<polyline class="Stem" stroke="#000000" stroke-width="3.25" stroke-linecap="round" stroke-linejoin="bevel" points="1146.55,1099.54 1146.55,1035.48"/>
<polyline class="Stem" stroke="#000000" stroke-width="3.25" stroke-linecap="round" stroke-linejoin="bevel" points="1002.32,1099.54 1002.32,1035.48"/>
<polyline class="Stem" stroke="#000000" stroke-width="3.25" stroke-linecap="round" stroke-linejoin="bevel" points="753.635,1096.43 753.635,1169.86"/>
<polyline class="Stem" stroke="#000000" stroke-width="3.25" stroke-linecap="round" stroke-linejoin="bevel" points="598.276,1112.04 598.276,1032.36"/>
<polyline class="Stem" stroke="#000000" stroke-width="3.25" stroke-linecap="round" stroke-linejoin="bevel" points="482.637,1112.04 482.637,1041.73"/>
<polyline class="Stem" stroke="#000000" stroke-width="3.25" stroke-linecap="round" stroke-linejoin="bevel" points="366.998,1112.04 366.998,1041.73"/>
<polyline class="Stem" stroke="#000000" stroke-width="2.28" stroke-linecap="round" stroke-linejoin="bevel" points="2495.18,607.519 2495.18,665.483"/>
<polyline class="Stem" stroke="#000000" stroke-width="3.25" stroke-linecap="round" stroke-linejoin="bevel" points="2524.47,595.653 2524.47,676.108"/>
<polyline class="Stem" stroke="#000000" stroke-width="3.25" stroke-linecap="round" stroke-linejoin="bevel" points="2385.5,621.428 2385.5,691.733"/>
<polyline class="Stem" stroke="#000000" stroke-width="3.25" stroke-linecap="round" stroke-linejoin="bevel" points="2245.63,621.428 2245.63,691.733"/>
<polyline class="Stem" stroke="#000000" stroke-width="3.25" stroke-linecap="round" stroke-linejoin="bevel" points="2032.23,608.928 2032.23,685.483"/>
<polyline class="Stem" stroke="#000000" stroke-width="3.25" stroke-linecap="round" stroke-linejoin="bevel" points="1882.49,624.537 1882.49,547.983"/>
<polyline class="Stem" stroke="#000000" stroke-width="3.25" stroke-linecap="round" stroke-linejoin="bevel" points="1770.37,624.537 1770.37,560.483"/>
<polyline class="Stem" stroke="#000000" stroke-width="3.25" stroke-linecap="round" stroke-linejoin="bevel" points="1658.24,624.537 1658.24,560.483"/>
<polyline class="Stem" stroke="#000000" stroke-width="2.28" stroke-linecap="round" stroke-linejoin="bevel" points="1256.67,595.019 1256.67,652.983"/>
<polyline class="Stem" stroke="#000000" stroke-width="3.25" stroke-linecap="round" stroke-linejoin="bevel" points="1285.96,583.153 1285.96,666.733"/>
<polyline class="Stem" stroke="#000000" stroke-width="3.25" stroke-linecap="round" stroke-linejoin="bevel" points="1146.99,608.928 1146.99,672.983"/>
<polyline class="Stem" stroke="#000000" stroke-width="3.25" stroke-linecap="round" stroke-linejoin="bevel" points="1007.11,608.928 1007.11,672.983"/>
<polyline class="Stem" stroke="#000000" stroke-width="3.25" stroke-linecap="round" stroke-linejoin="bevel" points="793.715,596.428 793.715,676.108"/>
<polyline class="Stem" stroke="#000000" stroke-width="3.25" stroke-linecap="round" stroke-linejoin="bevel" points="614.317,621.428 614.317,694.858"/>
<polyline class="Stem" stroke="#000000" stroke-width="3.25" stroke-linecap="round" stroke-linejoin="bevel" points="502.193,621.428 502.193,691.733"/>
<polyline class="Stem" stroke="#000000" stroke-width="3.25" stroke-linecap="round" stroke-linejoin="bevel" points="390.068,621.428 390.068,691.733"/>
<path class="Note" d="M2545.73,1110.19 C2545.73,1109.08 2545.31,1108.14 2544.46,1107.36 C2543.61,1106.51 2542.63,1106.09 2541.53,1106.09 C2539.58,1106.09 2535.64,1108.05 2529.71,1111.95 C2523.59,1115.92 2519.84,1118.75 2518.48,1120.45 C2517.76,1121.36 2517.4,1122.3 2517.4,1123.28 C2517.4,1124.38 2517.83,1125.33 2518.68,1126.11 C2519.46,1126.95 2520.44,1127.37 2521.6,1127.37 C2523.49,1127.37 2527.46,1125.42 2533.53,1121.51 C2539.52,1117.61 2543.22,1114.77 2544.65,1113.01 C2545.37,1112.17 2545.73,1111.23 2545.73,1110.19 M2540.56,1102.97 C2546.15,1102.97 2548.95,1105.37 2548.95,1110.19 C2548.95,1112.53 2548.27,1115.26 2546.9,1118.39 C2545.54,1121.45 2543.71,1123.8 2541.43,1125.42 C2536.42,1128.81 2530.14,1130.5 2522.59,1130.5 C2516.98,1130.5 2514.18,1128.09 2514.18,1123.28 C2514.18,1121.13 2514.87,1118.43 2516.23,1115.17 C2517.53,1112.05 2519.35,1109.67 2521.7,1108.05 C2526.72,1104.66 2533.01,1102.97 2540.56,1102.97"/>
<path class="Note" d="M2402.56,1102.97 C2405.69,1102.97 2408.33,1103.78 2410.48,1105.4 C2412.49,1107.17 2413.5,1109.38 2413.5,1112.05 C2413.5,1116.53 2411.19,1120.73 2406.58,1124.64 C2401.89,1128.55 2396.87,1130.5 2391.53,1130.5 C2388.41,1130.5 2385.77,1129.69 2383.62,1128.06 C2381.6,1126.3 2380.59,1124.09 2380.59,1121.42 C2380.59,1116.93 2382.94,1112.73 2387.62,1108.83 C2392.19,1104.92 2397.17,1102.97 2402.56,1102.97"/>
<path class="Note" d="M2268.07,1102.97 C2271.19,1102.97 2273.84,1103.78 2275.99,1105.4 C2278,1107.17 2279.01,1109.38 2279.01,1112.05 C2279.01,1116.53 2276.7,1120.73 2272.09,1124.64 C2267.4,1128.55 2262.38,1130.5 2257.04,1130.5 C2253.91,1130.5 2251.28,1129.69 2249.13,1128.06 C2247.11,1126.3 2246.1,1124.09 2246.1,1121.42 C2246.1,1116.93 2248.44,1112.73 2253.13,1108.83 C2257.69,1104.92 2262.67,1102.97 2268.07,1102.97"/>
<path class="Note" d="M2049.05,1140.47 C2052.17,1140.47 2054.81,1141.28 2056.97,1142.9 C2058.98,1144.67 2059.98,1146.88 2059.98,1149.55 C2059.98,1154.03 2057.68,1158.23 2053.06,1162.14 C2048.38,1166.05 2043.36,1168 2038.02,1168 C2034.89,1168 2032.26,1167.19 2030.11,1165.56 C2028.09,1163.8 2027.08,1161.59 2027.08,1158.92 C2027.08,1154.43 2029.42,1150.23 2034.11,1146.33 C2038.67,1142.42 2043.65,1140.47 2049.05,1140.47"/>
<path class="Note" d="M1864.02,1115.47 C1867.15,1115.47 1869.79,1116.28 1871.95,1117.9 C1873.96,1119.67 1874.96,1121.88 1874.96,1124.55 C1874.96,1129.03 1872.65,1133.23 1868.04,1137.14 C1863.35,1141.05 1858.34,1143 1852.99,1143 C1849.87,1143 1847.23,1142.19 1845.09,1140.56 C1843.07,1138.8 1842.06,1136.59 1842.06,1133.92 C1842.06,1129.43 1844.4,1125.23 1849.09,1121.33 C1853.65,1117.42 1858.63,1115.47 1864.02,1115.47"/>
<path class="Note" d="M1748.39,1102.97 C1751.51,1102.97 1754.15,1103.78 1756.31,1105.4 C1758.32,1107.17 1759.32,1109.38 1759.32,1112.05 C1759.32,1116.53 1757.02,1120.73 1752.4,1124.64 C1747.71,1128.55 1742.7,1130.5 1737.35,1130.5 C1734.23,1130.5 1731.59,1129.69 1729.45,1128.06 C1727.43,1126.3 1726.42,1124.09 1726.42,1121.42 C1726.42,1116.93 1728.76,1112.73 1733.45,1108.83 C1738.01,1104.92 1742.99,1102.97 1748.39,1102.97"/>
<path class="Note" d="M1632.75,1090.47 C1635.87,1090.47 1638.51,1091.28 1640.67,1092.9 C1642.68,1094.67 1643.68,1096.88 1643.68,1099.55 C1643.68,1104.03 1641.38,1108.23 1636.76,1112.14 C1632.07,1116.05 1627.06,1118 1621.71,1118 C1618.59,1118 1615.95,1117.19 1613.81,1115.56 C1611.79,1113.8 1610.78,1111.59 1610.78,1108.92 C1610.78,1104.43 1613.12,1100.23 1617.81,1096.33 C1622.37,1092.42 1627.35,1090.47 1632.75,1090.47"/>
<path class="Note" transform="matrix(0.7,0,0,0.7,1229.29,1091.73)" d="M21.9688,-13.7656 C25.0938,-13.7656 27.7344,-12.9531 29.8906,-11.3281 C31.901,-9.56771 32.9063,-7.35417 32.9063,-4.6875 C32.9063,-0.197917 30.599,4 25.9844,7.90625 C21.2969,11.8125 16.2813,13.7656 10.9375,13.7656 C7.8125,13.7656 5.17708,12.9531 3.03125,11.3281 C1.01042,9.56771 0,7.35417 0,4.6875 C0,0.197917 2.34375,-4 7.03125,-7.90625 C11.5938,-11.8125 16.5729,-13.7656 21.9688,-13.7656"/>
<path class="Note" d="M1290.13,1072.69 C1290.13,1071.58 1289.71,1070.64 1288.86,1069.86 C1288.01,1069.01 1287.03,1068.59 1285.92,1068.59 C1283.98,1068.59 1280.04,1070.55 1274.11,1074.45 C1267.99,1078.42 1264.24,1081.25 1262.88,1082.95 C1262.16,1083.86 1261.8,1084.8 1261.8,1085.78 C1261.8,1086.88 1262.23,1087.83 1263.08,1088.61 C1263.86,1089.45 1264.84,1089.87 1266,1089.87 C1267.89,1089.87 1271.86,1087.92 1277.92,1084.01 C1283.91,1080.11 1287.62,1077.27 1289.05,1075.51 C1289.77,1074.67 1290.13,1073.73 1290.13,1072.69 M1284.96,1065.47 C1290.55,1065.47 1293.35,1067.87 1293.35,1072.69 C1293.35,1075.03 1292.66,1077.76 1291.3,1080.89 C1289.93,1083.95 1288.11,1086.3 1285.83,1087.92 C1280.82,1091.31 1274.54,1093 1266.99,1093 C1261.38,1093 1258.58,1090.59 1258.58,1085.78 C1258.58,1083.63 1259.26,1080.93 1260.63,1077.67 C1261.93,1074.55 1263.75,1072.17 1266.1,1070.55 C1271.12,1067.16 1277.4,1065.47 1284.96,1065.47"/>
<path class="Note" d="M1137.23,1090.47 C1140.35,1090.47 1142.99,1091.28 1145.15,1092.9 C1147.16,1094.67 1148.16,1096.88 1148.16,1099.55 C1148.16,1104.03 1145.86,1108.23 1141.24,1112.14 C1136.55,1116.05 1131.54,1118 1126.2,1118 C1123.07,1118 1120.43,1117.19 1118.29,1115.56 C1116.27,1113.8 1115.26,1111.59 1115.26,1108.92 C1115.26,1104.43 1117.6,1100.23 1122.29,1096.33 C1126.85,1092.42 1131.83,1090.47 1137.23,1090.47"/>
<path class="Note" d="M993.001,1090.47 C996.126,1090.47 998.767,1091.28 1000.92,1092.9 C1002.93,1094.67 1003.94,1096.88 1003.94,1099.55 C1003.94,1104.03 1001.63,1108.23 997.017,1112.14 C992.33,1116.05 987.314,1118 981.97,1118 C978.845,1118 976.21,1117.19 974.064,1115.56 C972.043,1113.8 971.033,1111.59 971.033,1108.92 C971.033,1104.43 973.376,1100.23 978.064,1096.33 C982.626,1092.42 987.606,1090.47 993.001,1090.47"/>
<path class="Note" d="M773.979,1077.97 C777.104,1077.97 779.744,1078.78 781.901,1080.4 C783.911,1082.17 784.916,1084.38 784.916,1087.05 C784.916,1091.53 782.609,1095.73 777.994,1099.64 C773.307,1103.55 768.291,1105.5 762.947,1105.5 C759.822,1105.5 757.187,1104.69 755.041,1103.06 C753.02,1101.3 752.01,1099.09 752.01,1096.42 C752.01,1091.93 754.354,1087.73 759.041,1083.83 C763.604,1079.92 768.583,1077.97 773.979,1077.97"/>
<path class="Note" d="M588.956,1102.97 C592.081,1102.97 594.722,1103.78 596.878,1105.4 C598.888,1107.17 599.894,1109.38 599.894,1112.05 C599.894,1116.53 597.586,1120.73 592.972,1124.64 C588.284,1128.55 583.269,1130.5 577.925,1130.5 C574.8,1130.5 572.164,1129.69 570.019,1128.06 C567.998,1126.3 566.987,1124.09 566.987,1121.42 C566.987,1116.93 569.331,1112.73 574.019,1108.83 C578.581,1104.92 583.56,1102.97 588.956,1102.97"/>
<path class="Note" d="M473.317,1102.97 C476.442,1102.97 479.082,1103.78 481.239,1105.4 C483.249,1107.17 484.254,1109.38 484.254,1112.05 C484.254,1116.53 481.947,1120.73 477.332,1124.64 C472.645,1128.55 467.629,1130.5 462.286,1130.5 C459.161,1130.5 456.525,1129.69 454.379,1128.06 C452.359,1126.3 451.348,1124.09 451.348,1121.42 C451.348,1116.93 453.692,1112.73 458.379,1108.83 C462.942,1104.92 467.921,1102.97 473.317,1102.97"/>
<path class="Note" d="M357.678,1102.97 C360.803,1102.97 363.443,1103.78 365.6,1105.4 C367.61,1107.17 368.615,1109.38 368.615,1112.05 C368.615,1116.53 366.308,1120.73 361.693,1124.64 C357.006,1128.55 351.99,1130.5 346.646,1130.5 C343.521,1130.5 340.886,1129.69 338.74,1128.06 C336.719,1126.3 335.709,1124.09 335.709,1121.42 C335.709,1116.93 338.053,1112.73 342.74,1108.83 C347.303,1104.92 352.282,1102.97 357.678,1102.97"/>
<path class="Note" transform="matrix(0.7,0,0,0.7,2493.55,604.233)" d="M21.9688,-13.7656 C25.0938,-13.7656 27.7344,-12.9531 29.8906,-11.3281 C31.901,-9.56771 32.9063,-7.35417 32.9063,-4.6875 C32.9063,-0.197917 30.599,4 25.9844,7.90625 C21.2969,11.8125 16.2813,13.7656 10.9375,13.7656 C7.8125,13.7656 5.17708,12.9531 3.03125,11.3281 C1.01042,9.56771 0,7.35417 0,4.6875 C0,0.197917 2.34375,-4 7.03125,-7.90625 C11.5938,-11.8125 16.5729,-13.7656 21.9688,-13.7656"/>
<path class="Note" d="M2554.39,585.186 C2554.39,584.081 2553.97,583.139 2553.13,582.358 C2552.27,581.514 2551.29,581.092 2550.19,581.092 C2548.24,581.092 2544.3,583.045 2538.38,586.951 C2532.25,590.92 2528.51,593.753 2527.14,595.451 C2526.42,596.358 2526.06,597.3 2526.06,598.279 C2526.06,599.384 2526.49,600.326 2527.34,601.108 C2528.13,601.951 2529.1,602.373 2530.27,602.373 C2532.15,602.373 2536.13,600.42 2542.19,596.514 C2548.18,592.608 2551.89,589.774 2553.31,588.014 C2554.03,587.17 2554.39,586.227 2554.39,585.186 M2549.22,577.967 C2554.81,577.967 2557.61,580.373 2557.61,585.186 C2557.61,587.529 2556.93,590.264 2555.56,593.389 C2554.2,596.451 2552.38,598.795 2550.09,600.42 C2545.08,603.805 2538.8,605.498 2531.25,605.498 C2525.65,605.498 2522.84,603.092 2522.84,598.279 C2522.84,596.134 2523.53,593.43 2524.89,590.17 C2526.19,587.045 2528.02,584.67 2530.36,583.045 C2535.38,579.66 2541.67,577.967 2549.22,577.967"/>
<path class="Note" d="M2405.84,602.967 C2408.97,602.967 2411.61,603.779 2413.76,605.404 C2415.78,607.165 2416.78,609.378 2416.78,612.045 C2416.78,616.535 2414.47,620.733 2409.86,624.639 C2405.17,628.545 2400.16,630.498 2394.81,630.498 C2391.69,630.498 2389.05,629.686 2386.91,628.061 C2384.88,626.3 2383.87,624.087 2383.87,621.42 C2383.87,616.93 2386.22,612.733 2390.91,608.826 C2395.47,604.92 2400.45,602.967 2405.84,602.967"/>
<path class="Note" d="M2265.97,602.967 C2269.09,602.967 2271.74,603.779 2273.89,605.404 C2275.9,607.165 2276.91,609.378 2276.91,612.045 C2276.91,616.535 2274.6,620.733 2269.99,624.639 C2265.3,628.545 2260.28,630.498 2254.94,630.498 C2251.81,630.498 2249.18,629.686 2247.03,628.061 C2245.01,626.3 2244,624.087 2244,621.42 C2244,616.93 2246.34,612.733 2251.03,608.826 C2255.59,604.92 2260.57,602.967 2265.97,602.967"/>
<path class="Note" d="M2052.57,590.467 C2055.7,590.467 2058.34,591.279 2060.49,592.904 C2062.5,594.665 2063.51,596.878 2063.51,599.545 C2063.51,604.035 2061.2,608.233 2056.59,612.139 C2051.9,616.045 2046.88,617.998 2041.54,617.998 C2038.42,617.998 2035.78,617.186 2033.63,615.561 C2031.61,613.8 2030.6,611.587 2030.6,608.92 C2030.6,604.43 2032.95,600.233 2037.63,596.326 C2042.2,592.42 2047.18,590.467 2052.57,590.467"/>
<path class="Note" d="M1873.17,615.467 C1876.3,615.467 1878.94,616.279 1881.09,617.904 C1883.1,619.665 1884.11,621.878 1884.11,624.545 C1884.11,629.035 1881.8,633.233 1877.19,637.139 C1872.5,641.045 1867.49,642.998 1862.14,642.998 C1859.02,642.998 1856.38,642.186 1854.24,640.561 C1852.21,638.8 1851.2,636.587 1851.2,633.92 C1851.2,629.43 1853.55,625.233 1858.24,621.326 C1862.8,617.42 1867.78,615.467 1873.17,615.467"/>
<path class="Note" d="M1761.05,615.467 C1764.17,615.467 1766.81,616.279 1768.97,617.904 C1770.98,619.665 1771.99,621.878 1771.99,624.545 C1771.99,629.035 1769.68,633.233 1765.06,637.139 C1760.38,641.045 1755.36,642.998 1750.02,642.998 C1746.89,642.998 1744.26,642.186 1742.11,640.561 C1740.09,638.8 1739.08,636.587 1739.08,633.92 C1739.08,629.43 1741.42,625.233 1746.11,621.326 C1750.67,617.42 1755.65,615.467 1761.05,615.467"/>
<path class="Note" d="M1648.92,615.467 C1652.05,615.467 1654.69,616.279 1656.85,617.904 C1658.86,619.665 1659.86,621.878 1659.86,624.545 C1659.86,629.035 1657.55,633.233 1652.94,637.139 C1648.25,641.045 1643.24,642.998 1637.89,642.998 C1634.77,642.998 1632.13,642.186 1629.99,640.561 C1627.97,638.8 1626.96,636.587 1626.96,633.92 C1626.96,629.43 1629.3,625.233 1633.99,621.326 C1638.55,617.42 1643.53,615.467 1648.92,615.467"/>
<path class="Note" transform="matrix(0.7,0,0,0.7,1255.04,591.733)" d="M21.9688,-13.7656 C25.0938,-13.7656 27.7344,-12.9531 29.8906,-11.3281 C31.901,-9.56771 32.9063,-7.35417 32.9063,-4.6875 C32.9063,-0.197917 30.599,4 25.9844,7.90625 C21.2969,11.8125 16.2813,13.7656 10.9375,13.7656 C7.8125,13.7656 5.17708,12.9531 3.03125,11.3281 C1.01042,9.56771 0,7.35417 0,4.6875 C0,0.197917 2.34375,-4 7.03125,-7.90625 C11.5938,-11.8125 16.5729,-13.7656 21.9688,-13.7656"/>
<path class="Note" d="M1315.88,572.686 C1315.88,571.581 1315.46,570.639 1314.61,569.858 C1313.76,569.014 1312.78,568.592 1311.68,568.592 C1309.73,568.592 1305.79,570.545 1299.86,574.451 C1293.74,578.42 1289.99,581.253 1288.63,582.951 C1287.91,583.858 1287.55,584.8 1287.55,585.779 C1287.55,586.884 1287.98,587.826 1288.83,588.608 C1289.61,589.451 1290.59,589.873 1291.75,589.873 C1293.64,589.873 1297.61,587.92 1303.68,584.014 C1309.67,580.108 1313.37,577.274 1314.8,575.514 C1315.52,574.67 1315.88,573.727 1315.88,572.686 M1310.71,565.467 C1316.3,565.467 1319.1,567.873 1319.1,572.686 C1319.1,575.029 1318.42,577.764 1317.05,580.889 C1315.69,583.951 1313.86,586.295 1311.58,587.92 C1306.57,591.305 1300.29,592.998 1292.74,592.998 C1287.13,592.998 1284.33,590.592 1284.33,585.779 C1284.33,583.634 1285.01,580.93 1286.38,577.67 C1287.68,574.545 1289.5,572.17 1291.85,570.545 C1296.87,567.16 1303.16,565.467 1310.71,565.467"/>
<path class="Note" d="M1167.33,590.467 C1170.46,590.467 1173.1,591.279 1175.25,592.904 C1177.26,594.665 1178.27,596.878 1178.27,599.545 C1178.27,604.035 1175.96,608.233 1171.35,612.139 C1166.66,616.045 1161.64,617.998 1156.3,617.998 C1153.17,617.998 1150.54,617.186 1148.39,615.561 C1146.37,613.8 1145.36,611.587 1145.36,608.92 C1145.36,604.43 1147.71,600.233 1152.39,596.326 C1156.96,592.42 1161.93,590.467 1167.33,590.467"/>
<path class="Note" d="M1027.46,590.467 C1030.58,590.467 1033.22,591.279 1035.38,592.904 C1037.39,594.665 1038.4,596.878 1038.4,599.545 C1038.4,604.035 1036.09,608.233 1031.47,612.139 C1026.79,616.045 1021.77,617.998 1016.43,617.998 C1013.3,617.998 1010.67,617.186 1008.52,615.561 C1006.5,613.8 1005.49,611.587 1005.49,608.92 C1005.49,604.43 1007.83,600.233 1012.52,596.326 C1017.08,592.42 1022.06,590.467 1027.46,590.467"/>
<path class="Note" d="M814.059,577.967 C817.184,577.967 819.825,578.779 821.981,580.404 C823.991,582.165 824.997,584.378 824.997,587.045 C824.997,591.535 822.689,595.733 818.075,599.639 C813.387,603.545 808.372,605.498 803.028,605.498 C799.903,605.498 797.267,604.686 795.122,603.061 C793.101,601.3 792.09,599.087 792.09,596.42 C792.09,591.93 794.434,587.733 799.122,583.826 C803.684,579.92 808.663,577.967 814.059,577.967"/>
<path class="Note" d="M634.66,602.967 C637.785,602.967 640.426,603.779 642.582,605.404 C644.593,607.165 645.598,609.378 645.598,612.045 C645.598,616.535 643.291,620.733 638.676,624.639 C633.989,628.545 628.973,630.498 623.629,630.498 C620.504,630.498 617.869,629.686 615.723,628.061 C613.702,626.3 612.692,624.087 612.692,621.42 C612.692,616.93 615.035,612.733 619.723,608.826 C624.285,604.92 629.265,602.967 634.66,602.967"/>
<path class="Note" d="M522.536,602.967 C525.661,602.967 528.302,603.779 530.458,605.404 C532.469,607.165 533.474,609.378 533.474,612.045 C533.474,616.535 531.166,620.733 526.552,624.639 C521.864,628.545 516.849,630.498 511.505,630.498 C508.38,630.498 505.745,629.686 503.599,628.061 C501.578,626.3 500.568,624.087 500.568,621.42 C500.568,616.93 502.911,612.733 507.599,608.826 C512.161,604.92 517.14,602.967 522.536,602.967"/>
<path class="Note" d="M410.412,602.967 C413.537,602.967 416.178,603.779 418.334,605.404 C420.344,607.165 421.35,609.378 421.35,612.045 C421.35,616.535 419.042,620.733 414.428,624.639 C409.74,628.545 404.725,630.498 399.381,630.498 C396.256,630.498 393.62,629.686 391.475,628.061 C389.454,626.3 388.443,624.087 388.443,621.42 C388.443,616.93 390.787,612.733 395.475,608.826 C400.037,604.92 405.016,602.967 410.412,602.967"/>
<path class="Clef" d="M196.607,980.014 C198.295,978.191 199.139,976.498 199.139,974.936 C199.014,973.571 198.43,972.53 197.389,971.811 C196.211,971.03 194.842,970.639 193.279,970.639 C192.175,970.639 191.264,970.998 190.545,971.717 C189.899,972.363 189.576,973.176 189.576,974.155 C189.576,975.321 190.06,976.202 191.029,976.795 L196.607,980.014 M198.17,980.889 C200.899,982.389 202.264,984.41 202.264,986.952 C202.264,986.952 202.264,987.045 202.264,987.233 C202.264,989.254 201.451,990.946 199.826,992.311 C198.201,993.748 195.889,994.467 192.889,994.467 C190.42,994.467 188.274,993.816 186.451,992.514 C184.628,991.275 183.717,989.582 183.717,987.436 C183.717,986.592 183.941,985.811 184.389,985.092 C184.909,984.248 185.336,983.66 185.67,983.327 C185.732,983.264 185.878,983.118 186.107,982.889 C186.336,982.66 186.563,982.433 186.787,982.209 C187.011,981.985 187.253,981.743 187.514,981.483 C185.503,980.108 184.498,978.316 184.498,976.108 C184.498,974.347 185.279,972.785 186.842,971.42 C188.467,970.118 190.612,969.467 193.279,969.467 C195.498,969.467 197.389,969.954 198.951,970.928 C200.514,971.902 201.295,973.238 201.295,974.936 C201.295,976.696 200.253,978.681 198.17,980.889 M188.982,982.358 C187.034,984.118 185.993,985.811 185.857,987.436 C185.857,989.123 186.573,990.522 188.006,991.631 C189.438,992.741 191.066,993.295 192.889,993.295 C194.191,993.295 195.232,992.873 196.014,992.03 C196.795,991.248 197.185,990.301 197.185,989.186 C197.123,987.759 196.54,986.717 195.435,986.061 L188.982,982.358 M194.451,1091.14 C194.451,1091.14 194.649,1091.14 195.045,1091.14 C195.305,1091.08 195.529,1091.05 195.717,1091.05 C203.008,1091.05 208.998,1093.62 213.685,1098.76 C218.373,1103.84 220.717,1109.76 220.717,1116.53 C220.717,1124.94 217.237,1131.77 210.279,1137.05 C208.456,1138.48 206.076,1139.65 203.139,1140.56 C203.472,1144.79 203.639,1148.21 203.639,1150.81 C203.639,1151.33 203.571,1153.22 203.435,1156.48 C203.175,1162.53 201.092,1167.77 197.185,1172.2 C193.415,1176.57 188.727,1178.75 183.123,1178.75 C177.852,1178.75 173.362,1176.89 169.654,1173.19 C165.935,1169.4 164.076,1164.85 164.076,1159.51 C164.076,1156.71 165.154,1154.33 167.31,1152.37 C169.519,1150.43 172.086,1149.45 175.014,1149.45 C177.618,1149.45 179.8,1150.46 181.56,1152.48 C183.383,1154.37 184.295,1156.71 184.295,1159.51 C184.295,1162.05 183.383,1164.22 181.56,1166.05 C179.737,1167.87 177.555,1168.78 175.014,1168.78 C173.972,1168.78 172.967,1168.59 171.998,1168.2 C174.862,1172.43 178.67,1174.55 183.42,1174.55 C187.909,1174.55 191.586,1172.72 194.451,1169.08 C197.451,1165.31 199.081,1160.91 199.342,1155.89 C199.467,1152.76 199.529,1150.98 199.529,1150.53 C199.529,1146.88 199.399,1143.89 199.139,1141.55 C195.889,1142.07 192.993,1142.33 190.451,1142.33 C181.399,1142.33 173.685,1138.74 167.31,1131.58 C161.06,1124.35 157.935,1115.75 157.935,1105.8 C157.935,1103.71 158.128,1101.6 158.514,1099.45 C158.909,1097.69 159.399,1095.77 159.982,1093.69 C160.305,1092.51 161.185,1090.62 162.623,1088.01 C163.144,1087.23 163.73,1086.26 164.381,1085.08 C165.032,1083.91 165.487,1083.13 165.748,1082.75 C166.394,1081.45 167.659,1079.69 169.545,1077.47 C170.066,1076.88 170.605,1076.24 171.162,1075.52 C171.719,1074.81 172.193,1074.22 172.584,1073.76 C172.974,1073.31 173.266,1072.95 173.459,1072.69 C173.652,1072.43 175.118,1070.7 177.857,1067.51 C178.503,1066.86 179.136,1066.16 179.756,1065.41 C180.375,1064.67 180.881,1064.08 181.271,1063.65 C181.662,1063.23 181.956,1062.92 182.154,1062.73 C179.81,1054.98 178.342,1048.8 177.748,1044.17 C177.3,1040.46 177.076,1035.38 177.076,1028.94 C177.076,1023.27 178.378,1017.96 180.982,1013.01 C183.514,1007.88 187.06,1003.68 191.623,1000.42 C191.883,1000.22 192.206,1000.12 192.592,1000.12 C193.05,1000.12 193.378,1000.22 193.576,1000.42 C197.086,1004.65 200.112,1010.15 202.654,1016.92 C205.258,1023.69 206.56,1029.85 206.56,1035.39 C206.56,1041.64 205.066,1047.5 202.076,1052.97 C198.691,1058.76 194.326,1064.75 188.982,1070.94 C190.347,1075.23 192.17,1081.96 194.451,1091.14 M202.748,1136.56 C206.133,1135.32 208.774,1133.21 210.67,1130.22 C212.753,1127.35 213.795,1124.13 213.795,1120.55 C213.795,1115.92 212.232,1111.82 209.107,1108.23 C205.909,1104.52 201.836,1102.44 196.889,1101.98 C199.691,1115.72 201.644,1127.25 202.748,1136.56 M164.967,1114 C164.967,1120.45 167.571,1126.11 172.779,1131 C178.112,1135.75 184.102,1138.12 190.748,1138.12 C193.477,1138.12 196.144,1137.93 198.748,1137.53 C197.706,1127.63 195.654,1115.78 192.592,1101.98 C188.883,1102.38 185.925,1103.68 183.717,1105.89 C181.56,1108.17 180.482,1110.74 180.482,1113.61 C180.482,1118.56 183.123,1122.56 188.404,1125.62 C188.852,1126.08 189.076,1126.57 189.076,1127.09 C189.076,1127.61 188.852,1128.1 188.404,1128.55 C188.008,1129 187.519,1129.23 186.935,1129.23 C186.873,1129.23 186.581,1129.17 186.06,1129.05 C182.342,1127.02 179.477,1124.42 177.467,1121.23 C175.571,1117.84 174.623,1114.42 174.623,1110.97 C174.623,1106.48 176.024,1102.41 178.826,1098.76 C181.753,1095.12 185.56,1092.77 190.248,1091.73 C188.425,1084.44 186.93,1078.74 185.764,1074.64 C184.722,1075.82 183.469,1077.23 182.006,1078.89 C180.542,1080.55 179.68,1081.54 179.42,1081.87 C177.076,1084.93 175.284,1087.3 174.045,1089 C171.826,1092.06 170.196,1094.7 169.154,1096.9 C168.05,1099.38 167.076,1102.09 166.232,1105.01 C165.389,1107.82 164.967,1110.81 164.967,1114 M197.576,1014.69 C192.691,1017.09 188.852,1020.54 186.06,1025.03 C183.196,1029.65 181.764,1034.63 181.764,1039.97 C181.764,1044.65 182.935,1050.97 185.279,1058.92 C189.967,1053.25 193.482,1048.01 195.826,1043.2 C198.295,1038.12 199.529,1032.81 199.529,1027.28 C199.529,1023.11 198.878,1018.92 197.576,1014.69"/>
<path class="Clef" d="M196.607,505.014 C198.295,503.191 199.139,501.498 199.139,499.936 C199.014,498.571 198.43,497.529 197.389,496.811 C196.211,496.029 194.842,495.639 193.279,495.639 C192.175,495.639 191.264,495.998 190.545,496.717 C189.899,497.363 189.576,498.175 189.576,499.154 C189.576,500.321 190.06,501.201 191.029,501.795 L196.607,505.014 M198.17,505.889 C200.899,507.389 202.264,509.41 202.264,511.951 C202.264,511.951 202.264,512.045 202.264,512.233 C202.264,514.253 201.451,515.946 199.826,517.311 C198.201,518.748 195.889,519.467 192.889,519.467 C190.42,519.467 188.274,518.816 186.451,517.514 C184.628,516.274 183.717,514.582 183.717,512.436 C183.717,511.592 183.941,510.811 184.389,510.092 C184.909,509.248 185.336,508.66 185.67,508.326 C185.732,508.264 185.878,508.118 186.107,507.889 C186.336,507.66 186.563,507.433 186.787,507.209 C187.011,506.985 187.253,506.743 187.514,506.483 C185.503,505.108 184.498,503.316 184.498,501.108 C184.498,499.347 185.279,497.785 186.842,496.42 C188.467,495.118 190.612,494.467 193.279,494.467 C195.498,494.467 197.389,494.954 198.951,495.928 C200.514,496.902 201.295,498.238 201.295,499.936 C201.295,501.696 200.253,503.68 198.17,505.889 M188.982,507.358 C187.034,509.118 185.993,510.811 185.857,512.436 C185.857,514.123 186.573,515.522 188.006,516.631 C189.438,517.74 191.066,518.295 192.889,518.295 C194.191,518.295 195.232,517.873 196.014,517.029 C196.795,516.248 197.185,515.3 197.185,514.186 C197.123,512.759 196.54,511.717 195.435,511.061 L188.982,507.358 M194.451,616.139 C194.451,616.139 194.649,616.139 195.045,616.139 C195.305,616.076 195.529,616.045 195.717,616.045 C203.008,616.045 208.998,618.618 213.685,623.764 C218.373,628.837 220.717,634.759 220.717,641.529 C220.717,649.936 217.237,656.774 210.279,662.045 C208.456,663.483 206.076,664.654 203.139,665.561 C203.472,669.79 203.639,673.207 203.639,675.811 C203.639,676.332 203.571,678.222 203.435,681.483 C203.175,687.535 201.092,692.774 197.185,697.201 C193.415,701.566 188.727,703.748 183.123,703.748 C177.852,703.748 173.362,701.894 169.654,698.186 C165.935,694.404 164.076,689.847 164.076,684.514 C164.076,681.712 165.154,679.332 167.31,677.373 C169.519,675.425 172.086,674.451 175.014,674.451 C177.618,674.451 179.8,675.462 181.56,677.483 C183.383,679.368 184.295,681.712 184.295,684.514 C184.295,687.045 183.383,689.222 181.56,691.045 C179.737,692.868 177.555,693.779 175.014,693.779 C173.972,693.779 172.967,693.587 171.998,693.201 C174.862,697.43 178.67,699.545 183.42,699.545 C187.909,699.545 191.586,697.722 194.451,694.076 C197.451,690.305 199.081,685.91 199.342,680.889 C199.467,677.764 199.529,675.977 199.529,675.529 C199.529,671.884 199.399,668.889 199.139,666.545 C195.889,667.066 192.993,667.326 190.451,667.326 C181.399,667.326 173.685,663.743 167.31,656.576 C161.06,649.347 157.935,640.753 157.935,630.795 C157.935,628.712 158.128,626.597 158.514,624.451 C158.909,622.691 159.399,620.769 159.982,618.686 C160.305,617.509 161.185,615.618 162.623,613.014 C163.144,612.233 163.73,611.256 164.381,610.084 C165.032,608.912 165.487,608.134 165.748,607.748 C166.394,606.446 167.659,604.686 169.545,602.467 C170.066,601.884 170.605,601.235 171.162,600.522 C171.719,599.808 172.193,599.222 172.584,598.764 C172.974,598.305 173.266,597.946 173.459,597.686 C173.652,597.425 175.118,595.701 177.857,592.514 C178.503,591.858 179.136,591.157 179.756,590.412 C180.375,589.667 180.881,589.082 181.271,588.654 C181.662,588.227 181.956,587.92 182.154,587.733 C179.81,579.983 178.342,573.795 177.748,569.17 C177.3,565.462 177.076,560.384 177.076,553.936 C177.076,548.269 178.378,542.962 180.982,538.014 C183.514,532.878 187.06,528.68 191.623,525.42 C191.883,525.222 192.206,525.123 192.592,525.123 C193.05,525.123 193.378,525.222 193.576,525.42 C197.086,529.649 200.112,535.149 202.654,541.92 C205.258,548.691 206.56,554.847 206.56,560.389 C206.56,566.639 205.066,572.498 202.076,577.967 C198.691,583.759 194.326,589.748 188.982,595.936 C190.347,600.227 192.17,606.962 194.451,616.139 M202.748,661.561 C206.133,660.321 208.774,658.207 210.67,655.217 C212.753,652.352 213.795,649.128 213.795,645.545 C213.795,640.92 212.232,636.816 209.107,633.233 C205.909,629.524 201.836,627.441 196.889,626.983 C199.691,640.722 201.644,652.248 202.748,661.561 M164.967,638.998 C164.967,645.446 167.571,651.113 172.779,655.998 C178.112,660.748 184.102,663.123 190.748,663.123 C193.477,663.123 196.144,662.925 198.748,662.529 C197.706,652.634 195.654,640.785 192.592,626.983 C188.883,627.378 185.925,628.68 183.717,630.889 C181.56,633.17 180.482,635.743 180.482,638.608 C180.482,643.555 183.123,647.561 188.404,650.623 C188.852,651.082 189.076,651.571 189.076,652.092 C189.076,652.613 188.852,653.097 188.404,653.545 C188.008,654.003 187.519,654.233 186.935,654.233 C186.873,654.233 186.581,654.17 186.06,654.045 C182.342,652.024 179.477,649.42 177.467,646.233 C175.571,642.837 174.623,639.415 174.623,635.967 C174.623,631.477 176.024,627.41 178.826,623.764 C181.753,620.118 185.56,617.774 190.248,616.733 C188.425,609.441 186.93,603.743 185.764,599.639 C184.722,600.816 183.469,602.233 182.006,603.889 C180.542,605.545 179.68,606.54 179.42,606.873 C177.076,609.925 175.284,612.3 174.045,613.998 C171.826,617.061 170.196,619.696 169.154,621.904 C168.05,624.384 167.076,627.087 166.232,630.014 C165.389,632.816 164.967,635.811 164.967,638.998 M197.576,539.686 C192.691,542.092 188.852,545.54 186.06,550.029 C183.196,554.654 181.764,559.634 181.764,564.967 C181.764,569.654 182.935,575.972 185.279,583.92 C189.967,578.253 193.482,573.014 195.826,568.201 C198.295,563.118 199.529,557.811 199.529,552.279 C199.529,548.113 198.878,543.915 197.576,539.686"/>
<path class="KeySig" d="M267.248,1072.89 C267.248,1074.13 266.631,1074.75 265.396,1074.75 C264.162,1074.75 263.545,1074.13 263.545,1072.89 L263.545,1058.44 L255.248,1061.56 L255.248,1077.37 C255.248,1078.61 254.628,1079.23 253.389,1079.23 C252.149,1079.23 251.529,1078.61 251.529,1077.37 L251.529,1062.83 L248.404,1064 C248.342,1064.06 248.081,1064.09 247.623,1064.09 C247.102,1064.09 246.646,1063.9 246.256,1063.51 C245.865,1063.12 245.67,1062.66 245.67,1062.14 L245.67,1056.09 C245.67,1055.11 246.092,1054.49 246.935,1054.23 L251.529,1052.67 L251.529,1036.65 L248.404,1037.73 C248.342,1037.8 248.081,1037.83 247.623,1037.83 C247.102,1037.83 246.646,1037.63 246.256,1037.24 C245.865,1036.85 245.67,1036.39 245.67,1035.87 L245.67,1029.81 C245.67,1028.9 246.092,1028.32 246.935,1028.06 L251.529,1026.3 L251.529,1010.58 C251.529,1009.34 252.149,1008.72 253.389,1008.72 C254.628,1008.72 255.248,1009.34 255.248,1010.58 L255.248,1025.03 L263.545,1021.9 L263.545,1006.09 C263.545,1004.85 264.162,1004.23 265.396,1004.23 C266.631,1004.23 267.248,1004.85 267.248,1006.09 L267.248,1020.64 L270.482,1019.47 C270.545,1019.4 270.769,1019.37 271.154,1019.37 C271.613,1019.37 272.102,1019.57 272.623,1019.95 C273.019,1020.35 273.217,1020.81 273.217,1021.33 L273.217,1027.37 C273.217,1028.29 272.758,1028.91 271.842,1029.23 L267.248,1030.8 L267.248,1046.81 L270.482,1045.73 C270.545,1045.67 270.769,1045.64 271.154,1045.64 C271.613,1045.64 272.102,1045.84 272.623,1046.23 C273.019,1046.62 273.217,1047.07 273.217,1047.59 L273.217,1053.65 C273.217,1054.5 272.758,1055.08 271.842,1055.4 L267.248,1057.17 L267.248,1072.89 M263.545,1032.26 L255.248,1035.19 L255.248,1051.2 L263.545,1048.28 L263.545,1032.26 "/>
<path class="KeySig" d="M267.248,597.889 C267.248,599.128 266.631,599.748 265.396,599.748 C264.162,599.748 263.545,599.128 263.545,597.889 L263.545,583.436 L255.248,586.561 L255.248,602.373 C255.248,603.613 254.628,604.233 253.389,604.233 C252.149,604.233 251.529,603.613 251.529,602.373 L251.529,587.826 L248.404,588.998 C248.342,589.061 248.081,589.092 247.623,589.092 C247.102,589.092 246.646,588.897 246.256,588.506 C245.865,588.115 245.67,587.66 245.67,587.139 L245.67,581.092 C245.67,580.113 246.092,579.493 246.935,579.233 L251.529,577.67 L251.529,561.654 L248.404,562.733 C248.342,562.795 248.081,562.826 247.623,562.826 C247.102,562.826 246.646,562.631 246.256,562.24 C245.865,561.85 245.67,561.394 245.67,560.873 L245.67,554.811 C245.67,553.904 246.092,553.321 246.935,553.061 L251.529,551.295 L251.529,535.576 C251.529,534.337 252.149,533.717 253.389,533.717 C254.628,533.717 255.248,534.337 255.248,535.576 L255.248,550.029 L263.545,546.904 L263.545,531.092 C263.545,529.852 264.162,529.233 265.396,529.233 C266.631,529.233 267.248,529.852 267.248,531.092 L267.248,545.639 L270.482,544.467 C270.545,544.404 270.769,544.373 271.154,544.373 C271.613,544.373 272.102,544.566 272.623,544.951 C273.019,545.347 273.217,545.805 273.217,546.326 L273.217,552.373 C273.217,553.29 272.758,553.91 271.842,554.233 L267.248,555.795 L267.248,571.811 L270.482,570.733 C270.545,570.67 270.769,570.639 271.154,570.639 C271.613,570.639 272.102,570.837 272.623,571.233 C273.019,571.618 273.217,572.071 273.217,572.592 L273.217,578.654 C273.217,579.498 272.758,580.081 271.842,580.404 L267.248,582.17 L267.248,597.889 M263.545,557.264 L255.248,560.186 L255.248,576.201 L263.545,573.279 L263.545,557.264 "/>
<path class="TimeSig" d="M328.225,590.264 C328.225,590.92 328.584,591.54 329.303,592.123 C330.344,592.904 331.157,593.493 331.74,593.889 C332.521,594.337 333.339,595.378 334.193,597.014 C334.902,598.576 335.256,600.493 335.256,602.764 C335.256,607.264 333.6,610.717 330.287,613.123 C326.902,615.529 322.605,616.733 317.396,616.733 C313.157,616.733 309.573,615.691 306.646,613.608 C303.521,611.66 301.959,608.925 301.959,605.404 C301.959,603.717 302.61,602.154 303.912,600.717 C305.277,599.477 306.839,598.858 308.6,598.858 C310.422,598.858 311.922,599.509 313.1,600.811 C314.402,602.05 315.053,603.581 315.053,605.404 C315.053,606.248 314.402,607.16 313.1,608.139 C311.725,609.055 311.037,609.936 311.037,610.779 C311.037,612.019 311.657,612.93 312.896,613.514 C314.136,614.097 315.636,614.389 317.396,614.389 C319.667,614.389 321.292,613.285 322.271,611.076 C323.188,608.66 323.646,605.889 323.646,602.764 L323.646,601.108 C323.646,599.222 323.579,597.561 323.443,596.123 C323.318,595.019 322.865,594.014 322.084,593.108 C321.365,592.191 320.225,591.733 318.662,591.733 L310.646,591.733 C309.74,591.733 309.287,591.243 309.287,590.264 C309.287,589.42 309.74,588.93 310.646,588.795 L318.662,588.795 C320.485,588.795 321.787,588.212 322.568,587.045 C323.214,586.128 323.573,584.498 323.646,582.154 L323.646,578.936 L323.646,578.154 C323.646,572.102 321.433,569.076 317.006,569.076 C313.1,569.076 311.11,570.149 311.037,572.295 C311.037,573.014 311.657,573.795 312.896,574.639 C314.073,575.483 314.662,576.264 314.662,576.983 C314.662,578.608 314.073,580.009 312.896,581.186 C311.792,582.29 310.428,582.842 308.803,582.842 C307.24,582.842 305.902,582.29 304.787,581.186 C303.683,579.946 303.131,578.545 303.131,576.983 C303.131,573.92 304.501,571.415 307.24,569.467 C310.105,567.644 313.36,566.733 317.006,566.733 C321.881,566.733 325.917,567.675 329.115,569.561 C332.303,571.384 333.896,574.248 333.896,578.154 C333.896,580.956 333.605,583.071 333.021,584.498 C332.428,585.998 331.777,586.91 331.068,587.233 C330.287,587.566 329.636,587.956 329.115,588.404 C328.521,588.863 328.225,589.483 328.225,590.264"/>
<path class="TimeSig" d="M321.006,618.084 C322.954,618.084 324.613,617.858 325.982,617.404 C327.352,616.951 328.23,616.725 328.615,616.725 C329.073,616.725 329.433,616.855 329.693,617.115 C329.891,617.303 330.021,617.527 330.084,617.787 C330.084,617.923 330.016,618.121 329.881,618.381 L301.475,651.397 L318.162,651.397 L318.162,638.303 C318.162,637.459 318.391,636.74 318.85,636.147 C319.631,635.501 320.282,635.11 320.803,634.975 C321.646,634.589 322.688,633.678 323.928,632.24 C324.969,631.074 326.209,629.027 327.646,626.1 C327.834,625.704 328.126,625.506 328.521,625.506 C329.303,625.506 329.756,625.964 329.881,626.881 L329.881,651.397 L337.021,651.397 C337.928,651.397 338.448,651.881 338.584,652.85 C338.584,653.829 338.063,654.319 337.021,654.319 L329.881,654.319 L329.881,655.1 C329.881,657.704 330.532,659.917 331.834,661.74 C333.334,663.563 335.094,664.475 337.115,664.475 C337.896,664.475 338.287,664.865 338.287,665.647 C338.287,666.428 337.896,666.819 337.115,666.819 C335.751,666.819 333.537,666.626 330.475,666.24 C327.672,665.782 325.49,665.553 323.928,665.553 C322.303,665.553 320.12,665.782 317.381,666.24 C314.454,666.626 312.277,666.819 310.85,666.819 C310.068,666.819 309.678,666.428 309.678,665.647 C309.678,664.865 310.068,664.475 310.85,664.475 C312.86,664.475 314.615,663.563 316.115,661.74 C317.48,659.855 318.162,657.641 318.162,655.1 L318.162,654.319 L301.475,654.319 C300.36,654.319 299.579,654.058 299.131,653.537 C298.6,653.152 298.334,652.631 298.334,651.975 C298.334,651.777 298.823,651.095 299.803,649.928 C300.917,648.626 302.089,647.032 303.318,645.147 C304.756,642.928 306.126,640.647 307.428,638.303 C308.855,635.636 309.995,632.574 310.85,629.115 C311.818,625.605 312.303,622.027 312.303,618.381 C312.303,617.339 312.761,616.819 313.678,616.819 C313.876,616.819 314.297,616.917 314.943,617.115 C315.141,617.178 315.55,617.274 316.17,617.404 C316.79,617.535 317.292,617.662 317.678,617.787 C318.855,617.985 319.964,618.084 321.006,618.084"/>
<path class="Beam" fill-rule="evenodd" d="M2275.77,1035.48 L2413.51,1035.48 L2413.51,1047.98 L2275.77,1047.98 L2275.77,1035.48 "/>
<path class="Beam" fill-rule="evenodd" d="M1640.44,1029.05 L1759.33,1035.47 L1759.33,1047.99 L1640.44,1041.57 L1640.44,1029.05 "/>
<path class="Beam" fill-rule="evenodd" d="M1000.7,1029.23 L1148.17,1029.23 L1148.17,1041.73 L1000.7,1041.73 L1000.7,1029.23 "/>
<path class="Beam" fill-rule="evenodd" d="M365.373,1035.48 L484.262,1035.48 L484.262,1047.98 L365.373,1047.98 L365.373,1035.48 "/>
<path class="Beam" fill-rule="evenodd" d="M2244,685.483 L2387.12,685.483 L2387.12,697.983 L2244,697.983 L2244,685.483 "/>
<path class="Beam" fill-rule="evenodd" d="M1656.62,554.233 L1771.99,554.233 L1771.99,566.733 L1656.62,566.733 L1656.62,554.233 "/>
<path class="Beam" fill-rule="evenodd" d="M1005.49,666.733 L1148.61,666.733 L1148.61,679.233 L1005.49,679.233 L1005.49,666.733 "/>
<path class="Beam" fill-rule="evenodd" d="M388.443,685.483 L503.818,685.483 L503.818,697.983 L388.443,697.983 L388.443,685.483 "/>
<path class="Hook" transform="matrix(0.7,0,0,0.7,1229.78,1152.98)" d="M22.75,-72.3594 C24.25,-72.3594 25.849,-69.9219 27.5469,-65.0469 C29.1719,-60.224 29.9844,-55.6302 29.9844,-51.2656 C29.9844,-47.5573 29.0729,-43.8802 27.25,-40.2344 C25.3646,-36.3281 23.1198,-32.9427 20.5156,-30.0781 L12.5,-21.0938 C10.0313,-18.2292 7.81771,-14.9115 5.85938,-11.1406 C4.03646,-7.49479 3.125,-3.78125 3.125,0 L0,0 L0,-25 L3.125,-25 C4.88542,-26.1042 7.48958,-27.8646 10.9375,-30.2813 C12.5,-31.4479 14.8438,-33.401 17.9688,-36.1406 C20.5104,-38.4844 22.4323,-40.8906 23.7344,-43.3594 C25.099,-45.9635 25.7813,-48.599 25.7813,-51.2656 C25.7813,-57.4531 23.9896,-63.6094 20.4063,-69.7344 C20.4063,-69.7344 20.4063,-69.8646 20.4063,-70.125 C20.4063,-70.7083 20.6042,-71.1927 21,-71.5781 C21.5208,-72.099 22.1042,-72.3594 22.75,-72.3594"/>
<path class="Hook" transform="matrix(0.7,0,0,0.7,2494.04,665.483)" d="M22.75,-72.3594 C24.25,-72.3594 25.849,-69.9219 27.5469,-65.0469 C29.1719,-60.224 29.9844,-55.6302 29.9844,-51.2656 C29.9844,-47.5573 29.0729,-43.8802 27.25,-40.2344 C25.3646,-36.3281 23.1198,-32.9427 20.5156,-30.0781 L12.5,-21.0938 C10.0313,-18.2292 7.81771,-14.9115 5.85938,-11.1406 C4.03646,-7.49479 3.125,-3.78125 3.125,0 L0,0 L0,-25 L3.125,-25 C4.88542,-26.1042 7.48958,-27.8646 10.9375,-30.2813 C12.5,-31.4479 14.8438,-33.401 17.9688,-36.1406 C20.5104,-38.4844 22.4323,-40.8906 23.7344,-43.3594 C25.099,-45.9635 25.7813,-48.599 25.7813,-51.2656 C25.7813,-57.4531 23.9896,-63.6094 20.4063,-69.7344 C20.4063,-69.7344 20.4063,-69.8646 20.4063,-70.125 C20.4063,-70.7083 20.6042,-71.1927 21,-71.5781 C21.5208,-72.099 22.1042,-72.3594 22.75,-72.3594"/>
<path class="Hook" transform="matrix(0.7,0,0,0.7,1255.53,652.983)" d="M22.75,-72.3594 C24.25,-72.3594 25.849,-69.9219 27.5469,-65.0469 C29.1719,-60.224 29.9844,-55.6302 29.9844,-51.2656 C29.9844,-47.5573 29.0729,-43.8802 27.25,-40.2344 C25.3646,-36.3281 23.1198,-32.9427 20.5156,-30.0781 L12.5,-21.0938 C10.0313,-18.2292 7.81771,-14.9115 5.85938,-11.1406 C4.03646,-7.49479 3.125,-3.78125 3.125,0 L0,0 L0,-25 L3.125,-25 C4.88542,-26.1042 7.48958,-27.8646 10.9375,-30.2813 C12.5,-31.4479 14.8438,-33.401 17.9688,-36.1406 C20.5104,-38.4844 22.4323,-40.8906 23.7344,-43.3594 C25.099,-45.9635 25.7813,-48.599 25.7813,-51.2656 C25.7813,-57.4531 23.9896,-63.6094 20.4063,-69.7344 C20.4063,-69.7344 20.4063,-69.8646 20.4063,-70.125 C20.4063,-70.7083 20.6042,-71.1927 21,-71.5781 C21.5208,-72.099 22.1042,-72.3594 22.75,-72.3594"/>
</svg>
