<?xml version="1.0" encoding="UTF-8" standalone="no"?>
<svg width="2976.38px" height="4209.45px" viewBox="0 0 2976.38 4209.45"
 xmlns="http://www.w3.org/2000/svg" xmlns:xlink="http://www.w3.org/1999/xlink" version="1.2" baseProfile="tiny">
<title>Suita_de_cantece_populare (2)</title>
<desc>Generated by MuseScore 3.0.2</desc>
<polyline class="StaffLines" fill="none" stroke="#000000" stroke-width="2.00" stroke-linejoin="bevel" points="141.732,316.732 2834.64,316.732"/>
<polyline class="StaffLines" fill="none" stroke="#000000" stroke-width="2.00" stroke-linejoin="bevel" points="141.732,341.732 2834.64,341.732"/>
<polyline class="StaffLines" fill="none" stroke="#000000" stroke-width="2.00" stroke-linejoin="bevel" points="141.732,366.732 2834.64,366.732"/>
<polyline class="StaffLines" fill="none" stroke="#000000" stroke-width="2.00" stroke-linejoin="bevel" points="141.732,391.732 2834.64,391.732"/>
<polyline class="StaffLines" fill="none" stroke="#000000" stroke-width="2.00" stroke-linejoin="bevel" points="141.732,416.732 2834.64,416.732"/>
<path class="MeasureNumber" d="M124.592,267.607 L124.467,266.81 C127.508,266.279 130.089,264.982 132.209,262.92 C134.329,260.857 135.8,258.196 136.623,254.935 C134.654,256.477 132.659,257.248 130.638,257.248 C128.472,257.248 126.73,256.501 125.412,255.006 C124.094,253.511 123.435,251.545 123.435,249.107 C123.435,246.399 124.227,244.141 125.81,242.334 C127.394,240.527 129.373,239.623 131.748,239.623 C134.331,239.623 136.451,240.68 138.107,242.795 C139.763,244.909 140.592,247.628 140.592,250.951 C140.592,252.014 140.498,253.107 140.31,254.232 C140.123,255.357 139.688,256.688 139.006,258.225 C138.323,259.761 137.438,261.136 136.349,262.35 C135.261,263.563 133.704,264.665 131.678,265.654 C129.652,266.644 127.29,267.295 124.592,267.607 M132.076,255.498 C132.576,255.498 133.146,255.425 133.787,255.279 C134.428,255.133 135.076,254.813 135.732,254.318 C136.388,253.823 136.717,253.217 136.717,252.498 L136.717,250.951 C136.717,244.191 134.956,240.81 131.435,240.81 C130.602,240.81 129.894,241.032 129.31,241.475 C128.727,241.917 128.282,242.495 127.974,243.209 C127.667,243.922 127.446,244.652 127.31,245.396 C127.175,246.141 127.107,246.93 127.107,247.764 C127.107,250.128 127.555,252.008 128.451,253.404 C129.347,254.8 130.555,255.498 132.076,255.498 M160.185,240.264 L160.185,240.889 L151.717,267.045 L149.107,267.045 L157.029,243.17 L148.357,243.17 C147.263,243.17 146.43,243.37 145.857,243.771 C145.284,244.172 144.571,245.055 143.717,246.42 L143.029,246.107 L145.388,240.264 L160.185,240.264 "/>
<polyline class="BarLine" fill="none" stroke="#000000" stroke-width="4.00" stroke-linejoin="bevel" points="2804.39,315.732 2804.39,417.732"/>
<polyline class="BarLine" fill="none" stroke="#000000" stroke-width="12.50" stroke-linejoin="bevel" points="2828.39,315.732 2828.39,417.732"/>
<path class="BarLine" d="M2317.03,358.232 C2315.92,357.128 2315.37,355.795 2315.37,354.232 C2315.37,352.67 2315.92,351.334 2317.03,350.225 C2318.14,349.115 2319.48,348.561 2321.04,348.561 C2322.6,348.561 2323.94,349.115 2325.04,350.225 C2326.14,351.334 2326.7,352.67 2326.7,354.232 C2326.7,355.795 2326.14,357.128 2325.04,358.232 C2323.94,359.337 2322.6,359.889 2321.04,359.889 C2319.48,359.889 2318.14,359.337 2317.03,358.232"/>
<path class="BarLine" d="M2317.03,383.232 C2315.92,382.128 2315.37,380.795 2315.37,379.232 C2315.37,377.67 2315.92,376.334 2317.03,375.225 C2318.14,374.115 2319.48,373.561 2321.04,373.561 C2322.6,373.561 2323.94,374.115 2325.04,375.225 C2326.14,376.334 2326.7,377.67 2326.7,379.232 C2326.7,380.795 2326.14,382.128 2325.04,383.232 C2323.94,384.337 2322.6,384.889 2321.04,384.889 C2319.48,384.889 2318.14,384.337 2317.03,383.232"/>
<polyline class="BarLine" fill="none" stroke="#000000" stroke-width="4.00" stroke-linejoin="bevel" points="2336.78,315.732 2336.78,417.732"/>
<polyline class="BarLine" fill="none" stroke="#000000" stroke-width="12.50" stroke-linejoin="bevel" points="2360.78,315.732 2360.78,417.732"/>
<polyline class="BarLine" fill="none" stroke="#000000" stroke-width="4.00" stroke-linejoin="bevel" points="1679.5,315.732 1679.5,417.732"/>
<polyline class="BarLine" fill="none" stroke="#000000" stroke-width="4.00" stroke-linejoin="bevel" points="1041.68,315.732 1041.68,417.732"/>
<path class="Accidental" d="M2204.82,304.232 C2205.66,303.774 2206.51,303.545 2207.36,303.545 C2208.21,303.545 2209.05,303.774 2209.9,304.232 L2209.6,322.498 L2220.26,320.545 L2220.65,320.545 C2221.81,320.545 2222.4,321.097 2222.4,322.201 L2223.09,379.232 C2222.24,379.691 2221.4,379.92 2220.55,379.92 C2219.7,379.92 2218.85,379.691 2218.01,379.232 L2218.3,360.967 L2207.76,362.92 L2207.37,362.92 C2206.19,362.92 2205.6,362.368 2205.6,361.264 L2204.82,304.232 M2218.4,351.201 L2218.69,330.498 L2209.51,332.264 L2209.21,352.967 L2218.4,351.201 "/>
<path class="Accidental" d="M1774.7,341.732 C1775.54,341.274 1776.39,341.045 1777.24,341.045 C1778.09,341.045 1778.93,341.274 1779.78,341.732 L1779.48,359.998 L1790.14,358.045 L1790.53,358.045 C1791.69,358.045 1792.28,358.597 1792.28,359.701 L1792.97,416.732 C1792.12,417.191 1791.28,417.42 1790.43,417.42 C1789.58,417.42 1788.73,417.191 1787.89,416.732 L1788.18,398.467 L1777.64,400.42 L1777.25,400.42 C1776.07,400.42 1775.48,399.868 1775.48,398.764 L1774.7,341.732 M1788.28,388.701 L1788.57,367.998 L1779.39,369.764 L1779.09,390.467 L1788.28,388.701 "/>
<path class="Accidental" d="M1339.12,341.732 C1339.97,341.274 1340.82,341.045 1341.66,341.045 C1342.51,341.045 1343.36,341.274 1344.2,341.732 L1343.91,359.998 L1354.56,358.045 L1354.95,358.045 C1356.12,358.045 1356.7,358.597 1356.7,359.701 L1357.39,416.732 C1356.55,417.191 1355.7,417.42 1354.85,417.42 C1354,417.42 1353.16,417.191 1352.31,416.732 L1352.61,398.467 L1342.06,400.42 L1341.67,400.42 C1340.49,400.42 1339.91,399.868 1339.91,398.764 L1339.12,341.732 M1352.7,388.701 L1353,367.998 L1343.81,369.764 L1343.52,390.467 L1352.7,388.701 "/>
<path class="Accidental" d="M1055.9,304.232 C1056.74,303.774 1057.59,303.545 1058.43,303.545 C1059.28,303.545 1060.13,303.774 1060.97,304.232 L1060.68,322.498 L1071.33,320.545 L1071.72,320.545 C1072.89,320.545 1073.47,321.097 1073.47,322.201 L1074.16,379.232 C1073.32,379.691 1072.47,379.92 1071.62,379.92 C1070.77,379.92 1069.93,379.691 1069.08,379.232 L1069.38,360.967 L1058.83,362.92 L1058.44,362.92 C1057.27,362.92 1056.68,362.368 1056.68,361.264 L1055.9,304.232 M1069.47,351.201 L1069.77,330.498 L1060.58,332.264 L1060.29,352.967 L1069.47,351.201 "/>
<path class="Accidental" d="M402.537,304.232 C403.381,303.774 404.227,303.545 405.076,303.545 C405.925,303.545 406.771,303.774 407.615,304.232 L407.318,322.498 L417.975,320.545 L418.365,320.545 C419.532,320.545 420.115,321.097 420.115,322.201 L420.803,379.232 C419.959,379.691 419.113,379.92 418.264,379.92 C417.415,379.92 416.568,379.691 415.725,379.232 L416.021,360.967 L405.475,362.92 L405.084,362.92 C403.907,362.92 403.318,362.368 403.318,361.264 L402.537,304.232 M416.115,351.201 L416.412,330.498 L407.225,332.264 L406.928,352.967 L416.115,351.201 "/>
<polyline class="Stem" fill="none" stroke="#000000" stroke-width="3.25" stroke-linecap="round" stroke-linejoin="bevel" points="2630.89,371.428 2630.89,444.857"/>
<polyline class="Stem" fill="none" stroke="#000000" stroke-width="3.25" stroke-linecap="round" stroke-linejoin="bevel" points="2477.35,371.428 2477.35,441.732"/>
<polyline class="Stem" fill="none" stroke="#000000" stroke-width="3.25" stroke-linecap="round" stroke-linejoin="bevel" points="2398.66,358.928 2398.66,435.482"/>
<polyline class="Stem" fill="none" stroke="#000000" stroke-width="3.25" stroke-linecap="round" stroke-linejoin="bevel" points="2230.12,346.428 2230.12,441.732"/>
<polyline class="Stem" fill="none" stroke="#000000" stroke-width="3.25" stroke-linecap="round" stroke-linejoin="bevel" points="2143.24,358.928 2143.24,447.982"/>
<polyline class="Stem" fill="none" stroke="#000000" stroke-width="3.25" stroke-linecap="round" stroke-linejoin="bevel" points="2056.36,371.428 2056.36,454.232"/>
<polyline class="Stem" fill="none" stroke="#000000" stroke-width="3.25" stroke-linecap="round" stroke-linejoin="bevel" points="1969.49,371.428 1969.49,460.482"/>
<polyline class="Stem" fill="none" stroke="#000000" stroke-width="3.25" stroke-linecap="round" stroke-linejoin="bevel" points="1800,383.928 1800,460.482"/>
<polyline class="Stem" fill="none" stroke="#000000" stroke-width="3.25" stroke-linecap="round" stroke-linejoin="bevel" points="1713.12,358.928 1713.12,441.732"/>
<polyline class="Stem" fill="none" stroke="#000000" stroke-width="3.25" stroke-linecap="round" stroke-linejoin="bevel" points="1600.45,346.428 1600.45,435.482"/>
<polyline class="Stem" fill="none" stroke="#000000" stroke-width="3.25" stroke-linecap="round" stroke-linejoin="bevel" points="1521.77,358.928 1521.77,443.816"/>
<polyline class="Stem" fill="none" stroke="#000000" stroke-width="3.25" stroke-linecap="round" stroke-linejoin="bevel" points="1443.1,371.428 1443.1,452.149"/>
<polyline class="Stem" fill="none" stroke="#000000" stroke-width="3.25" stroke-linecap="round" stroke-linejoin="bevel" points="1364.42,383.928 1364.42,460.482"/>
<polyline class="Stem" fill="none" stroke="#000000" stroke-width="3.25" stroke-linecap="round" stroke-linejoin="bevel" points="1285.75,371.428 1285.75,441.732"/>
<polyline class="Stem" fill="none" stroke="#000000" stroke-width="3.25" stroke-linecap="round" stroke-linejoin="bevel" points="1159.87,358.928 1159.87,426.348"/>
<polyline class="Stem" fill="none" stroke="#000000" stroke-width="3.25" stroke-linecap="round" stroke-linejoin="bevel" points="1081.19,346.428 1081.19,416.732"/>
<polyline class="Stem" fill="none" stroke="#000000" stroke-width="3.25" stroke-linecap="round" stroke-linejoin="bevel" points="964.619,346.428 964.619,416.732"/>
<polyline class="Stem" fill="none" stroke="#000000" stroke-width="3.25" stroke-linecap="round" stroke-linejoin="bevel" points="887.935,333.928 887.935,425.066"/>
<polyline class="Stem" fill="none" stroke="#000000" stroke-width="3.25" stroke-linecap="round" stroke-linejoin="bevel" points="811.252,346.428 811.252,433.399"/>
<polyline class="Stem" fill="none" stroke="#000000" stroke-width="3.25" stroke-linecap="round" stroke-linejoin="bevel" points="734.568,371.428 734.568,441.732"/>
<polyline class="Stem" fill="none" stroke="#000000" stroke-width="3.25" stroke-linecap="round" stroke-linejoin="bevel" points="657.885,346.428 657.885,416.732"/>
<polyline class="Stem" fill="none" stroke="#000000" stroke-width="3.25" stroke-linecap="round" stroke-linejoin="bevel" points="581.201,346.428 581.201,416.732"/>
<polyline class="Stem" fill="none" stroke="#000000" stroke-width="3.25" stroke-linecap="round" stroke-linejoin="bevel" points="504.518,346.428 504.518,416.732"/>
<polyline class="Stem" fill="none" stroke="#000000" stroke-width="3.25" stroke-linecap="round" stroke-linejoin="bevel" points="427.834,346.428 427.834,416.732"/>
<path class="Note" d="M2651.23,352.967 C2654.36,352.967 2657,353.779 2659.15,355.404 C2661.16,357.165 2662.17,359.378 2662.17,362.045 C2662.17,366.534 2659.86,370.732 2655.25,374.639 C2650.56,378.545 2645.54,380.498 2640.2,380.498 C2637.07,380.498 2634.44,379.686 2632.29,378.061 C2630.27,376.3 2629.26,374.087 2629.26,371.42 C2629.26,366.93 2631.61,362.732 2636.29,358.826 C2640.86,354.92 2645.83,352.967 2651.23,352.967"/>
<path class="Note" d="M2497.7,352.967 C2500.82,352.967 2503.46,353.779 2505.62,355.404 C2507.63,357.165 2508.63,359.378 2508.63,362.045 C2508.63,366.534 2506.33,370.732 2501.71,374.639 C2497.02,378.545 2492.01,380.498 2486.66,380.498 C2483.54,380.498 2480.9,379.686 2478.76,378.061 C2476.74,376.3 2475.73,374.087 2475.73,371.42 C2475.73,366.93 2478.07,362.732 2482.76,358.826 C2487.32,354.92 2492.3,352.967 2497.7,352.967"/>
<path class="Note" d="M2419,340.467 C2422.13,340.467 2424.77,341.279 2426.92,342.904 C2428.93,344.665 2429.94,346.878 2429.94,349.545 C2429.94,354.034 2427.63,358.232 2423.02,362.139 C2418.33,366.045 2413.31,367.998 2407.97,367.998 C2404.84,367.998 2402.21,367.186 2400.06,365.561 C2398.04,363.8 2397.03,361.587 2397.03,358.92 C2397.03,354.43 2399.38,350.232 2404.06,346.326 C2408.63,342.42 2413.6,340.467 2419,340.467"/>
<path class="Note" d="M2250.46,327.967 C2253.59,327.967 2256.23,328.779 2258.38,330.404 C2260.39,332.165 2261.4,334.378 2261.4,337.045 C2261.4,341.534 2259.09,345.732 2254.48,349.639 C2249.79,353.545 2244.77,355.498 2239.43,355.498 C2236.3,355.498 2233.67,354.686 2231.52,353.061 C2229.5,351.3 2228.49,349.087 2228.49,346.42 C2228.49,341.93 2230.84,337.732 2235.52,333.826 C2240.09,329.92 2245.06,327.967 2250.46,327.967"/>
<path class="Note" d="M2163.58,340.467 C2166.71,340.467 2169.35,341.279 2171.51,342.904 C2173.52,344.665 2174.52,346.878 2174.52,349.545 C2174.52,354.034 2172.21,358.232 2167.6,362.139 C2162.91,366.045 2157.9,367.998 2152.55,367.998 C2149.43,367.998 2146.79,367.186 2144.65,365.561 C2142.63,363.8 2141.62,361.587 2141.62,358.92 C2141.62,354.43 2143.96,350.232 2148.65,346.326 C2153.21,342.42 2158.19,340.467 2163.58,340.467"/>
<path class="Note" d="M2076.71,352.967 C2079.83,352.967 2082.47,353.779 2084.63,355.404 C2086.64,357.165 2087.65,359.378 2087.65,362.045 C2087.65,366.534 2085.34,370.732 2080.72,374.639 C2076.04,378.545 2071.02,380.498 2065.68,380.498 C2062.55,380.498 2059.92,379.686 2057.77,378.061 C2055.75,376.3 2054.74,374.087 2054.74,371.42 C2054.74,366.93 2057.08,362.732 2061.77,358.826 C2066.33,354.92 2071.31,352.967 2076.71,352.967"/>
<path class="Note" d="M1989.83,352.967 C1992.96,352.967 1995.6,353.779 1997.75,355.404 C1999.77,357.165 2000.77,359.378 2000.77,362.045 C2000.77,366.534 1998.46,370.732 1993.85,374.639 C1989.16,378.545 1984.15,380.498 1978.8,380.498 C1975.68,380.498 1973.04,379.686 1970.9,378.061 C1968.87,376.3 1967.86,374.087 1967.86,371.42 C1967.86,366.93 1970.21,362.732 1974.9,358.826 C1979.46,354.92 1984.44,352.967 1989.83,352.967"/>
<path class="Note" d="M1820.34,365.467 C1823.47,365.467 1826.11,366.279 1828.26,367.904 C1830.27,369.665 1831.28,371.878 1831.28,374.545 C1831.28,379.034 1828.97,383.232 1824.36,387.139 C1819.67,391.045 1814.65,392.998 1809.31,392.998 C1806.18,392.998 1803.55,392.186 1801.4,390.561 C1799.38,388.8 1798.37,386.587 1798.37,383.92 C1798.37,379.43 1800.72,375.232 1805.4,371.326 C1809.97,367.42 1814.94,365.467 1820.34,365.467"/>
<path class="Note" d="M1733.46,340.467 C1736.59,340.467 1739.23,341.279 1741.39,342.904 C1743.4,344.665 1744.4,346.878 1744.4,349.545 C1744.4,354.034 1742.09,358.232 1737.48,362.139 C1732.79,366.045 1727.78,367.998 1722.43,367.998 C1719.31,367.998 1716.67,367.186 1714.53,365.561 C1712.51,363.8 1711.5,361.587 1711.5,358.92 C1711.5,354.43 1713.84,350.232 1718.53,346.326 C1723.09,342.42 1728.07,340.467 1733.46,340.467"/>
<path class="Note" d="M1620.79,327.967 C1623.91,327.967 1626.56,328.779 1628.71,330.404 C1630.72,332.165 1631.73,334.378 1631.73,337.045 C1631.73,341.534 1629.42,345.732 1624.81,349.639 C1620.12,353.545 1615.1,355.498 1609.76,355.498 C1606.63,355.498 1604,354.686 1601.85,353.061 C1599.83,351.3 1598.82,349.087 1598.82,346.42 C1598.82,341.93 1601.16,337.732 1605.85,333.826 C1610.41,329.92 1615.39,327.967 1620.79,327.967"/>
<path class="Note" d="M1542.12,340.467 C1545.24,340.467 1547.88,341.279 1550.04,342.904 C1552.05,344.665 1553.05,346.878 1553.05,349.545 C1553.05,354.034 1550.75,358.232 1546.13,362.139 C1541.44,366.045 1536.43,367.998 1531.08,367.998 C1527.96,367.998 1525.32,367.186 1523.18,365.561 C1521.16,363.8 1520.15,361.587 1520.15,358.92 C1520.15,354.43 1522.49,350.232 1527.18,346.326 C1531.74,342.42 1536.72,340.467 1542.12,340.467"/>
<path class="Note" d="M1463.44,352.967 C1466.57,352.967 1469.21,353.779 1471.36,355.404 C1473.37,357.165 1474.38,359.378 1474.38,362.045 C1474.38,366.534 1472.07,370.732 1467.46,374.639 C1462.77,378.545 1457.75,380.498 1452.41,380.498 C1449.28,380.498 1446.65,379.686 1444.5,378.061 C1442.48,376.3 1441.47,374.087 1441.47,371.42 C1441.47,366.93 1443.82,362.732 1448.5,358.826 C1453.07,354.92 1458.04,352.967 1463.44,352.967"/>
<path class="Note" d="M1384.77,365.467 C1387.89,365.467 1390.53,366.279 1392.69,367.904 C1394.7,369.665 1395.7,371.878 1395.7,374.545 C1395.7,379.034 1393.4,383.232 1388.78,387.139 C1384.09,391.045 1379.08,392.998 1373.73,392.998 C1370.61,392.998 1367.97,392.186 1365.83,390.561 C1363.81,388.8 1362.8,386.587 1362.8,383.92 C1362.8,379.43 1365.14,375.232 1369.83,371.326 C1374.39,367.42 1379.37,365.467 1384.77,365.467"/>
<path class="Note" d="M1306.09,352.967 C1309.22,352.967 1311.86,353.779 1314.01,355.404 C1316.02,357.165 1317.03,359.378 1317.03,362.045 C1317.03,366.534 1314.72,370.732 1310.11,374.639 C1305.42,378.545 1300.4,380.498 1295.06,380.498 C1291.93,380.498 1289.3,379.686 1287.15,378.061 C1285.13,376.3 1284.12,374.087 1284.12,371.42 C1284.12,366.93 1286.47,362.732 1291.15,358.826 C1295.72,354.92 1300.69,352.967 1306.09,352.967"/>
<path class="Note" d="M1180.21,340.467 C1183.34,340.467 1185.98,341.279 1188.13,342.904 C1190.14,344.665 1191.15,346.878 1191.15,349.545 C1191.15,354.034 1188.84,358.232 1184.23,362.139 C1179.54,366.045 1174.52,367.998 1169.18,367.998 C1166.05,367.998 1163.42,367.186 1161.27,365.561 C1159.25,363.8 1158.24,361.587 1158.24,358.92 C1158.24,354.43 1160.59,350.232 1165.27,346.326 C1169.84,342.42 1174.82,340.467 1180.21,340.467"/>
<path class="Note" d="M1101.54,327.967 C1104.66,327.967 1107.3,328.779 1109.46,330.404 C1111.47,332.165 1112.47,334.378 1112.47,337.045 C1112.47,341.534 1110.17,345.732 1105.55,349.639 C1100.86,353.545 1095.85,355.498 1090.51,355.498 C1087.38,355.498 1084.74,354.686 1082.6,353.061 C1080.58,351.3 1079.57,349.087 1079.57,346.42 C1079.57,341.93 1081.91,337.732 1086.6,333.826 C1091.16,329.92 1096.14,327.967 1101.54,327.967"/>
<path class="Note" d="M984.962,327.967 C988.087,327.967 990.728,328.779 992.884,330.404 C994.895,332.165 995.9,334.378 995.9,337.045 C995.9,341.534 993.593,345.732 988.978,349.639 C984.29,353.545 979.275,355.498 973.931,355.498 C970.806,355.498 968.171,354.686 966.025,353.061 C964.004,351.3 962.994,349.087 962.994,346.42 C962.994,341.93 965.337,337.732 970.025,333.826 C974.587,329.92 979.566,327.967 984.962,327.967"/>
<path class="Note" d="M908.279,315.467 C911.404,315.467 914.044,316.279 916.201,317.904 C918.211,319.665 919.216,321.878 919.216,324.545 C919.216,329.034 916.909,333.232 912.294,337.139 C907.607,341.045 902.591,342.998 897.248,342.998 C894.123,342.998 891.487,342.185 889.341,340.56 C887.32,338.8 886.31,336.587 886.31,333.92 C886.31,329.43 888.654,325.232 893.341,321.326 C897.904,317.42 902.883,315.467 908.279,315.467"/>
<path class="Note" d="M831.595,327.967 C834.72,327.967 837.361,328.779 839.517,330.404 C841.528,332.165 842.533,334.378 842.533,337.045 C842.533,341.534 840.226,345.732 835.611,349.639 C830.923,353.545 825.908,355.498 820.564,355.498 C817.439,355.498 814.804,354.686 812.658,353.061 C810.637,351.3 809.627,349.087 809.627,346.42 C809.627,341.93 811.97,337.732 816.658,333.826 C821.22,329.92 826.199,327.967 831.595,327.967"/>
<path class="Note" d="M754.912,352.967 C758.037,352.967 760.677,353.779 762.834,355.404 C764.844,357.165 765.849,359.378 765.849,362.045 C765.849,366.534 763.542,370.732 758.927,374.639 C754.24,378.545 749.224,380.498 743.881,380.498 C740.756,380.498 738.12,379.686 735.974,378.061 C733.953,376.3 732.943,374.087 732.943,371.42 C732.943,366.93 735.287,362.732 739.974,358.826 C744.537,354.92 749.516,352.967 754.912,352.967"/>
<path class="Note" d="M678.228,327.967 C681.353,327.967 683.994,328.779 686.15,330.404 C688.161,332.165 689.166,334.378 689.166,337.045 C689.166,341.534 686.858,345.732 682.244,349.639 C677.556,353.545 672.541,355.498 667.197,355.498 C664.072,355.498 661.437,354.686 659.291,353.061 C657.27,351.3 656.26,349.087 656.26,346.42 C656.26,341.93 658.603,337.732 663.291,333.826 C667.853,329.92 672.832,327.967 678.228,327.967"/>
<path class="Note" d="M601.545,327.967 C604.67,327.967 607.31,328.779 609.467,330.404 C611.477,332.165 612.482,334.378 612.482,337.045 C612.482,341.534 610.175,345.732 605.56,349.639 C600.873,353.545 595.857,355.498 590.514,355.498 C587.389,355.498 584.753,354.686 582.607,353.061 C580.586,351.3 579.576,349.087 579.576,346.42 C579.576,341.93 581.92,337.732 586.607,333.826 C591.17,329.92 596.149,327.967 601.545,327.967"/>
<path class="Note" d="M524.861,327.967 C527.986,327.967 530.627,328.779 532.783,330.404 C534.794,332.165 535.799,334.378 535.799,337.045 C535.799,341.534 533.491,345.732 528.877,349.639 C524.189,353.545 519.174,355.498 513.83,355.498 C510.705,355.498 508.07,354.686 505.924,353.061 C503.903,351.3 502.893,349.087 502.893,346.42 C502.893,341.93 505.236,337.732 509.924,333.826 C514.486,329.92 519.465,327.967 524.861,327.967"/>
<path class="Note" d="M448.178,327.967 C451.303,327.967 453.943,328.779 456.1,330.404 C458.11,332.165 459.115,334.378 459.115,337.045 C459.115,341.534 456.808,345.732 452.193,349.639 C447.506,353.545 442.49,355.498 437.146,355.498 C434.021,355.498 431.386,354.686 429.24,353.061 C427.219,351.3 426.209,349.087 426.209,346.42 C426.209,341.93 428.553,337.732 433.24,333.826 C437.803,329.92 442.782,327.967 448.178,327.967"/>
<path class="Clef" d="M190.951,366.139 C190.951,366.139 191.149,366.139 191.545,366.139 C191.805,366.076 192.029,366.045 192.217,366.045 C199.508,366.045 205.498,368.618 210.185,373.764 C214.873,378.837 217.217,384.758 217.217,391.529 C217.217,399.936 213.737,406.774 206.779,412.045 C204.956,413.482 202.576,414.654 199.639,415.561 C199.972,419.79 200.139,423.206 200.139,425.811 C200.139,426.331 200.071,428.222 199.935,431.482 C199.675,437.534 197.592,442.774 193.685,447.201 C189.915,451.566 185.227,453.748 179.623,453.748 C174.352,453.748 169.862,451.894 166.154,448.186 C162.435,444.404 160.576,439.847 160.576,434.514 C160.576,431.712 161.654,429.331 163.81,427.373 C166.019,425.425 168.586,424.451 171.514,424.451 C174.118,424.451 176.3,425.462 178.06,427.482 C179.883,429.368 180.795,431.712 180.795,434.514 C180.795,437.045 179.883,439.222 178.06,441.045 C176.237,442.868 174.055,443.779 171.514,443.779 C170.472,443.779 169.467,443.587 168.498,443.201 C171.362,447.43 175.17,449.545 179.92,449.545 C184.409,449.545 188.086,447.722 190.951,444.076 C193.951,440.305 195.581,435.909 195.842,430.889 C195.967,427.764 196.029,425.977 196.029,425.529 C196.029,421.883 195.899,418.889 195.639,416.545 C192.389,417.066 189.493,417.326 186.951,417.326 C177.899,417.326 170.185,413.743 163.81,406.576 C157.56,399.347 154.435,390.753 154.435,380.795 C154.435,378.712 154.628,376.597 155.014,374.451 C155.409,372.691 155.899,370.769 156.482,368.686 C156.805,367.508 157.685,365.618 159.123,363.014 C159.644,362.232 160.23,361.256 160.881,360.084 C161.532,358.912 161.987,358.133 162.248,357.748 C162.894,356.446 164.159,354.686 166.045,352.467 C166.566,351.883 167.105,351.235 167.662,350.521 C168.219,349.808 168.693,349.222 169.084,348.764 C169.474,348.305 169.766,347.946 169.959,347.686 C170.152,347.425 171.618,345.701 174.357,342.514 C175.003,341.857 175.636,341.157 176.256,340.412 C176.875,339.667 177.381,339.081 177.771,338.654 C178.162,338.227 178.456,337.92 178.654,337.732 C176.31,329.982 174.842,323.795 174.248,319.17 C173.8,315.462 173.576,310.383 173.576,303.936 C173.576,298.269 174.878,292.962 177.482,288.014 C180.014,282.878 183.56,278.68 188.123,275.42 C188.383,275.222 188.706,275.123 189.092,275.123 C189.55,275.123 189.878,275.222 190.076,275.42 C193.586,279.649 196.612,285.149 199.154,291.92 C201.758,298.691 203.06,304.847 203.06,310.389 C203.06,316.639 201.566,322.498 198.576,327.967 C195.191,333.758 190.826,339.748 185.482,345.936 C186.847,350.227 188.67,356.962 190.951,366.139 M199.248,411.561 C202.633,410.321 205.274,408.206 207.17,405.217 C209.253,402.352 210.295,399.128 210.295,395.545 C210.295,390.92 208.732,386.816 205.607,383.232 C202.409,379.524 198.336,377.441 193.389,376.982 C196.191,390.722 198.144,402.248 199.248,411.561 M161.467,388.998 C161.467,395.446 164.071,401.113 169.279,405.998 C174.612,410.748 180.602,413.123 187.248,413.123 C189.977,413.123 192.644,412.925 195.248,412.529 C194.206,402.633 192.154,390.784 189.092,376.982 C185.383,377.378 182.425,378.68 180.217,380.889 C178.06,383.17 176.982,385.743 176.982,388.607 C176.982,393.555 179.623,397.561 184.904,400.623 C185.352,401.081 185.576,401.571 185.576,402.092 C185.576,402.613 185.352,403.097 184.904,403.545 C184.508,404.003 184.019,404.232 183.435,404.232 C183.373,404.232 183.081,404.17 182.56,404.045 C178.842,402.024 175.977,399.42 173.967,396.232 C172.071,392.837 171.123,389.415 171.123,385.967 C171.123,381.477 172.524,377.409 175.326,373.764 C178.253,370.118 182.06,367.774 186.748,366.732 C184.925,359.441 183.43,353.743 182.264,349.639 C181.222,350.816 179.969,352.232 178.506,353.889 C177.042,355.545 176.18,356.54 175.92,356.873 C173.576,359.925 171.784,362.3 170.545,363.998 C168.326,367.061 166.696,369.696 165.654,371.904 C164.55,374.383 163.576,377.087 162.732,380.014 C161.889,382.816 161.467,385.811 161.467,388.998 M194.076,289.686 C189.191,292.092 185.352,295.54 182.56,300.029 C179.696,304.654 178.264,309.633 178.264,314.967 C178.264,319.654 179.435,325.972 181.779,333.92 C186.467,328.253 189.982,323.014 192.326,318.201 C194.795,313.118 196.029,307.811 196.029,302.279 C196.029,298.113 195.378,293.915 194.076,289.686"/>
<path class="KeySig" d="M322.35,337.623 L322.35,345.342 C322.35,348.081 322.48,350.264 322.74,351.889 C324.886,350.066 326.417,348.701 327.334,347.795 C328.376,346.753 329.417,345.318 330.459,343.49 C331.501,341.662 332.021,339.837 332.021,338.014 C332.021,336.191 331.631,334.628 330.85,333.326 C330.068,332.024 329.027,331.373 327.725,331.373 C326.162,331.373 324.86,331.962 323.818,333.139 C322.839,334.441 322.35,335.936 322.35,337.623 M318.24,355.498 L316.975,296.029 C317.891,295.508 318.805,295.248 319.717,295.248 C320.628,295.248 321.537,295.508 322.443,296.029 L321.662,330.498 C324.329,328.217 327.391,327.076 330.85,327.076 C333.381,327.076 335.493,328.118 337.185,330.201 C338.878,332.284 339.725,334.665 339.725,337.342 C339.725,339.029 339.172,340.821 338.068,342.717 C337.027,344.467 335.922,345.831 334.756,346.811 C334.1,347.331 332.438,348.633 329.771,350.717 C328.99,351.3 328.063,351.982 326.99,352.764 C325.917,353.545 325.251,354.034 324.99,354.232 C324.532,354.493 324.105,355.014 323.709,355.795 C323.261,356.451 322.74,357.003 322.146,357.451 C321.699,357.847 321.149,358.045 320.498,358.045 C319.847,358.045 319.324,357.816 318.928,357.357 C318.469,356.899 318.24,356.279 318.24,355.498"/>
<path class="KeySig" d="M297.35,375.123 L297.35,382.842 C297.35,385.581 297.48,387.764 297.74,389.389 C299.886,387.566 301.417,386.201 302.334,385.295 C303.376,384.253 304.417,382.818 305.459,380.99 C306.501,379.162 307.021,377.337 307.021,375.514 C307.021,373.691 306.631,372.128 305.85,370.826 C305.068,369.524 304.027,368.873 302.725,368.873 C301.162,368.873 299.86,369.462 298.818,370.639 C297.839,371.941 297.35,373.436 297.35,375.123 M293.24,392.998 L291.975,333.529 C292.891,333.008 293.805,332.748 294.717,332.748 C295.628,332.748 296.537,333.008 297.443,333.529 L296.662,367.998 C299.329,365.717 302.391,364.576 305.85,364.576 C308.381,364.576 310.493,365.618 312.185,367.701 C313.878,369.784 314.725,372.165 314.725,374.842 C314.725,376.529 314.172,378.321 313.068,380.217 C312.027,381.967 310.922,383.331 309.756,384.311 C309.1,384.831 307.438,386.133 304.771,388.217 C303.99,388.8 303.063,389.482 301.99,390.264 C300.917,391.045 300.251,391.534 299.99,391.732 C299.532,391.993 299.105,392.514 298.709,393.295 C298.261,393.951 297.74,394.503 297.146,394.951 C296.698,395.347 296.149,395.545 295.498,395.545 C294.847,395.545 294.323,395.316 293.928,394.857 C293.469,394.399 293.24,393.779 293.24,392.998"/>
<path class="KeySig" d="M272.35,325.123 L272.35,332.842 C272.35,335.581 272.48,337.764 272.74,339.389 C274.886,337.566 276.417,336.201 277.334,335.295 C278.376,334.253 279.417,332.818 280.459,330.99 C281.501,329.162 282.021,327.337 282.021,325.514 C282.021,323.691 281.631,322.128 280.85,320.826 C280.068,319.524 279.027,318.873 277.725,318.873 C276.162,318.873 274.86,319.462 273.818,320.639 C272.839,321.941 272.35,323.435 272.35,325.123 M268.24,342.998 L266.975,283.529 C267.891,283.008 268.805,282.748 269.717,282.748 C270.628,282.748 271.537,283.008 272.443,283.529 L271.662,317.998 C274.329,315.717 277.391,314.576 280.85,314.576 C283.381,314.576 285.493,315.618 287.185,317.701 C288.878,319.784 289.725,322.165 289.725,324.842 C289.725,326.529 289.172,328.321 288.068,330.217 C287.027,331.967 285.922,333.331 284.756,334.31 C284.1,334.831 282.438,336.133 279.771,338.217 C278.99,338.8 278.063,339.482 276.99,340.264 C275.917,341.045 275.251,341.534 274.99,341.732 C274.532,341.993 274.105,342.514 273.709,343.295 C273.261,343.951 272.74,344.503 272.146,344.951 C271.698,345.347 271.149,345.545 270.498,345.545 C269.847,345.545 269.323,345.316 268.928,344.857 C268.469,344.399 268.24,343.779 268.24,342.998"/>
<path class="KeySig" d="M247.35,362.623 L247.35,370.342 C247.35,373.081 247.48,375.264 247.74,376.889 C249.886,375.066 251.417,373.701 252.334,372.795 C253.376,371.753 254.417,370.318 255.459,368.49 C256.501,366.662 257.021,364.837 257.021,363.014 C257.021,361.191 256.631,359.628 255.85,358.326 C255.068,357.024 254.027,356.373 252.725,356.373 C251.162,356.373 249.86,356.962 248.818,358.139 C247.839,359.441 247.35,360.936 247.35,362.623 M243.24,380.498 L241.975,321.029 C242.891,320.508 243.805,320.248 244.717,320.248 C245.628,320.248 246.537,320.508 247.443,321.029 L246.662,355.498 C249.329,353.217 252.391,352.076 255.85,352.076 C258.381,352.076 260.493,353.118 262.185,355.201 C263.878,357.284 264.725,359.665 264.725,362.342 C264.725,364.029 264.172,365.821 263.068,367.717 C262.027,369.467 260.922,370.831 259.756,371.811 C259.1,372.331 257.438,373.633 254.771,375.717 C253.99,376.3 253.063,376.982 251.99,377.764 C250.917,378.545 250.251,379.034 249.99,379.232 C249.532,379.493 249.105,380.014 248.709,380.795 C248.261,381.451 247.74,382.003 247.146,382.451 C246.698,382.847 246.149,383.045 245.498,383.045 C244.847,383.045 244.323,382.816 243.928,382.357 C243.469,381.899 243.24,381.279 243.24,380.498"/>
<path class="Beam" fill-rule="evenodd" d="M2397.03,429.464 L2478.98,435.972 L2478.98,448.009 L2397.03,441.501 L2397.03,429.464 "/>
<path class="Beam" fill-rule="evenodd" d="M2397.03,411.464 L2428.28,413.945 L2428.28,425.983 L2397.03,423.501 L2397.03,411.464 "/>
<path class="Beam" fill-rule="evenodd" d="M1967.86,454.467 L2231.74,435.483 L2231.74,447.514 L1967.86,466.498 L1967.86,454.467 "/>
<path class="Beam" fill-rule="evenodd" d="M1967.86,436.467 L2231.74,417.483 L2231.74,429.514 L1967.86,448.498 L1967.86,436.467 "/>
<path class="Beam" fill-rule="evenodd" d="M1711.5,435.594 L1801.62,455.046 L1801.62,467.322 L1711.5,447.871 L1711.5,435.594 "/>
<path class="Beam" fill-rule="evenodd" d="M1711.5,417.594 L1742.75,424.339 L1742.75,436.615 L1711.5,429.871 L1711.5,417.594 "/>
<path class="Beam" fill-rule="evenodd" d="M1362.8,454.449 L1602.07,429.105 L1602.07,441.172 L1362.8,466.516 L1362.8,454.449 "/>
<path class="Beam" fill-rule="evenodd" d="M1362.8,436.449 L1602.07,411.105 L1602.07,423.172 L1362.8,448.516 L1362.8,436.449 "/>
<path class="Beam" fill-rule="evenodd" d="M1079.57,410.688 L1287.37,436.085 L1287.37,448.174 L1079.57,422.777 L1079.57,410.688 "/>
<path class="Beam" fill-rule="evenodd" d="M1079.57,392.688 L1110.82,396.507 L1110.82,408.596 L1079.57,404.777 L1079.57,392.688 "/>
<path class="Beam" fill-rule="evenodd" d="M1287.37,418.085 L1256.12,414.266 L1256.12,426.355 L1287.37,430.174 L1287.37,418.085 "/>
<path class="Beam" fill-rule="evenodd" d="M732.943,435.697 L966.244,410.344 L966.244,422.415 L732.943,447.768 L732.943,435.697 "/>
<path class="Beam" fill-rule="evenodd" d="M732.943,417.697 L966.244,392.344 L966.244,404.415 L732.943,429.768 L732.943,417.697 "/>
<path class="Beam" fill-rule="evenodd" d="M426.209,410.732 L659.51,410.732 L659.51,422.732 L426.209,422.732 L426.209,410.732 "/>
<path class="Beam" fill-rule="evenodd" d="M426.209,392.732 L659.51,392.732 L659.51,404.732 L426.209,404.732 L426.209,392.732 "/>
<path class="VoltaSegment" d="M2381.23,210.123 C2384.03,202.644 2388.06,198.904 2393.33,198.904 C2396.3,198.904 2398.74,199.847 2400.65,201.732 C2402.56,203.618 2403.52,206.029 2403.52,208.967 C2403.52,212.998 2401.42,216.993 2397.23,220.951 L2388.33,229.42 L2396.64,229.42 C2399.46,229.42 2401.28,229.198 2402.08,228.756 C2402.88,228.313 2403.69,227.102 2404.5,225.123 L2405.81,225.123 L2403.34,236.732 L2380.47,236.732 L2380.47,235.467 C2386.74,228.79 2390.9,223.868 2392.95,220.701 C2395.01,217.534 2396.03,214.685 2396.03,212.154 C2396.03,210.279 2395.43,208.646 2394.22,207.256 C2393.01,205.865 2391.43,205.17 2389.48,205.17 C2386.66,205.17 2384.43,206.821 2382.78,210.123 L2381.23,210.123 M2414.41,228.154 C2415.69,228.154 2416.79,228.62 2417.7,229.553 C2418.62,230.485 2419.08,231.594 2419.08,232.881 C2419.08,234.167 2418.62,235.251 2417.7,236.131 C2416.79,237.011 2415.67,237.451 2414.34,237.451 C2413.06,237.451 2411.98,237.001 2411.1,236.099 C2410.22,235.198 2409.78,234.092 2409.78,232.779 C2409.78,231.529 2410.24,230.446 2411.16,229.529 C2412.07,228.613 2413.16,228.154 2414.41,228.154"/>
<polyline class="VoltaSegment" fill="none" stroke="#000000" stroke-width="2.50" stroke-linecap="square" stroke-linejoin="bevel" points="2367.03,236.732 2367.03,189.232"/>
<polyline class="VoltaSegment" fill="none" stroke="#000000" stroke-width="2.50" stroke-linecap="square" stroke-linejoin="bevel" points="2367.03,189.232 2804.39,189.232"/>
<polyline class="VoltaSegment" fill="none" stroke="#000000" stroke-width="2.50" stroke-linecap="square" stroke-linejoin="bevel" points="2804.39,189.232 2804.39,236.732"/>
<path class="VoltaSegment" d="M1708.9,207.681 L1708.9,237.462 C1708.9,239.702 1709,241.132 1709.2,241.752 C1709.4,242.371 1709.81,242.877 1710.44,243.267 C1711.07,243.658 1712.07,243.853 1713.45,243.853 L1714.28,243.853 L1714.28,244.853 L1695.11,244.853 L1695.11,243.853 L1696.07,243.853 C1697.63,243.853 1698.74,243.676 1699.4,243.322 C1700.07,242.968 1700.52,242.475 1700.75,241.845 C1700.97,241.215 1701.09,239.754 1701.09,237.462 L1701.09,218.587 C1701.09,216.9 1701.01,215.848 1700.85,215.431 C1700.69,215.015 1700.39,214.658 1699.95,214.361 C1699.51,214.064 1699.01,213.916 1698.43,213.916 C1697.52,213.916 1696.41,214.202 1695.11,214.775 L1694.62,213.806 L1708.03,207.681 L1708.9,207.681 M1725.87,236.587 C1727.12,236.587 1728.18,237.025 1729.05,237.9 C1729.92,238.775 1730.36,239.832 1730.36,241.072 C1730.36,242.301 1729.92,243.35 1729.04,244.22 C1728.17,245.09 1727.11,245.525 1725.87,245.525 C1724.63,245.525 1723.58,245.09 1722.71,244.22 C1721.85,243.35 1721.42,242.301 1721.42,241.072 C1721.42,239.832 1721.85,238.775 1722.71,237.9 C1723.58,237.025 1724.63,236.587 1725.87,236.587"/>
<polyline class="VoltaSegment" fill="none" stroke="#000000" stroke-width="2.50" stroke-linecap="square" stroke-linejoin="bevel" points="1681.5,244.853 1681.5,197.353"/>
<polyline class="VoltaSegment" fill="none" stroke="#000000" stroke-width="2.50" stroke-linecap="square" stroke-linejoin="bevel" points="1681.5,197.353 2352.7,197.353"/>
<polyline class="VoltaSegment" fill="none" stroke="#000000" stroke-width="2.50" stroke-linecap="square" stroke-linejoin="bevel" points="2352.7,197.353 2352.7,244.853"/>
<path class="NoteDot" d="M2519.06,358.24 C2517.95,357.131 2517.39,355.795 2517.39,354.232 C2517.39,352.67 2517.95,351.334 2519.06,350.225 C2520.16,349.115 2521.5,348.561 2523.06,348.561 C2524.63,348.561 2525.96,349.115 2527.06,350.225 C2528.17,351.334 2528.72,352.67 2528.72,354.232 C2528.72,355.795 2528.17,357.131 2527.06,358.24 C2525.96,359.35 2524.63,359.904 2523.06,359.904 C2521.5,359.904 2520.16,359.35 2519.06,358.24"/>
<path class="NoteDot" d="M1841.7,383.24 C1840.59,382.131 1840.04,380.795 1840.04,379.232 C1840.04,377.67 1840.59,376.334 1841.7,375.225 C1842.81,374.115 1844.15,373.561 1845.71,373.561 C1847.27,373.561 1848.6,374.115 1849.71,375.225 C1850.81,376.334 1851.36,377.67 1851.36,379.232 C1851.36,380.795 1850.81,382.131 1849.71,383.24 C1848.6,384.35 1847.27,384.904 1845.71,384.904 C1844.15,384.904 1842.81,384.35 1841.7,383.24"/>
<path class="Page" d="M141.953,3906.91 C142.089,3906.29 142.224,3905.76 142.359,3905.31 C142.495,3904.87 142.781,3904.21 143.219,3903.34 C143.656,3902.48 144.148,3901.76 144.695,3901.2 C145.242,3900.63 146.003,3900.12 146.977,3899.66 C147.951,3899.21 149.052,3898.98 150.281,3898.98 C152.354,3898.98 154.104,3899.66 155.531,3901.02 C156.958,3902.37 157.672,3904.04 157.672,3906.03 C157.672,3909.04 155.969,3912.33 152.563,3915.91 L145.844,3922.94 L155.391,3922.94 C156.297,3922.94 156.971,3922.79 157.414,3922.48 C157.857,3922.18 158.453,3921.46 159.203,3920.31 L159.719,3920.5 L157.516,3925.98 L141.922,3925.98 L141.922,3925.5 L149.031,3917.95 C152.5,3914.27 154.234,3910.8 154.234,3907.55 C154.234,3905.87 153.714,3904.51 152.672,3903.47 C151.63,3902.43 150.271,3901.91 148.594,3901.91 C147.208,3901.91 146.096,3902.29 145.258,3903.05 C144.419,3903.81 143.599,3905.16 142.797,3907.11 L141.953,3906.91 "/>
</svg>
